G04 #@! TF.GenerationSoftware,KiCad,Pcbnew,5.0.2-bee76a0~70~ubuntu18.04.1*
G04 #@! TF.CreationDate,2019-04-24T08:54:05-03:00*
G04 #@! TF.ProjectId,led_driver,6c65645f-6472-4697-9665-722e6b696361,rev?*
G04 #@! TF.SameCoordinates,Original*
G04 #@! TF.FileFunction,Other,User*
%FSLAX46Y46*%
G04 Gerber Fmt 4.6, Leading zero omitted, Abs format (unit mm)*
G04 Created by KiCad (PCBNEW 5.0.2-bee76a0~70~ubuntu18.04.1) date Wed 24 Apr 2019 08:54:05 -03*
%MOMM*%
%LPD*%
G01*
G04 APERTURE LIST*
%ADD10C,0.050000*%
G04 APERTURE END LIST*
D10*
G04 #@! TO.C,J1*
X161424000Y-80813500D02*
X161424000Y-69623500D01*
X161424000Y-80813500D02*
X174364000Y-80813500D01*
X174364000Y-69623500D02*
X161424000Y-69623500D01*
X174364000Y-69623500D02*
X174364000Y-80813500D01*
G04 #@! TO.C,J2*
X176690000Y-99607500D02*
X176690000Y-83907500D01*
X176690000Y-99607500D02*
X140190000Y-99607500D01*
X140190000Y-83907500D02*
X140190000Y-99607500D01*
X176690000Y-83907500D02*
X140190000Y-83907500D01*
G04 #@! TO.C,J4*
X211335000Y-80935000D02*
X211335000Y-69745000D01*
X211335000Y-80935000D02*
X224275000Y-80935000D01*
X224275000Y-69745000D02*
X211335000Y-69745000D01*
X224275000Y-69745000D02*
X224275000Y-80935000D01*
G04 #@! TO.C,Q1*
X188725500Y-80185000D02*
X181225500Y-80185000D01*
X188725500Y-86185000D02*
X188725500Y-80185000D01*
X181225500Y-86185000D02*
X188725500Y-86185000D01*
X181225500Y-80185000D02*
X181225500Y-86185000D01*
G04 #@! TO.C,Q2*
X180864500Y-69753500D02*
X180864500Y-75153500D01*
X188324500Y-69753500D02*
X188324500Y-75153500D01*
X180864500Y-69753500D02*
X188324500Y-69753500D01*
X180864500Y-75153500D02*
X188324500Y-75153500D01*
G04 #@! TO.C,R1*
X193260000Y-80240000D02*
X205520000Y-80240000D01*
X193260000Y-77240000D02*
X193260000Y-80240000D01*
X205520000Y-77240000D02*
X193260000Y-77240000D01*
X205520000Y-80240000D02*
X205520000Y-77240000D01*
G04 #@! TO.C,R2*
X193260000Y-85320000D02*
X205520000Y-85320000D01*
X193260000Y-82320000D02*
X193260000Y-85320000D01*
X205520000Y-82320000D02*
X193260000Y-82320000D01*
X205520000Y-85320000D02*
X205520000Y-82320000D01*
G04 #@! TO.C,R3*
X193260000Y-70255000D02*
X193260000Y-73255000D01*
X193260000Y-73255000D02*
X205520000Y-73255000D01*
X205520000Y-73255000D02*
X205520000Y-70255000D01*
X205520000Y-70255000D02*
X193260000Y-70255000D01*
G04 #@! TO.C,R4*
X221385000Y-96427000D02*
X224385000Y-96427000D01*
X224385000Y-96427000D02*
X224385000Y-84167000D01*
X224385000Y-84167000D02*
X221385000Y-84167000D01*
X221385000Y-84167000D02*
X221385000Y-96427000D01*
G04 #@! TO.C,RV2*
X180693500Y-99049500D02*
X195193500Y-99049500D01*
X195193500Y-99049500D02*
X195193500Y-91149500D01*
X195193500Y-91149500D02*
X180693500Y-91149500D01*
X180693500Y-91149500D02*
X180693500Y-99049500D01*
G04 #@! TO.C,REF\002A\002A*
X218950000Y-90170000D02*
G75*
G03X218950000Y-90170000I-3050000J0D01*
G01*
G04 #@! TD*
M02*
