M48
; DRILL file {KiCad (6.0.2)} date Thu Nov  3 13:32:59 2022
; FORMAT={-:-/ absolute / inch / decimal}
; #@! TF.CreationDate,2022-11-03T13:32:59+00:00
; #@! TF.GenerationSoftware,Kicad,Pcbnew,(6.0.2)
; #@! TF.FileFunction,Plated,1,2,PTH
FMAT,2
INCH
; #@! TA.AperFunction,Plated,PTH,ComponentDrill
T1C0.0315
; #@! TA.AperFunction,Plated,PTH,ComponentDrill
T2C0.0350
; #@! TA.AperFunction,Plated,PTH,ComponentDrill
T3C0.0433
; #@! TA.AperFunction,Plated,PTH,ComponentDrill
T4C0.0512
; #@! TA.AperFunction,Plated,PTH,ComponentDrill
T5C0.0520
; #@! TA.AperFunction,Plated,PTH,ComponentDrill
T6C0.0791
%
G90
G05
T1
X6.7063Y-4.0157
X7.0409Y-3.2283
X7.0409Y-3.3661
X7.0409Y-3.5039
X7.1063Y-4.0157
X7.4409Y-3.2283
X7.4409Y-3.3661
X7.4409Y-3.5039
T2
X6.7539Y-3.3858
X6.7539Y-3.4858
T3
X6.8882Y-2.675
X6.9882Y-2.675
X7.0882Y-2.675
X7.3606Y-2.675
X7.4606Y-2.675
X7.5606Y-2.675
T4
X7.3228Y-4.0748
X7.5197Y-3.878
X7.7165Y-4.0748
T5
X8.2087Y-3.0512
X8.2087Y-3.248
X8.2087Y-3.4947
X8.2087Y-3.6915
T6
X6.5539Y-3.1858
X6.5539Y-3.5858
T0
M30
