M48
; DRILL file {KiCad 6.0.7-f9a2dced07~116~ubuntu20.04.1} date Thu 13 Oct 2022 03:27:09 BST
; FORMAT={-:-/ absolute / metric / decimal}
; #@! TF.CreationDate,2022-10-13T03:27:09+01:00
; #@! TF.GenerationSoftware,Kicad,Pcbnew,6.0.7-f9a2dced07~116~ubuntu20.04.1
; #@! TF.FileFunction,Plated,1,2,PTH
FMAT,2
METRIC
; #@! TA.AperFunction,Plated,PTH,ComponentDrill
T1C0.800
; #@! TA.AperFunction,Plated,PTH,ComponentDrill
T2C0.890
; #@! TA.AperFunction,Plated,PTH,ComponentDrill
T3C1.100
; #@! TA.AperFunction,Plated,PTH,ComponentDrill
T4C1.300
; #@! TA.AperFunction,Plated,PTH,ComponentDrill
T5C1.320
; #@! TA.AperFunction,Plated,PTH,ComponentDrill
T6C2.010
%
G90
G05
T1
X170.34Y-102.0
X178.84Y-82.0
X178.84Y-85.5
X178.84Y-89.0
X180.5Y-102.0
X189.0Y-82.0
X189.0Y-85.5
X189.0Y-89.0
T2
X171.55Y-86.0
X171.55Y-88.54
T3
X174.96Y-67.945
X177.5Y-67.945
X180.04Y-67.945
X186.96Y-67.945
X189.5Y-67.945
X192.04Y-67.945
T4
X186.0Y-103.5
X191.0Y-98.5
X196.0Y-103.5
T5
X208.5Y-77.5
X208.5Y-82.5
X208.5Y-88.765
X208.5Y-93.765
T6
X166.47Y-80.92
X166.47Y-91.08
T0
M30
