G04 #@! TF.GenerationSoftware,KiCad,Pcbnew,(6.0.2)*
G04 #@! TF.CreationDate,2022-11-03T13:32:56+00:00*
G04 #@! TF.ProjectId,mosfet_circuit,6d6f7366-6574-45f6-9369-72637569742e,rev?*
G04 #@! TF.SameCoordinates,Original*
G04 #@! TF.FileFunction,AssemblyDrawing,Top*
%FSLAX46Y46*%
G04 Gerber Fmt 4.6, Leading zero omitted, Abs format (unit mm)*
G04 Created by KiCad (PCBNEW (6.0.2)) date 2022-11-03 13:32:56*
%MOMM*%
%LPD*%
G01*
G04 APERTURE LIST*
%ADD10C,0.150000*%
%ADD11C,0.100000*%
G04 APERTURE END LIST*
D10*
X205952380Y-80333333D02*
X206666666Y-80333333D01*
X206809523Y-80380952D01*
X206904761Y-80476190D01*
X206952380Y-80619047D01*
X206952380Y-80714285D01*
X206952380Y-79333333D02*
X206952380Y-79904761D01*
X206952380Y-79619047D02*
X205952380Y-79619047D01*
X206095238Y-79714285D01*
X206190476Y-79809523D01*
X206238095Y-79904761D01*
X171002380Y-86333333D02*
X171716666Y-86333333D01*
X171859523Y-86380952D01*
X171954761Y-86476190D01*
X172002380Y-86619047D01*
X172002380Y-86714285D01*
X171097619Y-85904761D02*
X171050000Y-85857142D01*
X171002380Y-85761904D01*
X171002380Y-85523809D01*
X171050000Y-85428571D01*
X171097619Y-85380952D01*
X171192857Y-85333333D01*
X171288095Y-85333333D01*
X171430952Y-85380952D01*
X172002380Y-85952380D01*
X172002380Y-85333333D01*
X205952380Y-91598333D02*
X206666666Y-91598333D01*
X206809523Y-91645952D01*
X206904761Y-91741190D01*
X206952380Y-91884047D01*
X206952380Y-91979285D01*
X206285714Y-90693571D02*
X206952380Y-90693571D01*
X205904761Y-90931666D02*
X206619047Y-91169761D01*
X206619047Y-90550714D01*
X175619047Y-70373571D02*
X175761904Y-70421190D01*
X175809523Y-70468809D01*
X175857142Y-70564047D01*
X175857142Y-70706904D01*
X175809523Y-70802142D01*
X175761904Y-70849761D01*
X175666666Y-70897380D01*
X175285714Y-70897380D01*
X175285714Y-69897380D01*
X175619047Y-69897380D01*
X175714285Y-69945000D01*
X175761904Y-69992619D01*
X175809523Y-70087857D01*
X175809523Y-70183095D01*
X175761904Y-70278333D01*
X175714285Y-70325952D01*
X175619047Y-70373571D01*
X175285714Y-70373571D01*
X176285714Y-69897380D02*
X176285714Y-70706904D01*
X176333333Y-70802142D01*
X176380952Y-70849761D01*
X176476190Y-70897380D01*
X176666666Y-70897380D01*
X176761904Y-70849761D01*
X176809523Y-70802142D01*
X176857142Y-70706904D01*
X176857142Y-69897380D01*
X177238095Y-69897380D02*
X177904761Y-69897380D01*
X177238095Y-70897380D01*
X177904761Y-70897380D01*
X178809523Y-70897380D02*
X178238095Y-70897380D01*
X178523809Y-70897380D02*
X178523809Y-69897380D01*
X178428571Y-70040238D01*
X178333333Y-70135476D01*
X178238095Y-70183095D01*
X179761904Y-70897380D02*
X179190476Y-70897380D01*
X179476190Y-70897380D02*
X179476190Y-69897380D01*
X179380952Y-70040238D01*
X179285714Y-70135476D01*
X179190476Y-70183095D01*
X177404761Y-64222619D02*
X177309523Y-64175000D01*
X177214285Y-64079761D01*
X177071428Y-63936904D01*
X176976190Y-63889285D01*
X176880952Y-63889285D01*
X176928571Y-64127380D02*
X176833333Y-64079761D01*
X176738095Y-63984523D01*
X176690476Y-63794047D01*
X176690476Y-63460714D01*
X176738095Y-63270238D01*
X176833333Y-63175000D01*
X176928571Y-63127380D01*
X177119047Y-63127380D01*
X177214285Y-63175000D01*
X177309523Y-63270238D01*
X177357142Y-63460714D01*
X177357142Y-63794047D01*
X177309523Y-63984523D01*
X177214285Y-64079761D01*
X177119047Y-64127380D01*
X176928571Y-64127380D01*
X178309523Y-64127380D02*
X177738095Y-64127380D01*
X178023809Y-64127380D02*
X178023809Y-63127380D01*
X177928571Y-63270238D01*
X177833333Y-63365476D01*
X177738095Y-63413095D01*
X186666666Y-70897380D02*
X186666666Y-69897380D01*
X187714285Y-70897380D02*
X187380952Y-70421190D01*
X187142857Y-70897380D02*
X187142857Y-69897380D01*
X187523809Y-69897380D01*
X187619047Y-69945000D01*
X187666666Y-69992619D01*
X187714285Y-70087857D01*
X187714285Y-70230714D01*
X187666666Y-70325952D01*
X187619047Y-70373571D01*
X187523809Y-70421190D01*
X187142857Y-70421190D01*
X188476190Y-70373571D02*
X188142857Y-70373571D01*
X188142857Y-70897380D02*
X188142857Y-69897380D01*
X188619047Y-69897380D01*
X189428571Y-70230714D02*
X189428571Y-70897380D01*
X189190476Y-69849761D02*
X188952380Y-70564047D01*
X189571428Y-70564047D01*
X190000000Y-70897380D02*
X190190476Y-70897380D01*
X190285714Y-70849761D01*
X190333333Y-70802142D01*
X190428571Y-70659285D01*
X190476190Y-70468809D01*
X190476190Y-70087857D01*
X190428571Y-69992619D01*
X190380952Y-69945000D01*
X190285714Y-69897380D01*
X190095238Y-69897380D01*
X190000000Y-69945000D01*
X189952380Y-69992619D01*
X189904761Y-70087857D01*
X189904761Y-70325952D01*
X189952380Y-70421190D01*
X190000000Y-70468809D01*
X190095238Y-70516428D01*
X190285714Y-70516428D01*
X190380952Y-70468809D01*
X190428571Y-70421190D01*
X190476190Y-70325952D01*
X191095238Y-69897380D02*
X191190476Y-69897380D01*
X191285714Y-69945000D01*
X191333333Y-69992619D01*
X191380952Y-70087857D01*
X191428571Y-70278333D01*
X191428571Y-70516428D01*
X191380952Y-70706904D01*
X191333333Y-70802142D01*
X191285714Y-70849761D01*
X191190476Y-70897380D01*
X191095238Y-70897380D01*
X191000000Y-70849761D01*
X190952380Y-70802142D01*
X190904761Y-70706904D01*
X190857142Y-70516428D01*
X190857142Y-70278333D01*
X190904761Y-70087857D01*
X190952380Y-69992619D01*
X191000000Y-69945000D01*
X191095238Y-69897380D01*
X192333333Y-69897380D02*
X191857142Y-69897380D01*
X191809523Y-70373571D01*
X191857142Y-70325952D01*
X191952380Y-70278333D01*
X192190476Y-70278333D01*
X192285714Y-70325952D01*
X192333333Y-70373571D01*
X192380952Y-70468809D01*
X192380952Y-70706904D01*
X192333333Y-70802142D01*
X192285714Y-70849761D01*
X192190476Y-70897380D01*
X191952380Y-70897380D01*
X191857142Y-70849761D01*
X191809523Y-70802142D01*
X189404761Y-64222619D02*
X189309523Y-64175000D01*
X189214285Y-64079761D01*
X189071428Y-63936904D01*
X188976190Y-63889285D01*
X188880952Y-63889285D01*
X188928571Y-64127380D02*
X188833333Y-64079761D01*
X188738095Y-63984523D01*
X188690476Y-63794047D01*
X188690476Y-63460714D01*
X188738095Y-63270238D01*
X188833333Y-63175000D01*
X188928571Y-63127380D01*
X189119047Y-63127380D01*
X189214285Y-63175000D01*
X189309523Y-63270238D01*
X189357142Y-63460714D01*
X189357142Y-63794047D01*
X189309523Y-63984523D01*
X189214285Y-64079761D01*
X189119047Y-64127380D01*
X188928571Y-64127380D01*
X189738095Y-63222619D02*
X189785714Y-63175000D01*
X189880952Y-63127380D01*
X190119047Y-63127380D01*
X190214285Y-63175000D01*
X190261904Y-63222619D01*
X190309523Y-63317857D01*
X190309523Y-63413095D01*
X190261904Y-63555952D01*
X189690476Y-64127380D01*
X190309523Y-64127380D01*
X183753333Y-82452380D02*
X183420000Y-81976190D01*
X183181904Y-82452380D02*
X183181904Y-81452380D01*
X183562857Y-81452380D01*
X183658095Y-81500000D01*
X183705714Y-81547619D01*
X183753333Y-81642857D01*
X183753333Y-81785714D01*
X183705714Y-81880952D01*
X183658095Y-81928571D01*
X183562857Y-81976190D01*
X183181904Y-81976190D01*
X184705714Y-82452380D02*
X184134285Y-82452380D01*
X184420000Y-82452380D02*
X184420000Y-81452380D01*
X184324761Y-81595238D01*
X184229523Y-81690476D01*
X184134285Y-81738095D01*
X183753333Y-85952380D02*
X183420000Y-85476190D01*
X183181904Y-85952380D02*
X183181904Y-84952380D01*
X183562857Y-84952380D01*
X183658095Y-85000000D01*
X183705714Y-85047619D01*
X183753333Y-85142857D01*
X183753333Y-85285714D01*
X183705714Y-85380952D01*
X183658095Y-85428571D01*
X183562857Y-85476190D01*
X183181904Y-85476190D01*
X184134285Y-85047619D02*
X184181904Y-85000000D01*
X184277142Y-84952380D01*
X184515238Y-84952380D01*
X184610476Y-85000000D01*
X184658095Y-85047619D01*
X184705714Y-85142857D01*
X184705714Y-85238095D01*
X184658095Y-85380952D01*
X184086666Y-85952380D01*
X184705714Y-85952380D01*
X183753333Y-89452380D02*
X183420000Y-88976190D01*
X183181904Y-89452380D02*
X183181904Y-88452380D01*
X183562857Y-88452380D01*
X183658095Y-88500000D01*
X183705714Y-88547619D01*
X183753333Y-88642857D01*
X183753333Y-88785714D01*
X183705714Y-88880952D01*
X183658095Y-88928571D01*
X183562857Y-88976190D01*
X183181904Y-88976190D01*
X184086666Y-88452380D02*
X184705714Y-88452380D01*
X184372380Y-88833333D01*
X184515238Y-88833333D01*
X184610476Y-88880952D01*
X184658095Y-88928571D01*
X184705714Y-89023809D01*
X184705714Y-89261904D01*
X184658095Y-89357142D01*
X184610476Y-89404761D01*
X184515238Y-89452380D01*
X184229523Y-89452380D01*
X184134285Y-89404761D01*
X184086666Y-89357142D01*
X175253333Y-102452380D02*
X174920000Y-101976190D01*
X174681904Y-102452380D02*
X174681904Y-101452380D01*
X175062857Y-101452380D01*
X175158095Y-101500000D01*
X175205714Y-101547619D01*
X175253333Y-101642857D01*
X175253333Y-101785714D01*
X175205714Y-101880952D01*
X175158095Y-101928571D01*
X175062857Y-101976190D01*
X174681904Y-101976190D01*
X176110476Y-101785714D02*
X176110476Y-102452380D01*
X175872380Y-101404761D02*
X175634285Y-102119047D01*
X176253333Y-102119047D01*
X191452380Y-101595238D02*
X190976190Y-101928571D01*
X191452380Y-102166666D02*
X190452380Y-102166666D01*
X190452380Y-101785714D01*
X190500000Y-101690476D01*
X190547619Y-101642857D01*
X190642857Y-101595238D01*
X190785714Y-101595238D01*
X190880952Y-101642857D01*
X190928571Y-101690476D01*
X190976190Y-101785714D01*
X190976190Y-102166666D01*
X190452380Y-101309523D02*
X191452380Y-100976190D01*
X190452380Y-100642857D01*
X190547619Y-100357142D02*
X190500000Y-100309523D01*
X190452380Y-100214285D01*
X190452380Y-99976190D01*
X190500000Y-99880952D01*
X190547619Y-99833333D01*
X190642857Y-99785714D01*
X190738095Y-99785714D01*
X190880952Y-99833333D01*
X191452380Y-100404761D01*
X191452380Y-99785714D01*
X205714285Y-105752380D02*
X205714285Y-104752380D01*
X206047619Y-105466666D01*
X206380952Y-104752380D01*
X206380952Y-105752380D01*
X207000000Y-105752380D02*
X206904761Y-105704761D01*
X206857142Y-105657142D01*
X206809523Y-105561904D01*
X206809523Y-105276190D01*
X206857142Y-105180952D01*
X206904761Y-105133333D01*
X207000000Y-105085714D01*
X207142857Y-105085714D01*
X207238095Y-105133333D01*
X207285714Y-105180952D01*
X207333333Y-105276190D01*
X207333333Y-105561904D01*
X207285714Y-105657142D01*
X207238095Y-105704761D01*
X207142857Y-105752380D01*
X207000000Y-105752380D01*
X208190476Y-105085714D02*
X208190476Y-105752380D01*
X207761904Y-105085714D02*
X207761904Y-105609523D01*
X207809523Y-105704761D01*
X207904761Y-105752380D01*
X208047619Y-105752380D01*
X208142857Y-105704761D01*
X208190476Y-105657142D01*
X208666666Y-105085714D02*
X208666666Y-105752380D01*
X208666666Y-105180952D02*
X208714285Y-105133333D01*
X208809523Y-105085714D01*
X208952380Y-105085714D01*
X209047619Y-105133333D01*
X209095238Y-105228571D01*
X209095238Y-105752380D01*
X209428571Y-105085714D02*
X209809523Y-105085714D01*
X209571428Y-104752380D02*
X209571428Y-105609523D01*
X209619047Y-105704761D01*
X209714285Y-105752380D01*
X209809523Y-105752380D01*
X210142857Y-105752380D02*
X210142857Y-105085714D01*
X210142857Y-104752380D02*
X210095238Y-104800000D01*
X210142857Y-104847619D01*
X210190476Y-104800000D01*
X210142857Y-104752380D01*
X210142857Y-104847619D01*
X210619047Y-105085714D02*
X210619047Y-105752380D01*
X210619047Y-105180952D02*
X210666666Y-105133333D01*
X210761904Y-105085714D01*
X210904761Y-105085714D01*
X211000000Y-105133333D01*
X211047619Y-105228571D01*
X211047619Y-105752380D01*
X211952380Y-105085714D02*
X211952380Y-105895238D01*
X211904761Y-105990476D01*
X211857142Y-106038095D01*
X211761904Y-106085714D01*
X211619047Y-106085714D01*
X211523809Y-106038095D01*
X211952380Y-105704761D02*
X211857142Y-105752380D01*
X211666666Y-105752380D01*
X211571428Y-105704761D01*
X211523809Y-105657142D01*
X211476190Y-105561904D01*
X211476190Y-105276190D01*
X211523809Y-105180952D01*
X211571428Y-105133333D01*
X211666666Y-105085714D01*
X211857142Y-105085714D01*
X211952380Y-105133333D01*
X212428571Y-105752380D02*
X212428571Y-104752380D01*
X212428571Y-105228571D02*
X213000000Y-105228571D01*
X213000000Y-105752380D02*
X213000000Y-104752380D01*
X213619047Y-105752380D02*
X213523809Y-105704761D01*
X213476190Y-105657142D01*
X213428571Y-105561904D01*
X213428571Y-105276190D01*
X213476190Y-105180952D01*
X213523809Y-105133333D01*
X213619047Y-105085714D01*
X213761904Y-105085714D01*
X213857142Y-105133333D01*
X213904761Y-105180952D01*
X213952380Y-105276190D01*
X213952380Y-105561904D01*
X213904761Y-105657142D01*
X213857142Y-105704761D01*
X213761904Y-105752380D01*
X213619047Y-105752380D01*
X214523809Y-105752380D02*
X214428571Y-105704761D01*
X214380952Y-105609523D01*
X214380952Y-104752380D01*
X215285714Y-105704761D02*
X215190476Y-105752380D01*
X215000000Y-105752380D01*
X214904761Y-105704761D01*
X214857142Y-105609523D01*
X214857142Y-105228571D01*
X214904761Y-105133333D01*
X215000000Y-105085714D01*
X215190476Y-105085714D01*
X215285714Y-105133333D01*
X215333333Y-105228571D01*
X215333333Y-105323809D01*
X214857142Y-105419047D01*
X209738095Y-101952380D02*
X209738095Y-100952380D01*
X209738095Y-101428571D02*
X210309523Y-101428571D01*
X210309523Y-101952380D02*
X210309523Y-100952380D01*
X211214285Y-101285714D02*
X211214285Y-101952380D01*
X210976190Y-100904761D02*
X210738095Y-101619047D01*
X211357142Y-101619047D01*
X158214285Y-73752380D02*
X158214285Y-72752380D01*
X158547619Y-73466666D01*
X158880952Y-72752380D01*
X158880952Y-73752380D01*
X159500000Y-73752380D02*
X159404761Y-73704761D01*
X159357142Y-73657142D01*
X159309523Y-73561904D01*
X159309523Y-73276190D01*
X159357142Y-73180952D01*
X159404761Y-73133333D01*
X159500000Y-73085714D01*
X159642857Y-73085714D01*
X159738095Y-73133333D01*
X159785714Y-73180952D01*
X159833333Y-73276190D01*
X159833333Y-73561904D01*
X159785714Y-73657142D01*
X159738095Y-73704761D01*
X159642857Y-73752380D01*
X159500000Y-73752380D01*
X160690476Y-73085714D02*
X160690476Y-73752380D01*
X160261904Y-73085714D02*
X160261904Y-73609523D01*
X160309523Y-73704761D01*
X160404761Y-73752380D01*
X160547619Y-73752380D01*
X160642857Y-73704761D01*
X160690476Y-73657142D01*
X161166666Y-73085714D02*
X161166666Y-73752380D01*
X161166666Y-73180952D02*
X161214285Y-73133333D01*
X161309523Y-73085714D01*
X161452380Y-73085714D01*
X161547619Y-73133333D01*
X161595238Y-73228571D01*
X161595238Y-73752380D01*
X161928571Y-73085714D02*
X162309523Y-73085714D01*
X162071428Y-72752380D02*
X162071428Y-73609523D01*
X162119047Y-73704761D01*
X162214285Y-73752380D01*
X162309523Y-73752380D01*
X162642857Y-73752380D02*
X162642857Y-73085714D01*
X162642857Y-72752380D02*
X162595238Y-72800000D01*
X162642857Y-72847619D01*
X162690476Y-72800000D01*
X162642857Y-72752380D01*
X162642857Y-72847619D01*
X163119047Y-73085714D02*
X163119047Y-73752380D01*
X163119047Y-73180952D02*
X163166666Y-73133333D01*
X163261904Y-73085714D01*
X163404761Y-73085714D01*
X163500000Y-73133333D01*
X163547619Y-73228571D01*
X163547619Y-73752380D01*
X164452380Y-73085714D02*
X164452380Y-73895238D01*
X164404761Y-73990476D01*
X164357142Y-74038095D01*
X164261904Y-74085714D01*
X164119047Y-74085714D01*
X164023809Y-74038095D01*
X164452380Y-73704761D02*
X164357142Y-73752380D01*
X164166666Y-73752380D01*
X164071428Y-73704761D01*
X164023809Y-73657142D01*
X163976190Y-73561904D01*
X163976190Y-73276190D01*
X164023809Y-73180952D01*
X164071428Y-73133333D01*
X164166666Y-73085714D01*
X164357142Y-73085714D01*
X164452380Y-73133333D01*
X164928571Y-73752380D02*
X164928571Y-72752380D01*
X164928571Y-73228571D02*
X165500000Y-73228571D01*
X165500000Y-73752380D02*
X165500000Y-72752380D01*
X166119047Y-73752380D02*
X166023809Y-73704761D01*
X165976190Y-73657142D01*
X165928571Y-73561904D01*
X165928571Y-73276190D01*
X165976190Y-73180952D01*
X166023809Y-73133333D01*
X166119047Y-73085714D01*
X166261904Y-73085714D01*
X166357142Y-73133333D01*
X166404761Y-73180952D01*
X166452380Y-73276190D01*
X166452380Y-73561904D01*
X166404761Y-73657142D01*
X166357142Y-73704761D01*
X166261904Y-73752380D01*
X166119047Y-73752380D01*
X167023809Y-73752380D02*
X166928571Y-73704761D01*
X166880952Y-73609523D01*
X166880952Y-72752380D01*
X167785714Y-73704761D02*
X167690476Y-73752380D01*
X167500000Y-73752380D01*
X167404761Y-73704761D01*
X167357142Y-73609523D01*
X167357142Y-73228571D01*
X167404761Y-73133333D01*
X167500000Y-73085714D01*
X167690476Y-73085714D01*
X167785714Y-73133333D01*
X167833333Y-73228571D01*
X167833333Y-73323809D01*
X167357142Y-73419047D01*
X162238095Y-69952380D02*
X162238095Y-68952380D01*
X162238095Y-69428571D02*
X162809523Y-69428571D01*
X162809523Y-69952380D02*
X162809523Y-68952380D01*
X163809523Y-69952380D02*
X163238095Y-69952380D01*
X163523809Y-69952380D02*
X163523809Y-68952380D01*
X163428571Y-69095238D01*
X163333333Y-69190476D01*
X163238095Y-69238095D01*
X158214285Y-105752380D02*
X158214285Y-104752380D01*
X158547619Y-105466666D01*
X158880952Y-104752380D01*
X158880952Y-105752380D01*
X159500000Y-105752380D02*
X159404761Y-105704761D01*
X159357142Y-105657142D01*
X159309523Y-105561904D01*
X159309523Y-105276190D01*
X159357142Y-105180952D01*
X159404761Y-105133333D01*
X159500000Y-105085714D01*
X159642857Y-105085714D01*
X159738095Y-105133333D01*
X159785714Y-105180952D01*
X159833333Y-105276190D01*
X159833333Y-105561904D01*
X159785714Y-105657142D01*
X159738095Y-105704761D01*
X159642857Y-105752380D01*
X159500000Y-105752380D01*
X160690476Y-105085714D02*
X160690476Y-105752380D01*
X160261904Y-105085714D02*
X160261904Y-105609523D01*
X160309523Y-105704761D01*
X160404761Y-105752380D01*
X160547619Y-105752380D01*
X160642857Y-105704761D01*
X160690476Y-105657142D01*
X161166666Y-105085714D02*
X161166666Y-105752380D01*
X161166666Y-105180952D02*
X161214285Y-105133333D01*
X161309523Y-105085714D01*
X161452380Y-105085714D01*
X161547619Y-105133333D01*
X161595238Y-105228571D01*
X161595238Y-105752380D01*
X161928571Y-105085714D02*
X162309523Y-105085714D01*
X162071428Y-104752380D02*
X162071428Y-105609523D01*
X162119047Y-105704761D01*
X162214285Y-105752380D01*
X162309523Y-105752380D01*
X162642857Y-105752380D02*
X162642857Y-105085714D01*
X162642857Y-104752380D02*
X162595238Y-104800000D01*
X162642857Y-104847619D01*
X162690476Y-104800000D01*
X162642857Y-104752380D01*
X162642857Y-104847619D01*
X163119047Y-105085714D02*
X163119047Y-105752380D01*
X163119047Y-105180952D02*
X163166666Y-105133333D01*
X163261904Y-105085714D01*
X163404761Y-105085714D01*
X163500000Y-105133333D01*
X163547619Y-105228571D01*
X163547619Y-105752380D01*
X164452380Y-105085714D02*
X164452380Y-105895238D01*
X164404761Y-105990476D01*
X164357142Y-106038095D01*
X164261904Y-106085714D01*
X164119047Y-106085714D01*
X164023809Y-106038095D01*
X164452380Y-105704761D02*
X164357142Y-105752380D01*
X164166666Y-105752380D01*
X164071428Y-105704761D01*
X164023809Y-105657142D01*
X163976190Y-105561904D01*
X163976190Y-105276190D01*
X164023809Y-105180952D01*
X164071428Y-105133333D01*
X164166666Y-105085714D01*
X164357142Y-105085714D01*
X164452380Y-105133333D01*
X164928571Y-105752380D02*
X164928571Y-104752380D01*
X164928571Y-105228571D02*
X165500000Y-105228571D01*
X165500000Y-105752380D02*
X165500000Y-104752380D01*
X166119047Y-105752380D02*
X166023809Y-105704761D01*
X165976190Y-105657142D01*
X165928571Y-105561904D01*
X165928571Y-105276190D01*
X165976190Y-105180952D01*
X166023809Y-105133333D01*
X166119047Y-105085714D01*
X166261904Y-105085714D01*
X166357142Y-105133333D01*
X166404761Y-105180952D01*
X166452380Y-105276190D01*
X166452380Y-105561904D01*
X166404761Y-105657142D01*
X166357142Y-105704761D01*
X166261904Y-105752380D01*
X166119047Y-105752380D01*
X167023809Y-105752380D02*
X166928571Y-105704761D01*
X166880952Y-105609523D01*
X166880952Y-104752380D01*
X167785714Y-105704761D02*
X167690476Y-105752380D01*
X167500000Y-105752380D01*
X167404761Y-105704761D01*
X167357142Y-105609523D01*
X167357142Y-105228571D01*
X167404761Y-105133333D01*
X167500000Y-105085714D01*
X167690476Y-105085714D01*
X167785714Y-105133333D01*
X167833333Y-105228571D01*
X167833333Y-105323809D01*
X167357142Y-105419047D01*
X162238095Y-101952380D02*
X162238095Y-100952380D01*
X162238095Y-101428571D02*
X162809523Y-101428571D01*
X162809523Y-101952380D02*
X162809523Y-100952380D01*
X163238095Y-101047619D02*
X163285714Y-101000000D01*
X163380952Y-100952380D01*
X163619047Y-100952380D01*
X163714285Y-101000000D01*
X163761904Y-101047619D01*
X163809523Y-101142857D01*
X163809523Y-101238095D01*
X163761904Y-101380952D01*
X163190476Y-101952380D01*
X163809523Y-101952380D01*
X194714285Y-73752380D02*
X194714285Y-72752380D01*
X195047619Y-73466666D01*
X195380952Y-72752380D01*
X195380952Y-73752380D01*
X196000000Y-73752380D02*
X195904761Y-73704761D01*
X195857142Y-73657142D01*
X195809523Y-73561904D01*
X195809523Y-73276190D01*
X195857142Y-73180952D01*
X195904761Y-73133333D01*
X196000000Y-73085714D01*
X196142857Y-73085714D01*
X196238095Y-73133333D01*
X196285714Y-73180952D01*
X196333333Y-73276190D01*
X196333333Y-73561904D01*
X196285714Y-73657142D01*
X196238095Y-73704761D01*
X196142857Y-73752380D01*
X196000000Y-73752380D01*
X197190476Y-73085714D02*
X197190476Y-73752380D01*
X196761904Y-73085714D02*
X196761904Y-73609523D01*
X196809523Y-73704761D01*
X196904761Y-73752380D01*
X197047619Y-73752380D01*
X197142857Y-73704761D01*
X197190476Y-73657142D01*
X197666666Y-73085714D02*
X197666666Y-73752380D01*
X197666666Y-73180952D02*
X197714285Y-73133333D01*
X197809523Y-73085714D01*
X197952380Y-73085714D01*
X198047619Y-73133333D01*
X198095238Y-73228571D01*
X198095238Y-73752380D01*
X198428571Y-73085714D02*
X198809523Y-73085714D01*
X198571428Y-72752380D02*
X198571428Y-73609523D01*
X198619047Y-73704761D01*
X198714285Y-73752380D01*
X198809523Y-73752380D01*
X199142857Y-73752380D02*
X199142857Y-73085714D01*
X199142857Y-72752380D02*
X199095238Y-72800000D01*
X199142857Y-72847619D01*
X199190476Y-72800000D01*
X199142857Y-72752380D01*
X199142857Y-72847619D01*
X199619047Y-73085714D02*
X199619047Y-73752380D01*
X199619047Y-73180952D02*
X199666666Y-73133333D01*
X199761904Y-73085714D01*
X199904761Y-73085714D01*
X200000000Y-73133333D01*
X200047619Y-73228571D01*
X200047619Y-73752380D01*
X200952380Y-73085714D02*
X200952380Y-73895238D01*
X200904761Y-73990476D01*
X200857142Y-74038095D01*
X200761904Y-74085714D01*
X200619047Y-74085714D01*
X200523809Y-74038095D01*
X200952380Y-73704761D02*
X200857142Y-73752380D01*
X200666666Y-73752380D01*
X200571428Y-73704761D01*
X200523809Y-73657142D01*
X200476190Y-73561904D01*
X200476190Y-73276190D01*
X200523809Y-73180952D01*
X200571428Y-73133333D01*
X200666666Y-73085714D01*
X200857142Y-73085714D01*
X200952380Y-73133333D01*
X201428571Y-73752380D02*
X201428571Y-72752380D01*
X201428571Y-73228571D02*
X202000000Y-73228571D01*
X202000000Y-73752380D02*
X202000000Y-72752380D01*
X202619047Y-73752380D02*
X202523809Y-73704761D01*
X202476190Y-73657142D01*
X202428571Y-73561904D01*
X202428571Y-73276190D01*
X202476190Y-73180952D01*
X202523809Y-73133333D01*
X202619047Y-73085714D01*
X202761904Y-73085714D01*
X202857142Y-73133333D01*
X202904761Y-73180952D01*
X202952380Y-73276190D01*
X202952380Y-73561904D01*
X202904761Y-73657142D01*
X202857142Y-73704761D01*
X202761904Y-73752380D01*
X202619047Y-73752380D01*
X203523809Y-73752380D02*
X203428571Y-73704761D01*
X203380952Y-73609523D01*
X203380952Y-72752380D01*
X204285714Y-73704761D02*
X204190476Y-73752380D01*
X204000000Y-73752380D01*
X203904761Y-73704761D01*
X203857142Y-73609523D01*
X203857142Y-73228571D01*
X203904761Y-73133333D01*
X204000000Y-73085714D01*
X204190476Y-73085714D01*
X204285714Y-73133333D01*
X204333333Y-73228571D01*
X204333333Y-73323809D01*
X203857142Y-73419047D01*
X198738095Y-69952380D02*
X198738095Y-68952380D01*
X198738095Y-69428571D02*
X199309523Y-69428571D01*
X199309523Y-69952380D02*
X199309523Y-68952380D01*
X199690476Y-68952380D02*
X200309523Y-68952380D01*
X199976190Y-69333333D01*
X200119047Y-69333333D01*
X200214285Y-69380952D01*
X200261904Y-69428571D01*
X200309523Y-69523809D01*
X200309523Y-69761904D01*
X200261904Y-69857142D01*
X200214285Y-69904761D01*
X200119047Y-69952380D01*
X199833333Y-69952380D01*
X199738095Y-69904761D01*
X199690476Y-69857142D01*
D11*
X209010000Y-75830000D02*
X209010000Y-76220000D01*
X214720000Y-80460000D02*
X212820000Y-80460000D01*
X208250000Y-75450000D02*
X208250000Y-75830000D01*
X212180000Y-75830000D02*
X212180000Y-79140000D01*
X202530000Y-79520000D02*
X202530000Y-75450000D01*
X211040000Y-76220000D02*
X208250000Y-76220000D01*
X207860000Y-75830000D02*
X207860000Y-79140000D01*
X208250000Y-80460000D02*
X208250000Y-80840000D01*
X204180000Y-78980000D02*
X203550000Y-75940000D01*
X208250000Y-78760000D02*
X208250000Y-76220000D01*
X212180000Y-80840000D02*
X212180000Y-84140000D01*
X207860000Y-74890000D02*
X207860000Y-75830000D01*
X214720000Y-75450000D02*
X214720000Y-74890000D01*
X208250000Y-79140000D02*
X208250000Y-75830000D01*
X205330000Y-85080000D02*
X205330000Y-74890000D01*
X202280000Y-74890000D02*
X202280000Y-74390000D01*
X205070000Y-80460000D02*
X202530000Y-80460000D01*
X214720000Y-80460000D02*
X214720000Y-79520000D01*
X212820000Y-79520000D02*
X208250000Y-79520000D01*
X211040000Y-78760000D02*
X208250000Y-78760000D01*
X207860000Y-80840000D02*
X207860000Y-79140000D01*
X207100000Y-74390000D02*
X206850000Y-74890000D01*
X212180000Y-84140000D02*
X209010000Y-84140000D01*
X214720000Y-84520000D02*
X214720000Y-80460000D01*
X211040000Y-81220000D02*
X208250000Y-81220000D01*
X214720000Y-79520000D02*
X212820000Y-79520000D01*
X205070000Y-79520000D02*
X202530000Y-79520000D01*
X212180000Y-75830000D02*
X209010000Y-75830000D01*
X214720000Y-85080000D02*
X207860000Y-85080000D01*
X213960000Y-74390000D02*
X213710000Y-74890000D01*
X204180000Y-83990000D02*
X203550000Y-80940000D01*
X212310000Y-74390000D02*
X213960000Y-74390000D01*
X209010000Y-84140000D02*
X209010000Y-83760000D01*
X212820000Y-79520000D02*
X212820000Y-75450000D01*
X205070000Y-75450000D02*
X205070000Y-79520000D01*
X211040000Y-78760000D02*
X211040000Y-76220000D01*
X208250000Y-79520000D02*
X208250000Y-79140000D01*
X212180000Y-80840000D02*
X209010000Y-80840000D01*
X208250000Y-83760000D02*
X208250000Y-81220000D01*
X209010000Y-79140000D02*
X209010000Y-78760000D01*
X212820000Y-75450000D02*
X214720000Y-75450000D01*
X204050000Y-79110000D02*
X203420000Y-76060000D01*
X204050000Y-84120000D02*
X203420000Y-81060000D01*
X211040000Y-83760000D02*
X208250000Y-83760000D01*
X212560000Y-74890000D02*
X213710000Y-74890000D01*
X211040000Y-83760000D02*
X211040000Y-81220000D01*
X212820000Y-80460000D02*
X212820000Y-84520000D01*
X207860000Y-85080000D02*
X205330000Y-85080000D01*
X212820000Y-80460000D02*
X208250000Y-80460000D01*
X202530000Y-80460000D02*
X202530000Y-84520000D01*
X207860000Y-85080000D02*
X207860000Y-84140000D01*
X202280000Y-74890000D02*
X202280000Y-85080000D01*
X202280000Y-74890000D02*
X205330000Y-74890000D01*
X214720000Y-79520000D02*
X214720000Y-75450000D01*
X213710000Y-74890000D02*
X214720000Y-74890000D01*
X202280000Y-74390000D02*
X207100000Y-74390000D01*
X208250000Y-84520000D02*
X212820000Y-84520000D01*
X209010000Y-80840000D02*
X209010000Y-81220000D01*
X207860000Y-84140000D02*
X207860000Y-80840000D01*
X208250000Y-80840000D02*
X208250000Y-84140000D01*
X205070000Y-84520000D02*
X202530000Y-84520000D01*
X208250000Y-75450000D02*
X212820000Y-75450000D01*
X208250000Y-84520000D02*
X208250000Y-84140000D01*
X205070000Y-80460000D02*
X205070000Y-84520000D01*
X212820000Y-84520000D02*
X214720000Y-84520000D01*
X205330000Y-85080000D02*
X202280000Y-85080000D01*
X207860000Y-74890000D02*
X212560000Y-74890000D01*
X212310000Y-74390000D02*
X212560000Y-74890000D01*
X202530000Y-75450000D02*
X205070000Y-75450000D01*
X212180000Y-79140000D02*
X209010000Y-79140000D01*
X206850000Y-74890000D02*
X207860000Y-74890000D01*
X205330000Y-74890000D02*
X206850000Y-74890000D01*
X214720000Y-85080000D02*
X214720000Y-84520000D01*
X203441301Y-84062972D02*
G75*
G03*
X204370000Y-83920000I408699J432973D01*
G01*
X204413995Y-81014381D02*
G75*
G03*
X203450000Y-80970000I-503995J-455617D01*
G01*
X204341418Y-83959829D02*
G75*
G03*
X204380000Y-80970000I-1911418J1519829D01*
G01*
X203428466Y-80960024D02*
G75*
G03*
X203500000Y-84120000I1361533J-1549976D01*
G01*
X204423995Y-76014468D02*
G75*
G03*
X203450000Y-75960000I-513995J-455532D01*
G01*
X203438314Y-75961760D02*
G75*
G03*
X203500000Y-79110000I1351686J-1548240D01*
G01*
X203441301Y-79062972D02*
G75*
G03*
X204370000Y-78920000I408699J432973D01*
G01*
X204331737Y-78952333D02*
G75*
G03*
X204380000Y-75970000I-1901737J1522333D01*
G01*
X173750000Y-93350000D02*
X173750000Y-78650000D01*
X151550000Y-91000000D02*
X150550000Y-81000000D01*
X157550000Y-91000000D02*
X156550000Y-81000000D01*
X158850000Y-78650000D02*
X158850000Y-93350000D01*
X155550000Y-91000000D02*
X154550000Y-81000000D01*
X150150000Y-81200000D02*
X138250000Y-81200000D01*
X156550000Y-91000000D02*
X155550000Y-81000000D01*
X158850000Y-93350000D02*
X173750000Y-93350000D01*
X138250000Y-81200000D02*
X138250000Y-90800000D01*
X150150000Y-92350000D02*
X158850000Y-92350000D01*
X158850000Y-79650000D02*
X150150000Y-79650000D01*
X150150000Y-79650000D02*
X150150000Y-92350000D01*
X153550000Y-91000000D02*
X152550000Y-81000000D01*
X138250000Y-90800000D02*
X150150000Y-90800000D01*
X154550000Y-91000000D02*
X153550000Y-81000000D01*
X152550000Y-91000000D02*
X151550000Y-81000000D01*
X173750000Y-78650000D02*
X158850000Y-78650000D01*
X144480000Y-86000000D02*
G75*
G03*
X144480000Y-86000000I-1000000J0D01*
G01*
X204180000Y-95255000D02*
X203550000Y-92205000D01*
X213960000Y-85655000D02*
X213710000Y-86155000D01*
X213710000Y-86155000D02*
X214720000Y-86155000D01*
X205330000Y-96345000D02*
X202280000Y-96345000D01*
X212180000Y-87095000D02*
X209010000Y-87095000D01*
X212310000Y-85655000D02*
X213960000Y-85655000D01*
X212310000Y-85655000D02*
X212560000Y-86155000D01*
X212820000Y-86715000D02*
X214720000Y-86715000D01*
X205070000Y-91725000D02*
X205070000Y-95785000D01*
X208250000Y-95785000D02*
X212820000Y-95785000D01*
X202280000Y-86155000D02*
X202280000Y-96345000D01*
X205070000Y-90785000D02*
X202530000Y-90785000D01*
X212820000Y-91725000D02*
X208250000Y-91725000D01*
X211040000Y-90025000D02*
X211040000Y-87485000D01*
X208250000Y-95025000D02*
X208250000Y-92485000D01*
X206850000Y-86155000D02*
X207860000Y-86155000D01*
X209010000Y-95405000D02*
X209010000Y-95025000D01*
X212560000Y-86155000D02*
X213710000Y-86155000D01*
X211040000Y-95025000D02*
X208250000Y-95025000D01*
X202530000Y-86715000D02*
X205070000Y-86715000D01*
X214720000Y-90785000D02*
X212820000Y-90785000D01*
X204050000Y-90375000D02*
X203420000Y-87325000D01*
X207860000Y-95405000D02*
X207860000Y-92105000D01*
X204180000Y-90245000D02*
X203550000Y-87205000D01*
X202280000Y-86155000D02*
X202280000Y-85655000D01*
X207100000Y-85655000D02*
X206850000Y-86155000D01*
X202280000Y-86155000D02*
X205330000Y-86155000D01*
X205330000Y-86155000D02*
X206850000Y-86155000D01*
X212820000Y-90785000D02*
X208250000Y-90785000D01*
X211040000Y-95025000D02*
X211040000Y-92485000D01*
X212180000Y-87095000D02*
X212180000Y-90405000D01*
X207860000Y-96345000D02*
X205330000Y-96345000D01*
X214720000Y-96345000D02*
X214720000Y-95785000D01*
X205330000Y-96345000D02*
X205330000Y-86155000D01*
X209010000Y-90405000D02*
X209010000Y-90025000D01*
X212820000Y-91725000D02*
X212820000Y-95785000D01*
X208250000Y-91725000D02*
X208250000Y-92105000D01*
X209010000Y-87095000D02*
X209010000Y-87485000D01*
X214720000Y-96345000D02*
X207860000Y-96345000D01*
X214720000Y-95785000D02*
X214720000Y-91725000D01*
X212180000Y-92105000D02*
X212180000Y-95405000D01*
X214720000Y-86715000D02*
X214720000Y-86155000D01*
X212180000Y-92105000D02*
X209010000Y-92105000D01*
X208250000Y-90025000D02*
X208250000Y-87485000D01*
X211040000Y-92485000D02*
X208250000Y-92485000D01*
X204050000Y-95385000D02*
X203420000Y-92325000D01*
X205070000Y-95785000D02*
X202530000Y-95785000D01*
X208250000Y-86715000D02*
X212820000Y-86715000D01*
X212820000Y-95785000D02*
X214720000Y-95785000D01*
X208250000Y-90785000D02*
X208250000Y-90405000D01*
X208250000Y-90405000D02*
X208250000Y-87095000D01*
X208250000Y-86715000D02*
X208250000Y-87095000D01*
X202530000Y-90785000D02*
X202530000Y-86715000D01*
X211040000Y-90025000D02*
X208250000Y-90025000D01*
X207860000Y-86155000D02*
X207860000Y-87095000D01*
X202530000Y-91725000D02*
X202530000Y-95785000D01*
X214720000Y-91725000D02*
X212820000Y-91725000D01*
X205070000Y-91725000D02*
X202530000Y-91725000D01*
X214720000Y-90785000D02*
X214720000Y-86715000D01*
X207860000Y-87095000D02*
X207860000Y-90405000D01*
X212180000Y-90405000D02*
X209010000Y-90405000D01*
X207860000Y-92105000D02*
X207860000Y-90405000D01*
X205070000Y-86715000D02*
X205070000Y-90785000D01*
X202280000Y-85655000D02*
X207100000Y-85655000D01*
X211040000Y-87485000D02*
X208250000Y-87485000D01*
X209010000Y-92105000D02*
X209010000Y-92485000D01*
X212180000Y-95405000D02*
X209010000Y-95405000D01*
X214720000Y-91725000D02*
X214720000Y-90785000D01*
X208250000Y-95785000D02*
X208250000Y-95405000D01*
X207860000Y-86155000D02*
X212560000Y-86155000D01*
X207860000Y-96345000D02*
X207860000Y-95405000D01*
X208250000Y-92105000D02*
X208250000Y-95405000D01*
X212820000Y-90785000D02*
X212820000Y-86715000D01*
X203438314Y-87226760D02*
G75*
G03*
X203500000Y-90375000I1351686J-1548240D01*
G01*
X203441301Y-90327972D02*
G75*
G03*
X204370000Y-90185000I408699J432973D01*
G01*
X203441301Y-95327972D02*
G75*
G03*
X204370000Y-95185000I408699J432973D01*
G01*
X203428466Y-92225024D02*
G75*
G03*
X203500000Y-95385000I1361533J-1549976D01*
G01*
X204423995Y-87279468D02*
G75*
G03*
X203450000Y-87225000I-513995J-455532D01*
G01*
X204331737Y-90217333D02*
G75*
G03*
X204380000Y-87235000I-1901737J1522333D01*
G01*
X204341418Y-95224829D02*
G75*
G03*
X204380000Y-92235000I-1911418J1519829D01*
G01*
X204413995Y-92279381D02*
G75*
G03*
X203450000Y-92235000I-503995J-455617D01*
G01*
X172500000Y-64795000D02*
X172500000Y-69195000D01*
X175650000Y-64795000D02*
X175650000Y-66065000D01*
X182500000Y-69195000D02*
X182500000Y-64795000D01*
X172500000Y-66065000D02*
X182500000Y-66065000D01*
X182500000Y-64795000D02*
X172500000Y-64795000D01*
X172500000Y-69195000D02*
X182500000Y-69195000D01*
X179350000Y-64795000D02*
X179350000Y-66065000D01*
X184500000Y-66065000D02*
X194500000Y-66065000D01*
X191350000Y-64795000D02*
X191350000Y-66065000D01*
X184500000Y-69195000D02*
X194500000Y-69195000D01*
X184500000Y-64795000D02*
X184500000Y-69195000D01*
X194500000Y-69195000D02*
X194500000Y-64795000D01*
X187650000Y-64795000D02*
X187650000Y-66065000D01*
X194500000Y-64795000D02*
X184500000Y-64795000D01*
X180770000Y-83250000D02*
X187070000Y-83250000D01*
X187070000Y-80750000D02*
X180770000Y-80750000D01*
X187070000Y-83250000D02*
X187070000Y-80750000D01*
X180770000Y-80750000D02*
X180770000Y-83250000D01*
X178840000Y-82000000D02*
X180770000Y-82000000D01*
X189000000Y-82000000D02*
X187070000Y-82000000D01*
X187070000Y-86750000D02*
X187070000Y-84250000D01*
X178840000Y-85500000D02*
X180770000Y-85500000D01*
X189000000Y-85500000D02*
X187070000Y-85500000D01*
X180770000Y-84250000D02*
X180770000Y-86750000D01*
X187070000Y-84250000D02*
X180770000Y-84250000D01*
X180770000Y-86750000D02*
X187070000Y-86750000D01*
X178840000Y-89000000D02*
X180770000Y-89000000D01*
X187070000Y-87750000D02*
X180770000Y-87750000D01*
X180770000Y-87750000D02*
X180770000Y-90250000D01*
X180770000Y-90250000D02*
X187070000Y-90250000D01*
X187070000Y-90250000D02*
X187070000Y-87750000D01*
X189000000Y-89000000D02*
X187070000Y-89000000D01*
X170340000Y-102000000D02*
X172270000Y-102000000D01*
X180500000Y-102000000D02*
X178570000Y-102000000D01*
X178570000Y-103250000D02*
X178570000Y-100750000D01*
X172270000Y-103250000D02*
X178570000Y-103250000D01*
X172270000Y-100750000D02*
X172270000Y-103250000D01*
X178570000Y-100750000D02*
X172270000Y-100750000D01*
X194000000Y-98500000D02*
X188000000Y-98500000D01*
X188000000Y-98500000D02*
X188000000Y-103500000D01*
X184000000Y-103500000D02*
X184000000Y-98500000D01*
X198000000Y-103500000D02*
X184000000Y-103500000D01*
X188000000Y-103500000D02*
X194000000Y-103500000D01*
X198000000Y-98500000D02*
X198000000Y-103500000D01*
X194000000Y-103500000D02*
X194000000Y-98500000D01*
X184000000Y-98500000D02*
X198000000Y-98500000D01*
M02*
