G04 #@! TF.GenerationSoftware,KiCad,Pcbnew,6.0.7-f9a2dced07~116~ubuntu20.04.1*
G04 #@! TF.CreationDate,2022-10-13T03:27:01+01:00*
G04 #@! TF.ProjectId,mosfet_circuit,6d6f7366-6574-45f6-9369-72637569742e,rev?*
G04 #@! TF.SameCoordinates,Original*
G04 #@! TF.FileFunction,Legend,Top*
G04 #@! TF.FilePolarity,Positive*
%FSLAX46Y46*%
G04 Gerber Fmt 4.6, Leading zero omitted, Abs format (unit mm)*
G04 Created by KiCad (PCBNEW 6.0.7-f9a2dced07~116~ubuntu20.04.1) date 2022-10-13 03:27:01*
%MOMM*%
%LPD*%
G01*
G04 APERTURE LIST*
%ADD10C,0.150000*%
%ADD11C,0.300000*%
%ADD12C,0.200000*%
%ADD13C,0.120000*%
G04 APERTURE END LIST*
D10*
X174214285Y-72842380D02*
X174214285Y-71842380D01*
X174547619Y-72556666D01*
X174880952Y-71842380D01*
X174880952Y-72842380D01*
X175500000Y-72842380D02*
X175404761Y-72794761D01*
X175357142Y-72747142D01*
X175309523Y-72651904D01*
X175309523Y-72366190D01*
X175357142Y-72270952D01*
X175404761Y-72223333D01*
X175500000Y-72175714D01*
X175642857Y-72175714D01*
X175738095Y-72223333D01*
X175785714Y-72270952D01*
X175833333Y-72366190D01*
X175833333Y-72651904D01*
X175785714Y-72747142D01*
X175738095Y-72794761D01*
X175642857Y-72842380D01*
X175500000Y-72842380D01*
X176214285Y-72794761D02*
X176309523Y-72842380D01*
X176500000Y-72842380D01*
X176595238Y-72794761D01*
X176642857Y-72699523D01*
X176642857Y-72651904D01*
X176595238Y-72556666D01*
X176500000Y-72509047D01*
X176357142Y-72509047D01*
X176261904Y-72461428D01*
X176214285Y-72366190D01*
X176214285Y-72318571D01*
X176261904Y-72223333D01*
X176357142Y-72175714D01*
X176500000Y-72175714D01*
X176595238Y-72223333D01*
X176928571Y-72175714D02*
X177309523Y-72175714D01*
X177071428Y-72842380D02*
X177071428Y-71985238D01*
X177119047Y-71890000D01*
X177214285Y-71842380D01*
X177309523Y-71842380D01*
X178023809Y-72794761D02*
X177928571Y-72842380D01*
X177738095Y-72842380D01*
X177642857Y-72794761D01*
X177595238Y-72699523D01*
X177595238Y-72318571D01*
X177642857Y-72223333D01*
X177738095Y-72175714D01*
X177928571Y-72175714D01*
X178023809Y-72223333D01*
X178071428Y-72318571D01*
X178071428Y-72413809D01*
X177595238Y-72509047D01*
X178357142Y-72175714D02*
X178738095Y-72175714D01*
X178500000Y-71842380D02*
X178500000Y-72699523D01*
X178547619Y-72794761D01*
X178642857Y-72842380D01*
X178738095Y-72842380D01*
X180261904Y-72794761D02*
X180166666Y-72842380D01*
X179976190Y-72842380D01*
X179880952Y-72794761D01*
X179833333Y-72747142D01*
X179785714Y-72651904D01*
X179785714Y-72366190D01*
X179833333Y-72270952D01*
X179880952Y-72223333D01*
X179976190Y-72175714D01*
X180166666Y-72175714D01*
X180261904Y-72223333D01*
X180690476Y-72842380D02*
X180690476Y-72175714D01*
X180690476Y-71842380D02*
X180642857Y-71890000D01*
X180690476Y-71937619D01*
X180738095Y-71890000D01*
X180690476Y-71842380D01*
X180690476Y-71937619D01*
X181166666Y-72842380D02*
X181166666Y-72175714D01*
X181166666Y-72366190D02*
X181214285Y-72270952D01*
X181261904Y-72223333D01*
X181357142Y-72175714D01*
X181452380Y-72175714D01*
X182214285Y-72794761D02*
X182119047Y-72842380D01*
X181928571Y-72842380D01*
X181833333Y-72794761D01*
X181785714Y-72747142D01*
X181738095Y-72651904D01*
X181738095Y-72366190D01*
X181785714Y-72270952D01*
X181833333Y-72223333D01*
X181928571Y-72175714D01*
X182119047Y-72175714D01*
X182214285Y-72223333D01*
X183071428Y-72175714D02*
X183071428Y-72842380D01*
X182642857Y-72175714D02*
X182642857Y-72699523D01*
X182690476Y-72794761D01*
X182785714Y-72842380D01*
X182928571Y-72842380D01*
X183023809Y-72794761D01*
X183071428Y-72747142D01*
X183547619Y-72842380D02*
X183547619Y-72175714D01*
X183547619Y-71842380D02*
X183500000Y-71890000D01*
X183547619Y-71937619D01*
X183595238Y-71890000D01*
X183547619Y-71842380D01*
X183547619Y-71937619D01*
X183880952Y-72175714D02*
X184261904Y-72175714D01*
X184023809Y-71842380D02*
X184023809Y-72699523D01*
X184071428Y-72794761D01*
X184166666Y-72842380D01*
X184261904Y-72842380D01*
X185357142Y-72842380D02*
X185357142Y-71842380D01*
X185357142Y-72223333D02*
X185452380Y-72175714D01*
X185642857Y-72175714D01*
X185738095Y-72223333D01*
X185785714Y-72270952D01*
X185833333Y-72366190D01*
X185833333Y-72651904D01*
X185785714Y-72747142D01*
X185738095Y-72794761D01*
X185642857Y-72842380D01*
X185452380Y-72842380D01*
X185357142Y-72794761D01*
X186404761Y-72842380D02*
X186309523Y-72794761D01*
X186261904Y-72747142D01*
X186214285Y-72651904D01*
X186214285Y-72366190D01*
X186261904Y-72270952D01*
X186309523Y-72223333D01*
X186404761Y-72175714D01*
X186547619Y-72175714D01*
X186642857Y-72223333D01*
X186690476Y-72270952D01*
X186738095Y-72366190D01*
X186738095Y-72651904D01*
X186690476Y-72747142D01*
X186642857Y-72794761D01*
X186547619Y-72842380D01*
X186404761Y-72842380D01*
X187595238Y-72842380D02*
X187595238Y-72318571D01*
X187547619Y-72223333D01*
X187452380Y-72175714D01*
X187261904Y-72175714D01*
X187166666Y-72223333D01*
X187595238Y-72794761D02*
X187500000Y-72842380D01*
X187261904Y-72842380D01*
X187166666Y-72794761D01*
X187119047Y-72699523D01*
X187119047Y-72604285D01*
X187166666Y-72509047D01*
X187261904Y-72461428D01*
X187500000Y-72461428D01*
X187595238Y-72413809D01*
X188071428Y-72842380D02*
X188071428Y-72175714D01*
X188071428Y-72366190D02*
X188119047Y-72270952D01*
X188166666Y-72223333D01*
X188261904Y-72175714D01*
X188357142Y-72175714D01*
X189119047Y-72842380D02*
X189119047Y-71842380D01*
X189119047Y-72794761D02*
X189023809Y-72842380D01*
X188833333Y-72842380D01*
X188738095Y-72794761D01*
X188690476Y-72747142D01*
X188642857Y-72651904D01*
X188642857Y-72366190D01*
X188690476Y-72270952D01*
X188738095Y-72223333D01*
X188833333Y-72175714D01*
X189023809Y-72175714D01*
X189119047Y-72223333D01*
X190261904Y-72175714D02*
X190500000Y-72842380D01*
X190738095Y-72175714D01*
X192071428Y-71842380D02*
X192166666Y-71842380D01*
X192261904Y-71890000D01*
X192309523Y-71937619D01*
X192357142Y-72032857D01*
X192404761Y-72223333D01*
X192404761Y-72461428D01*
X192357142Y-72651904D01*
X192309523Y-72747142D01*
X192261904Y-72794761D01*
X192166666Y-72842380D01*
X192071428Y-72842380D01*
X191976190Y-72794761D01*
X191928571Y-72747142D01*
X191880952Y-72651904D01*
X191833333Y-72461428D01*
X191833333Y-72223333D01*
X191880952Y-72032857D01*
X191928571Y-71937619D01*
X191976190Y-71890000D01*
X192071428Y-71842380D01*
X192833333Y-72747142D02*
X192880952Y-72794761D01*
X192833333Y-72842380D01*
X192785714Y-72794761D01*
X192833333Y-72747142D01*
X192833333Y-72842380D01*
X193261904Y-71937619D02*
X193309523Y-71890000D01*
X193404761Y-71842380D01*
X193642857Y-71842380D01*
X193738095Y-71890000D01*
X193785714Y-71937619D01*
X193833333Y-72032857D01*
X193833333Y-72128095D01*
X193785714Y-72270952D01*
X193214285Y-72842380D01*
X193833333Y-72842380D01*
X176547619Y-74452380D02*
X176547619Y-73452380D01*
X176547619Y-74404761D02*
X176452380Y-74452380D01*
X176261904Y-74452380D01*
X176166666Y-74404761D01*
X176119047Y-74357142D01*
X176071428Y-74261904D01*
X176071428Y-73976190D01*
X176119047Y-73880952D01*
X176166666Y-73833333D01*
X176261904Y-73785714D01*
X176452380Y-73785714D01*
X176547619Y-73833333D01*
X177404761Y-74404761D02*
X177309523Y-74452380D01*
X177119047Y-74452380D01*
X177023809Y-74404761D01*
X176976190Y-74309523D01*
X176976190Y-73928571D01*
X177023809Y-73833333D01*
X177119047Y-73785714D01*
X177309523Y-73785714D01*
X177404761Y-73833333D01*
X177452380Y-73928571D01*
X177452380Y-74023809D01*
X176976190Y-74119047D01*
X177833333Y-74404761D02*
X177928571Y-74452380D01*
X178119047Y-74452380D01*
X178214285Y-74404761D01*
X178261904Y-74309523D01*
X178261904Y-74261904D01*
X178214285Y-74166666D01*
X178119047Y-74119047D01*
X177976190Y-74119047D01*
X177880952Y-74071428D01*
X177833333Y-73976190D01*
X177833333Y-73928571D01*
X177880952Y-73833333D01*
X177976190Y-73785714D01*
X178119047Y-73785714D01*
X178214285Y-73833333D01*
X178690476Y-74452380D02*
X178690476Y-73785714D01*
X178690476Y-73452380D02*
X178642857Y-73500000D01*
X178690476Y-73547619D01*
X178738095Y-73500000D01*
X178690476Y-73452380D01*
X178690476Y-73547619D01*
X179595238Y-73785714D02*
X179595238Y-74595238D01*
X179547619Y-74690476D01*
X179500000Y-74738095D01*
X179404761Y-74785714D01*
X179261904Y-74785714D01*
X179166666Y-74738095D01*
X179595238Y-74404761D02*
X179500000Y-74452380D01*
X179309523Y-74452380D01*
X179214285Y-74404761D01*
X179166666Y-74357142D01*
X179119047Y-74261904D01*
X179119047Y-73976190D01*
X179166666Y-73880952D01*
X179214285Y-73833333D01*
X179309523Y-73785714D01*
X179500000Y-73785714D01*
X179595238Y-73833333D01*
X180071428Y-73785714D02*
X180071428Y-74452380D01*
X180071428Y-73880952D02*
X180119047Y-73833333D01*
X180214285Y-73785714D01*
X180357142Y-73785714D01*
X180452380Y-73833333D01*
X180500000Y-73928571D01*
X180500000Y-74452380D01*
X181738095Y-74452380D02*
X181738095Y-73452380D01*
X181738095Y-73833333D02*
X181833333Y-73785714D01*
X182023809Y-73785714D01*
X182119047Y-73833333D01*
X182166666Y-73880952D01*
X182214285Y-73976190D01*
X182214285Y-74261904D01*
X182166666Y-74357142D01*
X182119047Y-74404761D01*
X182023809Y-74452380D01*
X181833333Y-74452380D01*
X181738095Y-74404761D01*
X182547619Y-73785714D02*
X182785714Y-74452380D01*
X183023809Y-73785714D02*
X182785714Y-74452380D01*
X182690476Y-74690476D01*
X182642857Y-74738095D01*
X182547619Y-74785714D01*
X184119047Y-74166666D02*
X184595238Y-74166666D01*
X184023809Y-74452380D02*
X184357142Y-73452380D01*
X184690476Y-74452380D01*
X185023809Y-74452380D02*
X185023809Y-73452380D01*
X185357142Y-74166666D01*
X185690476Y-73452380D01*
X185690476Y-74452380D01*
X187500000Y-74357142D02*
X187452380Y-74404761D01*
X187309523Y-74452380D01*
X187214285Y-74452380D01*
X187071428Y-74404761D01*
X186976190Y-74309523D01*
X186928571Y-74214285D01*
X186880952Y-74023809D01*
X186880952Y-73880952D01*
X186928571Y-73690476D01*
X186976190Y-73595238D01*
X187071428Y-73500000D01*
X187214285Y-73452380D01*
X187309523Y-73452380D01*
X187452380Y-73500000D01*
X187500000Y-73547619D01*
X187928571Y-74452380D02*
X187928571Y-73452380D01*
X188357142Y-74452380D02*
X188357142Y-73928571D01*
X188309523Y-73833333D01*
X188214285Y-73785714D01*
X188071428Y-73785714D01*
X187976190Y-73833333D01*
X187928571Y-73880952D01*
X189261904Y-74452380D02*
X189261904Y-73928571D01*
X189214285Y-73833333D01*
X189119047Y-73785714D01*
X188928571Y-73785714D01*
X188833333Y-73833333D01*
X189261904Y-74404761D02*
X189166666Y-74452380D01*
X188928571Y-74452380D01*
X188833333Y-74404761D01*
X188785714Y-74309523D01*
X188785714Y-74214285D01*
X188833333Y-74119047D01*
X188928571Y-74071428D01*
X189166666Y-74071428D01*
X189261904Y-74023809D01*
X190166666Y-73785714D02*
X190166666Y-74595238D01*
X190119047Y-74690476D01*
X190071428Y-74738095D01*
X189976190Y-74785714D01*
X189833333Y-74785714D01*
X189738095Y-74738095D01*
X190166666Y-74404761D02*
X190071428Y-74452380D01*
X189880952Y-74452380D01*
X189785714Y-74404761D01*
X189738095Y-74357142D01*
X189690476Y-74261904D01*
X189690476Y-73976190D01*
X189738095Y-73880952D01*
X189785714Y-73833333D01*
X189880952Y-73785714D01*
X190071428Y-73785714D01*
X190166666Y-73833333D01*
X191071428Y-74452380D02*
X191071428Y-73928571D01*
X191023809Y-73833333D01*
X190928571Y-73785714D01*
X190738095Y-73785714D01*
X190642857Y-73833333D01*
X191071428Y-74404761D02*
X190976190Y-74452380D01*
X190738095Y-74452380D01*
X190642857Y-74404761D01*
X190595238Y-74309523D01*
X190595238Y-74214285D01*
X190642857Y-74119047D01*
X190738095Y-74071428D01*
X190976190Y-74071428D01*
X191071428Y-74023809D01*
X191500000Y-74404761D02*
X191595238Y-74452380D01*
X191785714Y-74452380D01*
X191880952Y-74404761D01*
X191928571Y-74309523D01*
X191928571Y-74261904D01*
X191880952Y-74166666D01*
X191785714Y-74119047D01*
X191642857Y-74119047D01*
X191547619Y-74071428D01*
X191500000Y-73976190D01*
X191500000Y-73928571D01*
X191547619Y-73833333D01*
X191642857Y-73785714D01*
X191785714Y-73785714D01*
X191880952Y-73833333D01*
X177904761Y-75967142D02*
X177857142Y-76014761D01*
X177714285Y-76062380D01*
X177619047Y-76062380D01*
X177476190Y-76014761D01*
X177380952Y-75919523D01*
X177333333Y-75824285D01*
X177285714Y-75633809D01*
X177285714Y-75490952D01*
X177333333Y-75300476D01*
X177380952Y-75205238D01*
X177476190Y-75110000D01*
X177619047Y-75062380D01*
X177714285Y-75062380D01*
X177857142Y-75110000D01*
X177904761Y-75157619D01*
X178333333Y-75538571D02*
X178666666Y-75538571D01*
X178809523Y-76062380D02*
X178333333Y-76062380D01*
X178333333Y-75062380D01*
X178809523Y-75062380D01*
X179809523Y-76062380D02*
X179476190Y-75586190D01*
X179238095Y-76062380D02*
X179238095Y-75062380D01*
X179619047Y-75062380D01*
X179714285Y-75110000D01*
X179761904Y-75157619D01*
X179809523Y-75252857D01*
X179809523Y-75395714D01*
X179761904Y-75490952D01*
X179714285Y-75538571D01*
X179619047Y-75586190D01*
X179238095Y-75586190D01*
X180238095Y-76062380D02*
X180238095Y-75062380D01*
X180809523Y-76062380D01*
X180809523Y-75062380D01*
X182238095Y-75062380D02*
X182428571Y-75062380D01*
X182523809Y-75110000D01*
X182619047Y-75205238D01*
X182666666Y-75395714D01*
X182666666Y-75729047D01*
X182619047Y-75919523D01*
X182523809Y-76014761D01*
X182428571Y-76062380D01*
X182238095Y-76062380D01*
X182142857Y-76014761D01*
X182047619Y-75919523D01*
X182000000Y-75729047D01*
X182000000Y-75395714D01*
X182047619Y-75205238D01*
X182142857Y-75110000D01*
X182238095Y-75062380D01*
X183095238Y-76062380D02*
X183095238Y-75062380D01*
X183095238Y-75538571D02*
X183666666Y-75538571D01*
X183666666Y-76062380D02*
X183666666Y-75062380D01*
X184619047Y-76062380D02*
X184142857Y-76062380D01*
X184142857Y-75062380D01*
X184952380Y-75681428D02*
X185714285Y-75681428D01*
X186142857Y-76014761D02*
X186285714Y-76062380D01*
X186523809Y-76062380D01*
X186619047Y-76014761D01*
X186666666Y-75967142D01*
X186714285Y-75871904D01*
X186714285Y-75776666D01*
X186666666Y-75681428D01*
X186619047Y-75633809D01*
X186523809Y-75586190D01*
X186333333Y-75538571D01*
X186238095Y-75490952D01*
X186190476Y-75443333D01*
X186142857Y-75348095D01*
X186142857Y-75252857D01*
X186190476Y-75157619D01*
X186238095Y-75110000D01*
X186333333Y-75062380D01*
X186571428Y-75062380D01*
X186714285Y-75110000D01*
X187761904Y-75062380D02*
X188095238Y-76062380D01*
X188428571Y-75062380D01*
X188714285Y-75157619D02*
X188761904Y-75110000D01*
X188857142Y-75062380D01*
X189095238Y-75062380D01*
X189190476Y-75110000D01*
X189238095Y-75157619D01*
X189285714Y-75252857D01*
X189285714Y-75348095D01*
X189238095Y-75490952D01*
X188666666Y-76062380D01*
X189285714Y-76062380D01*
X189714285Y-75967142D02*
X189761904Y-76014761D01*
X189714285Y-76062380D01*
X189666666Y-76014761D01*
X189714285Y-75967142D01*
X189714285Y-76062380D01*
X190380952Y-75062380D02*
X190476190Y-75062380D01*
X190571428Y-75110000D01*
X190619047Y-75157619D01*
X190666666Y-75252857D01*
X190714285Y-75443333D01*
X190714285Y-75681428D01*
X190666666Y-75871904D01*
X190619047Y-75967142D01*
X190571428Y-76014761D01*
X190476190Y-76062380D01*
X190380952Y-76062380D01*
X190285714Y-76014761D01*
X190238095Y-75967142D01*
X190190476Y-75871904D01*
X190142857Y-75681428D01*
X190142857Y-75443333D01*
X190190476Y-75252857D01*
X190238095Y-75157619D01*
X190285714Y-75110000D01*
X190380952Y-75062380D01*
D11*
X200428571Y-82607142D02*
X201571428Y-82607142D01*
X201000000Y-83178571D02*
X201000000Y-82035714D01*
X201107142Y-88991428D02*
X201107142Y-87848571D01*
X200428571Y-93607142D02*
X201571428Y-93607142D01*
X201000000Y-94178571D02*
X201000000Y-93035714D01*
X201607142Y-78071428D02*
X201607142Y-76928571D01*
D12*
X160333333Y-95952380D02*
X160333333Y-94952380D01*
X160761904Y-95952380D02*
X160761904Y-95428571D01*
X160714285Y-95333333D01*
X160619047Y-95285714D01*
X160476190Y-95285714D01*
X160380952Y-95333333D01*
X160333333Y-95380952D01*
X161095238Y-95285714D02*
X161476190Y-95285714D01*
X161238095Y-94952380D02*
X161238095Y-95809523D01*
X161285714Y-95904761D01*
X161380952Y-95952380D01*
X161476190Y-95952380D01*
X161666666Y-95285714D02*
X162047619Y-95285714D01*
X161809523Y-94952380D02*
X161809523Y-95809523D01*
X161857142Y-95904761D01*
X161952380Y-95952380D01*
X162047619Y-95952380D01*
X162380952Y-95285714D02*
X162380952Y-96285714D01*
X162380952Y-95333333D02*
X162476190Y-95285714D01*
X162666666Y-95285714D01*
X162761904Y-95333333D01*
X162809523Y-95380952D01*
X162857142Y-95476190D01*
X162857142Y-95761904D01*
X162809523Y-95857142D01*
X162761904Y-95904761D01*
X162666666Y-95952380D01*
X162476190Y-95952380D01*
X162380952Y-95904761D01*
X163238095Y-95904761D02*
X163333333Y-95952380D01*
X163523809Y-95952380D01*
X163619047Y-95904761D01*
X163666666Y-95809523D01*
X163666666Y-95761904D01*
X163619047Y-95666666D01*
X163523809Y-95619047D01*
X163380952Y-95619047D01*
X163285714Y-95571428D01*
X163238095Y-95476190D01*
X163238095Y-95428571D01*
X163285714Y-95333333D01*
X163380952Y-95285714D01*
X163523809Y-95285714D01*
X163619047Y-95333333D01*
X164095238Y-95857142D02*
X164142857Y-95904761D01*
X164095238Y-95952380D01*
X164047619Y-95904761D01*
X164095238Y-95857142D01*
X164095238Y-95952380D01*
X164095238Y-95333333D02*
X164142857Y-95380952D01*
X164095238Y-95428571D01*
X164047619Y-95380952D01*
X164095238Y-95333333D01*
X164095238Y-95428571D01*
X165285714Y-94904761D02*
X164428571Y-96190476D01*
X166333333Y-94904761D02*
X165476190Y-96190476D01*
X167095238Y-95285714D02*
X167095238Y-96095238D01*
X167047619Y-96190476D01*
X167000000Y-96238095D01*
X166904761Y-96285714D01*
X166761904Y-96285714D01*
X166666666Y-96238095D01*
X167095238Y-95904761D02*
X167000000Y-95952380D01*
X166809523Y-95952380D01*
X166714285Y-95904761D01*
X166666666Y-95857142D01*
X166619047Y-95761904D01*
X166619047Y-95476190D01*
X166666666Y-95380952D01*
X166714285Y-95333333D01*
X166809523Y-95285714D01*
X167000000Y-95285714D01*
X167095238Y-95333333D01*
X167571428Y-95952380D02*
X167571428Y-95285714D01*
X167571428Y-94952380D02*
X167523809Y-95000000D01*
X167571428Y-95047619D01*
X167619047Y-95000000D01*
X167571428Y-94952380D01*
X167571428Y-95047619D01*
X167904761Y-95285714D02*
X168285714Y-95285714D01*
X168047619Y-94952380D02*
X168047619Y-95809523D01*
X168095238Y-95904761D01*
X168190476Y-95952380D01*
X168285714Y-95952380D01*
X168619047Y-95952380D02*
X168619047Y-94952380D01*
X169047619Y-95952380D02*
X169047619Y-95428571D01*
X169000000Y-95333333D01*
X168904761Y-95285714D01*
X168761904Y-95285714D01*
X168666666Y-95333333D01*
X168619047Y-95380952D01*
X169952380Y-95285714D02*
X169952380Y-95952380D01*
X169523809Y-95285714D02*
X169523809Y-95809523D01*
X169571428Y-95904761D01*
X169666666Y-95952380D01*
X169809523Y-95952380D01*
X169904761Y-95904761D01*
X169952380Y-95857142D01*
X170428571Y-95952380D02*
X170428571Y-94952380D01*
X170428571Y-95333333D02*
X170523809Y-95285714D01*
X170714285Y-95285714D01*
X170809523Y-95333333D01*
X170857142Y-95380952D01*
X170904761Y-95476190D01*
X170904761Y-95761904D01*
X170857142Y-95857142D01*
X170809523Y-95904761D01*
X170714285Y-95952380D01*
X170523809Y-95952380D01*
X170428571Y-95904761D01*
X171333333Y-95857142D02*
X171380952Y-95904761D01*
X171333333Y-95952380D01*
X171285714Y-95904761D01*
X171333333Y-95857142D01*
X171333333Y-95952380D01*
X172238095Y-95904761D02*
X172142857Y-95952380D01*
X171952380Y-95952380D01*
X171857142Y-95904761D01*
X171809523Y-95857142D01*
X171761904Y-95761904D01*
X171761904Y-95476190D01*
X171809523Y-95380952D01*
X171857142Y-95333333D01*
X171952380Y-95285714D01*
X172142857Y-95285714D01*
X172238095Y-95333333D01*
X172809523Y-95952380D02*
X172714285Y-95904761D01*
X172666666Y-95857142D01*
X172619047Y-95761904D01*
X172619047Y-95476190D01*
X172666666Y-95380952D01*
X172714285Y-95333333D01*
X172809523Y-95285714D01*
X172952380Y-95285714D01*
X173047619Y-95333333D01*
X173095238Y-95380952D01*
X173142857Y-95476190D01*
X173142857Y-95761904D01*
X173095238Y-95857142D01*
X173047619Y-95904761D01*
X172952380Y-95952380D01*
X172809523Y-95952380D01*
X173571428Y-95952380D02*
X173571428Y-95285714D01*
X173571428Y-95380952D02*
X173619047Y-95333333D01*
X173714285Y-95285714D01*
X173857142Y-95285714D01*
X173952380Y-95333333D01*
X174000000Y-95428571D01*
X174000000Y-95952380D01*
X174000000Y-95428571D02*
X174047619Y-95333333D01*
X174142857Y-95285714D01*
X174285714Y-95285714D01*
X174380952Y-95333333D01*
X174428571Y-95428571D01*
X174428571Y-95952380D01*
X175619047Y-94904761D02*
X174761904Y-96190476D01*
X176333333Y-95904761D02*
X176238095Y-95952380D01*
X176047619Y-95952380D01*
X175952380Y-95904761D01*
X175904761Y-95809523D01*
X175904761Y-95428571D01*
X175952380Y-95333333D01*
X176047619Y-95285714D01*
X176238095Y-95285714D01*
X176333333Y-95333333D01*
X176380952Y-95428571D01*
X176380952Y-95523809D01*
X175904761Y-95619047D01*
X177238095Y-95285714D02*
X177238095Y-95952380D01*
X176809523Y-95285714D02*
X176809523Y-95809523D01*
X176857142Y-95904761D01*
X176952380Y-95952380D01*
X177095238Y-95952380D01*
X177190476Y-95904761D01*
X177238095Y-95857142D01*
X177857142Y-95952380D02*
X177761904Y-95904761D01*
X177714285Y-95809523D01*
X177714285Y-94952380D01*
X178619047Y-95904761D02*
X178523809Y-95952380D01*
X178333333Y-95952380D01*
X178238095Y-95904761D01*
X178190476Y-95809523D01*
X178190476Y-95428571D01*
X178238095Y-95333333D01*
X178333333Y-95285714D01*
X178523809Y-95285714D01*
X178619047Y-95333333D01*
X178666666Y-95428571D01*
X178666666Y-95523809D01*
X178190476Y-95619047D01*
X179095238Y-95952380D02*
X179095238Y-95285714D01*
X179095238Y-95476190D02*
X179142857Y-95380952D01*
X179190476Y-95333333D01*
X179285714Y-95285714D01*
X179380952Y-95285714D01*
X179857142Y-95952380D02*
X179761904Y-95904761D01*
X179714285Y-95809523D01*
X179714285Y-94952380D01*
X180666666Y-95952380D02*
X180666666Y-95428571D01*
X180619047Y-95333333D01*
X180523809Y-95285714D01*
X180333333Y-95285714D01*
X180238095Y-95333333D01*
X180666666Y-95904761D02*
X180571428Y-95952380D01*
X180333333Y-95952380D01*
X180238095Y-95904761D01*
X180190476Y-95809523D01*
X180190476Y-95714285D01*
X180238095Y-95619047D01*
X180333333Y-95571428D01*
X180571428Y-95571428D01*
X180666666Y-95523809D01*
X181142857Y-95952380D02*
X181142857Y-94952380D01*
X181142857Y-95333333D02*
X181238095Y-95285714D01*
X181428571Y-95285714D01*
X181523809Y-95333333D01*
X181571428Y-95380952D01*
X181619047Y-95476190D01*
X181619047Y-95761904D01*
X181571428Y-95857142D01*
X181523809Y-95904761D01*
X181428571Y-95952380D01*
X181238095Y-95952380D01*
X181142857Y-95904761D01*
X182761904Y-94904761D02*
X181904761Y-96190476D01*
X183238095Y-95952380D02*
X183142857Y-95904761D01*
X183095238Y-95857142D01*
X183047619Y-95761904D01*
X183047619Y-95476190D01*
X183095238Y-95380952D01*
X183142857Y-95333333D01*
X183238095Y-95285714D01*
X183380952Y-95285714D01*
X183476190Y-95333333D01*
X183523809Y-95380952D01*
X183571428Y-95476190D01*
X183571428Y-95761904D01*
X183523809Y-95857142D01*
X183476190Y-95904761D01*
X183380952Y-95952380D01*
X183238095Y-95952380D01*
X184000000Y-95285714D02*
X184000000Y-96285714D01*
X184000000Y-95333333D02*
X184095238Y-95285714D01*
X184285714Y-95285714D01*
X184380952Y-95333333D01*
X184428571Y-95380952D01*
X184476190Y-95476190D01*
X184476190Y-95761904D01*
X184428571Y-95857142D01*
X184380952Y-95904761D01*
X184285714Y-95952380D01*
X184095238Y-95952380D01*
X184000000Y-95904761D01*
X185285714Y-95904761D02*
X185190476Y-95952380D01*
X184999999Y-95952380D01*
X184904761Y-95904761D01*
X184857142Y-95809523D01*
X184857142Y-95428571D01*
X184904761Y-95333333D01*
X184999999Y-95285714D01*
X185190476Y-95285714D01*
X185285714Y-95333333D01*
X185333333Y-95428571D01*
X185333333Y-95523809D01*
X184857142Y-95619047D01*
X185761904Y-95285714D02*
X185761904Y-95952380D01*
X185761904Y-95380952D02*
X185809523Y-95333333D01*
X185904761Y-95285714D01*
X186047619Y-95285714D01*
X186142857Y-95333333D01*
X186190476Y-95428571D01*
X186190476Y-95952380D01*
X186666666Y-95571428D02*
X187428571Y-95571428D01*
X187809523Y-95285714D02*
X188047619Y-95952380D01*
X188285714Y-95285714D01*
X188666666Y-95952380D02*
X188666666Y-95285714D01*
X188666666Y-94952380D02*
X188619047Y-95000000D01*
X188666666Y-95047619D01*
X188714285Y-95000000D01*
X188666666Y-94952380D01*
X188666666Y-95047619D01*
X189095238Y-95904761D02*
X189190476Y-95952380D01*
X189380952Y-95952380D01*
X189476190Y-95904761D01*
X189523809Y-95809523D01*
X189523809Y-95761904D01*
X189476190Y-95666666D01*
X189380952Y-95619047D01*
X189238095Y-95619047D01*
X189142857Y-95571428D01*
X189095238Y-95476190D01*
X189095238Y-95428571D01*
X189142857Y-95333333D01*
X189238095Y-95285714D01*
X189380952Y-95285714D01*
X189476190Y-95333333D01*
X190380952Y-95285714D02*
X190380952Y-95952380D01*
X189952380Y-95285714D02*
X189952380Y-95809523D01*
X190000000Y-95904761D01*
X190095238Y-95952380D01*
X190238095Y-95952380D01*
X190333333Y-95904761D01*
X190380952Y-95857142D01*
X191285714Y-95952380D02*
X191285714Y-95428571D01*
X191238095Y-95333333D01*
X191142857Y-95285714D01*
X190952380Y-95285714D01*
X190857142Y-95333333D01*
X191285714Y-95904761D02*
X191190476Y-95952380D01*
X190952380Y-95952380D01*
X190857142Y-95904761D01*
X190809523Y-95809523D01*
X190809523Y-95714285D01*
X190857142Y-95619047D01*
X190952380Y-95571428D01*
X191190476Y-95571428D01*
X191285714Y-95523809D01*
X191904761Y-95952380D02*
X191809523Y-95904761D01*
X191761904Y-95809523D01*
X191761904Y-94952380D01*
X192285714Y-95571428D02*
X193047619Y-95571428D01*
X193476190Y-95904761D02*
X193571428Y-95952380D01*
X193761904Y-95952380D01*
X193857142Y-95904761D01*
X193904761Y-95809523D01*
X193904761Y-95761904D01*
X193857142Y-95666666D01*
X193761904Y-95619047D01*
X193619047Y-95619047D01*
X193523809Y-95571428D01*
X193476190Y-95476190D01*
X193476190Y-95428571D01*
X193523809Y-95333333D01*
X193619047Y-95285714D01*
X193761904Y-95285714D01*
X193857142Y-95333333D01*
X194190476Y-95285714D02*
X194571428Y-95285714D01*
X194333333Y-94952380D02*
X194333333Y-95809523D01*
X194380952Y-95904761D01*
X194476190Y-95952380D01*
X194571428Y-95952380D01*
X194904761Y-95952380D02*
X194904761Y-95285714D01*
X194904761Y-94952380D02*
X194857142Y-95000000D01*
X194904761Y-95047619D01*
X194952380Y-95000000D01*
X194904761Y-94952380D01*
X194904761Y-95047619D01*
X195380952Y-95952380D02*
X195380952Y-95285714D01*
X195380952Y-95380952D02*
X195428571Y-95333333D01*
X195523809Y-95285714D01*
X195666666Y-95285714D01*
X195761904Y-95333333D01*
X195809523Y-95428571D01*
X195809523Y-95952380D01*
X195809523Y-95428571D02*
X195857142Y-95333333D01*
X195952380Y-95285714D01*
X196095238Y-95285714D01*
X196190476Y-95333333D01*
X196238095Y-95428571D01*
X196238095Y-95952380D01*
X197142857Y-95285714D02*
X197142857Y-95952380D01*
X196714285Y-95285714D02*
X196714285Y-95809523D01*
X196761904Y-95904761D01*
X196857142Y-95952380D01*
X197000000Y-95952380D01*
X197095238Y-95904761D01*
X197142857Y-95857142D01*
X197761904Y-95952380D02*
X197666666Y-95904761D01*
X197619047Y-95809523D01*
X197619047Y-94952380D01*
X198571428Y-95952380D02*
X198571428Y-95428571D01*
X198523809Y-95333333D01*
X198428571Y-95285714D01*
X198238095Y-95285714D01*
X198142857Y-95333333D01*
X198571428Y-95904761D02*
X198476190Y-95952380D01*
X198238095Y-95952380D01*
X198142857Y-95904761D01*
X198095238Y-95809523D01*
X198095238Y-95714285D01*
X198142857Y-95619047D01*
X198238095Y-95571428D01*
X198476190Y-95571428D01*
X198571428Y-95523809D01*
X198904761Y-95285714D02*
X199285714Y-95285714D01*
X199047619Y-94952380D02*
X199047619Y-95809523D01*
X199095238Y-95904761D01*
X199190476Y-95952380D01*
X199285714Y-95952380D01*
X199761904Y-95952380D02*
X199666666Y-95904761D01*
X199619047Y-95857142D01*
X199571428Y-95761904D01*
X199571428Y-95476190D01*
X199619047Y-95380952D01*
X199666666Y-95333333D01*
X199761904Y-95285714D01*
X199904761Y-95285714D01*
X200000000Y-95333333D01*
X200047619Y-95380952D01*
X200095238Y-95476190D01*
X200095238Y-95761904D01*
X200047619Y-95857142D01*
X200000000Y-95904761D01*
X199904761Y-95952380D01*
X199761904Y-95952380D01*
X200523809Y-95952380D02*
X200523809Y-95285714D01*
X200523809Y-95476190D02*
X200571428Y-95380952D01*
X200619047Y-95333333D01*
X200714285Y-95285714D01*
X200809523Y-95285714D01*
D10*
X201952380Y-73333333D02*
X202666666Y-73333333D01*
X202809523Y-73380952D01*
X202904761Y-73476190D01*
X202952380Y-73619047D01*
X202952380Y-73714285D01*
X202952380Y-72333333D02*
X202952380Y-72904761D01*
X202952380Y-72619047D02*
X201952380Y-72619047D01*
X202095238Y-72714285D01*
X202190476Y-72809523D01*
X202238095Y-72904761D01*
X198952380Y-81023809D02*
X199952380Y-80690476D01*
X198952380Y-80357142D01*
X199952380Y-80023809D02*
X199285714Y-80023809D01*
X198952380Y-80023809D02*
X199000000Y-80071428D01*
X199047619Y-80023809D01*
X199000000Y-79976190D01*
X198952380Y-80023809D01*
X199047619Y-80023809D01*
X199285714Y-79547619D02*
X199952380Y-79547619D01*
X199380952Y-79547619D02*
X199333333Y-79500000D01*
X199285714Y-79404761D01*
X199285714Y-79261904D01*
X199333333Y-79166666D01*
X199428571Y-79119047D01*
X199952380Y-79119047D01*
X175002380Y-86333333D02*
X175716666Y-86333333D01*
X175859523Y-86380952D01*
X175954761Y-86476190D01*
X176002380Y-86619047D01*
X176002380Y-86714285D01*
X175097619Y-85904761D02*
X175050000Y-85857142D01*
X175002380Y-85761904D01*
X175002380Y-85523809D01*
X175050000Y-85428571D01*
X175097619Y-85380952D01*
X175192857Y-85333333D01*
X175288095Y-85333333D01*
X175430952Y-85380952D01*
X176002380Y-85952380D01*
X176002380Y-85333333D01*
X159952380Y-77832261D02*
X159857142Y-77879880D01*
X159666666Y-77879880D01*
X159571428Y-77832261D01*
X159523809Y-77784642D01*
X159476190Y-77689404D01*
X159476190Y-77403690D01*
X159523809Y-77308452D01*
X159571428Y-77260833D01*
X159666666Y-77213214D01*
X159857142Y-77213214D01*
X159952380Y-77260833D01*
X160523809Y-77879880D02*
X160428571Y-77832261D01*
X160380952Y-77784642D01*
X160333333Y-77689404D01*
X160333333Y-77403690D01*
X160380952Y-77308452D01*
X160428571Y-77260833D01*
X160523809Y-77213214D01*
X160666666Y-77213214D01*
X160761904Y-77260833D01*
X160809523Y-77308452D01*
X160857142Y-77403690D01*
X160857142Y-77689404D01*
X160809523Y-77784642D01*
X160761904Y-77832261D01*
X160666666Y-77879880D01*
X160523809Y-77879880D01*
X161285714Y-77213214D02*
X161285714Y-77879880D01*
X161285714Y-77308452D02*
X161333333Y-77260833D01*
X161428571Y-77213214D01*
X161571428Y-77213214D01*
X161666666Y-77260833D01*
X161714285Y-77356071D01*
X161714285Y-77879880D01*
X162047619Y-77213214D02*
X162428571Y-77213214D01*
X162190476Y-76879880D02*
X162190476Y-77737023D01*
X162238095Y-77832261D01*
X162333333Y-77879880D01*
X162428571Y-77879880D01*
X162761904Y-77879880D02*
X162761904Y-77213214D01*
X162761904Y-77403690D02*
X162809523Y-77308452D01*
X162857142Y-77260833D01*
X162952380Y-77213214D01*
X163047619Y-77213214D01*
X163523809Y-77879880D02*
X163428571Y-77832261D01*
X163380952Y-77784642D01*
X163333333Y-77689404D01*
X163333333Y-77403690D01*
X163380952Y-77308452D01*
X163428571Y-77260833D01*
X163523809Y-77213214D01*
X163666666Y-77213214D01*
X163761904Y-77260833D01*
X163809523Y-77308452D01*
X163857142Y-77403690D01*
X163857142Y-77689404D01*
X163809523Y-77784642D01*
X163761904Y-77832261D01*
X163666666Y-77879880D01*
X163523809Y-77879880D01*
X164428571Y-77879880D02*
X164333333Y-77832261D01*
X164285714Y-77737023D01*
X164285714Y-76879880D01*
X164571428Y-77975119D02*
X165333333Y-77975119D01*
X165571428Y-77879880D02*
X165571428Y-77213214D01*
X165571428Y-76879880D02*
X165523809Y-76927500D01*
X165571428Y-76975119D01*
X165619047Y-76927500D01*
X165571428Y-76879880D01*
X165571428Y-76975119D01*
X166047619Y-77213214D02*
X166047619Y-77879880D01*
X166047619Y-77308452D02*
X166095238Y-77260833D01*
X166190476Y-77213214D01*
X166333333Y-77213214D01*
X166428571Y-77260833D01*
X166476190Y-77356071D01*
X166476190Y-77879880D01*
X202452380Y-98333333D02*
X203166666Y-98333333D01*
X203309523Y-98380952D01*
X203404761Y-98476190D01*
X203452380Y-98619047D01*
X203452380Y-98714285D01*
X202785714Y-97428571D02*
X203452380Y-97428571D01*
X202404761Y-97666666D02*
X203119047Y-97904761D01*
X203119047Y-97285714D01*
X199452380Y-91642857D02*
X199452380Y-92119047D01*
X198452380Y-92119047D01*
X198928571Y-91309523D02*
X198928571Y-90976190D01*
X199452380Y-90833333D02*
X199452380Y-91309523D01*
X198452380Y-91309523D01*
X198452380Y-90833333D01*
X199452380Y-90404761D02*
X198452380Y-90404761D01*
X198452380Y-90166666D01*
X198500000Y-90023809D01*
X198595238Y-89928571D01*
X198690476Y-89880952D01*
X198880952Y-89833333D01*
X199023809Y-89833333D01*
X199214285Y-89880952D01*
X199309523Y-89928571D01*
X199404761Y-90023809D01*
X199452380Y-90166666D01*
X199452380Y-90404761D01*
X170904761Y-66547619D02*
X170809523Y-66500000D01*
X170714285Y-66404761D01*
X170571428Y-66261904D01*
X170476190Y-66214285D01*
X170380952Y-66214285D01*
X170428571Y-66452380D02*
X170333333Y-66404761D01*
X170238095Y-66309523D01*
X170190476Y-66119047D01*
X170190476Y-65785714D01*
X170238095Y-65595238D01*
X170333333Y-65500000D01*
X170428571Y-65452380D01*
X170619047Y-65452380D01*
X170714285Y-65500000D01*
X170809523Y-65595238D01*
X170857142Y-65785714D01*
X170857142Y-66119047D01*
X170809523Y-66309523D01*
X170714285Y-66404761D01*
X170619047Y-66452380D01*
X170428571Y-66452380D01*
X171809523Y-66452380D02*
X171238095Y-66452380D01*
X171523809Y-66452380D02*
X171523809Y-65452380D01*
X171428571Y-65595238D01*
X171333333Y-65690476D01*
X171238095Y-65738095D01*
X195904761Y-66547619D02*
X195809523Y-66500000D01*
X195714285Y-66404761D01*
X195571428Y-66261904D01*
X195476190Y-66214285D01*
X195380952Y-66214285D01*
X195428571Y-66452380D02*
X195333333Y-66404761D01*
X195238095Y-66309523D01*
X195190476Y-66119047D01*
X195190476Y-65785714D01*
X195238095Y-65595238D01*
X195333333Y-65500000D01*
X195428571Y-65452380D01*
X195619047Y-65452380D01*
X195714285Y-65500000D01*
X195809523Y-65595238D01*
X195857142Y-65785714D01*
X195857142Y-66119047D01*
X195809523Y-66309523D01*
X195714285Y-66404761D01*
X195619047Y-66452380D01*
X195428571Y-66452380D01*
X196238095Y-65547619D02*
X196285714Y-65500000D01*
X196380952Y-65452380D01*
X196619047Y-65452380D01*
X196714285Y-65500000D01*
X196761904Y-65547619D01*
X196809523Y-65642857D01*
X196809523Y-65738095D01*
X196761904Y-65880952D01*
X196190476Y-66452380D01*
X196809523Y-66452380D01*
X190833333Y-81952380D02*
X190500000Y-81476190D01*
X190261904Y-81952380D02*
X190261904Y-80952380D01*
X190642857Y-80952380D01*
X190738095Y-81000000D01*
X190785714Y-81047619D01*
X190833333Y-81142857D01*
X190833333Y-81285714D01*
X190785714Y-81380952D01*
X190738095Y-81428571D01*
X190642857Y-81476190D01*
X190261904Y-81476190D01*
X191785714Y-81952380D02*
X191214285Y-81952380D01*
X191500000Y-81952380D02*
X191500000Y-80952380D01*
X191404761Y-81095238D01*
X191309523Y-81190476D01*
X191214285Y-81238095D01*
X190261904Y-82547619D02*
X190309523Y-82500000D01*
X190404761Y-82452380D01*
X190642857Y-82452380D01*
X190738095Y-82500000D01*
X190785714Y-82547619D01*
X190833333Y-82642857D01*
X190833333Y-82738095D01*
X190785714Y-82880952D01*
X190214285Y-83452380D01*
X190833333Y-83452380D01*
X191214285Y-82547619D02*
X191261904Y-82500000D01*
X191357142Y-82452380D01*
X191595238Y-82452380D01*
X191690476Y-82500000D01*
X191738095Y-82547619D01*
X191785714Y-82642857D01*
X191785714Y-82738095D01*
X191738095Y-82880952D01*
X191166666Y-83452380D01*
X191785714Y-83452380D01*
X192404761Y-82452380D02*
X192500000Y-82452380D01*
X192595238Y-82500000D01*
X192642857Y-82547619D01*
X192690476Y-82642857D01*
X192738095Y-82833333D01*
X192738095Y-83071428D01*
X192690476Y-83261904D01*
X192642857Y-83357142D01*
X192595238Y-83404761D01*
X192500000Y-83452380D01*
X192404761Y-83452380D01*
X192309523Y-83404761D01*
X192261904Y-83357142D01*
X192214285Y-83261904D01*
X192166666Y-83071428D01*
X192166666Y-82833333D01*
X192214285Y-82642857D01*
X192261904Y-82547619D01*
X192309523Y-82500000D01*
X192404761Y-82452380D01*
X191253333Y-85452380D02*
X190920000Y-84976190D01*
X190681904Y-85452380D02*
X190681904Y-84452380D01*
X191062857Y-84452380D01*
X191158095Y-84500000D01*
X191205714Y-84547619D01*
X191253333Y-84642857D01*
X191253333Y-84785714D01*
X191205714Y-84880952D01*
X191158095Y-84928571D01*
X191062857Y-84976190D01*
X190681904Y-84976190D01*
X191634285Y-84547619D02*
X191681904Y-84500000D01*
X191777142Y-84452380D01*
X192015238Y-84452380D01*
X192110476Y-84500000D01*
X192158095Y-84547619D01*
X192205714Y-84642857D01*
X192205714Y-84738095D01*
X192158095Y-84880952D01*
X191586666Y-85452380D01*
X192205714Y-85452380D01*
X190681904Y-86047619D02*
X190729523Y-86000000D01*
X190824761Y-85952380D01*
X191062857Y-85952380D01*
X191158095Y-86000000D01*
X191205714Y-86047619D01*
X191253333Y-86142857D01*
X191253333Y-86238095D01*
X191205714Y-86380952D01*
X190634285Y-86952380D01*
X191253333Y-86952380D01*
X191634285Y-86047619D02*
X191681904Y-86000000D01*
X191777142Y-85952380D01*
X192015238Y-85952380D01*
X192110476Y-86000000D01*
X192158095Y-86047619D01*
X192205714Y-86142857D01*
X192205714Y-86238095D01*
X192158095Y-86380952D01*
X191586666Y-86952380D01*
X192205714Y-86952380D01*
X192824761Y-85952380D02*
X192920000Y-85952380D01*
X193015238Y-86000000D01*
X193062857Y-86047619D01*
X193110476Y-86142857D01*
X193158095Y-86333333D01*
X193158095Y-86571428D01*
X193110476Y-86761904D01*
X193062857Y-86857142D01*
X193015238Y-86904761D01*
X192920000Y-86952380D01*
X192824761Y-86952380D01*
X192729523Y-86904761D01*
X192681904Y-86857142D01*
X192634285Y-86761904D01*
X192586666Y-86571428D01*
X192586666Y-86333333D01*
X192634285Y-86142857D01*
X192681904Y-86047619D01*
X192729523Y-86000000D01*
X192824761Y-85952380D01*
X191253333Y-88952380D02*
X190920000Y-88476190D01*
X190681904Y-88952380D02*
X190681904Y-87952380D01*
X191062857Y-87952380D01*
X191158095Y-88000000D01*
X191205714Y-88047619D01*
X191253333Y-88142857D01*
X191253333Y-88285714D01*
X191205714Y-88380952D01*
X191158095Y-88428571D01*
X191062857Y-88476190D01*
X190681904Y-88476190D01*
X191586666Y-87952380D02*
X192205714Y-87952380D01*
X191872380Y-88333333D01*
X192015238Y-88333333D01*
X192110476Y-88380952D01*
X192158095Y-88428571D01*
X192205714Y-88523809D01*
X192205714Y-88761904D01*
X192158095Y-88857142D01*
X192110476Y-88904761D01*
X192015238Y-88952380D01*
X191729523Y-88952380D01*
X191634285Y-88904761D01*
X191586666Y-88857142D01*
X191300952Y-90452380D02*
X190729523Y-90452380D01*
X191015238Y-90452380D02*
X191015238Y-89452380D01*
X190920000Y-89595238D01*
X190824761Y-89690476D01*
X190729523Y-89738095D01*
X191729523Y-90452380D02*
X191729523Y-89452380D01*
X191824761Y-90071428D02*
X192110476Y-90452380D01*
X192110476Y-89785714D02*
X191729523Y-90166666D01*
X177413333Y-99782380D02*
X177080000Y-99306190D01*
X176841904Y-99782380D02*
X176841904Y-98782380D01*
X177222857Y-98782380D01*
X177318095Y-98830000D01*
X177365714Y-98877619D01*
X177413333Y-98972857D01*
X177413333Y-99115714D01*
X177365714Y-99210952D01*
X177318095Y-99258571D01*
X177222857Y-99306190D01*
X176841904Y-99306190D01*
X178270476Y-99115714D02*
X178270476Y-99782380D01*
X178032380Y-98734761D02*
X177794285Y-99449047D01*
X178413333Y-99449047D01*
X169833333Y-98952380D02*
X169928571Y-98952380D01*
X170023809Y-99000000D01*
X170071428Y-99047619D01*
X170119047Y-99142857D01*
X170166666Y-99333333D01*
X170166666Y-99571428D01*
X170119047Y-99761904D01*
X170071428Y-99857142D01*
X170023809Y-99904761D01*
X169928571Y-99952380D01*
X169833333Y-99952380D01*
X169738095Y-99904761D01*
X169690476Y-99857142D01*
X169642857Y-99761904D01*
X169595238Y-99571428D01*
X169595238Y-99333333D01*
X169642857Y-99142857D01*
X169690476Y-99047619D01*
X169738095Y-99000000D01*
X169833333Y-98952380D01*
X170595238Y-99857142D02*
X170642857Y-99904761D01*
X170595238Y-99952380D01*
X170547619Y-99904761D01*
X170595238Y-99857142D01*
X170595238Y-99952380D01*
X171547619Y-98952380D02*
X171071428Y-98952380D01*
X171023809Y-99428571D01*
X171071428Y-99380952D01*
X171166666Y-99333333D01*
X171404761Y-99333333D01*
X171500000Y-99380952D01*
X171547619Y-99428571D01*
X171595238Y-99523809D01*
X171595238Y-99761904D01*
X171547619Y-99857142D01*
X171500000Y-99904761D01*
X171404761Y-99952380D01*
X171166666Y-99952380D01*
X171071428Y-99904761D01*
X171023809Y-99857142D01*
X172738095Y-99047619D02*
X172785714Y-99000000D01*
X172880952Y-98952380D01*
X173119047Y-98952380D01*
X173214285Y-99000000D01*
X173261904Y-99047619D01*
X173309523Y-99142857D01*
X173309523Y-99238095D01*
X173261904Y-99380952D01*
X172690476Y-99952380D01*
X173309523Y-99952380D01*
X173928571Y-98952380D02*
X174023809Y-98952380D01*
X174119047Y-99000000D01*
X174166666Y-99047619D01*
X174214285Y-99142857D01*
X174261904Y-99333333D01*
X174261904Y-99571428D01*
X174214285Y-99761904D01*
X174166666Y-99857142D01*
X174119047Y-99904761D01*
X174023809Y-99952380D01*
X173928571Y-99952380D01*
X173833333Y-99904761D01*
X173785714Y-99857142D01*
X173738095Y-99761904D01*
X173690476Y-99571428D01*
X173690476Y-99333333D01*
X173738095Y-99142857D01*
X173785714Y-99047619D01*
X173833333Y-99000000D01*
X173928571Y-98952380D01*
X174595238Y-98952380D02*
X174833333Y-99952380D01*
X175023809Y-99238095D01*
X175214285Y-99952380D01*
X175452380Y-98952380D01*
X183202380Y-104095238D02*
X182726190Y-104428571D01*
X183202380Y-104666666D02*
X182202380Y-104666666D01*
X182202380Y-104285714D01*
X182250000Y-104190476D01*
X182297619Y-104142857D01*
X182392857Y-104095238D01*
X182535714Y-104095238D01*
X182630952Y-104142857D01*
X182678571Y-104190476D01*
X182726190Y-104285714D01*
X182726190Y-104666666D01*
X182202380Y-103809523D02*
X183202380Y-103476190D01*
X182202380Y-103142857D01*
X182297619Y-102857142D02*
X182250000Y-102809523D01*
X182202380Y-102714285D01*
X182202380Y-102476190D01*
X182250000Y-102380952D01*
X182297619Y-102333333D01*
X182392857Y-102285714D01*
X182488095Y-102285714D01*
X182630952Y-102333333D01*
X183202380Y-102904761D01*
X183202380Y-102285714D01*
X199057214Y-104888595D02*
X200057214Y-104888595D01*
X199104833Y-104888595D02*
X199057214Y-104793357D01*
X199057214Y-104602880D01*
X199104833Y-104507642D01*
X199152452Y-104460023D01*
X199247690Y-104412404D01*
X199533404Y-104412404D01*
X199628642Y-104460023D01*
X199676261Y-104507642D01*
X199723880Y-104602880D01*
X199723880Y-104793357D01*
X199676261Y-104888595D01*
X199723880Y-103840976D02*
X199676261Y-103936214D01*
X199628642Y-103983833D01*
X199533404Y-104031452D01*
X199247690Y-104031452D01*
X199152452Y-103983833D01*
X199104833Y-103936214D01*
X199057214Y-103840976D01*
X199057214Y-103698119D01*
X199104833Y-103602880D01*
X199152452Y-103555261D01*
X199247690Y-103507642D01*
X199533404Y-103507642D01*
X199628642Y-103555261D01*
X199676261Y-103602880D01*
X199723880Y-103698119D01*
X199723880Y-103840976D01*
X199057214Y-103221928D02*
X199057214Y-102840976D01*
X198723880Y-103079071D02*
X199581023Y-103079071D01*
X199676261Y-103031452D01*
X199723880Y-102936214D01*
X199723880Y-102840976D01*
X199819119Y-102745738D02*
X199819119Y-101983833D01*
X199723880Y-101745738D02*
X199057214Y-101745738D01*
X199152452Y-101745738D02*
X199104833Y-101698119D01*
X199057214Y-101602880D01*
X199057214Y-101460023D01*
X199104833Y-101364785D01*
X199200071Y-101317166D01*
X199723880Y-101317166D01*
X199200071Y-101317166D02*
X199104833Y-101269547D01*
X199057214Y-101174309D01*
X199057214Y-101031452D01*
X199104833Y-100936214D01*
X199200071Y-100888595D01*
X199723880Y-100888595D01*
X199723880Y-100412404D02*
X199057214Y-100412404D01*
X198723880Y-100412404D02*
X198771500Y-100460023D01*
X198819119Y-100412404D01*
X198771500Y-100364785D01*
X198723880Y-100412404D01*
X198819119Y-100412404D01*
X199057214Y-99936214D02*
X199723880Y-99936214D01*
X199152452Y-99936214D02*
X199104833Y-99888595D01*
X199057214Y-99793357D01*
X199057214Y-99650500D01*
X199104833Y-99555261D01*
X199200071Y-99507642D01*
X199723880Y-99507642D01*
X198723880Y-98555261D02*
X198723880Y-99031452D01*
X199200071Y-99079071D01*
X199152452Y-99031452D01*
X199104833Y-98936214D01*
X199104833Y-98698119D01*
X199152452Y-98602880D01*
X199200071Y-98555261D01*
X199295309Y-98507642D01*
X199533404Y-98507642D01*
X199628642Y-98555261D01*
X199676261Y-98602880D01*
X199723880Y-98698119D01*
X199723880Y-98936214D01*
X199676261Y-99031452D01*
X199628642Y-99079071D01*
X198723880Y-98174309D02*
X199723880Y-97936214D01*
X199009595Y-97745738D01*
X199723880Y-97555261D01*
X198723880Y-97317166D01*
D13*
X202200000Y-85150000D02*
X214800000Y-85150000D01*
X214800000Y-74800000D02*
X213850000Y-74800000D01*
X214800000Y-85150000D02*
X214800000Y-74800000D01*
X212200000Y-74300000D02*
X212150000Y-74300000D01*
X207300000Y-74300000D02*
X202200000Y-74300000D01*
X202200000Y-74300000D02*
X202200000Y-85150000D01*
X212400000Y-74800000D02*
X207000000Y-74800000D01*
X207000000Y-74800000D02*
X207300000Y-74300000D01*
X212150000Y-74300000D02*
X212400000Y-74800000D01*
X214100000Y-74300000D02*
X212200000Y-74300000D01*
X213850000Y-74800000D02*
X214100000Y-74300000D01*
X173850000Y-78500000D02*
X173850000Y-93500000D01*
X158850000Y-78500000D02*
X173850000Y-78500000D01*
X159050000Y-86000000D02*
X160050000Y-87000000D01*
X173850000Y-93500000D02*
X158850000Y-93500000D01*
X158850000Y-93500000D02*
X158850000Y-78500000D01*
X159050000Y-86000000D02*
X160050000Y-85000000D01*
X212200000Y-85565000D02*
X212150000Y-85565000D01*
X202200000Y-85565000D02*
X202200000Y-96415000D01*
X202200000Y-96415000D02*
X214800000Y-96415000D01*
X212150000Y-85565000D02*
X212400000Y-86065000D01*
X214800000Y-96415000D02*
X214800000Y-86065000D01*
X207300000Y-85565000D02*
X202200000Y-85565000D01*
X207000000Y-86065000D02*
X207300000Y-85565000D01*
X213850000Y-86065000D02*
X214100000Y-85565000D01*
X212400000Y-86065000D02*
X207000000Y-86065000D01*
X214800000Y-86065000D02*
X213850000Y-86065000D01*
X214100000Y-85565000D02*
X212200000Y-85565000D01*
X175650000Y-64675000D02*
X175650000Y-66185000D01*
X172380000Y-64675000D02*
X172380000Y-69316000D01*
X172380000Y-64675000D02*
X182620000Y-64675000D01*
X172380000Y-66185000D02*
X182620000Y-66185000D01*
X182620000Y-64675000D02*
X182620000Y-69316000D01*
X179351000Y-64675000D02*
X179351000Y-66185000D01*
X172380000Y-69316000D02*
X182620000Y-69316000D01*
X184380000Y-64675000D02*
X194620000Y-64675000D01*
X194620000Y-64675000D02*
X194620000Y-69316000D01*
X187650000Y-64675000D02*
X187650000Y-66185000D01*
X191351000Y-64675000D02*
X191351000Y-66185000D01*
X184380000Y-66185000D02*
X194620000Y-66185000D01*
X184380000Y-69316000D02*
X194620000Y-69316000D01*
X184380000Y-64675000D02*
X184380000Y-69316000D01*
X180650000Y-80630000D02*
X180650000Y-83370000D01*
X187190000Y-80630000D02*
X180650000Y-80630000D01*
X179880000Y-82000000D02*
X180650000Y-82000000D01*
X187960000Y-82000000D02*
X187190000Y-82000000D01*
X180650000Y-83370000D02*
X187190000Y-83370000D01*
X187190000Y-83370000D02*
X187190000Y-80630000D01*
X187960000Y-85500000D02*
X187190000Y-85500000D01*
X187190000Y-86870000D02*
X187190000Y-84130000D01*
X180650000Y-86870000D02*
X187190000Y-86870000D01*
X180650000Y-84130000D02*
X180650000Y-86870000D01*
X187190000Y-84130000D02*
X180650000Y-84130000D01*
X179880000Y-85500000D02*
X180650000Y-85500000D01*
X187190000Y-90370000D02*
X187190000Y-87630000D01*
X187190000Y-87630000D02*
X180650000Y-87630000D01*
X187960000Y-89000000D02*
X187190000Y-89000000D01*
X180650000Y-90370000D02*
X187190000Y-90370000D01*
X180650000Y-87630000D02*
X180650000Y-90370000D01*
X179880000Y-89000000D02*
X180650000Y-89000000D01*
X172150000Y-103370000D02*
X178690000Y-103370000D01*
X178690000Y-103370000D02*
X178690000Y-100630000D01*
X179460000Y-102000000D02*
X178690000Y-102000000D01*
X171380000Y-102000000D02*
X172150000Y-102000000D01*
X172150000Y-100630000D02*
X172150000Y-103370000D01*
X178690000Y-100630000D02*
X172150000Y-100630000D01*
X197425000Y-103621000D02*
X198120000Y-103621000D01*
X187426000Y-103621000D02*
X194575000Y-103621000D01*
X192425000Y-98380000D02*
X198120000Y-98380000D01*
X194121000Y-103621000D02*
X194121000Y-98380000D01*
X187880000Y-103621000D02*
X194121000Y-103621000D01*
X198120000Y-103621000D02*
X198120000Y-98380000D01*
X183880000Y-103621000D02*
X184574000Y-103621000D01*
X192425000Y-98380000D02*
X194121000Y-98380000D01*
X187880000Y-103621000D02*
X187880000Y-98380000D01*
X187880000Y-98380000D02*
X189575000Y-98380000D01*
X183880000Y-98380000D02*
X189575000Y-98380000D01*
X183880000Y-103621000D02*
X183880000Y-98380000D01*
M02*
