G04 #@! TF.GenerationSoftware,KiCad,Pcbnew,5.0.2-bee76a0~70~ubuntu18.04.1*
G04 #@! TF.CreationDate,2019-04-24T08:54:05-03:00*
G04 #@! TF.ProjectId,led_driver,6c65645f-6472-4697-9665-722e6b696361,rev?*
G04 #@! TF.SameCoordinates,Original*
G04 #@! TF.FileFunction,Other,Fab,Top*
%FSLAX46Y46*%
G04 Gerber Fmt 4.6, Leading zero omitted, Abs format (unit mm)*
G04 Created by KiCad (PCBNEW 5.0.2-bee76a0~70~ubuntu18.04.1) date Wed 24 Apr 2019 08:54:05 -03*
%MOMM*%
%LPD*%
G01*
G04 APERTURE LIST*
%ADD10C,0.100000*%
%ADD11C,0.150000*%
G04 APERTURE END LIST*
D10*
G04 #@! TO.C,J1*
X172952699Y-70890528D02*
G75*
G03X172024000Y-71033500I-408699J-432972D01*
G01*
X172965534Y-73993476D02*
G75*
G03X172894000Y-70833500I-1361534J1549976D01*
G01*
X172052582Y-70993671D02*
G75*
G03X172014000Y-73983500I1911418J-1519829D01*
G01*
X171980004Y-73939120D02*
G75*
G03X172944000Y-73983500I503996J455620D01*
G01*
X172952699Y-75890528D02*
G75*
G03X172024000Y-76033500I-408699J-432972D01*
G01*
X172955687Y-78991739D02*
G75*
G03X172894000Y-75843500I-1351687J1548239D01*
G01*
X172062263Y-76001167D02*
G75*
G03X172014000Y-78983500I1901737J-1522333D01*
G01*
X171970005Y-78939032D02*
G75*
G03X172944000Y-78993500I513995J455532D01*
G01*
X168144000Y-75813500D02*
X168144000Y-79123500D01*
X168144000Y-75433500D02*
X168144000Y-75813500D01*
X168144000Y-79503500D02*
X168144000Y-79123500D01*
X168534000Y-79123500D02*
X168534000Y-75813500D01*
X168534000Y-80063500D02*
X168534000Y-79123500D01*
X168534000Y-74113500D02*
X168534000Y-75813500D01*
X168534000Y-70813500D02*
X168534000Y-74113500D01*
X168534000Y-69873500D02*
X168534000Y-70813500D01*
X168144000Y-74113500D02*
X168144000Y-70813500D01*
X168144000Y-74493500D02*
X168144000Y-74113500D01*
X168144000Y-70433500D02*
X168144000Y-70813500D01*
X172214000Y-70963500D02*
X172844000Y-74013500D01*
X172344000Y-70833500D02*
X172974000Y-73893500D01*
X172214000Y-75973500D02*
X172844000Y-79013500D01*
X172344000Y-75843500D02*
X172974000Y-78893500D01*
X173864000Y-74493500D02*
X173864000Y-70433500D01*
X171324000Y-70433500D02*
X173864000Y-70433500D01*
X171324000Y-74493500D02*
X171324000Y-70433500D01*
X171324000Y-74493500D02*
X173864000Y-74493500D01*
X171324000Y-79503500D02*
X171324000Y-75433500D01*
X173864000Y-79503500D02*
X171324000Y-79503500D01*
X173864000Y-75433500D02*
X173864000Y-79503500D01*
X171324000Y-75433500D02*
X173864000Y-75433500D01*
X171064000Y-80063500D02*
X169544000Y-80063500D01*
X171064000Y-69873500D02*
X174114000Y-69873500D01*
X171064000Y-69873500D02*
X171064000Y-80063500D01*
X168534000Y-80063500D02*
X163834000Y-80063500D01*
X169544000Y-80063500D02*
X168534000Y-80063500D01*
X168534000Y-69873500D02*
X171064000Y-69873500D01*
X161674000Y-69873500D02*
X168534000Y-69873500D01*
X167384000Y-79123500D02*
X167384000Y-78733500D01*
X167384000Y-75813500D02*
X167384000Y-76193500D01*
X167384000Y-74113500D02*
X167384000Y-73733500D01*
X167384000Y-70813500D02*
X167384000Y-71193500D01*
X164214000Y-70813500D02*
X167384000Y-70813500D01*
X164214000Y-74113500D02*
X164214000Y-70813500D01*
X164214000Y-74113500D02*
X167384000Y-74113500D01*
X164214000Y-75813500D02*
X167384000Y-75813500D01*
X164214000Y-79123500D02*
X164214000Y-75813500D01*
X164214000Y-79123500D02*
X167384000Y-79123500D01*
X163574000Y-70433500D02*
X161674000Y-70433500D01*
X163574000Y-74493500D02*
X168144000Y-74493500D01*
X163574000Y-74493500D02*
X163574000Y-70433500D01*
X163574000Y-79503500D02*
X161674000Y-79503500D01*
X163574000Y-75433500D02*
X168144000Y-75433500D01*
X163574000Y-75433500D02*
X163574000Y-79503500D01*
X161674000Y-70433500D02*
X161674000Y-74493500D01*
X161674000Y-69873500D02*
X161674000Y-70433500D01*
X168144000Y-70433500D02*
X163574000Y-70433500D01*
X161674000Y-74493500D02*
X161674000Y-75433500D01*
X161674000Y-74493500D02*
X163574000Y-74493500D01*
X161674000Y-79503500D02*
X161674000Y-80063500D01*
X161674000Y-75433500D02*
X161674000Y-79503500D01*
X168144000Y-79503500D02*
X163574000Y-79503500D01*
X161674000Y-75433500D02*
X163574000Y-75433500D01*
X164084000Y-80563500D02*
X162434000Y-80563500D01*
X163834000Y-80063500D02*
X162684000Y-80063500D01*
X164084000Y-80563500D02*
X163834000Y-80063500D01*
X162684000Y-80063500D02*
X161674000Y-80063500D01*
X162434000Y-80563500D02*
X162684000Y-80063500D01*
X169294000Y-80563500D02*
X169544000Y-80063500D01*
X174114000Y-80563500D02*
X169294000Y-80563500D01*
X174114000Y-80063500D02*
X174114000Y-80563500D01*
X174114000Y-80063500D02*
X174114000Y-69873500D01*
X174114000Y-80063500D02*
X171064000Y-80063500D01*
X165354000Y-76193500D02*
X168144000Y-76193500D01*
X168144000Y-76193500D02*
X168144000Y-78733500D01*
X165354000Y-78733500D02*
X168144000Y-78733500D01*
X165354000Y-76193500D02*
X165354000Y-78733500D01*
X165354000Y-71193500D02*
X168144000Y-71193500D01*
X168144000Y-71193500D02*
X168144000Y-73733500D01*
X165354000Y-73733500D02*
X168144000Y-73733500D01*
X165354000Y-71193500D02*
X165354000Y-73733500D01*
G04 #@! TO.C,J2*
X153990000Y-96757500D02*
X152990000Y-86757500D01*
X154990000Y-96757500D02*
X153990000Y-86757500D01*
X155990000Y-96757500D02*
X154990000Y-86757500D01*
X156990000Y-96757500D02*
X155990000Y-86757500D01*
X157990000Y-96757500D02*
X156990000Y-86757500D01*
X158990000Y-96757500D02*
X157990000Y-86757500D01*
X146920000Y-91757500D02*
G75*
G03X146920000Y-91757500I-1000000J0D01*
G01*
X152590000Y-86957500D02*
X140690000Y-86957500D01*
X140690000Y-86957500D02*
X140690000Y-96557500D01*
X140690000Y-96557500D02*
X152590000Y-96557500D01*
X161290000Y-85407500D02*
X152590000Y-85407500D01*
X152590000Y-85407500D02*
X152590000Y-98107500D01*
X152590000Y-98107500D02*
X161290000Y-98107500D01*
X176190000Y-99107500D02*
X176190000Y-84407500D01*
X176190000Y-84407500D02*
X161290000Y-84407500D01*
X161290000Y-84407500D02*
X161290000Y-99107500D01*
X161290000Y-99107500D02*
X176190000Y-99107500D01*
X159990000Y-96757500D02*
X158990000Y-86757500D01*
G04 #@! TO.C,J4*
X220345000Y-79365000D02*
X220345000Y-76825000D01*
X220345000Y-76825000D02*
X217555000Y-76825000D01*
X217555000Y-79365000D02*
X217555000Y-76825000D01*
X220345000Y-79365000D02*
X217555000Y-79365000D01*
X220345000Y-74365000D02*
X220345000Y-71825000D01*
X220345000Y-71825000D02*
X217555000Y-71825000D01*
X217555000Y-74365000D02*
X217555000Y-71825000D01*
X220345000Y-74365000D02*
X217555000Y-74365000D01*
X211585000Y-70495000D02*
X214635000Y-70495000D01*
X211585000Y-70495000D02*
X211585000Y-80685000D01*
X211585000Y-70495000D02*
X211585000Y-69995000D01*
X211585000Y-69995000D02*
X216405000Y-69995000D01*
X216405000Y-69995000D02*
X216155000Y-70495000D01*
X223265000Y-69995000D02*
X223015000Y-70495000D01*
X223015000Y-70495000D02*
X224025000Y-70495000D01*
X221615000Y-69995000D02*
X221865000Y-70495000D01*
X221865000Y-70495000D02*
X223015000Y-70495000D01*
X221615000Y-69995000D02*
X223265000Y-69995000D01*
X224025000Y-75125000D02*
X222125000Y-75125000D01*
X217555000Y-71055000D02*
X222125000Y-71055000D01*
X224025000Y-75125000D02*
X224025000Y-71055000D01*
X224025000Y-71055000D02*
X224025000Y-70495000D01*
X224025000Y-76065000D02*
X222125000Y-76065000D01*
X224025000Y-76065000D02*
X224025000Y-75125000D01*
X217555000Y-80125000D02*
X222125000Y-80125000D01*
X224025000Y-80685000D02*
X224025000Y-80125000D01*
X224025000Y-80125000D02*
X224025000Y-76065000D01*
X222125000Y-75125000D02*
X222125000Y-71055000D01*
X222125000Y-75125000D02*
X217555000Y-75125000D01*
X222125000Y-71055000D02*
X224025000Y-71055000D01*
X222125000Y-76065000D02*
X222125000Y-80125000D01*
X222125000Y-76065000D02*
X217555000Y-76065000D01*
X222125000Y-80125000D02*
X224025000Y-80125000D01*
X221485000Y-71435000D02*
X218315000Y-71435000D01*
X221485000Y-71435000D02*
X221485000Y-74745000D01*
X221485000Y-74745000D02*
X218315000Y-74745000D01*
X221485000Y-76445000D02*
X218315000Y-76445000D01*
X221485000Y-76445000D02*
X221485000Y-79745000D01*
X221485000Y-79745000D02*
X218315000Y-79745000D01*
X218315000Y-79745000D02*
X218315000Y-79365000D01*
X218315000Y-76445000D02*
X218315000Y-76825000D01*
X218315000Y-74745000D02*
X218315000Y-74365000D01*
X218315000Y-71435000D02*
X218315000Y-71825000D01*
X224025000Y-80685000D02*
X217165000Y-80685000D01*
X217165000Y-80685000D02*
X214635000Y-80685000D01*
X216155000Y-70495000D02*
X217165000Y-70495000D01*
X217165000Y-70495000D02*
X221865000Y-70495000D01*
X214635000Y-80685000D02*
X214635000Y-70495000D01*
X214635000Y-80685000D02*
X211585000Y-80685000D01*
X214635000Y-70495000D02*
X216155000Y-70495000D01*
X214375000Y-75125000D02*
X211835000Y-75125000D01*
X211835000Y-75125000D02*
X211835000Y-71055000D01*
X211835000Y-71055000D02*
X214375000Y-71055000D01*
X214375000Y-71055000D02*
X214375000Y-75125000D01*
X214375000Y-76065000D02*
X211835000Y-76065000D01*
X214375000Y-76065000D02*
X214375000Y-80125000D01*
X214375000Y-80125000D02*
X211835000Y-80125000D01*
X211835000Y-76065000D02*
X211835000Y-80125000D01*
X213355000Y-74715000D02*
X212725000Y-71665000D01*
X213485000Y-74585000D02*
X212855000Y-71545000D01*
X213355000Y-79725000D02*
X212725000Y-76665000D01*
X213485000Y-79595000D02*
X212855000Y-76545000D01*
X217555000Y-80125000D02*
X217555000Y-79745000D01*
X217555000Y-76065000D02*
X217555000Y-76445000D01*
X217555000Y-76445000D02*
X217555000Y-79745000D01*
X217165000Y-80685000D02*
X217165000Y-79745000D01*
X217165000Y-79745000D02*
X217165000Y-76445000D01*
X217165000Y-76445000D02*
X217165000Y-74745000D01*
X217165000Y-70495000D02*
X217165000Y-71435000D01*
X217165000Y-71435000D02*
X217165000Y-74745000D01*
X217555000Y-71055000D02*
X217555000Y-71435000D01*
X217555000Y-75125000D02*
X217555000Y-74745000D01*
X217555000Y-74745000D02*
X217555000Y-71435000D01*
X213728995Y-71619468D02*
G75*
G03X212755000Y-71565000I-513995J-455532D01*
G01*
X213636737Y-74557333D02*
G75*
G03X213685000Y-71575000I-1901737J1522333D01*
G01*
X212743313Y-71566761D02*
G75*
G03X212805000Y-74715000I1351687J-1548239D01*
G01*
X212746301Y-74667972D02*
G75*
G03X213675000Y-74525000I408699J432972D01*
G01*
X213718996Y-76619380D02*
G75*
G03X212755000Y-76575000I-503996J-455620D01*
G01*
X213646418Y-79564829D02*
G75*
G03X213685000Y-76575000I-1911418J1519829D01*
G01*
X212733466Y-76565024D02*
G75*
G03X212805000Y-79725000I1361534J-1549976D01*
G01*
X212746301Y-79667972D02*
G75*
G03X213675000Y-79525000I408699J432972D01*
G01*
G04 #@! TO.C,Q1*
X186975500Y-85785000D02*
X181975500Y-85785000D01*
X187975500Y-80585000D02*
X187975500Y-84785000D01*
X181975500Y-80585000D02*
X187975500Y-80585000D01*
X181975500Y-85785000D02*
X181975500Y-80585000D01*
X186975500Y-85785000D02*
X187975500Y-84785000D01*
G04 #@! TO.C,Q2*
X183644500Y-70003500D02*
X186544500Y-70003500D01*
X186544500Y-70003500D02*
X186544500Y-74903500D01*
X186544500Y-74903500D02*
X182644500Y-74903500D01*
X182644500Y-74903500D02*
X182644500Y-71003500D01*
X182644500Y-71003500D02*
X183644500Y-70003500D01*
G04 #@! TO.C,R1*
X194310000Y-78740000D02*
X196240000Y-78740000D01*
X204470000Y-78740000D02*
X202540000Y-78740000D01*
X196240000Y-79990000D02*
X202540000Y-79990000D01*
X196240000Y-77490000D02*
X196240000Y-79990000D01*
X202540000Y-77490000D02*
X196240000Y-77490000D01*
X202540000Y-79990000D02*
X202540000Y-77490000D01*
G04 #@! TO.C,R2*
X194310000Y-83820000D02*
X196240000Y-83820000D01*
X204470000Y-83820000D02*
X202540000Y-83820000D01*
X196240000Y-85070000D02*
X202540000Y-85070000D01*
X196240000Y-82570000D02*
X196240000Y-85070000D01*
X202540000Y-82570000D02*
X196240000Y-82570000D01*
X202540000Y-85070000D02*
X202540000Y-82570000D01*
G04 #@! TO.C,R3*
X196240000Y-70505000D02*
X196240000Y-73005000D01*
X196240000Y-73005000D02*
X202540000Y-73005000D01*
X202540000Y-73005000D02*
X202540000Y-70505000D01*
X202540000Y-70505000D02*
X196240000Y-70505000D01*
X194310000Y-71755000D02*
X196240000Y-71755000D01*
X204470000Y-71755000D02*
X202540000Y-71755000D01*
G04 #@! TO.C,R4*
X221635000Y-93447000D02*
X224135000Y-93447000D01*
X224135000Y-93447000D02*
X224135000Y-87147000D01*
X224135000Y-87147000D02*
X221635000Y-87147000D01*
X221635000Y-87147000D02*
X221635000Y-93447000D01*
X222885000Y-95377000D02*
X222885000Y-93447000D01*
X222885000Y-85217000D02*
X222885000Y-87147000D01*
G04 #@! TO.C,RV2*
X180943500Y-92599500D02*
X194943500Y-92599500D01*
X194943500Y-92599500D02*
X194943500Y-97599500D01*
X194943500Y-97599500D02*
X180943500Y-97599500D01*
X180943500Y-97599500D02*
X180943500Y-92599500D01*
X184943500Y-97599500D02*
X190943500Y-97599500D01*
X190943500Y-97599500D02*
X190943500Y-92599500D01*
X190943500Y-92599500D02*
X184943500Y-92599500D01*
X184943500Y-92599500D02*
X184943500Y-97599500D01*
G04 #@! TD*
G04 #@! TO.C,J1*
D11*
X169346380Y-75286833D02*
X170060666Y-75286833D01*
X170203523Y-75334452D01*
X170298761Y-75429690D01*
X170346380Y-75572547D01*
X170346380Y-75667785D01*
X170346380Y-74286833D02*
X170346380Y-74858261D01*
X170346380Y-74572547D02*
X169346380Y-74572547D01*
X169489238Y-74667785D01*
X169584476Y-74763023D01*
X169632095Y-74858261D01*
G04 #@! TO.C,J2*
X173442380Y-92090833D02*
X174156666Y-92090833D01*
X174299523Y-92138452D01*
X174394761Y-92233690D01*
X174442380Y-92376547D01*
X174442380Y-92471785D01*
X173537619Y-91662261D02*
X173490000Y-91614642D01*
X173442380Y-91519404D01*
X173442380Y-91281309D01*
X173490000Y-91186071D01*
X173537619Y-91138452D01*
X173632857Y-91090833D01*
X173728095Y-91090833D01*
X173870952Y-91138452D01*
X174442380Y-91709880D01*
X174442380Y-91090833D01*
G04 #@! TO.C,J4*
X215257380Y-75938333D02*
X215971666Y-75938333D01*
X216114523Y-75985952D01*
X216209761Y-76081190D01*
X216257380Y-76224047D01*
X216257380Y-76319285D01*
X215590714Y-75033571D02*
X216257380Y-75033571D01*
X215209761Y-75271666D02*
X215924047Y-75509761D01*
X215924047Y-74890714D01*
G04 #@! TO.C,Q1*
X184880261Y-84732619D02*
X184785023Y-84685000D01*
X184689785Y-84589761D01*
X184546928Y-84446904D01*
X184451690Y-84399285D01*
X184356452Y-84399285D01*
X184404071Y-84637380D02*
X184308833Y-84589761D01*
X184213595Y-84494523D01*
X184165976Y-84304047D01*
X184165976Y-83970714D01*
X184213595Y-83780238D01*
X184308833Y-83685000D01*
X184404071Y-83637380D01*
X184594547Y-83637380D01*
X184689785Y-83685000D01*
X184785023Y-83780238D01*
X184832642Y-83970714D01*
X184832642Y-84304047D01*
X184785023Y-84494523D01*
X184689785Y-84589761D01*
X184594547Y-84637380D01*
X184404071Y-84637380D01*
X185785023Y-84637380D02*
X185213595Y-84637380D01*
X185499309Y-84637380D02*
X185499309Y-83637380D01*
X185404071Y-83780238D01*
X185308833Y-83875476D01*
X185213595Y-83923095D01*
G04 #@! TO.C,Q2*
X184499261Y-73001119D02*
X184404023Y-72953500D01*
X184308785Y-72858261D01*
X184165928Y-72715404D01*
X184070690Y-72667785D01*
X183975452Y-72667785D01*
X184023071Y-72905880D02*
X183927833Y-72858261D01*
X183832595Y-72763023D01*
X183784976Y-72572547D01*
X183784976Y-72239214D01*
X183832595Y-72048738D01*
X183927833Y-71953500D01*
X184023071Y-71905880D01*
X184213547Y-71905880D01*
X184308785Y-71953500D01*
X184404023Y-72048738D01*
X184451642Y-72239214D01*
X184451642Y-72572547D01*
X184404023Y-72763023D01*
X184308785Y-72858261D01*
X184213547Y-72905880D01*
X184023071Y-72905880D01*
X184832595Y-72001119D02*
X184880214Y-71953500D01*
X184975452Y-71905880D01*
X185213547Y-71905880D01*
X185308785Y-71953500D01*
X185356404Y-72001119D01*
X185404023Y-72096357D01*
X185404023Y-72191595D01*
X185356404Y-72334452D01*
X184784976Y-72905880D01*
X185404023Y-72905880D01*
G04 #@! TO.C,R1*
X199223333Y-79192380D02*
X198890000Y-78716190D01*
X198651904Y-79192380D02*
X198651904Y-78192380D01*
X199032857Y-78192380D01*
X199128095Y-78240000D01*
X199175714Y-78287619D01*
X199223333Y-78382857D01*
X199223333Y-78525714D01*
X199175714Y-78620952D01*
X199128095Y-78668571D01*
X199032857Y-78716190D01*
X198651904Y-78716190D01*
X200175714Y-79192380D02*
X199604285Y-79192380D01*
X199890000Y-79192380D02*
X199890000Y-78192380D01*
X199794761Y-78335238D01*
X199699523Y-78430476D01*
X199604285Y-78478095D01*
G04 #@! TO.C,R2*
X199223333Y-84272380D02*
X198890000Y-83796190D01*
X198651904Y-84272380D02*
X198651904Y-83272380D01*
X199032857Y-83272380D01*
X199128095Y-83320000D01*
X199175714Y-83367619D01*
X199223333Y-83462857D01*
X199223333Y-83605714D01*
X199175714Y-83700952D01*
X199128095Y-83748571D01*
X199032857Y-83796190D01*
X198651904Y-83796190D01*
X199604285Y-83367619D02*
X199651904Y-83320000D01*
X199747142Y-83272380D01*
X199985238Y-83272380D01*
X200080476Y-83320000D01*
X200128095Y-83367619D01*
X200175714Y-83462857D01*
X200175714Y-83558095D01*
X200128095Y-83700952D01*
X199556666Y-84272380D01*
X200175714Y-84272380D01*
G04 #@! TO.C,R3*
X199223333Y-72207380D02*
X198890000Y-71731190D01*
X198651904Y-72207380D02*
X198651904Y-71207380D01*
X199032857Y-71207380D01*
X199128095Y-71255000D01*
X199175714Y-71302619D01*
X199223333Y-71397857D01*
X199223333Y-71540714D01*
X199175714Y-71635952D01*
X199128095Y-71683571D01*
X199032857Y-71731190D01*
X198651904Y-71731190D01*
X199556666Y-71207380D02*
X200175714Y-71207380D01*
X199842380Y-71588333D01*
X199985238Y-71588333D01*
X200080476Y-71635952D01*
X200128095Y-71683571D01*
X200175714Y-71778809D01*
X200175714Y-72016904D01*
X200128095Y-72112142D01*
X200080476Y-72159761D01*
X199985238Y-72207380D01*
X199699523Y-72207380D01*
X199604285Y-72159761D01*
X199556666Y-72112142D01*
G04 #@! TO.C,R4*
X223337380Y-90463666D02*
X222861190Y-90797000D01*
X223337380Y-91035095D02*
X222337380Y-91035095D01*
X222337380Y-90654142D01*
X222385000Y-90558904D01*
X222432619Y-90511285D01*
X222527857Y-90463666D01*
X222670714Y-90463666D01*
X222765952Y-90511285D01*
X222813571Y-90558904D01*
X222861190Y-90654142D01*
X222861190Y-91035095D01*
X222670714Y-89606523D02*
X223337380Y-89606523D01*
X222289761Y-89844619D02*
X223004047Y-90082714D01*
X223004047Y-89463666D01*
G04 #@! TO.C,RV2*
X188395880Y-95694738D02*
X187919690Y-96028071D01*
X188395880Y-96266166D02*
X187395880Y-96266166D01*
X187395880Y-95885214D01*
X187443500Y-95789976D01*
X187491119Y-95742357D01*
X187586357Y-95694738D01*
X187729214Y-95694738D01*
X187824452Y-95742357D01*
X187872071Y-95789976D01*
X187919690Y-95885214D01*
X187919690Y-96266166D01*
X187395880Y-95409023D02*
X188395880Y-95075690D01*
X187395880Y-94742357D01*
X187491119Y-94456642D02*
X187443500Y-94409023D01*
X187395880Y-94313785D01*
X187395880Y-94075690D01*
X187443500Y-93980452D01*
X187491119Y-93932833D01*
X187586357Y-93885214D01*
X187681595Y-93885214D01*
X187824452Y-93932833D01*
X188395880Y-94504261D01*
X188395880Y-93885214D01*
G04 #@! TO.C,REF\002A\002A*
X203709523Y-94422380D02*
X203709523Y-93422380D01*
X204042857Y-94136666D01*
X204376190Y-93422380D01*
X204376190Y-94422380D01*
X204995238Y-94422380D02*
X204900000Y-94374761D01*
X204852380Y-94327142D01*
X204804761Y-94231904D01*
X204804761Y-93946190D01*
X204852380Y-93850952D01*
X204900000Y-93803333D01*
X204995238Y-93755714D01*
X205138095Y-93755714D01*
X205233333Y-93803333D01*
X205280952Y-93850952D01*
X205328571Y-93946190D01*
X205328571Y-94231904D01*
X205280952Y-94327142D01*
X205233333Y-94374761D01*
X205138095Y-94422380D01*
X204995238Y-94422380D01*
X206185714Y-93755714D02*
X206185714Y-94422380D01*
X205757142Y-93755714D02*
X205757142Y-94279523D01*
X205804761Y-94374761D01*
X205900000Y-94422380D01*
X206042857Y-94422380D01*
X206138095Y-94374761D01*
X206185714Y-94327142D01*
X206661904Y-93755714D02*
X206661904Y-94422380D01*
X206661904Y-93850952D02*
X206709523Y-93803333D01*
X206804761Y-93755714D01*
X206947619Y-93755714D01*
X207042857Y-93803333D01*
X207090476Y-93898571D01*
X207090476Y-94422380D01*
X207423809Y-93755714D02*
X207804761Y-93755714D01*
X207566666Y-93422380D02*
X207566666Y-94279523D01*
X207614285Y-94374761D01*
X207709523Y-94422380D01*
X207804761Y-94422380D01*
X208138095Y-94422380D02*
X208138095Y-93755714D01*
X208138095Y-93422380D02*
X208090476Y-93470000D01*
X208138095Y-93517619D01*
X208185714Y-93470000D01*
X208138095Y-93422380D01*
X208138095Y-93517619D01*
X208614285Y-93755714D02*
X208614285Y-94422380D01*
X208614285Y-93850952D02*
X208661904Y-93803333D01*
X208757142Y-93755714D01*
X208900000Y-93755714D01*
X208995238Y-93803333D01*
X209042857Y-93898571D01*
X209042857Y-94422380D01*
X209947619Y-93755714D02*
X209947619Y-94565238D01*
X209900000Y-94660476D01*
X209852380Y-94708095D01*
X209757142Y-94755714D01*
X209614285Y-94755714D01*
X209519047Y-94708095D01*
X209947619Y-94374761D02*
X209852380Y-94422380D01*
X209661904Y-94422380D01*
X209566666Y-94374761D01*
X209519047Y-94327142D01*
X209471428Y-94231904D01*
X209471428Y-93946190D01*
X209519047Y-93850952D01*
X209566666Y-93803333D01*
X209661904Y-93755714D01*
X209852380Y-93755714D01*
X209947619Y-93803333D01*
X210423809Y-94422380D02*
X210423809Y-93422380D01*
X210423809Y-93898571D02*
X210995238Y-93898571D01*
X210995238Y-94422380D02*
X210995238Y-93422380D01*
X211614285Y-94422380D02*
X211519047Y-94374761D01*
X211471428Y-94327142D01*
X211423809Y-94231904D01*
X211423809Y-93946190D01*
X211471428Y-93850952D01*
X211519047Y-93803333D01*
X211614285Y-93755714D01*
X211757142Y-93755714D01*
X211852380Y-93803333D01*
X211900000Y-93850952D01*
X211947619Y-93946190D01*
X211947619Y-94231904D01*
X211900000Y-94327142D01*
X211852380Y-94374761D01*
X211757142Y-94422380D01*
X211614285Y-94422380D01*
X212519047Y-94422380D02*
X212423809Y-94374761D01*
X212376190Y-94279523D01*
X212376190Y-93422380D01*
X213280952Y-94374761D02*
X213185714Y-94422380D01*
X212995238Y-94422380D01*
X212900000Y-94374761D01*
X212852380Y-94279523D01*
X212852380Y-93898571D01*
X212900000Y-93803333D01*
X212995238Y-93755714D01*
X213185714Y-93755714D01*
X213280952Y-93803333D01*
X213328571Y-93898571D01*
X213328571Y-93993809D01*
X212852380Y-94089047D01*
X213519047Y-94517619D02*
X214280952Y-94517619D01*
X214423809Y-93422380D02*
X215042857Y-93422380D01*
X214709523Y-93803333D01*
X214852380Y-93803333D01*
X214947619Y-93850952D01*
X214995238Y-93898571D01*
X215042857Y-93993809D01*
X215042857Y-94231904D01*
X214995238Y-94327142D01*
X214947619Y-94374761D01*
X214852380Y-94422380D01*
X214566666Y-94422380D01*
X214471428Y-94374761D01*
X214423809Y-94327142D01*
X215471428Y-94327142D02*
X215519047Y-94374761D01*
X215471428Y-94422380D01*
X215423809Y-94374761D01*
X215471428Y-94327142D01*
X215471428Y-94422380D01*
X215900000Y-93517619D02*
X215947619Y-93470000D01*
X216042857Y-93422380D01*
X216280952Y-93422380D01*
X216376190Y-93470000D01*
X216423809Y-93517619D01*
X216471428Y-93612857D01*
X216471428Y-93708095D01*
X216423809Y-93850952D01*
X215852380Y-94422380D01*
X216471428Y-94422380D01*
X216900000Y-94422380D02*
X216900000Y-93755714D01*
X216900000Y-93850952D02*
X216947619Y-93803333D01*
X217042857Y-93755714D01*
X217185714Y-93755714D01*
X217280952Y-93803333D01*
X217328571Y-93898571D01*
X217328571Y-94422380D01*
X217328571Y-93898571D02*
X217376190Y-93803333D01*
X217471428Y-93755714D01*
X217614285Y-93755714D01*
X217709523Y-93803333D01*
X217757142Y-93898571D01*
X217757142Y-94422380D01*
X218233333Y-94422380D02*
X218233333Y-93755714D01*
X218233333Y-93850952D02*
X218280952Y-93803333D01*
X218376190Y-93755714D01*
X218519047Y-93755714D01*
X218614285Y-93803333D01*
X218661904Y-93898571D01*
X218661904Y-94422380D01*
X218661904Y-93898571D02*
X218709523Y-93803333D01*
X218804761Y-93755714D01*
X218947619Y-93755714D01*
X219042857Y-93803333D01*
X219090476Y-93898571D01*
X219090476Y-94422380D01*
X219328571Y-94517619D02*
X220090476Y-94517619D01*
X220328571Y-94422380D02*
X220328571Y-93422380D01*
X220661904Y-94136666D01*
X220995238Y-93422380D01*
X220995238Y-94422380D01*
X221376190Y-93422380D02*
X221995238Y-93422380D01*
X221661904Y-93803333D01*
X221804761Y-93803333D01*
X221900000Y-93850952D01*
X221947619Y-93898571D01*
X221995238Y-93993809D01*
X221995238Y-94231904D01*
X221947619Y-94327142D01*
X221900000Y-94374761D01*
X221804761Y-94422380D01*
X221519047Y-94422380D01*
X221423809Y-94374761D01*
X221376190Y-94327142D01*
X222185714Y-94517619D02*
X222947619Y-94517619D01*
X223185714Y-94422380D02*
X223185714Y-93422380D01*
X223423809Y-93422380D01*
X223566666Y-93470000D01*
X223661904Y-93565238D01*
X223709523Y-93660476D01*
X223757142Y-93850952D01*
X223757142Y-93993809D01*
X223709523Y-94184285D01*
X223661904Y-94279523D01*
X223566666Y-94374761D01*
X223423809Y-94422380D01*
X223185714Y-94422380D01*
X224185714Y-94422380D02*
X224185714Y-93422380D01*
X224661904Y-94422380D02*
X224661904Y-93422380D01*
X225233333Y-94422380D01*
X225233333Y-93422380D01*
X225757142Y-94422380D02*
X225947619Y-94422380D01*
X226042857Y-94374761D01*
X226090476Y-94327142D01*
X226185714Y-94184285D01*
X226233333Y-93993809D01*
X226233333Y-93612857D01*
X226185714Y-93517619D01*
X226138095Y-93470000D01*
X226042857Y-93422380D01*
X225852380Y-93422380D01*
X225757142Y-93470000D01*
X225709523Y-93517619D01*
X225661904Y-93612857D01*
X225661904Y-93850952D01*
X225709523Y-93946190D01*
X225757142Y-93993809D01*
X225852380Y-94041428D01*
X226042857Y-94041428D01*
X226138095Y-93993809D01*
X226185714Y-93946190D01*
X226233333Y-93850952D01*
X227090476Y-93422380D02*
X226900000Y-93422380D01*
X226804761Y-93470000D01*
X226757142Y-93517619D01*
X226661904Y-93660476D01*
X226614285Y-93850952D01*
X226614285Y-94231904D01*
X226661904Y-94327142D01*
X226709523Y-94374761D01*
X226804761Y-94422380D01*
X226995238Y-94422380D01*
X227090476Y-94374761D01*
X227138095Y-94327142D01*
X227185714Y-94231904D01*
X227185714Y-93993809D01*
X227138095Y-93898571D01*
X227090476Y-93850952D01*
X226995238Y-93803333D01*
X226804761Y-93803333D01*
X226709523Y-93850952D01*
X226661904Y-93898571D01*
X226614285Y-93993809D01*
X228090476Y-93422380D02*
X227614285Y-93422380D01*
X227566666Y-93898571D01*
X227614285Y-93850952D01*
X227709523Y-93803333D01*
X227947619Y-93803333D01*
X228042857Y-93850952D01*
X228090476Y-93898571D01*
X228138095Y-93993809D01*
X228138095Y-94231904D01*
X228090476Y-94327142D01*
X228042857Y-94374761D01*
X227947619Y-94422380D01*
X227709523Y-94422380D01*
X227614285Y-94374761D01*
X227566666Y-94327142D01*
X214866666Y-90622380D02*
X214533333Y-90146190D01*
X214295238Y-90622380D02*
X214295238Y-89622380D01*
X214676190Y-89622380D01*
X214771428Y-89670000D01*
X214819047Y-89717619D01*
X214866666Y-89812857D01*
X214866666Y-89955714D01*
X214819047Y-90050952D01*
X214771428Y-90098571D01*
X214676190Y-90146190D01*
X214295238Y-90146190D01*
X215295238Y-90098571D02*
X215628571Y-90098571D01*
X215771428Y-90622380D02*
X215295238Y-90622380D01*
X215295238Y-89622380D01*
X215771428Y-89622380D01*
X216533333Y-90098571D02*
X216200000Y-90098571D01*
X216200000Y-90622380D02*
X216200000Y-89622380D01*
X216676190Y-89622380D01*
X217200000Y-89622380D02*
X217200000Y-89860476D01*
X216961904Y-89765238D02*
X217200000Y-89860476D01*
X217438095Y-89765238D01*
X217057142Y-90050952D02*
X217200000Y-89860476D01*
X217342857Y-90050952D01*
X217961904Y-89622380D02*
X217961904Y-89860476D01*
X217723809Y-89765238D02*
X217961904Y-89860476D01*
X218200000Y-89765238D01*
X217819047Y-90050952D02*
X217961904Y-89860476D01*
X218104761Y-90050952D01*
G04 #@! TD*
M02*
