M48
;DRILL file {KiCad 5.0.2-bee76a0~70~ubuntu18.04.1} date Wed 24 Apr 2019 08:54:08 -03
;FORMAT={-:-/ absolute / metric / decimal}
FMAT,2
METRIC,TZ
T1C0.400
T2C0.800
T3C0.890
T4C1.300
T5C1.320
T6C2.010
%
G90
G05
T1
X189.992Y-83.82
T2
X194.31Y-83.82
X204.47Y-83.82
X194.31Y-71.755
X204.47Y-71.755
X194.31Y-78.74
X204.47Y-78.74
X222.885Y-85.217
X222.885Y-95.377
T3
X173.99Y-91.757
X173.99Y-94.297
T4
X182.944Y-97.599
X187.944Y-92.599
X192.944Y-97.599
T5
X167.894Y-72.453
X167.894Y-77.453
X217.805Y-73.105
X217.805Y-78.105
T6
X168.91Y-86.677
X168.91Y-96.837
T0
M30
