**ABCDEFGHIJKLMNOPQRSTUVWXYZabcdefghijklmnopqrstuvwxyz**************************
**PARASOLID !"#$%&'()*+,-./:;<=>?@[\]^_`{|}~0123456789**************************
**PART1;
MC=AMD64;
MC_MODEL=Intel64 Family 6 Model 158 Stepping 9, GenuineIntel;
MC_ID=unknown;
OS=Windows_NT;
OS_RELEASE=unknown;
FRU=Parasolid Version 31.0, build 256, 11-19-2018;
APPL=SOLIDWORKS 2019-2018359;
SITE=;
USER=unknown;
FORMAT=text;
GUISE=transmit;
KEY=light guide holder;
FILE=light guide holder.x_t;
DATE=Wed Oct  2 10:23:00 2019;
**PART2;
SCH=SCH_3100256_31001;
USFLD_SIZE=0;
**PART3;
**END_OF_HEADER*****************************************************************
T51 : TRANSMIT FILE created by modeller version 310025623 SCH_3100256_31001_1300
6215 0 12 34 CCCCCCI4 mesh1006 0 I8 polyline1008 0 CCCCCCCDI5 owner1040 0 CCCCCC
I13 boundary_mesh1006 0 I17 boundary_polyline1008 0 CCCA16 index_map_offset0 0 1
 dA9 index_map82 0 A17 node_id_index_map82 0 A20 schema_embedding_map82 0 A5 chi
ld12 0 A14 lowest_node_id0 0 1 dA16 mesh_offset_data206 0 Z1 876 2 3 0 0 0 0 0 0
 1e3 1e-8 0 4 0 1 0 1 1 5 6 7 8 0 0 9 10 11 0 0 0 0 0 0 0 81 255 2 2 854 12 1 13
 0 0 0 0 14 70 11 CI9 list_type0 0 1 uI10 notransmit0 0 1 lCCCDCCDI12 finger_ind
ex0 0 1 dI12 finger_block1012 0 CZ3 0 4 T1 0 0 9 20 1 15 15 13 255 5 99 0 1 0 16
 0 0 17 0 50 255 6 94 0 16 18 0 0 +0 0 .00254 1 1224646799147352e-31 0 -12246467
99147352e-31 1 0 30 255 7 98 0 10 19 0 0 +214631598018565e-32 -.017526 .00254 0
 0 -1 29 255 8 75 0 20 21 0 0 0 0 19 8 CCCCCCCA5 owner12 0 Z9 33 0 1 17 0 22 V0
 16 255 10 82 0 ?23 0 24 7 0 0 1 18 255 11 30 0 25 0 26 27 ?1 17 255 25 0 28 29
 30 11 31 32 0 33 +18 26 27 0 30 11 34 35 ?1 29 27 32 0 11 35 36 0 0 .00254 29 3
5 29 0 26 37 27 .039624 0 .00254 29 36 78 0 38 27 39 214631598018565e-32 -.01752
6 0 18 38 69 0 40 41 0 36 ?1 29 39 77 0 41 36 21 .039624 -.017526 0 18 41 68 0 4
2 43 38 39 ?1 29 21 76 0 43 39 8 .039624 0 0 18 43 67 0 44 20 41 21 ?1 17 44 0 4
5 46 47 43 48 49 0 50 +18 20 66 0 51 52 43 8 ?1 17 51 0 53 33 50 20 54 55 0 56 +
18 52 21 0 57 34 20 58 ?1 17 57 0 59 23 60 52 61 62 0 29 -18 34 24 0 61 26 52 37
 ?1 29 58 23 0 52 0 37 214631598018565e-32 -.017526 .00254 29 37 26 0 34 58 35 .
039624 -.017526 .00254 17 61 0 28 30 29 34 57 62 0 60 +15 255 28 4 0 29 63 0 17
 30 0 28 25 61 26 64 65 0 46 +17 29 0 28 61 25 52 66 67 0 68 +16 62 9 0 ?61 65 6
7 69 0 0 1 17 60 0 59 57 42 34 47 24 0 64 -15 59 87 0 42 70 0 17 42 0 59 60 23 4
1 40 71 0 47 +17 47 0 45 44 64 41 60 24 0 48 +16 24 81 0 ?47 10 72 19 0 0 1 17 6
4 0 45 47 46 34 30 65 0 0 -15 45 85 0 44 73 0 17 46 0 45 64 44 26 50 72 0 31 -16
 65 13 0 ?30 32 62 74 0 0 1 16 32 17 0 ?25 75 65 76 0 0 1 30 74 15 0 65 69 76 0
 +.039624 0 .00254 0 1 0 30 69 11 0 62 77 74 0 +214631598018565e-32 -.017526 .00
254 1 0 0 30 76 19 0 32 74 78 0 +0 0 .00254 -1 0 0 30 78 74 0 79 76 80 0 +0 0 0
 1224646799147354e-31 -1 0 16 79 62 0 ?81 71 82 78 0 0 1 30 80 73 0 71 78 83 0 +
214631598018565e-32 -.017526 0 1 0 0 16 71 58 0 ?42 49 79 80 0 0 1 30 83 72 0 49
 80 84 0 +.039624 0 0 0 1 0 16 49 54 0 ?44 55 71 83 0 0 1 30 84 71 0 55 83 85 0
 +0 0 0 -1 0 0 16 55 50 0 ?51 67 49 84 0 0 1 30 85 95 0 75 84 86 0 +0 0 .00254 0
 0 -1 16 75 79 0 ?56 72 32 85 0 0 1 30 86 96 0 72 85 19 0 +.039624 0 .00254 0 0
 -1 16 72 80 0 ?50 24 75 86 0 0 1 30 19 97 0 24 86 7 0 +.039624 -.017526 .00254
 0 0 -1 17 50 0 53 51 31 43 46 72 0 54 +15 53 83 0 51 87 0 17 31 0 53 50 33 26 2
5 32 0 0 -17 54 0 88 48 89 43 51 55 0 0 -15 88 49 0 89 90 0 17 48 0 88 40 54 41
 44 49 0 0 -17 89 0 88 54 40 20 81 79 0 0 -17 40 0 88 89 48 38 42 71 0 23 -17 81
 0 91 68 56 38 89 79 0 0 +15 91 89 0 81 16 0 17 68 0 91 66 81 52 23 10 0 0 -17 5
6 0 91 81 66 20 33 75 0 89 +17 66 0 91 56 68 11 29 67 0 0 -17 33 0 53 31 51 11 5
6 75 0 66 -16 67 5 0 ?29 62 55 77 0 0 1 30 77 7 0 67 92 69 0 +0 0 .00254 1224646
799147354e-31 -1 0 31 255 92 281 0 93 94 77 0 +.0030226 -.014478 .00254 0 0 1 1
 0 0 .00151789784471177 16 93 247 0 ?95 96 97 92 0 0 1 31 94 282 0 96 98 92 0 +.
0030226 -.014478 0 0 0 1 1 0 0 .00151789784471177 16 96 244 0 ?99 100 93 94 0 0
 1 31 98 283 0 100 101 94 0 +.018288 -.003048 .00254 0 0 1 1 0 0 .00151789784471
177 16 100 229 0 ?102 103 96 98 0 0 1 31 101 284 0 103 104 98 0 +.018288 -.00304
8 0 0 0 1 1 0 0 .00151789784471177 16 103 226 0 ?105 106 100 101 0 0 1 31 104 28
5 0 106 107 101 0 +.0215646 -.014478 .00254 0 0 1 1 0 0 .00151789784471177 16 10
6 211 0 ?108 109 103 104 0 0 1 31 107 286 0 109 110 104 0 +.0215646 -.014478 0 0
 0 1 1 0 0 .00151789784471177 16 109 208 0 ?111 112 106 107 0 0 1 31 110 287 0 1
12 113 107 0 +.03683 -.003048 .00254 0 0 1 1 0 0 .00151789784471177 16 112 193 0
 ?114 82 109 110 0 0 1 31 113 288 0 82 115 110 0 +.03683 -.003048 0 0 0 1 1 0 0
 .00151789784471177 16 82 190 0 ?116 79 112 113 0 0 1 31 115 345 0 117 118 113 0
 +.0291973 -.008763 .00254 0 0 1 1 0 0 .00635 16 117 321 0 ?119 97 120 115 0 0 1
 31 118 346 0 97 121 115 0 +.0291973 -.008763 .01778 0 0 1 1 0 0 .00635 16 97 32
4 0 ?122 93 117 118 0 0 1 31 121 393 0 123 124 118 0 +.0291973 -.008763 .01778 0
 0 1 1 0 0 .0035052 16 123 374 0 ?125 120 126 121 0 0 1 31 124 394 0 120 127 121
 0 +.0291973 -.008763 0 0 0 1 1 0 0 .0035052 16 120 371 0 ?128 117 123 124 0 0 1
 38 12 CCCCCCCCCCCA17 intersection_data204 0 Z127 436 0 126 129 124 0 +130 131 1
32 133 133 134 16 126 419 0 ?135 123 136 127 0 0 1 38 129 437 0 136 137 127 0 +1
30 138 139 140 140 141 51 255 130 434 0 142 138 131 143 +-1000000000001e-18 -.00
8763 .01143 1 0 0 .0011303 0 0 -1 51 131 433 0 1 130 144 145 -.0291973 -.008763
 .01778 0 0 -1 .00635 -1 0 0 40 255 20 132 0 1 20 651037447473432e-19 .342330055
245828 ??.0355473 -.008763 .0102997 .0355364634882468 -.00839218162224823 .01036
22585421922 .0355086236413572 -.00806321868126831 .01054237158903392 .0354753117
9351045 -.00780954946612651 .010822949615389 .0354511026426322 -.007661885788391
26 .011174802854653 .03544709281944545 -.00763934982578721 .0115524270231263 .03
546445056902045 -.00774058924828283 .0119119277381238 .03549559416365685 -.00795
430312969169 .01221967554220296 .0355274783668392 -.00826165995172818 .012443033
19096602 .03554584147192225 -.00862690746058857 .0125520770520408 .0355427628172
9795 -.0090030034047453 .0125345254436683 .03552014214538735 -.00934965765529297
 .01239613191929784 .03548724207247165 -.00963427993489516 .012150034280468 .035
4580278849832 -.00982403079606284 .01181960459418012 .0354459135308698 -.0098931
897813337 .01144578442805072 .03545595100358865 -.00983621368574903 .01107533047
11129 .03548332879131525 -.00966207843637583 .01074499193052636 .035516675170907
65 -.00938589441265453 .01048682417297528 .03554140430771195 -.00903656997801409
 .01033330607864848 .0355473 -.008763 .0102997 41 3 CI8 term_use0 0 1 cCZ1 133 H
?.0355473 -.008763 .0102997 204 2 17 INTERSECTION_DATA17 Intersection data7 uv_t
ype0 0 1 u6 values0 1 1 fT80 134 4 6.28318530717958 .0355483 3.141592653589795 .
0074803 .3342605734322215 .03553746348824685 3.08316281732061 .00741774145780781
 .667610326041203 .0355096236413572 3.031166586867005 .00723762841096606 1.00383
6368798582 .03547631179351045 2.990872975721785 .00695705038461099 1.34305449607
3452 .0354521026426322 2.967307857501175 .00660519714534699 1.679322982309455 .0
3544809281944545 2.96370314423773 .0062275729768737 2.011273929179865 .035465450
56902045 2.979879172487705 .00586807226187619 2.344294616234995 .035496594163656
85 3.01389201997944 .00556032445779703 2.68204135311744 .0355284783668392 3.0625
5921301605 .00533696680903397 3.020895911292505 .03554684147192225 3.12015911657
517 .00522792294795921 3.355557528275345 .03554376281729795 3.17939746985049 .00
52454745563317 3.68730636382333 .03552114214538735 3.234111619449895 .0053838680
8070215 4.02175065884478 .03548824207247165 3.279236308257715 .00562996571953199
 4.360479051805905 .0354590278849832 3.309471571585285 .00596039540581988 4.6984
2371352479 .0354469135308698 3.3205286334023 .00633421557194928 5.031564190945 .
03545695100358865 3.31141781603543 .00670466952888709 5.36346283584921 .03548432
879131525 3.283657192578575 .00703500806947363 5.69951814757267 .035517675170907
65 3.239844262263565 .00729317582702472 6.0387246333294 .03554240430771195 3.184
687878049365 .00744669392135152 6.28318530717958 .0355483 3.141592653589795 .007
4803 51 144 390 0 146 131 147 0 +.0291973 -.008763 0 0 0 1 .0035052 1 0 0 141 25
5 145 127 145 145 131 14 255 146 377 148 ?142 149 150 5 144 -0 0 142 149 22 50 1
47 344 0 149 144 151 0 +0 0 .01778 0 0 1 1 0 0 14 149 332 152 ?146 153 154 5 147
 +0 0 146 153 22 51 151 342 0 153 147 155 0 -.0291973 -.008763 .01778 0 0 -1 .00
635 -1 0 0 14 153 327 156 ?149 157 158 5 151 -0 0 149 157 22 51 155 278 0 157 15
1 159 0 +.03683 -.003048 0 0 0 1 .00151789784471177 1 0 0 14 157 196 160 ?153 16
1 162 5 155 -0 0 153 161 22 51 159 275 0 161 155 163 0 +.0215646 -.014478 0 0 0
 1 .00151789784471177 1 0 0 14 161 214 164 ?157 165 166 5 159 -0 0 157 165 22 51
 163 272 0 165 159 167 0 +.018288 -.003048 0 0 0 1 .00151789784471177 1 0 0 14 1
65 232 168 ?161 169 170 5 163 -0 0 161 169 22 51 167 269 0 169 163 171 0 +.00302
26 -.014478 0 0 0 1 .00151789784471177 1 0 0 14 169 250 172 ?165 90 173 5 167 -0
 0 165 90 22 50 171 3 0 63 167 174 0 +0 0 .00254 0 0 1 1 0 0 14 63 1 175 ?90 87
 176 5 171 +0 0 90 87 22 50 174 70 0 90 171 177 0 +0 0 0 0 0 1 1 0 0 14 90 48 17
8 ?169 63 179 5 174 -0 0 169 63 22 50 177 91 0 87 174 180 0 +0 0 .00254 0 -1 0 0
 0 -1 14 87 84 181 ?63 73 53 5 177 -0 0 63 73 22 50 180 92 0 73 177 18 0 +.03962
4 0 .00254 -1 0 0 0 0 1 14 73 86 182 ?87 70 45 5 180 -0 0 87 70 22 50 18 93 0 70
 180 6 0 +214631598018565e-32 -.017526 .00254 0 1 0 0 0 1 14 70 88 183 ?73 16 59
 5 18 -0 0 73 16 22 81 1 183 866 184 70 185 0 182 186 187 14 16 90 186 ?70 0 91
 5 6 -0 0 70 0 22 13 22 34 0 0 0 0 0 0 9 16 81 1 186 867 184 16 188 0 183 189 19
0 80 255 1 184 191 192 9000 1 1 1 1 1 1 1 1 0 FFFFTFTFFFFFFF1 81 1 188 787 193 1
6 0 186 0 185 194 81 1 189 868 184 142 195 0 186 196 197 82 255 1 190 -505020304
 14 142 423 189 ?198 146 199 5 130 -0 0 198 146 22 81 1 195 800 193 142 0 189 20
0 201 202 81 1 196 869 184 198 201 0 189 203 204 82 1 197 1824784531 14 198 630
 196 ?205 142 206 5 207 -0 0 205 142 22 81 1 201 801 193 198 0 196 195 208 209 8
1 1 203 870 184 205 208 0 196 210 211 82 1 204 1873412246 14 205 635 203 ?212 19
8 213 5 214 +0 0 212 198 22 81 1 208 802 193 205 0 203 201 215 216 81 1 210 871
 184 212 215 0 203 217 218 82 1 211 1871446166 14 212 612 210 ?219 205 220 5 221
 -0 0 219 205 22 81 1 215 803 193 212 0 210 208 222 223 81 1 217 872 184 219 222
 0 210 224 225 82 1 218 1877409942 14 219 617 217 ?226 212 227 5 228 +0 0 226 21
2 22 81 1 222 804 193 219 0 217 215 229 230 81 1 224 873 184 226 229 0 217 231 2
32 82 1 225 1875443862 14 226 594 224 ?233 219 234 5 235 -0 0 233 219 22 81 1 22
9 805 193 226 0 224 222 236 237 81 1 231 874 184 233 236 0 224 238 239 82 1 232
 1881342102 14 233 599 231 ?240 226 241 5 242 +0 0 240 226 22 81 1 236 806 193 2
33 0 231 229 243 244 81 1 238 875 184 240 243 0 231 245 246 82 1 239 1879376022
 14 240 576 238 ?247 233 248 5 249 -0 0 247 233 22 81 1 243 807 193 240 0 238 23
6 250 251 81 1 245 876 184 247 250 0 238 0 252 82 1 246 1885274262 14 247 581 24
5 ?0 240 253 5 254 +0 0 0 240 22 81 1 250 808 193 247 0 245 243 0 255 82 1 252 1
883308182 80 1 193 0 256 8001 0 0 0 0 3 5 0 0 0 FFFFTFTFFFFFFF2 83 255 3 255 .79
2156862745098 .819607843137255 .933333333333333 79 255 15 256 SDL/TYSA_COLOUR15
 253 583 0 257 247 0 50 254 654 0 247 235 249 0 +.033274 -.014224 .00127 0 0 -1
 -1 0 0 51 235 655 0 226 242 254 0 +.023368 -.003556 .00127 0 0 -1 .00238125 -1
 0 0 51 249 652 0 240 254 214 0 +.033274 -.014224 .00127 0 0 -1 .00238125 -1 0 0
 50 214 651 0 205 249 207 0 +.015748 -.014224 .00127 0 0 -1 -1 0 0 51 207 649 0
 198 214 138 0 +.015748 -.014224 .00127 0 0 -1 .00238125 -1 0 0 51 138 435 0 1 2
07 130 258 +.0291973 -.008763 0 0 0 1 .0035052 1 0 0 141 258 129 258 258 138 50
 242 657 0 233 221 235 0 +.023368 -.003556 .00127 0 0 -1 -1 0 0 51 221 658 0 212
 228 242 0 +.005715 -.003556 .00127 0 0 -1 .00238125 -1 0 0 50 228 660 0 219 0 2
21 0 +.005715 -.003556 .00127 0 0 -1 -1 0 0 17 257 0 253 257 257 0 259 260 0 0 +
17 259 0 248 259 259 0 257 260 0 0 -16 260 570 0 ?257 261 262 263 0 0 1 16 261 5
91 0 ?264 265 260 266 0 0 1 16 262 573 0 ?267 260 0 268 0 0 1 31 263 664 0 260 2
66 268 0 +.033274 -.014224 .00127 0 0 -1 -1 0 0 .00238125 31 266 665 0 261 269 2
63 0 +.023368 -.003556 0 0 0 -1 -1 0 0 .00238125 31 268 663 0 262 263 270 0 +.03
3274 -.014224 0 0 0 -1 -1 0 0 .00238125 31 270 662 0 271 268 137 0 +.015748 -.01
4224 .00127 0 0 -1 -1 0 0 .00238125 16 271 624 0 ?272 136 273 270 0 0 1 31 137 6
61 0 273 270 129 0 +.015748 -.014224 0 0 0 -1 -1 0 0 .00238125 16 273 627 0 ?274
 271 275 137 0 0 1 17 274 0 276 274 274 0 277 273 0 0 +16 275 606 0 ?278 273 279
 280 0 0 1 17 278 0 227 278 278 0 281 275 0 0 +16 279 609 0 ?282 275 265 283 0 0
 1 31 280 668 0 275 0 283 0 +.005715 -.003556 .00127 0 0 -1 -1 0 0 .00238125 31
 283 667 0 279 280 269 0 +.005715 -.003556 0 0 0 -1 -1 0 0 .00238125 31 269 666
 0 265 283 266 0 +.023368 -.003556 .00127 0 0 -1 -1 0 0 .00238125 16 265 588 0 ?
284 279 261 269 0 0 1 17 284 0 241 284 284 0 285 265 0 0 +15 241 601 0 284 233 0
 17 285 0 234 285 285 0 284 265 0 0 -15 234 597 0 285 226 286 15 286 598 0 264 2
26 0 17 264 0 286 264 264 0 287 261 0 0 +17 287 0 288 287 287 0 264 261 0 0 -15
 288 556 0 287 90 289 15 289 549 0 290 90 291 17 290 0 289 290 290 0 282 279 0 0
 -15 291 542 0 277 90 292 17 277 0 291 277 277 0 274 273 0 0 -15 292 365 0 128 9
0 293 17 128 0 292 128 128 0 294 120 0 0 +15 293 160 0 116 90 295 17 116 0 293 1
16 116 0 296 82 0 0 +15 295 154 0 111 90 297 17 111 0 295 111 111 0 298 109 0 0
 +15 297 148 0 105 90 299 17 105 0 297 105 105 0 300 103 0 0 +15 299 142 0 99 90
 88 17 99 0 299 99 99 0 301 96 0 0 +17 301 0 173 301 301 0 99 96 0 0 -15 173 253
 0 301 169 302 15 302 254 0 95 169 0 17 95 0 302 95 95 0 303 93 0 0 +17 303 0 30
4 303 303 0 95 93 0 0 -15 304 167 0 303 63 28 17 300 0 170 300 300 0 105 103 0 0
 -15 170 235 0 300 165 305 15 305 236 0 102 165 0 17 102 0 305 102 102 0 306 100
 0 0 +17 306 0 307 306 306 0 102 100 0 0 -15 307 173 0 306 63 304 17 298 0 166 2
98 298 0 111 109 0 0 -15 166 217 0 298 161 308 15 308 218 0 108 161 0 17 108 0 3
08 108 108 0 309 106 0 0 +17 309 0 310 309 309 0 108 106 0 0 -15 310 179 0 309 6
3 307 17 296 0 162 296 296 0 116 82 0 0 -15 162 199 0 296 157 311 15 311 200 0 1
14 157 0 17 114 0 311 114 114 0 312 112 0 0 +17 312 0 313 312 312 0 114 112 0 0
 -15 313 185 0 312 63 310 17 294 0 314 294 294 0 128 120 0 0 -15 314 380 0 294 1
46 315 15 315 381 0 125 146 0 17 125 0 315 125 125 0 316 123 0 0 +17 316 0 154 3
16 316 0 125 123 0 0 -15 154 360 0 316 149 317 15 317 335 0 122 149 0 17 122 0 3
17 122 122 0 318 97 0 0 +17 318 0 319 318 318 0 122 97 0 0 -15 319 330 0 318 153
 320 15 320 331 0 119 153 0 17 119 0 320 119 119 0 321 117 0 0 +17 321 0 176 321
 321 0 119 117 0 0 -15 176 315 0 321 63 313 17 282 0 322 282 282 0 290 279 0 0 +
15 322 616 0 282 212 0 15 227 619 0 278 219 0 17 281 0 220 281 281 0 278 275 0 0
 -15 220 615 0 281 212 322 15 276 634 0 274 198 0 17 272 0 213 272 272 0 323 271
 0 0 +16 136 418 0 ?324 126 271 129 0 0 1 17 324 0 199 324 324 0 325 136 0 0 +15
 199 426 0 324 142 326 17 325 0 150 325 325 0 324 136 0 0 -15 150 406 0 325 146
 314 15 326 427 0 135 142 0 17 135 0 326 135 135 0 327 126 0 0 +17 327 0 158 327
 327 0 135 126 0 0 -15 158 412 0 327 153 319 15 213 637 0 272 205 0 17 323 0 206
 323 323 0 272 271 0 0 -15 206 633 0 323 198 276 17 267 0 328 267 267 0 329 262
 0 0 +15 328 580 0 267 240 0 17 329 0 179 329 329 0 267 262 0 0 -15 179 563 0 32
9 90 288 15 248 579 0 259 240 328 83 3 251 .792156862745098 .819607843137255 .93
3333333333333 83 3 244 .792156862745098 .819607843137255 .933333333333333 83 3 2
37 .792156862745098 .819607843137255 .933333333333333 83 3 230 .792156862745098
 .819607843137255 .933333333333333 83 3 223 .792156862745098 .819607843137255 .9
33333333333333 83 3 216 .792156862745098 .819607843137255 .933333333333333 83 3
 209 .792156862745098 .819607843137255 .933333333333333 81 1 200 799 193 146 0 1
48 330 195 331 83 3 202 .792156862745098 .819607843137255 .933333333333333 81 1
 148 855 184 146 200 0 0 152 332 81 1 330 798 193 149 0 152 333 200 334 83 3 331
 .792156862745098 .819607843137255 .933333333333333 81 1 152 856 184 149 330 0 1
48 156 335 81 1 333 797 193 153 0 156 336 330 337 83 3 334 .792156862745098 .819
607843137255 .933333333333333 81 1 156 857 184 153 333 0 152 160 338 81 1 336 79
6 193 157 0 160 339 333 340 83 3 337 .792156862745098 .819607843137255 .93333333
3333333 81 1 160 858 184 157 336 0 156 164 341 81 1 339 795 193 161 0 164 342 33
6 343 83 3 340 .792156862745098 .819607843137255 .933333333333333 81 1 164 859 1
84 161 339 0 160 168 344 81 1 342 794 193 165 0 168 345 339 346 83 3 343 .792156
862745098 .819607843137255 .933333333333333 81 1 168 860 184 165 342 0 164 172 3
47 81 1 345 793 193 169 0 172 348 342 349 83 3 346 .792156862745098 .81960784313
7255 .933333333333333 81 1 172 861 184 169 345 0 168 175 350 81 1 348 792 193 90
 0 178 351 345 352 83 3 349 .792156862745098 .819607843137255 .933333333333333 8
1 1 178 863 184 90 348 0 175 181 353 81 1 351 791 193 63 0 175 354 348 355 83 3
 352 .792156862745098 .819607843137255 .933333333333333 81 1 175 862 184 63 351
 0 172 178 356 81 1 354 790 193 87 0 181 357 351 358 83 3 355 .792156862745098 .
819607843137255 .933333333333333 81 1 181 864 184 87 354 0 178 182 359 81 1 357
 789 193 73 0 182 185 354 360 83 3 358 .792156862745098 .819607843137255 .933333
333333333 81 1 182 865 184 73 357 0 181 183 361 81 1 185 788 193 70 0 183 188 35
7 362 83 3 360 .792156862745098 .819607843137255 .933333333333333 83 3 362 .7921
56862745098 .819607843137255 .933333333333333 82 1 361 -505544592 82 1 359 -5058
06736 82 1 356 37290113 82 1 353 -2139553642 82 1 350 1035862141 82 1 347 103192
9981 82 1 344 1027997821 82 1 341 1024000125 82 1 338 -1588526957 82 1 335 -1590
886264 82 1 332 1154744467 83 3 194 .792156862745098 .819607843137255 .933333333
333333 79 14 192 SWEntUnchanged82 1 187 -505282448 141 143 127 363 363 130 141 3
63 129 143 143 130 40 20 139 0 1 20 685494488881228e-19 .35487727274484 ??.03270
25 -.008763 .0102997 .03268359760985575 -.00912653268837091 .010359756067765 .03
26347416959304 -.00944887289425888 .01053158113169806 .03257361284576415 -.00970
477418075032 .01080498841412974 .03252632495446395 -.00986027840248331 .01115878
38547511 .03251690145527275 -.00988846577831176 .01153442639440818 .032546015649
43385 -.00979863050323799 .01188282176489544 .0326006126902393 -.009601981389815
1 .01218742215279454 .0326605347966308 -.00930376962137842 .01242254536752444 .0
326981058792425 -.00893845721946132 .0125465987883474 .03269700089234545 -.00856
673307941392 .0125431295458677 .03266120620486395 -.00822654791089521 .012424885
54421858 .0326036115533834 -.00793627837739254 .01220078495620588 .0325457572853
5165 -.00772653444428886 .01188090713215072 .0325161652824646 -.0076353651846226
4 .0115075745650897 .03252769259137685 -.00766987959158102 .01114248328275052 .0
325718074290529 -.0078147771088679 .0108148159310149 .03263231709668305 -.008065
08554571842 .01054090298363742 .03268413488960925 -.00840465729726485 .010358007
18407422 .0327025 -.008763 .0102997 41 1 140 H?.0327025 -.008763 .0102997 204 80
 141 4 0 .0327035 494899998852222e-30 .0102997 5.9557401789912 .0326845976098557
5 6.17928607976382 .010359756067765 5.63114919745603 .0326357416959304 6.0862416
6851314 .01053158113169806 5.29830253625323 .03257461284576415 6.01116380337942
 .01080498841412974 4.9547039281138 .03252732495446395 5.96478989733433 .0111587
838547511 4.61986883122254 .0325179014552728 5.95631079045934 .01153442639440818
 4.30019461369899 .03254701564943385 5.98325307272111 .01188282176489544 3.97803
5797715515 .0326016126902393 6.04148551202724 .01218742215279454 3.6404587882731
85 .0326615347966308 6.12829026848244 .01242254536752444 3.297453596960715 .0326
991058792425 6.2331081150071 .0125465987883474 2.967066569135425 .03269800089234
55 .0560223731458481 .0125431295458677 2.64707134966865 .03266220620486395 .1536
48483527091 .01242488554421858 2.321193806264455 .0326046115533834 .238099081361
6165 .01220078495620588 1.981142678576515 .03254675728535165 .3001816090757785 .
01188090713215072 1.63948215783751 .0325171652824646 .3275279920102865 .01150757
45650897 1.313597997083932 .03252869259137685 .3171466539306805 .011142483282750
52 .995282182081582 .0325728074290529 .273932000053296 .0108148159310149 .665508
860351164 .03263331709668305 .2004479296526805 .01054090298363742 .3225997482497
565 .0326851348896093 .10241066121462 .01035800718407422 0 .0327035 494899998852
222e-30 .0102997 17 23 0 59 42 57 38 68 10 0 81 +19 17 100 0 1 0 9 5 S0 74 4 CI1
6 index_map_offset0 0 1 dCCZ20 15 9 0 0 245 364 365 366 367 368 13 250 2 0 0 0 0
 0 0 0 0 0 0 0 81 2 364 347 369 1 0 365 0 0 0 370 81 2 365 351 371 1 364 366 0 0
 0 372 81 2 366 461 373 1 365 367 0 0 374 0 81 2 367 516 375 1 366 368 0 0 0 376
 81 2 368 531 377 1 367 13 0 0 0 0 81 1 13 698 378 1 368 2 0 0 379 80 1 378 380
 381 9000 1 1 1 1 1 1 1 1 0 FFTFFFFFFFFFFF1 82 1 379 229361 79 10 381 BODY_MATCH
80 2 377 382 383 9000 0 0 0 0 3 5 0 0 0 FFTFFFFFFFFFFF9 1 79 16 383 BODY_RECIPE_
200180 2 375 384 385 9000 0 0 0 0 3 5 0 0 0 FFTFFFFFFFFFFF9 1 82 1 376 1 79 24 3
85 BODY_IN_LIGHTWEIGHT_PERM80 2 373 386 387 8004 0 0 0 0 3 5 0 0 0 FFTFFFFFFFFFF
F2 3 83 1 374 1 79 16 387 SDL/TYSA_DENSITY80 2 371 388 389 9000 0 0 0 0 3 5 0 0
 0 FFTFFFFFFFFFFF9 1 82 1 372 181 79 30 389 LAST_BODY_MODIFYING_FEATURE_ID80 2 3
69 390 391 9000 0 0 0 0 3 5 0 0 0 FFTFFFFFFFFFFT9 1 82 1 370 121 79 19 391 ENT_T
IME_STAMP_200180 2 12 392 393 9000 0 0 0 0 3 5 0 0 0 FFTFFFFFFFFFFF9 1 82 1 14 1
06 79 12 393 ATOM_ID_20011 0 
