G04 #@! TF.FileFunction,Copper,L1,Top,Signal*
%FSLAX46Y46*%
G04 Gerber Fmt 4.6, Leading zero omitted, Abs format (unit mm)*
G04 Created by KiCad (PCBNEW 4.0.2-stable) date 30/01/2018 13:09:08*
%MOMM*%
G01*
G04 APERTURE LIST*
%ADD10C,0.100000*%
%ADD11C,2.400000*%
%ADD12O,2.400000X2.400000*%
%ADD13O,3.500120X7.000240*%
%ADD14O,1.600200X2.499360*%
%ADD15O,7.000240X3.500120*%
%ADD16O,2.499360X1.600200*%
%ADD17C,1.600000*%
%ADD18O,1.600000X1.600000*%
%ADD19R,1.450000X0.550000*%
%ADD20C,1.800000*%
%ADD21C,0.700000*%
%ADD22C,0.650000*%
%ADD23C,0.750000*%
%ADD24C,0.500000*%
G04 APERTURE END LIST*
D10*
D11*
X93000000Y-68000000D03*
D12*
X153960000Y-68000000D03*
D13*
X110902220Y-43236600D03*
X121100320Y-43236600D03*
D14*
X116000000Y-47501260D03*
X113500640Y-47501260D03*
D13*
X144902220Y-43236600D03*
X155100320Y-43236600D03*
D14*
X150000000Y-47501260D03*
X147500640Y-47501260D03*
D13*
X93902220Y-43236600D03*
X104100320Y-43236600D03*
D14*
X99000000Y-47501260D03*
X96500640Y-47501260D03*
D13*
X127902220Y-43236600D03*
X138100320Y-43236600D03*
D14*
X133000000Y-47501260D03*
X130500640Y-47501260D03*
D15*
X81236600Y-79097780D03*
X81236600Y-68899680D03*
D16*
X85501260Y-74000000D03*
X85501260Y-76499360D03*
D13*
X138097780Y-104763400D03*
X127899680Y-104763400D03*
D14*
X133000000Y-100498740D03*
X135499360Y-100498740D03*
D13*
X104097780Y-104763400D03*
X93899680Y-104763400D03*
D14*
X99000000Y-100498740D03*
X101499360Y-100498740D03*
D13*
X155097780Y-104763400D03*
X144899680Y-104763400D03*
D14*
X150000000Y-100498740D03*
X152499360Y-100498740D03*
D13*
X121097780Y-104763400D03*
X110899680Y-104763400D03*
D14*
X116000000Y-100498740D03*
X118499360Y-100498740D03*
D11*
X154000000Y-57000000D03*
D12*
X93040000Y-57000000D03*
D17*
X133750000Y-81250000D03*
D18*
X133750000Y-66010000D03*
D11*
X93000000Y-79000000D03*
D12*
X153960000Y-79000000D03*
D11*
X154000000Y-90000000D03*
D12*
X93040000Y-90000000D03*
D19*
X104250000Y-68730000D03*
X104250000Y-71270000D03*
X109750000Y-71270000D03*
X109750000Y-68730000D03*
X104250000Y-61230000D03*
X104250000Y-63770000D03*
X109750000Y-63770000D03*
X109750000Y-61230000D03*
X104250000Y-53730000D03*
X104250000Y-56270000D03*
X109750000Y-56270000D03*
X109750000Y-53730000D03*
X139250000Y-68730000D03*
X139250000Y-71270000D03*
X144750000Y-71270000D03*
X144750000Y-68730000D03*
X139250000Y-61230000D03*
X139250000Y-63770000D03*
X144750000Y-63770000D03*
X144750000Y-61230000D03*
X139250000Y-52730000D03*
X139250000Y-55270000D03*
X144750000Y-55270000D03*
X144750000Y-52730000D03*
X139250000Y-75730000D03*
X139250000Y-78270000D03*
X144750000Y-78270000D03*
X144750000Y-75730000D03*
X139250000Y-90730000D03*
X139250000Y-93270000D03*
X144750000Y-93270000D03*
X144750000Y-90730000D03*
X139250000Y-83230000D03*
X139250000Y-85770000D03*
X144750000Y-85770000D03*
X144750000Y-83230000D03*
X104250000Y-83230000D03*
X104250000Y-85770000D03*
X109750000Y-85770000D03*
X109750000Y-83230000D03*
X104250000Y-75730000D03*
X104250000Y-78270000D03*
X109750000Y-78270000D03*
X109750000Y-75730000D03*
X104250000Y-90730000D03*
X104250000Y-93270000D03*
X109750000Y-93270000D03*
X109750000Y-90730000D03*
D17*
X97750000Y-80250000D03*
D18*
X97750000Y-65010000D03*
D20*
X166000000Y-50000000D03*
X166000000Y-52500000D03*
X166000000Y-55000000D03*
X78000000Y-55000000D03*
X78000000Y-52500000D03*
X78000000Y-50000000D03*
X166000000Y-93000000D03*
X166000000Y-95500000D03*
X166000000Y-98000000D03*
X78000000Y-98000000D03*
X78000000Y-95500000D03*
X78000000Y-93000000D03*
D21*
X136000000Y-51000000D03*
X110000000Y-73500000D03*
X98500000Y-73500000D03*
D22*
X107750000Y-94250000D03*
X107500000Y-96750000D03*
D21*
X121097780Y-103263400D03*
D22*
X112000000Y-96750000D03*
X112000000Y-94500000D03*
X113500000Y-81250000D03*
D23*
X113500640Y-48001260D02*
X113500640Y-48249360D01*
X113500000Y-45250000D02*
X114500000Y-44250000D01*
X114500000Y-44250000D02*
X120586920Y-44250000D01*
X120586920Y-44250000D02*
X121100320Y-43736600D01*
X110902220Y-43736600D02*
X111986600Y-43736600D01*
X111986600Y-43736600D02*
X113500000Y-45250000D01*
X113500000Y-45250000D02*
X113500640Y-45250640D01*
X113500640Y-45250640D02*
X113500640Y-48001260D01*
D24*
X112750000Y-54500000D02*
X112750000Y-54750000D01*
X111230000Y-56270000D02*
X109750000Y-56270000D01*
X112750000Y-54750000D02*
X111230000Y-56270000D01*
X112750000Y-62250000D02*
X112750000Y-62500000D01*
X111480000Y-63770000D02*
X109750000Y-63770000D01*
X112750000Y-62500000D02*
X111480000Y-63770000D01*
X116000000Y-48001260D02*
X116000000Y-50500000D01*
X111480000Y-71270000D02*
X109750000Y-71270000D01*
X112750000Y-70000000D02*
X111480000Y-71270000D01*
X112750000Y-52000000D02*
X112750000Y-54500000D01*
X112750000Y-54500000D02*
X112750000Y-62250000D01*
X112750000Y-62250000D02*
X112750000Y-70000000D01*
X113250000Y-51500000D02*
X112750000Y-52000000D01*
X115000000Y-51500000D02*
X113250000Y-51500000D01*
X116000000Y-50500000D02*
X115000000Y-51500000D01*
D23*
X136000000Y-51000000D02*
X113500000Y-73500000D01*
X113500000Y-73500000D02*
X110000000Y-73500000D01*
X98500000Y-73500000D02*
X93000000Y-68000000D01*
X147500640Y-45000000D02*
X147500640Y-44749360D01*
X148513400Y-43736600D02*
X155100320Y-43736600D01*
X147500640Y-44749360D02*
X148513400Y-43736600D01*
X144902220Y-43736600D02*
X146736600Y-43736600D01*
X147500640Y-44500640D02*
X147500640Y-45000000D01*
X147500640Y-45000000D02*
X147500640Y-48001260D01*
X146736600Y-43736600D02*
X147500640Y-44500640D01*
D24*
X147500000Y-53250000D02*
X147500000Y-54000000D01*
X146230000Y-55270000D02*
X144750000Y-55270000D01*
X147500000Y-54000000D02*
X146230000Y-55270000D01*
X147500000Y-61750000D02*
X147500000Y-62750000D01*
X146480000Y-63770000D02*
X144750000Y-63770000D01*
X147500000Y-62750000D02*
X146480000Y-63770000D01*
X150000000Y-48001260D02*
X150000000Y-50000000D01*
X146980000Y-71270000D02*
X144750000Y-71270000D01*
X147500000Y-70750000D02*
X146980000Y-71270000D01*
X147500000Y-52500000D02*
X147500000Y-53250000D01*
X147500000Y-53250000D02*
X147500000Y-61750000D01*
X147500000Y-61750000D02*
X147500000Y-70750000D01*
X150000000Y-50000000D02*
X147500000Y-52500000D01*
D23*
X96500640Y-47501260D02*
X96500640Y-49499360D01*
X93500000Y-52500000D02*
X78000000Y-52500000D01*
X96500640Y-49499360D02*
X93500000Y-52500000D01*
X96500640Y-47501260D02*
X96498740Y-47501260D01*
X104100320Y-43736600D02*
X99763400Y-43736600D01*
X99763400Y-43736600D02*
X96500640Y-46999360D01*
X96500640Y-46999360D02*
X96500640Y-48001260D01*
X96500640Y-48001260D02*
X96500640Y-46335020D01*
X96500640Y-46335020D02*
X93902220Y-43736600D01*
D24*
X109750000Y-68730000D02*
X108730000Y-68730000D01*
X107750000Y-67750000D02*
X107750000Y-60500000D01*
X108730000Y-68730000D02*
X107750000Y-67750000D01*
X107750000Y-55500000D02*
X107750000Y-54500000D01*
X108520000Y-53730000D02*
X109750000Y-53730000D01*
X107750000Y-54500000D02*
X108520000Y-53730000D01*
X99000000Y-48001260D02*
X102251260Y-48001260D01*
X108480000Y-61230000D02*
X109750000Y-61230000D01*
X107750000Y-60500000D02*
X108480000Y-61230000D01*
X107750000Y-53500000D02*
X107750000Y-55500000D01*
X107750000Y-55500000D02*
X107750000Y-60500000D01*
X102251260Y-48001260D02*
X107750000Y-53500000D01*
D23*
X138100320Y-43236600D02*
X138263400Y-43236600D01*
X138263400Y-43236600D02*
X144000000Y-37500000D01*
X163500000Y-52500000D02*
X166000000Y-52500000D01*
X160000000Y-49000000D02*
X163500000Y-52500000D01*
X160000000Y-41000000D02*
X160000000Y-49000000D01*
X156500000Y-37500000D02*
X160000000Y-41000000D01*
X144000000Y-37500000D02*
X156500000Y-37500000D01*
X138100320Y-43236600D02*
X138100320Y-42399680D01*
X130500640Y-47501260D02*
X129998740Y-47501260D01*
X130500640Y-47501260D02*
X130500640Y-47999360D01*
X130500000Y-45000000D02*
X131250000Y-45000000D01*
X132513400Y-43736600D02*
X138100320Y-43736600D01*
X131250000Y-45000000D02*
X132513400Y-43736600D01*
X127902220Y-43736600D02*
X129236600Y-43736600D01*
X129236600Y-43736600D02*
X130500000Y-45000000D01*
X130500000Y-45000000D02*
X130500640Y-45000640D01*
X130500640Y-45000640D02*
X130500640Y-48001260D01*
D24*
X144750000Y-52730000D02*
X143980000Y-52730000D01*
X143980000Y-52730000D02*
X142750000Y-51500000D01*
X142750000Y-59750000D02*
X142750000Y-51500000D01*
X134498740Y-49500000D02*
X133000000Y-48001260D01*
X140750000Y-49500000D02*
X134498740Y-49500000D01*
X142750000Y-51500000D02*
X140750000Y-49500000D01*
X142750000Y-59750000D02*
X142750000Y-60500000D01*
X143480000Y-61230000D02*
X144750000Y-61230000D01*
X142750000Y-60500000D02*
X143480000Y-61230000D01*
X143480000Y-68730000D02*
X144750000Y-68730000D01*
X142750000Y-68000000D02*
X143480000Y-68730000D01*
X142750000Y-59750000D02*
X142750000Y-68000000D01*
X85501260Y-74000000D02*
X86000000Y-74000000D01*
X86000000Y-74000000D02*
X89000000Y-77000000D01*
X89000000Y-77000000D02*
X89000000Y-83000000D01*
X89000000Y-83000000D02*
X93500000Y-87500000D01*
X93500000Y-87500000D02*
X94000000Y-87500000D01*
X94000000Y-87500000D02*
X102000000Y-95500000D01*
X102000000Y-95500000D02*
X105500000Y-95500000D01*
X105500000Y-95500000D02*
X105500000Y-95750000D01*
X141250000Y-62250000D02*
X141250000Y-54000000D01*
X140730000Y-52730000D02*
X139250000Y-52730000D01*
X141250000Y-53250000D02*
X140730000Y-52730000D01*
X141250000Y-54000000D02*
X141250000Y-53250000D01*
X141250000Y-69750000D02*
X141250000Y-62250000D01*
X140250000Y-61250000D02*
X139270000Y-61250000D01*
X140500000Y-61500000D02*
X140250000Y-61250000D01*
X141250000Y-62250000D02*
X140500000Y-61500000D01*
X139270000Y-61250000D02*
X139250000Y-61230000D01*
X141250000Y-91750000D02*
X141250000Y-91500000D01*
X140480000Y-90730000D02*
X139250000Y-90730000D01*
X141250000Y-91500000D02*
X140480000Y-90730000D01*
X141250000Y-84000000D02*
X141250000Y-83750000D01*
X140730000Y-83230000D02*
X139250000Y-83230000D01*
X141250000Y-83750000D02*
X140730000Y-83230000D01*
X141250000Y-76750000D02*
X141250000Y-76500000D01*
X140480000Y-75730000D02*
X139250000Y-75730000D01*
X141250000Y-76500000D02*
X140480000Y-75730000D01*
X105250000Y-95750000D02*
X105500000Y-95750000D01*
X105500000Y-95750000D02*
X139750000Y-95750000D01*
X140230000Y-68730000D02*
X139250000Y-68730000D01*
X141250000Y-69750000D02*
X140230000Y-68730000D01*
X141250000Y-94250000D02*
X141250000Y-91750000D01*
X141250000Y-91750000D02*
X141250000Y-84000000D01*
X141250000Y-84000000D02*
X141250000Y-76750000D01*
X141250000Y-76750000D02*
X141250000Y-69750000D01*
X139750000Y-95750000D02*
X141250000Y-94250000D01*
X106250000Y-69500000D02*
X105500000Y-68750000D01*
X105500000Y-68750000D02*
X104270000Y-68750000D01*
X104270000Y-68750000D02*
X104250000Y-68730000D01*
X106250000Y-61750000D02*
X106250000Y-54500000D01*
X105480000Y-53730000D02*
X104250000Y-53730000D01*
X106250000Y-54500000D02*
X105480000Y-53730000D01*
X106250000Y-76250000D02*
X106250000Y-69500000D01*
X106250000Y-69500000D02*
X106250000Y-61750000D01*
X105730000Y-61230000D02*
X104250000Y-61230000D01*
X106250000Y-61750000D02*
X105730000Y-61230000D01*
X104250000Y-90730000D02*
X105230000Y-90730000D01*
X105230000Y-90730000D02*
X106250000Y-91750000D01*
X106250000Y-84000000D02*
X105500000Y-83250000D01*
X105500000Y-83250000D02*
X104270000Y-83250000D01*
X104270000Y-83250000D02*
X104250000Y-83230000D01*
X105250000Y-95750000D02*
X106250000Y-94750000D01*
X106250000Y-94750000D02*
X106250000Y-91750000D01*
X106250000Y-91750000D02*
X106250000Y-84000000D01*
X106250000Y-84000000D02*
X106250000Y-76250000D01*
X106250000Y-76250000D02*
X105750000Y-75750000D01*
X105750000Y-75750000D02*
X104270000Y-75750000D01*
X104270000Y-75750000D02*
X104250000Y-75730000D01*
X104250000Y-83230000D02*
X103730000Y-83230000D01*
D23*
X138097780Y-104763400D02*
X138097780Y-106597780D01*
X138097780Y-106597780D02*
X142000000Y-110500000D01*
X142000000Y-110500000D02*
X157000000Y-110500000D01*
X157000000Y-110500000D02*
X159500000Y-108000000D01*
X159500000Y-108000000D02*
X159500000Y-99500000D01*
X159500000Y-99500000D02*
X163500000Y-95500000D01*
X163500000Y-95500000D02*
X166000000Y-95500000D01*
X135499360Y-100498740D02*
X135499360Y-99500640D01*
X135499360Y-101750640D02*
X135499360Y-100498740D01*
X135499360Y-101749360D02*
X135499360Y-101750640D01*
X133986600Y-103263400D02*
X127899680Y-103263400D01*
X135499360Y-101750640D02*
X133986600Y-103263400D01*
X135499360Y-101749360D02*
X137013400Y-103263400D01*
X137013400Y-103263400D02*
X138097780Y-103263400D01*
D24*
X144750000Y-83230000D02*
X144270000Y-83230000D01*
X144270000Y-83230000D02*
X142500000Y-85000000D01*
X142500000Y-85000000D02*
X142500000Y-85500000D01*
X142500000Y-92000000D02*
X142500000Y-91500000D01*
X143270000Y-90730000D02*
X144750000Y-90730000D01*
X142500000Y-91500000D02*
X143270000Y-90730000D01*
X133000000Y-100498740D02*
X133000000Y-98998740D01*
X143770000Y-75730000D02*
X142500000Y-77000000D01*
X142500000Y-77000000D02*
X142500000Y-85500000D01*
X142500000Y-85500000D02*
X142500000Y-92000000D01*
X142500000Y-92000000D02*
X142500000Y-95500000D01*
X142500000Y-95500000D02*
X141250000Y-96750000D01*
X141250000Y-96750000D02*
X133750000Y-96750000D01*
X133750000Y-96750000D02*
X133000000Y-97500000D01*
X133000000Y-97500000D02*
X133000000Y-98998740D01*
X143770000Y-75730000D02*
X144750000Y-75730000D01*
D23*
X93899680Y-104763400D02*
X87763400Y-104763400D01*
X87763400Y-104763400D02*
X78500000Y-95500000D01*
X78500000Y-95500000D02*
X78000000Y-95500000D01*
X104097780Y-104763400D02*
X104097780Y-108097780D01*
X104097780Y-104763400D02*
X104097780Y-106097780D01*
X96000000Y-104763400D02*
X93899680Y-104763400D01*
X101499360Y-102000000D02*
X101499360Y-102000640D01*
X98736600Y-104763400D02*
X96000000Y-104763400D01*
X101499360Y-102000640D02*
X98736600Y-104763400D01*
X101499360Y-100498740D02*
X101499360Y-102000000D01*
X101499360Y-102000000D02*
X101499360Y-102164980D01*
X101499360Y-102164980D02*
X104097780Y-104763400D01*
D24*
X99000000Y-100498740D02*
X99000000Y-98998740D01*
X99000000Y-97750000D02*
X99000000Y-98998740D01*
X107750000Y-94250000D02*
X107750000Y-91750000D01*
X107500000Y-96750000D02*
X101000000Y-96750000D01*
X101000000Y-96750000D02*
X100000000Y-96750000D01*
X100000000Y-96750000D02*
X99000000Y-97750000D01*
X109750000Y-83230000D02*
X108520000Y-83230000D01*
X107750000Y-84000000D02*
X107750000Y-84500000D01*
X108520000Y-83230000D02*
X107750000Y-84000000D01*
X107750000Y-91750000D02*
X107750000Y-84500000D01*
X107750000Y-84500000D02*
X107750000Y-76500000D01*
X108520000Y-75730000D02*
X109750000Y-75730000D01*
X107750000Y-76500000D02*
X108520000Y-75730000D01*
X109750000Y-90730000D02*
X108520000Y-90730000D01*
X107750000Y-91500000D02*
X107750000Y-91750000D01*
X108520000Y-90730000D02*
X107750000Y-91500000D01*
D23*
X152499360Y-102000000D02*
X152499360Y-102000640D01*
X149736600Y-104763400D02*
X144899680Y-104763400D01*
X152499360Y-102000640D02*
X149736600Y-104763400D01*
X152499360Y-100498740D02*
X152499360Y-102000000D01*
X152499360Y-102000000D02*
X152499360Y-102164980D01*
X152499360Y-102164980D02*
X155097780Y-104763400D01*
X144899680Y-103263400D02*
X144736600Y-103263400D01*
X92250000Y-79000000D02*
X93000000Y-79000000D01*
D24*
X150000000Y-100498740D02*
X150000000Y-98998740D01*
X150000000Y-98998740D02*
X150000000Y-89750000D01*
X150000000Y-89750000D02*
X150000000Y-90250000D01*
X146980000Y-93270000D02*
X144750000Y-93270000D01*
X150000000Y-90250000D02*
X146980000Y-93270000D01*
X150000000Y-87250000D02*
X148750000Y-86000000D01*
X148750000Y-86000000D02*
X144980000Y-86000000D01*
X144980000Y-86000000D02*
X144750000Y-85770000D01*
X150000000Y-89750000D02*
X150000000Y-87250000D01*
X150000000Y-87250000D02*
X150000000Y-80500000D01*
X147770000Y-78270000D02*
X144750000Y-78270000D01*
X150000000Y-80500000D02*
X147770000Y-78270000D01*
D23*
X118499360Y-101499360D02*
X118499360Y-101500640D01*
X116736600Y-103263400D02*
X110899680Y-103263400D01*
X118499360Y-101500640D02*
X116736600Y-103263400D01*
X118499360Y-101499360D02*
X120263400Y-103263400D01*
X120263400Y-103263400D02*
X121097780Y-103263400D01*
X153960000Y-90000000D02*
X154000000Y-90000000D01*
D24*
X114248740Y-98998740D02*
X114500000Y-98998740D01*
X114500000Y-98998740D02*
X116000000Y-100498740D01*
X114248740Y-98998740D02*
X112000000Y-96750000D01*
X112000000Y-94500000D02*
X112000000Y-94000000D01*
X112000000Y-94000000D02*
X111500000Y-93500000D01*
X111250000Y-93250000D02*
X109770000Y-93250000D01*
X111500000Y-93500000D02*
X111250000Y-93250000D01*
X109770000Y-93250000D02*
X109750000Y-93270000D01*
X112000000Y-87000000D02*
X112000000Y-86750000D01*
X111020000Y-85770000D02*
X109750000Y-85770000D01*
X112000000Y-86750000D02*
X111020000Y-85770000D01*
X111270000Y-78270000D02*
X109750000Y-78270000D01*
X112000000Y-79000000D02*
X111270000Y-78270000D01*
X112000000Y-94000000D02*
X112000000Y-87000000D01*
X112000000Y-87000000D02*
X112000000Y-79000000D01*
D23*
X166000000Y-55000000D02*
X166000000Y-55960000D01*
X166000000Y-55960000D02*
X153960000Y-68000000D01*
D24*
X133750000Y-81250000D02*
X113500000Y-81250000D01*
X136000000Y-83625000D02*
X136000000Y-90500000D01*
X136000000Y-90500000D02*
X138770000Y-93270000D01*
X138770000Y-93270000D02*
X139250000Y-93270000D01*
X139250000Y-85770000D02*
X138270000Y-85770000D01*
X136000000Y-83500000D02*
X136000000Y-83625000D01*
X136000000Y-83625000D02*
X136000000Y-79500000D01*
X138270000Y-85770000D02*
X136000000Y-83500000D01*
X139250000Y-78270000D02*
X138520000Y-78270000D01*
X138520000Y-78270000D02*
X136000000Y-75750000D01*
X139250000Y-71270000D02*
X138730000Y-71270000D01*
X138730000Y-71270000D02*
X136000000Y-74000000D01*
X139250000Y-63770000D02*
X138480000Y-63770000D01*
X138480000Y-63770000D02*
X136000000Y-66250000D01*
X133750000Y-81250000D02*
X134250000Y-81250000D01*
X134250000Y-81250000D02*
X136000000Y-79500000D01*
X136000000Y-79500000D02*
X136000000Y-75750000D01*
X136000000Y-75750000D02*
X136000000Y-74000000D01*
X136000000Y-74000000D02*
X136000000Y-66250000D01*
X136000000Y-66250000D02*
X136000000Y-57250000D01*
X136000000Y-57250000D02*
X137980000Y-55270000D01*
X137980000Y-55270000D02*
X139250000Y-55270000D01*
X101250000Y-69500000D02*
X101250000Y-76500000D01*
X101250000Y-76500000D02*
X97750000Y-80000000D01*
X97750000Y-80000000D02*
X97750000Y-80250000D01*
X101500000Y-84500000D02*
X100000000Y-84500000D01*
X100000000Y-84500000D02*
X97750000Y-82250000D01*
X97750000Y-82250000D02*
X97750000Y-80250000D01*
X104250000Y-93270000D02*
X103270000Y-93270000D01*
X101500000Y-91500000D02*
X101500000Y-84500000D01*
X101500000Y-84500000D02*
X101500000Y-84250000D01*
X103270000Y-93270000D02*
X101500000Y-91500000D01*
X104250000Y-63770000D02*
X102730000Y-63770000D01*
X102730000Y-63770000D02*
X101250000Y-65250000D01*
X104250000Y-78270000D02*
X103230000Y-78270000D01*
X103230000Y-78270000D02*
X101500000Y-80000000D01*
X103020000Y-85770000D02*
X104250000Y-85770000D01*
X101500000Y-84250000D02*
X103020000Y-85770000D01*
X101500000Y-80000000D02*
X101500000Y-84250000D01*
X104250000Y-56270000D02*
X102980000Y-56270000D01*
X103020000Y-71270000D02*
X104250000Y-71270000D01*
X101250000Y-69500000D02*
X103020000Y-71270000D01*
X101250000Y-58000000D02*
X101250000Y-65250000D01*
X101250000Y-65250000D02*
X101250000Y-69500000D01*
X102980000Y-56270000D02*
X101250000Y-58000000D01*
D23*
X153960000Y-79000000D02*
X160500000Y-79000000D01*
X169500000Y-94500000D02*
X166000000Y-98000000D01*
X169500000Y-88000000D02*
X169500000Y-94500000D01*
X160500000Y-79000000D02*
X169500000Y-88000000D01*
X153960000Y-79000000D02*
X153960000Y-78040000D01*
X92540000Y-90500000D02*
X81000000Y-90500000D01*
X81000000Y-90500000D02*
X78500000Y-93000000D01*
X92540000Y-90500000D02*
X93040000Y-90000000D01*
X78000000Y-93000000D02*
X78500000Y-93000000D01*
M02*
