G04 #@! TF.GenerationSoftware,KiCad,Pcbnew,(6.0.2)*
G04 #@! TF.CreationDate,2022-10-13T14:07:26+01:00*
G04 #@! TF.ProjectId,led_driver,6c65645f-6472-4697-9665-722e6b696361,rev?*
G04 #@! TF.SameCoordinates,Original*
G04 #@! TF.FileFunction,Copper,L2,Bot*
G04 #@! TF.FilePolarity,Positive*
%FSLAX46Y46*%
G04 Gerber Fmt 4.6, Leading zero omitted, Abs format (unit mm)*
G04 Created by KiCad (PCBNEW (6.0.2)) date 2022-10-13 14:07:26*
%MOMM*%
%LPD*%
G01*
G04 APERTURE LIST*
G04 #@! TA.AperFunction,ComponentPad*
%ADD10C,1.600000*%
G04 #@! TD*
G04 #@! TA.AperFunction,ComponentPad*
%ADD11O,1.600000X1.600000*%
G04 #@! TD*
G04 #@! TA.AperFunction,ComponentPad*
%ADD12C,1.440000*%
G04 #@! TD*
G04 #@! TA.AperFunction,ComponentPad*
%ADD13C,2.340000*%
G04 #@! TD*
G04 #@! TA.AperFunction,ComponentPad*
%ADD14R,2.000000X2.000000*%
G04 #@! TD*
G04 #@! TA.AperFunction,ComponentPad*
%ADD15O,2.000000X2.000000*%
G04 #@! TD*
G04 #@! TA.AperFunction,ComponentPad*
%ADD16C,2.400000*%
G04 #@! TD*
G04 #@! TA.AperFunction,ComponentPad*
%ADD17O,2.400000X2.400000*%
G04 #@! TD*
G04 #@! TA.AperFunction,ComponentPad*
%ADD18R,1.905000X2.000000*%
G04 #@! TD*
G04 #@! TA.AperFunction,ComponentPad*
%ADD19O,1.905000X2.000000*%
G04 #@! TD*
G04 #@! TA.AperFunction,ComponentPad*
%ADD20C,2.000000*%
G04 #@! TD*
G04 #@! TA.AperFunction,ComponentPad*
%ADD21R,1.600000X1.600000*%
G04 #@! TD*
G04 #@! TA.AperFunction,ComponentPad*
%ADD22R,2.200000X2.200000*%
G04 #@! TD*
G04 #@! TA.AperFunction,ComponentPad*
%ADD23O,2.200000X2.200000*%
G04 #@! TD*
G04 #@! TA.AperFunction,ComponentPad*
%ADD24R,3.960000X1.980000*%
G04 #@! TD*
G04 #@! TA.AperFunction,ComponentPad*
%ADD25O,3.960000X1.980000*%
G04 #@! TD*
G04 #@! TA.AperFunction,ComponentPad*
%ADD26O,2.500000X1.600000*%
G04 #@! TD*
G04 #@! TA.AperFunction,ComponentPad*
%ADD27O,7.000000X3.500000*%
G04 #@! TD*
G04 #@! TA.AperFunction,ComponentPad*
%ADD28C,2.600000*%
G04 #@! TD*
G04 #@! TA.AperFunction,ViaPad*
%ADD29C,0.800000*%
G04 #@! TD*
G04 #@! TA.AperFunction,Conductor*
%ADD30C,0.500000*%
G04 #@! TD*
G04 APERTURE END LIST*
D10*
X124750000Y-66750000D03*
D11*
X117250000Y-66750000D03*
D12*
X115750000Y-61750000D03*
X118290000Y-59210000D03*
X115750000Y-56670000D03*
D13*
X143500000Y-90500000D03*
X148500000Y-95500000D03*
X143500000Y-100500000D03*
D10*
X115000000Y-95000000D03*
D11*
X104840000Y-95000000D03*
D14*
X134290000Y-100805000D03*
D15*
X129210000Y-100805000D03*
D10*
X117920000Y-95000000D03*
D11*
X128080000Y-95000000D03*
D16*
X135000000Y-78500000D03*
D17*
X135000000Y-63260000D03*
D18*
X105790000Y-100805000D03*
D19*
X103250000Y-100805000D03*
X100710000Y-100805000D03*
D18*
X121790000Y-100805000D03*
D19*
X119250000Y-100805000D03*
X116710000Y-100805000D03*
D20*
X115000000Y-72750000D03*
X107500000Y-72750000D03*
D21*
X121000000Y-84347349D03*
D10*
X121000000Y-89347349D03*
D20*
X129500000Y-90750000D03*
X129500000Y-83250000D03*
D21*
X107000000Y-66402651D03*
D10*
X107000000Y-61402651D03*
D22*
X106170000Y-79000000D03*
D23*
X116330000Y-79000000D03*
D24*
X92750000Y-79235000D03*
D25*
X92750000Y-84235000D03*
D26*
X148200000Y-79250000D03*
D27*
X153280000Y-74170000D03*
X153280000Y-84330000D03*
D26*
X148200000Y-76710000D03*
D10*
X136500000Y-93330000D03*
D11*
X136500000Y-83170000D03*
D10*
X121420000Y-60750000D03*
D11*
X131580000Y-60750000D03*
D21*
X129438400Y-71360800D03*
D11*
X126898400Y-71360800D03*
X124358400Y-71360800D03*
X121818400Y-71360800D03*
X121818400Y-78980800D03*
X124358400Y-78980800D03*
X126898400Y-78980800D03*
X129438400Y-78980800D03*
X121420000Y-57250000D03*
D10*
X131580000Y-57250000D03*
D24*
X92750000Y-68000000D03*
D25*
X92750000Y-73000000D03*
D28*
X110500000Y-89000000D03*
X110500000Y-84000000D03*
D29*
X131750000Y-92750000D03*
D30*
X141750000Y-100500000D02*
X143500000Y-100500000D01*
X138500000Y-91250000D02*
X142750000Y-95500000D01*
X134500000Y-92750000D02*
X136000000Y-91250000D01*
X136000000Y-91250000D02*
X138500000Y-91250000D01*
X142750000Y-95500000D02*
X148500000Y-95500000D01*
X131750000Y-92750000D02*
X134500000Y-92750000D01*
X103250000Y-101316522D02*
X103250000Y-100805000D01*
X104633958Y-102700480D02*
X103250000Y-101316522D01*
X119894520Y-102700480D02*
X104633958Y-102700480D01*
X121790000Y-100805000D02*
X119894520Y-102700480D01*
X106170000Y-84670000D02*
X110500000Y-89000000D01*
X106170000Y-79000000D02*
X106170000Y-84670000D01*
X126898400Y-78980800D02*
X129438400Y-78980800D01*
X129438400Y-71360800D02*
X129438400Y-78980800D01*
X135000000Y-65799200D02*
X129438400Y-71360800D01*
X135000000Y-63260000D02*
X135000000Y-65799200D01*
X124358400Y-71360800D02*
X124358400Y-67141600D01*
X124358400Y-67141600D02*
X124750000Y-66750000D01*
X132250000Y-81250000D02*
X135000000Y-78500000D01*
X122089200Y-81250000D02*
X132250000Y-81250000D01*
X120000000Y-81250000D02*
X122089200Y-81250000D01*
X119000000Y-80250000D02*
X120000000Y-81250000D01*
X119000000Y-76750000D02*
X119000000Y-80250000D01*
X122089200Y-81250000D02*
X124358400Y-78980800D01*
X115000000Y-72750000D02*
X119000000Y-76750000D01*
X108652651Y-66402651D02*
X115000000Y-72750000D01*
X107000000Y-66402651D02*
X108652651Y-66402651D01*
X105402651Y-68000000D02*
X107000000Y-66402651D01*
X92750000Y-68000000D02*
X105402651Y-68000000D01*
X141445000Y-100805000D02*
X141750000Y-100500000D01*
X134290000Y-100805000D02*
X141445000Y-100805000D01*
X116570489Y-88776860D02*
X121000000Y-84347349D01*
X116570489Y-100665489D02*
X116570489Y-88776860D01*
X116710000Y-100805000D02*
X116570489Y-100665489D01*
X117920000Y-95000000D02*
X117920000Y-99475000D01*
X117920000Y-99475000D02*
X119250000Y-100805000D01*
X124750000Y-97750000D02*
X132080000Y-97750000D01*
X132080000Y-97750000D02*
X136500000Y-93330000D01*
X123239511Y-99260489D02*
X124750000Y-97750000D01*
X123239511Y-99355489D02*
X123239511Y-99260489D01*
X121790000Y-100805000D02*
X123239511Y-99355489D01*
X136420000Y-83250000D02*
X136500000Y-83170000D01*
X129500000Y-83250000D02*
X136420000Y-83250000D01*
X121000000Y-84347349D02*
X128402651Y-84347349D01*
X128402651Y-84347349D02*
X129500000Y-83250000D01*
X110500000Y-84000000D02*
X120652651Y-84000000D01*
X120652651Y-84000000D02*
X121000000Y-84347349D01*
X114000000Y-67250000D02*
X121818400Y-75068400D01*
X114000000Y-60500000D02*
X114000000Y-67250000D01*
X115290000Y-59210000D02*
X114000000Y-60500000D01*
X121818400Y-75068400D02*
X121818400Y-78980800D01*
X118290000Y-59210000D02*
X115290000Y-59210000D01*
X120420000Y-61750000D02*
X121420000Y-60750000D01*
X115750000Y-61750000D02*
X120420000Y-61750000D01*
X120840000Y-56670000D02*
X121420000Y-57250000D01*
X115750000Y-56670000D02*
X120840000Y-56670000D01*
G04 #@! TA.AperFunction,Conductor*
G36*
X151742121Y-54020002D02*
G01*
X151788614Y-54073658D01*
X151800000Y-54126000D01*
X151800000Y-62800000D01*
X160366000Y-62800000D01*
X160434121Y-62820002D01*
X160480614Y-62873658D01*
X160492000Y-62926000D01*
X160492000Y-92569170D01*
X160471998Y-92637291D01*
X160418342Y-92683784D01*
X160364600Y-92695162D01*
X151818116Y-92600201D01*
X151818115Y-92600201D01*
X151800000Y-92600000D01*
X151800000Y-102366000D01*
X151779998Y-102434121D01*
X151726342Y-102480614D01*
X151674000Y-102492000D01*
X135594811Y-102492000D01*
X135526690Y-102471998D01*
X135480197Y-102418342D01*
X135470093Y-102348068D01*
X135499587Y-102283488D01*
X135531904Y-102257415D01*
X135536705Y-102255615D01*
X135653261Y-102168261D01*
X135740615Y-102051705D01*
X135791745Y-101915316D01*
X135798500Y-101853134D01*
X135798500Y-101689500D01*
X135818502Y-101621379D01*
X135872158Y-101574886D01*
X135924500Y-101563500D01*
X141377930Y-101563500D01*
X141396880Y-101564933D01*
X141411115Y-101567099D01*
X141411119Y-101567099D01*
X141418349Y-101568199D01*
X141425641Y-101567606D01*
X141425644Y-101567606D01*
X141471018Y-101563915D01*
X141481233Y-101563500D01*
X141489293Y-101563500D01*
X141502583Y-101561951D01*
X141517507Y-101560211D01*
X141521882Y-101559778D01*
X141587339Y-101554454D01*
X141587342Y-101554453D01*
X141594637Y-101553860D01*
X141601601Y-101551604D01*
X141607560Y-101550413D01*
X141613415Y-101549029D01*
X141620681Y-101548182D01*
X141689327Y-101523265D01*
X141693455Y-101521848D01*
X141755936Y-101501607D01*
X141755938Y-101501606D01*
X141762899Y-101499351D01*
X141769154Y-101495555D01*
X141774628Y-101493049D01*
X141780058Y-101490330D01*
X141786937Y-101487833D01*
X141847976Y-101447814D01*
X141851680Y-101445477D01*
X141914107Y-101407595D01*
X141918316Y-101403878D01*
X141921898Y-101401242D01*
X141988619Y-101376978D01*
X142057868Y-101392637D01*
X142097536Y-101427337D01*
X142226876Y-101600545D01*
X142226881Y-101600551D01*
X142229668Y-101604283D01*
X142406844Y-101779921D01*
X142410606Y-101782679D01*
X142410609Y-101782682D01*
X142591501Y-101915316D01*
X142608036Y-101927440D01*
X142612171Y-101929616D01*
X142612175Y-101929618D01*
X142728009Y-101990561D01*
X142828823Y-102043602D01*
X143064354Y-102125853D01*
X143068947Y-102126725D01*
X143304867Y-102171516D01*
X143304870Y-102171516D01*
X143309456Y-102172387D01*
X143434099Y-102177284D01*
X143554075Y-102181999D01*
X143554081Y-102181999D01*
X143558743Y-102182182D01*
X143656134Y-102171516D01*
X143802087Y-102155532D01*
X143802092Y-102155531D01*
X143806740Y-102155022D01*
X143811264Y-102153831D01*
X144043476Y-102092694D01*
X144043478Y-102092693D01*
X144047999Y-102091503D01*
X144089744Y-102073568D01*
X144272924Y-101994868D01*
X144272926Y-101994867D01*
X144277218Y-101993023D01*
X144387675Y-101924670D01*
X144485391Y-101864202D01*
X144485395Y-101864199D01*
X144489364Y-101861743D01*
X144556135Y-101805217D01*
X144676209Y-101703567D01*
X144676210Y-101703566D01*
X144679775Y-101700548D01*
X144761316Y-101607569D01*
X144841187Y-101516494D01*
X144841191Y-101516489D01*
X144844269Y-101512979D01*
X144857089Y-101493049D01*
X144968441Y-101319932D01*
X144979231Y-101303157D01*
X145081697Y-101075691D01*
X145126739Y-100915986D01*
X145148146Y-100840082D01*
X145148147Y-100840079D01*
X145149416Y-100835578D01*
X145180900Y-100588092D01*
X145181290Y-100573223D01*
X145183124Y-100503160D01*
X145183207Y-100500000D01*
X145165108Y-100256456D01*
X145165064Y-100255858D01*
X145165063Y-100255854D01*
X145164718Y-100251206D01*
X145109659Y-100007878D01*
X145096028Y-99972825D01*
X145020931Y-99779714D01*
X145020930Y-99779712D01*
X145019238Y-99775361D01*
X145001911Y-99745044D01*
X144965229Y-99680865D01*
X144895442Y-99558763D01*
X144740990Y-99362842D01*
X144559276Y-99191902D01*
X144439238Y-99108629D01*
X144358130Y-99052362D01*
X144358125Y-99052359D01*
X144354292Y-99049700D01*
X144350110Y-99047637D01*
X144350102Y-99047633D01*
X144134728Y-98941423D01*
X144134725Y-98941422D01*
X144130540Y-98939358D01*
X143892937Y-98863300D01*
X143888330Y-98862550D01*
X143888327Y-98862549D01*
X143651312Y-98823949D01*
X143651313Y-98823949D01*
X143646701Y-98823198D01*
X143525753Y-98821615D01*
X143401920Y-98819994D01*
X143401917Y-98819994D01*
X143397243Y-98819933D01*
X143150042Y-98853575D01*
X143145556Y-98854883D01*
X143145554Y-98854883D01*
X143116677Y-98863300D01*
X142910528Y-98923387D01*
X142683965Y-99027834D01*
X142680056Y-99030397D01*
X142479242Y-99162056D01*
X142479237Y-99162060D01*
X142475329Y-99164622D01*
X142438241Y-99197724D01*
X142296970Y-99323813D01*
X142289202Y-99330746D01*
X142129675Y-99522557D01*
X142043035Y-99665336D01*
X142033612Y-99680865D01*
X141981173Y-99728726D01*
X141925893Y-99741500D01*
X141817069Y-99741500D01*
X141798121Y-99740067D01*
X141789706Y-99738787D01*
X141783883Y-99737901D01*
X141783881Y-99737901D01*
X141776651Y-99736801D01*
X141769359Y-99737394D01*
X141769356Y-99737394D01*
X141723982Y-99741085D01*
X141713767Y-99741500D01*
X141705707Y-99741500D01*
X141692417Y-99743049D01*
X141677493Y-99744789D01*
X141673118Y-99745222D01*
X141607661Y-99750546D01*
X141607658Y-99750547D01*
X141600363Y-99751140D01*
X141593399Y-99753396D01*
X141587440Y-99754587D01*
X141581585Y-99755971D01*
X141574319Y-99756818D01*
X141505673Y-99781735D01*
X141501545Y-99783152D01*
X141439064Y-99803393D01*
X141439062Y-99803394D01*
X141432101Y-99805649D01*
X141425846Y-99809445D01*
X141420372Y-99811951D01*
X141414942Y-99814670D01*
X141408063Y-99817167D01*
X141401943Y-99821180D01*
X141401942Y-99821180D01*
X141347024Y-99857186D01*
X141343320Y-99859523D01*
X141280893Y-99897405D01*
X141272516Y-99904803D01*
X141272492Y-99904776D01*
X141269500Y-99907429D01*
X141266267Y-99910132D01*
X141260148Y-99914144D01*
X141255116Y-99919456D01*
X141206872Y-99970383D01*
X141204494Y-99972825D01*
X141167724Y-100009595D01*
X141105412Y-100043621D01*
X141078629Y-100046500D01*
X135924500Y-100046500D01*
X135856379Y-100026498D01*
X135809886Y-99972842D01*
X135798500Y-99920500D01*
X135798500Y-99756866D01*
X135791745Y-99694684D01*
X135740615Y-99558295D01*
X135653261Y-99441739D01*
X135536705Y-99354385D01*
X135400316Y-99303255D01*
X135338134Y-99296500D01*
X133241866Y-99296500D01*
X133179684Y-99303255D01*
X133043295Y-99354385D01*
X132926739Y-99441739D01*
X132839385Y-99558295D01*
X132788255Y-99694684D01*
X132781500Y-99756866D01*
X132781500Y-101853134D01*
X132788255Y-101915316D01*
X132839385Y-102051705D01*
X132926739Y-102168261D01*
X133043295Y-102255615D01*
X133047349Y-102257135D01*
X133095845Y-102305740D01*
X133110858Y-102375131D01*
X133085972Y-102441623D01*
X133029088Y-102484105D01*
X132985189Y-102492000D01*
X129708928Y-102492000D01*
X129640807Y-102471998D01*
X129594314Y-102418342D01*
X129584210Y-102348068D01*
X129613704Y-102283488D01*
X129669992Y-102246167D01*
X129672784Y-102245260D01*
X129677594Y-102244105D01*
X129708317Y-102231379D01*
X129892389Y-102155135D01*
X129892393Y-102155133D01*
X129896963Y-102153240D01*
X129901183Y-102150654D01*
X130095202Y-102031759D01*
X130095208Y-102031755D01*
X130099416Y-102029176D01*
X130279969Y-101874969D01*
X130434176Y-101694416D01*
X130436755Y-101690208D01*
X130436759Y-101690202D01*
X130555654Y-101496183D01*
X130558240Y-101491963D01*
X130577500Y-101445467D01*
X130647211Y-101277167D01*
X130647212Y-101277165D01*
X130649105Y-101272594D01*
X130691272Y-101096956D01*
X130703380Y-101046524D01*
X130703381Y-101046518D01*
X130704535Y-101041711D01*
X130723165Y-100805000D01*
X130704535Y-100568289D01*
X130700385Y-100551000D01*
X130668137Y-100416681D01*
X130649105Y-100337406D01*
X130558240Y-100118037D01*
X130506361Y-100033378D01*
X130436759Y-99919798D01*
X130436755Y-99919792D01*
X130434176Y-99915584D01*
X130279969Y-99735031D01*
X130099416Y-99580824D01*
X130095208Y-99578245D01*
X130095202Y-99578241D01*
X129901183Y-99459346D01*
X129896963Y-99456760D01*
X129892393Y-99454867D01*
X129892389Y-99454865D01*
X129682167Y-99367789D01*
X129682165Y-99367788D01*
X129677594Y-99365895D01*
X129596695Y-99346473D01*
X129451524Y-99311620D01*
X129451518Y-99311619D01*
X129446711Y-99310465D01*
X129210000Y-99291835D01*
X128973289Y-99310465D01*
X128968482Y-99311619D01*
X128968476Y-99311620D01*
X128823305Y-99346473D01*
X128742406Y-99365895D01*
X128737835Y-99367788D01*
X128737833Y-99367789D01*
X128527611Y-99454865D01*
X128527607Y-99454867D01*
X128523037Y-99456760D01*
X128518817Y-99459346D01*
X128324798Y-99578241D01*
X128324792Y-99578245D01*
X128320584Y-99580824D01*
X128140031Y-99735031D01*
X127985824Y-99915584D01*
X127983245Y-99919792D01*
X127983241Y-99919798D01*
X127913639Y-100033378D01*
X127861760Y-100118037D01*
X127770895Y-100337406D01*
X127751863Y-100416681D01*
X127719616Y-100551000D01*
X127715465Y-100568289D01*
X127696835Y-100805000D01*
X127715465Y-101041711D01*
X127716619Y-101046518D01*
X127716620Y-101046524D01*
X127728728Y-101096956D01*
X127770895Y-101272594D01*
X127772788Y-101277165D01*
X127772789Y-101277167D01*
X127842501Y-101445467D01*
X127861760Y-101491963D01*
X127864346Y-101496183D01*
X127983241Y-101690202D01*
X127983245Y-101690208D01*
X127985824Y-101694416D01*
X128140031Y-101874969D01*
X128320584Y-102029176D01*
X128324792Y-102031755D01*
X128324798Y-102031759D01*
X128518817Y-102150654D01*
X128523037Y-102153240D01*
X128527607Y-102155133D01*
X128527611Y-102155135D01*
X128711683Y-102231379D01*
X128742406Y-102244105D01*
X128747216Y-102245260D01*
X128750008Y-102246167D01*
X128808614Y-102286241D01*
X128836251Y-102351637D01*
X128824144Y-102421594D01*
X128776138Y-102473900D01*
X128711072Y-102492000D01*
X123047311Y-102492000D01*
X122979190Y-102471998D01*
X122932697Y-102418342D01*
X122922593Y-102348068D01*
X122952087Y-102283488D01*
X122984404Y-102257415D01*
X122989205Y-102255615D01*
X123105761Y-102168261D01*
X123193115Y-102051705D01*
X123244245Y-101915316D01*
X123251000Y-101853134D01*
X123251000Y-100468871D01*
X123271002Y-100400750D01*
X123287905Y-100379776D01*
X123728422Y-99939259D01*
X123742834Y-99926873D01*
X123754429Y-99918340D01*
X123754434Y-99918335D01*
X123760329Y-99913997D01*
X123765068Y-99908419D01*
X123765071Y-99908416D01*
X123794546Y-99873721D01*
X123801476Y-99866205D01*
X123807171Y-99860510D01*
X123812029Y-99854369D01*
X123824792Y-99838238D01*
X123827583Y-99834834D01*
X123870102Y-99784786D01*
X123870103Y-99784784D01*
X123874844Y-99779204D01*
X123878172Y-99772688D01*
X123881539Y-99767639D01*
X123884706Y-99762510D01*
X123889245Y-99756773D01*
X123920166Y-99690614D01*
X123922072Y-99686714D01*
X123950697Y-99630656D01*
X123973819Y-99598862D01*
X125027276Y-98545405D01*
X125089588Y-98511379D01*
X125116371Y-98508500D01*
X132012930Y-98508500D01*
X132031880Y-98509933D01*
X132046115Y-98512099D01*
X132046119Y-98512099D01*
X132053349Y-98513199D01*
X132060641Y-98512606D01*
X132060644Y-98512606D01*
X132106018Y-98508915D01*
X132116233Y-98508500D01*
X132124293Y-98508500D01*
X132137583Y-98506951D01*
X132152507Y-98505211D01*
X132156882Y-98504778D01*
X132222339Y-98499454D01*
X132222342Y-98499453D01*
X132229637Y-98498860D01*
X132236601Y-98496604D01*
X132242560Y-98495413D01*
X132248415Y-98494029D01*
X132255681Y-98493182D01*
X132324327Y-98468265D01*
X132328455Y-98466848D01*
X132390936Y-98446607D01*
X132390938Y-98446606D01*
X132397899Y-98444351D01*
X132404154Y-98440555D01*
X132409628Y-98438049D01*
X132415058Y-98435330D01*
X132421937Y-98432833D01*
X132482976Y-98392814D01*
X132486680Y-98390477D01*
X132549107Y-98352595D01*
X132557484Y-98345197D01*
X132557508Y-98345224D01*
X132560500Y-98342571D01*
X132563733Y-98339868D01*
X132569852Y-98335856D01*
X132623128Y-98279617D01*
X132625506Y-98277175D01*
X136237010Y-94665671D01*
X136299322Y-94631645D01*
X136337087Y-94629245D01*
X136494525Y-94643019D01*
X136500000Y-94643498D01*
X136728087Y-94623543D01*
X136733400Y-94622119D01*
X136733402Y-94622119D01*
X136943933Y-94565707D01*
X136943935Y-94565706D01*
X136949243Y-94564284D01*
X136978252Y-94550757D01*
X137151762Y-94469849D01*
X137151767Y-94469846D01*
X137156749Y-94467523D01*
X137326747Y-94348489D01*
X137339789Y-94339357D01*
X137339792Y-94339355D01*
X137344300Y-94336198D01*
X137506198Y-94174300D01*
X137514772Y-94162056D01*
X137629586Y-93998084D01*
X137637523Y-93986749D01*
X137639846Y-93981767D01*
X137639849Y-93981762D01*
X137731961Y-93784225D01*
X137731961Y-93784224D01*
X137734284Y-93779243D01*
X137753916Y-93705978D01*
X137792119Y-93563402D01*
X137792119Y-93563400D01*
X137793543Y-93558087D01*
X137813498Y-93330000D01*
X137793543Y-93101913D01*
X137750139Y-92939928D01*
X137735707Y-92886067D01*
X137735706Y-92886065D01*
X137734284Y-92880757D01*
X137676373Y-92756565D01*
X137639849Y-92678238D01*
X137639846Y-92678233D01*
X137637523Y-92673251D01*
X137506198Y-92485700D01*
X137344300Y-92323802D01*
X137339792Y-92320645D01*
X137339789Y-92320643D01*
X137221353Y-92237713D01*
X137177025Y-92182256D01*
X137169716Y-92111636D01*
X137201747Y-92048276D01*
X137262948Y-92012291D01*
X137293624Y-92008500D01*
X138133629Y-92008500D01*
X138201750Y-92028502D01*
X138222724Y-92045405D01*
X142166230Y-95988911D01*
X142178616Y-96003323D01*
X142187149Y-96014918D01*
X142187154Y-96014923D01*
X142191492Y-96020818D01*
X142197070Y-96025557D01*
X142197073Y-96025560D01*
X142231768Y-96055035D01*
X142239284Y-96061965D01*
X142244980Y-96067661D01*
X142247841Y-96069924D01*
X142247846Y-96069929D01*
X142267256Y-96085285D01*
X142270658Y-96088074D01*
X142326285Y-96135333D01*
X142332802Y-96138661D01*
X142337850Y-96142027D01*
X142342972Y-96145190D01*
X142348716Y-96149735D01*
X142414895Y-96180664D01*
X142418779Y-96182563D01*
X142483808Y-96215769D01*
X142490923Y-96217510D01*
X142496578Y-96219613D01*
X142502317Y-96221522D01*
X142508950Y-96224622D01*
X142580435Y-96239491D01*
X142584701Y-96240457D01*
X142655610Y-96257808D01*
X142661212Y-96258156D01*
X142661215Y-96258156D01*
X142666764Y-96258500D01*
X142666762Y-96258535D01*
X142670734Y-96258775D01*
X142674955Y-96259152D01*
X142682115Y-96260641D01*
X142759542Y-96258546D01*
X142762950Y-96258500D01*
X146926675Y-96258500D01*
X146994796Y-96278502D01*
X147037667Y-96324861D01*
X147080398Y-96404386D01*
X147083189Y-96408123D01*
X147083193Y-96408130D01*
X147158551Y-96509046D01*
X147229668Y-96604283D01*
X147406844Y-96779921D01*
X147410606Y-96782679D01*
X147410609Y-96782682D01*
X147600265Y-96921742D01*
X147608036Y-96927440D01*
X147612171Y-96929616D01*
X147612175Y-96929618D01*
X147659649Y-96954595D01*
X147828823Y-97043602D01*
X147960704Y-97089657D01*
X148017621Y-97109533D01*
X148064354Y-97125853D01*
X148068947Y-97126725D01*
X148304867Y-97171516D01*
X148304870Y-97171516D01*
X148309456Y-97172387D01*
X148434099Y-97177284D01*
X148554075Y-97181999D01*
X148554081Y-97181999D01*
X148558743Y-97182182D01*
X148656134Y-97171516D01*
X148802087Y-97155532D01*
X148802092Y-97155531D01*
X148806740Y-97155022D01*
X148846724Y-97144495D01*
X149043476Y-97092694D01*
X149043478Y-97092693D01*
X149047999Y-97091503D01*
X149052296Y-97089657D01*
X149272924Y-96994868D01*
X149272926Y-96994867D01*
X149277218Y-96993023D01*
X149387667Y-96924675D01*
X149485391Y-96864202D01*
X149485395Y-96864199D01*
X149489364Y-96861743D01*
X149679775Y-96700548D01*
X149761316Y-96607569D01*
X149841187Y-96516494D01*
X149841191Y-96516489D01*
X149844269Y-96512979D01*
X149979231Y-96303157D01*
X150081697Y-96075691D01*
X150149416Y-95835578D01*
X150180900Y-95588092D01*
X150183207Y-95500000D01*
X150179805Y-95454225D01*
X150165064Y-95255858D01*
X150165063Y-95255854D01*
X150164718Y-95251206D01*
X150109659Y-95007878D01*
X150107966Y-95003524D01*
X150020931Y-94779714D01*
X150020930Y-94779712D01*
X150019238Y-94775361D01*
X149994714Y-94732452D01*
X149943598Y-94643019D01*
X149895442Y-94558763D01*
X149740990Y-94362842D01*
X149559276Y-94191902D01*
X149443160Y-94111350D01*
X149358130Y-94052362D01*
X149358125Y-94052359D01*
X149354292Y-94049700D01*
X149350110Y-94047637D01*
X149350102Y-94047633D01*
X149134728Y-93941423D01*
X149134725Y-93941422D01*
X149130540Y-93939358D01*
X148892937Y-93863300D01*
X148888330Y-93862550D01*
X148888327Y-93862549D01*
X148651312Y-93823949D01*
X148651313Y-93823949D01*
X148646701Y-93823198D01*
X148525753Y-93821615D01*
X148401920Y-93819994D01*
X148401917Y-93819994D01*
X148397243Y-93819933D01*
X148150042Y-93853575D01*
X148145556Y-93854883D01*
X148145554Y-93854883D01*
X148116677Y-93863300D01*
X147910528Y-93923387D01*
X147906275Y-93925347D01*
X147906274Y-93925348D01*
X147878971Y-93937935D01*
X147683965Y-94027834D01*
X147680056Y-94030397D01*
X147479242Y-94162056D01*
X147479237Y-94162060D01*
X147475329Y-94164622D01*
X147382265Y-94247684D01*
X147340543Y-94284923D01*
X147289202Y-94330746D01*
X147129675Y-94522557D01*
X147033612Y-94680865D01*
X146981173Y-94728726D01*
X146925893Y-94741500D01*
X143116370Y-94741500D01*
X143048249Y-94721498D01*
X143027275Y-94704595D01*
X141066116Y-92743435D01*
X139083770Y-90761089D01*
X139071384Y-90746677D01*
X139062851Y-90735082D01*
X139062846Y-90735077D01*
X139058508Y-90729182D01*
X139052930Y-90724443D01*
X139052927Y-90724440D01*
X139018232Y-90694965D01*
X139010716Y-90688035D01*
X139005021Y-90682340D01*
X138998880Y-90677482D01*
X138982749Y-90664719D01*
X138979345Y-90661928D01*
X138929297Y-90619409D01*
X138929295Y-90619408D01*
X138923715Y-90614667D01*
X138917199Y-90611339D01*
X138912150Y-90607972D01*
X138907021Y-90604805D01*
X138901284Y-90600266D01*
X138835125Y-90569345D01*
X138831225Y-90567439D01*
X138766192Y-90534231D01*
X138759084Y-90532492D01*
X138753441Y-90530393D01*
X138747678Y-90528476D01*
X138741050Y-90525378D01*
X138669583Y-90510513D01*
X138665299Y-90509543D01*
X138664359Y-90509313D01*
X138594390Y-90492192D01*
X138588788Y-90491844D01*
X138588785Y-90491844D01*
X138583236Y-90491500D01*
X138583238Y-90491464D01*
X138579245Y-90491225D01*
X138575053Y-90490851D01*
X138567885Y-90489360D01*
X138504120Y-90491085D01*
X138490479Y-90491454D01*
X138487072Y-90491500D01*
X136067063Y-90491500D01*
X136048114Y-90490067D01*
X136047907Y-90490036D01*
X136026651Y-90486802D01*
X136019359Y-90487395D01*
X136019356Y-90487395D01*
X135973991Y-90491085D01*
X135963777Y-90491500D01*
X135955707Y-90491500D01*
X135952087Y-90491922D01*
X135952069Y-90491923D01*
X135927461Y-90494792D01*
X135923100Y-90495224D01*
X135903093Y-90496851D01*
X135857661Y-90500546D01*
X135857658Y-90500547D01*
X135850363Y-90501140D01*
X135843399Y-90503396D01*
X135837440Y-90504587D01*
X135831585Y-90505971D01*
X135824319Y-90506818D01*
X135755673Y-90531735D01*
X135751545Y-90533152D01*
X135689064Y-90553393D01*
X135689062Y-90553394D01*
X135682101Y-90555649D01*
X135675846Y-90559445D01*
X135670372Y-90561951D01*
X135664942Y-90564670D01*
X135658063Y-90567167D01*
X135597016Y-90607191D01*
X135593327Y-90609518D01*
X135584843Y-90614667D01*
X135535693Y-90644491D01*
X135535688Y-90644495D01*
X135530892Y-90647405D01*
X135522516Y-90654803D01*
X135522493Y-90654777D01*
X135519503Y-90657426D01*
X135516264Y-90660134D01*
X135510148Y-90664144D01*
X135505121Y-90669451D01*
X135505117Y-90669454D01*
X135456872Y-90720383D01*
X135454494Y-90722825D01*
X134222724Y-91954595D01*
X134160412Y-91988621D01*
X134133629Y-91991500D01*
X132292587Y-91991500D01*
X132218528Y-91967437D01*
X132212098Y-91962765D01*
X132212091Y-91962761D01*
X132206752Y-91958882D01*
X132200724Y-91956198D01*
X132200722Y-91956197D01*
X132038319Y-91883891D01*
X132038318Y-91883891D01*
X132032288Y-91881206D01*
X131926524Y-91858725D01*
X131851944Y-91842872D01*
X131851939Y-91842872D01*
X131845487Y-91841500D01*
X131654513Y-91841500D01*
X131648061Y-91842872D01*
X131648056Y-91842872D01*
X131573476Y-91858725D01*
X131467712Y-91881206D01*
X131461682Y-91883891D01*
X131461681Y-91883891D01*
X131299278Y-91956197D01*
X131299276Y-91956198D01*
X131293248Y-91958882D01*
X131287907Y-91962762D01*
X131287906Y-91962763D01*
X131260507Y-91982670D01*
X131138747Y-92071134D01*
X131010960Y-92213056D01*
X130915473Y-92378444D01*
X130856458Y-92560072D01*
X130855768Y-92566633D01*
X130855768Y-92566635D01*
X130844038Y-92678238D01*
X130836496Y-92750000D01*
X130856458Y-92939928D01*
X130915473Y-93121556D01*
X131010960Y-93286944D01*
X131015378Y-93291851D01*
X131015379Y-93291852D01*
X131106286Y-93392814D01*
X131138747Y-93428866D01*
X131191025Y-93466848D01*
X131287904Y-93537235D01*
X131293248Y-93541118D01*
X131299276Y-93543802D01*
X131299278Y-93543803D01*
X131409755Y-93592990D01*
X131467712Y-93618794D01*
X131561112Y-93638647D01*
X131648056Y-93657128D01*
X131648061Y-93657128D01*
X131654513Y-93658500D01*
X131845487Y-93658500D01*
X131851939Y-93657128D01*
X131851944Y-93657128D01*
X131938888Y-93638647D01*
X132032288Y-93618794D01*
X132090245Y-93592990D01*
X132200722Y-93543803D01*
X132200724Y-93543802D01*
X132206752Y-93541118D01*
X132212091Y-93537239D01*
X132212098Y-93537235D01*
X132218528Y-93532563D01*
X132292587Y-93508500D01*
X134432930Y-93508500D01*
X134451880Y-93509933D01*
X134466115Y-93512099D01*
X134466119Y-93512099D01*
X134473349Y-93513199D01*
X134480641Y-93512606D01*
X134480644Y-93512606D01*
X134526018Y-93508915D01*
X134536233Y-93508500D01*
X134544293Y-93508500D01*
X134557583Y-93506951D01*
X134572507Y-93505211D01*
X134576882Y-93504778D01*
X134642339Y-93499454D01*
X134642342Y-93499453D01*
X134649637Y-93498860D01*
X134656601Y-93496604D01*
X134662560Y-93495413D01*
X134668415Y-93494029D01*
X134675681Y-93493182D01*
X134744327Y-93468265D01*
X134748455Y-93466848D01*
X134810936Y-93446607D01*
X134810938Y-93446606D01*
X134817899Y-93444351D01*
X134824154Y-93440555D01*
X134829628Y-93438049D01*
X134835058Y-93435330D01*
X134841937Y-93432833D01*
X134855478Y-93423955D01*
X134902976Y-93392814D01*
X134906680Y-93390477D01*
X134969107Y-93352595D01*
X134977484Y-93345197D01*
X134977507Y-93345223D01*
X134980496Y-93342574D01*
X134983730Y-93339870D01*
X134989852Y-93335856D01*
X134990560Y-93335109D01*
X135053277Y-93307789D01*
X135123362Y-93319126D01*
X135176193Y-93366555D01*
X135194535Y-93421820D01*
X135200755Y-93492913D01*
X135186766Y-93562518D01*
X135164329Y-93592990D01*
X131802724Y-96954595D01*
X131740412Y-96988621D01*
X131713629Y-96991500D01*
X124817070Y-96991500D01*
X124798120Y-96990067D01*
X124783885Y-96987901D01*
X124783881Y-96987901D01*
X124776651Y-96986801D01*
X124769359Y-96987394D01*
X124769356Y-96987394D01*
X124723982Y-96991085D01*
X124713767Y-96991500D01*
X124705707Y-96991500D01*
X124692643Y-96993023D01*
X124677493Y-96994789D01*
X124673118Y-96995222D01*
X124607661Y-97000546D01*
X124607658Y-97000547D01*
X124600363Y-97001140D01*
X124593399Y-97003396D01*
X124587440Y-97004587D01*
X124581585Y-97005971D01*
X124574319Y-97006818D01*
X124505673Y-97031735D01*
X124501545Y-97033152D01*
X124439064Y-97053393D01*
X124439062Y-97053394D01*
X124432101Y-97055649D01*
X124425846Y-97059445D01*
X124420372Y-97061951D01*
X124414942Y-97064670D01*
X124408063Y-97067167D01*
X124401943Y-97071180D01*
X124401942Y-97071180D01*
X124347024Y-97107186D01*
X124343320Y-97109523D01*
X124280893Y-97147405D01*
X124272516Y-97154803D01*
X124272492Y-97154776D01*
X124269500Y-97157429D01*
X124266267Y-97160132D01*
X124260148Y-97164144D01*
X124252339Y-97172387D01*
X124206872Y-97220383D01*
X124204494Y-97222825D01*
X122750600Y-98676719D01*
X122736188Y-98689105D01*
X122724593Y-98697638D01*
X122724588Y-98697643D01*
X122718693Y-98701981D01*
X122713954Y-98707559D01*
X122713951Y-98707562D01*
X122684476Y-98742257D01*
X122677546Y-98749773D01*
X122671851Y-98755468D01*
X122669571Y-98758350D01*
X122654230Y-98777740D01*
X122651439Y-98781144D01*
X122608920Y-98831192D01*
X122604178Y-98836774D01*
X122600850Y-98843290D01*
X122597483Y-98848339D01*
X122594316Y-98853468D01*
X122589777Y-98859205D01*
X122558864Y-98925348D01*
X122556950Y-98929264D01*
X122528325Y-98985322D01*
X122505203Y-99017116D01*
X122262724Y-99259595D01*
X122200412Y-99293621D01*
X122173629Y-99296500D01*
X120789366Y-99296500D01*
X120727184Y-99303255D01*
X120590795Y-99354385D01*
X120474239Y-99441739D01*
X120386885Y-99558295D01*
X120379427Y-99578189D01*
X120336787Y-99634953D01*
X120270226Y-99659654D01*
X120200877Y-99644447D01*
X120183353Y-99632842D01*
X120065330Y-99539633D01*
X120065325Y-99539630D01*
X120061276Y-99536432D01*
X120056760Y-99533939D01*
X120056757Y-99533937D01*
X119855474Y-99422823D01*
X119855470Y-99422821D01*
X119850950Y-99420326D01*
X119846081Y-99418602D01*
X119846077Y-99418600D01*
X119629360Y-99341856D01*
X119629356Y-99341855D01*
X119624485Y-99340130D01*
X119619392Y-99339223D01*
X119619389Y-99339222D01*
X119393052Y-99298905D01*
X119393046Y-99298904D01*
X119387963Y-99297999D01*
X119295474Y-99296869D01*
X119152907Y-99295127D01*
X119152905Y-99295127D01*
X119147737Y-99295064D01*
X118969404Y-99322353D01*
X118920254Y-99329874D01*
X118849892Y-99320406D01*
X118812100Y-99294419D01*
X118715405Y-99197724D01*
X118681379Y-99135412D01*
X118678500Y-99108629D01*
X118678500Y-96131867D01*
X118698502Y-96063746D01*
X118732228Y-96028655D01*
X118764300Y-96006198D01*
X118926198Y-95844300D01*
X118932306Y-95835578D01*
X119054366Y-95661257D01*
X119057523Y-95656749D01*
X119059846Y-95651767D01*
X119059849Y-95651762D01*
X119151961Y-95454225D01*
X119151961Y-95454224D01*
X119154284Y-95449243D01*
X119202970Y-95267548D01*
X119203245Y-95266522D01*
X126797273Y-95266522D01*
X126844764Y-95443761D01*
X126848510Y-95454053D01*
X126940586Y-95651511D01*
X126946069Y-95661007D01*
X127071028Y-95839467D01*
X127078084Y-95847875D01*
X127232125Y-96001916D01*
X127240533Y-96008972D01*
X127418993Y-96133931D01*
X127428489Y-96139414D01*
X127625947Y-96231490D01*
X127636239Y-96235236D01*
X127808503Y-96281394D01*
X127822599Y-96281058D01*
X127826000Y-96273116D01*
X127826000Y-96267967D01*
X128334000Y-96267967D01*
X128337973Y-96281498D01*
X128346522Y-96282727D01*
X128523761Y-96235236D01*
X128534053Y-96231490D01*
X128731511Y-96139414D01*
X128741007Y-96133931D01*
X128919467Y-96008972D01*
X128927875Y-96001916D01*
X129081916Y-95847875D01*
X129088972Y-95839467D01*
X129213931Y-95661007D01*
X129219414Y-95651511D01*
X129311490Y-95454053D01*
X129315236Y-95443761D01*
X129361394Y-95271497D01*
X129361058Y-95257401D01*
X129353116Y-95254000D01*
X128352115Y-95254000D01*
X128336876Y-95258475D01*
X128335671Y-95259865D01*
X128334000Y-95267548D01*
X128334000Y-96267967D01*
X127826000Y-96267967D01*
X127826000Y-95272115D01*
X127821525Y-95256876D01*
X127820135Y-95255671D01*
X127812452Y-95254000D01*
X126812033Y-95254000D01*
X126798502Y-95257973D01*
X126797273Y-95266522D01*
X119203245Y-95266522D01*
X119212119Y-95233402D01*
X119212119Y-95233400D01*
X119213543Y-95228087D01*
X119233498Y-95000000D01*
X119213543Y-94771913D01*
X119203244Y-94733478D01*
X119201911Y-94728503D01*
X126798606Y-94728503D01*
X126798942Y-94742599D01*
X126806884Y-94746000D01*
X127807885Y-94746000D01*
X127823124Y-94741525D01*
X127824329Y-94740135D01*
X127826000Y-94732452D01*
X127826000Y-94727885D01*
X128334000Y-94727885D01*
X128338475Y-94743124D01*
X128339865Y-94744329D01*
X128347548Y-94746000D01*
X129347967Y-94746000D01*
X129361498Y-94742027D01*
X129362727Y-94733478D01*
X129315236Y-94556239D01*
X129311490Y-94545947D01*
X129219414Y-94348489D01*
X129213931Y-94338993D01*
X129088972Y-94160533D01*
X129081916Y-94152125D01*
X128927875Y-93998084D01*
X128919467Y-93991028D01*
X128741007Y-93866069D01*
X128731511Y-93860586D01*
X128534053Y-93768510D01*
X128523761Y-93764764D01*
X128351497Y-93718606D01*
X128337401Y-93718942D01*
X128334000Y-93726884D01*
X128334000Y-94727885D01*
X127826000Y-94727885D01*
X127826000Y-93732033D01*
X127822027Y-93718502D01*
X127813478Y-93717273D01*
X127636239Y-93764764D01*
X127625947Y-93768510D01*
X127428489Y-93860586D01*
X127418993Y-93866069D01*
X127240533Y-93991028D01*
X127232125Y-93998084D01*
X127078084Y-94152125D01*
X127071028Y-94160533D01*
X126946069Y-94338993D01*
X126940586Y-94348489D01*
X126848510Y-94545947D01*
X126844764Y-94556239D01*
X126798606Y-94728503D01*
X119201911Y-94728503D01*
X119155707Y-94556067D01*
X119155706Y-94556065D01*
X119154284Y-94550757D01*
X119139458Y-94518962D01*
X119059849Y-94348238D01*
X119059846Y-94348233D01*
X119057523Y-94343251D01*
X118984098Y-94238389D01*
X118929357Y-94160211D01*
X118929355Y-94160208D01*
X118926198Y-94155700D01*
X118764300Y-93993802D01*
X118759792Y-93990645D01*
X118759789Y-93990643D01*
X118633920Y-93902509D01*
X118576749Y-93862477D01*
X118571767Y-93860154D01*
X118571762Y-93860151D01*
X118374225Y-93768039D01*
X118374224Y-93768039D01*
X118369243Y-93765716D01*
X118363935Y-93764294D01*
X118363933Y-93764293D01*
X118153402Y-93707881D01*
X118153400Y-93707881D01*
X118148087Y-93706457D01*
X117920000Y-93686502D01*
X117691913Y-93706457D01*
X117686600Y-93707881D01*
X117686598Y-93707881D01*
X117487600Y-93761203D01*
X117416624Y-93759513D01*
X117357828Y-93719719D01*
X117329880Y-93654455D01*
X117328989Y-93639496D01*
X117328989Y-91982670D01*
X128632160Y-91982670D01*
X128637887Y-91990320D01*
X128809042Y-92095205D01*
X128817837Y-92099687D01*
X129027988Y-92186734D01*
X129037373Y-92189783D01*
X129258554Y-92242885D01*
X129268301Y-92244428D01*
X129495070Y-92262275D01*
X129504930Y-92262275D01*
X129731699Y-92244428D01*
X129741446Y-92242885D01*
X129962627Y-92189783D01*
X129972012Y-92186734D01*
X130182163Y-92099687D01*
X130190958Y-92095205D01*
X130358445Y-91992568D01*
X130367907Y-91982110D01*
X130364124Y-91973334D01*
X129512812Y-91122022D01*
X129498868Y-91114408D01*
X129497035Y-91114539D01*
X129490420Y-91118790D01*
X128638920Y-91970290D01*
X128632160Y-91982670D01*
X117328989Y-91982670D01*
X117328989Y-90754930D01*
X127987725Y-90754930D01*
X128005572Y-90981699D01*
X128007115Y-90991446D01*
X128060217Y-91212627D01*
X128063266Y-91222012D01*
X128150313Y-91432163D01*
X128154795Y-91440958D01*
X128257432Y-91608445D01*
X128267890Y-91617907D01*
X128276666Y-91614124D01*
X129127978Y-90762812D01*
X129134356Y-90751132D01*
X129864408Y-90751132D01*
X129864539Y-90752965D01*
X129868790Y-90759580D01*
X130720290Y-91611080D01*
X130732670Y-91617840D01*
X130740320Y-91612113D01*
X130845205Y-91440958D01*
X130849687Y-91432163D01*
X130936734Y-91222012D01*
X130939783Y-91212627D01*
X130992885Y-90991446D01*
X130994428Y-90981699D01*
X131012275Y-90754930D01*
X131012275Y-90745070D01*
X130994428Y-90518301D01*
X130992885Y-90508554D01*
X130980253Y-90455939D01*
X141817370Y-90455939D01*
X141817594Y-90460606D01*
X141817594Y-90460611D01*
X141821130Y-90534231D01*
X141829339Y-90705131D01*
X141878010Y-90949818D01*
X141962314Y-91184622D01*
X142080398Y-91404386D01*
X142083193Y-91408130D01*
X142083195Y-91408132D01*
X142151694Y-91499863D01*
X142229668Y-91604283D01*
X142406844Y-91779921D01*
X142410606Y-91782679D01*
X142410609Y-91782682D01*
X142543109Y-91879834D01*
X142608036Y-91927440D01*
X142612171Y-91929616D01*
X142612175Y-91929618D01*
X142689480Y-91970290D01*
X142828823Y-92043602D01*
X142907663Y-92071134D01*
X143023643Y-92111636D01*
X143064354Y-92125853D01*
X143068947Y-92126725D01*
X143304867Y-92171516D01*
X143304870Y-92171516D01*
X143309456Y-92172387D01*
X143434100Y-92177285D01*
X143554075Y-92181999D01*
X143554081Y-92181999D01*
X143558743Y-92182182D01*
X143656134Y-92171516D01*
X143802087Y-92155532D01*
X143802092Y-92155531D01*
X143806740Y-92155022D01*
X143811264Y-92153831D01*
X144043476Y-92092694D01*
X144043478Y-92092693D01*
X144047999Y-92091503D01*
X144083979Y-92076045D01*
X144272924Y-91994868D01*
X144272926Y-91994867D01*
X144277218Y-91993023D01*
X144387667Y-91924675D01*
X144485391Y-91864202D01*
X144485395Y-91864199D01*
X144489364Y-91861743D01*
X144679775Y-91700548D01*
X144700319Y-91677122D01*
X144841187Y-91516494D01*
X144841191Y-91516489D01*
X144844269Y-91512979D01*
X144890595Y-91440958D01*
X144976703Y-91307087D01*
X144979231Y-91303157D01*
X145081697Y-91075691D01*
X145108206Y-90981699D01*
X145148146Y-90840082D01*
X145148147Y-90840079D01*
X145149416Y-90835578D01*
X145162951Y-90729182D01*
X145180502Y-90591222D01*
X145180502Y-90591218D01*
X145180900Y-90588092D01*
X145181045Y-90582585D01*
X145182728Y-90518301D01*
X145183207Y-90500000D01*
X145182555Y-90491225D01*
X145165064Y-90255858D01*
X145165063Y-90255854D01*
X145164718Y-90251206D01*
X145109659Y-90007878D01*
X145096652Y-89974431D01*
X145020931Y-89779714D01*
X145020930Y-89779712D01*
X145019238Y-89775361D01*
X144895442Y-89558763D01*
X144740990Y-89362842D01*
X144559276Y-89191902D01*
X144423981Y-89098045D01*
X144358130Y-89052362D01*
X144358125Y-89052359D01*
X144354292Y-89049700D01*
X144350110Y-89047637D01*
X144350102Y-89047633D01*
X144134728Y-88941423D01*
X144134725Y-88941422D01*
X144130540Y-88939358D01*
X143892937Y-88863300D01*
X143888330Y-88862550D01*
X143888327Y-88862549D01*
X143651312Y-88823949D01*
X143651313Y-88823949D01*
X143646701Y-88823198D01*
X143525753Y-88821615D01*
X143401920Y-88819994D01*
X143401917Y-88819994D01*
X143397243Y-88819933D01*
X143150042Y-88853575D01*
X143145556Y-88854883D01*
X143145554Y-88854883D01*
X143116677Y-88863300D01*
X142910528Y-88923387D01*
X142683965Y-89027834D01*
X142680056Y-89030397D01*
X142479242Y-89162056D01*
X142479237Y-89162060D01*
X142475329Y-89164622D01*
X142289202Y-89330746D01*
X142129675Y-89522557D01*
X142000252Y-89735840D01*
X141998443Y-89740154D01*
X141998442Y-89740156D01*
X141937337Y-89885876D01*
X141903775Y-89965911D01*
X141902624Y-89970443D01*
X141902623Y-89970446D01*
X141891959Y-90012435D01*
X141842365Y-90207714D01*
X141817370Y-90455939D01*
X130980253Y-90455939D01*
X130939783Y-90287373D01*
X130936734Y-90277988D01*
X130849687Y-90067837D01*
X130845205Y-90059042D01*
X130742568Y-89891555D01*
X130732110Y-89882093D01*
X130723334Y-89885876D01*
X129872022Y-90737188D01*
X129864408Y-90751132D01*
X129134356Y-90751132D01*
X129135592Y-90748868D01*
X129135461Y-90747035D01*
X129131210Y-90740420D01*
X128279710Y-89888920D01*
X128267330Y-89882160D01*
X128259680Y-89887887D01*
X128154795Y-90059042D01*
X128150313Y-90067837D01*
X128063266Y-90277988D01*
X128060217Y-90287373D01*
X128007115Y-90508554D01*
X128005572Y-90518301D01*
X127987725Y-90745070D01*
X127987725Y-90754930D01*
X117328989Y-90754930D01*
X117328989Y-90433411D01*
X120278493Y-90433411D01*
X120287789Y-90445426D01*
X120338994Y-90481280D01*
X120348489Y-90486763D01*
X120545947Y-90578839D01*
X120556239Y-90582585D01*
X120766688Y-90638974D01*
X120777481Y-90640877D01*
X120994525Y-90659866D01*
X121005475Y-90659866D01*
X121222519Y-90640877D01*
X121233312Y-90638974D01*
X121443761Y-90582585D01*
X121454053Y-90578839D01*
X121651511Y-90486763D01*
X121661006Y-90481280D01*
X121713048Y-90444840D01*
X121721424Y-90434361D01*
X121714356Y-90420915D01*
X121012812Y-89719371D01*
X120998868Y-89711757D01*
X120997035Y-89711888D01*
X120990420Y-89716139D01*
X120284923Y-90421636D01*
X120278493Y-90433411D01*
X117328989Y-90433411D01*
X117328989Y-89352824D01*
X119687483Y-89352824D01*
X119706472Y-89569868D01*
X119708375Y-89580661D01*
X119764764Y-89791110D01*
X119768510Y-89801402D01*
X119860586Y-89998860D01*
X119866069Y-90008355D01*
X119902509Y-90060397D01*
X119912988Y-90068773D01*
X119926434Y-90061705D01*
X120627978Y-89360161D01*
X120634356Y-89348481D01*
X121364408Y-89348481D01*
X121364539Y-89350314D01*
X121368790Y-89356929D01*
X122074287Y-90062426D01*
X122086062Y-90068856D01*
X122098077Y-90059560D01*
X122133931Y-90008355D01*
X122139414Y-89998860D01*
X122231490Y-89801402D01*
X122235236Y-89791110D01*
X122291625Y-89580661D01*
X122293528Y-89569868D01*
X122298076Y-89517890D01*
X128632093Y-89517890D01*
X128635876Y-89526666D01*
X129487188Y-90377978D01*
X129501132Y-90385592D01*
X129502965Y-90385461D01*
X129509580Y-90381210D01*
X130361080Y-89529710D01*
X130367840Y-89517330D01*
X130362113Y-89509680D01*
X130190958Y-89404795D01*
X130182163Y-89400313D01*
X129972012Y-89313266D01*
X129962627Y-89310217D01*
X129741446Y-89257115D01*
X129731699Y-89255572D01*
X129504930Y-89237725D01*
X129495070Y-89237725D01*
X129268301Y-89255572D01*
X129258554Y-89257115D01*
X129037373Y-89310217D01*
X129027988Y-89313266D01*
X128817837Y-89400313D01*
X128809042Y-89404795D01*
X128641555Y-89507432D01*
X128632093Y-89517890D01*
X122298076Y-89517890D01*
X122312517Y-89352824D01*
X122312517Y-89341874D01*
X122293528Y-89124830D01*
X122291625Y-89114037D01*
X122235236Y-88903588D01*
X122231490Y-88893296D01*
X122139414Y-88695838D01*
X122133931Y-88686343D01*
X122097491Y-88634301D01*
X122087012Y-88625925D01*
X122073566Y-88632993D01*
X121372022Y-89334537D01*
X121364408Y-89348481D01*
X120634356Y-89348481D01*
X120635592Y-89346217D01*
X120635461Y-89344384D01*
X120631210Y-89337769D01*
X119925713Y-88632272D01*
X119913938Y-88625842D01*
X119901923Y-88635138D01*
X119866069Y-88686343D01*
X119860586Y-88695838D01*
X119768510Y-88893296D01*
X119764764Y-88903588D01*
X119708375Y-89114037D01*
X119706472Y-89124830D01*
X119687483Y-89341874D01*
X119687483Y-89352824D01*
X117328989Y-89352824D01*
X117328989Y-89143231D01*
X117348991Y-89075110D01*
X117365894Y-89054136D01*
X118159693Y-88260337D01*
X120278576Y-88260337D01*
X120285644Y-88273783D01*
X120987188Y-88975327D01*
X121001132Y-88982941D01*
X121002965Y-88982810D01*
X121009580Y-88978559D01*
X121715077Y-88273062D01*
X121721507Y-88261287D01*
X121712211Y-88249272D01*
X121661006Y-88213418D01*
X121651511Y-88207935D01*
X121454053Y-88115859D01*
X121443761Y-88112113D01*
X121233312Y-88055724D01*
X121222519Y-88053821D01*
X121005475Y-88034832D01*
X120994525Y-88034832D01*
X120777481Y-88053821D01*
X120766688Y-88055724D01*
X120556239Y-88112113D01*
X120545947Y-88115859D01*
X120348489Y-88207935D01*
X120338994Y-88213418D01*
X120286952Y-88249858D01*
X120278576Y-88260337D01*
X118159693Y-88260337D01*
X120727276Y-85692754D01*
X120789588Y-85658728D01*
X120816371Y-85655849D01*
X121848134Y-85655849D01*
X121910316Y-85649094D01*
X122046705Y-85597964D01*
X122163261Y-85510610D01*
X122250615Y-85394054D01*
X122301745Y-85257665D01*
X122306028Y-85218241D01*
X122333270Y-85152679D01*
X122391634Y-85112253D01*
X122431291Y-85105849D01*
X128335581Y-85105849D01*
X128354531Y-85107282D01*
X128368766Y-85109448D01*
X128368770Y-85109448D01*
X128376000Y-85110548D01*
X128383292Y-85109955D01*
X128383295Y-85109955D01*
X128428669Y-85106264D01*
X128438884Y-85105849D01*
X128446944Y-85105849D01*
X128460234Y-85104300D01*
X128475158Y-85102560D01*
X128479533Y-85102127D01*
X128544990Y-85096803D01*
X128544993Y-85096802D01*
X128552288Y-85096209D01*
X128559252Y-85093953D01*
X128565211Y-85092762D01*
X128571066Y-85091378D01*
X128578332Y-85090531D01*
X128646978Y-85065614D01*
X128651106Y-85064197D01*
X128713587Y-85043956D01*
X128713589Y-85043955D01*
X128720550Y-85041700D01*
X128726805Y-85037904D01*
X128732279Y-85035398D01*
X128737709Y-85032679D01*
X128744588Y-85030182D01*
X128772416Y-85011937D01*
X128805627Y-84990163D01*
X128809331Y-84987826D01*
X128871758Y-84949944D01*
X128880135Y-84942546D01*
X128880159Y-84942573D01*
X128883150Y-84939921D01*
X128886384Y-84937217D01*
X128892503Y-84933205D01*
X128945745Y-84877002D01*
X128948121Y-84874561D01*
X129064094Y-84758588D01*
X129126406Y-84724562D01*
X129182603Y-84725164D01*
X129258476Y-84743380D01*
X129258482Y-84743381D01*
X129263289Y-84744535D01*
X129500000Y-84763165D01*
X129736711Y-84744535D01*
X129741518Y-84743381D01*
X129741524Y-84743380D01*
X129887391Y-84708360D01*
X129967594Y-84689105D01*
X129988871Y-84680292D01*
X130182058Y-84600272D01*
X149286942Y-84600272D01*
X149293222Y-84672053D01*
X149294497Y-84680292D01*
X149358110Y-84964880D01*
X149360464Y-84972877D01*
X149461150Y-85246534D01*
X149464550Y-85254172D01*
X149600549Y-85512115D01*
X149604916Y-85519213D01*
X149773835Y-85756905D01*
X149779108Y-85763372D01*
X149977983Y-85976639D01*
X149984067Y-85982351D01*
X150209393Y-86167437D01*
X150216174Y-86172292D01*
X150464013Y-86325958D01*
X150471373Y-86329871D01*
X150737346Y-86449404D01*
X150745169Y-86452314D01*
X151024625Y-86535624D01*
X151032746Y-86537469D01*
X151321429Y-86583191D01*
X151328403Y-86583899D01*
X151417286Y-86587936D01*
X151420119Y-86588000D01*
X153007885Y-86588000D01*
X153023124Y-86583525D01*
X153024329Y-86582135D01*
X153026000Y-86574452D01*
X153026000Y-86569885D01*
X153534000Y-86569885D01*
X153538475Y-86585124D01*
X153539865Y-86586329D01*
X153547548Y-86588000D01*
X155103993Y-86588000D01*
X155108182Y-86587861D01*
X155325132Y-86573451D01*
X155333403Y-86572347D01*
X155619251Y-86514710D01*
X155627303Y-86512522D01*
X155903005Y-86417591D01*
X155910716Y-86414350D01*
X156171444Y-86283787D01*
X156178638Y-86279566D01*
X156419820Y-86115659D01*
X156426390Y-86110526D01*
X156643775Y-85916161D01*
X156649608Y-85910205D01*
X156839378Y-85688797D01*
X156844376Y-85682116D01*
X157003191Y-85437563D01*
X157007265Y-85430273D01*
X157132338Y-85166868D01*
X157135414Y-85159100D01*
X157224552Y-84881469D01*
X157226573Y-84873363D01*
X157275429Y-84601830D01*
X157273997Y-84588571D01*
X157259387Y-84584000D01*
X153552115Y-84584000D01*
X153536876Y-84588475D01*
X153535671Y-84589865D01*
X153534000Y-84597548D01*
X153534000Y-86569885D01*
X153026000Y-86569885D01*
X153026000Y-84602115D01*
X153021525Y-84586876D01*
X153020135Y-84585671D01*
X153012452Y-84584000D01*
X149303633Y-84584000D01*
X149289004Y-84588295D01*
X149286942Y-84600272D01*
X130182058Y-84600272D01*
X130182389Y-84600135D01*
X130182393Y-84600133D01*
X130186963Y-84598240D01*
X130207474Y-84585671D01*
X130385202Y-84476759D01*
X130385208Y-84476755D01*
X130389416Y-84474176D01*
X130569969Y-84319969D01*
X130724176Y-84139416D01*
X130767533Y-84068664D01*
X130820181Y-84021033D01*
X130874965Y-84008500D01*
X135435812Y-84008500D01*
X135503933Y-84028502D01*
X135524907Y-84045405D01*
X135655700Y-84176198D01*
X135660208Y-84179355D01*
X135660211Y-84179357D01*
X135713041Y-84216349D01*
X135843251Y-84307523D01*
X135848233Y-84309846D01*
X135848238Y-84309849D01*
X136025966Y-84392724D01*
X136050757Y-84404284D01*
X136056065Y-84405706D01*
X136056067Y-84405707D01*
X136266598Y-84462119D01*
X136266600Y-84462119D01*
X136271913Y-84463543D01*
X136500000Y-84483498D01*
X136728087Y-84463543D01*
X136733400Y-84462119D01*
X136733402Y-84462119D01*
X136943933Y-84405707D01*
X136943935Y-84405706D01*
X136949243Y-84404284D01*
X136974034Y-84392724D01*
X137151762Y-84309849D01*
X137151767Y-84309846D01*
X137156749Y-84307523D01*
X137286959Y-84216349D01*
X137339789Y-84179357D01*
X137339792Y-84179355D01*
X137344300Y-84176198D01*
X137462328Y-84058170D01*
X149284571Y-84058170D01*
X149286003Y-84071429D01*
X149300613Y-84076000D01*
X153007885Y-84076000D01*
X153023124Y-84071525D01*
X153024329Y-84070135D01*
X153026000Y-84062452D01*
X153026000Y-84057885D01*
X153534000Y-84057885D01*
X153538475Y-84073124D01*
X153539865Y-84074329D01*
X153547548Y-84076000D01*
X157256367Y-84076000D01*
X157270996Y-84071705D01*
X157273058Y-84059728D01*
X157266778Y-83987947D01*
X157265503Y-83979708D01*
X157201890Y-83695120D01*
X157199536Y-83687123D01*
X157098850Y-83413466D01*
X157095450Y-83405828D01*
X156959451Y-83147885D01*
X156955084Y-83140787D01*
X156786165Y-82903095D01*
X156780892Y-82896628D01*
X156582017Y-82683361D01*
X156575933Y-82677649D01*
X156350607Y-82492563D01*
X156343826Y-82487708D01*
X156095987Y-82334042D01*
X156088627Y-82330129D01*
X155822654Y-82210596D01*
X155814831Y-82207686D01*
X155535375Y-82124376D01*
X155527254Y-82122531D01*
X155238571Y-82076809D01*
X155231597Y-82076101D01*
X155142714Y-82072064D01*
X155139881Y-82072000D01*
X153552115Y-82072000D01*
X153536876Y-82076475D01*
X153535671Y-82077865D01*
X153534000Y-82085548D01*
X153534000Y-84057885D01*
X153026000Y-84057885D01*
X153026000Y-82090115D01*
X153021525Y-82074876D01*
X153020135Y-82073671D01*
X153012452Y-82072000D01*
X151456007Y-82072000D01*
X151451818Y-82072139D01*
X151234868Y-82086549D01*
X151226597Y-82087653D01*
X150940749Y-82145290D01*
X150932697Y-82147478D01*
X150656995Y-82242409D01*
X150649284Y-82245650D01*
X150388556Y-82376213D01*
X150381362Y-82380434D01*
X150140180Y-82544341D01*
X150133610Y-82549474D01*
X149916225Y-82743839D01*
X149910392Y-82749795D01*
X149720622Y-82971203D01*
X149715624Y-82977884D01*
X149556809Y-83222437D01*
X149552735Y-83229727D01*
X149427662Y-83493132D01*
X149424586Y-83500900D01*
X149335448Y-83778531D01*
X149333427Y-83786637D01*
X149284571Y-84058170D01*
X137462328Y-84058170D01*
X137506198Y-84014300D01*
X137510260Y-84008500D01*
X137634366Y-83831257D01*
X137637523Y-83826749D01*
X137639846Y-83821767D01*
X137639849Y-83821762D01*
X137731961Y-83624225D01*
X137731961Y-83624224D01*
X137734284Y-83619243D01*
X137746675Y-83573002D01*
X137792119Y-83403402D01*
X137792119Y-83403400D01*
X137793543Y-83398087D01*
X137813498Y-83170000D01*
X137793543Y-82941913D01*
X137789241Y-82925857D01*
X137735707Y-82726067D01*
X137735706Y-82726065D01*
X137734284Y-82720757D01*
X137672343Y-82587923D01*
X137639849Y-82518238D01*
X137639846Y-82518233D01*
X137637523Y-82513251D01*
X137506198Y-82325700D01*
X137344300Y-82163802D01*
X137339792Y-82160645D01*
X137339789Y-82160643D01*
X137235548Y-82087653D01*
X137156749Y-82032477D01*
X137151767Y-82030154D01*
X137151762Y-82030151D01*
X136954225Y-81938039D01*
X136954224Y-81938039D01*
X136949243Y-81935716D01*
X136943935Y-81934294D01*
X136943933Y-81934293D01*
X136733402Y-81877881D01*
X136733400Y-81877881D01*
X136728087Y-81876457D01*
X136500000Y-81856502D01*
X136271913Y-81876457D01*
X136266600Y-81877881D01*
X136266598Y-81877881D01*
X136056067Y-81934293D01*
X136056065Y-81934294D01*
X136050757Y-81935716D01*
X136045776Y-81938039D01*
X136045775Y-81938039D01*
X135848238Y-82030151D01*
X135848233Y-82030154D01*
X135843251Y-82032477D01*
X135764452Y-82087653D01*
X135660211Y-82160643D01*
X135660208Y-82160645D01*
X135655700Y-82163802D01*
X135493802Y-82325700D01*
X135490645Y-82330208D01*
X135490643Y-82330211D01*
X135415329Y-82437771D01*
X135359872Y-82482099D01*
X135312116Y-82491500D01*
X130874965Y-82491500D01*
X130806844Y-82471498D01*
X130767533Y-82431336D01*
X130724176Y-82360584D01*
X130600972Y-82216331D01*
X130571941Y-82151541D01*
X130582546Y-82081341D01*
X130629421Y-82028018D01*
X130696783Y-82008500D01*
X132182930Y-82008500D01*
X132201880Y-82009933D01*
X132216115Y-82012099D01*
X132216119Y-82012099D01*
X132223349Y-82013199D01*
X132230641Y-82012606D01*
X132230644Y-82012606D01*
X132276018Y-82008915D01*
X132286233Y-82008500D01*
X132294293Y-82008500D01*
X132311680Y-82006473D01*
X132322507Y-82005211D01*
X132326882Y-82004778D01*
X132392339Y-81999454D01*
X132392342Y-81999453D01*
X132399637Y-81998860D01*
X132406601Y-81996604D01*
X132412560Y-81995413D01*
X132418415Y-81994029D01*
X132425681Y-81993182D01*
X132494327Y-81968265D01*
X132498455Y-81966848D01*
X132560936Y-81946607D01*
X132560938Y-81946606D01*
X132567899Y-81944351D01*
X132574154Y-81940555D01*
X132579628Y-81938049D01*
X132585058Y-81935330D01*
X132591937Y-81932833D01*
X132637690Y-81902836D01*
X132652976Y-81892814D01*
X132656680Y-81890477D01*
X132719107Y-81852595D01*
X132727484Y-81845197D01*
X132727508Y-81845224D01*
X132730500Y-81842571D01*
X132733733Y-81839868D01*
X132739852Y-81835856D01*
X132793128Y-81779617D01*
X132795506Y-81777175D01*
X134397750Y-80174931D01*
X134460062Y-80140905D01*
X134528384Y-80145070D01*
X134535337Y-80147498D01*
X134556568Y-80154912D01*
X134806050Y-80202278D01*
X134926532Y-80207011D01*
X135055125Y-80212064D01*
X135055130Y-80212064D01*
X135059793Y-80212247D01*
X135158774Y-80201407D01*
X135307569Y-80185112D01*
X135307575Y-80185111D01*
X135312222Y-80184602D01*
X135421680Y-80155784D01*
X135553273Y-80121138D01*
X135557793Y-80119948D01*
X135675811Y-80069244D01*
X135786807Y-80021557D01*
X135786810Y-80021555D01*
X135791110Y-80019708D01*
X135795090Y-80017245D01*
X135795094Y-80017243D01*
X136003064Y-79888547D01*
X136003066Y-79888545D01*
X136007047Y-79886082D01*
X136079082Y-79825100D01*
X136197289Y-79725031D01*
X136197291Y-79725029D01*
X136200862Y-79722006D01*
X136368295Y-79531084D01*
X136371825Y-79525597D01*
X136503141Y-79321442D01*
X136505669Y-79317512D01*
X136536081Y-79250000D01*
X146436502Y-79250000D01*
X146456457Y-79478087D01*
X146457881Y-79483400D01*
X146457881Y-79483402D01*
X146474692Y-79546139D01*
X146515716Y-79699243D01*
X146518039Y-79704224D01*
X146518039Y-79704225D01*
X146610151Y-79901762D01*
X146610154Y-79901767D01*
X146612477Y-79906749D01*
X146743802Y-80094300D01*
X146905700Y-80256198D01*
X146910208Y-80259355D01*
X146910211Y-80259357D01*
X146941292Y-80281120D01*
X147093251Y-80387523D01*
X147098233Y-80389846D01*
X147098238Y-80389849D01*
X147295775Y-80481961D01*
X147300757Y-80484284D01*
X147306065Y-80485706D01*
X147306067Y-80485707D01*
X147516598Y-80542119D01*
X147516600Y-80542119D01*
X147521913Y-80543543D01*
X147621480Y-80552254D01*
X147690149Y-80558262D01*
X147690156Y-80558262D01*
X147692873Y-80558500D01*
X148707127Y-80558500D01*
X148709844Y-80558262D01*
X148709851Y-80558262D01*
X148778520Y-80552254D01*
X148878087Y-80543543D01*
X148883400Y-80542119D01*
X148883402Y-80542119D01*
X149093933Y-80485707D01*
X149093935Y-80485706D01*
X149099243Y-80484284D01*
X149104225Y-80481961D01*
X149301762Y-80389849D01*
X149301767Y-80389846D01*
X149306749Y-80387523D01*
X149458708Y-80281120D01*
X149489789Y-80259357D01*
X149489792Y-80259355D01*
X149494300Y-80256198D01*
X149656198Y-80094300D01*
X149787523Y-79906749D01*
X149789846Y-79901767D01*
X149789849Y-79901762D01*
X149881961Y-79704225D01*
X149881961Y-79704224D01*
X149884284Y-79699243D01*
X149925309Y-79546139D01*
X149942119Y-79483402D01*
X149942119Y-79483400D01*
X149943543Y-79478087D01*
X149963498Y-79250000D01*
X149943543Y-79021913D01*
X149931060Y-78975325D01*
X149885707Y-78806067D01*
X149885706Y-78806065D01*
X149884284Y-78800757D01*
X149861881Y-78752713D01*
X149789849Y-78598238D01*
X149789846Y-78598233D01*
X149787523Y-78593251D01*
X149687565Y-78450497D01*
X149659357Y-78410211D01*
X149659355Y-78410208D01*
X149656198Y-78405700D01*
X149494300Y-78243802D01*
X149489792Y-78240645D01*
X149489789Y-78240643D01*
X149349683Y-78142540D01*
X149306749Y-78112477D01*
X149301767Y-78110154D01*
X149301762Y-78110151D01*
X149266951Y-78093919D01*
X149213666Y-78047002D01*
X149194205Y-77978725D01*
X149214747Y-77910765D01*
X149266951Y-77865529D01*
X149301511Y-77849414D01*
X149311007Y-77843931D01*
X149489467Y-77718972D01*
X149497875Y-77711916D01*
X149651916Y-77557875D01*
X149658972Y-77549467D01*
X149783931Y-77371007D01*
X149789414Y-77361511D01*
X149881490Y-77164053D01*
X149885236Y-77153761D01*
X149931394Y-76981497D01*
X149931058Y-76967401D01*
X149923116Y-76964000D01*
X146482033Y-76964000D01*
X146468502Y-76967973D01*
X146467273Y-76976522D01*
X146514764Y-77153761D01*
X146518510Y-77164053D01*
X146610586Y-77361511D01*
X146616069Y-77371007D01*
X146741028Y-77549467D01*
X146748084Y-77557875D01*
X146902125Y-77711916D01*
X146910533Y-77718972D01*
X147088993Y-77843931D01*
X147098489Y-77849414D01*
X147133049Y-77865529D01*
X147186334Y-77912446D01*
X147205795Y-77980723D01*
X147185253Y-78048683D01*
X147133049Y-78093919D01*
X147098238Y-78110151D01*
X147098233Y-78110154D01*
X147093251Y-78112477D01*
X147050317Y-78142540D01*
X146910211Y-78240643D01*
X146910208Y-78240645D01*
X146905700Y-78243802D01*
X146743802Y-78405700D01*
X146740645Y-78410208D01*
X146740643Y-78410211D01*
X146712435Y-78450497D01*
X146612477Y-78593251D01*
X146610154Y-78598233D01*
X146610151Y-78598238D01*
X146538119Y-78752713D01*
X146515716Y-78800757D01*
X146514294Y-78806065D01*
X146514293Y-78806067D01*
X146468940Y-78975325D01*
X146456457Y-79021913D01*
X146436502Y-79250000D01*
X136536081Y-79250000D01*
X136609967Y-79085980D01*
X136678896Y-78841575D01*
X136696382Y-78704126D01*
X136710545Y-78592798D01*
X136710545Y-78592792D01*
X136710943Y-78589667D01*
X136713291Y-78500000D01*
X136703129Y-78363257D01*
X136694818Y-78251411D01*
X136694817Y-78251407D01*
X136694472Y-78246759D01*
X136693089Y-78240643D01*
X136639459Y-78003639D01*
X136638428Y-77999082D01*
X136636735Y-77994728D01*
X136548084Y-77766762D01*
X136548083Y-77766760D01*
X136546391Y-77762409D01*
X136538635Y-77748839D01*
X136422702Y-77545997D01*
X136422700Y-77545995D01*
X136420383Y-77541940D01*
X136263171Y-77342517D01*
X136078209Y-77168523D01*
X136003032Y-77116371D01*
X135873393Y-77026437D01*
X135873390Y-77026435D01*
X135869561Y-77023779D01*
X135865384Y-77021719D01*
X135865377Y-77021715D01*
X135645996Y-76913528D01*
X135645992Y-76913527D01*
X135641810Y-76911464D01*
X135399960Y-76834047D01*
X135395355Y-76833297D01*
X135153935Y-76793980D01*
X135153934Y-76793980D01*
X135149323Y-76793229D01*
X135022365Y-76791567D01*
X134900083Y-76789966D01*
X134900080Y-76789966D01*
X134895406Y-76789905D01*
X134643787Y-76824149D01*
X134399993Y-76895208D01*
X134169380Y-77001522D01*
X134165471Y-77004085D01*
X133960928Y-77138189D01*
X133960923Y-77138193D01*
X133957015Y-77140755D01*
X133767562Y-77309848D01*
X133605183Y-77505087D01*
X133473447Y-77722182D01*
X133471638Y-77726496D01*
X133471637Y-77726498D01*
X133393663Y-77912446D01*
X133375246Y-77956365D01*
X133374095Y-77960897D01*
X133374094Y-77960900D01*
X133369567Y-77978725D01*
X133312738Y-78202490D01*
X133287296Y-78455151D01*
X133287520Y-78459817D01*
X133287520Y-78459822D01*
X133290727Y-78526575D01*
X133299480Y-78708798D01*
X133349021Y-78957857D01*
X133350600Y-78962254D01*
X133350600Y-78962255D01*
X133353846Y-78971297D01*
X133358038Y-79042170D01*
X133324352Y-79102967D01*
X131972724Y-80454595D01*
X131910412Y-80488621D01*
X131883629Y-80491500D01*
X129813111Y-80491500D01*
X129744990Y-80471498D01*
X129698497Y-80417842D01*
X129688393Y-80347568D01*
X129717887Y-80282988D01*
X129780500Y-80243793D01*
X129882333Y-80216507D01*
X129882335Y-80216506D01*
X129887643Y-80215084D01*
X129893727Y-80212247D01*
X130090162Y-80120649D01*
X130090167Y-80120646D01*
X130095149Y-80118323D01*
X130233345Y-80021557D01*
X130278189Y-79990157D01*
X130278192Y-79990155D01*
X130282700Y-79986998D01*
X130444598Y-79825100D01*
X130575923Y-79637549D01*
X130578246Y-79632567D01*
X130578249Y-79632562D01*
X130670361Y-79435025D01*
X130670361Y-79435024D01*
X130672684Y-79430043D01*
X130718284Y-79259865D01*
X130730519Y-79214202D01*
X130730519Y-79214200D01*
X130731943Y-79208887D01*
X130751898Y-78980800D01*
X130731943Y-78752713D01*
X130730144Y-78746000D01*
X130674107Y-78536867D01*
X130674106Y-78536865D01*
X130672684Y-78531557D01*
X130660942Y-78506376D01*
X130578249Y-78329038D01*
X130578246Y-78329033D01*
X130575923Y-78324051D01*
X130490670Y-78202298D01*
X130447757Y-78141011D01*
X130447755Y-78141008D01*
X130444598Y-78136500D01*
X130282700Y-77974602D01*
X130250629Y-77952145D01*
X130206301Y-77896690D01*
X130196900Y-77848933D01*
X130196900Y-76438503D01*
X146468606Y-76438503D01*
X146468942Y-76452599D01*
X146476884Y-76456000D01*
X147927885Y-76456000D01*
X147943124Y-76451525D01*
X147944329Y-76450135D01*
X147946000Y-76442452D01*
X147946000Y-76437885D01*
X148454000Y-76437885D01*
X148458475Y-76453124D01*
X148459865Y-76454329D01*
X148467548Y-76456000D01*
X149917967Y-76456000D01*
X149931498Y-76452027D01*
X149932727Y-76443478D01*
X149885236Y-76266239D01*
X149881490Y-76255947D01*
X149789414Y-76058489D01*
X149783931Y-76048993D01*
X149658972Y-75870533D01*
X149651916Y-75862125D01*
X149497875Y-75708084D01*
X149489467Y-75701028D01*
X149311007Y-75576069D01*
X149301511Y-75570586D01*
X149104053Y-75478510D01*
X149093761Y-75474764D01*
X148883312Y-75418375D01*
X148872519Y-75416472D01*
X148709830Y-75402238D01*
X148704365Y-75402000D01*
X148472115Y-75402000D01*
X148456876Y-75406475D01*
X148455671Y-75407865D01*
X148454000Y-75415548D01*
X148454000Y-76437885D01*
X147946000Y-76437885D01*
X147946000Y-75420115D01*
X147941525Y-75404876D01*
X147940135Y-75403671D01*
X147932452Y-75402000D01*
X147695635Y-75402000D01*
X147690170Y-75402238D01*
X147527481Y-75416472D01*
X147516688Y-75418375D01*
X147306239Y-75474764D01*
X147295947Y-75478510D01*
X147098489Y-75570586D01*
X147088993Y-75576069D01*
X146910533Y-75701028D01*
X146902125Y-75708084D01*
X146748084Y-75862125D01*
X146741028Y-75870533D01*
X146616069Y-76048993D01*
X146610586Y-76058489D01*
X146518510Y-76255947D01*
X146514764Y-76266239D01*
X146468606Y-76438503D01*
X130196900Y-76438503D01*
X130196900Y-74440272D01*
X149286942Y-74440272D01*
X149293222Y-74512053D01*
X149294497Y-74520292D01*
X149358110Y-74804880D01*
X149360464Y-74812877D01*
X149461150Y-75086534D01*
X149464550Y-75094172D01*
X149600549Y-75352115D01*
X149604916Y-75359213D01*
X149773835Y-75596905D01*
X149779108Y-75603372D01*
X149977983Y-75816639D01*
X149984067Y-75822351D01*
X150209393Y-76007437D01*
X150216174Y-76012292D01*
X150464013Y-76165958D01*
X150471373Y-76169871D01*
X150737346Y-76289404D01*
X150745169Y-76292314D01*
X151024625Y-76375624D01*
X151032746Y-76377469D01*
X151321429Y-76423191D01*
X151328403Y-76423899D01*
X151417286Y-76427936D01*
X151420119Y-76428000D01*
X153007885Y-76428000D01*
X153023124Y-76423525D01*
X153024329Y-76422135D01*
X153026000Y-76414452D01*
X153026000Y-76409885D01*
X153534000Y-76409885D01*
X153538475Y-76425124D01*
X153539865Y-76426329D01*
X153547548Y-76428000D01*
X155103993Y-76428000D01*
X155108182Y-76427861D01*
X155325132Y-76413451D01*
X155333403Y-76412347D01*
X155619251Y-76354710D01*
X155627303Y-76352522D01*
X155903005Y-76257591D01*
X155910716Y-76254350D01*
X156171444Y-76123787D01*
X156178638Y-76119566D01*
X156419820Y-75955659D01*
X156426390Y-75950526D01*
X156643775Y-75756161D01*
X156649608Y-75750205D01*
X156839378Y-75528797D01*
X156844376Y-75522116D01*
X157003191Y-75277563D01*
X157007265Y-75270273D01*
X157132338Y-75006868D01*
X157135414Y-74999100D01*
X157224552Y-74721469D01*
X157226573Y-74713363D01*
X157275429Y-74441830D01*
X157273997Y-74428571D01*
X157259387Y-74424000D01*
X153552115Y-74424000D01*
X153536876Y-74428475D01*
X153535671Y-74429865D01*
X153534000Y-74437548D01*
X153534000Y-76409885D01*
X153026000Y-76409885D01*
X153026000Y-74442115D01*
X153021525Y-74426876D01*
X153020135Y-74425671D01*
X153012452Y-74424000D01*
X149303633Y-74424000D01*
X149289004Y-74428295D01*
X149286942Y-74440272D01*
X130196900Y-74440272D01*
X130196900Y-73898170D01*
X149284571Y-73898170D01*
X149286003Y-73911429D01*
X149300613Y-73916000D01*
X153007885Y-73916000D01*
X153023124Y-73911525D01*
X153024329Y-73910135D01*
X153026000Y-73902452D01*
X153026000Y-73897885D01*
X153534000Y-73897885D01*
X153538475Y-73913124D01*
X153539865Y-73914329D01*
X153547548Y-73916000D01*
X157256367Y-73916000D01*
X157270996Y-73911705D01*
X157273058Y-73899728D01*
X157266778Y-73827947D01*
X157265503Y-73819708D01*
X157201890Y-73535120D01*
X157199536Y-73527123D01*
X157098850Y-73253466D01*
X157095450Y-73245828D01*
X156959451Y-72987885D01*
X156955084Y-72980787D01*
X156786165Y-72743095D01*
X156780892Y-72736628D01*
X156582017Y-72523361D01*
X156575933Y-72517649D01*
X156350607Y-72332563D01*
X156343826Y-72327708D01*
X156095987Y-72174042D01*
X156088627Y-72170129D01*
X155822654Y-72050596D01*
X155814831Y-72047686D01*
X155535375Y-71964376D01*
X155527254Y-71962531D01*
X155238571Y-71916809D01*
X155231597Y-71916101D01*
X155142714Y-71912064D01*
X155139881Y-71912000D01*
X153552115Y-71912000D01*
X153536876Y-71916475D01*
X153535671Y-71917865D01*
X153534000Y-71925547D01*
X153534000Y-73897885D01*
X153026000Y-73897885D01*
X153026000Y-71930115D01*
X153021525Y-71914876D01*
X153020135Y-71913671D01*
X153012452Y-71912000D01*
X151456007Y-71912000D01*
X151451818Y-71912139D01*
X151234868Y-71926549D01*
X151226597Y-71927653D01*
X150940749Y-71985290D01*
X150932697Y-71987478D01*
X150656995Y-72082409D01*
X150649284Y-72085650D01*
X150388556Y-72216213D01*
X150381362Y-72220434D01*
X150140180Y-72384341D01*
X150133610Y-72389474D01*
X149916225Y-72583839D01*
X149910392Y-72589795D01*
X149720622Y-72811203D01*
X149715624Y-72817884D01*
X149556809Y-73062437D01*
X149552735Y-73069727D01*
X149427662Y-73333132D01*
X149424586Y-73340900D01*
X149335448Y-73618531D01*
X149333427Y-73626637D01*
X149284571Y-73898170D01*
X130196900Y-73898170D01*
X130196900Y-72792091D01*
X130216902Y-72723970D01*
X130270558Y-72677477D01*
X130309292Y-72666828D01*
X130321486Y-72665503D01*
X130348716Y-72662545D01*
X130485105Y-72611415D01*
X130601661Y-72524061D01*
X130689015Y-72407505D01*
X130740145Y-72271116D01*
X130746900Y-72208934D01*
X130746900Y-71177171D01*
X130766902Y-71109050D01*
X130783805Y-71088076D01*
X135488911Y-66382970D01*
X135503323Y-66370584D01*
X135514918Y-66362051D01*
X135514923Y-66362046D01*
X135520818Y-66357708D01*
X135525557Y-66352130D01*
X135525560Y-66352127D01*
X135555035Y-66317432D01*
X135561965Y-66309916D01*
X135567660Y-66304221D01*
X135585281Y-66281949D01*
X135588072Y-66278545D01*
X135630591Y-66228497D01*
X135630592Y-66228495D01*
X135635333Y-66222915D01*
X135638661Y-66216399D01*
X135642028Y-66211350D01*
X135645195Y-66206221D01*
X135649734Y-66200484D01*
X135680655Y-66134325D01*
X135682561Y-66130425D01*
X135715769Y-66065392D01*
X135717508Y-66058284D01*
X135719607Y-66052641D01*
X135721524Y-66046878D01*
X135724622Y-66040250D01*
X135739487Y-65968783D01*
X135740457Y-65964499D01*
X135753741Y-65910211D01*
X135757808Y-65893590D01*
X135758172Y-65887733D01*
X135758500Y-65882436D01*
X135758536Y-65882438D01*
X135758775Y-65878445D01*
X135759149Y-65874253D01*
X135760640Y-65867085D01*
X135758546Y-65789679D01*
X135758500Y-65786272D01*
X135758500Y-64870090D01*
X135778502Y-64801969D01*
X135818197Y-64762946D01*
X135829204Y-64756135D01*
X136007047Y-64646082D01*
X136105428Y-64562797D01*
X136197289Y-64485031D01*
X136197291Y-64485029D01*
X136200862Y-64482006D01*
X136368295Y-64291084D01*
X136505669Y-64077512D01*
X136609967Y-63845980D01*
X136678896Y-63601575D01*
X136710943Y-63349667D01*
X136713291Y-63260000D01*
X136694472Y-63006759D01*
X136689032Y-62982714D01*
X136639459Y-62763639D01*
X136638428Y-62759082D01*
X136614150Y-62696651D01*
X136548084Y-62526762D01*
X136548083Y-62526760D01*
X136546391Y-62522409D01*
X136540788Y-62512606D01*
X136422702Y-62305997D01*
X136422700Y-62305995D01*
X136420383Y-62301940D01*
X136263171Y-62102517D01*
X136078209Y-61928523D01*
X135974682Y-61856704D01*
X135873393Y-61786437D01*
X135873390Y-61786435D01*
X135869561Y-61783779D01*
X135865384Y-61781719D01*
X135865377Y-61781715D01*
X135645996Y-61673528D01*
X135645992Y-61673527D01*
X135641810Y-61671464D01*
X135399960Y-61594047D01*
X135395355Y-61593297D01*
X135153935Y-61553980D01*
X135153934Y-61553980D01*
X135149323Y-61553229D01*
X135022365Y-61551567D01*
X134900083Y-61549966D01*
X134900080Y-61549966D01*
X134895406Y-61549905D01*
X134643787Y-61584149D01*
X134639301Y-61585457D01*
X134639299Y-61585457D01*
X134624437Y-61589789D01*
X134399993Y-61655208D01*
X134169380Y-61761522D01*
X134138581Y-61781715D01*
X133960928Y-61898189D01*
X133960923Y-61898193D01*
X133957015Y-61900755D01*
X133866559Y-61981490D01*
X133774677Y-62063498D01*
X133767562Y-62069848D01*
X133605183Y-62265087D01*
X133473447Y-62482182D01*
X133471638Y-62486496D01*
X133471637Y-62486498D01*
X133383513Y-62696651D01*
X133375246Y-62716365D01*
X133312738Y-62962490D01*
X133287296Y-63215151D01*
X133299480Y-63468798D01*
X133349021Y-63717857D01*
X133350600Y-63722255D01*
X133350602Y-63722262D01*
X133395022Y-63845980D01*
X133434831Y-63956858D01*
X133555025Y-64180551D01*
X133557820Y-64184294D01*
X133557822Y-64184297D01*
X133704171Y-64380282D01*
X133704176Y-64380288D01*
X133706963Y-64384020D01*
X133710272Y-64387300D01*
X133710277Y-64387306D01*
X133808859Y-64485031D01*
X133887307Y-64562797D01*
X133891069Y-64565555D01*
X133891072Y-64565558D01*
X134000893Y-64646082D01*
X134092094Y-64712953D01*
X134096227Y-64715127D01*
X134096231Y-64715130D01*
X134174168Y-64756135D01*
X134225140Y-64805554D01*
X134241500Y-64867643D01*
X134241500Y-65432829D01*
X134221498Y-65500950D01*
X134204595Y-65521924D01*
X129711124Y-70015395D01*
X129648812Y-70049421D01*
X129622029Y-70052300D01*
X128590266Y-70052300D01*
X128528084Y-70059055D01*
X128391695Y-70110185D01*
X128275139Y-70197539D01*
X128187785Y-70314095D01*
X128136655Y-70450484D01*
X128135483Y-70461274D01*
X128134597Y-70463406D01*
X128133975Y-70466022D01*
X128133552Y-70465921D01*
X128108245Y-70526835D01*
X128049883Y-70567263D01*
X127978929Y-70569722D01*
X127917910Y-70533429D01*
X127910911Y-70524769D01*
X127907754Y-70521007D01*
X127904598Y-70516500D01*
X127742700Y-70354602D01*
X127738192Y-70351445D01*
X127738189Y-70351443D01*
X127631430Y-70276690D01*
X127555149Y-70223277D01*
X127550167Y-70220954D01*
X127550162Y-70220951D01*
X127352625Y-70128839D01*
X127352624Y-70128839D01*
X127347643Y-70126516D01*
X127342335Y-70125094D01*
X127342333Y-70125093D01*
X127131802Y-70068681D01*
X127131800Y-70068681D01*
X127126487Y-70067257D01*
X126898400Y-70047302D01*
X126670313Y-70067257D01*
X126665000Y-70068681D01*
X126664998Y-70068681D01*
X126454467Y-70125093D01*
X126454465Y-70125094D01*
X126449157Y-70126516D01*
X126444176Y-70128839D01*
X126444175Y-70128839D01*
X126246638Y-70220951D01*
X126246633Y-70220954D01*
X126241651Y-70223277D01*
X126165370Y-70276690D01*
X126058611Y-70351443D01*
X126058608Y-70351445D01*
X126054100Y-70354602D01*
X125892202Y-70516500D01*
X125760877Y-70704051D01*
X125758554Y-70709033D01*
X125758551Y-70709038D01*
X125742595Y-70743257D01*
X125695678Y-70796542D01*
X125627401Y-70816003D01*
X125559441Y-70795461D01*
X125514205Y-70743257D01*
X125498249Y-70709038D01*
X125498246Y-70709033D01*
X125495923Y-70704051D01*
X125364598Y-70516500D01*
X125202700Y-70354602D01*
X125170629Y-70332145D01*
X125126301Y-70276690D01*
X125116900Y-70228933D01*
X125116900Y-68101971D01*
X125136902Y-68033850D01*
X125190558Y-67987357D01*
X125195823Y-67985200D01*
X125199243Y-67984284D01*
X125204223Y-67981962D01*
X125204228Y-67981960D01*
X125401762Y-67889849D01*
X125401767Y-67889846D01*
X125406749Y-67887523D01*
X125541559Y-67793128D01*
X125589789Y-67759357D01*
X125589792Y-67759355D01*
X125594300Y-67756198D01*
X125756198Y-67594300D01*
X125766472Y-67579628D01*
X125857689Y-67449356D01*
X125887523Y-67406749D01*
X125889846Y-67401767D01*
X125889849Y-67401762D01*
X125981961Y-67204225D01*
X125981961Y-67204224D01*
X125984284Y-67199243D01*
X126032970Y-67017548D01*
X126042119Y-66983402D01*
X126042119Y-66983400D01*
X126043543Y-66978087D01*
X126063498Y-66750000D01*
X126043543Y-66521913D01*
X126033244Y-66483478D01*
X125985707Y-66306067D01*
X125985706Y-66306065D01*
X125984284Y-66300757D01*
X125974707Y-66280218D01*
X125889849Y-66098238D01*
X125889846Y-66098233D01*
X125887523Y-66093251D01*
X125756198Y-65905700D01*
X125594300Y-65743802D01*
X125589792Y-65740645D01*
X125589789Y-65740643D01*
X125451984Y-65644151D01*
X125406749Y-65612477D01*
X125401767Y-65610154D01*
X125401762Y-65610151D01*
X125204225Y-65518039D01*
X125204224Y-65518039D01*
X125199243Y-65515716D01*
X125193935Y-65514294D01*
X125193933Y-65514293D01*
X124983402Y-65457881D01*
X124983400Y-65457881D01*
X124978087Y-65456457D01*
X124750000Y-65436502D01*
X124521913Y-65456457D01*
X124516600Y-65457881D01*
X124516598Y-65457881D01*
X124306067Y-65514293D01*
X124306065Y-65514294D01*
X124300757Y-65515716D01*
X124295776Y-65518039D01*
X124295775Y-65518039D01*
X124098238Y-65610151D01*
X124098233Y-65610154D01*
X124093251Y-65612477D01*
X124048016Y-65644151D01*
X123910211Y-65740643D01*
X123910208Y-65740645D01*
X123905700Y-65743802D01*
X123743802Y-65905700D01*
X123612477Y-66093251D01*
X123610154Y-66098233D01*
X123610151Y-66098238D01*
X123525293Y-66280218D01*
X123515716Y-66300757D01*
X123514294Y-66306065D01*
X123514293Y-66306067D01*
X123466756Y-66483478D01*
X123456457Y-66521913D01*
X123436502Y-66750000D01*
X123456457Y-66978087D01*
X123457881Y-66983400D01*
X123457881Y-66983402D01*
X123467031Y-67017548D01*
X123515716Y-67199243D01*
X123518039Y-67204224D01*
X123518039Y-67204225D01*
X123588095Y-67354461D01*
X123599900Y-67407711D01*
X123599900Y-70228933D01*
X123579898Y-70297054D01*
X123546172Y-70332145D01*
X123514100Y-70354602D01*
X123352202Y-70516500D01*
X123220877Y-70704051D01*
X123218554Y-70709033D01*
X123218551Y-70709038D01*
X123202319Y-70743849D01*
X123155402Y-70797134D01*
X123087125Y-70816595D01*
X123019165Y-70796053D01*
X122973929Y-70743849D01*
X122957814Y-70709289D01*
X122952331Y-70699793D01*
X122827372Y-70521333D01*
X122820316Y-70512925D01*
X122666275Y-70358884D01*
X122657867Y-70351828D01*
X122479407Y-70226869D01*
X122469911Y-70221386D01*
X122272453Y-70129310D01*
X122262161Y-70125564D01*
X122089897Y-70079406D01*
X122075801Y-70079742D01*
X122072400Y-70087684D01*
X122072400Y-72628767D01*
X122076373Y-72642298D01*
X122084922Y-72643527D01*
X122262161Y-72596036D01*
X122272453Y-72592290D01*
X122469911Y-72500214D01*
X122479407Y-72494731D01*
X122657867Y-72369772D01*
X122666275Y-72362716D01*
X122820316Y-72208675D01*
X122827372Y-72200267D01*
X122952331Y-72021807D01*
X122957814Y-72012311D01*
X122973929Y-71977751D01*
X123020846Y-71924466D01*
X123089123Y-71905005D01*
X123157083Y-71925547D01*
X123202319Y-71977751D01*
X123218551Y-72012562D01*
X123218554Y-72012567D01*
X123220877Y-72017549D01*
X123352202Y-72205100D01*
X123514100Y-72366998D01*
X123518608Y-72370155D01*
X123518611Y-72370157D01*
X123540655Y-72385592D01*
X123701651Y-72498323D01*
X123706633Y-72500646D01*
X123706638Y-72500649D01*
X123903165Y-72592290D01*
X123909157Y-72595084D01*
X123914465Y-72596506D01*
X123914467Y-72596507D01*
X124124998Y-72652919D01*
X124125000Y-72652919D01*
X124130313Y-72654343D01*
X124358400Y-72674298D01*
X124586487Y-72654343D01*
X124591800Y-72652919D01*
X124591802Y-72652919D01*
X124802333Y-72596507D01*
X124802335Y-72596506D01*
X124807643Y-72595084D01*
X124813635Y-72592290D01*
X125010162Y-72500649D01*
X125010167Y-72500646D01*
X125015149Y-72498323D01*
X125176145Y-72385592D01*
X125198189Y-72370157D01*
X125198192Y-72370155D01*
X125202700Y-72366998D01*
X125364598Y-72205100D01*
X125495923Y-72017549D01*
X125498246Y-72012567D01*
X125498249Y-72012562D01*
X125514205Y-71978343D01*
X125561122Y-71925058D01*
X125629399Y-71905597D01*
X125697359Y-71926139D01*
X125742595Y-71978343D01*
X125758551Y-72012562D01*
X125758554Y-72012567D01*
X125760877Y-72017549D01*
X125892202Y-72205100D01*
X126054100Y-72366998D01*
X126058608Y-72370155D01*
X126058611Y-72370157D01*
X126080655Y-72385592D01*
X126241651Y-72498323D01*
X126246633Y-72500646D01*
X126246638Y-72500649D01*
X126443165Y-72592290D01*
X126449157Y-72595084D01*
X126454465Y-72596506D01*
X126454467Y-72596507D01*
X126664998Y-72652919D01*
X126665000Y-72652919D01*
X126670313Y-72654343D01*
X126898400Y-72674298D01*
X127126487Y-72654343D01*
X127131800Y-72652919D01*
X127131802Y-72652919D01*
X127342333Y-72596507D01*
X127342335Y-72596506D01*
X127347643Y-72595084D01*
X127353635Y-72592290D01*
X127550162Y-72500649D01*
X127550167Y-72500646D01*
X127555149Y-72498323D01*
X127716145Y-72385592D01*
X127738189Y-72370157D01*
X127738192Y-72370155D01*
X127742700Y-72366998D01*
X127904598Y-72205100D01*
X127907757Y-72200589D01*
X127911292Y-72196376D01*
X127912426Y-72197327D01*
X127962471Y-72157329D01*
X128033090Y-72150024D01*
X128096449Y-72182058D01*
X128132430Y-72243262D01*
X128135482Y-72260317D01*
X128136655Y-72271116D01*
X128187785Y-72407505D01*
X128275139Y-72524061D01*
X128391695Y-72611415D01*
X128528084Y-72662545D01*
X128555314Y-72665503D01*
X128567508Y-72666828D01*
X128633070Y-72694070D01*
X128673496Y-72752434D01*
X128679900Y-72792091D01*
X128679900Y-77848933D01*
X128659898Y-77917054D01*
X128626172Y-77952145D01*
X128594100Y-77974602D01*
X128432202Y-78136500D01*
X128409745Y-78168571D01*
X128354290Y-78212899D01*
X128306533Y-78222300D01*
X128030267Y-78222300D01*
X127962146Y-78202298D01*
X127927055Y-78168572D01*
X127904598Y-78136500D01*
X127742700Y-77974602D01*
X127738192Y-77971445D01*
X127738189Y-77971443D01*
X127583620Y-77863213D01*
X127555149Y-77843277D01*
X127550167Y-77840954D01*
X127550162Y-77840951D01*
X127352625Y-77748839D01*
X127352624Y-77748839D01*
X127347643Y-77746516D01*
X127342335Y-77745094D01*
X127342333Y-77745093D01*
X127131802Y-77688681D01*
X127131800Y-77688681D01*
X127126487Y-77687257D01*
X126898400Y-77667302D01*
X126670313Y-77687257D01*
X126665000Y-77688681D01*
X126664998Y-77688681D01*
X126454467Y-77745093D01*
X126454465Y-77745094D01*
X126449157Y-77746516D01*
X126444176Y-77748839D01*
X126444175Y-77748839D01*
X126246638Y-77840951D01*
X126246633Y-77840954D01*
X126241651Y-77843277D01*
X126213180Y-77863213D01*
X126058611Y-77971443D01*
X126058608Y-77971445D01*
X126054100Y-77974602D01*
X125892202Y-78136500D01*
X125889045Y-78141008D01*
X125889043Y-78141011D01*
X125846130Y-78202298D01*
X125760877Y-78324051D01*
X125758554Y-78329033D01*
X125758551Y-78329038D01*
X125742595Y-78363257D01*
X125695678Y-78416542D01*
X125627401Y-78436003D01*
X125559441Y-78415461D01*
X125514205Y-78363257D01*
X125498249Y-78329038D01*
X125498246Y-78329033D01*
X125495923Y-78324051D01*
X125410670Y-78202298D01*
X125367757Y-78141011D01*
X125367755Y-78141008D01*
X125364598Y-78136500D01*
X125202700Y-77974602D01*
X125198192Y-77971445D01*
X125198189Y-77971443D01*
X125043620Y-77863213D01*
X125015149Y-77843277D01*
X125010167Y-77840954D01*
X125010162Y-77840951D01*
X124812625Y-77748839D01*
X124812624Y-77748839D01*
X124807643Y-77746516D01*
X124802335Y-77745094D01*
X124802333Y-77745093D01*
X124591802Y-77688681D01*
X124591800Y-77688681D01*
X124586487Y-77687257D01*
X124358400Y-77667302D01*
X124130313Y-77687257D01*
X124125000Y-77688681D01*
X124124998Y-77688681D01*
X123914467Y-77745093D01*
X123914465Y-77745094D01*
X123909157Y-77746516D01*
X123904176Y-77748839D01*
X123904175Y-77748839D01*
X123706638Y-77840951D01*
X123706633Y-77840954D01*
X123701651Y-77843277D01*
X123673180Y-77863213D01*
X123518611Y-77971443D01*
X123518608Y-77971445D01*
X123514100Y-77974602D01*
X123352202Y-78136500D01*
X123349045Y-78141008D01*
X123349043Y-78141011D01*
X123306130Y-78202298D01*
X123220877Y-78324051D01*
X123218554Y-78329033D01*
X123218551Y-78329038D01*
X123202595Y-78363257D01*
X123155678Y-78416542D01*
X123087401Y-78436003D01*
X123019441Y-78415461D01*
X122974205Y-78363257D01*
X122958249Y-78329038D01*
X122958246Y-78329033D01*
X122955923Y-78324051D01*
X122870670Y-78202298D01*
X122827757Y-78141011D01*
X122827755Y-78141008D01*
X122824598Y-78136500D01*
X122662700Y-77974602D01*
X122630629Y-77952145D01*
X122586301Y-77896690D01*
X122576900Y-77848933D01*
X122576900Y-75135469D01*
X122578333Y-75116518D01*
X122580499Y-75102283D01*
X122580499Y-75102281D01*
X122581599Y-75095051D01*
X122580907Y-75086534D01*
X122577315Y-75042382D01*
X122576900Y-75032167D01*
X122576900Y-75024107D01*
X122573611Y-74995893D01*
X122573178Y-74991518D01*
X122567854Y-74926061D01*
X122567853Y-74926058D01*
X122567260Y-74918763D01*
X122565004Y-74911799D01*
X122563813Y-74905840D01*
X122562429Y-74899985D01*
X122561582Y-74892719D01*
X122536665Y-74824073D01*
X122535248Y-74819945D01*
X122515007Y-74757464D01*
X122515006Y-74757462D01*
X122512751Y-74750501D01*
X122508955Y-74744246D01*
X122506449Y-74738772D01*
X122503730Y-74733342D01*
X122501233Y-74726463D01*
X122461209Y-74665416D01*
X122458872Y-74661712D01*
X122423909Y-74604093D01*
X122423905Y-74604088D01*
X122420995Y-74599292D01*
X122413597Y-74590916D01*
X122413623Y-74590893D01*
X122410974Y-74587903D01*
X122408266Y-74584664D01*
X122404256Y-74578548D01*
X122398949Y-74573521D01*
X122398946Y-74573517D01*
X122348017Y-74525272D01*
X122345575Y-74522894D01*
X119450003Y-71627322D01*
X120535673Y-71627322D01*
X120583164Y-71804561D01*
X120586910Y-71814853D01*
X120678986Y-72012311D01*
X120684469Y-72021807D01*
X120809428Y-72200267D01*
X120816484Y-72208675D01*
X120970525Y-72362716D01*
X120978933Y-72369772D01*
X121157393Y-72494731D01*
X121166889Y-72500214D01*
X121364347Y-72592290D01*
X121374639Y-72596036D01*
X121546903Y-72642194D01*
X121560999Y-72641858D01*
X121564400Y-72633916D01*
X121564400Y-71632915D01*
X121559925Y-71617676D01*
X121558535Y-71616471D01*
X121550852Y-71614800D01*
X120550433Y-71614800D01*
X120536902Y-71618773D01*
X120535673Y-71627322D01*
X119450003Y-71627322D01*
X118911984Y-71089303D01*
X120537006Y-71089303D01*
X120537342Y-71103399D01*
X120545284Y-71106800D01*
X121546285Y-71106800D01*
X121561524Y-71102325D01*
X121562729Y-71100935D01*
X121564400Y-71093252D01*
X121564400Y-70092833D01*
X121560427Y-70079302D01*
X121551878Y-70078073D01*
X121374639Y-70125564D01*
X121364347Y-70129310D01*
X121166889Y-70221386D01*
X121157393Y-70226869D01*
X120978933Y-70351828D01*
X120970525Y-70358884D01*
X120816484Y-70512925D01*
X120809428Y-70521333D01*
X120684469Y-70699793D01*
X120678986Y-70709289D01*
X120586910Y-70906747D01*
X120583164Y-70917039D01*
X120537006Y-71089303D01*
X118911984Y-71089303D01*
X114839203Y-67016522D01*
X115967273Y-67016522D01*
X116014764Y-67193761D01*
X116018510Y-67204053D01*
X116110586Y-67401511D01*
X116116069Y-67411007D01*
X116241028Y-67589467D01*
X116248084Y-67597875D01*
X116402125Y-67751916D01*
X116410533Y-67758972D01*
X116588993Y-67883931D01*
X116598489Y-67889414D01*
X116795947Y-67981490D01*
X116806239Y-67985236D01*
X116978503Y-68031394D01*
X116992599Y-68031058D01*
X116996000Y-68023116D01*
X116996000Y-68017967D01*
X117504000Y-68017967D01*
X117507973Y-68031498D01*
X117516522Y-68032727D01*
X117693761Y-67985236D01*
X117704053Y-67981490D01*
X117901511Y-67889414D01*
X117911007Y-67883931D01*
X118089467Y-67758972D01*
X118097875Y-67751916D01*
X118251916Y-67597875D01*
X118258972Y-67589467D01*
X118383931Y-67411007D01*
X118389414Y-67401511D01*
X118481490Y-67204053D01*
X118485236Y-67193761D01*
X118531394Y-67021497D01*
X118531058Y-67007401D01*
X118523116Y-67004000D01*
X117522115Y-67004000D01*
X117506876Y-67008475D01*
X117505671Y-67009865D01*
X117504000Y-67017548D01*
X117504000Y-68017967D01*
X116996000Y-68017967D01*
X116996000Y-67022115D01*
X116991525Y-67006876D01*
X116990135Y-67005671D01*
X116982452Y-67004000D01*
X115982033Y-67004000D01*
X115968502Y-67007973D01*
X115967273Y-67016522D01*
X114839203Y-67016522D01*
X114795405Y-66972724D01*
X114761379Y-66910412D01*
X114758500Y-66883629D01*
X114758500Y-66478503D01*
X115968606Y-66478503D01*
X115968942Y-66492599D01*
X115976884Y-66496000D01*
X116977885Y-66496000D01*
X116993124Y-66491525D01*
X116994329Y-66490135D01*
X116996000Y-66482452D01*
X116996000Y-66477885D01*
X117504000Y-66477885D01*
X117508475Y-66493124D01*
X117509865Y-66494329D01*
X117517548Y-66496000D01*
X118517967Y-66496000D01*
X118531498Y-66492027D01*
X118532727Y-66483478D01*
X118485236Y-66306239D01*
X118481490Y-66295947D01*
X118389414Y-66098489D01*
X118383931Y-66088993D01*
X118258972Y-65910533D01*
X118251916Y-65902125D01*
X118097875Y-65748084D01*
X118089467Y-65741028D01*
X117911007Y-65616069D01*
X117901511Y-65610586D01*
X117704053Y-65518510D01*
X117693761Y-65514764D01*
X117521497Y-65468606D01*
X117507401Y-65468942D01*
X117504000Y-65476884D01*
X117504000Y-66477885D01*
X116996000Y-66477885D01*
X116996000Y-65482033D01*
X116992027Y-65468502D01*
X116983478Y-65467273D01*
X116806239Y-65514764D01*
X116795947Y-65518510D01*
X116598489Y-65610586D01*
X116588993Y-65616069D01*
X116410533Y-65741028D01*
X116402125Y-65748084D01*
X116248084Y-65902125D01*
X116241028Y-65910533D01*
X116116069Y-66088993D01*
X116110586Y-66098489D01*
X116018510Y-66295947D01*
X116014764Y-66306239D01*
X115968606Y-66478503D01*
X114758500Y-66478503D01*
X114758500Y-62797433D01*
X114778502Y-62729312D01*
X114832158Y-62682819D01*
X114902432Y-62672715D01*
X114955939Y-62696651D01*
X114957319Y-62694681D01*
X115133403Y-62817976D01*
X115138381Y-62820297D01*
X115138384Y-62820299D01*
X115323241Y-62906499D01*
X115328223Y-62908822D01*
X115333531Y-62910244D01*
X115333533Y-62910245D01*
X115530543Y-62963034D01*
X115530545Y-62963034D01*
X115535858Y-62964458D01*
X115750000Y-62983193D01*
X115964142Y-62964458D01*
X115969455Y-62963034D01*
X115969457Y-62963034D01*
X116166467Y-62910245D01*
X116166469Y-62910244D01*
X116171777Y-62908822D01*
X116176759Y-62906499D01*
X116361616Y-62820299D01*
X116361619Y-62820297D01*
X116366597Y-62817976D01*
X116542681Y-62694681D01*
X116691957Y-62545405D01*
X116754269Y-62511379D01*
X116781052Y-62508500D01*
X120352930Y-62508500D01*
X120371880Y-62509933D01*
X120386115Y-62512099D01*
X120386119Y-62512099D01*
X120393349Y-62513199D01*
X120400641Y-62512606D01*
X120400644Y-62512606D01*
X120446018Y-62508915D01*
X120456233Y-62508500D01*
X120464293Y-62508500D01*
X120477583Y-62506951D01*
X120492507Y-62505211D01*
X120496882Y-62504778D01*
X120562339Y-62499454D01*
X120562342Y-62499453D01*
X120569637Y-62498860D01*
X120576601Y-62496604D01*
X120582560Y-62495413D01*
X120588415Y-62494029D01*
X120595681Y-62493182D01*
X120664327Y-62468265D01*
X120668455Y-62466848D01*
X120730936Y-62446607D01*
X120730938Y-62446606D01*
X120737899Y-62444351D01*
X120744154Y-62440555D01*
X120749628Y-62438049D01*
X120755058Y-62435330D01*
X120761937Y-62432833D01*
X120822976Y-62392814D01*
X120826680Y-62390477D01*
X120889107Y-62352595D01*
X120897484Y-62345197D01*
X120897508Y-62345224D01*
X120900500Y-62342571D01*
X120903733Y-62339868D01*
X120909852Y-62335856D01*
X120963128Y-62279617D01*
X120965506Y-62277175D01*
X121157010Y-62085671D01*
X121219322Y-62051645D01*
X121257087Y-62049245D01*
X121414525Y-62063019D01*
X121420000Y-62063498D01*
X121648087Y-62043543D01*
X121653400Y-62042119D01*
X121653402Y-62042119D01*
X121863933Y-61985707D01*
X121863935Y-61985706D01*
X121869243Y-61984284D01*
X121875235Y-61981490D01*
X122071762Y-61889849D01*
X122071767Y-61889846D01*
X122076749Y-61887523D01*
X122181611Y-61814098D01*
X122259789Y-61759357D01*
X122259792Y-61759355D01*
X122264300Y-61756198D01*
X122426198Y-61594300D01*
X122454431Y-61553980D01*
X122554366Y-61411257D01*
X122557523Y-61406749D01*
X122559846Y-61401767D01*
X122559849Y-61401762D01*
X122651961Y-61204225D01*
X122651961Y-61204224D01*
X122654284Y-61199243D01*
X122702970Y-61017548D01*
X122703245Y-61016522D01*
X130297273Y-61016522D01*
X130344764Y-61193761D01*
X130348510Y-61204053D01*
X130440586Y-61401511D01*
X130446069Y-61411007D01*
X130571028Y-61589467D01*
X130578084Y-61597875D01*
X130732125Y-61751916D01*
X130740533Y-61758972D01*
X130918993Y-61883931D01*
X130928489Y-61889414D01*
X131125947Y-61981490D01*
X131136239Y-61985236D01*
X131308503Y-62031394D01*
X131322599Y-62031058D01*
X131326000Y-62023116D01*
X131326000Y-62017967D01*
X131834000Y-62017967D01*
X131837973Y-62031498D01*
X131846522Y-62032727D01*
X132023761Y-61985236D01*
X132034053Y-61981490D01*
X132231511Y-61889414D01*
X132241007Y-61883931D01*
X132419467Y-61758972D01*
X132427875Y-61751916D01*
X132581916Y-61597875D01*
X132588972Y-61589467D01*
X132713931Y-61411007D01*
X132719414Y-61401511D01*
X132811490Y-61204053D01*
X132815236Y-61193761D01*
X132861394Y-61021497D01*
X132861058Y-61007401D01*
X132853116Y-61004000D01*
X131852115Y-61004000D01*
X131836876Y-61008475D01*
X131835671Y-61009865D01*
X131834000Y-61017548D01*
X131834000Y-62017967D01*
X131326000Y-62017967D01*
X131326000Y-61022115D01*
X131321525Y-61006876D01*
X131320135Y-61005671D01*
X131312452Y-61004000D01*
X130312033Y-61004000D01*
X130298502Y-61007973D01*
X130297273Y-61016522D01*
X122703245Y-61016522D01*
X122712119Y-60983402D01*
X122712119Y-60983400D01*
X122713543Y-60978087D01*
X122733498Y-60750000D01*
X122713543Y-60521913D01*
X122712119Y-60516598D01*
X122701911Y-60478503D01*
X130298606Y-60478503D01*
X130298942Y-60492599D01*
X130306884Y-60496000D01*
X131307885Y-60496000D01*
X131323124Y-60491525D01*
X131324329Y-60490135D01*
X131326000Y-60482452D01*
X131326000Y-60477885D01*
X131834000Y-60477885D01*
X131838475Y-60493124D01*
X131839865Y-60494329D01*
X131847548Y-60496000D01*
X132847967Y-60496000D01*
X132861498Y-60492027D01*
X132862727Y-60483478D01*
X132815236Y-60306239D01*
X132811490Y-60295947D01*
X132719414Y-60098489D01*
X132713931Y-60088993D01*
X132588972Y-59910533D01*
X132581916Y-59902125D01*
X132427875Y-59748084D01*
X132419467Y-59741028D01*
X132241007Y-59616069D01*
X132231511Y-59610586D01*
X132034053Y-59518510D01*
X132023761Y-59514764D01*
X131851497Y-59468606D01*
X131837401Y-59468942D01*
X131834000Y-59476884D01*
X131834000Y-60477885D01*
X131326000Y-60477885D01*
X131326000Y-59482033D01*
X131322027Y-59468502D01*
X131313478Y-59467273D01*
X131136239Y-59514764D01*
X131125947Y-59518510D01*
X130928489Y-59610586D01*
X130918993Y-59616069D01*
X130740533Y-59741028D01*
X130732125Y-59748084D01*
X130578084Y-59902125D01*
X130571028Y-59910533D01*
X130446069Y-60088993D01*
X130440586Y-60098489D01*
X130348510Y-60295947D01*
X130344764Y-60306239D01*
X130298606Y-60478503D01*
X122701911Y-60478503D01*
X122655707Y-60306067D01*
X122655706Y-60306065D01*
X122654284Y-60300757D01*
X122651961Y-60295775D01*
X122559849Y-60098238D01*
X122559846Y-60098233D01*
X122557523Y-60093251D01*
X122442244Y-59928616D01*
X122429357Y-59910211D01*
X122429355Y-59910208D01*
X122426198Y-59905700D01*
X122264300Y-59743802D01*
X122259792Y-59740645D01*
X122259789Y-59740643D01*
X122104312Y-59631777D01*
X122076749Y-59612477D01*
X122071767Y-59610154D01*
X122071762Y-59610151D01*
X121874225Y-59518039D01*
X121874224Y-59518039D01*
X121869243Y-59515716D01*
X121863935Y-59514294D01*
X121863933Y-59514293D01*
X121653402Y-59457881D01*
X121653400Y-59457881D01*
X121648087Y-59456457D01*
X121420000Y-59436502D01*
X121191913Y-59456457D01*
X121186600Y-59457881D01*
X121186598Y-59457881D01*
X120976067Y-59514293D01*
X120976065Y-59514294D01*
X120970757Y-59515716D01*
X120965776Y-59518039D01*
X120965775Y-59518039D01*
X120768238Y-59610151D01*
X120768233Y-59610154D01*
X120763251Y-59612477D01*
X120735688Y-59631777D01*
X120580211Y-59740643D01*
X120580208Y-59740645D01*
X120575700Y-59743802D01*
X120413802Y-59905700D01*
X120410645Y-59910208D01*
X120410643Y-59910211D01*
X120397756Y-59928616D01*
X120282477Y-60093251D01*
X120280154Y-60098233D01*
X120280151Y-60098238D01*
X120188039Y-60295775D01*
X120185716Y-60300757D01*
X120184294Y-60306065D01*
X120184293Y-60306067D01*
X120127881Y-60516598D01*
X120126457Y-60521913D01*
X120106502Y-60750000D01*
X120106981Y-60755475D01*
X120106981Y-60755476D01*
X120115646Y-60854519D01*
X120101657Y-60924123D01*
X120052257Y-60975116D01*
X119990125Y-60991500D01*
X116781052Y-60991500D01*
X116712931Y-60971498D01*
X116691957Y-60954595D01*
X116542681Y-60805319D01*
X116366597Y-60682024D01*
X116361619Y-60679703D01*
X116361616Y-60679701D01*
X116176759Y-60593501D01*
X116176758Y-60593500D01*
X116171777Y-60591178D01*
X116166469Y-60589756D01*
X116166467Y-60589755D01*
X115969457Y-60536966D01*
X115969455Y-60536966D01*
X115964142Y-60535542D01*
X115750000Y-60516807D01*
X115535858Y-60535542D01*
X115530545Y-60536966D01*
X115530543Y-60536966D01*
X115333533Y-60589755D01*
X115333531Y-60589756D01*
X115328223Y-60591178D01*
X115323241Y-60593501D01*
X115318068Y-60595384D01*
X115317370Y-60593466D01*
X115255998Y-60602787D01*
X115191185Y-60573807D01*
X115152329Y-60514387D01*
X115151766Y-60443393D01*
X115183845Y-60388836D01*
X115567276Y-60005405D01*
X115629588Y-59971379D01*
X115656371Y-59968500D01*
X117258948Y-59968500D01*
X117327069Y-59988502D01*
X117348043Y-60005405D01*
X117497319Y-60154681D01*
X117673403Y-60277976D01*
X117678381Y-60280297D01*
X117678384Y-60280299D01*
X117795050Y-60334701D01*
X117868223Y-60368822D01*
X117873531Y-60370244D01*
X117873533Y-60370245D01*
X118070543Y-60423034D01*
X118070545Y-60423034D01*
X118075858Y-60424458D01*
X118290000Y-60443193D01*
X118504142Y-60424458D01*
X118509455Y-60423034D01*
X118509457Y-60423034D01*
X118706467Y-60370245D01*
X118706469Y-60370244D01*
X118711777Y-60368822D01*
X118784950Y-60334701D01*
X118901616Y-60280299D01*
X118901619Y-60280297D01*
X118906597Y-60277976D01*
X119082681Y-60154681D01*
X119234681Y-60002681D01*
X119357976Y-59826596D01*
X119394767Y-59747699D01*
X119446499Y-59636759D01*
X119446500Y-59636757D01*
X119448822Y-59631777D01*
X119453994Y-59612477D01*
X119503034Y-59429457D01*
X119503034Y-59429455D01*
X119504458Y-59424142D01*
X119523193Y-59210000D01*
X119504458Y-58995858D01*
X119448822Y-58788223D01*
X119398535Y-58680383D01*
X119360299Y-58598385D01*
X119360297Y-58598382D01*
X119357976Y-58593404D01*
X119234681Y-58417319D01*
X119082681Y-58265319D01*
X118906597Y-58142024D01*
X118901619Y-58139703D01*
X118901616Y-58139701D01*
X118716759Y-58053501D01*
X118716758Y-58053500D01*
X118711777Y-58051178D01*
X118706469Y-58049756D01*
X118706467Y-58049755D01*
X118509457Y-57996966D01*
X118509455Y-57996966D01*
X118504142Y-57995542D01*
X118290000Y-57976807D01*
X118075858Y-57995542D01*
X118070545Y-57996966D01*
X118070543Y-57996966D01*
X117873533Y-58049755D01*
X117873531Y-58049756D01*
X117868223Y-58051178D01*
X117863243Y-58053500D01*
X117863241Y-58053501D01*
X117678385Y-58139701D01*
X117678382Y-58139703D01*
X117673404Y-58142024D01*
X117497319Y-58265319D01*
X117348043Y-58414595D01*
X117285731Y-58448621D01*
X117258948Y-58451500D01*
X115357063Y-58451500D01*
X115338114Y-58450067D01*
X115337907Y-58450036D01*
X115316651Y-58446802D01*
X115309359Y-58447395D01*
X115309356Y-58447395D01*
X115263991Y-58451085D01*
X115253777Y-58451500D01*
X115245707Y-58451500D01*
X115242087Y-58451922D01*
X115242069Y-58451923D01*
X115217461Y-58454792D01*
X115213100Y-58455224D01*
X115187981Y-58457267D01*
X115147661Y-58460546D01*
X115147658Y-58460547D01*
X115140363Y-58461140D01*
X115133399Y-58463396D01*
X115127440Y-58464587D01*
X115121585Y-58465971D01*
X115114319Y-58466818D01*
X115045673Y-58491735D01*
X115041545Y-58493152D01*
X114979064Y-58513393D01*
X114979062Y-58513394D01*
X114972101Y-58515649D01*
X114965846Y-58519445D01*
X114960372Y-58521951D01*
X114954942Y-58524670D01*
X114948063Y-58527167D01*
X114887016Y-58567191D01*
X114883327Y-58569518D01*
X114863135Y-58581771D01*
X114825693Y-58604491D01*
X114825688Y-58604495D01*
X114820892Y-58607405D01*
X114812516Y-58614803D01*
X114812493Y-58614777D01*
X114809503Y-58617426D01*
X114806264Y-58620134D01*
X114800148Y-58624144D01*
X114795121Y-58629451D01*
X114795117Y-58629454D01*
X114746872Y-58680383D01*
X114744494Y-58682825D01*
X113511089Y-59916230D01*
X113496677Y-59928616D01*
X113485082Y-59937149D01*
X113485077Y-59937154D01*
X113479182Y-59941492D01*
X113474443Y-59947070D01*
X113474440Y-59947073D01*
X113444965Y-59981768D01*
X113438035Y-59989284D01*
X113432340Y-59994979D01*
X113430060Y-59997861D01*
X113414719Y-60017251D01*
X113411928Y-60020655D01*
X113369409Y-60070703D01*
X113364667Y-60076285D01*
X113361339Y-60082801D01*
X113357972Y-60087850D01*
X113354805Y-60092979D01*
X113350266Y-60098716D01*
X113319345Y-60164875D01*
X113317442Y-60168769D01*
X113284231Y-60233808D01*
X113282492Y-60240916D01*
X113280393Y-60246559D01*
X113278476Y-60252322D01*
X113275378Y-60258950D01*
X113273888Y-60266112D01*
X113273888Y-60266113D01*
X113260514Y-60330412D01*
X113259544Y-60334696D01*
X113242192Y-60405610D01*
X113241500Y-60416764D01*
X113241464Y-60416762D01*
X113241225Y-60420755D01*
X113240851Y-60424947D01*
X113239360Y-60432115D01*
X113240930Y-60490135D01*
X113241454Y-60509521D01*
X113241500Y-60512928D01*
X113241500Y-67182930D01*
X113240067Y-67201880D01*
X113236801Y-67223349D01*
X113237394Y-67230641D01*
X113237394Y-67230644D01*
X113241085Y-67276018D01*
X113241500Y-67286233D01*
X113241500Y-67294293D01*
X113243049Y-67307583D01*
X113244789Y-67322507D01*
X113245222Y-67326882D01*
X113249525Y-67379777D01*
X113251140Y-67399637D01*
X113253396Y-67406601D01*
X113254587Y-67412560D01*
X113255971Y-67418415D01*
X113256818Y-67425681D01*
X113281735Y-67494327D01*
X113283152Y-67498455D01*
X113305649Y-67567899D01*
X113309445Y-67574154D01*
X113311951Y-67579628D01*
X113314670Y-67585058D01*
X113317167Y-67591937D01*
X113321180Y-67598057D01*
X113321180Y-67598058D01*
X113357186Y-67652976D01*
X113359523Y-67656680D01*
X113397405Y-67719107D01*
X113401121Y-67723315D01*
X113401122Y-67723316D01*
X113404803Y-67727484D01*
X113404776Y-67727508D01*
X113407429Y-67730500D01*
X113410132Y-67733733D01*
X113414144Y-67739852D01*
X113419456Y-67744884D01*
X113470383Y-67793128D01*
X113472825Y-67795506D01*
X121022995Y-75345676D01*
X121057021Y-75407988D01*
X121059900Y-75434771D01*
X121059900Y-77848933D01*
X121039898Y-77917054D01*
X121006172Y-77952145D01*
X120974100Y-77974602D01*
X120812202Y-78136500D01*
X120809045Y-78141008D01*
X120809043Y-78141011D01*
X120766130Y-78202298D01*
X120680877Y-78324051D01*
X120678554Y-78329033D01*
X120678551Y-78329038D01*
X120595858Y-78506376D01*
X120584116Y-78531557D01*
X120582694Y-78536865D01*
X120582693Y-78536867D01*
X120526656Y-78746000D01*
X120524857Y-78752713D01*
X120504902Y-78980800D01*
X120524857Y-79208887D01*
X120526281Y-79214200D01*
X120526281Y-79214202D01*
X120538517Y-79259865D01*
X120584116Y-79430043D01*
X120586439Y-79435024D01*
X120586439Y-79435025D01*
X120678551Y-79632562D01*
X120678554Y-79632567D01*
X120680877Y-79637549D01*
X120812202Y-79825100D01*
X120974100Y-79986998D01*
X120978608Y-79990155D01*
X120978611Y-79990157D01*
X121023455Y-80021557D01*
X121161651Y-80118323D01*
X121166633Y-80120646D01*
X121166638Y-80120649D01*
X121363073Y-80212247D01*
X121369157Y-80215084D01*
X121374465Y-80216506D01*
X121374467Y-80216507D01*
X121476300Y-80243793D01*
X121536923Y-80280745D01*
X121567944Y-80344606D01*
X121559516Y-80415100D01*
X121514313Y-80469847D01*
X121443689Y-80491500D01*
X120366371Y-80491500D01*
X120298250Y-80471498D01*
X120277276Y-80454595D01*
X119795405Y-79972724D01*
X119761379Y-79910412D01*
X119758500Y-79883629D01*
X119758500Y-76817069D01*
X119759933Y-76798118D01*
X119762099Y-76783883D01*
X119762099Y-76783881D01*
X119763199Y-76776651D01*
X119758915Y-76723982D01*
X119758500Y-76713767D01*
X119758500Y-76705707D01*
X119755211Y-76677493D01*
X119754778Y-76673118D01*
X119749454Y-76607661D01*
X119749453Y-76607658D01*
X119748860Y-76600363D01*
X119746604Y-76593399D01*
X119745413Y-76587440D01*
X119744029Y-76581585D01*
X119743182Y-76574319D01*
X119718265Y-76505673D01*
X119716848Y-76501545D01*
X119696607Y-76439064D01*
X119696606Y-76439062D01*
X119694351Y-76432101D01*
X119690555Y-76425846D01*
X119688049Y-76420372D01*
X119685330Y-76414942D01*
X119682833Y-76408063D01*
X119642809Y-76347016D01*
X119640472Y-76343312D01*
X119605509Y-76285693D01*
X119605505Y-76285688D01*
X119602595Y-76280892D01*
X119595197Y-76272516D01*
X119595223Y-76272493D01*
X119592574Y-76269503D01*
X119589866Y-76266264D01*
X119585856Y-76260148D01*
X119580549Y-76255121D01*
X119580546Y-76255117D01*
X119529617Y-76206872D01*
X119527175Y-76204494D01*
X116508588Y-73185907D01*
X116474562Y-73123595D01*
X116475164Y-73067398D01*
X116493380Y-72991524D01*
X116493381Y-72991518D01*
X116494535Y-72986711D01*
X116513165Y-72750000D01*
X116494535Y-72513289D01*
X116491501Y-72500649D01*
X116440260Y-72287218D01*
X116439105Y-72282406D01*
X116431175Y-72263260D01*
X116350135Y-72067611D01*
X116350133Y-72067607D01*
X116348240Y-72063037D01*
X116301937Y-71987478D01*
X116226759Y-71864798D01*
X116226755Y-71864792D01*
X116224176Y-71860584D01*
X116069969Y-71680031D01*
X116066128Y-71676750D01*
X115993593Y-71614800D01*
X115889416Y-71525824D01*
X115885208Y-71523245D01*
X115885202Y-71523241D01*
X115691183Y-71404346D01*
X115686963Y-71401760D01*
X115682393Y-71399867D01*
X115682389Y-71399865D01*
X115472167Y-71312789D01*
X115472165Y-71312788D01*
X115467594Y-71310895D01*
X115386012Y-71291309D01*
X115241524Y-71256620D01*
X115241518Y-71256619D01*
X115236711Y-71255465D01*
X115000000Y-71236835D01*
X114763289Y-71255465D01*
X114758482Y-71256619D01*
X114758476Y-71256620D01*
X114682602Y-71274836D01*
X114611694Y-71271289D01*
X114564093Y-71241412D01*
X109236421Y-65913740D01*
X109224035Y-65899328D01*
X109215502Y-65887733D01*
X109215497Y-65887728D01*
X109211159Y-65881833D01*
X109205581Y-65877094D01*
X109205578Y-65877091D01*
X109170883Y-65847616D01*
X109163367Y-65840686D01*
X109157672Y-65834991D01*
X109151531Y-65830133D01*
X109135400Y-65817370D01*
X109131996Y-65814579D01*
X109081948Y-65772060D01*
X109081946Y-65772059D01*
X109076366Y-65767318D01*
X109069850Y-65763990D01*
X109064801Y-65760623D01*
X109059672Y-65757456D01*
X109053935Y-65752917D01*
X108987776Y-65721996D01*
X108983876Y-65720090D01*
X108918843Y-65686882D01*
X108911735Y-65685143D01*
X108906092Y-65683044D01*
X108900329Y-65681127D01*
X108893701Y-65678029D01*
X108822234Y-65663164D01*
X108817950Y-65662194D01*
X108747041Y-65644843D01*
X108741439Y-65644495D01*
X108741436Y-65644495D01*
X108735887Y-65644151D01*
X108735889Y-65644115D01*
X108731896Y-65643876D01*
X108727704Y-65643502D01*
X108720536Y-65642011D01*
X108654326Y-65643802D01*
X108643130Y-65644105D01*
X108639723Y-65644151D01*
X108431291Y-65644151D01*
X108363170Y-65624149D01*
X108316677Y-65570493D01*
X108306028Y-65531759D01*
X108304285Y-65515716D01*
X108301745Y-65492335D01*
X108250615Y-65355946D01*
X108163261Y-65239390D01*
X108046705Y-65152036D01*
X107910316Y-65100906D01*
X107848134Y-65094151D01*
X106151866Y-65094151D01*
X106089684Y-65100906D01*
X105953295Y-65152036D01*
X105836739Y-65239390D01*
X105749385Y-65355946D01*
X105698255Y-65492335D01*
X105691500Y-65554517D01*
X105691500Y-66586280D01*
X105671498Y-66654401D01*
X105654595Y-66675375D01*
X105125375Y-67204595D01*
X105063063Y-67238621D01*
X105036280Y-67241500D01*
X95364500Y-67241500D01*
X95296379Y-67221498D01*
X95249886Y-67167842D01*
X95238500Y-67115500D01*
X95238500Y-66961866D01*
X95231745Y-66899684D01*
X95180615Y-66763295D01*
X95093261Y-66646739D01*
X94976705Y-66559385D01*
X94840316Y-66508255D01*
X94778134Y-66501500D01*
X90721866Y-66501500D01*
X90659684Y-66508255D01*
X90523295Y-66559385D01*
X90406739Y-66646739D01*
X90319385Y-66763295D01*
X90268255Y-66899684D01*
X90261500Y-66961866D01*
X90261500Y-69038134D01*
X90268255Y-69100316D01*
X90319385Y-69236705D01*
X90406739Y-69353261D01*
X90523295Y-69440615D01*
X90659684Y-69491745D01*
X90721866Y-69498500D01*
X94778134Y-69498500D01*
X94840316Y-69491745D01*
X94976705Y-69440615D01*
X95093261Y-69353261D01*
X95180615Y-69236705D01*
X95231745Y-69100316D01*
X95238500Y-69038134D01*
X95238500Y-68884500D01*
X95258502Y-68816379D01*
X95312158Y-68769886D01*
X95364500Y-68758500D01*
X105335581Y-68758500D01*
X105354531Y-68759933D01*
X105368766Y-68762099D01*
X105368770Y-68762099D01*
X105376000Y-68763199D01*
X105383292Y-68762606D01*
X105383295Y-68762606D01*
X105428669Y-68758915D01*
X105438884Y-68758500D01*
X105446944Y-68758500D01*
X105460234Y-68756951D01*
X105475158Y-68755211D01*
X105479533Y-68754778D01*
X105544990Y-68749454D01*
X105544993Y-68749453D01*
X105552288Y-68748860D01*
X105559252Y-68746604D01*
X105565211Y-68745413D01*
X105571066Y-68744029D01*
X105578332Y-68743182D01*
X105646978Y-68718265D01*
X105651106Y-68716848D01*
X105713587Y-68696607D01*
X105713589Y-68696606D01*
X105720550Y-68694351D01*
X105726805Y-68690555D01*
X105732279Y-68688049D01*
X105737709Y-68685330D01*
X105744588Y-68682833D01*
X105805627Y-68642814D01*
X105809331Y-68640477D01*
X105871758Y-68602595D01*
X105880135Y-68595197D01*
X105880159Y-68595224D01*
X105883151Y-68592571D01*
X105886384Y-68589868D01*
X105892503Y-68585856D01*
X105945779Y-68529617D01*
X105948157Y-68527175D01*
X106727276Y-67748056D01*
X106789588Y-67714030D01*
X106816371Y-67711151D01*
X107848134Y-67711151D01*
X107910316Y-67704396D01*
X108046705Y-67653266D01*
X108163261Y-67565912D01*
X108250615Y-67449356D01*
X108264898Y-67411257D01*
X108284458Y-67359081D01*
X108327100Y-67302317D01*
X108393662Y-67277617D01*
X108463010Y-67292825D01*
X108491535Y-67314216D01*
X113491412Y-72314093D01*
X113525438Y-72376405D01*
X113524836Y-72432602D01*
X113506620Y-72508476D01*
X113506619Y-72508482D01*
X113505465Y-72513289D01*
X113486835Y-72750000D01*
X113505465Y-72986711D01*
X113560895Y-73217594D01*
X113562788Y-73222165D01*
X113562789Y-73222167D01*
X113649772Y-73432163D01*
X113651760Y-73436963D01*
X113654346Y-73441183D01*
X113773241Y-73635202D01*
X113773245Y-73635208D01*
X113775824Y-73639416D01*
X113930031Y-73819969D01*
X114110584Y-73974176D01*
X114114792Y-73976755D01*
X114114798Y-73976759D01*
X114308084Y-74095205D01*
X114313037Y-74098240D01*
X114317607Y-74100133D01*
X114317611Y-74100135D01*
X114527833Y-74187211D01*
X114532406Y-74189105D01*
X114612609Y-74208360D01*
X114758476Y-74243380D01*
X114758482Y-74243381D01*
X114763289Y-74244535D01*
X115000000Y-74263165D01*
X115236711Y-74244535D01*
X115241518Y-74243381D01*
X115241524Y-74243380D01*
X115317398Y-74225164D01*
X115388306Y-74228711D01*
X115435907Y-74258588D01*
X118204595Y-77027276D01*
X118238621Y-77089588D01*
X118241500Y-77116371D01*
X118241500Y-80182930D01*
X118240067Y-80201880D01*
X118238412Y-80212761D01*
X118236801Y-80223349D01*
X118237394Y-80230641D01*
X118237394Y-80230644D01*
X118241085Y-80276018D01*
X118241500Y-80286233D01*
X118241500Y-80294293D01*
X118241925Y-80297937D01*
X118244789Y-80322507D01*
X118245222Y-80326882D01*
X118250344Y-80389849D01*
X118251140Y-80399637D01*
X118253396Y-80406601D01*
X118254587Y-80412560D01*
X118255971Y-80418415D01*
X118256818Y-80425681D01*
X118281735Y-80494327D01*
X118283152Y-80498455D01*
X118300050Y-80550615D01*
X118305649Y-80567899D01*
X118309445Y-80574154D01*
X118311951Y-80579628D01*
X118314670Y-80585058D01*
X118317167Y-80591937D01*
X118321180Y-80598057D01*
X118321180Y-80598058D01*
X118357186Y-80652976D01*
X118359523Y-80656680D01*
X118397405Y-80719107D01*
X118401121Y-80723315D01*
X118401122Y-80723316D01*
X118404803Y-80727484D01*
X118404776Y-80727508D01*
X118407429Y-80730500D01*
X118410132Y-80733733D01*
X118414144Y-80739852D01*
X118419456Y-80744884D01*
X118470383Y-80793128D01*
X118472825Y-80795506D01*
X119416230Y-81738911D01*
X119428616Y-81753323D01*
X119437149Y-81764918D01*
X119437154Y-81764923D01*
X119441492Y-81770818D01*
X119447070Y-81775557D01*
X119447073Y-81775560D01*
X119481768Y-81805035D01*
X119489284Y-81811965D01*
X119494980Y-81817661D01*
X119497841Y-81819924D01*
X119497846Y-81819929D01*
X119517266Y-81835293D01*
X119520667Y-81838082D01*
X119542913Y-81856981D01*
X119576285Y-81885333D01*
X119582805Y-81888662D01*
X119587852Y-81892028D01*
X119592976Y-81895193D01*
X119598717Y-81899735D01*
X119605348Y-81902834D01*
X119605351Y-81902836D01*
X119652723Y-81924976D01*
X119660949Y-81928820D01*
X119664830Y-81930634D01*
X119668776Y-81932562D01*
X119733808Y-81965769D01*
X119740914Y-81967508D01*
X119746564Y-81969609D01*
X119752321Y-81971524D01*
X119758950Y-81974622D01*
X119830435Y-81989491D01*
X119834701Y-81990457D01*
X119905610Y-82007808D01*
X119911212Y-82008156D01*
X119911215Y-82008156D01*
X119916764Y-82008500D01*
X119916762Y-82008535D01*
X119920734Y-82008775D01*
X119924955Y-82009152D01*
X119932115Y-82010641D01*
X120009542Y-82008546D01*
X120012950Y-82008500D01*
X122022130Y-82008500D01*
X122041080Y-82009933D01*
X122055315Y-82012099D01*
X122055319Y-82012099D01*
X122062549Y-82013199D01*
X122069841Y-82012606D01*
X122069844Y-82012606D01*
X122115218Y-82008915D01*
X122125433Y-82008500D01*
X128303217Y-82008500D01*
X128371338Y-82028502D01*
X128417831Y-82082158D01*
X128427935Y-82152432D01*
X128399028Y-82216331D01*
X128275824Y-82360584D01*
X128273245Y-82364792D01*
X128273241Y-82364798D01*
X128182269Y-82513251D01*
X128151760Y-82563037D01*
X128149867Y-82567607D01*
X128149865Y-82567611D01*
X128065384Y-82771569D01*
X128060895Y-82782406D01*
X128041640Y-82862609D01*
X128011075Y-82989922D01*
X128005465Y-83013289D01*
X127986835Y-83250000D01*
X128002174Y-83444889D01*
X128002809Y-83452963D01*
X127988213Y-83522443D01*
X127938371Y-83573002D01*
X127877197Y-83588849D01*
X122431291Y-83588849D01*
X122363170Y-83568847D01*
X122316677Y-83515191D01*
X122306028Y-83476457D01*
X122304703Y-83464263D01*
X122301745Y-83437033D01*
X122250615Y-83300644D01*
X122163261Y-83184088D01*
X122046705Y-83096734D01*
X121910316Y-83045604D01*
X121848134Y-83038849D01*
X120151866Y-83038849D01*
X120089684Y-83045604D01*
X119953295Y-83096734D01*
X119836739Y-83184088D01*
X119831358Y-83191268D01*
X119825008Y-83197618D01*
X119824040Y-83196650D01*
X119774651Y-83233580D01*
X119730684Y-83241500D01*
X112222739Y-83241500D01*
X112154618Y-83221498D01*
X112113346Y-83178023D01*
X112048138Y-83063933D01*
X112003518Y-82985864D01*
X111991961Y-82971203D01*
X111877881Y-82826494D01*
X111837105Y-82774769D01*
X111641317Y-82590591D01*
X111420457Y-82437374D01*
X111416264Y-82435306D01*
X111183564Y-82320551D01*
X111183561Y-82320550D01*
X111179376Y-82318486D01*
X111131745Y-82303239D01*
X111077621Y-82285914D01*
X110923370Y-82236538D01*
X110918763Y-82235788D01*
X110918760Y-82235787D01*
X110662674Y-82194081D01*
X110662675Y-82194081D01*
X110658063Y-82193330D01*
X110527719Y-82191624D01*
X110393961Y-82189873D01*
X110393958Y-82189873D01*
X110389284Y-82189812D01*
X110122937Y-82226060D01*
X109864874Y-82301278D01*
X109620763Y-82413815D01*
X109616854Y-82416378D01*
X109399881Y-82558631D01*
X109399876Y-82558635D01*
X109395968Y-82561197D01*
X109392476Y-82564314D01*
X109217197Y-82720757D01*
X109195426Y-82740188D01*
X109023544Y-82946854D01*
X108884096Y-83176656D01*
X108882287Y-83180970D01*
X108882285Y-83180974D01*
X108860277Y-83233458D01*
X108780148Y-83424545D01*
X108713981Y-83685077D01*
X108687050Y-83952526D01*
X108687274Y-83957192D01*
X108687274Y-83957197D01*
X108692199Y-84059728D01*
X108699947Y-84221019D01*
X108752388Y-84484656D01*
X108843220Y-84737646D01*
X108845432Y-84741762D01*
X108845433Y-84741765D01*
X108901270Y-84845681D01*
X108970450Y-84974431D01*
X108973241Y-84978168D01*
X108973245Y-84978175D01*
X109042472Y-85070880D01*
X109131281Y-85189810D01*
X109134590Y-85193090D01*
X109134595Y-85193096D01*
X109318863Y-85375762D01*
X109322180Y-85379050D01*
X109325942Y-85381808D01*
X109325945Y-85381811D01*
X109535183Y-85535230D01*
X109538954Y-85537995D01*
X109543089Y-85540171D01*
X109543093Y-85540173D01*
X109772698Y-85660975D01*
X109776840Y-85663154D01*
X110030613Y-85751775D01*
X110035206Y-85752647D01*
X110290109Y-85801042D01*
X110290112Y-85801042D01*
X110294698Y-85801913D01*
X110422370Y-85806929D01*
X110558625Y-85812283D01*
X110558630Y-85812283D01*
X110563293Y-85812466D01*
X110667607Y-85801042D01*
X110825844Y-85783713D01*
X110825850Y-85783712D01*
X110830497Y-85783203D01*
X110905820Y-85763372D01*
X111085918Y-85715956D01*
X111085920Y-85715955D01*
X111090441Y-85714765D01*
X111096744Y-85712057D01*
X111333120Y-85610502D01*
X111333122Y-85610501D01*
X111337414Y-85608657D01*
X111448083Y-85540173D01*
X111562017Y-85469669D01*
X111562021Y-85469666D01*
X111565990Y-85467210D01*
X111771149Y-85293530D01*
X111948382Y-85091434D01*
X111957863Y-85076695D01*
X112091272Y-84869287D01*
X112091274Y-84869284D01*
X112093797Y-84865361D01*
X112108487Y-84832750D01*
X112154702Y-84778855D01*
X112223369Y-84758500D01*
X119211978Y-84758500D01*
X119280099Y-84778502D01*
X119326592Y-84832158D01*
X119336696Y-84902432D01*
X119307202Y-84967012D01*
X119301073Y-84973595D01*
X116081578Y-88193090D01*
X116067166Y-88205476D01*
X116055571Y-88214009D01*
X116055566Y-88214014D01*
X116049671Y-88218352D01*
X116044932Y-88223930D01*
X116044929Y-88223933D01*
X116015454Y-88258628D01*
X116008524Y-88266144D01*
X116002829Y-88271839D01*
X116000549Y-88274721D01*
X115985208Y-88294111D01*
X115982417Y-88297515D01*
X115939898Y-88347563D01*
X115935156Y-88353145D01*
X115931828Y-88359661D01*
X115928461Y-88364710D01*
X115925294Y-88369839D01*
X115920755Y-88375576D01*
X115889834Y-88441735D01*
X115887931Y-88445629D01*
X115854720Y-88510668D01*
X115852981Y-88517776D01*
X115850882Y-88523419D01*
X115848965Y-88529182D01*
X115845867Y-88535810D01*
X115844377Y-88542972D01*
X115844377Y-88542973D01*
X115831003Y-88607272D01*
X115830033Y-88611556D01*
X115812681Y-88682470D01*
X115811989Y-88693624D01*
X115811953Y-88693622D01*
X115811714Y-88697615D01*
X115811340Y-88701807D01*
X115809849Y-88708975D01*
X115810047Y-88716292D01*
X115811943Y-88786381D01*
X115811989Y-88789788D01*
X115811989Y-93737638D01*
X115791987Y-93805759D01*
X115738331Y-93852252D01*
X115668057Y-93862356D01*
X115632739Y-93851833D01*
X115454053Y-93768510D01*
X115443761Y-93764764D01*
X115233312Y-93708375D01*
X115222519Y-93706472D01*
X115005475Y-93687483D01*
X114994525Y-93687483D01*
X114777481Y-93706472D01*
X114766688Y-93708375D01*
X114556239Y-93764764D01*
X114545947Y-93768510D01*
X114348489Y-93860586D01*
X114338994Y-93866069D01*
X114286952Y-93902509D01*
X114278576Y-93912988D01*
X114285644Y-93926434D01*
X115270115Y-94910905D01*
X115304141Y-94973217D01*
X115299076Y-95044032D01*
X115270115Y-95089095D01*
X114284923Y-96074287D01*
X114278493Y-96086062D01*
X114287789Y-96098077D01*
X114338994Y-96133931D01*
X114348489Y-96139414D01*
X114545947Y-96231490D01*
X114556239Y-96235236D01*
X114766688Y-96291625D01*
X114777481Y-96293528D01*
X114994525Y-96312517D01*
X115005475Y-96312517D01*
X115222519Y-96293528D01*
X115233312Y-96291625D01*
X115443761Y-96235236D01*
X115454053Y-96231490D01*
X115632739Y-96148167D01*
X115702931Y-96137506D01*
X115767743Y-96166486D01*
X115806600Y-96225906D01*
X115811989Y-96262362D01*
X115811989Y-99541721D01*
X115791987Y-99609842D01*
X115761642Y-99642481D01*
X115736680Y-99661223D01*
X115665374Y-99735840D01*
X115587657Y-99817167D01*
X115570699Y-99834912D01*
X115435314Y-100033378D01*
X115433140Y-100038061D01*
X115433138Y-100038065D01*
X115336342Y-100246595D01*
X115334163Y-100251290D01*
X115269960Y-100482798D01*
X115269411Y-100487935D01*
X115263150Y-100546525D01*
X115249000Y-100678928D01*
X115249000Y-100913402D01*
X115263678Y-101091937D01*
X115322206Y-101324944D01*
X115324267Y-101329683D01*
X115408117Y-101522526D01*
X115418003Y-101545263D01*
X115518462Y-101700548D01*
X115548498Y-101746977D01*
X115546514Y-101748261D01*
X115568679Y-101805217D01*
X115554570Y-101874797D01*
X115505081Y-101925704D01*
X115443140Y-101941980D01*
X107377000Y-101941980D01*
X107308879Y-101921978D01*
X107262386Y-101868322D01*
X107251000Y-101815980D01*
X107251000Y-99756866D01*
X107244245Y-99694684D01*
X107193115Y-99558295D01*
X107105761Y-99441739D01*
X106989205Y-99354385D01*
X106852816Y-99303255D01*
X106790634Y-99296500D01*
X104789366Y-99296500D01*
X104727184Y-99303255D01*
X104590795Y-99354385D01*
X104474239Y-99441739D01*
X104386885Y-99558295D01*
X104379427Y-99578189D01*
X104336787Y-99634953D01*
X104270226Y-99659654D01*
X104200877Y-99644447D01*
X104183353Y-99632842D01*
X104065330Y-99539633D01*
X104065325Y-99539630D01*
X104061276Y-99536432D01*
X104056760Y-99533939D01*
X104056757Y-99533937D01*
X103855474Y-99422823D01*
X103855470Y-99422821D01*
X103850950Y-99420326D01*
X103846081Y-99418602D01*
X103846077Y-99418600D01*
X103629360Y-99341856D01*
X103629356Y-99341855D01*
X103624485Y-99340130D01*
X103619392Y-99339223D01*
X103619389Y-99339222D01*
X103393052Y-99298905D01*
X103393046Y-99298904D01*
X103387963Y-99297999D01*
X103295474Y-99296869D01*
X103152907Y-99295127D01*
X103152905Y-99295127D01*
X103147737Y-99295064D01*
X102910256Y-99331404D01*
X102814071Y-99362842D01*
X102686817Y-99404434D01*
X102686811Y-99404437D01*
X102681899Y-99406042D01*
X102677313Y-99408429D01*
X102677309Y-99408431D01*
X102473393Y-99514584D01*
X102468800Y-99516975D01*
X102425809Y-99549254D01*
X102336893Y-99616014D01*
X102276680Y-99661223D01*
X102273108Y-99664961D01*
X102123822Y-99821180D01*
X102110699Y-99834912D01*
X102085160Y-99872351D01*
X102030249Y-99917352D01*
X101959725Y-99925523D01*
X101895978Y-99894269D01*
X101875284Y-99869790D01*
X101873915Y-99867674D01*
X101867622Y-99859502D01*
X101712950Y-99689520D01*
X101705417Y-99682494D01*
X101525056Y-99540055D01*
X101516469Y-99534350D01*
X101315278Y-99423286D01*
X101305866Y-99419056D01*
X101089232Y-99342341D01*
X101079261Y-99339707D01*
X100981837Y-99322353D01*
X100968540Y-99323813D01*
X100964000Y-99338370D01*
X100964000Y-100933000D01*
X100943998Y-101001121D01*
X100890342Y-101047614D01*
X100838000Y-101059000D01*
X99279588Y-101059000D01*
X99264859Y-101063325D01*
X99262798Y-101075111D01*
X99263751Y-101086704D01*
X99265433Y-101096866D01*
X99321422Y-101319771D01*
X99324741Y-101329519D01*
X99416385Y-101540289D01*
X99421251Y-101549364D01*
X99546085Y-101742327D01*
X99552378Y-101750498D01*
X99707050Y-101920480D01*
X99714583Y-101927506D01*
X99894944Y-102069945D01*
X99903531Y-102075650D01*
X100104722Y-102186714D01*
X100114134Y-102190944D01*
X100273071Y-102247227D01*
X100330607Y-102288821D01*
X100356523Y-102354919D01*
X100342589Y-102424535D01*
X100293230Y-102475566D01*
X100231011Y-102492000D01*
X96321153Y-102492000D01*
X96253032Y-102471998D01*
X96206539Y-102418342D01*
X96195180Y-102368624D01*
X96156938Y-100532987D01*
X99265099Y-100532987D01*
X99267747Y-100547608D01*
X99280124Y-100551000D01*
X100437885Y-100551000D01*
X100453124Y-100546525D01*
X100454329Y-100545135D01*
X100456000Y-100537452D01*
X100456000Y-99336904D01*
X100452082Y-99323560D01*
X100437806Y-99321573D01*
X100375485Y-99331110D01*
X100365457Y-99333499D01*
X100147012Y-99404898D01*
X100137503Y-99408895D01*
X99933656Y-99515011D01*
X99924931Y-99520505D01*
X99741148Y-99658493D01*
X99733441Y-99665336D01*
X99574661Y-99831491D01*
X99568174Y-99839501D01*
X99438670Y-100029347D01*
X99433571Y-100038321D01*
X99336813Y-100246769D01*
X99333250Y-100256456D01*
X99271835Y-100477908D01*
X99269904Y-100488030D01*
X99265099Y-100532987D01*
X96156938Y-100532987D01*
X96068586Y-96292119D01*
X96041667Y-95000000D01*
X103526502Y-95000000D01*
X103546457Y-95228087D01*
X103547881Y-95233400D01*
X103547881Y-95233402D01*
X103557031Y-95267548D01*
X103605716Y-95449243D01*
X103608039Y-95454224D01*
X103608039Y-95454225D01*
X103700151Y-95651762D01*
X103700154Y-95651767D01*
X103702477Y-95656749D01*
X103705634Y-95661257D01*
X103827695Y-95835578D01*
X103833802Y-95844300D01*
X103995700Y-96006198D01*
X104000208Y-96009355D01*
X104000211Y-96009357D01*
X104027769Y-96028653D01*
X104183251Y-96137523D01*
X104188233Y-96139846D01*
X104188238Y-96139849D01*
X104372790Y-96225906D01*
X104390757Y-96234284D01*
X104396065Y-96235706D01*
X104396067Y-96235707D01*
X104606598Y-96292119D01*
X104606600Y-96292119D01*
X104611913Y-96293543D01*
X104840000Y-96313498D01*
X105068087Y-96293543D01*
X105073400Y-96292119D01*
X105073402Y-96292119D01*
X105283933Y-96235707D01*
X105283935Y-96235706D01*
X105289243Y-96234284D01*
X105307210Y-96225906D01*
X105491762Y-96139849D01*
X105491767Y-96139846D01*
X105496749Y-96137523D01*
X105652231Y-96028653D01*
X105679789Y-96009357D01*
X105679792Y-96009355D01*
X105684300Y-96006198D01*
X105846198Y-95844300D01*
X105852306Y-95835578D01*
X105974366Y-95661257D01*
X105977523Y-95656749D01*
X105979846Y-95651767D01*
X105979849Y-95651762D01*
X106071961Y-95454225D01*
X106071961Y-95454224D01*
X106074284Y-95449243D01*
X106122970Y-95267548D01*
X106132119Y-95233402D01*
X106132119Y-95233400D01*
X106133543Y-95228087D01*
X106153019Y-95005475D01*
X113687483Y-95005475D01*
X113706472Y-95222519D01*
X113708375Y-95233312D01*
X113764764Y-95443761D01*
X113768510Y-95454053D01*
X113860586Y-95651511D01*
X113866069Y-95661006D01*
X113902509Y-95713048D01*
X113912988Y-95721424D01*
X113926434Y-95714356D01*
X114627978Y-95012812D01*
X114635592Y-94998868D01*
X114635461Y-94997035D01*
X114631210Y-94990420D01*
X113925713Y-94284923D01*
X113913938Y-94278493D01*
X113901923Y-94287789D01*
X113866069Y-94338994D01*
X113860586Y-94348489D01*
X113768510Y-94545947D01*
X113764764Y-94556239D01*
X113708375Y-94766688D01*
X113706472Y-94777481D01*
X113687483Y-94994525D01*
X113687483Y-95005475D01*
X106153019Y-95005475D01*
X106153498Y-95000000D01*
X106133543Y-94771913D01*
X106123244Y-94733478D01*
X106075707Y-94556067D01*
X106075706Y-94556065D01*
X106074284Y-94550757D01*
X106059458Y-94518962D01*
X105979849Y-94348238D01*
X105979846Y-94348233D01*
X105977523Y-94343251D01*
X105904098Y-94238389D01*
X105849357Y-94160211D01*
X105849355Y-94160208D01*
X105846198Y-94155700D01*
X105684300Y-93993802D01*
X105679792Y-93990645D01*
X105679789Y-93990643D01*
X105553920Y-93902509D01*
X105496749Y-93862477D01*
X105491767Y-93860154D01*
X105491762Y-93860151D01*
X105294225Y-93768039D01*
X105294224Y-93768039D01*
X105289243Y-93765716D01*
X105283935Y-93764294D01*
X105283933Y-93764293D01*
X105073402Y-93707881D01*
X105073400Y-93707881D01*
X105068087Y-93706457D01*
X104840000Y-93686502D01*
X104611913Y-93706457D01*
X104606600Y-93707881D01*
X104606598Y-93707881D01*
X104396067Y-93764293D01*
X104396065Y-93764294D01*
X104390757Y-93765716D01*
X104385776Y-93768039D01*
X104385775Y-93768039D01*
X104188238Y-93860151D01*
X104188233Y-93860154D01*
X104183251Y-93862477D01*
X104126080Y-93902509D01*
X104000211Y-93990643D01*
X104000208Y-93990645D01*
X103995700Y-93993802D01*
X103833802Y-94155700D01*
X103830645Y-94160208D01*
X103830643Y-94160211D01*
X103775902Y-94238389D01*
X103702477Y-94343251D01*
X103700154Y-94348233D01*
X103700151Y-94348238D01*
X103620542Y-94518962D01*
X103605716Y-94550757D01*
X103604294Y-94556065D01*
X103604293Y-94556067D01*
X103556756Y-94733478D01*
X103546457Y-94771913D01*
X103526502Y-95000000D01*
X96041667Y-95000000D01*
X96000000Y-93000000D01*
X86634000Y-93000000D01*
X86565879Y-92979998D01*
X86519386Y-92926342D01*
X86508000Y-92874000D01*
X86508000Y-84507194D01*
X90286135Y-84507194D01*
X90297006Y-84578236D01*
X90299395Y-84588263D01*
X90372709Y-84812570D01*
X90376706Y-84822079D01*
X90485669Y-85031395D01*
X90491163Y-85040120D01*
X90632854Y-85228835D01*
X90639697Y-85236542D01*
X90810310Y-85399584D01*
X90818316Y-85406067D01*
X91013274Y-85539057D01*
X91022226Y-85544143D01*
X91236285Y-85643506D01*
X91245945Y-85647060D01*
X91473369Y-85710130D01*
X91483473Y-85712057D01*
X91676102Y-85732644D01*
X91682794Y-85733000D01*
X92477885Y-85733000D01*
X92493124Y-85728525D01*
X92494329Y-85727135D01*
X92496000Y-85719452D01*
X92496000Y-85714885D01*
X93004000Y-85714885D01*
X93008475Y-85730124D01*
X93009865Y-85731329D01*
X93017548Y-85733000D01*
X93799857Y-85733000D01*
X93805030Y-85732788D01*
X93980350Y-85718374D01*
X93990512Y-85716691D01*
X94219396Y-85659200D01*
X94229151Y-85655879D01*
X94445557Y-85561782D01*
X94454655Y-85556904D01*
X94652787Y-85428727D01*
X94660956Y-85422437D01*
X94835501Y-85263613D01*
X94842526Y-85256080D01*
X94988787Y-85070880D01*
X94994492Y-85062293D01*
X95108536Y-84855703D01*
X95112766Y-84846291D01*
X95191539Y-84623844D01*
X95194173Y-84613873D01*
X95213239Y-84506837D01*
X95211779Y-84493540D01*
X95197222Y-84489000D01*
X93022115Y-84489000D01*
X93006876Y-84493475D01*
X93005671Y-84494865D01*
X93004000Y-84502548D01*
X93004000Y-85714885D01*
X92496000Y-85714885D01*
X92496000Y-84507115D01*
X92491525Y-84491876D01*
X92490135Y-84490671D01*
X92482452Y-84489000D01*
X90301466Y-84489000D01*
X90288122Y-84492918D01*
X90286135Y-84507194D01*
X86508000Y-84507194D01*
X86508000Y-83963163D01*
X90286761Y-83963163D01*
X90288221Y-83976460D01*
X90302778Y-83981000D01*
X92477885Y-83981000D01*
X92493124Y-83976525D01*
X92494329Y-83975135D01*
X92496000Y-83967452D01*
X92496000Y-83962885D01*
X93004000Y-83962885D01*
X93008475Y-83978124D01*
X93009865Y-83979329D01*
X93017548Y-83981000D01*
X95198534Y-83981000D01*
X95211878Y-83977082D01*
X95213865Y-83962806D01*
X95202994Y-83891764D01*
X95200605Y-83881737D01*
X95127291Y-83657430D01*
X95123294Y-83647921D01*
X95014331Y-83438605D01*
X95008837Y-83429880D01*
X94867146Y-83241165D01*
X94860303Y-83233458D01*
X94689690Y-83070416D01*
X94681684Y-83063933D01*
X94486726Y-82930943D01*
X94477774Y-82925857D01*
X94263715Y-82826494D01*
X94254055Y-82822940D01*
X94026631Y-82759870D01*
X94016527Y-82757943D01*
X93823898Y-82737356D01*
X93817206Y-82737000D01*
X93022115Y-82737000D01*
X93006876Y-82741475D01*
X93005671Y-82742865D01*
X93004000Y-82750548D01*
X93004000Y-83962885D01*
X92496000Y-83962885D01*
X92496000Y-82755115D01*
X92491525Y-82739876D01*
X92490135Y-82738671D01*
X92482452Y-82737000D01*
X91700143Y-82737000D01*
X91694970Y-82737212D01*
X91519650Y-82751626D01*
X91509488Y-82753309D01*
X91280604Y-82810800D01*
X91270849Y-82814121D01*
X91054443Y-82908218D01*
X91045345Y-82913096D01*
X90847213Y-83041273D01*
X90839044Y-83047563D01*
X90664499Y-83206387D01*
X90657474Y-83213920D01*
X90511213Y-83399120D01*
X90505508Y-83407707D01*
X90391464Y-83614297D01*
X90387234Y-83623709D01*
X90308461Y-83846156D01*
X90305827Y-83856127D01*
X90286761Y-83963163D01*
X86508000Y-83963163D01*
X86508000Y-82629806D01*
X86508005Y-82628741D01*
X86510304Y-82356822D01*
X86527917Y-80273134D01*
X90261500Y-80273134D01*
X90268255Y-80335316D01*
X90319385Y-80471705D01*
X90406739Y-80588261D01*
X90523295Y-80675615D01*
X90659684Y-80726745D01*
X90721866Y-80733500D01*
X94778134Y-80733500D01*
X94840316Y-80726745D01*
X94976705Y-80675615D01*
X95093261Y-80588261D01*
X95180615Y-80471705D01*
X95231745Y-80335316D01*
X95238500Y-80273134D01*
X95238500Y-80148134D01*
X104561500Y-80148134D01*
X104568255Y-80210316D01*
X104619385Y-80346705D01*
X104706739Y-80463261D01*
X104823295Y-80550615D01*
X104959684Y-80601745D01*
X105021866Y-80608500D01*
X105285500Y-80608500D01*
X105353621Y-80628502D01*
X105400114Y-80682158D01*
X105411500Y-80734500D01*
X105411500Y-84602930D01*
X105410067Y-84621880D01*
X105406801Y-84643349D01*
X105407394Y-84650641D01*
X105407394Y-84650644D01*
X105411085Y-84696018D01*
X105411500Y-84706233D01*
X105411500Y-84714293D01*
X105411925Y-84717937D01*
X105414789Y-84742507D01*
X105415222Y-84746882D01*
X105416547Y-84763165D01*
X105421140Y-84819637D01*
X105423396Y-84826601D01*
X105424587Y-84832560D01*
X105425971Y-84838415D01*
X105426818Y-84845681D01*
X105451735Y-84914327D01*
X105453152Y-84918455D01*
X105460957Y-84942546D01*
X105475649Y-84987899D01*
X105479445Y-84994154D01*
X105481951Y-84999628D01*
X105484670Y-85005058D01*
X105487167Y-85011937D01*
X105491180Y-85018057D01*
X105491180Y-85018058D01*
X105527186Y-85072976D01*
X105529523Y-85076680D01*
X105567405Y-85139107D01*
X105571121Y-85143315D01*
X105571122Y-85143316D01*
X105574803Y-85147484D01*
X105574776Y-85147508D01*
X105577429Y-85150500D01*
X105580132Y-85153733D01*
X105584144Y-85159852D01*
X105589456Y-85164884D01*
X105640383Y-85213128D01*
X105642825Y-85215506D01*
X108744008Y-88316689D01*
X108778034Y-88379001D01*
X108777036Y-88436798D01*
X108713981Y-88685077D01*
X108687050Y-88952526D01*
X108687274Y-88957192D01*
X108687274Y-88957197D01*
X108691931Y-89054136D01*
X108699947Y-89221019D01*
X108752388Y-89484656D01*
X108843220Y-89737646D01*
X108845432Y-89741762D01*
X108845433Y-89741765D01*
X108909555Y-89861100D01*
X108970450Y-89974431D01*
X108973241Y-89978168D01*
X108973245Y-89978175D01*
X109040898Y-90068773D01*
X109131281Y-90189810D01*
X109134590Y-90193090D01*
X109134595Y-90193096D01*
X109318863Y-90375762D01*
X109322180Y-90379050D01*
X109325942Y-90381808D01*
X109325945Y-90381811D01*
X109512095Y-90518301D01*
X109538954Y-90537995D01*
X109543089Y-90540171D01*
X109543093Y-90540173D01*
X109772698Y-90660975D01*
X109776840Y-90663154D01*
X109848089Y-90688035D01*
X110022289Y-90748868D01*
X110030613Y-90751775D01*
X110035206Y-90752647D01*
X110290109Y-90801042D01*
X110290112Y-90801042D01*
X110294698Y-90801913D01*
X110422370Y-90806929D01*
X110558625Y-90812283D01*
X110558630Y-90812283D01*
X110563293Y-90812466D01*
X110667607Y-90801042D01*
X110825844Y-90783713D01*
X110825850Y-90783712D01*
X110830497Y-90783203D01*
X110907947Y-90762812D01*
X111085918Y-90715956D01*
X111085920Y-90715955D01*
X111090441Y-90714765D01*
X111159870Y-90684936D01*
X111333120Y-90610502D01*
X111333122Y-90610501D01*
X111337414Y-90608657D01*
X111459429Y-90533152D01*
X111562017Y-90469669D01*
X111562021Y-90469666D01*
X111565990Y-90467210D01*
X111771149Y-90293530D01*
X111948382Y-90091434D01*
X111967505Y-90061705D01*
X112080601Y-89885876D01*
X112093797Y-89865361D01*
X112204199Y-89620278D01*
X112229742Y-89529710D01*
X112275893Y-89366072D01*
X112275894Y-89366069D01*
X112277163Y-89361568D01*
X112295043Y-89221019D01*
X112310688Y-89098045D01*
X112310688Y-89098041D01*
X112311086Y-89094915D01*
X112311188Y-89091041D01*
X112312842Y-89027834D01*
X112313571Y-89000000D01*
X112302787Y-88854883D01*
X112293996Y-88736592D01*
X112293996Y-88736591D01*
X112293650Y-88731937D01*
X112290110Y-88716292D01*
X112235361Y-88474331D01*
X112235360Y-88474326D01*
X112234327Y-88469763D01*
X112136902Y-88219238D01*
X112003518Y-87985864D01*
X111837105Y-87774769D01*
X111641317Y-87590591D01*
X111420457Y-87437374D01*
X111416264Y-87435306D01*
X111183564Y-87320551D01*
X111183561Y-87320550D01*
X111179376Y-87318486D01*
X110923370Y-87236538D01*
X110918763Y-87235788D01*
X110918760Y-87235787D01*
X110662674Y-87194081D01*
X110662675Y-87194081D01*
X110658063Y-87193330D01*
X110527719Y-87191624D01*
X110393961Y-87189873D01*
X110393958Y-87189873D01*
X110389284Y-87189812D01*
X110122937Y-87226060D01*
X109943518Y-87278356D01*
X109872523Y-87278216D01*
X109819166Y-87246485D01*
X106965405Y-84392724D01*
X106931379Y-84330412D01*
X106928500Y-84303629D01*
X106928500Y-80734500D01*
X106948502Y-80666379D01*
X107002158Y-80619886D01*
X107054500Y-80608500D01*
X107318134Y-80608500D01*
X107380316Y-80601745D01*
X107516705Y-80550615D01*
X107633261Y-80463261D01*
X107720615Y-80346705D01*
X107771745Y-80210316D01*
X107778500Y-80148134D01*
X107778500Y-79267431D01*
X114740512Y-79267431D01*
X114794817Y-79493624D01*
X114797866Y-79503009D01*
X114890936Y-79727700D01*
X114895417Y-79736494D01*
X115022496Y-79943867D01*
X115028289Y-79951840D01*
X115186249Y-80136787D01*
X115193213Y-80143751D01*
X115378160Y-80301711D01*
X115386133Y-80307504D01*
X115593506Y-80434583D01*
X115602300Y-80439064D01*
X115826991Y-80532134D01*
X115836376Y-80535183D01*
X116058385Y-80588483D01*
X116072470Y-80587778D01*
X116076000Y-80578899D01*
X116076000Y-80574597D01*
X116584000Y-80574597D01*
X116587973Y-80588128D01*
X116597431Y-80589488D01*
X116823624Y-80535183D01*
X116833009Y-80532134D01*
X117057700Y-80439064D01*
X117066494Y-80434583D01*
X117273867Y-80307504D01*
X117281840Y-80301711D01*
X117466787Y-80143751D01*
X117473751Y-80136787D01*
X117631711Y-79951840D01*
X117637504Y-79943867D01*
X117764583Y-79736494D01*
X117769064Y-79727700D01*
X117862134Y-79503009D01*
X117865183Y-79493624D01*
X117918483Y-79271615D01*
X117917778Y-79257530D01*
X117908899Y-79254000D01*
X116602115Y-79254000D01*
X116586876Y-79258475D01*
X116585671Y-79259865D01*
X116584000Y-79267548D01*
X116584000Y-80574597D01*
X116076000Y-80574597D01*
X116076000Y-79272115D01*
X116071525Y-79256876D01*
X116070135Y-79255671D01*
X116062452Y-79254000D01*
X114755403Y-79254000D01*
X114741872Y-79257973D01*
X114740512Y-79267431D01*
X107778500Y-79267431D01*
X107778500Y-78728385D01*
X114741517Y-78728385D01*
X114742222Y-78742470D01*
X114751101Y-78746000D01*
X116057885Y-78746000D01*
X116073124Y-78741525D01*
X116074329Y-78740135D01*
X116076000Y-78732452D01*
X116076000Y-78727885D01*
X116584000Y-78727885D01*
X116588475Y-78743124D01*
X116589865Y-78744329D01*
X116597548Y-78746000D01*
X117904597Y-78746000D01*
X117918128Y-78742027D01*
X117919488Y-78732569D01*
X117865183Y-78506376D01*
X117862134Y-78496991D01*
X117769064Y-78272300D01*
X117764583Y-78263506D01*
X117637504Y-78056133D01*
X117631711Y-78048160D01*
X117473751Y-77863213D01*
X117466787Y-77856249D01*
X117281840Y-77698289D01*
X117273867Y-77692496D01*
X117066494Y-77565417D01*
X117057700Y-77560936D01*
X116833009Y-77467866D01*
X116823624Y-77464817D01*
X116601615Y-77411517D01*
X116587530Y-77412222D01*
X116584000Y-77421101D01*
X116584000Y-78727885D01*
X116076000Y-78727885D01*
X116076000Y-77425403D01*
X116072027Y-77411872D01*
X116062569Y-77410512D01*
X115836376Y-77464817D01*
X115826991Y-77467866D01*
X115602300Y-77560936D01*
X115593506Y-77565417D01*
X115386133Y-77692496D01*
X115378160Y-77698289D01*
X115193213Y-77856249D01*
X115186249Y-77863213D01*
X115028289Y-78048160D01*
X115022496Y-78056133D01*
X114895417Y-78263506D01*
X114890936Y-78272300D01*
X114797866Y-78496991D01*
X114794817Y-78506376D01*
X114741517Y-78728385D01*
X107778500Y-78728385D01*
X107778500Y-77851866D01*
X107771745Y-77789684D01*
X107720615Y-77653295D01*
X107633261Y-77536739D01*
X107516705Y-77449385D01*
X107380316Y-77398255D01*
X107318134Y-77391500D01*
X105021866Y-77391500D01*
X104959684Y-77398255D01*
X104823295Y-77449385D01*
X104706739Y-77536739D01*
X104619385Y-77653295D01*
X104568255Y-77789684D01*
X104561500Y-77851866D01*
X104561500Y-80148134D01*
X95238500Y-80148134D01*
X95238500Y-78196866D01*
X95231745Y-78134684D01*
X95180615Y-77998295D01*
X95093261Y-77881739D01*
X94976705Y-77794385D01*
X94840316Y-77743255D01*
X94778134Y-77736500D01*
X90721866Y-77736500D01*
X90659684Y-77743255D01*
X90523295Y-77794385D01*
X90406739Y-77881739D01*
X90319385Y-77998295D01*
X90268255Y-78134684D01*
X90261500Y-78196866D01*
X90261500Y-80273134D01*
X86527917Y-80273134D01*
X86587095Y-73272194D01*
X90286135Y-73272194D01*
X90297006Y-73343236D01*
X90299395Y-73353263D01*
X90372709Y-73577570D01*
X90376706Y-73587079D01*
X90485669Y-73796395D01*
X90491163Y-73805120D01*
X90632854Y-73993835D01*
X90639697Y-74001542D01*
X90810310Y-74164584D01*
X90818316Y-74171067D01*
X91013274Y-74304057D01*
X91022226Y-74309143D01*
X91236285Y-74408506D01*
X91245945Y-74412060D01*
X91473369Y-74475130D01*
X91483473Y-74477057D01*
X91676102Y-74497644D01*
X91682794Y-74498000D01*
X92477885Y-74498000D01*
X92493124Y-74493525D01*
X92494329Y-74492135D01*
X92496000Y-74484452D01*
X92496000Y-74479885D01*
X93004000Y-74479885D01*
X93008475Y-74495124D01*
X93009865Y-74496329D01*
X93017548Y-74498000D01*
X93799857Y-74498000D01*
X93805030Y-74497788D01*
X93980350Y-74483374D01*
X93990512Y-74481691D01*
X94219396Y-74424200D01*
X94229151Y-74420879D01*
X94445557Y-74326782D01*
X94454655Y-74321904D01*
X94652787Y-74193727D01*
X94660956Y-74187437D01*
X94835501Y-74028613D01*
X94842526Y-74021080D01*
X94872860Y-73982670D01*
X106632160Y-73982670D01*
X106637887Y-73990320D01*
X106809042Y-74095205D01*
X106817837Y-74099687D01*
X107027988Y-74186734D01*
X107037373Y-74189783D01*
X107258554Y-74242885D01*
X107268301Y-74244428D01*
X107495070Y-74262275D01*
X107504930Y-74262275D01*
X107731699Y-74244428D01*
X107741446Y-74242885D01*
X107962627Y-74189783D01*
X107972012Y-74186734D01*
X108182163Y-74099687D01*
X108190958Y-74095205D01*
X108358445Y-73992568D01*
X108367907Y-73982110D01*
X108364124Y-73973334D01*
X107512812Y-73122022D01*
X107498868Y-73114408D01*
X107497035Y-73114539D01*
X107490420Y-73118790D01*
X106638920Y-73970290D01*
X106632160Y-73982670D01*
X94872860Y-73982670D01*
X94988787Y-73835880D01*
X94994492Y-73827293D01*
X95108536Y-73620703D01*
X95112766Y-73611291D01*
X95191539Y-73388844D01*
X95194173Y-73378873D01*
X95213239Y-73271837D01*
X95211779Y-73258540D01*
X95197222Y-73254000D01*
X93022115Y-73254000D01*
X93006876Y-73258475D01*
X93005671Y-73259865D01*
X93004000Y-73267548D01*
X93004000Y-74479885D01*
X92496000Y-74479885D01*
X92496000Y-73272115D01*
X92491525Y-73256876D01*
X92490135Y-73255671D01*
X92482452Y-73254000D01*
X90301466Y-73254000D01*
X90288122Y-73257918D01*
X90286135Y-73272194D01*
X86587095Y-73272194D01*
X86591468Y-72754930D01*
X105987725Y-72754930D01*
X106005572Y-72981699D01*
X106007115Y-72991446D01*
X106060217Y-73212627D01*
X106063266Y-73222012D01*
X106150313Y-73432163D01*
X106154795Y-73440958D01*
X106257432Y-73608445D01*
X106267890Y-73617907D01*
X106276666Y-73614124D01*
X107127978Y-72762812D01*
X107134356Y-72751132D01*
X107864408Y-72751132D01*
X107864539Y-72752965D01*
X107868790Y-72759580D01*
X108720290Y-73611080D01*
X108732670Y-73617840D01*
X108740320Y-73612113D01*
X108845205Y-73440958D01*
X108849687Y-73432163D01*
X108936734Y-73222012D01*
X108939783Y-73212627D01*
X108992885Y-72991446D01*
X108994428Y-72981699D01*
X109012275Y-72754930D01*
X109012275Y-72745070D01*
X108994428Y-72518301D01*
X108992885Y-72508554D01*
X108939783Y-72287373D01*
X108936734Y-72277988D01*
X108849687Y-72067837D01*
X108845205Y-72059042D01*
X108742568Y-71891555D01*
X108732110Y-71882093D01*
X108723334Y-71885876D01*
X107872022Y-72737188D01*
X107864408Y-72751132D01*
X107134356Y-72751132D01*
X107135592Y-72748868D01*
X107135461Y-72747035D01*
X107131210Y-72740420D01*
X106279710Y-71888920D01*
X106267330Y-71882160D01*
X106259680Y-71887887D01*
X106154795Y-72059042D01*
X106150313Y-72067837D01*
X106063266Y-72277988D01*
X106060217Y-72287373D01*
X106007115Y-72508554D01*
X106005572Y-72518301D01*
X105987725Y-72745070D01*
X105987725Y-72754930D01*
X86591468Y-72754930D01*
X86591694Y-72728163D01*
X90286761Y-72728163D01*
X90288221Y-72741460D01*
X90302778Y-72746000D01*
X92477885Y-72746000D01*
X92493124Y-72741525D01*
X92494329Y-72740135D01*
X92496000Y-72732452D01*
X92496000Y-72727885D01*
X93004000Y-72727885D01*
X93008475Y-72743124D01*
X93009865Y-72744329D01*
X93017548Y-72746000D01*
X95198534Y-72746000D01*
X95211878Y-72742082D01*
X95213865Y-72727806D01*
X95202994Y-72656764D01*
X95200605Y-72646737D01*
X95127291Y-72422430D01*
X95123294Y-72412921D01*
X95014331Y-72203605D01*
X95008837Y-72194880D01*
X94867146Y-72006165D01*
X94860303Y-71998458D01*
X94689690Y-71835416D01*
X94681684Y-71828933D01*
X94486726Y-71695943D01*
X94477774Y-71690857D01*
X94263715Y-71591494D01*
X94254055Y-71587940D01*
X94026631Y-71524870D01*
X94016527Y-71522943D01*
X93969247Y-71517890D01*
X106632093Y-71517890D01*
X106635876Y-71526666D01*
X107487188Y-72377978D01*
X107501132Y-72385592D01*
X107502965Y-72385461D01*
X107509580Y-72381210D01*
X108361080Y-71529710D01*
X108367840Y-71517330D01*
X108362113Y-71509680D01*
X108190958Y-71404795D01*
X108182163Y-71400313D01*
X107972012Y-71313266D01*
X107962627Y-71310217D01*
X107741446Y-71257115D01*
X107731699Y-71255572D01*
X107504930Y-71237725D01*
X107495070Y-71237725D01*
X107268301Y-71255572D01*
X107258554Y-71257115D01*
X107037373Y-71310217D01*
X107027988Y-71313266D01*
X106817837Y-71400313D01*
X106809042Y-71404795D01*
X106641555Y-71507432D01*
X106632093Y-71517890D01*
X93969247Y-71517890D01*
X93823898Y-71502356D01*
X93817206Y-71502000D01*
X93022115Y-71502000D01*
X93006876Y-71506475D01*
X93005671Y-71507865D01*
X93004000Y-71515548D01*
X93004000Y-72727885D01*
X92496000Y-72727885D01*
X92496000Y-71520115D01*
X92491525Y-71504876D01*
X92490135Y-71503671D01*
X92482452Y-71502000D01*
X91700143Y-71502000D01*
X91694970Y-71502212D01*
X91519650Y-71516626D01*
X91509488Y-71518309D01*
X91280604Y-71575800D01*
X91270849Y-71579121D01*
X91054443Y-71673218D01*
X91045345Y-71678096D01*
X90847213Y-71806273D01*
X90839044Y-71812563D01*
X90664499Y-71971387D01*
X90657474Y-71978920D01*
X90511213Y-72164120D01*
X90505508Y-72172707D01*
X90391464Y-72379297D01*
X90387234Y-72388709D01*
X90308461Y-72611156D01*
X90305827Y-72621127D01*
X90286761Y-72728163D01*
X86591694Y-72728163D01*
X86611009Y-70443085D01*
X86678246Y-62488713D01*
X106278493Y-62488713D01*
X106287789Y-62500728D01*
X106338994Y-62536582D01*
X106348489Y-62542065D01*
X106545947Y-62634141D01*
X106556239Y-62637887D01*
X106766688Y-62694276D01*
X106777481Y-62696179D01*
X106994525Y-62715168D01*
X107005475Y-62715168D01*
X107222519Y-62696179D01*
X107233312Y-62694276D01*
X107443761Y-62637887D01*
X107454053Y-62634141D01*
X107651511Y-62542065D01*
X107661006Y-62536582D01*
X107713048Y-62500142D01*
X107721424Y-62489663D01*
X107714356Y-62476217D01*
X107012812Y-61774673D01*
X106998868Y-61767059D01*
X106997035Y-61767190D01*
X106990420Y-61771441D01*
X106284923Y-62476938D01*
X106278493Y-62488713D01*
X86678246Y-62488713D01*
X86681321Y-62124935D01*
X86701898Y-62056986D01*
X86755944Y-62010948D01*
X86807316Y-62000000D01*
X95000000Y-62000000D01*
X95000000Y-61408126D01*
X105687483Y-61408126D01*
X105706472Y-61625170D01*
X105708375Y-61635963D01*
X105764764Y-61846412D01*
X105768510Y-61856704D01*
X105860586Y-62054162D01*
X105866069Y-62063657D01*
X105902509Y-62115699D01*
X105912988Y-62124075D01*
X105926434Y-62117007D01*
X106627978Y-61415463D01*
X106634356Y-61403783D01*
X107364408Y-61403783D01*
X107364539Y-61405616D01*
X107368790Y-61412231D01*
X108074287Y-62117728D01*
X108086062Y-62124158D01*
X108098077Y-62114862D01*
X108133931Y-62063657D01*
X108139414Y-62054162D01*
X108231490Y-61856704D01*
X108235236Y-61846412D01*
X108291625Y-61635963D01*
X108293528Y-61625170D01*
X108312517Y-61408126D01*
X108312517Y-61397176D01*
X108293528Y-61180132D01*
X108291625Y-61169339D01*
X108235236Y-60958890D01*
X108231490Y-60948598D01*
X108139414Y-60751140D01*
X108133931Y-60741645D01*
X108097491Y-60689603D01*
X108087012Y-60681227D01*
X108073566Y-60688295D01*
X107372022Y-61389839D01*
X107364408Y-61403783D01*
X106634356Y-61403783D01*
X106635592Y-61401519D01*
X106635461Y-61399686D01*
X106631210Y-61393071D01*
X105925713Y-60687574D01*
X105913938Y-60681144D01*
X105901923Y-60690440D01*
X105866069Y-60741645D01*
X105860586Y-60751140D01*
X105768510Y-60948598D01*
X105764764Y-60958890D01*
X105708375Y-61169339D01*
X105706472Y-61180132D01*
X105687483Y-61397176D01*
X105687483Y-61408126D01*
X95000000Y-61408126D01*
X95000000Y-60315639D01*
X106278576Y-60315639D01*
X106285644Y-60329085D01*
X106987188Y-61030629D01*
X107001132Y-61038243D01*
X107002965Y-61038112D01*
X107009580Y-61033861D01*
X107715077Y-60328364D01*
X107721507Y-60316589D01*
X107712211Y-60304574D01*
X107661006Y-60268720D01*
X107651511Y-60263237D01*
X107454053Y-60171161D01*
X107443761Y-60167415D01*
X107233312Y-60111026D01*
X107222519Y-60109123D01*
X107005475Y-60090134D01*
X106994525Y-60090134D01*
X106777481Y-60109123D01*
X106766688Y-60111026D01*
X106556239Y-60167415D01*
X106545947Y-60171161D01*
X106348489Y-60263237D01*
X106338994Y-60268720D01*
X106286952Y-60305160D01*
X106278576Y-60315639D01*
X95000000Y-60315639D01*
X95000000Y-56670000D01*
X114516807Y-56670000D01*
X114535542Y-56884142D01*
X114591178Y-57091777D01*
X114682024Y-57286596D01*
X114805319Y-57462681D01*
X114957319Y-57614681D01*
X115133403Y-57737976D01*
X115138381Y-57740297D01*
X115138384Y-57740299D01*
X115323241Y-57826499D01*
X115328223Y-57828822D01*
X115333531Y-57830244D01*
X115333533Y-57830245D01*
X115530543Y-57883034D01*
X115530545Y-57883034D01*
X115535858Y-57884458D01*
X115750000Y-57903193D01*
X115964142Y-57884458D01*
X115969455Y-57883034D01*
X115969457Y-57883034D01*
X116166467Y-57830245D01*
X116166469Y-57830244D01*
X116171777Y-57828822D01*
X116176759Y-57826499D01*
X116361616Y-57740299D01*
X116361619Y-57740297D01*
X116366597Y-57737976D01*
X116542681Y-57614681D01*
X116691957Y-57465405D01*
X116754269Y-57431379D01*
X116781052Y-57428500D01*
X120016487Y-57428500D01*
X120084608Y-57448502D01*
X120131101Y-57502158D01*
X120138193Y-57521887D01*
X120185716Y-57699243D01*
X120188039Y-57704224D01*
X120188039Y-57704225D01*
X120280151Y-57901762D01*
X120280154Y-57901767D01*
X120282477Y-57906749D01*
X120285634Y-57911257D01*
X120383608Y-58051178D01*
X120413802Y-58094300D01*
X120575700Y-58256198D01*
X120580208Y-58259355D01*
X120580211Y-58259357D01*
X120658389Y-58314098D01*
X120763251Y-58387523D01*
X120768233Y-58389846D01*
X120768238Y-58389849D01*
X120938651Y-58469313D01*
X120970757Y-58484284D01*
X120976065Y-58485706D01*
X120976067Y-58485707D01*
X121186598Y-58542119D01*
X121186600Y-58542119D01*
X121191913Y-58543543D01*
X121420000Y-58563498D01*
X121648087Y-58543543D01*
X121653400Y-58542119D01*
X121653402Y-58542119D01*
X121863933Y-58485707D01*
X121863935Y-58485706D01*
X121869243Y-58484284D01*
X121901349Y-58469313D01*
X122071762Y-58389849D01*
X122071767Y-58389846D01*
X122076749Y-58387523D01*
X122181611Y-58314098D01*
X122259789Y-58259357D01*
X122259792Y-58259355D01*
X122264300Y-58256198D01*
X122426198Y-58094300D01*
X122456393Y-58051178D01*
X122554366Y-57911257D01*
X122557523Y-57906749D01*
X122559846Y-57901767D01*
X122559849Y-57901762D01*
X122651961Y-57704225D01*
X122651961Y-57704224D01*
X122654284Y-57699243D01*
X122676943Y-57614681D01*
X122712119Y-57483402D01*
X122712119Y-57483400D01*
X122713543Y-57478087D01*
X122733498Y-57250000D01*
X130266502Y-57250000D01*
X130286457Y-57478087D01*
X130287881Y-57483400D01*
X130287881Y-57483402D01*
X130323058Y-57614681D01*
X130345716Y-57699243D01*
X130348039Y-57704224D01*
X130348039Y-57704225D01*
X130440151Y-57901762D01*
X130440154Y-57901767D01*
X130442477Y-57906749D01*
X130445634Y-57911257D01*
X130543608Y-58051178D01*
X130573802Y-58094300D01*
X130735700Y-58256198D01*
X130740208Y-58259355D01*
X130740211Y-58259357D01*
X130818389Y-58314098D01*
X130923251Y-58387523D01*
X130928233Y-58389846D01*
X130928238Y-58389849D01*
X131098651Y-58469313D01*
X131130757Y-58484284D01*
X131136065Y-58485706D01*
X131136067Y-58485707D01*
X131346598Y-58542119D01*
X131346600Y-58542119D01*
X131351913Y-58543543D01*
X131580000Y-58563498D01*
X131808087Y-58543543D01*
X131813400Y-58542119D01*
X131813402Y-58542119D01*
X132023933Y-58485707D01*
X132023935Y-58485706D01*
X132029243Y-58484284D01*
X132061349Y-58469313D01*
X132231762Y-58389849D01*
X132231767Y-58389846D01*
X132236749Y-58387523D01*
X132341611Y-58314098D01*
X132419789Y-58259357D01*
X132419792Y-58259355D01*
X132424300Y-58256198D01*
X132586198Y-58094300D01*
X132616393Y-58051178D01*
X132714366Y-57911257D01*
X132717523Y-57906749D01*
X132719846Y-57901767D01*
X132719849Y-57901762D01*
X132811961Y-57704225D01*
X132811961Y-57704224D01*
X132814284Y-57699243D01*
X132836943Y-57614681D01*
X132872119Y-57483402D01*
X132872119Y-57483400D01*
X132873543Y-57478087D01*
X132893498Y-57250000D01*
X132873543Y-57021913D01*
X132814284Y-56800757D01*
X132811961Y-56795775D01*
X132719849Y-56598238D01*
X132719846Y-56598233D01*
X132717523Y-56593251D01*
X132621319Y-56455858D01*
X132589357Y-56410211D01*
X132589355Y-56410208D01*
X132586198Y-56405700D01*
X132424300Y-56243802D01*
X132419792Y-56240645D01*
X132419789Y-56240643D01*
X132341611Y-56185902D01*
X132236749Y-56112477D01*
X132231767Y-56110154D01*
X132231762Y-56110151D01*
X132034225Y-56018039D01*
X132034224Y-56018039D01*
X132029243Y-56015716D01*
X132023935Y-56014294D01*
X132023933Y-56014293D01*
X131813402Y-55957881D01*
X131813400Y-55957881D01*
X131808087Y-55956457D01*
X131580000Y-55936502D01*
X131351913Y-55956457D01*
X131346600Y-55957881D01*
X131346598Y-55957881D01*
X131136067Y-56014293D01*
X131136065Y-56014294D01*
X131130757Y-56015716D01*
X131125776Y-56018039D01*
X131125775Y-56018039D01*
X130928238Y-56110151D01*
X130928233Y-56110154D01*
X130923251Y-56112477D01*
X130818389Y-56185902D01*
X130740211Y-56240643D01*
X130740208Y-56240645D01*
X130735700Y-56243802D01*
X130573802Y-56405700D01*
X130570645Y-56410208D01*
X130570643Y-56410211D01*
X130538681Y-56455858D01*
X130442477Y-56593251D01*
X130440154Y-56598233D01*
X130440151Y-56598238D01*
X130348039Y-56795775D01*
X130345716Y-56800757D01*
X130286457Y-57021913D01*
X130266502Y-57250000D01*
X122733498Y-57250000D01*
X122713543Y-57021913D01*
X122654284Y-56800757D01*
X122651961Y-56795775D01*
X122559849Y-56598238D01*
X122559846Y-56598233D01*
X122557523Y-56593251D01*
X122461319Y-56455858D01*
X122429357Y-56410211D01*
X122429355Y-56410208D01*
X122426198Y-56405700D01*
X122264300Y-56243802D01*
X122259792Y-56240645D01*
X122259789Y-56240643D01*
X122181611Y-56185902D01*
X122076749Y-56112477D01*
X122071767Y-56110154D01*
X122071762Y-56110151D01*
X121874225Y-56018039D01*
X121874224Y-56018039D01*
X121869243Y-56015716D01*
X121863935Y-56014294D01*
X121863933Y-56014293D01*
X121653402Y-55957881D01*
X121653400Y-55957881D01*
X121648087Y-55956457D01*
X121420000Y-55936502D01*
X121191913Y-55956457D01*
X121186594Y-55957882D01*
X121186595Y-55957882D01*
X121182992Y-55958847D01*
X121181516Y-55958777D01*
X121181183Y-55958836D01*
X121181170Y-55958761D01*
X121108337Y-55955326D01*
X121106192Y-55954231D01*
X121099084Y-55952492D01*
X121093435Y-55950391D01*
X121087678Y-55948476D01*
X121081050Y-55945378D01*
X121009583Y-55930513D01*
X121005299Y-55929543D01*
X120934390Y-55912192D01*
X120928788Y-55911844D01*
X120928785Y-55911844D01*
X120923236Y-55911500D01*
X120923238Y-55911464D01*
X120919245Y-55911225D01*
X120915053Y-55910851D01*
X120907885Y-55909360D01*
X120841675Y-55911151D01*
X120830479Y-55911454D01*
X120827072Y-55911500D01*
X116781052Y-55911500D01*
X116712931Y-55891498D01*
X116691957Y-55874595D01*
X116542681Y-55725319D01*
X116366597Y-55602024D01*
X116361619Y-55599703D01*
X116361616Y-55599701D01*
X116176759Y-55513501D01*
X116176758Y-55513500D01*
X116171777Y-55511178D01*
X116166469Y-55509756D01*
X116166467Y-55509755D01*
X115969457Y-55456966D01*
X115969455Y-55456966D01*
X115964142Y-55455542D01*
X115750000Y-55436807D01*
X115535858Y-55455542D01*
X115530545Y-55456966D01*
X115530543Y-55456966D01*
X115333533Y-55509755D01*
X115333531Y-55509756D01*
X115328223Y-55511178D01*
X115323243Y-55513500D01*
X115323241Y-55513501D01*
X115138385Y-55599701D01*
X115138382Y-55599703D01*
X115133404Y-55602024D01*
X114957319Y-55725319D01*
X114805319Y-55877319D01*
X114682024Y-56053404D01*
X114679703Y-56058382D01*
X114679701Y-56058385D01*
X114593501Y-56243241D01*
X114591178Y-56248223D01*
X114535542Y-56455858D01*
X114516807Y-56670000D01*
X95000000Y-56670000D01*
X95000000Y-54126000D01*
X95020002Y-54057879D01*
X95073658Y-54011386D01*
X95126000Y-54000000D01*
X151674000Y-54000000D01*
X151742121Y-54020002D01*
G37*
G04 #@! TD.AperFunction*
M02*
