G04 #@! TF.GenerationSoftware,KiCad,Pcbnew,(6.0.2)*
G04 #@! TF.CreationDate,2022-10-13T14:07:27+01:00*
G04 #@! TF.ProjectId,led_driver,6c65645f-6472-4697-9665-722e6b696361,rev?*
G04 #@! TF.SameCoordinates,Original*
G04 #@! TF.FileFunction,Soldermask,Top*
G04 #@! TF.FilePolarity,Negative*
%FSLAX46Y46*%
G04 Gerber Fmt 4.6, Leading zero omitted, Abs format (unit mm)*
G04 Created by KiCad (PCBNEW (6.0.2)) date 2022-10-13 14:07:27*
%MOMM*%
%LPD*%
G01*
G04 APERTURE LIST*
%ADD10C,1.600000*%
%ADD11O,1.600000X1.600000*%
%ADD12C,1.440000*%
%ADD13C,2.340000*%
%ADD14R,2.000000X2.000000*%
%ADD15O,2.000000X2.000000*%
%ADD16C,2.400000*%
%ADD17O,2.400000X2.400000*%
%ADD18R,1.905000X2.000000*%
%ADD19O,1.905000X2.000000*%
%ADD20C,2.000000*%
%ADD21R,1.600000X1.600000*%
%ADD22R,2.200000X2.200000*%
%ADD23O,2.200000X2.200000*%
%ADD24R,3.960000X1.980000*%
%ADD25O,3.960000X1.980000*%
%ADD26O,2.500000X1.600000*%
%ADD27O,7.000000X3.500000*%
%ADD28C,3.200000*%
%ADD29C,2.600000*%
G04 APERTURE END LIST*
D10*
X124750000Y-66750000D03*
D11*
X117250000Y-66750000D03*
D12*
X115750000Y-61750000D03*
X118290000Y-59210000D03*
X115750000Y-56670000D03*
D13*
X143500000Y-90500000D03*
X148500000Y-95500000D03*
X143500000Y-100500000D03*
D10*
X115000000Y-95000000D03*
D11*
X104840000Y-95000000D03*
D14*
X134290000Y-100805000D03*
D15*
X129210000Y-100805000D03*
D10*
X117920000Y-95000000D03*
D11*
X128080000Y-95000000D03*
D16*
X135000000Y-78500000D03*
D17*
X135000000Y-63260000D03*
D18*
X105790000Y-100805000D03*
D19*
X103250000Y-100805000D03*
X100710000Y-100805000D03*
D18*
X121790000Y-100805000D03*
D19*
X119250000Y-100805000D03*
X116710000Y-100805000D03*
D20*
X115000000Y-72750000D03*
X107500000Y-72750000D03*
D21*
X121000000Y-84347349D03*
D10*
X121000000Y-89347349D03*
D20*
X129500000Y-90750000D03*
X129500000Y-83250000D03*
D21*
X107000000Y-66402651D03*
D10*
X107000000Y-61402651D03*
D22*
X106170000Y-79000000D03*
D23*
X116330000Y-79000000D03*
D24*
X92750000Y-79235000D03*
D25*
X92750000Y-84235000D03*
D26*
X148200000Y-79250000D03*
D27*
X153280000Y-74170000D03*
X153280000Y-84330000D03*
D26*
X148200000Y-76710000D03*
D10*
X136500000Y-93330000D03*
D11*
X136500000Y-83170000D03*
D10*
X121420000Y-60750000D03*
D11*
X131580000Y-60750000D03*
D21*
X129438400Y-71360800D03*
D11*
X126898400Y-71360800D03*
X124358400Y-71360800D03*
X121818400Y-71360800D03*
X121818400Y-78980800D03*
X124358400Y-78980800D03*
X126898400Y-78980800D03*
X129438400Y-78980800D03*
D28*
X91000000Y-58000000D03*
X91000000Y-97000000D03*
D11*
X121420000Y-57250000D03*
D10*
X131580000Y-57250000D03*
D28*
X155800000Y-58000000D03*
D24*
X92750000Y-68000000D03*
D25*
X92750000Y-73000000D03*
D28*
X155800000Y-97000000D03*
D29*
X110500000Y-89000000D03*
X110500000Y-84000000D03*
M02*
