G04 #@! TF.GenerationSoftware,KiCad,Pcbnew,(6.0.2)*
G04 #@! TF.CreationDate,2022-10-13T14:07:27+01:00*
G04 #@! TF.ProjectId,led_driver,6c65645f-6472-4697-9665-722e6b696361,rev?*
G04 #@! TF.SameCoordinates,Original*
G04 #@! TF.FileFunction,Other,User*
%FSLAX46Y46*%
G04 Gerber Fmt 4.6, Leading zero omitted, Abs format (unit mm)*
G04 Created by KiCad (PCBNEW (6.0.2)) date 2022-10-13 14:07:27*
%MOMM*%
%LPD*%
G01*
G04 APERTURE LIST*
%ADD10C,0.050000*%
G04 APERTURE END LIST*
D10*
X116200000Y-64950000D02*
X116200000Y-68550000D01*
X125800000Y-64950000D02*
X116200000Y-64950000D01*
X125800000Y-68550000D02*
X125800000Y-64950000D01*
X116200000Y-68550000D02*
X125800000Y-68550000D01*
X111900000Y-55650000D02*
X111900000Y-62800000D01*
X119450000Y-55650000D02*
X111900000Y-55650000D01*
X119450000Y-62800000D02*
X119450000Y-55650000D01*
X111900000Y-62800000D02*
X119450000Y-62800000D01*
X142050000Y-102750000D02*
X149950000Y-102750000D01*
X149950000Y-102750000D02*
X149950000Y-88250000D01*
X142050000Y-88250000D02*
X142050000Y-102750000D01*
X149950000Y-88250000D02*
X142050000Y-88250000D01*
X103790000Y-93500000D02*
X103790000Y-96500000D01*
X103790000Y-96500000D02*
X116050000Y-96500000D01*
X116050000Y-93500000D02*
X103790000Y-93500000D01*
X116050000Y-96500000D02*
X116050000Y-93500000D01*
X137000000Y-104205000D02*
X137000000Y-99295000D01*
X137000000Y-99295000D02*
X126500000Y-99295000D01*
X126500000Y-104205000D02*
X137000000Y-104205000D01*
X126500000Y-99295000D02*
X126500000Y-104205000D01*
X129130000Y-96500000D02*
X129130000Y-93500000D01*
X129130000Y-93500000D02*
X116870000Y-93500000D01*
X116870000Y-96500000D02*
X129130000Y-96500000D01*
X116870000Y-93500000D02*
X116870000Y-96500000D01*
X132500000Y-79950000D02*
X137500000Y-79950000D01*
X137500000Y-79950000D02*
X137500000Y-61810000D01*
X132500000Y-61810000D02*
X132500000Y-79950000D01*
X137500000Y-61810000D02*
X132500000Y-61810000D01*
X108500000Y-104205000D02*
X108500000Y-99295000D01*
X98000000Y-104205000D02*
X108500000Y-104205000D01*
X108500000Y-99295000D02*
X98000000Y-99295000D01*
X98000000Y-99295000D02*
X98000000Y-104205000D01*
X124500000Y-104205000D02*
X124500000Y-99295000D01*
X114000000Y-104205000D02*
X124500000Y-104205000D01*
X124500000Y-99295000D02*
X114000000Y-99295000D01*
X114000000Y-99295000D02*
X114000000Y-104205000D01*
X116250000Y-70000000D02*
X106250000Y-70000000D01*
X106250000Y-70000000D02*
X106250000Y-75500000D01*
X116250000Y-75500000D02*
X116250000Y-70000000D01*
X106250000Y-75500000D02*
X116250000Y-75500000D01*
X125250000Y-86847349D02*
G75*
G03*
X125250000Y-86847349I-4250000J0D01*
G01*
X132250000Y-82000000D02*
X126750000Y-82000000D01*
X126750000Y-92000000D02*
X132250000Y-92000000D01*
X126750000Y-82000000D02*
X126750000Y-92000000D01*
X132250000Y-92000000D02*
X132250000Y-82000000D01*
X111250000Y-63902651D02*
G75*
G03*
X111250000Y-63902651I-4250000J0D01*
G01*
X104820000Y-80600000D02*
X117680000Y-80600000D01*
X104820000Y-77400000D02*
X104820000Y-80600000D01*
X117680000Y-80600000D02*
X117680000Y-77400000D01*
X117680000Y-77400000D02*
X104820000Y-77400000D01*
X99220000Y-76405000D02*
X86280000Y-76405000D01*
X99220000Y-76405000D02*
X99220000Y-87595000D01*
X86280000Y-87595000D02*
X86280000Y-76405000D01*
X86280000Y-87595000D02*
X99220000Y-87595000D01*
X145500000Y-71400000D02*
X182000000Y-71400000D01*
X145500000Y-71400000D02*
X145500000Y-87100000D01*
X145500000Y-87100000D02*
X182000000Y-87100000D01*
X182000000Y-87100000D02*
X182000000Y-71400000D01*
X135000000Y-94380000D02*
X138000000Y-94380000D01*
X138000000Y-94380000D02*
X138000000Y-82120000D01*
X138000000Y-82120000D02*
X135000000Y-82120000D01*
X135000000Y-82120000D02*
X135000000Y-94380000D01*
X120370000Y-59250000D02*
X120370000Y-62250000D01*
X132630000Y-59250000D02*
X120370000Y-59250000D01*
X120370000Y-62250000D02*
X132630000Y-62250000D01*
X132630000Y-62250000D02*
X132630000Y-59250000D01*
X130988400Y-80060800D02*
X130988400Y-70260800D01*
X120288400Y-70260800D02*
X120288400Y-80060800D01*
X130988400Y-70260800D02*
X120288400Y-70260800D01*
X120288400Y-80060800D02*
X130988400Y-80060800D01*
X94450000Y-58000000D02*
G75*
G03*
X94450000Y-58000000I-3450000J0D01*
G01*
X94450000Y-97000000D02*
G75*
G03*
X94450000Y-97000000I-3450000J0D01*
G01*
X120370000Y-58750000D02*
X132630000Y-58750000D01*
X132630000Y-58750000D02*
X132630000Y-55750000D01*
X120370000Y-55750000D02*
X120370000Y-58750000D01*
X132630000Y-55750000D02*
X120370000Y-55750000D01*
X159250000Y-58000000D02*
G75*
G03*
X159250000Y-58000000I-3450000J0D01*
G01*
X86280000Y-76360000D02*
X86280000Y-65170000D01*
X99220000Y-65170000D02*
X86280000Y-65170000D01*
X86280000Y-76360000D02*
X99220000Y-76360000D01*
X99220000Y-65170000D02*
X99220000Y-76360000D01*
X159250000Y-97000000D02*
G75*
G03*
X159250000Y-97000000I-3450000J0D01*
G01*
X114850000Y-86500000D02*
G75*
G03*
X114850000Y-86500000I-4350000J0D01*
G01*
M02*
