G04 #@! TF.GenerationSoftware,KiCad,Pcbnew,5.0.2-bee76a0~70~ubuntu18.04.1*
G04 #@! TF.CreationDate,2019-07-19T14:17:51+01:00*
G04 #@! TF.ProjectId,led_driver,6c65645f-6472-4697-9665-722e6b696361,rev?*
G04 #@! TF.SameCoordinates,Original*
G04 #@! TF.FileFunction,Other,Fab,Top*
%FSLAX46Y46*%
G04 Gerber Fmt 4.6, Leading zero omitted, Abs format (unit mm)*
G04 Created by KiCad (PCBNEW 5.0.2-bee76a0~70~ubuntu18.04.1) date Fri 19 Jul 2019 14:17:51 BST*
%MOMM*%
%LPD*%
G01*
G04 APERTURE LIST*
%ADD10C,0.100000*%
%ADD11C,0.150000*%
G04 APERTURE END LIST*
D10*
G04 #@! TO.C,C1*
X127214000Y-66046800D02*
G75*
G03X127214000Y-66046800I-2500000J0D01*
G01*
X123626500Y-68180405D02*
X123626500Y-67680405D01*
X123376500Y-67930405D02*
X123876500Y-67930405D01*
G04 #@! TO.C,C2*
X131000000Y-93500000D02*
G75*
G03X131000000Y-93500000I-4000000J0D01*
G01*
X128747500Y-90073241D02*
X128747500Y-90873241D01*
X129147500Y-90473241D02*
X128347500Y-90473241D01*
G04 #@! TO.C,C3*
X129250000Y-87700000D02*
X129250000Y-82700000D01*
X129250000Y-82700000D02*
X121250000Y-82700000D01*
X121250000Y-82700000D02*
X121250000Y-87700000D01*
X121250000Y-87700000D02*
X129250000Y-87700000D01*
G04 #@! TO.C,C4*
X108647500Y-62723241D02*
X107847500Y-62723241D01*
X108247500Y-62323241D02*
X108247500Y-63123241D01*
X110500000Y-65750000D02*
G75*
G03X110500000Y-65750000I-4000000J0D01*
G01*
G04 #@! TO.C,C5*
X117663600Y-69950000D02*
X117663600Y-61950000D01*
X112663600Y-69950000D02*
X117663600Y-69950000D01*
X112663600Y-61950000D02*
X112663600Y-69950000D01*
X117663600Y-61950000D02*
X112663600Y-61950000D01*
G04 #@! TO.C,D1*
X114520000Y-78350000D02*
X114520000Y-75650000D01*
X114520000Y-75650000D02*
X109320000Y-75650000D01*
X109320000Y-75650000D02*
X109320000Y-78350000D01*
X109320000Y-78350000D02*
X114520000Y-78350000D01*
X117000000Y-77000000D02*
X114520000Y-77000000D01*
X106840000Y-77000000D02*
X109320000Y-77000000D01*
X113740000Y-78350000D02*
X113740000Y-75650000D01*
X113640000Y-78350000D02*
X113640000Y-75650000D01*
X113840000Y-78350000D02*
X113840000Y-75650000D01*
G04 #@! TO.C,J1*
X98058699Y-63437028D02*
G75*
G03X97130000Y-63580000I-408699J-432972D01*
G01*
X98071534Y-66539976D02*
G75*
G03X98000000Y-63380000I-1361534J1549976D01*
G01*
X97158582Y-63540171D02*
G75*
G03X97120000Y-66530000I1911418J-1519829D01*
G01*
X97086004Y-66485620D02*
G75*
G03X98050000Y-66530000I503996J455620D01*
G01*
X98058699Y-68437028D02*
G75*
G03X97130000Y-68580000I-408699J-432972D01*
G01*
X98061687Y-71538239D02*
G75*
G03X98000000Y-68390000I-1351687J1548239D01*
G01*
X97168263Y-68547667D02*
G75*
G03X97120000Y-71530000I1901737J-1522333D01*
G01*
X97076005Y-71485532D02*
G75*
G03X98050000Y-71540000I513995J455532D01*
G01*
X93250000Y-68360000D02*
X93250000Y-71670000D01*
X93250000Y-67980000D02*
X93250000Y-68360000D01*
X93250000Y-72050000D02*
X93250000Y-71670000D01*
X93640000Y-71670000D02*
X93640000Y-68360000D01*
X93640000Y-72610000D02*
X93640000Y-71670000D01*
X93640000Y-66660000D02*
X93640000Y-68360000D01*
X93640000Y-63360000D02*
X93640000Y-66660000D01*
X93640000Y-62420000D02*
X93640000Y-63360000D01*
X93250000Y-66660000D02*
X93250000Y-63360000D01*
X93250000Y-67040000D02*
X93250000Y-66660000D01*
X93250000Y-62980000D02*
X93250000Y-63360000D01*
X97320000Y-63510000D02*
X97950000Y-66560000D01*
X97450000Y-63380000D02*
X98080000Y-66440000D01*
X97320000Y-68520000D02*
X97950000Y-71560000D01*
X97450000Y-68390000D02*
X98080000Y-71440000D01*
X98970000Y-67040000D02*
X98970000Y-62980000D01*
X96430000Y-62980000D02*
X98970000Y-62980000D01*
X96430000Y-67040000D02*
X96430000Y-62980000D01*
X96430000Y-67040000D02*
X98970000Y-67040000D01*
X96430000Y-72050000D02*
X96430000Y-67980000D01*
X98970000Y-72050000D02*
X96430000Y-72050000D01*
X98970000Y-67980000D02*
X98970000Y-72050000D01*
X96430000Y-67980000D02*
X98970000Y-67980000D01*
X96170000Y-72610000D02*
X94650000Y-72610000D01*
X96170000Y-62420000D02*
X99220000Y-62420000D01*
X96170000Y-62420000D02*
X96170000Y-72610000D01*
X93640000Y-72610000D02*
X88940000Y-72610000D01*
X94650000Y-72610000D02*
X93640000Y-72610000D01*
X93640000Y-62420000D02*
X96170000Y-62420000D01*
X86780000Y-62420000D02*
X93640000Y-62420000D01*
X92490000Y-71670000D02*
X92490000Y-71280000D01*
X92490000Y-68360000D02*
X92490000Y-68740000D01*
X92490000Y-66660000D02*
X92490000Y-66280000D01*
X92490000Y-63360000D02*
X92490000Y-63740000D01*
X89320000Y-63360000D02*
X92490000Y-63360000D01*
X89320000Y-66660000D02*
X89320000Y-63360000D01*
X89320000Y-66660000D02*
X92490000Y-66660000D01*
X89320000Y-68360000D02*
X92490000Y-68360000D01*
X89320000Y-71670000D02*
X89320000Y-68360000D01*
X89320000Y-71670000D02*
X92490000Y-71670000D01*
X88680000Y-62980000D02*
X86780000Y-62980000D01*
X88680000Y-67040000D02*
X93250000Y-67040000D01*
X88680000Y-67040000D02*
X88680000Y-62980000D01*
X88680000Y-72050000D02*
X86780000Y-72050000D01*
X88680000Y-67980000D02*
X93250000Y-67980000D01*
X88680000Y-67980000D02*
X88680000Y-72050000D01*
X86780000Y-62980000D02*
X86780000Y-67040000D01*
X86780000Y-62420000D02*
X86780000Y-62980000D01*
X93250000Y-62980000D02*
X88680000Y-62980000D01*
X86780000Y-67040000D02*
X86780000Y-67980000D01*
X86780000Y-67040000D02*
X88680000Y-67040000D01*
X86780000Y-72050000D02*
X86780000Y-72610000D01*
X86780000Y-67980000D02*
X86780000Y-72050000D01*
X93250000Y-72050000D02*
X88680000Y-72050000D01*
X86780000Y-67980000D02*
X88680000Y-67980000D01*
X89190000Y-73110000D02*
X87540000Y-73110000D01*
X88940000Y-72610000D02*
X87790000Y-72610000D01*
X89190000Y-73110000D02*
X88940000Y-72610000D01*
X87790000Y-72610000D02*
X86780000Y-72610000D01*
X87540000Y-73110000D02*
X87790000Y-72610000D01*
X94400000Y-73110000D02*
X94650000Y-72610000D01*
X99220000Y-73110000D02*
X94400000Y-73110000D01*
X99220000Y-72610000D02*
X99220000Y-73110000D01*
X99220000Y-72610000D02*
X99220000Y-62420000D01*
X99220000Y-72610000D02*
X96170000Y-72610000D01*
X90460000Y-68740000D02*
X93250000Y-68740000D01*
X93250000Y-68740000D02*
X93250000Y-71280000D01*
X90460000Y-71280000D02*
X93250000Y-71280000D01*
X90460000Y-68740000D02*
X90460000Y-71280000D01*
X90460000Y-63740000D02*
X93250000Y-63740000D01*
X93250000Y-63740000D02*
X93250000Y-66280000D01*
X90460000Y-66280000D02*
X93250000Y-66280000D01*
X90460000Y-63740000D02*
X90460000Y-66280000D01*
G04 #@! TO.C,J2*
X146540000Y-64260000D02*
X146540000Y-61720000D01*
X146540000Y-61720000D02*
X143750000Y-61720000D01*
X143750000Y-64260000D02*
X143750000Y-61720000D01*
X146540000Y-64260000D02*
X143750000Y-64260000D01*
X146540000Y-59260000D02*
X146540000Y-56720000D01*
X146540000Y-56720000D02*
X143750000Y-56720000D01*
X143750000Y-59260000D02*
X143750000Y-56720000D01*
X146540000Y-59260000D02*
X143750000Y-59260000D01*
X137780000Y-55390000D02*
X140830000Y-55390000D01*
X137780000Y-55390000D02*
X137780000Y-65580000D01*
X137780000Y-55390000D02*
X137780000Y-54890000D01*
X137780000Y-54890000D02*
X142600000Y-54890000D01*
X142600000Y-54890000D02*
X142350000Y-55390000D01*
X149460000Y-54890000D02*
X149210000Y-55390000D01*
X149210000Y-55390000D02*
X150220000Y-55390000D01*
X147810000Y-54890000D02*
X148060000Y-55390000D01*
X148060000Y-55390000D02*
X149210000Y-55390000D01*
X147810000Y-54890000D02*
X149460000Y-54890000D01*
X150220000Y-60020000D02*
X148320000Y-60020000D01*
X143750000Y-55950000D02*
X148320000Y-55950000D01*
X150220000Y-60020000D02*
X150220000Y-55950000D01*
X150220000Y-55950000D02*
X150220000Y-55390000D01*
X150220000Y-60960000D02*
X148320000Y-60960000D01*
X150220000Y-60960000D02*
X150220000Y-60020000D01*
X143750000Y-65020000D02*
X148320000Y-65020000D01*
X150220000Y-65580000D02*
X150220000Y-65020000D01*
X150220000Y-65020000D02*
X150220000Y-60960000D01*
X148320000Y-60020000D02*
X148320000Y-55950000D01*
X148320000Y-60020000D02*
X143750000Y-60020000D01*
X148320000Y-55950000D02*
X150220000Y-55950000D01*
X148320000Y-60960000D02*
X148320000Y-65020000D01*
X148320000Y-60960000D02*
X143750000Y-60960000D01*
X148320000Y-65020000D02*
X150220000Y-65020000D01*
X147680000Y-56330000D02*
X144510000Y-56330000D01*
X147680000Y-56330000D02*
X147680000Y-59640000D01*
X147680000Y-59640000D02*
X144510000Y-59640000D01*
X147680000Y-61340000D02*
X144510000Y-61340000D01*
X147680000Y-61340000D02*
X147680000Y-64640000D01*
X147680000Y-64640000D02*
X144510000Y-64640000D01*
X144510000Y-64640000D02*
X144510000Y-64260000D01*
X144510000Y-61340000D02*
X144510000Y-61720000D01*
X144510000Y-59640000D02*
X144510000Y-59260000D01*
X144510000Y-56330000D02*
X144510000Y-56720000D01*
X150220000Y-65580000D02*
X143360000Y-65580000D01*
X143360000Y-65580000D02*
X140830000Y-65580000D01*
X142350000Y-55390000D02*
X143360000Y-55390000D01*
X143360000Y-55390000D02*
X148060000Y-55390000D01*
X140830000Y-65580000D02*
X140830000Y-55390000D01*
X140830000Y-65580000D02*
X137780000Y-65580000D01*
X140830000Y-55390000D02*
X142350000Y-55390000D01*
X140570000Y-60020000D02*
X138030000Y-60020000D01*
X138030000Y-60020000D02*
X138030000Y-55950000D01*
X138030000Y-55950000D02*
X140570000Y-55950000D01*
X140570000Y-55950000D02*
X140570000Y-60020000D01*
X140570000Y-60960000D02*
X138030000Y-60960000D01*
X140570000Y-60960000D02*
X140570000Y-65020000D01*
X140570000Y-65020000D02*
X138030000Y-65020000D01*
X138030000Y-60960000D02*
X138030000Y-65020000D01*
X139550000Y-59610000D02*
X138920000Y-56560000D01*
X139680000Y-59480000D02*
X139050000Y-56440000D01*
X139550000Y-64620000D02*
X138920000Y-61560000D01*
X139680000Y-64490000D02*
X139050000Y-61440000D01*
X143750000Y-65020000D02*
X143750000Y-64640000D01*
X143750000Y-60960000D02*
X143750000Y-61340000D01*
X143750000Y-61340000D02*
X143750000Y-64640000D01*
X143360000Y-65580000D02*
X143360000Y-64640000D01*
X143360000Y-64640000D02*
X143360000Y-61340000D01*
X143360000Y-61340000D02*
X143360000Y-59640000D01*
X143360000Y-55390000D02*
X143360000Y-56330000D01*
X143360000Y-56330000D02*
X143360000Y-59640000D01*
X143750000Y-55950000D02*
X143750000Y-56330000D01*
X143750000Y-60020000D02*
X143750000Y-59640000D01*
X143750000Y-59640000D02*
X143750000Y-56330000D01*
X139923995Y-56514468D02*
G75*
G03X138950000Y-56460000I-513995J-455532D01*
G01*
X139831737Y-59452333D02*
G75*
G03X139880000Y-56470000I-1901737J1522333D01*
G01*
X138938313Y-56461761D02*
G75*
G03X139000000Y-59610000I1351687J-1548239D01*
G01*
X138941301Y-59562972D02*
G75*
G03X139870000Y-59420000I408699J432972D01*
G01*
X139913996Y-61514380D02*
G75*
G03X138950000Y-61470000I-503996J-455620D01*
G01*
X139841418Y-64459829D02*
G75*
G03X139880000Y-61470000I-1911418J1519829D01*
G01*
X138928466Y-61460024D02*
G75*
G03X139000000Y-64620000I1361534J-1549976D01*
G01*
X138941301Y-64562972D02*
G75*
G03X139870000Y-64420000I408699J432972D01*
G01*
G04 #@! TO.C,J3*
X79339400Y-89404200D02*
X78339400Y-79404200D01*
X80339400Y-89404200D02*
X79339400Y-79404200D01*
X81339400Y-89404200D02*
X80339400Y-79404200D01*
X82339400Y-89404200D02*
X81339400Y-79404200D01*
X83339400Y-89404200D02*
X82339400Y-79404200D01*
X84339400Y-89404200D02*
X83339400Y-79404200D01*
X72269400Y-84404200D02*
G75*
G03X72269400Y-84404200I-1000000J0D01*
G01*
X77939400Y-79604200D02*
X66039400Y-79604200D01*
X66039400Y-79604200D02*
X66039400Y-89204200D01*
X66039400Y-89204200D02*
X77939400Y-89204200D01*
X86639400Y-78054200D02*
X77939400Y-78054200D01*
X77939400Y-78054200D02*
X77939400Y-90754200D01*
X77939400Y-90754200D02*
X86639400Y-90754200D01*
X101539400Y-91754200D02*
X101539400Y-77054200D01*
X101539400Y-77054200D02*
X86639400Y-77054200D01*
X86639400Y-77054200D02*
X86639400Y-91754200D01*
X86639400Y-91754200D02*
X101539400Y-91754200D01*
X85339400Y-89404200D02*
X84339400Y-79404200D01*
G04 #@! TO.C,Q1*
X158000000Y-85600000D02*
X158000000Y-90600000D01*
X152800000Y-84600000D02*
X157000000Y-84600000D01*
X152800000Y-90600000D02*
X152800000Y-84600000D01*
X158000000Y-90600000D02*
X152800000Y-90600000D01*
X158000000Y-85600000D02*
X157000000Y-84600000D01*
G04 #@! TO.C,Q2*
X146850000Y-86650000D02*
X146850000Y-89550000D01*
X146850000Y-89550000D02*
X141950000Y-89550000D01*
X141950000Y-89550000D02*
X141950000Y-85650000D01*
X141950000Y-85650000D02*
X145850000Y-85650000D01*
X145850000Y-85650000D02*
X146850000Y-86650000D01*
G04 #@! TO.C,R1*
X137250000Y-78168400D02*
X139750000Y-78168400D01*
X139750000Y-78168400D02*
X139750000Y-71868400D01*
X139750000Y-71868400D02*
X137250000Y-71868400D01*
X137250000Y-71868400D02*
X137250000Y-78168400D01*
X138500000Y-80098400D02*
X138500000Y-78168400D01*
X138500000Y-69938400D02*
X138500000Y-71868400D01*
G04 #@! TO.C,R3*
X135000000Y-94360000D02*
X135000000Y-92430000D01*
X135000000Y-84200000D02*
X135000000Y-86130000D01*
X136250000Y-92430000D02*
X136250000Y-86130000D01*
X133750000Y-92430000D02*
X136250000Y-92430000D01*
X133750000Y-86130000D02*
X133750000Y-92430000D01*
X136250000Y-86130000D02*
X133750000Y-86130000D01*
G04 #@! TO.C,R4*
X147500000Y-71930000D02*
X145000000Y-71930000D01*
X145000000Y-71930000D02*
X145000000Y-78230000D01*
X145000000Y-78230000D02*
X147500000Y-78230000D01*
X147500000Y-78230000D02*
X147500000Y-71930000D01*
X146250000Y-70000000D02*
X146250000Y-71930000D01*
X146250000Y-80160000D02*
X146250000Y-78230000D01*
G04 #@! TO.C,R5*
X151250000Y-71930000D02*
X148750000Y-71930000D01*
X148750000Y-71930000D02*
X148750000Y-78230000D01*
X148750000Y-78230000D02*
X151250000Y-78230000D01*
X151250000Y-78230000D02*
X151250000Y-71930000D01*
X150000000Y-70000000D02*
X150000000Y-71930000D01*
X150000000Y-80160000D02*
X150000000Y-78230000D01*
G04 #@! TO.C,R6*
X142500000Y-70000000D02*
X142500000Y-71930000D01*
X142500000Y-80160000D02*
X142500000Y-78230000D01*
X141250000Y-71930000D02*
X141250000Y-78230000D01*
X143750000Y-71930000D02*
X141250000Y-71930000D01*
X143750000Y-78230000D02*
X143750000Y-71930000D01*
X141250000Y-78230000D02*
X143750000Y-78230000D01*
G04 #@! TO.C,RV2*
X159000000Y-68000000D02*
X159000000Y-82000000D01*
X159000000Y-82000000D02*
X154000000Y-82000000D01*
X154000000Y-82000000D02*
X154000000Y-68000000D01*
X154000000Y-68000000D02*
X159000000Y-68000000D01*
X154000000Y-72000000D02*
X154000000Y-78000000D01*
X154000000Y-78000000D02*
X159000000Y-78000000D01*
X159000000Y-78000000D02*
X159000000Y-72000000D01*
X159000000Y-72000000D02*
X154000000Y-72000000D01*
G04 #@! TO.C,U1*
X130708400Y-72995800D02*
X130708400Y-78345800D01*
X130708400Y-78345800D02*
X120548400Y-78345800D01*
X120548400Y-78345800D02*
X120548400Y-71995800D01*
X120548400Y-71995800D02*
X129708400Y-71995800D01*
X129708400Y-71995800D02*
X130708400Y-72995800D01*
G04 #@! TO.C,L1*
X114250000Y-87000000D02*
G75*
G03X114250000Y-87000000I-3750000J0D01*
G01*
G04 #@! TO.C,R2*
X131709600Y-78130000D02*
X136209600Y-78130000D01*
X136209600Y-78130000D02*
X136209600Y-66230000D01*
X136209600Y-66230000D02*
X131709600Y-66230000D01*
X131709600Y-66230000D02*
X131709600Y-78130000D01*
X133959600Y-79800000D02*
X133959600Y-78130000D01*
X133959600Y-64560000D02*
X133959600Y-66230000D01*
G04 #@! TO.C,R7*
X147460000Y-102750000D02*
X147460000Y-98350000D01*
X147460000Y-98350000D02*
X137460000Y-98350000D01*
X137460000Y-98350000D02*
X137460000Y-102750000D01*
X137460000Y-102750000D02*
X147460000Y-102750000D01*
X147460000Y-101480000D02*
X137460000Y-101480000D01*
X144310000Y-102750000D02*
X144310000Y-101480000D01*
X140610000Y-102750000D02*
X140610000Y-101480000D01*
G04 #@! TO.C,RV1*
X114340000Y-99060000D02*
G75*
G03X114340000Y-99060000I-1500000J0D01*
G01*
X109040000Y-95760000D02*
X109040000Y-102360000D01*
X109040000Y-102360000D02*
X116040000Y-102360000D01*
X116040000Y-102360000D02*
X116040000Y-95760000D01*
X116040000Y-95760000D02*
X109040000Y-95760000D01*
X111639000Y-98984000D02*
X112764000Y-98984000D01*
X112764000Y-98984000D02*
X112764000Y-97859000D01*
X112764000Y-97859000D02*
X112916000Y-97859000D01*
X112916000Y-97859000D02*
X112916000Y-98984000D01*
X112916000Y-98984000D02*
X114041000Y-98984000D01*
X114041000Y-98984000D02*
X114041000Y-99136000D01*
X114041000Y-99136000D02*
X112916000Y-99136000D01*
X112916000Y-99136000D02*
X112916000Y-100261000D01*
X112916000Y-100261000D02*
X112764000Y-100261000D01*
X112764000Y-100261000D02*
X112764000Y-99136000D01*
X112764000Y-99136000D02*
X111639000Y-99136000D01*
X111639000Y-99136000D02*
X111639000Y-98984000D01*
G04 #@! TD*
G04 #@! TO.C,C1*
D11*
X125071142Y-66213466D02*
X125118761Y-66261085D01*
X125166380Y-66403942D01*
X125166380Y-66499180D01*
X125118761Y-66642038D01*
X125023523Y-66737276D01*
X124928285Y-66784895D01*
X124737809Y-66832514D01*
X124594952Y-66832514D01*
X124404476Y-66784895D01*
X124309238Y-66737276D01*
X124214000Y-66642038D01*
X124166380Y-66499180D01*
X124166380Y-66403942D01*
X124214000Y-66261085D01*
X124261619Y-66213466D01*
X125166380Y-65261085D02*
X125166380Y-65832514D01*
X125166380Y-65546800D02*
X124166380Y-65546800D01*
X124309238Y-65642038D01*
X124404476Y-65737276D01*
X124452095Y-65832514D01*
G04 #@! TO.C,C2*
X127357142Y-93666666D02*
X127404761Y-93714285D01*
X127452380Y-93857142D01*
X127452380Y-93952380D01*
X127404761Y-94095238D01*
X127309523Y-94190476D01*
X127214285Y-94238095D01*
X127023809Y-94285714D01*
X126880952Y-94285714D01*
X126690476Y-94238095D01*
X126595238Y-94190476D01*
X126500000Y-94095238D01*
X126452380Y-93952380D01*
X126452380Y-93857142D01*
X126500000Y-93714285D01*
X126547619Y-93666666D01*
X126547619Y-93285714D02*
X126500000Y-93238095D01*
X126452380Y-93142857D01*
X126452380Y-92904761D01*
X126500000Y-92809523D01*
X126547619Y-92761904D01*
X126642857Y-92714285D01*
X126738095Y-92714285D01*
X126880952Y-92761904D01*
X127452380Y-93333333D01*
X127452380Y-92714285D01*
G04 #@! TO.C,C3*
X125083333Y-85557142D02*
X125035714Y-85604761D01*
X124892857Y-85652380D01*
X124797619Y-85652380D01*
X124654761Y-85604761D01*
X124559523Y-85509523D01*
X124511904Y-85414285D01*
X124464285Y-85223809D01*
X124464285Y-85080952D01*
X124511904Y-84890476D01*
X124559523Y-84795238D01*
X124654761Y-84700000D01*
X124797619Y-84652380D01*
X124892857Y-84652380D01*
X125035714Y-84700000D01*
X125083333Y-84747619D01*
X125416666Y-84652380D02*
X126035714Y-84652380D01*
X125702380Y-85033333D01*
X125845238Y-85033333D01*
X125940476Y-85080952D01*
X125988095Y-85128571D01*
X126035714Y-85223809D01*
X126035714Y-85461904D01*
X125988095Y-85557142D01*
X125940476Y-85604761D01*
X125845238Y-85652380D01*
X125559523Y-85652380D01*
X125464285Y-85604761D01*
X125416666Y-85557142D01*
G04 #@! TO.C,C4*
X106857142Y-65916666D02*
X106904761Y-65964285D01*
X106952380Y-66107142D01*
X106952380Y-66202380D01*
X106904761Y-66345238D01*
X106809523Y-66440476D01*
X106714285Y-66488095D01*
X106523809Y-66535714D01*
X106380952Y-66535714D01*
X106190476Y-66488095D01*
X106095238Y-66440476D01*
X106000000Y-66345238D01*
X105952380Y-66202380D01*
X105952380Y-66107142D01*
X106000000Y-65964285D01*
X106047619Y-65916666D01*
X106285714Y-65059523D02*
X106952380Y-65059523D01*
X105904761Y-65297619D02*
X106619047Y-65535714D01*
X106619047Y-64916666D01*
G04 #@! TO.C,C5*
X115520742Y-66116666D02*
X115568361Y-66164285D01*
X115615980Y-66307142D01*
X115615980Y-66402380D01*
X115568361Y-66545238D01*
X115473123Y-66640476D01*
X115377885Y-66688095D01*
X115187409Y-66735714D01*
X115044552Y-66735714D01*
X114854076Y-66688095D01*
X114758838Y-66640476D01*
X114663600Y-66545238D01*
X114615980Y-66402380D01*
X114615980Y-66307142D01*
X114663600Y-66164285D01*
X114711219Y-66116666D01*
X114615980Y-65211904D02*
X114615980Y-65688095D01*
X115092171Y-65735714D01*
X115044552Y-65688095D01*
X114996933Y-65592857D01*
X114996933Y-65354761D01*
X115044552Y-65259523D01*
X115092171Y-65211904D01*
X115187409Y-65164285D01*
X115425504Y-65164285D01*
X115520742Y-65211904D01*
X115568361Y-65259523D01*
X115615980Y-65354761D01*
X115615980Y-65592857D01*
X115568361Y-65688095D01*
X115520742Y-65735714D01*
G04 #@! TO.C,D1*
X110791904Y-77452380D02*
X110791904Y-76452380D01*
X111030000Y-76452380D01*
X111172857Y-76500000D01*
X111268095Y-76595238D01*
X111315714Y-76690476D01*
X111363333Y-76880952D01*
X111363333Y-77023809D01*
X111315714Y-77214285D01*
X111268095Y-77309523D01*
X111172857Y-77404761D01*
X111030000Y-77452380D01*
X110791904Y-77452380D01*
X112315714Y-77452380D02*
X111744285Y-77452380D01*
X112030000Y-77452380D02*
X112030000Y-76452380D01*
X111934761Y-76595238D01*
X111839523Y-76690476D01*
X111744285Y-76738095D01*
X116738095Y-79552380D02*
X116738095Y-78552380D01*
X117309523Y-79552380D02*
X116880952Y-78980952D01*
X117309523Y-78552380D02*
X116738095Y-79123809D01*
G04 #@! TO.C,J1*
X97376190Y-73652380D02*
X97709523Y-74652380D01*
X98042857Y-73652380D01*
X98376190Y-74652380D02*
X98376190Y-73985714D01*
X98376190Y-73652380D02*
X98328571Y-73700000D01*
X98376190Y-73747619D01*
X98423809Y-73700000D01*
X98376190Y-73652380D01*
X98376190Y-73747619D01*
X98852380Y-73985714D02*
X98852380Y-74652380D01*
X98852380Y-74080952D02*
X98900000Y-74033333D01*
X98995238Y-73985714D01*
X99138095Y-73985714D01*
X99233333Y-74033333D01*
X99280952Y-74128571D01*
X99280952Y-74652380D01*
X94452380Y-67833333D02*
X95166666Y-67833333D01*
X95309523Y-67880952D01*
X95404761Y-67976190D01*
X95452380Y-68119047D01*
X95452380Y-68214285D01*
X95452380Y-66833333D02*
X95452380Y-67404761D01*
X95452380Y-67119047D02*
X94452380Y-67119047D01*
X94595238Y-67214285D01*
X94690476Y-67309523D01*
X94738095Y-67404761D01*
G04 #@! TO.C,J2*
X141452380Y-60833333D02*
X142166666Y-60833333D01*
X142309523Y-60880952D01*
X142404761Y-60976190D01*
X142452380Y-61119047D01*
X142452380Y-61214285D01*
X141547619Y-60404761D02*
X141500000Y-60357142D01*
X141452380Y-60261904D01*
X141452380Y-60023809D01*
X141500000Y-59928571D01*
X141547619Y-59880952D01*
X141642857Y-59833333D01*
X141738095Y-59833333D01*
X141880952Y-59880952D01*
X142452380Y-60452380D01*
X142452380Y-59833333D01*
G04 #@! TO.C,J3*
X98791780Y-84737533D02*
X99506066Y-84737533D01*
X99648923Y-84785152D01*
X99744161Y-84880390D01*
X99791780Y-85023247D01*
X99791780Y-85118485D01*
X98791780Y-84356580D02*
X98791780Y-83737533D01*
X99172733Y-84070866D01*
X99172733Y-83928009D01*
X99220352Y-83832771D01*
X99267971Y-83785152D01*
X99363209Y-83737533D01*
X99601304Y-83737533D01*
X99696542Y-83785152D01*
X99744161Y-83832771D01*
X99791780Y-83928009D01*
X99791780Y-84213723D01*
X99744161Y-84308961D01*
X99696542Y-84356580D01*
G04 #@! TO.C,Q1*
X156947619Y-87695238D02*
X156900000Y-87790476D01*
X156804761Y-87885714D01*
X156661904Y-88028571D01*
X156614285Y-88123809D01*
X156614285Y-88219047D01*
X156852380Y-88171428D02*
X156804761Y-88266666D01*
X156709523Y-88361904D01*
X156519047Y-88409523D01*
X156185714Y-88409523D01*
X155995238Y-88361904D01*
X155900000Y-88266666D01*
X155852380Y-88171428D01*
X155852380Y-87980952D01*
X155900000Y-87885714D01*
X155995238Y-87790476D01*
X156185714Y-87742857D01*
X156519047Y-87742857D01*
X156709523Y-87790476D01*
X156804761Y-87885714D01*
X156852380Y-87980952D01*
X156852380Y-88171428D01*
X156852380Y-86790476D02*
X156852380Y-87361904D01*
X156852380Y-87076190D02*
X155852380Y-87076190D01*
X155995238Y-87171428D01*
X156090476Y-87266666D01*
X156138095Y-87361904D01*
G04 #@! TO.C,Q2*
X144947619Y-87695238D02*
X144900000Y-87790476D01*
X144804761Y-87885714D01*
X144661904Y-88028571D01*
X144614285Y-88123809D01*
X144614285Y-88219047D01*
X144852380Y-88171428D02*
X144804761Y-88266666D01*
X144709523Y-88361904D01*
X144519047Y-88409523D01*
X144185714Y-88409523D01*
X143995238Y-88361904D01*
X143900000Y-88266666D01*
X143852380Y-88171428D01*
X143852380Y-87980952D01*
X143900000Y-87885714D01*
X143995238Y-87790476D01*
X144185714Y-87742857D01*
X144519047Y-87742857D01*
X144709523Y-87790476D01*
X144804761Y-87885714D01*
X144852380Y-87980952D01*
X144852380Y-88171428D01*
X143947619Y-87361904D02*
X143900000Y-87314285D01*
X143852380Y-87219047D01*
X143852380Y-86980952D01*
X143900000Y-86885714D01*
X143947619Y-86838095D01*
X144042857Y-86790476D01*
X144138095Y-86790476D01*
X144280952Y-86838095D01*
X144852380Y-87409523D01*
X144852380Y-86790476D01*
G04 #@! TO.C,R1*
X138952380Y-75185066D02*
X138476190Y-75518400D01*
X138952380Y-75756495D02*
X137952380Y-75756495D01*
X137952380Y-75375542D01*
X138000000Y-75280304D01*
X138047619Y-75232685D01*
X138142857Y-75185066D01*
X138285714Y-75185066D01*
X138380952Y-75232685D01*
X138428571Y-75280304D01*
X138476190Y-75375542D01*
X138476190Y-75756495D01*
X138952380Y-74232685D02*
X138952380Y-74804114D01*
X138952380Y-74518400D02*
X137952380Y-74518400D01*
X138095238Y-74613638D01*
X138190476Y-74708876D01*
X138238095Y-74804114D01*
G04 #@! TO.C,R3*
X135452380Y-89446666D02*
X134976190Y-89780000D01*
X135452380Y-90018095D02*
X134452380Y-90018095D01*
X134452380Y-89637142D01*
X134500000Y-89541904D01*
X134547619Y-89494285D01*
X134642857Y-89446666D01*
X134785714Y-89446666D01*
X134880952Y-89494285D01*
X134928571Y-89541904D01*
X134976190Y-89637142D01*
X134976190Y-90018095D01*
X134452380Y-89113333D02*
X134452380Y-88494285D01*
X134833333Y-88827619D01*
X134833333Y-88684761D01*
X134880952Y-88589523D01*
X134928571Y-88541904D01*
X135023809Y-88494285D01*
X135261904Y-88494285D01*
X135357142Y-88541904D01*
X135404761Y-88589523D01*
X135452380Y-88684761D01*
X135452380Y-88970476D01*
X135404761Y-89065714D01*
X135357142Y-89113333D01*
G04 #@! TO.C,R4*
X146702380Y-75246666D02*
X146226190Y-75580000D01*
X146702380Y-75818095D02*
X145702380Y-75818095D01*
X145702380Y-75437142D01*
X145750000Y-75341904D01*
X145797619Y-75294285D01*
X145892857Y-75246666D01*
X146035714Y-75246666D01*
X146130952Y-75294285D01*
X146178571Y-75341904D01*
X146226190Y-75437142D01*
X146226190Y-75818095D01*
X146035714Y-74389523D02*
X146702380Y-74389523D01*
X145654761Y-74627619D02*
X146369047Y-74865714D01*
X146369047Y-74246666D01*
G04 #@! TO.C,R5*
X150452380Y-75297466D02*
X149976190Y-75630800D01*
X150452380Y-75868895D02*
X149452380Y-75868895D01*
X149452380Y-75487942D01*
X149500000Y-75392704D01*
X149547619Y-75345085D01*
X149642857Y-75297466D01*
X149785714Y-75297466D01*
X149880952Y-75345085D01*
X149928571Y-75392704D01*
X149976190Y-75487942D01*
X149976190Y-75868895D01*
X149452380Y-74392704D02*
X149452380Y-74868895D01*
X149928571Y-74916514D01*
X149880952Y-74868895D01*
X149833333Y-74773657D01*
X149833333Y-74535561D01*
X149880952Y-74440323D01*
X149928571Y-74392704D01*
X150023809Y-74345085D01*
X150261904Y-74345085D01*
X150357142Y-74392704D01*
X150404761Y-74440323D01*
X150452380Y-74535561D01*
X150452380Y-74773657D01*
X150404761Y-74868895D01*
X150357142Y-74916514D01*
G04 #@! TO.C,R6*
X142952380Y-75246666D02*
X142476190Y-75580000D01*
X142952380Y-75818095D02*
X141952380Y-75818095D01*
X141952380Y-75437142D01*
X142000000Y-75341904D01*
X142047619Y-75294285D01*
X142142857Y-75246666D01*
X142285714Y-75246666D01*
X142380952Y-75294285D01*
X142428571Y-75341904D01*
X142476190Y-75437142D01*
X142476190Y-75818095D01*
X141952380Y-74389523D02*
X141952380Y-74580000D01*
X142000000Y-74675238D01*
X142047619Y-74722857D01*
X142190476Y-74818095D01*
X142380952Y-74865714D01*
X142761904Y-74865714D01*
X142857142Y-74818095D01*
X142904761Y-74770476D01*
X142952380Y-74675238D01*
X142952380Y-74484761D01*
X142904761Y-74389523D01*
X142857142Y-74341904D01*
X142761904Y-74294285D01*
X142523809Y-74294285D01*
X142428571Y-74341904D01*
X142380952Y-74389523D01*
X142333333Y-74484761D01*
X142333333Y-74675238D01*
X142380952Y-74770476D01*
X142428571Y-74818095D01*
X142523809Y-74865714D01*
G04 #@! TO.C,RV2*
X155904761Y-75452380D02*
X155571428Y-74976190D01*
X155333333Y-75452380D02*
X155333333Y-74452380D01*
X155714285Y-74452380D01*
X155809523Y-74500000D01*
X155857142Y-74547619D01*
X155904761Y-74642857D01*
X155904761Y-74785714D01*
X155857142Y-74880952D01*
X155809523Y-74928571D01*
X155714285Y-74976190D01*
X155333333Y-74976190D01*
X156190476Y-74452380D02*
X156523809Y-75452380D01*
X156857142Y-74452380D01*
X157142857Y-74547619D02*
X157190476Y-74500000D01*
X157285714Y-74452380D01*
X157523809Y-74452380D01*
X157619047Y-74500000D01*
X157666666Y-74547619D01*
X157714285Y-74642857D01*
X157714285Y-74738095D01*
X157666666Y-74880952D01*
X157095238Y-75452380D01*
X157714285Y-75452380D01*
G04 #@! TO.C,U1*
X125080780Y-75932704D02*
X125890304Y-75932704D01*
X125985542Y-75885085D01*
X126033161Y-75837466D01*
X126080780Y-75742228D01*
X126080780Y-75551752D01*
X126033161Y-75456514D01*
X125985542Y-75408895D01*
X125890304Y-75361276D01*
X125080780Y-75361276D01*
X126080780Y-74361276D02*
X126080780Y-74932704D01*
X126080780Y-74646990D02*
X125080780Y-74646990D01*
X125223638Y-74742228D01*
X125318876Y-74837466D01*
X125366495Y-74932704D01*
G04 #@! TO.C,H1*
X86214285Y-62652380D02*
X86214285Y-61652380D01*
X86547619Y-62366666D01*
X86880952Y-61652380D01*
X86880952Y-62652380D01*
X87500000Y-62652380D02*
X87404761Y-62604761D01*
X87357142Y-62557142D01*
X87309523Y-62461904D01*
X87309523Y-62176190D01*
X87357142Y-62080952D01*
X87404761Y-62033333D01*
X87500000Y-61985714D01*
X87642857Y-61985714D01*
X87738095Y-62033333D01*
X87785714Y-62080952D01*
X87833333Y-62176190D01*
X87833333Y-62461904D01*
X87785714Y-62557142D01*
X87738095Y-62604761D01*
X87642857Y-62652380D01*
X87500000Y-62652380D01*
X88690476Y-61985714D02*
X88690476Y-62652380D01*
X88261904Y-61985714D02*
X88261904Y-62509523D01*
X88309523Y-62604761D01*
X88404761Y-62652380D01*
X88547619Y-62652380D01*
X88642857Y-62604761D01*
X88690476Y-62557142D01*
X89166666Y-61985714D02*
X89166666Y-62652380D01*
X89166666Y-62080952D02*
X89214285Y-62033333D01*
X89309523Y-61985714D01*
X89452380Y-61985714D01*
X89547619Y-62033333D01*
X89595238Y-62128571D01*
X89595238Y-62652380D01*
X89928571Y-61985714D02*
X90309523Y-61985714D01*
X90071428Y-61652380D02*
X90071428Y-62509523D01*
X90119047Y-62604761D01*
X90214285Y-62652380D01*
X90309523Y-62652380D01*
X90642857Y-62652380D02*
X90642857Y-61985714D01*
X90642857Y-61652380D02*
X90595238Y-61700000D01*
X90642857Y-61747619D01*
X90690476Y-61700000D01*
X90642857Y-61652380D01*
X90642857Y-61747619D01*
X91119047Y-61985714D02*
X91119047Y-62652380D01*
X91119047Y-62080952D02*
X91166666Y-62033333D01*
X91261904Y-61985714D01*
X91404761Y-61985714D01*
X91500000Y-62033333D01*
X91547619Y-62128571D01*
X91547619Y-62652380D01*
X92452380Y-61985714D02*
X92452380Y-62795238D01*
X92404761Y-62890476D01*
X92357142Y-62938095D01*
X92261904Y-62985714D01*
X92119047Y-62985714D01*
X92023809Y-62938095D01*
X92452380Y-62604761D02*
X92357142Y-62652380D01*
X92166666Y-62652380D01*
X92071428Y-62604761D01*
X92023809Y-62557142D01*
X91976190Y-62461904D01*
X91976190Y-62176190D01*
X92023809Y-62080952D01*
X92071428Y-62033333D01*
X92166666Y-61985714D01*
X92357142Y-61985714D01*
X92452380Y-62033333D01*
X92928571Y-62652380D02*
X92928571Y-61652380D01*
X92928571Y-62128571D02*
X93500000Y-62128571D01*
X93500000Y-62652380D02*
X93500000Y-61652380D01*
X94119047Y-62652380D02*
X94023809Y-62604761D01*
X93976190Y-62557142D01*
X93928571Y-62461904D01*
X93928571Y-62176190D01*
X93976190Y-62080952D01*
X94023809Y-62033333D01*
X94119047Y-61985714D01*
X94261904Y-61985714D01*
X94357142Y-62033333D01*
X94404761Y-62080952D01*
X94452380Y-62176190D01*
X94452380Y-62461904D01*
X94404761Y-62557142D01*
X94357142Y-62604761D01*
X94261904Y-62652380D01*
X94119047Y-62652380D01*
X95023809Y-62652380D02*
X94928571Y-62604761D01*
X94880952Y-62509523D01*
X94880952Y-61652380D01*
X95785714Y-62604761D02*
X95690476Y-62652380D01*
X95500000Y-62652380D01*
X95404761Y-62604761D01*
X95357142Y-62509523D01*
X95357142Y-62128571D01*
X95404761Y-62033333D01*
X95500000Y-61985714D01*
X95690476Y-61985714D01*
X95785714Y-62033333D01*
X95833333Y-62128571D01*
X95833333Y-62223809D01*
X95357142Y-62319047D01*
X90538095Y-58452380D02*
X90538095Y-57452380D01*
X90538095Y-57928571D02*
X91109523Y-57928571D01*
X91109523Y-58452380D02*
X91109523Y-57452380D01*
X92109523Y-58452380D02*
X91538095Y-58452380D01*
X91823809Y-58452380D02*
X91823809Y-57452380D01*
X91728571Y-57595238D01*
X91633333Y-57690476D01*
X91538095Y-57738095D01*
G04 #@! TO.C,H2*
X151014285Y-101652380D02*
X151014285Y-100652380D01*
X151347619Y-101366666D01*
X151680952Y-100652380D01*
X151680952Y-101652380D01*
X152300000Y-101652380D02*
X152204761Y-101604761D01*
X152157142Y-101557142D01*
X152109523Y-101461904D01*
X152109523Y-101176190D01*
X152157142Y-101080952D01*
X152204761Y-101033333D01*
X152300000Y-100985714D01*
X152442857Y-100985714D01*
X152538095Y-101033333D01*
X152585714Y-101080952D01*
X152633333Y-101176190D01*
X152633333Y-101461904D01*
X152585714Y-101557142D01*
X152538095Y-101604761D01*
X152442857Y-101652380D01*
X152300000Y-101652380D01*
X153490476Y-100985714D02*
X153490476Y-101652380D01*
X153061904Y-100985714D02*
X153061904Y-101509523D01*
X153109523Y-101604761D01*
X153204761Y-101652380D01*
X153347619Y-101652380D01*
X153442857Y-101604761D01*
X153490476Y-101557142D01*
X153966666Y-100985714D02*
X153966666Y-101652380D01*
X153966666Y-101080952D02*
X154014285Y-101033333D01*
X154109523Y-100985714D01*
X154252380Y-100985714D01*
X154347619Y-101033333D01*
X154395238Y-101128571D01*
X154395238Y-101652380D01*
X154728571Y-100985714D02*
X155109523Y-100985714D01*
X154871428Y-100652380D02*
X154871428Y-101509523D01*
X154919047Y-101604761D01*
X155014285Y-101652380D01*
X155109523Y-101652380D01*
X155442857Y-101652380D02*
X155442857Y-100985714D01*
X155442857Y-100652380D02*
X155395238Y-100700000D01*
X155442857Y-100747619D01*
X155490476Y-100700000D01*
X155442857Y-100652380D01*
X155442857Y-100747619D01*
X155919047Y-100985714D02*
X155919047Y-101652380D01*
X155919047Y-101080952D02*
X155966666Y-101033333D01*
X156061904Y-100985714D01*
X156204761Y-100985714D01*
X156300000Y-101033333D01*
X156347619Y-101128571D01*
X156347619Y-101652380D01*
X157252380Y-100985714D02*
X157252380Y-101795238D01*
X157204761Y-101890476D01*
X157157142Y-101938095D01*
X157061904Y-101985714D01*
X156919047Y-101985714D01*
X156823809Y-101938095D01*
X157252380Y-101604761D02*
X157157142Y-101652380D01*
X156966666Y-101652380D01*
X156871428Y-101604761D01*
X156823809Y-101557142D01*
X156776190Y-101461904D01*
X156776190Y-101176190D01*
X156823809Y-101080952D01*
X156871428Y-101033333D01*
X156966666Y-100985714D01*
X157157142Y-100985714D01*
X157252380Y-101033333D01*
X157728571Y-101652380D02*
X157728571Y-100652380D01*
X157728571Y-101128571D02*
X158300000Y-101128571D01*
X158300000Y-101652380D02*
X158300000Y-100652380D01*
X158919047Y-101652380D02*
X158823809Y-101604761D01*
X158776190Y-101557142D01*
X158728571Y-101461904D01*
X158728571Y-101176190D01*
X158776190Y-101080952D01*
X158823809Y-101033333D01*
X158919047Y-100985714D01*
X159061904Y-100985714D01*
X159157142Y-101033333D01*
X159204761Y-101080952D01*
X159252380Y-101176190D01*
X159252380Y-101461904D01*
X159204761Y-101557142D01*
X159157142Y-101604761D01*
X159061904Y-101652380D01*
X158919047Y-101652380D01*
X159823809Y-101652380D02*
X159728571Y-101604761D01*
X159680952Y-101509523D01*
X159680952Y-100652380D01*
X160585714Y-101604761D02*
X160490476Y-101652380D01*
X160300000Y-101652380D01*
X160204761Y-101604761D01*
X160157142Y-101509523D01*
X160157142Y-101128571D01*
X160204761Y-101033333D01*
X160300000Y-100985714D01*
X160490476Y-100985714D01*
X160585714Y-101033333D01*
X160633333Y-101128571D01*
X160633333Y-101223809D01*
X160157142Y-101319047D01*
X155338095Y-97452380D02*
X155338095Y-96452380D01*
X155338095Y-96928571D02*
X155909523Y-96928571D01*
X155909523Y-97452380D02*
X155909523Y-96452380D01*
X156338095Y-96547619D02*
X156385714Y-96500000D01*
X156480952Y-96452380D01*
X156719047Y-96452380D01*
X156814285Y-96500000D01*
X156861904Y-96547619D01*
X156909523Y-96642857D01*
X156909523Y-96738095D01*
X156861904Y-96880952D01*
X156290476Y-97452380D01*
X156909523Y-97452380D01*
G04 #@! TO.C,H3*
X86214285Y-101652380D02*
X86214285Y-100652380D01*
X86547619Y-101366666D01*
X86880952Y-100652380D01*
X86880952Y-101652380D01*
X87500000Y-101652380D02*
X87404761Y-101604761D01*
X87357142Y-101557142D01*
X87309523Y-101461904D01*
X87309523Y-101176190D01*
X87357142Y-101080952D01*
X87404761Y-101033333D01*
X87500000Y-100985714D01*
X87642857Y-100985714D01*
X87738095Y-101033333D01*
X87785714Y-101080952D01*
X87833333Y-101176190D01*
X87833333Y-101461904D01*
X87785714Y-101557142D01*
X87738095Y-101604761D01*
X87642857Y-101652380D01*
X87500000Y-101652380D01*
X88690476Y-100985714D02*
X88690476Y-101652380D01*
X88261904Y-100985714D02*
X88261904Y-101509523D01*
X88309523Y-101604761D01*
X88404761Y-101652380D01*
X88547619Y-101652380D01*
X88642857Y-101604761D01*
X88690476Y-101557142D01*
X89166666Y-100985714D02*
X89166666Y-101652380D01*
X89166666Y-101080952D02*
X89214285Y-101033333D01*
X89309523Y-100985714D01*
X89452380Y-100985714D01*
X89547619Y-101033333D01*
X89595238Y-101128571D01*
X89595238Y-101652380D01*
X89928571Y-100985714D02*
X90309523Y-100985714D01*
X90071428Y-100652380D02*
X90071428Y-101509523D01*
X90119047Y-101604761D01*
X90214285Y-101652380D01*
X90309523Y-101652380D01*
X90642857Y-101652380D02*
X90642857Y-100985714D01*
X90642857Y-100652380D02*
X90595238Y-100700000D01*
X90642857Y-100747619D01*
X90690476Y-100700000D01*
X90642857Y-100652380D01*
X90642857Y-100747619D01*
X91119047Y-100985714D02*
X91119047Y-101652380D01*
X91119047Y-101080952D02*
X91166666Y-101033333D01*
X91261904Y-100985714D01*
X91404761Y-100985714D01*
X91500000Y-101033333D01*
X91547619Y-101128571D01*
X91547619Y-101652380D01*
X92452380Y-100985714D02*
X92452380Y-101795238D01*
X92404761Y-101890476D01*
X92357142Y-101938095D01*
X92261904Y-101985714D01*
X92119047Y-101985714D01*
X92023809Y-101938095D01*
X92452380Y-101604761D02*
X92357142Y-101652380D01*
X92166666Y-101652380D01*
X92071428Y-101604761D01*
X92023809Y-101557142D01*
X91976190Y-101461904D01*
X91976190Y-101176190D01*
X92023809Y-101080952D01*
X92071428Y-101033333D01*
X92166666Y-100985714D01*
X92357142Y-100985714D01*
X92452380Y-101033333D01*
X92928571Y-101652380D02*
X92928571Y-100652380D01*
X92928571Y-101128571D02*
X93500000Y-101128571D01*
X93500000Y-101652380D02*
X93500000Y-100652380D01*
X94119047Y-101652380D02*
X94023809Y-101604761D01*
X93976190Y-101557142D01*
X93928571Y-101461904D01*
X93928571Y-101176190D01*
X93976190Y-101080952D01*
X94023809Y-101033333D01*
X94119047Y-100985714D01*
X94261904Y-100985714D01*
X94357142Y-101033333D01*
X94404761Y-101080952D01*
X94452380Y-101176190D01*
X94452380Y-101461904D01*
X94404761Y-101557142D01*
X94357142Y-101604761D01*
X94261904Y-101652380D01*
X94119047Y-101652380D01*
X95023809Y-101652380D02*
X94928571Y-101604761D01*
X94880952Y-101509523D01*
X94880952Y-100652380D01*
X95785714Y-101604761D02*
X95690476Y-101652380D01*
X95500000Y-101652380D01*
X95404761Y-101604761D01*
X95357142Y-101509523D01*
X95357142Y-101128571D01*
X95404761Y-101033333D01*
X95500000Y-100985714D01*
X95690476Y-100985714D01*
X95785714Y-101033333D01*
X95833333Y-101128571D01*
X95833333Y-101223809D01*
X95357142Y-101319047D01*
X90538095Y-97452380D02*
X90538095Y-96452380D01*
X90538095Y-96928571D02*
X91109523Y-96928571D01*
X91109523Y-97452380D02*
X91109523Y-96452380D01*
X91490476Y-96452380D02*
X92109523Y-96452380D01*
X91776190Y-96833333D01*
X91919047Y-96833333D01*
X92014285Y-96880952D01*
X92061904Y-96928571D01*
X92109523Y-97023809D01*
X92109523Y-97261904D01*
X92061904Y-97357142D01*
X92014285Y-97404761D01*
X91919047Y-97452380D01*
X91633333Y-97452380D01*
X91538095Y-97404761D01*
X91490476Y-97357142D01*
G04 #@! TO.C,H4*
X151014285Y-62652380D02*
X151014285Y-61652380D01*
X151347619Y-62366666D01*
X151680952Y-61652380D01*
X151680952Y-62652380D01*
X152300000Y-62652380D02*
X152204761Y-62604761D01*
X152157142Y-62557142D01*
X152109523Y-62461904D01*
X152109523Y-62176190D01*
X152157142Y-62080952D01*
X152204761Y-62033333D01*
X152300000Y-61985714D01*
X152442857Y-61985714D01*
X152538095Y-62033333D01*
X152585714Y-62080952D01*
X152633333Y-62176190D01*
X152633333Y-62461904D01*
X152585714Y-62557142D01*
X152538095Y-62604761D01*
X152442857Y-62652380D01*
X152300000Y-62652380D01*
X153490476Y-61985714D02*
X153490476Y-62652380D01*
X153061904Y-61985714D02*
X153061904Y-62509523D01*
X153109523Y-62604761D01*
X153204761Y-62652380D01*
X153347619Y-62652380D01*
X153442857Y-62604761D01*
X153490476Y-62557142D01*
X153966666Y-61985714D02*
X153966666Y-62652380D01*
X153966666Y-62080952D02*
X154014285Y-62033333D01*
X154109523Y-61985714D01*
X154252380Y-61985714D01*
X154347619Y-62033333D01*
X154395238Y-62128571D01*
X154395238Y-62652380D01*
X154728571Y-61985714D02*
X155109523Y-61985714D01*
X154871428Y-61652380D02*
X154871428Y-62509523D01*
X154919047Y-62604761D01*
X155014285Y-62652380D01*
X155109523Y-62652380D01*
X155442857Y-62652380D02*
X155442857Y-61985714D01*
X155442857Y-61652380D02*
X155395238Y-61700000D01*
X155442857Y-61747619D01*
X155490476Y-61700000D01*
X155442857Y-61652380D01*
X155442857Y-61747619D01*
X155919047Y-61985714D02*
X155919047Y-62652380D01*
X155919047Y-62080952D02*
X155966666Y-62033333D01*
X156061904Y-61985714D01*
X156204761Y-61985714D01*
X156300000Y-62033333D01*
X156347619Y-62128571D01*
X156347619Y-62652380D01*
X157252380Y-61985714D02*
X157252380Y-62795238D01*
X157204761Y-62890476D01*
X157157142Y-62938095D01*
X157061904Y-62985714D01*
X156919047Y-62985714D01*
X156823809Y-62938095D01*
X157252380Y-62604761D02*
X157157142Y-62652380D01*
X156966666Y-62652380D01*
X156871428Y-62604761D01*
X156823809Y-62557142D01*
X156776190Y-62461904D01*
X156776190Y-62176190D01*
X156823809Y-62080952D01*
X156871428Y-62033333D01*
X156966666Y-61985714D01*
X157157142Y-61985714D01*
X157252380Y-62033333D01*
X157728571Y-62652380D02*
X157728571Y-61652380D01*
X157728571Y-62128571D02*
X158300000Y-62128571D01*
X158300000Y-62652380D02*
X158300000Y-61652380D01*
X158919047Y-62652380D02*
X158823809Y-62604761D01*
X158776190Y-62557142D01*
X158728571Y-62461904D01*
X158728571Y-62176190D01*
X158776190Y-62080952D01*
X158823809Y-62033333D01*
X158919047Y-61985714D01*
X159061904Y-61985714D01*
X159157142Y-62033333D01*
X159204761Y-62080952D01*
X159252380Y-62176190D01*
X159252380Y-62461904D01*
X159204761Y-62557142D01*
X159157142Y-62604761D01*
X159061904Y-62652380D01*
X158919047Y-62652380D01*
X159823809Y-62652380D02*
X159728571Y-62604761D01*
X159680952Y-62509523D01*
X159680952Y-61652380D01*
X160585714Y-62604761D02*
X160490476Y-62652380D01*
X160300000Y-62652380D01*
X160204761Y-62604761D01*
X160157142Y-62509523D01*
X160157142Y-62128571D01*
X160204761Y-62033333D01*
X160300000Y-61985714D01*
X160490476Y-61985714D01*
X160585714Y-62033333D01*
X160633333Y-62128571D01*
X160633333Y-62223809D01*
X160157142Y-62319047D01*
X155338095Y-58452380D02*
X155338095Y-57452380D01*
X155338095Y-57928571D02*
X155909523Y-57928571D01*
X155909523Y-58452380D02*
X155909523Y-57452380D01*
X156814285Y-57785714D02*
X156814285Y-58452380D01*
X156576190Y-57404761D02*
X156338095Y-58119047D01*
X156957142Y-58119047D01*
G04 #@! TO.C,L1*
X107033333Y-83052380D02*
X106557142Y-83052380D01*
X106557142Y-82052380D01*
X107890476Y-83052380D02*
X107319047Y-83052380D01*
X107604761Y-83052380D02*
X107604761Y-82052380D01*
X107509523Y-82195238D01*
X107414285Y-82290476D01*
X107319047Y-82338095D01*
G04 #@! TO.C,R2*
X134411980Y-72346666D02*
X133935790Y-72680000D01*
X134411980Y-72918095D02*
X133411980Y-72918095D01*
X133411980Y-72537142D01*
X133459600Y-72441904D01*
X133507219Y-72394285D01*
X133602457Y-72346666D01*
X133745314Y-72346666D01*
X133840552Y-72394285D01*
X133888171Y-72441904D01*
X133935790Y-72537142D01*
X133935790Y-72918095D01*
X133507219Y-71965714D02*
X133459600Y-71918095D01*
X133411980Y-71822857D01*
X133411980Y-71584761D01*
X133459600Y-71489523D01*
X133507219Y-71441904D01*
X133602457Y-71394285D01*
X133697695Y-71394285D01*
X133840552Y-71441904D01*
X134411980Y-72013333D01*
X134411980Y-71394285D01*
G04 #@! TO.C,R7*
X142293333Y-104322380D02*
X141960000Y-103846190D01*
X141721904Y-104322380D02*
X141721904Y-103322380D01*
X142102857Y-103322380D01*
X142198095Y-103370000D01*
X142245714Y-103417619D01*
X142293333Y-103512857D01*
X142293333Y-103655714D01*
X142245714Y-103750952D01*
X142198095Y-103798571D01*
X142102857Y-103846190D01*
X141721904Y-103846190D01*
X142626666Y-103322380D02*
X143293333Y-103322380D01*
X142864761Y-104322380D01*
G04 #@! TO.C,RV1*
X110492380Y-99655238D02*
X110016190Y-99988571D01*
X110492380Y-100226666D02*
X109492380Y-100226666D01*
X109492380Y-99845714D01*
X109540000Y-99750476D01*
X109587619Y-99702857D01*
X109682857Y-99655238D01*
X109825714Y-99655238D01*
X109920952Y-99702857D01*
X109968571Y-99750476D01*
X110016190Y-99845714D01*
X110016190Y-100226666D01*
X109492380Y-99369523D02*
X110492380Y-99036190D01*
X109492380Y-98702857D01*
X110492380Y-97845714D02*
X110492380Y-98417142D01*
X110492380Y-98131428D02*
X109492380Y-98131428D01*
X109635238Y-98226666D01*
X109730476Y-98321904D01*
X109778095Y-98417142D01*
G04 #@! TD*
M02*
