G04 #@! TF.GenerationSoftware,KiCad,Pcbnew,5.0.2-bee76a0~70~ubuntu18.04.1*
G04 #@! TF.CreationDate,2019-04-24T08:54:05-03:00*
G04 #@! TF.ProjectId,led_driver,6c65645f-6472-4697-9665-722e6b696361,rev?*
G04 #@! TF.SameCoordinates,Original*
G04 #@! TF.FileFunction,Soldermask,Bot*
G04 #@! TF.FilePolarity,Negative*
%FSLAX46Y46*%
G04 Gerber Fmt 4.6, Leading zero omitted, Abs format (unit mm)*
G04 Created by KiCad (PCBNEW 5.0.2-bee76a0~70~ubuntu18.04.1) date Wed 24 Apr 2019 08:54:05 -03*
%MOMM*%
%LPD*%
G01*
G04 APERTURE LIST*
%ADD10C,0.100000*%
G04 APERTURE END LIST*
D10*
G36*
X193284774Y-96474462D02*
X193497704Y-96562660D01*
X193689333Y-96690703D01*
X193852297Y-96853667D01*
X193980340Y-97045296D01*
X194068538Y-97258226D01*
X194113500Y-97484264D01*
X194113500Y-97714736D01*
X194068538Y-97940774D01*
X193980340Y-98153704D01*
X193852297Y-98345333D01*
X193689333Y-98508297D01*
X193497704Y-98636340D01*
X193284774Y-98724538D01*
X193058736Y-98769500D01*
X192828264Y-98769500D01*
X192602226Y-98724538D01*
X192389296Y-98636340D01*
X192197667Y-98508297D01*
X192034703Y-98345333D01*
X191906660Y-98153704D01*
X191818462Y-97940774D01*
X191773500Y-97714736D01*
X191773500Y-97484264D01*
X191818462Y-97258226D01*
X191906660Y-97045296D01*
X192034703Y-96853667D01*
X192197667Y-96690703D01*
X192389296Y-96562660D01*
X192602226Y-96474462D01*
X192828264Y-96429500D01*
X193058736Y-96429500D01*
X193284774Y-96474462D01*
X193284774Y-96474462D01*
G37*
G36*
X183284774Y-96474462D02*
X183497704Y-96562660D01*
X183689333Y-96690703D01*
X183852297Y-96853667D01*
X183980340Y-97045296D01*
X184068538Y-97258226D01*
X184113500Y-97484264D01*
X184113500Y-97714736D01*
X184068538Y-97940774D01*
X183980340Y-98153704D01*
X183852297Y-98345333D01*
X183689333Y-98508297D01*
X183497704Y-98636340D01*
X183284774Y-98724538D01*
X183058736Y-98769500D01*
X182828264Y-98769500D01*
X182602226Y-98724538D01*
X182389296Y-98636340D01*
X182197667Y-98508297D01*
X182034703Y-98345333D01*
X181906660Y-98153704D01*
X181818462Y-97940774D01*
X181773500Y-97714736D01*
X181773500Y-97484264D01*
X181818462Y-97258226D01*
X181906660Y-97045296D01*
X182034703Y-96853667D01*
X182197667Y-96690703D01*
X182389296Y-96562660D01*
X182602226Y-96474462D01*
X182828264Y-96429500D01*
X183058736Y-96429500D01*
X183284774Y-96474462D01*
X183284774Y-96474462D01*
G37*
G36*
X170831665Y-95095940D02*
X171003060Y-95112821D01*
X171222977Y-95179532D01*
X171332937Y-95212888D01*
X171492553Y-95298205D01*
X171636952Y-95375388D01*
X171903424Y-95594076D01*
X172122112Y-95860548D01*
X172136236Y-95886973D01*
X172284612Y-96164563D01*
X172317968Y-96274523D01*
X172384679Y-96494440D01*
X172418467Y-96837500D01*
X172384679Y-97180560D01*
X172361119Y-97258226D01*
X172284612Y-97510437D01*
X172197753Y-97672937D01*
X172122112Y-97814452D01*
X171903424Y-98080924D01*
X171636952Y-98299612D01*
X171551414Y-98345333D01*
X171332937Y-98462112D01*
X171222977Y-98495468D01*
X171003060Y-98562179D01*
X170831665Y-98579060D01*
X170745969Y-98587500D01*
X167074031Y-98587500D01*
X166988335Y-98579060D01*
X166816940Y-98562179D01*
X166597023Y-98495468D01*
X166487063Y-98462112D01*
X166268586Y-98345333D01*
X166183048Y-98299612D01*
X165916576Y-98080924D01*
X165697888Y-97814452D01*
X165622247Y-97672937D01*
X165535388Y-97510437D01*
X165458881Y-97258226D01*
X165435321Y-97180560D01*
X165401533Y-96837500D01*
X165435321Y-96494440D01*
X165502032Y-96274523D01*
X165535388Y-96164563D01*
X165683764Y-95886973D01*
X165697888Y-95860548D01*
X165916576Y-95594076D01*
X166183048Y-95375388D01*
X166327447Y-95298205D01*
X166487063Y-95212888D01*
X166597023Y-95179532D01*
X166816940Y-95112821D01*
X166988335Y-95095940D01*
X167074031Y-95087500D01*
X170745969Y-95087500D01*
X170831665Y-95095940D01*
X170831665Y-95095940D01*
G37*
G36*
X223118352Y-94607743D02*
X223263941Y-94668048D01*
X223394973Y-94755601D01*
X223506399Y-94867027D01*
X223593952Y-94998059D01*
X223654257Y-95143648D01*
X223685000Y-95298205D01*
X223685000Y-95455795D01*
X223654257Y-95610352D01*
X223593952Y-95755941D01*
X223506399Y-95886973D01*
X223394973Y-95998399D01*
X223263941Y-96085952D01*
X223118352Y-96146257D01*
X222963795Y-96177000D01*
X222806205Y-96177000D01*
X222651648Y-96146257D01*
X222506059Y-96085952D01*
X222375027Y-95998399D01*
X222263601Y-95886973D01*
X222176048Y-95755941D01*
X222115743Y-95610352D01*
X222085000Y-95455795D01*
X222085000Y-95298205D01*
X222115743Y-95143648D01*
X222176048Y-94998059D01*
X222263601Y-94867027D01*
X222375027Y-94755601D01*
X222506059Y-94668048D01*
X222651648Y-94607743D01*
X222806205Y-94577000D01*
X222963795Y-94577000D01*
X223118352Y-94607743D01*
X223118352Y-94607743D01*
G37*
G36*
X174557649Y-93505217D02*
X174596827Y-93509076D01*
X174672228Y-93531949D01*
X174747629Y-93554821D01*
X174886608Y-93629108D01*
X175008422Y-93729078D01*
X175108392Y-93850892D01*
X175182679Y-93989871D01*
X175228424Y-94140674D01*
X175243870Y-94297500D01*
X175228424Y-94454326D01*
X175182679Y-94605129D01*
X175108392Y-94744108D01*
X175008422Y-94865922D01*
X174886608Y-94965892D01*
X174747629Y-95040179D01*
X174672228Y-95063051D01*
X174596827Y-95085924D01*
X174580825Y-95087500D01*
X174479295Y-95097500D01*
X173500705Y-95097500D01*
X173399175Y-95087500D01*
X173383173Y-95085924D01*
X173307772Y-95063051D01*
X173232371Y-95040179D01*
X173093392Y-94965892D01*
X172971578Y-94865922D01*
X172871608Y-94744108D01*
X172797321Y-94605129D01*
X172751576Y-94454326D01*
X172736130Y-94297500D01*
X172751576Y-94140674D01*
X172797321Y-93989871D01*
X172871608Y-93850892D01*
X172971578Y-93729078D01*
X173093392Y-93629108D01*
X173232371Y-93554821D01*
X173307772Y-93531949D01*
X173383173Y-93509076D01*
X173422351Y-93505217D01*
X173500705Y-93497500D01*
X174479295Y-93497500D01*
X174557649Y-93505217D01*
X174557649Y-93505217D01*
G37*
G36*
X188284774Y-91474462D02*
X188497704Y-91562660D01*
X188689333Y-91690703D01*
X188852297Y-91853667D01*
X188980340Y-92045296D01*
X189068538Y-92258226D01*
X189113500Y-92484264D01*
X189113500Y-92714736D01*
X189068538Y-92940774D01*
X188980340Y-93153704D01*
X188852297Y-93345333D01*
X188689333Y-93508297D01*
X188497704Y-93636340D01*
X188284774Y-93724538D01*
X188058736Y-93769500D01*
X187828264Y-93769500D01*
X187602226Y-93724538D01*
X187389296Y-93636340D01*
X187197667Y-93508297D01*
X187034703Y-93345333D01*
X186906660Y-93153704D01*
X186818462Y-92940774D01*
X186773500Y-92714736D01*
X186773500Y-92484264D01*
X186818462Y-92258226D01*
X186906660Y-92045296D01*
X187034703Y-91853667D01*
X187197667Y-91690703D01*
X187389296Y-91562660D01*
X187602226Y-91474462D01*
X187828264Y-91429500D01*
X188058736Y-91429500D01*
X188284774Y-91474462D01*
X188284774Y-91474462D01*
G37*
G36*
X174557649Y-90965217D02*
X174596827Y-90969076D01*
X174672227Y-90991948D01*
X174747629Y-91014821D01*
X174886608Y-91089108D01*
X175008422Y-91189078D01*
X175108392Y-91310892D01*
X175182679Y-91449871D01*
X175228424Y-91600674D01*
X175243870Y-91757500D01*
X175228424Y-91914326D01*
X175182679Y-92065129D01*
X175108392Y-92204108D01*
X175008422Y-92325922D01*
X174886608Y-92425892D01*
X174747629Y-92500179D01*
X174672228Y-92523051D01*
X174596827Y-92545924D01*
X174557649Y-92549783D01*
X174479295Y-92557500D01*
X173500705Y-92557500D01*
X173422351Y-92549783D01*
X173383173Y-92545924D01*
X173307772Y-92523051D01*
X173232371Y-92500179D01*
X173093392Y-92425892D01*
X172971578Y-92325922D01*
X172871608Y-92204108D01*
X172797321Y-92065129D01*
X172751576Y-91914326D01*
X172736130Y-91757500D01*
X172751576Y-91600674D01*
X172797321Y-91449871D01*
X172871608Y-91310892D01*
X172971578Y-91189078D01*
X173093392Y-91089108D01*
X173232371Y-91014821D01*
X173307773Y-90991948D01*
X173383173Y-90969076D01*
X173422351Y-90965217D01*
X173500705Y-90957500D01*
X174479295Y-90957500D01*
X174557649Y-90965217D01*
X174557649Y-90965217D01*
G37*
G36*
X216366703Y-88631486D02*
X216657883Y-88752097D01*
X216919944Y-88927201D01*
X217142799Y-89150056D01*
X217317903Y-89412117D01*
X217438514Y-89703297D01*
X217500000Y-90012412D01*
X217500000Y-90327588D01*
X217438514Y-90636703D01*
X217317903Y-90927883D01*
X217142799Y-91189944D01*
X216919944Y-91412799D01*
X216657883Y-91587903D01*
X216366703Y-91708514D01*
X216057588Y-91770000D01*
X215742412Y-91770000D01*
X215433297Y-91708514D01*
X215142117Y-91587903D01*
X214880056Y-91412799D01*
X214657201Y-91189944D01*
X214482097Y-90927883D01*
X214361486Y-90636703D01*
X214300000Y-90327588D01*
X214300000Y-90012412D01*
X214361486Y-89703297D01*
X214482097Y-89412117D01*
X214657201Y-89150056D01*
X214880056Y-88927201D01*
X215142117Y-88752097D01*
X215433297Y-88631486D01*
X215742412Y-88570000D01*
X216057588Y-88570000D01*
X216366703Y-88631486D01*
X216366703Y-88631486D01*
G37*
G36*
X170831665Y-84935940D02*
X171003060Y-84952821D01*
X171222977Y-85019532D01*
X171332937Y-85052888D01*
X171495437Y-85139747D01*
X171636952Y-85215388D01*
X171636954Y-85215389D01*
X171636953Y-85215389D01*
X171903424Y-85434076D01*
X172122111Y-85700547D01*
X172284612Y-86004563D01*
X172317968Y-86114523D01*
X172384679Y-86334440D01*
X172418467Y-86677500D01*
X172384679Y-87020560D01*
X172317968Y-87240477D01*
X172284612Y-87350437D01*
X172197753Y-87512937D01*
X172122112Y-87654452D01*
X171903424Y-87920924D01*
X171636952Y-88139612D01*
X171495437Y-88215253D01*
X171332937Y-88302112D01*
X171222977Y-88335468D01*
X171003060Y-88402179D01*
X170831665Y-88419060D01*
X170745969Y-88427500D01*
X167074031Y-88427500D01*
X166988335Y-88419060D01*
X166816940Y-88402179D01*
X166597023Y-88335468D01*
X166487063Y-88302112D01*
X166324563Y-88215253D01*
X166183048Y-88139612D01*
X165916576Y-87920924D01*
X165697888Y-87654452D01*
X165622247Y-87512937D01*
X165535388Y-87350437D01*
X165502032Y-87240477D01*
X165435321Y-87020560D01*
X165401533Y-86677500D01*
X165435321Y-86334440D01*
X165502032Y-86114523D01*
X165535388Y-86004563D01*
X165697889Y-85700547D01*
X165916576Y-85434076D01*
X166183047Y-85215389D01*
X166183046Y-85215389D01*
X166183048Y-85215388D01*
X166324563Y-85139747D01*
X166487063Y-85052888D01*
X166597023Y-85019532D01*
X166816940Y-84952821D01*
X166988335Y-84935940D01*
X167074031Y-84927500D01*
X170745969Y-84927500D01*
X170831665Y-84935940D01*
X170831665Y-84935940D01*
G37*
G36*
X223002649Y-84424717D02*
X223041827Y-84428576D01*
X223084105Y-84441401D01*
X223192629Y-84474321D01*
X223331608Y-84548608D01*
X223453422Y-84648578D01*
X223553392Y-84770392D01*
X223627679Y-84909371D01*
X223673424Y-85060174D01*
X223688870Y-85217000D01*
X223673424Y-85373826D01*
X223627679Y-85524629D01*
X223553392Y-85663608D01*
X223453422Y-85785422D01*
X223331608Y-85885392D01*
X223192629Y-85959679D01*
X223117228Y-85982551D01*
X223041827Y-86005424D01*
X223002649Y-86009283D01*
X222924295Y-86017000D01*
X222845705Y-86017000D01*
X222767351Y-86009283D01*
X222728173Y-86005424D01*
X222652772Y-85982551D01*
X222577371Y-85959679D01*
X222438392Y-85885392D01*
X222316578Y-85785422D01*
X222216608Y-85663608D01*
X222142321Y-85524629D01*
X222096576Y-85373826D01*
X222081130Y-85217000D01*
X222096576Y-85060174D01*
X222142321Y-84909371D01*
X222216608Y-84770392D01*
X222316578Y-84648578D01*
X222438392Y-84548608D01*
X222577371Y-84474321D01*
X222685895Y-84441401D01*
X222728173Y-84428576D01*
X222767351Y-84424717D01*
X222845705Y-84417000D01*
X222924295Y-84417000D01*
X223002649Y-84424717D01*
X223002649Y-84424717D01*
G37*
G36*
X194427649Y-83027717D02*
X194466827Y-83031576D01*
X194530012Y-83050743D01*
X194617629Y-83077321D01*
X194756608Y-83151608D01*
X194878422Y-83251578D01*
X194978392Y-83373392D01*
X195052679Y-83512371D01*
X195098424Y-83663174D01*
X195113870Y-83820000D01*
X195098424Y-83976826D01*
X195052679Y-84127629D01*
X194978392Y-84266608D01*
X194878422Y-84388422D01*
X194756608Y-84488392D01*
X194617629Y-84562679D01*
X194542227Y-84585552D01*
X194466827Y-84608424D01*
X194427649Y-84612283D01*
X194349295Y-84620000D01*
X194270705Y-84620000D01*
X194192351Y-84612283D01*
X194153173Y-84608424D01*
X194077773Y-84585552D01*
X194002371Y-84562679D01*
X193863392Y-84488392D01*
X193741578Y-84388422D01*
X193641608Y-84266608D01*
X193567321Y-84127629D01*
X193521576Y-83976826D01*
X193506130Y-83820000D01*
X193521576Y-83663174D01*
X193567321Y-83512371D01*
X193641608Y-83373392D01*
X193741578Y-83251578D01*
X193863392Y-83151608D01*
X194002371Y-83077321D01*
X194089988Y-83050743D01*
X194153173Y-83031576D01*
X194192351Y-83027717D01*
X194270705Y-83020000D01*
X194349295Y-83020000D01*
X194427649Y-83027717D01*
X194427649Y-83027717D01*
G37*
G36*
X204703352Y-83050743D02*
X204848941Y-83111048D01*
X204979973Y-83198601D01*
X205091399Y-83310027D01*
X205178952Y-83441059D01*
X205239257Y-83586648D01*
X205270000Y-83741205D01*
X205270000Y-83898795D01*
X205239257Y-84053352D01*
X205178952Y-84198941D01*
X205091399Y-84329973D01*
X204979973Y-84441399D01*
X204848941Y-84528952D01*
X204703352Y-84589257D01*
X204548795Y-84620000D01*
X204391205Y-84620000D01*
X204236648Y-84589257D01*
X204091059Y-84528952D01*
X203960027Y-84441399D01*
X203848601Y-84329973D01*
X203761048Y-84198941D01*
X203700743Y-84053352D01*
X203670000Y-83898795D01*
X203670000Y-83741205D01*
X203700743Y-83586648D01*
X203761048Y-83441059D01*
X203848601Y-83310027D01*
X203960027Y-83198601D01*
X204091059Y-83111048D01*
X204236648Y-83050743D01*
X204391205Y-83020000D01*
X204548795Y-83020000D01*
X204703352Y-83050743D01*
X204703352Y-83050743D01*
G37*
G36*
X194427649Y-77947717D02*
X194466827Y-77951576D01*
X194530012Y-77970743D01*
X194617629Y-77997321D01*
X194756608Y-78071608D01*
X194878422Y-78171578D01*
X194978392Y-78293392D01*
X195052679Y-78432371D01*
X195098424Y-78583174D01*
X195113870Y-78740000D01*
X195098424Y-78896826D01*
X195052679Y-79047629D01*
X194978392Y-79186608D01*
X194878422Y-79308422D01*
X194756608Y-79408392D01*
X194617629Y-79482679D01*
X194542227Y-79505552D01*
X194466827Y-79528424D01*
X194427649Y-79532283D01*
X194349295Y-79540000D01*
X194270705Y-79540000D01*
X194192351Y-79532283D01*
X194153173Y-79528424D01*
X194077772Y-79505551D01*
X194002371Y-79482679D01*
X193863392Y-79408392D01*
X193741578Y-79308422D01*
X193641608Y-79186608D01*
X193567321Y-79047629D01*
X193521576Y-78896826D01*
X193506130Y-78740000D01*
X193521576Y-78583174D01*
X193567321Y-78432371D01*
X193641608Y-78293392D01*
X193741578Y-78171578D01*
X193863392Y-78071608D01*
X194002371Y-77997321D01*
X194089988Y-77970743D01*
X194153173Y-77951576D01*
X194192351Y-77947717D01*
X194270705Y-77940000D01*
X194349295Y-77940000D01*
X194427649Y-77947717D01*
X194427649Y-77947717D01*
G37*
G36*
X204703352Y-77970743D02*
X204848941Y-78031048D01*
X204979973Y-78118601D01*
X205091399Y-78230027D01*
X205178952Y-78361059D01*
X205239257Y-78506648D01*
X205270000Y-78661205D01*
X205270000Y-78818795D01*
X205239257Y-78973352D01*
X205178952Y-79118941D01*
X205091399Y-79249973D01*
X204979973Y-79361399D01*
X204848941Y-79448952D01*
X204703352Y-79509257D01*
X204548795Y-79540000D01*
X204391205Y-79540000D01*
X204236648Y-79509257D01*
X204091059Y-79448952D01*
X203960027Y-79361399D01*
X203848601Y-79249973D01*
X203761048Y-79118941D01*
X203700743Y-78973352D01*
X203670000Y-78818795D01*
X203670000Y-78661205D01*
X203700743Y-78506648D01*
X203761048Y-78361059D01*
X203848601Y-78230027D01*
X203960027Y-78118601D01*
X204091059Y-78031048D01*
X204236648Y-77970743D01*
X204391205Y-77940000D01*
X204548795Y-77940000D01*
X204703352Y-77970743D01*
X204703352Y-77970743D01*
G37*
G36*
X219785000Y-79095000D02*
X215825000Y-79095000D01*
X215825000Y-77115000D01*
X219785000Y-77115000D01*
X219785000Y-79095000D01*
X219785000Y-79095000D01*
G37*
G36*
X169078070Y-76477824D02*
X169078073Y-76477825D01*
X169078074Y-76477825D01*
X169264690Y-76534434D01*
X169436676Y-76626362D01*
X169587423Y-76750077D01*
X169711138Y-76900824D01*
X169798930Y-77065073D01*
X169803065Y-77072808D01*
X169859676Y-77259430D01*
X169878790Y-77453500D01*
X169859676Y-77647570D01*
X169859675Y-77647573D01*
X169859675Y-77647574D01*
X169803066Y-77834190D01*
X169711138Y-78006176D01*
X169587423Y-78156923D01*
X169436676Y-78280638D01*
X169264690Y-78372566D01*
X169078074Y-78429175D01*
X169078073Y-78429175D01*
X169078070Y-78429176D01*
X168932636Y-78443500D01*
X166855364Y-78443500D01*
X166709930Y-78429176D01*
X166709927Y-78429175D01*
X166709926Y-78429175D01*
X166523310Y-78372566D01*
X166351324Y-78280638D01*
X166200577Y-78156923D01*
X166076862Y-78006176D01*
X165984934Y-77834190D01*
X165928325Y-77647574D01*
X165928325Y-77647573D01*
X165928324Y-77647570D01*
X165909210Y-77453500D01*
X165928324Y-77259430D01*
X165984935Y-77072808D01*
X165989070Y-77065073D01*
X166076862Y-76900824D01*
X166200577Y-76750077D01*
X166351324Y-76626362D01*
X166523310Y-76534434D01*
X166709926Y-76477825D01*
X166709927Y-76477825D01*
X166709930Y-76477824D01*
X166855364Y-76463500D01*
X168932636Y-76463500D01*
X169078070Y-76477824D01*
X169078070Y-76477824D01*
G37*
G36*
X218989070Y-72129324D02*
X218989073Y-72129325D01*
X218989074Y-72129325D01*
X219175690Y-72185934D01*
X219347676Y-72277862D01*
X219498423Y-72401577D01*
X219622138Y-72552324D01*
X219709930Y-72716573D01*
X219714065Y-72724308D01*
X219770676Y-72910930D01*
X219789790Y-73105000D01*
X219770676Y-73299070D01*
X219770675Y-73299073D01*
X219770675Y-73299074D01*
X219714066Y-73485690D01*
X219622138Y-73657676D01*
X219498423Y-73808423D01*
X219347676Y-73932138D01*
X219175690Y-74024066D01*
X218989074Y-74080675D01*
X218989073Y-74080675D01*
X218989070Y-74080676D01*
X218843636Y-74095000D01*
X216766364Y-74095000D01*
X216620930Y-74080676D01*
X216620927Y-74080675D01*
X216620926Y-74080675D01*
X216434310Y-74024066D01*
X216262324Y-73932138D01*
X216111577Y-73808423D01*
X215987862Y-73657676D01*
X215895934Y-73485690D01*
X215839325Y-73299074D01*
X215839325Y-73299073D01*
X215839324Y-73299070D01*
X215820210Y-73105000D01*
X215839324Y-72910930D01*
X215895935Y-72724308D01*
X215900070Y-72716573D01*
X215987862Y-72552324D01*
X216111577Y-72401577D01*
X216262324Y-72277862D01*
X216434310Y-72185934D01*
X216620926Y-72129325D01*
X216620927Y-72129325D01*
X216620930Y-72129324D01*
X216766364Y-72115000D01*
X218843636Y-72115000D01*
X218989070Y-72129324D01*
X218989070Y-72129324D01*
G37*
G36*
X169874000Y-73443500D02*
X165914000Y-73443500D01*
X165914000Y-71463500D01*
X169874000Y-71463500D01*
X169874000Y-73443500D01*
X169874000Y-73443500D01*
G37*
G36*
X204587649Y-70962717D02*
X204626827Y-70966576D01*
X204690012Y-70985743D01*
X204777629Y-71012321D01*
X204916608Y-71086608D01*
X205038422Y-71186578D01*
X205138392Y-71308392D01*
X205212679Y-71447371D01*
X205258424Y-71598174D01*
X205273870Y-71755000D01*
X205258424Y-71911826D01*
X205212679Y-72062629D01*
X205138392Y-72201608D01*
X205038422Y-72323422D01*
X204916608Y-72423392D01*
X204777629Y-72497679D01*
X204702228Y-72520551D01*
X204626827Y-72543424D01*
X204587649Y-72547283D01*
X204509295Y-72555000D01*
X204430705Y-72555000D01*
X204352351Y-72547283D01*
X204313173Y-72543424D01*
X204237773Y-72520552D01*
X204162371Y-72497679D01*
X204023392Y-72423392D01*
X203901578Y-72323422D01*
X203801608Y-72201608D01*
X203727321Y-72062629D01*
X203681576Y-71911826D01*
X203666130Y-71755000D01*
X203681576Y-71598174D01*
X203727321Y-71447371D01*
X203801608Y-71308392D01*
X203901578Y-71186578D01*
X204023392Y-71086608D01*
X204162371Y-71012321D01*
X204249988Y-70985743D01*
X204313173Y-70966576D01*
X204352351Y-70962717D01*
X204430705Y-70955000D01*
X204509295Y-70955000D01*
X204587649Y-70962717D01*
X204587649Y-70962717D01*
G37*
G36*
X194543352Y-70985743D02*
X194688941Y-71046048D01*
X194819973Y-71133601D01*
X194931399Y-71245027D01*
X195018952Y-71376059D01*
X195079257Y-71521648D01*
X195110000Y-71676205D01*
X195110000Y-71833795D01*
X195079257Y-71988352D01*
X195018952Y-72133941D01*
X194931399Y-72264973D01*
X194819973Y-72376399D01*
X194688941Y-72463952D01*
X194543352Y-72524257D01*
X194388795Y-72555000D01*
X194231205Y-72555000D01*
X194076648Y-72524257D01*
X193931059Y-72463952D01*
X193800027Y-72376399D01*
X193688601Y-72264973D01*
X193601048Y-72133941D01*
X193540743Y-71988352D01*
X193510000Y-71833795D01*
X193510000Y-71676205D01*
X193540743Y-71521648D01*
X193601048Y-71376059D01*
X193688601Y-71245027D01*
X193800027Y-71133601D01*
X193931059Y-71046048D01*
X194076648Y-70985743D01*
X194231205Y-70955000D01*
X194388795Y-70955000D01*
X194543352Y-70985743D01*
X194543352Y-70985743D01*
G37*
M02*
