G04 #@! TF.GenerationSoftware,KiCad,Pcbnew,5.0.2-bee76a0~70~ubuntu18.04.1*
G04 #@! TF.CreationDate,2019-02-20T20:53:16+00:00*
G04 #@! TF.ProjectId,led_driver,6c65645f-6472-4697-9665-722e6b696361,rev?*
G04 #@! TF.SameCoordinates,Original*
G04 #@! TF.FileFunction,Copper,L1,Top*
G04 #@! TF.FilePolarity,Positive*
%FSLAX46Y46*%
G04 Gerber Fmt 4.6, Leading zero omitted, Abs format (unit mm)*
G04 Created by KiCad (PCBNEW 5.0.2-bee76a0~70~ubuntu18.04.1) date Wed 20 Feb 2019 20:53:16 GMT*
%MOMM*%
%LPD*%
G01*
G04 APERTURE LIST*
G04 #@! TA.AperFunction,ComponentPad*
%ADD10O,3.960000X1.980000*%
G04 #@! TD*
G04 #@! TA.AperFunction,ComponentPad*
%ADD11R,3.960000X1.980000*%
G04 #@! TD*
G04 #@! TA.AperFunction,ComponentPad*
%ADD12O,7.000000X3.500000*%
G04 #@! TD*
G04 #@! TA.AperFunction,ComponentPad*
%ADD13O,2.500000X1.600000*%
G04 #@! TD*
G04 #@! TA.AperFunction,SMDPad,CuDef*
%ADD14R,0.800000X0.700000*%
G04 #@! TD*
G04 #@! TA.AperFunction,SMDPad,CuDef*
%ADD15R,4.290000X4.500000*%
G04 #@! TD*
G04 #@! TA.AperFunction,SMDPad,CuDef*
%ADD16R,1.550000X0.600000*%
G04 #@! TD*
G04 #@! TA.AperFunction,ComponentPad*
%ADD17O,1.600000X1.600000*%
G04 #@! TD*
G04 #@! TA.AperFunction,ComponentPad*
%ADD18C,1.600000*%
G04 #@! TD*
G04 #@! TA.AperFunction,ComponentPad*
%ADD19C,2.340000*%
G04 #@! TD*
G04 #@! TA.AperFunction,ViaPad*
%ADD20C,0.800000*%
G04 #@! TD*
G04 #@! TA.AperFunction,Conductor*
%ADD21C,0.750000*%
G04 #@! TD*
G04 APERTURE END LIST*
D10*
G04 #@! TO.P,J1,2*
G04 #@! TO.N,GND*
X167894000Y-77453500D03*
D11*
G04 #@! TO.P,J1,1*
G04 #@! TO.N,Net-(J1-Pad1)*
X167894000Y-72453500D03*
G04 #@! TD*
D12*
G04 #@! TO.P,J2,2*
G04 #@! TO.N,GND*
X168910000Y-96837500D03*
X168910000Y-86677500D03*
D13*
G04 #@! TO.P,J2,1*
G04 #@! TO.N,Net-(J2-Pad1)*
X173990000Y-91757500D03*
G04 #@! TO.P,J2,2*
G04 #@! TO.N,GND*
X173990000Y-94297500D03*
G04 #@! TD*
D11*
G04 #@! TO.P,J4,1*
G04 #@! TO.N,Net-(J4-Pad1)*
X217805000Y-78105000D03*
D10*
G04 #@! TO.P,J4,2*
G04 #@! TO.N,GND*
X217805000Y-73105000D03*
G04 #@! TD*
D14*
G04 #@! TO.P,Q1,1*
G04 #@! TO.N,GND*
X187725500Y-85095000D03*
G04 #@! TO.P,Q1,2*
X187725500Y-83825000D03*
G04 #@! TO.P,Q1,3*
X187725500Y-82545000D03*
G04 #@! TO.P,Q1,4*
G04 #@! TO.N,Net-(J2-Pad1)*
X187725500Y-81275000D03*
G04 #@! TO.P,Q1,5*
G04 #@! TO.N,Net-(Q1-Pad5)*
X182225500Y-81275000D03*
X182225500Y-82545000D03*
X182225500Y-83825000D03*
X182225500Y-85095000D03*
D15*
X184475500Y-83185000D03*
G04 #@! TD*
D16*
G04 #@! TO.P,Q2,1*
G04 #@! TO.N,Net-(J1-Pad1)*
X181894500Y-70548500D03*
G04 #@! TO.P,Q2,2*
X181894500Y-71818500D03*
G04 #@! TO.P,Q2,3*
X181894500Y-73088500D03*
G04 #@! TO.P,Q2,4*
G04 #@! TO.N,Net-(Q1-Pad5)*
X181894500Y-74358500D03*
G04 #@! TO.P,Q2,5*
G04 #@! TO.N,Net-(Q2-Pad5)*
X187294500Y-74358500D03*
G04 #@! TO.P,Q2,6*
X187294500Y-73088500D03*
G04 #@! TO.P,Q2,7*
X187294500Y-71818500D03*
G04 #@! TO.P,Q2,8*
X187294500Y-70548500D03*
G04 #@! TD*
D17*
G04 #@! TO.P,R1,2*
G04 #@! TO.N,Net-(J1-Pad1)*
X194310000Y-78740000D03*
D18*
G04 #@! TO.P,R1,1*
G04 #@! TO.N,Net-(Q1-Pad5)*
X204470000Y-78740000D03*
G04 #@! TD*
D17*
G04 #@! TO.P,R2,2*
G04 #@! TO.N,Net-(J2-Pad1)*
X194310000Y-83820000D03*
D18*
G04 #@! TO.P,R2,1*
G04 #@! TO.N,GND*
X204470000Y-83820000D03*
G04 #@! TD*
G04 #@! TO.P,R3,1*
G04 #@! TO.N,Net-(Q2-Pad5)*
X194310000Y-71755000D03*
D17*
G04 #@! TO.P,R3,2*
G04 #@! TO.N,GND*
X204470000Y-71755000D03*
G04 #@! TD*
D18*
G04 #@! TO.P,R4,1*
G04 #@! TO.N,Net-(R4-Pad1)*
X222885000Y-95377000D03*
D17*
G04 #@! TO.P,R4,2*
G04 #@! TO.N,Net-(Q2-Pad5)*
X222885000Y-85217000D03*
G04 #@! TD*
D19*
G04 #@! TO.P,RV2,3*
G04 #@! TO.N,Net-(R4-Pad1)*
X192943500Y-97599500D03*
G04 #@! TO.P,RV2,2*
G04 #@! TO.N,Net-(J4-Pad1)*
X187943500Y-92599500D03*
G04 #@! TO.P,RV2,1*
G04 #@! TO.N,Net-(RV2-Pad1)*
X182943500Y-97599500D03*
G04 #@! TD*
D20*
G04 #@! TO.N,GND*
X189992000Y-83820000D03*
G04 #@! TO.N,Net-(Q2-Pad5)*
X212090000Y-82550000D03*
G04 #@! TD*
D21*
G04 #@! TO.N,GND*
X187725500Y-83825000D02*
X187725500Y-82545000D01*
X187725500Y-83825000D02*
X187725500Y-85095000D01*
X188875500Y-83825000D02*
X188880500Y-83820000D01*
X187725500Y-83825000D02*
X188875500Y-83825000D01*
X188880500Y-83820000D02*
X189992000Y-83820000D01*
G04 #@! TO.N,Net-(J2-Pad1)*
X189992000Y-88138000D02*
X194310000Y-83820000D01*
X179609500Y-88138000D02*
X189992000Y-88138000D01*
X173990000Y-91757500D02*
X175990000Y-91757500D01*
X175990000Y-91757500D02*
X179609500Y-88138000D01*
X191765000Y-81275000D02*
X187725500Y-81275000D01*
X194310000Y-83820000D02*
X191765000Y-81275000D01*
G04 #@! TO.N,Net-(J4-Pad1)*
X189598129Y-92599500D02*
X187943500Y-92599500D01*
X205050500Y-92599500D02*
X189598129Y-92599500D01*
X217805000Y-79845000D02*
X205050500Y-92599500D01*
X217805000Y-78105000D02*
X217805000Y-79845000D01*
G04 #@! TO.N,Net-(Q1-Pad5)*
X180369500Y-74358500D02*
X179070000Y-75658000D01*
X181894500Y-74358500D02*
X180369500Y-74358500D01*
X181075500Y-82545000D02*
X180826500Y-82296000D01*
X182225500Y-82545000D02*
X181075500Y-82545000D01*
X180086000Y-82296000D02*
X179070000Y-81280000D01*
X180826500Y-82296000D02*
X180086000Y-82296000D01*
X181580500Y-83185000D02*
X184475500Y-83185000D01*
X180826500Y-82431000D02*
X181580500Y-83185000D01*
X180826500Y-82296000D02*
X180826500Y-82431000D01*
X182175500Y-83825000D02*
X182225500Y-83825000D01*
X180826500Y-82476000D02*
X182175500Y-83825000D01*
X180826500Y-82296000D02*
X180826500Y-82476000D01*
X182225500Y-83695000D02*
X182225500Y-85095000D01*
X180826500Y-82296000D02*
X182225500Y-83695000D01*
X181075500Y-81275000D02*
X182225500Y-81275000D01*
X180826500Y-81524000D02*
X181075500Y-81275000D01*
X180826500Y-82296000D02*
X180826500Y-81524000D01*
X192532000Y-80010000D02*
X179832000Y-80010000D01*
X179070000Y-80772000D02*
X179070000Y-81026000D01*
X193548000Y-81026000D02*
X192532000Y-80010000D01*
X179070000Y-81026000D02*
X179070000Y-81280000D01*
X179070000Y-75658000D02*
X179070000Y-81026000D01*
X204470000Y-78740000D02*
X203670001Y-79539999D01*
X179832000Y-80010000D02*
X179070000Y-80772000D01*
X203670001Y-79539999D02*
X198082001Y-79539999D01*
X198082001Y-79539999D02*
X196596000Y-81026000D01*
X196596000Y-81026000D02*
X193548000Y-81026000D01*
G04 #@! TO.N,Net-(Q2-Pad5)*
X212090000Y-82550000D02*
X204470000Y-74930000D01*
X197485000Y-74930000D02*
X194310000Y-71755000D01*
X204470000Y-74930000D02*
X197485000Y-74930000D01*
X187358000Y-71755000D02*
X187294500Y-71818500D01*
X194310000Y-71755000D02*
X187358000Y-71755000D01*
X187294500Y-71818500D02*
X187294500Y-70548500D01*
X187294500Y-71818500D02*
X187294500Y-73088500D01*
X187294500Y-73088500D02*
X187294500Y-73629500D01*
X187294500Y-73629500D02*
X187294500Y-74358500D01*
G04 #@! TO.N,Net-(R4-Pad1)*
X220662500Y-97599500D02*
X222885000Y-95377000D01*
X192943500Y-97599500D02*
X220662500Y-97599500D01*
G04 #@! TO.N,Net-(J1-Pad1)*
X194310000Y-78740000D02*
X188595000Y-78740000D01*
X182369500Y-71818500D02*
X181894500Y-71818500D01*
X188595000Y-78740000D02*
X188595000Y-78044000D01*
X182686000Y-72390000D02*
X181894500Y-71598500D01*
X181894500Y-71598500D02*
X181894500Y-70548500D01*
X182941000Y-72390000D02*
X182686000Y-72390000D01*
X182941000Y-72390000D02*
X182369500Y-71818500D01*
X188595000Y-78044000D02*
X182941000Y-72390000D01*
X182941000Y-72390000D02*
X182941000Y-72964000D01*
X182816500Y-73088500D02*
X181894500Y-73088500D01*
X182941000Y-72964000D02*
X182816500Y-73088500D01*
X181259500Y-72453500D02*
X181894500Y-71818500D01*
X167894000Y-72453500D02*
X181259500Y-72453500D01*
G04 #@! TD*
M02*
