G04 #@! TF.GenerationSoftware,KiCad,Pcbnew,(5.0.0)*
G04 #@! TF.CreationDate,2018-12-18T17:12:43+00:00*
G04 #@! TF.ProjectId,lm3150,6C6D333135302E6B696361645F706362,rev?*
G04 #@! TF.SameCoordinates,Original*
G04 #@! TF.FileFunction,Paste,Top*
G04 #@! TF.FilePolarity,Positive*
%FSLAX46Y46*%
G04 Gerber Fmt 4.6, Leading zero omitted, Abs format (unit mm)*
G04 Created by KiCad (PCBNEW (5.0.0)) date 12/18/18 17:12:43*
%MOMM*%
%LPD*%
G01*
G04 APERTURE LIST*
%ADD10R,2.500000X2.000000*%
%ADD11R,1.500000X1.250000*%
%ADD12R,2.000000X2.500000*%
%ADD13R,1.600000X3.000000*%
%ADD14R,3.600000X2.700000*%
%ADD15R,1.270000X0.610000*%
%ADD16R,1.020000X0.610000*%
%ADD17R,3.810000X3.910000*%
%ADD18R,1.300000X1.500000*%
%ADD19R,1.500000X1.300000*%
%ADD20R,2.000000X1.700000*%
%ADD21R,0.431800X1.397000*%
G04 APERTURE END LIST*
D10*
G04 #@! TO.C,C1*
X117750000Y-43000000D03*
X117750000Y-47000000D03*
G04 #@! TD*
D11*
G04 #@! TO.C,C2*
X121500000Y-77250000D03*
X119000000Y-77250000D03*
G04 #@! TD*
G04 #@! TO.C,C3*
X132500000Y-74750000D03*
X135000000Y-74750000D03*
G04 #@! TD*
G04 #@! TO.C,C4*
X119000000Y-73000000D03*
X121500000Y-73000000D03*
G04 #@! TD*
D12*
G04 #@! TO.C,C5*
X126500000Y-58500000D03*
X130500000Y-58500000D03*
G04 #@! TD*
D11*
G04 #@! TO.C,C6*
X134000000Y-93250000D03*
X131500000Y-93250000D03*
G04 #@! TD*
D13*
G04 #@! TO.C,C7*
X113000000Y-89550000D03*
X113000000Y-93950000D03*
G04 #@! TD*
D14*
G04 #@! TO.C,L1*
X150000000Y-67150000D03*
X150000000Y-58850000D03*
G04 #@! TD*
D15*
G04 #@! TO.C,Q1*
X129980000Y-44405000D03*
X129980000Y-43135000D03*
X129980000Y-41865000D03*
X129980000Y-40595000D03*
D16*
X124515000Y-40595000D03*
X124515000Y-41865000D03*
X124515000Y-43135000D03*
X124515000Y-44405000D03*
D17*
X126620000Y-42500000D03*
G04 #@! TD*
G04 #@! TO.C,Q2*
X128940000Y-50000000D03*
D16*
X131045000Y-48095000D03*
X131045000Y-49365000D03*
X131045000Y-50635000D03*
X131045000Y-51905000D03*
D15*
X125580000Y-51905000D03*
X125580000Y-50635000D03*
X125580000Y-49365000D03*
X125580000Y-48095000D03*
G04 #@! TD*
D18*
G04 #@! TO.C,R1*
X126250000Y-79850000D03*
X126250000Y-77150000D03*
G04 #@! TD*
G04 #@! TO.C,R2*
X135000000Y-64600000D03*
X135000000Y-61900000D03*
G04 #@! TD*
D19*
G04 #@! TO.C,R3*
X131400000Y-88750000D03*
X134100000Y-88750000D03*
G04 #@! TD*
D20*
G04 #@! TO.C,R4*
X134750000Y-82250000D03*
X130750000Y-82250000D03*
G04 #@! TD*
D21*
G04 #@! TO.C,U1*
X125556900Y-66456000D03*
X126204600Y-66456000D03*
X126852300Y-66456000D03*
X127500000Y-66456000D03*
X128160400Y-66456000D03*
X128808100Y-66456000D03*
X129455800Y-66456000D03*
X129455800Y-72044000D03*
X128808100Y-72044000D03*
X128160400Y-72044000D03*
X127500000Y-72044000D03*
X126865000Y-72044000D03*
X126204600Y-72044000D03*
X125569600Y-72044000D03*
G04 #@! TD*
M02*
