G04 #@! TF.GenerationSoftware,KiCad,Pcbnew,(5.0.0)*
G04 #@! TF.CreationDate,2018-12-18T17:12:43+00:00*
G04 #@! TF.ProjectId,lm3150,6C6D333135302E6B696361645F706362,rev?*
G04 #@! TF.SameCoordinates,Original*
G04 #@! TF.FileFunction,Copper,L2,Bot,Signal*
G04 #@! TF.FilePolarity,Positive*
%FSLAX46Y46*%
G04 Gerber Fmt 4.6, Leading zero omitted, Abs format (unit mm)*
G04 Created by KiCad (PCBNEW (5.0.0)) date 12/18/18 17:12:43*
%MOMM*%
%LPD*%
G01*
G04 APERTURE LIST*
G04 #@! TA.AperFunction,ComponentPad*
%ADD10C,5.000000*%
G04 #@! TD*
G04 #@! TA.AperFunction,ViaPad*
%ADD11C,0.800000*%
G04 #@! TD*
G04 #@! TA.AperFunction,Conductor*
%ADD12C,0.250000*%
G04 #@! TD*
G04 #@! TA.AperFunction,Conductor*
%ADD13C,0.750000*%
G04 #@! TD*
G04 APERTURE END LIST*
D10*
G04 #@! TO.P,MH1,1*
G04 #@! TO.N,GND*
X100000000Y-51000000D03*
G04 #@! TD*
G04 #@! TO.P,MH2,1*
G04 #@! TO.N,+12V*
X100000000Y-41500000D03*
G04 #@! TD*
G04 #@! TO.P,MH3,1*
G04 #@! TO.N,GND*
X116000000Y-82500000D03*
G04 #@! TD*
G04 #@! TO.P,MH4,1*
G04 #@! TO.N,Net-(MH4-Pad1)*
X124000000Y-85000000D03*
G04 #@! TD*
G04 #@! TO.P,MH5,1*
G04 #@! TO.N,Net-(C6-Pad2)*
X99500000Y-96000000D03*
G04 #@! TD*
G04 #@! TO.P,MH6,1*
G04 #@! TO.N,GND*
X99500000Y-86500000D03*
G04 #@! TD*
D11*
G04 #@! TO.N,+12V*
X121250000Y-43250000D03*
X123750000Y-74500000D03*
G04 #@! TO.N,GND*
X129000000Y-68000000D03*
X128000000Y-70500000D03*
X126000000Y-68500000D03*
X126000000Y-68500000D03*
G04 #@! TO.N,Net-(C6-Pad2)*
X134500000Y-91000000D03*
X145500000Y-91000000D03*
G04 #@! TO.N,Net-(MH4-Pad1)*
X126775000Y-73750000D03*
G04 #@! TO.N,Net-(Q1-Pad4)*
X128500000Y-61500000D03*
X128500000Y-38500000D03*
G04 #@! TO.N,Net-(R1-Pad2)*
X130250000Y-73250000D03*
X127000000Y-82000000D03*
G04 #@! TD*
D12*
G04 #@! TO.N,+12V*
X120850001Y-43649999D02*
X120850001Y-69350001D01*
X121250000Y-43250000D02*
X120850001Y-43649999D01*
X120850001Y-69350001D02*
X123750000Y-72250000D01*
X123750000Y-72250000D02*
X123750000Y-74500000D01*
D13*
G04 #@! TO.N,Net-(C6-Pad2)*
X134500000Y-91000000D02*
X145500000Y-91000000D01*
D12*
G04 #@! TO.N,Net-(MH4-Pad1)*
X126375001Y-74149999D02*
X126350001Y-74149999D01*
X126775000Y-73750000D02*
X126375001Y-74149999D01*
X124000000Y-76500000D02*
X124000000Y-85000000D01*
X126350001Y-74149999D02*
X124000000Y-76500000D01*
G04 #@! TO.N,Net-(Q1-Pad4)*
X128500000Y-61500000D02*
X128500000Y-38500000D01*
G04 #@! TO.N,Net-(R1-Pad2)*
X130250000Y-73250000D02*
X130250000Y-77250000D01*
X130250000Y-77250000D02*
X130250000Y-78750000D01*
X130250000Y-78750000D02*
X127000000Y-82000000D01*
G04 #@! TD*
M02*
