G04 #@! TF.GenerationSoftware,KiCad,Pcbnew,(5.0.0)*
G04 #@! TF.CreationDate,2018-12-18T17:12:43+00:00*
G04 #@! TF.ProjectId,lm3150,6C6D333135302E6B696361645F706362,rev?*
G04 #@! TF.SameCoordinates,Original*
G04 #@! TF.FileFunction,Copper,L1,Top,Signal*
G04 #@! TF.FilePolarity,Positive*
%FSLAX46Y46*%
G04 Gerber Fmt 4.6, Leading zero omitted, Abs format (unit mm)*
G04 Created by KiCad (PCBNEW (5.0.0)) date 12/18/18 17:12:43*
%MOMM*%
%LPD*%
G01*
G04 APERTURE LIST*
G04 #@! TA.AperFunction,SMDPad,CuDef*
%ADD10R,2.500000X2.000000*%
G04 #@! TD*
G04 #@! TA.AperFunction,SMDPad,CuDef*
%ADD11R,1.500000X1.250000*%
G04 #@! TD*
G04 #@! TA.AperFunction,SMDPad,CuDef*
%ADD12R,2.000000X2.500000*%
G04 #@! TD*
G04 #@! TA.AperFunction,SMDPad,CuDef*
%ADD13R,1.600000X3.000000*%
G04 #@! TD*
G04 #@! TA.AperFunction,SMDPad,CuDef*
%ADD14R,3.600000X2.700000*%
G04 #@! TD*
G04 #@! TA.AperFunction,ComponentPad*
%ADD15C,5.000000*%
G04 #@! TD*
G04 #@! TA.AperFunction,SMDPad,CuDef*
%ADD16R,1.270000X0.610000*%
G04 #@! TD*
G04 #@! TA.AperFunction,SMDPad,CuDef*
%ADD17R,1.020000X0.610000*%
G04 #@! TD*
G04 #@! TA.AperFunction,SMDPad,CuDef*
%ADD18R,3.810000X3.910000*%
G04 #@! TD*
G04 #@! TA.AperFunction,SMDPad,CuDef*
%ADD19R,1.300000X1.500000*%
G04 #@! TD*
G04 #@! TA.AperFunction,SMDPad,CuDef*
%ADD20R,1.500000X1.300000*%
G04 #@! TD*
G04 #@! TA.AperFunction,SMDPad,CuDef*
%ADD21R,2.000000X1.700000*%
G04 #@! TD*
G04 #@! TA.AperFunction,SMDPad,CuDef*
%ADD22R,0.431800X1.397000*%
G04 #@! TD*
G04 #@! TA.AperFunction,ViaPad*
%ADD23C,0.800000*%
G04 #@! TD*
G04 #@! TA.AperFunction,Conductor*
%ADD24C,0.250000*%
G04 #@! TD*
G04 #@! TA.AperFunction,Conductor*
%ADD25C,0.500000*%
G04 #@! TD*
G04 #@! TA.AperFunction,Conductor*
%ADD26C,0.750000*%
G04 #@! TD*
G04 #@! TA.AperFunction,Conductor*
%ADD27C,0.254000*%
G04 #@! TD*
G04 APERTURE END LIST*
D10*
G04 #@! TO.P,C1,1*
G04 #@! TO.N,+12V*
X117750000Y-43000000D03*
G04 #@! TO.P,C1,2*
G04 #@! TO.N,GND*
X117750000Y-47000000D03*
G04 #@! TD*
D11*
G04 #@! TO.P,C2,2*
G04 #@! TO.N,+12V*
X121500000Y-77250000D03*
G04 #@! TO.P,C2,1*
G04 #@! TO.N,GND*
X119000000Y-77250000D03*
G04 #@! TD*
G04 #@! TO.P,C3,1*
G04 #@! TO.N,Net-(C3-Pad1)*
X132500000Y-74750000D03*
G04 #@! TO.P,C3,2*
G04 #@! TO.N,GND*
X135000000Y-74750000D03*
G04 #@! TD*
G04 #@! TO.P,C4,1*
G04 #@! TO.N,GND*
X119000000Y-73000000D03*
G04 #@! TO.P,C4,2*
G04 #@! TO.N,Net-(C4-Pad2)*
X121500000Y-73000000D03*
G04 #@! TD*
D12*
G04 #@! TO.P,C5,2*
G04 #@! TO.N,Net-(C5-Pad2)*
X126500000Y-58500000D03*
G04 #@! TO.P,C5,1*
G04 #@! TO.N,Net-(C5-Pad1)*
X130500000Y-58500000D03*
G04 #@! TD*
D11*
G04 #@! TO.P,C6,2*
G04 #@! TO.N,Net-(C6-Pad2)*
X134000000Y-93250000D03*
G04 #@! TO.P,C6,1*
G04 #@! TO.N,Net-(C6-Pad1)*
X131500000Y-93250000D03*
G04 #@! TD*
D13*
G04 #@! TO.P,C7,2*
G04 #@! TO.N,GND*
X113000000Y-89550000D03*
G04 #@! TO.P,C7,1*
G04 #@! TO.N,Net-(C6-Pad2)*
X113000000Y-93950000D03*
G04 #@! TD*
D14*
G04 #@! TO.P,L1,2*
G04 #@! TO.N,Net-(C6-Pad2)*
X150000000Y-67150000D03*
G04 #@! TO.P,L1,1*
G04 #@! TO.N,Net-(C5-Pad1)*
X150000000Y-58850000D03*
G04 #@! TD*
D15*
G04 #@! TO.P,MH1,1*
G04 #@! TO.N,GND*
X100000000Y-51000000D03*
G04 #@! TD*
G04 #@! TO.P,MH2,1*
G04 #@! TO.N,+12V*
X100000000Y-41500000D03*
G04 #@! TD*
G04 #@! TO.P,MH3,1*
G04 #@! TO.N,GND*
X116000000Y-82500000D03*
G04 #@! TD*
G04 #@! TO.P,MH4,1*
G04 #@! TO.N,Net-(MH4-Pad1)*
X124000000Y-85000000D03*
G04 #@! TD*
G04 #@! TO.P,MH5,1*
G04 #@! TO.N,Net-(C6-Pad2)*
X99500000Y-96000000D03*
G04 #@! TD*
G04 #@! TO.P,MH6,1*
G04 #@! TO.N,GND*
X99500000Y-86500000D03*
G04 #@! TD*
D16*
G04 #@! TO.P,Q1,1*
G04 #@! TO.N,Net-(C5-Pad1)*
X129980000Y-44405000D03*
G04 #@! TO.P,Q1,2*
X129980000Y-43135000D03*
G04 #@! TO.P,Q1,3*
X129980000Y-41865000D03*
G04 #@! TO.P,Q1,4*
G04 #@! TO.N,Net-(Q1-Pad4)*
X129980000Y-40595000D03*
D17*
G04 #@! TO.P,Q1,5*
G04 #@! TO.N,+12V*
X124515000Y-40595000D03*
X124515000Y-41865000D03*
X124515000Y-43135000D03*
X124515000Y-44405000D03*
D18*
X126620000Y-42500000D03*
G04 #@! TD*
G04 #@! TO.P,Q2,5*
G04 #@! TO.N,Net-(C5-Pad1)*
X128940000Y-50000000D03*
D17*
X131045000Y-48095000D03*
X131045000Y-49365000D03*
X131045000Y-50635000D03*
X131045000Y-51905000D03*
D16*
G04 #@! TO.P,Q2,4*
G04 #@! TO.N,Net-(Q2-Pad4)*
X125580000Y-51905000D03*
G04 #@! TO.P,Q2,3*
G04 #@! TO.N,GND*
X125580000Y-50635000D03*
G04 #@! TO.P,Q2,2*
X125580000Y-49365000D03*
G04 #@! TO.P,Q2,1*
X125580000Y-48095000D03*
G04 #@! TD*
D19*
G04 #@! TO.P,R1,2*
G04 #@! TO.N,Net-(R1-Pad2)*
X126250000Y-79850000D03*
G04 #@! TO.P,R1,1*
G04 #@! TO.N,+12V*
X126250000Y-77150000D03*
G04 #@! TD*
G04 #@! TO.P,R2,1*
G04 #@! TO.N,Net-(R2-Pad1)*
X135000000Y-64600000D03*
G04 #@! TO.P,R2,2*
G04 #@! TO.N,Net-(C5-Pad1)*
X135000000Y-61900000D03*
G04 #@! TD*
D20*
G04 #@! TO.P,R3,2*
G04 #@! TO.N,Net-(C6-Pad1)*
X131400000Y-88750000D03*
G04 #@! TO.P,R3,1*
G04 #@! TO.N,Net-(C6-Pad2)*
X134100000Y-88750000D03*
G04 #@! TD*
D21*
G04 #@! TO.P,R4,2*
G04 #@! TO.N,GND*
X134750000Y-82250000D03*
G04 #@! TO.P,R4,1*
G04 #@! TO.N,Net-(C6-Pad1)*
X130750000Y-82250000D03*
G04 #@! TD*
D22*
G04 #@! TO.P,U1,14*
G04 #@! TO.N,GND*
X125556900Y-66456000D03*
G04 #@! TO.P,U1,13*
G04 #@! TO.N,Net-(Q2-Pad4)*
X126204600Y-66456000D03*
G04 #@! TO.P,U1,12*
G04 #@! TO.N,Net-(C5-Pad2)*
X126852300Y-66456000D03*
G04 #@! TO.P,U1,11*
G04 #@! TO.N,Net-(Q1-Pad4)*
X127500000Y-66456000D03*
G04 #@! TO.P,U1,10*
G04 #@! TO.N,Net-(C5-Pad1)*
X128160400Y-66456000D03*
G04 #@! TO.P,U1,9*
G04 #@! TO.N,GND*
X128808100Y-66456000D03*
G04 #@! TO.P,U1,8*
G04 #@! TO.N,Net-(R2-Pad1)*
X129455800Y-66456000D03*
G04 #@! TO.P,U1,7*
G04 #@! TO.N,Net-(R1-Pad2)*
X129455800Y-72044000D03*
G04 #@! TO.P,U1,6*
G04 #@! TO.N,Net-(C3-Pad1)*
X128808100Y-72044000D03*
G04 #@! TO.P,U1,5*
G04 #@! TO.N,GND*
X128160400Y-72044000D03*
G04 #@! TO.P,U1,4*
G04 #@! TO.N,Net-(C6-Pad1)*
X127500000Y-72044000D03*
G04 #@! TO.P,U1,3*
G04 #@! TO.N,Net-(MH4-Pad1)*
X126865000Y-72044000D03*
G04 #@! TO.P,U1,2*
G04 #@! TO.N,+12V*
X126204600Y-72044000D03*
G04 #@! TO.P,U1,1*
G04 #@! TO.N,Net-(C4-Pad2)*
X125569600Y-72044000D03*
G04 #@! TD*
D23*
G04 #@! TO.N,+12V*
X121250000Y-43250000D03*
X123750000Y-74500000D03*
G04 #@! TO.N,GND*
X129000000Y-68000000D03*
X128000000Y-70500000D03*
X126000000Y-68500000D03*
X126000000Y-68500000D03*
G04 #@! TO.N,Net-(C6-Pad2)*
X134500000Y-91000000D03*
X145500000Y-91000000D03*
G04 #@! TO.N,Net-(MH4-Pad1)*
X126775000Y-73750000D03*
G04 #@! TO.N,Net-(Q1-Pad4)*
X128500000Y-61500000D03*
X128500000Y-38500000D03*
G04 #@! TO.N,Net-(R1-Pad2)*
X130250000Y-73250000D03*
X127000000Y-82000000D03*
G04 #@! TD*
D24*
G04 #@! TO.N,+12V*
X117750000Y-43000000D02*
X121000000Y-43000000D01*
X121000000Y-43000000D02*
X121250000Y-43250000D01*
X121500000Y-76375000D02*
X121500000Y-77250000D01*
X121500000Y-76184315D02*
X121500000Y-76375000D01*
X123184315Y-74500000D02*
X121500000Y-76184315D01*
X123750000Y-74500000D02*
X123184315Y-74500000D01*
X123750000Y-74500000D02*
X124750000Y-74500000D01*
X126250000Y-76000000D02*
X126250000Y-77150000D01*
X124750000Y-74500000D02*
X126250000Y-76000000D01*
X126204600Y-73045400D02*
X126204600Y-72044000D01*
X124750000Y-74500000D02*
X126204600Y-73045400D01*
X125985000Y-43135000D02*
X126620000Y-42500000D01*
X124515000Y-43135000D02*
X125985000Y-43135000D01*
X124515000Y-40595000D02*
X123405000Y-40595000D01*
X123405000Y-40595000D02*
X123405000Y-41095000D01*
X126620000Y-42495000D02*
X126620000Y-42500000D01*
X124720000Y-40595000D02*
X126620000Y-42495000D01*
X124515000Y-40595000D02*
X124720000Y-40595000D01*
X123945000Y-41500000D02*
X123000000Y-41500000D01*
X124310000Y-41865000D02*
X123945000Y-41500000D01*
X124515000Y-41865000D02*
X124310000Y-41865000D01*
X123405000Y-41095000D02*
X123000000Y-41500000D01*
X123000000Y-41500000D02*
X121250000Y-43250000D01*
X122405000Y-44405000D02*
X121250000Y-43250000D01*
X124515000Y-44405000D02*
X122405000Y-44405000D01*
G04 #@! TO.N,GND*
X125556900Y-66456000D02*
X125556900Y-67274999D01*
X128808100Y-67404500D02*
X129000000Y-67596400D01*
X128808100Y-66456000D02*
X128808100Y-67404500D01*
X129000000Y-67596400D02*
X129000000Y-68000000D01*
X128160400Y-72044000D02*
X128160400Y-70660400D01*
X128160400Y-70660400D02*
X128000000Y-70500000D01*
X125556900Y-66456000D02*
X125556900Y-68056900D01*
X125556900Y-68056900D02*
X126000000Y-68500000D01*
G04 #@! TO.N,Net-(C3-Pad1)*
X128808100Y-72992500D02*
X128808100Y-72044000D01*
X130565600Y-74750000D02*
X128808100Y-72992500D01*
X132500000Y-74750000D02*
X130565600Y-74750000D01*
G04 #@! TO.N,Net-(C4-Pad2)*
X125569600Y-72526600D02*
X125569600Y-72044000D01*
X125096200Y-73000000D02*
X125569600Y-72526600D01*
X121500000Y-73000000D02*
X125096200Y-73000000D01*
G04 #@! TO.N,Net-(C5-Pad2)*
X126852300Y-65507500D02*
X126852300Y-66456000D01*
X126852300Y-65220702D02*
X126852300Y-65507500D01*
X126975001Y-65098001D02*
X126852300Y-65220702D01*
X126975001Y-60475001D02*
X126975001Y-65098001D01*
X126500000Y-60000000D02*
X126975001Y-60475001D01*
X126500000Y-58500000D02*
X126500000Y-60000000D01*
D25*
G04 #@! TO.N,Net-(C5-Pad1)*
X135000000Y-61900000D02*
X130350000Y-61900000D01*
D24*
X128160400Y-64089600D02*
X128160400Y-66456000D01*
D25*
X130350000Y-61900000D02*
X128160400Y-64089600D01*
D24*
X128940000Y-49995000D02*
X128940000Y-50000000D01*
X130840000Y-48095000D02*
X128940000Y-49995000D01*
X131045000Y-48095000D02*
X130840000Y-48095000D01*
X129575000Y-49365000D02*
X128940000Y-50000000D01*
X131045000Y-49365000D02*
X129575000Y-49365000D01*
X129575000Y-50635000D02*
X128940000Y-50000000D01*
X131045000Y-50635000D02*
X129575000Y-50635000D01*
X128940000Y-50005000D02*
X128940000Y-50000000D01*
X130840000Y-51905000D02*
X128940000Y-50005000D01*
X131045000Y-51905000D02*
X130840000Y-51905000D01*
G04 #@! TO.N,Net-(C6-Pad2)*
X134100000Y-93150000D02*
X134000000Y-93250000D01*
X134100000Y-90600000D02*
X134500000Y-91000000D01*
X134100000Y-90500000D02*
X134100000Y-90600000D01*
D26*
X134100000Y-90500000D02*
X134100000Y-93150000D01*
X134100000Y-88750000D02*
X134100000Y-90500000D01*
D24*
G04 #@! TO.N,Net-(C6-Pad1)*
X127500000Y-72044000D02*
X127500000Y-74000000D01*
X127500000Y-74000000D02*
X128500000Y-75000000D01*
X129750000Y-93250000D02*
X131500000Y-93250000D01*
X128500000Y-92000000D02*
X129750000Y-93250000D01*
X128500000Y-87000000D02*
X128500000Y-92000000D01*
X130250000Y-88750000D02*
X131400000Y-88750000D01*
X128500000Y-87000000D02*
X130250000Y-88750000D01*
X128500000Y-81000000D02*
X128500000Y-81500000D01*
X128500000Y-81000000D02*
X128500000Y-87000000D01*
X128500000Y-75000000D02*
X128500000Y-81000000D01*
X129250000Y-82250000D02*
X130750000Y-82250000D01*
X128500000Y-81500000D02*
X129250000Y-82250000D01*
G04 #@! TO.N,Net-(MH4-Pad1)*
X126865000Y-72044000D02*
X126865000Y-73660000D01*
X126865000Y-73660000D02*
X126775000Y-73750000D01*
G04 #@! TO.N,Net-(Q1-Pad4)*
X127500000Y-66456000D02*
X127500000Y-62500000D01*
X127500000Y-62500000D02*
X128500000Y-61500000D01*
X129650000Y-40595000D02*
X129980000Y-40595000D01*
X128500000Y-39445000D02*
X129650000Y-40595000D01*
X128500000Y-38500000D02*
X128500000Y-39445000D01*
G04 #@! TO.N,Net-(Q2-Pad4)*
X126250000Y-66410600D02*
X126204600Y-66456000D01*
X126204600Y-64704600D02*
X126204600Y-66456000D01*
X122750000Y-61250000D02*
X126204600Y-64704600D01*
X122750000Y-53850000D02*
X122750000Y-61250000D01*
X125580000Y-51905000D02*
X124695000Y-51905000D01*
X124695000Y-51905000D02*
X122750000Y-53850000D01*
G04 #@! TO.N,Net-(R1-Pad2)*
X129455800Y-72044000D02*
X129455800Y-72455800D01*
X129455800Y-72455800D02*
X130250000Y-73250000D01*
X127000000Y-80600000D02*
X126250000Y-79850000D01*
X127000000Y-82000000D02*
X127000000Y-80600000D01*
G04 #@! TO.N,Net-(R2-Pad1)*
X135000000Y-64700000D02*
X135000000Y-64600000D01*
X133244000Y-66456000D02*
X135000000Y-64700000D01*
X129455800Y-66456000D02*
X133244000Y-66456000D01*
G04 #@! TD*
D27*
G04 #@! TO.N,+12V*
G36*
X127622569Y-37913720D02*
X127465000Y-38294126D01*
X127465000Y-38705874D01*
X127622569Y-39086280D01*
X127740001Y-39203712D01*
X127740001Y-39370149D01*
X127725112Y-39445000D01*
X127784097Y-39741537D01*
X127873000Y-39874590D01*
X127873000Y-39910000D01*
X126905750Y-39910000D01*
X126747000Y-40068750D01*
X126747000Y-42373000D01*
X126767000Y-42373000D01*
X126767000Y-42627000D01*
X126747000Y-42627000D01*
X126747000Y-42647000D01*
X126493000Y-42647000D01*
X126493000Y-42627000D01*
X126473000Y-42627000D01*
X126473000Y-42373000D01*
X126493000Y-42373000D01*
X126493000Y-40068750D01*
X126334250Y-39910000D01*
X125543026Y-39910000D01*
X125384698Y-39751673D01*
X125151309Y-39655000D01*
X124800750Y-39655000D01*
X124642000Y-39813750D01*
X124642000Y-39910000D01*
X124588691Y-39910000D01*
X124388000Y-39993129D01*
X124388000Y-39813750D01*
X124229250Y-39655000D01*
X123878691Y-39655000D01*
X123645302Y-39751673D01*
X123466673Y-39930301D01*
X123370000Y-40163690D01*
X123370000Y-40309250D01*
X123528750Y-40468000D01*
X124080000Y-40468000D01*
X124080000Y-40722000D01*
X123528750Y-40722000D01*
X123370000Y-40880750D01*
X123370000Y-41026310D01*
X123454371Y-41230000D01*
X123370000Y-41433690D01*
X123370000Y-41579250D01*
X123528750Y-41738000D01*
X124080000Y-41738000D01*
X124080000Y-41992000D01*
X123528750Y-41992000D01*
X123370000Y-42150750D01*
X123370000Y-42296310D01*
X123454371Y-42500000D01*
X123370000Y-42703690D01*
X123370000Y-42849250D01*
X123528750Y-43008000D01*
X124080000Y-43008000D01*
X124080000Y-43262000D01*
X123528750Y-43262000D01*
X123370000Y-43420750D01*
X123370000Y-43566310D01*
X123454371Y-43770000D01*
X123370000Y-43973690D01*
X123370000Y-44119250D01*
X123528750Y-44278000D01*
X124080000Y-44278000D01*
X124080000Y-44532000D01*
X123528750Y-44532000D01*
X123370000Y-44690750D01*
X123370000Y-44836310D01*
X123385198Y-44873000D01*
X96127000Y-44873000D01*
X96127000Y-43735880D01*
X97943725Y-43735880D01*
X98225421Y-44158564D01*
X99377892Y-44635294D01*
X100625072Y-44634705D01*
X101774579Y-44158564D01*
X102056275Y-43735880D01*
X100000000Y-41679605D01*
X97943725Y-43735880D01*
X96127000Y-43735880D01*
X96127000Y-40877892D01*
X96864706Y-40877892D01*
X96865295Y-42125072D01*
X97341436Y-43274579D01*
X97764120Y-43556275D01*
X99820395Y-41500000D01*
X100179605Y-41500000D01*
X102235880Y-43556275D01*
X102641801Y-43285750D01*
X115865000Y-43285750D01*
X115865000Y-44126309D01*
X115961673Y-44359698D01*
X116140301Y-44538327D01*
X116373690Y-44635000D01*
X117464250Y-44635000D01*
X117623000Y-44476250D01*
X117623000Y-43127000D01*
X117877000Y-43127000D01*
X117877000Y-44476250D01*
X118035750Y-44635000D01*
X119126310Y-44635000D01*
X119359699Y-44538327D01*
X119538327Y-44359698D01*
X119635000Y-44126309D01*
X119635000Y-43285750D01*
X119476250Y-43127000D01*
X117877000Y-43127000D01*
X117623000Y-43127000D01*
X116023750Y-43127000D01*
X115865000Y-43285750D01*
X102641801Y-43285750D01*
X102658564Y-43274579D01*
X103135294Y-42122108D01*
X103135177Y-41873691D01*
X115865000Y-41873691D01*
X115865000Y-42714250D01*
X116023750Y-42873000D01*
X117623000Y-42873000D01*
X117623000Y-41523750D01*
X117877000Y-41523750D01*
X117877000Y-42873000D01*
X119476250Y-42873000D01*
X119635000Y-42714250D01*
X119635000Y-41873691D01*
X119538327Y-41640302D01*
X119359699Y-41461673D01*
X119126310Y-41365000D01*
X118035750Y-41365000D01*
X117877000Y-41523750D01*
X117623000Y-41523750D01*
X117464250Y-41365000D01*
X116373690Y-41365000D01*
X116140301Y-41461673D01*
X115961673Y-41640302D01*
X115865000Y-41873691D01*
X103135177Y-41873691D01*
X103134705Y-40874928D01*
X102658564Y-39725421D01*
X102235880Y-39443725D01*
X100179605Y-41500000D01*
X99820395Y-41500000D01*
X97764120Y-39443725D01*
X97341436Y-39725421D01*
X96864706Y-40877892D01*
X96127000Y-40877892D01*
X96127000Y-39264120D01*
X97943725Y-39264120D01*
X100000000Y-41320395D01*
X102056275Y-39264120D01*
X101774579Y-38841436D01*
X100622108Y-38364706D01*
X99374928Y-38365295D01*
X98225421Y-38841436D01*
X97943725Y-39264120D01*
X96127000Y-39264120D01*
X96127000Y-37877000D01*
X127659289Y-37877000D01*
X127622569Y-37913720D01*
X127622569Y-37913720D01*
G37*
X127622569Y-37913720D02*
X127465000Y-38294126D01*
X127465000Y-38705874D01*
X127622569Y-39086280D01*
X127740001Y-39203712D01*
X127740001Y-39370149D01*
X127725112Y-39445000D01*
X127784097Y-39741537D01*
X127873000Y-39874590D01*
X127873000Y-39910000D01*
X126905750Y-39910000D01*
X126747000Y-40068750D01*
X126747000Y-42373000D01*
X126767000Y-42373000D01*
X126767000Y-42627000D01*
X126747000Y-42627000D01*
X126747000Y-42647000D01*
X126493000Y-42647000D01*
X126493000Y-42627000D01*
X126473000Y-42627000D01*
X126473000Y-42373000D01*
X126493000Y-42373000D01*
X126493000Y-40068750D01*
X126334250Y-39910000D01*
X125543026Y-39910000D01*
X125384698Y-39751673D01*
X125151309Y-39655000D01*
X124800750Y-39655000D01*
X124642000Y-39813750D01*
X124642000Y-39910000D01*
X124588691Y-39910000D01*
X124388000Y-39993129D01*
X124388000Y-39813750D01*
X124229250Y-39655000D01*
X123878691Y-39655000D01*
X123645302Y-39751673D01*
X123466673Y-39930301D01*
X123370000Y-40163690D01*
X123370000Y-40309250D01*
X123528750Y-40468000D01*
X124080000Y-40468000D01*
X124080000Y-40722000D01*
X123528750Y-40722000D01*
X123370000Y-40880750D01*
X123370000Y-41026310D01*
X123454371Y-41230000D01*
X123370000Y-41433690D01*
X123370000Y-41579250D01*
X123528750Y-41738000D01*
X124080000Y-41738000D01*
X124080000Y-41992000D01*
X123528750Y-41992000D01*
X123370000Y-42150750D01*
X123370000Y-42296310D01*
X123454371Y-42500000D01*
X123370000Y-42703690D01*
X123370000Y-42849250D01*
X123528750Y-43008000D01*
X124080000Y-43008000D01*
X124080000Y-43262000D01*
X123528750Y-43262000D01*
X123370000Y-43420750D01*
X123370000Y-43566310D01*
X123454371Y-43770000D01*
X123370000Y-43973690D01*
X123370000Y-44119250D01*
X123528750Y-44278000D01*
X124080000Y-44278000D01*
X124080000Y-44532000D01*
X123528750Y-44532000D01*
X123370000Y-44690750D01*
X123370000Y-44836310D01*
X123385198Y-44873000D01*
X96127000Y-44873000D01*
X96127000Y-43735880D01*
X97943725Y-43735880D01*
X98225421Y-44158564D01*
X99377892Y-44635294D01*
X100625072Y-44634705D01*
X101774579Y-44158564D01*
X102056275Y-43735880D01*
X100000000Y-41679605D01*
X97943725Y-43735880D01*
X96127000Y-43735880D01*
X96127000Y-40877892D01*
X96864706Y-40877892D01*
X96865295Y-42125072D01*
X97341436Y-43274579D01*
X97764120Y-43556275D01*
X99820395Y-41500000D01*
X100179605Y-41500000D01*
X102235880Y-43556275D01*
X102641801Y-43285750D01*
X115865000Y-43285750D01*
X115865000Y-44126309D01*
X115961673Y-44359698D01*
X116140301Y-44538327D01*
X116373690Y-44635000D01*
X117464250Y-44635000D01*
X117623000Y-44476250D01*
X117623000Y-43127000D01*
X117877000Y-43127000D01*
X117877000Y-44476250D01*
X118035750Y-44635000D01*
X119126310Y-44635000D01*
X119359699Y-44538327D01*
X119538327Y-44359698D01*
X119635000Y-44126309D01*
X119635000Y-43285750D01*
X119476250Y-43127000D01*
X117877000Y-43127000D01*
X117623000Y-43127000D01*
X116023750Y-43127000D01*
X115865000Y-43285750D01*
X102641801Y-43285750D01*
X102658564Y-43274579D01*
X103135294Y-42122108D01*
X103135177Y-41873691D01*
X115865000Y-41873691D01*
X115865000Y-42714250D01*
X116023750Y-42873000D01*
X117623000Y-42873000D01*
X117623000Y-41523750D01*
X117877000Y-41523750D01*
X117877000Y-42873000D01*
X119476250Y-42873000D01*
X119635000Y-42714250D01*
X119635000Y-41873691D01*
X119538327Y-41640302D01*
X119359699Y-41461673D01*
X119126310Y-41365000D01*
X118035750Y-41365000D01*
X117877000Y-41523750D01*
X117623000Y-41523750D01*
X117464250Y-41365000D01*
X116373690Y-41365000D01*
X116140301Y-41461673D01*
X115961673Y-41640302D01*
X115865000Y-41873691D01*
X103135177Y-41873691D01*
X103134705Y-40874928D01*
X102658564Y-39725421D01*
X102235880Y-39443725D01*
X100179605Y-41500000D01*
X99820395Y-41500000D01*
X97764120Y-39443725D01*
X97341436Y-39725421D01*
X96864706Y-40877892D01*
X96127000Y-40877892D01*
X96127000Y-39264120D01*
X97943725Y-39264120D01*
X100000000Y-41320395D01*
X102056275Y-39264120D01*
X101774579Y-38841436D01*
X100622108Y-38364706D01*
X99374928Y-38365295D01*
X98225421Y-38841436D01*
X97943725Y-39264120D01*
X96127000Y-39264120D01*
X96127000Y-37877000D01*
X127659289Y-37877000D01*
X127622569Y-37913720D01*
G04 #@! TO.N,GND*
G36*
X115865000Y-46039833D02*
X115865000Y-46714250D01*
X116023750Y-46873000D01*
X117623000Y-46873000D01*
X117623000Y-46853000D01*
X117877000Y-46853000D01*
X117877000Y-46873000D01*
X119476250Y-46873000D01*
X119635000Y-46714250D01*
X119635000Y-46070734D01*
X126373000Y-46125964D01*
X126373000Y-47168127D01*
X126341309Y-47155000D01*
X125865750Y-47155000D01*
X125707000Y-47313750D01*
X125707000Y-47968000D01*
X125727000Y-47968000D01*
X125727000Y-48222000D01*
X125707000Y-48222000D01*
X125707000Y-49238000D01*
X125727000Y-49238000D01*
X125727000Y-49492000D01*
X125707000Y-49492000D01*
X125707000Y-50508000D01*
X125727000Y-50508000D01*
X125727000Y-50762000D01*
X125707000Y-50762000D01*
X125707000Y-50782000D01*
X125453000Y-50782000D01*
X125453000Y-50762000D01*
X124468750Y-50762000D01*
X124310000Y-50920750D01*
X124310000Y-51066310D01*
X124333482Y-51123000D01*
X120000000Y-51123000D01*
X119951399Y-51132667D01*
X119910197Y-51160197D01*
X119882667Y-51201399D01*
X119873000Y-51250000D01*
X119873000Y-71740000D01*
X119285750Y-71740000D01*
X119127000Y-71898750D01*
X119127000Y-72873000D01*
X119147000Y-72873000D01*
X119147000Y-73127000D01*
X119127000Y-73127000D01*
X119127000Y-74101250D01*
X119285750Y-74260000D01*
X119873000Y-74260000D01*
X119873000Y-75990000D01*
X119285750Y-75990000D01*
X119127000Y-76148750D01*
X119127000Y-77123000D01*
X119147000Y-77123000D01*
X119147000Y-77377000D01*
X119127000Y-77377000D01*
X119127000Y-78351250D01*
X119285750Y-78510000D01*
X119873000Y-78510000D01*
X119873000Y-91371670D01*
X114377789Y-91314428D01*
X114435000Y-91176309D01*
X114435000Y-89835750D01*
X114276250Y-89677000D01*
X113127000Y-89677000D01*
X113127000Y-89697000D01*
X112873000Y-89697000D01*
X112873000Y-89677000D01*
X111723750Y-89677000D01*
X111565000Y-89835750D01*
X111565000Y-91176309D01*
X111610270Y-91285600D01*
X96127000Y-91124316D01*
X96127000Y-88735880D01*
X97443725Y-88735880D01*
X97725421Y-89158564D01*
X98877892Y-89635294D01*
X100125072Y-89634705D01*
X101274579Y-89158564D01*
X101556275Y-88735880D01*
X99500000Y-86679605D01*
X97443725Y-88735880D01*
X96127000Y-88735880D01*
X96127000Y-85877892D01*
X96364706Y-85877892D01*
X96365295Y-87125072D01*
X96841436Y-88274579D01*
X97264120Y-88556275D01*
X99320395Y-86500000D01*
X99679605Y-86500000D01*
X101735880Y-88556275D01*
X102158564Y-88274579D01*
X102303711Y-87923691D01*
X111565000Y-87923691D01*
X111565000Y-89264250D01*
X111723750Y-89423000D01*
X112873000Y-89423000D01*
X112873000Y-87573750D01*
X113127000Y-87573750D01*
X113127000Y-89423000D01*
X114276250Y-89423000D01*
X114435000Y-89264250D01*
X114435000Y-87923691D01*
X114338327Y-87690302D01*
X114159699Y-87511673D01*
X113926310Y-87415000D01*
X113285750Y-87415000D01*
X113127000Y-87573750D01*
X112873000Y-87573750D01*
X112714250Y-87415000D01*
X112073690Y-87415000D01*
X111840301Y-87511673D01*
X111661673Y-87690302D01*
X111565000Y-87923691D01*
X102303711Y-87923691D01*
X102635294Y-87122108D01*
X102634705Y-85874928D01*
X102162897Y-84735880D01*
X113943725Y-84735880D01*
X114225421Y-85158564D01*
X115377892Y-85635294D01*
X116625072Y-85634705D01*
X117774579Y-85158564D01*
X118056275Y-84735880D01*
X116000000Y-82679605D01*
X113943725Y-84735880D01*
X102162897Y-84735880D01*
X102158564Y-84725421D01*
X101735880Y-84443725D01*
X99679605Y-86500000D01*
X99320395Y-86500000D01*
X97264120Y-84443725D01*
X96841436Y-84725421D01*
X96364706Y-85877892D01*
X96127000Y-85877892D01*
X96127000Y-84264120D01*
X97443725Y-84264120D01*
X99500000Y-86320395D01*
X101556275Y-84264120D01*
X101274579Y-83841436D01*
X100122108Y-83364706D01*
X98874928Y-83365295D01*
X97725421Y-83841436D01*
X97443725Y-84264120D01*
X96127000Y-84264120D01*
X96127000Y-81877892D01*
X112864706Y-81877892D01*
X112865295Y-83125072D01*
X113341436Y-84274579D01*
X113764120Y-84556275D01*
X115820395Y-82500000D01*
X116179605Y-82500000D01*
X118235880Y-84556275D01*
X118658564Y-84274579D01*
X119135294Y-83122108D01*
X119134705Y-81874928D01*
X118658564Y-80725421D01*
X118235880Y-80443725D01*
X116179605Y-82500000D01*
X115820395Y-82500000D01*
X113764120Y-80443725D01*
X113341436Y-80725421D01*
X112864706Y-81877892D01*
X96127000Y-81877892D01*
X96127000Y-80264120D01*
X113943725Y-80264120D01*
X116000000Y-82320395D01*
X118056275Y-80264120D01*
X117774579Y-79841436D01*
X116622108Y-79364706D01*
X115374928Y-79365295D01*
X114225421Y-79841436D01*
X113943725Y-80264120D01*
X96127000Y-80264120D01*
X96127000Y-77535750D01*
X117615000Y-77535750D01*
X117615000Y-78001310D01*
X117711673Y-78234699D01*
X117890302Y-78413327D01*
X118123691Y-78510000D01*
X118714250Y-78510000D01*
X118873000Y-78351250D01*
X118873000Y-77377000D01*
X117773750Y-77377000D01*
X117615000Y-77535750D01*
X96127000Y-77535750D01*
X96127000Y-76498690D01*
X117615000Y-76498690D01*
X117615000Y-76964250D01*
X117773750Y-77123000D01*
X118873000Y-77123000D01*
X118873000Y-76148750D01*
X118714250Y-75990000D01*
X118123691Y-75990000D01*
X117890302Y-76086673D01*
X117711673Y-76265301D01*
X117615000Y-76498690D01*
X96127000Y-76498690D01*
X96127000Y-73285750D01*
X117615000Y-73285750D01*
X117615000Y-73751310D01*
X117711673Y-73984699D01*
X117890302Y-74163327D01*
X118123691Y-74260000D01*
X118714250Y-74260000D01*
X118873000Y-74101250D01*
X118873000Y-73127000D01*
X117773750Y-73127000D01*
X117615000Y-73285750D01*
X96127000Y-73285750D01*
X96127000Y-72248690D01*
X117615000Y-72248690D01*
X117615000Y-72714250D01*
X117773750Y-72873000D01*
X118873000Y-72873000D01*
X118873000Y-71898750D01*
X118714250Y-71740000D01*
X118123691Y-71740000D01*
X117890302Y-71836673D01*
X117711673Y-72015301D01*
X117615000Y-72248690D01*
X96127000Y-72248690D01*
X96127000Y-53235880D01*
X97943725Y-53235880D01*
X98225421Y-53658564D01*
X99377892Y-54135294D01*
X100625072Y-54134705D01*
X101774579Y-53658564D01*
X102056275Y-53235880D01*
X100000000Y-51179605D01*
X97943725Y-53235880D01*
X96127000Y-53235880D01*
X96127000Y-50377892D01*
X96864706Y-50377892D01*
X96865295Y-51625072D01*
X97341436Y-52774579D01*
X97764120Y-53056275D01*
X99820395Y-51000000D01*
X100179605Y-51000000D01*
X102235880Y-53056275D01*
X102658564Y-52774579D01*
X103135294Y-51622108D01*
X103134705Y-50374928D01*
X102834741Y-49650750D01*
X124310000Y-49650750D01*
X124310000Y-49796310D01*
X124394371Y-50000000D01*
X124310000Y-50203690D01*
X124310000Y-50349250D01*
X124468750Y-50508000D01*
X125453000Y-50508000D01*
X125453000Y-49492000D01*
X124468750Y-49492000D01*
X124310000Y-49650750D01*
X102834741Y-49650750D01*
X102658564Y-49225421D01*
X102235880Y-48943725D01*
X100179605Y-51000000D01*
X99820395Y-51000000D01*
X97764120Y-48943725D01*
X97341436Y-49225421D01*
X96864706Y-50377892D01*
X96127000Y-50377892D01*
X96127000Y-48764120D01*
X97943725Y-48764120D01*
X100000000Y-50820395D01*
X102056275Y-48764120D01*
X101774579Y-48341436D01*
X100622108Y-47864706D01*
X99374928Y-47865295D01*
X98225421Y-48341436D01*
X97943725Y-48764120D01*
X96127000Y-48764120D01*
X96127000Y-47285750D01*
X115865000Y-47285750D01*
X115865000Y-48126309D01*
X115961673Y-48359698D01*
X116140301Y-48538327D01*
X116373690Y-48635000D01*
X117464250Y-48635000D01*
X117623000Y-48476250D01*
X117623000Y-47127000D01*
X117877000Y-47127000D01*
X117877000Y-48476250D01*
X118035750Y-48635000D01*
X119126310Y-48635000D01*
X119359699Y-48538327D01*
X119517275Y-48380750D01*
X124310000Y-48380750D01*
X124310000Y-48526310D01*
X124394371Y-48730000D01*
X124310000Y-48933690D01*
X124310000Y-49079250D01*
X124468750Y-49238000D01*
X125453000Y-49238000D01*
X125453000Y-48222000D01*
X124468750Y-48222000D01*
X124310000Y-48380750D01*
X119517275Y-48380750D01*
X119538327Y-48359698D01*
X119635000Y-48126309D01*
X119635000Y-47663690D01*
X124310000Y-47663690D01*
X124310000Y-47809250D01*
X124468750Y-47968000D01*
X125453000Y-47968000D01*
X125453000Y-47313750D01*
X125294250Y-47155000D01*
X124818691Y-47155000D01*
X124585302Y-47251673D01*
X124406673Y-47430301D01*
X124310000Y-47663690D01*
X119635000Y-47663690D01*
X119635000Y-47285750D01*
X119476250Y-47127000D01*
X117877000Y-47127000D01*
X117623000Y-47127000D01*
X116023750Y-47127000D01*
X115865000Y-47285750D01*
X96127000Y-47285750D01*
X96127000Y-45878046D01*
X115865000Y-46039833D01*
X115865000Y-46039833D01*
G37*
X115865000Y-46039833D02*
X115865000Y-46714250D01*
X116023750Y-46873000D01*
X117623000Y-46873000D01*
X117623000Y-46853000D01*
X117877000Y-46853000D01*
X117877000Y-46873000D01*
X119476250Y-46873000D01*
X119635000Y-46714250D01*
X119635000Y-46070734D01*
X126373000Y-46125964D01*
X126373000Y-47168127D01*
X126341309Y-47155000D01*
X125865750Y-47155000D01*
X125707000Y-47313750D01*
X125707000Y-47968000D01*
X125727000Y-47968000D01*
X125727000Y-48222000D01*
X125707000Y-48222000D01*
X125707000Y-49238000D01*
X125727000Y-49238000D01*
X125727000Y-49492000D01*
X125707000Y-49492000D01*
X125707000Y-50508000D01*
X125727000Y-50508000D01*
X125727000Y-50762000D01*
X125707000Y-50762000D01*
X125707000Y-50782000D01*
X125453000Y-50782000D01*
X125453000Y-50762000D01*
X124468750Y-50762000D01*
X124310000Y-50920750D01*
X124310000Y-51066310D01*
X124333482Y-51123000D01*
X120000000Y-51123000D01*
X119951399Y-51132667D01*
X119910197Y-51160197D01*
X119882667Y-51201399D01*
X119873000Y-51250000D01*
X119873000Y-71740000D01*
X119285750Y-71740000D01*
X119127000Y-71898750D01*
X119127000Y-72873000D01*
X119147000Y-72873000D01*
X119147000Y-73127000D01*
X119127000Y-73127000D01*
X119127000Y-74101250D01*
X119285750Y-74260000D01*
X119873000Y-74260000D01*
X119873000Y-75990000D01*
X119285750Y-75990000D01*
X119127000Y-76148750D01*
X119127000Y-77123000D01*
X119147000Y-77123000D01*
X119147000Y-77377000D01*
X119127000Y-77377000D01*
X119127000Y-78351250D01*
X119285750Y-78510000D01*
X119873000Y-78510000D01*
X119873000Y-91371670D01*
X114377789Y-91314428D01*
X114435000Y-91176309D01*
X114435000Y-89835750D01*
X114276250Y-89677000D01*
X113127000Y-89677000D01*
X113127000Y-89697000D01*
X112873000Y-89697000D01*
X112873000Y-89677000D01*
X111723750Y-89677000D01*
X111565000Y-89835750D01*
X111565000Y-91176309D01*
X111610270Y-91285600D01*
X96127000Y-91124316D01*
X96127000Y-88735880D01*
X97443725Y-88735880D01*
X97725421Y-89158564D01*
X98877892Y-89635294D01*
X100125072Y-89634705D01*
X101274579Y-89158564D01*
X101556275Y-88735880D01*
X99500000Y-86679605D01*
X97443725Y-88735880D01*
X96127000Y-88735880D01*
X96127000Y-85877892D01*
X96364706Y-85877892D01*
X96365295Y-87125072D01*
X96841436Y-88274579D01*
X97264120Y-88556275D01*
X99320395Y-86500000D01*
X99679605Y-86500000D01*
X101735880Y-88556275D01*
X102158564Y-88274579D01*
X102303711Y-87923691D01*
X111565000Y-87923691D01*
X111565000Y-89264250D01*
X111723750Y-89423000D01*
X112873000Y-89423000D01*
X112873000Y-87573750D01*
X113127000Y-87573750D01*
X113127000Y-89423000D01*
X114276250Y-89423000D01*
X114435000Y-89264250D01*
X114435000Y-87923691D01*
X114338327Y-87690302D01*
X114159699Y-87511673D01*
X113926310Y-87415000D01*
X113285750Y-87415000D01*
X113127000Y-87573750D01*
X112873000Y-87573750D01*
X112714250Y-87415000D01*
X112073690Y-87415000D01*
X111840301Y-87511673D01*
X111661673Y-87690302D01*
X111565000Y-87923691D01*
X102303711Y-87923691D01*
X102635294Y-87122108D01*
X102634705Y-85874928D01*
X102162897Y-84735880D01*
X113943725Y-84735880D01*
X114225421Y-85158564D01*
X115377892Y-85635294D01*
X116625072Y-85634705D01*
X117774579Y-85158564D01*
X118056275Y-84735880D01*
X116000000Y-82679605D01*
X113943725Y-84735880D01*
X102162897Y-84735880D01*
X102158564Y-84725421D01*
X101735880Y-84443725D01*
X99679605Y-86500000D01*
X99320395Y-86500000D01*
X97264120Y-84443725D01*
X96841436Y-84725421D01*
X96364706Y-85877892D01*
X96127000Y-85877892D01*
X96127000Y-84264120D01*
X97443725Y-84264120D01*
X99500000Y-86320395D01*
X101556275Y-84264120D01*
X101274579Y-83841436D01*
X100122108Y-83364706D01*
X98874928Y-83365295D01*
X97725421Y-83841436D01*
X97443725Y-84264120D01*
X96127000Y-84264120D01*
X96127000Y-81877892D01*
X112864706Y-81877892D01*
X112865295Y-83125072D01*
X113341436Y-84274579D01*
X113764120Y-84556275D01*
X115820395Y-82500000D01*
X116179605Y-82500000D01*
X118235880Y-84556275D01*
X118658564Y-84274579D01*
X119135294Y-83122108D01*
X119134705Y-81874928D01*
X118658564Y-80725421D01*
X118235880Y-80443725D01*
X116179605Y-82500000D01*
X115820395Y-82500000D01*
X113764120Y-80443725D01*
X113341436Y-80725421D01*
X112864706Y-81877892D01*
X96127000Y-81877892D01*
X96127000Y-80264120D01*
X113943725Y-80264120D01*
X116000000Y-82320395D01*
X118056275Y-80264120D01*
X117774579Y-79841436D01*
X116622108Y-79364706D01*
X115374928Y-79365295D01*
X114225421Y-79841436D01*
X113943725Y-80264120D01*
X96127000Y-80264120D01*
X96127000Y-77535750D01*
X117615000Y-77535750D01*
X117615000Y-78001310D01*
X117711673Y-78234699D01*
X117890302Y-78413327D01*
X118123691Y-78510000D01*
X118714250Y-78510000D01*
X118873000Y-78351250D01*
X118873000Y-77377000D01*
X117773750Y-77377000D01*
X117615000Y-77535750D01*
X96127000Y-77535750D01*
X96127000Y-76498690D01*
X117615000Y-76498690D01*
X117615000Y-76964250D01*
X117773750Y-77123000D01*
X118873000Y-77123000D01*
X118873000Y-76148750D01*
X118714250Y-75990000D01*
X118123691Y-75990000D01*
X117890302Y-76086673D01*
X117711673Y-76265301D01*
X117615000Y-76498690D01*
X96127000Y-76498690D01*
X96127000Y-73285750D01*
X117615000Y-73285750D01*
X117615000Y-73751310D01*
X117711673Y-73984699D01*
X117890302Y-74163327D01*
X118123691Y-74260000D01*
X118714250Y-74260000D01*
X118873000Y-74101250D01*
X118873000Y-73127000D01*
X117773750Y-73127000D01*
X117615000Y-73285750D01*
X96127000Y-73285750D01*
X96127000Y-72248690D01*
X117615000Y-72248690D01*
X117615000Y-72714250D01*
X117773750Y-72873000D01*
X118873000Y-72873000D01*
X118873000Y-71898750D01*
X118714250Y-71740000D01*
X118123691Y-71740000D01*
X117890302Y-71836673D01*
X117711673Y-72015301D01*
X117615000Y-72248690D01*
X96127000Y-72248690D01*
X96127000Y-53235880D01*
X97943725Y-53235880D01*
X98225421Y-53658564D01*
X99377892Y-54135294D01*
X100625072Y-54134705D01*
X101774579Y-53658564D01*
X102056275Y-53235880D01*
X100000000Y-51179605D01*
X97943725Y-53235880D01*
X96127000Y-53235880D01*
X96127000Y-50377892D01*
X96864706Y-50377892D01*
X96865295Y-51625072D01*
X97341436Y-52774579D01*
X97764120Y-53056275D01*
X99820395Y-51000000D01*
X100179605Y-51000000D01*
X102235880Y-53056275D01*
X102658564Y-52774579D01*
X103135294Y-51622108D01*
X103134705Y-50374928D01*
X102834741Y-49650750D01*
X124310000Y-49650750D01*
X124310000Y-49796310D01*
X124394371Y-50000000D01*
X124310000Y-50203690D01*
X124310000Y-50349250D01*
X124468750Y-50508000D01*
X125453000Y-50508000D01*
X125453000Y-49492000D01*
X124468750Y-49492000D01*
X124310000Y-49650750D01*
X102834741Y-49650750D01*
X102658564Y-49225421D01*
X102235880Y-48943725D01*
X100179605Y-51000000D01*
X99820395Y-51000000D01*
X97764120Y-48943725D01*
X97341436Y-49225421D01*
X96864706Y-50377892D01*
X96127000Y-50377892D01*
X96127000Y-48764120D01*
X97943725Y-48764120D01*
X100000000Y-50820395D01*
X102056275Y-48764120D01*
X101774579Y-48341436D01*
X100622108Y-47864706D01*
X99374928Y-47865295D01*
X98225421Y-48341436D01*
X97943725Y-48764120D01*
X96127000Y-48764120D01*
X96127000Y-47285750D01*
X115865000Y-47285750D01*
X115865000Y-48126309D01*
X115961673Y-48359698D01*
X116140301Y-48538327D01*
X116373690Y-48635000D01*
X117464250Y-48635000D01*
X117623000Y-48476250D01*
X117623000Y-47127000D01*
X117877000Y-47127000D01*
X117877000Y-48476250D01*
X118035750Y-48635000D01*
X119126310Y-48635000D01*
X119359699Y-48538327D01*
X119517275Y-48380750D01*
X124310000Y-48380750D01*
X124310000Y-48526310D01*
X124394371Y-48730000D01*
X124310000Y-48933690D01*
X124310000Y-49079250D01*
X124468750Y-49238000D01*
X125453000Y-49238000D01*
X125453000Y-48222000D01*
X124468750Y-48222000D01*
X124310000Y-48380750D01*
X119517275Y-48380750D01*
X119538327Y-48359698D01*
X119635000Y-48126309D01*
X119635000Y-47663690D01*
X124310000Y-47663690D01*
X124310000Y-47809250D01*
X124468750Y-47968000D01*
X125453000Y-47968000D01*
X125453000Y-47313750D01*
X125294250Y-47155000D01*
X124818691Y-47155000D01*
X124585302Y-47251673D01*
X124406673Y-47430301D01*
X124310000Y-47663690D01*
X119635000Y-47663690D01*
X119635000Y-47285750D01*
X119476250Y-47127000D01*
X117877000Y-47127000D01*
X117623000Y-47127000D01*
X116023750Y-47127000D01*
X115865000Y-47285750D01*
X96127000Y-47285750D01*
X96127000Y-45878046D01*
X115865000Y-46039833D01*
G04 #@! TO.N,Net-(C6-Pad2)*
G36*
X157873000Y-104123000D02*
X96127000Y-104123000D01*
X96127000Y-98235880D01*
X97443725Y-98235880D01*
X97725421Y-98658564D01*
X98877892Y-99135294D01*
X100125072Y-99134705D01*
X101274579Y-98658564D01*
X101556275Y-98235880D01*
X99500000Y-96179605D01*
X97443725Y-98235880D01*
X96127000Y-98235880D01*
X96127000Y-95377892D01*
X96364706Y-95377892D01*
X96365295Y-96625072D01*
X96841436Y-97774579D01*
X97264120Y-98056275D01*
X99320395Y-96000000D01*
X99679605Y-96000000D01*
X101735880Y-98056275D01*
X102158564Y-97774579D01*
X102635294Y-96622108D01*
X102634705Y-95374928D01*
X102162843Y-94235750D01*
X111565000Y-94235750D01*
X111565000Y-95576309D01*
X111661673Y-95809698D01*
X111840301Y-95988327D01*
X112073690Y-96085000D01*
X112714250Y-96085000D01*
X112873000Y-95926250D01*
X112873000Y-94077000D01*
X113127000Y-94077000D01*
X113127000Y-95926250D01*
X113285750Y-96085000D01*
X113926310Y-96085000D01*
X114159699Y-95988327D01*
X114338327Y-95809698D01*
X114435000Y-95576309D01*
X114435000Y-94235750D01*
X114276250Y-94077000D01*
X113127000Y-94077000D01*
X112873000Y-94077000D01*
X111723750Y-94077000D01*
X111565000Y-94235750D01*
X102162843Y-94235750D01*
X102158564Y-94225421D01*
X101735880Y-93943725D01*
X99679605Y-96000000D01*
X99320395Y-96000000D01*
X97264120Y-93943725D01*
X96841436Y-94225421D01*
X96364706Y-95377892D01*
X96127000Y-95377892D01*
X96127000Y-93764120D01*
X97443725Y-93764120D01*
X99500000Y-95820395D01*
X101556275Y-93764120D01*
X101274579Y-93341436D01*
X100122108Y-92864706D01*
X98874928Y-92865295D01*
X97725421Y-93341436D01*
X97443725Y-93764120D01*
X96127000Y-93764120D01*
X96127000Y-92627000D01*
X111565000Y-92627000D01*
X111565000Y-93664250D01*
X111723750Y-93823000D01*
X112873000Y-93823000D01*
X112873000Y-93803000D01*
X113127000Y-93803000D01*
X113127000Y-93823000D01*
X114276250Y-93823000D01*
X114435000Y-93664250D01*
X114435000Y-92627000D01*
X118873000Y-92627000D01*
X118873000Y-101000000D01*
X118882667Y-101048601D01*
X118910197Y-101089803D01*
X118951399Y-101117333D01*
X119000000Y-101127000D01*
X144750000Y-101127000D01*
X144798601Y-101117333D01*
X144839803Y-101089803D01*
X144867333Y-101048601D01*
X144877000Y-101000000D01*
X144877000Y-67435750D01*
X147565000Y-67435750D01*
X147565000Y-68626309D01*
X147661673Y-68859698D01*
X147840301Y-69038327D01*
X148073690Y-69135000D01*
X149714250Y-69135000D01*
X149873000Y-68976250D01*
X149873000Y-67277000D01*
X150127000Y-67277000D01*
X150127000Y-68976250D01*
X150285750Y-69135000D01*
X151926310Y-69135000D01*
X152159699Y-69038327D01*
X152338327Y-68859698D01*
X152435000Y-68626309D01*
X152435000Y-67435750D01*
X152276250Y-67277000D01*
X150127000Y-67277000D01*
X149873000Y-67277000D01*
X147723750Y-67277000D01*
X147565000Y-67435750D01*
X144877000Y-67435750D01*
X144877000Y-65673691D01*
X147565000Y-65673691D01*
X147565000Y-66864250D01*
X147723750Y-67023000D01*
X149873000Y-67023000D01*
X149873000Y-65323750D01*
X150127000Y-65323750D01*
X150127000Y-67023000D01*
X152276250Y-67023000D01*
X152435000Y-66864250D01*
X152435000Y-65673691D01*
X152338327Y-65440302D01*
X152159699Y-65261673D01*
X151926310Y-65165000D01*
X150285750Y-65165000D01*
X150127000Y-65323750D01*
X149873000Y-65323750D01*
X149714250Y-65165000D01*
X148073690Y-65165000D01*
X147840301Y-65261673D01*
X147661673Y-65440302D01*
X147565000Y-65673691D01*
X144877000Y-65673691D01*
X144877000Y-64127000D01*
X157873000Y-64127000D01*
X157873000Y-104123000D01*
X157873000Y-104123000D01*
G37*
X157873000Y-104123000D02*
X96127000Y-104123000D01*
X96127000Y-98235880D01*
X97443725Y-98235880D01*
X97725421Y-98658564D01*
X98877892Y-99135294D01*
X100125072Y-99134705D01*
X101274579Y-98658564D01*
X101556275Y-98235880D01*
X99500000Y-96179605D01*
X97443725Y-98235880D01*
X96127000Y-98235880D01*
X96127000Y-95377892D01*
X96364706Y-95377892D01*
X96365295Y-96625072D01*
X96841436Y-97774579D01*
X97264120Y-98056275D01*
X99320395Y-96000000D01*
X99679605Y-96000000D01*
X101735880Y-98056275D01*
X102158564Y-97774579D01*
X102635294Y-96622108D01*
X102634705Y-95374928D01*
X102162843Y-94235750D01*
X111565000Y-94235750D01*
X111565000Y-95576309D01*
X111661673Y-95809698D01*
X111840301Y-95988327D01*
X112073690Y-96085000D01*
X112714250Y-96085000D01*
X112873000Y-95926250D01*
X112873000Y-94077000D01*
X113127000Y-94077000D01*
X113127000Y-95926250D01*
X113285750Y-96085000D01*
X113926310Y-96085000D01*
X114159699Y-95988327D01*
X114338327Y-95809698D01*
X114435000Y-95576309D01*
X114435000Y-94235750D01*
X114276250Y-94077000D01*
X113127000Y-94077000D01*
X112873000Y-94077000D01*
X111723750Y-94077000D01*
X111565000Y-94235750D01*
X102162843Y-94235750D01*
X102158564Y-94225421D01*
X101735880Y-93943725D01*
X99679605Y-96000000D01*
X99320395Y-96000000D01*
X97264120Y-93943725D01*
X96841436Y-94225421D01*
X96364706Y-95377892D01*
X96127000Y-95377892D01*
X96127000Y-93764120D01*
X97443725Y-93764120D01*
X99500000Y-95820395D01*
X101556275Y-93764120D01*
X101274579Y-93341436D01*
X100122108Y-92864706D01*
X98874928Y-92865295D01*
X97725421Y-93341436D01*
X97443725Y-93764120D01*
X96127000Y-93764120D01*
X96127000Y-92627000D01*
X111565000Y-92627000D01*
X111565000Y-93664250D01*
X111723750Y-93823000D01*
X112873000Y-93823000D01*
X112873000Y-93803000D01*
X113127000Y-93803000D01*
X113127000Y-93823000D01*
X114276250Y-93823000D01*
X114435000Y-93664250D01*
X114435000Y-92627000D01*
X118873000Y-92627000D01*
X118873000Y-101000000D01*
X118882667Y-101048601D01*
X118910197Y-101089803D01*
X118951399Y-101117333D01*
X119000000Y-101127000D01*
X144750000Y-101127000D01*
X144798601Y-101117333D01*
X144839803Y-101089803D01*
X144867333Y-101048601D01*
X144877000Y-101000000D01*
X144877000Y-67435750D01*
X147565000Y-67435750D01*
X147565000Y-68626309D01*
X147661673Y-68859698D01*
X147840301Y-69038327D01*
X148073690Y-69135000D01*
X149714250Y-69135000D01*
X149873000Y-68976250D01*
X149873000Y-67277000D01*
X150127000Y-67277000D01*
X150127000Y-68976250D01*
X150285750Y-69135000D01*
X151926310Y-69135000D01*
X152159699Y-69038327D01*
X152338327Y-68859698D01*
X152435000Y-68626309D01*
X152435000Y-67435750D01*
X152276250Y-67277000D01*
X150127000Y-67277000D01*
X149873000Y-67277000D01*
X147723750Y-67277000D01*
X147565000Y-67435750D01*
X144877000Y-67435750D01*
X144877000Y-65673691D01*
X147565000Y-65673691D01*
X147565000Y-66864250D01*
X147723750Y-67023000D01*
X149873000Y-67023000D01*
X149873000Y-65323750D01*
X150127000Y-65323750D01*
X150127000Y-67023000D01*
X152276250Y-67023000D01*
X152435000Y-66864250D01*
X152435000Y-65673691D01*
X152338327Y-65440302D01*
X152159699Y-65261673D01*
X151926310Y-65165000D01*
X150285750Y-65165000D01*
X150127000Y-65323750D01*
X149873000Y-65323750D01*
X149714250Y-65165000D01*
X148073690Y-65165000D01*
X147840301Y-65261673D01*
X147661673Y-65440302D01*
X147565000Y-65673691D01*
X144877000Y-65673691D01*
X144877000Y-64127000D01*
X157873000Y-64127000D01*
X157873000Y-104123000D01*
G04 #@! TO.N,Net-(C5-Pad1)*
G36*
X157873000Y-62873000D02*
X136244949Y-62873000D01*
X136285000Y-62776309D01*
X136285000Y-62185750D01*
X136126250Y-62027000D01*
X135127000Y-62027000D01*
X135127000Y-62047000D01*
X134873000Y-62047000D01*
X134873000Y-62027000D01*
X133873750Y-62027000D01*
X133715000Y-62185750D01*
X133715000Y-62776309D01*
X133755051Y-62873000D01*
X129127000Y-62873000D01*
X129127000Y-62336711D01*
X129377431Y-62086280D01*
X129535000Y-61705874D01*
X129535000Y-61294126D01*
X129422983Y-61023691D01*
X133715000Y-61023691D01*
X133715000Y-61614250D01*
X133873750Y-61773000D01*
X134873000Y-61773000D01*
X134873000Y-60673750D01*
X135127000Y-60673750D01*
X135127000Y-61773000D01*
X136126250Y-61773000D01*
X136285000Y-61614250D01*
X136285000Y-61023691D01*
X136188327Y-60790302D01*
X136009699Y-60611673D01*
X135776310Y-60515000D01*
X135285750Y-60515000D01*
X135127000Y-60673750D01*
X134873000Y-60673750D01*
X134714250Y-60515000D01*
X134223690Y-60515000D01*
X133990301Y-60611673D01*
X133811673Y-60790302D01*
X133715000Y-61023691D01*
X129422983Y-61023691D01*
X129377431Y-60913720D01*
X129127000Y-60663289D01*
X129127000Y-60275025D01*
X129140302Y-60288327D01*
X129373691Y-60385000D01*
X130214250Y-60385000D01*
X130373000Y-60226250D01*
X130373000Y-58627000D01*
X130627000Y-58627000D01*
X130627000Y-60226250D01*
X130785750Y-60385000D01*
X131626309Y-60385000D01*
X131859698Y-60288327D01*
X132038327Y-60109699D01*
X132135000Y-59876310D01*
X132135000Y-59135750D01*
X147565000Y-59135750D01*
X147565000Y-60326309D01*
X147661673Y-60559698D01*
X147840301Y-60738327D01*
X148073690Y-60835000D01*
X149714250Y-60835000D01*
X149873000Y-60676250D01*
X149873000Y-58977000D01*
X150127000Y-58977000D01*
X150127000Y-60676250D01*
X150285750Y-60835000D01*
X151926310Y-60835000D01*
X152159699Y-60738327D01*
X152338327Y-60559698D01*
X152435000Y-60326309D01*
X152435000Y-59135750D01*
X152276250Y-58977000D01*
X150127000Y-58977000D01*
X149873000Y-58977000D01*
X147723750Y-58977000D01*
X147565000Y-59135750D01*
X132135000Y-59135750D01*
X132135000Y-58785750D01*
X131976250Y-58627000D01*
X130627000Y-58627000D01*
X130373000Y-58627000D01*
X130353000Y-58627000D01*
X130353000Y-58373000D01*
X130373000Y-58373000D01*
X130373000Y-56773750D01*
X130627000Y-56773750D01*
X130627000Y-58373000D01*
X131976250Y-58373000D01*
X132135000Y-58214250D01*
X132135000Y-57373691D01*
X147565000Y-57373691D01*
X147565000Y-58564250D01*
X147723750Y-58723000D01*
X149873000Y-58723000D01*
X149873000Y-57023750D01*
X150127000Y-57023750D01*
X150127000Y-58723000D01*
X152276250Y-58723000D01*
X152435000Y-58564250D01*
X152435000Y-57373691D01*
X152338327Y-57140302D01*
X152159699Y-56961673D01*
X151926310Y-56865000D01*
X150285750Y-56865000D01*
X150127000Y-57023750D01*
X149873000Y-57023750D01*
X149714250Y-56865000D01*
X148073690Y-56865000D01*
X147840301Y-56961673D01*
X147661673Y-57140302D01*
X147565000Y-57373691D01*
X132135000Y-57373691D01*
X132135000Y-57123690D01*
X132038327Y-56890301D01*
X131859698Y-56711673D01*
X131626309Y-56615000D01*
X130785750Y-56615000D01*
X130627000Y-56773750D01*
X130373000Y-56773750D01*
X130214250Y-56615000D01*
X129373691Y-56615000D01*
X129140302Y-56711673D01*
X129127000Y-56724975D01*
X129127000Y-53500000D01*
X129117333Y-53451399D01*
X129089803Y-53410197D01*
X129048601Y-53382667D01*
X129000000Y-53373000D01*
X127877000Y-53373000D01*
X127877000Y-52590000D01*
X128654250Y-52590000D01*
X128813000Y-52431250D01*
X128813000Y-50127000D01*
X128793000Y-50127000D01*
X128793000Y-49873000D01*
X128813000Y-49873000D01*
X128813000Y-47568750D01*
X129067000Y-47568750D01*
X129067000Y-49873000D01*
X129087000Y-49873000D01*
X129087000Y-50127000D01*
X129067000Y-50127000D01*
X129067000Y-52431250D01*
X129225750Y-52590000D01*
X130016974Y-52590000D01*
X130175302Y-52748327D01*
X130408691Y-52845000D01*
X130759250Y-52845000D01*
X130918000Y-52686250D01*
X130918000Y-52590000D01*
X130971309Y-52590000D01*
X131172000Y-52506871D01*
X131172000Y-52686250D01*
X131330750Y-52845000D01*
X131681309Y-52845000D01*
X131914698Y-52748327D01*
X132093327Y-52569699D01*
X132190000Y-52336310D01*
X132190000Y-52190750D01*
X132031250Y-52032000D01*
X131480000Y-52032000D01*
X131480000Y-51778000D01*
X132031250Y-51778000D01*
X132190000Y-51619250D01*
X132190000Y-51473690D01*
X132105629Y-51270000D01*
X132190000Y-51066310D01*
X132190000Y-50920750D01*
X132031250Y-50762000D01*
X131480000Y-50762000D01*
X131480000Y-50508000D01*
X132031250Y-50508000D01*
X132190000Y-50349250D01*
X132190000Y-50203690D01*
X132105629Y-50000000D01*
X132190000Y-49796310D01*
X132190000Y-49650750D01*
X132031250Y-49492000D01*
X131480000Y-49492000D01*
X131480000Y-49238000D01*
X132031250Y-49238000D01*
X132190000Y-49079250D01*
X132190000Y-48933690D01*
X132105629Y-48730000D01*
X132190000Y-48526310D01*
X132190000Y-48380750D01*
X132031250Y-48222000D01*
X131480000Y-48222000D01*
X131480000Y-47968000D01*
X132031250Y-47968000D01*
X132190000Y-47809250D01*
X132190000Y-47663690D01*
X132093327Y-47430301D01*
X131914698Y-47251673D01*
X131681309Y-47155000D01*
X131330750Y-47155000D01*
X131172000Y-47313750D01*
X131172000Y-47493129D01*
X130971309Y-47410000D01*
X130918000Y-47410000D01*
X130918000Y-47313750D01*
X130759250Y-47155000D01*
X130408691Y-47155000D01*
X130175302Y-47251673D01*
X130016974Y-47410000D01*
X129225750Y-47410000D01*
X129067000Y-47568750D01*
X128813000Y-47568750D01*
X128654250Y-47410000D01*
X127877000Y-47410000D01*
X127877000Y-46127000D01*
X129000000Y-46127000D01*
X129048601Y-46117333D01*
X129089803Y-46089803D01*
X129117333Y-46048601D01*
X129127000Y-46000000D01*
X129127000Y-45307020D01*
X129218691Y-45345000D01*
X129694250Y-45345000D01*
X129853000Y-45186250D01*
X129853000Y-44532000D01*
X130107000Y-44532000D01*
X130107000Y-45186250D01*
X130265750Y-45345000D01*
X130741309Y-45345000D01*
X130974698Y-45248327D01*
X131153327Y-45069699D01*
X131250000Y-44836310D01*
X131250000Y-44690750D01*
X131091250Y-44532000D01*
X130107000Y-44532000D01*
X129853000Y-44532000D01*
X129833000Y-44532000D01*
X129833000Y-44278000D01*
X129853000Y-44278000D01*
X129853000Y-43262000D01*
X130107000Y-43262000D01*
X130107000Y-44278000D01*
X131091250Y-44278000D01*
X131250000Y-44119250D01*
X131250000Y-43973690D01*
X131165629Y-43770000D01*
X131250000Y-43566310D01*
X131250000Y-43420750D01*
X131091250Y-43262000D01*
X130107000Y-43262000D01*
X129853000Y-43262000D01*
X129833000Y-43262000D01*
X129833000Y-43008000D01*
X129853000Y-43008000D01*
X129853000Y-41992000D01*
X130107000Y-41992000D01*
X130107000Y-43008000D01*
X131091250Y-43008000D01*
X131250000Y-42849250D01*
X131250000Y-42703690D01*
X131165629Y-42500000D01*
X131250000Y-42296310D01*
X131250000Y-42150750D01*
X131091250Y-41992000D01*
X130107000Y-41992000D01*
X129853000Y-41992000D01*
X129833000Y-41992000D01*
X129833000Y-41738000D01*
X129853000Y-41738000D01*
X129853000Y-41718000D01*
X130107000Y-41718000D01*
X130107000Y-41738000D01*
X131091250Y-41738000D01*
X131250000Y-41579250D01*
X131250000Y-41433690D01*
X131226518Y-41377000D01*
X157873000Y-41377000D01*
X157873000Y-62873000D01*
X157873000Y-62873000D01*
G37*
X157873000Y-62873000D02*
X136244949Y-62873000D01*
X136285000Y-62776309D01*
X136285000Y-62185750D01*
X136126250Y-62027000D01*
X135127000Y-62027000D01*
X135127000Y-62047000D01*
X134873000Y-62047000D01*
X134873000Y-62027000D01*
X133873750Y-62027000D01*
X133715000Y-62185750D01*
X133715000Y-62776309D01*
X133755051Y-62873000D01*
X129127000Y-62873000D01*
X129127000Y-62336711D01*
X129377431Y-62086280D01*
X129535000Y-61705874D01*
X129535000Y-61294126D01*
X129422983Y-61023691D01*
X133715000Y-61023691D01*
X133715000Y-61614250D01*
X133873750Y-61773000D01*
X134873000Y-61773000D01*
X134873000Y-60673750D01*
X135127000Y-60673750D01*
X135127000Y-61773000D01*
X136126250Y-61773000D01*
X136285000Y-61614250D01*
X136285000Y-61023691D01*
X136188327Y-60790302D01*
X136009699Y-60611673D01*
X135776310Y-60515000D01*
X135285750Y-60515000D01*
X135127000Y-60673750D01*
X134873000Y-60673750D01*
X134714250Y-60515000D01*
X134223690Y-60515000D01*
X133990301Y-60611673D01*
X133811673Y-60790302D01*
X133715000Y-61023691D01*
X129422983Y-61023691D01*
X129377431Y-60913720D01*
X129127000Y-60663289D01*
X129127000Y-60275025D01*
X129140302Y-60288327D01*
X129373691Y-60385000D01*
X130214250Y-60385000D01*
X130373000Y-60226250D01*
X130373000Y-58627000D01*
X130627000Y-58627000D01*
X130627000Y-60226250D01*
X130785750Y-60385000D01*
X131626309Y-60385000D01*
X131859698Y-60288327D01*
X132038327Y-60109699D01*
X132135000Y-59876310D01*
X132135000Y-59135750D01*
X147565000Y-59135750D01*
X147565000Y-60326309D01*
X147661673Y-60559698D01*
X147840301Y-60738327D01*
X148073690Y-60835000D01*
X149714250Y-60835000D01*
X149873000Y-60676250D01*
X149873000Y-58977000D01*
X150127000Y-58977000D01*
X150127000Y-60676250D01*
X150285750Y-60835000D01*
X151926310Y-60835000D01*
X152159699Y-60738327D01*
X152338327Y-60559698D01*
X152435000Y-60326309D01*
X152435000Y-59135750D01*
X152276250Y-58977000D01*
X150127000Y-58977000D01*
X149873000Y-58977000D01*
X147723750Y-58977000D01*
X147565000Y-59135750D01*
X132135000Y-59135750D01*
X132135000Y-58785750D01*
X131976250Y-58627000D01*
X130627000Y-58627000D01*
X130373000Y-58627000D01*
X130353000Y-58627000D01*
X130353000Y-58373000D01*
X130373000Y-58373000D01*
X130373000Y-56773750D01*
X130627000Y-56773750D01*
X130627000Y-58373000D01*
X131976250Y-58373000D01*
X132135000Y-58214250D01*
X132135000Y-57373691D01*
X147565000Y-57373691D01*
X147565000Y-58564250D01*
X147723750Y-58723000D01*
X149873000Y-58723000D01*
X149873000Y-57023750D01*
X150127000Y-57023750D01*
X150127000Y-58723000D01*
X152276250Y-58723000D01*
X152435000Y-58564250D01*
X152435000Y-57373691D01*
X152338327Y-57140302D01*
X152159699Y-56961673D01*
X151926310Y-56865000D01*
X150285750Y-56865000D01*
X150127000Y-57023750D01*
X149873000Y-57023750D01*
X149714250Y-56865000D01*
X148073690Y-56865000D01*
X147840301Y-56961673D01*
X147661673Y-57140302D01*
X147565000Y-57373691D01*
X132135000Y-57373691D01*
X132135000Y-57123690D01*
X132038327Y-56890301D01*
X131859698Y-56711673D01*
X131626309Y-56615000D01*
X130785750Y-56615000D01*
X130627000Y-56773750D01*
X130373000Y-56773750D01*
X130214250Y-56615000D01*
X129373691Y-56615000D01*
X129140302Y-56711673D01*
X129127000Y-56724975D01*
X129127000Y-53500000D01*
X129117333Y-53451399D01*
X129089803Y-53410197D01*
X129048601Y-53382667D01*
X129000000Y-53373000D01*
X127877000Y-53373000D01*
X127877000Y-52590000D01*
X128654250Y-52590000D01*
X128813000Y-52431250D01*
X128813000Y-50127000D01*
X128793000Y-50127000D01*
X128793000Y-49873000D01*
X128813000Y-49873000D01*
X128813000Y-47568750D01*
X129067000Y-47568750D01*
X129067000Y-49873000D01*
X129087000Y-49873000D01*
X129087000Y-50127000D01*
X129067000Y-50127000D01*
X129067000Y-52431250D01*
X129225750Y-52590000D01*
X130016974Y-52590000D01*
X130175302Y-52748327D01*
X130408691Y-52845000D01*
X130759250Y-52845000D01*
X130918000Y-52686250D01*
X130918000Y-52590000D01*
X130971309Y-52590000D01*
X131172000Y-52506871D01*
X131172000Y-52686250D01*
X131330750Y-52845000D01*
X131681309Y-52845000D01*
X131914698Y-52748327D01*
X132093327Y-52569699D01*
X132190000Y-52336310D01*
X132190000Y-52190750D01*
X132031250Y-52032000D01*
X131480000Y-52032000D01*
X131480000Y-51778000D01*
X132031250Y-51778000D01*
X132190000Y-51619250D01*
X132190000Y-51473690D01*
X132105629Y-51270000D01*
X132190000Y-51066310D01*
X132190000Y-50920750D01*
X132031250Y-50762000D01*
X131480000Y-50762000D01*
X131480000Y-50508000D01*
X132031250Y-50508000D01*
X132190000Y-50349250D01*
X132190000Y-50203690D01*
X132105629Y-50000000D01*
X132190000Y-49796310D01*
X132190000Y-49650750D01*
X132031250Y-49492000D01*
X131480000Y-49492000D01*
X131480000Y-49238000D01*
X132031250Y-49238000D01*
X132190000Y-49079250D01*
X132190000Y-48933690D01*
X132105629Y-48730000D01*
X132190000Y-48526310D01*
X132190000Y-48380750D01*
X132031250Y-48222000D01*
X131480000Y-48222000D01*
X131480000Y-47968000D01*
X132031250Y-47968000D01*
X132190000Y-47809250D01*
X132190000Y-47663690D01*
X132093327Y-47430301D01*
X131914698Y-47251673D01*
X131681309Y-47155000D01*
X131330750Y-47155000D01*
X131172000Y-47313750D01*
X131172000Y-47493129D01*
X130971309Y-47410000D01*
X130918000Y-47410000D01*
X130918000Y-47313750D01*
X130759250Y-47155000D01*
X130408691Y-47155000D01*
X130175302Y-47251673D01*
X130016974Y-47410000D01*
X129225750Y-47410000D01*
X129067000Y-47568750D01*
X128813000Y-47568750D01*
X128654250Y-47410000D01*
X127877000Y-47410000D01*
X127877000Y-46127000D01*
X129000000Y-46127000D01*
X129048601Y-46117333D01*
X129089803Y-46089803D01*
X129117333Y-46048601D01*
X129127000Y-46000000D01*
X129127000Y-45307020D01*
X129218691Y-45345000D01*
X129694250Y-45345000D01*
X129853000Y-45186250D01*
X129853000Y-44532000D01*
X130107000Y-44532000D01*
X130107000Y-45186250D01*
X130265750Y-45345000D01*
X130741309Y-45345000D01*
X130974698Y-45248327D01*
X131153327Y-45069699D01*
X131250000Y-44836310D01*
X131250000Y-44690750D01*
X131091250Y-44532000D01*
X130107000Y-44532000D01*
X129853000Y-44532000D01*
X129833000Y-44532000D01*
X129833000Y-44278000D01*
X129853000Y-44278000D01*
X129853000Y-43262000D01*
X130107000Y-43262000D01*
X130107000Y-44278000D01*
X131091250Y-44278000D01*
X131250000Y-44119250D01*
X131250000Y-43973690D01*
X131165629Y-43770000D01*
X131250000Y-43566310D01*
X131250000Y-43420750D01*
X131091250Y-43262000D01*
X130107000Y-43262000D01*
X129853000Y-43262000D01*
X129833000Y-43262000D01*
X129833000Y-43008000D01*
X129853000Y-43008000D01*
X129853000Y-41992000D01*
X130107000Y-41992000D01*
X130107000Y-43008000D01*
X131091250Y-43008000D01*
X131250000Y-42849250D01*
X131250000Y-42703690D01*
X131165629Y-42500000D01*
X131250000Y-42296310D01*
X131250000Y-42150750D01*
X131091250Y-41992000D01*
X130107000Y-41992000D01*
X129853000Y-41992000D01*
X129833000Y-41992000D01*
X129833000Y-41738000D01*
X129853000Y-41738000D01*
X129853000Y-41718000D01*
X130107000Y-41718000D01*
X130107000Y-41738000D01*
X131091250Y-41738000D01*
X131250000Y-41579250D01*
X131250000Y-41433690D01*
X131226518Y-41377000D01*
X157873000Y-41377000D01*
X157873000Y-62873000D01*
G04 #@! TO.N,GND*
G36*
X125740935Y-67752657D02*
X125798135Y-67764035D01*
X125823600Y-67789500D01*
X125899109Y-67789500D01*
X125907885Y-67785865D01*
X125988700Y-67801940D01*
X126420500Y-67801940D01*
X126528450Y-67780468D01*
X126636400Y-67801940D01*
X127068200Y-67801940D01*
X127176150Y-67780468D01*
X127284100Y-67801940D01*
X127715900Y-67801940D01*
X127830200Y-67779205D01*
X127944500Y-67801940D01*
X128376300Y-67801940D01*
X128457115Y-67785865D01*
X128465891Y-67789500D01*
X128541400Y-67789500D01*
X128566865Y-67764035D01*
X128624065Y-67752657D01*
X128808100Y-67629688D01*
X128992135Y-67752657D01*
X129049335Y-67764035D01*
X129074800Y-67789500D01*
X129150309Y-67789500D01*
X129159085Y-67785865D01*
X129239900Y-67801940D01*
X129671700Y-67801940D01*
X129919465Y-67752657D01*
X130107523Y-67627000D01*
X143373000Y-67627000D01*
X143373000Y-96373000D01*
X120627000Y-96373000D01*
X120627000Y-91500000D01*
X120617333Y-91451399D01*
X120589803Y-91410197D01*
X120548601Y-91382667D01*
X120500000Y-91373000D01*
X119627000Y-91373000D01*
X119627000Y-90627000D01*
X126873000Y-90627000D01*
X126873000Y-95500000D01*
X126882667Y-95548601D01*
X126910197Y-95589803D01*
X126951399Y-95617333D01*
X127000000Y-95627000D01*
X136000000Y-95627000D01*
X136048601Y-95617333D01*
X136089803Y-95589803D01*
X136117333Y-95548601D01*
X136127000Y-95500000D01*
X136127000Y-86500000D01*
X136117333Y-86451399D01*
X136089803Y-86410197D01*
X136048601Y-86382667D01*
X136000000Y-86373000D01*
X133127000Y-86373000D01*
X133127000Y-83255281D01*
X133211673Y-83459699D01*
X133390302Y-83638327D01*
X133623691Y-83735000D01*
X134464250Y-83735000D01*
X134623000Y-83576250D01*
X134623000Y-82377000D01*
X134877000Y-82377000D01*
X134877000Y-83576250D01*
X135035750Y-83735000D01*
X135876309Y-83735000D01*
X136109698Y-83638327D01*
X136288327Y-83459699D01*
X136385000Y-83226310D01*
X136385000Y-82535750D01*
X136226250Y-82377000D01*
X134877000Y-82377000D01*
X134623000Y-82377000D01*
X134603000Y-82377000D01*
X134603000Y-82123000D01*
X134623000Y-82123000D01*
X134623000Y-80923750D01*
X134877000Y-80923750D01*
X134877000Y-82123000D01*
X136226250Y-82123000D01*
X136385000Y-81964250D01*
X136385000Y-81273690D01*
X136288327Y-81040301D01*
X136109698Y-80861673D01*
X135876309Y-80765000D01*
X135035750Y-80765000D01*
X134877000Y-80923750D01*
X134623000Y-80923750D01*
X134464250Y-80765000D01*
X133623691Y-80765000D01*
X133390302Y-80861673D01*
X133211673Y-81040301D01*
X133127000Y-81244719D01*
X133127000Y-78627000D01*
X134000000Y-78627000D01*
X134048601Y-78617333D01*
X134089803Y-78589803D01*
X134117333Y-78548601D01*
X134127000Y-78500000D01*
X134127000Y-76010000D01*
X134714250Y-76010000D01*
X134873000Y-75851250D01*
X134873000Y-74877000D01*
X135127000Y-74877000D01*
X135127000Y-75851250D01*
X135285750Y-76010000D01*
X135876309Y-76010000D01*
X136109698Y-75913327D01*
X136288327Y-75734699D01*
X136385000Y-75501310D01*
X136385000Y-75035750D01*
X136226250Y-74877000D01*
X135127000Y-74877000D01*
X134873000Y-74877000D01*
X134853000Y-74877000D01*
X134853000Y-74623000D01*
X134873000Y-74623000D01*
X134873000Y-73648750D01*
X135127000Y-73648750D01*
X135127000Y-74623000D01*
X136226250Y-74623000D01*
X136385000Y-74464250D01*
X136385000Y-73998690D01*
X136288327Y-73765301D01*
X136109698Y-73586673D01*
X135876309Y-73490000D01*
X135285750Y-73490000D01*
X135127000Y-73648750D01*
X134873000Y-73648750D01*
X134714250Y-73490000D01*
X134127000Y-73490000D01*
X134127000Y-71000000D01*
X134117333Y-70951399D01*
X134089803Y-70910197D01*
X134048601Y-70882667D01*
X134000000Y-70873000D01*
X130107523Y-70873000D01*
X129919465Y-70747343D01*
X129671700Y-70698060D01*
X129239900Y-70698060D01*
X129131950Y-70719532D01*
X129024000Y-70698060D01*
X128592200Y-70698060D01*
X128511385Y-70714135D01*
X128502609Y-70710500D01*
X128427100Y-70710500D01*
X128401635Y-70735965D01*
X128344435Y-70747343D01*
X128156377Y-70873000D01*
X128151723Y-70873000D01*
X127963665Y-70747343D01*
X127922319Y-70739119D01*
X127893700Y-70710500D01*
X127818191Y-70710500D01*
X127805295Y-70715842D01*
X127715900Y-70698060D01*
X127284100Y-70698060D01*
X127182500Y-70718269D01*
X127080900Y-70698060D01*
X126649100Y-70698060D01*
X126534800Y-70720795D01*
X126420500Y-70698060D01*
X125988700Y-70698060D01*
X125887100Y-70718269D01*
X125785500Y-70698060D01*
X125353700Y-70698060D01*
X125127000Y-70743153D01*
X125127000Y-67753177D01*
X125214691Y-67789500D01*
X125290200Y-67789500D01*
X125448950Y-67630750D01*
X125448950Y-67627000D01*
X125552877Y-67627000D01*
X125740935Y-67752657D01*
X125740935Y-67752657D01*
G37*
X125740935Y-67752657D02*
X125798135Y-67764035D01*
X125823600Y-67789500D01*
X125899109Y-67789500D01*
X125907885Y-67785865D01*
X125988700Y-67801940D01*
X126420500Y-67801940D01*
X126528450Y-67780468D01*
X126636400Y-67801940D01*
X127068200Y-67801940D01*
X127176150Y-67780468D01*
X127284100Y-67801940D01*
X127715900Y-67801940D01*
X127830200Y-67779205D01*
X127944500Y-67801940D01*
X128376300Y-67801940D01*
X128457115Y-67785865D01*
X128465891Y-67789500D01*
X128541400Y-67789500D01*
X128566865Y-67764035D01*
X128624065Y-67752657D01*
X128808100Y-67629688D01*
X128992135Y-67752657D01*
X129049335Y-67764035D01*
X129074800Y-67789500D01*
X129150309Y-67789500D01*
X129159085Y-67785865D01*
X129239900Y-67801940D01*
X129671700Y-67801940D01*
X129919465Y-67752657D01*
X130107523Y-67627000D01*
X143373000Y-67627000D01*
X143373000Y-96373000D01*
X120627000Y-96373000D01*
X120627000Y-91500000D01*
X120617333Y-91451399D01*
X120589803Y-91410197D01*
X120548601Y-91382667D01*
X120500000Y-91373000D01*
X119627000Y-91373000D01*
X119627000Y-90627000D01*
X126873000Y-90627000D01*
X126873000Y-95500000D01*
X126882667Y-95548601D01*
X126910197Y-95589803D01*
X126951399Y-95617333D01*
X127000000Y-95627000D01*
X136000000Y-95627000D01*
X136048601Y-95617333D01*
X136089803Y-95589803D01*
X136117333Y-95548601D01*
X136127000Y-95500000D01*
X136127000Y-86500000D01*
X136117333Y-86451399D01*
X136089803Y-86410197D01*
X136048601Y-86382667D01*
X136000000Y-86373000D01*
X133127000Y-86373000D01*
X133127000Y-83255281D01*
X133211673Y-83459699D01*
X133390302Y-83638327D01*
X133623691Y-83735000D01*
X134464250Y-83735000D01*
X134623000Y-83576250D01*
X134623000Y-82377000D01*
X134877000Y-82377000D01*
X134877000Y-83576250D01*
X135035750Y-83735000D01*
X135876309Y-83735000D01*
X136109698Y-83638327D01*
X136288327Y-83459699D01*
X136385000Y-83226310D01*
X136385000Y-82535750D01*
X136226250Y-82377000D01*
X134877000Y-82377000D01*
X134623000Y-82377000D01*
X134603000Y-82377000D01*
X134603000Y-82123000D01*
X134623000Y-82123000D01*
X134623000Y-80923750D01*
X134877000Y-80923750D01*
X134877000Y-82123000D01*
X136226250Y-82123000D01*
X136385000Y-81964250D01*
X136385000Y-81273690D01*
X136288327Y-81040301D01*
X136109698Y-80861673D01*
X135876309Y-80765000D01*
X135035750Y-80765000D01*
X134877000Y-80923750D01*
X134623000Y-80923750D01*
X134464250Y-80765000D01*
X133623691Y-80765000D01*
X133390302Y-80861673D01*
X133211673Y-81040301D01*
X133127000Y-81244719D01*
X133127000Y-78627000D01*
X134000000Y-78627000D01*
X134048601Y-78617333D01*
X134089803Y-78589803D01*
X134117333Y-78548601D01*
X134127000Y-78500000D01*
X134127000Y-76010000D01*
X134714250Y-76010000D01*
X134873000Y-75851250D01*
X134873000Y-74877000D01*
X135127000Y-74877000D01*
X135127000Y-75851250D01*
X135285750Y-76010000D01*
X135876309Y-76010000D01*
X136109698Y-75913327D01*
X136288327Y-75734699D01*
X136385000Y-75501310D01*
X136385000Y-75035750D01*
X136226250Y-74877000D01*
X135127000Y-74877000D01*
X134873000Y-74877000D01*
X134853000Y-74877000D01*
X134853000Y-74623000D01*
X134873000Y-74623000D01*
X134873000Y-73648750D01*
X135127000Y-73648750D01*
X135127000Y-74623000D01*
X136226250Y-74623000D01*
X136385000Y-74464250D01*
X136385000Y-73998690D01*
X136288327Y-73765301D01*
X136109698Y-73586673D01*
X135876309Y-73490000D01*
X135285750Y-73490000D01*
X135127000Y-73648750D01*
X134873000Y-73648750D01*
X134714250Y-73490000D01*
X134127000Y-73490000D01*
X134127000Y-71000000D01*
X134117333Y-70951399D01*
X134089803Y-70910197D01*
X134048601Y-70882667D01*
X134000000Y-70873000D01*
X130107523Y-70873000D01*
X129919465Y-70747343D01*
X129671700Y-70698060D01*
X129239900Y-70698060D01*
X129131950Y-70719532D01*
X129024000Y-70698060D01*
X128592200Y-70698060D01*
X128511385Y-70714135D01*
X128502609Y-70710500D01*
X128427100Y-70710500D01*
X128401635Y-70735965D01*
X128344435Y-70747343D01*
X128156377Y-70873000D01*
X128151723Y-70873000D01*
X127963665Y-70747343D01*
X127922319Y-70739119D01*
X127893700Y-70710500D01*
X127818191Y-70710500D01*
X127805295Y-70715842D01*
X127715900Y-70698060D01*
X127284100Y-70698060D01*
X127182500Y-70718269D01*
X127080900Y-70698060D01*
X126649100Y-70698060D01*
X126534800Y-70720795D01*
X126420500Y-70698060D01*
X125988700Y-70698060D01*
X125887100Y-70718269D01*
X125785500Y-70698060D01*
X125353700Y-70698060D01*
X125127000Y-70743153D01*
X125127000Y-67753177D01*
X125214691Y-67789500D01*
X125290200Y-67789500D01*
X125448950Y-67630750D01*
X125448950Y-67627000D01*
X125552877Y-67627000D01*
X125740935Y-67752657D01*
G04 #@! TD*
M02*
