G04 #@! TF.GenerationSoftware,KiCad,Pcbnew,(5.0.0)*
G04 #@! TF.CreationDate,2018-12-18T17:12:43+00:00*
G04 #@! TF.ProjectId,lm3150,6C6D333135302E6B696361645F706362,rev?*
G04 #@! TF.SameCoordinates,Original*
G04 #@! TF.FileFunction,Glue,Top*
G04 #@! TF.FilePolarity,Positive*
%FSLAX46Y46*%
G04 Gerber Fmt 4.6, Leading zero omitted, Abs format (unit mm)*
G04 Created by KiCad (PCBNEW (5.0.0)) date 12/18/18 17:12:43*
%MOMM*%
%LPD*%
G01*
G04 APERTURE LIST*
%ADD10C,0.150000*%
G04 APERTURE END LIST*
G04 #@! TO.C,R2*
D10*
X137202380Y-66154761D02*
X136726190Y-66488095D01*
X137202380Y-66726190D02*
X136202380Y-66726190D01*
X136202380Y-66345238D01*
X136250000Y-66250000D01*
X136297619Y-66202380D01*
X136392857Y-66154761D01*
X136535714Y-66154761D01*
X136630952Y-66202380D01*
X136678571Y-66250000D01*
X136726190Y-66345238D01*
X136726190Y-66726190D01*
X137202380Y-65726190D02*
X136535714Y-65726190D01*
X136202380Y-65726190D02*
X136250000Y-65773809D01*
X136297619Y-65726190D01*
X136250000Y-65678571D01*
X136202380Y-65726190D01*
X136297619Y-65726190D01*
X137202380Y-65107142D02*
X137154761Y-65202380D01*
X137059523Y-65250000D01*
X136202380Y-65250000D01*
X137202380Y-64726190D02*
X136535714Y-64726190D01*
X136202380Y-64726190D02*
X136250000Y-64773809D01*
X136297619Y-64726190D01*
X136250000Y-64678571D01*
X136202380Y-64726190D01*
X136297619Y-64726190D01*
X137202380Y-64250000D02*
X136535714Y-64250000D01*
X136630952Y-64250000D02*
X136583333Y-64202380D01*
X136535714Y-64107142D01*
X136535714Y-63964285D01*
X136583333Y-63869047D01*
X136678571Y-63821428D01*
X137202380Y-63821428D01*
X136678571Y-63821428D02*
X136583333Y-63773809D01*
X136535714Y-63678571D01*
X136535714Y-63535714D01*
X136583333Y-63440476D01*
X136678571Y-63392857D01*
X137202380Y-63392857D01*
X136535714Y-61726190D02*
X137202380Y-61726190D01*
X136154761Y-61964285D02*
X136869047Y-62202380D01*
X136869047Y-61583333D01*
X136202380Y-61297619D02*
X136202380Y-60630952D01*
X137202380Y-61059523D01*
X136202380Y-59773809D02*
X136202380Y-60250000D01*
X136678571Y-60297619D01*
X136630952Y-60250000D01*
X136583333Y-60154761D01*
X136583333Y-59916666D01*
X136630952Y-59821428D01*
X136678571Y-59773809D01*
X136773809Y-59726190D01*
X137011904Y-59726190D01*
X137107142Y-59773809D01*
X137154761Y-59821428D01*
X137202380Y-59916666D01*
X137202380Y-60154761D01*
X137154761Y-60250000D01*
X137107142Y-60297619D01*
G04 #@! TD*
M02*
