G04 #@! TF.GenerationSoftware,KiCad,Pcbnew,(5.0.0)*
G04 #@! TF.CreationDate,2018-12-18T17:12:43+00:00*
G04 #@! TF.ProjectId,lm3150,6C6D333135302E6B696361645F706362,rev?*
G04 #@! TF.SameCoordinates,Original*
G04 #@! TF.FileFunction,Soldermask,Top*
G04 #@! TF.FilePolarity,Negative*
%FSLAX46Y46*%
G04 Gerber Fmt 4.6, Leading zero omitted, Abs format (unit mm)*
G04 Created by KiCad (PCBNEW (5.0.0)) date 12/18/18 17:12:43*
%MOMM*%
%LPD*%
G01*
G04 APERTURE LIST*
%ADD10R,2.900000X2.400000*%
%ADD11R,1.900000X1.650000*%
%ADD12R,2.400000X2.900000*%
%ADD13R,2.000000X3.400000*%
%ADD14R,4.000000X3.100000*%
%ADD15C,5.400000*%
%ADD16R,1.670000X1.010000*%
%ADD17R,1.420000X1.010000*%
%ADD18R,4.210000X4.310000*%
%ADD19R,1.700000X1.900000*%
%ADD20R,1.900000X1.700000*%
%ADD21R,2.400000X2.100000*%
%ADD22R,0.831800X1.797000*%
G04 APERTURE END LIST*
D10*
G04 #@! TO.C,C1*
X117750000Y-43000000D03*
X117750000Y-47000000D03*
G04 #@! TD*
D11*
G04 #@! TO.C,C2*
X121500000Y-77250000D03*
X119000000Y-77250000D03*
G04 #@! TD*
G04 #@! TO.C,C3*
X132500000Y-74750000D03*
X135000000Y-74750000D03*
G04 #@! TD*
G04 #@! TO.C,C4*
X119000000Y-73000000D03*
X121500000Y-73000000D03*
G04 #@! TD*
D12*
G04 #@! TO.C,C5*
X126500000Y-58500000D03*
X130500000Y-58500000D03*
G04 #@! TD*
D11*
G04 #@! TO.C,C6*
X134000000Y-93250000D03*
X131500000Y-93250000D03*
G04 #@! TD*
D13*
G04 #@! TO.C,C7*
X113000000Y-89550000D03*
X113000000Y-93950000D03*
G04 #@! TD*
D14*
G04 #@! TO.C,L1*
X150000000Y-67150000D03*
X150000000Y-58850000D03*
G04 #@! TD*
D15*
G04 #@! TO.C,MH1*
X100000000Y-51000000D03*
G04 #@! TD*
G04 #@! TO.C,MH2*
X100000000Y-41500000D03*
G04 #@! TD*
G04 #@! TO.C,MH3*
X116000000Y-82500000D03*
G04 #@! TD*
G04 #@! TO.C,MH4*
X124000000Y-85000000D03*
G04 #@! TD*
G04 #@! TO.C,MH5*
X99500000Y-96000000D03*
G04 #@! TD*
G04 #@! TO.C,MH6*
X99500000Y-86500000D03*
G04 #@! TD*
D16*
G04 #@! TO.C,Q1*
X129980000Y-44405000D03*
X129980000Y-43135000D03*
X129980000Y-41865000D03*
X129980000Y-40595000D03*
D17*
X124515000Y-40595000D03*
X124515000Y-41865000D03*
X124515000Y-43135000D03*
X124515000Y-44405000D03*
D18*
X126620000Y-42500000D03*
G04 #@! TD*
G04 #@! TO.C,Q2*
X128940000Y-50000000D03*
D17*
X131045000Y-48095000D03*
X131045000Y-49365000D03*
X131045000Y-50635000D03*
X131045000Y-51905000D03*
D16*
X125580000Y-51905000D03*
X125580000Y-50635000D03*
X125580000Y-49365000D03*
X125580000Y-48095000D03*
G04 #@! TD*
D19*
G04 #@! TO.C,R1*
X126250000Y-79850000D03*
X126250000Y-77150000D03*
G04 #@! TD*
G04 #@! TO.C,R2*
X135000000Y-64600000D03*
X135000000Y-61900000D03*
G04 #@! TD*
D20*
G04 #@! TO.C,R3*
X131400000Y-88750000D03*
X134100000Y-88750000D03*
G04 #@! TD*
D21*
G04 #@! TO.C,R4*
X134750000Y-82250000D03*
X130750000Y-82250000D03*
G04 #@! TD*
D22*
G04 #@! TO.C,U1*
X125556900Y-66456000D03*
X126204600Y-66456000D03*
X126852300Y-66456000D03*
X127500000Y-66456000D03*
X128160400Y-66456000D03*
X128808100Y-66456000D03*
X129455800Y-66456000D03*
X129455800Y-72044000D03*
X128808100Y-72044000D03*
X128160400Y-72044000D03*
X127500000Y-72044000D03*
X126865000Y-72044000D03*
X126204600Y-72044000D03*
X125569600Y-72044000D03*
G04 #@! TD*
M02*
