G04 #@! TF.GenerationSoftware,KiCad,Pcbnew,(5.0.0)*
G04 #@! TF.CreationDate,2018-12-18T17:12:43+00:00*
G04 #@! TF.ProjectId,lm3150,6C6D333135302E6B696361645F706362,rev?*
G04 #@! TF.SameCoordinates,Original*
G04 #@! TF.FileFunction,Legend,Top*
G04 #@! TF.FilePolarity,Positive*
%FSLAX46Y46*%
G04 Gerber Fmt 4.6, Leading zero omitted, Abs format (unit mm)*
G04 Created by KiCad (PCBNEW (5.0.0)) date 12/18/18 17:12:43*
%MOMM*%
%LPD*%
G01*
G04 APERTURE LIST*
%ADD10C,0.120000*%
%ADD11C,0.150000*%
G04 APERTURE END LIST*
D10*
G04 #@! TO.C,C1*
X119230000Y-46000000D02*
X119230000Y-44000000D01*
X116270000Y-44000000D02*
X116270000Y-46000000D01*
G04 #@! TO.C,C2*
X119750000Y-78100000D02*
X120750000Y-78100000D01*
X120750000Y-76400000D02*
X119750000Y-76400000D01*
G04 #@! TO.C,C3*
X134250000Y-73900000D02*
X133250000Y-73900000D01*
X133250000Y-75600000D02*
X134250000Y-75600000D01*
G04 #@! TO.C,C4*
X120750000Y-72150000D02*
X119750000Y-72150000D01*
X119750000Y-73850000D02*
X120750000Y-73850000D01*
G04 #@! TO.C,C5*
X129500000Y-57020000D02*
X127500000Y-57020000D01*
X127500000Y-59980000D02*
X129500000Y-59980000D01*
G04 #@! TO.C,C6*
X132250000Y-94100000D02*
X133250000Y-94100000D01*
X133250000Y-92400000D02*
X132250000Y-92400000D01*
G04 #@! TO.C,C7*
X115670000Y-93660000D02*
X115670000Y-89080000D01*
X114910000Y-94420000D02*
X115670000Y-93660000D01*
X110330000Y-93660000D02*
X111090000Y-94420000D01*
X110330000Y-89080000D02*
X110330000Y-93660000D01*
X111090000Y-94420000D02*
X111880000Y-94420000D01*
X114910000Y-94420000D02*
X114120000Y-94420000D01*
X110330000Y-89080000D02*
X111880000Y-89080000D01*
X115670000Y-89080000D02*
X114120000Y-89080000D01*
G04 #@! TO.C,L1*
X155300000Y-68300000D02*
X152100000Y-68300000D01*
X155300000Y-57700000D02*
X155300000Y-68300000D01*
X152100000Y-57700000D02*
X155300000Y-57700000D01*
X144700000Y-57700000D02*
X147900000Y-57700000D01*
X144700000Y-68300000D02*
X144700000Y-57700000D01*
X147900000Y-68300000D02*
X144700000Y-68300000D01*
D11*
G04 #@! TO.C,Q1*
X130760000Y-45100000D02*
X124560000Y-45100000D01*
X130060000Y-39900000D02*
X124560000Y-39900000D01*
G04 #@! TO.C,Q2*
X125500000Y-52600000D02*
X131000000Y-52600000D01*
X124800000Y-47400000D02*
X131000000Y-47400000D01*
D10*
G04 #@! TO.C,R1*
X127130000Y-77900000D02*
X127130000Y-79100000D01*
X125370000Y-79100000D02*
X125370000Y-77900000D01*
G04 #@! TO.C,R2*
X135880000Y-62650000D02*
X135880000Y-63850000D01*
X134120000Y-63850000D02*
X134120000Y-62650000D01*
G04 #@! TO.C,R3*
X133350000Y-89630000D02*
X132150000Y-89630000D01*
X132150000Y-87870000D02*
X133350000Y-87870000D01*
G04 #@! TO.C,R4*
X131750000Y-81180000D02*
X133750000Y-81180000D01*
X133750000Y-83320000D02*
X131750000Y-83320000D01*
D11*
G04 #@! TO.C,U1*
X126103000Y-70393000D02*
G75*
G03X126103000Y-70393000I-381000J0D01*
G01*
X125087000Y-71028000D02*
X125087000Y-67472000D01*
X129913000Y-71028000D02*
X125087000Y-71028000D01*
X129913000Y-67472000D02*
X129913000Y-71028000D01*
X125087000Y-67472000D02*
X129913000Y-67472000D01*
G04 #@! TO.C,C1*
X115607142Y-47833333D02*
X115654761Y-47880952D01*
X115702380Y-48023809D01*
X115702380Y-48119047D01*
X115654761Y-48261904D01*
X115559523Y-48357142D01*
X115464285Y-48404761D01*
X115273809Y-48452380D01*
X115130952Y-48452380D01*
X114940476Y-48404761D01*
X114845238Y-48357142D01*
X114750000Y-48261904D01*
X114702380Y-48119047D01*
X114702380Y-48023809D01*
X114750000Y-47880952D01*
X114797619Y-47833333D01*
X115702380Y-47404761D02*
X115035714Y-47404761D01*
X114702380Y-47404761D02*
X114750000Y-47452380D01*
X114797619Y-47404761D01*
X114750000Y-47357142D01*
X114702380Y-47404761D01*
X114797619Y-47404761D01*
X115035714Y-46928571D02*
X115702380Y-46928571D01*
X115130952Y-46928571D02*
X115083333Y-46880952D01*
X115035714Y-46785714D01*
X115035714Y-46642857D01*
X115083333Y-46547619D01*
X115178571Y-46500000D01*
X115702380Y-46500000D01*
X115035714Y-44833333D02*
X115702380Y-44833333D01*
X114654761Y-45071428D02*
X115369047Y-45309523D01*
X115369047Y-44690476D01*
X115607142Y-44309523D02*
X115654761Y-44261904D01*
X115702380Y-44309523D01*
X115654761Y-44357142D01*
X115607142Y-44309523D01*
X115702380Y-44309523D01*
X114702380Y-43928571D02*
X114702380Y-43261904D01*
X115702380Y-43690476D01*
X115035714Y-42452380D02*
X115702380Y-42452380D01*
X115035714Y-42880952D02*
X115559523Y-42880952D01*
X115654761Y-42833333D01*
X115702380Y-42738095D01*
X115702380Y-42595238D01*
X115654761Y-42500000D01*
X115607142Y-42452380D01*
X115178571Y-41642857D02*
X115178571Y-41976190D01*
X115702380Y-41976190D02*
X114702380Y-41976190D01*
X114702380Y-41500000D01*
G04 #@! TO.C,C2*
X120083333Y-75857142D02*
X120035714Y-75904761D01*
X119892857Y-75952380D01*
X119797619Y-75952380D01*
X119654761Y-75904761D01*
X119559523Y-75809523D01*
X119511904Y-75714285D01*
X119464285Y-75523809D01*
X119464285Y-75380952D01*
X119511904Y-75190476D01*
X119559523Y-75095238D01*
X119654761Y-75000000D01*
X119797619Y-74952380D01*
X119892857Y-74952380D01*
X120035714Y-75000000D01*
X120083333Y-75047619D01*
X120464285Y-75047619D02*
X120511904Y-75000000D01*
X120607142Y-74952380D01*
X120845238Y-74952380D01*
X120940476Y-75000000D01*
X120988095Y-75047619D01*
X121035714Y-75142857D01*
X121035714Y-75238095D01*
X120988095Y-75380952D01*
X120416666Y-75952380D01*
X121035714Y-75952380D01*
D10*
X116535714Y-79357142D02*
X116488095Y-79404761D01*
X116345238Y-79452380D01*
X116250000Y-79452380D01*
X116107142Y-79404761D01*
X116011904Y-79309523D01*
X115964285Y-79214285D01*
X115916666Y-79023809D01*
X115916666Y-78880952D01*
X115964285Y-78690476D01*
X116011904Y-78595238D01*
X116107142Y-78500000D01*
X116250000Y-78452380D01*
X116345238Y-78452380D01*
X116488095Y-78500000D01*
X116535714Y-78547619D01*
X116964285Y-79452380D02*
X116964285Y-78452380D01*
X116964285Y-78833333D02*
X117059523Y-78785714D01*
X117250000Y-78785714D01*
X117345238Y-78833333D01*
X117392857Y-78880952D01*
X117440476Y-78976190D01*
X117440476Y-79261904D01*
X117392857Y-79357142D01*
X117345238Y-79404761D01*
X117250000Y-79452380D01*
X117059523Y-79452380D01*
X116964285Y-79404761D01*
X117773809Y-78785714D02*
X118011904Y-79452380D01*
X118250000Y-78785714D02*
X118011904Y-79452380D01*
X117916666Y-79690476D01*
X117869047Y-79738095D01*
X117773809Y-79785714D01*
X118630952Y-79452380D02*
X118630952Y-78452380D01*
X119011904Y-78452380D01*
X119107142Y-78500000D01*
X119154761Y-78547619D01*
X119202380Y-78642857D01*
X119202380Y-78785714D01*
X119154761Y-78880952D01*
X119107142Y-78928571D01*
X119011904Y-78976190D01*
X118630952Y-78976190D01*
X120916666Y-79452380D02*
X120345238Y-79452380D01*
X120630952Y-79452380D02*
X120630952Y-78452380D01*
X120535714Y-78595238D01*
X120440476Y-78690476D01*
X120345238Y-78738095D01*
X121535714Y-78452380D02*
X121630952Y-78452380D01*
X121726190Y-78500000D01*
X121773809Y-78547619D01*
X121821428Y-78642857D01*
X121869047Y-78833333D01*
X121869047Y-79071428D01*
X121821428Y-79261904D01*
X121773809Y-79357142D01*
X121726190Y-79404761D01*
X121630952Y-79452380D01*
X121535714Y-79452380D01*
X121440476Y-79404761D01*
X121392857Y-79357142D01*
X121345238Y-79261904D01*
X121297619Y-79071428D01*
X121297619Y-78833333D01*
X121345238Y-78642857D01*
X121392857Y-78547619D01*
X121440476Y-78500000D01*
X121535714Y-78452380D01*
X122488095Y-78452380D02*
X122583333Y-78452380D01*
X122678571Y-78500000D01*
X122726190Y-78547619D01*
X122773809Y-78642857D01*
X122821428Y-78833333D01*
X122821428Y-79071428D01*
X122773809Y-79261904D01*
X122726190Y-79357142D01*
X122678571Y-79404761D01*
X122583333Y-79452380D01*
X122488095Y-79452380D01*
X122392857Y-79404761D01*
X122345238Y-79357142D01*
X122297619Y-79261904D01*
X122250000Y-79071428D01*
X122250000Y-78833333D01*
X122297619Y-78642857D01*
X122345238Y-78547619D01*
X122392857Y-78500000D01*
X122488095Y-78452380D01*
X123250000Y-78785714D02*
X123250000Y-79452380D01*
X123250000Y-78880952D02*
X123297619Y-78833333D01*
X123392857Y-78785714D01*
X123535714Y-78785714D01*
X123630952Y-78833333D01*
X123678571Y-78928571D01*
X123678571Y-79452380D01*
X124488095Y-78928571D02*
X124154761Y-78928571D01*
X124154761Y-79452380D02*
X124154761Y-78452380D01*
X124630952Y-78452380D01*
G04 #@! TO.C,C3*
D11*
X131035714Y-76857142D02*
X130988095Y-76904761D01*
X130845238Y-76952380D01*
X130750000Y-76952380D01*
X130607142Y-76904761D01*
X130511904Y-76809523D01*
X130464285Y-76714285D01*
X130416666Y-76523809D01*
X130416666Y-76380952D01*
X130464285Y-76190476D01*
X130511904Y-76095238D01*
X130607142Y-76000000D01*
X130750000Y-75952380D01*
X130845238Y-75952380D01*
X130988095Y-76000000D01*
X131035714Y-76047619D01*
X131416666Y-76904761D02*
X131511904Y-76952380D01*
X131702380Y-76952380D01*
X131797619Y-76904761D01*
X131845238Y-76809523D01*
X131845238Y-76761904D01*
X131797619Y-76666666D01*
X131702380Y-76619047D01*
X131559523Y-76619047D01*
X131464285Y-76571428D01*
X131416666Y-76476190D01*
X131416666Y-76428571D01*
X131464285Y-76333333D01*
X131559523Y-76285714D01*
X131702380Y-76285714D01*
X131797619Y-76333333D01*
X132226190Y-76904761D02*
X132321428Y-76952380D01*
X132511904Y-76952380D01*
X132607142Y-76904761D01*
X132654761Y-76809523D01*
X132654761Y-76761904D01*
X132607142Y-76666666D01*
X132511904Y-76619047D01*
X132369047Y-76619047D01*
X132273809Y-76571428D01*
X132226190Y-76476190D01*
X132226190Y-76428571D01*
X132273809Y-76333333D01*
X132369047Y-76285714D01*
X132511904Y-76285714D01*
X132607142Y-76333333D01*
X134369047Y-76952380D02*
X133797619Y-76952380D01*
X134083333Y-76952380D02*
X134083333Y-75952380D01*
X133988095Y-76095238D01*
X133892857Y-76190476D01*
X133797619Y-76238095D01*
X135273809Y-75952380D02*
X134797619Y-75952380D01*
X134750000Y-76428571D01*
X134797619Y-76380952D01*
X134892857Y-76333333D01*
X135130952Y-76333333D01*
X135226190Y-76380952D01*
X135273809Y-76428571D01*
X135321428Y-76523809D01*
X135321428Y-76761904D01*
X135273809Y-76857142D01*
X135226190Y-76904761D01*
X135130952Y-76952380D01*
X134892857Y-76952380D01*
X134797619Y-76904761D01*
X134750000Y-76857142D01*
X135750000Y-76285714D02*
X135750000Y-76952380D01*
X135750000Y-76380952D02*
X135797619Y-76333333D01*
X135892857Y-76285714D01*
X136035714Y-76285714D01*
X136130952Y-76333333D01*
X136178571Y-76428571D01*
X136178571Y-76952380D01*
X136988095Y-76428571D02*
X136654761Y-76428571D01*
X136654761Y-76952380D02*
X136654761Y-75952380D01*
X137130952Y-75952380D01*
G04 #@! TO.C,C4*
X116869047Y-71357142D02*
X116821428Y-71404761D01*
X116678571Y-71452380D01*
X116583333Y-71452380D01*
X116440476Y-71404761D01*
X116345238Y-71309523D01*
X116297619Y-71214285D01*
X116250000Y-71023809D01*
X116250000Y-70880952D01*
X116297619Y-70690476D01*
X116345238Y-70595238D01*
X116440476Y-70500000D01*
X116583333Y-70452380D01*
X116678571Y-70452380D01*
X116821428Y-70500000D01*
X116869047Y-70547619D01*
X117202380Y-70785714D02*
X117440476Y-71452380D01*
X117678571Y-70785714D01*
X118488095Y-71404761D02*
X118392857Y-71452380D01*
X118202380Y-71452380D01*
X118107142Y-71404761D01*
X118059523Y-71357142D01*
X118011904Y-71261904D01*
X118011904Y-70976190D01*
X118059523Y-70880952D01*
X118107142Y-70833333D01*
X118202380Y-70785714D01*
X118392857Y-70785714D01*
X118488095Y-70833333D01*
X119345238Y-71404761D02*
X119250000Y-71452380D01*
X119059523Y-71452380D01*
X118964285Y-71404761D01*
X118916666Y-71357142D01*
X118869047Y-71261904D01*
X118869047Y-70976190D01*
X118916666Y-70880952D01*
X118964285Y-70833333D01*
X119059523Y-70785714D01*
X119250000Y-70785714D01*
X119345238Y-70833333D01*
X120488095Y-70547619D02*
X120535714Y-70500000D01*
X120630952Y-70452380D01*
X120869047Y-70452380D01*
X120964285Y-70500000D01*
X121011904Y-70547619D01*
X121059523Y-70642857D01*
X121059523Y-70738095D01*
X121011904Y-70880952D01*
X120440476Y-71452380D01*
X121059523Y-71452380D01*
X121488095Y-71357142D02*
X121535714Y-71404761D01*
X121488095Y-71452380D01*
X121440476Y-71404761D01*
X121488095Y-71357142D01*
X121488095Y-71452380D01*
X121916666Y-70547619D02*
X121964285Y-70500000D01*
X122059523Y-70452380D01*
X122297619Y-70452380D01*
X122392857Y-70500000D01*
X122440476Y-70547619D01*
X122488095Y-70642857D01*
X122488095Y-70738095D01*
X122440476Y-70880952D01*
X121869047Y-71452380D01*
X122488095Y-71452380D01*
X123345238Y-70785714D02*
X123345238Y-71452380D01*
X122916666Y-70785714D02*
X122916666Y-71309523D01*
X122964285Y-71404761D01*
X123059523Y-71452380D01*
X123202380Y-71452380D01*
X123297619Y-71404761D01*
X123345238Y-71357142D01*
X124154761Y-70928571D02*
X123821428Y-70928571D01*
X123821428Y-71452380D02*
X123821428Y-70452380D01*
X124297619Y-70452380D01*
G04 #@! TO.C,C5*
X128333333Y-61107142D02*
X128285714Y-61154761D01*
X128142857Y-61202380D01*
X128047619Y-61202380D01*
X127904761Y-61154761D01*
X127809523Y-61059523D01*
X127761904Y-60964285D01*
X127714285Y-60773809D01*
X127714285Y-60630952D01*
X127761904Y-60440476D01*
X127809523Y-60345238D01*
X127904761Y-60250000D01*
X128047619Y-60202380D01*
X128142857Y-60202380D01*
X128285714Y-60250000D01*
X128333333Y-60297619D01*
X129238095Y-60202380D02*
X128761904Y-60202380D01*
X128714285Y-60678571D01*
X128761904Y-60630952D01*
X128857142Y-60583333D01*
X129095238Y-60583333D01*
X129190476Y-60630952D01*
X129238095Y-60678571D01*
X129285714Y-60773809D01*
X129285714Y-61011904D01*
X129238095Y-61107142D01*
X129190476Y-61154761D01*
X129095238Y-61202380D01*
X128857142Y-61202380D01*
X128761904Y-61154761D01*
X128714285Y-61107142D01*
X124976190Y-56357142D02*
X124928571Y-56404761D01*
X124785714Y-56452380D01*
X124690476Y-56452380D01*
X124547619Y-56404761D01*
X124452380Y-56309523D01*
X124404761Y-56214285D01*
X124357142Y-56023809D01*
X124357142Y-55880952D01*
X124404761Y-55690476D01*
X124452380Y-55595238D01*
X124547619Y-55500000D01*
X124690476Y-55452380D01*
X124785714Y-55452380D01*
X124928571Y-55500000D01*
X124976190Y-55547619D01*
X125404761Y-56452380D02*
X125404761Y-55452380D01*
X125404761Y-55833333D02*
X125500000Y-55785714D01*
X125690476Y-55785714D01*
X125785714Y-55833333D01*
X125833333Y-55880952D01*
X125880952Y-55976190D01*
X125880952Y-56261904D01*
X125833333Y-56357142D01*
X125785714Y-56404761D01*
X125690476Y-56452380D01*
X125500000Y-56452380D01*
X125404761Y-56404761D01*
X126261904Y-56404761D02*
X126357142Y-56452380D01*
X126547619Y-56452380D01*
X126642857Y-56404761D01*
X126690476Y-56309523D01*
X126690476Y-56261904D01*
X126642857Y-56166666D01*
X126547619Y-56119047D01*
X126404761Y-56119047D01*
X126309523Y-56071428D01*
X126261904Y-55976190D01*
X126261904Y-55928571D01*
X126309523Y-55833333D01*
X126404761Y-55785714D01*
X126547619Y-55785714D01*
X126642857Y-55833333D01*
X126976190Y-55785714D02*
X127357142Y-55785714D01*
X127119047Y-55452380D02*
X127119047Y-56309523D01*
X127166666Y-56404761D01*
X127261904Y-56452380D01*
X127357142Y-56452380D01*
X128880952Y-55785714D02*
X128880952Y-56452380D01*
X128642857Y-55404761D02*
X128404761Y-56119047D01*
X129023809Y-56119047D01*
X129309523Y-55452380D02*
X129976190Y-55452380D01*
X129547619Y-56452380D01*
X130547619Y-55452380D02*
X130642857Y-55452380D01*
X130738095Y-55500000D01*
X130785714Y-55547619D01*
X130833333Y-55642857D01*
X130880952Y-55833333D01*
X130880952Y-56071428D01*
X130833333Y-56261904D01*
X130785714Y-56357142D01*
X130738095Y-56404761D01*
X130642857Y-56452380D01*
X130547619Y-56452380D01*
X130452380Y-56404761D01*
X130404761Y-56357142D01*
X130357142Y-56261904D01*
X130309523Y-56071428D01*
X130309523Y-55833333D01*
X130357142Y-55642857D01*
X130404761Y-55547619D01*
X130452380Y-55500000D01*
X130547619Y-55452380D01*
X131309523Y-55785714D02*
X131309523Y-56452380D01*
X131309523Y-55880952D02*
X131357142Y-55833333D01*
X131452380Y-55785714D01*
X131595238Y-55785714D01*
X131690476Y-55833333D01*
X131738095Y-55928571D01*
X131738095Y-56452380D01*
X132547619Y-55928571D02*
X132214285Y-55928571D01*
X132214285Y-56452380D02*
X132214285Y-55452380D01*
X132690476Y-55452380D01*
G04 #@! TO.C,C6*
X129797619Y-95357142D02*
X129750000Y-95404761D01*
X129607142Y-95452380D01*
X129511904Y-95452380D01*
X129369047Y-95404761D01*
X129273809Y-95309523D01*
X129226190Y-95214285D01*
X129178571Y-95023809D01*
X129178571Y-94880952D01*
X129226190Y-94690476D01*
X129273809Y-94595238D01*
X129369047Y-94500000D01*
X129511904Y-94452380D01*
X129607142Y-94452380D01*
X129750000Y-94500000D01*
X129797619Y-94547619D01*
X130083333Y-94785714D02*
X130464285Y-94785714D01*
X130226190Y-95452380D02*
X130226190Y-94595238D01*
X130273809Y-94500000D01*
X130369047Y-94452380D01*
X130464285Y-94452380D01*
X130654761Y-94785714D02*
X131035714Y-94785714D01*
X130797619Y-95452380D02*
X130797619Y-94595238D01*
X130845238Y-94500000D01*
X130940476Y-94452380D01*
X131035714Y-94452380D01*
X132035714Y-94452380D02*
X132654761Y-94452380D01*
X132321428Y-94833333D01*
X132464285Y-94833333D01*
X132559523Y-94880952D01*
X132607142Y-94928571D01*
X132654761Y-95023809D01*
X132654761Y-95261904D01*
X132607142Y-95357142D01*
X132559523Y-95404761D01*
X132464285Y-95452380D01*
X132178571Y-95452380D01*
X132083333Y-95404761D01*
X132035714Y-95357142D01*
X133130952Y-95452380D02*
X133321428Y-95452380D01*
X133416666Y-95404761D01*
X133464285Y-95357142D01*
X133559523Y-95214285D01*
X133607142Y-95023809D01*
X133607142Y-94642857D01*
X133559523Y-94547619D01*
X133511904Y-94500000D01*
X133416666Y-94452380D01*
X133226190Y-94452380D01*
X133130952Y-94500000D01*
X133083333Y-94547619D01*
X133035714Y-94642857D01*
X133035714Y-94880952D01*
X133083333Y-94976190D01*
X133130952Y-95023809D01*
X133226190Y-95071428D01*
X133416666Y-95071428D01*
X133511904Y-95023809D01*
X133559523Y-94976190D01*
X133607142Y-94880952D01*
X134226190Y-94452380D02*
X134321428Y-94452380D01*
X134416666Y-94500000D01*
X134464285Y-94547619D01*
X134511904Y-94642857D01*
X134559523Y-94833333D01*
X134559523Y-95071428D01*
X134511904Y-95261904D01*
X134464285Y-95357142D01*
X134416666Y-95404761D01*
X134321428Y-95452380D01*
X134226190Y-95452380D01*
X134130952Y-95404761D01*
X134083333Y-95357142D01*
X134035714Y-95261904D01*
X133988095Y-95071428D01*
X133988095Y-94833333D01*
X134035714Y-94642857D01*
X134083333Y-94547619D01*
X134130952Y-94500000D01*
X134226190Y-94452380D01*
X134988095Y-94785714D02*
X134988095Y-95785714D01*
X134988095Y-94833333D02*
X135083333Y-94785714D01*
X135273809Y-94785714D01*
X135369047Y-94833333D01*
X135416666Y-94880952D01*
X135464285Y-94976190D01*
X135464285Y-95261904D01*
X135416666Y-95357142D01*
X135369047Y-95404761D01*
X135273809Y-95452380D01*
X135083333Y-95452380D01*
X134988095Y-95404761D01*
X136226190Y-94928571D02*
X135892857Y-94928571D01*
X135892857Y-95452380D02*
X135892857Y-94452380D01*
X136369047Y-94452380D01*
G04 #@! TO.C,C7*
X109437142Y-95321428D02*
X109484761Y-95369047D01*
X109532380Y-95511904D01*
X109532380Y-95607142D01*
X109484761Y-95750000D01*
X109389523Y-95845238D01*
X109294285Y-95892857D01*
X109103809Y-95940476D01*
X108960952Y-95940476D01*
X108770476Y-95892857D01*
X108675238Y-95845238D01*
X108580000Y-95750000D01*
X108532380Y-95607142D01*
X108532380Y-95511904D01*
X108580000Y-95369047D01*
X108627619Y-95321428D01*
X109532380Y-94750000D02*
X109484761Y-94845238D01*
X109437142Y-94892857D01*
X109341904Y-94940476D01*
X109056190Y-94940476D01*
X108960952Y-94892857D01*
X108913333Y-94845238D01*
X108865714Y-94750000D01*
X108865714Y-94607142D01*
X108913333Y-94511904D01*
X108960952Y-94464285D01*
X109056190Y-94416666D01*
X109341904Y-94416666D01*
X109437142Y-94464285D01*
X109484761Y-94511904D01*
X109532380Y-94607142D01*
X109532380Y-94750000D01*
X108865714Y-93559523D02*
X109532380Y-93559523D01*
X108865714Y-93988095D02*
X109389523Y-93988095D01*
X109484761Y-93940476D01*
X109532380Y-93845238D01*
X109532380Y-93702380D01*
X109484761Y-93607142D01*
X109437142Y-93559523D01*
X108865714Y-93226190D02*
X108865714Y-92845238D01*
X108532380Y-93083333D02*
X109389523Y-93083333D01*
X109484761Y-93035714D01*
X109532380Y-92940476D01*
X109532380Y-92845238D01*
X108627619Y-91797619D02*
X108580000Y-91750000D01*
X108532380Y-91654761D01*
X108532380Y-91416666D01*
X108580000Y-91321428D01*
X108627619Y-91273809D01*
X108722857Y-91226190D01*
X108818095Y-91226190D01*
X108960952Y-91273809D01*
X109532380Y-91845238D01*
X109532380Y-91226190D01*
X108627619Y-90845238D02*
X108580000Y-90797619D01*
X108532380Y-90702380D01*
X108532380Y-90464285D01*
X108580000Y-90369047D01*
X108627619Y-90321428D01*
X108722857Y-90273809D01*
X108818095Y-90273809D01*
X108960952Y-90321428D01*
X109532380Y-90892857D01*
X109532380Y-90273809D01*
X108532380Y-89654761D02*
X108532380Y-89559523D01*
X108580000Y-89464285D01*
X108627619Y-89416666D01*
X108722857Y-89369047D01*
X108913333Y-89321428D01*
X109151428Y-89321428D01*
X109341904Y-89369047D01*
X109437142Y-89416666D01*
X109484761Y-89464285D01*
X109532380Y-89559523D01*
X109532380Y-89654761D01*
X109484761Y-89750000D01*
X109437142Y-89797619D01*
X109341904Y-89845238D01*
X109151428Y-89892857D01*
X108913333Y-89892857D01*
X108722857Y-89845238D01*
X108627619Y-89797619D01*
X108580000Y-89750000D01*
X108532380Y-89654761D01*
X108865714Y-88464285D02*
X109532380Y-88464285D01*
X108865714Y-88892857D02*
X109389523Y-88892857D01*
X109484761Y-88845238D01*
X109532380Y-88750000D01*
X109532380Y-88607142D01*
X109484761Y-88511904D01*
X109437142Y-88464285D01*
X109008571Y-87654761D02*
X109008571Y-87988095D01*
X109532380Y-87988095D02*
X108532380Y-87988095D01*
X108532380Y-87511904D01*
X115421428Y-95510952D02*
X115421428Y-94749047D01*
X115802380Y-95130000D02*
X115040476Y-95130000D01*
G04 #@! TO.C,L1*
X156802380Y-63166666D02*
X156802380Y-63642857D01*
X155802380Y-63642857D01*
X156802380Y-62309523D02*
X156802380Y-62880952D01*
X156802380Y-62595238D02*
X155802380Y-62595238D01*
X155945238Y-62690476D01*
X156040476Y-62785714D01*
X156088095Y-62880952D01*
X144102380Y-65238095D02*
X144102380Y-65714285D01*
X143102380Y-65714285D01*
X143102380Y-64238095D02*
X143102380Y-63619047D01*
X143483333Y-63952380D01*
X143483333Y-63809523D01*
X143530952Y-63714285D01*
X143578571Y-63666666D01*
X143673809Y-63619047D01*
X143911904Y-63619047D01*
X144007142Y-63666666D01*
X144054761Y-63714285D01*
X144102380Y-63809523D01*
X144102380Y-64095238D01*
X144054761Y-64190476D01*
X144007142Y-64238095D01*
X144007142Y-63190476D02*
X144054761Y-63142857D01*
X144102380Y-63190476D01*
X144054761Y-63238095D01*
X144007142Y-63190476D01*
X144102380Y-63190476D01*
X143102380Y-62809523D02*
X143102380Y-62190476D01*
X143483333Y-62523809D01*
X143483333Y-62380952D01*
X143530952Y-62285714D01*
X143578571Y-62238095D01*
X143673809Y-62190476D01*
X143911904Y-62190476D01*
X144007142Y-62238095D01*
X144054761Y-62285714D01*
X144102380Y-62380952D01*
X144102380Y-62666666D01*
X144054761Y-62761904D01*
X144007142Y-62809523D01*
X143435714Y-61333333D02*
X144102380Y-61333333D01*
X143435714Y-61761904D02*
X143959523Y-61761904D01*
X144054761Y-61714285D01*
X144102380Y-61619047D01*
X144102380Y-61476190D01*
X144054761Y-61380952D01*
X144007142Y-61333333D01*
X144102380Y-60857142D02*
X143102380Y-60857142D01*
X143578571Y-60857142D02*
X143578571Y-60285714D01*
X144102380Y-60285714D02*
X143102380Y-60285714D01*
G04 #@! TO.C,MH1*
X98357142Y-53952380D02*
X98690476Y-54952380D01*
X99023809Y-53952380D01*
X99357142Y-54952380D02*
X99357142Y-54285714D01*
X99357142Y-53952380D02*
X99309523Y-54000000D01*
X99357142Y-54047619D01*
X99404761Y-54000000D01*
X99357142Y-53952380D01*
X99357142Y-54047619D01*
X99833333Y-54285714D02*
X99833333Y-54952380D01*
X99833333Y-54380952D02*
X99880952Y-54333333D01*
X99976190Y-54285714D01*
X100119047Y-54285714D01*
X100214285Y-54333333D01*
X100261904Y-54428571D01*
X100261904Y-54952380D01*
X100738095Y-54571428D02*
X101500000Y-54571428D01*
G04 #@! TO.C,MH2*
X98357142Y-44452380D02*
X98690476Y-45452380D01*
X99023809Y-44452380D01*
X99357142Y-45452380D02*
X99357142Y-44785714D01*
X99357142Y-44452380D02*
X99309523Y-44500000D01*
X99357142Y-44547619D01*
X99404761Y-44500000D01*
X99357142Y-44452380D01*
X99357142Y-44547619D01*
X99833333Y-44785714D02*
X99833333Y-45452380D01*
X99833333Y-44880952D02*
X99880952Y-44833333D01*
X99976190Y-44785714D01*
X100119047Y-44785714D01*
X100214285Y-44833333D01*
X100261904Y-44928571D01*
X100261904Y-45452380D01*
X100738095Y-45071428D02*
X101500000Y-45071428D01*
X101119047Y-45452380D02*
X101119047Y-44690476D01*
G04 #@! TO.C,MH3*
X113952380Y-85928571D02*
X114285714Y-85928571D01*
X114428571Y-86452380D02*
X113952380Y-86452380D01*
X113952380Y-85452380D01*
X114428571Y-85452380D01*
X114857142Y-86452380D02*
X114857142Y-85452380D01*
X115428571Y-86452380D01*
X115428571Y-85452380D01*
X115904761Y-86452380D02*
X115904761Y-85785714D01*
X115904761Y-85452380D02*
X115857142Y-85500000D01*
X115904761Y-85547619D01*
X115952380Y-85500000D01*
X115904761Y-85452380D01*
X115904761Y-85547619D01*
X116380952Y-85785714D02*
X116380952Y-86452380D01*
X116380952Y-85880952D02*
X116428571Y-85833333D01*
X116523809Y-85785714D01*
X116666666Y-85785714D01*
X116761904Y-85833333D01*
X116809523Y-85928571D01*
X116809523Y-86452380D01*
X117285714Y-86071428D02*
X118047619Y-86071428D01*
G04 #@! TO.C,MH4*
X121952380Y-88428571D02*
X122285714Y-88428571D01*
X122428571Y-88952380D02*
X121952380Y-88952380D01*
X121952380Y-87952380D01*
X122428571Y-87952380D01*
X122857142Y-88952380D02*
X122857142Y-87952380D01*
X123428571Y-88952380D01*
X123428571Y-87952380D01*
X123904761Y-88952380D02*
X123904761Y-88285714D01*
X123904761Y-87952380D02*
X123857142Y-88000000D01*
X123904761Y-88047619D01*
X123952380Y-88000000D01*
X123904761Y-87952380D01*
X123904761Y-88047619D01*
X124380952Y-88285714D02*
X124380952Y-88952380D01*
X124380952Y-88380952D02*
X124428571Y-88333333D01*
X124523809Y-88285714D01*
X124666666Y-88285714D01*
X124761904Y-88333333D01*
X124809523Y-88428571D01*
X124809523Y-88952380D01*
X125285714Y-88571428D02*
X126047619Y-88571428D01*
X125666666Y-88952380D02*
X125666666Y-88190476D01*
G04 #@! TO.C,MH5*
X97690476Y-99952380D02*
X97690476Y-98952380D01*
X98309523Y-99952380D02*
X98214285Y-99904761D01*
X98166666Y-99857142D01*
X98119047Y-99761904D01*
X98119047Y-99476190D01*
X98166666Y-99380952D01*
X98214285Y-99333333D01*
X98309523Y-99285714D01*
X98452380Y-99285714D01*
X98547619Y-99333333D01*
X98595238Y-99380952D01*
X98642857Y-99476190D01*
X98642857Y-99761904D01*
X98595238Y-99857142D01*
X98547619Y-99904761D01*
X98452380Y-99952380D01*
X98309523Y-99952380D01*
X99500000Y-99285714D02*
X99500000Y-99952380D01*
X99071428Y-99285714D02*
X99071428Y-99809523D01*
X99119047Y-99904761D01*
X99214285Y-99952380D01*
X99357142Y-99952380D01*
X99452380Y-99904761D01*
X99500000Y-99857142D01*
X99833333Y-99285714D02*
X100214285Y-99285714D01*
X99976190Y-98952380D02*
X99976190Y-99809523D01*
X100023809Y-99904761D01*
X100119047Y-99952380D01*
X100214285Y-99952380D01*
X100547619Y-99571428D02*
X101309523Y-99571428D01*
X100928571Y-99952380D02*
X100928571Y-99190476D01*
G04 #@! TO.C,MH6*
X97690476Y-90452380D02*
X97690476Y-89452380D01*
X98309523Y-90452380D02*
X98214285Y-90404761D01*
X98166666Y-90357142D01*
X98119047Y-90261904D01*
X98119047Y-89976190D01*
X98166666Y-89880952D01*
X98214285Y-89833333D01*
X98309523Y-89785714D01*
X98452380Y-89785714D01*
X98547619Y-89833333D01*
X98595238Y-89880952D01*
X98642857Y-89976190D01*
X98642857Y-90261904D01*
X98595238Y-90357142D01*
X98547619Y-90404761D01*
X98452380Y-90452380D01*
X98309523Y-90452380D01*
X99500000Y-89785714D02*
X99500000Y-90452380D01*
X99071428Y-89785714D02*
X99071428Y-90309523D01*
X99119047Y-90404761D01*
X99214285Y-90452380D01*
X99357142Y-90452380D01*
X99452380Y-90404761D01*
X99500000Y-90357142D01*
X99833333Y-89785714D02*
X100214285Y-89785714D01*
X99976190Y-89452380D02*
X99976190Y-90309523D01*
X100023809Y-90404761D01*
X100119047Y-90452380D01*
X100214285Y-90452380D01*
X100547619Y-90071428D02*
X101309523Y-90071428D01*
G04 #@! TO.C,Q1*
X127214761Y-46547619D02*
X127119523Y-46500000D01*
X127024285Y-46404761D01*
X126881428Y-46261904D01*
X126786190Y-46214285D01*
X126690952Y-46214285D01*
X126738571Y-46452380D02*
X126643333Y-46404761D01*
X126548095Y-46309523D01*
X126500476Y-46119047D01*
X126500476Y-45785714D01*
X126548095Y-45595238D01*
X126643333Y-45500000D01*
X126738571Y-45452380D01*
X126929047Y-45452380D01*
X127024285Y-45500000D01*
X127119523Y-45595238D01*
X127167142Y-45785714D01*
X127167142Y-46119047D01*
X127119523Y-46309523D01*
X127024285Y-46404761D01*
X126929047Y-46452380D01*
X126738571Y-46452380D01*
X128119523Y-46452380D02*
X127548095Y-46452380D01*
X127833809Y-46452380D02*
X127833809Y-45452380D01*
X127738571Y-45595238D01*
X127643333Y-45690476D01*
X127548095Y-45738095D01*
X126500476Y-39452380D02*
X126500476Y-38452380D01*
X126833809Y-39166666D01*
X127167142Y-38452380D01*
X127167142Y-39452380D01*
X128167142Y-39452380D02*
X127595714Y-39452380D01*
X127881428Y-39452380D02*
X127881428Y-38452380D01*
X127786190Y-38595238D01*
X127690952Y-38690476D01*
X127595714Y-38738095D01*
G04 #@! TO.C,Q2*
X128154761Y-47047619D02*
X128059523Y-47000000D01*
X127964285Y-46904761D01*
X127821428Y-46761904D01*
X127726190Y-46714285D01*
X127630952Y-46714285D01*
X127678571Y-46952380D02*
X127583333Y-46904761D01*
X127488095Y-46809523D01*
X127440476Y-46619047D01*
X127440476Y-46285714D01*
X127488095Y-46095238D01*
X127583333Y-46000000D01*
X127678571Y-45952380D01*
X127869047Y-45952380D01*
X127964285Y-46000000D01*
X128059523Y-46095238D01*
X128107142Y-46285714D01*
X128107142Y-46619047D01*
X128059523Y-46809523D01*
X127964285Y-46904761D01*
X127869047Y-46952380D01*
X127678571Y-46952380D01*
X128488095Y-46047619D02*
X128535714Y-46000000D01*
X128630952Y-45952380D01*
X128869047Y-45952380D01*
X128964285Y-46000000D01*
X129011904Y-46047619D01*
X129059523Y-46142857D01*
X129059523Y-46238095D01*
X129011904Y-46380952D01*
X128440476Y-46952380D01*
X129059523Y-46952380D01*
X127440476Y-53952380D02*
X127440476Y-52952380D01*
X127773809Y-53666666D01*
X128107142Y-52952380D01*
X128107142Y-53952380D01*
X128535714Y-53047619D02*
X128583333Y-53000000D01*
X128678571Y-52952380D01*
X128916666Y-52952380D01*
X129011904Y-53000000D01*
X129059523Y-53047619D01*
X129107142Y-53142857D01*
X129107142Y-53238095D01*
X129059523Y-53380952D01*
X128488095Y-53952380D01*
X129107142Y-53952380D01*
G04 #@! TO.C,R1*
X128452380Y-81547619D02*
X127976190Y-81880952D01*
X128452380Y-82119047D02*
X127452380Y-82119047D01*
X127452380Y-81738095D01*
X127500000Y-81642857D01*
X127547619Y-81595238D01*
X127642857Y-81547619D01*
X127785714Y-81547619D01*
X127880952Y-81595238D01*
X127928571Y-81642857D01*
X127976190Y-81738095D01*
X127976190Y-82119047D01*
X128452380Y-80976190D02*
X128404761Y-81071428D01*
X128357142Y-81119047D01*
X128261904Y-81166666D01*
X127976190Y-81166666D01*
X127880952Y-81119047D01*
X127833333Y-81071428D01*
X127785714Y-80976190D01*
X127785714Y-80833333D01*
X127833333Y-80738095D01*
X127880952Y-80690476D01*
X127976190Y-80642857D01*
X128261904Y-80642857D01*
X128357142Y-80690476D01*
X128404761Y-80738095D01*
X128452380Y-80833333D01*
X128452380Y-80976190D01*
X127785714Y-80214285D02*
X128452380Y-80214285D01*
X127880952Y-80214285D02*
X127833333Y-80166666D01*
X127785714Y-80071428D01*
X127785714Y-79928571D01*
X127833333Y-79833333D01*
X127928571Y-79785714D01*
X128452380Y-79785714D01*
X127452380Y-78071428D02*
X127452380Y-78547619D01*
X127928571Y-78595238D01*
X127880952Y-78547619D01*
X127833333Y-78452380D01*
X127833333Y-78214285D01*
X127880952Y-78119047D01*
X127928571Y-78071428D01*
X128023809Y-78023809D01*
X128261904Y-78023809D01*
X128357142Y-78071428D01*
X128404761Y-78119047D01*
X128452380Y-78214285D01*
X128452380Y-78452380D01*
X128404761Y-78547619D01*
X128357142Y-78595238D01*
X128452380Y-77071428D02*
X128452380Y-77642857D01*
X128452380Y-77357142D02*
X127452380Y-77357142D01*
X127595238Y-77452380D01*
X127690476Y-77547619D01*
X127738095Y-77642857D01*
X128357142Y-76642857D02*
X128404761Y-76595238D01*
X128452380Y-76642857D01*
X128404761Y-76690476D01*
X128357142Y-76642857D01*
X128452380Y-76642857D01*
X128452380Y-75642857D02*
X128452380Y-76214285D01*
X128452380Y-75928571D02*
X127452380Y-75928571D01*
X127595238Y-76023809D01*
X127690476Y-76119047D01*
X127738095Y-76214285D01*
X128452380Y-75214285D02*
X127452380Y-75214285D01*
X128071428Y-75119047D02*
X128452380Y-74833333D01*
X127785714Y-74833333D02*
X128166666Y-75214285D01*
G04 #@! TO.C,R3*
X129392857Y-87452380D02*
X129059523Y-86976190D01*
X128821428Y-87452380D02*
X128821428Y-86452380D01*
X129202380Y-86452380D01*
X129297619Y-86500000D01*
X129345238Y-86547619D01*
X129392857Y-86642857D01*
X129392857Y-86785714D01*
X129345238Y-86880952D01*
X129297619Y-86928571D01*
X129202380Y-86976190D01*
X128821428Y-86976190D01*
X129678571Y-86785714D02*
X130059523Y-86785714D01*
X129821428Y-87452380D02*
X129821428Y-86595238D01*
X129869047Y-86500000D01*
X129964285Y-86452380D01*
X130059523Y-86452380D01*
X130392857Y-87452380D02*
X130392857Y-86452380D01*
X130392857Y-86833333D02*
X130488095Y-86785714D01*
X130678571Y-86785714D01*
X130773809Y-86833333D01*
X130821428Y-86880952D01*
X130869047Y-86976190D01*
X130869047Y-87261904D01*
X130821428Y-87357142D01*
X130773809Y-87404761D01*
X130678571Y-87452380D01*
X130488095Y-87452380D01*
X130392857Y-87404761D01*
X131250000Y-86547619D02*
X131297619Y-86500000D01*
X131392857Y-86452380D01*
X131630952Y-86452380D01*
X131726190Y-86500000D01*
X131773809Y-86547619D01*
X131821428Y-86642857D01*
X131821428Y-86738095D01*
X131773809Y-86880952D01*
X131202380Y-87452380D01*
X131821428Y-87452380D01*
X133440476Y-86785714D02*
X133440476Y-87452380D01*
X133202380Y-86404761D02*
X132964285Y-87119047D01*
X133583333Y-87119047D01*
X133869047Y-86452380D02*
X134535714Y-86452380D01*
X134107142Y-87452380D01*
X134916666Y-87357142D02*
X134964285Y-87404761D01*
X134916666Y-87452380D01*
X134869047Y-87404761D01*
X134916666Y-87357142D01*
X134916666Y-87452380D01*
X135869047Y-86452380D02*
X135392857Y-86452380D01*
X135345238Y-86928571D01*
X135392857Y-86880952D01*
X135488095Y-86833333D01*
X135726190Y-86833333D01*
X135821428Y-86880952D01*
X135869047Y-86928571D01*
X135916666Y-87023809D01*
X135916666Y-87261904D01*
X135869047Y-87357142D01*
X135821428Y-87404761D01*
X135726190Y-87452380D01*
X135488095Y-87452380D01*
X135392857Y-87404761D01*
X135345238Y-87357142D01*
X136345238Y-87452380D02*
X136345238Y-86452380D01*
X136440476Y-87071428D02*
X136726190Y-87452380D01*
X136726190Y-86785714D02*
X136345238Y-87166666D01*
G04 #@! TO.C,R4*
X132583333Y-80852380D02*
X132250000Y-80376190D01*
X132011904Y-80852380D02*
X132011904Y-79852380D01*
X132392857Y-79852380D01*
X132488095Y-79900000D01*
X132535714Y-79947619D01*
X132583333Y-80042857D01*
X132583333Y-80185714D01*
X132535714Y-80280952D01*
X132488095Y-80328571D01*
X132392857Y-80376190D01*
X132011904Y-80376190D01*
X133440476Y-80185714D02*
X133440476Y-80852380D01*
X133202380Y-79804761D02*
X132964285Y-80519047D01*
X133583333Y-80519047D01*
X130107142Y-84602380D02*
X129773809Y-84126190D01*
X129535714Y-84602380D02*
X129535714Y-83602380D01*
X129916666Y-83602380D01*
X130011904Y-83650000D01*
X130059523Y-83697619D01*
X130107142Y-83792857D01*
X130107142Y-83935714D01*
X130059523Y-84030952D01*
X130011904Y-84078571D01*
X129916666Y-84126190D01*
X129535714Y-84126190D01*
X130392857Y-83935714D02*
X130773809Y-83935714D01*
X130535714Y-84602380D02*
X130535714Y-83745238D01*
X130583333Y-83650000D01*
X130678571Y-83602380D01*
X130773809Y-83602380D01*
X131107142Y-84602380D02*
X131107142Y-83602380D01*
X131107142Y-83983333D02*
X131202380Y-83935714D01*
X131392857Y-83935714D01*
X131488095Y-83983333D01*
X131535714Y-84030952D01*
X131583333Y-84126190D01*
X131583333Y-84411904D01*
X131535714Y-84507142D01*
X131488095Y-84554761D01*
X131392857Y-84602380D01*
X131202380Y-84602380D01*
X131107142Y-84554761D01*
X132535714Y-84602380D02*
X131964285Y-84602380D01*
X132250000Y-84602380D02*
X132250000Y-83602380D01*
X132154761Y-83745238D01*
X132059523Y-83840476D01*
X131964285Y-83888095D01*
X134250000Y-84602380D02*
X133678571Y-84602380D01*
X133964285Y-84602380D02*
X133964285Y-83602380D01*
X133869047Y-83745238D01*
X133773809Y-83840476D01*
X133678571Y-83888095D01*
X134869047Y-83602380D02*
X134964285Y-83602380D01*
X135059523Y-83650000D01*
X135107142Y-83697619D01*
X135154761Y-83792857D01*
X135202380Y-83983333D01*
X135202380Y-84221428D01*
X135154761Y-84411904D01*
X135107142Y-84507142D01*
X135059523Y-84554761D01*
X134964285Y-84602380D01*
X134869047Y-84602380D01*
X134773809Y-84554761D01*
X134726190Y-84507142D01*
X134678571Y-84411904D01*
X134630952Y-84221428D01*
X134630952Y-83983333D01*
X134678571Y-83792857D01*
X134726190Y-83697619D01*
X134773809Y-83650000D01*
X134869047Y-83602380D01*
X135630952Y-84602380D02*
X135630952Y-83602380D01*
X135726190Y-84221428D02*
X136011904Y-84602380D01*
X136011904Y-83935714D02*
X135630952Y-84316666D01*
G04 #@! TO.C,U1*
X126738095Y-67940380D02*
X126738095Y-68749904D01*
X126785714Y-68845142D01*
X126833333Y-68892761D01*
X126928571Y-68940380D01*
X127119047Y-68940380D01*
X127214285Y-68892761D01*
X127261904Y-68845142D01*
X127309523Y-68749904D01*
X127309523Y-67940380D01*
X128309523Y-68940380D02*
X127738095Y-68940380D01*
X128023809Y-68940380D02*
X128023809Y-67940380D01*
X127928571Y-68083238D01*
X127833333Y-68178476D01*
X127738095Y-68226095D01*
G04 #@! TD*
M02*
