G04 #@! TF.GenerationSoftware,KiCad,Pcbnew,5.0.2-bee76a0~70~ubuntu18.04.1*
G04 #@! TF.CreationDate,2019-01-20T23:04:17+00:00*
G04 #@! TF.ProjectId,Lcr_addon,4c63725f-6164-4646-9f6e-2e6b69636164,rev?*
G04 #@! TF.SameCoordinates,Original*
G04 #@! TF.FileFunction,Other,Fab,Top*
%FSLAX46Y46*%
G04 Gerber Fmt 4.6, Leading zero omitted, Abs format (unit mm)*
G04 Created by KiCad (PCBNEW 5.0.2-bee76a0~70~ubuntu18.04.1) date Sun 20 Jan 2019 23:04:17 GMT*
%MOMM*%
%LPD*%
G01*
G04 APERTURE LIST*
%ADD10C,0.100000*%
%ADD11C,0.150000*%
%ADD12C,0.075000*%
G04 APERTURE END LIST*
D10*
G04 #@! TO.C,U4*
X85776000Y-52252000D02*
X85776000Y-56652000D01*
X85776000Y-56652000D02*
X95776000Y-56652000D01*
X95776000Y-56652000D02*
X95776000Y-52252000D01*
X95776000Y-52252000D02*
X85776000Y-52252000D01*
X85776000Y-53522000D02*
X95776000Y-53522000D01*
X88926000Y-52252000D02*
X88926000Y-53522000D01*
X92626000Y-52252000D02*
X92626000Y-53522000D01*
X87376000Y-56652000D02*
X87376000Y-60452000D01*
X89076000Y-56652000D02*
X89076000Y-56752000D01*
X90776000Y-56652000D02*
X90776000Y-60452000D01*
X92476000Y-56652000D02*
X92476000Y-56752000D01*
X94176000Y-56652000D02*
X94176000Y-60452000D01*
G04 #@! TO.C,U6*
X60368000Y-77533000D02*
X59943000Y-77133000D01*
X59943000Y-75883000D02*
X59943000Y-77133000D01*
X60368000Y-77533000D02*
X62993000Y-77533000D01*
X62993000Y-75883000D02*
X62993000Y-77533000D01*
X59943000Y-75883000D02*
X62993000Y-75883000D01*
G04 #@! TO.C,C1*
X80682500Y-54243028D02*
X80052500Y-54243028D01*
X80367500Y-53928028D02*
X80367500Y-54558028D01*
X82144000Y-56622000D02*
G75*
G03X82144000Y-56622000I-3150000J0D01*
G01*
G04 #@! TO.C,C2*
X107310000Y-73406000D02*
G75*
G03X107310000Y-73406000I-3150000J0D01*
G01*
X106853972Y-74779500D02*
X106223972Y-74779500D01*
X106538972Y-75094500D02*
X106538972Y-74464500D01*
G04 #@! TO.C,D1*
X84404000Y-65726000D02*
X84404000Y-70926000D01*
X84404000Y-70926000D02*
X93904000Y-70926000D01*
X93904000Y-70926000D02*
X93904000Y-65726000D01*
X93904000Y-65726000D02*
X84404000Y-65726000D01*
X81534000Y-68326000D02*
X84404000Y-68326000D01*
X96774000Y-68326000D02*
X93904000Y-68326000D01*
X85829000Y-65726000D02*
X85829000Y-70926000D01*
X85929000Y-65726000D02*
X85929000Y-70926000D01*
X85729000Y-65726000D02*
X85729000Y-70926000D01*
G04 #@! TO.C,J1*
X111763213Y-74101425D02*
X110960000Y-73346000D01*
X121960000Y-74096000D02*
X121960000Y-65096000D01*
X125460000Y-74096000D02*
X125460000Y-65096000D01*
X125460000Y-65096000D02*
X110960000Y-65096000D01*
X110960000Y-65096000D02*
X110960000Y-73346000D01*
X111760000Y-74096000D02*
X125460000Y-74096000D01*
G04 #@! TO.C,J2*
X39280000Y-82518000D02*
X47580000Y-82518000D01*
X47580000Y-82518000D02*
X47580000Y-66518000D01*
X47580000Y-66518000D02*
X39280000Y-66518000D01*
X39280000Y-66518000D02*
X39280000Y-82518000D01*
X43680000Y-82518000D02*
X43180000Y-81810893D01*
X43180000Y-81810893D02*
X42680000Y-82518000D01*
G04 #@! TO.C,J3*
X69723000Y-61214000D02*
X67818000Y-61214000D01*
X67818000Y-61214000D02*
X67818000Y-53594000D01*
X67818000Y-53594000D02*
X70358000Y-53594000D01*
X70358000Y-53594000D02*
X70358000Y-60579000D01*
X70358000Y-60579000D02*
X69723000Y-61214000D01*
G04 #@! TO.C,J4*
X108632000Y-112552000D02*
X98632000Y-113552000D01*
X110982000Y-111252000D02*
X110982000Y-96352000D01*
X96282000Y-111252000D02*
X110982000Y-111252000D01*
X96282000Y-96352000D02*
X96282000Y-111252000D01*
X110982000Y-96352000D02*
X96282000Y-96352000D01*
X109982000Y-119952000D02*
X109982000Y-111252000D01*
X97282000Y-119952000D02*
X109982000Y-119952000D01*
X97282000Y-111252000D02*
X97282000Y-119952000D01*
X108432000Y-131852000D02*
X108432000Y-119952000D01*
X98832000Y-131852000D02*
X108432000Y-131852000D01*
X98832000Y-119952000D02*
X98832000Y-131852000D01*
X104632000Y-126622000D02*
G75*
G03X104632000Y-126622000I-1000000J0D01*
G01*
X108632000Y-113552000D02*
X98632000Y-114552000D01*
X108632000Y-114552000D02*
X98632000Y-115552000D01*
X108632000Y-115552000D02*
X98632000Y-116552000D01*
X108632000Y-116552000D02*
X98632000Y-117552000D01*
X108632000Y-117552000D02*
X98632000Y-118552000D01*
X108632000Y-118552000D02*
X98632000Y-119552000D01*
G04 #@! TO.C,J5*
X72056000Y-112552000D02*
X62056000Y-113552000D01*
X74406000Y-111252000D02*
X74406000Y-96352000D01*
X59706000Y-111252000D02*
X74406000Y-111252000D01*
X59706000Y-96352000D02*
X59706000Y-111252000D01*
X74406000Y-96352000D02*
X59706000Y-96352000D01*
X73406000Y-119952000D02*
X73406000Y-111252000D01*
X60706000Y-119952000D02*
X73406000Y-119952000D01*
X60706000Y-111252000D02*
X60706000Y-119952000D01*
X71856000Y-131852000D02*
X71856000Y-119952000D01*
X62256000Y-131852000D02*
X71856000Y-131852000D01*
X62256000Y-119952000D02*
X62256000Y-131852000D01*
X68056000Y-126622000D02*
G75*
G03X68056000Y-126622000I-1000000J0D01*
G01*
X72056000Y-113552000D02*
X62056000Y-114552000D01*
X72056000Y-114552000D02*
X62056000Y-115552000D01*
X72056000Y-115552000D02*
X62056000Y-116552000D01*
X72056000Y-116552000D02*
X62056000Y-117552000D01*
X72056000Y-117552000D02*
X62056000Y-118552000D01*
X72056000Y-118552000D02*
X62056000Y-119552000D01*
G04 #@! TO.C,J6*
X88820000Y-118552000D02*
X78820000Y-119552000D01*
X88820000Y-117552000D02*
X78820000Y-118552000D01*
X88820000Y-116552000D02*
X78820000Y-117552000D01*
X88820000Y-115552000D02*
X78820000Y-116552000D01*
X88820000Y-114552000D02*
X78820000Y-115552000D01*
X88820000Y-113552000D02*
X78820000Y-114552000D01*
X84820000Y-126622000D02*
G75*
G03X84820000Y-126622000I-1000000J0D01*
G01*
X79020000Y-119952000D02*
X79020000Y-131852000D01*
X79020000Y-131852000D02*
X88620000Y-131852000D01*
X88620000Y-131852000D02*
X88620000Y-119952000D01*
X77470000Y-111252000D02*
X77470000Y-119952000D01*
X77470000Y-119952000D02*
X90170000Y-119952000D01*
X90170000Y-119952000D02*
X90170000Y-111252000D01*
X91170000Y-96352000D02*
X76470000Y-96352000D01*
X76470000Y-96352000D02*
X76470000Y-111252000D01*
X76470000Y-111252000D02*
X91170000Y-111252000D01*
X91170000Y-111252000D02*
X91170000Y-96352000D01*
X88820000Y-112552000D02*
X78820000Y-113552000D01*
G04 #@! TO.C,J7*
X55292000Y-118552000D02*
X45292000Y-119552000D01*
X55292000Y-117552000D02*
X45292000Y-118552000D01*
X55292000Y-116552000D02*
X45292000Y-117552000D01*
X55292000Y-115552000D02*
X45292000Y-116552000D01*
X55292000Y-114552000D02*
X45292000Y-115552000D01*
X55292000Y-113552000D02*
X45292000Y-114552000D01*
X51292000Y-126622000D02*
G75*
G03X51292000Y-126622000I-1000000J0D01*
G01*
X45492000Y-119952000D02*
X45492000Y-131852000D01*
X45492000Y-131852000D02*
X55092000Y-131852000D01*
X55092000Y-131852000D02*
X55092000Y-119952000D01*
X43942000Y-111252000D02*
X43942000Y-119952000D01*
X43942000Y-119952000D02*
X56642000Y-119952000D01*
X56642000Y-119952000D02*
X56642000Y-111252000D01*
X57642000Y-96352000D02*
X42942000Y-96352000D01*
X42942000Y-96352000D02*
X42942000Y-111252000D01*
X42942000Y-111252000D02*
X57642000Y-111252000D01*
X57642000Y-111252000D02*
X57642000Y-96352000D01*
X55292000Y-112552000D02*
X45292000Y-113552000D01*
G04 #@! TO.C,L1*
X108632000Y-57444000D02*
G75*
G03X108632000Y-57444000I-5000000J0D01*
G01*
G04 #@! TO.C,U1*
X53002000Y-87439000D02*
X52577000Y-87039000D01*
X52577000Y-85789000D02*
X52577000Y-87039000D01*
X53002000Y-87439000D02*
X55627000Y-87439000D01*
X55627000Y-85789000D02*
X55627000Y-87439000D01*
X52577000Y-85789000D02*
X55627000Y-85789000D01*
G04 #@! TO.C,U2*
X52577000Y-75883000D02*
X55627000Y-75883000D01*
X55627000Y-75883000D02*
X55627000Y-77533000D01*
X53002000Y-77533000D02*
X55627000Y-77533000D01*
X52577000Y-75883000D02*
X52577000Y-77133000D01*
X53002000Y-77533000D02*
X52577000Y-77133000D01*
G04 #@! TO.C,U3*
X53002000Y-67373000D02*
X52577000Y-66973000D01*
X52577000Y-65723000D02*
X52577000Y-66973000D01*
X53002000Y-67373000D02*
X55627000Y-67373000D01*
X55627000Y-65723000D02*
X55627000Y-67373000D01*
X52577000Y-65723000D02*
X55627000Y-65723000D01*
G04 #@! TO.C,U5*
X60197000Y-85789000D02*
X63247000Y-85789000D01*
X63247000Y-85789000D02*
X63247000Y-87439000D01*
X60622000Y-87439000D02*
X63247000Y-87439000D01*
X60197000Y-85789000D02*
X60197000Y-87039000D01*
X60622000Y-87439000D02*
X60197000Y-87039000D01*
G04 #@! TO.C,U7*
X59689000Y-65723000D02*
X62739000Y-65723000D01*
X62739000Y-65723000D02*
X62739000Y-67373000D01*
X60114000Y-67373000D02*
X62739000Y-67373000D01*
X59689000Y-65723000D02*
X59689000Y-66973000D01*
X60114000Y-67373000D02*
X59689000Y-66973000D01*
G04 #@! TO.C,U8*
X73830000Y-87439000D02*
X73405000Y-87039000D01*
X73405000Y-85789000D02*
X73405000Y-87039000D01*
X73830000Y-87439000D02*
X76455000Y-87439000D01*
X76455000Y-85789000D02*
X76455000Y-87439000D01*
X73405000Y-85789000D02*
X76455000Y-85789000D01*
G04 #@! TO.C,J8*
X112903000Y-89154000D02*
X110998000Y-89154000D01*
X110998000Y-89154000D02*
X110998000Y-81534000D01*
X110998000Y-81534000D02*
X113538000Y-81534000D01*
X113538000Y-81534000D02*
X113538000Y-88519000D01*
X113538000Y-88519000D02*
X112903000Y-89154000D01*
G04 #@! TD*
G04 #@! TO.C,U4*
D11*
X90014095Y-50584380D02*
X90014095Y-51393904D01*
X90061714Y-51489142D01*
X90109333Y-51536761D01*
X90204571Y-51584380D01*
X90395047Y-51584380D01*
X90490285Y-51536761D01*
X90537904Y-51489142D01*
X90585523Y-51393904D01*
X90585523Y-50584380D01*
X91490285Y-50917714D02*
X91490285Y-51584380D01*
X91252190Y-50536761D02*
X91014095Y-51251047D01*
X91633142Y-51251047D01*
G04 #@! TO.C,U6*
D12*
X61087047Y-76434190D02*
X61087047Y-76838952D01*
X61110857Y-76886571D01*
X61134666Y-76910380D01*
X61182285Y-76934190D01*
X61277523Y-76934190D01*
X61325142Y-76910380D01*
X61348952Y-76886571D01*
X61372761Y-76838952D01*
X61372761Y-76434190D01*
X61825142Y-76434190D02*
X61729904Y-76434190D01*
X61682285Y-76458000D01*
X61658476Y-76481809D01*
X61610857Y-76553238D01*
X61587047Y-76648476D01*
X61587047Y-76838952D01*
X61610857Y-76886571D01*
X61634666Y-76910380D01*
X61682285Y-76934190D01*
X61777523Y-76934190D01*
X61825142Y-76910380D01*
X61848952Y-76886571D01*
X61872761Y-76838952D01*
X61872761Y-76719904D01*
X61848952Y-76672285D01*
X61825142Y-76648476D01*
X61777523Y-76624666D01*
X61682285Y-76624666D01*
X61634666Y-76648476D01*
X61610857Y-76672285D01*
X61587047Y-76719904D01*
G04 #@! TO.C,REF\002A\002A*
D11*
X33044952Y-61548380D02*
X33044952Y-60548380D01*
X33378285Y-61262666D01*
X33711619Y-60548380D01*
X33711619Y-61548380D01*
X34330666Y-61548380D02*
X34235428Y-61500761D01*
X34187809Y-61453142D01*
X34140190Y-61357904D01*
X34140190Y-61072190D01*
X34187809Y-60976952D01*
X34235428Y-60929333D01*
X34330666Y-60881714D01*
X34473523Y-60881714D01*
X34568761Y-60929333D01*
X34616380Y-60976952D01*
X34664000Y-61072190D01*
X34664000Y-61357904D01*
X34616380Y-61453142D01*
X34568761Y-61500761D01*
X34473523Y-61548380D01*
X34330666Y-61548380D01*
X35521142Y-60881714D02*
X35521142Y-61548380D01*
X35092571Y-60881714D02*
X35092571Y-61405523D01*
X35140190Y-61500761D01*
X35235428Y-61548380D01*
X35378285Y-61548380D01*
X35473523Y-61500761D01*
X35521142Y-61453142D01*
X35997333Y-60881714D02*
X35997333Y-61548380D01*
X35997333Y-60976952D02*
X36044952Y-60929333D01*
X36140190Y-60881714D01*
X36283047Y-60881714D01*
X36378285Y-60929333D01*
X36425904Y-61024571D01*
X36425904Y-61548380D01*
X36759238Y-60881714D02*
X37140190Y-60881714D01*
X36902095Y-60548380D02*
X36902095Y-61405523D01*
X36949714Y-61500761D01*
X37044952Y-61548380D01*
X37140190Y-61548380D01*
X37473523Y-61548380D02*
X37473523Y-60881714D01*
X37473523Y-60548380D02*
X37425904Y-60596000D01*
X37473523Y-60643619D01*
X37521142Y-60596000D01*
X37473523Y-60548380D01*
X37473523Y-60643619D01*
X37949714Y-60881714D02*
X37949714Y-61548380D01*
X37949714Y-60976952D02*
X37997333Y-60929333D01*
X38092571Y-60881714D01*
X38235428Y-60881714D01*
X38330666Y-60929333D01*
X38378285Y-61024571D01*
X38378285Y-61548380D01*
X39283047Y-60881714D02*
X39283047Y-61691238D01*
X39235428Y-61786476D01*
X39187809Y-61834095D01*
X39092571Y-61881714D01*
X38949714Y-61881714D01*
X38854476Y-61834095D01*
X39283047Y-61500761D02*
X39187809Y-61548380D01*
X38997333Y-61548380D01*
X38902095Y-61500761D01*
X38854476Y-61453142D01*
X38806857Y-61357904D01*
X38806857Y-61072190D01*
X38854476Y-60976952D01*
X38902095Y-60929333D01*
X38997333Y-60881714D01*
X39187809Y-60881714D01*
X39283047Y-60929333D01*
X39759238Y-61548380D02*
X39759238Y-60548380D01*
X39759238Y-61024571D02*
X40330666Y-61024571D01*
X40330666Y-61548380D02*
X40330666Y-60548380D01*
X40949714Y-61548380D02*
X40854476Y-61500761D01*
X40806857Y-61453142D01*
X40759238Y-61357904D01*
X40759238Y-61072190D01*
X40806857Y-60976952D01*
X40854476Y-60929333D01*
X40949714Y-60881714D01*
X41092571Y-60881714D01*
X41187809Y-60929333D01*
X41235428Y-60976952D01*
X41283047Y-61072190D01*
X41283047Y-61357904D01*
X41235428Y-61453142D01*
X41187809Y-61500761D01*
X41092571Y-61548380D01*
X40949714Y-61548380D01*
X41854476Y-61548380D02*
X41759238Y-61500761D01*
X41711619Y-61405523D01*
X41711619Y-60548380D01*
X42616380Y-61500761D02*
X42521142Y-61548380D01*
X42330666Y-61548380D01*
X42235428Y-61500761D01*
X42187809Y-61405523D01*
X42187809Y-61024571D01*
X42235428Y-60929333D01*
X42330666Y-60881714D01*
X42521142Y-60881714D01*
X42616380Y-60929333D01*
X42664000Y-61024571D01*
X42664000Y-61119809D01*
X42187809Y-61215047D01*
X42854476Y-61643619D02*
X43616380Y-61643619D01*
X43759238Y-60548380D02*
X44378285Y-60548380D01*
X44044952Y-60929333D01*
X44187809Y-60929333D01*
X44283047Y-60976952D01*
X44330666Y-61024571D01*
X44378285Y-61119809D01*
X44378285Y-61357904D01*
X44330666Y-61453142D01*
X44283047Y-61500761D01*
X44187809Y-61548380D01*
X43902095Y-61548380D01*
X43806857Y-61500761D01*
X43759238Y-61453142D01*
X44806857Y-61453142D02*
X44854476Y-61500761D01*
X44806857Y-61548380D01*
X44759238Y-61500761D01*
X44806857Y-61453142D01*
X44806857Y-61548380D01*
X45235428Y-60643619D02*
X45283047Y-60596000D01*
X45378285Y-60548380D01*
X45616380Y-60548380D01*
X45711619Y-60596000D01*
X45759238Y-60643619D01*
X45806857Y-60738857D01*
X45806857Y-60834095D01*
X45759238Y-60976952D01*
X45187809Y-61548380D01*
X45806857Y-61548380D01*
X46235428Y-61548380D02*
X46235428Y-60881714D01*
X46235428Y-60976952D02*
X46283047Y-60929333D01*
X46378285Y-60881714D01*
X46521142Y-60881714D01*
X46616380Y-60929333D01*
X46663999Y-61024571D01*
X46663999Y-61548380D01*
X46663999Y-61024571D02*
X46711619Y-60929333D01*
X46806857Y-60881714D01*
X46949714Y-60881714D01*
X47044952Y-60929333D01*
X47092571Y-61024571D01*
X47092571Y-61548380D01*
X47568761Y-61548380D02*
X47568761Y-60881714D01*
X47568761Y-60976952D02*
X47616380Y-60929333D01*
X47711619Y-60881714D01*
X47854476Y-60881714D01*
X47949714Y-60929333D01*
X47997333Y-61024571D01*
X47997333Y-61548380D01*
X47997333Y-61024571D02*
X48044952Y-60929333D01*
X48140190Y-60881714D01*
X48283047Y-60881714D01*
X48378285Y-60929333D01*
X48425904Y-61024571D01*
X48425904Y-61548380D01*
X48663999Y-61643619D02*
X49425904Y-61643619D01*
X49663999Y-61548380D02*
X49663999Y-60548380D01*
X49997333Y-61262666D01*
X50330666Y-60548380D01*
X50330666Y-61548380D01*
X50711619Y-60548380D02*
X51330666Y-60548380D01*
X50997333Y-60929333D01*
X51140190Y-60929333D01*
X51235428Y-60976952D01*
X51283047Y-61024571D01*
X51330666Y-61119809D01*
X51330666Y-61357904D01*
X51283047Y-61453142D01*
X51235428Y-61500761D01*
X51140190Y-61548380D01*
X50854476Y-61548380D01*
X50759238Y-61500761D01*
X50711619Y-61453142D01*
X41338666Y-57348380D02*
X41005333Y-56872190D01*
X40767238Y-57348380D02*
X40767238Y-56348380D01*
X41148190Y-56348380D01*
X41243428Y-56396000D01*
X41291047Y-56443619D01*
X41338666Y-56538857D01*
X41338666Y-56681714D01*
X41291047Y-56776952D01*
X41243428Y-56824571D01*
X41148190Y-56872190D01*
X40767238Y-56872190D01*
X41767238Y-56824571D02*
X42100571Y-56824571D01*
X42243428Y-57348380D02*
X41767238Y-57348380D01*
X41767238Y-56348380D01*
X42243428Y-56348380D01*
X43005333Y-56824571D02*
X42672000Y-56824571D01*
X42672000Y-57348380D02*
X42672000Y-56348380D01*
X43148190Y-56348380D01*
X43672000Y-56348380D02*
X43672000Y-56586476D01*
X43433904Y-56491238D02*
X43672000Y-56586476D01*
X43910095Y-56491238D01*
X43529142Y-56776952D02*
X43672000Y-56586476D01*
X43814857Y-56776952D01*
X44433904Y-56348380D02*
X44433904Y-56586476D01*
X44195809Y-56491238D02*
X44433904Y-56586476D01*
X44672000Y-56491238D01*
X44291047Y-56776952D02*
X44433904Y-56586476D01*
X44576761Y-56776952D01*
X107212952Y-61548380D02*
X107212952Y-60548380D01*
X107546285Y-61262666D01*
X107879619Y-60548380D01*
X107879619Y-61548380D01*
X108498666Y-61548380D02*
X108403428Y-61500761D01*
X108355809Y-61453142D01*
X108308190Y-61357904D01*
X108308190Y-61072190D01*
X108355809Y-60976952D01*
X108403428Y-60929333D01*
X108498666Y-60881714D01*
X108641523Y-60881714D01*
X108736761Y-60929333D01*
X108784380Y-60976952D01*
X108831999Y-61072190D01*
X108831999Y-61357904D01*
X108784380Y-61453142D01*
X108736761Y-61500761D01*
X108641523Y-61548380D01*
X108498666Y-61548380D01*
X109689142Y-60881714D02*
X109689142Y-61548380D01*
X109260571Y-60881714D02*
X109260571Y-61405523D01*
X109308190Y-61500761D01*
X109403428Y-61548380D01*
X109546285Y-61548380D01*
X109641523Y-61500761D01*
X109689142Y-61453142D01*
X110165333Y-60881714D02*
X110165333Y-61548380D01*
X110165333Y-60976952D02*
X110212952Y-60929333D01*
X110308190Y-60881714D01*
X110451047Y-60881714D01*
X110546285Y-60929333D01*
X110593904Y-61024571D01*
X110593904Y-61548380D01*
X110927238Y-60881714D02*
X111308190Y-60881714D01*
X111070095Y-60548380D02*
X111070095Y-61405523D01*
X111117714Y-61500761D01*
X111212952Y-61548380D01*
X111308190Y-61548380D01*
X111641523Y-61548380D02*
X111641523Y-60881714D01*
X111641523Y-60548380D02*
X111593904Y-60596000D01*
X111641523Y-60643619D01*
X111689142Y-60596000D01*
X111641523Y-60548380D01*
X111641523Y-60643619D01*
X112117714Y-60881714D02*
X112117714Y-61548380D01*
X112117714Y-60976952D02*
X112165333Y-60929333D01*
X112260571Y-60881714D01*
X112403428Y-60881714D01*
X112498666Y-60929333D01*
X112546285Y-61024571D01*
X112546285Y-61548380D01*
X113451047Y-60881714D02*
X113451047Y-61691238D01*
X113403428Y-61786476D01*
X113355809Y-61834095D01*
X113260571Y-61881714D01*
X113117714Y-61881714D01*
X113022476Y-61834095D01*
X113451047Y-61500761D02*
X113355809Y-61548380D01*
X113165333Y-61548380D01*
X113070095Y-61500761D01*
X113022476Y-61453142D01*
X112974857Y-61357904D01*
X112974857Y-61072190D01*
X113022476Y-60976952D01*
X113070095Y-60929333D01*
X113165333Y-60881714D01*
X113355809Y-60881714D01*
X113451047Y-60929333D01*
X113927238Y-61548380D02*
X113927238Y-60548380D01*
X113927238Y-61024571D02*
X114498666Y-61024571D01*
X114498666Y-61548380D02*
X114498666Y-60548380D01*
X115117714Y-61548380D02*
X115022476Y-61500761D01*
X114974857Y-61453142D01*
X114927238Y-61357904D01*
X114927238Y-61072190D01*
X114974857Y-60976952D01*
X115022476Y-60929333D01*
X115117714Y-60881714D01*
X115260571Y-60881714D01*
X115355809Y-60929333D01*
X115403428Y-60976952D01*
X115451047Y-61072190D01*
X115451047Y-61357904D01*
X115403428Y-61453142D01*
X115355809Y-61500761D01*
X115260571Y-61548380D01*
X115117714Y-61548380D01*
X116022476Y-61548380D02*
X115927238Y-61500761D01*
X115879619Y-61405523D01*
X115879619Y-60548380D01*
X116784380Y-61500761D02*
X116689142Y-61548380D01*
X116498666Y-61548380D01*
X116403428Y-61500761D01*
X116355809Y-61405523D01*
X116355809Y-61024571D01*
X116403428Y-60929333D01*
X116498666Y-60881714D01*
X116689142Y-60881714D01*
X116784380Y-60929333D01*
X116831999Y-61024571D01*
X116831999Y-61119809D01*
X116355809Y-61215047D01*
X117022476Y-61643619D02*
X117784380Y-61643619D01*
X117927238Y-60548380D02*
X118546285Y-60548380D01*
X118212952Y-60929333D01*
X118355809Y-60929333D01*
X118451047Y-60976952D01*
X118498666Y-61024571D01*
X118546285Y-61119809D01*
X118546285Y-61357904D01*
X118498666Y-61453142D01*
X118451047Y-61500761D01*
X118355809Y-61548380D01*
X118070095Y-61548380D01*
X117974857Y-61500761D01*
X117927238Y-61453142D01*
X118974857Y-61453142D02*
X119022476Y-61500761D01*
X118974857Y-61548380D01*
X118927238Y-61500761D01*
X118974857Y-61453142D01*
X118974857Y-61548380D01*
X119403428Y-60643619D02*
X119451047Y-60596000D01*
X119546285Y-60548380D01*
X119784380Y-60548380D01*
X119879619Y-60596000D01*
X119927238Y-60643619D01*
X119974857Y-60738857D01*
X119974857Y-60834095D01*
X119927238Y-60976952D01*
X119355809Y-61548380D01*
X119974857Y-61548380D01*
X120403428Y-61548380D02*
X120403428Y-60881714D01*
X120403428Y-60976952D02*
X120451047Y-60929333D01*
X120546285Y-60881714D01*
X120689142Y-60881714D01*
X120784380Y-60929333D01*
X120831999Y-61024571D01*
X120831999Y-61548380D01*
X120831999Y-61024571D02*
X120879619Y-60929333D01*
X120974857Y-60881714D01*
X121117714Y-60881714D01*
X121212952Y-60929333D01*
X121260571Y-61024571D01*
X121260571Y-61548380D01*
X121736761Y-61548380D02*
X121736761Y-60881714D01*
X121736761Y-60976952D02*
X121784380Y-60929333D01*
X121879619Y-60881714D01*
X122022476Y-60881714D01*
X122117714Y-60929333D01*
X122165333Y-61024571D01*
X122165333Y-61548380D01*
X122165333Y-61024571D02*
X122212952Y-60929333D01*
X122308190Y-60881714D01*
X122451047Y-60881714D01*
X122546285Y-60929333D01*
X122593904Y-61024571D01*
X122593904Y-61548380D01*
X122831999Y-61643619D02*
X123593904Y-61643619D01*
X123831999Y-61548380D02*
X123831999Y-60548380D01*
X124165333Y-61262666D01*
X124498666Y-60548380D01*
X124498666Y-61548380D01*
X124879619Y-60548380D02*
X125498666Y-60548380D01*
X125165333Y-60929333D01*
X125308190Y-60929333D01*
X125403428Y-60976952D01*
X125451047Y-61024571D01*
X125498666Y-61119809D01*
X125498666Y-61357904D01*
X125451047Y-61453142D01*
X125403428Y-61500761D01*
X125308190Y-61548380D01*
X125022476Y-61548380D01*
X124927238Y-61500761D01*
X124879619Y-61453142D01*
X115298666Y-57348380D02*
X114965333Y-56872190D01*
X114727238Y-57348380D02*
X114727238Y-56348380D01*
X115108190Y-56348380D01*
X115203428Y-56396000D01*
X115251047Y-56443619D01*
X115298666Y-56538857D01*
X115298666Y-56681714D01*
X115251047Y-56776952D01*
X115203428Y-56824571D01*
X115108190Y-56872190D01*
X114727238Y-56872190D01*
X115727238Y-56824571D02*
X116060571Y-56824571D01*
X116203428Y-57348380D02*
X115727238Y-57348380D01*
X115727238Y-56348380D01*
X116203428Y-56348380D01*
X116965333Y-56824571D02*
X116632000Y-56824571D01*
X116632000Y-57348380D02*
X116632000Y-56348380D01*
X117108190Y-56348380D01*
X117632000Y-56348380D02*
X117632000Y-56586476D01*
X117393904Y-56491238D02*
X117632000Y-56586476D01*
X117870095Y-56491238D01*
X117489142Y-56776952D02*
X117632000Y-56586476D01*
X117774857Y-56776952D01*
X118393904Y-56348380D02*
X118393904Y-56586476D01*
X118155809Y-56491238D02*
X118393904Y-56586476D01*
X118632000Y-56491238D01*
X118251047Y-56776952D02*
X118393904Y-56586476D01*
X118536761Y-56776952D01*
G04 #@! TO.C,C1*
X79351142Y-56788666D02*
X79398761Y-56836285D01*
X79446380Y-56979142D01*
X79446380Y-57074380D01*
X79398761Y-57217238D01*
X79303523Y-57312476D01*
X79208285Y-57360095D01*
X79017809Y-57407714D01*
X78874952Y-57407714D01*
X78684476Y-57360095D01*
X78589238Y-57312476D01*
X78494000Y-57217238D01*
X78446380Y-57074380D01*
X78446380Y-56979142D01*
X78494000Y-56836285D01*
X78541619Y-56788666D01*
X79446380Y-55836285D02*
X79446380Y-56407714D01*
X79446380Y-56122000D02*
X78446380Y-56122000D01*
X78589238Y-56217238D01*
X78684476Y-56312476D01*
X78732095Y-56407714D01*
G04 #@! TO.C,C2*
X103993333Y-73763142D02*
X103945714Y-73810761D01*
X103802857Y-73858380D01*
X103707619Y-73858380D01*
X103564761Y-73810761D01*
X103469523Y-73715523D01*
X103421904Y-73620285D01*
X103374285Y-73429809D01*
X103374285Y-73286952D01*
X103421904Y-73096476D01*
X103469523Y-73001238D01*
X103564761Y-72906000D01*
X103707619Y-72858380D01*
X103802857Y-72858380D01*
X103945714Y-72906000D01*
X103993333Y-72953619D01*
X104374285Y-72953619D02*
X104421904Y-72906000D01*
X104517142Y-72858380D01*
X104755238Y-72858380D01*
X104850476Y-72906000D01*
X104898095Y-72953619D01*
X104945714Y-73048857D01*
X104945714Y-73144095D01*
X104898095Y-73286952D01*
X104326666Y-73858380D01*
X104945714Y-73858380D01*
G04 #@! TO.C,D1*
X85344476Y-72498380D02*
X85344476Y-71498380D01*
X85582571Y-71498380D01*
X85725428Y-71546000D01*
X85820666Y-71641238D01*
X85868285Y-71736476D01*
X85915904Y-71926952D01*
X85915904Y-72069809D01*
X85868285Y-72260285D01*
X85820666Y-72355523D01*
X85725428Y-72450761D01*
X85582571Y-72498380D01*
X85344476Y-72498380D01*
X86106380Y-72593619D02*
X86868285Y-72593619D01*
X87058761Y-72450761D02*
X87201619Y-72498380D01*
X87439714Y-72498380D01*
X87534952Y-72450761D01*
X87582571Y-72403142D01*
X87630190Y-72307904D01*
X87630190Y-72212666D01*
X87582571Y-72117428D01*
X87534952Y-72069809D01*
X87439714Y-72022190D01*
X87249238Y-71974571D01*
X87154000Y-71926952D01*
X87106380Y-71879333D01*
X87058761Y-71784095D01*
X87058761Y-71688857D01*
X87106380Y-71593619D01*
X87154000Y-71546000D01*
X87249238Y-71498380D01*
X87487333Y-71498380D01*
X87630190Y-71546000D01*
X88487333Y-72450761D02*
X88392095Y-72498380D01*
X88201619Y-72498380D01*
X88106380Y-72450761D01*
X88058761Y-72403142D01*
X88011142Y-72307904D01*
X88011142Y-72022190D01*
X88058761Y-71926952D01*
X88106380Y-71879333D01*
X88201619Y-71831714D01*
X88392095Y-71831714D01*
X88487333Y-71879333D01*
X88915904Y-72498380D02*
X88915904Y-71498380D01*
X89344476Y-72498380D02*
X89344476Y-71974571D01*
X89296857Y-71879333D01*
X89201619Y-71831714D01*
X89058761Y-71831714D01*
X88963523Y-71879333D01*
X88915904Y-71926952D01*
X89963523Y-72498380D02*
X89868285Y-72450761D01*
X89820666Y-72403142D01*
X89773047Y-72307904D01*
X89773047Y-72022190D01*
X89820666Y-71926952D01*
X89868285Y-71879333D01*
X89963523Y-71831714D01*
X90106380Y-71831714D01*
X90201619Y-71879333D01*
X90249238Y-71926952D01*
X90296857Y-72022190D01*
X90296857Y-72307904D01*
X90249238Y-72403142D01*
X90201619Y-72450761D01*
X90106380Y-72498380D01*
X89963523Y-72498380D01*
X90582571Y-71831714D02*
X90963523Y-71831714D01*
X90725428Y-71498380D02*
X90725428Y-72355523D01*
X90773047Y-72450761D01*
X90868285Y-72498380D01*
X90963523Y-72498380D01*
X91154000Y-71831714D02*
X91534952Y-71831714D01*
X91296857Y-71498380D02*
X91296857Y-72355523D01*
X91344476Y-72450761D01*
X91439714Y-72498380D01*
X91534952Y-72498380D01*
X91868285Y-72498380D02*
X91868285Y-71498380D01*
X91963523Y-72117428D02*
X92249238Y-72498380D01*
X92249238Y-71831714D02*
X91868285Y-72212666D01*
X92582571Y-71831714D02*
X92820666Y-72498380D01*
X93058761Y-71831714D02*
X92820666Y-72498380D01*
X92725428Y-72736476D01*
X92677809Y-72784095D01*
X92582571Y-72831714D01*
X89128404Y-68778380D02*
X89128404Y-67778380D01*
X89366500Y-67778380D01*
X89509357Y-67826000D01*
X89604595Y-67921238D01*
X89652214Y-68016476D01*
X89699833Y-68206952D01*
X89699833Y-68349809D01*
X89652214Y-68540285D01*
X89604595Y-68635523D01*
X89509357Y-68730761D01*
X89366500Y-68778380D01*
X89128404Y-68778380D01*
X90652214Y-68778380D02*
X90080785Y-68778380D01*
X90366500Y-68778380D02*
X90366500Y-67778380D01*
X90271261Y-67921238D01*
X90176023Y-68016476D01*
X90080785Y-68064095D01*
X81272095Y-66178380D02*
X81272095Y-65178380D01*
X81843523Y-66178380D02*
X81414952Y-65606952D01*
X81843523Y-65178380D02*
X81272095Y-65749809D01*
G04 #@! TO.C,J1*
X114426666Y-71998380D02*
X114426666Y-72712666D01*
X114379047Y-72855523D01*
X114283809Y-72950761D01*
X114140952Y-72998380D01*
X114045714Y-72998380D01*
X115426666Y-72998380D02*
X114855238Y-72998380D01*
X115140952Y-72998380D02*
X115140952Y-71998380D01*
X115045714Y-72141238D01*
X114950476Y-72236476D01*
X114855238Y-72284095D01*
G04 #@! TO.C,J2*
X39432380Y-74851333D02*
X40146666Y-74851333D01*
X40289523Y-74898952D01*
X40384761Y-74994190D01*
X40432380Y-75137047D01*
X40432380Y-75232285D01*
X39527619Y-74422761D02*
X39480000Y-74375142D01*
X39432380Y-74279904D01*
X39432380Y-74041809D01*
X39480000Y-73946571D01*
X39527619Y-73898952D01*
X39622857Y-73851333D01*
X39718095Y-73851333D01*
X39860952Y-73898952D01*
X40432380Y-74470380D01*
X40432380Y-73851333D01*
G04 #@! TO.C,J3*
X69635619Y-57070666D02*
X68921333Y-57070666D01*
X68778476Y-57023047D01*
X68683238Y-56927809D01*
X68635619Y-56784952D01*
X68635619Y-56689714D01*
X69635619Y-57451619D02*
X69635619Y-58070666D01*
X69254666Y-57737333D01*
X69254666Y-57880190D01*
X69207047Y-57975428D01*
X69159428Y-58023047D01*
X69064190Y-58070666D01*
X68826095Y-58070666D01*
X68730857Y-58023047D01*
X68683238Y-57975428D01*
X68635619Y-57880190D01*
X68635619Y-57594476D01*
X68683238Y-57499238D01*
X68730857Y-57451619D01*
G04 #@! TO.C,J4*
X103298666Y-98004380D02*
X103298666Y-98718666D01*
X103251047Y-98861523D01*
X103155809Y-98956761D01*
X103012952Y-99004380D01*
X102917714Y-99004380D01*
X104203428Y-98337714D02*
X104203428Y-99004380D01*
X103965333Y-97956761D02*
X103727238Y-98671047D01*
X104346285Y-98671047D01*
G04 #@! TO.C,J5*
X66722666Y-98004380D02*
X66722666Y-98718666D01*
X66675047Y-98861523D01*
X66579809Y-98956761D01*
X66436952Y-99004380D01*
X66341714Y-99004380D01*
X67675047Y-98004380D02*
X67198857Y-98004380D01*
X67151238Y-98480571D01*
X67198857Y-98432952D01*
X67294095Y-98385333D01*
X67532190Y-98385333D01*
X67627428Y-98432952D01*
X67675047Y-98480571D01*
X67722666Y-98575809D01*
X67722666Y-98813904D01*
X67675047Y-98909142D01*
X67627428Y-98956761D01*
X67532190Y-99004380D01*
X67294095Y-99004380D01*
X67198857Y-98956761D01*
X67151238Y-98909142D01*
G04 #@! TO.C,J6*
X83486666Y-98004380D02*
X83486666Y-98718666D01*
X83439047Y-98861523D01*
X83343809Y-98956761D01*
X83200952Y-99004380D01*
X83105714Y-99004380D01*
X84391428Y-98004380D02*
X84200952Y-98004380D01*
X84105714Y-98052000D01*
X84058095Y-98099619D01*
X83962857Y-98242476D01*
X83915238Y-98432952D01*
X83915238Y-98813904D01*
X83962857Y-98909142D01*
X84010476Y-98956761D01*
X84105714Y-99004380D01*
X84296190Y-99004380D01*
X84391428Y-98956761D01*
X84439047Y-98909142D01*
X84486666Y-98813904D01*
X84486666Y-98575809D01*
X84439047Y-98480571D01*
X84391428Y-98432952D01*
X84296190Y-98385333D01*
X84105714Y-98385333D01*
X84010476Y-98432952D01*
X83962857Y-98480571D01*
X83915238Y-98575809D01*
G04 #@! TO.C,J7*
X49958666Y-98004380D02*
X49958666Y-98718666D01*
X49911047Y-98861523D01*
X49815809Y-98956761D01*
X49672952Y-99004380D01*
X49577714Y-99004380D01*
X50339619Y-98004380D02*
X51006285Y-98004380D01*
X50577714Y-99004380D01*
G04 #@! TO.C,L1*
X109334380Y-59229714D02*
X109334380Y-58610666D01*
X109715333Y-58944000D01*
X109715333Y-58801142D01*
X109762952Y-58705904D01*
X109810571Y-58658285D01*
X109905809Y-58610666D01*
X110143904Y-58610666D01*
X110239142Y-58658285D01*
X110286761Y-58705904D01*
X110334380Y-58801142D01*
X110334380Y-59086857D01*
X110286761Y-59182095D01*
X110239142Y-59229714D01*
X109334380Y-58277333D02*
X109334380Y-57658285D01*
X109715333Y-57991619D01*
X109715333Y-57848761D01*
X109762952Y-57753523D01*
X109810571Y-57705904D01*
X109905809Y-57658285D01*
X110143904Y-57658285D01*
X110239142Y-57705904D01*
X110286761Y-57753523D01*
X110334380Y-57848761D01*
X110334380Y-58134476D01*
X110286761Y-58229714D01*
X110239142Y-58277333D01*
X109667714Y-56801142D02*
X110334380Y-56801142D01*
X109667714Y-57229714D02*
X110191523Y-57229714D01*
X110286761Y-57182095D01*
X110334380Y-57086857D01*
X110334380Y-56944000D01*
X110286761Y-56848761D01*
X110239142Y-56801142D01*
X110334380Y-56324952D02*
X109334380Y-56324952D01*
X109810571Y-56324952D02*
X109810571Y-55753523D01*
X110334380Y-55753523D02*
X109334380Y-55753523D01*
X104084380Y-57610666D02*
X104084380Y-58086857D01*
X103084380Y-58086857D01*
X104084380Y-56753523D02*
X104084380Y-57324952D01*
X104084380Y-57039238D02*
X103084380Y-57039238D01*
X103227238Y-57134476D01*
X103322476Y-57229714D01*
X103370095Y-57324952D01*
G04 #@! TO.C,U1*
D12*
X53721047Y-86340190D02*
X53721047Y-86744952D01*
X53744857Y-86792571D01*
X53768666Y-86816380D01*
X53816285Y-86840190D01*
X53911523Y-86840190D01*
X53959142Y-86816380D01*
X53982952Y-86792571D01*
X54006761Y-86744952D01*
X54006761Y-86340190D01*
X54506761Y-86840190D02*
X54221047Y-86840190D01*
X54363904Y-86840190D02*
X54363904Y-86340190D01*
X54316285Y-86411619D01*
X54268666Y-86459238D01*
X54221047Y-86483047D01*
G04 #@! TO.C,U2*
X53721047Y-76434190D02*
X53721047Y-76838952D01*
X53744857Y-76886571D01*
X53768666Y-76910380D01*
X53816285Y-76934190D01*
X53911523Y-76934190D01*
X53959142Y-76910380D01*
X53982952Y-76886571D01*
X54006761Y-76838952D01*
X54006761Y-76434190D01*
X54221047Y-76481809D02*
X54244857Y-76458000D01*
X54292476Y-76434190D01*
X54411523Y-76434190D01*
X54459142Y-76458000D01*
X54482952Y-76481809D01*
X54506761Y-76529428D01*
X54506761Y-76577047D01*
X54482952Y-76648476D01*
X54197238Y-76934190D01*
X54506761Y-76934190D01*
G04 #@! TO.C,U3*
X53721047Y-66274190D02*
X53721047Y-66678952D01*
X53744857Y-66726571D01*
X53768666Y-66750380D01*
X53816285Y-66774190D01*
X53911523Y-66774190D01*
X53959142Y-66750380D01*
X53982952Y-66726571D01*
X54006761Y-66678952D01*
X54006761Y-66274190D01*
X54197238Y-66274190D02*
X54506761Y-66274190D01*
X54340095Y-66464666D01*
X54411523Y-66464666D01*
X54459142Y-66488476D01*
X54482952Y-66512285D01*
X54506761Y-66559904D01*
X54506761Y-66678952D01*
X54482952Y-66726571D01*
X54459142Y-66750380D01*
X54411523Y-66774190D01*
X54268666Y-66774190D01*
X54221047Y-66750380D01*
X54197238Y-66726571D01*
G04 #@! TO.C,U5*
X61341047Y-86340190D02*
X61341047Y-86744952D01*
X61364857Y-86792571D01*
X61388666Y-86816380D01*
X61436285Y-86840190D01*
X61531523Y-86840190D01*
X61579142Y-86816380D01*
X61602952Y-86792571D01*
X61626761Y-86744952D01*
X61626761Y-86340190D01*
X62102952Y-86340190D02*
X61864857Y-86340190D01*
X61841047Y-86578285D01*
X61864857Y-86554476D01*
X61912476Y-86530666D01*
X62031523Y-86530666D01*
X62079142Y-86554476D01*
X62102952Y-86578285D01*
X62126761Y-86625904D01*
X62126761Y-86744952D01*
X62102952Y-86792571D01*
X62079142Y-86816380D01*
X62031523Y-86840190D01*
X61912476Y-86840190D01*
X61864857Y-86816380D01*
X61841047Y-86792571D01*
G04 #@! TO.C,U7*
X60833047Y-66274190D02*
X60833047Y-66678952D01*
X60856857Y-66726571D01*
X60880666Y-66750380D01*
X60928285Y-66774190D01*
X61023523Y-66774190D01*
X61071142Y-66750380D01*
X61094952Y-66726571D01*
X61118761Y-66678952D01*
X61118761Y-66274190D01*
X61309238Y-66274190D02*
X61642571Y-66274190D01*
X61428285Y-66774190D01*
G04 #@! TO.C,U8*
X74549047Y-86340190D02*
X74549047Y-86744952D01*
X74572857Y-86792571D01*
X74596666Y-86816380D01*
X74644285Y-86840190D01*
X74739523Y-86840190D01*
X74787142Y-86816380D01*
X74810952Y-86792571D01*
X74834761Y-86744952D01*
X74834761Y-86340190D01*
X75144285Y-86554476D02*
X75096666Y-86530666D01*
X75072857Y-86506857D01*
X75049047Y-86459238D01*
X75049047Y-86435428D01*
X75072857Y-86387809D01*
X75096666Y-86364000D01*
X75144285Y-86340190D01*
X75239523Y-86340190D01*
X75287142Y-86364000D01*
X75310952Y-86387809D01*
X75334761Y-86435428D01*
X75334761Y-86459238D01*
X75310952Y-86506857D01*
X75287142Y-86530666D01*
X75239523Y-86554476D01*
X75144285Y-86554476D01*
X75096666Y-86578285D01*
X75072857Y-86602095D01*
X75049047Y-86649714D01*
X75049047Y-86744952D01*
X75072857Y-86792571D01*
X75096666Y-86816380D01*
X75144285Y-86840190D01*
X75239523Y-86840190D01*
X75287142Y-86816380D01*
X75310952Y-86792571D01*
X75334761Y-86744952D01*
X75334761Y-86649714D01*
X75310952Y-86602095D01*
X75287142Y-86578285D01*
X75239523Y-86554476D01*
G04 #@! TO.C,J8*
D11*
X111720380Y-85677333D02*
X112434666Y-85677333D01*
X112577523Y-85724952D01*
X112672761Y-85820190D01*
X112720380Y-85963047D01*
X112720380Y-86058285D01*
X112148952Y-85058285D02*
X112101333Y-85153523D01*
X112053714Y-85201142D01*
X111958476Y-85248761D01*
X111910857Y-85248761D01*
X111815619Y-85201142D01*
X111768000Y-85153523D01*
X111720380Y-85058285D01*
X111720380Y-84867809D01*
X111768000Y-84772571D01*
X111815619Y-84724952D01*
X111910857Y-84677333D01*
X111958476Y-84677333D01*
X112053714Y-84724952D01*
X112101333Y-84772571D01*
X112148952Y-84867809D01*
X112148952Y-85058285D01*
X112196571Y-85153523D01*
X112244190Y-85201142D01*
X112339428Y-85248761D01*
X112529904Y-85248761D01*
X112625142Y-85201142D01*
X112672761Y-85153523D01*
X112720380Y-85058285D01*
X112720380Y-84867809D01*
X112672761Y-84772571D01*
X112625142Y-84724952D01*
X112529904Y-84677333D01*
X112339428Y-84677333D01*
X112244190Y-84724952D01*
X112196571Y-84772571D01*
X112148952Y-84867809D01*
G04 #@! TO.C,REF\002A\002A*
X107212952Y-110824380D02*
X107212952Y-109824380D01*
X107546285Y-110538666D01*
X107879619Y-109824380D01*
X107879619Y-110824380D01*
X108498666Y-110824380D02*
X108403428Y-110776761D01*
X108355809Y-110729142D01*
X108308190Y-110633904D01*
X108308190Y-110348190D01*
X108355809Y-110252952D01*
X108403428Y-110205333D01*
X108498666Y-110157714D01*
X108641523Y-110157714D01*
X108736761Y-110205333D01*
X108784380Y-110252952D01*
X108831999Y-110348190D01*
X108831999Y-110633904D01*
X108784380Y-110729142D01*
X108736761Y-110776761D01*
X108641523Y-110824380D01*
X108498666Y-110824380D01*
X109689142Y-110157714D02*
X109689142Y-110824380D01*
X109260571Y-110157714D02*
X109260571Y-110681523D01*
X109308190Y-110776761D01*
X109403428Y-110824380D01*
X109546285Y-110824380D01*
X109641523Y-110776761D01*
X109689142Y-110729142D01*
X110165333Y-110157714D02*
X110165333Y-110824380D01*
X110165333Y-110252952D02*
X110212952Y-110205333D01*
X110308190Y-110157714D01*
X110451047Y-110157714D01*
X110546285Y-110205333D01*
X110593904Y-110300571D01*
X110593904Y-110824380D01*
X110927238Y-110157714D02*
X111308190Y-110157714D01*
X111070095Y-109824380D02*
X111070095Y-110681523D01*
X111117714Y-110776761D01*
X111212952Y-110824380D01*
X111308190Y-110824380D01*
X111641523Y-110824380D02*
X111641523Y-110157714D01*
X111641523Y-109824380D02*
X111593904Y-109872000D01*
X111641523Y-109919619D01*
X111689142Y-109872000D01*
X111641523Y-109824380D01*
X111641523Y-109919619D01*
X112117714Y-110157714D02*
X112117714Y-110824380D01*
X112117714Y-110252952D02*
X112165333Y-110205333D01*
X112260571Y-110157714D01*
X112403428Y-110157714D01*
X112498666Y-110205333D01*
X112546285Y-110300571D01*
X112546285Y-110824380D01*
X113451047Y-110157714D02*
X113451047Y-110967238D01*
X113403428Y-111062476D01*
X113355809Y-111110095D01*
X113260571Y-111157714D01*
X113117714Y-111157714D01*
X113022476Y-111110095D01*
X113451047Y-110776761D02*
X113355809Y-110824380D01*
X113165333Y-110824380D01*
X113070095Y-110776761D01*
X113022476Y-110729142D01*
X112974857Y-110633904D01*
X112974857Y-110348190D01*
X113022476Y-110252952D01*
X113070095Y-110205333D01*
X113165333Y-110157714D01*
X113355809Y-110157714D01*
X113451047Y-110205333D01*
X113927238Y-110824380D02*
X113927238Y-109824380D01*
X113927238Y-110300571D02*
X114498666Y-110300571D01*
X114498666Y-110824380D02*
X114498666Y-109824380D01*
X115117714Y-110824380D02*
X115022476Y-110776761D01*
X114974857Y-110729142D01*
X114927238Y-110633904D01*
X114927238Y-110348190D01*
X114974857Y-110252952D01*
X115022476Y-110205333D01*
X115117714Y-110157714D01*
X115260571Y-110157714D01*
X115355809Y-110205333D01*
X115403428Y-110252952D01*
X115451047Y-110348190D01*
X115451047Y-110633904D01*
X115403428Y-110729142D01*
X115355809Y-110776761D01*
X115260571Y-110824380D01*
X115117714Y-110824380D01*
X116022476Y-110824380D02*
X115927238Y-110776761D01*
X115879619Y-110681523D01*
X115879619Y-109824380D01*
X116784380Y-110776761D02*
X116689142Y-110824380D01*
X116498666Y-110824380D01*
X116403428Y-110776761D01*
X116355809Y-110681523D01*
X116355809Y-110300571D01*
X116403428Y-110205333D01*
X116498666Y-110157714D01*
X116689142Y-110157714D01*
X116784380Y-110205333D01*
X116831999Y-110300571D01*
X116831999Y-110395809D01*
X116355809Y-110491047D01*
X117022476Y-110919619D02*
X117784380Y-110919619D01*
X117927238Y-109824380D02*
X118546285Y-109824380D01*
X118212952Y-110205333D01*
X118355809Y-110205333D01*
X118451047Y-110252952D01*
X118498666Y-110300571D01*
X118546285Y-110395809D01*
X118546285Y-110633904D01*
X118498666Y-110729142D01*
X118451047Y-110776761D01*
X118355809Y-110824380D01*
X118070095Y-110824380D01*
X117974857Y-110776761D01*
X117927238Y-110729142D01*
X118974857Y-110729142D02*
X119022476Y-110776761D01*
X118974857Y-110824380D01*
X118927238Y-110776761D01*
X118974857Y-110729142D01*
X118974857Y-110824380D01*
X119403428Y-109919619D02*
X119451047Y-109872000D01*
X119546285Y-109824380D01*
X119784380Y-109824380D01*
X119879619Y-109872000D01*
X119927238Y-109919619D01*
X119974857Y-110014857D01*
X119974857Y-110110095D01*
X119927238Y-110252952D01*
X119355809Y-110824380D01*
X119974857Y-110824380D01*
X120403428Y-110824380D02*
X120403428Y-110157714D01*
X120403428Y-110252952D02*
X120451047Y-110205333D01*
X120546285Y-110157714D01*
X120689142Y-110157714D01*
X120784380Y-110205333D01*
X120831999Y-110300571D01*
X120831999Y-110824380D01*
X120831999Y-110300571D02*
X120879619Y-110205333D01*
X120974857Y-110157714D01*
X121117714Y-110157714D01*
X121212952Y-110205333D01*
X121260571Y-110300571D01*
X121260571Y-110824380D01*
X121736761Y-110824380D02*
X121736761Y-110157714D01*
X121736761Y-110252952D02*
X121784380Y-110205333D01*
X121879619Y-110157714D01*
X122022476Y-110157714D01*
X122117714Y-110205333D01*
X122165333Y-110300571D01*
X122165333Y-110824380D01*
X122165333Y-110300571D02*
X122212952Y-110205333D01*
X122308190Y-110157714D01*
X122451047Y-110157714D01*
X122546285Y-110205333D01*
X122593904Y-110300571D01*
X122593904Y-110824380D01*
X122831999Y-110919619D02*
X123593904Y-110919619D01*
X123831999Y-110824380D02*
X123831999Y-109824380D01*
X124165333Y-110538666D01*
X124498666Y-109824380D01*
X124498666Y-110824380D01*
X124879619Y-109824380D02*
X125498666Y-109824380D01*
X125165333Y-110205333D01*
X125308190Y-110205333D01*
X125403428Y-110252952D01*
X125451047Y-110300571D01*
X125498666Y-110395809D01*
X125498666Y-110633904D01*
X125451047Y-110729142D01*
X125403428Y-110776761D01*
X125308190Y-110824380D01*
X125022476Y-110824380D01*
X124927238Y-110776761D01*
X124879619Y-110729142D01*
X115298666Y-106624380D02*
X114965333Y-106148190D01*
X114727238Y-106624380D02*
X114727238Y-105624380D01*
X115108190Y-105624380D01*
X115203428Y-105672000D01*
X115251047Y-105719619D01*
X115298666Y-105814857D01*
X115298666Y-105957714D01*
X115251047Y-106052952D01*
X115203428Y-106100571D01*
X115108190Y-106148190D01*
X114727238Y-106148190D01*
X115727238Y-106100571D02*
X116060571Y-106100571D01*
X116203428Y-106624380D02*
X115727238Y-106624380D01*
X115727238Y-105624380D01*
X116203428Y-105624380D01*
X116965333Y-106100571D02*
X116632000Y-106100571D01*
X116632000Y-106624380D02*
X116632000Y-105624380D01*
X117108190Y-105624380D01*
X117632000Y-105624380D02*
X117632000Y-105862476D01*
X117393904Y-105767238D02*
X117632000Y-105862476D01*
X117870095Y-105767238D01*
X117489142Y-106052952D02*
X117632000Y-105862476D01*
X117774857Y-106052952D01*
X118393904Y-105624380D02*
X118393904Y-105862476D01*
X118155809Y-105767238D02*
X118393904Y-105862476D01*
X118632000Y-105767238D01*
X118251047Y-106052952D02*
X118393904Y-105862476D01*
X118536761Y-106052952D01*
G04 #@! TD*
M02*
