G04 #@! TF.GenerationSoftware,KiCad,Pcbnew,5.0.2-bee76a0~70~ubuntu18.04.1*
G04 #@! TF.CreationDate,2019-01-20T23:04:17+00:00*
G04 #@! TF.ProjectId,Lcr_addon,4c63725f-6164-4646-9f6e-2e6b69636164,rev?*
G04 #@! TF.SameCoordinates,Original*
G04 #@! TF.FileFunction,Copper,L2,Bot*
G04 #@! TF.FilePolarity,Positive*
%FSLAX46Y46*%
G04 Gerber Fmt 4.6, Leading zero omitted, Abs format (unit mm)*
G04 Created by KiCad (PCBNEW 5.0.2-bee76a0~70~ubuntu18.04.1) date Sun 20 Jan 2019 23:04:17 GMT*
%MOMM*%
%LPD*%
G01*
G04 APERTURE LIST*
G04 #@! TA.AperFunction,ComponentPad*
%ADD10R,1.800000X1.800000*%
G04 #@! TD*
G04 #@! TA.AperFunction,ComponentPad*
%ADD11O,1.800000X1.800000*%
G04 #@! TD*
G04 #@! TA.AperFunction,ComponentPad*
%ADD12C,1.600000*%
G04 #@! TD*
G04 #@! TA.AperFunction,ComponentPad*
%ADD13R,1.600000X1.600000*%
G04 #@! TD*
G04 #@! TA.AperFunction,ComponentPad*
%ADD14R,3.200000X3.200000*%
G04 #@! TD*
G04 #@! TA.AperFunction,ComponentPad*
%ADD15O,3.200000X3.200000*%
G04 #@! TD*
G04 #@! TA.AperFunction,ComponentPad*
%ADD16R,3.500000X3.500000*%
G04 #@! TD*
G04 #@! TA.AperFunction,Conductor*
%ADD17C,0.100000*%
G04 #@! TD*
G04 #@! TA.AperFunction,ComponentPad*
%ADD18C,3.000000*%
G04 #@! TD*
G04 #@! TA.AperFunction,ComponentPad*
%ADD19C,3.500000*%
G04 #@! TD*
G04 #@! TA.AperFunction,ComponentPad*
%ADD20C,1.200000*%
G04 #@! TD*
G04 #@! TA.AperFunction,ComponentPad*
%ADD21R,1.700000X1.700000*%
G04 #@! TD*
G04 #@! TA.AperFunction,ComponentPad*
%ADD22O,1.700000X1.700000*%
G04 #@! TD*
G04 #@! TA.AperFunction,ComponentPad*
%ADD23O,1.600000X2.500000*%
G04 #@! TD*
G04 #@! TA.AperFunction,ComponentPad*
%ADD24O,3.500000X7.000000*%
G04 #@! TD*
G04 #@! TA.AperFunction,ComponentPad*
%ADD25C,2.400000*%
G04 #@! TD*
G04 #@! TA.AperFunction,ViaPad*
%ADD26C,0.800000*%
G04 #@! TD*
G04 #@! TA.AperFunction,Conductor*
%ADD27C,0.250000*%
G04 #@! TD*
G04 APERTURE END LIST*
D10*
G04 #@! TO.P,U4,1*
G04 #@! TO.N,Net-(C1-Pad1)*
X87376000Y-60452000D03*
D11*
G04 #@! TO.P,U4,2*
G04 #@! TO.N,Net-(D1-Pad1)*
X89076000Y-56752000D03*
G04 #@! TO.P,U4,3*
G04 #@! TO.N,GND*
X90776000Y-60452000D03*
G04 #@! TO.P,U4,4*
G04 #@! TO.N,VCC*
X92476000Y-56752000D03*
G04 #@! TO.P,U4,5*
G04 #@! TO.N,GND*
X94176000Y-60452000D03*
G04 #@! TD*
D12*
G04 #@! TO.P,C1,2*
G04 #@! TO.N,GND*
X78994000Y-57872000D03*
D13*
G04 #@! TO.P,C1,1*
G04 #@! TO.N,Net-(C1-Pad1)*
X78994000Y-55372000D03*
G04 #@! TD*
G04 #@! TO.P,C2,1*
G04 #@! TO.N,VCC*
X105410000Y-73406000D03*
D12*
G04 #@! TO.P,C2,2*
G04 #@! TO.N,GND*
X102910000Y-73406000D03*
G04 #@! TD*
D14*
G04 #@! TO.P,D1,1*
G04 #@! TO.N,Net-(D1-Pad1)*
X81534000Y-68326000D03*
D15*
G04 #@! TO.P,D1,2*
G04 #@! TO.N,GND*
X96774000Y-68326000D03*
G04 #@! TD*
D16*
G04 #@! TO.P,J1,1*
G04 #@! TO.N,+12V*
X111760000Y-69596000D03*
D17*
G04 #@! TD*
G04 #@! TO.N,GND*
G04 #@! TO.C,J1*
G36*
X118583513Y-67849611D02*
X118656318Y-67860411D01*
X118727714Y-67878295D01*
X118797013Y-67903090D01*
X118863548Y-67934559D01*
X118926678Y-67972398D01*
X118985795Y-68016242D01*
X119040330Y-68065670D01*
X119089758Y-68120205D01*
X119133602Y-68179322D01*
X119171441Y-68242452D01*
X119202910Y-68308987D01*
X119227705Y-68378286D01*
X119245589Y-68449682D01*
X119256389Y-68522487D01*
X119260000Y-68596000D01*
X119260000Y-70596000D01*
X119256389Y-70669513D01*
X119245589Y-70742318D01*
X119227705Y-70813714D01*
X119202910Y-70883013D01*
X119171441Y-70949548D01*
X119133602Y-71012678D01*
X119089758Y-71071795D01*
X119040330Y-71126330D01*
X118985795Y-71175758D01*
X118926678Y-71219602D01*
X118863548Y-71257441D01*
X118797013Y-71288910D01*
X118727714Y-71313705D01*
X118656318Y-71331589D01*
X118583513Y-71342389D01*
X118510000Y-71346000D01*
X117010000Y-71346000D01*
X116936487Y-71342389D01*
X116863682Y-71331589D01*
X116792286Y-71313705D01*
X116722987Y-71288910D01*
X116656452Y-71257441D01*
X116593322Y-71219602D01*
X116534205Y-71175758D01*
X116479670Y-71126330D01*
X116430242Y-71071795D01*
X116386398Y-71012678D01*
X116348559Y-70949548D01*
X116317090Y-70883013D01*
X116292295Y-70813714D01*
X116274411Y-70742318D01*
X116263611Y-70669513D01*
X116260000Y-70596000D01*
X116260000Y-68596000D01*
X116263611Y-68522487D01*
X116274411Y-68449682D01*
X116292295Y-68378286D01*
X116317090Y-68308987D01*
X116348559Y-68242452D01*
X116386398Y-68179322D01*
X116430242Y-68120205D01*
X116479670Y-68065670D01*
X116534205Y-68016242D01*
X116593322Y-67972398D01*
X116656452Y-67934559D01*
X116722987Y-67903090D01*
X116792286Y-67878295D01*
X116863682Y-67860411D01*
X116936487Y-67849611D01*
X117010000Y-67846000D01*
X118510000Y-67846000D01*
X118583513Y-67849611D01*
X118583513Y-67849611D01*
G37*
D18*
G04 #@! TO.P,J1,2*
G04 #@! TO.N,GND*
X117760000Y-69596000D03*
D17*
G04 #@! TD*
G04 #@! TO.N,N/C*
G04 #@! TO.C,J1*
G36*
X115720765Y-63150213D02*
X115805704Y-63162813D01*
X115888999Y-63183677D01*
X115969848Y-63212605D01*
X116047472Y-63249319D01*
X116121124Y-63293464D01*
X116190094Y-63344616D01*
X116253718Y-63402282D01*
X116311384Y-63465906D01*
X116362536Y-63534876D01*
X116406681Y-63608528D01*
X116443395Y-63686152D01*
X116472323Y-63767001D01*
X116493187Y-63850296D01*
X116505787Y-63935235D01*
X116510000Y-64021000D01*
X116510000Y-65771000D01*
X116505787Y-65856765D01*
X116493187Y-65941704D01*
X116472323Y-66024999D01*
X116443395Y-66105848D01*
X116406681Y-66183472D01*
X116362536Y-66257124D01*
X116311384Y-66326094D01*
X116253718Y-66389718D01*
X116190094Y-66447384D01*
X116121124Y-66498536D01*
X116047472Y-66542681D01*
X115969848Y-66579395D01*
X115888999Y-66608323D01*
X115805704Y-66629187D01*
X115720765Y-66641787D01*
X115635000Y-66646000D01*
X113885000Y-66646000D01*
X113799235Y-66641787D01*
X113714296Y-66629187D01*
X113631001Y-66608323D01*
X113550152Y-66579395D01*
X113472528Y-66542681D01*
X113398876Y-66498536D01*
X113329906Y-66447384D01*
X113266282Y-66389718D01*
X113208616Y-66326094D01*
X113157464Y-66257124D01*
X113113319Y-66183472D01*
X113076605Y-66105848D01*
X113047677Y-66024999D01*
X113026813Y-65941704D01*
X113014213Y-65856765D01*
X113010000Y-65771000D01*
X113010000Y-64021000D01*
X113014213Y-63935235D01*
X113026813Y-63850296D01*
X113047677Y-63767001D01*
X113076605Y-63686152D01*
X113113319Y-63608528D01*
X113157464Y-63534876D01*
X113208616Y-63465906D01*
X113266282Y-63402282D01*
X113329906Y-63344616D01*
X113398876Y-63293464D01*
X113472528Y-63249319D01*
X113550152Y-63212605D01*
X113631001Y-63183677D01*
X113714296Y-63162813D01*
X113799235Y-63150213D01*
X113885000Y-63146000D01*
X115635000Y-63146000D01*
X115720765Y-63150213D01*
X115720765Y-63150213D01*
G37*
D19*
G04 #@! TO.P,J1,3*
G04 #@! TO.N,N/C*
X114760000Y-64896000D03*
G04 #@! TD*
D17*
G04 #@! TO.N,Net-(J2-Pad1)*
G04 #@! TO.C,J2*
G36*
X43554505Y-79919204D02*
X43578773Y-79922804D01*
X43602572Y-79928765D01*
X43625671Y-79937030D01*
X43647850Y-79947520D01*
X43668893Y-79960132D01*
X43688599Y-79974747D01*
X43706777Y-79991223D01*
X43723253Y-80009401D01*
X43737868Y-80029107D01*
X43750480Y-80050150D01*
X43760970Y-80072329D01*
X43769235Y-80095428D01*
X43775196Y-80119227D01*
X43778796Y-80143495D01*
X43780000Y-80167999D01*
X43780000Y-80868001D01*
X43778796Y-80892505D01*
X43775196Y-80916773D01*
X43769235Y-80940572D01*
X43760970Y-80963671D01*
X43750480Y-80985850D01*
X43737868Y-81006893D01*
X43723253Y-81026599D01*
X43706777Y-81044777D01*
X43688599Y-81061253D01*
X43668893Y-81075868D01*
X43647850Y-81088480D01*
X43625671Y-81098970D01*
X43602572Y-81107235D01*
X43578773Y-81113196D01*
X43554505Y-81116796D01*
X43530001Y-81118000D01*
X42829999Y-81118000D01*
X42805495Y-81116796D01*
X42781227Y-81113196D01*
X42757428Y-81107235D01*
X42734329Y-81098970D01*
X42712150Y-81088480D01*
X42691107Y-81075868D01*
X42671401Y-81061253D01*
X42653223Y-81044777D01*
X42636747Y-81026599D01*
X42622132Y-81006893D01*
X42609520Y-80985850D01*
X42599030Y-80963671D01*
X42590765Y-80940572D01*
X42584804Y-80916773D01*
X42581204Y-80892505D01*
X42580000Y-80868001D01*
X42580000Y-80167999D01*
X42581204Y-80143495D01*
X42584804Y-80119227D01*
X42590765Y-80095428D01*
X42599030Y-80072329D01*
X42609520Y-80050150D01*
X42622132Y-80029107D01*
X42636747Y-80009401D01*
X42653223Y-79991223D01*
X42671401Y-79974747D01*
X42691107Y-79960132D01*
X42712150Y-79947520D01*
X42734329Y-79937030D01*
X42757428Y-79928765D01*
X42781227Y-79922804D01*
X42805495Y-79919204D01*
X42829999Y-79918000D01*
X43530001Y-79918000D01*
X43554505Y-79919204D01*
X43554505Y-79919204D01*
G37*
D20*
G04 #@! TD*
G04 #@! TO.P,J2,1*
G04 #@! TO.N,Net-(J2-Pad1)*
X43180000Y-80518000D03*
G04 #@! TO.P,J2,3*
G04 #@! TO.N,Net-(J2-Pad3)*
X43180000Y-78518000D03*
G04 #@! TO.P,J2,5*
G04 #@! TO.N,Net-(J2-Pad5)*
X43180000Y-76518000D03*
G04 #@! TO.P,J2,7*
G04 #@! TO.N,Net-(J2-Pad7)*
X43180000Y-74518000D03*
G04 #@! TO.P,J2,9*
G04 #@! TO.N,Net-(J2-Pad9)*
X43180000Y-72518000D03*
G04 #@! TO.P,J2,11*
G04 #@! TO.N,Net-(J2-Pad11)*
X43180000Y-70518000D03*
G04 #@! TO.P,J2,13*
G04 #@! TO.N,GND*
X43180000Y-68518000D03*
G04 #@! TO.P,J2,2*
G04 #@! TO.N,Net-(J2-Pad2)*
X45180000Y-80518000D03*
G04 #@! TO.P,J2,4*
G04 #@! TO.N,Net-(J2-Pad4)*
X45180000Y-78518000D03*
G04 #@! TO.P,J2,6*
G04 #@! TO.N,Net-(J2-Pad6)*
X45180000Y-76518000D03*
G04 #@! TO.P,J2,8*
G04 #@! TO.N,Net-(J2-Pad8)*
X45180000Y-74518000D03*
G04 #@! TO.P,J2,10*
G04 #@! TO.N,Net-(J2-Pad10)*
X45180000Y-72518000D03*
G04 #@! TO.P,J2,12*
G04 #@! TO.N,GND*
X45180000Y-70518000D03*
G04 #@! TO.P,J2,14*
X45180000Y-68518000D03*
G04 #@! TD*
D21*
G04 #@! TO.P,J3,1*
G04 #@! TO.N,+12V*
X69088000Y-59944000D03*
D22*
G04 #@! TO.P,J3,2*
G04 #@! TO.N,Net-(C1-Pad1)*
X69088000Y-57404000D03*
G04 #@! TO.P,J3,3*
G04 #@! TO.N,Net-(J2-Pad1)*
X69088000Y-54864000D03*
G04 #@! TD*
D23*
G04 #@! TO.P,J4,2*
G04 #@! TO.N,GND*
X106172000Y-98552000D03*
G04 #@! TO.P,J4,1*
G04 #@! TO.N,Net-(J4-Pad1)*
X103632000Y-98552000D03*
D24*
G04 #@! TO.P,J4,2*
G04 #@! TO.N,GND*
X98552000Y-103632000D03*
X108712000Y-103632000D03*
G04 #@! TD*
D23*
G04 #@! TO.P,J5,2*
G04 #@! TO.N,GND*
X69596000Y-98552000D03*
G04 #@! TO.P,J5,1*
G04 #@! TO.N,Net-(J5-Pad1)*
X67056000Y-98552000D03*
D24*
G04 #@! TO.P,J5,2*
G04 #@! TO.N,GND*
X61976000Y-103632000D03*
X72136000Y-103632000D03*
G04 #@! TD*
G04 #@! TO.P,J6,2*
G04 #@! TO.N,GND*
X88900000Y-103632000D03*
X78740000Y-103632000D03*
D23*
G04 #@! TO.P,J6,1*
G04 #@! TO.N,Net-(J6-Pad1)*
X83820000Y-98552000D03*
G04 #@! TO.P,J6,2*
G04 #@! TO.N,GND*
X86360000Y-98552000D03*
G04 #@! TD*
D24*
G04 #@! TO.P,J7,2*
G04 #@! TO.N,GND*
X55372000Y-103632000D03*
X45212000Y-103632000D03*
D23*
G04 #@! TO.P,J7,1*
G04 #@! TO.N,Net-(J7-Pad1)*
X50292000Y-98552000D03*
G04 #@! TO.P,J7,2*
G04 #@! TO.N,GND*
X52832000Y-98552000D03*
G04 #@! TD*
D25*
G04 #@! TO.P,L1,1*
G04 #@! TO.N,Net-(D1-Pad1)*
X103632000Y-59944000D03*
G04 #@! TO.P,L1,2*
G04 #@! TO.N,VCC*
X103632000Y-54944000D03*
G04 #@! TD*
D21*
G04 #@! TO.P,J8,1*
G04 #@! TO.N,Net-(J8-Pad1)*
X112268000Y-87884000D03*
D22*
G04 #@! TO.P,J8,2*
G04 #@! TO.N,Net-(J8-Pad2)*
X112268000Y-85344000D03*
G04 #@! TO.P,J8,3*
G04 #@! TO.N,VCC*
X112268000Y-82804000D03*
G04 #@! TD*
D26*
G04 #@! TO.N,VCC*
X68580000Y-73152000D03*
X61468000Y-73152000D03*
X56896000Y-81280000D03*
X59944000Y-83312000D03*
X58420000Y-67564000D03*
X53340000Y-73660000D03*
X74168000Y-83820000D03*
G04 #@! TO.N,Net-(D1-Pad1)*
X87884000Y-55372000D03*
G04 #@! TO.N,Net-(J2-Pad7)*
X52324000Y-66548000D03*
G04 #@! TO.N,Net-(J2-Pad8)*
X47244000Y-77470000D03*
X47244000Y-75793000D03*
X47244000Y-75793000D03*
G04 #@! TO.N,Net-(J5-Pad1)*
X64008000Y-77216000D03*
G04 #@! TO.N,Net-(J6-Pad1)*
X67056000Y-74676000D03*
X67056000Y-72136000D03*
X63500000Y-66548000D03*
G04 #@! TO.N,Net-(J7-Pad1)*
X66040000Y-92456000D03*
X66548000Y-88392000D03*
G04 #@! TO.N,Net-(U2-Pad4)*
X57912000Y-78232000D03*
X59944000Y-79248000D03*
G04 #@! TO.N,Net-(J8-Pad2)*
X98044000Y-90424000D03*
X71120000Y-90424000D03*
X61468000Y-80264000D03*
X65532000Y-77216000D03*
G04 #@! TD*
D27*
G04 #@! TO.N,Net-(C1-Pad1)*
X87376000Y-57524000D02*
X87376000Y-60452000D01*
X78994000Y-55372000D02*
X85224000Y-55372000D01*
X85224000Y-55372000D02*
X87376000Y-57524000D01*
G04 #@! TO.N,VCC*
X68580000Y-73152000D02*
X61468000Y-73152000D01*
X56896000Y-81280000D02*
X58928000Y-83312000D01*
X58928000Y-83312000D02*
X59944000Y-83312000D01*
X78232000Y-82804000D02*
X68580000Y-73152000D01*
X61468000Y-73152000D02*
X58928000Y-70612000D01*
X58928000Y-70612000D02*
X58420000Y-70104000D01*
X58420000Y-70104000D02*
X58420000Y-67564000D01*
X53848000Y-73152000D02*
X53340000Y-73660000D01*
X58928000Y-73152000D02*
X53848000Y-73152000D01*
X61468000Y-73152000D02*
X58928000Y-73152000D01*
X56896000Y-75184000D02*
X56896000Y-81280000D01*
X58928000Y-73152000D02*
X56896000Y-75184000D01*
X78232000Y-82804000D02*
X75184000Y-82804000D01*
X75184000Y-82804000D02*
X74168000Y-83820000D01*
X105410000Y-81026000D02*
X107188000Y-82804000D01*
X105410000Y-73406000D02*
X105410000Y-81026000D01*
X112268000Y-82804000D02*
X107188000Y-82804000D01*
X107188000Y-82804000D02*
X78232000Y-82804000D01*
G04 #@! TO.N,Net-(D1-Pad1)*
X89943999Y-53820001D02*
X91440000Y-52324000D01*
X96012000Y-52324000D02*
X103632000Y-59944000D01*
X91440000Y-52324000D02*
X96012000Y-52324000D01*
X89943999Y-53820001D02*
X89435999Y-53820001D01*
X89435999Y-53820001D02*
X87884000Y-55372000D01*
G04 #@! TO.N,+12V*
X69088000Y-61044000D02*
X69088000Y-65024000D01*
X104394000Y-69596000D02*
X99060000Y-74930000D01*
X69088000Y-59944000D02*
X69088000Y-61044000D01*
X99060000Y-74930000D02*
X78740000Y-74930000D01*
X111760000Y-69596000D02*
X104394000Y-69596000D01*
X78740000Y-74930000D02*
X78740000Y-74676000D01*
X78740000Y-74676000D02*
X69088000Y-65024000D01*
G04 #@! TO.N,Net-(J2-Pad1)*
X43180000Y-80518000D02*
X41910000Y-80518000D01*
X41910000Y-80518000D02*
X40640000Y-79248000D01*
X51816000Y-54864000D02*
X69088000Y-54864000D01*
X42672000Y-63500000D02*
X40640000Y-65532000D01*
X51308000Y-54864000D02*
X42672000Y-63500000D01*
X51816000Y-54864000D02*
X51308000Y-54864000D01*
X40640000Y-79248000D02*
X40640000Y-65532000D01*
G04 #@! TO.N,Net-(J2-Pad7)*
X42580001Y-73918001D02*
X42422001Y-73918001D01*
X43180000Y-74518000D02*
X42580001Y-73918001D01*
X42422001Y-73918001D02*
X41656000Y-73152000D01*
X41656000Y-73152000D02*
X41656000Y-67564000D01*
X41656000Y-67564000D02*
X41656000Y-67056000D01*
X41656000Y-67056000D02*
X43180000Y-65532000D01*
X43180000Y-65532000D02*
X51308000Y-65532000D01*
X51308000Y-65532000D02*
X52324000Y-66548000D01*
G04 #@! TO.N,Net-(J2-Pad8)*
X47244000Y-75692000D02*
X47244000Y-75793000D01*
X47244000Y-77470000D02*
X47244000Y-75793000D01*
G04 #@! TO.N,Net-(J5-Pad1)*
X58928000Y-88900000D02*
X58928000Y-85344000D01*
X58928000Y-85344000D02*
X59436000Y-84836000D01*
X60292001Y-84037001D02*
X60669001Y-83660001D01*
X59436000Y-84836000D02*
X60234999Y-84037001D01*
X60234999Y-84037001D02*
X60292001Y-84037001D01*
X60669001Y-79989997D02*
X61410998Y-79248000D01*
X60669001Y-83660001D02*
X60669001Y-79989997D01*
X61410998Y-79248000D02*
X63500000Y-79248000D01*
X63500000Y-79248000D02*
X64008000Y-78740000D01*
X64008000Y-78740000D02*
X64008000Y-77216000D01*
X58928000Y-91474000D02*
X58928000Y-89465685D01*
X66006000Y-98552000D02*
X58928000Y-91474000D01*
X58928000Y-89465685D02*
X58928000Y-88900000D01*
X67056000Y-98552000D02*
X66006000Y-98552000D01*
G04 #@! TO.N,Net-(J6-Pad1)*
X83820000Y-98552000D02*
X81788000Y-98552000D01*
X72644000Y-89408000D02*
X67564000Y-84328000D01*
X67056000Y-83820000D02*
X67056000Y-74676000D01*
X74676000Y-91440000D02*
X72644000Y-89408000D01*
X81788000Y-98552000D02*
X74676000Y-91440000D01*
X67564000Y-84328000D02*
X67056000Y-83820000D01*
X67056000Y-72136000D02*
X67056000Y-70104000D01*
X67056000Y-70104000D02*
X63500000Y-66548000D01*
G04 #@! TO.N,Net-(J7-Pad1)*
X66040000Y-92456000D02*
X66548000Y-91948000D01*
X66548000Y-91948000D02*
X66548000Y-88392000D01*
G04 #@! TO.N,Net-(U2-Pad4)*
X57912000Y-78232000D02*
X58928000Y-78232000D01*
X58928000Y-78232000D02*
X59944000Y-79248000D01*
G04 #@! TO.N,Net-(J8-Pad2)*
X112268000Y-85344000D02*
X103124000Y-85344000D01*
X103124000Y-85344000D02*
X99568000Y-88900000D01*
X99568000Y-88900000D02*
X98044000Y-90424000D01*
X71120000Y-90424000D02*
X65532000Y-84836000D01*
X65532000Y-84836000D02*
X61976000Y-81280000D01*
X61976000Y-81280000D02*
X61468000Y-80772000D01*
X61468000Y-80772000D02*
X61468000Y-80264000D01*
X65532000Y-84836000D02*
X65532000Y-77216000D01*
G04 #@! TD*
M02*
