G04 #@! TF.GenerationSoftware,KiCad,Pcbnew,5.0.2-bee76a0~70~ubuntu18.04.1*
G04 #@! TF.CreationDate,2019-01-20T23:04:17+00:00*
G04 #@! TF.ProjectId,Lcr_addon,4c63725f-6164-4646-9f6e-2e6b69636164,rev?*
G04 #@! TF.SameCoordinates,Original*
G04 #@! TF.FileFunction,Other,ECO2*
%FSLAX46Y46*%
G04 Gerber Fmt 4.6, Leading zero omitted, Abs format (unit mm)*
G04 Created by KiCad (PCBNEW 5.0.2-bee76a0~70~ubuntu18.04.1) date Sun 20 Jan 2019 23:04:17 GMT*
%MOMM*%
%LPD*%
G01*
G04 APERTURE LIST*
%ADD10C,0.300000*%
G04 APERTURE END LIST*
D10*
X73319428Y-135525428D02*
X73176571Y-135454000D01*
X73105142Y-135382571D01*
X73033714Y-135239714D01*
X73033714Y-135168285D01*
X73105142Y-135025428D01*
X73176571Y-134954000D01*
X73319428Y-134882571D01*
X73605142Y-134882571D01*
X73748000Y-134954000D01*
X73819428Y-135025428D01*
X73890857Y-135168285D01*
X73890857Y-135239714D01*
X73819428Y-135382571D01*
X73748000Y-135454000D01*
X73605142Y-135525428D01*
X73319428Y-135525428D01*
X73176571Y-135596857D01*
X73105142Y-135668285D01*
X73033714Y-135811142D01*
X73033714Y-136096857D01*
X73105142Y-136239714D01*
X73176571Y-136311142D01*
X73319428Y-136382571D01*
X73605142Y-136382571D01*
X73748000Y-136311142D01*
X73819428Y-136239714D01*
X73890857Y-136096857D01*
X73890857Y-135811142D01*
X73819428Y-135668285D01*
X73748000Y-135596857D01*
X73605142Y-135525428D01*
X75248000Y-134882571D02*
X74533714Y-134882571D01*
X74462285Y-135596857D01*
X74533714Y-135525428D01*
X74676571Y-135454000D01*
X75033714Y-135454000D01*
X75176571Y-135525428D01*
X75248000Y-135596857D01*
X75319428Y-135739714D01*
X75319428Y-136096857D01*
X75248000Y-136239714D01*
X75176571Y-136311142D01*
X75033714Y-136382571D01*
X74676571Y-136382571D01*
X74533714Y-136311142D01*
X74462285Y-136239714D01*
X75962285Y-136239714D02*
X76033714Y-136311142D01*
X75962285Y-136382571D01*
X75890857Y-136311142D01*
X75962285Y-136239714D01*
X75962285Y-136382571D01*
X76533714Y-134882571D02*
X77462285Y-134882571D01*
X76962285Y-135454000D01*
X77176571Y-135454000D01*
X77319428Y-135525428D01*
X77390857Y-135596857D01*
X77462285Y-135739714D01*
X77462285Y-136096857D01*
X77390857Y-136239714D01*
X77319428Y-136311142D01*
X77176571Y-136382571D01*
X76748000Y-136382571D01*
X76605142Y-136311142D01*
X76533714Y-136239714D01*
X78748000Y-135382571D02*
X78748000Y-136382571D01*
X78390857Y-134811142D02*
X78033714Y-135882571D01*
X78962285Y-135882571D01*
X80176571Y-135382571D02*
X80176571Y-136382571D01*
X79819428Y-134811142D02*
X79462285Y-135882571D01*
X80390857Y-135882571D01*
X82105142Y-136382571D02*
X82105142Y-135382571D01*
X82105142Y-135525428D02*
X82176571Y-135454000D01*
X82319428Y-135382571D01*
X82533714Y-135382571D01*
X82676571Y-135454000D01*
X82748000Y-135596857D01*
X82748000Y-136382571D01*
X82748000Y-135596857D02*
X82819428Y-135454000D01*
X82962285Y-135382571D01*
X83176571Y-135382571D01*
X83319428Y-135454000D01*
X83390857Y-135596857D01*
X83390857Y-136382571D01*
X84105142Y-136382571D02*
X84105142Y-135382571D01*
X84105142Y-135525428D02*
X84176571Y-135454000D01*
X84319428Y-135382571D01*
X84533714Y-135382571D01*
X84676571Y-135454000D01*
X84748000Y-135596857D01*
X84748000Y-136382571D01*
X84748000Y-135596857D02*
X84819428Y-135454000D01*
X84962285Y-135382571D01*
X85176571Y-135382571D01*
X85319428Y-135454000D01*
X85390857Y-135596857D01*
X85390857Y-136382571D01*
X36576000Y-133604000D02*
X121920000Y-133604000D01*
X36576000Y-111760000D02*
X36576000Y-134190421D01*
X121920000Y-111760000D02*
X121920000Y-134190421D01*
X121920000Y-133604000D02*
X120793496Y-134190421D01*
X121920000Y-133604000D02*
X120793496Y-133017579D01*
X36576000Y-133604000D02*
X37702504Y-134190421D01*
X36576000Y-133604000D02*
X37702504Y-133017579D01*
X21581428Y-76161000D02*
X21581428Y-75875285D01*
X21510000Y-75732428D01*
X21438571Y-75661000D01*
X21224285Y-75518142D01*
X20938571Y-75446714D01*
X20367142Y-75446714D01*
X20224285Y-75518142D01*
X20152857Y-75589571D01*
X20081428Y-75732428D01*
X20081428Y-76018142D01*
X20152857Y-76161000D01*
X20224285Y-76232428D01*
X20367142Y-76303857D01*
X20724285Y-76303857D01*
X20867142Y-76232428D01*
X20938571Y-76161000D01*
X21010000Y-76018142D01*
X21010000Y-75732428D01*
X20938571Y-75589571D01*
X20867142Y-75518142D01*
X20724285Y-75446714D01*
X21581428Y-77232428D02*
X21581428Y-77375285D01*
X21510000Y-77518142D01*
X21438571Y-77589571D01*
X21295714Y-77661000D01*
X21010000Y-77732428D01*
X20652857Y-77732428D01*
X20367142Y-77661000D01*
X20224285Y-77589571D01*
X20152857Y-77518142D01*
X20081428Y-77375285D01*
X20081428Y-77232428D01*
X20152857Y-77089571D01*
X20224285Y-77018142D01*
X20367142Y-76946714D01*
X20652857Y-76875285D01*
X21010000Y-76875285D01*
X21295714Y-76946714D01*
X21438571Y-77018142D01*
X21510000Y-77089571D01*
X21581428Y-77232428D01*
X20224285Y-78375285D02*
X20152857Y-78446714D01*
X20081428Y-78375285D01*
X20152857Y-78303857D01*
X20224285Y-78375285D01*
X20081428Y-78375285D01*
X20081428Y-79875285D02*
X20081428Y-79018142D01*
X20081428Y-79446714D02*
X21581428Y-79446714D01*
X21367142Y-79303857D01*
X21224285Y-79161000D01*
X21152857Y-79018142D01*
X20081428Y-80589571D02*
X20081428Y-80875285D01*
X20152857Y-81018142D01*
X20224285Y-81089571D01*
X20438571Y-81232428D01*
X20724285Y-81303857D01*
X21295714Y-81303857D01*
X21438571Y-81232428D01*
X21510000Y-81161000D01*
X21581428Y-81018142D01*
X21581428Y-80732428D01*
X21510000Y-80589571D01*
X21438571Y-80518142D01*
X21295714Y-80446714D01*
X20938571Y-80446714D01*
X20795714Y-80518142D01*
X20724285Y-80589571D01*
X20652857Y-80732428D01*
X20652857Y-81018142D01*
X20724285Y-81161000D01*
X20795714Y-81232428D01*
X20938571Y-81303857D01*
X20938571Y-82161000D02*
X21010000Y-82018142D01*
X21081428Y-81946714D01*
X21224285Y-81875285D01*
X21295714Y-81875285D01*
X21438571Y-81946714D01*
X21510000Y-82018142D01*
X21581428Y-82161000D01*
X21581428Y-82446714D01*
X21510000Y-82589571D01*
X21438571Y-82661000D01*
X21295714Y-82732428D01*
X21224285Y-82732428D01*
X21081428Y-82661000D01*
X21010000Y-82589571D01*
X20938571Y-82446714D01*
X20938571Y-82161000D01*
X20867142Y-82018142D01*
X20795714Y-81946714D01*
X20652857Y-81875285D01*
X20367142Y-81875285D01*
X20224285Y-81946714D01*
X20152857Y-82018142D01*
X20081428Y-82161000D01*
X20081428Y-82446714D01*
X20152857Y-82589571D01*
X20224285Y-82661000D01*
X20367142Y-82732428D01*
X20652857Y-82732428D01*
X20795714Y-82661000D01*
X20867142Y-82589571D01*
X20938571Y-82446714D01*
X20081428Y-84518142D02*
X21081428Y-84518142D01*
X20938571Y-84518142D02*
X21010000Y-84589571D01*
X21081428Y-84732428D01*
X21081428Y-84946714D01*
X21010000Y-85089571D01*
X20867142Y-85161000D01*
X20081428Y-85161000D01*
X20867142Y-85161000D02*
X21010000Y-85232428D01*
X21081428Y-85375285D01*
X21081428Y-85589571D01*
X21010000Y-85732428D01*
X20867142Y-85803857D01*
X20081428Y-85803857D01*
X20081428Y-86518142D02*
X21081428Y-86518142D01*
X20938571Y-86518142D02*
X21010000Y-86589571D01*
X21081428Y-86732428D01*
X21081428Y-86946714D01*
X21010000Y-87089571D01*
X20867142Y-87161000D01*
X20081428Y-87161000D01*
X20867142Y-87161000D02*
X21010000Y-87232428D01*
X21081428Y-87375285D01*
X21081428Y-87589571D01*
X21010000Y-87732428D01*
X20867142Y-87803857D01*
X20081428Y-87803857D01*
X22860000Y-51562000D02*
X22860000Y-111760000D01*
X36576000Y-51562000D02*
X22273579Y-51562000D01*
X36576000Y-111760000D02*
X22273579Y-111760000D01*
X22860000Y-111760000D02*
X22273579Y-110633496D01*
X22860000Y-111760000D02*
X23446421Y-110633496D01*
X22860000Y-51562000D02*
X22273579Y-52688504D01*
X22860000Y-51562000D02*
X23446421Y-52688504D01*
M02*
