G04 #@! TF.GenerationSoftware,KiCad,Pcbnew,5.0.2-bee76a0~70~ubuntu18.04.1*
G04 #@! TF.CreationDate,2019-01-20T23:04:17+00:00*
G04 #@! TF.ProjectId,Lcr_addon,4c63725f-6164-4646-9f6e-2e6b69636164,rev?*
G04 #@! TF.SameCoordinates,Original*
G04 #@! TF.FileFunction,Legend,Top*
G04 #@! TF.FilePolarity,Positive*
%FSLAX46Y46*%
G04 Gerber Fmt 4.6, Leading zero omitted, Abs format (unit mm)*
G04 Created by KiCad (PCBNEW 5.0.2-bee76a0~70~ubuntu18.04.1) date Sun 20 Jan 2019 23:04:17 GMT*
%MOMM*%
%LPD*%
G01*
G04 APERTURE LIST*
%ADD10C,0.120000*%
%ADD11C,0.150000*%
G04 APERTURE END LIST*
D10*
G04 #@! TO.C,U4*
X85655000Y-52132000D02*
X95896000Y-52132000D01*
X85655000Y-56773000D02*
X88011000Y-56773000D01*
X90141000Y-56773000D02*
X91411000Y-56773000D01*
X93541000Y-56773000D02*
X95896000Y-56773000D01*
X85655000Y-52132000D02*
X85655000Y-56773000D01*
X95896000Y-52132000D02*
X95896000Y-56773000D01*
X85655000Y-53641000D02*
X95896000Y-53641000D01*
X88926000Y-52132000D02*
X88926000Y-53641000D01*
X92626000Y-52132000D02*
X92626000Y-53641000D01*
X87376000Y-56773000D02*
X87376000Y-59403000D01*
X90776000Y-56773000D02*
X90776000Y-59387000D01*
X94176000Y-56773000D02*
X94176000Y-59387000D01*
G04 #@! TO.C,U6*
X63068000Y-77508000D02*
X63068000Y-75908000D01*
X59868000Y-75908000D02*
X59868000Y-78208000D01*
G04 #@! TO.C,C1*
X81148000Y-53436759D02*
X80518000Y-53436759D01*
X80833000Y-53121759D02*
X80833000Y-53751759D01*
X79396000Y-59863000D02*
X78592000Y-59863000D01*
X79627000Y-59823000D02*
X78361000Y-59823000D01*
X79796000Y-59783000D02*
X78192000Y-59783000D01*
X79934000Y-59743000D02*
X78054000Y-59743000D01*
X80053000Y-59703000D02*
X77935000Y-59703000D01*
X80159000Y-59663000D02*
X77829000Y-59663000D01*
X80256000Y-59623000D02*
X77732000Y-59623000D01*
X80344000Y-59583000D02*
X77644000Y-59583000D01*
X80426000Y-59543000D02*
X77562000Y-59543000D01*
X80503000Y-59503000D02*
X77485000Y-59503000D01*
X80575000Y-59463000D02*
X77413000Y-59463000D01*
X80644000Y-59423000D02*
X77344000Y-59423000D01*
X80708000Y-59383000D02*
X77280000Y-59383000D01*
X80770000Y-59343000D02*
X77218000Y-59343000D01*
X80828000Y-59303000D02*
X77160000Y-59303000D01*
X80884000Y-59263000D02*
X77104000Y-59263000D01*
X80938000Y-59223000D02*
X77050000Y-59223000D01*
X80989000Y-59183000D02*
X76999000Y-59183000D01*
X81038000Y-59143000D02*
X76950000Y-59143000D01*
X81086000Y-59103000D02*
X76902000Y-59103000D01*
X81131000Y-59063000D02*
X76857000Y-59063000D01*
X81176000Y-59023000D02*
X76812000Y-59023000D01*
X81218000Y-58983000D02*
X76770000Y-58983000D01*
X81259000Y-58943000D02*
X76729000Y-58943000D01*
X77954000Y-58903000D02*
X76689000Y-58903000D01*
X81299000Y-58903000D02*
X80034000Y-58903000D01*
X77954000Y-58863000D02*
X76651000Y-58863000D01*
X81337000Y-58863000D02*
X80034000Y-58863000D01*
X77954000Y-58823000D02*
X76614000Y-58823000D01*
X81374000Y-58823000D02*
X80034000Y-58823000D01*
X77954000Y-58783000D02*
X76578000Y-58783000D01*
X81410000Y-58783000D02*
X80034000Y-58783000D01*
X77954000Y-58743000D02*
X76544000Y-58743000D01*
X81444000Y-58743000D02*
X80034000Y-58743000D01*
X77954000Y-58703000D02*
X76510000Y-58703000D01*
X81478000Y-58703000D02*
X80034000Y-58703000D01*
X77954000Y-58663000D02*
X76478000Y-58663000D01*
X81510000Y-58663000D02*
X80034000Y-58663000D01*
X77954000Y-58623000D02*
X76446000Y-58623000D01*
X81542000Y-58623000D02*
X80034000Y-58623000D01*
X77954000Y-58583000D02*
X76416000Y-58583000D01*
X81572000Y-58583000D02*
X80034000Y-58583000D01*
X77954000Y-58543000D02*
X76387000Y-58543000D01*
X81601000Y-58543000D02*
X80034000Y-58543000D01*
X77954000Y-58503000D02*
X76358000Y-58503000D01*
X81630000Y-58503000D02*
X80034000Y-58503000D01*
X77954000Y-58463000D02*
X76330000Y-58463000D01*
X81658000Y-58463000D02*
X80034000Y-58463000D01*
X77954000Y-58423000D02*
X76304000Y-58423000D01*
X81684000Y-58423000D02*
X80034000Y-58423000D01*
X77954000Y-58383000D02*
X76278000Y-58383000D01*
X81710000Y-58383000D02*
X80034000Y-58383000D01*
X77954000Y-58343000D02*
X76252000Y-58343000D01*
X81736000Y-58343000D02*
X80034000Y-58343000D01*
X77954000Y-58303000D02*
X76228000Y-58303000D01*
X81760000Y-58303000D02*
X80034000Y-58303000D01*
X77954000Y-58263000D02*
X76204000Y-58263000D01*
X81784000Y-58263000D02*
X80034000Y-58263000D01*
X77954000Y-58223000D02*
X76182000Y-58223000D01*
X81806000Y-58223000D02*
X80034000Y-58223000D01*
X77954000Y-58183000D02*
X76160000Y-58183000D01*
X81828000Y-58183000D02*
X80034000Y-58183000D01*
X77954000Y-58143000D02*
X76138000Y-58143000D01*
X81850000Y-58143000D02*
X80034000Y-58143000D01*
X77954000Y-58103000D02*
X76118000Y-58103000D01*
X81870000Y-58103000D02*
X80034000Y-58103000D01*
X77954000Y-58063000D02*
X76098000Y-58063000D01*
X81890000Y-58063000D02*
X80034000Y-58063000D01*
X77954000Y-58023000D02*
X76078000Y-58023000D01*
X81910000Y-58023000D02*
X80034000Y-58023000D01*
X77954000Y-57983000D02*
X76060000Y-57983000D01*
X81928000Y-57983000D02*
X80034000Y-57983000D01*
X77954000Y-57943000D02*
X76042000Y-57943000D01*
X81946000Y-57943000D02*
X80034000Y-57943000D01*
X77954000Y-57903000D02*
X76024000Y-57903000D01*
X81964000Y-57903000D02*
X80034000Y-57903000D01*
X77954000Y-57863000D02*
X76008000Y-57863000D01*
X81980000Y-57863000D02*
X80034000Y-57863000D01*
X77954000Y-57823000D02*
X75992000Y-57823000D01*
X81996000Y-57823000D02*
X80034000Y-57823000D01*
X77954000Y-57783000D02*
X75976000Y-57783000D01*
X82012000Y-57783000D02*
X80034000Y-57783000D01*
X77954000Y-57743000D02*
X75961000Y-57743000D01*
X82027000Y-57743000D02*
X80034000Y-57743000D01*
X77954000Y-57703000D02*
X75947000Y-57703000D01*
X82041000Y-57703000D02*
X80034000Y-57703000D01*
X77954000Y-57663000D02*
X75933000Y-57663000D01*
X82055000Y-57663000D02*
X80034000Y-57663000D01*
X77954000Y-57623000D02*
X75920000Y-57623000D01*
X82068000Y-57623000D02*
X80034000Y-57623000D01*
X77954000Y-57583000D02*
X75908000Y-57583000D01*
X82080000Y-57583000D02*
X80034000Y-57583000D01*
X77954000Y-57543000D02*
X75896000Y-57543000D01*
X82092000Y-57543000D02*
X80034000Y-57543000D01*
X77954000Y-57503000D02*
X75884000Y-57503000D01*
X82104000Y-57503000D02*
X80034000Y-57503000D01*
X77954000Y-57463000D02*
X75873000Y-57463000D01*
X82115000Y-57463000D02*
X80034000Y-57463000D01*
X77954000Y-57423000D02*
X75863000Y-57423000D01*
X82125000Y-57423000D02*
X80034000Y-57423000D01*
X77954000Y-57383000D02*
X75853000Y-57383000D01*
X82135000Y-57383000D02*
X80034000Y-57383000D01*
X77954000Y-57343000D02*
X75844000Y-57343000D01*
X82144000Y-57343000D02*
X80034000Y-57343000D01*
X77954000Y-57302000D02*
X75835000Y-57302000D01*
X82153000Y-57302000D02*
X80034000Y-57302000D01*
X77954000Y-57262000D02*
X75827000Y-57262000D01*
X82161000Y-57262000D02*
X80034000Y-57262000D01*
X77954000Y-57222000D02*
X75819000Y-57222000D01*
X82169000Y-57222000D02*
X80034000Y-57222000D01*
X77954000Y-57182000D02*
X75812000Y-57182000D01*
X82176000Y-57182000D02*
X80034000Y-57182000D01*
X77954000Y-57142000D02*
X75805000Y-57142000D01*
X82183000Y-57142000D02*
X80034000Y-57142000D01*
X77954000Y-57102000D02*
X75799000Y-57102000D01*
X82189000Y-57102000D02*
X80034000Y-57102000D01*
X77954000Y-57062000D02*
X75793000Y-57062000D01*
X82195000Y-57062000D02*
X80034000Y-57062000D01*
X77954000Y-57022000D02*
X75788000Y-57022000D01*
X82200000Y-57022000D02*
X80034000Y-57022000D01*
X77954000Y-56982000D02*
X75783000Y-56982000D01*
X82205000Y-56982000D02*
X80034000Y-56982000D01*
X77954000Y-56942000D02*
X75779000Y-56942000D01*
X82209000Y-56942000D02*
X80034000Y-56942000D01*
X77954000Y-56902000D02*
X75776000Y-56902000D01*
X82212000Y-56902000D02*
X80034000Y-56902000D01*
X77954000Y-56862000D02*
X75772000Y-56862000D01*
X82216000Y-56862000D02*
X80034000Y-56862000D01*
X82218000Y-56822000D02*
X75770000Y-56822000D01*
X82221000Y-56782000D02*
X75767000Y-56782000D01*
X82222000Y-56742000D02*
X75766000Y-56742000D01*
X82224000Y-56702000D02*
X75764000Y-56702000D01*
X82224000Y-56662000D02*
X75764000Y-56662000D01*
X82224000Y-56622000D02*
X75764000Y-56622000D01*
X82264000Y-56622000D02*
G75*
G03X82264000Y-56622000I-3270000J0D01*
G01*
G04 #@! TO.C,C2*
X107430000Y-73406000D02*
G75*
G03X107430000Y-73406000I-3270000J0D01*
G01*
X104160000Y-76636000D02*
X104160000Y-70176000D01*
X104120000Y-76636000D02*
X104120000Y-70176000D01*
X104080000Y-76636000D02*
X104080000Y-70176000D01*
X104040000Y-76634000D02*
X104040000Y-70178000D01*
X104000000Y-76633000D02*
X104000000Y-70179000D01*
X103960000Y-76630000D02*
X103960000Y-70182000D01*
X103920000Y-76628000D02*
X103920000Y-74446000D01*
X103920000Y-72366000D02*
X103920000Y-70184000D01*
X103880000Y-76624000D02*
X103880000Y-74446000D01*
X103880000Y-72366000D02*
X103880000Y-70188000D01*
X103840000Y-76621000D02*
X103840000Y-74446000D01*
X103840000Y-72366000D02*
X103840000Y-70191000D01*
X103800000Y-76617000D02*
X103800000Y-74446000D01*
X103800000Y-72366000D02*
X103800000Y-70195000D01*
X103760000Y-76612000D02*
X103760000Y-74446000D01*
X103760000Y-72366000D02*
X103760000Y-70200000D01*
X103720000Y-76607000D02*
X103720000Y-74446000D01*
X103720000Y-72366000D02*
X103720000Y-70205000D01*
X103680000Y-76601000D02*
X103680000Y-74446000D01*
X103680000Y-72366000D02*
X103680000Y-70211000D01*
X103640000Y-76595000D02*
X103640000Y-74446000D01*
X103640000Y-72366000D02*
X103640000Y-70217000D01*
X103600000Y-76588000D02*
X103600000Y-74446000D01*
X103600000Y-72366000D02*
X103600000Y-70224000D01*
X103560000Y-76581000D02*
X103560000Y-74446000D01*
X103560000Y-72366000D02*
X103560000Y-70231000D01*
X103520000Y-76573000D02*
X103520000Y-74446000D01*
X103520000Y-72366000D02*
X103520000Y-70239000D01*
X103480000Y-76565000D02*
X103480000Y-74446000D01*
X103480000Y-72366000D02*
X103480000Y-70247000D01*
X103439000Y-76556000D02*
X103439000Y-74446000D01*
X103439000Y-72366000D02*
X103439000Y-70256000D01*
X103399000Y-76547000D02*
X103399000Y-74446000D01*
X103399000Y-72366000D02*
X103399000Y-70265000D01*
X103359000Y-76537000D02*
X103359000Y-74446000D01*
X103359000Y-72366000D02*
X103359000Y-70275000D01*
X103319000Y-76527000D02*
X103319000Y-74446000D01*
X103319000Y-72366000D02*
X103319000Y-70285000D01*
X103279000Y-76516000D02*
X103279000Y-74446000D01*
X103279000Y-72366000D02*
X103279000Y-70296000D01*
X103239000Y-76504000D02*
X103239000Y-74446000D01*
X103239000Y-72366000D02*
X103239000Y-70308000D01*
X103199000Y-76492000D02*
X103199000Y-74446000D01*
X103199000Y-72366000D02*
X103199000Y-70320000D01*
X103159000Y-76480000D02*
X103159000Y-74446000D01*
X103159000Y-72366000D02*
X103159000Y-70332000D01*
X103119000Y-76467000D02*
X103119000Y-74446000D01*
X103119000Y-72366000D02*
X103119000Y-70345000D01*
X103079000Y-76453000D02*
X103079000Y-74446000D01*
X103079000Y-72366000D02*
X103079000Y-70359000D01*
X103039000Y-76439000D02*
X103039000Y-74446000D01*
X103039000Y-72366000D02*
X103039000Y-70373000D01*
X102999000Y-76424000D02*
X102999000Y-74446000D01*
X102999000Y-72366000D02*
X102999000Y-70388000D01*
X102959000Y-76408000D02*
X102959000Y-74446000D01*
X102959000Y-72366000D02*
X102959000Y-70404000D01*
X102919000Y-76392000D02*
X102919000Y-74446000D01*
X102919000Y-72366000D02*
X102919000Y-70420000D01*
X102879000Y-76376000D02*
X102879000Y-74446000D01*
X102879000Y-72366000D02*
X102879000Y-70436000D01*
X102839000Y-76358000D02*
X102839000Y-74446000D01*
X102839000Y-72366000D02*
X102839000Y-70454000D01*
X102799000Y-76340000D02*
X102799000Y-74446000D01*
X102799000Y-72366000D02*
X102799000Y-70472000D01*
X102759000Y-76322000D02*
X102759000Y-74446000D01*
X102759000Y-72366000D02*
X102759000Y-70490000D01*
X102719000Y-76302000D02*
X102719000Y-74446000D01*
X102719000Y-72366000D02*
X102719000Y-70510000D01*
X102679000Y-76282000D02*
X102679000Y-74446000D01*
X102679000Y-72366000D02*
X102679000Y-70530000D01*
X102639000Y-76262000D02*
X102639000Y-74446000D01*
X102639000Y-72366000D02*
X102639000Y-70550000D01*
X102599000Y-76240000D02*
X102599000Y-74446000D01*
X102599000Y-72366000D02*
X102599000Y-70572000D01*
X102559000Y-76218000D02*
X102559000Y-74446000D01*
X102559000Y-72366000D02*
X102559000Y-70594000D01*
X102519000Y-76196000D02*
X102519000Y-74446000D01*
X102519000Y-72366000D02*
X102519000Y-70616000D01*
X102479000Y-76172000D02*
X102479000Y-74446000D01*
X102479000Y-72366000D02*
X102479000Y-70640000D01*
X102439000Y-76148000D02*
X102439000Y-74446000D01*
X102439000Y-72366000D02*
X102439000Y-70664000D01*
X102399000Y-76122000D02*
X102399000Y-74446000D01*
X102399000Y-72366000D02*
X102399000Y-70690000D01*
X102359000Y-76096000D02*
X102359000Y-74446000D01*
X102359000Y-72366000D02*
X102359000Y-70716000D01*
X102319000Y-76070000D02*
X102319000Y-74446000D01*
X102319000Y-72366000D02*
X102319000Y-70742000D01*
X102279000Y-76042000D02*
X102279000Y-74446000D01*
X102279000Y-72366000D02*
X102279000Y-70770000D01*
X102239000Y-76013000D02*
X102239000Y-74446000D01*
X102239000Y-72366000D02*
X102239000Y-70799000D01*
X102199000Y-75984000D02*
X102199000Y-74446000D01*
X102199000Y-72366000D02*
X102199000Y-70828000D01*
X102159000Y-75954000D02*
X102159000Y-74446000D01*
X102159000Y-72366000D02*
X102159000Y-70858000D01*
X102119000Y-75922000D02*
X102119000Y-74446000D01*
X102119000Y-72366000D02*
X102119000Y-70890000D01*
X102079000Y-75890000D02*
X102079000Y-74446000D01*
X102079000Y-72366000D02*
X102079000Y-70922000D01*
X102039000Y-75856000D02*
X102039000Y-74446000D01*
X102039000Y-72366000D02*
X102039000Y-70956000D01*
X101999000Y-75822000D02*
X101999000Y-74446000D01*
X101999000Y-72366000D02*
X101999000Y-70990000D01*
X101959000Y-75786000D02*
X101959000Y-74446000D01*
X101959000Y-72366000D02*
X101959000Y-71026000D01*
X101919000Y-75749000D02*
X101919000Y-74446000D01*
X101919000Y-72366000D02*
X101919000Y-71063000D01*
X101879000Y-75711000D02*
X101879000Y-74446000D01*
X101879000Y-72366000D02*
X101879000Y-71101000D01*
X101839000Y-75671000D02*
X101839000Y-71141000D01*
X101799000Y-75630000D02*
X101799000Y-71182000D01*
X101759000Y-75588000D02*
X101759000Y-71224000D01*
X101719000Y-75543000D02*
X101719000Y-71269000D01*
X101679000Y-75498000D02*
X101679000Y-71314000D01*
X101639000Y-75450000D02*
X101639000Y-71362000D01*
X101599000Y-75401000D02*
X101599000Y-71411000D01*
X101559000Y-75350000D02*
X101559000Y-71462000D01*
X101519000Y-75296000D02*
X101519000Y-71516000D01*
X101479000Y-75240000D02*
X101479000Y-71572000D01*
X101439000Y-75182000D02*
X101439000Y-71630000D01*
X101399000Y-75120000D02*
X101399000Y-71692000D01*
X101359000Y-75056000D02*
X101359000Y-71756000D01*
X101319000Y-74987000D02*
X101319000Y-71825000D01*
X101279000Y-74915000D02*
X101279000Y-71897000D01*
X101239000Y-74838000D02*
X101239000Y-71974000D01*
X101199000Y-74756000D02*
X101199000Y-72056000D01*
X101159000Y-74668000D02*
X101159000Y-72144000D01*
X101119000Y-74571000D02*
X101119000Y-72241000D01*
X101079000Y-74465000D02*
X101079000Y-72347000D01*
X101039000Y-74346000D02*
X101039000Y-72466000D01*
X100999000Y-74208000D02*
X100999000Y-72604000D01*
X100959000Y-74039000D02*
X100959000Y-72773000D01*
X100919000Y-73808000D02*
X100919000Y-73004000D01*
X107660241Y-75245000D02*
X107030241Y-75245000D01*
X107345241Y-75560000D02*
X107345241Y-74930000D01*
G04 #@! TO.C,D1*
X84284000Y-65606000D02*
X84284000Y-71046000D01*
X84284000Y-71046000D02*
X94024000Y-71046000D01*
X94024000Y-71046000D02*
X94024000Y-65606000D01*
X94024000Y-65606000D02*
X84284000Y-65606000D01*
X83374000Y-68326000D02*
X84284000Y-68326000D01*
X94934000Y-68326000D02*
X94024000Y-68326000D01*
X85829000Y-65606000D02*
X85829000Y-71046000D01*
X85949000Y-65606000D02*
X85949000Y-71046000D01*
X85709000Y-65606000D02*
X85709000Y-71046000D01*
G04 #@! TO.C,J1*
X110660000Y-73346000D02*
X110660000Y-74396000D01*
X111710000Y-74396000D02*
X110660000Y-74396000D01*
X116760000Y-64996000D02*
X125560000Y-64996000D01*
X125560000Y-64996000D02*
X125560000Y-74196000D01*
X110860000Y-67696000D02*
X110860000Y-64996000D01*
X110860000Y-64996000D02*
X112760000Y-64996000D01*
X125560000Y-74196000D02*
X110860000Y-74196000D01*
X110860000Y-74196000D02*
X110860000Y-71596000D01*
G04 #@! TO.C,J2*
X40030000Y-77768000D02*
X40780000Y-77768000D01*
X40780000Y-77768000D02*
X40780000Y-71268000D01*
X40780000Y-71268000D02*
X40030000Y-71268000D01*
X40030000Y-71268000D02*
X40030000Y-77768000D01*
X39170000Y-78518000D02*
X40780000Y-78518000D01*
X40780000Y-78518000D02*
X40780000Y-79268000D01*
X40780000Y-79268000D02*
X40030000Y-79268000D01*
X40030000Y-79268000D02*
X40030000Y-81768000D01*
X40030000Y-81768000D02*
X46830000Y-81768000D01*
X46830000Y-81768000D02*
X46830000Y-74518000D01*
X39170000Y-70518000D02*
X40780000Y-70518000D01*
X40780000Y-70518000D02*
X40780000Y-69768000D01*
X40780000Y-69768000D02*
X40030000Y-69768000D01*
X40030000Y-69768000D02*
X40030000Y-67268000D01*
X40030000Y-67268000D02*
X46830000Y-67268000D01*
X46830000Y-67268000D02*
X46830000Y-74518000D01*
X39170000Y-82628000D02*
X47690000Y-82628000D01*
X47690000Y-82628000D02*
X47690000Y-66408000D01*
X47690000Y-66408000D02*
X39170000Y-66408000D01*
X39170000Y-66408000D02*
X39170000Y-82628000D01*
X43180000Y-82828000D02*
X43480000Y-83428000D01*
X43480000Y-83428000D02*
X42880000Y-83428000D01*
X42880000Y-83428000D02*
X43180000Y-82828000D01*
G04 #@! TO.C,J3*
X70418000Y-53534000D02*
X67758000Y-53534000D01*
X70418000Y-58674000D02*
X70418000Y-53534000D01*
X67758000Y-58674000D02*
X67758000Y-53534000D01*
X70418000Y-58674000D02*
X67758000Y-58674000D01*
X70418000Y-59944000D02*
X70418000Y-61274000D01*
X70418000Y-61274000D02*
X69088000Y-61274000D01*
G04 #@! TO.C,J4*
X103632000Y-111052000D02*
X102632000Y-110052000D01*
X103632000Y-111052000D02*
X104632000Y-110052000D01*
X111132000Y-96252000D02*
X111132000Y-111252000D01*
X96132000Y-96252000D02*
X111132000Y-96252000D01*
X96132000Y-111252000D02*
X96132000Y-96252000D01*
X111132000Y-111252000D02*
X96132000Y-111252000D01*
G04 #@! TO.C,J5*
X67056000Y-111052000D02*
X66056000Y-110052000D01*
X67056000Y-111052000D02*
X68056000Y-110052000D01*
X74556000Y-96252000D02*
X74556000Y-111252000D01*
X59556000Y-96252000D02*
X74556000Y-96252000D01*
X59556000Y-111252000D02*
X59556000Y-96252000D01*
X74556000Y-111252000D02*
X59556000Y-111252000D01*
G04 #@! TO.C,J6*
X91320000Y-111252000D02*
X76320000Y-111252000D01*
X76320000Y-111252000D02*
X76320000Y-96252000D01*
X76320000Y-96252000D02*
X91320000Y-96252000D01*
X91320000Y-96252000D02*
X91320000Y-111252000D01*
X83820000Y-111052000D02*
X84820000Y-110052000D01*
X83820000Y-111052000D02*
X82820000Y-110052000D01*
G04 #@! TO.C,J7*
X57792000Y-111252000D02*
X42792000Y-111252000D01*
X42792000Y-111252000D02*
X42792000Y-96252000D01*
X42792000Y-96252000D02*
X57792000Y-96252000D01*
X57792000Y-96252000D02*
X57792000Y-111252000D01*
X50292000Y-111052000D02*
X51292000Y-110052000D01*
X50292000Y-111052000D02*
X49292000Y-110052000D01*
G04 #@! TO.C,L1*
X108752000Y-57444000D02*
G75*
G03X108752000Y-57444000I-5120000J0D01*
G01*
G04 #@! TO.C,U1*
X55702000Y-87414000D02*
X55702000Y-85814000D01*
X52502000Y-85814000D02*
X52502000Y-88114000D01*
G04 #@! TO.C,U2*
X52502000Y-75908000D02*
X52502000Y-78208000D01*
X55702000Y-77508000D02*
X55702000Y-75908000D01*
G04 #@! TO.C,U3*
X55702000Y-67348000D02*
X55702000Y-65748000D01*
X52502000Y-65748000D02*
X52502000Y-68048000D01*
G04 #@! TO.C,U5*
X60122000Y-85814000D02*
X60122000Y-88114000D01*
X63322000Y-87414000D02*
X63322000Y-85814000D01*
G04 #@! TO.C,U7*
X59614000Y-65748000D02*
X59614000Y-68048000D01*
X62814000Y-67348000D02*
X62814000Y-65748000D01*
G04 #@! TO.C,U8*
X76530000Y-87414000D02*
X76530000Y-85814000D01*
X73330000Y-85814000D02*
X73330000Y-88114000D01*
G04 #@! TO.C,J8*
X113598000Y-81474000D02*
X110938000Y-81474000D01*
X113598000Y-86614000D02*
X113598000Y-81474000D01*
X110938000Y-86614000D02*
X110938000Y-81474000D01*
X113598000Y-86614000D02*
X110938000Y-86614000D01*
X113598000Y-87884000D02*
X113598000Y-89214000D01*
X113598000Y-89214000D02*
X112268000Y-89214000D01*
G04 #@! TO.C,U4*
D11*
X83566095Y-60412380D02*
X83566095Y-61221904D01*
X83613714Y-61317142D01*
X83661333Y-61364761D01*
X83756571Y-61412380D01*
X83947047Y-61412380D01*
X84042285Y-61364761D01*
X84089904Y-61317142D01*
X84137523Y-61221904D01*
X84137523Y-60412380D01*
X85042285Y-60745714D02*
X85042285Y-61412380D01*
X84804190Y-60364761D02*
X84566095Y-61079047D01*
X85185142Y-61079047D01*
X87133142Y-63054380D02*
X86656952Y-63054380D01*
X86656952Y-62054380D01*
X87466476Y-63054380D02*
X87466476Y-62054380D01*
X87799809Y-62768666D01*
X88133142Y-62054380D01*
X88133142Y-63054380D01*
X88561714Y-62149619D02*
X88609333Y-62102000D01*
X88704571Y-62054380D01*
X88942666Y-62054380D01*
X89037904Y-62102000D01*
X89085523Y-62149619D01*
X89133142Y-62244857D01*
X89133142Y-62340095D01*
X89085523Y-62482952D01*
X88514095Y-63054380D01*
X89133142Y-63054380D01*
X90037904Y-62054380D02*
X89561714Y-62054380D01*
X89514095Y-62530571D01*
X89561714Y-62482952D01*
X89656952Y-62435333D01*
X89895047Y-62435333D01*
X89990285Y-62482952D01*
X90037904Y-62530571D01*
X90085523Y-62625809D01*
X90085523Y-62863904D01*
X90037904Y-62959142D01*
X89990285Y-63006761D01*
X89895047Y-63054380D01*
X89656952Y-63054380D01*
X89561714Y-63006761D01*
X89514095Y-62959142D01*
X90561714Y-63054380D02*
X90752190Y-63054380D01*
X90847428Y-63006761D01*
X90895047Y-62959142D01*
X90990285Y-62816285D01*
X91037904Y-62625809D01*
X91037904Y-62244857D01*
X90990285Y-62149619D01*
X90942666Y-62102000D01*
X90847428Y-62054380D01*
X90656952Y-62054380D01*
X90561714Y-62102000D01*
X90514095Y-62149619D01*
X90466476Y-62244857D01*
X90466476Y-62482952D01*
X90514095Y-62578190D01*
X90561714Y-62625809D01*
X90656952Y-62673428D01*
X90847428Y-62673428D01*
X90942666Y-62625809D01*
X90990285Y-62578190D01*
X91037904Y-62482952D01*
X91895047Y-62054380D02*
X91704571Y-62054380D01*
X91609333Y-62102000D01*
X91561714Y-62149619D01*
X91466476Y-62292476D01*
X91418857Y-62482952D01*
X91418857Y-62863904D01*
X91466476Y-62959142D01*
X91514095Y-63006761D01*
X91609333Y-63054380D01*
X91799809Y-63054380D01*
X91895047Y-63006761D01*
X91942666Y-62959142D01*
X91990285Y-62863904D01*
X91990285Y-62625809D01*
X91942666Y-62530571D01*
X91895047Y-62482952D01*
X91799809Y-62435333D01*
X91609333Y-62435333D01*
X91514095Y-62482952D01*
X91466476Y-62530571D01*
X91418857Y-62625809D01*
X92276000Y-62054380D02*
X92847428Y-62054380D01*
X92561714Y-63054380D02*
X92561714Y-62054380D01*
X93180761Y-62673428D02*
X93942666Y-62673428D01*
X94895047Y-62054380D02*
X94418857Y-62054380D01*
X94371238Y-62530571D01*
X94418857Y-62482952D01*
X94514095Y-62435333D01*
X94752190Y-62435333D01*
X94847428Y-62482952D01*
X94895047Y-62530571D01*
X94942666Y-62625809D01*
X94942666Y-62863904D01*
X94895047Y-62959142D01*
X94847428Y-63006761D01*
X94752190Y-63054380D01*
X94514095Y-63054380D01*
X94418857Y-63006761D01*
X94371238Y-62959142D01*
G04 #@! TO.C,U6*
X58470380Y-77469904D02*
X59279904Y-77469904D01*
X59375142Y-77422285D01*
X59422761Y-77374666D01*
X59470380Y-77279428D01*
X59470380Y-77088952D01*
X59422761Y-76993714D01*
X59375142Y-76946095D01*
X59279904Y-76898476D01*
X58470380Y-76898476D01*
X58470380Y-75993714D02*
X58470380Y-76184190D01*
X58518000Y-76279428D01*
X58565619Y-76327047D01*
X58708476Y-76422285D01*
X58898952Y-76469904D01*
X59279904Y-76469904D01*
X59375142Y-76422285D01*
X59422761Y-76374666D01*
X59470380Y-76279428D01*
X59470380Y-76088952D01*
X59422761Y-75993714D01*
X59375142Y-75946095D01*
X59279904Y-75898476D01*
X59041809Y-75898476D01*
X58946571Y-75946095D01*
X58898952Y-75993714D01*
X58851333Y-76088952D01*
X58851333Y-76279428D01*
X58898952Y-76374666D01*
X58946571Y-76422285D01*
X59041809Y-76469904D01*
X63468000Y-80708000D02*
X63420380Y-80803238D01*
X63420380Y-80946095D01*
X63468000Y-81088952D01*
X63563238Y-81184190D01*
X63658476Y-81231809D01*
X63848952Y-81279428D01*
X63991809Y-81279428D01*
X64182285Y-81231809D01*
X64277523Y-81184190D01*
X64372761Y-81088952D01*
X64420380Y-80946095D01*
X64420380Y-80850857D01*
X64372761Y-80708000D01*
X64325142Y-80660380D01*
X63991809Y-80660380D01*
X63991809Y-80850857D01*
X64420380Y-80231809D02*
X63753714Y-80231809D01*
X63944190Y-80231809D02*
X63848952Y-80184190D01*
X63801333Y-80136571D01*
X63753714Y-80041333D01*
X63753714Y-79946095D01*
X64372761Y-79231809D02*
X64420380Y-79327047D01*
X64420380Y-79517523D01*
X64372761Y-79612761D01*
X64277523Y-79660380D01*
X63896571Y-79660380D01*
X63801333Y-79612761D01*
X63753714Y-79517523D01*
X63753714Y-79327047D01*
X63801333Y-79231809D01*
X63896571Y-79184190D01*
X63991809Y-79184190D01*
X64087047Y-79660380D01*
X64372761Y-78374666D02*
X64420380Y-78469904D01*
X64420380Y-78660380D01*
X64372761Y-78755619D01*
X64277523Y-78803238D01*
X63896571Y-78803238D01*
X63801333Y-78755619D01*
X63753714Y-78660380D01*
X63753714Y-78469904D01*
X63801333Y-78374666D01*
X63896571Y-78327047D01*
X63991809Y-78327047D01*
X64087047Y-78803238D01*
X63753714Y-77898476D02*
X64420380Y-77898476D01*
X63848952Y-77898476D02*
X63801333Y-77850857D01*
X63753714Y-77755619D01*
X63753714Y-77612761D01*
X63801333Y-77517523D01*
X63896571Y-77469904D01*
X64420380Y-77469904D01*
X64039428Y-76993714D02*
X64039428Y-76231809D01*
X64420380Y-76612761D02*
X63658476Y-76612761D01*
X64420380Y-75755619D02*
X63420380Y-75755619D01*
X63801333Y-75755619D02*
X63753714Y-75660380D01*
X63753714Y-75469904D01*
X63801333Y-75374666D01*
X63848952Y-75327047D01*
X63944190Y-75279428D01*
X64229904Y-75279428D01*
X64325142Y-75327047D01*
X64372761Y-75374666D01*
X64420380Y-75469904D01*
X64420380Y-75660380D01*
X64372761Y-75755619D01*
X64420380Y-74708000D02*
X64372761Y-74803238D01*
X64277523Y-74850857D01*
X63420380Y-74850857D01*
X64420380Y-73898476D02*
X63896571Y-73898476D01*
X63801333Y-73946095D01*
X63753714Y-74041333D01*
X63753714Y-74231809D01*
X63801333Y-74327047D01*
X64372761Y-73898476D02*
X64420380Y-73993714D01*
X64420380Y-74231809D01*
X64372761Y-74327047D01*
X64277523Y-74374666D01*
X64182285Y-74374666D01*
X64087047Y-74327047D01*
X64039428Y-74231809D01*
X64039428Y-73993714D01*
X63991809Y-73898476D01*
X63753714Y-73422285D02*
X64420380Y-73422285D01*
X63848952Y-73422285D02*
X63801333Y-73374666D01*
X63753714Y-73279428D01*
X63753714Y-73136571D01*
X63801333Y-73041333D01*
X63896571Y-72993714D01*
X64420380Y-72993714D01*
X64420380Y-72517523D02*
X63420380Y-72517523D01*
X64039428Y-72422285D02*
X64420380Y-72136571D01*
X63753714Y-72136571D02*
X64134666Y-72517523D01*
G04 #@! TO.C,C1*
X83751142Y-56788666D02*
X83798761Y-56836285D01*
X83846380Y-56979142D01*
X83846380Y-57074380D01*
X83798761Y-57217238D01*
X83703523Y-57312476D01*
X83608285Y-57360095D01*
X83417809Y-57407714D01*
X83274952Y-57407714D01*
X83084476Y-57360095D01*
X82989238Y-57312476D01*
X82894000Y-57217238D01*
X82846380Y-57074380D01*
X82846380Y-56979142D01*
X82894000Y-56836285D01*
X82941619Y-56788666D01*
X83846380Y-55836285D02*
X83846380Y-56407714D01*
X83846380Y-56122000D02*
X82846380Y-56122000D01*
X82989238Y-56217238D01*
X83084476Y-56312476D01*
X83132095Y-56407714D01*
X74046380Y-58264857D02*
X74046380Y-58455333D01*
X74094000Y-58550571D01*
X74141619Y-58598190D01*
X74284476Y-58693428D01*
X74474952Y-58741047D01*
X74855904Y-58741047D01*
X74951142Y-58693428D01*
X74998761Y-58645809D01*
X75046380Y-58550571D01*
X75046380Y-58360095D01*
X74998761Y-58264857D01*
X74951142Y-58217238D01*
X74855904Y-58169619D01*
X74617809Y-58169619D01*
X74522571Y-58217238D01*
X74474952Y-58264857D01*
X74427333Y-58360095D01*
X74427333Y-58550571D01*
X74474952Y-58645809D01*
X74522571Y-58693428D01*
X74617809Y-58741047D01*
X74474952Y-57598190D02*
X74427333Y-57693428D01*
X74379714Y-57741047D01*
X74284476Y-57788666D01*
X74236857Y-57788666D01*
X74141619Y-57741047D01*
X74094000Y-57693428D01*
X74046380Y-57598190D01*
X74046380Y-57407714D01*
X74094000Y-57312476D01*
X74141619Y-57264857D01*
X74236857Y-57217238D01*
X74284476Y-57217238D01*
X74379714Y-57264857D01*
X74427333Y-57312476D01*
X74474952Y-57407714D01*
X74474952Y-57598190D01*
X74522571Y-57693428D01*
X74570190Y-57741047D01*
X74665428Y-57788666D01*
X74855904Y-57788666D01*
X74951142Y-57741047D01*
X74998761Y-57693428D01*
X75046380Y-57598190D01*
X75046380Y-57407714D01*
X74998761Y-57312476D01*
X74951142Y-57264857D01*
X74855904Y-57217238D01*
X74665428Y-57217238D01*
X74570190Y-57264857D01*
X74522571Y-57312476D01*
X74474952Y-57407714D01*
X74046380Y-56598190D02*
X74046380Y-56502952D01*
X74094000Y-56407714D01*
X74141619Y-56360095D01*
X74236857Y-56312476D01*
X74427333Y-56264857D01*
X74665428Y-56264857D01*
X74855904Y-56312476D01*
X74951142Y-56360095D01*
X74998761Y-56407714D01*
X75046380Y-56502952D01*
X75046380Y-56598190D01*
X74998761Y-56693428D01*
X74951142Y-56741047D01*
X74855904Y-56788666D01*
X74665428Y-56836285D01*
X74427333Y-56836285D01*
X74236857Y-56788666D01*
X74141619Y-56741047D01*
X74094000Y-56693428D01*
X74046380Y-56598190D01*
X74379714Y-55407714D02*
X75046380Y-55407714D01*
X74379714Y-55836285D02*
X74903523Y-55836285D01*
X74998761Y-55788666D01*
X75046380Y-55693428D01*
X75046380Y-55550571D01*
X74998761Y-55455333D01*
X74951142Y-55407714D01*
X74522571Y-54598190D02*
X74522571Y-54931523D01*
X75046380Y-54931523D02*
X74046380Y-54931523D01*
X74046380Y-54455333D01*
G04 #@! TO.C,C2*
X103993333Y-78163142D02*
X103945714Y-78210761D01*
X103802857Y-78258380D01*
X103707619Y-78258380D01*
X103564761Y-78210761D01*
X103469523Y-78115523D01*
X103421904Y-78020285D01*
X103374285Y-77829809D01*
X103374285Y-77686952D01*
X103421904Y-77496476D01*
X103469523Y-77401238D01*
X103564761Y-77306000D01*
X103707619Y-77258380D01*
X103802857Y-77258380D01*
X103945714Y-77306000D01*
X103993333Y-77353619D01*
X104374285Y-77353619D02*
X104421904Y-77306000D01*
X104517142Y-77258380D01*
X104755238Y-77258380D01*
X104850476Y-77306000D01*
X104898095Y-77353619D01*
X104945714Y-77448857D01*
X104945714Y-77544095D01*
X104898095Y-77686952D01*
X104326666Y-78258380D01*
X104945714Y-78258380D01*
X102040952Y-68553619D02*
X102088571Y-68506000D01*
X102183809Y-68458380D01*
X102421904Y-68458380D01*
X102517142Y-68506000D01*
X102564761Y-68553619D01*
X102612380Y-68648857D01*
X102612380Y-68744095D01*
X102564761Y-68886952D01*
X101993333Y-69458380D01*
X102612380Y-69458380D01*
X102993333Y-68553619D02*
X103040952Y-68506000D01*
X103136190Y-68458380D01*
X103374285Y-68458380D01*
X103469523Y-68506000D01*
X103517142Y-68553619D01*
X103564761Y-68648857D01*
X103564761Y-68744095D01*
X103517142Y-68886952D01*
X102945714Y-69458380D01*
X103564761Y-69458380D01*
X104183809Y-68458380D02*
X104279047Y-68458380D01*
X104374285Y-68506000D01*
X104421904Y-68553619D01*
X104469523Y-68648857D01*
X104517142Y-68839333D01*
X104517142Y-69077428D01*
X104469523Y-69267904D01*
X104421904Y-69363142D01*
X104374285Y-69410761D01*
X104279047Y-69458380D01*
X104183809Y-69458380D01*
X104088571Y-69410761D01*
X104040952Y-69363142D01*
X103993333Y-69267904D01*
X103945714Y-69077428D01*
X103945714Y-68839333D01*
X103993333Y-68648857D01*
X104040952Y-68553619D01*
X104088571Y-68506000D01*
X104183809Y-68458380D01*
X105374285Y-68791714D02*
X105374285Y-69458380D01*
X104945714Y-68791714D02*
X104945714Y-69315523D01*
X104993333Y-69410761D01*
X105088571Y-69458380D01*
X105231428Y-69458380D01*
X105326666Y-69410761D01*
X105374285Y-69363142D01*
X106183809Y-68934571D02*
X105850476Y-68934571D01*
X105850476Y-69458380D02*
X105850476Y-68458380D01*
X106326666Y-68458380D01*
G04 #@! TO.C,D1*
X88415904Y-65058380D02*
X88415904Y-64058380D01*
X88654000Y-64058380D01*
X88796857Y-64106000D01*
X88892095Y-64201238D01*
X88939714Y-64296476D01*
X88987333Y-64486952D01*
X88987333Y-64629809D01*
X88939714Y-64820285D01*
X88892095Y-64915523D01*
X88796857Y-65010761D01*
X88654000Y-65058380D01*
X88415904Y-65058380D01*
X89939714Y-65058380D02*
X89368285Y-65058380D01*
X89654000Y-65058380D02*
X89654000Y-64058380D01*
X89558761Y-64201238D01*
X89463523Y-64296476D01*
X89368285Y-64344095D01*
X81272095Y-66178380D02*
X81272095Y-65178380D01*
X81843523Y-66178380D02*
X81414952Y-65606952D01*
X81843523Y-65178380D02*
X81272095Y-65749809D01*
G04 #@! TO.C,J1*
X119876666Y-63298380D02*
X119876666Y-64012666D01*
X119829047Y-64155523D01*
X119733809Y-64250761D01*
X119590952Y-64298380D01*
X119495714Y-64298380D01*
X120876666Y-64298380D02*
X120305238Y-64298380D01*
X120590952Y-64298380D02*
X120590952Y-63298380D01*
X120495714Y-63441238D01*
X120400476Y-63536476D01*
X120305238Y-63584095D01*
X116269523Y-75548380D02*
X115698095Y-75548380D01*
X115983809Y-75548380D02*
X115983809Y-74548380D01*
X115888571Y-74691238D01*
X115793333Y-74786476D01*
X115698095Y-74834095D01*
X116650476Y-74643619D02*
X116698095Y-74596000D01*
X116793333Y-74548380D01*
X117031428Y-74548380D01*
X117126666Y-74596000D01*
X117174285Y-74643619D01*
X117221904Y-74738857D01*
X117221904Y-74834095D01*
X117174285Y-74976952D01*
X116602857Y-75548380D01*
X117221904Y-75548380D01*
X117507619Y-74548380D02*
X117840952Y-75548380D01*
X118174285Y-74548380D01*
X118269523Y-75643619D02*
X119031428Y-75643619D01*
X119269523Y-75548380D02*
X119269523Y-74881714D01*
X119269523Y-74548380D02*
X119221904Y-74596000D01*
X119269523Y-74643619D01*
X119317142Y-74596000D01*
X119269523Y-74548380D01*
X119269523Y-74643619D01*
X119745714Y-74881714D02*
X119745714Y-75548380D01*
X119745714Y-74976952D02*
X119793333Y-74929333D01*
X119888571Y-74881714D01*
X120031428Y-74881714D01*
X120126666Y-74929333D01*
X120174285Y-75024571D01*
X120174285Y-75548380D01*
G04 #@! TO.C,J2*
X37532380Y-74851333D02*
X38246666Y-74851333D01*
X38389523Y-74898952D01*
X38484761Y-74994190D01*
X38532380Y-75137047D01*
X38532380Y-75232285D01*
X37627619Y-74422761D02*
X37580000Y-74375142D01*
X37532380Y-74279904D01*
X37532380Y-74041809D01*
X37580000Y-73946571D01*
X37627619Y-73898952D01*
X37722857Y-73851333D01*
X37818095Y-73851333D01*
X37960952Y-73898952D01*
X38532380Y-74470380D01*
X38532380Y-73851333D01*
X49232380Y-79018000D02*
X49232380Y-79494190D01*
X48232380Y-79494190D01*
X49137142Y-78113238D02*
X49184761Y-78160857D01*
X49232380Y-78303714D01*
X49232380Y-78398952D01*
X49184761Y-78541809D01*
X49089523Y-78637047D01*
X48994285Y-78684666D01*
X48803809Y-78732285D01*
X48660952Y-78732285D01*
X48470476Y-78684666D01*
X48375238Y-78637047D01*
X48280000Y-78541809D01*
X48232380Y-78398952D01*
X48232380Y-78303714D01*
X48280000Y-78160857D01*
X48327619Y-78113238D01*
X49232380Y-77684666D02*
X48565714Y-77684666D01*
X48756190Y-77684666D02*
X48660952Y-77637047D01*
X48613333Y-77589428D01*
X48565714Y-77494190D01*
X48565714Y-77398952D01*
X49327619Y-77303714D02*
X49327619Y-76541809D01*
X49184761Y-75113238D02*
X49232380Y-75208476D01*
X49232380Y-75398952D01*
X49184761Y-75494190D01*
X49137142Y-75541809D01*
X49041904Y-75589428D01*
X48756190Y-75589428D01*
X48660952Y-75541809D01*
X48613333Y-75494190D01*
X48565714Y-75398952D01*
X48565714Y-75208476D01*
X48613333Y-75113238D01*
X49232380Y-74541809D02*
X49184761Y-74637047D01*
X49137142Y-74684666D01*
X49041904Y-74732285D01*
X48756190Y-74732285D01*
X48660952Y-74684666D01*
X48613333Y-74637047D01*
X48565714Y-74541809D01*
X48565714Y-74398952D01*
X48613333Y-74303714D01*
X48660952Y-74256095D01*
X48756190Y-74208476D01*
X49041904Y-74208476D01*
X49137142Y-74256095D01*
X49184761Y-74303714D01*
X49232380Y-74398952D01*
X49232380Y-74541809D01*
X48565714Y-73779904D02*
X49232380Y-73779904D01*
X48660952Y-73779904D02*
X48613333Y-73732285D01*
X48565714Y-73637047D01*
X48565714Y-73494190D01*
X48613333Y-73398952D01*
X48708571Y-73351333D01*
X49232380Y-73351333D01*
X49184761Y-72494190D02*
X49232380Y-72589428D01*
X49232380Y-72779904D01*
X49184761Y-72875142D01*
X49089523Y-72922761D01*
X48708571Y-72922761D01*
X48613333Y-72875142D01*
X48565714Y-72779904D01*
X48565714Y-72589428D01*
X48613333Y-72494190D01*
X48708571Y-72446571D01*
X48803809Y-72446571D01*
X48899047Y-72922761D01*
X49184761Y-71589428D02*
X49232380Y-71684666D01*
X49232380Y-71875142D01*
X49184761Y-71970380D01*
X49137142Y-72018000D01*
X49041904Y-72065619D01*
X48756190Y-72065619D01*
X48660952Y-72018000D01*
X48613333Y-71970380D01*
X48565714Y-71875142D01*
X48565714Y-71684666D01*
X48613333Y-71589428D01*
X48565714Y-71303714D02*
X48565714Y-70922761D01*
X48232380Y-71160857D02*
X49089523Y-71160857D01*
X49184761Y-71113238D01*
X49232380Y-71018000D01*
X49232380Y-70922761D01*
X49232380Y-70446571D02*
X49184761Y-70541809D01*
X49137142Y-70589428D01*
X49041904Y-70637047D01*
X48756190Y-70637047D01*
X48660952Y-70589428D01*
X48613333Y-70541809D01*
X48565714Y-70446571D01*
X48565714Y-70303714D01*
X48613333Y-70208476D01*
X48660952Y-70160857D01*
X48756190Y-70113238D01*
X49041904Y-70113238D01*
X49137142Y-70160857D01*
X49184761Y-70208476D01*
X49232380Y-70303714D01*
X49232380Y-70446571D01*
X49232380Y-69684666D02*
X48565714Y-69684666D01*
X48756190Y-69684666D02*
X48660952Y-69637047D01*
X48613333Y-69589428D01*
X48565714Y-69494190D01*
X48565714Y-69398952D01*
G04 #@! TO.C,J3*
X68754666Y-61726380D02*
X68754666Y-62440666D01*
X68707047Y-62583523D01*
X68611809Y-62678761D01*
X68468952Y-62726380D01*
X68373714Y-62726380D01*
X69135619Y-61726380D02*
X69754666Y-61726380D01*
X69421333Y-62107333D01*
X69564190Y-62107333D01*
X69659428Y-62154952D01*
X69707047Y-62202571D01*
X69754666Y-62297809D01*
X69754666Y-62535904D01*
X69707047Y-62631142D01*
X69659428Y-62678761D01*
X69564190Y-62726380D01*
X69278476Y-62726380D01*
X69183238Y-62678761D01*
X69135619Y-62631142D01*
X66333714Y-62189714D02*
X67333714Y-62189714D01*
X66381333Y-62189714D02*
X66333714Y-62094476D01*
X66333714Y-61904000D01*
X66381333Y-61808761D01*
X66428952Y-61761142D01*
X66524190Y-61713523D01*
X66809904Y-61713523D01*
X66905142Y-61761142D01*
X66952761Y-61808761D01*
X67000380Y-61904000D01*
X67000380Y-62094476D01*
X66952761Y-62189714D01*
X67000380Y-61142095D02*
X66952761Y-61237333D01*
X66905142Y-61284952D01*
X66809904Y-61332571D01*
X66524190Y-61332571D01*
X66428952Y-61284952D01*
X66381333Y-61237333D01*
X66333714Y-61142095D01*
X66333714Y-60999238D01*
X66381333Y-60904000D01*
X66428952Y-60856380D01*
X66524190Y-60808761D01*
X66809904Y-60808761D01*
X66905142Y-60856380D01*
X66952761Y-60904000D01*
X67000380Y-60999238D01*
X67000380Y-61142095D01*
X66333714Y-60475428D02*
X67000380Y-60284952D01*
X66524190Y-60094476D01*
X67000380Y-59904000D01*
X66333714Y-59713523D01*
X66952761Y-58951619D02*
X67000380Y-59046857D01*
X67000380Y-59237333D01*
X66952761Y-59332571D01*
X66857523Y-59380190D01*
X66476571Y-59380190D01*
X66381333Y-59332571D01*
X66333714Y-59237333D01*
X66333714Y-59046857D01*
X66381333Y-58951619D01*
X66476571Y-58904000D01*
X66571809Y-58904000D01*
X66667047Y-59380190D01*
X67000380Y-58475428D02*
X66333714Y-58475428D01*
X66524190Y-58475428D02*
X66428952Y-58427809D01*
X66381333Y-58380190D01*
X66333714Y-58284952D01*
X66333714Y-58189714D01*
X66952761Y-57142095D02*
X67000380Y-57046857D01*
X67000380Y-56856380D01*
X66952761Y-56761142D01*
X66857523Y-56713523D01*
X66809904Y-56713523D01*
X66714666Y-56761142D01*
X66667047Y-56856380D01*
X66667047Y-56999238D01*
X66619428Y-57094476D01*
X66524190Y-57142095D01*
X66476571Y-57142095D01*
X66381333Y-57094476D01*
X66333714Y-56999238D01*
X66333714Y-56856380D01*
X66381333Y-56761142D01*
X67000380Y-56142095D02*
X66952761Y-56237333D01*
X66905142Y-56284952D01*
X66809904Y-56332571D01*
X66524190Y-56332571D01*
X66428952Y-56284952D01*
X66381333Y-56237333D01*
X66333714Y-56142095D01*
X66333714Y-55999238D01*
X66381333Y-55904000D01*
X66428952Y-55856380D01*
X66524190Y-55808761D01*
X66809904Y-55808761D01*
X66905142Y-55856380D01*
X66952761Y-55904000D01*
X67000380Y-55999238D01*
X67000380Y-56142095D01*
X66333714Y-54951619D02*
X67000380Y-54951619D01*
X66333714Y-55380190D02*
X66857523Y-55380190D01*
X66952761Y-55332571D01*
X67000380Y-55237333D01*
X67000380Y-55094476D01*
X66952761Y-54999238D01*
X66905142Y-54951619D01*
X67000380Y-54475428D02*
X66333714Y-54475428D01*
X66524190Y-54475428D02*
X66428952Y-54427809D01*
X66381333Y-54380190D01*
X66333714Y-54284952D01*
X66333714Y-54189714D01*
X66952761Y-53427809D02*
X67000380Y-53523047D01*
X67000380Y-53713523D01*
X66952761Y-53808761D01*
X66905142Y-53856380D01*
X66809904Y-53904000D01*
X66524190Y-53904000D01*
X66428952Y-53856380D01*
X66381333Y-53808761D01*
X66333714Y-53713523D01*
X66333714Y-53523047D01*
X66381333Y-53427809D01*
X66952761Y-52618285D02*
X67000380Y-52713523D01*
X67000380Y-52904000D01*
X66952761Y-52999238D01*
X66857523Y-53046857D01*
X66476571Y-53046857D01*
X66381333Y-52999238D01*
X66333714Y-52904000D01*
X66333714Y-52713523D01*
X66381333Y-52618285D01*
X66476571Y-52570666D01*
X66571809Y-52570666D01*
X66667047Y-53046857D01*
G04 #@! TO.C,J4*
X103298666Y-94004380D02*
X103298666Y-94718666D01*
X103251047Y-94861523D01*
X103155809Y-94956761D01*
X103012952Y-95004380D01*
X102917714Y-95004380D01*
X104203428Y-94337714D02*
X104203428Y-95004380D01*
X103965333Y-93956761D02*
X103727238Y-94671047D01*
X104346285Y-94671047D01*
X96202857Y-94940380D02*
X96202857Y-93940380D01*
X96202857Y-94321333D02*
X96298095Y-94273714D01*
X96488571Y-94273714D01*
X96583809Y-94321333D01*
X96631428Y-94368952D01*
X96679047Y-94464190D01*
X96679047Y-94749904D01*
X96631428Y-94845142D01*
X96583809Y-94892761D01*
X96488571Y-94940380D01*
X96298095Y-94940380D01*
X96202857Y-94892761D01*
X97250476Y-94940380D02*
X97155238Y-94892761D01*
X97107619Y-94797523D01*
X97107619Y-93940380D01*
X98060000Y-94940380D02*
X98060000Y-94416571D01*
X98012380Y-94321333D01*
X97917142Y-94273714D01*
X97726666Y-94273714D01*
X97631428Y-94321333D01*
X98060000Y-94892761D02*
X97964761Y-94940380D01*
X97726666Y-94940380D01*
X97631428Y-94892761D01*
X97583809Y-94797523D01*
X97583809Y-94702285D01*
X97631428Y-94607047D01*
X97726666Y-94559428D01*
X97964761Y-94559428D01*
X98060000Y-94511809D01*
X98536190Y-94273714D02*
X98536190Y-94940380D01*
X98536190Y-94368952D02*
X98583809Y-94321333D01*
X98679047Y-94273714D01*
X98821904Y-94273714D01*
X98917142Y-94321333D01*
X98964761Y-94416571D01*
X98964761Y-94940380D01*
X99440952Y-94940380D02*
X99440952Y-93940380D01*
X99536190Y-94559428D02*
X99821904Y-94940380D01*
X99821904Y-94273714D02*
X99440952Y-94654666D01*
X101012380Y-94940380D02*
X101012380Y-94273714D01*
X101012380Y-93940380D02*
X100964761Y-93988000D01*
X101012380Y-94035619D01*
X101060000Y-93988000D01*
X101012380Y-93940380D01*
X101012380Y-94035619D01*
X101488571Y-94273714D02*
X101488571Y-94940380D01*
X101488571Y-94368952D02*
X101536190Y-94321333D01*
X101631428Y-94273714D01*
X101774285Y-94273714D01*
X101869523Y-94321333D01*
X101917142Y-94416571D01*
X101917142Y-94940380D01*
G04 #@! TO.C,J5*
X73834666Y-92416380D02*
X73834666Y-93130666D01*
X73787047Y-93273523D01*
X73691809Y-93368761D01*
X73548952Y-93416380D01*
X73453714Y-93416380D01*
X74787047Y-92416380D02*
X74310857Y-92416380D01*
X74263238Y-92892571D01*
X74310857Y-92844952D01*
X74406095Y-92797333D01*
X74644190Y-92797333D01*
X74739428Y-92844952D01*
X74787047Y-92892571D01*
X74834666Y-92987809D01*
X74834666Y-93225904D01*
X74787047Y-93321142D01*
X74739428Y-93368761D01*
X74644190Y-93416380D01*
X74406095Y-93416380D01*
X74310857Y-93368761D01*
X74263238Y-93321142D01*
X59913142Y-93988000D02*
X59817904Y-93940380D01*
X59675047Y-93940380D01*
X59532190Y-93988000D01*
X59436952Y-94083238D01*
X59389333Y-94178476D01*
X59341714Y-94368952D01*
X59341714Y-94511809D01*
X59389333Y-94702285D01*
X59436952Y-94797523D01*
X59532190Y-94892761D01*
X59675047Y-94940380D01*
X59770285Y-94940380D01*
X59913142Y-94892761D01*
X59960761Y-94845142D01*
X59960761Y-94511809D01*
X59770285Y-94511809D01*
X60389333Y-94940380D02*
X60389333Y-94273714D01*
X60389333Y-94464190D02*
X60436952Y-94368952D01*
X60484571Y-94321333D01*
X60579809Y-94273714D01*
X60675047Y-94273714D01*
X61389333Y-94892761D02*
X61294095Y-94940380D01*
X61103619Y-94940380D01*
X61008380Y-94892761D01*
X60960761Y-94797523D01*
X60960761Y-94416571D01*
X61008380Y-94321333D01*
X61103619Y-94273714D01*
X61294095Y-94273714D01*
X61389333Y-94321333D01*
X61436952Y-94416571D01*
X61436952Y-94511809D01*
X60960761Y-94607047D01*
X62246476Y-94892761D02*
X62151238Y-94940380D01*
X61960761Y-94940380D01*
X61865523Y-94892761D01*
X61817904Y-94797523D01*
X61817904Y-94416571D01*
X61865523Y-94321333D01*
X61960761Y-94273714D01*
X62151238Y-94273714D01*
X62246476Y-94321333D01*
X62294095Y-94416571D01*
X62294095Y-94511809D01*
X61817904Y-94607047D01*
X62722666Y-94273714D02*
X62722666Y-94940380D01*
X62722666Y-94368952D02*
X62770285Y-94321333D01*
X62865523Y-94273714D01*
X63008380Y-94273714D01*
X63103619Y-94321333D01*
X63151238Y-94416571D01*
X63151238Y-94940380D01*
X64817904Y-94892761D02*
X64722666Y-94940380D01*
X64532190Y-94940380D01*
X64436952Y-94892761D01*
X64389333Y-94845142D01*
X64341714Y-94749904D01*
X64341714Y-94464190D01*
X64389333Y-94368952D01*
X64436952Y-94321333D01*
X64532190Y-94273714D01*
X64722666Y-94273714D01*
X64817904Y-94321333D01*
X65389333Y-94940380D02*
X65294095Y-94892761D01*
X65246476Y-94845142D01*
X65198857Y-94749904D01*
X65198857Y-94464190D01*
X65246476Y-94368952D01*
X65294095Y-94321333D01*
X65389333Y-94273714D01*
X65532190Y-94273714D01*
X65627428Y-94321333D01*
X65675047Y-94368952D01*
X65722666Y-94464190D01*
X65722666Y-94749904D01*
X65675047Y-94845142D01*
X65627428Y-94892761D01*
X65532190Y-94940380D01*
X65389333Y-94940380D01*
X66151238Y-94273714D02*
X66151238Y-94940380D01*
X66151238Y-94368952D02*
X66198857Y-94321333D01*
X66294095Y-94273714D01*
X66436952Y-94273714D01*
X66532190Y-94321333D01*
X66579809Y-94416571D01*
X66579809Y-94940380D01*
X66913142Y-94273714D02*
X67294095Y-94273714D01*
X67056000Y-93940380D02*
X67056000Y-94797523D01*
X67103619Y-94892761D01*
X67198857Y-94940380D01*
X67294095Y-94940380D01*
X67627428Y-94940380D02*
X67627428Y-94273714D01*
X67627428Y-94464190D02*
X67675047Y-94368952D01*
X67722666Y-94321333D01*
X67817904Y-94273714D01*
X67913142Y-94273714D01*
X68389333Y-94940380D02*
X68294095Y-94892761D01*
X68246476Y-94845142D01*
X68198857Y-94749904D01*
X68198857Y-94464190D01*
X68246476Y-94368952D01*
X68294095Y-94321333D01*
X68389333Y-94273714D01*
X68532190Y-94273714D01*
X68627428Y-94321333D01*
X68675047Y-94368952D01*
X68722666Y-94464190D01*
X68722666Y-94749904D01*
X68675047Y-94845142D01*
X68627428Y-94892761D01*
X68532190Y-94940380D01*
X68389333Y-94940380D01*
X69294095Y-94940380D02*
X69198857Y-94892761D01*
X69151238Y-94797523D01*
X69151238Y-93940380D01*
X70579809Y-94940380D02*
X70484571Y-94892761D01*
X70436952Y-94845142D01*
X70389333Y-94749904D01*
X70389333Y-94464190D01*
X70436952Y-94368952D01*
X70484571Y-94321333D01*
X70579809Y-94273714D01*
X70722666Y-94273714D01*
X70817904Y-94321333D01*
X70865523Y-94368952D01*
X70913142Y-94464190D01*
X70913142Y-94749904D01*
X70865523Y-94845142D01*
X70817904Y-94892761D01*
X70722666Y-94940380D01*
X70579809Y-94940380D01*
X71770285Y-94273714D02*
X71770285Y-94940380D01*
X71341714Y-94273714D02*
X71341714Y-94797523D01*
X71389333Y-94892761D01*
X71484571Y-94940380D01*
X71627428Y-94940380D01*
X71722666Y-94892761D01*
X71770285Y-94845142D01*
X72103619Y-94273714D02*
X72484571Y-94273714D01*
X72246476Y-93940380D02*
X72246476Y-94797523D01*
X72294095Y-94892761D01*
X72389333Y-94940380D01*
X72484571Y-94940380D01*
X72817904Y-94273714D02*
X72817904Y-95273714D01*
X72817904Y-94321333D02*
X72913142Y-94273714D01*
X73103619Y-94273714D01*
X73198857Y-94321333D01*
X73246476Y-94368952D01*
X73294095Y-94464190D01*
X73294095Y-94749904D01*
X73246476Y-94845142D01*
X73198857Y-94892761D01*
X73103619Y-94940380D01*
X72913142Y-94940380D01*
X72817904Y-94892761D01*
X74151238Y-94273714D02*
X74151238Y-94940380D01*
X73722666Y-94273714D02*
X73722666Y-94797523D01*
X73770285Y-94892761D01*
X73865523Y-94940380D01*
X74008380Y-94940380D01*
X74103619Y-94892761D01*
X74151238Y-94845142D01*
X74484571Y-94273714D02*
X74865523Y-94273714D01*
X74627428Y-93940380D02*
X74627428Y-94797523D01*
X74675047Y-94892761D01*
X74770285Y-94940380D01*
X74865523Y-94940380D01*
G04 #@! TO.C,J6*
X92630666Y-95972380D02*
X92630666Y-96686666D01*
X92583047Y-96829523D01*
X92487809Y-96924761D01*
X92344952Y-96972380D01*
X92249714Y-96972380D01*
X93535428Y-95972380D02*
X93344952Y-95972380D01*
X93249714Y-96020000D01*
X93202095Y-96067619D01*
X93106857Y-96210476D01*
X93059238Y-96400952D01*
X93059238Y-96781904D01*
X93106857Y-96877142D01*
X93154476Y-96924761D01*
X93249714Y-96972380D01*
X93440190Y-96972380D01*
X93535428Y-96924761D01*
X93583047Y-96877142D01*
X93630666Y-96781904D01*
X93630666Y-96543809D01*
X93583047Y-96448571D01*
X93535428Y-96400952D01*
X93440190Y-96353333D01*
X93249714Y-96353333D01*
X93154476Y-96400952D01*
X93106857Y-96448571D01*
X93059238Y-96543809D01*
X76962857Y-94416571D02*
X77105714Y-94464190D01*
X77153333Y-94511809D01*
X77200952Y-94607047D01*
X77200952Y-94749904D01*
X77153333Y-94845142D01*
X77105714Y-94892761D01*
X77010476Y-94940380D01*
X76629523Y-94940380D01*
X76629523Y-93940380D01*
X76962857Y-93940380D01*
X77058095Y-93988000D01*
X77105714Y-94035619D01*
X77153333Y-94130857D01*
X77153333Y-94226095D01*
X77105714Y-94321333D01*
X77058095Y-94368952D01*
X76962857Y-94416571D01*
X76629523Y-94416571D01*
X77772380Y-94940380D02*
X77677142Y-94892761D01*
X77629523Y-94797523D01*
X77629523Y-93940380D01*
X78581904Y-94273714D02*
X78581904Y-94940380D01*
X78153333Y-94273714D02*
X78153333Y-94797523D01*
X78200952Y-94892761D01*
X78296190Y-94940380D01*
X78439047Y-94940380D01*
X78534285Y-94892761D01*
X78581904Y-94845142D01*
X79439047Y-94892761D02*
X79343809Y-94940380D01*
X79153333Y-94940380D01*
X79058095Y-94892761D01*
X79010476Y-94797523D01*
X79010476Y-94416571D01*
X79058095Y-94321333D01*
X79153333Y-94273714D01*
X79343809Y-94273714D01*
X79439047Y-94321333D01*
X79486666Y-94416571D01*
X79486666Y-94511809D01*
X79010476Y-94607047D01*
X81105714Y-94892761D02*
X81010476Y-94940380D01*
X80820000Y-94940380D01*
X80724761Y-94892761D01*
X80677142Y-94845142D01*
X80629523Y-94749904D01*
X80629523Y-94464190D01*
X80677142Y-94368952D01*
X80724761Y-94321333D01*
X80820000Y-94273714D01*
X81010476Y-94273714D01*
X81105714Y-94321333D01*
X81677142Y-94940380D02*
X81581904Y-94892761D01*
X81534285Y-94845142D01*
X81486666Y-94749904D01*
X81486666Y-94464190D01*
X81534285Y-94368952D01*
X81581904Y-94321333D01*
X81677142Y-94273714D01*
X81820000Y-94273714D01*
X81915238Y-94321333D01*
X81962857Y-94368952D01*
X82010476Y-94464190D01*
X82010476Y-94749904D01*
X81962857Y-94845142D01*
X81915238Y-94892761D01*
X81820000Y-94940380D01*
X81677142Y-94940380D01*
X82439047Y-94273714D02*
X82439047Y-94940380D01*
X82439047Y-94368952D02*
X82486666Y-94321333D01*
X82581904Y-94273714D01*
X82724761Y-94273714D01*
X82820000Y-94321333D01*
X82867619Y-94416571D01*
X82867619Y-94940380D01*
X83200952Y-94273714D02*
X83581904Y-94273714D01*
X83343809Y-93940380D02*
X83343809Y-94797523D01*
X83391428Y-94892761D01*
X83486666Y-94940380D01*
X83581904Y-94940380D01*
X83915238Y-94940380D02*
X83915238Y-94273714D01*
X83915238Y-94464190D02*
X83962857Y-94368952D01*
X84010476Y-94321333D01*
X84105714Y-94273714D01*
X84200952Y-94273714D01*
X84677142Y-94940380D02*
X84581904Y-94892761D01*
X84534285Y-94845142D01*
X84486666Y-94749904D01*
X84486666Y-94464190D01*
X84534285Y-94368952D01*
X84581904Y-94321333D01*
X84677142Y-94273714D01*
X84820000Y-94273714D01*
X84915238Y-94321333D01*
X84962857Y-94368952D01*
X85010476Y-94464190D01*
X85010476Y-94749904D01*
X84962857Y-94845142D01*
X84915238Y-94892761D01*
X84820000Y-94940380D01*
X84677142Y-94940380D01*
X85581904Y-94940380D02*
X85486666Y-94892761D01*
X85439047Y-94797523D01*
X85439047Y-93940380D01*
X86867619Y-94940380D02*
X86772380Y-94892761D01*
X86724761Y-94845142D01*
X86677142Y-94749904D01*
X86677142Y-94464190D01*
X86724761Y-94368952D01*
X86772380Y-94321333D01*
X86867619Y-94273714D01*
X87010476Y-94273714D01*
X87105714Y-94321333D01*
X87153333Y-94368952D01*
X87200952Y-94464190D01*
X87200952Y-94749904D01*
X87153333Y-94845142D01*
X87105714Y-94892761D01*
X87010476Y-94940380D01*
X86867619Y-94940380D01*
X88058095Y-94273714D02*
X88058095Y-94940380D01*
X87629523Y-94273714D02*
X87629523Y-94797523D01*
X87677142Y-94892761D01*
X87772380Y-94940380D01*
X87915238Y-94940380D01*
X88010476Y-94892761D01*
X88058095Y-94845142D01*
X88391428Y-94273714D02*
X88772380Y-94273714D01*
X88534285Y-93940380D02*
X88534285Y-94797523D01*
X88581904Y-94892761D01*
X88677142Y-94940380D01*
X88772380Y-94940380D01*
X89105714Y-94273714D02*
X89105714Y-95273714D01*
X89105714Y-94321333D02*
X89200952Y-94273714D01*
X89391428Y-94273714D01*
X89486666Y-94321333D01*
X89534285Y-94368952D01*
X89581904Y-94464190D01*
X89581904Y-94749904D01*
X89534285Y-94845142D01*
X89486666Y-94892761D01*
X89391428Y-94940380D01*
X89200952Y-94940380D01*
X89105714Y-94892761D01*
X90439047Y-94273714D02*
X90439047Y-94940380D01*
X90010476Y-94273714D02*
X90010476Y-94797523D01*
X90058095Y-94892761D01*
X90153333Y-94940380D01*
X90296190Y-94940380D01*
X90391428Y-94892761D01*
X90439047Y-94845142D01*
X90772380Y-94273714D02*
X91153333Y-94273714D01*
X90915238Y-93940380D02*
X90915238Y-94797523D01*
X90962857Y-94892761D01*
X91058095Y-94940380D01*
X91153333Y-94940380D01*
G04 #@! TO.C,J7*
X40814666Y-96480380D02*
X40814666Y-97194666D01*
X40767047Y-97337523D01*
X40671809Y-97432761D01*
X40528952Y-97480380D01*
X40433714Y-97480380D01*
X41195619Y-96480380D02*
X41862285Y-96480380D01*
X41433714Y-97480380D01*
X43934857Y-94940380D02*
X43601523Y-94464190D01*
X43363428Y-94940380D02*
X43363428Y-93940380D01*
X43744380Y-93940380D01*
X43839619Y-93988000D01*
X43887238Y-94035619D01*
X43934857Y-94130857D01*
X43934857Y-94273714D01*
X43887238Y-94368952D01*
X43839619Y-94416571D01*
X43744380Y-94464190D01*
X43363428Y-94464190D01*
X44744380Y-94892761D02*
X44649142Y-94940380D01*
X44458666Y-94940380D01*
X44363428Y-94892761D01*
X44315809Y-94797523D01*
X44315809Y-94416571D01*
X44363428Y-94321333D01*
X44458666Y-94273714D01*
X44649142Y-94273714D01*
X44744380Y-94321333D01*
X44792000Y-94416571D01*
X44792000Y-94511809D01*
X44315809Y-94607047D01*
X45649142Y-94940380D02*
X45649142Y-93940380D01*
X45649142Y-94892761D02*
X45553904Y-94940380D01*
X45363428Y-94940380D01*
X45268190Y-94892761D01*
X45220571Y-94845142D01*
X45172952Y-94749904D01*
X45172952Y-94464190D01*
X45220571Y-94368952D01*
X45268190Y-94321333D01*
X45363428Y-94273714D01*
X45553904Y-94273714D01*
X45649142Y-94321333D01*
X47315809Y-94892761D02*
X47220571Y-94940380D01*
X47030095Y-94940380D01*
X46934857Y-94892761D01*
X46887238Y-94845142D01*
X46839619Y-94749904D01*
X46839619Y-94464190D01*
X46887238Y-94368952D01*
X46934857Y-94321333D01*
X47030095Y-94273714D01*
X47220571Y-94273714D01*
X47315809Y-94321333D01*
X47887238Y-94940380D02*
X47792000Y-94892761D01*
X47744380Y-94845142D01*
X47696761Y-94749904D01*
X47696761Y-94464190D01*
X47744380Y-94368952D01*
X47792000Y-94321333D01*
X47887238Y-94273714D01*
X48030095Y-94273714D01*
X48125333Y-94321333D01*
X48172952Y-94368952D01*
X48220571Y-94464190D01*
X48220571Y-94749904D01*
X48172952Y-94845142D01*
X48125333Y-94892761D01*
X48030095Y-94940380D01*
X47887238Y-94940380D01*
X48649142Y-94273714D02*
X48649142Y-94940380D01*
X48649142Y-94368952D02*
X48696761Y-94321333D01*
X48792000Y-94273714D01*
X48934857Y-94273714D01*
X49030095Y-94321333D01*
X49077714Y-94416571D01*
X49077714Y-94940380D01*
X49411047Y-94273714D02*
X49792000Y-94273714D01*
X49553904Y-93940380D02*
X49553904Y-94797523D01*
X49601523Y-94892761D01*
X49696761Y-94940380D01*
X49792000Y-94940380D01*
X50125333Y-94940380D02*
X50125333Y-94273714D01*
X50125333Y-94464190D02*
X50172952Y-94368952D01*
X50220571Y-94321333D01*
X50315809Y-94273714D01*
X50411047Y-94273714D01*
X50887238Y-94940380D02*
X50792000Y-94892761D01*
X50744380Y-94845142D01*
X50696761Y-94749904D01*
X50696761Y-94464190D01*
X50744380Y-94368952D01*
X50792000Y-94321333D01*
X50887238Y-94273714D01*
X51030095Y-94273714D01*
X51125333Y-94321333D01*
X51172952Y-94368952D01*
X51220571Y-94464190D01*
X51220571Y-94749904D01*
X51172952Y-94845142D01*
X51125333Y-94892761D01*
X51030095Y-94940380D01*
X50887238Y-94940380D01*
X51792000Y-94940380D02*
X51696761Y-94892761D01*
X51649142Y-94797523D01*
X51649142Y-93940380D01*
X53077714Y-94940380D02*
X52982476Y-94892761D01*
X52934857Y-94845142D01*
X52887238Y-94749904D01*
X52887238Y-94464190D01*
X52934857Y-94368952D01*
X52982476Y-94321333D01*
X53077714Y-94273714D01*
X53220571Y-94273714D01*
X53315809Y-94321333D01*
X53363428Y-94368952D01*
X53411047Y-94464190D01*
X53411047Y-94749904D01*
X53363428Y-94845142D01*
X53315809Y-94892761D01*
X53220571Y-94940380D01*
X53077714Y-94940380D01*
X54268190Y-94273714D02*
X54268190Y-94940380D01*
X53839619Y-94273714D02*
X53839619Y-94797523D01*
X53887238Y-94892761D01*
X53982476Y-94940380D01*
X54125333Y-94940380D01*
X54220571Y-94892761D01*
X54268190Y-94845142D01*
X54601523Y-94273714D02*
X54982476Y-94273714D01*
X54744380Y-93940380D02*
X54744380Y-94797523D01*
X54792000Y-94892761D01*
X54887238Y-94940380D01*
X54982476Y-94940380D01*
X55315809Y-94273714D02*
X55315809Y-95273714D01*
X55315809Y-94321333D02*
X55411047Y-94273714D01*
X55601523Y-94273714D01*
X55696761Y-94321333D01*
X55744380Y-94368952D01*
X55792000Y-94464190D01*
X55792000Y-94749904D01*
X55744380Y-94845142D01*
X55696761Y-94892761D01*
X55601523Y-94940380D01*
X55411047Y-94940380D01*
X55315809Y-94892761D01*
X56649142Y-94273714D02*
X56649142Y-94940380D01*
X56220571Y-94273714D02*
X56220571Y-94797523D01*
X56268190Y-94892761D01*
X56363428Y-94940380D01*
X56506285Y-94940380D01*
X56601523Y-94892761D01*
X56649142Y-94845142D01*
X56982476Y-94273714D02*
X57363428Y-94273714D01*
X57125333Y-93940380D02*
X57125333Y-94797523D01*
X57172952Y-94892761D01*
X57268190Y-94940380D01*
X57363428Y-94940380D01*
G04 #@! TO.C,L1*
X97834380Y-57610666D02*
X97834380Y-58086857D01*
X96834380Y-58086857D01*
X97834380Y-56753523D02*
X97834380Y-57324952D01*
X97834380Y-57039238D02*
X96834380Y-57039238D01*
X96977238Y-57134476D01*
X97072476Y-57229714D01*
X97120095Y-57324952D01*
G04 #@! TO.C,U1*
X51104380Y-87375904D02*
X51913904Y-87375904D01*
X52009142Y-87328285D01*
X52056761Y-87280666D01*
X52104380Y-87185428D01*
X52104380Y-86994952D01*
X52056761Y-86899714D01*
X52009142Y-86852095D01*
X51913904Y-86804476D01*
X51104380Y-86804476D01*
X52104380Y-85804476D02*
X52104380Y-86375904D01*
X52104380Y-86090190D02*
X51104380Y-86090190D01*
X51247238Y-86185428D01*
X51342476Y-86280666D01*
X51390095Y-86375904D01*
X57054380Y-90566380D02*
X56578190Y-90899714D01*
X57054380Y-91137809D02*
X56054380Y-91137809D01*
X56054380Y-90756857D01*
X56102000Y-90661619D01*
X56149619Y-90614000D01*
X56244857Y-90566380D01*
X56387714Y-90566380D01*
X56482952Y-90614000D01*
X56530571Y-90661619D01*
X56578190Y-90756857D01*
X56578190Y-91137809D01*
X56530571Y-90137809D02*
X56530571Y-89804476D01*
X57054380Y-89661619D02*
X57054380Y-90137809D01*
X56054380Y-90137809D01*
X56054380Y-89661619D01*
X57054380Y-89233047D02*
X56054380Y-89233047D01*
X56054380Y-88994952D01*
X56102000Y-88852095D01*
X56197238Y-88756857D01*
X56292476Y-88709238D01*
X56482952Y-88661619D01*
X56625809Y-88661619D01*
X56816285Y-88709238D01*
X56911523Y-88756857D01*
X57006761Y-88852095D01*
X57054380Y-88994952D01*
X57054380Y-89233047D01*
X57006761Y-87042571D02*
X57054380Y-87137809D01*
X57054380Y-87328285D01*
X57006761Y-87423523D01*
X56959142Y-87471142D01*
X56863904Y-87518761D01*
X56578190Y-87518761D01*
X56482952Y-87471142D01*
X56435333Y-87423523D01*
X56387714Y-87328285D01*
X56387714Y-87137809D01*
X56435333Y-87042571D01*
X57054380Y-86614000D02*
X56054380Y-86614000D01*
X57054380Y-86185428D02*
X56530571Y-86185428D01*
X56435333Y-86233047D01*
X56387714Y-86328285D01*
X56387714Y-86471142D01*
X56435333Y-86566380D01*
X56482952Y-86614000D01*
X57054380Y-85280666D02*
X56530571Y-85280666D01*
X56435333Y-85328285D01*
X56387714Y-85423523D01*
X56387714Y-85614000D01*
X56435333Y-85709238D01*
X57006761Y-85280666D02*
X57054380Y-85375904D01*
X57054380Y-85614000D01*
X57006761Y-85709238D01*
X56911523Y-85756857D01*
X56816285Y-85756857D01*
X56721047Y-85709238D01*
X56673428Y-85614000D01*
X56673428Y-85375904D01*
X56625809Y-85280666D01*
X56387714Y-84804476D02*
X57054380Y-84804476D01*
X56482952Y-84804476D02*
X56435333Y-84756857D01*
X56387714Y-84661619D01*
X56387714Y-84518761D01*
X56435333Y-84423523D01*
X56530571Y-84375904D01*
X57054380Y-84375904D01*
X56387714Y-83899714D02*
X57054380Y-83899714D01*
X56482952Y-83899714D02*
X56435333Y-83852095D01*
X56387714Y-83756857D01*
X56387714Y-83614000D01*
X56435333Y-83518761D01*
X56530571Y-83471142D01*
X57054380Y-83471142D01*
X57006761Y-82614000D02*
X57054380Y-82709238D01*
X57054380Y-82899714D01*
X57006761Y-82994952D01*
X56911523Y-83042571D01*
X56530571Y-83042571D01*
X56435333Y-82994952D01*
X56387714Y-82899714D01*
X56387714Y-82709238D01*
X56435333Y-82614000D01*
X56530571Y-82566380D01*
X56625809Y-82566380D01*
X56721047Y-83042571D01*
X57054380Y-81994952D02*
X57006761Y-82090190D01*
X56911523Y-82137809D01*
X56054380Y-82137809D01*
G04 #@! TO.C,U2*
X55840380Y-77469904D02*
X56649904Y-77469904D01*
X56745142Y-77422285D01*
X56792761Y-77374666D01*
X56840380Y-77279428D01*
X56840380Y-77088952D01*
X56792761Y-76993714D01*
X56745142Y-76946095D01*
X56649904Y-76898476D01*
X55840380Y-76898476D01*
X55935619Y-76469904D02*
X55888000Y-76422285D01*
X55840380Y-76327047D01*
X55840380Y-76088952D01*
X55888000Y-75993714D01*
X55935619Y-75946095D01*
X56030857Y-75898476D01*
X56126095Y-75898476D01*
X56268952Y-75946095D01*
X56840380Y-76517523D01*
X56840380Y-75898476D01*
X50808000Y-81374666D02*
X50760380Y-81469904D01*
X50760380Y-81612761D01*
X50808000Y-81755619D01*
X50903238Y-81850857D01*
X50998476Y-81898476D01*
X51188952Y-81946095D01*
X51331809Y-81946095D01*
X51522285Y-81898476D01*
X51617523Y-81850857D01*
X51712761Y-81755619D01*
X51760380Y-81612761D01*
X51760380Y-81517523D01*
X51712761Y-81374666D01*
X51665142Y-81327047D01*
X51331809Y-81327047D01*
X51331809Y-81517523D01*
X51760380Y-80898476D02*
X51093714Y-80898476D01*
X51284190Y-80898476D02*
X51188952Y-80850857D01*
X51141333Y-80803238D01*
X51093714Y-80708000D01*
X51093714Y-80612761D01*
X51712761Y-79898476D02*
X51760380Y-79993714D01*
X51760380Y-80184190D01*
X51712761Y-80279428D01*
X51617523Y-80327047D01*
X51236571Y-80327047D01*
X51141333Y-80279428D01*
X51093714Y-80184190D01*
X51093714Y-79993714D01*
X51141333Y-79898476D01*
X51236571Y-79850857D01*
X51331809Y-79850857D01*
X51427047Y-80327047D01*
X51712761Y-79041333D02*
X51760380Y-79136571D01*
X51760380Y-79327047D01*
X51712761Y-79422285D01*
X51617523Y-79469904D01*
X51236571Y-79469904D01*
X51141333Y-79422285D01*
X51093714Y-79327047D01*
X51093714Y-79136571D01*
X51141333Y-79041333D01*
X51236571Y-78993714D01*
X51331809Y-78993714D01*
X51427047Y-79469904D01*
X51093714Y-78565142D02*
X51760380Y-78565142D01*
X51188952Y-78565142D02*
X51141333Y-78517523D01*
X51093714Y-78422285D01*
X51093714Y-78279428D01*
X51141333Y-78184190D01*
X51236571Y-78136571D01*
X51760380Y-78136571D01*
X51712761Y-76469904D02*
X51760380Y-76565142D01*
X51760380Y-76755619D01*
X51712761Y-76850857D01*
X51665142Y-76898476D01*
X51569904Y-76946095D01*
X51284190Y-76946095D01*
X51188952Y-76898476D01*
X51141333Y-76850857D01*
X51093714Y-76755619D01*
X51093714Y-76565142D01*
X51141333Y-76469904D01*
X51760380Y-76041333D02*
X50760380Y-76041333D01*
X51760380Y-75612761D02*
X51236571Y-75612761D01*
X51141333Y-75660380D01*
X51093714Y-75755619D01*
X51093714Y-75898476D01*
X51141333Y-75993714D01*
X51188952Y-76041333D01*
X51760380Y-74708000D02*
X51236571Y-74708000D01*
X51141333Y-74755619D01*
X51093714Y-74850857D01*
X51093714Y-75041333D01*
X51141333Y-75136571D01*
X51712761Y-74708000D02*
X51760380Y-74803238D01*
X51760380Y-75041333D01*
X51712761Y-75136571D01*
X51617523Y-75184190D01*
X51522285Y-75184190D01*
X51427047Y-75136571D01*
X51379428Y-75041333D01*
X51379428Y-74803238D01*
X51331809Y-74708000D01*
X51093714Y-74231809D02*
X51760380Y-74231809D01*
X51188952Y-74231809D02*
X51141333Y-74184190D01*
X51093714Y-74088952D01*
X51093714Y-73946095D01*
X51141333Y-73850857D01*
X51236571Y-73803238D01*
X51760380Y-73803238D01*
X51093714Y-73327047D02*
X51760380Y-73327047D01*
X51188952Y-73327047D02*
X51141333Y-73279428D01*
X51093714Y-73184190D01*
X51093714Y-73041333D01*
X51141333Y-72946095D01*
X51236571Y-72898476D01*
X51760380Y-72898476D01*
X51712761Y-72041333D02*
X51760380Y-72136571D01*
X51760380Y-72327047D01*
X51712761Y-72422285D01*
X51617523Y-72469904D01*
X51236571Y-72469904D01*
X51141333Y-72422285D01*
X51093714Y-72327047D01*
X51093714Y-72136571D01*
X51141333Y-72041333D01*
X51236571Y-71993714D01*
X51331809Y-71993714D01*
X51427047Y-72469904D01*
X51760380Y-71422285D02*
X51712761Y-71517523D01*
X51617523Y-71565142D01*
X50760380Y-71565142D01*
G04 #@! TO.C,U3*
X51104380Y-67309904D02*
X51913904Y-67309904D01*
X52009142Y-67262285D01*
X52056761Y-67214666D01*
X52104380Y-67119428D01*
X52104380Y-66928952D01*
X52056761Y-66833714D01*
X52009142Y-66786095D01*
X51913904Y-66738476D01*
X51104380Y-66738476D01*
X51104380Y-66357523D02*
X51104380Y-65738476D01*
X51485333Y-66071809D01*
X51485333Y-65928952D01*
X51532952Y-65833714D01*
X51580571Y-65786095D01*
X51675809Y-65738476D01*
X51913904Y-65738476D01*
X52009142Y-65786095D01*
X52056761Y-65833714D01*
X52104380Y-65928952D01*
X52104380Y-66214666D01*
X52056761Y-66309904D01*
X52009142Y-66357523D01*
X56530571Y-70928952D02*
X56578190Y-70786095D01*
X56625809Y-70738476D01*
X56721047Y-70690857D01*
X56863904Y-70690857D01*
X56959142Y-70738476D01*
X57006761Y-70786095D01*
X57054380Y-70881333D01*
X57054380Y-71262285D01*
X56054380Y-71262285D01*
X56054380Y-70928952D01*
X56102000Y-70833714D01*
X56149619Y-70786095D01*
X56244857Y-70738476D01*
X56340095Y-70738476D01*
X56435333Y-70786095D01*
X56482952Y-70833714D01*
X56530571Y-70928952D01*
X56530571Y-71262285D01*
X57054380Y-70119428D02*
X57006761Y-70214666D01*
X56911523Y-70262285D01*
X56054380Y-70262285D01*
X56387714Y-69309904D02*
X57054380Y-69309904D01*
X56387714Y-69738476D02*
X56911523Y-69738476D01*
X57006761Y-69690857D01*
X57054380Y-69595619D01*
X57054380Y-69452761D01*
X57006761Y-69357523D01*
X56959142Y-69309904D01*
X57006761Y-68452761D02*
X57054380Y-68548000D01*
X57054380Y-68738476D01*
X57006761Y-68833714D01*
X56911523Y-68881333D01*
X56530571Y-68881333D01*
X56435333Y-68833714D01*
X56387714Y-68738476D01*
X56387714Y-68548000D01*
X56435333Y-68452761D01*
X56530571Y-68405142D01*
X56625809Y-68405142D01*
X56721047Y-68881333D01*
X57006761Y-66786095D02*
X57054380Y-66881333D01*
X57054380Y-67071809D01*
X57006761Y-67167047D01*
X56959142Y-67214666D01*
X56863904Y-67262285D01*
X56578190Y-67262285D01*
X56482952Y-67214666D01*
X56435333Y-67167047D01*
X56387714Y-67071809D01*
X56387714Y-66881333D01*
X56435333Y-66786095D01*
X57054380Y-66357523D02*
X56054380Y-66357523D01*
X57054380Y-65928952D02*
X56530571Y-65928952D01*
X56435333Y-65976571D01*
X56387714Y-66071809D01*
X56387714Y-66214666D01*
X56435333Y-66309904D01*
X56482952Y-66357523D01*
X57054380Y-65024190D02*
X56530571Y-65024190D01*
X56435333Y-65071809D01*
X56387714Y-65167047D01*
X56387714Y-65357523D01*
X56435333Y-65452761D01*
X57006761Y-65024190D02*
X57054380Y-65119428D01*
X57054380Y-65357523D01*
X57006761Y-65452761D01*
X56911523Y-65500380D01*
X56816285Y-65500380D01*
X56721047Y-65452761D01*
X56673428Y-65357523D01*
X56673428Y-65119428D01*
X56625809Y-65024190D01*
X56387714Y-64548000D02*
X57054380Y-64548000D01*
X56482952Y-64548000D02*
X56435333Y-64500380D01*
X56387714Y-64405142D01*
X56387714Y-64262285D01*
X56435333Y-64167047D01*
X56530571Y-64119428D01*
X57054380Y-64119428D01*
X56387714Y-63643238D02*
X57054380Y-63643238D01*
X56482952Y-63643238D02*
X56435333Y-63595619D01*
X56387714Y-63500380D01*
X56387714Y-63357523D01*
X56435333Y-63262285D01*
X56530571Y-63214666D01*
X57054380Y-63214666D01*
X57006761Y-62357523D02*
X57054380Y-62452761D01*
X57054380Y-62643238D01*
X57006761Y-62738476D01*
X56911523Y-62786095D01*
X56530571Y-62786095D01*
X56435333Y-62738476D01*
X56387714Y-62643238D01*
X56387714Y-62452761D01*
X56435333Y-62357523D01*
X56530571Y-62309904D01*
X56625809Y-62309904D01*
X56721047Y-62786095D01*
X57054380Y-61738476D02*
X57006761Y-61833714D01*
X56911523Y-61881333D01*
X56054380Y-61881333D01*
G04 #@! TO.C,U5*
X58724380Y-87375904D02*
X59533904Y-87375904D01*
X59629142Y-87328285D01*
X59676761Y-87280666D01*
X59724380Y-87185428D01*
X59724380Y-86994952D01*
X59676761Y-86899714D01*
X59629142Y-86852095D01*
X59533904Y-86804476D01*
X58724380Y-86804476D01*
X58724380Y-85852095D02*
X58724380Y-86328285D01*
X59200571Y-86375904D01*
X59152952Y-86328285D01*
X59105333Y-86233047D01*
X59105333Y-85994952D01*
X59152952Y-85899714D01*
X59200571Y-85852095D01*
X59295809Y-85804476D01*
X59533904Y-85804476D01*
X59629142Y-85852095D01*
X59676761Y-85899714D01*
X59724380Y-85994952D01*
X59724380Y-86233047D01*
X59676761Y-86328285D01*
X59629142Y-86375904D01*
X64674380Y-89899714D02*
X64198190Y-90233047D01*
X64674380Y-90471142D02*
X63674380Y-90471142D01*
X63674380Y-90090190D01*
X63722000Y-89994952D01*
X63769619Y-89947333D01*
X63864857Y-89899714D01*
X64007714Y-89899714D01*
X64102952Y-89947333D01*
X64150571Y-89994952D01*
X64198190Y-90090190D01*
X64198190Y-90471142D01*
X64150571Y-89471142D02*
X64150571Y-89137809D01*
X64674380Y-88994952D02*
X64674380Y-89471142D01*
X63674380Y-89471142D01*
X63674380Y-88994952D01*
X64674380Y-88566380D02*
X63674380Y-88566380D01*
X63674380Y-88328285D01*
X63722000Y-88185428D01*
X63817238Y-88090190D01*
X63912476Y-88042571D01*
X64102952Y-87994952D01*
X64245809Y-87994952D01*
X64436285Y-88042571D01*
X64531523Y-88090190D01*
X64626761Y-88185428D01*
X64674380Y-88328285D01*
X64674380Y-88566380D01*
X64293428Y-87566380D02*
X64293428Y-86804476D01*
X64674380Y-87185428D02*
X63912476Y-87185428D01*
X64674380Y-86328285D02*
X63674380Y-86328285D01*
X64055333Y-86328285D02*
X64007714Y-86233047D01*
X64007714Y-86042571D01*
X64055333Y-85947333D01*
X64102952Y-85899714D01*
X64198190Y-85852095D01*
X64483904Y-85852095D01*
X64579142Y-85899714D01*
X64626761Y-85947333D01*
X64674380Y-86042571D01*
X64674380Y-86233047D01*
X64626761Y-86328285D01*
X64674380Y-85280666D02*
X64626761Y-85375904D01*
X64531523Y-85423523D01*
X63674380Y-85423523D01*
X64674380Y-84471142D02*
X64150571Y-84471142D01*
X64055333Y-84518761D01*
X64007714Y-84614000D01*
X64007714Y-84804476D01*
X64055333Y-84899714D01*
X64626761Y-84471142D02*
X64674380Y-84566380D01*
X64674380Y-84804476D01*
X64626761Y-84899714D01*
X64531523Y-84947333D01*
X64436285Y-84947333D01*
X64341047Y-84899714D01*
X64293428Y-84804476D01*
X64293428Y-84566380D01*
X64245809Y-84471142D01*
X64007714Y-83994952D02*
X64674380Y-83994952D01*
X64102952Y-83994952D02*
X64055333Y-83947333D01*
X64007714Y-83852095D01*
X64007714Y-83709238D01*
X64055333Y-83614000D01*
X64150571Y-83566380D01*
X64674380Y-83566380D01*
X64674380Y-83090190D02*
X63674380Y-83090190D01*
X64293428Y-82994952D02*
X64674380Y-82709238D01*
X64007714Y-82709238D02*
X64388666Y-83090190D01*
G04 #@! TO.C,U7*
X58216380Y-67309904D02*
X59025904Y-67309904D01*
X59121142Y-67262285D01*
X59168761Y-67214666D01*
X59216380Y-67119428D01*
X59216380Y-66928952D01*
X59168761Y-66833714D01*
X59121142Y-66786095D01*
X59025904Y-66738476D01*
X58216380Y-66738476D01*
X58216380Y-66357523D02*
X58216380Y-65690857D01*
X59216380Y-66119428D01*
X63642571Y-70262285D02*
X63690190Y-70119428D01*
X63737809Y-70071809D01*
X63833047Y-70024190D01*
X63975904Y-70024190D01*
X64071142Y-70071809D01*
X64118761Y-70119428D01*
X64166380Y-70214666D01*
X64166380Y-70595619D01*
X63166380Y-70595619D01*
X63166380Y-70262285D01*
X63214000Y-70167047D01*
X63261619Y-70119428D01*
X63356857Y-70071809D01*
X63452095Y-70071809D01*
X63547333Y-70119428D01*
X63594952Y-70167047D01*
X63642571Y-70262285D01*
X63642571Y-70595619D01*
X64166380Y-69452761D02*
X64118761Y-69548000D01*
X64023523Y-69595619D01*
X63166380Y-69595619D01*
X63499714Y-68643238D02*
X64166380Y-68643238D01*
X63499714Y-69071809D02*
X64023523Y-69071809D01*
X64118761Y-69024190D01*
X64166380Y-68928952D01*
X64166380Y-68786095D01*
X64118761Y-68690857D01*
X64071142Y-68643238D01*
X64118761Y-67786095D02*
X64166380Y-67881333D01*
X64166380Y-68071809D01*
X64118761Y-68167047D01*
X64023523Y-68214666D01*
X63642571Y-68214666D01*
X63547333Y-68167047D01*
X63499714Y-68071809D01*
X63499714Y-67881333D01*
X63547333Y-67786095D01*
X63642571Y-67738476D01*
X63737809Y-67738476D01*
X63833047Y-68214666D01*
X63785428Y-67309904D02*
X63785428Y-66548000D01*
X64166380Y-66928952D02*
X63404476Y-66928952D01*
X64166380Y-66071809D02*
X63166380Y-66071809D01*
X63547333Y-66071809D02*
X63499714Y-65976571D01*
X63499714Y-65786095D01*
X63547333Y-65690857D01*
X63594952Y-65643238D01*
X63690190Y-65595619D01*
X63975904Y-65595619D01*
X64071142Y-65643238D01*
X64118761Y-65690857D01*
X64166380Y-65786095D01*
X64166380Y-65976571D01*
X64118761Y-66071809D01*
X64166380Y-65024190D02*
X64118761Y-65119428D01*
X64023523Y-65167047D01*
X63166380Y-65167047D01*
X64166380Y-64214666D02*
X63642571Y-64214666D01*
X63547333Y-64262285D01*
X63499714Y-64357523D01*
X63499714Y-64548000D01*
X63547333Y-64643238D01*
X64118761Y-64214666D02*
X64166380Y-64309904D01*
X64166380Y-64548000D01*
X64118761Y-64643238D01*
X64023523Y-64690857D01*
X63928285Y-64690857D01*
X63833047Y-64643238D01*
X63785428Y-64548000D01*
X63785428Y-64309904D01*
X63737809Y-64214666D01*
X63499714Y-63738476D02*
X64166380Y-63738476D01*
X63594952Y-63738476D02*
X63547333Y-63690857D01*
X63499714Y-63595619D01*
X63499714Y-63452761D01*
X63547333Y-63357523D01*
X63642571Y-63309904D01*
X64166380Y-63309904D01*
X64166380Y-62833714D02*
X63166380Y-62833714D01*
X63785428Y-62738476D02*
X64166380Y-62452761D01*
X63499714Y-62452761D02*
X63880666Y-62833714D01*
G04 #@! TO.C,U8*
X71932380Y-87375904D02*
X72741904Y-87375904D01*
X72837142Y-87328285D01*
X72884761Y-87280666D01*
X72932380Y-87185428D01*
X72932380Y-86994952D01*
X72884761Y-86899714D01*
X72837142Y-86852095D01*
X72741904Y-86804476D01*
X71932380Y-86804476D01*
X72360952Y-86185428D02*
X72313333Y-86280666D01*
X72265714Y-86328285D01*
X72170476Y-86375904D01*
X72122857Y-86375904D01*
X72027619Y-86328285D01*
X71980000Y-86280666D01*
X71932380Y-86185428D01*
X71932380Y-85994952D01*
X71980000Y-85899714D01*
X72027619Y-85852095D01*
X72122857Y-85804476D01*
X72170476Y-85804476D01*
X72265714Y-85852095D01*
X72313333Y-85899714D01*
X72360952Y-85994952D01*
X72360952Y-86185428D01*
X72408571Y-86280666D01*
X72456190Y-86328285D01*
X72551428Y-86375904D01*
X72741904Y-86375904D01*
X72837142Y-86328285D01*
X72884761Y-86280666D01*
X72932380Y-86185428D01*
X72932380Y-85994952D01*
X72884761Y-85899714D01*
X72837142Y-85852095D01*
X72741904Y-85804476D01*
X72551428Y-85804476D01*
X72456190Y-85852095D01*
X72408571Y-85899714D01*
X72360952Y-85994952D01*
X76882380Y-89733047D02*
X76882380Y-89161619D01*
X77882380Y-89447333D02*
X76882380Y-89447333D01*
X77787142Y-88256857D02*
X77834761Y-88304476D01*
X77882380Y-88447333D01*
X77882380Y-88542571D01*
X77834761Y-88685428D01*
X77739523Y-88780666D01*
X77644285Y-88828285D01*
X77453809Y-88875904D01*
X77310952Y-88875904D01*
X77120476Y-88828285D01*
X77025238Y-88780666D01*
X76930000Y-88685428D01*
X76882380Y-88542571D01*
X76882380Y-88447333D01*
X76930000Y-88304476D01*
X76977619Y-88256857D01*
X76882380Y-87923523D02*
X76882380Y-87256857D01*
X77882380Y-87685428D01*
X77834761Y-86923523D02*
X77882380Y-86780666D01*
X77882380Y-86542571D01*
X77834761Y-86447333D01*
X77787142Y-86399714D01*
X77691904Y-86352095D01*
X77596666Y-86352095D01*
X77501428Y-86399714D01*
X77453809Y-86447333D01*
X77406190Y-86542571D01*
X77358571Y-86733047D01*
X77310952Y-86828285D01*
X77263333Y-86875904D01*
X77168095Y-86923523D01*
X77072857Y-86923523D01*
X76977619Y-86875904D01*
X76930000Y-86828285D01*
X76882380Y-86733047D01*
X76882380Y-86494952D01*
X76930000Y-86352095D01*
X77882380Y-85399714D02*
X77882380Y-85971142D01*
X77882380Y-85685428D02*
X76882380Y-85685428D01*
X77025238Y-85780666D01*
X77120476Y-85875904D01*
X77168095Y-85971142D01*
X77215714Y-84542571D02*
X77882380Y-84542571D01*
X76834761Y-84780666D02*
X77549047Y-85018761D01*
X77549047Y-84399714D01*
X77358571Y-83685428D02*
X77358571Y-84018761D01*
X77882380Y-84018761D02*
X76882380Y-84018761D01*
X76882380Y-83542571D01*
G04 #@! TO.C,J8*
X111934666Y-89666380D02*
X111934666Y-90380666D01*
X111887047Y-90523523D01*
X111791809Y-90618761D01*
X111648952Y-90666380D01*
X111553714Y-90666380D01*
X112553714Y-90094952D02*
X112458476Y-90047333D01*
X112410857Y-89999714D01*
X112363238Y-89904476D01*
X112363238Y-89856857D01*
X112410857Y-89761619D01*
X112458476Y-89714000D01*
X112553714Y-89666380D01*
X112744190Y-89666380D01*
X112839428Y-89714000D01*
X112887047Y-89761619D01*
X112934666Y-89856857D01*
X112934666Y-89904476D01*
X112887047Y-89999714D01*
X112839428Y-90047333D01*
X112744190Y-90094952D01*
X112553714Y-90094952D01*
X112458476Y-90142571D01*
X112410857Y-90190190D01*
X112363238Y-90285428D01*
X112363238Y-90475904D01*
X112410857Y-90571142D01*
X112458476Y-90618761D01*
X112553714Y-90666380D01*
X112744190Y-90666380D01*
X112839428Y-90618761D01*
X112887047Y-90571142D01*
X112934666Y-90475904D01*
X112934666Y-90285428D01*
X112887047Y-90190190D01*
X112839428Y-90142571D01*
X112744190Y-90094952D01*
X109672380Y-89550285D02*
X108672380Y-89550285D01*
X109053333Y-89550285D02*
X109005714Y-89455047D01*
X109005714Y-89264571D01*
X109053333Y-89169333D01*
X109100952Y-89121714D01*
X109196190Y-89074095D01*
X109481904Y-89074095D01*
X109577142Y-89121714D01*
X109624761Y-89169333D01*
X109672380Y-89264571D01*
X109672380Y-89455047D01*
X109624761Y-89550285D01*
X109672380Y-88502666D02*
X109624761Y-88597904D01*
X109529523Y-88645523D01*
X108672380Y-88645523D01*
X109672380Y-87693142D02*
X109148571Y-87693142D01*
X109053333Y-87740761D01*
X109005714Y-87836000D01*
X109005714Y-88026476D01*
X109053333Y-88121714D01*
X109624761Y-87693142D02*
X109672380Y-87788380D01*
X109672380Y-88026476D01*
X109624761Y-88121714D01*
X109529523Y-88169333D01*
X109434285Y-88169333D01*
X109339047Y-88121714D01*
X109291428Y-88026476D01*
X109291428Y-87788380D01*
X109243809Y-87693142D01*
X109005714Y-87216952D02*
X109672380Y-87216952D01*
X109100952Y-87216952D02*
X109053333Y-87169333D01*
X109005714Y-87074095D01*
X109005714Y-86931238D01*
X109053333Y-86836000D01*
X109148571Y-86788380D01*
X109672380Y-86788380D01*
X109672380Y-86312190D02*
X108672380Y-86312190D01*
X109291428Y-86216952D02*
X109672380Y-85931238D01*
X109005714Y-85931238D02*
X109386666Y-86312190D01*
X109767619Y-85740761D02*
X109767619Y-84978857D01*
X109005714Y-84740761D02*
X109862857Y-84740761D01*
X109958095Y-84788380D01*
X110005714Y-84883619D01*
X110005714Y-84931238D01*
X108672380Y-84740761D02*
X108720000Y-84788380D01*
X108767619Y-84740761D01*
X108720000Y-84693142D01*
X108672380Y-84740761D01*
X108767619Y-84740761D01*
X109005714Y-83836000D02*
X109672380Y-83836000D01*
X109005714Y-84264571D02*
X109529523Y-84264571D01*
X109624761Y-84216952D01*
X109672380Y-84121714D01*
X109672380Y-83978857D01*
X109624761Y-83883619D01*
X109577142Y-83836000D01*
X109672380Y-83359809D02*
X109005714Y-83359809D01*
X109100952Y-83359809D02*
X109053333Y-83312190D01*
X109005714Y-83216952D01*
X109005714Y-83074095D01*
X109053333Y-82978857D01*
X109148571Y-82931238D01*
X109672380Y-82931238D01*
X109148571Y-82931238D02*
X109053333Y-82883619D01*
X109005714Y-82788380D01*
X109005714Y-82645523D01*
X109053333Y-82550285D01*
X109148571Y-82502666D01*
X109672380Y-82502666D01*
X109005714Y-82026476D02*
X110005714Y-82026476D01*
X109053333Y-82026476D02*
X109005714Y-81931238D01*
X109005714Y-81740761D01*
X109053333Y-81645523D01*
X109100952Y-81597904D01*
X109196190Y-81550285D01*
X109481904Y-81550285D01*
X109577142Y-81597904D01*
X109624761Y-81645523D01*
X109672380Y-81740761D01*
X109672380Y-81931238D01*
X109624761Y-82026476D01*
X109624761Y-80740761D02*
X109672380Y-80836000D01*
X109672380Y-81026476D01*
X109624761Y-81121714D01*
X109529523Y-81169333D01*
X109148571Y-81169333D01*
X109053333Y-81121714D01*
X109005714Y-81026476D01*
X109005714Y-80836000D01*
X109053333Y-80740761D01*
X109148571Y-80693142D01*
X109243809Y-80693142D01*
X109339047Y-81169333D01*
X109672380Y-80264571D02*
X109005714Y-80264571D01*
X109196190Y-80264571D02*
X109100952Y-80216952D01*
X109053333Y-80169333D01*
X109005714Y-80074095D01*
X109005714Y-79978857D01*
G04 #@! TD*
M02*
