M48
;DRILL file {KiCad 5.0.2-bee76a0~70~ubuntu18.04.1} date Sun 20 Jan 2019 23:04:13 GMT
;FORMAT={-:-/ absolute / inch / decimal}
FMAT,2
INCH,TZ
T1C0.0157
T2C0.0295
T3C0.0315
T4C0.0350
T5C0.0394
T6C0.0433
T7C0.0472
T8C0.0630
T9C0.0791
%
G90
G05
T1
X1.86Y-2.984
X1.86Y-2.984
X1.86Y-3.05
X2.06Y-2.62
X2.1Y-2.9
X2.24Y-3.2
X2.28Y-3.08
X2.3Y-2.66
X2.36Y-3.12
X2.36Y-3.28
X2.42Y-2.88
X2.42Y-3.16
X2.5Y-2.62
X2.52Y-3.04
X2.58Y-3.04
X2.6Y-3.64
X2.62Y-3.48
X2.64Y-2.84
X2.64Y-2.94
X2.7Y-2.88
X2.8Y-3.56
X2.92Y-3.3
X3.46Y-2.18
X3.86Y-3.56
T2
X1.7Y-2.6976
X1.7Y-2.7763
X1.7Y-2.855
X1.7Y-2.9338
X1.7Y-3.0125
X1.7Y-3.0913
X1.7Y-3.17
X1.7787Y-2.6976
X1.7787Y-2.7763
X1.7787Y-2.855
X1.7787Y-2.9338
X1.7787Y-3.0125
X1.7787Y-3.0913
X1.7787Y-3.17
T3
X3.11Y-2.18
X3.11Y-2.2784
X4.0516Y-2.89
X4.15Y-2.89
T4
X1.98Y-3.88
X2.08Y-3.88
X2.64Y-3.88
X2.74Y-3.88
X4.08Y-3.88
X4.18Y-3.88
X3.3Y-3.88
X3.4Y-3.88
T5
X4.42Y-3.26
X4.42Y-3.36
X4.42Y-3.46
X2.72Y-2.16
X2.72Y-2.26
X2.72Y-2.36
T6
X3.44Y-2.38
X3.5069Y-2.2343
X3.5739Y-2.38
X3.6408Y-2.2343
X3.7077Y-2.38
T7
X4.08Y-2.1631
X4.08Y-2.36
T8
X3.21Y-2.69
X3.81Y-2.69
T9
X3.1Y-4.08
X3.5Y-4.08
X1.78Y-4.08
X2.18Y-4.08
X2.44Y-4.08
X2.84Y-4.08
X3.88Y-4.08
X4.28Y-4.08
T5
X4.4Y-2.7794G85X4.4Y-2.7006
G05
X4.5575Y-2.555G85X4.4787Y-2.555
G05
X4.6362Y-2.7794G85X4.6362Y-2.7006
G05
T0
M30
