G04 #@! TF.GenerationSoftware,KiCad,Pcbnew,5.0.2-bee76a0~70~ubuntu18.04.1*
G04 #@! TF.CreationDate,2019-03-10T17:41:35+00:00*
G04 #@! TF.ProjectId,Lcr_addon,4c63725f-6164-4646-9f6e-2e6b69636164,rev?*
G04 #@! TF.SameCoordinates,Original*
G04 #@! TF.FileFunction,Copper,L1,Top*
G04 #@! TF.FilePolarity,Positive*
%FSLAX46Y46*%
G04 Gerber Fmt 4.6, Leading zero omitted, Abs format (unit mm)*
G04 Created by KiCad (PCBNEW 5.0.2-bee76a0~70~ubuntu18.04.1) date Sun 10 Mar 2019 17:41:35 GMT*
%MOMM*%
%LPD*%
G01*
G04 APERTURE LIST*
G04 #@! TA.AperFunction,Conductor*
%ADD10C,0.100000*%
G04 #@! TD*
G04 #@! TA.AperFunction,ComponentPad*
%ADD11C,1.200000*%
G04 #@! TD*
G04 #@! TA.AperFunction,ComponentPad*
%ADD12C,5.500000*%
G04 #@! TD*
G04 #@! TA.AperFunction,ComponentPad*
%ADD13R,1.800000X1.800000*%
G04 #@! TD*
G04 #@! TA.AperFunction,ComponentPad*
%ADD14O,1.800000X1.800000*%
G04 #@! TD*
G04 #@! TA.AperFunction,SMDPad,CuDef*
%ADD15R,0.510000X0.700000*%
G04 #@! TD*
G04 #@! TA.AperFunction,ComponentPad*
%ADD16C,1.600000*%
G04 #@! TD*
G04 #@! TA.AperFunction,ComponentPad*
%ADD17R,1.600000X1.600000*%
G04 #@! TD*
G04 #@! TA.AperFunction,ComponentPad*
%ADD18R,3.200000X3.200000*%
G04 #@! TD*
G04 #@! TA.AperFunction,ComponentPad*
%ADD19O,3.200000X3.200000*%
G04 #@! TD*
G04 #@! TA.AperFunction,ComponentPad*
%ADD20O,1.600000X2.500000*%
G04 #@! TD*
G04 #@! TA.AperFunction,ComponentPad*
%ADD21O,3.500000X7.000000*%
G04 #@! TD*
G04 #@! TA.AperFunction,ComponentPad*
%ADD22C,2.400000*%
G04 #@! TD*
G04 #@! TA.AperFunction,ComponentPad*
%ADD23R,1.700000X1.700000*%
G04 #@! TD*
G04 #@! TA.AperFunction,ComponentPad*
%ADD24O,1.700000X1.700000*%
G04 #@! TD*
G04 #@! TA.AperFunction,ComponentPad*
%ADD25O,1.600000X1.600000*%
G04 #@! TD*
G04 #@! TA.AperFunction,ViaPad*
%ADD26C,0.800000*%
G04 #@! TD*
G04 #@! TA.AperFunction,Conductor*
%ADD27C,0.250000*%
G04 #@! TD*
G04 #@! TA.AperFunction,Conductor*
%ADD28C,0.254000*%
G04 #@! TD*
G04 APERTURE END LIST*
D10*
G04 #@! TO.N,+12V*
G04 #@! TO.C,J2*
G36*
X43554505Y-79919204D02*
X43578773Y-79922804D01*
X43602572Y-79928765D01*
X43625671Y-79937030D01*
X43647850Y-79947520D01*
X43668893Y-79960132D01*
X43688599Y-79974747D01*
X43706777Y-79991223D01*
X43723253Y-80009401D01*
X43737868Y-80029107D01*
X43750480Y-80050150D01*
X43760970Y-80072329D01*
X43769235Y-80095428D01*
X43775196Y-80119227D01*
X43778796Y-80143495D01*
X43780000Y-80167999D01*
X43780000Y-80868001D01*
X43778796Y-80892505D01*
X43775196Y-80916773D01*
X43769235Y-80940572D01*
X43760970Y-80963671D01*
X43750480Y-80985850D01*
X43737868Y-81006893D01*
X43723253Y-81026599D01*
X43706777Y-81044777D01*
X43688599Y-81061253D01*
X43668893Y-81075868D01*
X43647850Y-81088480D01*
X43625671Y-81098970D01*
X43602572Y-81107235D01*
X43578773Y-81113196D01*
X43554505Y-81116796D01*
X43530001Y-81118000D01*
X42829999Y-81118000D01*
X42805495Y-81116796D01*
X42781227Y-81113196D01*
X42757428Y-81107235D01*
X42734329Y-81098970D01*
X42712150Y-81088480D01*
X42691107Y-81075868D01*
X42671401Y-81061253D01*
X42653223Y-81044777D01*
X42636747Y-81026599D01*
X42622132Y-81006893D01*
X42609520Y-80985850D01*
X42599030Y-80963671D01*
X42590765Y-80940572D01*
X42584804Y-80916773D01*
X42581204Y-80892505D01*
X42580000Y-80868001D01*
X42580000Y-80167999D01*
X42581204Y-80143495D01*
X42584804Y-80119227D01*
X42590765Y-80095428D01*
X42599030Y-80072329D01*
X42609520Y-80050150D01*
X42622132Y-80029107D01*
X42636747Y-80009401D01*
X42653223Y-79991223D01*
X42671401Y-79974747D01*
X42691107Y-79960132D01*
X42712150Y-79947520D01*
X42734329Y-79937030D01*
X42757428Y-79928765D01*
X42781227Y-79922804D01*
X42805495Y-79919204D01*
X42829999Y-79918000D01*
X43530001Y-79918000D01*
X43554505Y-79919204D01*
X43554505Y-79919204D01*
G37*
D11*
G04 #@! TD*
G04 #@! TO.P,J2,1*
G04 #@! TO.N,+12V*
X43180000Y-80518000D03*
G04 #@! TO.P,J2,3*
G04 #@! TO.N,Net-(J2-Pad3)*
X43180000Y-78518000D03*
G04 #@! TO.P,J2,5*
G04 #@! TO.N,Net-(J2-Pad5)*
X43180000Y-76518000D03*
G04 #@! TO.P,J2,7*
G04 #@! TO.N,Net-(J2-Pad7)*
X43180000Y-74518000D03*
G04 #@! TO.P,J2,9*
G04 #@! TO.N,Net-(J2-Pad9)*
X43180000Y-72518000D03*
G04 #@! TO.P,J2,11*
G04 #@! TO.N,Net-(J2-Pad11)*
X43180000Y-70518000D03*
G04 #@! TO.P,J2,13*
G04 #@! TO.N,GND*
X43180000Y-68518000D03*
G04 #@! TO.P,J2,2*
G04 #@! TO.N,Net-(J2-Pad2)*
X45180000Y-80518000D03*
G04 #@! TO.P,J2,4*
G04 #@! TO.N,Net-(J2-Pad4)*
X45180000Y-78518000D03*
G04 #@! TO.P,J2,6*
G04 #@! TO.N,Net-(J2-Pad6)*
X45180000Y-76518000D03*
G04 #@! TO.P,J2,8*
G04 #@! TO.N,Net-(J2-Pad8)*
X45180000Y-74518000D03*
G04 #@! TO.P,J2,10*
G04 #@! TO.N,Net-(J2-Pad10)*
X45180000Y-72518000D03*
G04 #@! TO.P,J2,12*
G04 #@! TO.N,GND*
X45180000Y-70518000D03*
G04 #@! TO.P,J2,14*
X45180000Y-68518000D03*
G04 #@! TD*
D12*
G04 #@! TO.P,REF\002A\002A,1*
G04 #@! TO.N,N/C*
X116840000Y-56388000D03*
G04 #@! TD*
G04 #@! TO.P,REF\002A\002A,1*
G04 #@! TO.N,N/C*
X114300000Y-56388000D03*
G04 #@! TD*
G04 #@! TO.P,REF\002A\002A,1*
G04 #@! TO.N,N/C*
X43688000Y-56388000D03*
G04 #@! TD*
D13*
G04 #@! TO.P,U4,1*
G04 #@! TO.N,+12V*
X87376000Y-60452000D03*
D14*
G04 #@! TO.P,U4,2*
G04 #@! TO.N,Net-(D1-Pad1)*
X89076000Y-56752000D03*
G04 #@! TO.P,U4,3*
G04 #@! TO.N,GND*
X90776000Y-60452000D03*
G04 #@! TO.P,U4,4*
G04 #@! TO.N,VCC*
X92476000Y-56752000D03*
G04 #@! TO.P,U4,5*
G04 #@! TO.N,GND*
X94176000Y-60452000D03*
G04 #@! TD*
D15*
G04 #@! TO.P,U6,1*
G04 #@! TO.N,Net-(U2-Pad4)*
X60518000Y-72788000D03*
G04 #@! TO.P,U6,2*
G04 #@! TO.N,Net-(J8-Pad2)*
X61468000Y-72788000D03*
G04 #@! TO.P,U6,3*
G04 #@! TO.N,GND*
X62418000Y-72788000D03*
G04 #@! TO.P,U6,4*
G04 #@! TO.N,Net-(J5-Pad1)*
X62418000Y-70468000D03*
G04 #@! TO.P,U6,5*
G04 #@! TO.N,VCC*
X60518000Y-70468000D03*
G04 #@! TD*
D16*
G04 #@! TO.P,C1,2*
G04 #@! TO.N,GND*
X78994000Y-57872000D03*
D17*
G04 #@! TO.P,C1,1*
G04 #@! TO.N,+12V*
X78994000Y-55372000D03*
G04 #@! TD*
G04 #@! TO.P,C2,1*
G04 #@! TO.N,VCC*
X105410000Y-73406000D03*
D16*
G04 #@! TO.P,C2,2*
G04 #@! TO.N,GND*
X102910000Y-73406000D03*
G04 #@! TD*
D18*
G04 #@! TO.P,D1,1*
G04 #@! TO.N,Net-(D1-Pad1)*
X81534000Y-68326000D03*
D19*
G04 #@! TO.P,D1,2*
G04 #@! TO.N,GND*
X96774000Y-68326000D03*
G04 #@! TD*
D20*
G04 #@! TO.P,J4,2*
G04 #@! TO.N,GND*
X110744000Y-93472000D03*
G04 #@! TO.P,J4,1*
G04 #@! TO.N,Net-(J4-Pad1)*
X108204000Y-93472000D03*
D21*
G04 #@! TO.P,J4,2*
G04 #@! TO.N,GND*
X103124000Y-98552000D03*
X113284000Y-98552000D03*
G04 #@! TD*
D20*
G04 #@! TO.P,J5,2*
G04 #@! TO.N,GND*
X71120000Y-93472000D03*
G04 #@! TO.P,J5,1*
G04 #@! TO.N,Net-(J5-Pad1)*
X68580000Y-93472000D03*
D21*
G04 #@! TO.P,J5,2*
G04 #@! TO.N,GND*
X63500000Y-98552000D03*
X73660000Y-98552000D03*
G04 #@! TD*
G04 #@! TO.P,J6,2*
G04 #@! TO.N,GND*
X91948000Y-98552000D03*
X81788000Y-98552000D03*
D20*
G04 #@! TO.P,J6,1*
G04 #@! TO.N,Net-(J6-Pad1)*
X86868000Y-93472000D03*
G04 #@! TO.P,J6,2*
G04 #@! TO.N,GND*
X89408000Y-93472000D03*
G04 #@! TD*
D21*
G04 #@! TO.P,J7,2*
G04 #@! TO.N,GND*
X55372000Y-98552000D03*
X45212000Y-98552000D03*
D20*
G04 #@! TO.P,J7,1*
G04 #@! TO.N,Net-(J7-Pad1)*
X50292000Y-93472000D03*
G04 #@! TO.P,J7,2*
G04 #@! TO.N,GND*
X52832000Y-93472000D03*
G04 #@! TD*
D22*
G04 #@! TO.P,L1,1*
G04 #@! TO.N,Net-(D1-Pad1)*
X103632000Y-59944000D03*
G04 #@! TO.P,L1,2*
G04 #@! TO.N,VCC*
X103632000Y-54944000D03*
G04 #@! TD*
D15*
G04 #@! TO.P,U1,1*
G04 #@! TO.N,Net-(J2-Pad5)*
X53406000Y-82948000D03*
G04 #@! TO.P,U1,2*
G04 #@! TO.N,Net-(J2-Pad8)*
X54356000Y-82948000D03*
G04 #@! TO.P,U1,3*
G04 #@! TO.N,GND*
X55306000Y-82948000D03*
G04 #@! TO.P,U1,4*
G04 #@! TO.N,Net-(U1-Pad4)*
X55306000Y-80628000D03*
G04 #@! TO.P,U1,5*
G04 #@! TO.N,VCC*
X53406000Y-80628000D03*
G04 #@! TD*
G04 #@! TO.P,U2,5*
G04 #@! TO.N,VCC*
X53406000Y-70468000D03*
G04 #@! TO.P,U2,4*
G04 #@! TO.N,Net-(U2-Pad4)*
X55306000Y-70468000D03*
G04 #@! TO.P,U2,3*
G04 #@! TO.N,GND*
X55306000Y-72788000D03*
G04 #@! TO.P,U2,2*
G04 #@! TO.N,Net-(J2-Pad9)*
X54356000Y-72788000D03*
G04 #@! TO.P,U2,1*
G04 #@! TO.N,Net-(J2-Pad6)*
X53406000Y-72788000D03*
G04 #@! TD*
G04 #@! TO.P,U3,1*
G04 #@! TO.N,Net-(J2-Pad7)*
X53406000Y-62628000D03*
G04 #@! TO.P,U3,2*
G04 #@! TO.N,Net-(J2-Pad10)*
X54356000Y-62628000D03*
G04 #@! TO.P,U3,3*
G04 #@! TO.N,GND*
X55306000Y-62628000D03*
G04 #@! TO.P,U3,4*
G04 #@! TO.N,Net-(U3-Pad4)*
X55306000Y-60308000D03*
G04 #@! TO.P,U3,5*
G04 #@! TO.N,VCC*
X53406000Y-60308000D03*
G04 #@! TD*
G04 #@! TO.P,U5,5*
G04 #@! TO.N,VCC*
X61026000Y-80628000D03*
G04 #@! TO.P,U5,4*
G04 #@! TO.N,Net-(J7-Pad1)*
X62926000Y-80628000D03*
G04 #@! TO.P,U5,3*
G04 #@! TO.N,GND*
X62926000Y-82948000D03*
G04 #@! TO.P,U5,2*
G04 #@! TO.N,Net-(J8-Pad2)*
X61976000Y-82948000D03*
G04 #@! TO.P,U5,1*
G04 #@! TO.N,Net-(U1-Pad4)*
X61026000Y-82948000D03*
G04 #@! TD*
G04 #@! TO.P,U7,5*
G04 #@! TO.N,VCC*
X60518000Y-60308000D03*
G04 #@! TO.P,U7,4*
G04 #@! TO.N,Net-(J6-Pad1)*
X62418000Y-60308000D03*
G04 #@! TO.P,U7,3*
G04 #@! TO.N,GND*
X62418000Y-62628000D03*
G04 #@! TO.P,U7,2*
G04 #@! TO.N,Net-(J8-Pad2)*
X61468000Y-62628000D03*
G04 #@! TO.P,U7,1*
G04 #@! TO.N,Net-(U3-Pad4)*
X60518000Y-62628000D03*
G04 #@! TD*
G04 #@! TO.P,U8,1*
G04 #@! TO.N,N/C*
X74234000Y-77868000D03*
G04 #@! TO.P,U8,2*
G04 #@! TO.N,Net-(R1-Pad2)*
X75184000Y-77868000D03*
G04 #@! TO.P,U8,3*
G04 #@! TO.N,GND*
X76134000Y-77868000D03*
G04 #@! TO.P,U8,4*
G04 #@! TO.N,Net-(J8-Pad1)*
X76134000Y-75548000D03*
G04 #@! TO.P,U8,5*
G04 #@! TO.N,VCC*
X74234000Y-75548000D03*
G04 #@! TD*
D23*
G04 #@! TO.P,J8,1*
G04 #@! TO.N,Net-(J8-Pad1)*
X116332000Y-72136000D03*
D24*
G04 #@! TO.P,J8,2*
G04 #@! TO.N,Net-(J8-Pad2)*
X116332000Y-69596000D03*
G04 #@! TO.P,J8,3*
G04 #@! TO.N,VCC*
X116332000Y-67056000D03*
G04 #@! TD*
D12*
G04 #@! TO.P,REF\002A\002A,1*
G04 #@! TO.N,N/C*
X41148000Y-56388000D03*
G04 #@! TD*
D16*
G04 #@! TO.P,R1,1*
G04 #@! TO.N,Net-(J4-Pad1)*
X90424000Y-79248000D03*
D25*
G04 #@! TO.P,R1,2*
G04 #@! TO.N,Net-(R1-Pad2)*
X87884000Y-79248000D03*
G04 #@! TD*
D26*
G04 #@! TO.N,VCC*
X68580000Y-73152000D03*
X58166000Y-59309000D03*
X58039000Y-78232000D03*
X58420000Y-70104000D03*
G04 #@! TO.N,Net-(D1-Pad1)*
X87884000Y-55372000D03*
G04 #@! TO.N,Net-(J2-Pad5)*
X52578000Y-84582000D03*
X41148000Y-81661000D03*
G04 #@! TO.N,Net-(J2-Pad7)*
X53213000Y-64262000D03*
G04 #@! TO.N,Net-(J2-Pad9)*
X51562000Y-69342000D03*
G04 #@! TO.N,Net-(J2-Pad8)*
X52578000Y-81788000D03*
G04 #@! TO.N,Net-(J6-Pad1)*
X65786000Y-71247000D03*
X62611000Y-58674000D03*
G04 #@! TO.N,Net-(J8-Pad2)*
X62103000Y-71628000D03*
X61468000Y-64008000D03*
X62103000Y-74041000D03*
X61976000Y-81534000D03*
G04 #@! TO.N,Net-(R1-Pad2)*
X75184000Y-79502000D03*
G04 #@! TD*
D27*
G04 #@! TO.N,VCC*
X107696000Y-71120000D02*
X105410000Y-73406000D01*
X107696000Y-56896000D02*
X107696000Y-71120000D01*
X103632000Y-54944000D02*
X105744000Y-54944000D01*
X105744000Y-54944000D02*
X107696000Y-56896000D01*
X103408000Y-54720000D02*
X103632000Y-54944000D01*
X94488000Y-54740000D02*
X92476000Y-56752000D01*
X94488000Y-54720000D02*
X103408000Y-54720000D01*
X94488000Y-54720000D02*
X94488000Y-54740000D01*
X70976000Y-75548000D02*
X74234000Y-75548000D01*
X68580000Y-73152000D02*
X70976000Y-75548000D01*
X58565999Y-58909001D02*
X59798001Y-58909001D01*
X58166000Y-59309000D02*
X58565999Y-58909001D01*
X60518000Y-59629000D02*
X60518000Y-60308000D01*
X59798001Y-58909001D02*
X60518000Y-59629000D01*
X57766001Y-58909001D02*
X53993999Y-58909001D01*
X58166000Y-59309000D02*
X57766001Y-58909001D01*
X53406000Y-59497000D02*
X53406000Y-60308000D01*
X53993999Y-58909001D02*
X53406000Y-59497000D01*
X61026000Y-80028000D02*
X61026000Y-80628000D01*
X60881000Y-79883000D02*
X61026000Y-80028000D01*
X59690000Y-79883000D02*
X60881000Y-79883000D01*
X58039000Y-78232000D02*
X59690000Y-79883000D01*
X53406000Y-79817000D02*
X53406000Y-80628000D01*
X58039000Y-78232000D02*
X54991000Y-78232000D01*
X54991000Y-78232000D02*
X53406000Y-79817000D01*
X60154000Y-70104000D02*
X60518000Y-70468000D01*
X58420000Y-70104000D02*
X60154000Y-70104000D01*
X58420000Y-70104000D02*
X57023000Y-70104000D01*
X57023000Y-70104000D02*
X55753000Y-68834000D01*
X55753000Y-68834000D02*
X54356000Y-68834000D01*
X53406000Y-69784000D02*
X53406000Y-70468000D01*
X54356000Y-68834000D02*
X53406000Y-69784000D01*
X107696000Y-71120000D02*
X107696000Y-70993000D01*
X111633000Y-67056000D02*
X116332000Y-67056000D01*
X107696000Y-70993000D02*
X111633000Y-67056000D01*
G04 #@! TO.N,Net-(D1-Pad1)*
X81534000Y-68326000D02*
X81534000Y-59690000D01*
X87696000Y-55372000D02*
X89076000Y-56752000D01*
X81534000Y-59690000D02*
X85852000Y-55372000D01*
X87884000Y-55372000D02*
X86868000Y-55372000D01*
X85852000Y-55372000D02*
X86868000Y-55372000D01*
X86868000Y-55372000D02*
X87696000Y-55372000D01*
G04 #@! TO.N,Net-(J2-Pad5)*
X53406000Y-83754000D02*
X53406000Y-82948000D01*
X52578000Y-84582000D02*
X53406000Y-83754000D01*
X42580001Y-77117999D02*
X42516001Y-77117999D01*
X43180000Y-76518000D02*
X42580001Y-77117999D01*
X42516001Y-77117999D02*
X41148000Y-78486000D01*
X41148000Y-78486000D02*
X41148000Y-81534000D01*
G04 #@! TO.N,Net-(J2-Pad7)*
X53213000Y-62821000D02*
X53406000Y-62628000D01*
X53213000Y-64262000D02*
X53213000Y-62821000D01*
G04 #@! TO.N,Net-(J2-Pad9)*
X43180000Y-72518000D02*
X43054000Y-72518000D01*
X53848000Y-71628000D02*
X54356000Y-72136000D01*
X52578000Y-71628000D02*
X53848000Y-71628000D01*
X51562000Y-69342000D02*
X52070000Y-69850000D01*
X54356000Y-72136000D02*
X54356000Y-72788000D01*
X52070000Y-71120000D02*
X52578000Y-71628000D01*
X52070000Y-69850000D02*
X52070000Y-71120000D01*
G04 #@! TO.N,Net-(J2-Pad6)*
X45779999Y-77117999D02*
X45875999Y-77117999D01*
X45180000Y-76518000D02*
X45779999Y-77117999D01*
X45875999Y-77117999D02*
X45974000Y-77216000D01*
X45974000Y-77216000D02*
X49784000Y-77216000D01*
X53406000Y-73594000D02*
X53406000Y-72788000D01*
X49784000Y-77216000D02*
X53406000Y-73594000D01*
G04 #@! TO.N,Net-(J2-Pad8)*
X53796000Y-81788000D02*
X54356000Y-82348000D01*
X54356000Y-82348000D02*
X54356000Y-82948000D01*
X52578000Y-81788000D02*
X53796000Y-81788000D01*
G04 #@! TO.N,Net-(J2-Pad10)*
X45180000Y-72518000D02*
X46864000Y-72518000D01*
X54356000Y-65026000D02*
X54356000Y-62628000D01*
X46864000Y-72518000D02*
X54356000Y-65026000D01*
G04 #@! TO.N,Net-(J5-Pad1)*
X62418000Y-70468000D02*
X62418000Y-70800000D01*
X62418000Y-70800000D02*
X64897000Y-73279000D01*
X64897000Y-73279000D02*
X64897000Y-74168000D01*
X68580000Y-77851000D02*
X68580000Y-93472000D01*
X64897000Y-74168000D02*
X68580000Y-77851000D01*
G04 #@! TO.N,Net-(J6-Pad1)*
X85818000Y-93472000D02*
X65786000Y-73440000D01*
X86868000Y-93472000D02*
X85818000Y-93472000D01*
X65786000Y-71628000D02*
X65786000Y-71538000D01*
X65786000Y-73440000D02*
X65786000Y-71628000D01*
X65786000Y-71628000D02*
X65786000Y-71247000D01*
X62611000Y-60115000D02*
X62418000Y-60308000D01*
X62611000Y-58674000D02*
X62611000Y-60115000D01*
G04 #@! TO.N,Net-(J7-Pad1)*
X62926000Y-81228000D02*
X63232000Y-81534000D01*
X62926000Y-80628000D02*
X62926000Y-81228000D01*
X63232000Y-81534000D02*
X63246000Y-81534000D01*
X63246000Y-81534000D02*
X64262000Y-82550000D01*
X64262000Y-82550000D02*
X64262000Y-84328000D01*
X64262000Y-84328000D02*
X59055000Y-89535000D01*
X50292000Y-93022000D02*
X50292000Y-93472000D01*
X53779000Y-89535000D02*
X50292000Y-93022000D01*
X59055000Y-89535000D02*
X53779000Y-89535000D01*
G04 #@! TO.N,Net-(U1-Pad4)*
X61026000Y-82348000D02*
X60720000Y-82042000D01*
X61026000Y-82948000D02*
X61026000Y-82348000D01*
X60720000Y-82042000D02*
X60706000Y-82042000D01*
X60706000Y-82042000D02*
X60452000Y-81788000D01*
X60452000Y-81788000D02*
X55880000Y-81788000D01*
X55880000Y-81788000D02*
X55372000Y-81280000D01*
X55306000Y-81228000D02*
X55306000Y-80628000D01*
X55358000Y-81280000D02*
X55306000Y-81228000D01*
X55372000Y-81280000D02*
X55358000Y-81280000D01*
G04 #@! TO.N,Net-(U2-Pad4)*
X55612000Y-71374000D02*
X55306000Y-71068000D01*
X59563000Y-71374000D02*
X55612000Y-71374000D01*
X55306000Y-71068000D02*
X55306000Y-70468000D01*
X60518000Y-72329000D02*
X59563000Y-71374000D01*
X60518000Y-72788000D02*
X60518000Y-72329000D01*
G04 #@! TO.N,Net-(U3-Pad4)*
X59199000Y-61214000D02*
X60518000Y-62533000D01*
X55612000Y-61214000D02*
X59199000Y-61214000D01*
X55306000Y-60908000D02*
X55612000Y-61214000D01*
X60518000Y-62533000D02*
X60518000Y-62628000D01*
X55306000Y-60308000D02*
X55306000Y-60908000D01*
G04 #@! TO.N,Net-(J4-Pad1)*
X108204000Y-86868000D02*
X108204000Y-93472000D01*
X90424000Y-79248000D02*
X100584000Y-79248000D01*
X100584000Y-79248000D02*
X108204000Y-86868000D01*
G04 #@! TO.N,Net-(J8-Pad1)*
X76134000Y-76388000D02*
X76134000Y-75548000D01*
X115232000Y-72136000D02*
X109263000Y-78105000D01*
X116332000Y-72136000D02*
X115232000Y-72136000D01*
X95250000Y-76962000D02*
X76708000Y-76962000D01*
X76708000Y-76962000D02*
X76134000Y-76388000D01*
X109263000Y-78105000D02*
X96393000Y-78105000D01*
X96393000Y-78105000D02*
X95250000Y-76962000D01*
G04 #@! TO.N,Net-(J8-Pad2)*
X61468000Y-72263000D02*
X61468000Y-72788000D01*
X62103000Y-71628000D02*
X61468000Y-72263000D01*
X61468000Y-64008000D02*
X61468000Y-62628000D01*
X61837999Y-73757999D02*
X61468000Y-73388000D01*
X61468000Y-73388000D02*
X61468000Y-72788000D01*
X61976000Y-82948000D02*
X61976000Y-82348000D01*
X61837999Y-73757999D02*
X61837999Y-73775999D01*
X61837999Y-73775999D02*
X62103000Y-74041000D01*
X61976000Y-81534000D02*
X61976000Y-82348000D01*
G04 #@! TO.N,Net-(R1-Pad2)*
X75184000Y-79502000D02*
X75184000Y-77868000D01*
G04 #@! TD*
D28*
G04 #@! TO.N,GND*
G36*
X102076362Y-53904556D02*
X102053396Y-53960000D01*
X94562852Y-53960000D01*
X94488000Y-53945111D01*
X94413148Y-53960000D01*
X94191463Y-54004096D01*
X93940071Y-54172071D01*
X93857397Y-54295801D01*
X92884929Y-55268269D01*
X92627182Y-55217000D01*
X92324818Y-55217000D01*
X91877073Y-55306062D01*
X91369327Y-55645327D01*
X91030062Y-56153073D01*
X90910928Y-56752000D01*
X91030062Y-57350927D01*
X91369327Y-57858673D01*
X91877073Y-58197938D01*
X92324818Y-58287000D01*
X92627182Y-58287000D01*
X93074927Y-58197938D01*
X93582673Y-57858673D01*
X93921938Y-57350927D01*
X94041072Y-56752000D01*
X93959731Y-56343071D01*
X94822802Y-55480000D01*
X101867829Y-55480000D01*
X102076362Y-55983444D01*
X102592556Y-56499638D01*
X103266996Y-56779000D01*
X103997004Y-56779000D01*
X104671444Y-56499638D01*
X105187638Y-55983444D01*
X105303387Y-55704000D01*
X105429199Y-55704000D01*
X106936000Y-57210802D01*
X106936001Y-70805197D01*
X105782639Y-71958560D01*
X104610000Y-71958560D01*
X104362235Y-72007843D01*
X104152191Y-72148191D01*
X104011843Y-72358235D01*
X103965307Y-72592187D01*
X103917745Y-72577861D01*
X103089605Y-73406000D01*
X103917745Y-74234139D01*
X103965307Y-74219813D01*
X104011843Y-74453765D01*
X104152191Y-74663809D01*
X104362235Y-74804157D01*
X104610000Y-74853440D01*
X106210000Y-74853440D01*
X106457765Y-74804157D01*
X106667809Y-74663809D01*
X106808157Y-74453765D01*
X106857440Y-74206000D01*
X106857440Y-73033361D01*
X108180473Y-71710329D01*
X108243929Y-71667929D01*
X108411904Y-71416537D01*
X108427954Y-71335847D01*
X111947802Y-67816000D01*
X115053822Y-67816000D01*
X115261375Y-68126625D01*
X115559761Y-68326000D01*
X115261375Y-68525375D01*
X114933161Y-69016582D01*
X114817908Y-69596000D01*
X114933161Y-70175418D01*
X115261375Y-70666625D01*
X115279619Y-70678816D01*
X115234235Y-70687843D01*
X115024191Y-70828191D01*
X114883843Y-71038235D01*
X114834560Y-71286000D01*
X114834560Y-71487517D01*
X114792076Y-71515904D01*
X114684071Y-71588071D01*
X114641672Y-71651526D01*
X108948199Y-77345000D01*
X96707802Y-77345000D01*
X95840331Y-76477530D01*
X95797929Y-76414071D01*
X95546537Y-76246096D01*
X95324852Y-76202000D01*
X95324847Y-76202000D01*
X95250000Y-76187112D01*
X95175153Y-76202000D01*
X77022802Y-76202000D01*
X76978910Y-76158108D01*
X76987157Y-76145765D01*
X77036440Y-75898000D01*
X77036440Y-75198000D01*
X76987157Y-74950235D01*
X76846809Y-74740191D01*
X76636765Y-74599843D01*
X76389000Y-74550560D01*
X75879000Y-74550560D01*
X75631235Y-74599843D01*
X75421191Y-74740191D01*
X75280843Y-74950235D01*
X75231560Y-75198000D01*
X75231560Y-75898000D01*
X75280843Y-76145765D01*
X75374000Y-76285183D01*
X75374000Y-76313153D01*
X75359112Y-76388000D01*
X75374000Y-76462847D01*
X75374000Y-76462851D01*
X75418096Y-76684536D01*
X75558241Y-76894278D01*
X75439000Y-76870560D01*
X74929000Y-76870560D01*
X74709000Y-76914320D01*
X74489000Y-76870560D01*
X73979000Y-76870560D01*
X73731235Y-76919843D01*
X73521191Y-77060191D01*
X73380843Y-77270235D01*
X73331560Y-77518000D01*
X73331560Y-78218000D01*
X73380843Y-78465765D01*
X73521191Y-78675809D01*
X73731235Y-78816157D01*
X73979000Y-78865440D01*
X74356849Y-78865440D01*
X74306569Y-78915720D01*
X74149000Y-79296126D01*
X74149000Y-79707874D01*
X74306569Y-80088280D01*
X74597720Y-80379431D01*
X74978126Y-80537000D01*
X75389874Y-80537000D01*
X75770280Y-80379431D01*
X76061431Y-80088280D01*
X76219000Y-79707874D01*
X76219000Y-79296126D01*
X76061431Y-78915720D01*
X75944000Y-78798289D01*
X75944000Y-78757250D01*
X76007000Y-78694250D01*
X76007000Y-78510898D01*
X76037157Y-78465765D01*
X76086440Y-78218000D01*
X76086440Y-77995000D01*
X76261000Y-77995000D01*
X76261000Y-78694250D01*
X76419750Y-78853000D01*
X76515310Y-78853000D01*
X76748699Y-78756327D01*
X76927327Y-78577698D01*
X77024000Y-78344309D01*
X77024000Y-78153750D01*
X76865250Y-77995000D01*
X76261000Y-77995000D01*
X76086440Y-77995000D01*
X76086440Y-77721000D01*
X76261000Y-77721000D01*
X76261000Y-77741000D01*
X76865250Y-77741000D01*
X76884250Y-77722000D01*
X94935199Y-77722000D01*
X95701198Y-78488000D01*
X91662430Y-78488000D01*
X91640534Y-78435138D01*
X91236862Y-78031466D01*
X90709439Y-77813000D01*
X90138561Y-77813000D01*
X89611138Y-78031466D01*
X89207466Y-78435138D01*
X89153606Y-78565168D01*
X88918577Y-78213423D01*
X88443909Y-77896260D01*
X88025333Y-77813000D01*
X87742667Y-77813000D01*
X87324091Y-77896260D01*
X86849423Y-78213423D01*
X86532260Y-78688091D01*
X86420887Y-79248000D01*
X86532260Y-79807909D01*
X86849423Y-80282577D01*
X87324091Y-80599740D01*
X87742667Y-80683000D01*
X88025333Y-80683000D01*
X88443909Y-80599740D01*
X88918577Y-80282577D01*
X89153606Y-79930832D01*
X89207466Y-80060862D01*
X89611138Y-80464534D01*
X90138561Y-80683000D01*
X90709439Y-80683000D01*
X91236862Y-80464534D01*
X91640534Y-80060862D01*
X91662430Y-80008000D01*
X100269199Y-80008000D01*
X107444000Y-87182803D01*
X107444001Y-91803957D01*
X107169424Y-91987423D01*
X106852260Y-92462091D01*
X106769000Y-92880667D01*
X106769000Y-94063332D01*
X106852260Y-94481908D01*
X107169423Y-94956576D01*
X107644091Y-95273740D01*
X108204000Y-95385113D01*
X108763908Y-95273740D01*
X109238576Y-94956577D01*
X109476499Y-94600501D01*
X109819104Y-95026500D01*
X110312181Y-95296367D01*
X110394961Y-95313904D01*
X110617000Y-95191915D01*
X110617000Y-93599000D01*
X110871000Y-93599000D01*
X110871000Y-95191915D01*
X111093039Y-95313904D01*
X111175819Y-95296367D01*
X111668896Y-95026500D01*
X112021166Y-94588483D01*
X112179000Y-94049000D01*
X112179000Y-93599000D01*
X110871000Y-93599000D01*
X110617000Y-93599000D01*
X110597000Y-93599000D01*
X110597000Y-93345000D01*
X110617000Y-93345000D01*
X110617000Y-91752085D01*
X110871000Y-91752085D01*
X110871000Y-93345000D01*
X112179000Y-93345000D01*
X112179000Y-92895000D01*
X112021166Y-92355517D01*
X111668896Y-91917500D01*
X111175819Y-91647633D01*
X111093039Y-91630096D01*
X110871000Y-91752085D01*
X110617000Y-91752085D01*
X110394961Y-91630096D01*
X110312181Y-91647633D01*
X109819104Y-91917500D01*
X109476499Y-92343499D01*
X109238577Y-91987423D01*
X108964000Y-91803957D01*
X108964000Y-86942846D01*
X108978888Y-86867999D01*
X108964000Y-86793152D01*
X108964000Y-86793148D01*
X108919904Y-86571463D01*
X108878102Y-86508902D01*
X108794329Y-86383526D01*
X108794327Y-86383524D01*
X108751929Y-86320071D01*
X108688476Y-86277673D01*
X101275801Y-78865000D01*
X109188153Y-78865000D01*
X109263000Y-78879888D01*
X109337847Y-78865000D01*
X109337852Y-78865000D01*
X109559537Y-78820904D01*
X109810929Y-78652929D01*
X109853331Y-78589470D01*
X115014098Y-73428704D01*
X115024191Y-73443809D01*
X115234235Y-73584157D01*
X115482000Y-73633440D01*
X117182000Y-73633440D01*
X117429765Y-73584157D01*
X117639809Y-73443809D01*
X117780157Y-73233765D01*
X117829440Y-72986000D01*
X117829440Y-71286000D01*
X117780157Y-71038235D01*
X117639809Y-70828191D01*
X117429765Y-70687843D01*
X117384381Y-70678816D01*
X117402625Y-70666625D01*
X117730839Y-70175418D01*
X117846092Y-69596000D01*
X117730839Y-69016582D01*
X117402625Y-68525375D01*
X117104239Y-68326000D01*
X117402625Y-68126625D01*
X117730839Y-67635418D01*
X117846092Y-67056000D01*
X117730839Y-66476582D01*
X117402625Y-65985375D01*
X116911418Y-65657161D01*
X116478256Y-65571000D01*
X116185744Y-65571000D01*
X115752582Y-65657161D01*
X115261375Y-65985375D01*
X115053822Y-66296000D01*
X111707848Y-66296000D01*
X111633000Y-66281112D01*
X111558152Y-66296000D01*
X111558148Y-66296000D01*
X111384605Y-66330520D01*
X111336462Y-66340096D01*
X111149418Y-66465076D01*
X111085071Y-66508071D01*
X111042671Y-66571527D01*
X108456000Y-69158199D01*
X108456000Y-56970847D01*
X108470888Y-56896000D01*
X108456000Y-56821153D01*
X108456000Y-56821148D01*
X108411904Y-56599463D01*
X108243929Y-56348071D01*
X108180473Y-56305671D01*
X106334331Y-54459530D01*
X106291929Y-54396071D01*
X106040537Y-54228096D01*
X105818852Y-54184000D01*
X105818847Y-54184000D01*
X105744000Y-54169112D01*
X105669153Y-54184000D01*
X105303387Y-54184000D01*
X105187638Y-53904556D01*
X104750082Y-53467000D01*
X106119394Y-53467000D01*
X114718197Y-62065803D01*
X114759399Y-62093333D01*
X114808000Y-62103000D01*
X120779514Y-62103000D01*
X121185000Y-82377314D01*
X121185000Y-100004713D01*
X117333161Y-100457870D01*
X117286023Y-100473150D01*
X117258197Y-100494197D01*
X113230685Y-104521709D01*
X38227000Y-105535273D01*
X38227000Y-98679000D01*
X42827000Y-98679000D01*
X42827000Y-100429000D01*
X43057148Y-101332033D01*
X43615353Y-102078253D01*
X44416633Y-102554054D01*
X44713997Y-102634427D01*
X45085000Y-102524625D01*
X45085000Y-98679000D01*
X45339000Y-98679000D01*
X45339000Y-102524625D01*
X45710003Y-102634427D01*
X46007367Y-102554054D01*
X46808647Y-102078253D01*
X47366852Y-101332033D01*
X47597000Y-100429000D01*
X47597000Y-98679000D01*
X52987000Y-98679000D01*
X52987000Y-100429000D01*
X53217148Y-101332033D01*
X53775353Y-102078253D01*
X54576633Y-102554054D01*
X54873997Y-102634427D01*
X55245000Y-102524625D01*
X55245000Y-98679000D01*
X55499000Y-98679000D01*
X55499000Y-102524625D01*
X55870003Y-102634427D01*
X56167367Y-102554054D01*
X56968647Y-102078253D01*
X57526852Y-101332033D01*
X57757000Y-100429000D01*
X57757000Y-98679000D01*
X61115000Y-98679000D01*
X61115000Y-100429000D01*
X61345148Y-101332033D01*
X61903353Y-102078253D01*
X62704633Y-102554054D01*
X63001997Y-102634427D01*
X63373000Y-102524625D01*
X63373000Y-98679000D01*
X63627000Y-98679000D01*
X63627000Y-102524625D01*
X63998003Y-102634427D01*
X64295367Y-102554054D01*
X65096647Y-102078253D01*
X65654852Y-101332033D01*
X65885000Y-100429000D01*
X65885000Y-98679000D01*
X71275000Y-98679000D01*
X71275000Y-100429000D01*
X71505148Y-101332033D01*
X72063353Y-102078253D01*
X72864633Y-102554054D01*
X73161997Y-102634427D01*
X73533000Y-102524625D01*
X73533000Y-98679000D01*
X73787000Y-98679000D01*
X73787000Y-102524625D01*
X74158003Y-102634427D01*
X74455367Y-102554054D01*
X75256647Y-102078253D01*
X75814852Y-101332033D01*
X76045000Y-100429000D01*
X76045000Y-98679000D01*
X79403000Y-98679000D01*
X79403000Y-100429000D01*
X79633148Y-101332033D01*
X80191353Y-102078253D01*
X80992633Y-102554054D01*
X81289997Y-102634427D01*
X81661000Y-102524625D01*
X81661000Y-98679000D01*
X81915000Y-98679000D01*
X81915000Y-102524625D01*
X82286003Y-102634427D01*
X82583367Y-102554054D01*
X83384647Y-102078253D01*
X83942852Y-101332033D01*
X84173000Y-100429000D01*
X84173000Y-98679000D01*
X89563000Y-98679000D01*
X89563000Y-100429000D01*
X89793148Y-101332033D01*
X90351353Y-102078253D01*
X91152633Y-102554054D01*
X91449997Y-102634427D01*
X91821000Y-102524625D01*
X91821000Y-98679000D01*
X92075000Y-98679000D01*
X92075000Y-102524625D01*
X92446003Y-102634427D01*
X92743367Y-102554054D01*
X93544647Y-102078253D01*
X94102852Y-101332033D01*
X94333000Y-100429000D01*
X94333000Y-98679000D01*
X100739000Y-98679000D01*
X100739000Y-100429000D01*
X100969148Y-101332033D01*
X101527353Y-102078253D01*
X102328633Y-102554054D01*
X102625997Y-102634427D01*
X102997000Y-102524625D01*
X102997000Y-98679000D01*
X103251000Y-98679000D01*
X103251000Y-102524625D01*
X103622003Y-102634427D01*
X103919367Y-102554054D01*
X104720647Y-102078253D01*
X105278852Y-101332033D01*
X105509000Y-100429000D01*
X105509000Y-98679000D01*
X110899000Y-98679000D01*
X110899000Y-100429000D01*
X111129148Y-101332033D01*
X111687353Y-102078253D01*
X112488633Y-102554054D01*
X112785997Y-102634427D01*
X113157000Y-102524625D01*
X113157000Y-98679000D01*
X113411000Y-98679000D01*
X113411000Y-102524625D01*
X113782003Y-102634427D01*
X114079367Y-102554054D01*
X114880647Y-102078253D01*
X115438852Y-101332033D01*
X115669000Y-100429000D01*
X115669000Y-98679000D01*
X113411000Y-98679000D01*
X113157000Y-98679000D01*
X110899000Y-98679000D01*
X105509000Y-98679000D01*
X103251000Y-98679000D01*
X102997000Y-98679000D01*
X100739000Y-98679000D01*
X94333000Y-98679000D01*
X92075000Y-98679000D01*
X91821000Y-98679000D01*
X89563000Y-98679000D01*
X84173000Y-98679000D01*
X81915000Y-98679000D01*
X81661000Y-98679000D01*
X79403000Y-98679000D01*
X76045000Y-98679000D01*
X73787000Y-98679000D01*
X73533000Y-98679000D01*
X71275000Y-98679000D01*
X65885000Y-98679000D01*
X63627000Y-98679000D01*
X63373000Y-98679000D01*
X61115000Y-98679000D01*
X57757000Y-98679000D01*
X55499000Y-98679000D01*
X55245000Y-98679000D01*
X52987000Y-98679000D01*
X47597000Y-98679000D01*
X45339000Y-98679000D01*
X45085000Y-98679000D01*
X42827000Y-98679000D01*
X38227000Y-98679000D01*
X38227000Y-96675000D01*
X42827000Y-96675000D01*
X42827000Y-98425000D01*
X45085000Y-98425000D01*
X45085000Y-94579375D01*
X45339000Y-94579375D01*
X45339000Y-98425000D01*
X47597000Y-98425000D01*
X47597000Y-96675000D01*
X52987000Y-96675000D01*
X52987000Y-98425000D01*
X55245000Y-98425000D01*
X55245000Y-94579375D01*
X55499000Y-94579375D01*
X55499000Y-98425000D01*
X57757000Y-98425000D01*
X57757000Y-96675000D01*
X61115000Y-96675000D01*
X61115000Y-98425000D01*
X63373000Y-98425000D01*
X63373000Y-94579375D01*
X63627000Y-94579375D01*
X63627000Y-98425000D01*
X65885000Y-98425000D01*
X65885000Y-96675000D01*
X71275000Y-96675000D01*
X71275000Y-98425000D01*
X73533000Y-98425000D01*
X73533000Y-94579375D01*
X73787000Y-94579375D01*
X73787000Y-98425000D01*
X76045000Y-98425000D01*
X76045000Y-96675000D01*
X79403000Y-96675000D01*
X79403000Y-98425000D01*
X81661000Y-98425000D01*
X81661000Y-94579375D01*
X81915000Y-94579375D01*
X81915000Y-98425000D01*
X84173000Y-98425000D01*
X84173000Y-96675000D01*
X89563000Y-96675000D01*
X89563000Y-98425000D01*
X91821000Y-98425000D01*
X91821000Y-94579375D01*
X92075000Y-94579375D01*
X92075000Y-98425000D01*
X94333000Y-98425000D01*
X94333000Y-96675000D01*
X100739000Y-96675000D01*
X100739000Y-98425000D01*
X102997000Y-98425000D01*
X102997000Y-94579375D01*
X103251000Y-94579375D01*
X103251000Y-98425000D01*
X105509000Y-98425000D01*
X105509000Y-96675000D01*
X110899000Y-96675000D01*
X110899000Y-98425000D01*
X113157000Y-98425000D01*
X113157000Y-94579375D01*
X113411000Y-94579375D01*
X113411000Y-98425000D01*
X115669000Y-98425000D01*
X115669000Y-96675000D01*
X115438852Y-95771967D01*
X114880647Y-95025747D01*
X114079367Y-94549946D01*
X113782003Y-94469573D01*
X113411000Y-94579375D01*
X113157000Y-94579375D01*
X112785997Y-94469573D01*
X112488633Y-94549946D01*
X111687353Y-95025747D01*
X111129148Y-95771967D01*
X110899000Y-96675000D01*
X105509000Y-96675000D01*
X105278852Y-95771967D01*
X104720647Y-95025747D01*
X103919367Y-94549946D01*
X103622003Y-94469573D01*
X103251000Y-94579375D01*
X102997000Y-94579375D01*
X102625997Y-94469573D01*
X102328633Y-94549946D01*
X101527353Y-95025747D01*
X100969148Y-95771967D01*
X100739000Y-96675000D01*
X94333000Y-96675000D01*
X94102852Y-95771967D01*
X93544647Y-95025747D01*
X92743367Y-94549946D01*
X92446003Y-94469573D01*
X92075000Y-94579375D01*
X91821000Y-94579375D01*
X91449997Y-94469573D01*
X91152633Y-94549946D01*
X90351353Y-95025747D01*
X89793148Y-95771967D01*
X89563000Y-96675000D01*
X84173000Y-96675000D01*
X83942852Y-95771967D01*
X83384647Y-95025747D01*
X82583367Y-94549946D01*
X82286003Y-94469573D01*
X81915000Y-94579375D01*
X81661000Y-94579375D01*
X81289997Y-94469573D01*
X80992633Y-94549946D01*
X80191353Y-95025747D01*
X79633148Y-95771967D01*
X79403000Y-96675000D01*
X76045000Y-96675000D01*
X75814852Y-95771967D01*
X75256647Y-95025747D01*
X74455367Y-94549946D01*
X74158003Y-94469573D01*
X73787000Y-94579375D01*
X73533000Y-94579375D01*
X73161997Y-94469573D01*
X72864633Y-94549946D01*
X72063353Y-95025747D01*
X71505148Y-95771967D01*
X71275000Y-96675000D01*
X65885000Y-96675000D01*
X65654852Y-95771967D01*
X65096647Y-95025747D01*
X64295367Y-94549946D01*
X63998003Y-94469573D01*
X63627000Y-94579375D01*
X63373000Y-94579375D01*
X63001997Y-94469573D01*
X62704633Y-94549946D01*
X61903353Y-95025747D01*
X61345148Y-95771967D01*
X61115000Y-96675000D01*
X57757000Y-96675000D01*
X57526852Y-95771967D01*
X56968647Y-95025747D01*
X56167367Y-94549946D01*
X55870003Y-94469573D01*
X55499000Y-94579375D01*
X55245000Y-94579375D01*
X54873997Y-94469573D01*
X54576633Y-94549946D01*
X53775353Y-95025747D01*
X53217148Y-95771967D01*
X52987000Y-96675000D01*
X47597000Y-96675000D01*
X47366852Y-95771967D01*
X46808647Y-95025747D01*
X46007367Y-94549946D01*
X45710003Y-94469573D01*
X45339000Y-94579375D01*
X45085000Y-94579375D01*
X44713997Y-94469573D01*
X44416633Y-94549946D01*
X43615353Y-95025747D01*
X43057148Y-95771967D01*
X42827000Y-96675000D01*
X38227000Y-96675000D01*
X38227000Y-92880667D01*
X48857000Y-92880667D01*
X48857000Y-94063332D01*
X48940260Y-94481908D01*
X49257423Y-94956576D01*
X49732091Y-95273740D01*
X50292000Y-95385113D01*
X50851908Y-95273740D01*
X51326576Y-94956577D01*
X51564499Y-94600501D01*
X51907104Y-95026500D01*
X52400181Y-95296367D01*
X52482961Y-95313904D01*
X52705000Y-95191915D01*
X52705000Y-93599000D01*
X52959000Y-93599000D01*
X52959000Y-95191915D01*
X53181039Y-95313904D01*
X53263819Y-95296367D01*
X53756896Y-95026500D01*
X54109166Y-94588483D01*
X54267000Y-94049000D01*
X54267000Y-93599000D01*
X52959000Y-93599000D01*
X52705000Y-93599000D01*
X52685000Y-93599000D01*
X52685000Y-93345000D01*
X52705000Y-93345000D01*
X52705000Y-91752085D01*
X52959000Y-91752085D01*
X52959000Y-93345000D01*
X54267000Y-93345000D01*
X54267000Y-92895000D01*
X54109166Y-92355517D01*
X53756896Y-91917500D01*
X53263819Y-91647633D01*
X53181039Y-91630096D01*
X52959000Y-91752085D01*
X52705000Y-91752085D01*
X52660929Y-91727872D01*
X54093802Y-90295000D01*
X58980153Y-90295000D01*
X59055000Y-90309888D01*
X59129847Y-90295000D01*
X59129852Y-90295000D01*
X59351537Y-90250904D01*
X59602929Y-90082929D01*
X59645331Y-90019470D01*
X64746473Y-84918329D01*
X64809929Y-84875929D01*
X64977904Y-84624537D01*
X65022000Y-84402852D01*
X65022000Y-84402848D01*
X65036888Y-84328001D01*
X65022000Y-84253154D01*
X65022000Y-82624847D01*
X65036888Y-82550000D01*
X65022000Y-82475153D01*
X65022000Y-82475148D01*
X64977904Y-82253463D01*
X64809929Y-82002071D01*
X64746473Y-81959671D01*
X63836331Y-81049530D01*
X63819286Y-81024020D01*
X63828440Y-80978000D01*
X63828440Y-80278000D01*
X63779157Y-80030235D01*
X63638809Y-79820191D01*
X63428765Y-79679843D01*
X63181000Y-79630560D01*
X62671000Y-79630560D01*
X62423235Y-79679843D01*
X62213191Y-79820191D01*
X62072843Y-80030235D01*
X62023560Y-80278000D01*
X62023560Y-80499000D01*
X61928440Y-80499000D01*
X61928440Y-80278000D01*
X61879157Y-80030235D01*
X61768346Y-79864396D01*
X61741904Y-79731463D01*
X61573929Y-79480071D01*
X61510470Y-79437669D01*
X61471331Y-79398530D01*
X61428929Y-79335071D01*
X61177537Y-79167096D01*
X60955852Y-79123000D01*
X60955847Y-79123000D01*
X60881000Y-79108112D01*
X60806153Y-79123000D01*
X60004802Y-79123000D01*
X59074000Y-78192199D01*
X59074000Y-78026126D01*
X58916431Y-77645720D01*
X58625280Y-77354569D01*
X58244874Y-77197000D01*
X57833126Y-77197000D01*
X57452720Y-77354569D01*
X57335289Y-77472000D01*
X55065846Y-77472000D01*
X54990999Y-77457112D01*
X54916152Y-77472000D01*
X54916148Y-77472000D01*
X54694463Y-77516096D01*
X54640237Y-77552329D01*
X54506526Y-77641671D01*
X54506524Y-77641673D01*
X54443071Y-77684071D01*
X54400673Y-77747524D01*
X52921530Y-79226669D01*
X52858071Y-79269071D01*
X52690096Y-79520464D01*
X52646000Y-79742149D01*
X52646000Y-79742153D01*
X52631112Y-79817000D01*
X52645842Y-79891053D01*
X52552843Y-80030235D01*
X52503560Y-80278000D01*
X52503560Y-80753000D01*
X52372126Y-80753000D01*
X51991720Y-80910569D01*
X51700569Y-81201720D01*
X51543000Y-81582126D01*
X51543000Y-81993874D01*
X51700569Y-82374280D01*
X51991720Y-82665431D01*
X52372126Y-82823000D01*
X52503560Y-82823000D01*
X52503560Y-83298000D01*
X52550618Y-83534580D01*
X52538198Y-83547000D01*
X52372126Y-83547000D01*
X51991720Y-83704569D01*
X51700569Y-83995720D01*
X51543000Y-84376126D01*
X51543000Y-84787874D01*
X51700569Y-85168280D01*
X51991720Y-85459431D01*
X52372126Y-85617000D01*
X52783874Y-85617000D01*
X53164280Y-85459431D01*
X53455431Y-85168280D01*
X53613000Y-84787874D01*
X53613000Y-84621802D01*
X53890473Y-84344329D01*
X53953929Y-84301929D01*
X54090506Y-84097528D01*
X54121904Y-84050538D01*
X54142809Y-83945440D01*
X54611000Y-83945440D01*
X54843212Y-83899251D01*
X54924690Y-83933000D01*
X55020250Y-83933000D01*
X55179000Y-83774250D01*
X55179000Y-83590898D01*
X55209157Y-83545765D01*
X55258440Y-83298000D01*
X55258440Y-83075000D01*
X55433000Y-83075000D01*
X55433000Y-83774250D01*
X55591750Y-83933000D01*
X55687310Y-83933000D01*
X55920699Y-83836327D01*
X56099327Y-83657698D01*
X56196000Y-83424309D01*
X56196000Y-83233750D01*
X56037250Y-83075000D01*
X55433000Y-83075000D01*
X55258440Y-83075000D01*
X55258440Y-82801000D01*
X55433000Y-82801000D01*
X55433000Y-82821000D01*
X56037250Y-82821000D01*
X56196000Y-82662250D01*
X56196000Y-82548000D01*
X60130055Y-82548000D01*
X60132714Y-82551980D01*
X60123560Y-82598000D01*
X60123560Y-83298000D01*
X60172843Y-83545765D01*
X60313191Y-83755809D01*
X60523235Y-83896157D01*
X60771000Y-83945440D01*
X61281000Y-83945440D01*
X61501000Y-83901680D01*
X61721000Y-83945440D01*
X62231000Y-83945440D01*
X62463212Y-83899251D01*
X62544690Y-83933000D01*
X62640250Y-83933000D01*
X62799000Y-83774250D01*
X62799000Y-83590898D01*
X62829157Y-83545765D01*
X62878440Y-83298000D01*
X62878440Y-82801000D01*
X63053000Y-82801000D01*
X63053000Y-82821000D01*
X63073000Y-82821000D01*
X63073000Y-83075000D01*
X63053000Y-83075000D01*
X63053000Y-83774250D01*
X63211750Y-83933000D01*
X63307310Y-83933000D01*
X63502001Y-83852356D01*
X63502001Y-84013197D01*
X58740199Y-88775000D01*
X53853848Y-88775000D01*
X53779000Y-88760112D01*
X53704152Y-88775000D01*
X53704148Y-88775000D01*
X53530605Y-88809520D01*
X53482462Y-88819096D01*
X53295418Y-88944076D01*
X53231071Y-88987071D01*
X53188671Y-89050527D01*
X50615887Y-91623312D01*
X50292000Y-91558887D01*
X49732092Y-91670260D01*
X49257424Y-91987423D01*
X48940260Y-92462091D01*
X48857000Y-92880667D01*
X38227000Y-92880667D01*
X38227000Y-81455126D01*
X40113000Y-81455126D01*
X40113000Y-81866874D01*
X40270569Y-82247280D01*
X40561720Y-82538431D01*
X40942126Y-82696000D01*
X41353874Y-82696000D01*
X41734280Y-82538431D01*
X42025431Y-82247280D01*
X42183000Y-81866874D01*
X42183000Y-81484007D01*
X42195414Y-81502586D01*
X42486564Y-81697127D01*
X42829999Y-81765440D01*
X43530001Y-81765440D01*
X43873436Y-81697127D01*
X44164586Y-81502586D01*
X44266103Y-81350656D01*
X44480429Y-81564982D01*
X44934343Y-81753000D01*
X45425657Y-81753000D01*
X45879571Y-81564982D01*
X46226982Y-81217571D01*
X46415000Y-80763657D01*
X46415000Y-80272343D01*
X46226982Y-79818429D01*
X45926553Y-79518000D01*
X46226982Y-79217571D01*
X46415000Y-78763657D01*
X46415000Y-78272343D01*
X46292250Y-77976000D01*
X49709153Y-77976000D01*
X49784000Y-77990888D01*
X49858847Y-77976000D01*
X49858852Y-77976000D01*
X50080537Y-77931904D01*
X50331929Y-77763929D01*
X50374331Y-77700470D01*
X53890473Y-74184329D01*
X53953929Y-74141929D01*
X54121904Y-73890537D01*
X54142809Y-73785440D01*
X54611000Y-73785440D01*
X54843212Y-73739251D01*
X54924690Y-73773000D01*
X55020250Y-73773000D01*
X55179000Y-73614250D01*
X55179000Y-73430898D01*
X55209157Y-73385765D01*
X55258440Y-73138000D01*
X55258440Y-72915000D01*
X55433000Y-72915000D01*
X55433000Y-73614250D01*
X55591750Y-73773000D01*
X55687310Y-73773000D01*
X55920699Y-73676327D01*
X56099327Y-73497698D01*
X56196000Y-73264309D01*
X56196000Y-73073750D01*
X56037250Y-72915000D01*
X55433000Y-72915000D01*
X55258440Y-72915000D01*
X55258440Y-72641000D01*
X55433000Y-72641000D01*
X55433000Y-72661000D01*
X56037250Y-72661000D01*
X56196000Y-72502250D01*
X56196000Y-72311691D01*
X56122398Y-72134000D01*
X59248199Y-72134000D01*
X59615560Y-72501362D01*
X59615560Y-73138000D01*
X59664843Y-73385765D01*
X59805191Y-73595809D01*
X60015235Y-73736157D01*
X60263000Y-73785440D01*
X60773000Y-73785440D01*
X60814060Y-73777273D01*
X60920071Y-73935929D01*
X60983530Y-73978331D01*
X61068000Y-74062801D01*
X61068000Y-74246874D01*
X61225569Y-74627280D01*
X61516720Y-74918431D01*
X61897126Y-75076000D01*
X62308874Y-75076000D01*
X62689280Y-74918431D01*
X62980431Y-74627280D01*
X63138000Y-74246874D01*
X63138000Y-73835126D01*
X63060647Y-73648379D01*
X63211327Y-73497698D01*
X63308000Y-73264309D01*
X63308000Y-73073750D01*
X63149250Y-72915000D01*
X62545000Y-72915000D01*
X62545000Y-72935000D01*
X62370440Y-72935000D01*
X62370440Y-72641000D01*
X62545000Y-72641000D01*
X62545000Y-72661000D01*
X63149250Y-72661000D01*
X63176724Y-72633526D01*
X64137000Y-73593803D01*
X64137001Y-74093149D01*
X64122112Y-74168000D01*
X64181097Y-74464537D01*
X64289839Y-74627280D01*
X64349072Y-74715929D01*
X64412528Y-74758329D01*
X67820000Y-78165802D01*
X67820001Y-91803957D01*
X67545424Y-91987423D01*
X67228260Y-92462091D01*
X67145000Y-92880667D01*
X67145000Y-94063332D01*
X67228260Y-94481908D01*
X67545423Y-94956576D01*
X68020091Y-95273740D01*
X68580000Y-95385113D01*
X69139908Y-95273740D01*
X69614576Y-94956577D01*
X69852499Y-94600501D01*
X70195104Y-95026500D01*
X70688181Y-95296367D01*
X70770961Y-95313904D01*
X70993000Y-95191915D01*
X70993000Y-93599000D01*
X71247000Y-93599000D01*
X71247000Y-95191915D01*
X71469039Y-95313904D01*
X71551819Y-95296367D01*
X72044896Y-95026500D01*
X72397166Y-94588483D01*
X72555000Y-94049000D01*
X72555000Y-93599000D01*
X71247000Y-93599000D01*
X70993000Y-93599000D01*
X70973000Y-93599000D01*
X70973000Y-93345000D01*
X70993000Y-93345000D01*
X70993000Y-91752085D01*
X71247000Y-91752085D01*
X71247000Y-93345000D01*
X72555000Y-93345000D01*
X72555000Y-92895000D01*
X72397166Y-92355517D01*
X72044896Y-91917500D01*
X71551819Y-91647633D01*
X71469039Y-91630096D01*
X71247000Y-91752085D01*
X70993000Y-91752085D01*
X70770961Y-91630096D01*
X70688181Y-91647633D01*
X70195104Y-91917500D01*
X69852499Y-92343499D01*
X69614577Y-91987423D01*
X69340000Y-91803957D01*
X69340000Y-78068801D01*
X85227671Y-93956473D01*
X85270071Y-94019929D01*
X85448017Y-94138829D01*
X85516260Y-94481908D01*
X85833423Y-94956576D01*
X86308091Y-95273740D01*
X86868000Y-95385113D01*
X87427908Y-95273740D01*
X87902576Y-94956577D01*
X88140499Y-94600501D01*
X88483104Y-95026500D01*
X88976181Y-95296367D01*
X89058961Y-95313904D01*
X89281000Y-95191915D01*
X89281000Y-93599000D01*
X89535000Y-93599000D01*
X89535000Y-95191915D01*
X89757039Y-95313904D01*
X89839819Y-95296367D01*
X90332896Y-95026500D01*
X90685166Y-94588483D01*
X90843000Y-94049000D01*
X90843000Y-93599000D01*
X89535000Y-93599000D01*
X89281000Y-93599000D01*
X89261000Y-93599000D01*
X89261000Y-93345000D01*
X89281000Y-93345000D01*
X89281000Y-91752085D01*
X89535000Y-91752085D01*
X89535000Y-93345000D01*
X90843000Y-93345000D01*
X90843000Y-92895000D01*
X90685166Y-92355517D01*
X90332896Y-91917500D01*
X89839819Y-91647633D01*
X89757039Y-91630096D01*
X89535000Y-91752085D01*
X89281000Y-91752085D01*
X89058961Y-91630096D01*
X88976181Y-91647633D01*
X88483104Y-91917500D01*
X88140499Y-92343499D01*
X87902577Y-91987423D01*
X87427909Y-91670260D01*
X86868000Y-91558887D01*
X86308092Y-91670260D01*
X85833424Y-91987423D01*
X85663113Y-92242311D01*
X66546000Y-73125199D01*
X66546000Y-72946126D01*
X67545000Y-72946126D01*
X67545000Y-73357874D01*
X67702569Y-73738280D01*
X67993720Y-74029431D01*
X68374126Y-74187000D01*
X68540199Y-74187000D01*
X70385671Y-76032473D01*
X70428071Y-76095929D01*
X70491527Y-76138329D01*
X70679462Y-76263904D01*
X70727605Y-76273480D01*
X70901148Y-76308000D01*
X70901152Y-76308000D01*
X70976000Y-76322888D01*
X71050848Y-76308000D01*
X73489246Y-76308000D01*
X73521191Y-76355809D01*
X73731235Y-76496157D01*
X73979000Y-76545440D01*
X74489000Y-76545440D01*
X74736765Y-76496157D01*
X74946809Y-76355809D01*
X75087157Y-76145765D01*
X75136440Y-75898000D01*
X75136440Y-75198000D01*
X75087157Y-74950235D01*
X74946809Y-74740191D01*
X74736765Y-74599843D01*
X74489000Y-74550560D01*
X73979000Y-74550560D01*
X73731235Y-74599843D01*
X73521191Y-74740191D01*
X73489246Y-74788000D01*
X71290802Y-74788000D01*
X70916547Y-74413745D01*
X102081861Y-74413745D01*
X102155995Y-74659864D01*
X102693223Y-74852965D01*
X103263454Y-74825778D01*
X103664005Y-74659864D01*
X103738139Y-74413745D01*
X102910000Y-73585605D01*
X102081861Y-74413745D01*
X70916547Y-74413745D01*
X69692025Y-73189223D01*
X101463035Y-73189223D01*
X101490222Y-73759454D01*
X101656136Y-74160005D01*
X101902255Y-74234139D01*
X102730395Y-73406000D01*
X101902255Y-72577861D01*
X101656136Y-72651995D01*
X101463035Y-73189223D01*
X69692025Y-73189223D01*
X69615000Y-73112199D01*
X69615000Y-72946126D01*
X69457431Y-72565720D01*
X69289966Y-72398255D01*
X102081861Y-72398255D01*
X102910000Y-73226395D01*
X103738139Y-72398255D01*
X103664005Y-72152136D01*
X103126777Y-71959035D01*
X102556546Y-71986222D01*
X102155995Y-72152136D01*
X102081861Y-72398255D01*
X69289966Y-72398255D01*
X69166280Y-72274569D01*
X68785874Y-72117000D01*
X68374126Y-72117000D01*
X67993720Y-72274569D01*
X67702569Y-72565720D01*
X67545000Y-72946126D01*
X66546000Y-72946126D01*
X66546000Y-71950711D01*
X66663431Y-71833280D01*
X66821000Y-71452874D01*
X66821000Y-71041126D01*
X66663431Y-70660720D01*
X66372280Y-70369569D01*
X65991874Y-70212000D01*
X65580126Y-70212000D01*
X65199720Y-70369569D01*
X64908569Y-70660720D01*
X64751000Y-71041126D01*
X64751000Y-71452874D01*
X64908569Y-71833280D01*
X65026001Y-71950712D01*
X65026001Y-72333198D01*
X63320440Y-70627639D01*
X63320440Y-70118000D01*
X63271157Y-69870235D01*
X63130809Y-69660191D01*
X62920765Y-69519843D01*
X62673000Y-69470560D01*
X62163000Y-69470560D01*
X61915235Y-69519843D01*
X61705191Y-69660191D01*
X61564843Y-69870235D01*
X61515560Y-70118000D01*
X61515560Y-70751729D01*
X61413277Y-70854012D01*
X61420440Y-70818000D01*
X61420440Y-70118000D01*
X61371157Y-69870235D01*
X61230809Y-69660191D01*
X61020765Y-69519843D01*
X60773000Y-69470560D01*
X60573953Y-69470560D01*
X60450537Y-69388096D01*
X60228852Y-69344000D01*
X60228847Y-69344000D01*
X60154000Y-69329112D01*
X60079153Y-69344000D01*
X59123711Y-69344000D01*
X59006280Y-69226569D01*
X58625874Y-69069000D01*
X58214126Y-69069000D01*
X57833720Y-69226569D01*
X57716289Y-69344000D01*
X57337802Y-69344000D01*
X56343331Y-68349530D01*
X56300929Y-68286071D01*
X56049537Y-68118096D01*
X55827852Y-68074000D01*
X55827847Y-68074000D01*
X55753000Y-68059112D01*
X55678153Y-68074000D01*
X54430847Y-68074000D01*
X54356000Y-68059112D01*
X54281153Y-68074000D01*
X54281148Y-68074000D01*
X54059463Y-68118096D01*
X53808071Y-68286071D01*
X53765671Y-68349527D01*
X52921530Y-69193669D01*
X52858071Y-69236071D01*
X52715950Y-69448770D01*
X52675410Y-69388097D01*
X52660329Y-69365526D01*
X52660327Y-69365524D01*
X52617929Y-69302071D01*
X52597000Y-69288087D01*
X52597000Y-69136126D01*
X52439431Y-68755720D01*
X52148280Y-68464569D01*
X52037938Y-68418864D01*
X53730802Y-66726000D01*
X79286560Y-66726000D01*
X79286560Y-69926000D01*
X79335843Y-70173765D01*
X79476191Y-70383809D01*
X79686235Y-70524157D01*
X79934000Y-70573440D01*
X83134000Y-70573440D01*
X83381765Y-70524157D01*
X83591809Y-70383809D01*
X83732157Y-70173765D01*
X83781440Y-69926000D01*
X83781440Y-68800503D01*
X94589950Y-68800503D01*
X94894114Y-69534836D01*
X95499813Y-70162220D01*
X96299496Y-70510056D01*
X96647000Y-70398645D01*
X96647000Y-68453000D01*
X96901000Y-68453000D01*
X96901000Y-70398645D01*
X97248504Y-70510056D01*
X98048187Y-70162220D01*
X98653886Y-69534836D01*
X98958050Y-68800503D01*
X98846362Y-68453000D01*
X96901000Y-68453000D01*
X96647000Y-68453000D01*
X94701638Y-68453000D01*
X94589950Y-68800503D01*
X83781440Y-68800503D01*
X83781440Y-67851497D01*
X94589950Y-67851497D01*
X94701638Y-68199000D01*
X96647000Y-68199000D01*
X96647000Y-66253355D01*
X96901000Y-66253355D01*
X96901000Y-68199000D01*
X98846362Y-68199000D01*
X98958050Y-67851497D01*
X98653886Y-67117164D01*
X98048187Y-66489780D01*
X97248504Y-66141944D01*
X96901000Y-66253355D01*
X96647000Y-66253355D01*
X96299496Y-66141944D01*
X95499813Y-66489780D01*
X94894114Y-67117164D01*
X94589950Y-67851497D01*
X83781440Y-67851497D01*
X83781440Y-66726000D01*
X83732157Y-66478235D01*
X83591809Y-66268191D01*
X83381765Y-66127843D01*
X83134000Y-66078560D01*
X82294000Y-66078560D01*
X82294000Y-60004801D01*
X82746801Y-59552000D01*
X85828560Y-59552000D01*
X85828560Y-61352000D01*
X85877843Y-61599765D01*
X86018191Y-61809809D01*
X86228235Y-61950157D01*
X86476000Y-61999440D01*
X88276000Y-61999440D01*
X88523765Y-61950157D01*
X88733809Y-61809809D01*
X88874157Y-61599765D01*
X88923440Y-61352000D01*
X88923440Y-60816740D01*
X89284964Y-60816740D01*
X89463760Y-61248417D01*
X89868424Y-61689966D01*
X90411258Y-61943046D01*
X90649000Y-61822997D01*
X90649000Y-60579000D01*
X90903000Y-60579000D01*
X90903000Y-61822997D01*
X91140742Y-61943046D01*
X91683576Y-61689966D01*
X92088240Y-61248417D01*
X92267036Y-60816740D01*
X92684964Y-60816740D01*
X92863760Y-61248417D01*
X93268424Y-61689966D01*
X93811258Y-61943046D01*
X94049000Y-61822997D01*
X94049000Y-60579000D01*
X94303000Y-60579000D01*
X94303000Y-61822997D01*
X94540742Y-61943046D01*
X95083576Y-61689966D01*
X95488240Y-61248417D01*
X95667036Y-60816740D01*
X95546378Y-60579000D01*
X94303000Y-60579000D01*
X94049000Y-60579000D01*
X92805622Y-60579000D01*
X92684964Y-60816740D01*
X92267036Y-60816740D01*
X92146378Y-60579000D01*
X90903000Y-60579000D01*
X90649000Y-60579000D01*
X89405622Y-60579000D01*
X89284964Y-60816740D01*
X88923440Y-60816740D01*
X88923440Y-60087260D01*
X89284964Y-60087260D01*
X89405622Y-60325000D01*
X90649000Y-60325000D01*
X90649000Y-59081003D01*
X90903000Y-59081003D01*
X90903000Y-60325000D01*
X92146378Y-60325000D01*
X92267036Y-60087260D01*
X92684964Y-60087260D01*
X92805622Y-60325000D01*
X94049000Y-60325000D01*
X94049000Y-59081003D01*
X94303000Y-59081003D01*
X94303000Y-60325000D01*
X95546378Y-60325000D01*
X95667036Y-60087260D01*
X95488240Y-59655583D01*
X95418051Y-59578996D01*
X101797000Y-59578996D01*
X101797000Y-60309004D01*
X102076362Y-60983444D01*
X102592556Y-61499638D01*
X103266996Y-61779000D01*
X103997004Y-61779000D01*
X104671444Y-61499638D01*
X105187638Y-60983444D01*
X105467000Y-60309004D01*
X105467000Y-59578996D01*
X105187638Y-58904556D01*
X104671444Y-58388362D01*
X103997004Y-58109000D01*
X103266996Y-58109000D01*
X102592556Y-58388362D01*
X102076362Y-58904556D01*
X101797000Y-59578996D01*
X95418051Y-59578996D01*
X95083576Y-59214034D01*
X94540742Y-58960954D01*
X94303000Y-59081003D01*
X94049000Y-59081003D01*
X93811258Y-58960954D01*
X93268424Y-59214034D01*
X92863760Y-59655583D01*
X92684964Y-60087260D01*
X92267036Y-60087260D01*
X92088240Y-59655583D01*
X91683576Y-59214034D01*
X91140742Y-58960954D01*
X90903000Y-59081003D01*
X90649000Y-59081003D01*
X90411258Y-58960954D01*
X89868424Y-59214034D01*
X89463760Y-59655583D01*
X89284964Y-60087260D01*
X88923440Y-60087260D01*
X88923440Y-59552000D01*
X88874157Y-59304235D01*
X88733809Y-59094191D01*
X88523765Y-58953843D01*
X88276000Y-58904560D01*
X86476000Y-58904560D01*
X86228235Y-58953843D01*
X86018191Y-59094191D01*
X85877843Y-59304235D01*
X85828560Y-59552000D01*
X82746801Y-59552000D01*
X86166802Y-56132000D01*
X87180289Y-56132000D01*
X87297720Y-56249431D01*
X87587056Y-56369278D01*
X87510928Y-56752000D01*
X87630062Y-57350927D01*
X87969327Y-57858673D01*
X88477073Y-58197938D01*
X88924818Y-58287000D01*
X89227182Y-58287000D01*
X89674927Y-58197938D01*
X90182673Y-57858673D01*
X90521938Y-57350927D01*
X90641072Y-56752000D01*
X90521938Y-56153073D01*
X90182673Y-55645327D01*
X89674927Y-55306062D01*
X89227182Y-55217000D01*
X88924818Y-55217000D01*
X88919000Y-55218157D01*
X88919000Y-55166126D01*
X88761431Y-54785720D01*
X88470280Y-54494569D01*
X88089874Y-54337000D01*
X87678126Y-54337000D01*
X87297720Y-54494569D01*
X87180289Y-54612000D01*
X85926846Y-54612000D01*
X85851999Y-54597112D01*
X85777152Y-54612000D01*
X85777148Y-54612000D01*
X85555463Y-54656096D01*
X85304071Y-54824071D01*
X85261671Y-54887527D01*
X81049528Y-59099671D01*
X80986072Y-59142071D01*
X80943672Y-59205527D01*
X80943671Y-59205528D01*
X80908835Y-59257664D01*
X80818097Y-59393463D01*
X80786135Y-59554149D01*
X80759112Y-59690000D01*
X80774001Y-59764852D01*
X80774000Y-66078560D01*
X79934000Y-66078560D01*
X79686235Y-66127843D01*
X79476191Y-66268191D01*
X79335843Y-66478235D01*
X79286560Y-66726000D01*
X53730802Y-66726000D01*
X54840473Y-65616329D01*
X54903929Y-65573929D01*
X55071904Y-65322537D01*
X55116000Y-65100852D01*
X55116000Y-65100848D01*
X55130888Y-65026001D01*
X55116000Y-64951154D01*
X55116000Y-63517250D01*
X55179000Y-63454250D01*
X55179000Y-63270898D01*
X55209157Y-63225765D01*
X55258440Y-62978000D01*
X55258440Y-62755000D01*
X55433000Y-62755000D01*
X55433000Y-63454250D01*
X55591750Y-63613000D01*
X55687310Y-63613000D01*
X55920699Y-63516327D01*
X56099327Y-63337698D01*
X56196000Y-63104309D01*
X56196000Y-62913750D01*
X56037250Y-62755000D01*
X55433000Y-62755000D01*
X55258440Y-62755000D01*
X55258440Y-62481000D01*
X55433000Y-62481000D01*
X55433000Y-62501000D01*
X56037250Y-62501000D01*
X56196000Y-62342250D01*
X56196000Y-62151691D01*
X56122398Y-61974000D01*
X58884199Y-61974000D01*
X59615560Y-62705362D01*
X59615560Y-62978000D01*
X59664843Y-63225765D01*
X59805191Y-63435809D01*
X60015235Y-63576157D01*
X60263000Y-63625440D01*
X60506186Y-63625440D01*
X60433000Y-63802126D01*
X60433000Y-64213874D01*
X60590569Y-64594280D01*
X60881720Y-64885431D01*
X61262126Y-65043000D01*
X61673874Y-65043000D01*
X62054280Y-64885431D01*
X62345431Y-64594280D01*
X62503000Y-64213874D01*
X62503000Y-63802126D01*
X62424662Y-63613000D01*
X62545002Y-63613000D01*
X62545002Y-63454252D01*
X62703750Y-63613000D01*
X62799310Y-63613000D01*
X63032699Y-63516327D01*
X63211327Y-63337698D01*
X63308000Y-63104309D01*
X63308000Y-62913750D01*
X63149250Y-62755000D01*
X62545000Y-62755000D01*
X62545000Y-62775000D01*
X62370440Y-62775000D01*
X62370440Y-62278000D01*
X62321157Y-62030235D01*
X62291000Y-61985102D01*
X62291000Y-61801750D01*
X62545000Y-61801750D01*
X62545000Y-62501000D01*
X63149250Y-62501000D01*
X63308000Y-62342250D01*
X63308000Y-62151691D01*
X63211327Y-61918302D01*
X63032699Y-61739673D01*
X62799310Y-61643000D01*
X62703750Y-61643000D01*
X62545000Y-61801750D01*
X62291000Y-61801750D01*
X62132250Y-61643000D01*
X62036690Y-61643000D01*
X61955212Y-61676749D01*
X61723000Y-61630560D01*
X61213000Y-61630560D01*
X60993000Y-61674320D01*
X60773000Y-61630560D01*
X60690362Y-61630560D01*
X60365241Y-61305440D01*
X60773000Y-61305440D01*
X61020765Y-61256157D01*
X61230809Y-61115809D01*
X61371157Y-60905765D01*
X61420440Y-60658000D01*
X61420440Y-59958000D01*
X61515560Y-59958000D01*
X61515560Y-60658000D01*
X61564843Y-60905765D01*
X61705191Y-61115809D01*
X61915235Y-61256157D01*
X62163000Y-61305440D01*
X62673000Y-61305440D01*
X62920765Y-61256157D01*
X63130809Y-61115809D01*
X63271157Y-60905765D01*
X63320440Y-60658000D01*
X63320440Y-60421211D01*
X63326904Y-60411537D01*
X63371000Y-60189852D01*
X63371000Y-60189848D01*
X63385888Y-60115001D01*
X63371000Y-60040154D01*
X63371000Y-59377711D01*
X63488431Y-59260280D01*
X63646000Y-58879874D01*
X63646000Y-58879745D01*
X78165861Y-58879745D01*
X78239995Y-59125864D01*
X78777223Y-59318965D01*
X79347454Y-59291778D01*
X79748005Y-59125864D01*
X79822139Y-58879745D01*
X78994000Y-58051605D01*
X78165861Y-58879745D01*
X63646000Y-58879745D01*
X63646000Y-58468126D01*
X63488431Y-58087720D01*
X63197280Y-57796569D01*
X62856040Y-57655223D01*
X77547035Y-57655223D01*
X77574222Y-58225454D01*
X77740136Y-58626005D01*
X77986255Y-58700139D01*
X78814395Y-57872000D01*
X79173605Y-57872000D01*
X80001745Y-58700139D01*
X80247864Y-58626005D01*
X80440965Y-58088777D01*
X80413778Y-57518546D01*
X80247864Y-57117995D01*
X80001745Y-57043861D01*
X79173605Y-57872000D01*
X78814395Y-57872000D01*
X77986255Y-57043861D01*
X77740136Y-57117995D01*
X77547035Y-57655223D01*
X62856040Y-57655223D01*
X62816874Y-57639000D01*
X62405126Y-57639000D01*
X62024720Y-57796569D01*
X61733569Y-58087720D01*
X61576000Y-58468126D01*
X61576000Y-58879874D01*
X61733569Y-59260280D01*
X61851000Y-59377711D01*
X61851001Y-59402763D01*
X61705191Y-59500191D01*
X61564843Y-59710235D01*
X61515560Y-59958000D01*
X61420440Y-59958000D01*
X61371157Y-59710235D01*
X61282720Y-59577881D01*
X61278000Y-59554152D01*
X61278000Y-59554148D01*
X61233904Y-59332463D01*
X61149096Y-59205539D01*
X61108329Y-59144526D01*
X61108327Y-59144524D01*
X61065929Y-59081071D01*
X61002476Y-59038673D01*
X60388332Y-58424530D01*
X60345930Y-58361072D01*
X60094538Y-58193097D01*
X59872853Y-58149001D01*
X59872848Y-58149001D01*
X59798001Y-58134113D01*
X59723154Y-58149001D01*
X58640845Y-58149001D01*
X58565998Y-58134113D01*
X58491151Y-58149001D01*
X58491147Y-58149001D01*
X58269462Y-58193097D01*
X58166000Y-58262228D01*
X58062538Y-58193097D01*
X57840853Y-58149001D01*
X57840848Y-58149001D01*
X57766001Y-58134113D01*
X57691154Y-58149001D01*
X54068845Y-58149001D01*
X53993998Y-58134113D01*
X53919151Y-58149001D01*
X53919147Y-58149001D01*
X53697462Y-58193097D01*
X53446070Y-58361072D01*
X53403670Y-58424528D01*
X52921530Y-58906669D01*
X52858071Y-58949071D01*
X52690096Y-59200464D01*
X52646000Y-59422149D01*
X52646000Y-59422153D01*
X52631112Y-59497000D01*
X52645842Y-59571053D01*
X52552843Y-59710235D01*
X52503560Y-59958000D01*
X52503560Y-60658000D01*
X52552843Y-60905765D01*
X52693191Y-61115809D01*
X52903235Y-61256157D01*
X53151000Y-61305440D01*
X53661000Y-61305440D01*
X53908765Y-61256157D01*
X54118809Y-61115809D01*
X54259157Y-60905765D01*
X54308440Y-60658000D01*
X54308440Y-59958000D01*
X54260552Y-59717249D01*
X54308801Y-59669001D01*
X54480395Y-59669001D01*
X54452843Y-59710235D01*
X54403560Y-59958000D01*
X54403560Y-60658000D01*
X54452843Y-60905765D01*
X54563654Y-61071604D01*
X54590096Y-61204537D01*
X54758072Y-61455929D01*
X54821527Y-61498328D01*
X54966198Y-61643000D01*
X54924690Y-61643000D01*
X54843212Y-61676749D01*
X54611000Y-61630560D01*
X54101000Y-61630560D01*
X53881000Y-61674320D01*
X53661000Y-61630560D01*
X53151000Y-61630560D01*
X52903235Y-61679843D01*
X52693191Y-61820191D01*
X52552843Y-62030235D01*
X52503560Y-62278000D01*
X52503560Y-62514790D01*
X52497097Y-62524463D01*
X52438112Y-62821000D01*
X52453001Y-62895851D01*
X52453000Y-63558289D01*
X52335569Y-63675720D01*
X52178000Y-64056126D01*
X52178000Y-64467874D01*
X52335569Y-64848280D01*
X52626720Y-65139431D01*
X53007126Y-65297000D01*
X53010198Y-65297000D01*
X46549199Y-71758000D01*
X46166553Y-71758000D01*
X45879571Y-71471018D01*
X45846325Y-71457247D01*
X45863130Y-71380735D01*
X45180000Y-70697605D01*
X44496870Y-71380735D01*
X44513675Y-71457247D01*
X44480429Y-71471018D01*
X44180000Y-71771447D01*
X43926553Y-71518000D01*
X44226982Y-71217571D01*
X44240753Y-71184325D01*
X44317265Y-71201130D01*
X45000395Y-70518000D01*
X45359605Y-70518000D01*
X46042735Y-71201130D01*
X46268164Y-71151617D01*
X46427807Y-70686964D01*
X46397482Y-70196587D01*
X46268164Y-69884383D01*
X46042735Y-69834870D01*
X45359605Y-70518000D01*
X45000395Y-70518000D01*
X44317265Y-69834870D01*
X44240753Y-69851675D01*
X44226982Y-69818429D01*
X43879571Y-69471018D01*
X43846325Y-69457247D01*
X43863130Y-69380735D01*
X44496870Y-69380735D01*
X44527019Y-69518000D01*
X44496870Y-69655265D01*
X45180000Y-70338395D01*
X45863130Y-69655265D01*
X45832981Y-69518000D01*
X45863130Y-69380735D01*
X45180000Y-68697605D01*
X44496870Y-69380735D01*
X43863130Y-69380735D01*
X43180000Y-68697605D01*
X42496870Y-69380735D01*
X42513675Y-69457247D01*
X42480429Y-69471018D01*
X42133018Y-69818429D01*
X41945000Y-70272343D01*
X41945000Y-70763657D01*
X42133018Y-71217571D01*
X42433447Y-71518000D01*
X42133018Y-71818429D01*
X41945000Y-72272343D01*
X41945000Y-72763657D01*
X42133018Y-73217571D01*
X42433447Y-73518000D01*
X42133018Y-73818429D01*
X41945000Y-74272343D01*
X41945000Y-74763657D01*
X42133018Y-75217571D01*
X42433447Y-75518000D01*
X42133018Y-75818429D01*
X41945000Y-76272343D01*
X41945000Y-76604600D01*
X41925672Y-76633526D01*
X40663530Y-77895669D01*
X40600071Y-77938071D01*
X40432096Y-78189464D01*
X40388000Y-78411149D01*
X40388000Y-78411153D01*
X40373112Y-78486000D01*
X40388000Y-78560847D01*
X40388001Y-80957288D01*
X40270569Y-81074720D01*
X40113000Y-81455126D01*
X38227000Y-81455126D01*
X38227000Y-68349036D01*
X41932193Y-68349036D01*
X41962518Y-68839413D01*
X42091836Y-69151617D01*
X42317265Y-69201130D01*
X43000395Y-68518000D01*
X43359605Y-68518000D01*
X44042735Y-69201130D01*
X44180000Y-69170981D01*
X44317265Y-69201130D01*
X45000395Y-68518000D01*
X45359605Y-68518000D01*
X46042735Y-69201130D01*
X46268164Y-69151617D01*
X46427807Y-68686964D01*
X46397482Y-68196587D01*
X46268164Y-67884383D01*
X46042735Y-67834870D01*
X45359605Y-68518000D01*
X45000395Y-68518000D01*
X44317265Y-67834870D01*
X44180000Y-67865019D01*
X44042735Y-67834870D01*
X43359605Y-68518000D01*
X43000395Y-68518000D01*
X42317265Y-67834870D01*
X42091836Y-67884383D01*
X41932193Y-68349036D01*
X38227000Y-68349036D01*
X38227000Y-67655265D01*
X42496870Y-67655265D01*
X43180000Y-68338395D01*
X43863130Y-67655265D01*
X44496870Y-67655265D01*
X45180000Y-68338395D01*
X45863130Y-67655265D01*
X45813617Y-67429836D01*
X45348964Y-67270193D01*
X44858587Y-67300518D01*
X44546383Y-67429836D01*
X44496870Y-67655265D01*
X43863130Y-67655265D01*
X43813617Y-67429836D01*
X43348964Y-67270193D01*
X42858587Y-67300518D01*
X42546383Y-67429836D01*
X42496870Y-67655265D01*
X38227000Y-67655265D01*
X38227000Y-62611000D01*
X42672000Y-62611000D01*
X42720601Y-62601333D01*
X42761803Y-62573803D01*
X50763606Y-54572000D01*
X77546560Y-54572000D01*
X77546560Y-56172000D01*
X77595843Y-56419765D01*
X77736191Y-56629809D01*
X77946235Y-56770157D01*
X78180187Y-56816693D01*
X78165861Y-56864255D01*
X78994000Y-57692395D01*
X79822139Y-56864255D01*
X79807813Y-56816693D01*
X80041765Y-56770157D01*
X80251809Y-56629809D01*
X80392157Y-56419765D01*
X80441440Y-56172000D01*
X80441440Y-54572000D01*
X80392157Y-54324235D01*
X80251809Y-54114191D01*
X80041765Y-53973843D01*
X79794000Y-53924560D01*
X78194000Y-53924560D01*
X77946235Y-53973843D01*
X77736191Y-54114191D01*
X77595843Y-54324235D01*
X77546560Y-54572000D01*
X50763606Y-54572000D01*
X51868606Y-53467000D01*
X102513918Y-53467000D01*
X102076362Y-53904556D01*
X102076362Y-53904556D01*
G37*
X102076362Y-53904556D02*
X102053396Y-53960000D01*
X94562852Y-53960000D01*
X94488000Y-53945111D01*
X94413148Y-53960000D01*
X94191463Y-54004096D01*
X93940071Y-54172071D01*
X93857397Y-54295801D01*
X92884929Y-55268269D01*
X92627182Y-55217000D01*
X92324818Y-55217000D01*
X91877073Y-55306062D01*
X91369327Y-55645327D01*
X91030062Y-56153073D01*
X90910928Y-56752000D01*
X91030062Y-57350927D01*
X91369327Y-57858673D01*
X91877073Y-58197938D01*
X92324818Y-58287000D01*
X92627182Y-58287000D01*
X93074927Y-58197938D01*
X93582673Y-57858673D01*
X93921938Y-57350927D01*
X94041072Y-56752000D01*
X93959731Y-56343071D01*
X94822802Y-55480000D01*
X101867829Y-55480000D01*
X102076362Y-55983444D01*
X102592556Y-56499638D01*
X103266996Y-56779000D01*
X103997004Y-56779000D01*
X104671444Y-56499638D01*
X105187638Y-55983444D01*
X105303387Y-55704000D01*
X105429199Y-55704000D01*
X106936000Y-57210802D01*
X106936001Y-70805197D01*
X105782639Y-71958560D01*
X104610000Y-71958560D01*
X104362235Y-72007843D01*
X104152191Y-72148191D01*
X104011843Y-72358235D01*
X103965307Y-72592187D01*
X103917745Y-72577861D01*
X103089605Y-73406000D01*
X103917745Y-74234139D01*
X103965307Y-74219813D01*
X104011843Y-74453765D01*
X104152191Y-74663809D01*
X104362235Y-74804157D01*
X104610000Y-74853440D01*
X106210000Y-74853440D01*
X106457765Y-74804157D01*
X106667809Y-74663809D01*
X106808157Y-74453765D01*
X106857440Y-74206000D01*
X106857440Y-73033361D01*
X108180473Y-71710329D01*
X108243929Y-71667929D01*
X108411904Y-71416537D01*
X108427954Y-71335847D01*
X111947802Y-67816000D01*
X115053822Y-67816000D01*
X115261375Y-68126625D01*
X115559761Y-68326000D01*
X115261375Y-68525375D01*
X114933161Y-69016582D01*
X114817908Y-69596000D01*
X114933161Y-70175418D01*
X115261375Y-70666625D01*
X115279619Y-70678816D01*
X115234235Y-70687843D01*
X115024191Y-70828191D01*
X114883843Y-71038235D01*
X114834560Y-71286000D01*
X114834560Y-71487517D01*
X114792076Y-71515904D01*
X114684071Y-71588071D01*
X114641672Y-71651526D01*
X108948199Y-77345000D01*
X96707802Y-77345000D01*
X95840331Y-76477530D01*
X95797929Y-76414071D01*
X95546537Y-76246096D01*
X95324852Y-76202000D01*
X95324847Y-76202000D01*
X95250000Y-76187112D01*
X95175153Y-76202000D01*
X77022802Y-76202000D01*
X76978910Y-76158108D01*
X76987157Y-76145765D01*
X77036440Y-75898000D01*
X77036440Y-75198000D01*
X76987157Y-74950235D01*
X76846809Y-74740191D01*
X76636765Y-74599843D01*
X76389000Y-74550560D01*
X75879000Y-74550560D01*
X75631235Y-74599843D01*
X75421191Y-74740191D01*
X75280843Y-74950235D01*
X75231560Y-75198000D01*
X75231560Y-75898000D01*
X75280843Y-76145765D01*
X75374000Y-76285183D01*
X75374000Y-76313153D01*
X75359112Y-76388000D01*
X75374000Y-76462847D01*
X75374000Y-76462851D01*
X75418096Y-76684536D01*
X75558241Y-76894278D01*
X75439000Y-76870560D01*
X74929000Y-76870560D01*
X74709000Y-76914320D01*
X74489000Y-76870560D01*
X73979000Y-76870560D01*
X73731235Y-76919843D01*
X73521191Y-77060191D01*
X73380843Y-77270235D01*
X73331560Y-77518000D01*
X73331560Y-78218000D01*
X73380843Y-78465765D01*
X73521191Y-78675809D01*
X73731235Y-78816157D01*
X73979000Y-78865440D01*
X74356849Y-78865440D01*
X74306569Y-78915720D01*
X74149000Y-79296126D01*
X74149000Y-79707874D01*
X74306569Y-80088280D01*
X74597720Y-80379431D01*
X74978126Y-80537000D01*
X75389874Y-80537000D01*
X75770280Y-80379431D01*
X76061431Y-80088280D01*
X76219000Y-79707874D01*
X76219000Y-79296126D01*
X76061431Y-78915720D01*
X75944000Y-78798289D01*
X75944000Y-78757250D01*
X76007000Y-78694250D01*
X76007000Y-78510898D01*
X76037157Y-78465765D01*
X76086440Y-78218000D01*
X76086440Y-77995000D01*
X76261000Y-77995000D01*
X76261000Y-78694250D01*
X76419750Y-78853000D01*
X76515310Y-78853000D01*
X76748699Y-78756327D01*
X76927327Y-78577698D01*
X77024000Y-78344309D01*
X77024000Y-78153750D01*
X76865250Y-77995000D01*
X76261000Y-77995000D01*
X76086440Y-77995000D01*
X76086440Y-77721000D01*
X76261000Y-77721000D01*
X76261000Y-77741000D01*
X76865250Y-77741000D01*
X76884250Y-77722000D01*
X94935199Y-77722000D01*
X95701198Y-78488000D01*
X91662430Y-78488000D01*
X91640534Y-78435138D01*
X91236862Y-78031466D01*
X90709439Y-77813000D01*
X90138561Y-77813000D01*
X89611138Y-78031466D01*
X89207466Y-78435138D01*
X89153606Y-78565168D01*
X88918577Y-78213423D01*
X88443909Y-77896260D01*
X88025333Y-77813000D01*
X87742667Y-77813000D01*
X87324091Y-77896260D01*
X86849423Y-78213423D01*
X86532260Y-78688091D01*
X86420887Y-79248000D01*
X86532260Y-79807909D01*
X86849423Y-80282577D01*
X87324091Y-80599740D01*
X87742667Y-80683000D01*
X88025333Y-80683000D01*
X88443909Y-80599740D01*
X88918577Y-80282577D01*
X89153606Y-79930832D01*
X89207466Y-80060862D01*
X89611138Y-80464534D01*
X90138561Y-80683000D01*
X90709439Y-80683000D01*
X91236862Y-80464534D01*
X91640534Y-80060862D01*
X91662430Y-80008000D01*
X100269199Y-80008000D01*
X107444000Y-87182803D01*
X107444001Y-91803957D01*
X107169424Y-91987423D01*
X106852260Y-92462091D01*
X106769000Y-92880667D01*
X106769000Y-94063332D01*
X106852260Y-94481908D01*
X107169423Y-94956576D01*
X107644091Y-95273740D01*
X108204000Y-95385113D01*
X108763908Y-95273740D01*
X109238576Y-94956577D01*
X109476499Y-94600501D01*
X109819104Y-95026500D01*
X110312181Y-95296367D01*
X110394961Y-95313904D01*
X110617000Y-95191915D01*
X110617000Y-93599000D01*
X110871000Y-93599000D01*
X110871000Y-95191915D01*
X111093039Y-95313904D01*
X111175819Y-95296367D01*
X111668896Y-95026500D01*
X112021166Y-94588483D01*
X112179000Y-94049000D01*
X112179000Y-93599000D01*
X110871000Y-93599000D01*
X110617000Y-93599000D01*
X110597000Y-93599000D01*
X110597000Y-93345000D01*
X110617000Y-93345000D01*
X110617000Y-91752085D01*
X110871000Y-91752085D01*
X110871000Y-93345000D01*
X112179000Y-93345000D01*
X112179000Y-92895000D01*
X112021166Y-92355517D01*
X111668896Y-91917500D01*
X111175819Y-91647633D01*
X111093039Y-91630096D01*
X110871000Y-91752085D01*
X110617000Y-91752085D01*
X110394961Y-91630096D01*
X110312181Y-91647633D01*
X109819104Y-91917500D01*
X109476499Y-92343499D01*
X109238577Y-91987423D01*
X108964000Y-91803957D01*
X108964000Y-86942846D01*
X108978888Y-86867999D01*
X108964000Y-86793152D01*
X108964000Y-86793148D01*
X108919904Y-86571463D01*
X108878102Y-86508902D01*
X108794329Y-86383526D01*
X108794327Y-86383524D01*
X108751929Y-86320071D01*
X108688476Y-86277673D01*
X101275801Y-78865000D01*
X109188153Y-78865000D01*
X109263000Y-78879888D01*
X109337847Y-78865000D01*
X109337852Y-78865000D01*
X109559537Y-78820904D01*
X109810929Y-78652929D01*
X109853331Y-78589470D01*
X115014098Y-73428704D01*
X115024191Y-73443809D01*
X115234235Y-73584157D01*
X115482000Y-73633440D01*
X117182000Y-73633440D01*
X117429765Y-73584157D01*
X117639809Y-73443809D01*
X117780157Y-73233765D01*
X117829440Y-72986000D01*
X117829440Y-71286000D01*
X117780157Y-71038235D01*
X117639809Y-70828191D01*
X117429765Y-70687843D01*
X117384381Y-70678816D01*
X117402625Y-70666625D01*
X117730839Y-70175418D01*
X117846092Y-69596000D01*
X117730839Y-69016582D01*
X117402625Y-68525375D01*
X117104239Y-68326000D01*
X117402625Y-68126625D01*
X117730839Y-67635418D01*
X117846092Y-67056000D01*
X117730839Y-66476582D01*
X117402625Y-65985375D01*
X116911418Y-65657161D01*
X116478256Y-65571000D01*
X116185744Y-65571000D01*
X115752582Y-65657161D01*
X115261375Y-65985375D01*
X115053822Y-66296000D01*
X111707848Y-66296000D01*
X111633000Y-66281112D01*
X111558152Y-66296000D01*
X111558148Y-66296000D01*
X111384605Y-66330520D01*
X111336462Y-66340096D01*
X111149418Y-66465076D01*
X111085071Y-66508071D01*
X111042671Y-66571527D01*
X108456000Y-69158199D01*
X108456000Y-56970847D01*
X108470888Y-56896000D01*
X108456000Y-56821153D01*
X108456000Y-56821148D01*
X108411904Y-56599463D01*
X108243929Y-56348071D01*
X108180473Y-56305671D01*
X106334331Y-54459530D01*
X106291929Y-54396071D01*
X106040537Y-54228096D01*
X105818852Y-54184000D01*
X105818847Y-54184000D01*
X105744000Y-54169112D01*
X105669153Y-54184000D01*
X105303387Y-54184000D01*
X105187638Y-53904556D01*
X104750082Y-53467000D01*
X106119394Y-53467000D01*
X114718197Y-62065803D01*
X114759399Y-62093333D01*
X114808000Y-62103000D01*
X120779514Y-62103000D01*
X121185000Y-82377314D01*
X121185000Y-100004713D01*
X117333161Y-100457870D01*
X117286023Y-100473150D01*
X117258197Y-100494197D01*
X113230685Y-104521709D01*
X38227000Y-105535273D01*
X38227000Y-98679000D01*
X42827000Y-98679000D01*
X42827000Y-100429000D01*
X43057148Y-101332033D01*
X43615353Y-102078253D01*
X44416633Y-102554054D01*
X44713997Y-102634427D01*
X45085000Y-102524625D01*
X45085000Y-98679000D01*
X45339000Y-98679000D01*
X45339000Y-102524625D01*
X45710003Y-102634427D01*
X46007367Y-102554054D01*
X46808647Y-102078253D01*
X47366852Y-101332033D01*
X47597000Y-100429000D01*
X47597000Y-98679000D01*
X52987000Y-98679000D01*
X52987000Y-100429000D01*
X53217148Y-101332033D01*
X53775353Y-102078253D01*
X54576633Y-102554054D01*
X54873997Y-102634427D01*
X55245000Y-102524625D01*
X55245000Y-98679000D01*
X55499000Y-98679000D01*
X55499000Y-102524625D01*
X55870003Y-102634427D01*
X56167367Y-102554054D01*
X56968647Y-102078253D01*
X57526852Y-101332033D01*
X57757000Y-100429000D01*
X57757000Y-98679000D01*
X61115000Y-98679000D01*
X61115000Y-100429000D01*
X61345148Y-101332033D01*
X61903353Y-102078253D01*
X62704633Y-102554054D01*
X63001997Y-102634427D01*
X63373000Y-102524625D01*
X63373000Y-98679000D01*
X63627000Y-98679000D01*
X63627000Y-102524625D01*
X63998003Y-102634427D01*
X64295367Y-102554054D01*
X65096647Y-102078253D01*
X65654852Y-101332033D01*
X65885000Y-100429000D01*
X65885000Y-98679000D01*
X71275000Y-98679000D01*
X71275000Y-100429000D01*
X71505148Y-101332033D01*
X72063353Y-102078253D01*
X72864633Y-102554054D01*
X73161997Y-102634427D01*
X73533000Y-102524625D01*
X73533000Y-98679000D01*
X73787000Y-98679000D01*
X73787000Y-102524625D01*
X74158003Y-102634427D01*
X74455367Y-102554054D01*
X75256647Y-102078253D01*
X75814852Y-101332033D01*
X76045000Y-100429000D01*
X76045000Y-98679000D01*
X79403000Y-98679000D01*
X79403000Y-100429000D01*
X79633148Y-101332033D01*
X80191353Y-102078253D01*
X80992633Y-102554054D01*
X81289997Y-102634427D01*
X81661000Y-102524625D01*
X81661000Y-98679000D01*
X81915000Y-98679000D01*
X81915000Y-102524625D01*
X82286003Y-102634427D01*
X82583367Y-102554054D01*
X83384647Y-102078253D01*
X83942852Y-101332033D01*
X84173000Y-100429000D01*
X84173000Y-98679000D01*
X89563000Y-98679000D01*
X89563000Y-100429000D01*
X89793148Y-101332033D01*
X90351353Y-102078253D01*
X91152633Y-102554054D01*
X91449997Y-102634427D01*
X91821000Y-102524625D01*
X91821000Y-98679000D01*
X92075000Y-98679000D01*
X92075000Y-102524625D01*
X92446003Y-102634427D01*
X92743367Y-102554054D01*
X93544647Y-102078253D01*
X94102852Y-101332033D01*
X94333000Y-100429000D01*
X94333000Y-98679000D01*
X100739000Y-98679000D01*
X100739000Y-100429000D01*
X100969148Y-101332033D01*
X101527353Y-102078253D01*
X102328633Y-102554054D01*
X102625997Y-102634427D01*
X102997000Y-102524625D01*
X102997000Y-98679000D01*
X103251000Y-98679000D01*
X103251000Y-102524625D01*
X103622003Y-102634427D01*
X103919367Y-102554054D01*
X104720647Y-102078253D01*
X105278852Y-101332033D01*
X105509000Y-100429000D01*
X105509000Y-98679000D01*
X110899000Y-98679000D01*
X110899000Y-100429000D01*
X111129148Y-101332033D01*
X111687353Y-102078253D01*
X112488633Y-102554054D01*
X112785997Y-102634427D01*
X113157000Y-102524625D01*
X113157000Y-98679000D01*
X113411000Y-98679000D01*
X113411000Y-102524625D01*
X113782003Y-102634427D01*
X114079367Y-102554054D01*
X114880647Y-102078253D01*
X115438852Y-101332033D01*
X115669000Y-100429000D01*
X115669000Y-98679000D01*
X113411000Y-98679000D01*
X113157000Y-98679000D01*
X110899000Y-98679000D01*
X105509000Y-98679000D01*
X103251000Y-98679000D01*
X102997000Y-98679000D01*
X100739000Y-98679000D01*
X94333000Y-98679000D01*
X92075000Y-98679000D01*
X91821000Y-98679000D01*
X89563000Y-98679000D01*
X84173000Y-98679000D01*
X81915000Y-98679000D01*
X81661000Y-98679000D01*
X79403000Y-98679000D01*
X76045000Y-98679000D01*
X73787000Y-98679000D01*
X73533000Y-98679000D01*
X71275000Y-98679000D01*
X65885000Y-98679000D01*
X63627000Y-98679000D01*
X63373000Y-98679000D01*
X61115000Y-98679000D01*
X57757000Y-98679000D01*
X55499000Y-98679000D01*
X55245000Y-98679000D01*
X52987000Y-98679000D01*
X47597000Y-98679000D01*
X45339000Y-98679000D01*
X45085000Y-98679000D01*
X42827000Y-98679000D01*
X38227000Y-98679000D01*
X38227000Y-96675000D01*
X42827000Y-96675000D01*
X42827000Y-98425000D01*
X45085000Y-98425000D01*
X45085000Y-94579375D01*
X45339000Y-94579375D01*
X45339000Y-98425000D01*
X47597000Y-98425000D01*
X47597000Y-96675000D01*
X52987000Y-96675000D01*
X52987000Y-98425000D01*
X55245000Y-98425000D01*
X55245000Y-94579375D01*
X55499000Y-94579375D01*
X55499000Y-98425000D01*
X57757000Y-98425000D01*
X57757000Y-96675000D01*
X61115000Y-96675000D01*
X61115000Y-98425000D01*
X63373000Y-98425000D01*
X63373000Y-94579375D01*
X63627000Y-94579375D01*
X63627000Y-98425000D01*
X65885000Y-98425000D01*
X65885000Y-96675000D01*
X71275000Y-96675000D01*
X71275000Y-98425000D01*
X73533000Y-98425000D01*
X73533000Y-94579375D01*
X73787000Y-94579375D01*
X73787000Y-98425000D01*
X76045000Y-98425000D01*
X76045000Y-96675000D01*
X79403000Y-96675000D01*
X79403000Y-98425000D01*
X81661000Y-98425000D01*
X81661000Y-94579375D01*
X81915000Y-94579375D01*
X81915000Y-98425000D01*
X84173000Y-98425000D01*
X84173000Y-96675000D01*
X89563000Y-96675000D01*
X89563000Y-98425000D01*
X91821000Y-98425000D01*
X91821000Y-94579375D01*
X92075000Y-94579375D01*
X92075000Y-98425000D01*
X94333000Y-98425000D01*
X94333000Y-96675000D01*
X100739000Y-96675000D01*
X100739000Y-98425000D01*
X102997000Y-98425000D01*
X102997000Y-94579375D01*
X103251000Y-94579375D01*
X103251000Y-98425000D01*
X105509000Y-98425000D01*
X105509000Y-96675000D01*
X110899000Y-96675000D01*
X110899000Y-98425000D01*
X113157000Y-98425000D01*
X113157000Y-94579375D01*
X113411000Y-94579375D01*
X113411000Y-98425000D01*
X115669000Y-98425000D01*
X115669000Y-96675000D01*
X115438852Y-95771967D01*
X114880647Y-95025747D01*
X114079367Y-94549946D01*
X113782003Y-94469573D01*
X113411000Y-94579375D01*
X113157000Y-94579375D01*
X112785997Y-94469573D01*
X112488633Y-94549946D01*
X111687353Y-95025747D01*
X111129148Y-95771967D01*
X110899000Y-96675000D01*
X105509000Y-96675000D01*
X105278852Y-95771967D01*
X104720647Y-95025747D01*
X103919367Y-94549946D01*
X103622003Y-94469573D01*
X103251000Y-94579375D01*
X102997000Y-94579375D01*
X102625997Y-94469573D01*
X102328633Y-94549946D01*
X101527353Y-95025747D01*
X100969148Y-95771967D01*
X100739000Y-96675000D01*
X94333000Y-96675000D01*
X94102852Y-95771967D01*
X93544647Y-95025747D01*
X92743367Y-94549946D01*
X92446003Y-94469573D01*
X92075000Y-94579375D01*
X91821000Y-94579375D01*
X91449997Y-94469573D01*
X91152633Y-94549946D01*
X90351353Y-95025747D01*
X89793148Y-95771967D01*
X89563000Y-96675000D01*
X84173000Y-96675000D01*
X83942852Y-95771967D01*
X83384647Y-95025747D01*
X82583367Y-94549946D01*
X82286003Y-94469573D01*
X81915000Y-94579375D01*
X81661000Y-94579375D01*
X81289997Y-94469573D01*
X80992633Y-94549946D01*
X80191353Y-95025747D01*
X79633148Y-95771967D01*
X79403000Y-96675000D01*
X76045000Y-96675000D01*
X75814852Y-95771967D01*
X75256647Y-95025747D01*
X74455367Y-94549946D01*
X74158003Y-94469573D01*
X73787000Y-94579375D01*
X73533000Y-94579375D01*
X73161997Y-94469573D01*
X72864633Y-94549946D01*
X72063353Y-95025747D01*
X71505148Y-95771967D01*
X71275000Y-96675000D01*
X65885000Y-96675000D01*
X65654852Y-95771967D01*
X65096647Y-95025747D01*
X64295367Y-94549946D01*
X63998003Y-94469573D01*
X63627000Y-94579375D01*
X63373000Y-94579375D01*
X63001997Y-94469573D01*
X62704633Y-94549946D01*
X61903353Y-95025747D01*
X61345148Y-95771967D01*
X61115000Y-96675000D01*
X57757000Y-96675000D01*
X57526852Y-95771967D01*
X56968647Y-95025747D01*
X56167367Y-94549946D01*
X55870003Y-94469573D01*
X55499000Y-94579375D01*
X55245000Y-94579375D01*
X54873997Y-94469573D01*
X54576633Y-94549946D01*
X53775353Y-95025747D01*
X53217148Y-95771967D01*
X52987000Y-96675000D01*
X47597000Y-96675000D01*
X47366852Y-95771967D01*
X46808647Y-95025747D01*
X46007367Y-94549946D01*
X45710003Y-94469573D01*
X45339000Y-94579375D01*
X45085000Y-94579375D01*
X44713997Y-94469573D01*
X44416633Y-94549946D01*
X43615353Y-95025747D01*
X43057148Y-95771967D01*
X42827000Y-96675000D01*
X38227000Y-96675000D01*
X38227000Y-92880667D01*
X48857000Y-92880667D01*
X48857000Y-94063332D01*
X48940260Y-94481908D01*
X49257423Y-94956576D01*
X49732091Y-95273740D01*
X50292000Y-95385113D01*
X50851908Y-95273740D01*
X51326576Y-94956577D01*
X51564499Y-94600501D01*
X51907104Y-95026500D01*
X52400181Y-95296367D01*
X52482961Y-95313904D01*
X52705000Y-95191915D01*
X52705000Y-93599000D01*
X52959000Y-93599000D01*
X52959000Y-95191915D01*
X53181039Y-95313904D01*
X53263819Y-95296367D01*
X53756896Y-95026500D01*
X54109166Y-94588483D01*
X54267000Y-94049000D01*
X54267000Y-93599000D01*
X52959000Y-93599000D01*
X52705000Y-93599000D01*
X52685000Y-93599000D01*
X52685000Y-93345000D01*
X52705000Y-93345000D01*
X52705000Y-91752085D01*
X52959000Y-91752085D01*
X52959000Y-93345000D01*
X54267000Y-93345000D01*
X54267000Y-92895000D01*
X54109166Y-92355517D01*
X53756896Y-91917500D01*
X53263819Y-91647633D01*
X53181039Y-91630096D01*
X52959000Y-91752085D01*
X52705000Y-91752085D01*
X52660929Y-91727872D01*
X54093802Y-90295000D01*
X58980153Y-90295000D01*
X59055000Y-90309888D01*
X59129847Y-90295000D01*
X59129852Y-90295000D01*
X59351537Y-90250904D01*
X59602929Y-90082929D01*
X59645331Y-90019470D01*
X64746473Y-84918329D01*
X64809929Y-84875929D01*
X64977904Y-84624537D01*
X65022000Y-84402852D01*
X65022000Y-84402848D01*
X65036888Y-84328001D01*
X65022000Y-84253154D01*
X65022000Y-82624847D01*
X65036888Y-82550000D01*
X65022000Y-82475153D01*
X65022000Y-82475148D01*
X64977904Y-82253463D01*
X64809929Y-82002071D01*
X64746473Y-81959671D01*
X63836331Y-81049530D01*
X63819286Y-81024020D01*
X63828440Y-80978000D01*
X63828440Y-80278000D01*
X63779157Y-80030235D01*
X63638809Y-79820191D01*
X63428765Y-79679843D01*
X63181000Y-79630560D01*
X62671000Y-79630560D01*
X62423235Y-79679843D01*
X62213191Y-79820191D01*
X62072843Y-80030235D01*
X62023560Y-80278000D01*
X62023560Y-80499000D01*
X61928440Y-80499000D01*
X61928440Y-80278000D01*
X61879157Y-80030235D01*
X61768346Y-79864396D01*
X61741904Y-79731463D01*
X61573929Y-79480071D01*
X61510470Y-79437669D01*
X61471331Y-79398530D01*
X61428929Y-79335071D01*
X61177537Y-79167096D01*
X60955852Y-79123000D01*
X60955847Y-79123000D01*
X60881000Y-79108112D01*
X60806153Y-79123000D01*
X60004802Y-79123000D01*
X59074000Y-78192199D01*
X59074000Y-78026126D01*
X58916431Y-77645720D01*
X58625280Y-77354569D01*
X58244874Y-77197000D01*
X57833126Y-77197000D01*
X57452720Y-77354569D01*
X57335289Y-77472000D01*
X55065846Y-77472000D01*
X54990999Y-77457112D01*
X54916152Y-77472000D01*
X54916148Y-77472000D01*
X54694463Y-77516096D01*
X54640237Y-77552329D01*
X54506526Y-77641671D01*
X54506524Y-77641673D01*
X54443071Y-77684071D01*
X54400673Y-77747524D01*
X52921530Y-79226669D01*
X52858071Y-79269071D01*
X52690096Y-79520464D01*
X52646000Y-79742149D01*
X52646000Y-79742153D01*
X52631112Y-79817000D01*
X52645842Y-79891053D01*
X52552843Y-80030235D01*
X52503560Y-80278000D01*
X52503560Y-80753000D01*
X52372126Y-80753000D01*
X51991720Y-80910569D01*
X51700569Y-81201720D01*
X51543000Y-81582126D01*
X51543000Y-81993874D01*
X51700569Y-82374280D01*
X51991720Y-82665431D01*
X52372126Y-82823000D01*
X52503560Y-82823000D01*
X52503560Y-83298000D01*
X52550618Y-83534580D01*
X52538198Y-83547000D01*
X52372126Y-83547000D01*
X51991720Y-83704569D01*
X51700569Y-83995720D01*
X51543000Y-84376126D01*
X51543000Y-84787874D01*
X51700569Y-85168280D01*
X51991720Y-85459431D01*
X52372126Y-85617000D01*
X52783874Y-85617000D01*
X53164280Y-85459431D01*
X53455431Y-85168280D01*
X53613000Y-84787874D01*
X53613000Y-84621802D01*
X53890473Y-84344329D01*
X53953929Y-84301929D01*
X54090506Y-84097528D01*
X54121904Y-84050538D01*
X54142809Y-83945440D01*
X54611000Y-83945440D01*
X54843212Y-83899251D01*
X54924690Y-83933000D01*
X55020250Y-83933000D01*
X55179000Y-83774250D01*
X55179000Y-83590898D01*
X55209157Y-83545765D01*
X55258440Y-83298000D01*
X55258440Y-83075000D01*
X55433000Y-83075000D01*
X55433000Y-83774250D01*
X55591750Y-83933000D01*
X55687310Y-83933000D01*
X55920699Y-83836327D01*
X56099327Y-83657698D01*
X56196000Y-83424309D01*
X56196000Y-83233750D01*
X56037250Y-83075000D01*
X55433000Y-83075000D01*
X55258440Y-83075000D01*
X55258440Y-82801000D01*
X55433000Y-82801000D01*
X55433000Y-82821000D01*
X56037250Y-82821000D01*
X56196000Y-82662250D01*
X56196000Y-82548000D01*
X60130055Y-82548000D01*
X60132714Y-82551980D01*
X60123560Y-82598000D01*
X60123560Y-83298000D01*
X60172843Y-83545765D01*
X60313191Y-83755809D01*
X60523235Y-83896157D01*
X60771000Y-83945440D01*
X61281000Y-83945440D01*
X61501000Y-83901680D01*
X61721000Y-83945440D01*
X62231000Y-83945440D01*
X62463212Y-83899251D01*
X62544690Y-83933000D01*
X62640250Y-83933000D01*
X62799000Y-83774250D01*
X62799000Y-83590898D01*
X62829157Y-83545765D01*
X62878440Y-83298000D01*
X62878440Y-82801000D01*
X63053000Y-82801000D01*
X63053000Y-82821000D01*
X63073000Y-82821000D01*
X63073000Y-83075000D01*
X63053000Y-83075000D01*
X63053000Y-83774250D01*
X63211750Y-83933000D01*
X63307310Y-83933000D01*
X63502001Y-83852356D01*
X63502001Y-84013197D01*
X58740199Y-88775000D01*
X53853848Y-88775000D01*
X53779000Y-88760112D01*
X53704152Y-88775000D01*
X53704148Y-88775000D01*
X53530605Y-88809520D01*
X53482462Y-88819096D01*
X53295418Y-88944076D01*
X53231071Y-88987071D01*
X53188671Y-89050527D01*
X50615887Y-91623312D01*
X50292000Y-91558887D01*
X49732092Y-91670260D01*
X49257424Y-91987423D01*
X48940260Y-92462091D01*
X48857000Y-92880667D01*
X38227000Y-92880667D01*
X38227000Y-81455126D01*
X40113000Y-81455126D01*
X40113000Y-81866874D01*
X40270569Y-82247280D01*
X40561720Y-82538431D01*
X40942126Y-82696000D01*
X41353874Y-82696000D01*
X41734280Y-82538431D01*
X42025431Y-82247280D01*
X42183000Y-81866874D01*
X42183000Y-81484007D01*
X42195414Y-81502586D01*
X42486564Y-81697127D01*
X42829999Y-81765440D01*
X43530001Y-81765440D01*
X43873436Y-81697127D01*
X44164586Y-81502586D01*
X44266103Y-81350656D01*
X44480429Y-81564982D01*
X44934343Y-81753000D01*
X45425657Y-81753000D01*
X45879571Y-81564982D01*
X46226982Y-81217571D01*
X46415000Y-80763657D01*
X46415000Y-80272343D01*
X46226982Y-79818429D01*
X45926553Y-79518000D01*
X46226982Y-79217571D01*
X46415000Y-78763657D01*
X46415000Y-78272343D01*
X46292250Y-77976000D01*
X49709153Y-77976000D01*
X49784000Y-77990888D01*
X49858847Y-77976000D01*
X49858852Y-77976000D01*
X50080537Y-77931904D01*
X50331929Y-77763929D01*
X50374331Y-77700470D01*
X53890473Y-74184329D01*
X53953929Y-74141929D01*
X54121904Y-73890537D01*
X54142809Y-73785440D01*
X54611000Y-73785440D01*
X54843212Y-73739251D01*
X54924690Y-73773000D01*
X55020250Y-73773000D01*
X55179000Y-73614250D01*
X55179000Y-73430898D01*
X55209157Y-73385765D01*
X55258440Y-73138000D01*
X55258440Y-72915000D01*
X55433000Y-72915000D01*
X55433000Y-73614250D01*
X55591750Y-73773000D01*
X55687310Y-73773000D01*
X55920699Y-73676327D01*
X56099327Y-73497698D01*
X56196000Y-73264309D01*
X56196000Y-73073750D01*
X56037250Y-72915000D01*
X55433000Y-72915000D01*
X55258440Y-72915000D01*
X55258440Y-72641000D01*
X55433000Y-72641000D01*
X55433000Y-72661000D01*
X56037250Y-72661000D01*
X56196000Y-72502250D01*
X56196000Y-72311691D01*
X56122398Y-72134000D01*
X59248199Y-72134000D01*
X59615560Y-72501362D01*
X59615560Y-73138000D01*
X59664843Y-73385765D01*
X59805191Y-73595809D01*
X60015235Y-73736157D01*
X60263000Y-73785440D01*
X60773000Y-73785440D01*
X60814060Y-73777273D01*
X60920071Y-73935929D01*
X60983530Y-73978331D01*
X61068000Y-74062801D01*
X61068000Y-74246874D01*
X61225569Y-74627280D01*
X61516720Y-74918431D01*
X61897126Y-75076000D01*
X62308874Y-75076000D01*
X62689280Y-74918431D01*
X62980431Y-74627280D01*
X63138000Y-74246874D01*
X63138000Y-73835126D01*
X63060647Y-73648379D01*
X63211327Y-73497698D01*
X63308000Y-73264309D01*
X63308000Y-73073750D01*
X63149250Y-72915000D01*
X62545000Y-72915000D01*
X62545000Y-72935000D01*
X62370440Y-72935000D01*
X62370440Y-72641000D01*
X62545000Y-72641000D01*
X62545000Y-72661000D01*
X63149250Y-72661000D01*
X63176724Y-72633526D01*
X64137000Y-73593803D01*
X64137001Y-74093149D01*
X64122112Y-74168000D01*
X64181097Y-74464537D01*
X64289839Y-74627280D01*
X64349072Y-74715929D01*
X64412528Y-74758329D01*
X67820000Y-78165802D01*
X67820001Y-91803957D01*
X67545424Y-91987423D01*
X67228260Y-92462091D01*
X67145000Y-92880667D01*
X67145000Y-94063332D01*
X67228260Y-94481908D01*
X67545423Y-94956576D01*
X68020091Y-95273740D01*
X68580000Y-95385113D01*
X69139908Y-95273740D01*
X69614576Y-94956577D01*
X69852499Y-94600501D01*
X70195104Y-95026500D01*
X70688181Y-95296367D01*
X70770961Y-95313904D01*
X70993000Y-95191915D01*
X70993000Y-93599000D01*
X71247000Y-93599000D01*
X71247000Y-95191915D01*
X71469039Y-95313904D01*
X71551819Y-95296367D01*
X72044896Y-95026500D01*
X72397166Y-94588483D01*
X72555000Y-94049000D01*
X72555000Y-93599000D01*
X71247000Y-93599000D01*
X70993000Y-93599000D01*
X70973000Y-93599000D01*
X70973000Y-93345000D01*
X70993000Y-93345000D01*
X70993000Y-91752085D01*
X71247000Y-91752085D01*
X71247000Y-93345000D01*
X72555000Y-93345000D01*
X72555000Y-92895000D01*
X72397166Y-92355517D01*
X72044896Y-91917500D01*
X71551819Y-91647633D01*
X71469039Y-91630096D01*
X71247000Y-91752085D01*
X70993000Y-91752085D01*
X70770961Y-91630096D01*
X70688181Y-91647633D01*
X70195104Y-91917500D01*
X69852499Y-92343499D01*
X69614577Y-91987423D01*
X69340000Y-91803957D01*
X69340000Y-78068801D01*
X85227671Y-93956473D01*
X85270071Y-94019929D01*
X85448017Y-94138829D01*
X85516260Y-94481908D01*
X85833423Y-94956576D01*
X86308091Y-95273740D01*
X86868000Y-95385113D01*
X87427908Y-95273740D01*
X87902576Y-94956577D01*
X88140499Y-94600501D01*
X88483104Y-95026500D01*
X88976181Y-95296367D01*
X89058961Y-95313904D01*
X89281000Y-95191915D01*
X89281000Y-93599000D01*
X89535000Y-93599000D01*
X89535000Y-95191915D01*
X89757039Y-95313904D01*
X89839819Y-95296367D01*
X90332896Y-95026500D01*
X90685166Y-94588483D01*
X90843000Y-94049000D01*
X90843000Y-93599000D01*
X89535000Y-93599000D01*
X89281000Y-93599000D01*
X89261000Y-93599000D01*
X89261000Y-93345000D01*
X89281000Y-93345000D01*
X89281000Y-91752085D01*
X89535000Y-91752085D01*
X89535000Y-93345000D01*
X90843000Y-93345000D01*
X90843000Y-92895000D01*
X90685166Y-92355517D01*
X90332896Y-91917500D01*
X89839819Y-91647633D01*
X89757039Y-91630096D01*
X89535000Y-91752085D01*
X89281000Y-91752085D01*
X89058961Y-91630096D01*
X88976181Y-91647633D01*
X88483104Y-91917500D01*
X88140499Y-92343499D01*
X87902577Y-91987423D01*
X87427909Y-91670260D01*
X86868000Y-91558887D01*
X86308092Y-91670260D01*
X85833424Y-91987423D01*
X85663113Y-92242311D01*
X66546000Y-73125199D01*
X66546000Y-72946126D01*
X67545000Y-72946126D01*
X67545000Y-73357874D01*
X67702569Y-73738280D01*
X67993720Y-74029431D01*
X68374126Y-74187000D01*
X68540199Y-74187000D01*
X70385671Y-76032473D01*
X70428071Y-76095929D01*
X70491527Y-76138329D01*
X70679462Y-76263904D01*
X70727605Y-76273480D01*
X70901148Y-76308000D01*
X70901152Y-76308000D01*
X70976000Y-76322888D01*
X71050848Y-76308000D01*
X73489246Y-76308000D01*
X73521191Y-76355809D01*
X73731235Y-76496157D01*
X73979000Y-76545440D01*
X74489000Y-76545440D01*
X74736765Y-76496157D01*
X74946809Y-76355809D01*
X75087157Y-76145765D01*
X75136440Y-75898000D01*
X75136440Y-75198000D01*
X75087157Y-74950235D01*
X74946809Y-74740191D01*
X74736765Y-74599843D01*
X74489000Y-74550560D01*
X73979000Y-74550560D01*
X73731235Y-74599843D01*
X73521191Y-74740191D01*
X73489246Y-74788000D01*
X71290802Y-74788000D01*
X70916547Y-74413745D01*
X102081861Y-74413745D01*
X102155995Y-74659864D01*
X102693223Y-74852965D01*
X103263454Y-74825778D01*
X103664005Y-74659864D01*
X103738139Y-74413745D01*
X102910000Y-73585605D01*
X102081861Y-74413745D01*
X70916547Y-74413745D01*
X69692025Y-73189223D01*
X101463035Y-73189223D01*
X101490222Y-73759454D01*
X101656136Y-74160005D01*
X101902255Y-74234139D01*
X102730395Y-73406000D01*
X101902255Y-72577861D01*
X101656136Y-72651995D01*
X101463035Y-73189223D01*
X69692025Y-73189223D01*
X69615000Y-73112199D01*
X69615000Y-72946126D01*
X69457431Y-72565720D01*
X69289966Y-72398255D01*
X102081861Y-72398255D01*
X102910000Y-73226395D01*
X103738139Y-72398255D01*
X103664005Y-72152136D01*
X103126777Y-71959035D01*
X102556546Y-71986222D01*
X102155995Y-72152136D01*
X102081861Y-72398255D01*
X69289966Y-72398255D01*
X69166280Y-72274569D01*
X68785874Y-72117000D01*
X68374126Y-72117000D01*
X67993720Y-72274569D01*
X67702569Y-72565720D01*
X67545000Y-72946126D01*
X66546000Y-72946126D01*
X66546000Y-71950711D01*
X66663431Y-71833280D01*
X66821000Y-71452874D01*
X66821000Y-71041126D01*
X66663431Y-70660720D01*
X66372280Y-70369569D01*
X65991874Y-70212000D01*
X65580126Y-70212000D01*
X65199720Y-70369569D01*
X64908569Y-70660720D01*
X64751000Y-71041126D01*
X64751000Y-71452874D01*
X64908569Y-71833280D01*
X65026001Y-71950712D01*
X65026001Y-72333198D01*
X63320440Y-70627639D01*
X63320440Y-70118000D01*
X63271157Y-69870235D01*
X63130809Y-69660191D01*
X62920765Y-69519843D01*
X62673000Y-69470560D01*
X62163000Y-69470560D01*
X61915235Y-69519843D01*
X61705191Y-69660191D01*
X61564843Y-69870235D01*
X61515560Y-70118000D01*
X61515560Y-70751729D01*
X61413277Y-70854012D01*
X61420440Y-70818000D01*
X61420440Y-70118000D01*
X61371157Y-69870235D01*
X61230809Y-69660191D01*
X61020765Y-69519843D01*
X60773000Y-69470560D01*
X60573953Y-69470560D01*
X60450537Y-69388096D01*
X60228852Y-69344000D01*
X60228847Y-69344000D01*
X60154000Y-69329112D01*
X60079153Y-69344000D01*
X59123711Y-69344000D01*
X59006280Y-69226569D01*
X58625874Y-69069000D01*
X58214126Y-69069000D01*
X57833720Y-69226569D01*
X57716289Y-69344000D01*
X57337802Y-69344000D01*
X56343331Y-68349530D01*
X56300929Y-68286071D01*
X56049537Y-68118096D01*
X55827852Y-68074000D01*
X55827847Y-68074000D01*
X55753000Y-68059112D01*
X55678153Y-68074000D01*
X54430847Y-68074000D01*
X54356000Y-68059112D01*
X54281153Y-68074000D01*
X54281148Y-68074000D01*
X54059463Y-68118096D01*
X53808071Y-68286071D01*
X53765671Y-68349527D01*
X52921530Y-69193669D01*
X52858071Y-69236071D01*
X52715950Y-69448770D01*
X52675410Y-69388097D01*
X52660329Y-69365526D01*
X52660327Y-69365524D01*
X52617929Y-69302071D01*
X52597000Y-69288087D01*
X52597000Y-69136126D01*
X52439431Y-68755720D01*
X52148280Y-68464569D01*
X52037938Y-68418864D01*
X53730802Y-66726000D01*
X79286560Y-66726000D01*
X79286560Y-69926000D01*
X79335843Y-70173765D01*
X79476191Y-70383809D01*
X79686235Y-70524157D01*
X79934000Y-70573440D01*
X83134000Y-70573440D01*
X83381765Y-70524157D01*
X83591809Y-70383809D01*
X83732157Y-70173765D01*
X83781440Y-69926000D01*
X83781440Y-68800503D01*
X94589950Y-68800503D01*
X94894114Y-69534836D01*
X95499813Y-70162220D01*
X96299496Y-70510056D01*
X96647000Y-70398645D01*
X96647000Y-68453000D01*
X96901000Y-68453000D01*
X96901000Y-70398645D01*
X97248504Y-70510056D01*
X98048187Y-70162220D01*
X98653886Y-69534836D01*
X98958050Y-68800503D01*
X98846362Y-68453000D01*
X96901000Y-68453000D01*
X96647000Y-68453000D01*
X94701638Y-68453000D01*
X94589950Y-68800503D01*
X83781440Y-68800503D01*
X83781440Y-67851497D01*
X94589950Y-67851497D01*
X94701638Y-68199000D01*
X96647000Y-68199000D01*
X96647000Y-66253355D01*
X96901000Y-66253355D01*
X96901000Y-68199000D01*
X98846362Y-68199000D01*
X98958050Y-67851497D01*
X98653886Y-67117164D01*
X98048187Y-66489780D01*
X97248504Y-66141944D01*
X96901000Y-66253355D01*
X96647000Y-66253355D01*
X96299496Y-66141944D01*
X95499813Y-66489780D01*
X94894114Y-67117164D01*
X94589950Y-67851497D01*
X83781440Y-67851497D01*
X83781440Y-66726000D01*
X83732157Y-66478235D01*
X83591809Y-66268191D01*
X83381765Y-66127843D01*
X83134000Y-66078560D01*
X82294000Y-66078560D01*
X82294000Y-60004801D01*
X82746801Y-59552000D01*
X85828560Y-59552000D01*
X85828560Y-61352000D01*
X85877843Y-61599765D01*
X86018191Y-61809809D01*
X86228235Y-61950157D01*
X86476000Y-61999440D01*
X88276000Y-61999440D01*
X88523765Y-61950157D01*
X88733809Y-61809809D01*
X88874157Y-61599765D01*
X88923440Y-61352000D01*
X88923440Y-60816740D01*
X89284964Y-60816740D01*
X89463760Y-61248417D01*
X89868424Y-61689966D01*
X90411258Y-61943046D01*
X90649000Y-61822997D01*
X90649000Y-60579000D01*
X90903000Y-60579000D01*
X90903000Y-61822997D01*
X91140742Y-61943046D01*
X91683576Y-61689966D01*
X92088240Y-61248417D01*
X92267036Y-60816740D01*
X92684964Y-60816740D01*
X92863760Y-61248417D01*
X93268424Y-61689966D01*
X93811258Y-61943046D01*
X94049000Y-61822997D01*
X94049000Y-60579000D01*
X94303000Y-60579000D01*
X94303000Y-61822997D01*
X94540742Y-61943046D01*
X95083576Y-61689966D01*
X95488240Y-61248417D01*
X95667036Y-60816740D01*
X95546378Y-60579000D01*
X94303000Y-60579000D01*
X94049000Y-60579000D01*
X92805622Y-60579000D01*
X92684964Y-60816740D01*
X92267036Y-60816740D01*
X92146378Y-60579000D01*
X90903000Y-60579000D01*
X90649000Y-60579000D01*
X89405622Y-60579000D01*
X89284964Y-60816740D01*
X88923440Y-60816740D01*
X88923440Y-60087260D01*
X89284964Y-60087260D01*
X89405622Y-60325000D01*
X90649000Y-60325000D01*
X90649000Y-59081003D01*
X90903000Y-59081003D01*
X90903000Y-60325000D01*
X92146378Y-60325000D01*
X92267036Y-60087260D01*
X92684964Y-60087260D01*
X92805622Y-60325000D01*
X94049000Y-60325000D01*
X94049000Y-59081003D01*
X94303000Y-59081003D01*
X94303000Y-60325000D01*
X95546378Y-60325000D01*
X95667036Y-60087260D01*
X95488240Y-59655583D01*
X95418051Y-59578996D01*
X101797000Y-59578996D01*
X101797000Y-60309004D01*
X102076362Y-60983444D01*
X102592556Y-61499638D01*
X103266996Y-61779000D01*
X103997004Y-61779000D01*
X104671444Y-61499638D01*
X105187638Y-60983444D01*
X105467000Y-60309004D01*
X105467000Y-59578996D01*
X105187638Y-58904556D01*
X104671444Y-58388362D01*
X103997004Y-58109000D01*
X103266996Y-58109000D01*
X102592556Y-58388362D01*
X102076362Y-58904556D01*
X101797000Y-59578996D01*
X95418051Y-59578996D01*
X95083576Y-59214034D01*
X94540742Y-58960954D01*
X94303000Y-59081003D01*
X94049000Y-59081003D01*
X93811258Y-58960954D01*
X93268424Y-59214034D01*
X92863760Y-59655583D01*
X92684964Y-60087260D01*
X92267036Y-60087260D01*
X92088240Y-59655583D01*
X91683576Y-59214034D01*
X91140742Y-58960954D01*
X90903000Y-59081003D01*
X90649000Y-59081003D01*
X90411258Y-58960954D01*
X89868424Y-59214034D01*
X89463760Y-59655583D01*
X89284964Y-60087260D01*
X88923440Y-60087260D01*
X88923440Y-59552000D01*
X88874157Y-59304235D01*
X88733809Y-59094191D01*
X88523765Y-58953843D01*
X88276000Y-58904560D01*
X86476000Y-58904560D01*
X86228235Y-58953843D01*
X86018191Y-59094191D01*
X85877843Y-59304235D01*
X85828560Y-59552000D01*
X82746801Y-59552000D01*
X86166802Y-56132000D01*
X87180289Y-56132000D01*
X87297720Y-56249431D01*
X87587056Y-56369278D01*
X87510928Y-56752000D01*
X87630062Y-57350927D01*
X87969327Y-57858673D01*
X88477073Y-58197938D01*
X88924818Y-58287000D01*
X89227182Y-58287000D01*
X89674927Y-58197938D01*
X90182673Y-57858673D01*
X90521938Y-57350927D01*
X90641072Y-56752000D01*
X90521938Y-56153073D01*
X90182673Y-55645327D01*
X89674927Y-55306062D01*
X89227182Y-55217000D01*
X88924818Y-55217000D01*
X88919000Y-55218157D01*
X88919000Y-55166126D01*
X88761431Y-54785720D01*
X88470280Y-54494569D01*
X88089874Y-54337000D01*
X87678126Y-54337000D01*
X87297720Y-54494569D01*
X87180289Y-54612000D01*
X85926846Y-54612000D01*
X85851999Y-54597112D01*
X85777152Y-54612000D01*
X85777148Y-54612000D01*
X85555463Y-54656096D01*
X85304071Y-54824071D01*
X85261671Y-54887527D01*
X81049528Y-59099671D01*
X80986072Y-59142071D01*
X80943672Y-59205527D01*
X80943671Y-59205528D01*
X80908835Y-59257664D01*
X80818097Y-59393463D01*
X80786135Y-59554149D01*
X80759112Y-59690000D01*
X80774001Y-59764852D01*
X80774000Y-66078560D01*
X79934000Y-66078560D01*
X79686235Y-66127843D01*
X79476191Y-66268191D01*
X79335843Y-66478235D01*
X79286560Y-66726000D01*
X53730802Y-66726000D01*
X54840473Y-65616329D01*
X54903929Y-65573929D01*
X55071904Y-65322537D01*
X55116000Y-65100852D01*
X55116000Y-65100848D01*
X55130888Y-65026001D01*
X55116000Y-64951154D01*
X55116000Y-63517250D01*
X55179000Y-63454250D01*
X55179000Y-63270898D01*
X55209157Y-63225765D01*
X55258440Y-62978000D01*
X55258440Y-62755000D01*
X55433000Y-62755000D01*
X55433000Y-63454250D01*
X55591750Y-63613000D01*
X55687310Y-63613000D01*
X55920699Y-63516327D01*
X56099327Y-63337698D01*
X56196000Y-63104309D01*
X56196000Y-62913750D01*
X56037250Y-62755000D01*
X55433000Y-62755000D01*
X55258440Y-62755000D01*
X55258440Y-62481000D01*
X55433000Y-62481000D01*
X55433000Y-62501000D01*
X56037250Y-62501000D01*
X56196000Y-62342250D01*
X56196000Y-62151691D01*
X56122398Y-61974000D01*
X58884199Y-61974000D01*
X59615560Y-62705362D01*
X59615560Y-62978000D01*
X59664843Y-63225765D01*
X59805191Y-63435809D01*
X60015235Y-63576157D01*
X60263000Y-63625440D01*
X60506186Y-63625440D01*
X60433000Y-63802126D01*
X60433000Y-64213874D01*
X60590569Y-64594280D01*
X60881720Y-64885431D01*
X61262126Y-65043000D01*
X61673874Y-65043000D01*
X62054280Y-64885431D01*
X62345431Y-64594280D01*
X62503000Y-64213874D01*
X62503000Y-63802126D01*
X62424662Y-63613000D01*
X62545002Y-63613000D01*
X62545002Y-63454252D01*
X62703750Y-63613000D01*
X62799310Y-63613000D01*
X63032699Y-63516327D01*
X63211327Y-63337698D01*
X63308000Y-63104309D01*
X63308000Y-62913750D01*
X63149250Y-62755000D01*
X62545000Y-62755000D01*
X62545000Y-62775000D01*
X62370440Y-62775000D01*
X62370440Y-62278000D01*
X62321157Y-62030235D01*
X62291000Y-61985102D01*
X62291000Y-61801750D01*
X62545000Y-61801750D01*
X62545000Y-62501000D01*
X63149250Y-62501000D01*
X63308000Y-62342250D01*
X63308000Y-62151691D01*
X63211327Y-61918302D01*
X63032699Y-61739673D01*
X62799310Y-61643000D01*
X62703750Y-61643000D01*
X62545000Y-61801750D01*
X62291000Y-61801750D01*
X62132250Y-61643000D01*
X62036690Y-61643000D01*
X61955212Y-61676749D01*
X61723000Y-61630560D01*
X61213000Y-61630560D01*
X60993000Y-61674320D01*
X60773000Y-61630560D01*
X60690362Y-61630560D01*
X60365241Y-61305440D01*
X60773000Y-61305440D01*
X61020765Y-61256157D01*
X61230809Y-61115809D01*
X61371157Y-60905765D01*
X61420440Y-60658000D01*
X61420440Y-59958000D01*
X61515560Y-59958000D01*
X61515560Y-60658000D01*
X61564843Y-60905765D01*
X61705191Y-61115809D01*
X61915235Y-61256157D01*
X62163000Y-61305440D01*
X62673000Y-61305440D01*
X62920765Y-61256157D01*
X63130809Y-61115809D01*
X63271157Y-60905765D01*
X63320440Y-60658000D01*
X63320440Y-60421211D01*
X63326904Y-60411537D01*
X63371000Y-60189852D01*
X63371000Y-60189848D01*
X63385888Y-60115001D01*
X63371000Y-60040154D01*
X63371000Y-59377711D01*
X63488431Y-59260280D01*
X63646000Y-58879874D01*
X63646000Y-58879745D01*
X78165861Y-58879745D01*
X78239995Y-59125864D01*
X78777223Y-59318965D01*
X79347454Y-59291778D01*
X79748005Y-59125864D01*
X79822139Y-58879745D01*
X78994000Y-58051605D01*
X78165861Y-58879745D01*
X63646000Y-58879745D01*
X63646000Y-58468126D01*
X63488431Y-58087720D01*
X63197280Y-57796569D01*
X62856040Y-57655223D01*
X77547035Y-57655223D01*
X77574222Y-58225454D01*
X77740136Y-58626005D01*
X77986255Y-58700139D01*
X78814395Y-57872000D01*
X79173605Y-57872000D01*
X80001745Y-58700139D01*
X80247864Y-58626005D01*
X80440965Y-58088777D01*
X80413778Y-57518546D01*
X80247864Y-57117995D01*
X80001745Y-57043861D01*
X79173605Y-57872000D01*
X78814395Y-57872000D01*
X77986255Y-57043861D01*
X77740136Y-57117995D01*
X77547035Y-57655223D01*
X62856040Y-57655223D01*
X62816874Y-57639000D01*
X62405126Y-57639000D01*
X62024720Y-57796569D01*
X61733569Y-58087720D01*
X61576000Y-58468126D01*
X61576000Y-58879874D01*
X61733569Y-59260280D01*
X61851000Y-59377711D01*
X61851001Y-59402763D01*
X61705191Y-59500191D01*
X61564843Y-59710235D01*
X61515560Y-59958000D01*
X61420440Y-59958000D01*
X61371157Y-59710235D01*
X61282720Y-59577881D01*
X61278000Y-59554152D01*
X61278000Y-59554148D01*
X61233904Y-59332463D01*
X61149096Y-59205539D01*
X61108329Y-59144526D01*
X61108327Y-59144524D01*
X61065929Y-59081071D01*
X61002476Y-59038673D01*
X60388332Y-58424530D01*
X60345930Y-58361072D01*
X60094538Y-58193097D01*
X59872853Y-58149001D01*
X59872848Y-58149001D01*
X59798001Y-58134113D01*
X59723154Y-58149001D01*
X58640845Y-58149001D01*
X58565998Y-58134113D01*
X58491151Y-58149001D01*
X58491147Y-58149001D01*
X58269462Y-58193097D01*
X58166000Y-58262228D01*
X58062538Y-58193097D01*
X57840853Y-58149001D01*
X57840848Y-58149001D01*
X57766001Y-58134113D01*
X57691154Y-58149001D01*
X54068845Y-58149001D01*
X53993998Y-58134113D01*
X53919151Y-58149001D01*
X53919147Y-58149001D01*
X53697462Y-58193097D01*
X53446070Y-58361072D01*
X53403670Y-58424528D01*
X52921530Y-58906669D01*
X52858071Y-58949071D01*
X52690096Y-59200464D01*
X52646000Y-59422149D01*
X52646000Y-59422153D01*
X52631112Y-59497000D01*
X52645842Y-59571053D01*
X52552843Y-59710235D01*
X52503560Y-59958000D01*
X52503560Y-60658000D01*
X52552843Y-60905765D01*
X52693191Y-61115809D01*
X52903235Y-61256157D01*
X53151000Y-61305440D01*
X53661000Y-61305440D01*
X53908765Y-61256157D01*
X54118809Y-61115809D01*
X54259157Y-60905765D01*
X54308440Y-60658000D01*
X54308440Y-59958000D01*
X54260552Y-59717249D01*
X54308801Y-59669001D01*
X54480395Y-59669001D01*
X54452843Y-59710235D01*
X54403560Y-59958000D01*
X54403560Y-60658000D01*
X54452843Y-60905765D01*
X54563654Y-61071604D01*
X54590096Y-61204537D01*
X54758072Y-61455929D01*
X54821527Y-61498328D01*
X54966198Y-61643000D01*
X54924690Y-61643000D01*
X54843212Y-61676749D01*
X54611000Y-61630560D01*
X54101000Y-61630560D01*
X53881000Y-61674320D01*
X53661000Y-61630560D01*
X53151000Y-61630560D01*
X52903235Y-61679843D01*
X52693191Y-61820191D01*
X52552843Y-62030235D01*
X52503560Y-62278000D01*
X52503560Y-62514790D01*
X52497097Y-62524463D01*
X52438112Y-62821000D01*
X52453001Y-62895851D01*
X52453000Y-63558289D01*
X52335569Y-63675720D01*
X52178000Y-64056126D01*
X52178000Y-64467874D01*
X52335569Y-64848280D01*
X52626720Y-65139431D01*
X53007126Y-65297000D01*
X53010198Y-65297000D01*
X46549199Y-71758000D01*
X46166553Y-71758000D01*
X45879571Y-71471018D01*
X45846325Y-71457247D01*
X45863130Y-71380735D01*
X45180000Y-70697605D01*
X44496870Y-71380735D01*
X44513675Y-71457247D01*
X44480429Y-71471018D01*
X44180000Y-71771447D01*
X43926553Y-71518000D01*
X44226982Y-71217571D01*
X44240753Y-71184325D01*
X44317265Y-71201130D01*
X45000395Y-70518000D01*
X45359605Y-70518000D01*
X46042735Y-71201130D01*
X46268164Y-71151617D01*
X46427807Y-70686964D01*
X46397482Y-70196587D01*
X46268164Y-69884383D01*
X46042735Y-69834870D01*
X45359605Y-70518000D01*
X45000395Y-70518000D01*
X44317265Y-69834870D01*
X44240753Y-69851675D01*
X44226982Y-69818429D01*
X43879571Y-69471018D01*
X43846325Y-69457247D01*
X43863130Y-69380735D01*
X44496870Y-69380735D01*
X44527019Y-69518000D01*
X44496870Y-69655265D01*
X45180000Y-70338395D01*
X45863130Y-69655265D01*
X45832981Y-69518000D01*
X45863130Y-69380735D01*
X45180000Y-68697605D01*
X44496870Y-69380735D01*
X43863130Y-69380735D01*
X43180000Y-68697605D01*
X42496870Y-69380735D01*
X42513675Y-69457247D01*
X42480429Y-69471018D01*
X42133018Y-69818429D01*
X41945000Y-70272343D01*
X41945000Y-70763657D01*
X42133018Y-71217571D01*
X42433447Y-71518000D01*
X42133018Y-71818429D01*
X41945000Y-72272343D01*
X41945000Y-72763657D01*
X42133018Y-73217571D01*
X42433447Y-73518000D01*
X42133018Y-73818429D01*
X41945000Y-74272343D01*
X41945000Y-74763657D01*
X42133018Y-75217571D01*
X42433447Y-75518000D01*
X42133018Y-75818429D01*
X41945000Y-76272343D01*
X41945000Y-76604600D01*
X41925672Y-76633526D01*
X40663530Y-77895669D01*
X40600071Y-77938071D01*
X40432096Y-78189464D01*
X40388000Y-78411149D01*
X40388000Y-78411153D01*
X40373112Y-78486000D01*
X40388000Y-78560847D01*
X40388001Y-80957288D01*
X40270569Y-81074720D01*
X40113000Y-81455126D01*
X38227000Y-81455126D01*
X38227000Y-68349036D01*
X41932193Y-68349036D01*
X41962518Y-68839413D01*
X42091836Y-69151617D01*
X42317265Y-69201130D01*
X43000395Y-68518000D01*
X43359605Y-68518000D01*
X44042735Y-69201130D01*
X44180000Y-69170981D01*
X44317265Y-69201130D01*
X45000395Y-68518000D01*
X45359605Y-68518000D01*
X46042735Y-69201130D01*
X46268164Y-69151617D01*
X46427807Y-68686964D01*
X46397482Y-68196587D01*
X46268164Y-67884383D01*
X46042735Y-67834870D01*
X45359605Y-68518000D01*
X45000395Y-68518000D01*
X44317265Y-67834870D01*
X44180000Y-67865019D01*
X44042735Y-67834870D01*
X43359605Y-68518000D01*
X43000395Y-68518000D01*
X42317265Y-67834870D01*
X42091836Y-67884383D01*
X41932193Y-68349036D01*
X38227000Y-68349036D01*
X38227000Y-67655265D01*
X42496870Y-67655265D01*
X43180000Y-68338395D01*
X43863130Y-67655265D01*
X44496870Y-67655265D01*
X45180000Y-68338395D01*
X45863130Y-67655265D01*
X45813617Y-67429836D01*
X45348964Y-67270193D01*
X44858587Y-67300518D01*
X44546383Y-67429836D01*
X44496870Y-67655265D01*
X43863130Y-67655265D01*
X43813617Y-67429836D01*
X43348964Y-67270193D01*
X42858587Y-67300518D01*
X42546383Y-67429836D01*
X42496870Y-67655265D01*
X38227000Y-67655265D01*
X38227000Y-62611000D01*
X42672000Y-62611000D01*
X42720601Y-62601333D01*
X42761803Y-62573803D01*
X50763606Y-54572000D01*
X77546560Y-54572000D01*
X77546560Y-56172000D01*
X77595843Y-56419765D01*
X77736191Y-56629809D01*
X77946235Y-56770157D01*
X78180187Y-56816693D01*
X78165861Y-56864255D01*
X78994000Y-57692395D01*
X79822139Y-56864255D01*
X79807813Y-56816693D01*
X80041765Y-56770157D01*
X80251809Y-56629809D01*
X80392157Y-56419765D01*
X80441440Y-56172000D01*
X80441440Y-54572000D01*
X80392157Y-54324235D01*
X80251809Y-54114191D01*
X80041765Y-53973843D01*
X79794000Y-53924560D01*
X78194000Y-53924560D01*
X77946235Y-53973843D01*
X77736191Y-54114191D01*
X77595843Y-54324235D01*
X77546560Y-54572000D01*
X50763606Y-54572000D01*
X51868606Y-53467000D01*
X102513918Y-53467000D01*
X102076362Y-53904556D01*
G04 #@! TD*
M02*
