G04 #@! TF.GenerationSoftware,KiCad,Pcbnew,5.0.2-bee76a0~70~ubuntu18.04.1*
G04 #@! TF.CreationDate,2019-01-20T23:04:17+00:00*
G04 #@! TF.ProjectId,Lcr_addon,4c63725f-6164-4646-9f6e-2e6b69636164,rev?*
G04 #@! TF.SameCoordinates,Original*
G04 #@! TF.FileFunction,Copper,L1,Top*
G04 #@! TF.FilePolarity,Positive*
%FSLAX46Y46*%
G04 Gerber Fmt 4.6, Leading zero omitted, Abs format (unit mm)*
G04 Created by KiCad (PCBNEW 5.0.2-bee76a0~70~ubuntu18.04.1) date Sun 20 Jan 2019 23:04:17 GMT*
%MOMM*%
%LPD*%
G01*
G04 APERTURE LIST*
G04 #@! TA.AperFunction,ComponentPad*
%ADD10R,1.800000X1.800000*%
G04 #@! TD*
G04 #@! TA.AperFunction,ComponentPad*
%ADD11O,1.800000X1.800000*%
G04 #@! TD*
G04 #@! TA.AperFunction,SMDPad,CuDef*
%ADD12R,0.510000X0.700000*%
G04 #@! TD*
G04 #@! TA.AperFunction,ComponentPad*
%ADD13C,1.600000*%
G04 #@! TD*
G04 #@! TA.AperFunction,ComponentPad*
%ADD14R,1.600000X1.600000*%
G04 #@! TD*
G04 #@! TA.AperFunction,ComponentPad*
%ADD15R,3.200000X3.200000*%
G04 #@! TD*
G04 #@! TA.AperFunction,ComponentPad*
%ADD16O,3.200000X3.200000*%
G04 #@! TD*
G04 #@! TA.AperFunction,ComponentPad*
%ADD17R,3.500000X3.500000*%
G04 #@! TD*
G04 #@! TA.AperFunction,Conductor*
%ADD18C,0.100000*%
G04 #@! TD*
G04 #@! TA.AperFunction,ComponentPad*
%ADD19C,3.000000*%
G04 #@! TD*
G04 #@! TA.AperFunction,ComponentPad*
%ADD20C,3.500000*%
G04 #@! TD*
G04 #@! TA.AperFunction,ComponentPad*
%ADD21C,1.200000*%
G04 #@! TD*
G04 #@! TA.AperFunction,ComponentPad*
%ADD22R,1.700000X1.700000*%
G04 #@! TD*
G04 #@! TA.AperFunction,ComponentPad*
%ADD23O,1.700000X1.700000*%
G04 #@! TD*
G04 #@! TA.AperFunction,ComponentPad*
%ADD24O,1.600000X2.500000*%
G04 #@! TD*
G04 #@! TA.AperFunction,ComponentPad*
%ADD25O,3.500000X7.000000*%
G04 #@! TD*
G04 #@! TA.AperFunction,ComponentPad*
%ADD26C,2.400000*%
G04 #@! TD*
G04 #@! TA.AperFunction,ViaPad*
%ADD27C,0.800000*%
G04 #@! TD*
G04 #@! TA.AperFunction,Conductor*
%ADD28C,0.250000*%
G04 #@! TD*
G04 #@! TA.AperFunction,Conductor*
%ADD29C,0.254000*%
G04 #@! TD*
G04 APERTURE END LIST*
D10*
G04 #@! TO.P,U4,1*
G04 #@! TO.N,Net-(C1-Pad1)*
X87376000Y-60452000D03*
D11*
G04 #@! TO.P,U4,2*
G04 #@! TO.N,Net-(D1-Pad1)*
X89076000Y-56752000D03*
G04 #@! TO.P,U4,3*
G04 #@! TO.N,GND*
X90776000Y-60452000D03*
G04 #@! TO.P,U4,4*
G04 #@! TO.N,VCC*
X92476000Y-56752000D03*
G04 #@! TO.P,U4,5*
G04 #@! TO.N,GND*
X94176000Y-60452000D03*
G04 #@! TD*
D12*
G04 #@! TO.P,U6,1*
G04 #@! TO.N,Net-(U2-Pad4)*
X60518000Y-77868000D03*
G04 #@! TO.P,U6,2*
G04 #@! TO.N,Net-(J8-Pad2)*
X61468000Y-77868000D03*
G04 #@! TO.P,U6,3*
G04 #@! TO.N,GND*
X62418000Y-77868000D03*
G04 #@! TO.P,U6,4*
G04 #@! TO.N,Net-(J5-Pad1)*
X62418000Y-75548000D03*
G04 #@! TO.P,U6,5*
G04 #@! TO.N,VCC*
X60518000Y-75548000D03*
G04 #@! TD*
D13*
G04 #@! TO.P,C1,2*
G04 #@! TO.N,GND*
X78994000Y-57872000D03*
D14*
G04 #@! TO.P,C1,1*
G04 #@! TO.N,Net-(C1-Pad1)*
X78994000Y-55372000D03*
G04 #@! TD*
G04 #@! TO.P,C2,1*
G04 #@! TO.N,VCC*
X105410000Y-73406000D03*
D13*
G04 #@! TO.P,C2,2*
G04 #@! TO.N,GND*
X102910000Y-73406000D03*
G04 #@! TD*
D15*
G04 #@! TO.P,D1,1*
G04 #@! TO.N,Net-(D1-Pad1)*
X81534000Y-68326000D03*
D16*
G04 #@! TO.P,D1,2*
G04 #@! TO.N,GND*
X96774000Y-68326000D03*
G04 #@! TD*
D17*
G04 #@! TO.P,J1,1*
G04 #@! TO.N,+12V*
X111760000Y-69596000D03*
D18*
G04 #@! TD*
G04 #@! TO.N,GND*
G04 #@! TO.C,J1*
G36*
X118583513Y-67849611D02*
X118656318Y-67860411D01*
X118727714Y-67878295D01*
X118797013Y-67903090D01*
X118863548Y-67934559D01*
X118926678Y-67972398D01*
X118985795Y-68016242D01*
X119040330Y-68065670D01*
X119089758Y-68120205D01*
X119133602Y-68179322D01*
X119171441Y-68242452D01*
X119202910Y-68308987D01*
X119227705Y-68378286D01*
X119245589Y-68449682D01*
X119256389Y-68522487D01*
X119260000Y-68596000D01*
X119260000Y-70596000D01*
X119256389Y-70669513D01*
X119245589Y-70742318D01*
X119227705Y-70813714D01*
X119202910Y-70883013D01*
X119171441Y-70949548D01*
X119133602Y-71012678D01*
X119089758Y-71071795D01*
X119040330Y-71126330D01*
X118985795Y-71175758D01*
X118926678Y-71219602D01*
X118863548Y-71257441D01*
X118797013Y-71288910D01*
X118727714Y-71313705D01*
X118656318Y-71331589D01*
X118583513Y-71342389D01*
X118510000Y-71346000D01*
X117010000Y-71346000D01*
X116936487Y-71342389D01*
X116863682Y-71331589D01*
X116792286Y-71313705D01*
X116722987Y-71288910D01*
X116656452Y-71257441D01*
X116593322Y-71219602D01*
X116534205Y-71175758D01*
X116479670Y-71126330D01*
X116430242Y-71071795D01*
X116386398Y-71012678D01*
X116348559Y-70949548D01*
X116317090Y-70883013D01*
X116292295Y-70813714D01*
X116274411Y-70742318D01*
X116263611Y-70669513D01*
X116260000Y-70596000D01*
X116260000Y-68596000D01*
X116263611Y-68522487D01*
X116274411Y-68449682D01*
X116292295Y-68378286D01*
X116317090Y-68308987D01*
X116348559Y-68242452D01*
X116386398Y-68179322D01*
X116430242Y-68120205D01*
X116479670Y-68065670D01*
X116534205Y-68016242D01*
X116593322Y-67972398D01*
X116656452Y-67934559D01*
X116722987Y-67903090D01*
X116792286Y-67878295D01*
X116863682Y-67860411D01*
X116936487Y-67849611D01*
X117010000Y-67846000D01*
X118510000Y-67846000D01*
X118583513Y-67849611D01*
X118583513Y-67849611D01*
G37*
D19*
G04 #@! TO.P,J1,2*
G04 #@! TO.N,GND*
X117760000Y-69596000D03*
D18*
G04 #@! TD*
G04 #@! TO.N,N/C*
G04 #@! TO.C,J1*
G36*
X115720765Y-63150213D02*
X115805704Y-63162813D01*
X115888999Y-63183677D01*
X115969848Y-63212605D01*
X116047472Y-63249319D01*
X116121124Y-63293464D01*
X116190094Y-63344616D01*
X116253718Y-63402282D01*
X116311384Y-63465906D01*
X116362536Y-63534876D01*
X116406681Y-63608528D01*
X116443395Y-63686152D01*
X116472323Y-63767001D01*
X116493187Y-63850296D01*
X116505787Y-63935235D01*
X116510000Y-64021000D01*
X116510000Y-65771000D01*
X116505787Y-65856765D01*
X116493187Y-65941704D01*
X116472323Y-66024999D01*
X116443395Y-66105848D01*
X116406681Y-66183472D01*
X116362536Y-66257124D01*
X116311384Y-66326094D01*
X116253718Y-66389718D01*
X116190094Y-66447384D01*
X116121124Y-66498536D01*
X116047472Y-66542681D01*
X115969848Y-66579395D01*
X115888999Y-66608323D01*
X115805704Y-66629187D01*
X115720765Y-66641787D01*
X115635000Y-66646000D01*
X113885000Y-66646000D01*
X113799235Y-66641787D01*
X113714296Y-66629187D01*
X113631001Y-66608323D01*
X113550152Y-66579395D01*
X113472528Y-66542681D01*
X113398876Y-66498536D01*
X113329906Y-66447384D01*
X113266282Y-66389718D01*
X113208616Y-66326094D01*
X113157464Y-66257124D01*
X113113319Y-66183472D01*
X113076605Y-66105848D01*
X113047677Y-66024999D01*
X113026813Y-65941704D01*
X113014213Y-65856765D01*
X113010000Y-65771000D01*
X113010000Y-64021000D01*
X113014213Y-63935235D01*
X113026813Y-63850296D01*
X113047677Y-63767001D01*
X113076605Y-63686152D01*
X113113319Y-63608528D01*
X113157464Y-63534876D01*
X113208616Y-63465906D01*
X113266282Y-63402282D01*
X113329906Y-63344616D01*
X113398876Y-63293464D01*
X113472528Y-63249319D01*
X113550152Y-63212605D01*
X113631001Y-63183677D01*
X113714296Y-63162813D01*
X113799235Y-63150213D01*
X113885000Y-63146000D01*
X115635000Y-63146000D01*
X115720765Y-63150213D01*
X115720765Y-63150213D01*
G37*
D20*
G04 #@! TO.P,J1,3*
G04 #@! TO.N,N/C*
X114760000Y-64896000D03*
G04 #@! TD*
D18*
G04 #@! TO.N,Net-(J2-Pad1)*
G04 #@! TO.C,J2*
G36*
X43554505Y-79919204D02*
X43578773Y-79922804D01*
X43602572Y-79928765D01*
X43625671Y-79937030D01*
X43647850Y-79947520D01*
X43668893Y-79960132D01*
X43688599Y-79974747D01*
X43706777Y-79991223D01*
X43723253Y-80009401D01*
X43737868Y-80029107D01*
X43750480Y-80050150D01*
X43760970Y-80072329D01*
X43769235Y-80095428D01*
X43775196Y-80119227D01*
X43778796Y-80143495D01*
X43780000Y-80167999D01*
X43780000Y-80868001D01*
X43778796Y-80892505D01*
X43775196Y-80916773D01*
X43769235Y-80940572D01*
X43760970Y-80963671D01*
X43750480Y-80985850D01*
X43737868Y-81006893D01*
X43723253Y-81026599D01*
X43706777Y-81044777D01*
X43688599Y-81061253D01*
X43668893Y-81075868D01*
X43647850Y-81088480D01*
X43625671Y-81098970D01*
X43602572Y-81107235D01*
X43578773Y-81113196D01*
X43554505Y-81116796D01*
X43530001Y-81118000D01*
X42829999Y-81118000D01*
X42805495Y-81116796D01*
X42781227Y-81113196D01*
X42757428Y-81107235D01*
X42734329Y-81098970D01*
X42712150Y-81088480D01*
X42691107Y-81075868D01*
X42671401Y-81061253D01*
X42653223Y-81044777D01*
X42636747Y-81026599D01*
X42622132Y-81006893D01*
X42609520Y-80985850D01*
X42599030Y-80963671D01*
X42590765Y-80940572D01*
X42584804Y-80916773D01*
X42581204Y-80892505D01*
X42580000Y-80868001D01*
X42580000Y-80167999D01*
X42581204Y-80143495D01*
X42584804Y-80119227D01*
X42590765Y-80095428D01*
X42599030Y-80072329D01*
X42609520Y-80050150D01*
X42622132Y-80029107D01*
X42636747Y-80009401D01*
X42653223Y-79991223D01*
X42671401Y-79974747D01*
X42691107Y-79960132D01*
X42712150Y-79947520D01*
X42734329Y-79937030D01*
X42757428Y-79928765D01*
X42781227Y-79922804D01*
X42805495Y-79919204D01*
X42829999Y-79918000D01*
X43530001Y-79918000D01*
X43554505Y-79919204D01*
X43554505Y-79919204D01*
G37*
D21*
G04 #@! TD*
G04 #@! TO.P,J2,1*
G04 #@! TO.N,Net-(J2-Pad1)*
X43180000Y-80518000D03*
G04 #@! TO.P,J2,3*
G04 #@! TO.N,Net-(J2-Pad3)*
X43180000Y-78518000D03*
G04 #@! TO.P,J2,5*
G04 #@! TO.N,Net-(J2-Pad5)*
X43180000Y-76518000D03*
G04 #@! TO.P,J2,7*
G04 #@! TO.N,Net-(J2-Pad7)*
X43180000Y-74518000D03*
G04 #@! TO.P,J2,9*
G04 #@! TO.N,Net-(J2-Pad9)*
X43180000Y-72518000D03*
G04 #@! TO.P,J2,11*
G04 #@! TO.N,Net-(J2-Pad11)*
X43180000Y-70518000D03*
G04 #@! TO.P,J2,13*
G04 #@! TO.N,GND*
X43180000Y-68518000D03*
G04 #@! TO.P,J2,2*
G04 #@! TO.N,Net-(J2-Pad2)*
X45180000Y-80518000D03*
G04 #@! TO.P,J2,4*
G04 #@! TO.N,Net-(J2-Pad4)*
X45180000Y-78518000D03*
G04 #@! TO.P,J2,6*
G04 #@! TO.N,Net-(J2-Pad6)*
X45180000Y-76518000D03*
G04 #@! TO.P,J2,8*
G04 #@! TO.N,Net-(J2-Pad8)*
X45180000Y-74518000D03*
G04 #@! TO.P,J2,10*
G04 #@! TO.N,Net-(J2-Pad10)*
X45180000Y-72518000D03*
G04 #@! TO.P,J2,12*
G04 #@! TO.N,GND*
X45180000Y-70518000D03*
G04 #@! TO.P,J2,14*
X45180000Y-68518000D03*
G04 #@! TD*
D22*
G04 #@! TO.P,J3,1*
G04 #@! TO.N,+12V*
X69088000Y-59944000D03*
D23*
G04 #@! TO.P,J3,2*
G04 #@! TO.N,Net-(C1-Pad1)*
X69088000Y-57404000D03*
G04 #@! TO.P,J3,3*
G04 #@! TO.N,Net-(J2-Pad1)*
X69088000Y-54864000D03*
G04 #@! TD*
D24*
G04 #@! TO.P,J4,2*
G04 #@! TO.N,GND*
X106172000Y-98552000D03*
G04 #@! TO.P,J4,1*
G04 #@! TO.N,Net-(J4-Pad1)*
X103632000Y-98552000D03*
D25*
G04 #@! TO.P,J4,2*
G04 #@! TO.N,GND*
X98552000Y-103632000D03*
X108712000Y-103632000D03*
G04 #@! TD*
D24*
G04 #@! TO.P,J5,2*
G04 #@! TO.N,GND*
X69596000Y-98552000D03*
G04 #@! TO.P,J5,1*
G04 #@! TO.N,Net-(J5-Pad1)*
X67056000Y-98552000D03*
D25*
G04 #@! TO.P,J5,2*
G04 #@! TO.N,GND*
X61976000Y-103632000D03*
X72136000Y-103632000D03*
G04 #@! TD*
G04 #@! TO.P,J6,2*
G04 #@! TO.N,GND*
X88900000Y-103632000D03*
X78740000Y-103632000D03*
D24*
G04 #@! TO.P,J6,1*
G04 #@! TO.N,Net-(J6-Pad1)*
X83820000Y-98552000D03*
G04 #@! TO.P,J6,2*
G04 #@! TO.N,GND*
X86360000Y-98552000D03*
G04 #@! TD*
D25*
G04 #@! TO.P,J7,2*
G04 #@! TO.N,GND*
X55372000Y-103632000D03*
X45212000Y-103632000D03*
D24*
G04 #@! TO.P,J7,1*
G04 #@! TO.N,Net-(J7-Pad1)*
X50292000Y-98552000D03*
G04 #@! TO.P,J7,2*
G04 #@! TO.N,GND*
X52832000Y-98552000D03*
G04 #@! TD*
D26*
G04 #@! TO.P,L1,1*
G04 #@! TO.N,Net-(D1-Pad1)*
X103632000Y-59944000D03*
G04 #@! TO.P,L1,2*
G04 #@! TO.N,VCC*
X103632000Y-54944000D03*
G04 #@! TD*
D12*
G04 #@! TO.P,U1,1*
G04 #@! TO.N,Net-(J2-Pad5)*
X53152000Y-87774000D03*
G04 #@! TO.P,U1,2*
G04 #@! TO.N,Net-(J2-Pad8)*
X54102000Y-87774000D03*
G04 #@! TO.P,U1,3*
G04 #@! TO.N,GND*
X55052000Y-87774000D03*
G04 #@! TO.P,U1,4*
G04 #@! TO.N,Net-(U1-Pad4)*
X55052000Y-85454000D03*
G04 #@! TO.P,U1,5*
G04 #@! TO.N,VCC*
X53152000Y-85454000D03*
G04 #@! TD*
G04 #@! TO.P,U2,5*
G04 #@! TO.N,VCC*
X53152000Y-75548000D03*
G04 #@! TO.P,U2,4*
G04 #@! TO.N,Net-(U2-Pad4)*
X55052000Y-75548000D03*
G04 #@! TO.P,U2,3*
G04 #@! TO.N,GND*
X55052000Y-77868000D03*
G04 #@! TO.P,U2,2*
G04 #@! TO.N,Net-(J2-Pad9)*
X54102000Y-77868000D03*
G04 #@! TO.P,U2,1*
G04 #@! TO.N,Net-(J2-Pad6)*
X53152000Y-77868000D03*
G04 #@! TD*
G04 #@! TO.P,U3,1*
G04 #@! TO.N,Net-(J2-Pad7)*
X53152000Y-67708000D03*
G04 #@! TO.P,U3,2*
G04 #@! TO.N,Net-(J2-Pad10)*
X54102000Y-67708000D03*
G04 #@! TO.P,U3,3*
G04 #@! TO.N,GND*
X55052000Y-67708000D03*
G04 #@! TO.P,U3,4*
G04 #@! TO.N,Net-(U3-Pad4)*
X55052000Y-65388000D03*
G04 #@! TO.P,U3,5*
G04 #@! TO.N,VCC*
X53152000Y-65388000D03*
G04 #@! TD*
G04 #@! TO.P,U5,5*
G04 #@! TO.N,VCC*
X60772000Y-85454000D03*
G04 #@! TO.P,U5,4*
G04 #@! TO.N,Net-(J7-Pad1)*
X62672000Y-85454000D03*
G04 #@! TO.P,U5,3*
G04 #@! TO.N,GND*
X62672000Y-87774000D03*
G04 #@! TO.P,U5,2*
G04 #@! TO.N,Net-(J8-Pad2)*
X61722000Y-87774000D03*
G04 #@! TO.P,U5,1*
G04 #@! TO.N,Net-(U1-Pad4)*
X60772000Y-87774000D03*
G04 #@! TD*
G04 #@! TO.P,U7,5*
G04 #@! TO.N,VCC*
X60264000Y-65388000D03*
G04 #@! TO.P,U7,4*
G04 #@! TO.N,Net-(J6-Pad1)*
X62164000Y-65388000D03*
G04 #@! TO.P,U7,3*
G04 #@! TO.N,GND*
X62164000Y-67708000D03*
G04 #@! TO.P,U7,2*
G04 #@! TO.N,Net-(J8-Pad2)*
X61214000Y-67708000D03*
G04 #@! TO.P,U7,1*
G04 #@! TO.N,Net-(U3-Pad4)*
X60264000Y-67708000D03*
G04 #@! TD*
G04 #@! TO.P,U8,1*
G04 #@! TO.N,Net-(U8-Pad1)*
X73980000Y-87774000D03*
G04 #@! TO.P,U8,2*
G04 #@! TO.N,Net-(J4-Pad1)*
X74930000Y-87774000D03*
G04 #@! TO.P,U8,3*
G04 #@! TO.N,GND*
X75880000Y-87774000D03*
G04 #@! TO.P,U8,4*
G04 #@! TO.N,Net-(J8-Pad1)*
X75880000Y-85454000D03*
G04 #@! TO.P,U8,5*
G04 #@! TO.N,VCC*
X73980000Y-85454000D03*
G04 #@! TD*
D22*
G04 #@! TO.P,J8,1*
G04 #@! TO.N,Net-(J8-Pad1)*
X112268000Y-87884000D03*
D23*
G04 #@! TO.P,J8,2*
G04 #@! TO.N,Net-(J8-Pad2)*
X112268000Y-85344000D03*
G04 #@! TO.P,J8,3*
G04 #@! TO.N,VCC*
X112268000Y-82804000D03*
G04 #@! TD*
D27*
G04 #@! TO.N,VCC*
X68580000Y-73152000D03*
X61468000Y-73152000D03*
X56896000Y-81280000D03*
X59944000Y-83312000D03*
X58420000Y-67564000D03*
X53340000Y-73660000D03*
X74168000Y-83820000D03*
G04 #@! TO.N,Net-(D1-Pad1)*
X87884000Y-55372000D03*
G04 #@! TO.N,Net-(J2-Pad7)*
X52324000Y-66548000D03*
G04 #@! TO.N,Net-(J2-Pad8)*
X47244000Y-77470000D03*
X47244000Y-75793000D03*
X47244000Y-75793000D03*
G04 #@! TO.N,Net-(J5-Pad1)*
X64008000Y-77216000D03*
G04 #@! TO.N,Net-(J6-Pad1)*
X67056000Y-74676000D03*
X67056000Y-72136000D03*
X63500000Y-66548000D03*
G04 #@! TO.N,Net-(J7-Pad1)*
X66040000Y-92456000D03*
X66548000Y-88392000D03*
G04 #@! TO.N,Net-(U2-Pad4)*
X57912000Y-78232000D03*
X59944000Y-79248000D03*
G04 #@! TO.N,Net-(J8-Pad2)*
X98044000Y-90424000D03*
X71120000Y-90424000D03*
X61468000Y-80264000D03*
X65532000Y-77216000D03*
G04 #@! TD*
D28*
G04 #@! TO.N,Net-(C1-Pad1)*
X69088000Y-57404000D02*
X71120000Y-57404000D01*
X73152000Y-55372000D02*
X78994000Y-55372000D01*
X71120000Y-57404000D02*
X73152000Y-55372000D01*
G04 #@! TO.N,VCC*
X105410000Y-73406000D02*
X105410000Y-74456000D01*
X107696000Y-71120000D02*
X105410000Y-73406000D01*
X107696000Y-56896000D02*
X107696000Y-71120000D01*
X103632000Y-54944000D02*
X105744000Y-54944000D01*
X105744000Y-54944000D02*
X107696000Y-56896000D01*
X103408000Y-54720000D02*
X103632000Y-54944000D01*
X60264000Y-65483000D02*
X60264000Y-65388000D01*
X58420000Y-67327000D02*
X60264000Y-65483000D01*
X53152000Y-65483000D02*
X53152000Y-65388000D01*
X54217000Y-66548000D02*
X53152000Y-65483000D01*
X58420000Y-67056000D02*
X57912000Y-66548000D01*
X57912000Y-66548000D02*
X54217000Y-66548000D01*
X58420000Y-67327000D02*
X58420000Y-67056000D01*
X61468000Y-73152000D02*
X60452000Y-74168000D01*
X60518000Y-74234000D02*
X60518000Y-75548000D01*
X60452000Y-74168000D02*
X60518000Y-74234000D01*
X60772000Y-84140000D02*
X60772000Y-85454000D01*
X59944000Y-83312000D02*
X60772000Y-84140000D01*
X53152000Y-85024000D02*
X53152000Y-85454000D01*
X56896000Y-81280000D02*
X53152000Y-85024000D01*
X58420000Y-67564000D02*
X58420000Y-67056000D01*
X53340000Y-75360000D02*
X53152000Y-75548000D01*
X53340000Y-73660000D02*
X53340000Y-75360000D01*
X74168000Y-85266000D02*
X73980000Y-85454000D01*
X74168000Y-83820000D02*
X74168000Y-85266000D01*
X94488000Y-54740000D02*
X92476000Y-56752000D01*
X94488000Y-54720000D02*
X103408000Y-54720000D01*
X94488000Y-54720000D02*
X94488000Y-54740000D01*
G04 #@! TO.N,Net-(D1-Pad1)*
X81534000Y-68326000D02*
X81534000Y-59690000D01*
X87696000Y-55372000D02*
X89076000Y-56752000D01*
X81534000Y-59690000D02*
X85852000Y-55372000D01*
X87884000Y-55372000D02*
X87376000Y-55372000D01*
X87376000Y-55372000D02*
X86868000Y-55372000D01*
X85852000Y-55372000D02*
X86868000Y-55372000D01*
X86868000Y-55372000D02*
X87696000Y-55372000D01*
G04 #@! TO.N,Net-(J2-Pad5)*
X52647000Y-87774000D02*
X52029000Y-88392000D01*
X53152000Y-87774000D02*
X52647000Y-87774000D01*
X52029000Y-88392000D02*
X46228000Y-88392000D01*
X46228000Y-88392000D02*
X40386000Y-82550000D01*
X40386000Y-79312000D02*
X43180000Y-76518000D01*
X40386000Y-82550000D02*
X40386000Y-79312000D01*
G04 #@! TO.N,Net-(J2-Pad7)*
X53152000Y-67708000D02*
X52647000Y-67708000D01*
X52324000Y-67385000D02*
X52324000Y-66548000D01*
X52647000Y-67708000D02*
X52324000Y-67385000D01*
G04 #@! TO.N,Net-(J2-Pad9)*
X54102000Y-77268000D02*
X53542000Y-76708000D01*
X54102000Y-77868000D02*
X54102000Y-77268000D01*
X53542000Y-76708000D02*
X52324000Y-76708000D01*
X52324000Y-76708000D02*
X52233000Y-76708000D01*
X52233000Y-76708000D02*
X48768000Y-73243000D01*
X48202315Y-73243000D02*
X47912315Y-73533000D01*
X48768000Y-73243000D02*
X48202315Y-73243000D01*
X44195000Y-73533000D02*
X43180000Y-72518000D01*
X47912315Y-73533000D02*
X44195000Y-73533000D01*
G04 #@! TO.N,Net-(J2-Pad6)*
X51297000Y-76518000D02*
X45180000Y-76518000D01*
X53152000Y-77868000D02*
X52647000Y-77868000D01*
X52647000Y-77868000D02*
X51297000Y-76518000D01*
G04 #@! TO.N,Net-(J2-Pad8)*
X54102000Y-87174000D02*
X53542000Y-86614000D01*
X54102000Y-87774000D02*
X54102000Y-87174000D01*
X53542000Y-86614000D02*
X50292000Y-86614000D01*
X50292000Y-86614000D02*
X47244000Y-83566000D01*
X47244000Y-83566000D02*
X47244000Y-77470000D01*
X46578000Y-74518000D02*
X45180000Y-74518000D01*
X47244000Y-75793000D02*
X47244000Y-75184000D01*
X47244000Y-75184000D02*
X46578000Y-74518000D01*
G04 #@! TO.N,Net-(J2-Pad10)*
X50926000Y-72518000D02*
X45180000Y-72518000D01*
X54102000Y-67708000D02*
X54102000Y-69342000D01*
X54102000Y-69342000D02*
X50926000Y-72518000D01*
G04 #@! TO.N,Net-(J5-Pad1)*
X64008000Y-77138000D02*
X62418000Y-75548000D01*
X64008000Y-77216000D02*
X64008000Y-77138000D01*
G04 #@! TO.N,Net-(J6-Pad1)*
X67056000Y-74676000D02*
X67056000Y-72136000D01*
X63324000Y-66548000D02*
X62164000Y-65388000D01*
X63500000Y-66548000D02*
X63324000Y-66548000D01*
G04 #@! TO.N,Net-(J7-Pad1)*
X60969004Y-92456000D02*
X66040000Y-92456000D01*
X55938000Y-92456000D02*
X60969004Y-92456000D01*
X50292000Y-98552000D02*
X50292000Y-98102000D01*
X50292000Y-98102000D02*
X55938000Y-92456000D01*
X62672000Y-85549000D02*
X62672000Y-85454000D01*
X65515000Y-88392000D02*
X62672000Y-85549000D01*
X66548000Y-88392000D02*
X65515000Y-88392000D01*
G04 #@! TO.N,Net-(U1-Pad4)*
X60772000Y-87679000D02*
X60772000Y-87774000D01*
X58547000Y-85454000D02*
X60772000Y-87679000D01*
X55052000Y-85454000D02*
X58547000Y-85454000D01*
G04 #@! TO.N,Net-(U2-Pad4)*
X55052000Y-76148000D02*
X55612000Y-76708000D01*
X55052000Y-75548000D02*
X55052000Y-76148000D01*
X55612000Y-76708000D02*
X56388000Y-76708000D01*
X56388000Y-76708000D02*
X57912000Y-78232000D01*
X59944000Y-78442000D02*
X60518000Y-77868000D01*
X59944000Y-79248000D02*
X59944000Y-78442000D01*
G04 #@! TO.N,Net-(U3-Pad4)*
X55052000Y-64788000D02*
X56340000Y-63500000D01*
X55052000Y-65388000D02*
X55052000Y-64788000D01*
X56340000Y-63500000D02*
X60452000Y-63500000D01*
X60452000Y-63500000D02*
X61468000Y-64516000D01*
X60264000Y-67108000D02*
X60264000Y-67708000D01*
X61468000Y-65904000D02*
X60264000Y-67108000D01*
X61468000Y-64516000D02*
X61468000Y-65904000D01*
G04 #@! TO.N,Net-(J4-Pad1)*
X103632000Y-88900000D02*
X103632000Y-98552000D01*
X75236000Y-86868000D02*
X101600000Y-86868000D01*
X101600000Y-86868000D02*
X103632000Y-88900000D01*
X74930000Y-87774000D02*
X74930000Y-87174000D01*
X74930000Y-87174000D02*
X75236000Y-86868000D01*
G04 #@! TO.N,Net-(J8-Pad1)*
X75880000Y-84854000D02*
X77216000Y-83518000D01*
X75880000Y-85454000D02*
X75880000Y-84854000D01*
X111168000Y-87884000D02*
X112268000Y-87884000D01*
X106802000Y-83518000D02*
X111168000Y-87884000D01*
X77216000Y-83518000D02*
X106802000Y-83518000D01*
G04 #@! TO.N,Net-(J8-Pad2)*
X98044000Y-90424000D02*
X71120000Y-90424000D01*
X61214000Y-70358000D02*
X61214000Y-67708000D01*
X61468000Y-79248000D02*
X61468000Y-77868000D01*
X71120000Y-90424000D02*
X63500000Y-90424000D01*
X61722000Y-88646000D02*
X61722000Y-87774000D01*
X63500000Y-90424000D02*
X61722000Y-88646000D01*
X61468000Y-80264000D02*
X61468000Y-79248000D01*
X65532000Y-77216000D02*
X65532000Y-74676000D01*
X65532000Y-74676000D02*
X61214000Y-70358000D01*
G04 #@! TD*
D29*
G04 #@! TO.N,GND*
G36*
X68017375Y-53793375D02*
X67689161Y-54284582D01*
X67573908Y-54864000D01*
X67689161Y-55443418D01*
X68017375Y-55934625D01*
X68315761Y-56134000D01*
X68017375Y-56333375D01*
X67689161Y-56824582D01*
X67573908Y-57404000D01*
X67689161Y-57983418D01*
X68017375Y-58474625D01*
X68035619Y-58486816D01*
X67990235Y-58495843D01*
X67780191Y-58636191D01*
X67639843Y-58846235D01*
X67590560Y-59094000D01*
X67590560Y-60794000D01*
X67639843Y-61041765D01*
X67780191Y-61251809D01*
X67990235Y-61392157D01*
X68238000Y-61441440D01*
X69938000Y-61441440D01*
X70185765Y-61392157D01*
X70395809Y-61251809D01*
X70536157Y-61041765D01*
X70585440Y-60794000D01*
X70585440Y-59094000D01*
X70542823Y-58879745D01*
X78165861Y-58879745D01*
X78239995Y-59125864D01*
X78777223Y-59318965D01*
X79347454Y-59291778D01*
X79748005Y-59125864D01*
X79822139Y-58879745D01*
X78994000Y-58051605D01*
X78165861Y-58879745D01*
X70542823Y-58879745D01*
X70536157Y-58846235D01*
X70395809Y-58636191D01*
X70185765Y-58495843D01*
X70140381Y-58486816D01*
X70158625Y-58474625D01*
X70366178Y-58164000D01*
X71045153Y-58164000D01*
X71120000Y-58178888D01*
X71194847Y-58164000D01*
X71194852Y-58164000D01*
X71416537Y-58119904D01*
X71667929Y-57951929D01*
X71710331Y-57888470D01*
X71943578Y-57655223D01*
X77547035Y-57655223D01*
X77574222Y-58225454D01*
X77740136Y-58626005D01*
X77986255Y-58700139D01*
X78814395Y-57872000D01*
X79173605Y-57872000D01*
X80001745Y-58700139D01*
X80247864Y-58626005D01*
X80440965Y-58088777D01*
X80413778Y-57518546D01*
X80247864Y-57117995D01*
X80001745Y-57043861D01*
X79173605Y-57872000D01*
X78814395Y-57872000D01*
X77986255Y-57043861D01*
X77740136Y-57117995D01*
X77547035Y-57655223D01*
X71943578Y-57655223D01*
X73466802Y-56132000D01*
X77546560Y-56132000D01*
X77546560Y-56172000D01*
X77595843Y-56419765D01*
X77736191Y-56629809D01*
X77946235Y-56770157D01*
X78180187Y-56816693D01*
X78165861Y-56864255D01*
X78994000Y-57692395D01*
X79822139Y-56864255D01*
X79807813Y-56816693D01*
X80041765Y-56770157D01*
X80251809Y-56629809D01*
X80392157Y-56419765D01*
X80441440Y-56172000D01*
X80441440Y-54572000D01*
X80392157Y-54324235D01*
X80251809Y-54114191D01*
X80041765Y-53973843D01*
X79794000Y-53924560D01*
X78194000Y-53924560D01*
X77946235Y-53973843D01*
X77736191Y-54114191D01*
X77595843Y-54324235D01*
X77546560Y-54572000D01*
X77546560Y-54612000D01*
X73226847Y-54612000D01*
X73152000Y-54597112D01*
X73077153Y-54612000D01*
X73077148Y-54612000D01*
X72855463Y-54656096D01*
X72604071Y-54824071D01*
X72561671Y-54887527D01*
X70805199Y-56644000D01*
X70366178Y-56644000D01*
X70158625Y-56333375D01*
X69860239Y-56134000D01*
X70158625Y-55934625D01*
X70486839Y-55443418D01*
X70602092Y-54864000D01*
X70486839Y-54284582D01*
X70158625Y-53793375D01*
X69670170Y-53467000D01*
X102513918Y-53467000D01*
X102076362Y-53904556D01*
X102053396Y-53960000D01*
X94562852Y-53960000D01*
X94488000Y-53945111D01*
X94413148Y-53960000D01*
X94191463Y-54004096D01*
X93940071Y-54172071D01*
X93857397Y-54295801D01*
X92884929Y-55268269D01*
X92627182Y-55217000D01*
X92324818Y-55217000D01*
X91877073Y-55306062D01*
X91369327Y-55645327D01*
X91030062Y-56153073D01*
X90910928Y-56752000D01*
X91030062Y-57350927D01*
X91369327Y-57858673D01*
X91877073Y-58197938D01*
X92324818Y-58287000D01*
X92627182Y-58287000D01*
X93074927Y-58197938D01*
X93582673Y-57858673D01*
X93921938Y-57350927D01*
X94041072Y-56752000D01*
X93959731Y-56343071D01*
X94822802Y-55480000D01*
X101867829Y-55480000D01*
X102076362Y-55983444D01*
X102592556Y-56499638D01*
X103266996Y-56779000D01*
X103997004Y-56779000D01*
X104671444Y-56499638D01*
X105187638Y-55983444D01*
X105303387Y-55704000D01*
X105429199Y-55704000D01*
X106936000Y-57210802D01*
X106936001Y-70805197D01*
X105782639Y-71958560D01*
X104610000Y-71958560D01*
X104362235Y-72007843D01*
X104152191Y-72148191D01*
X104011843Y-72358235D01*
X103965307Y-72592187D01*
X103917745Y-72577861D01*
X103089605Y-73406000D01*
X103917745Y-74234139D01*
X103965307Y-74219813D01*
X104011843Y-74453765D01*
X104152191Y-74663809D01*
X104362235Y-74804157D01*
X104610000Y-74853440D01*
X104761518Y-74853440D01*
X104862072Y-75003929D01*
X105113464Y-75171904D01*
X105410000Y-75230889D01*
X105706537Y-75171904D01*
X105957929Y-75003929D01*
X106058483Y-74853440D01*
X106210000Y-74853440D01*
X106457765Y-74804157D01*
X106667809Y-74663809D01*
X106808157Y-74453765D01*
X106857440Y-74206000D01*
X106857440Y-73033361D01*
X108180473Y-71710329D01*
X108243929Y-71667929D01*
X108411904Y-71416537D01*
X108456000Y-71194852D01*
X108456000Y-71194848D01*
X108470888Y-71120001D01*
X108456000Y-71045154D01*
X108456000Y-67846000D01*
X109362560Y-67846000D01*
X109362560Y-71346000D01*
X109411843Y-71593765D01*
X109552191Y-71803809D01*
X109762235Y-71944157D01*
X110010000Y-71993440D01*
X113510000Y-71993440D01*
X113757765Y-71944157D01*
X113967809Y-71803809D01*
X114108157Y-71593765D01*
X114157440Y-71346000D01*
X114157440Y-69881750D01*
X115625000Y-69881750D01*
X115625000Y-71472310D01*
X115721673Y-71705699D01*
X115900302Y-71884327D01*
X116133691Y-71981000D01*
X117474250Y-71981000D01*
X117633000Y-71822250D01*
X117633000Y-69723000D01*
X117887000Y-69723000D01*
X117887000Y-71822250D01*
X118045750Y-71981000D01*
X119386309Y-71981000D01*
X119619698Y-71884327D01*
X119798327Y-71705699D01*
X119895000Y-71472310D01*
X119895000Y-69881750D01*
X119736250Y-69723000D01*
X117887000Y-69723000D01*
X117633000Y-69723000D01*
X115783750Y-69723000D01*
X115625000Y-69881750D01*
X114157440Y-69881750D01*
X114157440Y-67846000D01*
X114132316Y-67719690D01*
X115625000Y-67719690D01*
X115625000Y-69310250D01*
X115783750Y-69469000D01*
X117633000Y-69469000D01*
X117633000Y-67369750D01*
X117887000Y-67369750D01*
X117887000Y-69469000D01*
X119736250Y-69469000D01*
X119895000Y-69310250D01*
X119895000Y-67719690D01*
X119798327Y-67486301D01*
X119619698Y-67307673D01*
X119386309Y-67211000D01*
X118045750Y-67211000D01*
X117887000Y-67369750D01*
X117633000Y-67369750D01*
X117474250Y-67211000D01*
X116133691Y-67211000D01*
X115900302Y-67307673D01*
X115721673Y-67486301D01*
X115625000Y-67719690D01*
X114132316Y-67719690D01*
X114108157Y-67598235D01*
X113967809Y-67388191D01*
X113800999Y-67276731D01*
X113885000Y-67293440D01*
X115635000Y-67293440D01*
X116217613Y-67177551D01*
X116711528Y-66847528D01*
X117041551Y-66353613D01*
X117157440Y-65771000D01*
X117157440Y-64021000D01*
X117041551Y-63438387D01*
X116711528Y-62944472D01*
X116217613Y-62614449D01*
X115635000Y-62498560D01*
X113885000Y-62498560D01*
X113302387Y-62614449D01*
X112808472Y-62944472D01*
X112478449Y-63438387D01*
X112362560Y-64021000D01*
X112362560Y-65771000D01*
X112478449Y-66353613D01*
X112808472Y-66847528D01*
X113302387Y-67177551D01*
X113408006Y-67198560D01*
X110010000Y-67198560D01*
X109762235Y-67247843D01*
X109552191Y-67388191D01*
X109411843Y-67598235D01*
X109362560Y-67846000D01*
X108456000Y-67846000D01*
X108456000Y-56970847D01*
X108470888Y-56896000D01*
X108456000Y-56821153D01*
X108456000Y-56821148D01*
X108411904Y-56599463D01*
X108243929Y-56348071D01*
X108180473Y-56305671D01*
X106334331Y-54459530D01*
X106291929Y-54396071D01*
X106040537Y-54228096D01*
X105818852Y-54184000D01*
X105818847Y-54184000D01*
X105744000Y-54169112D01*
X105669153Y-54184000D01*
X105303387Y-54184000D01*
X105187638Y-53904556D01*
X104750082Y-53467000D01*
X106119394Y-53467000D01*
X114718197Y-62065803D01*
X114759399Y-62093333D01*
X114808000Y-62103000D01*
X120777000Y-62103000D01*
X120777000Y-99487405D01*
X112213924Y-103517088D01*
X112174065Y-103546529D01*
X112148507Y-103588983D01*
X112141000Y-103632000D01*
X112141000Y-110109000D01*
X38227000Y-110109000D01*
X38227000Y-103759000D01*
X42827000Y-103759000D01*
X42827000Y-105509000D01*
X43057148Y-106412033D01*
X43615353Y-107158253D01*
X44416633Y-107634054D01*
X44713997Y-107714427D01*
X45085000Y-107604625D01*
X45085000Y-103759000D01*
X45339000Y-103759000D01*
X45339000Y-107604625D01*
X45710003Y-107714427D01*
X46007367Y-107634054D01*
X46808647Y-107158253D01*
X47366852Y-106412033D01*
X47597000Y-105509000D01*
X47597000Y-103759000D01*
X52987000Y-103759000D01*
X52987000Y-105509000D01*
X53217148Y-106412033D01*
X53775353Y-107158253D01*
X54576633Y-107634054D01*
X54873997Y-107714427D01*
X55245000Y-107604625D01*
X55245000Y-103759000D01*
X55499000Y-103759000D01*
X55499000Y-107604625D01*
X55870003Y-107714427D01*
X56167367Y-107634054D01*
X56968647Y-107158253D01*
X57526852Y-106412033D01*
X57757000Y-105509000D01*
X57757000Y-103759000D01*
X59591000Y-103759000D01*
X59591000Y-105509000D01*
X59821148Y-106412033D01*
X60379353Y-107158253D01*
X61180633Y-107634054D01*
X61477997Y-107714427D01*
X61849000Y-107604625D01*
X61849000Y-103759000D01*
X62103000Y-103759000D01*
X62103000Y-107604625D01*
X62474003Y-107714427D01*
X62771367Y-107634054D01*
X63572647Y-107158253D01*
X64130852Y-106412033D01*
X64361000Y-105509000D01*
X64361000Y-103759000D01*
X69751000Y-103759000D01*
X69751000Y-105509000D01*
X69981148Y-106412033D01*
X70539353Y-107158253D01*
X71340633Y-107634054D01*
X71637997Y-107714427D01*
X72009000Y-107604625D01*
X72009000Y-103759000D01*
X72263000Y-103759000D01*
X72263000Y-107604625D01*
X72634003Y-107714427D01*
X72931367Y-107634054D01*
X73732647Y-107158253D01*
X74290852Y-106412033D01*
X74521000Y-105509000D01*
X74521000Y-103759000D01*
X76355000Y-103759000D01*
X76355000Y-105509000D01*
X76585148Y-106412033D01*
X77143353Y-107158253D01*
X77944633Y-107634054D01*
X78241997Y-107714427D01*
X78613000Y-107604625D01*
X78613000Y-103759000D01*
X78867000Y-103759000D01*
X78867000Y-107604625D01*
X79238003Y-107714427D01*
X79535367Y-107634054D01*
X80336647Y-107158253D01*
X80894852Y-106412033D01*
X81125000Y-105509000D01*
X81125000Y-103759000D01*
X86515000Y-103759000D01*
X86515000Y-105509000D01*
X86745148Y-106412033D01*
X87303353Y-107158253D01*
X88104633Y-107634054D01*
X88401997Y-107714427D01*
X88773000Y-107604625D01*
X88773000Y-103759000D01*
X89027000Y-103759000D01*
X89027000Y-107604625D01*
X89398003Y-107714427D01*
X89695367Y-107634054D01*
X90496647Y-107158253D01*
X91054852Y-106412033D01*
X91285000Y-105509000D01*
X91285000Y-103759000D01*
X96167000Y-103759000D01*
X96167000Y-105509000D01*
X96397148Y-106412033D01*
X96955353Y-107158253D01*
X97756633Y-107634054D01*
X98053997Y-107714427D01*
X98425000Y-107604625D01*
X98425000Y-103759000D01*
X98679000Y-103759000D01*
X98679000Y-107604625D01*
X99050003Y-107714427D01*
X99347367Y-107634054D01*
X100148647Y-107158253D01*
X100706852Y-106412033D01*
X100937000Y-105509000D01*
X100937000Y-103759000D01*
X106327000Y-103759000D01*
X106327000Y-105509000D01*
X106557148Y-106412033D01*
X107115353Y-107158253D01*
X107916633Y-107634054D01*
X108213997Y-107714427D01*
X108585000Y-107604625D01*
X108585000Y-103759000D01*
X108839000Y-103759000D01*
X108839000Y-107604625D01*
X109210003Y-107714427D01*
X109507367Y-107634054D01*
X110308647Y-107158253D01*
X110866852Y-106412033D01*
X111097000Y-105509000D01*
X111097000Y-103759000D01*
X108839000Y-103759000D01*
X108585000Y-103759000D01*
X106327000Y-103759000D01*
X100937000Y-103759000D01*
X98679000Y-103759000D01*
X98425000Y-103759000D01*
X96167000Y-103759000D01*
X91285000Y-103759000D01*
X89027000Y-103759000D01*
X88773000Y-103759000D01*
X86515000Y-103759000D01*
X81125000Y-103759000D01*
X78867000Y-103759000D01*
X78613000Y-103759000D01*
X76355000Y-103759000D01*
X74521000Y-103759000D01*
X72263000Y-103759000D01*
X72009000Y-103759000D01*
X69751000Y-103759000D01*
X64361000Y-103759000D01*
X62103000Y-103759000D01*
X61849000Y-103759000D01*
X59591000Y-103759000D01*
X57757000Y-103759000D01*
X55499000Y-103759000D01*
X55245000Y-103759000D01*
X52987000Y-103759000D01*
X47597000Y-103759000D01*
X45339000Y-103759000D01*
X45085000Y-103759000D01*
X42827000Y-103759000D01*
X38227000Y-103759000D01*
X38227000Y-101755000D01*
X42827000Y-101755000D01*
X42827000Y-103505000D01*
X45085000Y-103505000D01*
X45085000Y-99659375D01*
X45339000Y-99659375D01*
X45339000Y-103505000D01*
X47597000Y-103505000D01*
X47597000Y-101755000D01*
X52987000Y-101755000D01*
X52987000Y-103505000D01*
X55245000Y-103505000D01*
X55245000Y-99659375D01*
X55499000Y-99659375D01*
X55499000Y-103505000D01*
X57757000Y-103505000D01*
X57757000Y-101755000D01*
X59591000Y-101755000D01*
X59591000Y-103505000D01*
X61849000Y-103505000D01*
X61849000Y-99659375D01*
X62103000Y-99659375D01*
X62103000Y-103505000D01*
X64361000Y-103505000D01*
X64361000Y-101755000D01*
X69751000Y-101755000D01*
X69751000Y-103505000D01*
X72009000Y-103505000D01*
X72009000Y-99659375D01*
X72263000Y-99659375D01*
X72263000Y-103505000D01*
X74521000Y-103505000D01*
X74521000Y-101755000D01*
X76355000Y-101755000D01*
X76355000Y-103505000D01*
X78613000Y-103505000D01*
X78613000Y-99659375D01*
X78867000Y-99659375D01*
X78867000Y-103505000D01*
X81125000Y-103505000D01*
X81125000Y-101755000D01*
X86515000Y-101755000D01*
X86515000Y-103505000D01*
X88773000Y-103505000D01*
X88773000Y-99659375D01*
X89027000Y-99659375D01*
X89027000Y-103505000D01*
X91285000Y-103505000D01*
X91285000Y-101755000D01*
X96167000Y-101755000D01*
X96167000Y-103505000D01*
X98425000Y-103505000D01*
X98425000Y-99659375D01*
X98679000Y-99659375D01*
X98679000Y-103505000D01*
X100937000Y-103505000D01*
X100937000Y-101755000D01*
X106327000Y-101755000D01*
X106327000Y-103505000D01*
X108585000Y-103505000D01*
X108585000Y-99659375D01*
X108839000Y-99659375D01*
X108839000Y-103505000D01*
X111097000Y-103505000D01*
X111097000Y-101755000D01*
X110866852Y-100851967D01*
X110308647Y-100105747D01*
X109507367Y-99629946D01*
X109210003Y-99549573D01*
X108839000Y-99659375D01*
X108585000Y-99659375D01*
X108213997Y-99549573D01*
X107916633Y-99629946D01*
X107115353Y-100105747D01*
X106557148Y-100851967D01*
X106327000Y-101755000D01*
X100937000Y-101755000D01*
X100706852Y-100851967D01*
X100148647Y-100105747D01*
X99347367Y-99629946D01*
X99050003Y-99549573D01*
X98679000Y-99659375D01*
X98425000Y-99659375D01*
X98053997Y-99549573D01*
X97756633Y-99629946D01*
X96955353Y-100105747D01*
X96397148Y-100851967D01*
X96167000Y-101755000D01*
X91285000Y-101755000D01*
X91054852Y-100851967D01*
X90496647Y-100105747D01*
X89695367Y-99629946D01*
X89398003Y-99549573D01*
X89027000Y-99659375D01*
X88773000Y-99659375D01*
X88401997Y-99549573D01*
X88104633Y-99629946D01*
X87303353Y-100105747D01*
X86745148Y-100851967D01*
X86515000Y-101755000D01*
X81125000Y-101755000D01*
X80894852Y-100851967D01*
X80336647Y-100105747D01*
X79535367Y-99629946D01*
X79238003Y-99549573D01*
X78867000Y-99659375D01*
X78613000Y-99659375D01*
X78241997Y-99549573D01*
X77944633Y-99629946D01*
X77143353Y-100105747D01*
X76585148Y-100851967D01*
X76355000Y-101755000D01*
X74521000Y-101755000D01*
X74290852Y-100851967D01*
X73732647Y-100105747D01*
X72931367Y-99629946D01*
X72634003Y-99549573D01*
X72263000Y-99659375D01*
X72009000Y-99659375D01*
X71637997Y-99549573D01*
X71340633Y-99629946D01*
X70539353Y-100105747D01*
X69981148Y-100851967D01*
X69751000Y-101755000D01*
X64361000Y-101755000D01*
X64130852Y-100851967D01*
X63572647Y-100105747D01*
X62771367Y-99629946D01*
X62474003Y-99549573D01*
X62103000Y-99659375D01*
X61849000Y-99659375D01*
X61477997Y-99549573D01*
X61180633Y-99629946D01*
X60379353Y-100105747D01*
X59821148Y-100851967D01*
X59591000Y-101755000D01*
X57757000Y-101755000D01*
X57526852Y-100851967D01*
X56968647Y-100105747D01*
X56167367Y-99629946D01*
X55870003Y-99549573D01*
X55499000Y-99659375D01*
X55245000Y-99659375D01*
X54873997Y-99549573D01*
X54576633Y-99629946D01*
X53775353Y-100105747D01*
X53217148Y-100851967D01*
X52987000Y-101755000D01*
X47597000Y-101755000D01*
X47366852Y-100851967D01*
X46808647Y-100105747D01*
X46007367Y-99629946D01*
X45710003Y-99549573D01*
X45339000Y-99659375D01*
X45085000Y-99659375D01*
X44713997Y-99549573D01*
X44416633Y-99629946D01*
X43615353Y-100105747D01*
X43057148Y-100851967D01*
X42827000Y-101755000D01*
X38227000Y-101755000D01*
X38227000Y-97960667D01*
X48857000Y-97960667D01*
X48857000Y-99143332D01*
X48940260Y-99561908D01*
X49257423Y-100036576D01*
X49732091Y-100353740D01*
X50292000Y-100465113D01*
X50851908Y-100353740D01*
X51326576Y-100036577D01*
X51564499Y-99680501D01*
X51907104Y-100106500D01*
X52400181Y-100376367D01*
X52482961Y-100393904D01*
X52705000Y-100271915D01*
X52705000Y-98679000D01*
X52959000Y-98679000D01*
X52959000Y-100271915D01*
X53181039Y-100393904D01*
X53263819Y-100376367D01*
X53756896Y-100106500D01*
X54109166Y-99668483D01*
X54267000Y-99129000D01*
X54267000Y-98679000D01*
X52959000Y-98679000D01*
X52705000Y-98679000D01*
X52685000Y-98679000D01*
X52685000Y-98425000D01*
X52705000Y-98425000D01*
X52705000Y-96832085D01*
X52959000Y-96832085D01*
X52959000Y-98425000D01*
X54267000Y-98425000D01*
X54267000Y-97975000D01*
X54262807Y-97960667D01*
X65621000Y-97960667D01*
X65621000Y-99143332D01*
X65704260Y-99561908D01*
X66021423Y-100036576D01*
X66496091Y-100353740D01*
X67056000Y-100465113D01*
X67615908Y-100353740D01*
X68090576Y-100036577D01*
X68328499Y-99680501D01*
X68671104Y-100106500D01*
X69164181Y-100376367D01*
X69246961Y-100393904D01*
X69469000Y-100271915D01*
X69469000Y-98679000D01*
X69723000Y-98679000D01*
X69723000Y-100271915D01*
X69945039Y-100393904D01*
X70027819Y-100376367D01*
X70520896Y-100106500D01*
X70873166Y-99668483D01*
X71031000Y-99129000D01*
X71031000Y-98679000D01*
X69723000Y-98679000D01*
X69469000Y-98679000D01*
X69449000Y-98679000D01*
X69449000Y-98425000D01*
X69469000Y-98425000D01*
X69469000Y-96832085D01*
X69723000Y-96832085D01*
X69723000Y-98425000D01*
X71031000Y-98425000D01*
X71031000Y-97975000D01*
X71026807Y-97960667D01*
X82385000Y-97960667D01*
X82385000Y-99143332D01*
X82468260Y-99561908D01*
X82785423Y-100036576D01*
X83260091Y-100353740D01*
X83820000Y-100465113D01*
X84379908Y-100353740D01*
X84854576Y-100036577D01*
X85092499Y-99680501D01*
X85435104Y-100106500D01*
X85928181Y-100376367D01*
X86010961Y-100393904D01*
X86233000Y-100271915D01*
X86233000Y-98679000D01*
X86487000Y-98679000D01*
X86487000Y-100271915D01*
X86709039Y-100393904D01*
X86791819Y-100376367D01*
X87284896Y-100106500D01*
X87637166Y-99668483D01*
X87795000Y-99129000D01*
X87795000Y-98679000D01*
X86487000Y-98679000D01*
X86233000Y-98679000D01*
X86213000Y-98679000D01*
X86213000Y-98425000D01*
X86233000Y-98425000D01*
X86233000Y-96832085D01*
X86487000Y-96832085D01*
X86487000Y-98425000D01*
X87795000Y-98425000D01*
X87795000Y-97975000D01*
X87637166Y-97435517D01*
X87284896Y-96997500D01*
X86791819Y-96727633D01*
X86709039Y-96710096D01*
X86487000Y-96832085D01*
X86233000Y-96832085D01*
X86010961Y-96710096D01*
X85928181Y-96727633D01*
X85435104Y-96997500D01*
X85092499Y-97423499D01*
X84854577Y-97067423D01*
X84379909Y-96750260D01*
X83820000Y-96638887D01*
X83260092Y-96750260D01*
X82785424Y-97067423D01*
X82468260Y-97542091D01*
X82385000Y-97960667D01*
X71026807Y-97960667D01*
X70873166Y-97435517D01*
X70520896Y-96997500D01*
X70027819Y-96727633D01*
X69945039Y-96710096D01*
X69723000Y-96832085D01*
X69469000Y-96832085D01*
X69246961Y-96710096D01*
X69164181Y-96727633D01*
X68671104Y-96997500D01*
X68328499Y-97423499D01*
X68090577Y-97067423D01*
X67615909Y-96750260D01*
X67056000Y-96638887D01*
X66496092Y-96750260D01*
X66021424Y-97067423D01*
X65704260Y-97542091D01*
X65621000Y-97960667D01*
X54262807Y-97960667D01*
X54109166Y-97435517D01*
X53756896Y-96997500D01*
X53263819Y-96727633D01*
X53181039Y-96710096D01*
X52959000Y-96832085D01*
X52705000Y-96832085D01*
X52660929Y-96807872D01*
X56252802Y-93216000D01*
X65336289Y-93216000D01*
X65453720Y-93333431D01*
X65834126Y-93491000D01*
X66245874Y-93491000D01*
X66626280Y-93333431D01*
X66917431Y-93042280D01*
X67075000Y-92661874D01*
X67075000Y-92250126D01*
X66917431Y-91869720D01*
X66626280Y-91578569D01*
X66245874Y-91421000D01*
X65834126Y-91421000D01*
X65453720Y-91578569D01*
X65336289Y-91696000D01*
X56012848Y-91696000D01*
X55938000Y-91681112D01*
X55863152Y-91696000D01*
X55863148Y-91696000D01*
X55689605Y-91730520D01*
X55641462Y-91740096D01*
X55454418Y-91865076D01*
X55390071Y-91908071D01*
X55347671Y-91971527D01*
X50615887Y-96703312D01*
X50292000Y-96638887D01*
X49732092Y-96750260D01*
X49257424Y-97067423D01*
X48940260Y-97542091D01*
X48857000Y-97960667D01*
X38227000Y-97960667D01*
X38227000Y-79312000D01*
X39611112Y-79312000D01*
X39626001Y-79386852D01*
X39626000Y-82475153D01*
X39611112Y-82550000D01*
X39626000Y-82624847D01*
X39626000Y-82624851D01*
X39670096Y-82846536D01*
X39838071Y-83097929D01*
X39901530Y-83140331D01*
X45637671Y-88876473D01*
X45680071Y-88939929D01*
X45931463Y-89107904D01*
X46153148Y-89152000D01*
X46153152Y-89152000D01*
X46228000Y-89166888D01*
X46302848Y-89152000D01*
X51954153Y-89152000D01*
X52029000Y-89166888D01*
X52103847Y-89152000D01*
X52103852Y-89152000D01*
X52325537Y-89107904D01*
X52576929Y-88939929D01*
X52619331Y-88876470D01*
X52753004Y-88742798D01*
X52897000Y-88771440D01*
X53407000Y-88771440D01*
X53627000Y-88727680D01*
X53847000Y-88771440D01*
X54357000Y-88771440D01*
X54589212Y-88725251D01*
X54670690Y-88759000D01*
X54766250Y-88759000D01*
X54925000Y-88600250D01*
X54925000Y-88416898D01*
X54955157Y-88371765D01*
X55004440Y-88124000D01*
X55004440Y-87901000D01*
X55179000Y-87901000D01*
X55179000Y-88600250D01*
X55337750Y-88759000D01*
X55433310Y-88759000D01*
X55666699Y-88662327D01*
X55845327Y-88483698D01*
X55942000Y-88250309D01*
X55942000Y-88059750D01*
X55783250Y-87901000D01*
X55179000Y-87901000D01*
X55004440Y-87901000D01*
X55004440Y-87424000D01*
X54955157Y-87176235D01*
X54925000Y-87131102D01*
X54925000Y-86947750D01*
X55179000Y-86947750D01*
X55179000Y-87647000D01*
X55783250Y-87647000D01*
X55942000Y-87488250D01*
X55942000Y-87297691D01*
X55845327Y-87064302D01*
X55666699Y-86885673D01*
X55433310Y-86789000D01*
X55337750Y-86789000D01*
X55179000Y-86947750D01*
X54925000Y-86947750D01*
X54766250Y-86789000D01*
X54758795Y-86789000D01*
X54649929Y-86626071D01*
X54586473Y-86583671D01*
X54132331Y-86129530D01*
X54089929Y-86066071D01*
X54012590Y-86014395D01*
X54054440Y-85804000D01*
X54054440Y-85196361D01*
X54150245Y-85100556D01*
X54149560Y-85104000D01*
X54149560Y-85804000D01*
X54198843Y-86051765D01*
X54339191Y-86261809D01*
X54549235Y-86402157D01*
X54797000Y-86451440D01*
X55307000Y-86451440D01*
X55554765Y-86402157D01*
X55764809Y-86261809D01*
X55796754Y-86214000D01*
X58232199Y-86214000D01*
X59869560Y-87851362D01*
X59869560Y-88124000D01*
X59918843Y-88371765D01*
X60059191Y-88581809D01*
X60269235Y-88722157D01*
X60517000Y-88771440D01*
X60972063Y-88771440D01*
X61006096Y-88942536D01*
X61174071Y-89193929D01*
X61237530Y-89236331D01*
X62909671Y-90908473D01*
X62952071Y-90971929D01*
X63015527Y-91014329D01*
X63203462Y-91139904D01*
X63251605Y-91149480D01*
X63425148Y-91184000D01*
X63425152Y-91184000D01*
X63500000Y-91198888D01*
X63574848Y-91184000D01*
X70416289Y-91184000D01*
X70533720Y-91301431D01*
X70914126Y-91459000D01*
X71325874Y-91459000D01*
X71706280Y-91301431D01*
X71823711Y-91184000D01*
X97340289Y-91184000D01*
X97457720Y-91301431D01*
X97838126Y-91459000D01*
X98249874Y-91459000D01*
X98630280Y-91301431D01*
X98921431Y-91010280D01*
X99079000Y-90629874D01*
X99079000Y-90218126D01*
X98921431Y-89837720D01*
X98630280Y-89546569D01*
X98249874Y-89389000D01*
X97838126Y-89389000D01*
X97457720Y-89546569D01*
X97340289Y-89664000D01*
X71823711Y-89664000D01*
X71706280Y-89546569D01*
X71325874Y-89389000D01*
X70914126Y-89389000D01*
X70533720Y-89546569D01*
X70416289Y-89664000D01*
X63814802Y-89664000D01*
X62799002Y-88648201D01*
X62799002Y-88600252D01*
X62957750Y-88759000D01*
X63053310Y-88759000D01*
X63286699Y-88662327D01*
X63465327Y-88483698D01*
X63562000Y-88250309D01*
X63562000Y-88059750D01*
X63403250Y-87901000D01*
X62799000Y-87901000D01*
X62799000Y-87921000D01*
X62624440Y-87921000D01*
X62624440Y-87424000D01*
X62575157Y-87176235D01*
X62545000Y-87131102D01*
X62545000Y-86947750D01*
X62386250Y-86789000D01*
X62290690Y-86789000D01*
X62209212Y-86822749D01*
X61977000Y-86776560D01*
X61467000Y-86776560D01*
X61247000Y-86820320D01*
X61027000Y-86776560D01*
X60944362Y-86776560D01*
X60619242Y-86451440D01*
X61027000Y-86451440D01*
X61274765Y-86402157D01*
X61484809Y-86261809D01*
X61625157Y-86051765D01*
X61674440Y-85804000D01*
X61674440Y-85104000D01*
X61769560Y-85104000D01*
X61769560Y-85804000D01*
X61818843Y-86051765D01*
X61959191Y-86261809D01*
X62169235Y-86402157D01*
X62417000Y-86451440D01*
X62499639Y-86451440D01*
X62897474Y-86849276D01*
X62799000Y-86947750D01*
X62799000Y-87647000D01*
X63403250Y-87647000D01*
X63549224Y-87501026D01*
X64924671Y-88876473D01*
X64967071Y-88939929D01*
X65218463Y-89107904D01*
X65440148Y-89152000D01*
X65440152Y-89152000D01*
X65514999Y-89166888D01*
X65589846Y-89152000D01*
X65844289Y-89152000D01*
X65961720Y-89269431D01*
X66342126Y-89427000D01*
X66753874Y-89427000D01*
X67134280Y-89269431D01*
X67425431Y-88978280D01*
X67583000Y-88597874D01*
X67583000Y-88186126D01*
X67425431Y-87805720D01*
X67134280Y-87514569D01*
X66915627Y-87424000D01*
X73077560Y-87424000D01*
X73077560Y-88124000D01*
X73126843Y-88371765D01*
X73267191Y-88581809D01*
X73477235Y-88722157D01*
X73725000Y-88771440D01*
X74235000Y-88771440D01*
X74455000Y-88727680D01*
X74675000Y-88771440D01*
X75185000Y-88771440D01*
X75417212Y-88725251D01*
X75498690Y-88759000D01*
X75594250Y-88759000D01*
X75753000Y-88600250D01*
X75753000Y-88416898D01*
X75783157Y-88371765D01*
X75832440Y-88124000D01*
X75832440Y-87901000D01*
X76007000Y-87901000D01*
X76007000Y-88600250D01*
X76165750Y-88759000D01*
X76261310Y-88759000D01*
X76494699Y-88662327D01*
X76673327Y-88483698D01*
X76770000Y-88250309D01*
X76770000Y-88059750D01*
X76611250Y-87901000D01*
X76007000Y-87901000D01*
X75832440Y-87901000D01*
X75832440Y-87628000D01*
X76007000Y-87628000D01*
X76007000Y-87647000D01*
X76611250Y-87647000D01*
X76630250Y-87628000D01*
X101285199Y-87628000D01*
X102872000Y-89214802D01*
X102872001Y-96883957D01*
X102597424Y-97067423D01*
X102280260Y-97542091D01*
X102197000Y-97960667D01*
X102197000Y-99143332D01*
X102280260Y-99561908D01*
X102597423Y-100036576D01*
X103072091Y-100353740D01*
X103632000Y-100465113D01*
X104191908Y-100353740D01*
X104666576Y-100036577D01*
X104904499Y-99680501D01*
X105247104Y-100106500D01*
X105740181Y-100376367D01*
X105822961Y-100393904D01*
X106045000Y-100271915D01*
X106045000Y-98679000D01*
X106299000Y-98679000D01*
X106299000Y-100271915D01*
X106521039Y-100393904D01*
X106603819Y-100376367D01*
X107096896Y-100106500D01*
X107449166Y-99668483D01*
X107607000Y-99129000D01*
X107607000Y-98679000D01*
X106299000Y-98679000D01*
X106045000Y-98679000D01*
X106025000Y-98679000D01*
X106025000Y-98425000D01*
X106045000Y-98425000D01*
X106045000Y-96832085D01*
X106299000Y-96832085D01*
X106299000Y-98425000D01*
X107607000Y-98425000D01*
X107607000Y-97975000D01*
X107449166Y-97435517D01*
X107096896Y-96997500D01*
X106603819Y-96727633D01*
X106521039Y-96710096D01*
X106299000Y-96832085D01*
X106045000Y-96832085D01*
X105822961Y-96710096D01*
X105740181Y-96727633D01*
X105247104Y-96997500D01*
X104904499Y-97423499D01*
X104666577Y-97067423D01*
X104392000Y-96883957D01*
X104392000Y-88974847D01*
X104406888Y-88900000D01*
X104392000Y-88825153D01*
X104392000Y-88825148D01*
X104347904Y-88603463D01*
X104179929Y-88352071D01*
X104116473Y-88309671D01*
X102190331Y-86383530D01*
X102147929Y-86320071D01*
X101896537Y-86152096D01*
X101674852Y-86108000D01*
X101674847Y-86108000D01*
X101600000Y-86093112D01*
X101525153Y-86108000D01*
X76695582Y-86108000D01*
X76733157Y-86051765D01*
X76782440Y-85804000D01*
X76782440Y-85104000D01*
X76769559Y-85039242D01*
X77530803Y-84278000D01*
X106487199Y-84278000D01*
X110577673Y-88368476D01*
X110620071Y-88431929D01*
X110683524Y-88474327D01*
X110683526Y-88474329D01*
X110770560Y-88532483D01*
X110770560Y-88734000D01*
X110819843Y-88981765D01*
X110960191Y-89191809D01*
X111170235Y-89332157D01*
X111418000Y-89381440D01*
X113118000Y-89381440D01*
X113365765Y-89332157D01*
X113575809Y-89191809D01*
X113716157Y-88981765D01*
X113765440Y-88734000D01*
X113765440Y-87034000D01*
X113716157Y-86786235D01*
X113575809Y-86576191D01*
X113365765Y-86435843D01*
X113320381Y-86426816D01*
X113338625Y-86414625D01*
X113666839Y-85923418D01*
X113782092Y-85344000D01*
X113666839Y-84764582D01*
X113338625Y-84273375D01*
X113040239Y-84074000D01*
X113338625Y-83874625D01*
X113666839Y-83383418D01*
X113782092Y-82804000D01*
X113666839Y-82224582D01*
X113338625Y-81733375D01*
X112847418Y-81405161D01*
X112414256Y-81319000D01*
X112121744Y-81319000D01*
X111688582Y-81405161D01*
X111197375Y-81733375D01*
X110869161Y-82224582D01*
X110753908Y-82804000D01*
X110869161Y-83383418D01*
X111197375Y-83874625D01*
X111495761Y-84074000D01*
X111197375Y-84273375D01*
X110869161Y-84764582D01*
X110753908Y-85344000D01*
X110869161Y-85923418D01*
X111197375Y-86414625D01*
X111215619Y-86426816D01*
X111170235Y-86435843D01*
X110960191Y-86576191D01*
X110950098Y-86591296D01*
X107392331Y-83033530D01*
X107349929Y-82970071D01*
X107098537Y-82802096D01*
X106876852Y-82758000D01*
X106876847Y-82758000D01*
X106802000Y-82743112D01*
X106727153Y-82758000D01*
X77290846Y-82758000D01*
X77215999Y-82743112D01*
X77141152Y-82758000D01*
X77141148Y-82758000D01*
X76919463Y-82802096D01*
X76856902Y-82843898D01*
X76731526Y-82927671D01*
X76731524Y-82927673D01*
X76668071Y-82970071D01*
X76625673Y-83033524D01*
X75395528Y-84263671D01*
X75332072Y-84306071D01*
X75164096Y-84557463D01*
X75137654Y-84690396D01*
X75026843Y-84856235D01*
X74977560Y-85104000D01*
X74977560Y-85804000D01*
X75026843Y-86051765D01*
X75075766Y-86124983D01*
X74939463Y-86152096D01*
X74688071Y-86320071D01*
X74645670Y-86383528D01*
X74445527Y-86583672D01*
X74382072Y-86626071D01*
X74276060Y-86784727D01*
X74235000Y-86776560D01*
X73725000Y-86776560D01*
X73477235Y-86825843D01*
X73267191Y-86966191D01*
X73126843Y-87176235D01*
X73077560Y-87424000D01*
X66915627Y-87424000D01*
X66753874Y-87357000D01*
X66342126Y-87357000D01*
X65961720Y-87514569D01*
X65844289Y-87632000D01*
X65829802Y-87632000D01*
X63574440Y-85376639D01*
X63574440Y-85104000D01*
X73077560Y-85104000D01*
X73077560Y-85804000D01*
X73126843Y-86051765D01*
X73267191Y-86261809D01*
X73477235Y-86402157D01*
X73725000Y-86451440D01*
X74235000Y-86451440D01*
X74482765Y-86402157D01*
X74692809Y-86261809D01*
X74833157Y-86051765D01*
X74882440Y-85804000D01*
X74882440Y-85564728D01*
X74883904Y-85562537D01*
X74928000Y-85340852D01*
X74928000Y-85340848D01*
X74942888Y-85266001D01*
X74928000Y-85191154D01*
X74928000Y-84523711D01*
X75045431Y-84406280D01*
X75203000Y-84025874D01*
X75203000Y-83614126D01*
X75045431Y-83233720D01*
X74754280Y-82942569D01*
X74373874Y-82785000D01*
X73962126Y-82785000D01*
X73581720Y-82942569D01*
X73290569Y-83233720D01*
X73133000Y-83614126D01*
X73133000Y-84025874D01*
X73290569Y-84406280D01*
X73408000Y-84523711D01*
X73408001Y-84552104D01*
X73267191Y-84646191D01*
X73126843Y-84856235D01*
X73077560Y-85104000D01*
X63574440Y-85104000D01*
X63525157Y-84856235D01*
X63384809Y-84646191D01*
X63174765Y-84505843D01*
X62927000Y-84456560D01*
X62417000Y-84456560D01*
X62169235Y-84505843D01*
X61959191Y-84646191D01*
X61818843Y-84856235D01*
X61769560Y-85104000D01*
X61674440Y-85104000D01*
X61625157Y-84856235D01*
X61532000Y-84716817D01*
X61532000Y-84214848D01*
X61546888Y-84140000D01*
X61532000Y-84065152D01*
X61532000Y-84065148D01*
X61487904Y-83843463D01*
X61487904Y-83843462D01*
X61362329Y-83655527D01*
X61319929Y-83592071D01*
X61256473Y-83549671D01*
X60979000Y-83272198D01*
X60979000Y-83106126D01*
X60821431Y-82725720D01*
X60530280Y-82434569D01*
X60149874Y-82277000D01*
X59738126Y-82277000D01*
X59357720Y-82434569D01*
X59066569Y-82725720D01*
X58909000Y-83106126D01*
X58909000Y-83517874D01*
X59066569Y-83898280D01*
X59357720Y-84189431D01*
X59738126Y-84347000D01*
X59904198Y-84347000D01*
X60012000Y-84454802D01*
X60012000Y-84716816D01*
X59918843Y-84856235D01*
X59869560Y-85104000D01*
X59869560Y-85701759D01*
X59137331Y-84969530D01*
X59094929Y-84906071D01*
X58843537Y-84738096D01*
X58621852Y-84694000D01*
X58621847Y-84694000D01*
X58547000Y-84679112D01*
X58472153Y-84694000D01*
X55796754Y-84694000D01*
X55764809Y-84646191D01*
X55554765Y-84505843D01*
X55307000Y-84456560D01*
X54797000Y-84456560D01*
X54793556Y-84457245D01*
X56935802Y-82315000D01*
X57101874Y-82315000D01*
X57482280Y-82157431D01*
X57773431Y-81866280D01*
X57931000Y-81485874D01*
X57931000Y-81074126D01*
X57773431Y-80693720D01*
X57482280Y-80402569D01*
X57101874Y-80245000D01*
X56690126Y-80245000D01*
X56309720Y-80402569D01*
X56018569Y-80693720D01*
X55861000Y-81074126D01*
X55861000Y-81240198D01*
X52667530Y-84433669D01*
X52604071Y-84476071D01*
X52531705Y-84584375D01*
X52439191Y-84646191D01*
X52298843Y-84856235D01*
X52249560Y-85104000D01*
X52249560Y-85804000D01*
X52259506Y-85854000D01*
X50606802Y-85854000D01*
X48004000Y-83251199D01*
X48004000Y-78173711D01*
X48121431Y-78056280D01*
X48279000Y-77675874D01*
X48279000Y-77278000D01*
X50982199Y-77278000D01*
X52056673Y-78352476D01*
X52099071Y-78415929D01*
X52162524Y-78458327D01*
X52162526Y-78458329D01*
X52232375Y-78505000D01*
X52350463Y-78583904D01*
X52381969Y-78590171D01*
X52439191Y-78675809D01*
X52649235Y-78816157D01*
X52897000Y-78865440D01*
X53407000Y-78865440D01*
X53627000Y-78821680D01*
X53847000Y-78865440D01*
X54357000Y-78865440D01*
X54589212Y-78819251D01*
X54670690Y-78853000D01*
X54766250Y-78853000D01*
X54925000Y-78694250D01*
X54925000Y-78510898D01*
X54955157Y-78465765D01*
X55004440Y-78218000D01*
X55004440Y-77995000D01*
X55179000Y-77995000D01*
X55179000Y-78694250D01*
X55337750Y-78853000D01*
X55433310Y-78853000D01*
X55666699Y-78756327D01*
X55845327Y-78577698D01*
X55942000Y-78344309D01*
X55942000Y-78153750D01*
X55783250Y-77995000D01*
X55179000Y-77995000D01*
X55004440Y-77995000D01*
X55004440Y-77721000D01*
X55179000Y-77721000D01*
X55179000Y-77741000D01*
X55783250Y-77741000D01*
X55942000Y-77582250D01*
X55942000Y-77468000D01*
X56073199Y-77468000D01*
X56877000Y-78271802D01*
X56877000Y-78437874D01*
X57034569Y-78818280D01*
X57325720Y-79109431D01*
X57706126Y-79267000D01*
X58117874Y-79267000D01*
X58498280Y-79109431D01*
X58565585Y-79042126D01*
X58909000Y-79042126D01*
X58909000Y-79453874D01*
X59066569Y-79834280D01*
X59357720Y-80125431D01*
X59738126Y-80283000D01*
X60149874Y-80283000D01*
X60433000Y-80165726D01*
X60433000Y-80469874D01*
X60590569Y-80850280D01*
X60881720Y-81141431D01*
X61262126Y-81299000D01*
X61673874Y-81299000D01*
X62054280Y-81141431D01*
X62345431Y-80850280D01*
X62503000Y-80469874D01*
X62503000Y-80058126D01*
X62345431Y-79677720D01*
X62228000Y-79560289D01*
X62228000Y-78757250D01*
X62291000Y-78694250D01*
X62291000Y-78510898D01*
X62321157Y-78465765D01*
X62370440Y-78218000D01*
X62370440Y-77518000D01*
X62321157Y-77270235D01*
X62291000Y-77225102D01*
X62291000Y-77041750D01*
X62132250Y-76883000D01*
X62036690Y-76883000D01*
X61955212Y-76916749D01*
X61723000Y-76870560D01*
X61213000Y-76870560D01*
X60993000Y-76914320D01*
X60773000Y-76870560D01*
X60263000Y-76870560D01*
X60015235Y-76919843D01*
X59805191Y-77060191D01*
X59664843Y-77270235D01*
X59615560Y-77518000D01*
X59615560Y-77695639D01*
X59459528Y-77851671D01*
X59396072Y-77894071D01*
X59353672Y-77957527D01*
X59353671Y-77957528D01*
X59287687Y-78056280D01*
X59228097Y-78145463D01*
X59184000Y-78367148D01*
X59184000Y-78367153D01*
X59169112Y-78442000D01*
X59184000Y-78516847D01*
X59184000Y-78544289D01*
X59066569Y-78661720D01*
X58909000Y-79042126D01*
X58565585Y-79042126D01*
X58789431Y-78818280D01*
X58947000Y-78437874D01*
X58947000Y-78026126D01*
X58789431Y-77645720D01*
X58498280Y-77354569D01*
X58117874Y-77197000D01*
X57951802Y-77197000D01*
X56978331Y-76223530D01*
X56935929Y-76160071D01*
X56684537Y-75992096D01*
X56462852Y-75948000D01*
X56462847Y-75948000D01*
X56388000Y-75933112D01*
X56313153Y-75948000D01*
X55944494Y-75948000D01*
X55954440Y-75898000D01*
X55954440Y-75198000D01*
X59615560Y-75198000D01*
X59615560Y-75898000D01*
X59664843Y-76145765D01*
X59805191Y-76355809D01*
X60015235Y-76496157D01*
X60263000Y-76545440D01*
X60773000Y-76545440D01*
X61020765Y-76496157D01*
X61230809Y-76355809D01*
X61371157Y-76145765D01*
X61420440Y-75898000D01*
X61420440Y-75198000D01*
X61371157Y-74950235D01*
X61278000Y-74810817D01*
X61278000Y-74416801D01*
X61507802Y-74187000D01*
X61673874Y-74187000D01*
X62054280Y-74029431D01*
X62345431Y-73738280D01*
X62503000Y-73357874D01*
X62503000Y-72946126D01*
X62345431Y-72565720D01*
X62054280Y-72274569D01*
X61673874Y-72117000D01*
X61262126Y-72117000D01*
X60881720Y-72274569D01*
X60590569Y-72565720D01*
X60433000Y-72946126D01*
X60433000Y-73112198D01*
X59967529Y-73577670D01*
X59904071Y-73620071D01*
X59825087Y-73738280D01*
X59736097Y-73871463D01*
X59677112Y-74168000D01*
X59736097Y-74464537D01*
X59758000Y-74497318D01*
X59758000Y-74810816D01*
X59664843Y-74950235D01*
X59615560Y-75198000D01*
X55954440Y-75198000D01*
X55905157Y-74950235D01*
X55764809Y-74740191D01*
X55554765Y-74599843D01*
X55307000Y-74550560D01*
X54797000Y-74550560D01*
X54549235Y-74599843D01*
X54339191Y-74740191D01*
X54198843Y-74950235D01*
X54149560Y-75198000D01*
X54149560Y-75898000D01*
X54198843Y-76145765D01*
X54309654Y-76311604D01*
X54331815Y-76423013D01*
X54132331Y-76223530D01*
X54089929Y-76160071D01*
X54012590Y-76108395D01*
X54054440Y-75898000D01*
X54054440Y-75658728D01*
X54055904Y-75656537D01*
X54100000Y-75434852D01*
X54100000Y-75434848D01*
X54114888Y-75360001D01*
X54100000Y-75285154D01*
X54100000Y-74363711D01*
X54217431Y-74246280D01*
X54375000Y-73865874D01*
X54375000Y-73454126D01*
X54217431Y-73073720D01*
X53926280Y-72782569D01*
X53545874Y-72625000D01*
X53134126Y-72625000D01*
X52753720Y-72782569D01*
X52462569Y-73073720D01*
X52305000Y-73454126D01*
X52305000Y-73865874D01*
X52462569Y-74246280D01*
X52580000Y-74363711D01*
X52580001Y-74646104D01*
X52439191Y-74740191D01*
X52298843Y-74950235D01*
X52249560Y-75198000D01*
X52249560Y-75649758D01*
X49877801Y-73278000D01*
X50851153Y-73278000D01*
X50926000Y-73292888D01*
X51000847Y-73278000D01*
X51000852Y-73278000D01*
X51222537Y-73233904D01*
X51473929Y-73065929D01*
X51516331Y-73002470D01*
X54586473Y-69932329D01*
X54649929Y-69889929D01*
X54817904Y-69638537D01*
X54862000Y-69416852D01*
X54862000Y-69416848D01*
X54876888Y-69342001D01*
X54862000Y-69267154D01*
X54862000Y-68597250D01*
X54925000Y-68534250D01*
X54925000Y-68350898D01*
X54955157Y-68305765D01*
X55004440Y-68058000D01*
X55004440Y-67835000D01*
X55179000Y-67835000D01*
X55179000Y-68534250D01*
X55337750Y-68693000D01*
X55433310Y-68693000D01*
X55666699Y-68596327D01*
X55845327Y-68417698D01*
X55942000Y-68184309D01*
X55942000Y-67993750D01*
X55783250Y-67835000D01*
X55179000Y-67835000D01*
X55004440Y-67835000D01*
X55004440Y-67561000D01*
X55179000Y-67561000D01*
X55179000Y-67581000D01*
X55783250Y-67581000D01*
X55942000Y-67422250D01*
X55942000Y-67308000D01*
X57405763Y-67308000D01*
X57385000Y-67358126D01*
X57385000Y-67769874D01*
X57542569Y-68150280D01*
X57833720Y-68441431D01*
X58214126Y-68599000D01*
X58625874Y-68599000D01*
X59006280Y-68441431D01*
X59297431Y-68150280D01*
X59361560Y-67995459D01*
X59361560Y-68058000D01*
X59410843Y-68305765D01*
X59551191Y-68515809D01*
X59761235Y-68656157D01*
X60009000Y-68705440D01*
X60454001Y-68705440D01*
X60454000Y-70283153D01*
X60439112Y-70358000D01*
X60454000Y-70432847D01*
X60454000Y-70432851D01*
X60498096Y-70654536D01*
X60666071Y-70905929D01*
X60729530Y-70948331D01*
X64772001Y-74990803D01*
X64772000Y-76512289D01*
X64770000Y-76514289D01*
X64594280Y-76338569D01*
X64213874Y-76181000D01*
X64125802Y-76181000D01*
X63320440Y-75375639D01*
X63320440Y-75198000D01*
X63271157Y-74950235D01*
X63130809Y-74740191D01*
X62920765Y-74599843D01*
X62673000Y-74550560D01*
X62163000Y-74550560D01*
X61915235Y-74599843D01*
X61705191Y-74740191D01*
X61564843Y-74950235D01*
X61515560Y-75198000D01*
X61515560Y-75898000D01*
X61564843Y-76145765D01*
X61705191Y-76355809D01*
X61915235Y-76496157D01*
X62163000Y-76545440D01*
X62340639Y-76545440D01*
X62690974Y-76895776D01*
X62545000Y-77041750D01*
X62545000Y-77741000D01*
X62565000Y-77741000D01*
X62565000Y-77995000D01*
X62545000Y-77995000D01*
X62545000Y-78694250D01*
X62703750Y-78853000D01*
X62799310Y-78853000D01*
X63032699Y-78756327D01*
X63211327Y-78577698D01*
X63308000Y-78344309D01*
X63308000Y-78153750D01*
X63149252Y-77995002D01*
X63308000Y-77995002D01*
X63308000Y-77979711D01*
X63421720Y-78093431D01*
X63802126Y-78251000D01*
X64213874Y-78251000D01*
X64594280Y-78093431D01*
X64770000Y-77917711D01*
X64945720Y-78093431D01*
X65326126Y-78251000D01*
X65737874Y-78251000D01*
X66118280Y-78093431D01*
X66409431Y-77802280D01*
X66567000Y-77421874D01*
X66567000Y-77010126D01*
X66409431Y-76629720D01*
X66292000Y-76512289D01*
X66292000Y-75375711D01*
X66469720Y-75553431D01*
X66850126Y-75711000D01*
X67261874Y-75711000D01*
X67642280Y-75553431D01*
X67933431Y-75262280D01*
X68091000Y-74881874D01*
X68091000Y-74470126D01*
X68067647Y-74413745D01*
X102081861Y-74413745D01*
X102155995Y-74659864D01*
X102693223Y-74852965D01*
X103263454Y-74825778D01*
X103664005Y-74659864D01*
X103738139Y-74413745D01*
X102910000Y-73585605D01*
X102081861Y-74413745D01*
X68067647Y-74413745D01*
X67933431Y-74089720D01*
X67816000Y-73972289D01*
X67816000Y-73851711D01*
X67993720Y-74029431D01*
X68374126Y-74187000D01*
X68785874Y-74187000D01*
X69166280Y-74029431D01*
X69457431Y-73738280D01*
X69615000Y-73357874D01*
X69615000Y-73189223D01*
X101463035Y-73189223D01*
X101490222Y-73759454D01*
X101656136Y-74160005D01*
X101902255Y-74234139D01*
X102730395Y-73406000D01*
X101902255Y-72577861D01*
X101656136Y-72651995D01*
X101463035Y-73189223D01*
X69615000Y-73189223D01*
X69615000Y-72946126D01*
X69457431Y-72565720D01*
X69289966Y-72398255D01*
X102081861Y-72398255D01*
X102910000Y-73226395D01*
X103738139Y-72398255D01*
X103664005Y-72152136D01*
X103126777Y-71959035D01*
X102556546Y-71986222D01*
X102155995Y-72152136D01*
X102081861Y-72398255D01*
X69289966Y-72398255D01*
X69166280Y-72274569D01*
X68785874Y-72117000D01*
X68374126Y-72117000D01*
X68091000Y-72234274D01*
X68091000Y-71930126D01*
X67933431Y-71549720D01*
X67642280Y-71258569D01*
X67261874Y-71101000D01*
X66850126Y-71101000D01*
X66469720Y-71258569D01*
X66178569Y-71549720D01*
X66021000Y-71930126D01*
X66021000Y-72341874D01*
X66178569Y-72722280D01*
X66296001Y-72839712D01*
X66296000Y-73972289D01*
X66178569Y-74089720D01*
X66131015Y-74204526D01*
X66079929Y-74128071D01*
X66016473Y-74085671D01*
X61974000Y-70043199D01*
X61974000Y-68597250D01*
X62037000Y-68534250D01*
X62037000Y-68350898D01*
X62067157Y-68305765D01*
X62116440Y-68058000D01*
X62116440Y-67835000D01*
X62291000Y-67835000D01*
X62291000Y-68534250D01*
X62449750Y-68693000D01*
X62545310Y-68693000D01*
X62778699Y-68596327D01*
X62957327Y-68417698D01*
X63054000Y-68184309D01*
X63054000Y-67993750D01*
X62895250Y-67835000D01*
X62291000Y-67835000D01*
X62116440Y-67835000D01*
X62116440Y-67358000D01*
X62067157Y-67110235D01*
X62037000Y-67065102D01*
X62037000Y-66881750D01*
X61878250Y-66723000D01*
X61782690Y-66723000D01*
X61701212Y-66756749D01*
X61691904Y-66754898D01*
X61952473Y-66494329D01*
X62015929Y-66451929D01*
X62060356Y-66385440D01*
X62086639Y-66385440D01*
X62436974Y-66735776D01*
X62291000Y-66881750D01*
X62291000Y-67581000D01*
X62895250Y-67581000D01*
X63010664Y-67465586D01*
X63294126Y-67583000D01*
X63705874Y-67583000D01*
X64086280Y-67425431D01*
X64377431Y-67134280D01*
X64535000Y-66753874D01*
X64535000Y-66726000D01*
X79286560Y-66726000D01*
X79286560Y-69926000D01*
X79335843Y-70173765D01*
X79476191Y-70383809D01*
X79686235Y-70524157D01*
X79934000Y-70573440D01*
X83134000Y-70573440D01*
X83381765Y-70524157D01*
X83591809Y-70383809D01*
X83732157Y-70173765D01*
X83781440Y-69926000D01*
X83781440Y-68800503D01*
X94589950Y-68800503D01*
X94894114Y-69534836D01*
X95499813Y-70162220D01*
X96299496Y-70510056D01*
X96647000Y-70398645D01*
X96647000Y-68453000D01*
X96901000Y-68453000D01*
X96901000Y-70398645D01*
X97248504Y-70510056D01*
X98048187Y-70162220D01*
X98653886Y-69534836D01*
X98958050Y-68800503D01*
X98846362Y-68453000D01*
X96901000Y-68453000D01*
X96647000Y-68453000D01*
X94701638Y-68453000D01*
X94589950Y-68800503D01*
X83781440Y-68800503D01*
X83781440Y-67851497D01*
X94589950Y-67851497D01*
X94701638Y-68199000D01*
X96647000Y-68199000D01*
X96647000Y-66253355D01*
X96901000Y-66253355D01*
X96901000Y-68199000D01*
X98846362Y-68199000D01*
X98958050Y-67851497D01*
X98653886Y-67117164D01*
X98048187Y-66489780D01*
X97248504Y-66141944D01*
X96901000Y-66253355D01*
X96647000Y-66253355D01*
X96299496Y-66141944D01*
X95499813Y-66489780D01*
X94894114Y-67117164D01*
X94589950Y-67851497D01*
X83781440Y-67851497D01*
X83781440Y-66726000D01*
X83732157Y-66478235D01*
X83591809Y-66268191D01*
X83381765Y-66127843D01*
X83134000Y-66078560D01*
X82294000Y-66078560D01*
X82294000Y-60004801D01*
X82746801Y-59552000D01*
X85828560Y-59552000D01*
X85828560Y-61352000D01*
X85877843Y-61599765D01*
X86018191Y-61809809D01*
X86228235Y-61950157D01*
X86476000Y-61999440D01*
X88276000Y-61999440D01*
X88523765Y-61950157D01*
X88733809Y-61809809D01*
X88874157Y-61599765D01*
X88923440Y-61352000D01*
X88923440Y-60816740D01*
X89284964Y-60816740D01*
X89463760Y-61248417D01*
X89868424Y-61689966D01*
X90411258Y-61943046D01*
X90649000Y-61822997D01*
X90649000Y-60579000D01*
X90903000Y-60579000D01*
X90903000Y-61822997D01*
X91140742Y-61943046D01*
X91683576Y-61689966D01*
X92088240Y-61248417D01*
X92267036Y-60816740D01*
X92684964Y-60816740D01*
X92863760Y-61248417D01*
X93268424Y-61689966D01*
X93811258Y-61943046D01*
X94049000Y-61822997D01*
X94049000Y-60579000D01*
X94303000Y-60579000D01*
X94303000Y-61822997D01*
X94540742Y-61943046D01*
X95083576Y-61689966D01*
X95488240Y-61248417D01*
X95667036Y-60816740D01*
X95546378Y-60579000D01*
X94303000Y-60579000D01*
X94049000Y-60579000D01*
X92805622Y-60579000D01*
X92684964Y-60816740D01*
X92267036Y-60816740D01*
X92146378Y-60579000D01*
X90903000Y-60579000D01*
X90649000Y-60579000D01*
X89405622Y-60579000D01*
X89284964Y-60816740D01*
X88923440Y-60816740D01*
X88923440Y-60087260D01*
X89284964Y-60087260D01*
X89405622Y-60325000D01*
X90649000Y-60325000D01*
X90649000Y-59081003D01*
X90903000Y-59081003D01*
X90903000Y-60325000D01*
X92146378Y-60325000D01*
X92267036Y-60087260D01*
X92684964Y-60087260D01*
X92805622Y-60325000D01*
X94049000Y-60325000D01*
X94049000Y-59081003D01*
X94303000Y-59081003D01*
X94303000Y-60325000D01*
X95546378Y-60325000D01*
X95667036Y-60087260D01*
X95488240Y-59655583D01*
X95418051Y-59578996D01*
X101797000Y-59578996D01*
X101797000Y-60309004D01*
X102076362Y-60983444D01*
X102592556Y-61499638D01*
X103266996Y-61779000D01*
X103997004Y-61779000D01*
X104671444Y-61499638D01*
X105187638Y-60983444D01*
X105467000Y-60309004D01*
X105467000Y-59578996D01*
X105187638Y-58904556D01*
X104671444Y-58388362D01*
X103997004Y-58109000D01*
X103266996Y-58109000D01*
X102592556Y-58388362D01*
X102076362Y-58904556D01*
X101797000Y-59578996D01*
X95418051Y-59578996D01*
X95083576Y-59214034D01*
X94540742Y-58960954D01*
X94303000Y-59081003D01*
X94049000Y-59081003D01*
X93811258Y-58960954D01*
X93268424Y-59214034D01*
X92863760Y-59655583D01*
X92684964Y-60087260D01*
X92267036Y-60087260D01*
X92088240Y-59655583D01*
X91683576Y-59214034D01*
X91140742Y-58960954D01*
X90903000Y-59081003D01*
X90649000Y-59081003D01*
X90411258Y-58960954D01*
X89868424Y-59214034D01*
X89463760Y-59655583D01*
X89284964Y-60087260D01*
X88923440Y-60087260D01*
X88923440Y-59552000D01*
X88874157Y-59304235D01*
X88733809Y-59094191D01*
X88523765Y-58953843D01*
X88276000Y-58904560D01*
X86476000Y-58904560D01*
X86228235Y-58953843D01*
X86018191Y-59094191D01*
X85877843Y-59304235D01*
X85828560Y-59552000D01*
X82746801Y-59552000D01*
X86166802Y-56132000D01*
X87180289Y-56132000D01*
X87297720Y-56249431D01*
X87587056Y-56369278D01*
X87510928Y-56752000D01*
X87630062Y-57350927D01*
X87969327Y-57858673D01*
X88477073Y-58197938D01*
X88924818Y-58287000D01*
X89227182Y-58287000D01*
X89674927Y-58197938D01*
X90182673Y-57858673D01*
X90521938Y-57350927D01*
X90641072Y-56752000D01*
X90521938Y-56153073D01*
X90182673Y-55645327D01*
X89674927Y-55306062D01*
X89227182Y-55217000D01*
X88924818Y-55217000D01*
X88919000Y-55218157D01*
X88919000Y-55166126D01*
X88761431Y-54785720D01*
X88470280Y-54494569D01*
X88089874Y-54337000D01*
X87678126Y-54337000D01*
X87297720Y-54494569D01*
X87180289Y-54612000D01*
X85926846Y-54612000D01*
X85851999Y-54597112D01*
X85777152Y-54612000D01*
X85777148Y-54612000D01*
X85555463Y-54656096D01*
X85304071Y-54824071D01*
X85261671Y-54887527D01*
X81049528Y-59099671D01*
X80986072Y-59142071D01*
X80943672Y-59205527D01*
X80943671Y-59205528D01*
X80818097Y-59393463D01*
X80759112Y-59690000D01*
X80774001Y-59764852D01*
X80774000Y-66078560D01*
X79934000Y-66078560D01*
X79686235Y-66127843D01*
X79476191Y-66268191D01*
X79335843Y-66478235D01*
X79286560Y-66726000D01*
X64535000Y-66726000D01*
X64535000Y-66342126D01*
X64377431Y-65961720D01*
X64086280Y-65670569D01*
X63705874Y-65513000D01*
X63363802Y-65513000D01*
X63066440Y-65215639D01*
X63066440Y-65038000D01*
X63017157Y-64790235D01*
X62876809Y-64580191D01*
X62666765Y-64439843D01*
X62419000Y-64390560D01*
X62217937Y-64390560D01*
X62183904Y-64219463D01*
X62015929Y-63968071D01*
X61952473Y-63925671D01*
X61042331Y-63015530D01*
X60999929Y-62952071D01*
X60748537Y-62784096D01*
X60526852Y-62740000D01*
X60526847Y-62740000D01*
X60452000Y-62725112D01*
X60377153Y-62740000D01*
X56414846Y-62740000D01*
X56339999Y-62725112D01*
X56265152Y-62740000D01*
X56265148Y-62740000D01*
X56043463Y-62784096D01*
X55792071Y-62952071D01*
X55749671Y-63015527D01*
X54567528Y-64197671D01*
X54504072Y-64240071D01*
X54336096Y-64491463D01*
X54309654Y-64624396D01*
X54198843Y-64790235D01*
X54149560Y-65038000D01*
X54149560Y-65405758D01*
X54054440Y-65310638D01*
X54054440Y-65038000D01*
X54005157Y-64790235D01*
X53864809Y-64580191D01*
X53654765Y-64439843D01*
X53407000Y-64390560D01*
X52897000Y-64390560D01*
X52649235Y-64439843D01*
X52439191Y-64580191D01*
X52298843Y-64790235D01*
X52249560Y-65038000D01*
X52249560Y-65513000D01*
X52118126Y-65513000D01*
X51737720Y-65670569D01*
X51446569Y-65961720D01*
X51289000Y-66342126D01*
X51289000Y-66753874D01*
X51446569Y-67134280D01*
X51564000Y-67251711D01*
X51564000Y-67310153D01*
X51549112Y-67385000D01*
X51564000Y-67459847D01*
X51564000Y-67459851D01*
X51608096Y-67681536D01*
X51776071Y-67932929D01*
X51839530Y-67975331D01*
X52056669Y-68192470D01*
X52099071Y-68255929D01*
X52350463Y-68423904D01*
X52381969Y-68430171D01*
X52439191Y-68515809D01*
X52649235Y-68656157D01*
X52897000Y-68705440D01*
X53342001Y-68705440D01*
X53342001Y-69027197D01*
X50611199Y-71758000D01*
X46166553Y-71758000D01*
X45879571Y-71471018D01*
X45846325Y-71457247D01*
X45863130Y-71380735D01*
X45180000Y-70697605D01*
X44496870Y-71380735D01*
X44513675Y-71457247D01*
X44480429Y-71471018D01*
X44180000Y-71771447D01*
X43926553Y-71518000D01*
X44226982Y-71217571D01*
X44240753Y-71184325D01*
X44317265Y-71201130D01*
X45000395Y-70518000D01*
X45359605Y-70518000D01*
X46042735Y-71201130D01*
X46268164Y-71151617D01*
X46427807Y-70686964D01*
X46397482Y-70196587D01*
X46268164Y-69884383D01*
X46042735Y-69834870D01*
X45359605Y-70518000D01*
X45000395Y-70518000D01*
X44317265Y-69834870D01*
X44240753Y-69851675D01*
X44226982Y-69818429D01*
X43879571Y-69471018D01*
X43846325Y-69457247D01*
X43863130Y-69380735D01*
X44496870Y-69380735D01*
X44527019Y-69518000D01*
X44496870Y-69655265D01*
X45180000Y-70338395D01*
X45863130Y-69655265D01*
X45832981Y-69518000D01*
X45863130Y-69380735D01*
X45180000Y-68697605D01*
X44496870Y-69380735D01*
X43863130Y-69380735D01*
X43180000Y-68697605D01*
X42496870Y-69380735D01*
X42513675Y-69457247D01*
X42480429Y-69471018D01*
X42133018Y-69818429D01*
X41945000Y-70272343D01*
X41945000Y-70763657D01*
X42133018Y-71217571D01*
X42433447Y-71518000D01*
X42133018Y-71818429D01*
X41945000Y-72272343D01*
X41945000Y-72763657D01*
X42133018Y-73217571D01*
X42433447Y-73518000D01*
X42133018Y-73818429D01*
X41945000Y-74272343D01*
X41945000Y-74763657D01*
X42133018Y-75217571D01*
X42433447Y-75518000D01*
X42133018Y-75818429D01*
X41945000Y-76272343D01*
X41945000Y-76678198D01*
X39901528Y-78721671D01*
X39838072Y-78764071D01*
X39795672Y-78827527D01*
X39795671Y-78827528D01*
X39670097Y-79015463D01*
X39611112Y-79312000D01*
X38227000Y-79312000D01*
X38227000Y-68349036D01*
X41932193Y-68349036D01*
X41962518Y-68839413D01*
X42091836Y-69151617D01*
X42317265Y-69201130D01*
X43000395Y-68518000D01*
X43359605Y-68518000D01*
X44042735Y-69201130D01*
X44180000Y-69170981D01*
X44317265Y-69201130D01*
X45000395Y-68518000D01*
X45359605Y-68518000D01*
X46042735Y-69201130D01*
X46268164Y-69151617D01*
X46427807Y-68686964D01*
X46397482Y-68196587D01*
X46268164Y-67884383D01*
X46042735Y-67834870D01*
X45359605Y-68518000D01*
X45000395Y-68518000D01*
X44317265Y-67834870D01*
X44180000Y-67865019D01*
X44042735Y-67834870D01*
X43359605Y-68518000D01*
X43000395Y-68518000D01*
X42317265Y-67834870D01*
X42091836Y-67884383D01*
X41932193Y-68349036D01*
X38227000Y-68349036D01*
X38227000Y-67655265D01*
X42496870Y-67655265D01*
X43180000Y-68338395D01*
X43863130Y-67655265D01*
X44496870Y-67655265D01*
X45180000Y-68338395D01*
X45863130Y-67655265D01*
X45813617Y-67429836D01*
X45348964Y-67270193D01*
X44858587Y-67300518D01*
X44546383Y-67429836D01*
X44496870Y-67655265D01*
X43863130Y-67655265D01*
X43813617Y-67429836D01*
X43348964Y-67270193D01*
X42858587Y-67300518D01*
X42546383Y-67429836D01*
X42496870Y-67655265D01*
X38227000Y-67655265D01*
X38227000Y-62611000D01*
X42672000Y-62611000D01*
X42720601Y-62601333D01*
X42761803Y-62573803D01*
X51868606Y-53467000D01*
X68505830Y-53467000D01*
X68017375Y-53793375D01*
X68017375Y-53793375D01*
G37*
X68017375Y-53793375D02*
X67689161Y-54284582D01*
X67573908Y-54864000D01*
X67689161Y-55443418D01*
X68017375Y-55934625D01*
X68315761Y-56134000D01*
X68017375Y-56333375D01*
X67689161Y-56824582D01*
X67573908Y-57404000D01*
X67689161Y-57983418D01*
X68017375Y-58474625D01*
X68035619Y-58486816D01*
X67990235Y-58495843D01*
X67780191Y-58636191D01*
X67639843Y-58846235D01*
X67590560Y-59094000D01*
X67590560Y-60794000D01*
X67639843Y-61041765D01*
X67780191Y-61251809D01*
X67990235Y-61392157D01*
X68238000Y-61441440D01*
X69938000Y-61441440D01*
X70185765Y-61392157D01*
X70395809Y-61251809D01*
X70536157Y-61041765D01*
X70585440Y-60794000D01*
X70585440Y-59094000D01*
X70542823Y-58879745D01*
X78165861Y-58879745D01*
X78239995Y-59125864D01*
X78777223Y-59318965D01*
X79347454Y-59291778D01*
X79748005Y-59125864D01*
X79822139Y-58879745D01*
X78994000Y-58051605D01*
X78165861Y-58879745D01*
X70542823Y-58879745D01*
X70536157Y-58846235D01*
X70395809Y-58636191D01*
X70185765Y-58495843D01*
X70140381Y-58486816D01*
X70158625Y-58474625D01*
X70366178Y-58164000D01*
X71045153Y-58164000D01*
X71120000Y-58178888D01*
X71194847Y-58164000D01*
X71194852Y-58164000D01*
X71416537Y-58119904D01*
X71667929Y-57951929D01*
X71710331Y-57888470D01*
X71943578Y-57655223D01*
X77547035Y-57655223D01*
X77574222Y-58225454D01*
X77740136Y-58626005D01*
X77986255Y-58700139D01*
X78814395Y-57872000D01*
X79173605Y-57872000D01*
X80001745Y-58700139D01*
X80247864Y-58626005D01*
X80440965Y-58088777D01*
X80413778Y-57518546D01*
X80247864Y-57117995D01*
X80001745Y-57043861D01*
X79173605Y-57872000D01*
X78814395Y-57872000D01*
X77986255Y-57043861D01*
X77740136Y-57117995D01*
X77547035Y-57655223D01*
X71943578Y-57655223D01*
X73466802Y-56132000D01*
X77546560Y-56132000D01*
X77546560Y-56172000D01*
X77595843Y-56419765D01*
X77736191Y-56629809D01*
X77946235Y-56770157D01*
X78180187Y-56816693D01*
X78165861Y-56864255D01*
X78994000Y-57692395D01*
X79822139Y-56864255D01*
X79807813Y-56816693D01*
X80041765Y-56770157D01*
X80251809Y-56629809D01*
X80392157Y-56419765D01*
X80441440Y-56172000D01*
X80441440Y-54572000D01*
X80392157Y-54324235D01*
X80251809Y-54114191D01*
X80041765Y-53973843D01*
X79794000Y-53924560D01*
X78194000Y-53924560D01*
X77946235Y-53973843D01*
X77736191Y-54114191D01*
X77595843Y-54324235D01*
X77546560Y-54572000D01*
X77546560Y-54612000D01*
X73226847Y-54612000D01*
X73152000Y-54597112D01*
X73077153Y-54612000D01*
X73077148Y-54612000D01*
X72855463Y-54656096D01*
X72604071Y-54824071D01*
X72561671Y-54887527D01*
X70805199Y-56644000D01*
X70366178Y-56644000D01*
X70158625Y-56333375D01*
X69860239Y-56134000D01*
X70158625Y-55934625D01*
X70486839Y-55443418D01*
X70602092Y-54864000D01*
X70486839Y-54284582D01*
X70158625Y-53793375D01*
X69670170Y-53467000D01*
X102513918Y-53467000D01*
X102076362Y-53904556D01*
X102053396Y-53960000D01*
X94562852Y-53960000D01*
X94488000Y-53945111D01*
X94413148Y-53960000D01*
X94191463Y-54004096D01*
X93940071Y-54172071D01*
X93857397Y-54295801D01*
X92884929Y-55268269D01*
X92627182Y-55217000D01*
X92324818Y-55217000D01*
X91877073Y-55306062D01*
X91369327Y-55645327D01*
X91030062Y-56153073D01*
X90910928Y-56752000D01*
X91030062Y-57350927D01*
X91369327Y-57858673D01*
X91877073Y-58197938D01*
X92324818Y-58287000D01*
X92627182Y-58287000D01*
X93074927Y-58197938D01*
X93582673Y-57858673D01*
X93921938Y-57350927D01*
X94041072Y-56752000D01*
X93959731Y-56343071D01*
X94822802Y-55480000D01*
X101867829Y-55480000D01*
X102076362Y-55983444D01*
X102592556Y-56499638D01*
X103266996Y-56779000D01*
X103997004Y-56779000D01*
X104671444Y-56499638D01*
X105187638Y-55983444D01*
X105303387Y-55704000D01*
X105429199Y-55704000D01*
X106936000Y-57210802D01*
X106936001Y-70805197D01*
X105782639Y-71958560D01*
X104610000Y-71958560D01*
X104362235Y-72007843D01*
X104152191Y-72148191D01*
X104011843Y-72358235D01*
X103965307Y-72592187D01*
X103917745Y-72577861D01*
X103089605Y-73406000D01*
X103917745Y-74234139D01*
X103965307Y-74219813D01*
X104011843Y-74453765D01*
X104152191Y-74663809D01*
X104362235Y-74804157D01*
X104610000Y-74853440D01*
X104761518Y-74853440D01*
X104862072Y-75003929D01*
X105113464Y-75171904D01*
X105410000Y-75230889D01*
X105706537Y-75171904D01*
X105957929Y-75003929D01*
X106058483Y-74853440D01*
X106210000Y-74853440D01*
X106457765Y-74804157D01*
X106667809Y-74663809D01*
X106808157Y-74453765D01*
X106857440Y-74206000D01*
X106857440Y-73033361D01*
X108180473Y-71710329D01*
X108243929Y-71667929D01*
X108411904Y-71416537D01*
X108456000Y-71194852D01*
X108456000Y-71194848D01*
X108470888Y-71120001D01*
X108456000Y-71045154D01*
X108456000Y-67846000D01*
X109362560Y-67846000D01*
X109362560Y-71346000D01*
X109411843Y-71593765D01*
X109552191Y-71803809D01*
X109762235Y-71944157D01*
X110010000Y-71993440D01*
X113510000Y-71993440D01*
X113757765Y-71944157D01*
X113967809Y-71803809D01*
X114108157Y-71593765D01*
X114157440Y-71346000D01*
X114157440Y-69881750D01*
X115625000Y-69881750D01*
X115625000Y-71472310D01*
X115721673Y-71705699D01*
X115900302Y-71884327D01*
X116133691Y-71981000D01*
X117474250Y-71981000D01*
X117633000Y-71822250D01*
X117633000Y-69723000D01*
X117887000Y-69723000D01*
X117887000Y-71822250D01*
X118045750Y-71981000D01*
X119386309Y-71981000D01*
X119619698Y-71884327D01*
X119798327Y-71705699D01*
X119895000Y-71472310D01*
X119895000Y-69881750D01*
X119736250Y-69723000D01*
X117887000Y-69723000D01*
X117633000Y-69723000D01*
X115783750Y-69723000D01*
X115625000Y-69881750D01*
X114157440Y-69881750D01*
X114157440Y-67846000D01*
X114132316Y-67719690D01*
X115625000Y-67719690D01*
X115625000Y-69310250D01*
X115783750Y-69469000D01*
X117633000Y-69469000D01*
X117633000Y-67369750D01*
X117887000Y-67369750D01*
X117887000Y-69469000D01*
X119736250Y-69469000D01*
X119895000Y-69310250D01*
X119895000Y-67719690D01*
X119798327Y-67486301D01*
X119619698Y-67307673D01*
X119386309Y-67211000D01*
X118045750Y-67211000D01*
X117887000Y-67369750D01*
X117633000Y-67369750D01*
X117474250Y-67211000D01*
X116133691Y-67211000D01*
X115900302Y-67307673D01*
X115721673Y-67486301D01*
X115625000Y-67719690D01*
X114132316Y-67719690D01*
X114108157Y-67598235D01*
X113967809Y-67388191D01*
X113800999Y-67276731D01*
X113885000Y-67293440D01*
X115635000Y-67293440D01*
X116217613Y-67177551D01*
X116711528Y-66847528D01*
X117041551Y-66353613D01*
X117157440Y-65771000D01*
X117157440Y-64021000D01*
X117041551Y-63438387D01*
X116711528Y-62944472D01*
X116217613Y-62614449D01*
X115635000Y-62498560D01*
X113885000Y-62498560D01*
X113302387Y-62614449D01*
X112808472Y-62944472D01*
X112478449Y-63438387D01*
X112362560Y-64021000D01*
X112362560Y-65771000D01*
X112478449Y-66353613D01*
X112808472Y-66847528D01*
X113302387Y-67177551D01*
X113408006Y-67198560D01*
X110010000Y-67198560D01*
X109762235Y-67247843D01*
X109552191Y-67388191D01*
X109411843Y-67598235D01*
X109362560Y-67846000D01*
X108456000Y-67846000D01*
X108456000Y-56970847D01*
X108470888Y-56896000D01*
X108456000Y-56821153D01*
X108456000Y-56821148D01*
X108411904Y-56599463D01*
X108243929Y-56348071D01*
X108180473Y-56305671D01*
X106334331Y-54459530D01*
X106291929Y-54396071D01*
X106040537Y-54228096D01*
X105818852Y-54184000D01*
X105818847Y-54184000D01*
X105744000Y-54169112D01*
X105669153Y-54184000D01*
X105303387Y-54184000D01*
X105187638Y-53904556D01*
X104750082Y-53467000D01*
X106119394Y-53467000D01*
X114718197Y-62065803D01*
X114759399Y-62093333D01*
X114808000Y-62103000D01*
X120777000Y-62103000D01*
X120777000Y-99487405D01*
X112213924Y-103517088D01*
X112174065Y-103546529D01*
X112148507Y-103588983D01*
X112141000Y-103632000D01*
X112141000Y-110109000D01*
X38227000Y-110109000D01*
X38227000Y-103759000D01*
X42827000Y-103759000D01*
X42827000Y-105509000D01*
X43057148Y-106412033D01*
X43615353Y-107158253D01*
X44416633Y-107634054D01*
X44713997Y-107714427D01*
X45085000Y-107604625D01*
X45085000Y-103759000D01*
X45339000Y-103759000D01*
X45339000Y-107604625D01*
X45710003Y-107714427D01*
X46007367Y-107634054D01*
X46808647Y-107158253D01*
X47366852Y-106412033D01*
X47597000Y-105509000D01*
X47597000Y-103759000D01*
X52987000Y-103759000D01*
X52987000Y-105509000D01*
X53217148Y-106412033D01*
X53775353Y-107158253D01*
X54576633Y-107634054D01*
X54873997Y-107714427D01*
X55245000Y-107604625D01*
X55245000Y-103759000D01*
X55499000Y-103759000D01*
X55499000Y-107604625D01*
X55870003Y-107714427D01*
X56167367Y-107634054D01*
X56968647Y-107158253D01*
X57526852Y-106412033D01*
X57757000Y-105509000D01*
X57757000Y-103759000D01*
X59591000Y-103759000D01*
X59591000Y-105509000D01*
X59821148Y-106412033D01*
X60379353Y-107158253D01*
X61180633Y-107634054D01*
X61477997Y-107714427D01*
X61849000Y-107604625D01*
X61849000Y-103759000D01*
X62103000Y-103759000D01*
X62103000Y-107604625D01*
X62474003Y-107714427D01*
X62771367Y-107634054D01*
X63572647Y-107158253D01*
X64130852Y-106412033D01*
X64361000Y-105509000D01*
X64361000Y-103759000D01*
X69751000Y-103759000D01*
X69751000Y-105509000D01*
X69981148Y-106412033D01*
X70539353Y-107158253D01*
X71340633Y-107634054D01*
X71637997Y-107714427D01*
X72009000Y-107604625D01*
X72009000Y-103759000D01*
X72263000Y-103759000D01*
X72263000Y-107604625D01*
X72634003Y-107714427D01*
X72931367Y-107634054D01*
X73732647Y-107158253D01*
X74290852Y-106412033D01*
X74521000Y-105509000D01*
X74521000Y-103759000D01*
X76355000Y-103759000D01*
X76355000Y-105509000D01*
X76585148Y-106412033D01*
X77143353Y-107158253D01*
X77944633Y-107634054D01*
X78241997Y-107714427D01*
X78613000Y-107604625D01*
X78613000Y-103759000D01*
X78867000Y-103759000D01*
X78867000Y-107604625D01*
X79238003Y-107714427D01*
X79535367Y-107634054D01*
X80336647Y-107158253D01*
X80894852Y-106412033D01*
X81125000Y-105509000D01*
X81125000Y-103759000D01*
X86515000Y-103759000D01*
X86515000Y-105509000D01*
X86745148Y-106412033D01*
X87303353Y-107158253D01*
X88104633Y-107634054D01*
X88401997Y-107714427D01*
X88773000Y-107604625D01*
X88773000Y-103759000D01*
X89027000Y-103759000D01*
X89027000Y-107604625D01*
X89398003Y-107714427D01*
X89695367Y-107634054D01*
X90496647Y-107158253D01*
X91054852Y-106412033D01*
X91285000Y-105509000D01*
X91285000Y-103759000D01*
X96167000Y-103759000D01*
X96167000Y-105509000D01*
X96397148Y-106412033D01*
X96955353Y-107158253D01*
X97756633Y-107634054D01*
X98053997Y-107714427D01*
X98425000Y-107604625D01*
X98425000Y-103759000D01*
X98679000Y-103759000D01*
X98679000Y-107604625D01*
X99050003Y-107714427D01*
X99347367Y-107634054D01*
X100148647Y-107158253D01*
X100706852Y-106412033D01*
X100937000Y-105509000D01*
X100937000Y-103759000D01*
X106327000Y-103759000D01*
X106327000Y-105509000D01*
X106557148Y-106412033D01*
X107115353Y-107158253D01*
X107916633Y-107634054D01*
X108213997Y-107714427D01*
X108585000Y-107604625D01*
X108585000Y-103759000D01*
X108839000Y-103759000D01*
X108839000Y-107604625D01*
X109210003Y-107714427D01*
X109507367Y-107634054D01*
X110308647Y-107158253D01*
X110866852Y-106412033D01*
X111097000Y-105509000D01*
X111097000Y-103759000D01*
X108839000Y-103759000D01*
X108585000Y-103759000D01*
X106327000Y-103759000D01*
X100937000Y-103759000D01*
X98679000Y-103759000D01*
X98425000Y-103759000D01*
X96167000Y-103759000D01*
X91285000Y-103759000D01*
X89027000Y-103759000D01*
X88773000Y-103759000D01*
X86515000Y-103759000D01*
X81125000Y-103759000D01*
X78867000Y-103759000D01*
X78613000Y-103759000D01*
X76355000Y-103759000D01*
X74521000Y-103759000D01*
X72263000Y-103759000D01*
X72009000Y-103759000D01*
X69751000Y-103759000D01*
X64361000Y-103759000D01*
X62103000Y-103759000D01*
X61849000Y-103759000D01*
X59591000Y-103759000D01*
X57757000Y-103759000D01*
X55499000Y-103759000D01*
X55245000Y-103759000D01*
X52987000Y-103759000D01*
X47597000Y-103759000D01*
X45339000Y-103759000D01*
X45085000Y-103759000D01*
X42827000Y-103759000D01*
X38227000Y-103759000D01*
X38227000Y-101755000D01*
X42827000Y-101755000D01*
X42827000Y-103505000D01*
X45085000Y-103505000D01*
X45085000Y-99659375D01*
X45339000Y-99659375D01*
X45339000Y-103505000D01*
X47597000Y-103505000D01*
X47597000Y-101755000D01*
X52987000Y-101755000D01*
X52987000Y-103505000D01*
X55245000Y-103505000D01*
X55245000Y-99659375D01*
X55499000Y-99659375D01*
X55499000Y-103505000D01*
X57757000Y-103505000D01*
X57757000Y-101755000D01*
X59591000Y-101755000D01*
X59591000Y-103505000D01*
X61849000Y-103505000D01*
X61849000Y-99659375D01*
X62103000Y-99659375D01*
X62103000Y-103505000D01*
X64361000Y-103505000D01*
X64361000Y-101755000D01*
X69751000Y-101755000D01*
X69751000Y-103505000D01*
X72009000Y-103505000D01*
X72009000Y-99659375D01*
X72263000Y-99659375D01*
X72263000Y-103505000D01*
X74521000Y-103505000D01*
X74521000Y-101755000D01*
X76355000Y-101755000D01*
X76355000Y-103505000D01*
X78613000Y-103505000D01*
X78613000Y-99659375D01*
X78867000Y-99659375D01*
X78867000Y-103505000D01*
X81125000Y-103505000D01*
X81125000Y-101755000D01*
X86515000Y-101755000D01*
X86515000Y-103505000D01*
X88773000Y-103505000D01*
X88773000Y-99659375D01*
X89027000Y-99659375D01*
X89027000Y-103505000D01*
X91285000Y-103505000D01*
X91285000Y-101755000D01*
X96167000Y-101755000D01*
X96167000Y-103505000D01*
X98425000Y-103505000D01*
X98425000Y-99659375D01*
X98679000Y-99659375D01*
X98679000Y-103505000D01*
X100937000Y-103505000D01*
X100937000Y-101755000D01*
X106327000Y-101755000D01*
X106327000Y-103505000D01*
X108585000Y-103505000D01*
X108585000Y-99659375D01*
X108839000Y-99659375D01*
X108839000Y-103505000D01*
X111097000Y-103505000D01*
X111097000Y-101755000D01*
X110866852Y-100851967D01*
X110308647Y-100105747D01*
X109507367Y-99629946D01*
X109210003Y-99549573D01*
X108839000Y-99659375D01*
X108585000Y-99659375D01*
X108213997Y-99549573D01*
X107916633Y-99629946D01*
X107115353Y-100105747D01*
X106557148Y-100851967D01*
X106327000Y-101755000D01*
X100937000Y-101755000D01*
X100706852Y-100851967D01*
X100148647Y-100105747D01*
X99347367Y-99629946D01*
X99050003Y-99549573D01*
X98679000Y-99659375D01*
X98425000Y-99659375D01*
X98053997Y-99549573D01*
X97756633Y-99629946D01*
X96955353Y-100105747D01*
X96397148Y-100851967D01*
X96167000Y-101755000D01*
X91285000Y-101755000D01*
X91054852Y-100851967D01*
X90496647Y-100105747D01*
X89695367Y-99629946D01*
X89398003Y-99549573D01*
X89027000Y-99659375D01*
X88773000Y-99659375D01*
X88401997Y-99549573D01*
X88104633Y-99629946D01*
X87303353Y-100105747D01*
X86745148Y-100851967D01*
X86515000Y-101755000D01*
X81125000Y-101755000D01*
X80894852Y-100851967D01*
X80336647Y-100105747D01*
X79535367Y-99629946D01*
X79238003Y-99549573D01*
X78867000Y-99659375D01*
X78613000Y-99659375D01*
X78241997Y-99549573D01*
X77944633Y-99629946D01*
X77143353Y-100105747D01*
X76585148Y-100851967D01*
X76355000Y-101755000D01*
X74521000Y-101755000D01*
X74290852Y-100851967D01*
X73732647Y-100105747D01*
X72931367Y-99629946D01*
X72634003Y-99549573D01*
X72263000Y-99659375D01*
X72009000Y-99659375D01*
X71637997Y-99549573D01*
X71340633Y-99629946D01*
X70539353Y-100105747D01*
X69981148Y-100851967D01*
X69751000Y-101755000D01*
X64361000Y-101755000D01*
X64130852Y-100851967D01*
X63572647Y-100105747D01*
X62771367Y-99629946D01*
X62474003Y-99549573D01*
X62103000Y-99659375D01*
X61849000Y-99659375D01*
X61477997Y-99549573D01*
X61180633Y-99629946D01*
X60379353Y-100105747D01*
X59821148Y-100851967D01*
X59591000Y-101755000D01*
X57757000Y-101755000D01*
X57526852Y-100851967D01*
X56968647Y-100105747D01*
X56167367Y-99629946D01*
X55870003Y-99549573D01*
X55499000Y-99659375D01*
X55245000Y-99659375D01*
X54873997Y-99549573D01*
X54576633Y-99629946D01*
X53775353Y-100105747D01*
X53217148Y-100851967D01*
X52987000Y-101755000D01*
X47597000Y-101755000D01*
X47366852Y-100851967D01*
X46808647Y-100105747D01*
X46007367Y-99629946D01*
X45710003Y-99549573D01*
X45339000Y-99659375D01*
X45085000Y-99659375D01*
X44713997Y-99549573D01*
X44416633Y-99629946D01*
X43615353Y-100105747D01*
X43057148Y-100851967D01*
X42827000Y-101755000D01*
X38227000Y-101755000D01*
X38227000Y-97960667D01*
X48857000Y-97960667D01*
X48857000Y-99143332D01*
X48940260Y-99561908D01*
X49257423Y-100036576D01*
X49732091Y-100353740D01*
X50292000Y-100465113D01*
X50851908Y-100353740D01*
X51326576Y-100036577D01*
X51564499Y-99680501D01*
X51907104Y-100106500D01*
X52400181Y-100376367D01*
X52482961Y-100393904D01*
X52705000Y-100271915D01*
X52705000Y-98679000D01*
X52959000Y-98679000D01*
X52959000Y-100271915D01*
X53181039Y-100393904D01*
X53263819Y-100376367D01*
X53756896Y-100106500D01*
X54109166Y-99668483D01*
X54267000Y-99129000D01*
X54267000Y-98679000D01*
X52959000Y-98679000D01*
X52705000Y-98679000D01*
X52685000Y-98679000D01*
X52685000Y-98425000D01*
X52705000Y-98425000D01*
X52705000Y-96832085D01*
X52959000Y-96832085D01*
X52959000Y-98425000D01*
X54267000Y-98425000D01*
X54267000Y-97975000D01*
X54262807Y-97960667D01*
X65621000Y-97960667D01*
X65621000Y-99143332D01*
X65704260Y-99561908D01*
X66021423Y-100036576D01*
X66496091Y-100353740D01*
X67056000Y-100465113D01*
X67615908Y-100353740D01*
X68090576Y-100036577D01*
X68328499Y-99680501D01*
X68671104Y-100106500D01*
X69164181Y-100376367D01*
X69246961Y-100393904D01*
X69469000Y-100271915D01*
X69469000Y-98679000D01*
X69723000Y-98679000D01*
X69723000Y-100271915D01*
X69945039Y-100393904D01*
X70027819Y-100376367D01*
X70520896Y-100106500D01*
X70873166Y-99668483D01*
X71031000Y-99129000D01*
X71031000Y-98679000D01*
X69723000Y-98679000D01*
X69469000Y-98679000D01*
X69449000Y-98679000D01*
X69449000Y-98425000D01*
X69469000Y-98425000D01*
X69469000Y-96832085D01*
X69723000Y-96832085D01*
X69723000Y-98425000D01*
X71031000Y-98425000D01*
X71031000Y-97975000D01*
X71026807Y-97960667D01*
X82385000Y-97960667D01*
X82385000Y-99143332D01*
X82468260Y-99561908D01*
X82785423Y-100036576D01*
X83260091Y-100353740D01*
X83820000Y-100465113D01*
X84379908Y-100353740D01*
X84854576Y-100036577D01*
X85092499Y-99680501D01*
X85435104Y-100106500D01*
X85928181Y-100376367D01*
X86010961Y-100393904D01*
X86233000Y-100271915D01*
X86233000Y-98679000D01*
X86487000Y-98679000D01*
X86487000Y-100271915D01*
X86709039Y-100393904D01*
X86791819Y-100376367D01*
X87284896Y-100106500D01*
X87637166Y-99668483D01*
X87795000Y-99129000D01*
X87795000Y-98679000D01*
X86487000Y-98679000D01*
X86233000Y-98679000D01*
X86213000Y-98679000D01*
X86213000Y-98425000D01*
X86233000Y-98425000D01*
X86233000Y-96832085D01*
X86487000Y-96832085D01*
X86487000Y-98425000D01*
X87795000Y-98425000D01*
X87795000Y-97975000D01*
X87637166Y-97435517D01*
X87284896Y-96997500D01*
X86791819Y-96727633D01*
X86709039Y-96710096D01*
X86487000Y-96832085D01*
X86233000Y-96832085D01*
X86010961Y-96710096D01*
X85928181Y-96727633D01*
X85435104Y-96997500D01*
X85092499Y-97423499D01*
X84854577Y-97067423D01*
X84379909Y-96750260D01*
X83820000Y-96638887D01*
X83260092Y-96750260D01*
X82785424Y-97067423D01*
X82468260Y-97542091D01*
X82385000Y-97960667D01*
X71026807Y-97960667D01*
X70873166Y-97435517D01*
X70520896Y-96997500D01*
X70027819Y-96727633D01*
X69945039Y-96710096D01*
X69723000Y-96832085D01*
X69469000Y-96832085D01*
X69246961Y-96710096D01*
X69164181Y-96727633D01*
X68671104Y-96997500D01*
X68328499Y-97423499D01*
X68090577Y-97067423D01*
X67615909Y-96750260D01*
X67056000Y-96638887D01*
X66496092Y-96750260D01*
X66021424Y-97067423D01*
X65704260Y-97542091D01*
X65621000Y-97960667D01*
X54262807Y-97960667D01*
X54109166Y-97435517D01*
X53756896Y-96997500D01*
X53263819Y-96727633D01*
X53181039Y-96710096D01*
X52959000Y-96832085D01*
X52705000Y-96832085D01*
X52660929Y-96807872D01*
X56252802Y-93216000D01*
X65336289Y-93216000D01*
X65453720Y-93333431D01*
X65834126Y-93491000D01*
X66245874Y-93491000D01*
X66626280Y-93333431D01*
X66917431Y-93042280D01*
X67075000Y-92661874D01*
X67075000Y-92250126D01*
X66917431Y-91869720D01*
X66626280Y-91578569D01*
X66245874Y-91421000D01*
X65834126Y-91421000D01*
X65453720Y-91578569D01*
X65336289Y-91696000D01*
X56012848Y-91696000D01*
X55938000Y-91681112D01*
X55863152Y-91696000D01*
X55863148Y-91696000D01*
X55689605Y-91730520D01*
X55641462Y-91740096D01*
X55454418Y-91865076D01*
X55390071Y-91908071D01*
X55347671Y-91971527D01*
X50615887Y-96703312D01*
X50292000Y-96638887D01*
X49732092Y-96750260D01*
X49257424Y-97067423D01*
X48940260Y-97542091D01*
X48857000Y-97960667D01*
X38227000Y-97960667D01*
X38227000Y-79312000D01*
X39611112Y-79312000D01*
X39626001Y-79386852D01*
X39626000Y-82475153D01*
X39611112Y-82550000D01*
X39626000Y-82624847D01*
X39626000Y-82624851D01*
X39670096Y-82846536D01*
X39838071Y-83097929D01*
X39901530Y-83140331D01*
X45637671Y-88876473D01*
X45680071Y-88939929D01*
X45931463Y-89107904D01*
X46153148Y-89152000D01*
X46153152Y-89152000D01*
X46228000Y-89166888D01*
X46302848Y-89152000D01*
X51954153Y-89152000D01*
X52029000Y-89166888D01*
X52103847Y-89152000D01*
X52103852Y-89152000D01*
X52325537Y-89107904D01*
X52576929Y-88939929D01*
X52619331Y-88876470D01*
X52753004Y-88742798D01*
X52897000Y-88771440D01*
X53407000Y-88771440D01*
X53627000Y-88727680D01*
X53847000Y-88771440D01*
X54357000Y-88771440D01*
X54589212Y-88725251D01*
X54670690Y-88759000D01*
X54766250Y-88759000D01*
X54925000Y-88600250D01*
X54925000Y-88416898D01*
X54955157Y-88371765D01*
X55004440Y-88124000D01*
X55004440Y-87901000D01*
X55179000Y-87901000D01*
X55179000Y-88600250D01*
X55337750Y-88759000D01*
X55433310Y-88759000D01*
X55666699Y-88662327D01*
X55845327Y-88483698D01*
X55942000Y-88250309D01*
X55942000Y-88059750D01*
X55783250Y-87901000D01*
X55179000Y-87901000D01*
X55004440Y-87901000D01*
X55004440Y-87424000D01*
X54955157Y-87176235D01*
X54925000Y-87131102D01*
X54925000Y-86947750D01*
X55179000Y-86947750D01*
X55179000Y-87647000D01*
X55783250Y-87647000D01*
X55942000Y-87488250D01*
X55942000Y-87297691D01*
X55845327Y-87064302D01*
X55666699Y-86885673D01*
X55433310Y-86789000D01*
X55337750Y-86789000D01*
X55179000Y-86947750D01*
X54925000Y-86947750D01*
X54766250Y-86789000D01*
X54758795Y-86789000D01*
X54649929Y-86626071D01*
X54586473Y-86583671D01*
X54132331Y-86129530D01*
X54089929Y-86066071D01*
X54012590Y-86014395D01*
X54054440Y-85804000D01*
X54054440Y-85196361D01*
X54150245Y-85100556D01*
X54149560Y-85104000D01*
X54149560Y-85804000D01*
X54198843Y-86051765D01*
X54339191Y-86261809D01*
X54549235Y-86402157D01*
X54797000Y-86451440D01*
X55307000Y-86451440D01*
X55554765Y-86402157D01*
X55764809Y-86261809D01*
X55796754Y-86214000D01*
X58232199Y-86214000D01*
X59869560Y-87851362D01*
X59869560Y-88124000D01*
X59918843Y-88371765D01*
X60059191Y-88581809D01*
X60269235Y-88722157D01*
X60517000Y-88771440D01*
X60972063Y-88771440D01*
X61006096Y-88942536D01*
X61174071Y-89193929D01*
X61237530Y-89236331D01*
X62909671Y-90908473D01*
X62952071Y-90971929D01*
X63015527Y-91014329D01*
X63203462Y-91139904D01*
X63251605Y-91149480D01*
X63425148Y-91184000D01*
X63425152Y-91184000D01*
X63500000Y-91198888D01*
X63574848Y-91184000D01*
X70416289Y-91184000D01*
X70533720Y-91301431D01*
X70914126Y-91459000D01*
X71325874Y-91459000D01*
X71706280Y-91301431D01*
X71823711Y-91184000D01*
X97340289Y-91184000D01*
X97457720Y-91301431D01*
X97838126Y-91459000D01*
X98249874Y-91459000D01*
X98630280Y-91301431D01*
X98921431Y-91010280D01*
X99079000Y-90629874D01*
X99079000Y-90218126D01*
X98921431Y-89837720D01*
X98630280Y-89546569D01*
X98249874Y-89389000D01*
X97838126Y-89389000D01*
X97457720Y-89546569D01*
X97340289Y-89664000D01*
X71823711Y-89664000D01*
X71706280Y-89546569D01*
X71325874Y-89389000D01*
X70914126Y-89389000D01*
X70533720Y-89546569D01*
X70416289Y-89664000D01*
X63814802Y-89664000D01*
X62799002Y-88648201D01*
X62799002Y-88600252D01*
X62957750Y-88759000D01*
X63053310Y-88759000D01*
X63286699Y-88662327D01*
X63465327Y-88483698D01*
X63562000Y-88250309D01*
X63562000Y-88059750D01*
X63403250Y-87901000D01*
X62799000Y-87901000D01*
X62799000Y-87921000D01*
X62624440Y-87921000D01*
X62624440Y-87424000D01*
X62575157Y-87176235D01*
X62545000Y-87131102D01*
X62545000Y-86947750D01*
X62386250Y-86789000D01*
X62290690Y-86789000D01*
X62209212Y-86822749D01*
X61977000Y-86776560D01*
X61467000Y-86776560D01*
X61247000Y-86820320D01*
X61027000Y-86776560D01*
X60944362Y-86776560D01*
X60619242Y-86451440D01*
X61027000Y-86451440D01*
X61274765Y-86402157D01*
X61484809Y-86261809D01*
X61625157Y-86051765D01*
X61674440Y-85804000D01*
X61674440Y-85104000D01*
X61769560Y-85104000D01*
X61769560Y-85804000D01*
X61818843Y-86051765D01*
X61959191Y-86261809D01*
X62169235Y-86402157D01*
X62417000Y-86451440D01*
X62499639Y-86451440D01*
X62897474Y-86849276D01*
X62799000Y-86947750D01*
X62799000Y-87647000D01*
X63403250Y-87647000D01*
X63549224Y-87501026D01*
X64924671Y-88876473D01*
X64967071Y-88939929D01*
X65218463Y-89107904D01*
X65440148Y-89152000D01*
X65440152Y-89152000D01*
X65514999Y-89166888D01*
X65589846Y-89152000D01*
X65844289Y-89152000D01*
X65961720Y-89269431D01*
X66342126Y-89427000D01*
X66753874Y-89427000D01*
X67134280Y-89269431D01*
X67425431Y-88978280D01*
X67583000Y-88597874D01*
X67583000Y-88186126D01*
X67425431Y-87805720D01*
X67134280Y-87514569D01*
X66915627Y-87424000D01*
X73077560Y-87424000D01*
X73077560Y-88124000D01*
X73126843Y-88371765D01*
X73267191Y-88581809D01*
X73477235Y-88722157D01*
X73725000Y-88771440D01*
X74235000Y-88771440D01*
X74455000Y-88727680D01*
X74675000Y-88771440D01*
X75185000Y-88771440D01*
X75417212Y-88725251D01*
X75498690Y-88759000D01*
X75594250Y-88759000D01*
X75753000Y-88600250D01*
X75753000Y-88416898D01*
X75783157Y-88371765D01*
X75832440Y-88124000D01*
X75832440Y-87901000D01*
X76007000Y-87901000D01*
X76007000Y-88600250D01*
X76165750Y-88759000D01*
X76261310Y-88759000D01*
X76494699Y-88662327D01*
X76673327Y-88483698D01*
X76770000Y-88250309D01*
X76770000Y-88059750D01*
X76611250Y-87901000D01*
X76007000Y-87901000D01*
X75832440Y-87901000D01*
X75832440Y-87628000D01*
X76007000Y-87628000D01*
X76007000Y-87647000D01*
X76611250Y-87647000D01*
X76630250Y-87628000D01*
X101285199Y-87628000D01*
X102872000Y-89214802D01*
X102872001Y-96883957D01*
X102597424Y-97067423D01*
X102280260Y-97542091D01*
X102197000Y-97960667D01*
X102197000Y-99143332D01*
X102280260Y-99561908D01*
X102597423Y-100036576D01*
X103072091Y-100353740D01*
X103632000Y-100465113D01*
X104191908Y-100353740D01*
X104666576Y-100036577D01*
X104904499Y-99680501D01*
X105247104Y-100106500D01*
X105740181Y-100376367D01*
X105822961Y-100393904D01*
X106045000Y-100271915D01*
X106045000Y-98679000D01*
X106299000Y-98679000D01*
X106299000Y-100271915D01*
X106521039Y-100393904D01*
X106603819Y-100376367D01*
X107096896Y-100106500D01*
X107449166Y-99668483D01*
X107607000Y-99129000D01*
X107607000Y-98679000D01*
X106299000Y-98679000D01*
X106045000Y-98679000D01*
X106025000Y-98679000D01*
X106025000Y-98425000D01*
X106045000Y-98425000D01*
X106045000Y-96832085D01*
X106299000Y-96832085D01*
X106299000Y-98425000D01*
X107607000Y-98425000D01*
X107607000Y-97975000D01*
X107449166Y-97435517D01*
X107096896Y-96997500D01*
X106603819Y-96727633D01*
X106521039Y-96710096D01*
X106299000Y-96832085D01*
X106045000Y-96832085D01*
X105822961Y-96710096D01*
X105740181Y-96727633D01*
X105247104Y-96997500D01*
X104904499Y-97423499D01*
X104666577Y-97067423D01*
X104392000Y-96883957D01*
X104392000Y-88974847D01*
X104406888Y-88900000D01*
X104392000Y-88825153D01*
X104392000Y-88825148D01*
X104347904Y-88603463D01*
X104179929Y-88352071D01*
X104116473Y-88309671D01*
X102190331Y-86383530D01*
X102147929Y-86320071D01*
X101896537Y-86152096D01*
X101674852Y-86108000D01*
X101674847Y-86108000D01*
X101600000Y-86093112D01*
X101525153Y-86108000D01*
X76695582Y-86108000D01*
X76733157Y-86051765D01*
X76782440Y-85804000D01*
X76782440Y-85104000D01*
X76769559Y-85039242D01*
X77530803Y-84278000D01*
X106487199Y-84278000D01*
X110577673Y-88368476D01*
X110620071Y-88431929D01*
X110683524Y-88474327D01*
X110683526Y-88474329D01*
X110770560Y-88532483D01*
X110770560Y-88734000D01*
X110819843Y-88981765D01*
X110960191Y-89191809D01*
X111170235Y-89332157D01*
X111418000Y-89381440D01*
X113118000Y-89381440D01*
X113365765Y-89332157D01*
X113575809Y-89191809D01*
X113716157Y-88981765D01*
X113765440Y-88734000D01*
X113765440Y-87034000D01*
X113716157Y-86786235D01*
X113575809Y-86576191D01*
X113365765Y-86435843D01*
X113320381Y-86426816D01*
X113338625Y-86414625D01*
X113666839Y-85923418D01*
X113782092Y-85344000D01*
X113666839Y-84764582D01*
X113338625Y-84273375D01*
X113040239Y-84074000D01*
X113338625Y-83874625D01*
X113666839Y-83383418D01*
X113782092Y-82804000D01*
X113666839Y-82224582D01*
X113338625Y-81733375D01*
X112847418Y-81405161D01*
X112414256Y-81319000D01*
X112121744Y-81319000D01*
X111688582Y-81405161D01*
X111197375Y-81733375D01*
X110869161Y-82224582D01*
X110753908Y-82804000D01*
X110869161Y-83383418D01*
X111197375Y-83874625D01*
X111495761Y-84074000D01*
X111197375Y-84273375D01*
X110869161Y-84764582D01*
X110753908Y-85344000D01*
X110869161Y-85923418D01*
X111197375Y-86414625D01*
X111215619Y-86426816D01*
X111170235Y-86435843D01*
X110960191Y-86576191D01*
X110950098Y-86591296D01*
X107392331Y-83033530D01*
X107349929Y-82970071D01*
X107098537Y-82802096D01*
X106876852Y-82758000D01*
X106876847Y-82758000D01*
X106802000Y-82743112D01*
X106727153Y-82758000D01*
X77290846Y-82758000D01*
X77215999Y-82743112D01*
X77141152Y-82758000D01*
X77141148Y-82758000D01*
X76919463Y-82802096D01*
X76856902Y-82843898D01*
X76731526Y-82927671D01*
X76731524Y-82927673D01*
X76668071Y-82970071D01*
X76625673Y-83033524D01*
X75395528Y-84263671D01*
X75332072Y-84306071D01*
X75164096Y-84557463D01*
X75137654Y-84690396D01*
X75026843Y-84856235D01*
X74977560Y-85104000D01*
X74977560Y-85804000D01*
X75026843Y-86051765D01*
X75075766Y-86124983D01*
X74939463Y-86152096D01*
X74688071Y-86320071D01*
X74645670Y-86383528D01*
X74445527Y-86583672D01*
X74382072Y-86626071D01*
X74276060Y-86784727D01*
X74235000Y-86776560D01*
X73725000Y-86776560D01*
X73477235Y-86825843D01*
X73267191Y-86966191D01*
X73126843Y-87176235D01*
X73077560Y-87424000D01*
X66915627Y-87424000D01*
X66753874Y-87357000D01*
X66342126Y-87357000D01*
X65961720Y-87514569D01*
X65844289Y-87632000D01*
X65829802Y-87632000D01*
X63574440Y-85376639D01*
X63574440Y-85104000D01*
X73077560Y-85104000D01*
X73077560Y-85804000D01*
X73126843Y-86051765D01*
X73267191Y-86261809D01*
X73477235Y-86402157D01*
X73725000Y-86451440D01*
X74235000Y-86451440D01*
X74482765Y-86402157D01*
X74692809Y-86261809D01*
X74833157Y-86051765D01*
X74882440Y-85804000D01*
X74882440Y-85564728D01*
X74883904Y-85562537D01*
X74928000Y-85340852D01*
X74928000Y-85340848D01*
X74942888Y-85266001D01*
X74928000Y-85191154D01*
X74928000Y-84523711D01*
X75045431Y-84406280D01*
X75203000Y-84025874D01*
X75203000Y-83614126D01*
X75045431Y-83233720D01*
X74754280Y-82942569D01*
X74373874Y-82785000D01*
X73962126Y-82785000D01*
X73581720Y-82942569D01*
X73290569Y-83233720D01*
X73133000Y-83614126D01*
X73133000Y-84025874D01*
X73290569Y-84406280D01*
X73408000Y-84523711D01*
X73408001Y-84552104D01*
X73267191Y-84646191D01*
X73126843Y-84856235D01*
X73077560Y-85104000D01*
X63574440Y-85104000D01*
X63525157Y-84856235D01*
X63384809Y-84646191D01*
X63174765Y-84505843D01*
X62927000Y-84456560D01*
X62417000Y-84456560D01*
X62169235Y-84505843D01*
X61959191Y-84646191D01*
X61818843Y-84856235D01*
X61769560Y-85104000D01*
X61674440Y-85104000D01*
X61625157Y-84856235D01*
X61532000Y-84716817D01*
X61532000Y-84214848D01*
X61546888Y-84140000D01*
X61532000Y-84065152D01*
X61532000Y-84065148D01*
X61487904Y-83843463D01*
X61487904Y-83843462D01*
X61362329Y-83655527D01*
X61319929Y-83592071D01*
X61256473Y-83549671D01*
X60979000Y-83272198D01*
X60979000Y-83106126D01*
X60821431Y-82725720D01*
X60530280Y-82434569D01*
X60149874Y-82277000D01*
X59738126Y-82277000D01*
X59357720Y-82434569D01*
X59066569Y-82725720D01*
X58909000Y-83106126D01*
X58909000Y-83517874D01*
X59066569Y-83898280D01*
X59357720Y-84189431D01*
X59738126Y-84347000D01*
X59904198Y-84347000D01*
X60012000Y-84454802D01*
X60012000Y-84716816D01*
X59918843Y-84856235D01*
X59869560Y-85104000D01*
X59869560Y-85701759D01*
X59137331Y-84969530D01*
X59094929Y-84906071D01*
X58843537Y-84738096D01*
X58621852Y-84694000D01*
X58621847Y-84694000D01*
X58547000Y-84679112D01*
X58472153Y-84694000D01*
X55796754Y-84694000D01*
X55764809Y-84646191D01*
X55554765Y-84505843D01*
X55307000Y-84456560D01*
X54797000Y-84456560D01*
X54793556Y-84457245D01*
X56935802Y-82315000D01*
X57101874Y-82315000D01*
X57482280Y-82157431D01*
X57773431Y-81866280D01*
X57931000Y-81485874D01*
X57931000Y-81074126D01*
X57773431Y-80693720D01*
X57482280Y-80402569D01*
X57101874Y-80245000D01*
X56690126Y-80245000D01*
X56309720Y-80402569D01*
X56018569Y-80693720D01*
X55861000Y-81074126D01*
X55861000Y-81240198D01*
X52667530Y-84433669D01*
X52604071Y-84476071D01*
X52531705Y-84584375D01*
X52439191Y-84646191D01*
X52298843Y-84856235D01*
X52249560Y-85104000D01*
X52249560Y-85804000D01*
X52259506Y-85854000D01*
X50606802Y-85854000D01*
X48004000Y-83251199D01*
X48004000Y-78173711D01*
X48121431Y-78056280D01*
X48279000Y-77675874D01*
X48279000Y-77278000D01*
X50982199Y-77278000D01*
X52056673Y-78352476D01*
X52099071Y-78415929D01*
X52162524Y-78458327D01*
X52162526Y-78458329D01*
X52232375Y-78505000D01*
X52350463Y-78583904D01*
X52381969Y-78590171D01*
X52439191Y-78675809D01*
X52649235Y-78816157D01*
X52897000Y-78865440D01*
X53407000Y-78865440D01*
X53627000Y-78821680D01*
X53847000Y-78865440D01*
X54357000Y-78865440D01*
X54589212Y-78819251D01*
X54670690Y-78853000D01*
X54766250Y-78853000D01*
X54925000Y-78694250D01*
X54925000Y-78510898D01*
X54955157Y-78465765D01*
X55004440Y-78218000D01*
X55004440Y-77995000D01*
X55179000Y-77995000D01*
X55179000Y-78694250D01*
X55337750Y-78853000D01*
X55433310Y-78853000D01*
X55666699Y-78756327D01*
X55845327Y-78577698D01*
X55942000Y-78344309D01*
X55942000Y-78153750D01*
X55783250Y-77995000D01*
X55179000Y-77995000D01*
X55004440Y-77995000D01*
X55004440Y-77721000D01*
X55179000Y-77721000D01*
X55179000Y-77741000D01*
X55783250Y-77741000D01*
X55942000Y-77582250D01*
X55942000Y-77468000D01*
X56073199Y-77468000D01*
X56877000Y-78271802D01*
X56877000Y-78437874D01*
X57034569Y-78818280D01*
X57325720Y-79109431D01*
X57706126Y-79267000D01*
X58117874Y-79267000D01*
X58498280Y-79109431D01*
X58565585Y-79042126D01*
X58909000Y-79042126D01*
X58909000Y-79453874D01*
X59066569Y-79834280D01*
X59357720Y-80125431D01*
X59738126Y-80283000D01*
X60149874Y-80283000D01*
X60433000Y-80165726D01*
X60433000Y-80469874D01*
X60590569Y-80850280D01*
X60881720Y-81141431D01*
X61262126Y-81299000D01*
X61673874Y-81299000D01*
X62054280Y-81141431D01*
X62345431Y-80850280D01*
X62503000Y-80469874D01*
X62503000Y-80058126D01*
X62345431Y-79677720D01*
X62228000Y-79560289D01*
X62228000Y-78757250D01*
X62291000Y-78694250D01*
X62291000Y-78510898D01*
X62321157Y-78465765D01*
X62370440Y-78218000D01*
X62370440Y-77518000D01*
X62321157Y-77270235D01*
X62291000Y-77225102D01*
X62291000Y-77041750D01*
X62132250Y-76883000D01*
X62036690Y-76883000D01*
X61955212Y-76916749D01*
X61723000Y-76870560D01*
X61213000Y-76870560D01*
X60993000Y-76914320D01*
X60773000Y-76870560D01*
X60263000Y-76870560D01*
X60015235Y-76919843D01*
X59805191Y-77060191D01*
X59664843Y-77270235D01*
X59615560Y-77518000D01*
X59615560Y-77695639D01*
X59459528Y-77851671D01*
X59396072Y-77894071D01*
X59353672Y-77957527D01*
X59353671Y-77957528D01*
X59287687Y-78056280D01*
X59228097Y-78145463D01*
X59184000Y-78367148D01*
X59184000Y-78367153D01*
X59169112Y-78442000D01*
X59184000Y-78516847D01*
X59184000Y-78544289D01*
X59066569Y-78661720D01*
X58909000Y-79042126D01*
X58565585Y-79042126D01*
X58789431Y-78818280D01*
X58947000Y-78437874D01*
X58947000Y-78026126D01*
X58789431Y-77645720D01*
X58498280Y-77354569D01*
X58117874Y-77197000D01*
X57951802Y-77197000D01*
X56978331Y-76223530D01*
X56935929Y-76160071D01*
X56684537Y-75992096D01*
X56462852Y-75948000D01*
X56462847Y-75948000D01*
X56388000Y-75933112D01*
X56313153Y-75948000D01*
X55944494Y-75948000D01*
X55954440Y-75898000D01*
X55954440Y-75198000D01*
X59615560Y-75198000D01*
X59615560Y-75898000D01*
X59664843Y-76145765D01*
X59805191Y-76355809D01*
X60015235Y-76496157D01*
X60263000Y-76545440D01*
X60773000Y-76545440D01*
X61020765Y-76496157D01*
X61230809Y-76355809D01*
X61371157Y-76145765D01*
X61420440Y-75898000D01*
X61420440Y-75198000D01*
X61371157Y-74950235D01*
X61278000Y-74810817D01*
X61278000Y-74416801D01*
X61507802Y-74187000D01*
X61673874Y-74187000D01*
X62054280Y-74029431D01*
X62345431Y-73738280D01*
X62503000Y-73357874D01*
X62503000Y-72946126D01*
X62345431Y-72565720D01*
X62054280Y-72274569D01*
X61673874Y-72117000D01*
X61262126Y-72117000D01*
X60881720Y-72274569D01*
X60590569Y-72565720D01*
X60433000Y-72946126D01*
X60433000Y-73112198D01*
X59967529Y-73577670D01*
X59904071Y-73620071D01*
X59825087Y-73738280D01*
X59736097Y-73871463D01*
X59677112Y-74168000D01*
X59736097Y-74464537D01*
X59758000Y-74497318D01*
X59758000Y-74810816D01*
X59664843Y-74950235D01*
X59615560Y-75198000D01*
X55954440Y-75198000D01*
X55905157Y-74950235D01*
X55764809Y-74740191D01*
X55554765Y-74599843D01*
X55307000Y-74550560D01*
X54797000Y-74550560D01*
X54549235Y-74599843D01*
X54339191Y-74740191D01*
X54198843Y-74950235D01*
X54149560Y-75198000D01*
X54149560Y-75898000D01*
X54198843Y-76145765D01*
X54309654Y-76311604D01*
X54331815Y-76423013D01*
X54132331Y-76223530D01*
X54089929Y-76160071D01*
X54012590Y-76108395D01*
X54054440Y-75898000D01*
X54054440Y-75658728D01*
X54055904Y-75656537D01*
X54100000Y-75434852D01*
X54100000Y-75434848D01*
X54114888Y-75360001D01*
X54100000Y-75285154D01*
X54100000Y-74363711D01*
X54217431Y-74246280D01*
X54375000Y-73865874D01*
X54375000Y-73454126D01*
X54217431Y-73073720D01*
X53926280Y-72782569D01*
X53545874Y-72625000D01*
X53134126Y-72625000D01*
X52753720Y-72782569D01*
X52462569Y-73073720D01*
X52305000Y-73454126D01*
X52305000Y-73865874D01*
X52462569Y-74246280D01*
X52580000Y-74363711D01*
X52580001Y-74646104D01*
X52439191Y-74740191D01*
X52298843Y-74950235D01*
X52249560Y-75198000D01*
X52249560Y-75649758D01*
X49877801Y-73278000D01*
X50851153Y-73278000D01*
X50926000Y-73292888D01*
X51000847Y-73278000D01*
X51000852Y-73278000D01*
X51222537Y-73233904D01*
X51473929Y-73065929D01*
X51516331Y-73002470D01*
X54586473Y-69932329D01*
X54649929Y-69889929D01*
X54817904Y-69638537D01*
X54862000Y-69416852D01*
X54862000Y-69416848D01*
X54876888Y-69342001D01*
X54862000Y-69267154D01*
X54862000Y-68597250D01*
X54925000Y-68534250D01*
X54925000Y-68350898D01*
X54955157Y-68305765D01*
X55004440Y-68058000D01*
X55004440Y-67835000D01*
X55179000Y-67835000D01*
X55179000Y-68534250D01*
X55337750Y-68693000D01*
X55433310Y-68693000D01*
X55666699Y-68596327D01*
X55845327Y-68417698D01*
X55942000Y-68184309D01*
X55942000Y-67993750D01*
X55783250Y-67835000D01*
X55179000Y-67835000D01*
X55004440Y-67835000D01*
X55004440Y-67561000D01*
X55179000Y-67561000D01*
X55179000Y-67581000D01*
X55783250Y-67581000D01*
X55942000Y-67422250D01*
X55942000Y-67308000D01*
X57405763Y-67308000D01*
X57385000Y-67358126D01*
X57385000Y-67769874D01*
X57542569Y-68150280D01*
X57833720Y-68441431D01*
X58214126Y-68599000D01*
X58625874Y-68599000D01*
X59006280Y-68441431D01*
X59297431Y-68150280D01*
X59361560Y-67995459D01*
X59361560Y-68058000D01*
X59410843Y-68305765D01*
X59551191Y-68515809D01*
X59761235Y-68656157D01*
X60009000Y-68705440D01*
X60454001Y-68705440D01*
X60454000Y-70283153D01*
X60439112Y-70358000D01*
X60454000Y-70432847D01*
X60454000Y-70432851D01*
X60498096Y-70654536D01*
X60666071Y-70905929D01*
X60729530Y-70948331D01*
X64772001Y-74990803D01*
X64772000Y-76512289D01*
X64770000Y-76514289D01*
X64594280Y-76338569D01*
X64213874Y-76181000D01*
X64125802Y-76181000D01*
X63320440Y-75375639D01*
X63320440Y-75198000D01*
X63271157Y-74950235D01*
X63130809Y-74740191D01*
X62920765Y-74599843D01*
X62673000Y-74550560D01*
X62163000Y-74550560D01*
X61915235Y-74599843D01*
X61705191Y-74740191D01*
X61564843Y-74950235D01*
X61515560Y-75198000D01*
X61515560Y-75898000D01*
X61564843Y-76145765D01*
X61705191Y-76355809D01*
X61915235Y-76496157D01*
X62163000Y-76545440D01*
X62340639Y-76545440D01*
X62690974Y-76895776D01*
X62545000Y-77041750D01*
X62545000Y-77741000D01*
X62565000Y-77741000D01*
X62565000Y-77995000D01*
X62545000Y-77995000D01*
X62545000Y-78694250D01*
X62703750Y-78853000D01*
X62799310Y-78853000D01*
X63032699Y-78756327D01*
X63211327Y-78577698D01*
X63308000Y-78344309D01*
X63308000Y-78153750D01*
X63149252Y-77995002D01*
X63308000Y-77995002D01*
X63308000Y-77979711D01*
X63421720Y-78093431D01*
X63802126Y-78251000D01*
X64213874Y-78251000D01*
X64594280Y-78093431D01*
X64770000Y-77917711D01*
X64945720Y-78093431D01*
X65326126Y-78251000D01*
X65737874Y-78251000D01*
X66118280Y-78093431D01*
X66409431Y-77802280D01*
X66567000Y-77421874D01*
X66567000Y-77010126D01*
X66409431Y-76629720D01*
X66292000Y-76512289D01*
X66292000Y-75375711D01*
X66469720Y-75553431D01*
X66850126Y-75711000D01*
X67261874Y-75711000D01*
X67642280Y-75553431D01*
X67933431Y-75262280D01*
X68091000Y-74881874D01*
X68091000Y-74470126D01*
X68067647Y-74413745D01*
X102081861Y-74413745D01*
X102155995Y-74659864D01*
X102693223Y-74852965D01*
X103263454Y-74825778D01*
X103664005Y-74659864D01*
X103738139Y-74413745D01*
X102910000Y-73585605D01*
X102081861Y-74413745D01*
X68067647Y-74413745D01*
X67933431Y-74089720D01*
X67816000Y-73972289D01*
X67816000Y-73851711D01*
X67993720Y-74029431D01*
X68374126Y-74187000D01*
X68785874Y-74187000D01*
X69166280Y-74029431D01*
X69457431Y-73738280D01*
X69615000Y-73357874D01*
X69615000Y-73189223D01*
X101463035Y-73189223D01*
X101490222Y-73759454D01*
X101656136Y-74160005D01*
X101902255Y-74234139D01*
X102730395Y-73406000D01*
X101902255Y-72577861D01*
X101656136Y-72651995D01*
X101463035Y-73189223D01*
X69615000Y-73189223D01*
X69615000Y-72946126D01*
X69457431Y-72565720D01*
X69289966Y-72398255D01*
X102081861Y-72398255D01*
X102910000Y-73226395D01*
X103738139Y-72398255D01*
X103664005Y-72152136D01*
X103126777Y-71959035D01*
X102556546Y-71986222D01*
X102155995Y-72152136D01*
X102081861Y-72398255D01*
X69289966Y-72398255D01*
X69166280Y-72274569D01*
X68785874Y-72117000D01*
X68374126Y-72117000D01*
X68091000Y-72234274D01*
X68091000Y-71930126D01*
X67933431Y-71549720D01*
X67642280Y-71258569D01*
X67261874Y-71101000D01*
X66850126Y-71101000D01*
X66469720Y-71258569D01*
X66178569Y-71549720D01*
X66021000Y-71930126D01*
X66021000Y-72341874D01*
X66178569Y-72722280D01*
X66296001Y-72839712D01*
X66296000Y-73972289D01*
X66178569Y-74089720D01*
X66131015Y-74204526D01*
X66079929Y-74128071D01*
X66016473Y-74085671D01*
X61974000Y-70043199D01*
X61974000Y-68597250D01*
X62037000Y-68534250D01*
X62037000Y-68350898D01*
X62067157Y-68305765D01*
X62116440Y-68058000D01*
X62116440Y-67835000D01*
X62291000Y-67835000D01*
X62291000Y-68534250D01*
X62449750Y-68693000D01*
X62545310Y-68693000D01*
X62778699Y-68596327D01*
X62957327Y-68417698D01*
X63054000Y-68184309D01*
X63054000Y-67993750D01*
X62895250Y-67835000D01*
X62291000Y-67835000D01*
X62116440Y-67835000D01*
X62116440Y-67358000D01*
X62067157Y-67110235D01*
X62037000Y-67065102D01*
X62037000Y-66881750D01*
X61878250Y-66723000D01*
X61782690Y-66723000D01*
X61701212Y-66756749D01*
X61691904Y-66754898D01*
X61952473Y-66494329D01*
X62015929Y-66451929D01*
X62060356Y-66385440D01*
X62086639Y-66385440D01*
X62436974Y-66735776D01*
X62291000Y-66881750D01*
X62291000Y-67581000D01*
X62895250Y-67581000D01*
X63010664Y-67465586D01*
X63294126Y-67583000D01*
X63705874Y-67583000D01*
X64086280Y-67425431D01*
X64377431Y-67134280D01*
X64535000Y-66753874D01*
X64535000Y-66726000D01*
X79286560Y-66726000D01*
X79286560Y-69926000D01*
X79335843Y-70173765D01*
X79476191Y-70383809D01*
X79686235Y-70524157D01*
X79934000Y-70573440D01*
X83134000Y-70573440D01*
X83381765Y-70524157D01*
X83591809Y-70383809D01*
X83732157Y-70173765D01*
X83781440Y-69926000D01*
X83781440Y-68800503D01*
X94589950Y-68800503D01*
X94894114Y-69534836D01*
X95499813Y-70162220D01*
X96299496Y-70510056D01*
X96647000Y-70398645D01*
X96647000Y-68453000D01*
X96901000Y-68453000D01*
X96901000Y-70398645D01*
X97248504Y-70510056D01*
X98048187Y-70162220D01*
X98653886Y-69534836D01*
X98958050Y-68800503D01*
X98846362Y-68453000D01*
X96901000Y-68453000D01*
X96647000Y-68453000D01*
X94701638Y-68453000D01*
X94589950Y-68800503D01*
X83781440Y-68800503D01*
X83781440Y-67851497D01*
X94589950Y-67851497D01*
X94701638Y-68199000D01*
X96647000Y-68199000D01*
X96647000Y-66253355D01*
X96901000Y-66253355D01*
X96901000Y-68199000D01*
X98846362Y-68199000D01*
X98958050Y-67851497D01*
X98653886Y-67117164D01*
X98048187Y-66489780D01*
X97248504Y-66141944D01*
X96901000Y-66253355D01*
X96647000Y-66253355D01*
X96299496Y-66141944D01*
X95499813Y-66489780D01*
X94894114Y-67117164D01*
X94589950Y-67851497D01*
X83781440Y-67851497D01*
X83781440Y-66726000D01*
X83732157Y-66478235D01*
X83591809Y-66268191D01*
X83381765Y-66127843D01*
X83134000Y-66078560D01*
X82294000Y-66078560D01*
X82294000Y-60004801D01*
X82746801Y-59552000D01*
X85828560Y-59552000D01*
X85828560Y-61352000D01*
X85877843Y-61599765D01*
X86018191Y-61809809D01*
X86228235Y-61950157D01*
X86476000Y-61999440D01*
X88276000Y-61999440D01*
X88523765Y-61950157D01*
X88733809Y-61809809D01*
X88874157Y-61599765D01*
X88923440Y-61352000D01*
X88923440Y-60816740D01*
X89284964Y-60816740D01*
X89463760Y-61248417D01*
X89868424Y-61689966D01*
X90411258Y-61943046D01*
X90649000Y-61822997D01*
X90649000Y-60579000D01*
X90903000Y-60579000D01*
X90903000Y-61822997D01*
X91140742Y-61943046D01*
X91683576Y-61689966D01*
X92088240Y-61248417D01*
X92267036Y-60816740D01*
X92684964Y-60816740D01*
X92863760Y-61248417D01*
X93268424Y-61689966D01*
X93811258Y-61943046D01*
X94049000Y-61822997D01*
X94049000Y-60579000D01*
X94303000Y-60579000D01*
X94303000Y-61822997D01*
X94540742Y-61943046D01*
X95083576Y-61689966D01*
X95488240Y-61248417D01*
X95667036Y-60816740D01*
X95546378Y-60579000D01*
X94303000Y-60579000D01*
X94049000Y-60579000D01*
X92805622Y-60579000D01*
X92684964Y-60816740D01*
X92267036Y-60816740D01*
X92146378Y-60579000D01*
X90903000Y-60579000D01*
X90649000Y-60579000D01*
X89405622Y-60579000D01*
X89284964Y-60816740D01*
X88923440Y-60816740D01*
X88923440Y-60087260D01*
X89284964Y-60087260D01*
X89405622Y-60325000D01*
X90649000Y-60325000D01*
X90649000Y-59081003D01*
X90903000Y-59081003D01*
X90903000Y-60325000D01*
X92146378Y-60325000D01*
X92267036Y-60087260D01*
X92684964Y-60087260D01*
X92805622Y-60325000D01*
X94049000Y-60325000D01*
X94049000Y-59081003D01*
X94303000Y-59081003D01*
X94303000Y-60325000D01*
X95546378Y-60325000D01*
X95667036Y-60087260D01*
X95488240Y-59655583D01*
X95418051Y-59578996D01*
X101797000Y-59578996D01*
X101797000Y-60309004D01*
X102076362Y-60983444D01*
X102592556Y-61499638D01*
X103266996Y-61779000D01*
X103997004Y-61779000D01*
X104671444Y-61499638D01*
X105187638Y-60983444D01*
X105467000Y-60309004D01*
X105467000Y-59578996D01*
X105187638Y-58904556D01*
X104671444Y-58388362D01*
X103997004Y-58109000D01*
X103266996Y-58109000D01*
X102592556Y-58388362D01*
X102076362Y-58904556D01*
X101797000Y-59578996D01*
X95418051Y-59578996D01*
X95083576Y-59214034D01*
X94540742Y-58960954D01*
X94303000Y-59081003D01*
X94049000Y-59081003D01*
X93811258Y-58960954D01*
X93268424Y-59214034D01*
X92863760Y-59655583D01*
X92684964Y-60087260D01*
X92267036Y-60087260D01*
X92088240Y-59655583D01*
X91683576Y-59214034D01*
X91140742Y-58960954D01*
X90903000Y-59081003D01*
X90649000Y-59081003D01*
X90411258Y-58960954D01*
X89868424Y-59214034D01*
X89463760Y-59655583D01*
X89284964Y-60087260D01*
X88923440Y-60087260D01*
X88923440Y-59552000D01*
X88874157Y-59304235D01*
X88733809Y-59094191D01*
X88523765Y-58953843D01*
X88276000Y-58904560D01*
X86476000Y-58904560D01*
X86228235Y-58953843D01*
X86018191Y-59094191D01*
X85877843Y-59304235D01*
X85828560Y-59552000D01*
X82746801Y-59552000D01*
X86166802Y-56132000D01*
X87180289Y-56132000D01*
X87297720Y-56249431D01*
X87587056Y-56369278D01*
X87510928Y-56752000D01*
X87630062Y-57350927D01*
X87969327Y-57858673D01*
X88477073Y-58197938D01*
X88924818Y-58287000D01*
X89227182Y-58287000D01*
X89674927Y-58197938D01*
X90182673Y-57858673D01*
X90521938Y-57350927D01*
X90641072Y-56752000D01*
X90521938Y-56153073D01*
X90182673Y-55645327D01*
X89674927Y-55306062D01*
X89227182Y-55217000D01*
X88924818Y-55217000D01*
X88919000Y-55218157D01*
X88919000Y-55166126D01*
X88761431Y-54785720D01*
X88470280Y-54494569D01*
X88089874Y-54337000D01*
X87678126Y-54337000D01*
X87297720Y-54494569D01*
X87180289Y-54612000D01*
X85926846Y-54612000D01*
X85851999Y-54597112D01*
X85777152Y-54612000D01*
X85777148Y-54612000D01*
X85555463Y-54656096D01*
X85304071Y-54824071D01*
X85261671Y-54887527D01*
X81049528Y-59099671D01*
X80986072Y-59142071D01*
X80943672Y-59205527D01*
X80943671Y-59205528D01*
X80818097Y-59393463D01*
X80759112Y-59690000D01*
X80774001Y-59764852D01*
X80774000Y-66078560D01*
X79934000Y-66078560D01*
X79686235Y-66127843D01*
X79476191Y-66268191D01*
X79335843Y-66478235D01*
X79286560Y-66726000D01*
X64535000Y-66726000D01*
X64535000Y-66342126D01*
X64377431Y-65961720D01*
X64086280Y-65670569D01*
X63705874Y-65513000D01*
X63363802Y-65513000D01*
X63066440Y-65215639D01*
X63066440Y-65038000D01*
X63017157Y-64790235D01*
X62876809Y-64580191D01*
X62666765Y-64439843D01*
X62419000Y-64390560D01*
X62217937Y-64390560D01*
X62183904Y-64219463D01*
X62015929Y-63968071D01*
X61952473Y-63925671D01*
X61042331Y-63015530D01*
X60999929Y-62952071D01*
X60748537Y-62784096D01*
X60526852Y-62740000D01*
X60526847Y-62740000D01*
X60452000Y-62725112D01*
X60377153Y-62740000D01*
X56414846Y-62740000D01*
X56339999Y-62725112D01*
X56265152Y-62740000D01*
X56265148Y-62740000D01*
X56043463Y-62784096D01*
X55792071Y-62952071D01*
X55749671Y-63015527D01*
X54567528Y-64197671D01*
X54504072Y-64240071D01*
X54336096Y-64491463D01*
X54309654Y-64624396D01*
X54198843Y-64790235D01*
X54149560Y-65038000D01*
X54149560Y-65405758D01*
X54054440Y-65310638D01*
X54054440Y-65038000D01*
X54005157Y-64790235D01*
X53864809Y-64580191D01*
X53654765Y-64439843D01*
X53407000Y-64390560D01*
X52897000Y-64390560D01*
X52649235Y-64439843D01*
X52439191Y-64580191D01*
X52298843Y-64790235D01*
X52249560Y-65038000D01*
X52249560Y-65513000D01*
X52118126Y-65513000D01*
X51737720Y-65670569D01*
X51446569Y-65961720D01*
X51289000Y-66342126D01*
X51289000Y-66753874D01*
X51446569Y-67134280D01*
X51564000Y-67251711D01*
X51564000Y-67310153D01*
X51549112Y-67385000D01*
X51564000Y-67459847D01*
X51564000Y-67459851D01*
X51608096Y-67681536D01*
X51776071Y-67932929D01*
X51839530Y-67975331D01*
X52056669Y-68192470D01*
X52099071Y-68255929D01*
X52350463Y-68423904D01*
X52381969Y-68430171D01*
X52439191Y-68515809D01*
X52649235Y-68656157D01*
X52897000Y-68705440D01*
X53342001Y-68705440D01*
X53342001Y-69027197D01*
X50611199Y-71758000D01*
X46166553Y-71758000D01*
X45879571Y-71471018D01*
X45846325Y-71457247D01*
X45863130Y-71380735D01*
X45180000Y-70697605D01*
X44496870Y-71380735D01*
X44513675Y-71457247D01*
X44480429Y-71471018D01*
X44180000Y-71771447D01*
X43926553Y-71518000D01*
X44226982Y-71217571D01*
X44240753Y-71184325D01*
X44317265Y-71201130D01*
X45000395Y-70518000D01*
X45359605Y-70518000D01*
X46042735Y-71201130D01*
X46268164Y-71151617D01*
X46427807Y-70686964D01*
X46397482Y-70196587D01*
X46268164Y-69884383D01*
X46042735Y-69834870D01*
X45359605Y-70518000D01*
X45000395Y-70518000D01*
X44317265Y-69834870D01*
X44240753Y-69851675D01*
X44226982Y-69818429D01*
X43879571Y-69471018D01*
X43846325Y-69457247D01*
X43863130Y-69380735D01*
X44496870Y-69380735D01*
X44527019Y-69518000D01*
X44496870Y-69655265D01*
X45180000Y-70338395D01*
X45863130Y-69655265D01*
X45832981Y-69518000D01*
X45863130Y-69380735D01*
X45180000Y-68697605D01*
X44496870Y-69380735D01*
X43863130Y-69380735D01*
X43180000Y-68697605D01*
X42496870Y-69380735D01*
X42513675Y-69457247D01*
X42480429Y-69471018D01*
X42133018Y-69818429D01*
X41945000Y-70272343D01*
X41945000Y-70763657D01*
X42133018Y-71217571D01*
X42433447Y-71518000D01*
X42133018Y-71818429D01*
X41945000Y-72272343D01*
X41945000Y-72763657D01*
X42133018Y-73217571D01*
X42433447Y-73518000D01*
X42133018Y-73818429D01*
X41945000Y-74272343D01*
X41945000Y-74763657D01*
X42133018Y-75217571D01*
X42433447Y-75518000D01*
X42133018Y-75818429D01*
X41945000Y-76272343D01*
X41945000Y-76678198D01*
X39901528Y-78721671D01*
X39838072Y-78764071D01*
X39795672Y-78827527D01*
X39795671Y-78827528D01*
X39670097Y-79015463D01*
X39611112Y-79312000D01*
X38227000Y-79312000D01*
X38227000Y-68349036D01*
X41932193Y-68349036D01*
X41962518Y-68839413D01*
X42091836Y-69151617D01*
X42317265Y-69201130D01*
X43000395Y-68518000D01*
X43359605Y-68518000D01*
X44042735Y-69201130D01*
X44180000Y-69170981D01*
X44317265Y-69201130D01*
X45000395Y-68518000D01*
X45359605Y-68518000D01*
X46042735Y-69201130D01*
X46268164Y-69151617D01*
X46427807Y-68686964D01*
X46397482Y-68196587D01*
X46268164Y-67884383D01*
X46042735Y-67834870D01*
X45359605Y-68518000D01*
X45000395Y-68518000D01*
X44317265Y-67834870D01*
X44180000Y-67865019D01*
X44042735Y-67834870D01*
X43359605Y-68518000D01*
X43000395Y-68518000D01*
X42317265Y-67834870D01*
X42091836Y-67884383D01*
X41932193Y-68349036D01*
X38227000Y-68349036D01*
X38227000Y-67655265D01*
X42496870Y-67655265D01*
X43180000Y-68338395D01*
X43863130Y-67655265D01*
X44496870Y-67655265D01*
X45180000Y-68338395D01*
X45863130Y-67655265D01*
X45813617Y-67429836D01*
X45348964Y-67270193D01*
X44858587Y-67300518D01*
X44546383Y-67429836D01*
X44496870Y-67655265D01*
X43863130Y-67655265D01*
X43813617Y-67429836D01*
X43348964Y-67270193D01*
X42858587Y-67300518D01*
X42546383Y-67429836D01*
X42496870Y-67655265D01*
X38227000Y-67655265D01*
X38227000Y-62611000D01*
X42672000Y-62611000D01*
X42720601Y-62601333D01*
X42761803Y-62573803D01*
X51868606Y-53467000D01*
X68505830Y-53467000D01*
X68017375Y-53793375D01*
G04 #@! TD*
M02*
