M48
;DRILL file {KiCad 5.0.2-bee76a0~70~ubuntu18.04.1} date Sun 10 Mar 2019 14:25:13 GMT
;FORMAT={-:-/ absolute / metric / decimal}
FMAT,2
METRIC,TZ
T1C0.400
T2C0.750
T3C0.800
T4C0.890
T5C1.000
T6C1.100
T7C1.200
T8C1.600
T9C2.010
T10C3.200
%
G90
G05
T1
X41.148Y-81.661
X51.562Y-69.342
X52.578Y-81.788
X52.578Y-84.582
X53.213Y-64.262
X58.039Y-78.232
X58.166Y-59.309
X58.42Y-70.104
X61.468Y-64.008
X61.976Y-81.534
X62.103Y-71.628
X62.103Y-74.041
X62.611Y-58.674
X65.786Y-71.247
X68.58Y-73.152
X75.184Y-79.502
X87.884Y-55.372
T2
X43.18Y-68.518
X43.18Y-70.518
X43.18Y-72.518
X43.18Y-74.518
X43.18Y-76.518
X43.18Y-78.518
X43.18Y-80.518
X45.18Y-68.518
X45.18Y-70.518
X45.18Y-72.518
X45.18Y-74.518
X45.18Y-76.518
X45.18Y-78.518
X45.18Y-80.518
T3
X102.91Y-73.406
X105.41Y-73.406
X87.884Y-79.248
X90.424Y-79.248
X78.994Y-55.372
X78.994Y-57.872
T4
X86.868Y-93.472
X89.408Y-93.472
X108.204Y-93.472
X110.744Y-93.472
X68.58Y-93.472
X71.12Y-93.472
X50.292Y-93.472
X52.832Y-93.472
T5
X116.332Y-67.056
X116.332Y-69.596
X116.332Y-72.136
T6
X87.376Y-60.452
X89.076Y-56.752
X90.776Y-60.452
X92.476Y-56.752
X94.176Y-60.452
T7
X103.632Y-54.944
X103.632Y-59.944
T8
X81.534Y-68.326
X96.774Y-68.326
T9
X81.788Y-98.552
X91.948Y-98.552
X103.124Y-98.552
X113.284Y-98.552
X63.5Y-98.552
X73.66Y-98.552
X45.212Y-98.552
X55.372Y-98.552
T10
X43.688Y-56.388
X116.84Y-56.388
X41.148Y-56.388
X114.3Y-56.388
T0
M30
