G04 #@! TF.GenerationSoftware,KiCad,Pcbnew,5.0.2-bee76a0~70~ubuntu18.04.1*
G04 #@! TF.CreationDate,2019-03-10T14:25:09+00:00*
G04 #@! TF.ProjectId,Lcr_addon,4c63725f-6164-4646-9f6e-2e6b69636164,rev?*
G04 #@! TF.SameCoordinates,Original*
G04 #@! TF.FileFunction,Legend,Top*
G04 #@! TF.FilePolarity,Positive*
%FSLAX46Y46*%
G04 Gerber Fmt 4.6, Leading zero omitted, Abs format (unit mm)*
G04 Created by KiCad (PCBNEW 5.0.2-bee76a0~70~ubuntu18.04.1) date Sun 10 Mar 2019 14:25:09 GMT*
%MOMM*%
%LPD*%
G01*
G04 APERTURE LIST*
%ADD10C,0.120000*%
%ADD11C,0.150000*%
G04 APERTURE END LIST*
D10*
G04 #@! TO.C,J2*
X40030000Y-77768000D02*
X40780000Y-77768000D01*
X40780000Y-77768000D02*
X40780000Y-71268000D01*
X40780000Y-71268000D02*
X40030000Y-71268000D01*
X40030000Y-71268000D02*
X40030000Y-77768000D01*
X39170000Y-78518000D02*
X40780000Y-78518000D01*
X40780000Y-78518000D02*
X40780000Y-79268000D01*
X40780000Y-79268000D02*
X40030000Y-79268000D01*
X40030000Y-79268000D02*
X40030000Y-81768000D01*
X40030000Y-81768000D02*
X46830000Y-81768000D01*
X46830000Y-81768000D02*
X46830000Y-74518000D01*
X39170000Y-70518000D02*
X40780000Y-70518000D01*
X40780000Y-70518000D02*
X40780000Y-69768000D01*
X40780000Y-69768000D02*
X40030000Y-69768000D01*
X40030000Y-69768000D02*
X40030000Y-67268000D01*
X40030000Y-67268000D02*
X46830000Y-67268000D01*
X46830000Y-67268000D02*
X46830000Y-74518000D01*
X39170000Y-82628000D02*
X47690000Y-82628000D01*
X47690000Y-82628000D02*
X47690000Y-66408000D01*
X47690000Y-66408000D02*
X39170000Y-66408000D01*
X39170000Y-66408000D02*
X39170000Y-82628000D01*
X43180000Y-82828000D02*
X43480000Y-83428000D01*
X43480000Y-83428000D02*
X42880000Y-83428000D01*
X42880000Y-83428000D02*
X43180000Y-82828000D01*
G04 #@! TO.C,U4*
X85655000Y-52132000D02*
X95896000Y-52132000D01*
X85655000Y-56773000D02*
X88011000Y-56773000D01*
X90141000Y-56773000D02*
X91411000Y-56773000D01*
X93541000Y-56773000D02*
X95896000Y-56773000D01*
X85655000Y-52132000D02*
X85655000Y-56773000D01*
X95896000Y-52132000D02*
X95896000Y-56773000D01*
X85655000Y-53641000D02*
X95896000Y-53641000D01*
X88926000Y-52132000D02*
X88926000Y-53641000D01*
X92626000Y-52132000D02*
X92626000Y-53641000D01*
X87376000Y-56773000D02*
X87376000Y-59403000D01*
X90776000Y-56773000D02*
X90776000Y-59387000D01*
X94176000Y-56773000D02*
X94176000Y-59387000D01*
G04 #@! TO.C,U6*
X63068000Y-72428000D02*
X63068000Y-70828000D01*
X59868000Y-70828000D02*
X59868000Y-73128000D01*
G04 #@! TO.C,C1*
X81148000Y-53436759D02*
X80518000Y-53436759D01*
X80833000Y-53121759D02*
X80833000Y-53751759D01*
X79396000Y-59863000D02*
X78592000Y-59863000D01*
X79627000Y-59823000D02*
X78361000Y-59823000D01*
X79796000Y-59783000D02*
X78192000Y-59783000D01*
X79934000Y-59743000D02*
X78054000Y-59743000D01*
X80053000Y-59703000D02*
X77935000Y-59703000D01*
X80159000Y-59663000D02*
X77829000Y-59663000D01*
X80256000Y-59623000D02*
X77732000Y-59623000D01*
X80344000Y-59583000D02*
X77644000Y-59583000D01*
X80426000Y-59543000D02*
X77562000Y-59543000D01*
X80503000Y-59503000D02*
X77485000Y-59503000D01*
X80575000Y-59463000D02*
X77413000Y-59463000D01*
X80644000Y-59423000D02*
X77344000Y-59423000D01*
X80708000Y-59383000D02*
X77280000Y-59383000D01*
X80770000Y-59343000D02*
X77218000Y-59343000D01*
X80828000Y-59303000D02*
X77160000Y-59303000D01*
X80884000Y-59263000D02*
X77104000Y-59263000D01*
X80938000Y-59223000D02*
X77050000Y-59223000D01*
X80989000Y-59183000D02*
X76999000Y-59183000D01*
X81038000Y-59143000D02*
X76950000Y-59143000D01*
X81086000Y-59103000D02*
X76902000Y-59103000D01*
X81131000Y-59063000D02*
X76857000Y-59063000D01*
X81176000Y-59023000D02*
X76812000Y-59023000D01*
X81218000Y-58983000D02*
X76770000Y-58983000D01*
X81259000Y-58943000D02*
X76729000Y-58943000D01*
X77954000Y-58903000D02*
X76689000Y-58903000D01*
X81299000Y-58903000D02*
X80034000Y-58903000D01*
X77954000Y-58863000D02*
X76651000Y-58863000D01*
X81337000Y-58863000D02*
X80034000Y-58863000D01*
X77954000Y-58823000D02*
X76614000Y-58823000D01*
X81374000Y-58823000D02*
X80034000Y-58823000D01*
X77954000Y-58783000D02*
X76578000Y-58783000D01*
X81410000Y-58783000D02*
X80034000Y-58783000D01*
X77954000Y-58743000D02*
X76544000Y-58743000D01*
X81444000Y-58743000D02*
X80034000Y-58743000D01*
X77954000Y-58703000D02*
X76510000Y-58703000D01*
X81478000Y-58703000D02*
X80034000Y-58703000D01*
X77954000Y-58663000D02*
X76478000Y-58663000D01*
X81510000Y-58663000D02*
X80034000Y-58663000D01*
X77954000Y-58623000D02*
X76446000Y-58623000D01*
X81542000Y-58623000D02*
X80034000Y-58623000D01*
X77954000Y-58583000D02*
X76416000Y-58583000D01*
X81572000Y-58583000D02*
X80034000Y-58583000D01*
X77954000Y-58543000D02*
X76387000Y-58543000D01*
X81601000Y-58543000D02*
X80034000Y-58543000D01*
X77954000Y-58503000D02*
X76358000Y-58503000D01*
X81630000Y-58503000D02*
X80034000Y-58503000D01*
X77954000Y-58463000D02*
X76330000Y-58463000D01*
X81658000Y-58463000D02*
X80034000Y-58463000D01*
X77954000Y-58423000D02*
X76304000Y-58423000D01*
X81684000Y-58423000D02*
X80034000Y-58423000D01*
X77954000Y-58383000D02*
X76278000Y-58383000D01*
X81710000Y-58383000D02*
X80034000Y-58383000D01*
X77954000Y-58343000D02*
X76252000Y-58343000D01*
X81736000Y-58343000D02*
X80034000Y-58343000D01*
X77954000Y-58303000D02*
X76228000Y-58303000D01*
X81760000Y-58303000D02*
X80034000Y-58303000D01*
X77954000Y-58263000D02*
X76204000Y-58263000D01*
X81784000Y-58263000D02*
X80034000Y-58263000D01*
X77954000Y-58223000D02*
X76182000Y-58223000D01*
X81806000Y-58223000D02*
X80034000Y-58223000D01*
X77954000Y-58183000D02*
X76160000Y-58183000D01*
X81828000Y-58183000D02*
X80034000Y-58183000D01*
X77954000Y-58143000D02*
X76138000Y-58143000D01*
X81850000Y-58143000D02*
X80034000Y-58143000D01*
X77954000Y-58103000D02*
X76118000Y-58103000D01*
X81870000Y-58103000D02*
X80034000Y-58103000D01*
X77954000Y-58063000D02*
X76098000Y-58063000D01*
X81890000Y-58063000D02*
X80034000Y-58063000D01*
X77954000Y-58023000D02*
X76078000Y-58023000D01*
X81910000Y-58023000D02*
X80034000Y-58023000D01*
X77954000Y-57983000D02*
X76060000Y-57983000D01*
X81928000Y-57983000D02*
X80034000Y-57983000D01*
X77954000Y-57943000D02*
X76042000Y-57943000D01*
X81946000Y-57943000D02*
X80034000Y-57943000D01*
X77954000Y-57903000D02*
X76024000Y-57903000D01*
X81964000Y-57903000D02*
X80034000Y-57903000D01*
X77954000Y-57863000D02*
X76008000Y-57863000D01*
X81980000Y-57863000D02*
X80034000Y-57863000D01*
X77954000Y-57823000D02*
X75992000Y-57823000D01*
X81996000Y-57823000D02*
X80034000Y-57823000D01*
X77954000Y-57783000D02*
X75976000Y-57783000D01*
X82012000Y-57783000D02*
X80034000Y-57783000D01*
X77954000Y-57743000D02*
X75961000Y-57743000D01*
X82027000Y-57743000D02*
X80034000Y-57743000D01*
X77954000Y-57703000D02*
X75947000Y-57703000D01*
X82041000Y-57703000D02*
X80034000Y-57703000D01*
X77954000Y-57663000D02*
X75933000Y-57663000D01*
X82055000Y-57663000D02*
X80034000Y-57663000D01*
X77954000Y-57623000D02*
X75920000Y-57623000D01*
X82068000Y-57623000D02*
X80034000Y-57623000D01*
X77954000Y-57583000D02*
X75908000Y-57583000D01*
X82080000Y-57583000D02*
X80034000Y-57583000D01*
X77954000Y-57543000D02*
X75896000Y-57543000D01*
X82092000Y-57543000D02*
X80034000Y-57543000D01*
X77954000Y-57503000D02*
X75884000Y-57503000D01*
X82104000Y-57503000D02*
X80034000Y-57503000D01*
X77954000Y-57463000D02*
X75873000Y-57463000D01*
X82115000Y-57463000D02*
X80034000Y-57463000D01*
X77954000Y-57423000D02*
X75863000Y-57423000D01*
X82125000Y-57423000D02*
X80034000Y-57423000D01*
X77954000Y-57383000D02*
X75853000Y-57383000D01*
X82135000Y-57383000D02*
X80034000Y-57383000D01*
X77954000Y-57343000D02*
X75844000Y-57343000D01*
X82144000Y-57343000D02*
X80034000Y-57343000D01*
X77954000Y-57302000D02*
X75835000Y-57302000D01*
X82153000Y-57302000D02*
X80034000Y-57302000D01*
X77954000Y-57262000D02*
X75827000Y-57262000D01*
X82161000Y-57262000D02*
X80034000Y-57262000D01*
X77954000Y-57222000D02*
X75819000Y-57222000D01*
X82169000Y-57222000D02*
X80034000Y-57222000D01*
X77954000Y-57182000D02*
X75812000Y-57182000D01*
X82176000Y-57182000D02*
X80034000Y-57182000D01*
X77954000Y-57142000D02*
X75805000Y-57142000D01*
X82183000Y-57142000D02*
X80034000Y-57142000D01*
X77954000Y-57102000D02*
X75799000Y-57102000D01*
X82189000Y-57102000D02*
X80034000Y-57102000D01*
X77954000Y-57062000D02*
X75793000Y-57062000D01*
X82195000Y-57062000D02*
X80034000Y-57062000D01*
X77954000Y-57022000D02*
X75788000Y-57022000D01*
X82200000Y-57022000D02*
X80034000Y-57022000D01*
X77954000Y-56982000D02*
X75783000Y-56982000D01*
X82205000Y-56982000D02*
X80034000Y-56982000D01*
X77954000Y-56942000D02*
X75779000Y-56942000D01*
X82209000Y-56942000D02*
X80034000Y-56942000D01*
X77954000Y-56902000D02*
X75776000Y-56902000D01*
X82212000Y-56902000D02*
X80034000Y-56902000D01*
X77954000Y-56862000D02*
X75772000Y-56862000D01*
X82216000Y-56862000D02*
X80034000Y-56862000D01*
X82218000Y-56822000D02*
X75770000Y-56822000D01*
X82221000Y-56782000D02*
X75767000Y-56782000D01*
X82222000Y-56742000D02*
X75766000Y-56742000D01*
X82224000Y-56702000D02*
X75764000Y-56702000D01*
X82224000Y-56662000D02*
X75764000Y-56662000D01*
X82224000Y-56622000D02*
X75764000Y-56622000D01*
X82264000Y-56622000D02*
G75*
G03X82264000Y-56622000I-3270000J0D01*
G01*
G04 #@! TO.C,C2*
X107430000Y-73406000D02*
G75*
G03X107430000Y-73406000I-3270000J0D01*
G01*
X104160000Y-76636000D02*
X104160000Y-70176000D01*
X104120000Y-76636000D02*
X104120000Y-70176000D01*
X104080000Y-76636000D02*
X104080000Y-70176000D01*
X104040000Y-76634000D02*
X104040000Y-70178000D01*
X104000000Y-76633000D02*
X104000000Y-70179000D01*
X103960000Y-76630000D02*
X103960000Y-70182000D01*
X103920000Y-76628000D02*
X103920000Y-74446000D01*
X103920000Y-72366000D02*
X103920000Y-70184000D01*
X103880000Y-76624000D02*
X103880000Y-74446000D01*
X103880000Y-72366000D02*
X103880000Y-70188000D01*
X103840000Y-76621000D02*
X103840000Y-74446000D01*
X103840000Y-72366000D02*
X103840000Y-70191000D01*
X103800000Y-76617000D02*
X103800000Y-74446000D01*
X103800000Y-72366000D02*
X103800000Y-70195000D01*
X103760000Y-76612000D02*
X103760000Y-74446000D01*
X103760000Y-72366000D02*
X103760000Y-70200000D01*
X103720000Y-76607000D02*
X103720000Y-74446000D01*
X103720000Y-72366000D02*
X103720000Y-70205000D01*
X103680000Y-76601000D02*
X103680000Y-74446000D01*
X103680000Y-72366000D02*
X103680000Y-70211000D01*
X103640000Y-76595000D02*
X103640000Y-74446000D01*
X103640000Y-72366000D02*
X103640000Y-70217000D01*
X103600000Y-76588000D02*
X103600000Y-74446000D01*
X103600000Y-72366000D02*
X103600000Y-70224000D01*
X103560000Y-76581000D02*
X103560000Y-74446000D01*
X103560000Y-72366000D02*
X103560000Y-70231000D01*
X103520000Y-76573000D02*
X103520000Y-74446000D01*
X103520000Y-72366000D02*
X103520000Y-70239000D01*
X103480000Y-76565000D02*
X103480000Y-74446000D01*
X103480000Y-72366000D02*
X103480000Y-70247000D01*
X103439000Y-76556000D02*
X103439000Y-74446000D01*
X103439000Y-72366000D02*
X103439000Y-70256000D01*
X103399000Y-76547000D02*
X103399000Y-74446000D01*
X103399000Y-72366000D02*
X103399000Y-70265000D01*
X103359000Y-76537000D02*
X103359000Y-74446000D01*
X103359000Y-72366000D02*
X103359000Y-70275000D01*
X103319000Y-76527000D02*
X103319000Y-74446000D01*
X103319000Y-72366000D02*
X103319000Y-70285000D01*
X103279000Y-76516000D02*
X103279000Y-74446000D01*
X103279000Y-72366000D02*
X103279000Y-70296000D01*
X103239000Y-76504000D02*
X103239000Y-74446000D01*
X103239000Y-72366000D02*
X103239000Y-70308000D01*
X103199000Y-76492000D02*
X103199000Y-74446000D01*
X103199000Y-72366000D02*
X103199000Y-70320000D01*
X103159000Y-76480000D02*
X103159000Y-74446000D01*
X103159000Y-72366000D02*
X103159000Y-70332000D01*
X103119000Y-76467000D02*
X103119000Y-74446000D01*
X103119000Y-72366000D02*
X103119000Y-70345000D01*
X103079000Y-76453000D02*
X103079000Y-74446000D01*
X103079000Y-72366000D02*
X103079000Y-70359000D01*
X103039000Y-76439000D02*
X103039000Y-74446000D01*
X103039000Y-72366000D02*
X103039000Y-70373000D01*
X102999000Y-76424000D02*
X102999000Y-74446000D01*
X102999000Y-72366000D02*
X102999000Y-70388000D01*
X102959000Y-76408000D02*
X102959000Y-74446000D01*
X102959000Y-72366000D02*
X102959000Y-70404000D01*
X102919000Y-76392000D02*
X102919000Y-74446000D01*
X102919000Y-72366000D02*
X102919000Y-70420000D01*
X102879000Y-76376000D02*
X102879000Y-74446000D01*
X102879000Y-72366000D02*
X102879000Y-70436000D01*
X102839000Y-76358000D02*
X102839000Y-74446000D01*
X102839000Y-72366000D02*
X102839000Y-70454000D01*
X102799000Y-76340000D02*
X102799000Y-74446000D01*
X102799000Y-72366000D02*
X102799000Y-70472000D01*
X102759000Y-76322000D02*
X102759000Y-74446000D01*
X102759000Y-72366000D02*
X102759000Y-70490000D01*
X102719000Y-76302000D02*
X102719000Y-74446000D01*
X102719000Y-72366000D02*
X102719000Y-70510000D01*
X102679000Y-76282000D02*
X102679000Y-74446000D01*
X102679000Y-72366000D02*
X102679000Y-70530000D01*
X102639000Y-76262000D02*
X102639000Y-74446000D01*
X102639000Y-72366000D02*
X102639000Y-70550000D01*
X102599000Y-76240000D02*
X102599000Y-74446000D01*
X102599000Y-72366000D02*
X102599000Y-70572000D01*
X102559000Y-76218000D02*
X102559000Y-74446000D01*
X102559000Y-72366000D02*
X102559000Y-70594000D01*
X102519000Y-76196000D02*
X102519000Y-74446000D01*
X102519000Y-72366000D02*
X102519000Y-70616000D01*
X102479000Y-76172000D02*
X102479000Y-74446000D01*
X102479000Y-72366000D02*
X102479000Y-70640000D01*
X102439000Y-76148000D02*
X102439000Y-74446000D01*
X102439000Y-72366000D02*
X102439000Y-70664000D01*
X102399000Y-76122000D02*
X102399000Y-74446000D01*
X102399000Y-72366000D02*
X102399000Y-70690000D01*
X102359000Y-76096000D02*
X102359000Y-74446000D01*
X102359000Y-72366000D02*
X102359000Y-70716000D01*
X102319000Y-76070000D02*
X102319000Y-74446000D01*
X102319000Y-72366000D02*
X102319000Y-70742000D01*
X102279000Y-76042000D02*
X102279000Y-74446000D01*
X102279000Y-72366000D02*
X102279000Y-70770000D01*
X102239000Y-76013000D02*
X102239000Y-74446000D01*
X102239000Y-72366000D02*
X102239000Y-70799000D01*
X102199000Y-75984000D02*
X102199000Y-74446000D01*
X102199000Y-72366000D02*
X102199000Y-70828000D01*
X102159000Y-75954000D02*
X102159000Y-74446000D01*
X102159000Y-72366000D02*
X102159000Y-70858000D01*
X102119000Y-75922000D02*
X102119000Y-74446000D01*
X102119000Y-72366000D02*
X102119000Y-70890000D01*
X102079000Y-75890000D02*
X102079000Y-74446000D01*
X102079000Y-72366000D02*
X102079000Y-70922000D01*
X102039000Y-75856000D02*
X102039000Y-74446000D01*
X102039000Y-72366000D02*
X102039000Y-70956000D01*
X101999000Y-75822000D02*
X101999000Y-74446000D01*
X101999000Y-72366000D02*
X101999000Y-70990000D01*
X101959000Y-75786000D02*
X101959000Y-74446000D01*
X101959000Y-72366000D02*
X101959000Y-71026000D01*
X101919000Y-75749000D02*
X101919000Y-74446000D01*
X101919000Y-72366000D02*
X101919000Y-71063000D01*
X101879000Y-75711000D02*
X101879000Y-74446000D01*
X101879000Y-72366000D02*
X101879000Y-71101000D01*
X101839000Y-75671000D02*
X101839000Y-71141000D01*
X101799000Y-75630000D02*
X101799000Y-71182000D01*
X101759000Y-75588000D02*
X101759000Y-71224000D01*
X101719000Y-75543000D02*
X101719000Y-71269000D01*
X101679000Y-75498000D02*
X101679000Y-71314000D01*
X101639000Y-75450000D02*
X101639000Y-71362000D01*
X101599000Y-75401000D02*
X101599000Y-71411000D01*
X101559000Y-75350000D02*
X101559000Y-71462000D01*
X101519000Y-75296000D02*
X101519000Y-71516000D01*
X101479000Y-75240000D02*
X101479000Y-71572000D01*
X101439000Y-75182000D02*
X101439000Y-71630000D01*
X101399000Y-75120000D02*
X101399000Y-71692000D01*
X101359000Y-75056000D02*
X101359000Y-71756000D01*
X101319000Y-74987000D02*
X101319000Y-71825000D01*
X101279000Y-74915000D02*
X101279000Y-71897000D01*
X101239000Y-74838000D02*
X101239000Y-71974000D01*
X101199000Y-74756000D02*
X101199000Y-72056000D01*
X101159000Y-74668000D02*
X101159000Y-72144000D01*
X101119000Y-74571000D02*
X101119000Y-72241000D01*
X101079000Y-74465000D02*
X101079000Y-72347000D01*
X101039000Y-74346000D02*
X101039000Y-72466000D01*
X100999000Y-74208000D02*
X100999000Y-72604000D01*
X100959000Y-74039000D02*
X100959000Y-72773000D01*
X100919000Y-73808000D02*
X100919000Y-73004000D01*
X107660241Y-75245000D02*
X107030241Y-75245000D01*
X107345241Y-75560000D02*
X107345241Y-74930000D01*
G04 #@! TO.C,D1*
X84284000Y-65606000D02*
X84284000Y-71046000D01*
X84284000Y-71046000D02*
X94024000Y-71046000D01*
X94024000Y-71046000D02*
X94024000Y-65606000D01*
X94024000Y-65606000D02*
X84284000Y-65606000D01*
X83374000Y-68326000D02*
X84284000Y-68326000D01*
X94934000Y-68326000D02*
X94024000Y-68326000D01*
X85829000Y-65606000D02*
X85829000Y-71046000D01*
X85949000Y-65606000D02*
X85949000Y-71046000D01*
X85709000Y-65606000D02*
X85709000Y-71046000D01*
G04 #@! TO.C,J4*
X108204000Y-105972000D02*
X107204000Y-104972000D01*
X108204000Y-105972000D02*
X109204000Y-104972000D01*
X115704000Y-91172000D02*
X115704000Y-106172000D01*
X100704000Y-91172000D02*
X115704000Y-91172000D01*
X100704000Y-106172000D02*
X100704000Y-91172000D01*
X115704000Y-106172000D02*
X100704000Y-106172000D01*
G04 #@! TO.C,J5*
X68580000Y-105972000D02*
X67580000Y-104972000D01*
X68580000Y-105972000D02*
X69580000Y-104972000D01*
X76080000Y-91172000D02*
X76080000Y-106172000D01*
X61080000Y-91172000D02*
X76080000Y-91172000D01*
X61080000Y-106172000D02*
X61080000Y-91172000D01*
X76080000Y-106172000D02*
X61080000Y-106172000D01*
G04 #@! TO.C,J6*
X94368000Y-106172000D02*
X79368000Y-106172000D01*
X79368000Y-106172000D02*
X79368000Y-91172000D01*
X79368000Y-91172000D02*
X94368000Y-91172000D01*
X94368000Y-91172000D02*
X94368000Y-106172000D01*
X86868000Y-105972000D02*
X87868000Y-104972000D01*
X86868000Y-105972000D02*
X85868000Y-104972000D01*
G04 #@! TO.C,J7*
X57792000Y-106172000D02*
X42792000Y-106172000D01*
X42792000Y-106172000D02*
X42792000Y-91172000D01*
X42792000Y-91172000D02*
X57792000Y-91172000D01*
X57792000Y-91172000D02*
X57792000Y-106172000D01*
X50292000Y-105972000D02*
X51292000Y-104972000D01*
X50292000Y-105972000D02*
X49292000Y-104972000D01*
G04 #@! TO.C,L1*
X108752000Y-57444000D02*
G75*
G03X108752000Y-57444000I-5120000J0D01*
G01*
G04 #@! TO.C,U1*
X55956000Y-82588000D02*
X55956000Y-80988000D01*
X52756000Y-80988000D02*
X52756000Y-83288000D01*
G04 #@! TO.C,U2*
X52756000Y-70828000D02*
X52756000Y-73128000D01*
X55956000Y-72428000D02*
X55956000Y-70828000D01*
G04 #@! TO.C,U3*
X55956000Y-62268000D02*
X55956000Y-60668000D01*
X52756000Y-60668000D02*
X52756000Y-62968000D01*
G04 #@! TO.C,U5*
X60376000Y-80988000D02*
X60376000Y-83288000D01*
X63576000Y-82588000D02*
X63576000Y-80988000D01*
G04 #@! TO.C,U7*
X59868000Y-60668000D02*
X59868000Y-62968000D01*
X63068000Y-62268000D02*
X63068000Y-60668000D01*
G04 #@! TO.C,U8*
X76784000Y-77508000D02*
X76784000Y-75908000D01*
X73584000Y-75908000D02*
X73584000Y-78208000D01*
G04 #@! TO.C,J8*
X117662000Y-65726000D02*
X115002000Y-65726000D01*
X117662000Y-70866000D02*
X117662000Y-65726000D01*
X115002000Y-70866000D02*
X115002000Y-65726000D01*
X117662000Y-70866000D02*
X115002000Y-70866000D01*
X117662000Y-72136000D02*
X117662000Y-73466000D01*
X117662000Y-73466000D02*
X116332000Y-73466000D01*
G04 #@! TO.C,R1*
X91794000Y-79248000D02*
G75*
G03X91794000Y-79248000I-1370000J0D01*
G01*
X89054000Y-79248000D02*
X88984000Y-79248000D01*
G04 #@! TO.C,J2*
D11*
X37532380Y-74851333D02*
X38246666Y-74851333D01*
X38389523Y-74898952D01*
X38484761Y-74994190D01*
X38532380Y-75137047D01*
X38532380Y-75232285D01*
X37627619Y-74422761D02*
X37580000Y-74375142D01*
X37532380Y-74279904D01*
X37532380Y-74041809D01*
X37580000Y-73946571D01*
X37627619Y-73898952D01*
X37722857Y-73851333D01*
X37818095Y-73851333D01*
X37960952Y-73898952D01*
X38532380Y-74470380D01*
X38532380Y-73851333D01*
X49232380Y-79018000D02*
X49232380Y-79494190D01*
X48232380Y-79494190D01*
X49137142Y-78113238D02*
X49184761Y-78160857D01*
X49232380Y-78303714D01*
X49232380Y-78398952D01*
X49184761Y-78541809D01*
X49089523Y-78637047D01*
X48994285Y-78684666D01*
X48803809Y-78732285D01*
X48660952Y-78732285D01*
X48470476Y-78684666D01*
X48375238Y-78637047D01*
X48280000Y-78541809D01*
X48232380Y-78398952D01*
X48232380Y-78303714D01*
X48280000Y-78160857D01*
X48327619Y-78113238D01*
X49232380Y-77684666D02*
X48565714Y-77684666D01*
X48756190Y-77684666D02*
X48660952Y-77637047D01*
X48613333Y-77589428D01*
X48565714Y-77494190D01*
X48565714Y-77398952D01*
X49327619Y-77303714D02*
X49327619Y-76541809D01*
X49184761Y-75113238D02*
X49232380Y-75208476D01*
X49232380Y-75398952D01*
X49184761Y-75494190D01*
X49137142Y-75541809D01*
X49041904Y-75589428D01*
X48756190Y-75589428D01*
X48660952Y-75541809D01*
X48613333Y-75494190D01*
X48565714Y-75398952D01*
X48565714Y-75208476D01*
X48613333Y-75113238D01*
X49232380Y-74541809D02*
X49184761Y-74637047D01*
X49137142Y-74684666D01*
X49041904Y-74732285D01*
X48756190Y-74732285D01*
X48660952Y-74684666D01*
X48613333Y-74637047D01*
X48565714Y-74541809D01*
X48565714Y-74398952D01*
X48613333Y-74303714D01*
X48660952Y-74256095D01*
X48756190Y-74208476D01*
X49041904Y-74208476D01*
X49137142Y-74256095D01*
X49184761Y-74303714D01*
X49232380Y-74398952D01*
X49232380Y-74541809D01*
X48565714Y-73779904D02*
X49232380Y-73779904D01*
X48660952Y-73779904D02*
X48613333Y-73732285D01*
X48565714Y-73637047D01*
X48565714Y-73494190D01*
X48613333Y-73398952D01*
X48708571Y-73351333D01*
X49232380Y-73351333D01*
X49184761Y-72494190D02*
X49232380Y-72589428D01*
X49232380Y-72779904D01*
X49184761Y-72875142D01*
X49089523Y-72922761D01*
X48708571Y-72922761D01*
X48613333Y-72875142D01*
X48565714Y-72779904D01*
X48565714Y-72589428D01*
X48613333Y-72494190D01*
X48708571Y-72446571D01*
X48803809Y-72446571D01*
X48899047Y-72922761D01*
X49184761Y-71589428D02*
X49232380Y-71684666D01*
X49232380Y-71875142D01*
X49184761Y-71970380D01*
X49137142Y-72018000D01*
X49041904Y-72065619D01*
X48756190Y-72065619D01*
X48660952Y-72018000D01*
X48613333Y-71970380D01*
X48565714Y-71875142D01*
X48565714Y-71684666D01*
X48613333Y-71589428D01*
X48565714Y-71303714D02*
X48565714Y-70922761D01*
X48232380Y-71160857D02*
X49089523Y-71160857D01*
X49184761Y-71113238D01*
X49232380Y-71018000D01*
X49232380Y-70922761D01*
X49232380Y-70446571D02*
X49184761Y-70541809D01*
X49137142Y-70589428D01*
X49041904Y-70637047D01*
X48756190Y-70637047D01*
X48660952Y-70589428D01*
X48613333Y-70541809D01*
X48565714Y-70446571D01*
X48565714Y-70303714D01*
X48613333Y-70208476D01*
X48660952Y-70160857D01*
X48756190Y-70113238D01*
X49041904Y-70113238D01*
X49137142Y-70160857D01*
X49184761Y-70208476D01*
X49232380Y-70303714D01*
X49232380Y-70446571D01*
X49232380Y-69684666D02*
X48565714Y-69684666D01*
X48756190Y-69684666D02*
X48660952Y-69637047D01*
X48613333Y-69589428D01*
X48565714Y-69494190D01*
X48565714Y-69398952D01*
G04 #@! TO.C,U4*
X83566095Y-60412380D02*
X83566095Y-61221904D01*
X83613714Y-61317142D01*
X83661333Y-61364761D01*
X83756571Y-61412380D01*
X83947047Y-61412380D01*
X84042285Y-61364761D01*
X84089904Y-61317142D01*
X84137523Y-61221904D01*
X84137523Y-60412380D01*
X85042285Y-60745714D02*
X85042285Y-61412380D01*
X84804190Y-60364761D02*
X84566095Y-61079047D01*
X85185142Y-61079047D01*
X87133142Y-63054380D02*
X86656952Y-63054380D01*
X86656952Y-62054380D01*
X87466476Y-63054380D02*
X87466476Y-62054380D01*
X87799809Y-62768666D01*
X88133142Y-62054380D01*
X88133142Y-63054380D01*
X88561714Y-62149619D02*
X88609333Y-62102000D01*
X88704571Y-62054380D01*
X88942666Y-62054380D01*
X89037904Y-62102000D01*
X89085523Y-62149619D01*
X89133142Y-62244857D01*
X89133142Y-62340095D01*
X89085523Y-62482952D01*
X88514095Y-63054380D01*
X89133142Y-63054380D01*
X90037904Y-62054380D02*
X89561714Y-62054380D01*
X89514095Y-62530571D01*
X89561714Y-62482952D01*
X89656952Y-62435333D01*
X89895047Y-62435333D01*
X89990285Y-62482952D01*
X90037904Y-62530571D01*
X90085523Y-62625809D01*
X90085523Y-62863904D01*
X90037904Y-62959142D01*
X89990285Y-63006761D01*
X89895047Y-63054380D01*
X89656952Y-63054380D01*
X89561714Y-63006761D01*
X89514095Y-62959142D01*
X90561714Y-63054380D02*
X90752190Y-63054380D01*
X90847428Y-63006761D01*
X90895047Y-62959142D01*
X90990285Y-62816285D01*
X91037904Y-62625809D01*
X91037904Y-62244857D01*
X90990285Y-62149619D01*
X90942666Y-62102000D01*
X90847428Y-62054380D01*
X90656952Y-62054380D01*
X90561714Y-62102000D01*
X90514095Y-62149619D01*
X90466476Y-62244857D01*
X90466476Y-62482952D01*
X90514095Y-62578190D01*
X90561714Y-62625809D01*
X90656952Y-62673428D01*
X90847428Y-62673428D01*
X90942666Y-62625809D01*
X90990285Y-62578190D01*
X91037904Y-62482952D01*
X91895047Y-62054380D02*
X91704571Y-62054380D01*
X91609333Y-62102000D01*
X91561714Y-62149619D01*
X91466476Y-62292476D01*
X91418857Y-62482952D01*
X91418857Y-62863904D01*
X91466476Y-62959142D01*
X91514095Y-63006761D01*
X91609333Y-63054380D01*
X91799809Y-63054380D01*
X91895047Y-63006761D01*
X91942666Y-62959142D01*
X91990285Y-62863904D01*
X91990285Y-62625809D01*
X91942666Y-62530571D01*
X91895047Y-62482952D01*
X91799809Y-62435333D01*
X91609333Y-62435333D01*
X91514095Y-62482952D01*
X91466476Y-62530571D01*
X91418857Y-62625809D01*
X92276000Y-62054380D02*
X92847428Y-62054380D01*
X92561714Y-63054380D02*
X92561714Y-62054380D01*
X93180761Y-62673428D02*
X93942666Y-62673428D01*
X94895047Y-62054380D02*
X94418857Y-62054380D01*
X94371238Y-62530571D01*
X94418857Y-62482952D01*
X94514095Y-62435333D01*
X94752190Y-62435333D01*
X94847428Y-62482952D01*
X94895047Y-62530571D01*
X94942666Y-62625809D01*
X94942666Y-62863904D01*
X94895047Y-62959142D01*
X94847428Y-63006761D01*
X94752190Y-63054380D01*
X94514095Y-63054380D01*
X94418857Y-63006761D01*
X94371238Y-62959142D01*
G04 #@! TO.C,U6*
X58470380Y-72389904D02*
X59279904Y-72389904D01*
X59375142Y-72342285D01*
X59422761Y-72294666D01*
X59470380Y-72199428D01*
X59470380Y-72008952D01*
X59422761Y-71913714D01*
X59375142Y-71866095D01*
X59279904Y-71818476D01*
X58470380Y-71818476D01*
X58470380Y-70913714D02*
X58470380Y-71104190D01*
X58518000Y-71199428D01*
X58565619Y-71247047D01*
X58708476Y-71342285D01*
X58898952Y-71389904D01*
X59279904Y-71389904D01*
X59375142Y-71342285D01*
X59422761Y-71294666D01*
X59470380Y-71199428D01*
X59470380Y-71008952D01*
X59422761Y-70913714D01*
X59375142Y-70866095D01*
X59279904Y-70818476D01*
X59041809Y-70818476D01*
X58946571Y-70866095D01*
X58898952Y-70913714D01*
X58851333Y-71008952D01*
X58851333Y-71199428D01*
X58898952Y-71294666D01*
X58946571Y-71342285D01*
X59041809Y-71389904D01*
X63468000Y-75628000D02*
X63420380Y-75723238D01*
X63420380Y-75866095D01*
X63468000Y-76008952D01*
X63563238Y-76104190D01*
X63658476Y-76151809D01*
X63848952Y-76199428D01*
X63991809Y-76199428D01*
X64182285Y-76151809D01*
X64277523Y-76104190D01*
X64372761Y-76008952D01*
X64420380Y-75866095D01*
X64420380Y-75770857D01*
X64372761Y-75628000D01*
X64325142Y-75580380D01*
X63991809Y-75580380D01*
X63991809Y-75770857D01*
X64420380Y-75151809D02*
X63753714Y-75151809D01*
X63944190Y-75151809D02*
X63848952Y-75104190D01*
X63801333Y-75056571D01*
X63753714Y-74961333D01*
X63753714Y-74866095D01*
X64372761Y-74151809D02*
X64420380Y-74247047D01*
X64420380Y-74437523D01*
X64372761Y-74532761D01*
X64277523Y-74580380D01*
X63896571Y-74580380D01*
X63801333Y-74532761D01*
X63753714Y-74437523D01*
X63753714Y-74247047D01*
X63801333Y-74151809D01*
X63896571Y-74104190D01*
X63991809Y-74104190D01*
X64087047Y-74580380D01*
X64372761Y-73294666D02*
X64420380Y-73389904D01*
X64420380Y-73580380D01*
X64372761Y-73675619D01*
X64277523Y-73723238D01*
X63896571Y-73723238D01*
X63801333Y-73675619D01*
X63753714Y-73580380D01*
X63753714Y-73389904D01*
X63801333Y-73294666D01*
X63896571Y-73247047D01*
X63991809Y-73247047D01*
X64087047Y-73723238D01*
X63753714Y-72818476D02*
X64420380Y-72818476D01*
X63848952Y-72818476D02*
X63801333Y-72770857D01*
X63753714Y-72675619D01*
X63753714Y-72532761D01*
X63801333Y-72437523D01*
X63896571Y-72389904D01*
X64420380Y-72389904D01*
X64039428Y-71913714D02*
X64039428Y-71151809D01*
X64420380Y-71532761D02*
X63658476Y-71532761D01*
X64420380Y-70675619D02*
X63420380Y-70675619D01*
X63801333Y-70675619D02*
X63753714Y-70580380D01*
X63753714Y-70389904D01*
X63801333Y-70294666D01*
X63848952Y-70247047D01*
X63944190Y-70199428D01*
X64229904Y-70199428D01*
X64325142Y-70247047D01*
X64372761Y-70294666D01*
X64420380Y-70389904D01*
X64420380Y-70580380D01*
X64372761Y-70675619D01*
X64420380Y-69628000D02*
X64372761Y-69723238D01*
X64277523Y-69770857D01*
X63420380Y-69770857D01*
X64420380Y-68818476D02*
X63896571Y-68818476D01*
X63801333Y-68866095D01*
X63753714Y-68961333D01*
X63753714Y-69151809D01*
X63801333Y-69247047D01*
X64372761Y-68818476D02*
X64420380Y-68913714D01*
X64420380Y-69151809D01*
X64372761Y-69247047D01*
X64277523Y-69294666D01*
X64182285Y-69294666D01*
X64087047Y-69247047D01*
X64039428Y-69151809D01*
X64039428Y-68913714D01*
X63991809Y-68818476D01*
X63753714Y-68342285D02*
X64420380Y-68342285D01*
X63848952Y-68342285D02*
X63801333Y-68294666D01*
X63753714Y-68199428D01*
X63753714Y-68056571D01*
X63801333Y-67961333D01*
X63896571Y-67913714D01*
X64420380Y-67913714D01*
X64420380Y-67437523D02*
X63420380Y-67437523D01*
X64039428Y-67342285D02*
X64420380Y-67056571D01*
X63753714Y-67056571D02*
X64134666Y-67437523D01*
G04 #@! TO.C,C1*
X83751142Y-56788666D02*
X83798761Y-56836285D01*
X83846380Y-56979142D01*
X83846380Y-57074380D01*
X83798761Y-57217238D01*
X83703523Y-57312476D01*
X83608285Y-57360095D01*
X83417809Y-57407714D01*
X83274952Y-57407714D01*
X83084476Y-57360095D01*
X82989238Y-57312476D01*
X82894000Y-57217238D01*
X82846380Y-57074380D01*
X82846380Y-56979142D01*
X82894000Y-56836285D01*
X82941619Y-56788666D01*
X83846380Y-55836285D02*
X83846380Y-56407714D01*
X83846380Y-56122000D02*
X82846380Y-56122000D01*
X82989238Y-56217238D01*
X83084476Y-56312476D01*
X83132095Y-56407714D01*
X74046380Y-58264857D02*
X74046380Y-58455333D01*
X74094000Y-58550571D01*
X74141619Y-58598190D01*
X74284476Y-58693428D01*
X74474952Y-58741047D01*
X74855904Y-58741047D01*
X74951142Y-58693428D01*
X74998761Y-58645809D01*
X75046380Y-58550571D01*
X75046380Y-58360095D01*
X74998761Y-58264857D01*
X74951142Y-58217238D01*
X74855904Y-58169619D01*
X74617809Y-58169619D01*
X74522571Y-58217238D01*
X74474952Y-58264857D01*
X74427333Y-58360095D01*
X74427333Y-58550571D01*
X74474952Y-58645809D01*
X74522571Y-58693428D01*
X74617809Y-58741047D01*
X74474952Y-57598190D02*
X74427333Y-57693428D01*
X74379714Y-57741047D01*
X74284476Y-57788666D01*
X74236857Y-57788666D01*
X74141619Y-57741047D01*
X74094000Y-57693428D01*
X74046380Y-57598190D01*
X74046380Y-57407714D01*
X74094000Y-57312476D01*
X74141619Y-57264857D01*
X74236857Y-57217238D01*
X74284476Y-57217238D01*
X74379714Y-57264857D01*
X74427333Y-57312476D01*
X74474952Y-57407714D01*
X74474952Y-57598190D01*
X74522571Y-57693428D01*
X74570190Y-57741047D01*
X74665428Y-57788666D01*
X74855904Y-57788666D01*
X74951142Y-57741047D01*
X74998761Y-57693428D01*
X75046380Y-57598190D01*
X75046380Y-57407714D01*
X74998761Y-57312476D01*
X74951142Y-57264857D01*
X74855904Y-57217238D01*
X74665428Y-57217238D01*
X74570190Y-57264857D01*
X74522571Y-57312476D01*
X74474952Y-57407714D01*
X74046380Y-56598190D02*
X74046380Y-56502952D01*
X74094000Y-56407714D01*
X74141619Y-56360095D01*
X74236857Y-56312476D01*
X74427333Y-56264857D01*
X74665428Y-56264857D01*
X74855904Y-56312476D01*
X74951142Y-56360095D01*
X74998761Y-56407714D01*
X75046380Y-56502952D01*
X75046380Y-56598190D01*
X74998761Y-56693428D01*
X74951142Y-56741047D01*
X74855904Y-56788666D01*
X74665428Y-56836285D01*
X74427333Y-56836285D01*
X74236857Y-56788666D01*
X74141619Y-56741047D01*
X74094000Y-56693428D01*
X74046380Y-56598190D01*
X74379714Y-55407714D02*
X75046380Y-55407714D01*
X74379714Y-55836285D02*
X74903523Y-55836285D01*
X74998761Y-55788666D01*
X75046380Y-55693428D01*
X75046380Y-55550571D01*
X74998761Y-55455333D01*
X74951142Y-55407714D01*
X74522571Y-54598190D02*
X74522571Y-54931523D01*
X75046380Y-54931523D02*
X74046380Y-54931523D01*
X74046380Y-54455333D01*
G04 #@! TO.C,C2*
X103993333Y-78163142D02*
X103945714Y-78210761D01*
X103802857Y-78258380D01*
X103707619Y-78258380D01*
X103564761Y-78210761D01*
X103469523Y-78115523D01*
X103421904Y-78020285D01*
X103374285Y-77829809D01*
X103374285Y-77686952D01*
X103421904Y-77496476D01*
X103469523Y-77401238D01*
X103564761Y-77306000D01*
X103707619Y-77258380D01*
X103802857Y-77258380D01*
X103945714Y-77306000D01*
X103993333Y-77353619D01*
X104374285Y-77353619D02*
X104421904Y-77306000D01*
X104517142Y-77258380D01*
X104755238Y-77258380D01*
X104850476Y-77306000D01*
X104898095Y-77353619D01*
X104945714Y-77448857D01*
X104945714Y-77544095D01*
X104898095Y-77686952D01*
X104326666Y-78258380D01*
X104945714Y-78258380D01*
X102040952Y-68553619D02*
X102088571Y-68506000D01*
X102183809Y-68458380D01*
X102421904Y-68458380D01*
X102517142Y-68506000D01*
X102564761Y-68553619D01*
X102612380Y-68648857D01*
X102612380Y-68744095D01*
X102564761Y-68886952D01*
X101993333Y-69458380D01*
X102612380Y-69458380D01*
X102993333Y-68553619D02*
X103040952Y-68506000D01*
X103136190Y-68458380D01*
X103374285Y-68458380D01*
X103469523Y-68506000D01*
X103517142Y-68553619D01*
X103564761Y-68648857D01*
X103564761Y-68744095D01*
X103517142Y-68886952D01*
X102945714Y-69458380D01*
X103564761Y-69458380D01*
X104183809Y-68458380D02*
X104279047Y-68458380D01*
X104374285Y-68506000D01*
X104421904Y-68553619D01*
X104469523Y-68648857D01*
X104517142Y-68839333D01*
X104517142Y-69077428D01*
X104469523Y-69267904D01*
X104421904Y-69363142D01*
X104374285Y-69410761D01*
X104279047Y-69458380D01*
X104183809Y-69458380D01*
X104088571Y-69410761D01*
X104040952Y-69363142D01*
X103993333Y-69267904D01*
X103945714Y-69077428D01*
X103945714Y-68839333D01*
X103993333Y-68648857D01*
X104040952Y-68553619D01*
X104088571Y-68506000D01*
X104183809Y-68458380D01*
X105374285Y-68791714D02*
X105374285Y-69458380D01*
X104945714Y-68791714D02*
X104945714Y-69315523D01*
X104993333Y-69410761D01*
X105088571Y-69458380D01*
X105231428Y-69458380D01*
X105326666Y-69410761D01*
X105374285Y-69363142D01*
X106183809Y-68934571D02*
X105850476Y-68934571D01*
X105850476Y-69458380D02*
X105850476Y-68458380D01*
X106326666Y-68458380D01*
G04 #@! TO.C,D1*
X88415904Y-65058380D02*
X88415904Y-64058380D01*
X88654000Y-64058380D01*
X88796857Y-64106000D01*
X88892095Y-64201238D01*
X88939714Y-64296476D01*
X88987333Y-64486952D01*
X88987333Y-64629809D01*
X88939714Y-64820285D01*
X88892095Y-64915523D01*
X88796857Y-65010761D01*
X88654000Y-65058380D01*
X88415904Y-65058380D01*
X89939714Y-65058380D02*
X89368285Y-65058380D01*
X89654000Y-65058380D02*
X89654000Y-64058380D01*
X89558761Y-64201238D01*
X89463523Y-64296476D01*
X89368285Y-64344095D01*
X81272095Y-66178380D02*
X81272095Y-65178380D01*
X81843523Y-66178380D02*
X81414952Y-65606952D01*
X81843523Y-65178380D02*
X81272095Y-65749809D01*
G04 #@! TO.C,J4*
X107870666Y-88924380D02*
X107870666Y-89638666D01*
X107823047Y-89781523D01*
X107727809Y-89876761D01*
X107584952Y-89924380D01*
X107489714Y-89924380D01*
X108775428Y-89257714D02*
X108775428Y-89924380D01*
X108537333Y-88876761D02*
X108299238Y-89591047D01*
X108918285Y-89591047D01*
X100774857Y-89860380D02*
X100774857Y-88860380D01*
X100774857Y-89241333D02*
X100870095Y-89193714D01*
X101060571Y-89193714D01*
X101155809Y-89241333D01*
X101203428Y-89288952D01*
X101251047Y-89384190D01*
X101251047Y-89669904D01*
X101203428Y-89765142D01*
X101155809Y-89812761D01*
X101060571Y-89860380D01*
X100870095Y-89860380D01*
X100774857Y-89812761D01*
X101822476Y-89860380D02*
X101727238Y-89812761D01*
X101679619Y-89717523D01*
X101679619Y-88860380D01*
X102632000Y-89860380D02*
X102632000Y-89336571D01*
X102584380Y-89241333D01*
X102489142Y-89193714D01*
X102298666Y-89193714D01*
X102203428Y-89241333D01*
X102632000Y-89812761D02*
X102536761Y-89860380D01*
X102298666Y-89860380D01*
X102203428Y-89812761D01*
X102155809Y-89717523D01*
X102155809Y-89622285D01*
X102203428Y-89527047D01*
X102298666Y-89479428D01*
X102536761Y-89479428D01*
X102632000Y-89431809D01*
X103108190Y-89193714D02*
X103108190Y-89860380D01*
X103108190Y-89288952D02*
X103155809Y-89241333D01*
X103251047Y-89193714D01*
X103393904Y-89193714D01*
X103489142Y-89241333D01*
X103536761Y-89336571D01*
X103536761Y-89860380D01*
X104012952Y-89860380D02*
X104012952Y-88860380D01*
X104108190Y-89479428D02*
X104393904Y-89860380D01*
X104393904Y-89193714D02*
X104012952Y-89574666D01*
X105584380Y-89860380D02*
X105584380Y-89193714D01*
X105584380Y-88860380D02*
X105536761Y-88908000D01*
X105584380Y-88955619D01*
X105632000Y-88908000D01*
X105584380Y-88860380D01*
X105584380Y-88955619D01*
X106060571Y-89193714D02*
X106060571Y-89860380D01*
X106060571Y-89288952D02*
X106108190Y-89241333D01*
X106203428Y-89193714D01*
X106346285Y-89193714D01*
X106441523Y-89241333D01*
X106489142Y-89336571D01*
X106489142Y-89860380D01*
G04 #@! TO.C,J5*
X75358666Y-87336380D02*
X75358666Y-88050666D01*
X75311047Y-88193523D01*
X75215809Y-88288761D01*
X75072952Y-88336380D01*
X74977714Y-88336380D01*
X76311047Y-87336380D02*
X75834857Y-87336380D01*
X75787238Y-87812571D01*
X75834857Y-87764952D01*
X75930095Y-87717333D01*
X76168190Y-87717333D01*
X76263428Y-87764952D01*
X76311047Y-87812571D01*
X76358666Y-87907809D01*
X76358666Y-88145904D01*
X76311047Y-88241142D01*
X76263428Y-88288761D01*
X76168190Y-88336380D01*
X75930095Y-88336380D01*
X75834857Y-88288761D01*
X75787238Y-88241142D01*
X61437142Y-88908000D02*
X61341904Y-88860380D01*
X61199047Y-88860380D01*
X61056190Y-88908000D01*
X60960952Y-89003238D01*
X60913333Y-89098476D01*
X60865714Y-89288952D01*
X60865714Y-89431809D01*
X60913333Y-89622285D01*
X60960952Y-89717523D01*
X61056190Y-89812761D01*
X61199047Y-89860380D01*
X61294285Y-89860380D01*
X61437142Y-89812761D01*
X61484761Y-89765142D01*
X61484761Y-89431809D01*
X61294285Y-89431809D01*
X61913333Y-89860380D02*
X61913333Y-89193714D01*
X61913333Y-89384190D02*
X61960952Y-89288952D01*
X62008571Y-89241333D01*
X62103809Y-89193714D01*
X62199047Y-89193714D01*
X62913333Y-89812761D02*
X62818095Y-89860380D01*
X62627619Y-89860380D01*
X62532380Y-89812761D01*
X62484761Y-89717523D01*
X62484761Y-89336571D01*
X62532380Y-89241333D01*
X62627619Y-89193714D01*
X62818095Y-89193714D01*
X62913333Y-89241333D01*
X62960952Y-89336571D01*
X62960952Y-89431809D01*
X62484761Y-89527047D01*
X63770476Y-89812761D02*
X63675238Y-89860380D01*
X63484761Y-89860380D01*
X63389523Y-89812761D01*
X63341904Y-89717523D01*
X63341904Y-89336571D01*
X63389523Y-89241333D01*
X63484761Y-89193714D01*
X63675238Y-89193714D01*
X63770476Y-89241333D01*
X63818095Y-89336571D01*
X63818095Y-89431809D01*
X63341904Y-89527047D01*
X64246666Y-89193714D02*
X64246666Y-89860380D01*
X64246666Y-89288952D02*
X64294285Y-89241333D01*
X64389523Y-89193714D01*
X64532380Y-89193714D01*
X64627619Y-89241333D01*
X64675238Y-89336571D01*
X64675238Y-89860380D01*
X66341904Y-89812761D02*
X66246666Y-89860380D01*
X66056190Y-89860380D01*
X65960952Y-89812761D01*
X65913333Y-89765142D01*
X65865714Y-89669904D01*
X65865714Y-89384190D01*
X65913333Y-89288952D01*
X65960952Y-89241333D01*
X66056190Y-89193714D01*
X66246666Y-89193714D01*
X66341904Y-89241333D01*
X66913333Y-89860380D02*
X66818095Y-89812761D01*
X66770476Y-89765142D01*
X66722857Y-89669904D01*
X66722857Y-89384190D01*
X66770476Y-89288952D01*
X66818095Y-89241333D01*
X66913333Y-89193714D01*
X67056190Y-89193714D01*
X67151428Y-89241333D01*
X67199047Y-89288952D01*
X67246666Y-89384190D01*
X67246666Y-89669904D01*
X67199047Y-89765142D01*
X67151428Y-89812761D01*
X67056190Y-89860380D01*
X66913333Y-89860380D01*
X67675238Y-89193714D02*
X67675238Y-89860380D01*
X67675238Y-89288952D02*
X67722857Y-89241333D01*
X67818095Y-89193714D01*
X67960952Y-89193714D01*
X68056190Y-89241333D01*
X68103809Y-89336571D01*
X68103809Y-89860380D01*
X68437142Y-89193714D02*
X68818095Y-89193714D01*
X68580000Y-88860380D02*
X68580000Y-89717523D01*
X68627619Y-89812761D01*
X68722857Y-89860380D01*
X68818095Y-89860380D01*
X69151428Y-89860380D02*
X69151428Y-89193714D01*
X69151428Y-89384190D02*
X69199047Y-89288952D01*
X69246666Y-89241333D01*
X69341904Y-89193714D01*
X69437142Y-89193714D01*
X69913333Y-89860380D02*
X69818095Y-89812761D01*
X69770476Y-89765142D01*
X69722857Y-89669904D01*
X69722857Y-89384190D01*
X69770476Y-89288952D01*
X69818095Y-89241333D01*
X69913333Y-89193714D01*
X70056190Y-89193714D01*
X70151428Y-89241333D01*
X70199047Y-89288952D01*
X70246666Y-89384190D01*
X70246666Y-89669904D01*
X70199047Y-89765142D01*
X70151428Y-89812761D01*
X70056190Y-89860380D01*
X69913333Y-89860380D01*
X70818095Y-89860380D02*
X70722857Y-89812761D01*
X70675238Y-89717523D01*
X70675238Y-88860380D01*
X72103809Y-89860380D02*
X72008571Y-89812761D01*
X71960952Y-89765142D01*
X71913333Y-89669904D01*
X71913333Y-89384190D01*
X71960952Y-89288952D01*
X72008571Y-89241333D01*
X72103809Y-89193714D01*
X72246666Y-89193714D01*
X72341904Y-89241333D01*
X72389523Y-89288952D01*
X72437142Y-89384190D01*
X72437142Y-89669904D01*
X72389523Y-89765142D01*
X72341904Y-89812761D01*
X72246666Y-89860380D01*
X72103809Y-89860380D01*
X73294285Y-89193714D02*
X73294285Y-89860380D01*
X72865714Y-89193714D02*
X72865714Y-89717523D01*
X72913333Y-89812761D01*
X73008571Y-89860380D01*
X73151428Y-89860380D01*
X73246666Y-89812761D01*
X73294285Y-89765142D01*
X73627619Y-89193714D02*
X74008571Y-89193714D01*
X73770476Y-88860380D02*
X73770476Y-89717523D01*
X73818095Y-89812761D01*
X73913333Y-89860380D01*
X74008571Y-89860380D01*
X74341904Y-89193714D02*
X74341904Y-90193714D01*
X74341904Y-89241333D02*
X74437142Y-89193714D01*
X74627619Y-89193714D01*
X74722857Y-89241333D01*
X74770476Y-89288952D01*
X74818095Y-89384190D01*
X74818095Y-89669904D01*
X74770476Y-89765142D01*
X74722857Y-89812761D01*
X74627619Y-89860380D01*
X74437142Y-89860380D01*
X74341904Y-89812761D01*
X75675238Y-89193714D02*
X75675238Y-89860380D01*
X75246666Y-89193714D02*
X75246666Y-89717523D01*
X75294285Y-89812761D01*
X75389523Y-89860380D01*
X75532380Y-89860380D01*
X75627619Y-89812761D01*
X75675238Y-89765142D01*
X76008571Y-89193714D02*
X76389523Y-89193714D01*
X76151428Y-88860380D02*
X76151428Y-89717523D01*
X76199047Y-89812761D01*
X76294285Y-89860380D01*
X76389523Y-89860380D01*
G04 #@! TO.C,J6*
X95678666Y-90892380D02*
X95678666Y-91606666D01*
X95631047Y-91749523D01*
X95535809Y-91844761D01*
X95392952Y-91892380D01*
X95297714Y-91892380D01*
X96583428Y-90892380D02*
X96392952Y-90892380D01*
X96297714Y-90940000D01*
X96250095Y-90987619D01*
X96154857Y-91130476D01*
X96107238Y-91320952D01*
X96107238Y-91701904D01*
X96154857Y-91797142D01*
X96202476Y-91844761D01*
X96297714Y-91892380D01*
X96488190Y-91892380D01*
X96583428Y-91844761D01*
X96631047Y-91797142D01*
X96678666Y-91701904D01*
X96678666Y-91463809D01*
X96631047Y-91368571D01*
X96583428Y-91320952D01*
X96488190Y-91273333D01*
X96297714Y-91273333D01*
X96202476Y-91320952D01*
X96154857Y-91368571D01*
X96107238Y-91463809D01*
X80010857Y-89336571D02*
X80153714Y-89384190D01*
X80201333Y-89431809D01*
X80248952Y-89527047D01*
X80248952Y-89669904D01*
X80201333Y-89765142D01*
X80153714Y-89812761D01*
X80058476Y-89860380D01*
X79677523Y-89860380D01*
X79677523Y-88860380D01*
X80010857Y-88860380D01*
X80106095Y-88908000D01*
X80153714Y-88955619D01*
X80201333Y-89050857D01*
X80201333Y-89146095D01*
X80153714Y-89241333D01*
X80106095Y-89288952D01*
X80010857Y-89336571D01*
X79677523Y-89336571D01*
X80820380Y-89860380D02*
X80725142Y-89812761D01*
X80677523Y-89717523D01*
X80677523Y-88860380D01*
X81629904Y-89193714D02*
X81629904Y-89860380D01*
X81201333Y-89193714D02*
X81201333Y-89717523D01*
X81248952Y-89812761D01*
X81344190Y-89860380D01*
X81487047Y-89860380D01*
X81582285Y-89812761D01*
X81629904Y-89765142D01*
X82487047Y-89812761D02*
X82391809Y-89860380D01*
X82201333Y-89860380D01*
X82106095Y-89812761D01*
X82058476Y-89717523D01*
X82058476Y-89336571D01*
X82106095Y-89241333D01*
X82201333Y-89193714D01*
X82391809Y-89193714D01*
X82487047Y-89241333D01*
X82534666Y-89336571D01*
X82534666Y-89431809D01*
X82058476Y-89527047D01*
X84153714Y-89812761D02*
X84058476Y-89860380D01*
X83868000Y-89860380D01*
X83772761Y-89812761D01*
X83725142Y-89765142D01*
X83677523Y-89669904D01*
X83677523Y-89384190D01*
X83725142Y-89288952D01*
X83772761Y-89241333D01*
X83868000Y-89193714D01*
X84058476Y-89193714D01*
X84153714Y-89241333D01*
X84725142Y-89860380D02*
X84629904Y-89812761D01*
X84582285Y-89765142D01*
X84534666Y-89669904D01*
X84534666Y-89384190D01*
X84582285Y-89288952D01*
X84629904Y-89241333D01*
X84725142Y-89193714D01*
X84868000Y-89193714D01*
X84963238Y-89241333D01*
X85010857Y-89288952D01*
X85058476Y-89384190D01*
X85058476Y-89669904D01*
X85010857Y-89765142D01*
X84963238Y-89812761D01*
X84868000Y-89860380D01*
X84725142Y-89860380D01*
X85487047Y-89193714D02*
X85487047Y-89860380D01*
X85487047Y-89288952D02*
X85534666Y-89241333D01*
X85629904Y-89193714D01*
X85772761Y-89193714D01*
X85868000Y-89241333D01*
X85915619Y-89336571D01*
X85915619Y-89860380D01*
X86248952Y-89193714D02*
X86629904Y-89193714D01*
X86391809Y-88860380D02*
X86391809Y-89717523D01*
X86439428Y-89812761D01*
X86534666Y-89860380D01*
X86629904Y-89860380D01*
X86963238Y-89860380D02*
X86963238Y-89193714D01*
X86963238Y-89384190D02*
X87010857Y-89288952D01*
X87058476Y-89241333D01*
X87153714Y-89193714D01*
X87248952Y-89193714D01*
X87725142Y-89860380D02*
X87629904Y-89812761D01*
X87582285Y-89765142D01*
X87534666Y-89669904D01*
X87534666Y-89384190D01*
X87582285Y-89288952D01*
X87629904Y-89241333D01*
X87725142Y-89193714D01*
X87868000Y-89193714D01*
X87963238Y-89241333D01*
X88010857Y-89288952D01*
X88058476Y-89384190D01*
X88058476Y-89669904D01*
X88010857Y-89765142D01*
X87963238Y-89812761D01*
X87868000Y-89860380D01*
X87725142Y-89860380D01*
X88629904Y-89860380D02*
X88534666Y-89812761D01*
X88487047Y-89717523D01*
X88487047Y-88860380D01*
X89915619Y-89860380D02*
X89820380Y-89812761D01*
X89772761Y-89765142D01*
X89725142Y-89669904D01*
X89725142Y-89384190D01*
X89772761Y-89288952D01*
X89820380Y-89241333D01*
X89915619Y-89193714D01*
X90058476Y-89193714D01*
X90153714Y-89241333D01*
X90201333Y-89288952D01*
X90248952Y-89384190D01*
X90248952Y-89669904D01*
X90201333Y-89765142D01*
X90153714Y-89812761D01*
X90058476Y-89860380D01*
X89915619Y-89860380D01*
X91106095Y-89193714D02*
X91106095Y-89860380D01*
X90677523Y-89193714D02*
X90677523Y-89717523D01*
X90725142Y-89812761D01*
X90820380Y-89860380D01*
X90963238Y-89860380D01*
X91058476Y-89812761D01*
X91106095Y-89765142D01*
X91439428Y-89193714D02*
X91820380Y-89193714D01*
X91582285Y-88860380D02*
X91582285Y-89717523D01*
X91629904Y-89812761D01*
X91725142Y-89860380D01*
X91820380Y-89860380D01*
X92153714Y-89193714D02*
X92153714Y-90193714D01*
X92153714Y-89241333D02*
X92248952Y-89193714D01*
X92439428Y-89193714D01*
X92534666Y-89241333D01*
X92582285Y-89288952D01*
X92629904Y-89384190D01*
X92629904Y-89669904D01*
X92582285Y-89765142D01*
X92534666Y-89812761D01*
X92439428Y-89860380D01*
X92248952Y-89860380D01*
X92153714Y-89812761D01*
X93487047Y-89193714D02*
X93487047Y-89860380D01*
X93058476Y-89193714D02*
X93058476Y-89717523D01*
X93106095Y-89812761D01*
X93201333Y-89860380D01*
X93344190Y-89860380D01*
X93439428Y-89812761D01*
X93487047Y-89765142D01*
X93820380Y-89193714D02*
X94201333Y-89193714D01*
X93963238Y-88860380D02*
X93963238Y-89717523D01*
X94010857Y-89812761D01*
X94106095Y-89860380D01*
X94201333Y-89860380D01*
G04 #@! TO.C,J7*
X40814666Y-91400380D02*
X40814666Y-92114666D01*
X40767047Y-92257523D01*
X40671809Y-92352761D01*
X40528952Y-92400380D01*
X40433714Y-92400380D01*
X41195619Y-91400380D02*
X41862285Y-91400380D01*
X41433714Y-92400380D01*
X43934857Y-89860380D02*
X43601523Y-89384190D01*
X43363428Y-89860380D02*
X43363428Y-88860380D01*
X43744380Y-88860380D01*
X43839619Y-88908000D01*
X43887238Y-88955619D01*
X43934857Y-89050857D01*
X43934857Y-89193714D01*
X43887238Y-89288952D01*
X43839619Y-89336571D01*
X43744380Y-89384190D01*
X43363428Y-89384190D01*
X44744380Y-89812761D02*
X44649142Y-89860380D01*
X44458666Y-89860380D01*
X44363428Y-89812761D01*
X44315809Y-89717523D01*
X44315809Y-89336571D01*
X44363428Y-89241333D01*
X44458666Y-89193714D01*
X44649142Y-89193714D01*
X44744380Y-89241333D01*
X44792000Y-89336571D01*
X44792000Y-89431809D01*
X44315809Y-89527047D01*
X45649142Y-89860380D02*
X45649142Y-88860380D01*
X45649142Y-89812761D02*
X45553904Y-89860380D01*
X45363428Y-89860380D01*
X45268190Y-89812761D01*
X45220571Y-89765142D01*
X45172952Y-89669904D01*
X45172952Y-89384190D01*
X45220571Y-89288952D01*
X45268190Y-89241333D01*
X45363428Y-89193714D01*
X45553904Y-89193714D01*
X45649142Y-89241333D01*
X47315809Y-89812761D02*
X47220571Y-89860380D01*
X47030095Y-89860380D01*
X46934857Y-89812761D01*
X46887238Y-89765142D01*
X46839619Y-89669904D01*
X46839619Y-89384190D01*
X46887238Y-89288952D01*
X46934857Y-89241333D01*
X47030095Y-89193714D01*
X47220571Y-89193714D01*
X47315809Y-89241333D01*
X47887238Y-89860380D02*
X47792000Y-89812761D01*
X47744380Y-89765142D01*
X47696761Y-89669904D01*
X47696761Y-89384190D01*
X47744380Y-89288952D01*
X47792000Y-89241333D01*
X47887238Y-89193714D01*
X48030095Y-89193714D01*
X48125333Y-89241333D01*
X48172952Y-89288952D01*
X48220571Y-89384190D01*
X48220571Y-89669904D01*
X48172952Y-89765142D01*
X48125333Y-89812761D01*
X48030095Y-89860380D01*
X47887238Y-89860380D01*
X48649142Y-89193714D02*
X48649142Y-89860380D01*
X48649142Y-89288952D02*
X48696761Y-89241333D01*
X48792000Y-89193714D01*
X48934857Y-89193714D01*
X49030095Y-89241333D01*
X49077714Y-89336571D01*
X49077714Y-89860380D01*
X49411047Y-89193714D02*
X49792000Y-89193714D01*
X49553904Y-88860380D02*
X49553904Y-89717523D01*
X49601523Y-89812761D01*
X49696761Y-89860380D01*
X49792000Y-89860380D01*
X50125333Y-89860380D02*
X50125333Y-89193714D01*
X50125333Y-89384190D02*
X50172952Y-89288952D01*
X50220571Y-89241333D01*
X50315809Y-89193714D01*
X50411047Y-89193714D01*
X50887238Y-89860380D02*
X50792000Y-89812761D01*
X50744380Y-89765142D01*
X50696761Y-89669904D01*
X50696761Y-89384190D01*
X50744380Y-89288952D01*
X50792000Y-89241333D01*
X50887238Y-89193714D01*
X51030095Y-89193714D01*
X51125333Y-89241333D01*
X51172952Y-89288952D01*
X51220571Y-89384190D01*
X51220571Y-89669904D01*
X51172952Y-89765142D01*
X51125333Y-89812761D01*
X51030095Y-89860380D01*
X50887238Y-89860380D01*
X51792000Y-89860380D02*
X51696761Y-89812761D01*
X51649142Y-89717523D01*
X51649142Y-88860380D01*
X53077714Y-89860380D02*
X52982476Y-89812761D01*
X52934857Y-89765142D01*
X52887238Y-89669904D01*
X52887238Y-89384190D01*
X52934857Y-89288952D01*
X52982476Y-89241333D01*
X53077714Y-89193714D01*
X53220571Y-89193714D01*
X53315809Y-89241333D01*
X53363428Y-89288952D01*
X53411047Y-89384190D01*
X53411047Y-89669904D01*
X53363428Y-89765142D01*
X53315809Y-89812761D01*
X53220571Y-89860380D01*
X53077714Y-89860380D01*
X54268190Y-89193714D02*
X54268190Y-89860380D01*
X53839619Y-89193714D02*
X53839619Y-89717523D01*
X53887238Y-89812761D01*
X53982476Y-89860380D01*
X54125333Y-89860380D01*
X54220571Y-89812761D01*
X54268190Y-89765142D01*
X54601523Y-89193714D02*
X54982476Y-89193714D01*
X54744380Y-88860380D02*
X54744380Y-89717523D01*
X54792000Y-89812761D01*
X54887238Y-89860380D01*
X54982476Y-89860380D01*
X55315809Y-89193714D02*
X55315809Y-90193714D01*
X55315809Y-89241333D02*
X55411047Y-89193714D01*
X55601523Y-89193714D01*
X55696761Y-89241333D01*
X55744380Y-89288952D01*
X55792000Y-89384190D01*
X55792000Y-89669904D01*
X55744380Y-89765142D01*
X55696761Y-89812761D01*
X55601523Y-89860380D01*
X55411047Y-89860380D01*
X55315809Y-89812761D01*
X56649142Y-89193714D02*
X56649142Y-89860380D01*
X56220571Y-89193714D02*
X56220571Y-89717523D01*
X56268190Y-89812761D01*
X56363428Y-89860380D01*
X56506285Y-89860380D01*
X56601523Y-89812761D01*
X56649142Y-89765142D01*
X56982476Y-89193714D02*
X57363428Y-89193714D01*
X57125333Y-88860380D02*
X57125333Y-89717523D01*
X57172952Y-89812761D01*
X57268190Y-89860380D01*
X57363428Y-89860380D01*
G04 #@! TO.C,L1*
X97834380Y-57610666D02*
X97834380Y-58086857D01*
X96834380Y-58086857D01*
X97834380Y-56753523D02*
X97834380Y-57324952D01*
X97834380Y-57039238D02*
X96834380Y-57039238D01*
X96977238Y-57134476D01*
X97072476Y-57229714D01*
X97120095Y-57324952D01*
G04 #@! TO.C,U1*
X51358380Y-82549904D02*
X52167904Y-82549904D01*
X52263142Y-82502285D01*
X52310761Y-82454666D01*
X52358380Y-82359428D01*
X52358380Y-82168952D01*
X52310761Y-82073714D01*
X52263142Y-82026095D01*
X52167904Y-81978476D01*
X51358380Y-81978476D01*
X52358380Y-80978476D02*
X52358380Y-81549904D01*
X52358380Y-81264190D02*
X51358380Y-81264190D01*
X51501238Y-81359428D01*
X51596476Y-81454666D01*
X51644095Y-81549904D01*
X57308380Y-85740380D02*
X56832190Y-86073714D01*
X57308380Y-86311809D02*
X56308380Y-86311809D01*
X56308380Y-85930857D01*
X56356000Y-85835619D01*
X56403619Y-85788000D01*
X56498857Y-85740380D01*
X56641714Y-85740380D01*
X56736952Y-85788000D01*
X56784571Y-85835619D01*
X56832190Y-85930857D01*
X56832190Y-86311809D01*
X56784571Y-85311809D02*
X56784571Y-84978476D01*
X57308380Y-84835619D02*
X57308380Y-85311809D01*
X56308380Y-85311809D01*
X56308380Y-84835619D01*
X57308380Y-84407047D02*
X56308380Y-84407047D01*
X56308380Y-84168952D01*
X56356000Y-84026095D01*
X56451238Y-83930857D01*
X56546476Y-83883238D01*
X56736952Y-83835619D01*
X56879809Y-83835619D01*
X57070285Y-83883238D01*
X57165523Y-83930857D01*
X57260761Y-84026095D01*
X57308380Y-84168952D01*
X57308380Y-84407047D01*
X57260761Y-82216571D02*
X57308380Y-82311809D01*
X57308380Y-82502285D01*
X57260761Y-82597523D01*
X57213142Y-82645142D01*
X57117904Y-82692761D01*
X56832190Y-82692761D01*
X56736952Y-82645142D01*
X56689333Y-82597523D01*
X56641714Y-82502285D01*
X56641714Y-82311809D01*
X56689333Y-82216571D01*
X57308380Y-81788000D02*
X56308380Y-81788000D01*
X57308380Y-81359428D02*
X56784571Y-81359428D01*
X56689333Y-81407047D01*
X56641714Y-81502285D01*
X56641714Y-81645142D01*
X56689333Y-81740380D01*
X56736952Y-81788000D01*
X57308380Y-80454666D02*
X56784571Y-80454666D01*
X56689333Y-80502285D01*
X56641714Y-80597523D01*
X56641714Y-80788000D01*
X56689333Y-80883238D01*
X57260761Y-80454666D02*
X57308380Y-80549904D01*
X57308380Y-80788000D01*
X57260761Y-80883238D01*
X57165523Y-80930857D01*
X57070285Y-80930857D01*
X56975047Y-80883238D01*
X56927428Y-80788000D01*
X56927428Y-80549904D01*
X56879809Y-80454666D01*
X56641714Y-79978476D02*
X57308380Y-79978476D01*
X56736952Y-79978476D02*
X56689333Y-79930857D01*
X56641714Y-79835619D01*
X56641714Y-79692761D01*
X56689333Y-79597523D01*
X56784571Y-79549904D01*
X57308380Y-79549904D01*
X56641714Y-79073714D02*
X57308380Y-79073714D01*
X56736952Y-79073714D02*
X56689333Y-79026095D01*
X56641714Y-78930857D01*
X56641714Y-78788000D01*
X56689333Y-78692761D01*
X56784571Y-78645142D01*
X57308380Y-78645142D01*
X57260761Y-77788000D02*
X57308380Y-77883238D01*
X57308380Y-78073714D01*
X57260761Y-78168952D01*
X57165523Y-78216571D01*
X56784571Y-78216571D01*
X56689333Y-78168952D01*
X56641714Y-78073714D01*
X56641714Y-77883238D01*
X56689333Y-77788000D01*
X56784571Y-77740380D01*
X56879809Y-77740380D01*
X56975047Y-78216571D01*
X57308380Y-77168952D02*
X57260761Y-77264190D01*
X57165523Y-77311809D01*
X56308380Y-77311809D01*
G04 #@! TO.C,U2*
X56094380Y-72389904D02*
X56903904Y-72389904D01*
X56999142Y-72342285D01*
X57046761Y-72294666D01*
X57094380Y-72199428D01*
X57094380Y-72008952D01*
X57046761Y-71913714D01*
X56999142Y-71866095D01*
X56903904Y-71818476D01*
X56094380Y-71818476D01*
X56189619Y-71389904D02*
X56142000Y-71342285D01*
X56094380Y-71247047D01*
X56094380Y-71008952D01*
X56142000Y-70913714D01*
X56189619Y-70866095D01*
X56284857Y-70818476D01*
X56380095Y-70818476D01*
X56522952Y-70866095D01*
X57094380Y-71437523D01*
X57094380Y-70818476D01*
X51062000Y-76294666D02*
X51014380Y-76389904D01*
X51014380Y-76532761D01*
X51062000Y-76675619D01*
X51157238Y-76770857D01*
X51252476Y-76818476D01*
X51442952Y-76866095D01*
X51585809Y-76866095D01*
X51776285Y-76818476D01*
X51871523Y-76770857D01*
X51966761Y-76675619D01*
X52014380Y-76532761D01*
X52014380Y-76437523D01*
X51966761Y-76294666D01*
X51919142Y-76247047D01*
X51585809Y-76247047D01*
X51585809Y-76437523D01*
X52014380Y-75818476D02*
X51347714Y-75818476D01*
X51538190Y-75818476D02*
X51442952Y-75770857D01*
X51395333Y-75723238D01*
X51347714Y-75628000D01*
X51347714Y-75532761D01*
X51966761Y-74818476D02*
X52014380Y-74913714D01*
X52014380Y-75104190D01*
X51966761Y-75199428D01*
X51871523Y-75247047D01*
X51490571Y-75247047D01*
X51395333Y-75199428D01*
X51347714Y-75104190D01*
X51347714Y-74913714D01*
X51395333Y-74818476D01*
X51490571Y-74770857D01*
X51585809Y-74770857D01*
X51681047Y-75247047D01*
X51966761Y-73961333D02*
X52014380Y-74056571D01*
X52014380Y-74247047D01*
X51966761Y-74342285D01*
X51871523Y-74389904D01*
X51490571Y-74389904D01*
X51395333Y-74342285D01*
X51347714Y-74247047D01*
X51347714Y-74056571D01*
X51395333Y-73961333D01*
X51490571Y-73913714D01*
X51585809Y-73913714D01*
X51681047Y-74389904D01*
X51347714Y-73485142D02*
X52014380Y-73485142D01*
X51442952Y-73485142D02*
X51395333Y-73437523D01*
X51347714Y-73342285D01*
X51347714Y-73199428D01*
X51395333Y-73104190D01*
X51490571Y-73056571D01*
X52014380Y-73056571D01*
X51966761Y-71389904D02*
X52014380Y-71485142D01*
X52014380Y-71675619D01*
X51966761Y-71770857D01*
X51919142Y-71818476D01*
X51823904Y-71866095D01*
X51538190Y-71866095D01*
X51442952Y-71818476D01*
X51395333Y-71770857D01*
X51347714Y-71675619D01*
X51347714Y-71485142D01*
X51395333Y-71389904D01*
X52014380Y-70961333D02*
X51014380Y-70961333D01*
X52014380Y-70532761D02*
X51490571Y-70532761D01*
X51395333Y-70580380D01*
X51347714Y-70675619D01*
X51347714Y-70818476D01*
X51395333Y-70913714D01*
X51442952Y-70961333D01*
X52014380Y-69628000D02*
X51490571Y-69628000D01*
X51395333Y-69675619D01*
X51347714Y-69770857D01*
X51347714Y-69961333D01*
X51395333Y-70056571D01*
X51966761Y-69628000D02*
X52014380Y-69723238D01*
X52014380Y-69961333D01*
X51966761Y-70056571D01*
X51871523Y-70104190D01*
X51776285Y-70104190D01*
X51681047Y-70056571D01*
X51633428Y-69961333D01*
X51633428Y-69723238D01*
X51585809Y-69628000D01*
X51347714Y-69151809D02*
X52014380Y-69151809D01*
X51442952Y-69151809D02*
X51395333Y-69104190D01*
X51347714Y-69008952D01*
X51347714Y-68866095D01*
X51395333Y-68770857D01*
X51490571Y-68723238D01*
X52014380Y-68723238D01*
X51347714Y-68247047D02*
X52014380Y-68247047D01*
X51442952Y-68247047D02*
X51395333Y-68199428D01*
X51347714Y-68104190D01*
X51347714Y-67961333D01*
X51395333Y-67866095D01*
X51490571Y-67818476D01*
X52014380Y-67818476D01*
X51966761Y-66961333D02*
X52014380Y-67056571D01*
X52014380Y-67247047D01*
X51966761Y-67342285D01*
X51871523Y-67389904D01*
X51490571Y-67389904D01*
X51395333Y-67342285D01*
X51347714Y-67247047D01*
X51347714Y-67056571D01*
X51395333Y-66961333D01*
X51490571Y-66913714D01*
X51585809Y-66913714D01*
X51681047Y-67389904D01*
X52014380Y-66342285D02*
X51966761Y-66437523D01*
X51871523Y-66485142D01*
X51014380Y-66485142D01*
G04 #@! TO.C,U3*
X51358380Y-62229904D02*
X52167904Y-62229904D01*
X52263142Y-62182285D01*
X52310761Y-62134666D01*
X52358380Y-62039428D01*
X52358380Y-61848952D01*
X52310761Y-61753714D01*
X52263142Y-61706095D01*
X52167904Y-61658476D01*
X51358380Y-61658476D01*
X51358380Y-61277523D02*
X51358380Y-60658476D01*
X51739333Y-60991809D01*
X51739333Y-60848952D01*
X51786952Y-60753714D01*
X51834571Y-60706095D01*
X51929809Y-60658476D01*
X52167904Y-60658476D01*
X52263142Y-60706095D01*
X52310761Y-60753714D01*
X52358380Y-60848952D01*
X52358380Y-61134666D01*
X52310761Y-61229904D01*
X52263142Y-61277523D01*
X56784571Y-65848952D02*
X56832190Y-65706095D01*
X56879809Y-65658476D01*
X56975047Y-65610857D01*
X57117904Y-65610857D01*
X57213142Y-65658476D01*
X57260761Y-65706095D01*
X57308380Y-65801333D01*
X57308380Y-66182285D01*
X56308380Y-66182285D01*
X56308380Y-65848952D01*
X56356000Y-65753714D01*
X56403619Y-65706095D01*
X56498857Y-65658476D01*
X56594095Y-65658476D01*
X56689333Y-65706095D01*
X56736952Y-65753714D01*
X56784571Y-65848952D01*
X56784571Y-66182285D01*
X57308380Y-65039428D02*
X57260761Y-65134666D01*
X57165523Y-65182285D01*
X56308380Y-65182285D01*
X56641714Y-64229904D02*
X57308380Y-64229904D01*
X56641714Y-64658476D02*
X57165523Y-64658476D01*
X57260761Y-64610857D01*
X57308380Y-64515619D01*
X57308380Y-64372761D01*
X57260761Y-64277523D01*
X57213142Y-64229904D01*
X57260761Y-63372761D02*
X57308380Y-63468000D01*
X57308380Y-63658476D01*
X57260761Y-63753714D01*
X57165523Y-63801333D01*
X56784571Y-63801333D01*
X56689333Y-63753714D01*
X56641714Y-63658476D01*
X56641714Y-63468000D01*
X56689333Y-63372761D01*
X56784571Y-63325142D01*
X56879809Y-63325142D01*
X56975047Y-63801333D01*
X57260761Y-61706095D02*
X57308380Y-61801333D01*
X57308380Y-61991809D01*
X57260761Y-62087047D01*
X57213142Y-62134666D01*
X57117904Y-62182285D01*
X56832190Y-62182285D01*
X56736952Y-62134666D01*
X56689333Y-62087047D01*
X56641714Y-61991809D01*
X56641714Y-61801333D01*
X56689333Y-61706095D01*
X57308380Y-61277523D02*
X56308380Y-61277523D01*
X57308380Y-60848952D02*
X56784571Y-60848952D01*
X56689333Y-60896571D01*
X56641714Y-60991809D01*
X56641714Y-61134666D01*
X56689333Y-61229904D01*
X56736952Y-61277523D01*
X57308380Y-59944190D02*
X56784571Y-59944190D01*
X56689333Y-59991809D01*
X56641714Y-60087047D01*
X56641714Y-60277523D01*
X56689333Y-60372761D01*
X57260761Y-59944190D02*
X57308380Y-60039428D01*
X57308380Y-60277523D01*
X57260761Y-60372761D01*
X57165523Y-60420380D01*
X57070285Y-60420380D01*
X56975047Y-60372761D01*
X56927428Y-60277523D01*
X56927428Y-60039428D01*
X56879809Y-59944190D01*
X56641714Y-59468000D02*
X57308380Y-59468000D01*
X56736952Y-59468000D02*
X56689333Y-59420380D01*
X56641714Y-59325142D01*
X56641714Y-59182285D01*
X56689333Y-59087047D01*
X56784571Y-59039428D01*
X57308380Y-59039428D01*
X56641714Y-58563238D02*
X57308380Y-58563238D01*
X56736952Y-58563238D02*
X56689333Y-58515619D01*
X56641714Y-58420380D01*
X56641714Y-58277523D01*
X56689333Y-58182285D01*
X56784571Y-58134666D01*
X57308380Y-58134666D01*
X57260761Y-57277523D02*
X57308380Y-57372761D01*
X57308380Y-57563238D01*
X57260761Y-57658476D01*
X57165523Y-57706095D01*
X56784571Y-57706095D01*
X56689333Y-57658476D01*
X56641714Y-57563238D01*
X56641714Y-57372761D01*
X56689333Y-57277523D01*
X56784571Y-57229904D01*
X56879809Y-57229904D01*
X56975047Y-57706095D01*
X57308380Y-56658476D02*
X57260761Y-56753714D01*
X57165523Y-56801333D01*
X56308380Y-56801333D01*
G04 #@! TO.C,U5*
X58978380Y-82549904D02*
X59787904Y-82549904D01*
X59883142Y-82502285D01*
X59930761Y-82454666D01*
X59978380Y-82359428D01*
X59978380Y-82168952D01*
X59930761Y-82073714D01*
X59883142Y-82026095D01*
X59787904Y-81978476D01*
X58978380Y-81978476D01*
X58978380Y-81026095D02*
X58978380Y-81502285D01*
X59454571Y-81549904D01*
X59406952Y-81502285D01*
X59359333Y-81407047D01*
X59359333Y-81168952D01*
X59406952Y-81073714D01*
X59454571Y-81026095D01*
X59549809Y-80978476D01*
X59787904Y-80978476D01*
X59883142Y-81026095D01*
X59930761Y-81073714D01*
X59978380Y-81168952D01*
X59978380Y-81407047D01*
X59930761Y-81502285D01*
X59883142Y-81549904D01*
X64928380Y-85073714D02*
X64452190Y-85407047D01*
X64928380Y-85645142D02*
X63928380Y-85645142D01*
X63928380Y-85264190D01*
X63976000Y-85168952D01*
X64023619Y-85121333D01*
X64118857Y-85073714D01*
X64261714Y-85073714D01*
X64356952Y-85121333D01*
X64404571Y-85168952D01*
X64452190Y-85264190D01*
X64452190Y-85645142D01*
X64404571Y-84645142D02*
X64404571Y-84311809D01*
X64928380Y-84168952D02*
X64928380Y-84645142D01*
X63928380Y-84645142D01*
X63928380Y-84168952D01*
X64928380Y-83740380D02*
X63928380Y-83740380D01*
X63928380Y-83502285D01*
X63976000Y-83359428D01*
X64071238Y-83264190D01*
X64166476Y-83216571D01*
X64356952Y-83168952D01*
X64499809Y-83168952D01*
X64690285Y-83216571D01*
X64785523Y-83264190D01*
X64880761Y-83359428D01*
X64928380Y-83502285D01*
X64928380Y-83740380D01*
X64547428Y-82740380D02*
X64547428Y-81978476D01*
X64928380Y-82359428D02*
X64166476Y-82359428D01*
X64928380Y-81502285D02*
X63928380Y-81502285D01*
X64309333Y-81502285D02*
X64261714Y-81407047D01*
X64261714Y-81216571D01*
X64309333Y-81121333D01*
X64356952Y-81073714D01*
X64452190Y-81026095D01*
X64737904Y-81026095D01*
X64833142Y-81073714D01*
X64880761Y-81121333D01*
X64928380Y-81216571D01*
X64928380Y-81407047D01*
X64880761Y-81502285D01*
X64928380Y-80454666D02*
X64880761Y-80549904D01*
X64785523Y-80597523D01*
X63928380Y-80597523D01*
X64928380Y-79645142D02*
X64404571Y-79645142D01*
X64309333Y-79692761D01*
X64261714Y-79788000D01*
X64261714Y-79978476D01*
X64309333Y-80073714D01*
X64880761Y-79645142D02*
X64928380Y-79740380D01*
X64928380Y-79978476D01*
X64880761Y-80073714D01*
X64785523Y-80121333D01*
X64690285Y-80121333D01*
X64595047Y-80073714D01*
X64547428Y-79978476D01*
X64547428Y-79740380D01*
X64499809Y-79645142D01*
X64261714Y-79168952D02*
X64928380Y-79168952D01*
X64356952Y-79168952D02*
X64309333Y-79121333D01*
X64261714Y-79026095D01*
X64261714Y-78883238D01*
X64309333Y-78788000D01*
X64404571Y-78740380D01*
X64928380Y-78740380D01*
X64928380Y-78264190D02*
X63928380Y-78264190D01*
X64547428Y-78168952D02*
X64928380Y-77883238D01*
X64261714Y-77883238D02*
X64642666Y-78264190D01*
G04 #@! TO.C,U7*
X58470380Y-62229904D02*
X59279904Y-62229904D01*
X59375142Y-62182285D01*
X59422761Y-62134666D01*
X59470380Y-62039428D01*
X59470380Y-61848952D01*
X59422761Y-61753714D01*
X59375142Y-61706095D01*
X59279904Y-61658476D01*
X58470380Y-61658476D01*
X58470380Y-61277523D02*
X58470380Y-60610857D01*
X59470380Y-61039428D01*
X63896571Y-65182285D02*
X63944190Y-65039428D01*
X63991809Y-64991809D01*
X64087047Y-64944190D01*
X64229904Y-64944190D01*
X64325142Y-64991809D01*
X64372761Y-65039428D01*
X64420380Y-65134666D01*
X64420380Y-65515619D01*
X63420380Y-65515619D01*
X63420380Y-65182285D01*
X63468000Y-65087047D01*
X63515619Y-65039428D01*
X63610857Y-64991809D01*
X63706095Y-64991809D01*
X63801333Y-65039428D01*
X63848952Y-65087047D01*
X63896571Y-65182285D01*
X63896571Y-65515619D01*
X64420380Y-64372761D02*
X64372761Y-64468000D01*
X64277523Y-64515619D01*
X63420380Y-64515619D01*
X63753714Y-63563238D02*
X64420380Y-63563238D01*
X63753714Y-63991809D02*
X64277523Y-63991809D01*
X64372761Y-63944190D01*
X64420380Y-63848952D01*
X64420380Y-63706095D01*
X64372761Y-63610857D01*
X64325142Y-63563238D01*
X64372761Y-62706095D02*
X64420380Y-62801333D01*
X64420380Y-62991809D01*
X64372761Y-63087047D01*
X64277523Y-63134666D01*
X63896571Y-63134666D01*
X63801333Y-63087047D01*
X63753714Y-62991809D01*
X63753714Y-62801333D01*
X63801333Y-62706095D01*
X63896571Y-62658476D01*
X63991809Y-62658476D01*
X64087047Y-63134666D01*
X64039428Y-62229904D02*
X64039428Y-61468000D01*
X64420380Y-61848952D02*
X63658476Y-61848952D01*
X64420380Y-60991809D02*
X63420380Y-60991809D01*
X63801333Y-60991809D02*
X63753714Y-60896571D01*
X63753714Y-60706095D01*
X63801333Y-60610857D01*
X63848952Y-60563238D01*
X63944190Y-60515619D01*
X64229904Y-60515619D01*
X64325142Y-60563238D01*
X64372761Y-60610857D01*
X64420380Y-60706095D01*
X64420380Y-60896571D01*
X64372761Y-60991809D01*
X64420380Y-59944190D02*
X64372761Y-60039428D01*
X64277523Y-60087047D01*
X63420380Y-60087047D01*
X64420380Y-59134666D02*
X63896571Y-59134666D01*
X63801333Y-59182285D01*
X63753714Y-59277523D01*
X63753714Y-59468000D01*
X63801333Y-59563238D01*
X64372761Y-59134666D02*
X64420380Y-59229904D01*
X64420380Y-59468000D01*
X64372761Y-59563238D01*
X64277523Y-59610857D01*
X64182285Y-59610857D01*
X64087047Y-59563238D01*
X64039428Y-59468000D01*
X64039428Y-59229904D01*
X63991809Y-59134666D01*
X63753714Y-58658476D02*
X64420380Y-58658476D01*
X63848952Y-58658476D02*
X63801333Y-58610857D01*
X63753714Y-58515619D01*
X63753714Y-58372761D01*
X63801333Y-58277523D01*
X63896571Y-58229904D01*
X64420380Y-58229904D01*
X64420380Y-57753714D02*
X63420380Y-57753714D01*
X64039428Y-57658476D02*
X64420380Y-57372761D01*
X63753714Y-57372761D02*
X64134666Y-57753714D01*
G04 #@! TO.C,U8*
X72186380Y-77469904D02*
X72995904Y-77469904D01*
X73091142Y-77422285D01*
X73138761Y-77374666D01*
X73186380Y-77279428D01*
X73186380Y-77088952D01*
X73138761Y-76993714D01*
X73091142Y-76946095D01*
X72995904Y-76898476D01*
X72186380Y-76898476D01*
X72614952Y-76279428D02*
X72567333Y-76374666D01*
X72519714Y-76422285D01*
X72424476Y-76469904D01*
X72376857Y-76469904D01*
X72281619Y-76422285D01*
X72234000Y-76374666D01*
X72186380Y-76279428D01*
X72186380Y-76088952D01*
X72234000Y-75993714D01*
X72281619Y-75946095D01*
X72376857Y-75898476D01*
X72424476Y-75898476D01*
X72519714Y-75946095D01*
X72567333Y-75993714D01*
X72614952Y-76088952D01*
X72614952Y-76279428D01*
X72662571Y-76374666D01*
X72710190Y-76422285D01*
X72805428Y-76469904D01*
X72995904Y-76469904D01*
X73091142Y-76422285D01*
X73138761Y-76374666D01*
X73186380Y-76279428D01*
X73186380Y-76088952D01*
X73138761Y-75993714D01*
X73091142Y-75946095D01*
X72995904Y-75898476D01*
X72805428Y-75898476D01*
X72710190Y-75946095D01*
X72662571Y-75993714D01*
X72614952Y-76088952D01*
X77136380Y-80898476D02*
X77136380Y-80231809D01*
X78136380Y-80660380D01*
X77469714Y-79422285D02*
X78136380Y-79422285D01*
X77088761Y-79660380D02*
X77803047Y-79898476D01*
X77803047Y-79279428D01*
X77850666Y-78946095D02*
X77850666Y-78469904D01*
X78136380Y-79041333D02*
X77136380Y-78708000D01*
X78136380Y-78374666D01*
X78136380Y-78041333D02*
X77136380Y-78041333D01*
X77612571Y-78041333D02*
X77612571Y-77469904D01*
X78136380Y-77469904D02*
X77136380Y-77469904D01*
X78041142Y-76422285D02*
X78088761Y-76469904D01*
X78136380Y-76612761D01*
X78136380Y-76708000D01*
X78088761Y-76850857D01*
X77993523Y-76946095D01*
X77898285Y-76993714D01*
X77707809Y-77041333D01*
X77564952Y-77041333D01*
X77374476Y-76993714D01*
X77279238Y-76946095D01*
X77184000Y-76850857D01*
X77136380Y-76708000D01*
X77136380Y-76612761D01*
X77184000Y-76469904D01*
X77231619Y-76422285D01*
X78136380Y-75469904D02*
X78136380Y-76041333D01*
X78136380Y-75755619D02*
X77136380Y-75755619D01*
X77279238Y-75850857D01*
X77374476Y-75946095D01*
X77422095Y-76041333D01*
X77184000Y-74517523D02*
X77136380Y-74612761D01*
X77136380Y-74755619D01*
X77184000Y-74898476D01*
X77279238Y-74993714D01*
X77374476Y-75041333D01*
X77564952Y-75088952D01*
X77707809Y-75088952D01*
X77898285Y-75041333D01*
X77993523Y-74993714D01*
X78088761Y-74898476D01*
X78136380Y-74755619D01*
X78136380Y-74660380D01*
X78088761Y-74517523D01*
X78041142Y-74469904D01*
X77707809Y-74469904D01*
X77707809Y-74660380D01*
X77136380Y-73850857D02*
X77136380Y-73755619D01*
X77184000Y-73660380D01*
X77231619Y-73612761D01*
X77326857Y-73565142D01*
X77517333Y-73517523D01*
X77755428Y-73517523D01*
X77945904Y-73565142D01*
X78041142Y-73612761D01*
X78088761Y-73660380D01*
X78136380Y-73755619D01*
X78136380Y-73850857D01*
X78088761Y-73946095D01*
X78041142Y-73993714D01*
X77945904Y-74041333D01*
X77755428Y-74088952D01*
X77517333Y-74088952D01*
X77326857Y-74041333D01*
X77231619Y-73993714D01*
X77184000Y-73946095D01*
X77136380Y-73850857D01*
X77469714Y-72660380D02*
X78136380Y-72660380D01*
X77088761Y-72898476D02*
X77803047Y-73136571D01*
X77803047Y-72517523D01*
G04 #@! TO.C,J8*
X115998666Y-73918380D02*
X115998666Y-74632666D01*
X115951047Y-74775523D01*
X115855809Y-74870761D01*
X115712952Y-74918380D01*
X115617714Y-74918380D01*
X116617714Y-74346952D02*
X116522476Y-74299333D01*
X116474857Y-74251714D01*
X116427238Y-74156476D01*
X116427238Y-74108857D01*
X116474857Y-74013619D01*
X116522476Y-73966000D01*
X116617714Y-73918380D01*
X116808190Y-73918380D01*
X116903428Y-73966000D01*
X116951047Y-74013619D01*
X116998666Y-74108857D01*
X116998666Y-74156476D01*
X116951047Y-74251714D01*
X116903428Y-74299333D01*
X116808190Y-74346952D01*
X116617714Y-74346952D01*
X116522476Y-74394571D01*
X116474857Y-74442190D01*
X116427238Y-74537428D01*
X116427238Y-74727904D01*
X116474857Y-74823142D01*
X116522476Y-74870761D01*
X116617714Y-74918380D01*
X116808190Y-74918380D01*
X116903428Y-74870761D01*
X116951047Y-74823142D01*
X116998666Y-74727904D01*
X116998666Y-74537428D01*
X116951047Y-74442190D01*
X116903428Y-74394571D01*
X116808190Y-74346952D01*
X113736380Y-73802285D02*
X112736380Y-73802285D01*
X113117333Y-73802285D02*
X113069714Y-73707047D01*
X113069714Y-73516571D01*
X113117333Y-73421333D01*
X113164952Y-73373714D01*
X113260190Y-73326095D01*
X113545904Y-73326095D01*
X113641142Y-73373714D01*
X113688761Y-73421333D01*
X113736380Y-73516571D01*
X113736380Y-73707047D01*
X113688761Y-73802285D01*
X113736380Y-72754666D02*
X113688761Y-72849904D01*
X113593523Y-72897523D01*
X112736380Y-72897523D01*
X113736380Y-71945142D02*
X113212571Y-71945142D01*
X113117333Y-71992761D01*
X113069714Y-72088000D01*
X113069714Y-72278476D01*
X113117333Y-72373714D01*
X113688761Y-71945142D02*
X113736380Y-72040380D01*
X113736380Y-72278476D01*
X113688761Y-72373714D01*
X113593523Y-72421333D01*
X113498285Y-72421333D01*
X113403047Y-72373714D01*
X113355428Y-72278476D01*
X113355428Y-72040380D01*
X113307809Y-71945142D01*
X113069714Y-71468952D02*
X113736380Y-71468952D01*
X113164952Y-71468952D02*
X113117333Y-71421333D01*
X113069714Y-71326095D01*
X113069714Y-71183238D01*
X113117333Y-71088000D01*
X113212571Y-71040380D01*
X113736380Y-71040380D01*
X113736380Y-70564190D02*
X112736380Y-70564190D01*
X113355428Y-70468952D02*
X113736380Y-70183238D01*
X113069714Y-70183238D02*
X113450666Y-70564190D01*
X113831619Y-69992761D02*
X113831619Y-69230857D01*
X113069714Y-68992761D02*
X113926857Y-68992761D01*
X114022095Y-69040380D01*
X114069714Y-69135619D01*
X114069714Y-69183238D01*
X112736380Y-68992761D02*
X112784000Y-69040380D01*
X112831619Y-68992761D01*
X112784000Y-68945142D01*
X112736380Y-68992761D01*
X112831619Y-68992761D01*
X113069714Y-68088000D02*
X113736380Y-68088000D01*
X113069714Y-68516571D02*
X113593523Y-68516571D01*
X113688761Y-68468952D01*
X113736380Y-68373714D01*
X113736380Y-68230857D01*
X113688761Y-68135619D01*
X113641142Y-68088000D01*
X113736380Y-67611809D02*
X113069714Y-67611809D01*
X113164952Y-67611809D02*
X113117333Y-67564190D01*
X113069714Y-67468952D01*
X113069714Y-67326095D01*
X113117333Y-67230857D01*
X113212571Y-67183238D01*
X113736380Y-67183238D01*
X113212571Y-67183238D02*
X113117333Y-67135619D01*
X113069714Y-67040380D01*
X113069714Y-66897523D01*
X113117333Y-66802285D01*
X113212571Y-66754666D01*
X113736380Y-66754666D01*
X113069714Y-66278476D02*
X114069714Y-66278476D01*
X113117333Y-66278476D02*
X113069714Y-66183238D01*
X113069714Y-65992761D01*
X113117333Y-65897523D01*
X113164952Y-65849904D01*
X113260190Y-65802285D01*
X113545904Y-65802285D01*
X113641142Y-65849904D01*
X113688761Y-65897523D01*
X113736380Y-65992761D01*
X113736380Y-66183238D01*
X113688761Y-66278476D01*
X113688761Y-64992761D02*
X113736380Y-65088000D01*
X113736380Y-65278476D01*
X113688761Y-65373714D01*
X113593523Y-65421333D01*
X113212571Y-65421333D01*
X113117333Y-65373714D01*
X113069714Y-65278476D01*
X113069714Y-65088000D01*
X113117333Y-64992761D01*
X113212571Y-64945142D01*
X113307809Y-64945142D01*
X113403047Y-65421333D01*
X113736380Y-64516571D02*
X113069714Y-64516571D01*
X113260190Y-64516571D02*
X113164952Y-64468952D01*
X113117333Y-64421333D01*
X113069714Y-64326095D01*
X113069714Y-64230857D01*
G04 #@! TO.C,R1*
X88987333Y-82070380D02*
X88654000Y-81594190D01*
X88415904Y-82070380D02*
X88415904Y-81070380D01*
X88796857Y-81070380D01*
X88892095Y-81118000D01*
X88939714Y-81165619D01*
X88987333Y-81260857D01*
X88987333Y-81403714D01*
X88939714Y-81498952D01*
X88892095Y-81546571D01*
X88796857Y-81594190D01*
X88415904Y-81594190D01*
X89939714Y-82070380D02*
X89368285Y-82070380D01*
X89654000Y-82070380D02*
X89654000Y-81070380D01*
X89558761Y-81213238D01*
X89463523Y-81308476D01*
X89368285Y-81356095D01*
G04 #@! TD*
M02*
