G04 #@! TF.GenerationSoftware,KiCad,Pcbnew,5.0.2-bee76a0~70~ubuntu18.04.1*
G04 #@! TF.CreationDate,2019-03-10T14:25:10+00:00*
G04 #@! TF.ProjectId,Lcr_addon,4c63725f-6164-4646-9f6e-2e6b69636164,rev?*
G04 #@! TF.SameCoordinates,Original*
G04 #@! TF.FileFunction,Other,User*
%FSLAX46Y46*%
G04 Gerber Fmt 4.6, Leading zero omitted, Abs format (unit mm)*
G04 Created by KiCad (PCBNEW 5.0.2-bee76a0~70~ubuntu18.04.1) date Sun 10 Mar 2019 14:25:10 GMT*
%MOMM*%
%LPD*%
G01*
G04 APERTURE LIST*
%ADD10C,0.050000*%
G04 APERTURE END LIST*
D10*
G04 #@! TO.C,J2*
X38780000Y-83018000D02*
X48080000Y-83018000D01*
X48080000Y-83018000D02*
X48080000Y-66018000D01*
X48080000Y-66018000D02*
X38780000Y-66018000D01*
X38780000Y-66018000D02*
X38780000Y-83018000D01*
G04 #@! TO.C,REF\002A\002A*
X119840000Y-56388000D02*
G75*
G03X119840000Y-56388000I-3000000J0D01*
G01*
X117300000Y-56388000D02*
G75*
G03X117300000Y-56388000I-3000000J0D01*
G01*
X46688000Y-56388000D02*
G75*
G03X46688000Y-56388000I-3000000J0D01*
G01*
G04 #@! TO.C,U4*
X85526000Y-52002000D02*
X85526000Y-61602000D01*
X85526000Y-61602000D02*
X96026000Y-61602000D01*
X96026000Y-61602000D02*
X96026000Y-52002000D01*
X96026000Y-52002000D02*
X85526000Y-52002000D01*
G04 #@! TO.C,U6*
X59688000Y-73388000D02*
X59688000Y-69868000D01*
X59688000Y-73388000D02*
X63238000Y-73388000D01*
X63238000Y-69868000D02*
X59688000Y-69868000D01*
X63238000Y-69868000D02*
X63238000Y-73388000D01*
G04 #@! TO.C,C1*
X82394000Y-56622000D02*
G75*
G03X82394000Y-56622000I-3400000J0D01*
G01*
G04 #@! TO.C,C2*
X107560000Y-73406000D02*
G75*
G03X107560000Y-73406000I-3400000J0D01*
G01*
G04 #@! TO.C,D1*
X79684000Y-65476000D02*
X79684000Y-71176000D01*
X79684000Y-71176000D02*
X98624000Y-71176000D01*
X98624000Y-71176000D02*
X98624000Y-65476000D01*
X98624000Y-65476000D02*
X79684000Y-65476000D01*
G04 #@! TO.C,J4*
X100354000Y-90772000D02*
X100354000Y-127272000D01*
X100354000Y-127272000D02*
X116054000Y-127272000D01*
X116054000Y-90772000D02*
X116054000Y-127272000D01*
X116054000Y-90772000D02*
X100354000Y-90772000D01*
G04 #@! TO.C,J5*
X60730000Y-90772000D02*
X60730000Y-127272000D01*
X60730000Y-127272000D02*
X76430000Y-127272000D01*
X76430000Y-90772000D02*
X76430000Y-127272000D01*
X76430000Y-90772000D02*
X60730000Y-90772000D01*
G04 #@! TO.C,J6*
X94718000Y-90772000D02*
X79018000Y-90772000D01*
X94718000Y-90772000D02*
X94718000Y-127272000D01*
X79018000Y-127272000D02*
X94718000Y-127272000D01*
X79018000Y-90772000D02*
X79018000Y-127272000D01*
G04 #@! TO.C,J7*
X58142000Y-90772000D02*
X42442000Y-90772000D01*
X58142000Y-90772000D02*
X58142000Y-127272000D01*
X42442000Y-127272000D02*
X58142000Y-127272000D01*
X42442000Y-90772000D02*
X42442000Y-127272000D01*
G04 #@! TO.C,L1*
X108882000Y-57444000D02*
G75*
G03X108882000Y-57444000I-5250000J0D01*
G01*
G04 #@! TO.C,U1*
X52576000Y-83548000D02*
X52576000Y-80028000D01*
X52576000Y-83548000D02*
X56126000Y-83548000D01*
X56126000Y-80028000D02*
X52576000Y-80028000D01*
X56126000Y-80028000D02*
X56126000Y-83548000D01*
G04 #@! TO.C,U2*
X56126000Y-69868000D02*
X56126000Y-73388000D01*
X56126000Y-69868000D02*
X52576000Y-69868000D01*
X52576000Y-73388000D02*
X56126000Y-73388000D01*
X52576000Y-73388000D02*
X52576000Y-69868000D01*
G04 #@! TO.C,U3*
X52576000Y-63228000D02*
X52576000Y-59708000D01*
X52576000Y-63228000D02*
X56126000Y-63228000D01*
X56126000Y-59708000D02*
X52576000Y-59708000D01*
X56126000Y-59708000D02*
X56126000Y-63228000D01*
G04 #@! TO.C,U5*
X63746000Y-80028000D02*
X63746000Y-83548000D01*
X63746000Y-80028000D02*
X60196000Y-80028000D01*
X60196000Y-83548000D02*
X63746000Y-83548000D01*
X60196000Y-83548000D02*
X60196000Y-80028000D01*
G04 #@! TO.C,U7*
X63238000Y-59708000D02*
X63238000Y-63228000D01*
X63238000Y-59708000D02*
X59688000Y-59708000D01*
X59688000Y-63228000D02*
X63238000Y-63228000D01*
X59688000Y-63228000D02*
X59688000Y-59708000D01*
G04 #@! TO.C,U8*
X73404000Y-78468000D02*
X73404000Y-74948000D01*
X73404000Y-78468000D02*
X76954000Y-78468000D01*
X76954000Y-74948000D02*
X73404000Y-74948000D01*
X76954000Y-74948000D02*
X76954000Y-78468000D01*
G04 #@! TO.C,J8*
X118132000Y-73936000D02*
X118132000Y-65286000D01*
X118132000Y-65286000D02*
X114532000Y-65286000D01*
X114532000Y-65286000D02*
X114532000Y-73936000D01*
X114532000Y-73936000D02*
X118132000Y-73936000D01*
G04 #@! TO.C,REF\002A\002A*
X44148000Y-56388000D02*
G75*
G03X44148000Y-56388000I-3000000J0D01*
G01*
G04 #@! TO.C,R1*
X91924000Y-80748000D02*
X91924000Y-77748000D01*
X91924000Y-77748000D02*
X86834000Y-77748000D01*
X86834000Y-77748000D02*
X86834000Y-80748000D01*
X86834000Y-80748000D02*
X91924000Y-80748000D01*
G04 #@! TD*
M02*
