G04 #@! TF.GenerationSoftware,KiCad,Pcbnew,5.0.2-bee76a0~70~ubuntu18.04.1*
G04 #@! TF.CreationDate,2019-03-10T14:25:09+00:00*
G04 #@! TF.ProjectId,Lcr_addon,4c63725f-6164-4646-9f6e-2e6b69636164,rev?*
G04 #@! TF.SameCoordinates,Original*
G04 #@! TF.FileFunction,Copper,L2,Bot*
G04 #@! TF.FilePolarity,Positive*
%FSLAX46Y46*%
G04 Gerber Fmt 4.6, Leading zero omitted, Abs format (unit mm)*
G04 Created by KiCad (PCBNEW 5.0.2-bee76a0~70~ubuntu18.04.1) date Sun 10 Mar 2019 14:25:09 GMT*
%MOMM*%
%LPD*%
G01*
G04 APERTURE LIST*
G04 #@! TA.AperFunction,Conductor*
%ADD10C,0.100000*%
G04 #@! TD*
G04 #@! TA.AperFunction,ComponentPad*
%ADD11C,1.200000*%
G04 #@! TD*
G04 #@! TA.AperFunction,ComponentPad*
%ADD12C,5.500000*%
G04 #@! TD*
G04 #@! TA.AperFunction,ComponentPad*
%ADD13R,1.800000X1.800000*%
G04 #@! TD*
G04 #@! TA.AperFunction,ComponentPad*
%ADD14O,1.800000X1.800000*%
G04 #@! TD*
G04 #@! TA.AperFunction,ComponentPad*
%ADD15C,1.600000*%
G04 #@! TD*
G04 #@! TA.AperFunction,ComponentPad*
%ADD16R,1.600000X1.600000*%
G04 #@! TD*
G04 #@! TA.AperFunction,ComponentPad*
%ADD17R,3.200000X3.200000*%
G04 #@! TD*
G04 #@! TA.AperFunction,ComponentPad*
%ADD18O,3.200000X3.200000*%
G04 #@! TD*
G04 #@! TA.AperFunction,ComponentPad*
%ADD19O,1.600000X2.500000*%
G04 #@! TD*
G04 #@! TA.AperFunction,ComponentPad*
%ADD20O,3.500000X7.000000*%
G04 #@! TD*
G04 #@! TA.AperFunction,ComponentPad*
%ADD21C,2.400000*%
G04 #@! TD*
G04 #@! TA.AperFunction,ComponentPad*
%ADD22R,1.700000X1.700000*%
G04 #@! TD*
G04 #@! TA.AperFunction,ComponentPad*
%ADD23O,1.700000X1.700000*%
G04 #@! TD*
G04 #@! TA.AperFunction,ComponentPad*
%ADD24O,1.600000X1.600000*%
G04 #@! TD*
G04 #@! TA.AperFunction,ViaPad*
%ADD25C,0.800000*%
G04 #@! TD*
G04 #@! TA.AperFunction,Conductor*
%ADD26C,0.250000*%
G04 #@! TD*
G04 APERTURE END LIST*
D10*
G04 #@! TO.N,+12V*
G04 #@! TO.C,J2*
G36*
X43554505Y-79919204D02*
X43578773Y-79922804D01*
X43602572Y-79928765D01*
X43625671Y-79937030D01*
X43647850Y-79947520D01*
X43668893Y-79960132D01*
X43688599Y-79974747D01*
X43706777Y-79991223D01*
X43723253Y-80009401D01*
X43737868Y-80029107D01*
X43750480Y-80050150D01*
X43760970Y-80072329D01*
X43769235Y-80095428D01*
X43775196Y-80119227D01*
X43778796Y-80143495D01*
X43780000Y-80167999D01*
X43780000Y-80868001D01*
X43778796Y-80892505D01*
X43775196Y-80916773D01*
X43769235Y-80940572D01*
X43760970Y-80963671D01*
X43750480Y-80985850D01*
X43737868Y-81006893D01*
X43723253Y-81026599D01*
X43706777Y-81044777D01*
X43688599Y-81061253D01*
X43668893Y-81075868D01*
X43647850Y-81088480D01*
X43625671Y-81098970D01*
X43602572Y-81107235D01*
X43578773Y-81113196D01*
X43554505Y-81116796D01*
X43530001Y-81118000D01*
X42829999Y-81118000D01*
X42805495Y-81116796D01*
X42781227Y-81113196D01*
X42757428Y-81107235D01*
X42734329Y-81098970D01*
X42712150Y-81088480D01*
X42691107Y-81075868D01*
X42671401Y-81061253D01*
X42653223Y-81044777D01*
X42636747Y-81026599D01*
X42622132Y-81006893D01*
X42609520Y-80985850D01*
X42599030Y-80963671D01*
X42590765Y-80940572D01*
X42584804Y-80916773D01*
X42581204Y-80892505D01*
X42580000Y-80868001D01*
X42580000Y-80167999D01*
X42581204Y-80143495D01*
X42584804Y-80119227D01*
X42590765Y-80095428D01*
X42599030Y-80072329D01*
X42609520Y-80050150D01*
X42622132Y-80029107D01*
X42636747Y-80009401D01*
X42653223Y-79991223D01*
X42671401Y-79974747D01*
X42691107Y-79960132D01*
X42712150Y-79947520D01*
X42734329Y-79937030D01*
X42757428Y-79928765D01*
X42781227Y-79922804D01*
X42805495Y-79919204D01*
X42829999Y-79918000D01*
X43530001Y-79918000D01*
X43554505Y-79919204D01*
X43554505Y-79919204D01*
G37*
D11*
G04 #@! TD*
G04 #@! TO.P,J2,1*
G04 #@! TO.N,+12V*
X43180000Y-80518000D03*
G04 #@! TO.P,J2,3*
G04 #@! TO.N,Net-(J2-Pad3)*
X43180000Y-78518000D03*
G04 #@! TO.P,J2,5*
G04 #@! TO.N,Net-(J2-Pad5)*
X43180000Y-76518000D03*
G04 #@! TO.P,J2,7*
G04 #@! TO.N,Net-(J2-Pad7)*
X43180000Y-74518000D03*
G04 #@! TO.P,J2,9*
G04 #@! TO.N,Net-(J2-Pad9)*
X43180000Y-72518000D03*
G04 #@! TO.P,J2,11*
G04 #@! TO.N,Net-(J2-Pad11)*
X43180000Y-70518000D03*
G04 #@! TO.P,J2,13*
G04 #@! TO.N,GND*
X43180000Y-68518000D03*
G04 #@! TO.P,J2,2*
G04 #@! TO.N,Net-(J2-Pad2)*
X45180000Y-80518000D03*
G04 #@! TO.P,J2,4*
G04 #@! TO.N,Net-(J2-Pad4)*
X45180000Y-78518000D03*
G04 #@! TO.P,J2,6*
G04 #@! TO.N,Net-(J2-Pad6)*
X45180000Y-76518000D03*
G04 #@! TO.P,J2,8*
G04 #@! TO.N,Net-(J2-Pad8)*
X45180000Y-74518000D03*
G04 #@! TO.P,J2,10*
G04 #@! TO.N,Net-(J2-Pad10)*
X45180000Y-72518000D03*
G04 #@! TO.P,J2,12*
G04 #@! TO.N,GND*
X45180000Y-70518000D03*
G04 #@! TO.P,J2,14*
X45180000Y-68518000D03*
G04 #@! TD*
D12*
G04 #@! TO.P,REF\002A\002A,1*
G04 #@! TO.N,N/C*
X116840000Y-56388000D03*
G04 #@! TD*
G04 #@! TO.P,REF\002A\002A,1*
G04 #@! TO.N,N/C*
X114300000Y-56388000D03*
G04 #@! TD*
G04 #@! TO.P,REF\002A\002A,1*
G04 #@! TO.N,N/C*
X43688000Y-56388000D03*
G04 #@! TD*
D13*
G04 #@! TO.P,U4,1*
G04 #@! TO.N,+12V*
X87376000Y-60452000D03*
D14*
G04 #@! TO.P,U4,2*
G04 #@! TO.N,Net-(D1-Pad1)*
X89076000Y-56752000D03*
G04 #@! TO.P,U4,3*
G04 #@! TO.N,GND*
X90776000Y-60452000D03*
G04 #@! TO.P,U4,4*
G04 #@! TO.N,VCC*
X92476000Y-56752000D03*
G04 #@! TO.P,U4,5*
G04 #@! TO.N,GND*
X94176000Y-60452000D03*
G04 #@! TD*
D15*
G04 #@! TO.P,C1,2*
G04 #@! TO.N,GND*
X78994000Y-57872000D03*
D16*
G04 #@! TO.P,C1,1*
G04 #@! TO.N,+12V*
X78994000Y-55372000D03*
G04 #@! TD*
G04 #@! TO.P,C2,1*
G04 #@! TO.N,VCC*
X105410000Y-73406000D03*
D15*
G04 #@! TO.P,C2,2*
G04 #@! TO.N,GND*
X102910000Y-73406000D03*
G04 #@! TD*
D17*
G04 #@! TO.P,D1,1*
G04 #@! TO.N,Net-(D1-Pad1)*
X81534000Y-68326000D03*
D18*
G04 #@! TO.P,D1,2*
G04 #@! TO.N,GND*
X96774000Y-68326000D03*
G04 #@! TD*
D19*
G04 #@! TO.P,J4,2*
G04 #@! TO.N,GND*
X110744000Y-93472000D03*
G04 #@! TO.P,J4,1*
G04 #@! TO.N,Net-(J4-Pad1)*
X108204000Y-93472000D03*
D20*
G04 #@! TO.P,J4,2*
G04 #@! TO.N,GND*
X103124000Y-98552000D03*
X113284000Y-98552000D03*
G04 #@! TD*
D19*
G04 #@! TO.P,J5,2*
G04 #@! TO.N,GND*
X71120000Y-93472000D03*
G04 #@! TO.P,J5,1*
G04 #@! TO.N,Net-(J5-Pad1)*
X68580000Y-93472000D03*
D20*
G04 #@! TO.P,J5,2*
G04 #@! TO.N,GND*
X63500000Y-98552000D03*
X73660000Y-98552000D03*
G04 #@! TD*
G04 #@! TO.P,J6,2*
G04 #@! TO.N,GND*
X91948000Y-98552000D03*
X81788000Y-98552000D03*
D19*
G04 #@! TO.P,J6,1*
G04 #@! TO.N,Net-(J6-Pad1)*
X86868000Y-93472000D03*
G04 #@! TO.P,J6,2*
G04 #@! TO.N,GND*
X89408000Y-93472000D03*
G04 #@! TD*
D20*
G04 #@! TO.P,J7,2*
G04 #@! TO.N,GND*
X55372000Y-98552000D03*
X45212000Y-98552000D03*
D19*
G04 #@! TO.P,J7,1*
G04 #@! TO.N,Net-(J7-Pad1)*
X50292000Y-93472000D03*
G04 #@! TO.P,J7,2*
G04 #@! TO.N,GND*
X52832000Y-93472000D03*
G04 #@! TD*
D21*
G04 #@! TO.P,L1,1*
G04 #@! TO.N,Net-(D1-Pad1)*
X103632000Y-59944000D03*
G04 #@! TO.P,L1,2*
G04 #@! TO.N,VCC*
X103632000Y-54944000D03*
G04 #@! TD*
D22*
G04 #@! TO.P,J8,1*
G04 #@! TO.N,Net-(J8-Pad1)*
X116332000Y-72136000D03*
D23*
G04 #@! TO.P,J8,2*
G04 #@! TO.N,Net-(J8-Pad2)*
X116332000Y-69596000D03*
G04 #@! TO.P,J8,3*
G04 #@! TO.N,VCC*
X116332000Y-67056000D03*
G04 #@! TD*
D12*
G04 #@! TO.P,REF\002A\002A,1*
G04 #@! TO.N,N/C*
X41148000Y-56388000D03*
G04 #@! TD*
D15*
G04 #@! TO.P,R1,1*
G04 #@! TO.N,Net-(J4-Pad1)*
X90424000Y-79248000D03*
D24*
G04 #@! TO.P,R1,2*
G04 #@! TO.N,Net-(R1-Pad2)*
X87884000Y-79248000D03*
G04 #@! TD*
D25*
G04 #@! TO.N,VCC*
X68580000Y-73152000D03*
G04 #@! TO.N,Net-(D1-Pad1)*
X87884000Y-55372000D03*
G04 #@! TO.N,VCC*
X58166000Y-59309000D03*
X58039000Y-78232000D03*
X58420000Y-70104000D03*
G04 #@! TO.N,Net-(J2-Pad5)*
X52578000Y-84582000D03*
X41148000Y-81661000D03*
G04 #@! TO.N,Net-(J2-Pad7)*
X53213000Y-64262000D03*
G04 #@! TO.N,Net-(J2-Pad9)*
X51562000Y-69342000D03*
G04 #@! TO.N,Net-(J2-Pad8)*
X52578000Y-81788000D03*
G04 #@! TO.N,Net-(J6-Pad1)*
X65786000Y-71247000D03*
X62611000Y-58674000D03*
G04 #@! TO.N,Net-(J8-Pad2)*
X62103000Y-71628000D03*
X61468000Y-64008000D03*
X62103000Y-74041000D03*
X61976000Y-81534000D03*
G04 #@! TO.N,Net-(R1-Pad2)*
X75184000Y-79502000D03*
G04 #@! TD*
D26*
G04 #@! TO.N,VCC*
X68580000Y-73152000D02*
X61468000Y-73152000D01*
G04 #@! TO.N,Net-(D1-Pad1)*
X89943999Y-53820001D02*
X91440000Y-52324000D01*
X96012000Y-52324000D02*
X103632000Y-59944000D01*
X91440000Y-52324000D02*
X96012000Y-52324000D01*
X89943999Y-53820001D02*
X89435999Y-53820001D01*
X89435999Y-53820001D02*
X87884000Y-55372000D01*
G04 #@! TO.N,+12V*
X87376000Y-57524000D02*
X87376000Y-60452000D01*
X78994000Y-55372000D02*
X85224000Y-55372000D01*
X85224000Y-55372000D02*
X87376000Y-57524000D01*
G04 #@! TO.N,VCC*
X105410000Y-74456000D02*
X104682000Y-75184000D01*
X105410000Y-73406000D02*
X105410000Y-74456000D01*
X104682000Y-75184000D02*
X84074000Y-75184000D01*
X82042000Y-73152000D02*
X68580000Y-73152000D01*
X84074000Y-75184000D02*
X82042000Y-73152000D01*
X58420000Y-66998315D02*
X58166000Y-66744315D01*
X58420000Y-67564000D02*
X58420000Y-66998315D01*
X58166000Y-66744315D02*
X58166000Y-59309000D01*
X61341000Y-73025000D02*
X61341000Y-74930000D01*
X61341000Y-73025000D02*
X58420000Y-70104000D01*
X61468000Y-73152000D02*
X61341000Y-73025000D01*
X61341000Y-74930000D02*
X58039000Y-78232000D01*
X58420000Y-67818000D02*
X58420000Y-67564000D01*
X58420000Y-70104000D02*
X58420000Y-67818000D01*
G04 #@! TO.N,+12V*
X41910000Y-80518000D02*
X43180000Y-80518000D01*
X69596000Y-55372000D02*
X69088000Y-54864000D01*
X78994000Y-55372000D02*
X69596000Y-55372000D01*
X69088000Y-54864000D02*
X51054000Y-54864000D01*
X40005000Y-78613000D02*
X41910000Y-80518000D01*
X51054000Y-54864000D02*
X40005000Y-65913000D01*
X40005000Y-65913000D02*
X40005000Y-78613000D01*
G04 #@! TO.N,Net-(J2-Pad5)*
X52578000Y-84582000D02*
X52012315Y-84582000D01*
X52012315Y-84582000D02*
X44196000Y-84582000D01*
X44196000Y-84582000D02*
X41275000Y-81661000D01*
X41275000Y-81661000D02*
X41148000Y-81661000D01*
G04 #@! TO.N,Net-(J2-Pad7)*
X42580001Y-73918001D02*
X42549001Y-73918001D01*
X43180000Y-74518000D02*
X42580001Y-73918001D01*
X42549001Y-73918001D02*
X40640000Y-72009000D01*
X40640000Y-72009000D02*
X40640000Y-67183000D01*
X40640000Y-67183000D02*
X42672000Y-65151000D01*
X42672000Y-65151000D02*
X52324000Y-65151000D01*
X52324000Y-65151000D02*
X53213000Y-64262000D01*
G04 #@! TO.N,Net-(J2-Pad9)*
X49784000Y-67564000D02*
X51562000Y-69342000D01*
X42331472Y-72518000D02*
X41529000Y-71715528D01*
X43180000Y-72518000D02*
X42331472Y-72518000D01*
X41529000Y-71715528D02*
X41529000Y-67437000D01*
X41529000Y-67437000D02*
X42926000Y-66040000D01*
X42926000Y-66040000D02*
X48260000Y-66040000D01*
X48260000Y-66040000D02*
X49784000Y-67564000D01*
G04 #@! TO.N,Net-(J2-Pad8)*
X45779999Y-75117999D02*
X45780999Y-75117999D01*
X45180000Y-74518000D02*
X45779999Y-75117999D01*
X45780999Y-75117999D02*
X52451000Y-81788000D01*
X52451000Y-81788000D02*
X52578000Y-81788000D01*
G04 #@! TO.N,Net-(J6-Pad1)*
X65786000Y-70681315D02*
X64135000Y-69030315D01*
X65786000Y-71247000D02*
X65786000Y-70681315D01*
X64135000Y-69030315D02*
X64135000Y-59944000D01*
X64135000Y-59944000D02*
X62865000Y-58674000D01*
X62865000Y-58674000D02*
X62611000Y-58674000D01*
G04 #@! TO.N,Net-(J8-Pad2)*
X116332000Y-69596000D02*
X102870000Y-69596000D01*
X102870000Y-69596000D02*
X100203000Y-72263000D01*
X100203000Y-72263000D02*
X65024000Y-72263000D01*
X65024000Y-72263000D02*
X64389000Y-71628000D01*
X64389000Y-71628000D02*
X62103000Y-71628000D01*
X64389000Y-71628000D02*
X64008000Y-71247000D01*
X64008000Y-71247000D02*
X63500000Y-70739000D01*
X63500000Y-70739000D02*
X63500000Y-68580000D01*
X63500000Y-68580000D02*
X61468000Y-66548000D01*
X61468000Y-66548000D02*
X61468000Y-64008000D01*
X62103000Y-74041000D02*
X62103000Y-81407000D01*
X62103000Y-81407000D02*
X61976000Y-81534000D01*
G04 #@! TO.N,Net-(R1-Pad2)*
X86752630Y-79248000D02*
X85736630Y-80264000D01*
X87884000Y-79248000D02*
X86752630Y-79248000D01*
X85736630Y-80264000D02*
X75946000Y-80264000D01*
X75946000Y-80264000D02*
X75184000Y-79502000D01*
G04 #@! TD*
M02*
