G04 #@! TF.GenerationSoftware,KiCad,Pcbnew,5.0.2-bee76a0~70~ubuntu18.04.1*
G04 #@! TF.CreationDate,2019-03-10T17:41:35+00:00*
G04 #@! TF.ProjectId,Lcr_addon,4c63725f-6164-4646-9f6e-2e6b69636164,rev?*
G04 #@! TF.SameCoordinates,Original*
G04 #@! TF.FileFunction,Other,Fab,Top*
%FSLAX46Y46*%
G04 Gerber Fmt 4.6, Leading zero omitted, Abs format (unit mm)*
G04 Created by KiCad (PCBNEW 5.0.2-bee76a0~70~ubuntu18.04.1) date Sun 10 Mar 2019 17:41:35 GMT*
%MOMM*%
%LPD*%
G01*
G04 APERTURE LIST*
%ADD10C,0.100000*%
%ADD11C,0.150000*%
%ADD12C,0.075000*%
G04 APERTURE END LIST*
D10*
G04 #@! TO.C,J2*
X39280000Y-82518000D02*
X47580000Y-82518000D01*
X47580000Y-82518000D02*
X47580000Y-66518000D01*
X47580000Y-66518000D02*
X39280000Y-66518000D01*
X39280000Y-66518000D02*
X39280000Y-82518000D01*
X43680000Y-82518000D02*
X43180000Y-81810893D01*
X43180000Y-81810893D02*
X42680000Y-82518000D01*
G04 #@! TO.C,U4*
X85776000Y-52252000D02*
X85776000Y-56652000D01*
X85776000Y-56652000D02*
X95776000Y-56652000D01*
X95776000Y-56652000D02*
X95776000Y-52252000D01*
X95776000Y-52252000D02*
X85776000Y-52252000D01*
X85776000Y-53522000D02*
X95776000Y-53522000D01*
X88926000Y-52252000D02*
X88926000Y-53522000D01*
X92626000Y-52252000D02*
X92626000Y-53522000D01*
X87376000Y-56652000D02*
X87376000Y-60452000D01*
X89076000Y-56652000D02*
X89076000Y-56752000D01*
X90776000Y-56652000D02*
X90776000Y-60452000D01*
X92476000Y-56652000D02*
X92476000Y-56752000D01*
X94176000Y-56652000D02*
X94176000Y-60452000D01*
G04 #@! TO.C,U6*
X60368000Y-72453000D02*
X59943000Y-72053000D01*
X59943000Y-70803000D02*
X59943000Y-72053000D01*
X60368000Y-72453000D02*
X62993000Y-72453000D01*
X62993000Y-70803000D02*
X62993000Y-72453000D01*
X59943000Y-70803000D02*
X62993000Y-70803000D01*
G04 #@! TO.C,C1*
X80682500Y-54243028D02*
X80052500Y-54243028D01*
X80367500Y-53928028D02*
X80367500Y-54558028D01*
X82144000Y-56622000D02*
G75*
G03X82144000Y-56622000I-3150000J0D01*
G01*
G04 #@! TO.C,C2*
X107310000Y-73406000D02*
G75*
G03X107310000Y-73406000I-3150000J0D01*
G01*
X106853972Y-74779500D02*
X106223972Y-74779500D01*
X106538972Y-75094500D02*
X106538972Y-74464500D01*
G04 #@! TO.C,D1*
X84404000Y-65726000D02*
X84404000Y-70926000D01*
X84404000Y-70926000D02*
X93904000Y-70926000D01*
X93904000Y-70926000D02*
X93904000Y-65726000D01*
X93904000Y-65726000D02*
X84404000Y-65726000D01*
X81534000Y-68326000D02*
X84404000Y-68326000D01*
X96774000Y-68326000D02*
X93904000Y-68326000D01*
X85829000Y-65726000D02*
X85829000Y-70926000D01*
X85929000Y-65726000D02*
X85929000Y-70926000D01*
X85729000Y-65726000D02*
X85729000Y-70926000D01*
G04 #@! TO.C,J4*
X113204000Y-107472000D02*
X103204000Y-108472000D01*
X115554000Y-106172000D02*
X115554000Y-91272000D01*
X100854000Y-106172000D02*
X115554000Y-106172000D01*
X100854000Y-91272000D02*
X100854000Y-106172000D01*
X115554000Y-91272000D02*
X100854000Y-91272000D01*
X114554000Y-114872000D02*
X114554000Y-106172000D01*
X101854000Y-114872000D02*
X114554000Y-114872000D01*
X101854000Y-106172000D02*
X101854000Y-114872000D01*
X113004000Y-126772000D02*
X113004000Y-114872000D01*
X103404000Y-126772000D02*
X113004000Y-126772000D01*
X103404000Y-114872000D02*
X103404000Y-126772000D01*
X109204000Y-121542000D02*
G75*
G03X109204000Y-121542000I-1000000J0D01*
G01*
X113204000Y-108472000D02*
X103204000Y-109472000D01*
X113204000Y-109472000D02*
X103204000Y-110472000D01*
X113204000Y-110472000D02*
X103204000Y-111472000D01*
X113204000Y-111472000D02*
X103204000Y-112472000D01*
X113204000Y-112472000D02*
X103204000Y-113472000D01*
X113204000Y-113472000D02*
X103204000Y-114472000D01*
G04 #@! TO.C,J5*
X73580000Y-107472000D02*
X63580000Y-108472000D01*
X75930000Y-106172000D02*
X75930000Y-91272000D01*
X61230000Y-106172000D02*
X75930000Y-106172000D01*
X61230000Y-91272000D02*
X61230000Y-106172000D01*
X75930000Y-91272000D02*
X61230000Y-91272000D01*
X74930000Y-114872000D02*
X74930000Y-106172000D01*
X62230000Y-114872000D02*
X74930000Y-114872000D01*
X62230000Y-106172000D02*
X62230000Y-114872000D01*
X73380000Y-126772000D02*
X73380000Y-114872000D01*
X63780000Y-126772000D02*
X73380000Y-126772000D01*
X63780000Y-114872000D02*
X63780000Y-126772000D01*
X69580000Y-121542000D02*
G75*
G03X69580000Y-121542000I-1000000J0D01*
G01*
X73580000Y-108472000D02*
X63580000Y-109472000D01*
X73580000Y-109472000D02*
X63580000Y-110472000D01*
X73580000Y-110472000D02*
X63580000Y-111472000D01*
X73580000Y-111472000D02*
X63580000Y-112472000D01*
X73580000Y-112472000D02*
X63580000Y-113472000D01*
X73580000Y-113472000D02*
X63580000Y-114472000D01*
G04 #@! TO.C,J6*
X91868000Y-113472000D02*
X81868000Y-114472000D01*
X91868000Y-112472000D02*
X81868000Y-113472000D01*
X91868000Y-111472000D02*
X81868000Y-112472000D01*
X91868000Y-110472000D02*
X81868000Y-111472000D01*
X91868000Y-109472000D02*
X81868000Y-110472000D01*
X91868000Y-108472000D02*
X81868000Y-109472000D01*
X87868000Y-121542000D02*
G75*
G03X87868000Y-121542000I-1000000J0D01*
G01*
X82068000Y-114872000D02*
X82068000Y-126772000D01*
X82068000Y-126772000D02*
X91668000Y-126772000D01*
X91668000Y-126772000D02*
X91668000Y-114872000D01*
X80518000Y-106172000D02*
X80518000Y-114872000D01*
X80518000Y-114872000D02*
X93218000Y-114872000D01*
X93218000Y-114872000D02*
X93218000Y-106172000D01*
X94218000Y-91272000D02*
X79518000Y-91272000D01*
X79518000Y-91272000D02*
X79518000Y-106172000D01*
X79518000Y-106172000D02*
X94218000Y-106172000D01*
X94218000Y-106172000D02*
X94218000Y-91272000D01*
X91868000Y-107472000D02*
X81868000Y-108472000D01*
G04 #@! TO.C,J7*
X55292000Y-113472000D02*
X45292000Y-114472000D01*
X55292000Y-112472000D02*
X45292000Y-113472000D01*
X55292000Y-111472000D02*
X45292000Y-112472000D01*
X55292000Y-110472000D02*
X45292000Y-111472000D01*
X55292000Y-109472000D02*
X45292000Y-110472000D01*
X55292000Y-108472000D02*
X45292000Y-109472000D01*
X51292000Y-121542000D02*
G75*
G03X51292000Y-121542000I-1000000J0D01*
G01*
X45492000Y-114872000D02*
X45492000Y-126772000D01*
X45492000Y-126772000D02*
X55092000Y-126772000D01*
X55092000Y-126772000D02*
X55092000Y-114872000D01*
X43942000Y-106172000D02*
X43942000Y-114872000D01*
X43942000Y-114872000D02*
X56642000Y-114872000D01*
X56642000Y-114872000D02*
X56642000Y-106172000D01*
X57642000Y-91272000D02*
X42942000Y-91272000D01*
X42942000Y-91272000D02*
X42942000Y-106172000D01*
X42942000Y-106172000D02*
X57642000Y-106172000D01*
X57642000Y-106172000D02*
X57642000Y-91272000D01*
X55292000Y-107472000D02*
X45292000Y-108472000D01*
G04 #@! TO.C,L1*
X108632000Y-57444000D02*
G75*
G03X108632000Y-57444000I-5000000J0D01*
G01*
G04 #@! TO.C,U1*
X53256000Y-82613000D02*
X52831000Y-82213000D01*
X52831000Y-80963000D02*
X52831000Y-82213000D01*
X53256000Y-82613000D02*
X55881000Y-82613000D01*
X55881000Y-80963000D02*
X55881000Y-82613000D01*
X52831000Y-80963000D02*
X55881000Y-80963000D01*
G04 #@! TO.C,U2*
X52831000Y-70803000D02*
X55881000Y-70803000D01*
X55881000Y-70803000D02*
X55881000Y-72453000D01*
X53256000Y-72453000D02*
X55881000Y-72453000D01*
X52831000Y-70803000D02*
X52831000Y-72053000D01*
X53256000Y-72453000D02*
X52831000Y-72053000D01*
G04 #@! TO.C,U3*
X53256000Y-62293000D02*
X52831000Y-61893000D01*
X52831000Y-60643000D02*
X52831000Y-61893000D01*
X53256000Y-62293000D02*
X55881000Y-62293000D01*
X55881000Y-60643000D02*
X55881000Y-62293000D01*
X52831000Y-60643000D02*
X55881000Y-60643000D01*
G04 #@! TO.C,U5*
X60451000Y-80963000D02*
X63501000Y-80963000D01*
X63501000Y-80963000D02*
X63501000Y-82613000D01*
X60876000Y-82613000D02*
X63501000Y-82613000D01*
X60451000Y-80963000D02*
X60451000Y-82213000D01*
X60876000Y-82613000D02*
X60451000Y-82213000D01*
G04 #@! TO.C,U7*
X59943000Y-60643000D02*
X62993000Y-60643000D01*
X62993000Y-60643000D02*
X62993000Y-62293000D01*
X60368000Y-62293000D02*
X62993000Y-62293000D01*
X59943000Y-60643000D02*
X59943000Y-61893000D01*
X60368000Y-62293000D02*
X59943000Y-61893000D01*
G04 #@! TO.C,U8*
X74084000Y-77533000D02*
X73659000Y-77133000D01*
X73659000Y-75883000D02*
X73659000Y-77133000D01*
X74084000Y-77533000D02*
X76709000Y-77533000D01*
X76709000Y-75883000D02*
X76709000Y-77533000D01*
X73659000Y-75883000D02*
X76709000Y-75883000D01*
G04 #@! TO.C,J8*
X116967000Y-73406000D02*
X115062000Y-73406000D01*
X115062000Y-73406000D02*
X115062000Y-65786000D01*
X115062000Y-65786000D02*
X117602000Y-65786000D01*
X117602000Y-65786000D02*
X117602000Y-72771000D01*
X117602000Y-72771000D02*
X116967000Y-73406000D01*
G04 #@! TO.C,R1*
X91674000Y-79248000D02*
G75*
G03X91674000Y-79248000I-1250000J0D01*
G01*
X90424000Y-79248000D02*
X87884000Y-79248000D01*
G04 #@! TD*
G04 #@! TO.C,J2*
D11*
X39432380Y-74851333D02*
X40146666Y-74851333D01*
X40289523Y-74898952D01*
X40384761Y-74994190D01*
X40432380Y-75137047D01*
X40432380Y-75232285D01*
X39527619Y-74422761D02*
X39480000Y-74375142D01*
X39432380Y-74279904D01*
X39432380Y-74041809D01*
X39480000Y-73946571D01*
X39527619Y-73898952D01*
X39622857Y-73851333D01*
X39718095Y-73851333D01*
X39860952Y-73898952D01*
X40432380Y-74470380D01*
X40432380Y-73851333D01*
G04 #@! TO.C,REF\002A\002A*
X101935238Y-60590380D02*
X101935238Y-59590380D01*
X102268571Y-60304666D01*
X102601904Y-59590380D01*
X102601904Y-60590380D01*
X103220952Y-60590380D02*
X103125714Y-60542761D01*
X103078095Y-60495142D01*
X103030476Y-60399904D01*
X103030476Y-60114190D01*
X103078095Y-60018952D01*
X103125714Y-59971333D01*
X103220952Y-59923714D01*
X103363809Y-59923714D01*
X103459047Y-59971333D01*
X103506666Y-60018952D01*
X103554285Y-60114190D01*
X103554285Y-60399904D01*
X103506666Y-60495142D01*
X103459047Y-60542761D01*
X103363809Y-60590380D01*
X103220952Y-60590380D01*
X104411428Y-59923714D02*
X104411428Y-60590380D01*
X103982857Y-59923714D02*
X103982857Y-60447523D01*
X104030476Y-60542761D01*
X104125714Y-60590380D01*
X104268571Y-60590380D01*
X104363809Y-60542761D01*
X104411428Y-60495142D01*
X104887619Y-59923714D02*
X104887619Y-60590380D01*
X104887619Y-60018952D02*
X104935238Y-59971333D01*
X105030476Y-59923714D01*
X105173333Y-59923714D01*
X105268571Y-59971333D01*
X105316190Y-60066571D01*
X105316190Y-60590380D01*
X105649523Y-59923714D02*
X106030476Y-59923714D01*
X105792380Y-59590380D02*
X105792380Y-60447523D01*
X105840000Y-60542761D01*
X105935238Y-60590380D01*
X106030476Y-60590380D01*
X106363809Y-60590380D02*
X106363809Y-59923714D01*
X106363809Y-59590380D02*
X106316190Y-59638000D01*
X106363809Y-59685619D01*
X106411428Y-59638000D01*
X106363809Y-59590380D01*
X106363809Y-59685619D01*
X106839999Y-59923714D02*
X106839999Y-60590380D01*
X106839999Y-60018952D02*
X106887619Y-59971333D01*
X106982857Y-59923714D01*
X107125714Y-59923714D01*
X107220952Y-59971333D01*
X107268571Y-60066571D01*
X107268571Y-60590380D01*
X108173333Y-59923714D02*
X108173333Y-60733238D01*
X108125714Y-60828476D01*
X108078095Y-60876095D01*
X107982857Y-60923714D01*
X107839999Y-60923714D01*
X107744761Y-60876095D01*
X108173333Y-60542761D02*
X108078095Y-60590380D01*
X107887619Y-60590380D01*
X107792380Y-60542761D01*
X107744761Y-60495142D01*
X107697142Y-60399904D01*
X107697142Y-60114190D01*
X107744761Y-60018952D01*
X107792380Y-59971333D01*
X107887619Y-59923714D01*
X108078095Y-59923714D01*
X108173333Y-59971333D01*
X108649523Y-60590380D02*
X108649523Y-59590380D01*
X108649523Y-60066571D02*
X109220952Y-60066571D01*
X109220952Y-60590380D02*
X109220952Y-59590380D01*
X109839999Y-60590380D02*
X109744761Y-60542761D01*
X109697142Y-60495142D01*
X109649523Y-60399904D01*
X109649523Y-60114190D01*
X109697142Y-60018952D01*
X109744761Y-59971333D01*
X109839999Y-59923714D01*
X109982857Y-59923714D01*
X110078095Y-59971333D01*
X110125714Y-60018952D01*
X110173333Y-60114190D01*
X110173333Y-60399904D01*
X110125714Y-60495142D01*
X110078095Y-60542761D01*
X109982857Y-60590380D01*
X109839999Y-60590380D01*
X110744761Y-60590380D02*
X110649523Y-60542761D01*
X110601904Y-60447523D01*
X110601904Y-59590380D01*
X111506666Y-60542761D02*
X111411428Y-60590380D01*
X111220952Y-60590380D01*
X111125714Y-60542761D01*
X111078095Y-60447523D01*
X111078095Y-60066571D01*
X111125714Y-59971333D01*
X111220952Y-59923714D01*
X111411428Y-59923714D01*
X111506666Y-59971333D01*
X111554285Y-60066571D01*
X111554285Y-60161809D01*
X111078095Y-60257047D01*
X111744761Y-60685619D02*
X112506666Y-60685619D01*
X112649523Y-59590380D02*
X113268571Y-59590380D01*
X112935238Y-59971333D01*
X113078095Y-59971333D01*
X113173333Y-60018952D01*
X113220952Y-60066571D01*
X113268571Y-60161809D01*
X113268571Y-60399904D01*
X113220952Y-60495142D01*
X113173333Y-60542761D01*
X113078095Y-60590380D01*
X112792380Y-60590380D01*
X112697142Y-60542761D01*
X112649523Y-60495142D01*
X113697142Y-60495142D02*
X113744761Y-60542761D01*
X113697142Y-60590380D01*
X113649523Y-60542761D01*
X113697142Y-60495142D01*
X113697142Y-60590380D01*
X114125714Y-59685619D02*
X114173333Y-59638000D01*
X114268571Y-59590380D01*
X114506666Y-59590380D01*
X114601904Y-59638000D01*
X114649523Y-59685619D01*
X114697142Y-59780857D01*
X114697142Y-59876095D01*
X114649523Y-60018952D01*
X114078095Y-60590380D01*
X114697142Y-60590380D01*
X115125714Y-60590380D02*
X115125714Y-59923714D01*
X115125714Y-60018952D02*
X115173333Y-59971333D01*
X115268571Y-59923714D01*
X115411428Y-59923714D01*
X115506666Y-59971333D01*
X115554285Y-60066571D01*
X115554285Y-60590380D01*
X115554285Y-60066571D02*
X115601904Y-59971333D01*
X115697142Y-59923714D01*
X115839999Y-59923714D01*
X115935238Y-59971333D01*
X115982857Y-60066571D01*
X115982857Y-60590380D01*
X116459047Y-60590380D02*
X116459047Y-59923714D01*
X116459047Y-60018952D02*
X116506666Y-59971333D01*
X116601904Y-59923714D01*
X116744761Y-59923714D01*
X116839999Y-59971333D01*
X116887619Y-60066571D01*
X116887619Y-60590380D01*
X116887619Y-60066571D02*
X116935238Y-59971333D01*
X117030476Y-59923714D01*
X117173333Y-59923714D01*
X117268571Y-59971333D01*
X117316190Y-60066571D01*
X117316190Y-60590380D01*
X117554285Y-60685619D02*
X118316190Y-60685619D01*
X118554285Y-60590380D02*
X118554285Y-59590380D01*
X118887619Y-60304666D01*
X119220952Y-59590380D01*
X119220952Y-60590380D01*
X119601904Y-59590380D02*
X120220952Y-59590380D01*
X119887619Y-59971333D01*
X120030476Y-59971333D01*
X120125714Y-60018952D01*
X120173333Y-60066571D01*
X120220952Y-60161809D01*
X120220952Y-60399904D01*
X120173333Y-60495142D01*
X120125714Y-60542761D01*
X120030476Y-60590380D01*
X119744761Y-60590380D01*
X119649523Y-60542761D01*
X119601904Y-60495142D01*
X120411428Y-60685619D02*
X121173333Y-60685619D01*
X121411428Y-60590380D02*
X121411428Y-59590380D01*
X121839999Y-60542761D02*
X121982857Y-60590380D01*
X122220952Y-60590380D01*
X122316190Y-60542761D01*
X122363809Y-60495142D01*
X122411428Y-60399904D01*
X122411428Y-60304666D01*
X122363809Y-60209428D01*
X122316190Y-60161809D01*
X122220952Y-60114190D01*
X122030476Y-60066571D01*
X121935238Y-60018952D01*
X121887619Y-59971333D01*
X121839999Y-59876095D01*
X121839999Y-59780857D01*
X121887619Y-59685619D01*
X121935238Y-59638000D01*
X122030476Y-59590380D01*
X122268571Y-59590380D01*
X122411428Y-59638000D01*
X123030476Y-59590380D02*
X123220952Y-59590380D01*
X123316190Y-59638000D01*
X123411428Y-59733238D01*
X123459047Y-59923714D01*
X123459047Y-60257047D01*
X123411428Y-60447523D01*
X123316190Y-60542761D01*
X123220952Y-60590380D01*
X123030476Y-60590380D01*
X122935238Y-60542761D01*
X122839999Y-60447523D01*
X122792380Y-60257047D01*
X122792380Y-59923714D01*
X122839999Y-59733238D01*
X122935238Y-59638000D01*
X123030476Y-59590380D01*
X124411428Y-60590380D02*
X123839999Y-60590380D01*
X124125714Y-60590380D02*
X124125714Y-59590380D01*
X124030476Y-59733238D01*
X123935238Y-59828476D01*
X123839999Y-59876095D01*
X125268571Y-59923714D02*
X125268571Y-60590380D01*
X125030476Y-59542761D02*
X124792380Y-60257047D01*
X125411428Y-60257047D01*
X126268571Y-59590380D02*
X125792380Y-59590380D01*
X125744761Y-60066571D01*
X125792380Y-60018952D01*
X125887619Y-59971333D01*
X126125714Y-59971333D01*
X126220952Y-60018952D01*
X126268571Y-60066571D01*
X126316190Y-60161809D01*
X126316190Y-60399904D01*
X126268571Y-60495142D01*
X126220952Y-60542761D01*
X126125714Y-60590380D01*
X125887619Y-60590380D01*
X125792380Y-60542761D01*
X125744761Y-60495142D01*
X126887619Y-60018952D02*
X126792380Y-59971333D01*
X126744761Y-59923714D01*
X126697142Y-59828476D01*
X126697142Y-59780857D01*
X126744761Y-59685619D01*
X126792380Y-59638000D01*
X126887619Y-59590380D01*
X127078095Y-59590380D01*
X127173333Y-59638000D01*
X127220952Y-59685619D01*
X127268571Y-59780857D01*
X127268571Y-59828476D01*
X127220952Y-59923714D01*
X127173333Y-59971333D01*
X127078095Y-60018952D01*
X126887619Y-60018952D01*
X126792380Y-60066571D01*
X126744761Y-60114190D01*
X126697142Y-60209428D01*
X126697142Y-60399904D01*
X126744761Y-60495142D01*
X126792380Y-60542761D01*
X126887619Y-60590380D01*
X127078095Y-60590380D01*
X127173333Y-60542761D01*
X127220952Y-60495142D01*
X127268571Y-60399904D01*
X127268571Y-60209428D01*
X127220952Y-60114190D01*
X127173333Y-60066571D01*
X127078095Y-60018952D01*
X127887619Y-59590380D02*
X127982857Y-59590380D01*
X128078095Y-59638000D01*
X128125714Y-59685619D01*
X128173333Y-59780857D01*
X128220952Y-59971333D01*
X128220952Y-60209428D01*
X128173333Y-60399904D01*
X128125714Y-60495142D01*
X128078095Y-60542761D01*
X127982857Y-60590380D01*
X127887619Y-60590380D01*
X127792380Y-60542761D01*
X127744761Y-60495142D01*
X127697142Y-60399904D01*
X127649523Y-60209428D01*
X127649523Y-59971333D01*
X127697142Y-59780857D01*
X127744761Y-59685619D01*
X127792380Y-59638000D01*
X127887619Y-59590380D01*
X128411428Y-60685619D02*
X129173333Y-60685619D01*
X129411428Y-60590380D02*
X129411428Y-59590380D01*
X129792380Y-59590380D01*
X129887619Y-59638000D01*
X129935238Y-59685619D01*
X129982857Y-59780857D01*
X129982857Y-59923714D01*
X129935238Y-60018952D01*
X129887619Y-60066571D01*
X129792380Y-60114190D01*
X129411428Y-60114190D01*
X130839999Y-60590380D02*
X130839999Y-60066571D01*
X130792380Y-59971333D01*
X130697142Y-59923714D01*
X130506666Y-59923714D01*
X130411428Y-59971333D01*
X130839999Y-60542761D02*
X130744761Y-60590380D01*
X130506666Y-60590380D01*
X130411428Y-60542761D01*
X130363809Y-60447523D01*
X130363809Y-60352285D01*
X130411428Y-60257047D01*
X130506666Y-60209428D01*
X130744761Y-60209428D01*
X130839999Y-60161809D01*
X131744761Y-60590380D02*
X131744761Y-59590380D01*
X131744761Y-60542761D02*
X131649523Y-60590380D01*
X131459047Y-60590380D01*
X131363809Y-60542761D01*
X131316190Y-60495142D01*
X131268571Y-60399904D01*
X131268571Y-60114190D01*
X131316190Y-60018952D01*
X131363809Y-59971333D01*
X131459047Y-59923714D01*
X131649523Y-59923714D01*
X131744761Y-59971333D01*
X115806666Y-56840380D02*
X115473333Y-56364190D01*
X115235238Y-56840380D02*
X115235238Y-55840380D01*
X115616190Y-55840380D01*
X115711428Y-55888000D01*
X115759047Y-55935619D01*
X115806666Y-56030857D01*
X115806666Y-56173714D01*
X115759047Y-56268952D01*
X115711428Y-56316571D01*
X115616190Y-56364190D01*
X115235238Y-56364190D01*
X116235238Y-56316571D02*
X116568571Y-56316571D01*
X116711428Y-56840380D02*
X116235238Y-56840380D01*
X116235238Y-55840380D01*
X116711428Y-55840380D01*
X117473333Y-56316571D02*
X117140000Y-56316571D01*
X117140000Y-56840380D02*
X117140000Y-55840380D01*
X117616190Y-55840380D01*
X118140000Y-55840380D02*
X118140000Y-56078476D01*
X117901904Y-55983238D02*
X118140000Y-56078476D01*
X118378095Y-55983238D01*
X117997142Y-56268952D02*
X118140000Y-56078476D01*
X118282857Y-56268952D01*
X118901904Y-55840380D02*
X118901904Y-56078476D01*
X118663809Y-55983238D02*
X118901904Y-56078476D01*
X119140000Y-55983238D01*
X118759047Y-56268952D02*
X118901904Y-56078476D01*
X119044761Y-56268952D01*
X99395238Y-60590380D02*
X99395238Y-59590380D01*
X99728571Y-60304666D01*
X100061904Y-59590380D01*
X100061904Y-60590380D01*
X100680952Y-60590380D02*
X100585714Y-60542761D01*
X100538095Y-60495142D01*
X100490476Y-60399904D01*
X100490476Y-60114190D01*
X100538095Y-60018952D01*
X100585714Y-59971333D01*
X100680952Y-59923714D01*
X100823809Y-59923714D01*
X100919047Y-59971333D01*
X100966666Y-60018952D01*
X101014285Y-60114190D01*
X101014285Y-60399904D01*
X100966666Y-60495142D01*
X100919047Y-60542761D01*
X100823809Y-60590380D01*
X100680952Y-60590380D01*
X101871428Y-59923714D02*
X101871428Y-60590380D01*
X101442857Y-59923714D02*
X101442857Y-60447523D01*
X101490476Y-60542761D01*
X101585714Y-60590380D01*
X101728571Y-60590380D01*
X101823809Y-60542761D01*
X101871428Y-60495142D01*
X102347619Y-59923714D02*
X102347619Y-60590380D01*
X102347619Y-60018952D02*
X102395238Y-59971333D01*
X102490476Y-59923714D01*
X102633333Y-59923714D01*
X102728571Y-59971333D01*
X102776190Y-60066571D01*
X102776190Y-60590380D01*
X103109523Y-59923714D02*
X103490476Y-59923714D01*
X103252380Y-59590380D02*
X103252380Y-60447523D01*
X103300000Y-60542761D01*
X103395238Y-60590380D01*
X103490476Y-60590380D01*
X103823809Y-60590380D02*
X103823809Y-59923714D01*
X103823809Y-59590380D02*
X103776190Y-59638000D01*
X103823809Y-59685619D01*
X103871428Y-59638000D01*
X103823809Y-59590380D01*
X103823809Y-59685619D01*
X104299999Y-59923714D02*
X104299999Y-60590380D01*
X104299999Y-60018952D02*
X104347619Y-59971333D01*
X104442857Y-59923714D01*
X104585714Y-59923714D01*
X104680952Y-59971333D01*
X104728571Y-60066571D01*
X104728571Y-60590380D01*
X105633333Y-59923714D02*
X105633333Y-60733238D01*
X105585714Y-60828476D01*
X105538095Y-60876095D01*
X105442857Y-60923714D01*
X105299999Y-60923714D01*
X105204761Y-60876095D01*
X105633333Y-60542761D02*
X105538095Y-60590380D01*
X105347619Y-60590380D01*
X105252380Y-60542761D01*
X105204761Y-60495142D01*
X105157142Y-60399904D01*
X105157142Y-60114190D01*
X105204761Y-60018952D01*
X105252380Y-59971333D01*
X105347619Y-59923714D01*
X105538095Y-59923714D01*
X105633333Y-59971333D01*
X106109523Y-60590380D02*
X106109523Y-59590380D01*
X106109523Y-60066571D02*
X106680952Y-60066571D01*
X106680952Y-60590380D02*
X106680952Y-59590380D01*
X107299999Y-60590380D02*
X107204761Y-60542761D01*
X107157142Y-60495142D01*
X107109523Y-60399904D01*
X107109523Y-60114190D01*
X107157142Y-60018952D01*
X107204761Y-59971333D01*
X107299999Y-59923714D01*
X107442857Y-59923714D01*
X107538095Y-59971333D01*
X107585714Y-60018952D01*
X107633333Y-60114190D01*
X107633333Y-60399904D01*
X107585714Y-60495142D01*
X107538095Y-60542761D01*
X107442857Y-60590380D01*
X107299999Y-60590380D01*
X108204761Y-60590380D02*
X108109523Y-60542761D01*
X108061904Y-60447523D01*
X108061904Y-59590380D01*
X108966666Y-60542761D02*
X108871428Y-60590380D01*
X108680952Y-60590380D01*
X108585714Y-60542761D01*
X108538095Y-60447523D01*
X108538095Y-60066571D01*
X108585714Y-59971333D01*
X108680952Y-59923714D01*
X108871428Y-59923714D01*
X108966666Y-59971333D01*
X109014285Y-60066571D01*
X109014285Y-60161809D01*
X108538095Y-60257047D01*
X109204761Y-60685619D02*
X109966666Y-60685619D01*
X110109523Y-59590380D02*
X110728571Y-59590380D01*
X110395238Y-59971333D01*
X110538095Y-59971333D01*
X110633333Y-60018952D01*
X110680952Y-60066571D01*
X110728571Y-60161809D01*
X110728571Y-60399904D01*
X110680952Y-60495142D01*
X110633333Y-60542761D01*
X110538095Y-60590380D01*
X110252380Y-60590380D01*
X110157142Y-60542761D01*
X110109523Y-60495142D01*
X111157142Y-60495142D02*
X111204761Y-60542761D01*
X111157142Y-60590380D01*
X111109523Y-60542761D01*
X111157142Y-60495142D01*
X111157142Y-60590380D01*
X111585714Y-59685619D02*
X111633333Y-59638000D01*
X111728571Y-59590380D01*
X111966666Y-59590380D01*
X112061904Y-59638000D01*
X112109523Y-59685619D01*
X112157142Y-59780857D01*
X112157142Y-59876095D01*
X112109523Y-60018952D01*
X111538095Y-60590380D01*
X112157142Y-60590380D01*
X112585714Y-60590380D02*
X112585714Y-59923714D01*
X112585714Y-60018952D02*
X112633333Y-59971333D01*
X112728571Y-59923714D01*
X112871428Y-59923714D01*
X112966666Y-59971333D01*
X113014285Y-60066571D01*
X113014285Y-60590380D01*
X113014285Y-60066571D02*
X113061904Y-59971333D01*
X113157142Y-59923714D01*
X113299999Y-59923714D01*
X113395238Y-59971333D01*
X113442857Y-60066571D01*
X113442857Y-60590380D01*
X113919047Y-60590380D02*
X113919047Y-59923714D01*
X113919047Y-60018952D02*
X113966666Y-59971333D01*
X114061904Y-59923714D01*
X114204761Y-59923714D01*
X114299999Y-59971333D01*
X114347619Y-60066571D01*
X114347619Y-60590380D01*
X114347619Y-60066571D02*
X114395238Y-59971333D01*
X114490476Y-59923714D01*
X114633333Y-59923714D01*
X114728571Y-59971333D01*
X114776190Y-60066571D01*
X114776190Y-60590380D01*
X115014285Y-60685619D02*
X115776190Y-60685619D01*
X116014285Y-60590380D02*
X116014285Y-59590380D01*
X116347619Y-60304666D01*
X116680952Y-59590380D01*
X116680952Y-60590380D01*
X117061904Y-59590380D02*
X117680952Y-59590380D01*
X117347619Y-59971333D01*
X117490476Y-59971333D01*
X117585714Y-60018952D01*
X117633333Y-60066571D01*
X117680952Y-60161809D01*
X117680952Y-60399904D01*
X117633333Y-60495142D01*
X117585714Y-60542761D01*
X117490476Y-60590380D01*
X117204761Y-60590380D01*
X117109523Y-60542761D01*
X117061904Y-60495142D01*
X117871428Y-60685619D02*
X118633333Y-60685619D01*
X118871428Y-60590380D02*
X118871428Y-59590380D01*
X119299999Y-60542761D02*
X119442857Y-60590380D01*
X119680952Y-60590380D01*
X119776190Y-60542761D01*
X119823809Y-60495142D01*
X119871428Y-60399904D01*
X119871428Y-60304666D01*
X119823809Y-60209428D01*
X119776190Y-60161809D01*
X119680952Y-60114190D01*
X119490476Y-60066571D01*
X119395238Y-60018952D01*
X119347619Y-59971333D01*
X119299999Y-59876095D01*
X119299999Y-59780857D01*
X119347619Y-59685619D01*
X119395238Y-59638000D01*
X119490476Y-59590380D01*
X119728571Y-59590380D01*
X119871428Y-59638000D01*
X120490476Y-59590380D02*
X120680952Y-59590380D01*
X120776190Y-59638000D01*
X120871428Y-59733238D01*
X120919047Y-59923714D01*
X120919047Y-60257047D01*
X120871428Y-60447523D01*
X120776190Y-60542761D01*
X120680952Y-60590380D01*
X120490476Y-60590380D01*
X120395238Y-60542761D01*
X120299999Y-60447523D01*
X120252380Y-60257047D01*
X120252380Y-59923714D01*
X120299999Y-59733238D01*
X120395238Y-59638000D01*
X120490476Y-59590380D01*
X121871428Y-60590380D02*
X121299999Y-60590380D01*
X121585714Y-60590380D02*
X121585714Y-59590380D01*
X121490476Y-59733238D01*
X121395238Y-59828476D01*
X121299999Y-59876095D01*
X122728571Y-59923714D02*
X122728571Y-60590380D01*
X122490476Y-59542761D02*
X122252380Y-60257047D01*
X122871428Y-60257047D01*
X123728571Y-59590380D02*
X123252380Y-59590380D01*
X123204761Y-60066571D01*
X123252380Y-60018952D01*
X123347619Y-59971333D01*
X123585714Y-59971333D01*
X123680952Y-60018952D01*
X123728571Y-60066571D01*
X123776190Y-60161809D01*
X123776190Y-60399904D01*
X123728571Y-60495142D01*
X123680952Y-60542761D01*
X123585714Y-60590380D01*
X123347619Y-60590380D01*
X123252380Y-60542761D01*
X123204761Y-60495142D01*
X124347619Y-60018952D02*
X124252380Y-59971333D01*
X124204761Y-59923714D01*
X124157142Y-59828476D01*
X124157142Y-59780857D01*
X124204761Y-59685619D01*
X124252380Y-59638000D01*
X124347619Y-59590380D01*
X124538095Y-59590380D01*
X124633333Y-59638000D01*
X124680952Y-59685619D01*
X124728571Y-59780857D01*
X124728571Y-59828476D01*
X124680952Y-59923714D01*
X124633333Y-59971333D01*
X124538095Y-60018952D01*
X124347619Y-60018952D01*
X124252380Y-60066571D01*
X124204761Y-60114190D01*
X124157142Y-60209428D01*
X124157142Y-60399904D01*
X124204761Y-60495142D01*
X124252380Y-60542761D01*
X124347619Y-60590380D01*
X124538095Y-60590380D01*
X124633333Y-60542761D01*
X124680952Y-60495142D01*
X124728571Y-60399904D01*
X124728571Y-60209428D01*
X124680952Y-60114190D01*
X124633333Y-60066571D01*
X124538095Y-60018952D01*
X125347619Y-59590380D02*
X125442857Y-59590380D01*
X125538095Y-59638000D01*
X125585714Y-59685619D01*
X125633333Y-59780857D01*
X125680952Y-59971333D01*
X125680952Y-60209428D01*
X125633333Y-60399904D01*
X125585714Y-60495142D01*
X125538095Y-60542761D01*
X125442857Y-60590380D01*
X125347619Y-60590380D01*
X125252380Y-60542761D01*
X125204761Y-60495142D01*
X125157142Y-60399904D01*
X125109523Y-60209428D01*
X125109523Y-59971333D01*
X125157142Y-59780857D01*
X125204761Y-59685619D01*
X125252380Y-59638000D01*
X125347619Y-59590380D01*
X125871428Y-60685619D02*
X126633333Y-60685619D01*
X126871428Y-60590380D02*
X126871428Y-59590380D01*
X127252380Y-59590380D01*
X127347619Y-59638000D01*
X127395238Y-59685619D01*
X127442857Y-59780857D01*
X127442857Y-59923714D01*
X127395238Y-60018952D01*
X127347619Y-60066571D01*
X127252380Y-60114190D01*
X126871428Y-60114190D01*
X128299999Y-60590380D02*
X128299999Y-60066571D01*
X128252380Y-59971333D01*
X128157142Y-59923714D01*
X127966666Y-59923714D01*
X127871428Y-59971333D01*
X128299999Y-60542761D02*
X128204761Y-60590380D01*
X127966666Y-60590380D01*
X127871428Y-60542761D01*
X127823809Y-60447523D01*
X127823809Y-60352285D01*
X127871428Y-60257047D01*
X127966666Y-60209428D01*
X128204761Y-60209428D01*
X128299999Y-60161809D01*
X129204761Y-60590380D02*
X129204761Y-59590380D01*
X129204761Y-60542761D02*
X129109523Y-60590380D01*
X128919047Y-60590380D01*
X128823809Y-60542761D01*
X128776190Y-60495142D01*
X128728571Y-60399904D01*
X128728571Y-60114190D01*
X128776190Y-60018952D01*
X128823809Y-59971333D01*
X128919047Y-59923714D01*
X129109523Y-59923714D01*
X129204761Y-59971333D01*
X113266666Y-56840380D02*
X112933333Y-56364190D01*
X112695238Y-56840380D02*
X112695238Y-55840380D01*
X113076190Y-55840380D01*
X113171428Y-55888000D01*
X113219047Y-55935619D01*
X113266666Y-56030857D01*
X113266666Y-56173714D01*
X113219047Y-56268952D01*
X113171428Y-56316571D01*
X113076190Y-56364190D01*
X112695238Y-56364190D01*
X113695238Y-56316571D02*
X114028571Y-56316571D01*
X114171428Y-56840380D02*
X113695238Y-56840380D01*
X113695238Y-55840380D01*
X114171428Y-55840380D01*
X114933333Y-56316571D02*
X114600000Y-56316571D01*
X114600000Y-56840380D02*
X114600000Y-55840380D01*
X115076190Y-55840380D01*
X115600000Y-55840380D02*
X115600000Y-56078476D01*
X115361904Y-55983238D02*
X115600000Y-56078476D01*
X115838095Y-55983238D01*
X115457142Y-56268952D02*
X115600000Y-56078476D01*
X115742857Y-56268952D01*
X116361904Y-55840380D02*
X116361904Y-56078476D01*
X116123809Y-55983238D02*
X116361904Y-56078476D01*
X116600000Y-55983238D01*
X116219047Y-56268952D02*
X116361904Y-56078476D01*
X116504761Y-56268952D01*
X28783238Y-60590380D02*
X28783238Y-59590380D01*
X29116571Y-60304666D01*
X29449904Y-59590380D01*
X29449904Y-60590380D01*
X30068952Y-60590380D02*
X29973714Y-60542761D01*
X29926095Y-60495142D01*
X29878476Y-60399904D01*
X29878476Y-60114190D01*
X29926095Y-60018952D01*
X29973714Y-59971333D01*
X30068952Y-59923714D01*
X30211809Y-59923714D01*
X30307047Y-59971333D01*
X30354666Y-60018952D01*
X30402285Y-60114190D01*
X30402285Y-60399904D01*
X30354666Y-60495142D01*
X30307047Y-60542761D01*
X30211809Y-60590380D01*
X30068952Y-60590380D01*
X31259428Y-59923714D02*
X31259428Y-60590380D01*
X30830857Y-59923714D02*
X30830857Y-60447523D01*
X30878476Y-60542761D01*
X30973714Y-60590380D01*
X31116571Y-60590380D01*
X31211809Y-60542761D01*
X31259428Y-60495142D01*
X31735619Y-59923714D02*
X31735619Y-60590380D01*
X31735619Y-60018952D02*
X31783238Y-59971333D01*
X31878476Y-59923714D01*
X32021333Y-59923714D01*
X32116571Y-59971333D01*
X32164190Y-60066571D01*
X32164190Y-60590380D01*
X32497523Y-59923714D02*
X32878476Y-59923714D01*
X32640380Y-59590380D02*
X32640380Y-60447523D01*
X32688000Y-60542761D01*
X32783238Y-60590380D01*
X32878476Y-60590380D01*
X33211809Y-60590380D02*
X33211809Y-59923714D01*
X33211809Y-59590380D02*
X33164190Y-59638000D01*
X33211809Y-59685619D01*
X33259428Y-59638000D01*
X33211809Y-59590380D01*
X33211809Y-59685619D01*
X33688000Y-59923714D02*
X33688000Y-60590380D01*
X33688000Y-60018952D02*
X33735619Y-59971333D01*
X33830857Y-59923714D01*
X33973714Y-59923714D01*
X34068952Y-59971333D01*
X34116571Y-60066571D01*
X34116571Y-60590380D01*
X35021333Y-59923714D02*
X35021333Y-60733238D01*
X34973714Y-60828476D01*
X34926095Y-60876095D01*
X34830857Y-60923714D01*
X34688000Y-60923714D01*
X34592761Y-60876095D01*
X35021333Y-60542761D02*
X34926095Y-60590380D01*
X34735619Y-60590380D01*
X34640380Y-60542761D01*
X34592761Y-60495142D01*
X34545142Y-60399904D01*
X34545142Y-60114190D01*
X34592761Y-60018952D01*
X34640380Y-59971333D01*
X34735619Y-59923714D01*
X34926095Y-59923714D01*
X35021333Y-59971333D01*
X35497523Y-60590380D02*
X35497523Y-59590380D01*
X35497523Y-60066571D02*
X36068952Y-60066571D01*
X36068952Y-60590380D02*
X36068952Y-59590380D01*
X36688000Y-60590380D02*
X36592761Y-60542761D01*
X36545142Y-60495142D01*
X36497523Y-60399904D01*
X36497523Y-60114190D01*
X36545142Y-60018952D01*
X36592761Y-59971333D01*
X36688000Y-59923714D01*
X36830857Y-59923714D01*
X36926095Y-59971333D01*
X36973714Y-60018952D01*
X37021333Y-60114190D01*
X37021333Y-60399904D01*
X36973714Y-60495142D01*
X36926095Y-60542761D01*
X36830857Y-60590380D01*
X36688000Y-60590380D01*
X37592761Y-60590380D02*
X37497523Y-60542761D01*
X37449904Y-60447523D01*
X37449904Y-59590380D01*
X38354666Y-60542761D02*
X38259428Y-60590380D01*
X38068952Y-60590380D01*
X37973714Y-60542761D01*
X37926095Y-60447523D01*
X37926095Y-60066571D01*
X37973714Y-59971333D01*
X38068952Y-59923714D01*
X38259428Y-59923714D01*
X38354666Y-59971333D01*
X38402285Y-60066571D01*
X38402285Y-60161809D01*
X37926095Y-60257047D01*
X38592761Y-60685619D02*
X39354666Y-60685619D01*
X39497523Y-59590380D02*
X40116571Y-59590380D01*
X39783238Y-59971333D01*
X39926095Y-59971333D01*
X40021333Y-60018952D01*
X40068952Y-60066571D01*
X40116571Y-60161809D01*
X40116571Y-60399904D01*
X40068952Y-60495142D01*
X40021333Y-60542761D01*
X39926095Y-60590380D01*
X39640380Y-60590380D01*
X39545142Y-60542761D01*
X39497523Y-60495142D01*
X40545142Y-60495142D02*
X40592761Y-60542761D01*
X40545142Y-60590380D01*
X40497523Y-60542761D01*
X40545142Y-60495142D01*
X40545142Y-60590380D01*
X40973714Y-59685619D02*
X41021333Y-59638000D01*
X41116571Y-59590380D01*
X41354666Y-59590380D01*
X41449904Y-59638000D01*
X41497523Y-59685619D01*
X41545142Y-59780857D01*
X41545142Y-59876095D01*
X41497523Y-60018952D01*
X40926095Y-60590380D01*
X41545142Y-60590380D01*
X41973714Y-60590380D02*
X41973714Y-59923714D01*
X41973714Y-60018952D02*
X42021333Y-59971333D01*
X42116571Y-59923714D01*
X42259428Y-59923714D01*
X42354666Y-59971333D01*
X42402285Y-60066571D01*
X42402285Y-60590380D01*
X42402285Y-60066571D02*
X42449904Y-59971333D01*
X42545142Y-59923714D01*
X42687999Y-59923714D01*
X42783238Y-59971333D01*
X42830857Y-60066571D01*
X42830857Y-60590380D01*
X43307047Y-60590380D02*
X43307047Y-59923714D01*
X43307047Y-60018952D02*
X43354666Y-59971333D01*
X43449904Y-59923714D01*
X43592761Y-59923714D01*
X43688000Y-59971333D01*
X43735619Y-60066571D01*
X43735619Y-60590380D01*
X43735619Y-60066571D02*
X43783238Y-59971333D01*
X43878476Y-59923714D01*
X44021333Y-59923714D01*
X44116571Y-59971333D01*
X44164190Y-60066571D01*
X44164190Y-60590380D01*
X44402285Y-60685619D02*
X45164190Y-60685619D01*
X45402285Y-60590380D02*
X45402285Y-59590380D01*
X45735619Y-60304666D01*
X46068952Y-59590380D01*
X46068952Y-60590380D01*
X46449904Y-59590380D02*
X47068952Y-59590380D01*
X46735619Y-59971333D01*
X46878476Y-59971333D01*
X46973714Y-60018952D01*
X47021333Y-60066571D01*
X47068952Y-60161809D01*
X47068952Y-60399904D01*
X47021333Y-60495142D01*
X46973714Y-60542761D01*
X46878476Y-60590380D01*
X46592761Y-60590380D01*
X46497523Y-60542761D01*
X46449904Y-60495142D01*
X47259428Y-60685619D02*
X48021333Y-60685619D01*
X48259428Y-60590380D02*
X48259428Y-59590380D01*
X48688000Y-60542761D02*
X48830857Y-60590380D01*
X49068952Y-60590380D01*
X49164190Y-60542761D01*
X49211809Y-60495142D01*
X49259428Y-60399904D01*
X49259428Y-60304666D01*
X49211809Y-60209428D01*
X49164190Y-60161809D01*
X49068952Y-60114190D01*
X48878476Y-60066571D01*
X48783238Y-60018952D01*
X48735619Y-59971333D01*
X48688000Y-59876095D01*
X48688000Y-59780857D01*
X48735619Y-59685619D01*
X48783238Y-59638000D01*
X48878476Y-59590380D01*
X49116571Y-59590380D01*
X49259428Y-59638000D01*
X49878476Y-59590380D02*
X50068952Y-59590380D01*
X50164190Y-59638000D01*
X50259428Y-59733238D01*
X50307047Y-59923714D01*
X50307047Y-60257047D01*
X50259428Y-60447523D01*
X50164190Y-60542761D01*
X50068952Y-60590380D01*
X49878476Y-60590380D01*
X49783238Y-60542761D01*
X49688000Y-60447523D01*
X49640380Y-60257047D01*
X49640380Y-59923714D01*
X49688000Y-59733238D01*
X49783238Y-59638000D01*
X49878476Y-59590380D01*
X51259428Y-60590380D02*
X50688000Y-60590380D01*
X50973714Y-60590380D02*
X50973714Y-59590380D01*
X50878476Y-59733238D01*
X50783238Y-59828476D01*
X50688000Y-59876095D01*
X52116571Y-59923714D02*
X52116571Y-60590380D01*
X51878476Y-59542761D02*
X51640380Y-60257047D01*
X52259428Y-60257047D01*
X53116571Y-59590380D02*
X52640380Y-59590380D01*
X52592761Y-60066571D01*
X52640380Y-60018952D01*
X52735619Y-59971333D01*
X52973714Y-59971333D01*
X53068952Y-60018952D01*
X53116571Y-60066571D01*
X53164190Y-60161809D01*
X53164190Y-60399904D01*
X53116571Y-60495142D01*
X53068952Y-60542761D01*
X52973714Y-60590380D01*
X52735619Y-60590380D01*
X52640380Y-60542761D01*
X52592761Y-60495142D01*
X53735619Y-60018952D02*
X53640380Y-59971333D01*
X53592761Y-59923714D01*
X53545142Y-59828476D01*
X53545142Y-59780857D01*
X53592761Y-59685619D01*
X53640380Y-59638000D01*
X53735619Y-59590380D01*
X53926095Y-59590380D01*
X54021333Y-59638000D01*
X54068952Y-59685619D01*
X54116571Y-59780857D01*
X54116571Y-59828476D01*
X54068952Y-59923714D01*
X54021333Y-59971333D01*
X53926095Y-60018952D01*
X53735619Y-60018952D01*
X53640380Y-60066571D01*
X53592761Y-60114190D01*
X53545142Y-60209428D01*
X53545142Y-60399904D01*
X53592761Y-60495142D01*
X53640380Y-60542761D01*
X53735619Y-60590380D01*
X53926095Y-60590380D01*
X54021333Y-60542761D01*
X54068952Y-60495142D01*
X54116571Y-60399904D01*
X54116571Y-60209428D01*
X54068952Y-60114190D01*
X54021333Y-60066571D01*
X53926095Y-60018952D01*
X54735619Y-59590380D02*
X54830857Y-59590380D01*
X54926095Y-59638000D01*
X54973714Y-59685619D01*
X55021333Y-59780857D01*
X55068952Y-59971333D01*
X55068952Y-60209428D01*
X55021333Y-60399904D01*
X54973714Y-60495142D01*
X54926095Y-60542761D01*
X54830857Y-60590380D01*
X54735619Y-60590380D01*
X54640380Y-60542761D01*
X54592761Y-60495142D01*
X54545142Y-60399904D01*
X54497523Y-60209428D01*
X54497523Y-59971333D01*
X54545142Y-59780857D01*
X54592761Y-59685619D01*
X54640380Y-59638000D01*
X54735619Y-59590380D01*
X55259428Y-60685619D02*
X56021333Y-60685619D01*
X56259428Y-60590380D02*
X56259428Y-59590380D01*
X56640380Y-59590380D01*
X56735619Y-59638000D01*
X56783238Y-59685619D01*
X56830857Y-59780857D01*
X56830857Y-59923714D01*
X56783238Y-60018952D01*
X56735619Y-60066571D01*
X56640380Y-60114190D01*
X56259428Y-60114190D01*
X57687999Y-60590380D02*
X57687999Y-60066571D01*
X57640380Y-59971333D01*
X57545142Y-59923714D01*
X57354666Y-59923714D01*
X57259428Y-59971333D01*
X57687999Y-60542761D02*
X57592761Y-60590380D01*
X57354666Y-60590380D01*
X57259428Y-60542761D01*
X57211809Y-60447523D01*
X57211809Y-60352285D01*
X57259428Y-60257047D01*
X57354666Y-60209428D01*
X57592761Y-60209428D01*
X57687999Y-60161809D01*
X58592761Y-60590380D02*
X58592761Y-59590380D01*
X58592761Y-60542761D02*
X58497523Y-60590380D01*
X58307047Y-60590380D01*
X58211809Y-60542761D01*
X58164190Y-60495142D01*
X58116571Y-60399904D01*
X58116571Y-60114190D01*
X58164190Y-60018952D01*
X58211809Y-59971333D01*
X58307047Y-59923714D01*
X58497523Y-59923714D01*
X58592761Y-59971333D01*
X42654666Y-56840380D02*
X42321333Y-56364190D01*
X42083238Y-56840380D02*
X42083238Y-55840380D01*
X42464190Y-55840380D01*
X42559428Y-55888000D01*
X42607047Y-55935619D01*
X42654666Y-56030857D01*
X42654666Y-56173714D01*
X42607047Y-56268952D01*
X42559428Y-56316571D01*
X42464190Y-56364190D01*
X42083238Y-56364190D01*
X43083238Y-56316571D02*
X43416571Y-56316571D01*
X43559428Y-56840380D02*
X43083238Y-56840380D01*
X43083238Y-55840380D01*
X43559428Y-55840380D01*
X44321333Y-56316571D02*
X43988000Y-56316571D01*
X43988000Y-56840380D02*
X43988000Y-55840380D01*
X44464190Y-55840380D01*
X44988000Y-55840380D02*
X44988000Y-56078476D01*
X44749904Y-55983238D02*
X44988000Y-56078476D01*
X45226095Y-55983238D01*
X44845142Y-56268952D02*
X44988000Y-56078476D01*
X45130857Y-56268952D01*
X45749904Y-55840380D02*
X45749904Y-56078476D01*
X45511809Y-55983238D02*
X45749904Y-56078476D01*
X45988000Y-55983238D01*
X45607047Y-56268952D02*
X45749904Y-56078476D01*
X45892761Y-56268952D01*
G04 #@! TO.C,U4*
X90014095Y-50584380D02*
X90014095Y-51393904D01*
X90061714Y-51489142D01*
X90109333Y-51536761D01*
X90204571Y-51584380D01*
X90395047Y-51584380D01*
X90490285Y-51536761D01*
X90537904Y-51489142D01*
X90585523Y-51393904D01*
X90585523Y-50584380D01*
X91490285Y-50917714D02*
X91490285Y-51584380D01*
X91252190Y-50536761D02*
X91014095Y-51251047D01*
X91633142Y-51251047D01*
G04 #@! TO.C,U6*
D12*
X61087047Y-71354190D02*
X61087047Y-71758952D01*
X61110857Y-71806571D01*
X61134666Y-71830380D01*
X61182285Y-71854190D01*
X61277523Y-71854190D01*
X61325142Y-71830380D01*
X61348952Y-71806571D01*
X61372761Y-71758952D01*
X61372761Y-71354190D01*
X61825142Y-71354190D02*
X61729904Y-71354190D01*
X61682285Y-71378000D01*
X61658476Y-71401809D01*
X61610857Y-71473238D01*
X61587047Y-71568476D01*
X61587047Y-71758952D01*
X61610857Y-71806571D01*
X61634666Y-71830380D01*
X61682285Y-71854190D01*
X61777523Y-71854190D01*
X61825142Y-71830380D01*
X61848952Y-71806571D01*
X61872761Y-71758952D01*
X61872761Y-71639904D01*
X61848952Y-71592285D01*
X61825142Y-71568476D01*
X61777523Y-71544666D01*
X61682285Y-71544666D01*
X61634666Y-71568476D01*
X61610857Y-71592285D01*
X61587047Y-71639904D01*
G04 #@! TO.C,C1*
D11*
X79351142Y-56788666D02*
X79398761Y-56836285D01*
X79446380Y-56979142D01*
X79446380Y-57074380D01*
X79398761Y-57217238D01*
X79303523Y-57312476D01*
X79208285Y-57360095D01*
X79017809Y-57407714D01*
X78874952Y-57407714D01*
X78684476Y-57360095D01*
X78589238Y-57312476D01*
X78494000Y-57217238D01*
X78446380Y-57074380D01*
X78446380Y-56979142D01*
X78494000Y-56836285D01*
X78541619Y-56788666D01*
X79446380Y-55836285D02*
X79446380Y-56407714D01*
X79446380Y-56122000D02*
X78446380Y-56122000D01*
X78589238Y-56217238D01*
X78684476Y-56312476D01*
X78732095Y-56407714D01*
G04 #@! TO.C,C2*
X103993333Y-73763142D02*
X103945714Y-73810761D01*
X103802857Y-73858380D01*
X103707619Y-73858380D01*
X103564761Y-73810761D01*
X103469523Y-73715523D01*
X103421904Y-73620285D01*
X103374285Y-73429809D01*
X103374285Y-73286952D01*
X103421904Y-73096476D01*
X103469523Y-73001238D01*
X103564761Y-72906000D01*
X103707619Y-72858380D01*
X103802857Y-72858380D01*
X103945714Y-72906000D01*
X103993333Y-72953619D01*
X104374285Y-72953619D02*
X104421904Y-72906000D01*
X104517142Y-72858380D01*
X104755238Y-72858380D01*
X104850476Y-72906000D01*
X104898095Y-72953619D01*
X104945714Y-73048857D01*
X104945714Y-73144095D01*
X104898095Y-73286952D01*
X104326666Y-73858380D01*
X104945714Y-73858380D01*
G04 #@! TO.C,D1*
X85344476Y-72498380D02*
X85344476Y-71498380D01*
X85582571Y-71498380D01*
X85725428Y-71546000D01*
X85820666Y-71641238D01*
X85868285Y-71736476D01*
X85915904Y-71926952D01*
X85915904Y-72069809D01*
X85868285Y-72260285D01*
X85820666Y-72355523D01*
X85725428Y-72450761D01*
X85582571Y-72498380D01*
X85344476Y-72498380D01*
X86106380Y-72593619D02*
X86868285Y-72593619D01*
X87058761Y-72450761D02*
X87201619Y-72498380D01*
X87439714Y-72498380D01*
X87534952Y-72450761D01*
X87582571Y-72403142D01*
X87630190Y-72307904D01*
X87630190Y-72212666D01*
X87582571Y-72117428D01*
X87534952Y-72069809D01*
X87439714Y-72022190D01*
X87249238Y-71974571D01*
X87154000Y-71926952D01*
X87106380Y-71879333D01*
X87058761Y-71784095D01*
X87058761Y-71688857D01*
X87106380Y-71593619D01*
X87154000Y-71546000D01*
X87249238Y-71498380D01*
X87487333Y-71498380D01*
X87630190Y-71546000D01*
X88487333Y-72450761D02*
X88392095Y-72498380D01*
X88201619Y-72498380D01*
X88106380Y-72450761D01*
X88058761Y-72403142D01*
X88011142Y-72307904D01*
X88011142Y-72022190D01*
X88058761Y-71926952D01*
X88106380Y-71879333D01*
X88201619Y-71831714D01*
X88392095Y-71831714D01*
X88487333Y-71879333D01*
X88915904Y-72498380D02*
X88915904Y-71498380D01*
X89344476Y-72498380D02*
X89344476Y-71974571D01*
X89296857Y-71879333D01*
X89201619Y-71831714D01*
X89058761Y-71831714D01*
X88963523Y-71879333D01*
X88915904Y-71926952D01*
X89963523Y-72498380D02*
X89868285Y-72450761D01*
X89820666Y-72403142D01*
X89773047Y-72307904D01*
X89773047Y-72022190D01*
X89820666Y-71926952D01*
X89868285Y-71879333D01*
X89963523Y-71831714D01*
X90106380Y-71831714D01*
X90201619Y-71879333D01*
X90249238Y-71926952D01*
X90296857Y-72022190D01*
X90296857Y-72307904D01*
X90249238Y-72403142D01*
X90201619Y-72450761D01*
X90106380Y-72498380D01*
X89963523Y-72498380D01*
X90582571Y-71831714D02*
X90963523Y-71831714D01*
X90725428Y-71498380D02*
X90725428Y-72355523D01*
X90773047Y-72450761D01*
X90868285Y-72498380D01*
X90963523Y-72498380D01*
X91154000Y-71831714D02*
X91534952Y-71831714D01*
X91296857Y-71498380D02*
X91296857Y-72355523D01*
X91344476Y-72450761D01*
X91439714Y-72498380D01*
X91534952Y-72498380D01*
X91868285Y-72498380D02*
X91868285Y-71498380D01*
X91963523Y-72117428D02*
X92249238Y-72498380D01*
X92249238Y-71831714D02*
X91868285Y-72212666D01*
X92582571Y-71831714D02*
X92820666Y-72498380D01*
X93058761Y-71831714D02*
X92820666Y-72498380D01*
X92725428Y-72736476D01*
X92677809Y-72784095D01*
X92582571Y-72831714D01*
X89128404Y-68778380D02*
X89128404Y-67778380D01*
X89366500Y-67778380D01*
X89509357Y-67826000D01*
X89604595Y-67921238D01*
X89652214Y-68016476D01*
X89699833Y-68206952D01*
X89699833Y-68349809D01*
X89652214Y-68540285D01*
X89604595Y-68635523D01*
X89509357Y-68730761D01*
X89366500Y-68778380D01*
X89128404Y-68778380D01*
X90652214Y-68778380D02*
X90080785Y-68778380D01*
X90366500Y-68778380D02*
X90366500Y-67778380D01*
X90271261Y-67921238D01*
X90176023Y-68016476D01*
X90080785Y-68064095D01*
X81272095Y-66178380D02*
X81272095Y-65178380D01*
X81843523Y-66178380D02*
X81414952Y-65606952D01*
X81843523Y-65178380D02*
X81272095Y-65749809D01*
G04 #@! TO.C,J4*
X107870666Y-92924380D02*
X107870666Y-93638666D01*
X107823047Y-93781523D01*
X107727809Y-93876761D01*
X107584952Y-93924380D01*
X107489714Y-93924380D01*
X108775428Y-93257714D02*
X108775428Y-93924380D01*
X108537333Y-92876761D02*
X108299238Y-93591047D01*
X108918285Y-93591047D01*
G04 #@! TO.C,J5*
X68246666Y-92924380D02*
X68246666Y-93638666D01*
X68199047Y-93781523D01*
X68103809Y-93876761D01*
X67960952Y-93924380D01*
X67865714Y-93924380D01*
X69199047Y-92924380D02*
X68722857Y-92924380D01*
X68675238Y-93400571D01*
X68722857Y-93352952D01*
X68818095Y-93305333D01*
X69056190Y-93305333D01*
X69151428Y-93352952D01*
X69199047Y-93400571D01*
X69246666Y-93495809D01*
X69246666Y-93733904D01*
X69199047Y-93829142D01*
X69151428Y-93876761D01*
X69056190Y-93924380D01*
X68818095Y-93924380D01*
X68722857Y-93876761D01*
X68675238Y-93829142D01*
G04 #@! TO.C,J6*
X86534666Y-92924380D02*
X86534666Y-93638666D01*
X86487047Y-93781523D01*
X86391809Y-93876761D01*
X86248952Y-93924380D01*
X86153714Y-93924380D01*
X87439428Y-92924380D02*
X87248952Y-92924380D01*
X87153714Y-92972000D01*
X87106095Y-93019619D01*
X87010857Y-93162476D01*
X86963238Y-93352952D01*
X86963238Y-93733904D01*
X87010857Y-93829142D01*
X87058476Y-93876761D01*
X87153714Y-93924380D01*
X87344190Y-93924380D01*
X87439428Y-93876761D01*
X87487047Y-93829142D01*
X87534666Y-93733904D01*
X87534666Y-93495809D01*
X87487047Y-93400571D01*
X87439428Y-93352952D01*
X87344190Y-93305333D01*
X87153714Y-93305333D01*
X87058476Y-93352952D01*
X87010857Y-93400571D01*
X86963238Y-93495809D01*
G04 #@! TO.C,J7*
X49958666Y-92924380D02*
X49958666Y-93638666D01*
X49911047Y-93781523D01*
X49815809Y-93876761D01*
X49672952Y-93924380D01*
X49577714Y-93924380D01*
X50339619Y-92924380D02*
X51006285Y-92924380D01*
X50577714Y-93924380D01*
G04 #@! TO.C,L1*
X109334380Y-59229714D02*
X109334380Y-58610666D01*
X109715333Y-58944000D01*
X109715333Y-58801142D01*
X109762952Y-58705904D01*
X109810571Y-58658285D01*
X109905809Y-58610666D01*
X110143904Y-58610666D01*
X110239142Y-58658285D01*
X110286761Y-58705904D01*
X110334380Y-58801142D01*
X110334380Y-59086857D01*
X110286761Y-59182095D01*
X110239142Y-59229714D01*
X109334380Y-58277333D02*
X109334380Y-57658285D01*
X109715333Y-57991619D01*
X109715333Y-57848761D01*
X109762952Y-57753523D01*
X109810571Y-57705904D01*
X109905809Y-57658285D01*
X110143904Y-57658285D01*
X110239142Y-57705904D01*
X110286761Y-57753523D01*
X110334380Y-57848761D01*
X110334380Y-58134476D01*
X110286761Y-58229714D01*
X110239142Y-58277333D01*
X109667714Y-56801142D02*
X110334380Y-56801142D01*
X109667714Y-57229714D02*
X110191523Y-57229714D01*
X110286761Y-57182095D01*
X110334380Y-57086857D01*
X110334380Y-56944000D01*
X110286761Y-56848761D01*
X110239142Y-56801142D01*
X110334380Y-56324952D02*
X109334380Y-56324952D01*
X109810571Y-56324952D02*
X109810571Y-55753523D01*
X110334380Y-55753523D02*
X109334380Y-55753523D01*
X104084380Y-57610666D02*
X104084380Y-58086857D01*
X103084380Y-58086857D01*
X104084380Y-56753523D02*
X104084380Y-57324952D01*
X104084380Y-57039238D02*
X103084380Y-57039238D01*
X103227238Y-57134476D01*
X103322476Y-57229714D01*
X103370095Y-57324952D01*
G04 #@! TO.C,U1*
D12*
X53975047Y-81514190D02*
X53975047Y-81918952D01*
X53998857Y-81966571D01*
X54022666Y-81990380D01*
X54070285Y-82014190D01*
X54165523Y-82014190D01*
X54213142Y-81990380D01*
X54236952Y-81966571D01*
X54260761Y-81918952D01*
X54260761Y-81514190D01*
X54760761Y-82014190D02*
X54475047Y-82014190D01*
X54617904Y-82014190D02*
X54617904Y-81514190D01*
X54570285Y-81585619D01*
X54522666Y-81633238D01*
X54475047Y-81657047D01*
G04 #@! TO.C,U2*
X53975047Y-71354190D02*
X53975047Y-71758952D01*
X53998857Y-71806571D01*
X54022666Y-71830380D01*
X54070285Y-71854190D01*
X54165523Y-71854190D01*
X54213142Y-71830380D01*
X54236952Y-71806571D01*
X54260761Y-71758952D01*
X54260761Y-71354190D01*
X54475047Y-71401809D02*
X54498857Y-71378000D01*
X54546476Y-71354190D01*
X54665523Y-71354190D01*
X54713142Y-71378000D01*
X54736952Y-71401809D01*
X54760761Y-71449428D01*
X54760761Y-71497047D01*
X54736952Y-71568476D01*
X54451238Y-71854190D01*
X54760761Y-71854190D01*
G04 #@! TO.C,U3*
X53975047Y-61194190D02*
X53975047Y-61598952D01*
X53998857Y-61646571D01*
X54022666Y-61670380D01*
X54070285Y-61694190D01*
X54165523Y-61694190D01*
X54213142Y-61670380D01*
X54236952Y-61646571D01*
X54260761Y-61598952D01*
X54260761Y-61194190D01*
X54451238Y-61194190D02*
X54760761Y-61194190D01*
X54594095Y-61384666D01*
X54665523Y-61384666D01*
X54713142Y-61408476D01*
X54736952Y-61432285D01*
X54760761Y-61479904D01*
X54760761Y-61598952D01*
X54736952Y-61646571D01*
X54713142Y-61670380D01*
X54665523Y-61694190D01*
X54522666Y-61694190D01*
X54475047Y-61670380D01*
X54451238Y-61646571D01*
G04 #@! TO.C,U5*
X61595047Y-81514190D02*
X61595047Y-81918952D01*
X61618857Y-81966571D01*
X61642666Y-81990380D01*
X61690285Y-82014190D01*
X61785523Y-82014190D01*
X61833142Y-81990380D01*
X61856952Y-81966571D01*
X61880761Y-81918952D01*
X61880761Y-81514190D01*
X62356952Y-81514190D02*
X62118857Y-81514190D01*
X62095047Y-81752285D01*
X62118857Y-81728476D01*
X62166476Y-81704666D01*
X62285523Y-81704666D01*
X62333142Y-81728476D01*
X62356952Y-81752285D01*
X62380761Y-81799904D01*
X62380761Y-81918952D01*
X62356952Y-81966571D01*
X62333142Y-81990380D01*
X62285523Y-82014190D01*
X62166476Y-82014190D01*
X62118857Y-81990380D01*
X62095047Y-81966571D01*
G04 #@! TO.C,U7*
X61087047Y-61194190D02*
X61087047Y-61598952D01*
X61110857Y-61646571D01*
X61134666Y-61670380D01*
X61182285Y-61694190D01*
X61277523Y-61694190D01*
X61325142Y-61670380D01*
X61348952Y-61646571D01*
X61372761Y-61598952D01*
X61372761Y-61194190D01*
X61563238Y-61194190D02*
X61896571Y-61194190D01*
X61682285Y-61694190D01*
G04 #@! TO.C,U8*
X74803047Y-76434190D02*
X74803047Y-76838952D01*
X74826857Y-76886571D01*
X74850666Y-76910380D01*
X74898285Y-76934190D01*
X74993523Y-76934190D01*
X75041142Y-76910380D01*
X75064952Y-76886571D01*
X75088761Y-76838952D01*
X75088761Y-76434190D01*
X75398285Y-76648476D02*
X75350666Y-76624666D01*
X75326857Y-76600857D01*
X75303047Y-76553238D01*
X75303047Y-76529428D01*
X75326857Y-76481809D01*
X75350666Y-76458000D01*
X75398285Y-76434190D01*
X75493523Y-76434190D01*
X75541142Y-76458000D01*
X75564952Y-76481809D01*
X75588761Y-76529428D01*
X75588761Y-76553238D01*
X75564952Y-76600857D01*
X75541142Y-76624666D01*
X75493523Y-76648476D01*
X75398285Y-76648476D01*
X75350666Y-76672285D01*
X75326857Y-76696095D01*
X75303047Y-76743714D01*
X75303047Y-76838952D01*
X75326857Y-76886571D01*
X75350666Y-76910380D01*
X75398285Y-76934190D01*
X75493523Y-76934190D01*
X75541142Y-76910380D01*
X75564952Y-76886571D01*
X75588761Y-76838952D01*
X75588761Y-76743714D01*
X75564952Y-76696095D01*
X75541142Y-76672285D01*
X75493523Y-76648476D01*
G04 #@! TO.C,J8*
D11*
X115784380Y-69929333D02*
X116498666Y-69929333D01*
X116641523Y-69976952D01*
X116736761Y-70072190D01*
X116784380Y-70215047D01*
X116784380Y-70310285D01*
X116212952Y-69310285D02*
X116165333Y-69405523D01*
X116117714Y-69453142D01*
X116022476Y-69500761D01*
X115974857Y-69500761D01*
X115879619Y-69453142D01*
X115832000Y-69405523D01*
X115784380Y-69310285D01*
X115784380Y-69119809D01*
X115832000Y-69024571D01*
X115879619Y-68976952D01*
X115974857Y-68929333D01*
X116022476Y-68929333D01*
X116117714Y-68976952D01*
X116165333Y-69024571D01*
X116212952Y-69119809D01*
X116212952Y-69310285D01*
X116260571Y-69405523D01*
X116308190Y-69453142D01*
X116403428Y-69500761D01*
X116593904Y-69500761D01*
X116689142Y-69453142D01*
X116736761Y-69405523D01*
X116784380Y-69310285D01*
X116784380Y-69119809D01*
X116736761Y-69024571D01*
X116689142Y-68976952D01*
X116593904Y-68929333D01*
X116403428Y-68929333D01*
X116308190Y-68976952D01*
X116260571Y-69024571D01*
X116212952Y-69119809D01*
G04 #@! TO.C,REF\002A\002A*
X26243238Y-60590380D02*
X26243238Y-59590380D01*
X26576571Y-60304666D01*
X26909904Y-59590380D01*
X26909904Y-60590380D01*
X27528952Y-60590380D02*
X27433714Y-60542761D01*
X27386095Y-60495142D01*
X27338476Y-60399904D01*
X27338476Y-60114190D01*
X27386095Y-60018952D01*
X27433714Y-59971333D01*
X27528952Y-59923714D01*
X27671809Y-59923714D01*
X27767047Y-59971333D01*
X27814666Y-60018952D01*
X27862285Y-60114190D01*
X27862285Y-60399904D01*
X27814666Y-60495142D01*
X27767047Y-60542761D01*
X27671809Y-60590380D01*
X27528952Y-60590380D01*
X28719428Y-59923714D02*
X28719428Y-60590380D01*
X28290857Y-59923714D02*
X28290857Y-60447523D01*
X28338476Y-60542761D01*
X28433714Y-60590380D01*
X28576571Y-60590380D01*
X28671809Y-60542761D01*
X28719428Y-60495142D01*
X29195619Y-59923714D02*
X29195619Y-60590380D01*
X29195619Y-60018952D02*
X29243238Y-59971333D01*
X29338476Y-59923714D01*
X29481333Y-59923714D01*
X29576571Y-59971333D01*
X29624190Y-60066571D01*
X29624190Y-60590380D01*
X29957523Y-59923714D02*
X30338476Y-59923714D01*
X30100380Y-59590380D02*
X30100380Y-60447523D01*
X30148000Y-60542761D01*
X30243238Y-60590380D01*
X30338476Y-60590380D01*
X30671809Y-60590380D02*
X30671809Y-59923714D01*
X30671809Y-59590380D02*
X30624190Y-59638000D01*
X30671809Y-59685619D01*
X30719428Y-59638000D01*
X30671809Y-59590380D01*
X30671809Y-59685619D01*
X31148000Y-59923714D02*
X31148000Y-60590380D01*
X31148000Y-60018952D02*
X31195619Y-59971333D01*
X31290857Y-59923714D01*
X31433714Y-59923714D01*
X31528952Y-59971333D01*
X31576571Y-60066571D01*
X31576571Y-60590380D01*
X32481333Y-59923714D02*
X32481333Y-60733238D01*
X32433714Y-60828476D01*
X32386095Y-60876095D01*
X32290857Y-60923714D01*
X32148000Y-60923714D01*
X32052761Y-60876095D01*
X32481333Y-60542761D02*
X32386095Y-60590380D01*
X32195619Y-60590380D01*
X32100380Y-60542761D01*
X32052761Y-60495142D01*
X32005142Y-60399904D01*
X32005142Y-60114190D01*
X32052761Y-60018952D01*
X32100380Y-59971333D01*
X32195619Y-59923714D01*
X32386095Y-59923714D01*
X32481333Y-59971333D01*
X32957523Y-60590380D02*
X32957523Y-59590380D01*
X32957523Y-60066571D02*
X33528952Y-60066571D01*
X33528952Y-60590380D02*
X33528952Y-59590380D01*
X34148000Y-60590380D02*
X34052761Y-60542761D01*
X34005142Y-60495142D01*
X33957523Y-60399904D01*
X33957523Y-60114190D01*
X34005142Y-60018952D01*
X34052761Y-59971333D01*
X34148000Y-59923714D01*
X34290857Y-59923714D01*
X34386095Y-59971333D01*
X34433714Y-60018952D01*
X34481333Y-60114190D01*
X34481333Y-60399904D01*
X34433714Y-60495142D01*
X34386095Y-60542761D01*
X34290857Y-60590380D01*
X34148000Y-60590380D01*
X35052761Y-60590380D02*
X34957523Y-60542761D01*
X34909904Y-60447523D01*
X34909904Y-59590380D01*
X35814666Y-60542761D02*
X35719428Y-60590380D01*
X35528952Y-60590380D01*
X35433714Y-60542761D01*
X35386095Y-60447523D01*
X35386095Y-60066571D01*
X35433714Y-59971333D01*
X35528952Y-59923714D01*
X35719428Y-59923714D01*
X35814666Y-59971333D01*
X35862285Y-60066571D01*
X35862285Y-60161809D01*
X35386095Y-60257047D01*
X36052761Y-60685619D02*
X36814666Y-60685619D01*
X36957523Y-59590380D02*
X37576571Y-59590380D01*
X37243238Y-59971333D01*
X37386095Y-59971333D01*
X37481333Y-60018952D01*
X37528952Y-60066571D01*
X37576571Y-60161809D01*
X37576571Y-60399904D01*
X37528952Y-60495142D01*
X37481333Y-60542761D01*
X37386095Y-60590380D01*
X37100380Y-60590380D01*
X37005142Y-60542761D01*
X36957523Y-60495142D01*
X38005142Y-60495142D02*
X38052761Y-60542761D01*
X38005142Y-60590380D01*
X37957523Y-60542761D01*
X38005142Y-60495142D01*
X38005142Y-60590380D01*
X38433714Y-59685619D02*
X38481333Y-59638000D01*
X38576571Y-59590380D01*
X38814666Y-59590380D01*
X38909904Y-59638000D01*
X38957523Y-59685619D01*
X39005142Y-59780857D01*
X39005142Y-59876095D01*
X38957523Y-60018952D01*
X38386095Y-60590380D01*
X39005142Y-60590380D01*
X39433714Y-60590380D02*
X39433714Y-59923714D01*
X39433714Y-60018952D02*
X39481333Y-59971333D01*
X39576571Y-59923714D01*
X39719428Y-59923714D01*
X39814666Y-59971333D01*
X39862285Y-60066571D01*
X39862285Y-60590380D01*
X39862285Y-60066571D02*
X39909904Y-59971333D01*
X40005142Y-59923714D01*
X40147999Y-59923714D01*
X40243238Y-59971333D01*
X40290857Y-60066571D01*
X40290857Y-60590380D01*
X40767047Y-60590380D02*
X40767047Y-59923714D01*
X40767047Y-60018952D02*
X40814666Y-59971333D01*
X40909904Y-59923714D01*
X41052761Y-59923714D01*
X41148000Y-59971333D01*
X41195619Y-60066571D01*
X41195619Y-60590380D01*
X41195619Y-60066571D02*
X41243238Y-59971333D01*
X41338476Y-59923714D01*
X41481333Y-59923714D01*
X41576571Y-59971333D01*
X41624190Y-60066571D01*
X41624190Y-60590380D01*
X41862285Y-60685619D02*
X42624190Y-60685619D01*
X42862285Y-60590380D02*
X42862285Y-59590380D01*
X43195619Y-60304666D01*
X43528952Y-59590380D01*
X43528952Y-60590380D01*
X43909904Y-59590380D02*
X44528952Y-59590380D01*
X44195619Y-59971333D01*
X44338476Y-59971333D01*
X44433714Y-60018952D01*
X44481333Y-60066571D01*
X44528952Y-60161809D01*
X44528952Y-60399904D01*
X44481333Y-60495142D01*
X44433714Y-60542761D01*
X44338476Y-60590380D01*
X44052761Y-60590380D01*
X43957523Y-60542761D01*
X43909904Y-60495142D01*
X44719428Y-60685619D02*
X45481333Y-60685619D01*
X45719428Y-60590380D02*
X45719428Y-59590380D01*
X46148000Y-60542761D02*
X46290857Y-60590380D01*
X46528952Y-60590380D01*
X46624190Y-60542761D01*
X46671809Y-60495142D01*
X46719428Y-60399904D01*
X46719428Y-60304666D01*
X46671809Y-60209428D01*
X46624190Y-60161809D01*
X46528952Y-60114190D01*
X46338476Y-60066571D01*
X46243238Y-60018952D01*
X46195619Y-59971333D01*
X46148000Y-59876095D01*
X46148000Y-59780857D01*
X46195619Y-59685619D01*
X46243238Y-59638000D01*
X46338476Y-59590380D01*
X46576571Y-59590380D01*
X46719428Y-59638000D01*
X47338476Y-59590380D02*
X47528952Y-59590380D01*
X47624190Y-59638000D01*
X47719428Y-59733238D01*
X47767047Y-59923714D01*
X47767047Y-60257047D01*
X47719428Y-60447523D01*
X47624190Y-60542761D01*
X47528952Y-60590380D01*
X47338476Y-60590380D01*
X47243238Y-60542761D01*
X47148000Y-60447523D01*
X47100380Y-60257047D01*
X47100380Y-59923714D01*
X47148000Y-59733238D01*
X47243238Y-59638000D01*
X47338476Y-59590380D01*
X48719428Y-60590380D02*
X48148000Y-60590380D01*
X48433714Y-60590380D02*
X48433714Y-59590380D01*
X48338476Y-59733238D01*
X48243238Y-59828476D01*
X48148000Y-59876095D01*
X49576571Y-59923714D02*
X49576571Y-60590380D01*
X49338476Y-59542761D02*
X49100380Y-60257047D01*
X49719428Y-60257047D01*
X50576571Y-59590380D02*
X50100380Y-59590380D01*
X50052761Y-60066571D01*
X50100380Y-60018952D01*
X50195619Y-59971333D01*
X50433714Y-59971333D01*
X50528952Y-60018952D01*
X50576571Y-60066571D01*
X50624190Y-60161809D01*
X50624190Y-60399904D01*
X50576571Y-60495142D01*
X50528952Y-60542761D01*
X50433714Y-60590380D01*
X50195619Y-60590380D01*
X50100380Y-60542761D01*
X50052761Y-60495142D01*
X51195619Y-60018952D02*
X51100380Y-59971333D01*
X51052761Y-59923714D01*
X51005142Y-59828476D01*
X51005142Y-59780857D01*
X51052761Y-59685619D01*
X51100380Y-59638000D01*
X51195619Y-59590380D01*
X51386095Y-59590380D01*
X51481333Y-59638000D01*
X51528952Y-59685619D01*
X51576571Y-59780857D01*
X51576571Y-59828476D01*
X51528952Y-59923714D01*
X51481333Y-59971333D01*
X51386095Y-60018952D01*
X51195619Y-60018952D01*
X51100380Y-60066571D01*
X51052761Y-60114190D01*
X51005142Y-60209428D01*
X51005142Y-60399904D01*
X51052761Y-60495142D01*
X51100380Y-60542761D01*
X51195619Y-60590380D01*
X51386095Y-60590380D01*
X51481333Y-60542761D01*
X51528952Y-60495142D01*
X51576571Y-60399904D01*
X51576571Y-60209428D01*
X51528952Y-60114190D01*
X51481333Y-60066571D01*
X51386095Y-60018952D01*
X52195619Y-59590380D02*
X52290857Y-59590380D01*
X52386095Y-59638000D01*
X52433714Y-59685619D01*
X52481333Y-59780857D01*
X52528952Y-59971333D01*
X52528952Y-60209428D01*
X52481333Y-60399904D01*
X52433714Y-60495142D01*
X52386095Y-60542761D01*
X52290857Y-60590380D01*
X52195619Y-60590380D01*
X52100380Y-60542761D01*
X52052761Y-60495142D01*
X52005142Y-60399904D01*
X51957523Y-60209428D01*
X51957523Y-59971333D01*
X52005142Y-59780857D01*
X52052761Y-59685619D01*
X52100380Y-59638000D01*
X52195619Y-59590380D01*
X52719428Y-60685619D02*
X53481333Y-60685619D01*
X53719428Y-60590380D02*
X53719428Y-59590380D01*
X54100380Y-59590380D01*
X54195619Y-59638000D01*
X54243238Y-59685619D01*
X54290857Y-59780857D01*
X54290857Y-59923714D01*
X54243238Y-60018952D01*
X54195619Y-60066571D01*
X54100380Y-60114190D01*
X53719428Y-60114190D01*
X55147999Y-60590380D02*
X55147999Y-60066571D01*
X55100380Y-59971333D01*
X55005142Y-59923714D01*
X54814666Y-59923714D01*
X54719428Y-59971333D01*
X55147999Y-60542761D02*
X55052761Y-60590380D01*
X54814666Y-60590380D01*
X54719428Y-60542761D01*
X54671809Y-60447523D01*
X54671809Y-60352285D01*
X54719428Y-60257047D01*
X54814666Y-60209428D01*
X55052761Y-60209428D01*
X55147999Y-60161809D01*
X56052761Y-60590380D02*
X56052761Y-59590380D01*
X56052761Y-60542761D02*
X55957523Y-60590380D01*
X55767047Y-60590380D01*
X55671809Y-60542761D01*
X55624190Y-60495142D01*
X55576571Y-60399904D01*
X55576571Y-60114190D01*
X55624190Y-60018952D01*
X55671809Y-59971333D01*
X55767047Y-59923714D01*
X55957523Y-59923714D01*
X56052761Y-59971333D01*
X40114666Y-56840380D02*
X39781333Y-56364190D01*
X39543238Y-56840380D02*
X39543238Y-55840380D01*
X39924190Y-55840380D01*
X40019428Y-55888000D01*
X40067047Y-55935619D01*
X40114666Y-56030857D01*
X40114666Y-56173714D01*
X40067047Y-56268952D01*
X40019428Y-56316571D01*
X39924190Y-56364190D01*
X39543238Y-56364190D01*
X40543238Y-56316571D02*
X40876571Y-56316571D01*
X41019428Y-56840380D02*
X40543238Y-56840380D01*
X40543238Y-55840380D01*
X41019428Y-55840380D01*
X41781333Y-56316571D02*
X41448000Y-56316571D01*
X41448000Y-56840380D02*
X41448000Y-55840380D01*
X41924190Y-55840380D01*
X42448000Y-55840380D02*
X42448000Y-56078476D01*
X42209904Y-55983238D02*
X42448000Y-56078476D01*
X42686095Y-55983238D01*
X42305142Y-56268952D02*
X42448000Y-56078476D01*
X42590857Y-56268952D01*
X43209904Y-55840380D02*
X43209904Y-56078476D01*
X42971809Y-55983238D02*
X43209904Y-56078476D01*
X43448000Y-55983238D01*
X43067047Y-56268952D02*
X43209904Y-56078476D01*
X43352761Y-56268952D01*
G04 #@! TO.C,R1*
X89034952Y-77330380D02*
X88463523Y-77330380D01*
X88749238Y-77330380D02*
X88749238Y-76330380D01*
X88654000Y-76473238D01*
X88558761Y-76568476D01*
X88463523Y-76616095D01*
X89463523Y-77330380D02*
X89463523Y-76330380D01*
X89558761Y-76949428D02*
X89844476Y-77330380D01*
X89844476Y-76663714D02*
X89463523Y-77044666D01*
X88987333Y-82070380D02*
X88654000Y-81594190D01*
X88415904Y-82070380D02*
X88415904Y-81070380D01*
X88796857Y-81070380D01*
X88892095Y-81118000D01*
X88939714Y-81165619D01*
X88987333Y-81260857D01*
X88987333Y-81403714D01*
X88939714Y-81498952D01*
X88892095Y-81546571D01*
X88796857Y-81594190D01*
X88415904Y-81594190D01*
X89939714Y-82070380D02*
X89368285Y-82070380D01*
X89654000Y-82070380D02*
X89654000Y-81070380D01*
X89558761Y-81213238D01*
X89463523Y-81308476D01*
X89368285Y-81356095D01*
G04 #@! TD*
M02*
