G04 #@! TF.GenerationSoftware,KiCad,Pcbnew,5.0.2-bee76a0~70~ubuntu18.04.1*
G04 #@! TF.CreationDate,2019-05-08T10:40:33+01:00*
G04 #@! TF.ProjectId,lm2596_cc_vc,6c6d3235-3936-45f6-9363-5f76632e6b69,rev?*
G04 #@! TF.SameCoordinates,Original*
G04 #@! TF.FileFunction,Legend,Top*
G04 #@! TF.FilePolarity,Positive*
%FSLAX46Y46*%
G04 Gerber Fmt 4.6, Leading zero omitted, Abs format (unit mm)*
G04 Created by KiCad (PCBNEW 5.0.2-bee76a0~70~ubuntu18.04.1) date Wed 08 May 2019 10:40:33 BST*
%MOMM*%
%LPD*%
G01*
G04 APERTURE LIST*
%ADD10C,0.120000*%
%ADD11C,0.150000*%
G04 APERTURE END LIST*
D10*
G04 #@! TO.C,C2*
X61395000Y-93264646D02*
X62395000Y-93264646D01*
X61895000Y-93764646D02*
X61895000Y-92764646D01*
X64171000Y-83204000D02*
X65369000Y-83204000D01*
X63908000Y-83244000D02*
X65632000Y-83244000D01*
X63708000Y-83284000D02*
X65832000Y-83284000D01*
X63540000Y-83324000D02*
X66000000Y-83324000D01*
X63392000Y-83364000D02*
X66148000Y-83364000D01*
X63260000Y-83404000D02*
X66280000Y-83404000D01*
X63140000Y-83444000D02*
X66400000Y-83444000D01*
X63028000Y-83484000D02*
X66512000Y-83484000D01*
X62924000Y-83524000D02*
X66616000Y-83524000D01*
X62826000Y-83564000D02*
X66714000Y-83564000D01*
X62733000Y-83604000D02*
X66807000Y-83604000D01*
X62645000Y-83644000D02*
X66895000Y-83644000D01*
X62561000Y-83684000D02*
X66979000Y-83684000D01*
X62481000Y-83724000D02*
X67059000Y-83724000D01*
X62405000Y-83764000D02*
X67135000Y-83764000D01*
X62331000Y-83804000D02*
X67209000Y-83804000D01*
X62260000Y-83844000D02*
X67280000Y-83844000D01*
X62191000Y-83884000D02*
X67349000Y-83884000D01*
X62125000Y-83924000D02*
X67415000Y-83924000D01*
X62061000Y-83964000D02*
X67479000Y-83964000D01*
X62000000Y-84004000D02*
X67540000Y-84004000D01*
X61940000Y-84044000D02*
X67600000Y-84044000D01*
X61881000Y-84084000D02*
X67659000Y-84084000D01*
X61825000Y-84124000D02*
X67715000Y-84124000D01*
X61770000Y-84164000D02*
X67770000Y-84164000D01*
X61716000Y-84204000D02*
X67824000Y-84204000D01*
X61664000Y-84244000D02*
X67876000Y-84244000D01*
X61614000Y-84284000D02*
X67926000Y-84284000D01*
X61564000Y-84324000D02*
X67976000Y-84324000D01*
X61516000Y-84364000D02*
X68024000Y-84364000D01*
X61469000Y-84404000D02*
X68071000Y-84404000D01*
X61423000Y-84444000D02*
X68117000Y-84444000D01*
X61378000Y-84484000D02*
X68162000Y-84484000D01*
X61334000Y-84524000D02*
X68206000Y-84524000D01*
X61292000Y-84564000D02*
X68248000Y-84564000D01*
X61250000Y-84604000D02*
X68290000Y-84604000D01*
X61209000Y-84644000D02*
X68331000Y-84644000D01*
X61169000Y-84684000D02*
X68371000Y-84684000D01*
X61130000Y-84724000D02*
X68410000Y-84724000D01*
X61091000Y-84764000D02*
X68449000Y-84764000D01*
X61054000Y-84804000D02*
X68486000Y-84804000D01*
X61017000Y-84844000D02*
X68523000Y-84844000D01*
X60981000Y-84884000D02*
X68559000Y-84884000D01*
X60946000Y-84924000D02*
X68594000Y-84924000D01*
X60912000Y-84964000D02*
X68628000Y-84964000D01*
X60878000Y-85004000D02*
X68662000Y-85004000D01*
X60845000Y-85044000D02*
X68695000Y-85044000D01*
X60813000Y-85084000D02*
X68727000Y-85084000D01*
X60781000Y-85124000D02*
X68759000Y-85124000D01*
X60750000Y-85164000D02*
X68790000Y-85164000D01*
X60720000Y-85204000D02*
X68820000Y-85204000D01*
X60690000Y-85244000D02*
X68850000Y-85244000D01*
X60660000Y-85284000D02*
X68880000Y-85284000D01*
X67410000Y-85324000D02*
X68908000Y-85324000D01*
X60632000Y-85324000D02*
X65330000Y-85324000D01*
X67410000Y-85364000D02*
X68936000Y-85364000D01*
X60604000Y-85364000D02*
X65330000Y-85364000D01*
X67410000Y-85404000D02*
X68964000Y-85404000D01*
X60576000Y-85404000D02*
X65330000Y-85404000D01*
X67410000Y-85444000D02*
X68991000Y-85444000D01*
X60549000Y-85444000D02*
X65330000Y-85444000D01*
X67410000Y-85484000D02*
X69017000Y-85484000D01*
X60523000Y-85484000D02*
X65330000Y-85484000D01*
X67410000Y-85524000D02*
X69043000Y-85524000D01*
X60497000Y-85524000D02*
X65330000Y-85524000D01*
X67410000Y-85564000D02*
X69068000Y-85564000D01*
X60472000Y-85564000D02*
X65330000Y-85564000D01*
X67410000Y-85604000D02*
X69093000Y-85604000D01*
X60447000Y-85604000D02*
X65330000Y-85604000D01*
X67410000Y-85644000D02*
X69117000Y-85644000D01*
X60423000Y-85644000D02*
X65330000Y-85644000D01*
X67410000Y-85684000D02*
X69141000Y-85684000D01*
X60399000Y-85684000D02*
X65330000Y-85684000D01*
X67410000Y-85724000D02*
X69165000Y-85724000D01*
X60375000Y-85724000D02*
X65330000Y-85724000D01*
X67410000Y-85764000D02*
X69187000Y-85764000D01*
X60353000Y-85764000D02*
X65330000Y-85764000D01*
X67410000Y-85804000D02*
X69210000Y-85804000D01*
X60330000Y-85804000D02*
X65330000Y-85804000D01*
X67410000Y-85844000D02*
X69232000Y-85844000D01*
X60308000Y-85844000D02*
X65330000Y-85844000D01*
X67410000Y-85884000D02*
X69253000Y-85884000D01*
X60287000Y-85884000D02*
X65330000Y-85884000D01*
X67410000Y-85924000D02*
X69274000Y-85924000D01*
X60266000Y-85924000D02*
X65330000Y-85924000D01*
X67410000Y-85964000D02*
X69295000Y-85964000D01*
X60245000Y-85964000D02*
X65330000Y-85964000D01*
X67410000Y-86004000D02*
X69315000Y-86004000D01*
X60225000Y-86004000D02*
X63730000Y-86004000D01*
X67410000Y-86044000D02*
X69334000Y-86044000D01*
X60206000Y-86044000D02*
X63730000Y-86044000D01*
X67410000Y-86084000D02*
X69354000Y-86084000D01*
X60186000Y-86084000D02*
X63730000Y-86084000D01*
X67410000Y-86124000D02*
X69373000Y-86124000D01*
X60167000Y-86124000D02*
X63730000Y-86124000D01*
X67410000Y-86164000D02*
X69391000Y-86164000D01*
X60149000Y-86164000D02*
X63730000Y-86164000D01*
X67410000Y-86204000D02*
X69409000Y-86204000D01*
X60131000Y-86204000D02*
X63730000Y-86204000D01*
X67410000Y-86244000D02*
X69427000Y-86244000D01*
X60113000Y-86244000D02*
X63730000Y-86244000D01*
X67410000Y-86284000D02*
X69444000Y-86284000D01*
X60096000Y-86284000D02*
X63730000Y-86284000D01*
X67410000Y-86324000D02*
X69460000Y-86324000D01*
X60080000Y-86324000D02*
X63730000Y-86324000D01*
X67410000Y-86364000D02*
X69477000Y-86364000D01*
X60063000Y-86364000D02*
X63730000Y-86364000D01*
X67410000Y-86404000D02*
X69493000Y-86404000D01*
X60047000Y-86404000D02*
X63730000Y-86404000D01*
X67410000Y-86444000D02*
X69508000Y-86444000D01*
X60032000Y-86444000D02*
X63730000Y-86444000D01*
X67410000Y-86484000D02*
X69524000Y-86484000D01*
X60016000Y-86484000D02*
X63730000Y-86484000D01*
X67410000Y-86524000D02*
X69538000Y-86524000D01*
X60002000Y-86524000D02*
X63730000Y-86524000D01*
X67410000Y-86564000D02*
X69553000Y-86564000D01*
X59987000Y-86564000D02*
X63730000Y-86564000D01*
X67410000Y-86604000D02*
X69567000Y-86604000D01*
X59973000Y-86604000D02*
X63730000Y-86604000D01*
X67410000Y-86644000D02*
X69581000Y-86644000D01*
X59959000Y-86644000D02*
X63730000Y-86644000D01*
X67410000Y-86684000D02*
X69594000Y-86684000D01*
X59946000Y-86684000D02*
X63730000Y-86684000D01*
X67410000Y-86724000D02*
X69607000Y-86724000D01*
X59933000Y-86724000D02*
X63730000Y-86724000D01*
X67410000Y-86764000D02*
X69620000Y-86764000D01*
X59920000Y-86764000D02*
X63730000Y-86764000D01*
X67410000Y-86804000D02*
X69632000Y-86804000D01*
X59908000Y-86804000D02*
X63730000Y-86804000D01*
X67410000Y-86844000D02*
X69644000Y-86844000D01*
X59896000Y-86844000D02*
X63730000Y-86844000D01*
X67410000Y-86884000D02*
X69655000Y-86884000D01*
X59885000Y-86884000D02*
X63730000Y-86884000D01*
X67410000Y-86924000D02*
X69667000Y-86924000D01*
X59873000Y-86924000D02*
X63730000Y-86924000D01*
X67410000Y-86964000D02*
X69677000Y-86964000D01*
X59863000Y-86964000D02*
X63730000Y-86964000D01*
X67410000Y-87004000D02*
X69688000Y-87004000D01*
X59852000Y-87004000D02*
X63730000Y-87004000D01*
X67410000Y-87044000D02*
X69698000Y-87044000D01*
X59842000Y-87044000D02*
X63730000Y-87044000D01*
X67410000Y-87084000D02*
X69708000Y-87084000D01*
X59832000Y-87084000D02*
X63730000Y-87084000D01*
X67410000Y-87124000D02*
X69717000Y-87124000D01*
X59823000Y-87124000D02*
X63730000Y-87124000D01*
X67410000Y-87164000D02*
X69726000Y-87164000D01*
X59814000Y-87164000D02*
X63730000Y-87164000D01*
X67410000Y-87204000D02*
X69735000Y-87204000D01*
X59805000Y-87204000D02*
X63730000Y-87204000D01*
X67410000Y-87244000D02*
X69744000Y-87244000D01*
X59796000Y-87244000D02*
X63730000Y-87244000D01*
X67410000Y-87284000D02*
X69752000Y-87284000D01*
X59788000Y-87284000D02*
X63730000Y-87284000D01*
X67410000Y-87324000D02*
X69760000Y-87324000D01*
X59780000Y-87324000D02*
X63730000Y-87324000D01*
X67410000Y-87364000D02*
X69767000Y-87364000D01*
X59773000Y-87364000D02*
X63730000Y-87364000D01*
X65810000Y-87404000D02*
X69774000Y-87404000D01*
X59766000Y-87404000D02*
X63730000Y-87404000D01*
X65810000Y-87444000D02*
X69781000Y-87444000D01*
X59759000Y-87444000D02*
X63730000Y-87444000D01*
X65810000Y-87484000D02*
X69788000Y-87484000D01*
X59752000Y-87484000D02*
X63730000Y-87484000D01*
X65810000Y-87524000D02*
X69794000Y-87524000D01*
X59746000Y-87524000D02*
X63730000Y-87524000D01*
X65810000Y-87564000D02*
X69800000Y-87564000D01*
X59740000Y-87564000D02*
X63730000Y-87564000D01*
X65810000Y-87605000D02*
X69805000Y-87605000D01*
X59735000Y-87605000D02*
X63730000Y-87605000D01*
X65810000Y-87645000D02*
X69810000Y-87645000D01*
X59730000Y-87645000D02*
X63730000Y-87645000D01*
X65810000Y-87685000D02*
X69815000Y-87685000D01*
X59725000Y-87685000D02*
X63730000Y-87685000D01*
X65810000Y-87725000D02*
X69820000Y-87725000D01*
X59720000Y-87725000D02*
X63730000Y-87725000D01*
X65810000Y-87765000D02*
X69824000Y-87765000D01*
X59716000Y-87765000D02*
X63730000Y-87765000D01*
X65810000Y-87805000D02*
X69828000Y-87805000D01*
X59712000Y-87805000D02*
X63730000Y-87805000D01*
X65810000Y-87845000D02*
X69832000Y-87845000D01*
X59708000Y-87845000D02*
X63730000Y-87845000D01*
X65810000Y-87885000D02*
X69835000Y-87885000D01*
X59705000Y-87885000D02*
X63730000Y-87885000D01*
X65810000Y-87925000D02*
X69838000Y-87925000D01*
X59702000Y-87925000D02*
X63730000Y-87925000D01*
X65810000Y-87965000D02*
X69840000Y-87965000D01*
X59700000Y-87965000D02*
X63730000Y-87965000D01*
X65810000Y-88005000D02*
X69843000Y-88005000D01*
X59697000Y-88005000D02*
X63730000Y-88005000D01*
X65810000Y-88045000D02*
X69845000Y-88045000D01*
X59695000Y-88045000D02*
X63730000Y-88045000D01*
X59693000Y-88085000D02*
X69847000Y-88085000D01*
X59692000Y-88125000D02*
X69848000Y-88125000D01*
X59691000Y-88165000D02*
X69849000Y-88165000D01*
X59690000Y-88205000D02*
X69850000Y-88205000D01*
X59690000Y-88245000D02*
X69850000Y-88245000D01*
X59690000Y-88285000D02*
X69850000Y-88285000D01*
X69890000Y-88285000D02*
G75*
G03X69890000Y-88285000I-5120000J0D01*
G01*
G04 #@! TO.C,C4*
X84094000Y-89916000D02*
G75*
G03X84094000Y-89916000I-5120000J0D01*
G01*
X78974000Y-84836000D02*
X78974000Y-94996000D01*
X79014000Y-84836000D02*
X79014000Y-94996000D01*
X79054000Y-84836000D02*
X79054000Y-94996000D01*
X79094000Y-84837000D02*
X79094000Y-94995000D01*
X79134000Y-84838000D02*
X79134000Y-94994000D01*
X79174000Y-84839000D02*
X79174000Y-94993000D01*
X79214000Y-84841000D02*
X79214000Y-88876000D01*
X79214000Y-90956000D02*
X79214000Y-94991000D01*
X79254000Y-84843000D02*
X79254000Y-88876000D01*
X79254000Y-90956000D02*
X79254000Y-94989000D01*
X79294000Y-84846000D02*
X79294000Y-88876000D01*
X79294000Y-90956000D02*
X79294000Y-94986000D01*
X79334000Y-84848000D02*
X79334000Y-88876000D01*
X79334000Y-90956000D02*
X79334000Y-94984000D01*
X79374000Y-84851000D02*
X79374000Y-88876000D01*
X79374000Y-90956000D02*
X79374000Y-94981000D01*
X79414000Y-84854000D02*
X79414000Y-88876000D01*
X79414000Y-90956000D02*
X79414000Y-94978000D01*
X79454000Y-84858000D02*
X79454000Y-88876000D01*
X79454000Y-90956000D02*
X79454000Y-94974000D01*
X79494000Y-84862000D02*
X79494000Y-88876000D01*
X79494000Y-90956000D02*
X79494000Y-94970000D01*
X79534000Y-84866000D02*
X79534000Y-88876000D01*
X79534000Y-90956000D02*
X79534000Y-94966000D01*
X79574000Y-84871000D02*
X79574000Y-88876000D01*
X79574000Y-90956000D02*
X79574000Y-94961000D01*
X79614000Y-84876000D02*
X79614000Y-88876000D01*
X79614000Y-90956000D02*
X79614000Y-94956000D01*
X79654000Y-84881000D02*
X79654000Y-88876000D01*
X79654000Y-90956000D02*
X79654000Y-94951000D01*
X79695000Y-84886000D02*
X79695000Y-88876000D01*
X79695000Y-90956000D02*
X79695000Y-94946000D01*
X79735000Y-84892000D02*
X79735000Y-88876000D01*
X79735000Y-90956000D02*
X79735000Y-94940000D01*
X79775000Y-84898000D02*
X79775000Y-88876000D01*
X79775000Y-90956000D02*
X79775000Y-94934000D01*
X79815000Y-84905000D02*
X79815000Y-88876000D01*
X79815000Y-90956000D02*
X79815000Y-94927000D01*
X79855000Y-84912000D02*
X79855000Y-88876000D01*
X79855000Y-90956000D02*
X79855000Y-94920000D01*
X79895000Y-84919000D02*
X79895000Y-88876000D01*
X79895000Y-92556000D02*
X79895000Y-94913000D01*
X79935000Y-84926000D02*
X79935000Y-88876000D01*
X79935000Y-92556000D02*
X79935000Y-94906000D01*
X79975000Y-84934000D02*
X79975000Y-88876000D01*
X79975000Y-92556000D02*
X79975000Y-94898000D01*
X80015000Y-84942000D02*
X80015000Y-88876000D01*
X80015000Y-92556000D02*
X80015000Y-94890000D01*
X80055000Y-84951000D02*
X80055000Y-88876000D01*
X80055000Y-92556000D02*
X80055000Y-94881000D01*
X80095000Y-84960000D02*
X80095000Y-88876000D01*
X80095000Y-92556000D02*
X80095000Y-94872000D01*
X80135000Y-84969000D02*
X80135000Y-88876000D01*
X80135000Y-92556000D02*
X80135000Y-94863000D01*
X80175000Y-84978000D02*
X80175000Y-88876000D01*
X80175000Y-92556000D02*
X80175000Y-94854000D01*
X80215000Y-84988000D02*
X80215000Y-88876000D01*
X80215000Y-92556000D02*
X80215000Y-94844000D01*
X80255000Y-84998000D02*
X80255000Y-88876000D01*
X80255000Y-92556000D02*
X80255000Y-94834000D01*
X80295000Y-85009000D02*
X80295000Y-88876000D01*
X80295000Y-92556000D02*
X80295000Y-94823000D01*
X80335000Y-85019000D02*
X80335000Y-88876000D01*
X80335000Y-92556000D02*
X80335000Y-94813000D01*
X80375000Y-85031000D02*
X80375000Y-88876000D01*
X80375000Y-92556000D02*
X80375000Y-94801000D01*
X80415000Y-85042000D02*
X80415000Y-88876000D01*
X80415000Y-92556000D02*
X80415000Y-94790000D01*
X80455000Y-85054000D02*
X80455000Y-88876000D01*
X80455000Y-92556000D02*
X80455000Y-94778000D01*
X80495000Y-85066000D02*
X80495000Y-88876000D01*
X80495000Y-92556000D02*
X80495000Y-94766000D01*
X80535000Y-85079000D02*
X80535000Y-88876000D01*
X80535000Y-92556000D02*
X80535000Y-94753000D01*
X80575000Y-85092000D02*
X80575000Y-88876000D01*
X80575000Y-92556000D02*
X80575000Y-94740000D01*
X80615000Y-85105000D02*
X80615000Y-88876000D01*
X80615000Y-92556000D02*
X80615000Y-94727000D01*
X80655000Y-85119000D02*
X80655000Y-88876000D01*
X80655000Y-92556000D02*
X80655000Y-94713000D01*
X80695000Y-85133000D02*
X80695000Y-88876000D01*
X80695000Y-92556000D02*
X80695000Y-94699000D01*
X80735000Y-85148000D02*
X80735000Y-88876000D01*
X80735000Y-92556000D02*
X80735000Y-94684000D01*
X80775000Y-85162000D02*
X80775000Y-88876000D01*
X80775000Y-92556000D02*
X80775000Y-94670000D01*
X80815000Y-85178000D02*
X80815000Y-88876000D01*
X80815000Y-92556000D02*
X80815000Y-94654000D01*
X80855000Y-85193000D02*
X80855000Y-88876000D01*
X80855000Y-92556000D02*
X80855000Y-94639000D01*
X80895000Y-85209000D02*
X80895000Y-88876000D01*
X80895000Y-92556000D02*
X80895000Y-94623000D01*
X80935000Y-85226000D02*
X80935000Y-88876000D01*
X80935000Y-92556000D02*
X80935000Y-94606000D01*
X80975000Y-85242000D02*
X80975000Y-88876000D01*
X80975000Y-92556000D02*
X80975000Y-94590000D01*
X81015000Y-85259000D02*
X81015000Y-88876000D01*
X81015000Y-92556000D02*
X81015000Y-94573000D01*
X81055000Y-85277000D02*
X81055000Y-88876000D01*
X81055000Y-92556000D02*
X81055000Y-94555000D01*
X81095000Y-85295000D02*
X81095000Y-88876000D01*
X81095000Y-92556000D02*
X81095000Y-94537000D01*
X81135000Y-85313000D02*
X81135000Y-88876000D01*
X81135000Y-92556000D02*
X81135000Y-94519000D01*
X81175000Y-85332000D02*
X81175000Y-88876000D01*
X81175000Y-92556000D02*
X81175000Y-94500000D01*
X81215000Y-85352000D02*
X81215000Y-88876000D01*
X81215000Y-92556000D02*
X81215000Y-94480000D01*
X81255000Y-85371000D02*
X81255000Y-88876000D01*
X81255000Y-92556000D02*
X81255000Y-94461000D01*
X81295000Y-85391000D02*
X81295000Y-90476000D01*
X81295000Y-92556000D02*
X81295000Y-94441000D01*
X81335000Y-85412000D02*
X81335000Y-90476000D01*
X81335000Y-92556000D02*
X81335000Y-94420000D01*
X81375000Y-85433000D02*
X81375000Y-90476000D01*
X81375000Y-92556000D02*
X81375000Y-94399000D01*
X81415000Y-85454000D02*
X81415000Y-90476000D01*
X81415000Y-92556000D02*
X81415000Y-94378000D01*
X81455000Y-85476000D02*
X81455000Y-90476000D01*
X81455000Y-92556000D02*
X81455000Y-94356000D01*
X81495000Y-85499000D02*
X81495000Y-90476000D01*
X81495000Y-92556000D02*
X81495000Y-94333000D01*
X81535000Y-85521000D02*
X81535000Y-90476000D01*
X81535000Y-92556000D02*
X81535000Y-94311000D01*
X81575000Y-85545000D02*
X81575000Y-90476000D01*
X81575000Y-92556000D02*
X81575000Y-94287000D01*
X81615000Y-85569000D02*
X81615000Y-90476000D01*
X81615000Y-92556000D02*
X81615000Y-94263000D01*
X81655000Y-85593000D02*
X81655000Y-90476000D01*
X81655000Y-92556000D02*
X81655000Y-94239000D01*
X81695000Y-85618000D02*
X81695000Y-90476000D01*
X81695000Y-92556000D02*
X81695000Y-94214000D01*
X81735000Y-85643000D02*
X81735000Y-90476000D01*
X81735000Y-92556000D02*
X81735000Y-94189000D01*
X81775000Y-85669000D02*
X81775000Y-90476000D01*
X81775000Y-92556000D02*
X81775000Y-94163000D01*
X81815000Y-85695000D02*
X81815000Y-90476000D01*
X81815000Y-92556000D02*
X81815000Y-94137000D01*
X81855000Y-85722000D02*
X81855000Y-90476000D01*
X81855000Y-92556000D02*
X81855000Y-94110000D01*
X81895000Y-85750000D02*
X81895000Y-90476000D01*
X81895000Y-92556000D02*
X81895000Y-94082000D01*
X81935000Y-85778000D02*
X81935000Y-90476000D01*
X81935000Y-92556000D02*
X81935000Y-94054000D01*
X81975000Y-85806000D02*
X81975000Y-94026000D01*
X82015000Y-85836000D02*
X82015000Y-93996000D01*
X82055000Y-85866000D02*
X82055000Y-93966000D01*
X82095000Y-85896000D02*
X82095000Y-93936000D01*
X82135000Y-85927000D02*
X82135000Y-93905000D01*
X82175000Y-85959000D02*
X82175000Y-93873000D01*
X82215000Y-85991000D02*
X82215000Y-93841000D01*
X82255000Y-86024000D02*
X82255000Y-93808000D01*
X82295000Y-86058000D02*
X82295000Y-93774000D01*
X82335000Y-86092000D02*
X82335000Y-93740000D01*
X82375000Y-86127000D02*
X82375000Y-93705000D01*
X82415000Y-86163000D02*
X82415000Y-93669000D01*
X82455000Y-86200000D02*
X82455000Y-93632000D01*
X82495000Y-86237000D02*
X82495000Y-93595000D01*
X82535000Y-86276000D02*
X82535000Y-93556000D01*
X82575000Y-86315000D02*
X82575000Y-93517000D01*
X82615000Y-86355000D02*
X82615000Y-93477000D01*
X82655000Y-86396000D02*
X82655000Y-93436000D01*
X82695000Y-86438000D02*
X82695000Y-93394000D01*
X82735000Y-86480000D02*
X82735000Y-93352000D01*
X82775000Y-86524000D02*
X82775000Y-93308000D01*
X82815000Y-86569000D02*
X82815000Y-93263000D01*
X82855000Y-86615000D02*
X82855000Y-93217000D01*
X82895000Y-86662000D02*
X82895000Y-93170000D01*
X82935000Y-86710000D02*
X82935000Y-93122000D01*
X82975000Y-86760000D02*
X82975000Y-93072000D01*
X83015000Y-86810000D02*
X83015000Y-93022000D01*
X83055000Y-86862000D02*
X83055000Y-92970000D01*
X83095000Y-86916000D02*
X83095000Y-92916000D01*
X83135000Y-86971000D02*
X83135000Y-92861000D01*
X83175000Y-87027000D02*
X83175000Y-92805000D01*
X83215000Y-87086000D02*
X83215000Y-92746000D01*
X83255000Y-87146000D02*
X83255000Y-92686000D01*
X83295000Y-87207000D02*
X83295000Y-92625000D01*
X83335000Y-87271000D02*
X83335000Y-92561000D01*
X83375000Y-87337000D02*
X83375000Y-92495000D01*
X83415000Y-87406000D02*
X83415000Y-92426000D01*
X83455000Y-87477000D02*
X83455000Y-92355000D01*
X83495000Y-87551000D02*
X83495000Y-92281000D01*
X83535000Y-87627000D02*
X83535000Y-92205000D01*
X83575000Y-87707000D02*
X83575000Y-92125000D01*
X83615000Y-87791000D02*
X83615000Y-92041000D01*
X83655000Y-87879000D02*
X83655000Y-91953000D01*
X83695000Y-87972000D02*
X83695000Y-91860000D01*
X83735000Y-88070000D02*
X83735000Y-91762000D01*
X83775000Y-88174000D02*
X83775000Y-91658000D01*
X83815000Y-88286000D02*
X83815000Y-91546000D01*
X83855000Y-88406000D02*
X83855000Y-91426000D01*
X83895000Y-88538000D02*
X83895000Y-91294000D01*
X83935000Y-88686000D02*
X83935000Y-91146000D01*
X83975000Y-88854000D02*
X83975000Y-90978000D01*
X84015000Y-89054000D02*
X84015000Y-90778000D01*
X84055000Y-89317000D02*
X84055000Y-90515000D01*
X73494354Y-87041000D02*
X74494354Y-87041000D01*
X73994354Y-86541000D02*
X73994354Y-87541000D01*
G04 #@! TO.C,D2*
X91523000Y-93292000D02*
X91523000Y-98732000D01*
X91523000Y-98732000D02*
X101263000Y-98732000D01*
X101263000Y-98732000D02*
X101263000Y-93292000D01*
X101263000Y-93292000D02*
X91523000Y-93292000D01*
X90613000Y-96012000D02*
X91523000Y-96012000D01*
X102173000Y-96012000D02*
X101263000Y-96012000D01*
X93068000Y-93292000D02*
X93068000Y-98732000D01*
X93188000Y-93292000D02*
X93188000Y-98732000D01*
X92948000Y-93292000D02*
X92948000Y-98732000D01*
G04 #@! TO.C,J2*
X45085000Y-113545000D02*
X45085000Y-98545000D01*
X45085000Y-98545000D02*
X60085000Y-98545000D01*
X60085000Y-98545000D02*
X60085000Y-113545000D01*
X60085000Y-113545000D02*
X45085000Y-113545000D01*
X45285000Y-106045000D02*
X46285000Y-107045000D01*
X45285000Y-106045000D02*
X46285000Y-105045000D01*
G04 #@! TO.C,J3*
X68005000Y-101540000D02*
X65345000Y-101540000D01*
X68005000Y-106680000D02*
X68005000Y-101540000D01*
X65345000Y-106680000D02*
X65345000Y-101540000D01*
X68005000Y-106680000D02*
X65345000Y-106680000D01*
X68005000Y-107950000D02*
X68005000Y-109280000D01*
X68005000Y-109280000D02*
X66675000Y-109280000D01*
G04 #@! TO.C,L2*
X93786000Y-83594000D02*
G75*
G03X93786000Y-83594000I-3870000J0D01*
G01*
G04 #@! TO.C,R4*
X78772000Y-69699000D02*
X78772000Y-69369000D01*
X78772000Y-69369000D02*
X85312000Y-69369000D01*
X85312000Y-69369000D02*
X85312000Y-69699000D01*
X78772000Y-71779000D02*
X78772000Y-72109000D01*
X78772000Y-72109000D02*
X85312000Y-72109000D01*
X85312000Y-72109000D02*
X85312000Y-71779000D01*
G04 #@! TO.C,RV1*
X113959000Y-103580000D02*
X113959000Y-105276000D01*
X113959000Y-99035000D02*
X113959000Y-100730000D01*
X108718000Y-99035000D02*
X108718000Y-105276000D01*
X108718000Y-105276000D02*
X113959000Y-105276000D01*
X108718000Y-99035000D02*
X113959000Y-99035000D01*
X108718000Y-98581000D02*
X108718000Y-105730000D01*
X108718000Y-94535000D02*
X108718000Y-95729000D01*
X108718000Y-108580000D02*
X108718000Y-109775000D01*
X113959000Y-103580000D02*
X113959000Y-109775000D01*
X113959000Y-94535000D02*
X113959000Y-100730000D01*
X108718000Y-109775000D02*
X113959000Y-109775000D01*
X108718000Y-94535000D02*
X113959000Y-94535000D01*
G04 #@! TO.C,RV2*
X88947000Y-75432000D02*
X88947000Y-70191000D01*
X104187000Y-75432000D02*
X104187000Y-70191000D01*
X88947000Y-70191000D02*
X95142000Y-70191000D01*
X97992000Y-70191000D02*
X104187000Y-70191000D01*
X102992000Y-75432000D02*
X104187000Y-75432000D01*
X88947000Y-75432000D02*
X90141000Y-75432000D01*
X92993000Y-75432000D02*
X100142000Y-75432000D01*
X93447000Y-75432000D02*
X93447000Y-70191000D01*
X99688000Y-75432000D02*
X99688000Y-70191000D01*
X93447000Y-75432000D02*
X99688000Y-75432000D01*
X93447000Y-70191000D02*
X95142000Y-70191000D01*
X97992000Y-70191000D02*
X99688000Y-70191000D01*
G04 #@! TO.C,U2*
X68395000Y-73791000D02*
X68395000Y-76405000D01*
X64995000Y-73791000D02*
X64995000Y-76405000D01*
X61595000Y-73791000D02*
X61595000Y-76421000D01*
X66845000Y-69150000D02*
X66845000Y-70659000D01*
X63145000Y-69150000D02*
X63145000Y-70659000D01*
X59874000Y-70659000D02*
X70115000Y-70659000D01*
X70115000Y-69150000D02*
X70115000Y-73791000D01*
X59874000Y-69150000D02*
X59874000Y-73791000D01*
X67760000Y-73791000D02*
X70115000Y-73791000D01*
X64360000Y-73791000D02*
X65630000Y-73791000D01*
X59874000Y-73791000D02*
X62230000Y-73791000D01*
X59874000Y-69150000D02*
X70115000Y-69150000D01*
G04 #@! TO.C,J1*
X45008000Y-91550000D02*
X57608000Y-91550000D01*
X57608000Y-91550000D02*
X57608000Y-81200000D01*
X57608000Y-81200000D02*
X56658000Y-81200000D01*
X56658000Y-81200000D02*
X56908000Y-80700000D01*
X56908000Y-80700000D02*
X55008000Y-80700000D01*
X55008000Y-80700000D02*
X54958000Y-80700000D01*
X54958000Y-80700000D02*
X55208000Y-81200000D01*
X55208000Y-81200000D02*
X49808000Y-81200000D01*
X49808000Y-81200000D02*
X50108000Y-80700000D01*
X50108000Y-80700000D02*
X45008000Y-80700000D01*
X45008000Y-80700000D02*
X45008000Y-91550000D01*
G04 #@! TO.C,J4*
X116536000Y-91639000D02*
X116536000Y-80789000D01*
X111436000Y-91639000D02*
X116536000Y-91639000D01*
X111736000Y-91139000D02*
X111436000Y-91639000D01*
X106336000Y-91139000D02*
X111736000Y-91139000D01*
X106586000Y-91639000D02*
X106336000Y-91139000D01*
X106536000Y-91639000D02*
X106586000Y-91639000D01*
X104636000Y-91639000D02*
X106536000Y-91639000D01*
X104886000Y-91139000D02*
X104636000Y-91639000D01*
X103936000Y-91139000D02*
X104886000Y-91139000D01*
X103936000Y-80789000D02*
X103936000Y-91139000D01*
X116536000Y-80789000D02*
X103936000Y-80789000D01*
D11*
G04 #@! TO.C,Q1*
X84920000Y-100803000D02*
X84920000Y-100853000D01*
X89070000Y-100803000D02*
X89070000Y-100948000D01*
X89070000Y-105953000D02*
X89070000Y-105808000D01*
X84920000Y-105953000D02*
X84920000Y-105808000D01*
X84920000Y-100803000D02*
X89070000Y-100803000D01*
X84920000Y-105953000D02*
X89070000Y-105953000D01*
X84920000Y-100853000D02*
X83520000Y-100853000D01*
D10*
G04 #@! TO.C,Q2*
X80270000Y-98889000D02*
X79870000Y-98889000D01*
X80270000Y-105489000D02*
X80270000Y-98889000D01*
X74670000Y-105089000D02*
X74670000Y-99889000D01*
G04 #@! TO.C,R1*
X92940000Y-110744000D02*
X92250000Y-110744000D01*
X82320000Y-110744000D02*
X83010000Y-110744000D01*
X92250000Y-109024000D02*
X83010000Y-109024000D01*
X92250000Y-112464000D02*
X92250000Y-109024000D01*
X83010000Y-112464000D02*
X92250000Y-112464000D01*
X83010000Y-109024000D02*
X83010000Y-112464000D01*
G04 #@! TO.C,R2*
X92377000Y-120084000D02*
X92377000Y-116644000D01*
X92377000Y-116644000D02*
X83137000Y-116644000D01*
X83137000Y-116644000D02*
X83137000Y-120084000D01*
X83137000Y-120084000D02*
X92377000Y-120084000D01*
X93067000Y-118364000D02*
X92377000Y-118364000D01*
X82447000Y-118364000D02*
X83137000Y-118364000D01*
G04 #@! TO.C,R3*
X113157000Y-114451000D02*
X113157000Y-115141000D01*
X113157000Y-125071000D02*
X113157000Y-124381000D01*
X111437000Y-115141000D02*
X111437000Y-124381000D01*
X114877000Y-115141000D02*
X111437000Y-115141000D01*
X114877000Y-124381000D02*
X114877000Y-115141000D01*
X111437000Y-124381000D02*
X114877000Y-124381000D01*
G04 #@! TO.C,R5*
X101034000Y-103203000D02*
X97594000Y-103203000D01*
X97594000Y-103203000D02*
X97594000Y-112443000D01*
X97594000Y-112443000D02*
X101034000Y-112443000D01*
X101034000Y-112443000D02*
X101034000Y-103203000D01*
X99314000Y-102513000D02*
X99314000Y-103203000D01*
X99314000Y-113133000D02*
X99314000Y-112443000D01*
G04 #@! TO.C,C2*
D11*
X58877142Y-88451666D02*
X58924761Y-88499285D01*
X58972380Y-88642142D01*
X58972380Y-88737380D01*
X58924761Y-88880238D01*
X58829523Y-88975476D01*
X58734285Y-89023095D01*
X58543809Y-89070714D01*
X58400952Y-89070714D01*
X58210476Y-89023095D01*
X58115238Y-88975476D01*
X58020000Y-88880238D01*
X57972380Y-88737380D01*
X57972380Y-88642142D01*
X58020000Y-88499285D01*
X58067619Y-88451666D01*
X58067619Y-88070714D02*
X58020000Y-88023095D01*
X57972380Y-87927857D01*
X57972380Y-87689761D01*
X58020000Y-87594523D01*
X58067619Y-87546904D01*
X58162857Y-87499285D01*
X58258095Y-87499285D01*
X58400952Y-87546904D01*
X58972380Y-88118333D01*
X58972380Y-87499285D01*
X71472380Y-89904047D02*
X71472380Y-90475476D01*
X71472380Y-90189761D02*
X70472380Y-90189761D01*
X70615238Y-90285000D01*
X70710476Y-90380238D01*
X70758095Y-90475476D01*
X70472380Y-89285000D02*
X70472380Y-89189761D01*
X70520000Y-89094523D01*
X70567619Y-89046904D01*
X70662857Y-88999285D01*
X70853333Y-88951666D01*
X71091428Y-88951666D01*
X71281904Y-88999285D01*
X71377142Y-89046904D01*
X71424761Y-89094523D01*
X71472380Y-89189761D01*
X71472380Y-89285000D01*
X71424761Y-89380238D01*
X71377142Y-89427857D01*
X71281904Y-89475476D01*
X71091428Y-89523095D01*
X70853333Y-89523095D01*
X70662857Y-89475476D01*
X70567619Y-89427857D01*
X70520000Y-89380238D01*
X70472380Y-89285000D01*
X70472380Y-88332619D02*
X70472380Y-88237380D01*
X70520000Y-88142142D01*
X70567619Y-88094523D01*
X70662857Y-88046904D01*
X70853333Y-87999285D01*
X71091428Y-87999285D01*
X71281904Y-88046904D01*
X71377142Y-88094523D01*
X71424761Y-88142142D01*
X71472380Y-88237380D01*
X71472380Y-88332619D01*
X71424761Y-88427857D01*
X71377142Y-88475476D01*
X71281904Y-88523095D01*
X71091428Y-88570714D01*
X70853333Y-88570714D01*
X70662857Y-88523095D01*
X70567619Y-88475476D01*
X70520000Y-88427857D01*
X70472380Y-88332619D01*
X70805714Y-87570714D02*
X71805714Y-87570714D01*
X71329523Y-87094523D02*
X71424761Y-87046904D01*
X71472380Y-86951666D01*
X71329523Y-87570714D02*
X71424761Y-87523095D01*
X71472380Y-87427857D01*
X71472380Y-87237380D01*
X71424761Y-87142142D01*
X71329523Y-87094523D01*
X70805714Y-87094523D01*
X70948571Y-86189761D02*
X70948571Y-86523095D01*
X71472380Y-86523095D02*
X70472380Y-86523095D01*
X70472380Y-86046904D01*
G04 #@! TO.C,C4*
X78807333Y-84023142D02*
X78759714Y-84070761D01*
X78616857Y-84118380D01*
X78521619Y-84118380D01*
X78378761Y-84070761D01*
X78283523Y-83975523D01*
X78235904Y-83880285D01*
X78188285Y-83689809D01*
X78188285Y-83546952D01*
X78235904Y-83356476D01*
X78283523Y-83261238D01*
X78378761Y-83166000D01*
X78521619Y-83118380D01*
X78616857Y-83118380D01*
X78759714Y-83166000D01*
X78807333Y-83213619D01*
X79664476Y-83451714D02*
X79664476Y-84118380D01*
X79426380Y-83070761D02*
X79188285Y-83785047D01*
X79807333Y-83785047D01*
X76783523Y-95713619D02*
X76831142Y-95666000D01*
X76926380Y-95618380D01*
X77164476Y-95618380D01*
X77259714Y-95666000D01*
X77307333Y-95713619D01*
X77354952Y-95808857D01*
X77354952Y-95904095D01*
X77307333Y-96046952D01*
X76735904Y-96618380D01*
X77354952Y-96618380D01*
X77735904Y-95713619D02*
X77783523Y-95666000D01*
X77878761Y-95618380D01*
X78116857Y-95618380D01*
X78212095Y-95666000D01*
X78259714Y-95713619D01*
X78307333Y-95808857D01*
X78307333Y-95904095D01*
X78259714Y-96046952D01*
X77688285Y-96618380D01*
X78307333Y-96618380D01*
X78926380Y-95618380D02*
X79021619Y-95618380D01*
X79116857Y-95666000D01*
X79164476Y-95713619D01*
X79212095Y-95808857D01*
X79259714Y-95999333D01*
X79259714Y-96237428D01*
X79212095Y-96427904D01*
X79164476Y-96523142D01*
X79116857Y-96570761D01*
X79021619Y-96618380D01*
X78926380Y-96618380D01*
X78831142Y-96570761D01*
X78783523Y-96523142D01*
X78735904Y-96427904D01*
X78688285Y-96237428D01*
X78688285Y-95999333D01*
X78735904Y-95808857D01*
X78783523Y-95713619D01*
X78831142Y-95666000D01*
X78926380Y-95618380D01*
X79688285Y-95951714D02*
X79688285Y-96951714D01*
X80164476Y-96475523D02*
X80212095Y-96570761D01*
X80307333Y-96618380D01*
X79688285Y-96475523D02*
X79735904Y-96570761D01*
X79831142Y-96618380D01*
X80021619Y-96618380D01*
X80116857Y-96570761D01*
X80164476Y-96475523D01*
X80164476Y-95951714D01*
X81069238Y-96094571D02*
X80735904Y-96094571D01*
X80735904Y-96618380D02*
X80735904Y-95618380D01*
X81212095Y-95618380D01*
G04 #@! TO.C,D2*
X95654904Y-92744380D02*
X95654904Y-91744380D01*
X95893000Y-91744380D01*
X96035857Y-91792000D01*
X96131095Y-91887238D01*
X96178714Y-91982476D01*
X96226333Y-92172952D01*
X96226333Y-92315809D01*
X96178714Y-92506285D01*
X96131095Y-92601523D01*
X96035857Y-92696761D01*
X95893000Y-92744380D01*
X95654904Y-92744380D01*
X96607285Y-91839619D02*
X96654904Y-91792000D01*
X96750142Y-91744380D01*
X96988238Y-91744380D01*
X97083476Y-91792000D01*
X97131095Y-91839619D01*
X97178714Y-91934857D01*
X97178714Y-92030095D01*
X97131095Y-92172952D01*
X96559666Y-92744380D01*
X97178714Y-92744380D01*
X88511095Y-93864380D02*
X88511095Y-92864380D01*
X89082523Y-93864380D02*
X88653952Y-93292952D01*
X89082523Y-92864380D02*
X88511095Y-93435809D01*
G04 #@! TO.C,J2*
X61237380Y-106378333D02*
X61951666Y-106378333D01*
X62094523Y-106425952D01*
X62189761Y-106521190D01*
X62237380Y-106664047D01*
X62237380Y-106759285D01*
X61332619Y-105949761D02*
X61285000Y-105902142D01*
X61237380Y-105806904D01*
X61237380Y-105568809D01*
X61285000Y-105473571D01*
X61332619Y-105425952D01*
X61427857Y-105378333D01*
X61523095Y-105378333D01*
X61665952Y-105425952D01*
X62237380Y-105997380D01*
X62237380Y-105378333D01*
X64142142Y-110235476D02*
X64189761Y-110283095D01*
X64237380Y-110425952D01*
X64237380Y-110521190D01*
X64189761Y-110664047D01*
X64094523Y-110759285D01*
X63999285Y-110806904D01*
X63808809Y-110854523D01*
X63665952Y-110854523D01*
X63475476Y-110806904D01*
X63380238Y-110759285D01*
X63285000Y-110664047D01*
X63237380Y-110521190D01*
X63237380Y-110425952D01*
X63285000Y-110283095D01*
X63332619Y-110235476D01*
X64237380Y-109664047D02*
X64189761Y-109759285D01*
X64142142Y-109806904D01*
X64046904Y-109854523D01*
X63761190Y-109854523D01*
X63665952Y-109806904D01*
X63618333Y-109759285D01*
X63570714Y-109664047D01*
X63570714Y-109521190D01*
X63618333Y-109425952D01*
X63665952Y-109378333D01*
X63761190Y-109330714D01*
X64046904Y-109330714D01*
X64142142Y-109378333D01*
X64189761Y-109425952D01*
X64237380Y-109521190D01*
X64237380Y-109664047D01*
X63570714Y-108902142D02*
X64237380Y-108902142D01*
X63665952Y-108902142D02*
X63618333Y-108854523D01*
X63570714Y-108759285D01*
X63570714Y-108616428D01*
X63618333Y-108521190D01*
X63713571Y-108473571D01*
X64237380Y-108473571D01*
X63570714Y-107997380D02*
X64237380Y-107997380D01*
X63665952Y-107997380D02*
X63618333Y-107949761D01*
X63570714Y-107854523D01*
X63570714Y-107711666D01*
X63618333Y-107616428D01*
X63713571Y-107568809D01*
X64237380Y-107568809D01*
X64332619Y-107330714D02*
X64332619Y-106568809D01*
X64142142Y-105759285D02*
X64189761Y-105806904D01*
X64237380Y-105949761D01*
X64237380Y-106045000D01*
X64189761Y-106187857D01*
X64094523Y-106283095D01*
X63999285Y-106330714D01*
X63808809Y-106378333D01*
X63665952Y-106378333D01*
X63475476Y-106330714D01*
X63380238Y-106283095D01*
X63285000Y-106187857D01*
X63237380Y-106045000D01*
X63237380Y-105949761D01*
X63285000Y-105806904D01*
X63332619Y-105759285D01*
X64237380Y-105187857D02*
X64189761Y-105283095D01*
X64142142Y-105330714D01*
X64046904Y-105378333D01*
X63761190Y-105378333D01*
X63665952Y-105330714D01*
X63618333Y-105283095D01*
X63570714Y-105187857D01*
X63570714Y-105045000D01*
X63618333Y-104949761D01*
X63665952Y-104902142D01*
X63761190Y-104854523D01*
X64046904Y-104854523D01*
X64142142Y-104902142D01*
X64189761Y-104949761D01*
X64237380Y-105045000D01*
X64237380Y-105187857D01*
X64237380Y-103997380D02*
X63713571Y-103997380D01*
X63618333Y-104045000D01*
X63570714Y-104140238D01*
X63570714Y-104330714D01*
X63618333Y-104425952D01*
X64189761Y-103997380D02*
X64237380Y-104092619D01*
X64237380Y-104330714D01*
X64189761Y-104425952D01*
X64094523Y-104473571D01*
X63999285Y-104473571D01*
X63904047Y-104425952D01*
X63856428Y-104330714D01*
X63856428Y-104092619D01*
X63808809Y-103997380D01*
X64237380Y-103616428D02*
X63570714Y-103092619D01*
X63570714Y-103616428D02*
X64237380Y-103092619D01*
X64237380Y-102711666D02*
X63570714Y-102711666D01*
X63237380Y-102711666D02*
X63285000Y-102759285D01*
X63332619Y-102711666D01*
X63285000Y-102664047D01*
X63237380Y-102711666D01*
X63332619Y-102711666D01*
X64237380Y-101806904D02*
X63713571Y-101806904D01*
X63618333Y-101854523D01*
X63570714Y-101949761D01*
X63570714Y-102140238D01*
X63618333Y-102235476D01*
X64189761Y-101806904D02*
X64237380Y-101902142D01*
X64237380Y-102140238D01*
X64189761Y-102235476D01*
X64094523Y-102283095D01*
X63999285Y-102283095D01*
X63904047Y-102235476D01*
X63856428Y-102140238D01*
X63856428Y-101902142D01*
X63808809Y-101806904D01*
X64237380Y-101187857D02*
X64189761Y-101283095D01*
X64094523Y-101330714D01*
X63237380Y-101330714D01*
G04 #@! TO.C,J3*
X66341666Y-109732380D02*
X66341666Y-110446666D01*
X66294047Y-110589523D01*
X66198809Y-110684761D01*
X66055952Y-110732380D01*
X65960714Y-110732380D01*
X66722619Y-109732380D02*
X67341666Y-109732380D01*
X67008333Y-110113333D01*
X67151190Y-110113333D01*
X67246428Y-110160952D01*
X67294047Y-110208571D01*
X67341666Y-110303809D01*
X67341666Y-110541904D01*
X67294047Y-110637142D01*
X67246428Y-110684761D01*
X67151190Y-110732380D01*
X66865476Y-110732380D01*
X66770238Y-110684761D01*
X66722619Y-110637142D01*
X61436904Y-100944761D02*
X61341666Y-100992380D01*
X61151190Y-100992380D01*
X61055952Y-100944761D01*
X61008333Y-100849523D01*
X61008333Y-100468571D01*
X61055952Y-100373333D01*
X61151190Y-100325714D01*
X61341666Y-100325714D01*
X61436904Y-100373333D01*
X61484523Y-100468571D01*
X61484523Y-100563809D01*
X61008333Y-100659047D01*
X61817857Y-100992380D02*
X62341666Y-100325714D01*
X61817857Y-100325714D02*
X62341666Y-100992380D01*
X62579761Y-100325714D02*
X62960714Y-100325714D01*
X62722619Y-99992380D02*
X62722619Y-100849523D01*
X62770238Y-100944761D01*
X62865476Y-100992380D01*
X62960714Y-100992380D01*
X63675000Y-100944761D02*
X63579761Y-100992380D01*
X63389285Y-100992380D01*
X63294047Y-100944761D01*
X63246428Y-100849523D01*
X63246428Y-100468571D01*
X63294047Y-100373333D01*
X63389285Y-100325714D01*
X63579761Y-100325714D01*
X63675000Y-100373333D01*
X63722619Y-100468571D01*
X63722619Y-100563809D01*
X63246428Y-100659047D01*
X64151190Y-100992380D02*
X64151190Y-100325714D01*
X64151190Y-100516190D02*
X64198809Y-100420952D01*
X64246428Y-100373333D01*
X64341666Y-100325714D01*
X64436904Y-100325714D01*
X64770238Y-100325714D02*
X64770238Y-100992380D01*
X64770238Y-100420952D02*
X64817857Y-100373333D01*
X64913095Y-100325714D01*
X65055952Y-100325714D01*
X65151190Y-100373333D01*
X65198809Y-100468571D01*
X65198809Y-100992380D01*
X66103571Y-100992380D02*
X66103571Y-100468571D01*
X66055952Y-100373333D01*
X65960714Y-100325714D01*
X65770238Y-100325714D01*
X65675000Y-100373333D01*
X66103571Y-100944761D02*
X66008333Y-100992380D01*
X65770238Y-100992380D01*
X65675000Y-100944761D01*
X65627380Y-100849523D01*
X65627380Y-100754285D01*
X65675000Y-100659047D01*
X65770238Y-100611428D01*
X66008333Y-100611428D01*
X66103571Y-100563809D01*
X66722619Y-100992380D02*
X66627380Y-100944761D01*
X66579761Y-100849523D01*
X66579761Y-99992380D01*
X66865476Y-101087619D02*
X67627380Y-101087619D01*
X68008333Y-100992380D02*
X67913095Y-100944761D01*
X67865476Y-100897142D01*
X67817857Y-100801904D01*
X67817857Y-100516190D01*
X67865476Y-100420952D01*
X67913095Y-100373333D01*
X68008333Y-100325714D01*
X68151190Y-100325714D01*
X68246428Y-100373333D01*
X68294047Y-100420952D01*
X68341666Y-100516190D01*
X68341666Y-100801904D01*
X68294047Y-100897142D01*
X68246428Y-100944761D01*
X68151190Y-100992380D01*
X68008333Y-100992380D01*
X68770238Y-100325714D02*
X68770238Y-100992380D01*
X68770238Y-100420952D02*
X68817857Y-100373333D01*
X68913095Y-100325714D01*
X69055952Y-100325714D01*
X69151190Y-100373333D01*
X69198809Y-100468571D01*
X69198809Y-100992380D01*
X70389285Y-99944761D02*
X69532142Y-101230476D01*
X70865476Y-100992380D02*
X70770238Y-100944761D01*
X70722619Y-100897142D01*
X70675000Y-100801904D01*
X70675000Y-100516190D01*
X70722619Y-100420952D01*
X70770238Y-100373333D01*
X70865476Y-100325714D01*
X71008333Y-100325714D01*
X71103571Y-100373333D01*
X71151190Y-100420952D01*
X71198809Y-100516190D01*
X71198809Y-100801904D01*
X71151190Y-100897142D01*
X71103571Y-100944761D01*
X71008333Y-100992380D01*
X70865476Y-100992380D01*
X71484523Y-100325714D02*
X71865476Y-100325714D01*
X71627380Y-100992380D02*
X71627380Y-100135238D01*
X71675000Y-100040000D01*
X71770238Y-99992380D01*
X71865476Y-99992380D01*
X72055952Y-100325714D02*
X72436904Y-100325714D01*
X72198809Y-100992380D02*
X72198809Y-100135238D01*
X72246428Y-100040000D01*
X72341666Y-99992380D01*
X72436904Y-99992380D01*
G04 #@! TO.C,L2*
X85368380Y-83760666D02*
X85368380Y-84236857D01*
X84368380Y-84236857D01*
X84463619Y-83474952D02*
X84416000Y-83427333D01*
X84368380Y-83332095D01*
X84368380Y-83094000D01*
X84416000Y-82998761D01*
X84463619Y-82951142D01*
X84558857Y-82903523D01*
X84654095Y-82903523D01*
X84796952Y-82951142D01*
X85368380Y-83522571D01*
X85368380Y-82903523D01*
X94368380Y-85451142D02*
X94368380Y-84832095D01*
X94749333Y-85165428D01*
X94749333Y-85022571D01*
X94796952Y-84927333D01*
X94844571Y-84879714D01*
X94939809Y-84832095D01*
X95177904Y-84832095D01*
X95273142Y-84879714D01*
X95320761Y-84927333D01*
X95368380Y-85022571D01*
X95368380Y-85308285D01*
X95320761Y-85403523D01*
X95273142Y-85451142D01*
X94368380Y-84498761D02*
X94368380Y-83879714D01*
X94749333Y-84213047D01*
X94749333Y-84070190D01*
X94796952Y-83974952D01*
X94844571Y-83927333D01*
X94939809Y-83879714D01*
X95177904Y-83879714D01*
X95273142Y-83927333D01*
X95320761Y-83974952D01*
X95368380Y-84070190D01*
X95368380Y-84355904D01*
X95320761Y-84451142D01*
X95273142Y-84498761D01*
X94701714Y-83451142D02*
X95701714Y-83451142D01*
X95225523Y-82974952D02*
X95320761Y-82927333D01*
X95368380Y-82832095D01*
X95225523Y-83451142D02*
X95320761Y-83403523D01*
X95368380Y-83308285D01*
X95368380Y-83117809D01*
X95320761Y-83022571D01*
X95225523Y-82974952D01*
X94701714Y-82974952D01*
X95368380Y-82403523D02*
X94368380Y-82403523D01*
X94844571Y-82403523D02*
X94844571Y-81832095D01*
X95368380Y-81832095D02*
X94368380Y-81832095D01*
G04 #@! TO.C,R4*
X81875333Y-68821380D02*
X81542000Y-68345190D01*
X81303904Y-68821380D02*
X81303904Y-67821380D01*
X81684857Y-67821380D01*
X81780095Y-67869000D01*
X81827714Y-67916619D01*
X81875333Y-68011857D01*
X81875333Y-68154714D01*
X81827714Y-68249952D01*
X81780095Y-68297571D01*
X81684857Y-68345190D01*
X81303904Y-68345190D01*
X82732476Y-68154714D02*
X82732476Y-68821380D01*
X82494380Y-67773761D02*
X82256285Y-68488047D01*
X82875333Y-68488047D01*
X78446476Y-73667880D02*
X77875047Y-73667880D01*
X78160761Y-73667880D02*
X78160761Y-72667880D01*
X78065523Y-72810738D01*
X77970285Y-72905976D01*
X77875047Y-72953595D01*
X78875047Y-73572642D02*
X78922666Y-73620261D01*
X78875047Y-73667880D01*
X78827428Y-73620261D01*
X78875047Y-73572642D01*
X78875047Y-73667880D01*
X79303619Y-72763119D02*
X79351238Y-72715500D01*
X79446476Y-72667880D01*
X79684571Y-72667880D01*
X79779809Y-72715500D01*
X79827428Y-72763119D01*
X79875047Y-72858357D01*
X79875047Y-72953595D01*
X79827428Y-73096452D01*
X79256000Y-73667880D01*
X79875047Y-73667880D01*
X80827428Y-73667880D02*
X80256000Y-73667880D01*
X80541714Y-73667880D02*
X80541714Y-72667880D01*
X80446476Y-72810738D01*
X80351238Y-72905976D01*
X80256000Y-72953595D01*
X81256000Y-73667880D02*
X81256000Y-72667880D01*
X81351238Y-73286928D02*
X81636952Y-73667880D01*
X81636952Y-73001214D02*
X81256000Y-73382166D01*
G04 #@! TO.C,RV1*
X108243761Y-93857380D02*
X107910428Y-93381190D01*
X107672333Y-93857380D02*
X107672333Y-92857380D01*
X108053285Y-92857380D01*
X108148523Y-92905000D01*
X108196142Y-92952619D01*
X108243761Y-93047857D01*
X108243761Y-93190714D01*
X108196142Y-93285952D01*
X108148523Y-93333571D01*
X108053285Y-93381190D01*
X107672333Y-93381190D01*
X108529476Y-92857380D02*
X108862809Y-93857380D01*
X109196142Y-92857380D01*
X110053285Y-93857380D02*
X109481857Y-93857380D01*
X109767571Y-93857380D02*
X109767571Y-92857380D01*
X109672333Y-93000238D01*
X109577095Y-93095476D01*
X109481857Y-93143095D01*
X107362809Y-111357380D02*
X107029476Y-110881190D01*
X106791380Y-111357380D02*
X106791380Y-110357380D01*
X107172333Y-110357380D01*
X107267571Y-110405000D01*
X107315190Y-110452619D01*
X107362809Y-110547857D01*
X107362809Y-110690714D01*
X107315190Y-110785952D01*
X107267571Y-110833571D01*
X107172333Y-110881190D01*
X106791380Y-110881190D01*
X107553285Y-111452619D02*
X108315190Y-111452619D01*
X108553285Y-111357380D02*
X108553285Y-110357380D01*
X108934238Y-110357380D01*
X109029476Y-110405000D01*
X109077095Y-110452619D01*
X109124714Y-110547857D01*
X109124714Y-110690714D01*
X109077095Y-110785952D01*
X109029476Y-110833571D01*
X108934238Y-110881190D01*
X108553285Y-110881190D01*
X109743761Y-110357380D02*
X109934238Y-110357380D01*
X110029476Y-110405000D01*
X110124714Y-110500238D01*
X110172333Y-110690714D01*
X110172333Y-111024047D01*
X110124714Y-111214523D01*
X110029476Y-111309761D01*
X109934238Y-111357380D01*
X109743761Y-111357380D01*
X109648523Y-111309761D01*
X109553285Y-111214523D01*
X109505666Y-111024047D01*
X109505666Y-110690714D01*
X109553285Y-110500238D01*
X109648523Y-110405000D01*
X109743761Y-110357380D01*
X110458047Y-110357380D02*
X111029476Y-110357380D01*
X110743761Y-111357380D02*
X110743761Y-110357380D01*
G04 #@! TO.C,RV2*
X88269380Y-75906238D02*
X87793190Y-76239571D01*
X88269380Y-76477666D02*
X87269380Y-76477666D01*
X87269380Y-76096714D01*
X87317000Y-76001476D01*
X87364619Y-75953857D01*
X87459857Y-75906238D01*
X87602714Y-75906238D01*
X87697952Y-75953857D01*
X87745571Y-76001476D01*
X87793190Y-76096714D01*
X87793190Y-76477666D01*
X87269380Y-75620523D02*
X88269380Y-75287190D01*
X87269380Y-74953857D01*
X87364619Y-74668142D02*
X87317000Y-74620523D01*
X87269380Y-74525285D01*
X87269380Y-74287190D01*
X87317000Y-74191952D01*
X87364619Y-74144333D01*
X87459857Y-74096714D01*
X87555095Y-74096714D01*
X87697952Y-74144333D01*
X88269380Y-74715761D01*
X88269380Y-74096714D01*
X104769380Y-75953857D02*
X104769380Y-76430047D01*
X105245571Y-76477666D01*
X105197952Y-76430047D01*
X105150333Y-76334809D01*
X105150333Y-76096714D01*
X105197952Y-76001476D01*
X105245571Y-75953857D01*
X105340809Y-75906238D01*
X105578904Y-75906238D01*
X105674142Y-75953857D01*
X105721761Y-76001476D01*
X105769380Y-76096714D01*
X105769380Y-76334809D01*
X105721761Y-76430047D01*
X105674142Y-76477666D01*
X104769380Y-75287190D02*
X104769380Y-75191952D01*
X104817000Y-75096714D01*
X104864619Y-75049095D01*
X104959857Y-75001476D01*
X105150333Y-74953857D01*
X105388428Y-74953857D01*
X105578904Y-75001476D01*
X105674142Y-75049095D01*
X105721761Y-75096714D01*
X105769380Y-75191952D01*
X105769380Y-75287190D01*
X105721761Y-75382428D01*
X105674142Y-75430047D01*
X105578904Y-75477666D01*
X105388428Y-75525285D01*
X105150333Y-75525285D01*
X104959857Y-75477666D01*
X104864619Y-75430047D01*
X104817000Y-75382428D01*
X104769380Y-75287190D01*
X105769380Y-74525285D02*
X104769380Y-74525285D01*
X105388428Y-74430047D02*
X105769380Y-74144333D01*
X105102714Y-74144333D02*
X105483666Y-74525285D01*
G04 #@! TO.C,U2*
X64233095Y-67602380D02*
X64233095Y-68411904D01*
X64280714Y-68507142D01*
X64328333Y-68554761D01*
X64423571Y-68602380D01*
X64614047Y-68602380D01*
X64709285Y-68554761D01*
X64756904Y-68507142D01*
X64804523Y-68411904D01*
X64804523Y-67602380D01*
X65233095Y-67697619D02*
X65280714Y-67650000D01*
X65375952Y-67602380D01*
X65614047Y-67602380D01*
X65709285Y-67650000D01*
X65756904Y-67697619D01*
X65804523Y-67792857D01*
X65804523Y-67888095D01*
X65756904Y-68030952D01*
X65185476Y-68602380D01*
X65804523Y-68602380D01*
X60518809Y-80072380D02*
X60042619Y-80072380D01*
X60042619Y-79072380D01*
X60852142Y-80072380D02*
X60852142Y-79072380D01*
X61185476Y-79786666D01*
X61518809Y-79072380D01*
X61518809Y-80072380D01*
X61947380Y-79167619D02*
X61995000Y-79120000D01*
X62090238Y-79072380D01*
X62328333Y-79072380D01*
X62423571Y-79120000D01*
X62471190Y-79167619D01*
X62518809Y-79262857D01*
X62518809Y-79358095D01*
X62471190Y-79500952D01*
X61899761Y-80072380D01*
X62518809Y-80072380D01*
X63423571Y-79072380D02*
X62947380Y-79072380D01*
X62899761Y-79548571D01*
X62947380Y-79500952D01*
X63042619Y-79453333D01*
X63280714Y-79453333D01*
X63375952Y-79500952D01*
X63423571Y-79548571D01*
X63471190Y-79643809D01*
X63471190Y-79881904D01*
X63423571Y-79977142D01*
X63375952Y-80024761D01*
X63280714Y-80072380D01*
X63042619Y-80072380D01*
X62947380Y-80024761D01*
X62899761Y-79977142D01*
X63947380Y-80072380D02*
X64137857Y-80072380D01*
X64233095Y-80024761D01*
X64280714Y-79977142D01*
X64375952Y-79834285D01*
X64423571Y-79643809D01*
X64423571Y-79262857D01*
X64375952Y-79167619D01*
X64328333Y-79120000D01*
X64233095Y-79072380D01*
X64042619Y-79072380D01*
X63947380Y-79120000D01*
X63899761Y-79167619D01*
X63852142Y-79262857D01*
X63852142Y-79500952D01*
X63899761Y-79596190D01*
X63947380Y-79643809D01*
X64042619Y-79691428D01*
X64233095Y-79691428D01*
X64328333Y-79643809D01*
X64375952Y-79596190D01*
X64423571Y-79500952D01*
X65280714Y-79072380D02*
X65090238Y-79072380D01*
X64995000Y-79120000D01*
X64947380Y-79167619D01*
X64852142Y-79310476D01*
X64804523Y-79500952D01*
X64804523Y-79881904D01*
X64852142Y-79977142D01*
X64899761Y-80024761D01*
X64995000Y-80072380D01*
X65185476Y-80072380D01*
X65280714Y-80024761D01*
X65328333Y-79977142D01*
X65375952Y-79881904D01*
X65375952Y-79643809D01*
X65328333Y-79548571D01*
X65280714Y-79500952D01*
X65185476Y-79453333D01*
X64995000Y-79453333D01*
X64899761Y-79500952D01*
X64852142Y-79548571D01*
X64804523Y-79643809D01*
X65661666Y-79072380D02*
X66233095Y-79072380D01*
X65947380Y-80072380D02*
X65947380Y-79072380D01*
X66566428Y-79691428D02*
X67328333Y-79691428D01*
X67756904Y-79786666D02*
X68233095Y-79786666D01*
X67661666Y-80072380D02*
X67995000Y-79072380D01*
X68328333Y-80072380D01*
X68661666Y-80072380D02*
X68661666Y-79072380D01*
X68899761Y-79072380D01*
X69042619Y-79120000D01*
X69137857Y-79215238D01*
X69185476Y-79310476D01*
X69233095Y-79500952D01*
X69233095Y-79643809D01*
X69185476Y-79834285D01*
X69137857Y-79929523D01*
X69042619Y-80024761D01*
X68899761Y-80072380D01*
X68661666Y-80072380D01*
X69947380Y-79072380D02*
X69947380Y-79786666D01*
X69899761Y-79929523D01*
X69804523Y-80024761D01*
X69661666Y-80072380D01*
X69566428Y-80072380D01*
G04 #@! TO.C,J1*
X43770380Y-91153333D02*
X44484666Y-91153333D01*
X44627523Y-91200952D01*
X44722761Y-91296190D01*
X44770380Y-91439047D01*
X44770380Y-91534285D01*
X44770380Y-90153333D02*
X44770380Y-90724761D01*
X44770380Y-90439047D02*
X43770380Y-90439047D01*
X43913238Y-90534285D01*
X44008476Y-90629523D01*
X44056095Y-90724761D01*
G04 #@! TO.C,J4*
X102322380Y-81867333D02*
X103036666Y-81867333D01*
X103179523Y-81914952D01*
X103274761Y-82010190D01*
X103322380Y-82153047D01*
X103322380Y-82248285D01*
X102655714Y-80962571D02*
X103322380Y-80962571D01*
X102274761Y-81200666D02*
X102989047Y-81438761D01*
X102989047Y-80819714D01*
G04 #@! TO.C,Q1*
X86899761Y-100425619D02*
X86804523Y-100378000D01*
X86709285Y-100282761D01*
X86566428Y-100139904D01*
X86471190Y-100092285D01*
X86375952Y-100092285D01*
X86423571Y-100330380D02*
X86328333Y-100282761D01*
X86233095Y-100187523D01*
X86185476Y-99997047D01*
X86185476Y-99663714D01*
X86233095Y-99473238D01*
X86328333Y-99378000D01*
X86423571Y-99330380D01*
X86614047Y-99330380D01*
X86709285Y-99378000D01*
X86804523Y-99473238D01*
X86852142Y-99663714D01*
X86852142Y-99997047D01*
X86804523Y-100187523D01*
X86709285Y-100282761D01*
X86614047Y-100330380D01*
X86423571Y-100330380D01*
X87804523Y-100330380D02*
X87233095Y-100330380D01*
X87518809Y-100330380D02*
X87518809Y-99330380D01*
X87423571Y-99473238D01*
X87328333Y-99568476D01*
X87233095Y-99616095D01*
G04 #@! TO.C,Q2*
X74017619Y-102584238D02*
X73970000Y-102679476D01*
X73874761Y-102774714D01*
X73731904Y-102917571D01*
X73684285Y-103012809D01*
X73684285Y-103108047D01*
X73922380Y-103060428D02*
X73874761Y-103155666D01*
X73779523Y-103250904D01*
X73589047Y-103298523D01*
X73255714Y-103298523D01*
X73065238Y-103250904D01*
X72970000Y-103155666D01*
X72922380Y-103060428D01*
X72922380Y-102869952D01*
X72970000Y-102774714D01*
X73065238Y-102679476D01*
X73255714Y-102631857D01*
X73589047Y-102631857D01*
X73779523Y-102679476D01*
X73874761Y-102774714D01*
X73922380Y-102869952D01*
X73922380Y-103060428D01*
X73017619Y-102250904D02*
X72970000Y-102203285D01*
X72922380Y-102108047D01*
X72922380Y-101869952D01*
X72970000Y-101774714D01*
X73017619Y-101727095D01*
X73112857Y-101679476D01*
X73208095Y-101679476D01*
X73350952Y-101727095D01*
X73922380Y-102298523D01*
X73922380Y-101679476D01*
G04 #@! TO.C,R1*
X87463333Y-108476380D02*
X87130000Y-108000190D01*
X86891904Y-108476380D02*
X86891904Y-107476380D01*
X87272857Y-107476380D01*
X87368095Y-107524000D01*
X87415714Y-107571619D01*
X87463333Y-107666857D01*
X87463333Y-107809714D01*
X87415714Y-107904952D01*
X87368095Y-107952571D01*
X87272857Y-108000190D01*
X86891904Y-108000190D01*
X88415714Y-108476380D02*
X87844285Y-108476380D01*
X88130000Y-108476380D02*
X88130000Y-107476380D01*
X88034761Y-107619238D01*
X87939523Y-107714476D01*
X87844285Y-107762095D01*
G04 #@! TO.C,R2*
X87590333Y-121536380D02*
X87257000Y-121060190D01*
X87018904Y-121536380D02*
X87018904Y-120536380D01*
X87399857Y-120536380D01*
X87495095Y-120584000D01*
X87542714Y-120631619D01*
X87590333Y-120726857D01*
X87590333Y-120869714D01*
X87542714Y-120964952D01*
X87495095Y-121012571D01*
X87399857Y-121060190D01*
X87018904Y-121060190D01*
X87971285Y-120631619D02*
X88018904Y-120584000D01*
X88114142Y-120536380D01*
X88352238Y-120536380D01*
X88447476Y-120584000D01*
X88495095Y-120631619D01*
X88542714Y-120726857D01*
X88542714Y-120822095D01*
X88495095Y-120964952D01*
X87923666Y-121536380D01*
X88542714Y-121536380D01*
G04 #@! TO.C,R3*
X110889380Y-119927666D02*
X110413190Y-120261000D01*
X110889380Y-120499095D02*
X109889380Y-120499095D01*
X109889380Y-120118142D01*
X109937000Y-120022904D01*
X109984619Y-119975285D01*
X110079857Y-119927666D01*
X110222714Y-119927666D01*
X110317952Y-119975285D01*
X110365571Y-120022904D01*
X110413190Y-120118142D01*
X110413190Y-120499095D01*
X109889380Y-119594333D02*
X109889380Y-118975285D01*
X110270333Y-119308619D01*
X110270333Y-119165761D01*
X110317952Y-119070523D01*
X110365571Y-119022904D01*
X110460809Y-118975285D01*
X110698904Y-118975285D01*
X110794142Y-119022904D01*
X110841761Y-119070523D01*
X110889380Y-119165761D01*
X110889380Y-119451476D01*
X110841761Y-119546714D01*
X110794142Y-119594333D01*
G04 #@! TO.C,R5*
X102486380Y-107989666D02*
X102010190Y-108323000D01*
X102486380Y-108561095D02*
X101486380Y-108561095D01*
X101486380Y-108180142D01*
X101534000Y-108084904D01*
X101581619Y-108037285D01*
X101676857Y-107989666D01*
X101819714Y-107989666D01*
X101914952Y-108037285D01*
X101962571Y-108084904D01*
X102010190Y-108180142D01*
X102010190Y-108561095D01*
X101486380Y-107084904D02*
X101486380Y-107561095D01*
X101962571Y-107608714D01*
X101914952Y-107561095D01*
X101867333Y-107465857D01*
X101867333Y-107227761D01*
X101914952Y-107132523D01*
X101962571Y-107084904D01*
X102057809Y-107037285D01*
X102295904Y-107037285D01*
X102391142Y-107084904D01*
X102438761Y-107132523D01*
X102486380Y-107227761D01*
X102486380Y-107465857D01*
X102438761Y-107561095D01*
X102391142Y-107608714D01*
G04 #@! TD*
M02*
