G04 #@! TF.GenerationSoftware,KiCad,Pcbnew,5.0.2-bee76a0~70~ubuntu18.04.1*
G04 #@! TF.CreationDate,2019-05-08T10:40:33+01:00*
G04 #@! TF.ProjectId,lm2596_cc_vc,6c6d3235-3936-45f6-9363-5f76632e6b69,rev?*
G04 #@! TF.SameCoordinates,Original*
G04 #@! TF.FileFunction,Other,Fab,Top*
%FSLAX46Y46*%
G04 Gerber Fmt 4.6, Leading zero omitted, Abs format (unit mm)*
G04 Created by KiCad (PCBNEW 5.0.2-bee76a0~70~ubuntu18.04.1) date Wed 08 May 2019 10:40:33 BST*
%MOMM*%
%LPD*%
G01*
G04 APERTURE LIST*
%ADD10C,0.100000*%
%ADD11C,0.150000*%
G04 APERTURE END LIST*
D10*
G04 #@! TO.C,C2*
X62082500Y-92073861D02*
X63082500Y-92073861D01*
X62582500Y-92573861D02*
X62582500Y-91573861D01*
X69770000Y-88285000D02*
G75*
G03X69770000Y-88285000I-5000000J0D01*
G01*
G04 #@! TO.C,C4*
X83974000Y-89916000D02*
G75*
G03X83974000Y-89916000I-5000000J0D01*
G01*
X74685139Y-87728500D02*
X75685139Y-87728500D01*
X75185139Y-87228500D02*
X75185139Y-88228500D01*
G04 #@! TO.C,D2*
X91643000Y-93412000D02*
X91643000Y-98612000D01*
X91643000Y-98612000D02*
X101143000Y-98612000D01*
X101143000Y-98612000D02*
X101143000Y-93412000D01*
X101143000Y-93412000D02*
X91643000Y-93412000D01*
X88773000Y-96012000D02*
X91643000Y-96012000D01*
X104013000Y-96012000D02*
X101143000Y-96012000D01*
X93068000Y-93412000D02*
X93068000Y-98612000D01*
X93168000Y-93412000D02*
X93168000Y-98612000D01*
X92968000Y-93412000D02*
X92968000Y-98612000D01*
G04 #@! TO.C,J2*
X37785000Y-111045000D02*
X36785000Y-101045000D01*
X38785000Y-111045000D02*
X37785000Y-101045000D01*
X39785000Y-111045000D02*
X38785000Y-101045000D01*
X40785000Y-111045000D02*
X39785000Y-101045000D01*
X41785000Y-111045000D02*
X40785000Y-101045000D01*
X42785000Y-111045000D02*
X41785000Y-101045000D01*
X30715000Y-106045000D02*
G75*
G03X30715000Y-106045000I-1000000J0D01*
G01*
X36385000Y-101245000D02*
X24485000Y-101245000D01*
X24485000Y-101245000D02*
X24485000Y-110845000D01*
X24485000Y-110845000D02*
X36385000Y-110845000D01*
X45085000Y-99695000D02*
X36385000Y-99695000D01*
X36385000Y-99695000D02*
X36385000Y-112395000D01*
X36385000Y-112395000D02*
X45085000Y-112395000D01*
X59985000Y-113395000D02*
X59985000Y-98695000D01*
X59985000Y-98695000D02*
X45085000Y-98695000D01*
X45085000Y-98695000D02*
X45085000Y-113395000D01*
X45085000Y-113395000D02*
X59985000Y-113395000D01*
X43785000Y-111045000D02*
X42785000Y-101045000D01*
G04 #@! TO.C,J3*
X67310000Y-109220000D02*
X65405000Y-109220000D01*
X65405000Y-109220000D02*
X65405000Y-101600000D01*
X65405000Y-101600000D02*
X67945000Y-101600000D01*
X67945000Y-101600000D02*
X67945000Y-108585000D01*
X67945000Y-108585000D02*
X67310000Y-109220000D01*
G04 #@! TO.C,L2*
X93666000Y-83594000D02*
G75*
G03X93666000Y-83594000I-3750000J0D01*
G01*
G04 #@! TO.C,R4*
X78892000Y-69489000D02*
X78892000Y-71989000D01*
X78892000Y-71989000D02*
X85192000Y-71989000D01*
X85192000Y-71989000D02*
X85192000Y-69489000D01*
X85192000Y-69489000D02*
X78892000Y-69489000D01*
X78232000Y-70739000D02*
X78892000Y-70739000D01*
X85852000Y-70739000D02*
X85192000Y-70739000D01*
G04 #@! TO.C,RV1*
X113839000Y-99155000D02*
X108839000Y-99155000D01*
X113839000Y-105155000D02*
X113839000Y-99155000D01*
X108839000Y-105155000D02*
X113839000Y-105155000D01*
X108839000Y-99155000D02*
X108839000Y-105155000D01*
X108839000Y-94655000D02*
X113839000Y-94655000D01*
X108839000Y-109655000D02*
X108839000Y-94655000D01*
X113839000Y-109655000D02*
X108839000Y-109655000D01*
X113839000Y-94655000D02*
X113839000Y-109655000D01*
G04 #@! TO.C,RV2*
X89067000Y-70311000D02*
X104067000Y-70311000D01*
X104067000Y-70311000D02*
X104067000Y-75311000D01*
X104067000Y-75311000D02*
X89067000Y-75311000D01*
X89067000Y-75311000D02*
X89067000Y-70311000D01*
X93567000Y-75311000D02*
X99567000Y-75311000D01*
X99567000Y-75311000D02*
X99567000Y-70311000D01*
X99567000Y-70311000D02*
X93567000Y-70311000D01*
X93567000Y-70311000D02*
X93567000Y-75311000D01*
G04 #@! TO.C,U2*
X68395000Y-73670000D02*
X68395000Y-77470000D01*
X66695000Y-73670000D02*
X66695000Y-73770000D01*
X64995000Y-73670000D02*
X64995000Y-77470000D01*
X63295000Y-73670000D02*
X63295000Y-73770000D01*
X61595000Y-73670000D02*
X61595000Y-77470000D01*
X66845000Y-69270000D02*
X66845000Y-70540000D01*
X63145000Y-69270000D02*
X63145000Y-70540000D01*
X59995000Y-70540000D02*
X69995000Y-70540000D01*
X69995000Y-69270000D02*
X59995000Y-69270000D01*
X69995000Y-73670000D02*
X69995000Y-69270000D01*
X59995000Y-73670000D02*
X69995000Y-73670000D01*
X59995000Y-69270000D02*
X59995000Y-73670000D01*
G04 #@! TO.C,J1*
X53848000Y-90160000D02*
X53848000Y-87620000D01*
X53848000Y-87620000D02*
X51058000Y-87620000D01*
X51058000Y-90160000D02*
X51058000Y-87620000D01*
X53848000Y-90160000D02*
X51058000Y-90160000D01*
X53848000Y-85160000D02*
X53848000Y-82620000D01*
X53848000Y-82620000D02*
X51058000Y-82620000D01*
X51058000Y-85160000D02*
X51058000Y-82620000D01*
X53848000Y-85160000D02*
X51058000Y-85160000D01*
X45088000Y-81290000D02*
X48138000Y-81290000D01*
X45088000Y-81290000D02*
X45088000Y-91480000D01*
X45088000Y-81290000D02*
X45088000Y-80790000D01*
X45088000Y-80790000D02*
X49908000Y-80790000D01*
X49908000Y-80790000D02*
X49658000Y-81290000D01*
X56768000Y-80790000D02*
X56518000Y-81290000D01*
X56518000Y-81290000D02*
X57528000Y-81290000D01*
X55118000Y-80790000D02*
X55368000Y-81290000D01*
X55368000Y-81290000D02*
X56518000Y-81290000D01*
X55118000Y-80790000D02*
X56768000Y-80790000D01*
X57528000Y-85920000D02*
X55628000Y-85920000D01*
X51058000Y-81850000D02*
X55628000Y-81850000D01*
X57528000Y-85920000D02*
X57528000Y-81850000D01*
X57528000Y-81850000D02*
X57528000Y-81290000D01*
X57528000Y-86860000D02*
X55628000Y-86860000D01*
X57528000Y-86860000D02*
X57528000Y-85920000D01*
X51058000Y-90920000D02*
X55628000Y-90920000D01*
X57528000Y-91480000D02*
X57528000Y-90920000D01*
X57528000Y-90920000D02*
X57528000Y-86860000D01*
X55628000Y-85920000D02*
X55628000Y-81850000D01*
X55628000Y-85920000D02*
X51058000Y-85920000D01*
X55628000Y-81850000D02*
X57528000Y-81850000D01*
X55628000Y-86860000D02*
X55628000Y-90920000D01*
X55628000Y-86860000D02*
X51058000Y-86860000D01*
X55628000Y-90920000D02*
X57528000Y-90920000D01*
X54988000Y-82230000D02*
X51818000Y-82230000D01*
X54988000Y-82230000D02*
X54988000Y-85540000D01*
X54988000Y-85540000D02*
X51818000Y-85540000D01*
X54988000Y-87240000D02*
X51818000Y-87240000D01*
X54988000Y-87240000D02*
X54988000Y-90540000D01*
X54988000Y-90540000D02*
X51818000Y-90540000D01*
X51818000Y-90540000D02*
X51818000Y-90160000D01*
X51818000Y-87240000D02*
X51818000Y-87620000D01*
X51818000Y-85540000D02*
X51818000Y-85160000D01*
X51818000Y-82230000D02*
X51818000Y-82620000D01*
X57528000Y-91480000D02*
X50668000Y-91480000D01*
X50668000Y-91480000D02*
X48138000Y-91480000D01*
X49658000Y-81290000D02*
X50668000Y-81290000D01*
X50668000Y-81290000D02*
X55368000Y-81290000D01*
X48138000Y-91480000D02*
X48138000Y-81290000D01*
X48138000Y-91480000D02*
X45088000Y-91480000D01*
X48138000Y-81290000D02*
X49658000Y-81290000D01*
X47878000Y-85920000D02*
X45338000Y-85920000D01*
X45338000Y-85920000D02*
X45338000Y-81850000D01*
X45338000Y-81850000D02*
X47878000Y-81850000D01*
X47878000Y-81850000D02*
X47878000Y-85920000D01*
X47878000Y-86860000D02*
X45338000Y-86860000D01*
X47878000Y-86860000D02*
X47878000Y-90920000D01*
X47878000Y-90920000D02*
X45338000Y-90920000D01*
X45338000Y-86860000D02*
X45338000Y-90920000D01*
X46858000Y-85510000D02*
X46228000Y-82460000D01*
X46988000Y-85380000D02*
X46358000Y-82340000D01*
X46858000Y-90520000D02*
X46228000Y-87460000D01*
X46988000Y-90390000D02*
X46358000Y-87340000D01*
X51058000Y-90920000D02*
X51058000Y-90540000D01*
X51058000Y-86860000D02*
X51058000Y-87240000D01*
X51058000Y-87240000D02*
X51058000Y-90540000D01*
X50668000Y-91480000D02*
X50668000Y-90540000D01*
X50668000Y-90540000D02*
X50668000Y-87240000D01*
X50668000Y-87240000D02*
X50668000Y-85540000D01*
X50668000Y-81290000D02*
X50668000Y-82230000D01*
X50668000Y-82230000D02*
X50668000Y-85540000D01*
X51058000Y-81850000D02*
X51058000Y-82230000D01*
X51058000Y-85920000D02*
X51058000Y-85540000D01*
X51058000Y-85540000D02*
X51058000Y-82230000D01*
X47231995Y-82414468D02*
G75*
G03X46258000Y-82360000I-513995J-455532D01*
G01*
X47139737Y-85352333D02*
G75*
G03X47188000Y-82370000I-1901737J1522333D01*
G01*
X46246313Y-82361761D02*
G75*
G03X46308000Y-85510000I1351687J-1548239D01*
G01*
X46249301Y-85462972D02*
G75*
G03X47178000Y-85320000I408699J432972D01*
G01*
X47221996Y-87414380D02*
G75*
G03X46258000Y-87370000I-503996J-455620D01*
G01*
X47149418Y-90359829D02*
G75*
G03X47188000Y-87370000I-1911418J1519829D01*
G01*
X46236466Y-87360024D02*
G75*
G03X46308000Y-90520000I1361534J-1549976D01*
G01*
X46249301Y-90462972D02*
G75*
G03X47178000Y-90320000I408699J432972D01*
G01*
G04 #@! TO.C,J4*
X115294699Y-81876028D02*
G75*
G03X114366000Y-82019000I-408699J-432972D01*
G01*
X115307534Y-84978976D02*
G75*
G03X115236000Y-81819000I-1361534J1549976D01*
G01*
X114394582Y-81979171D02*
G75*
G03X114356000Y-84969000I1911418J-1519829D01*
G01*
X114322004Y-84924620D02*
G75*
G03X115286000Y-84969000I503996J455620D01*
G01*
X115294699Y-86876028D02*
G75*
G03X114366000Y-87019000I-408699J-432972D01*
G01*
X115297687Y-89977239D02*
G75*
G03X115236000Y-86829000I-1351687J1548239D01*
G01*
X114404263Y-86986667D02*
G75*
G03X114356000Y-89969000I1901737J-1522333D01*
G01*
X114312005Y-89924532D02*
G75*
G03X115286000Y-89979000I513995J455532D01*
G01*
X110486000Y-86799000D02*
X110486000Y-90109000D01*
X110486000Y-86419000D02*
X110486000Y-86799000D01*
X110486000Y-90489000D02*
X110486000Y-90109000D01*
X110876000Y-90109000D02*
X110876000Y-86799000D01*
X110876000Y-91049000D02*
X110876000Y-90109000D01*
X110876000Y-85099000D02*
X110876000Y-86799000D01*
X110876000Y-81799000D02*
X110876000Y-85099000D01*
X110876000Y-80859000D02*
X110876000Y-81799000D01*
X110486000Y-85099000D02*
X110486000Y-81799000D01*
X110486000Y-85479000D02*
X110486000Y-85099000D01*
X110486000Y-81419000D02*
X110486000Y-81799000D01*
X114556000Y-81949000D02*
X115186000Y-84999000D01*
X114686000Y-81819000D02*
X115316000Y-84879000D01*
X114556000Y-86959000D02*
X115186000Y-89999000D01*
X114686000Y-86829000D02*
X115316000Y-89879000D01*
X116206000Y-85479000D02*
X116206000Y-81419000D01*
X113666000Y-81419000D02*
X116206000Y-81419000D01*
X113666000Y-85479000D02*
X113666000Y-81419000D01*
X113666000Y-85479000D02*
X116206000Y-85479000D01*
X113666000Y-90489000D02*
X113666000Y-86419000D01*
X116206000Y-90489000D02*
X113666000Y-90489000D01*
X116206000Y-86419000D02*
X116206000Y-90489000D01*
X113666000Y-86419000D02*
X116206000Y-86419000D01*
X113406000Y-91049000D02*
X111886000Y-91049000D01*
X113406000Y-80859000D02*
X116456000Y-80859000D01*
X113406000Y-80859000D02*
X113406000Y-91049000D01*
X110876000Y-91049000D02*
X106176000Y-91049000D01*
X111886000Y-91049000D02*
X110876000Y-91049000D01*
X110876000Y-80859000D02*
X113406000Y-80859000D01*
X104016000Y-80859000D02*
X110876000Y-80859000D01*
X109726000Y-90109000D02*
X109726000Y-89719000D01*
X109726000Y-86799000D02*
X109726000Y-87179000D01*
X109726000Y-85099000D02*
X109726000Y-84719000D01*
X109726000Y-81799000D02*
X109726000Y-82179000D01*
X106556000Y-81799000D02*
X109726000Y-81799000D01*
X106556000Y-85099000D02*
X106556000Y-81799000D01*
X106556000Y-85099000D02*
X109726000Y-85099000D01*
X106556000Y-86799000D02*
X109726000Y-86799000D01*
X106556000Y-90109000D02*
X106556000Y-86799000D01*
X106556000Y-90109000D02*
X109726000Y-90109000D01*
X105916000Y-81419000D02*
X104016000Y-81419000D01*
X105916000Y-85479000D02*
X110486000Y-85479000D01*
X105916000Y-85479000D02*
X105916000Y-81419000D01*
X105916000Y-90489000D02*
X104016000Y-90489000D01*
X105916000Y-86419000D02*
X110486000Y-86419000D01*
X105916000Y-86419000D02*
X105916000Y-90489000D01*
X104016000Y-81419000D02*
X104016000Y-85479000D01*
X104016000Y-80859000D02*
X104016000Y-81419000D01*
X110486000Y-81419000D02*
X105916000Y-81419000D01*
X104016000Y-85479000D02*
X104016000Y-86419000D01*
X104016000Y-85479000D02*
X105916000Y-85479000D01*
X104016000Y-90489000D02*
X104016000Y-91049000D01*
X104016000Y-86419000D02*
X104016000Y-90489000D01*
X110486000Y-90489000D02*
X105916000Y-90489000D01*
X104016000Y-86419000D02*
X105916000Y-86419000D01*
X106426000Y-91549000D02*
X104776000Y-91549000D01*
X106176000Y-91049000D02*
X105026000Y-91049000D01*
X106426000Y-91549000D02*
X106176000Y-91049000D01*
X105026000Y-91049000D02*
X104016000Y-91049000D01*
X104776000Y-91549000D02*
X105026000Y-91049000D01*
X111636000Y-91549000D02*
X111886000Y-91049000D01*
X116456000Y-91549000D02*
X111636000Y-91549000D01*
X116456000Y-91049000D02*
X116456000Y-91549000D01*
X116456000Y-91049000D02*
X116456000Y-80859000D01*
X116456000Y-91049000D02*
X113406000Y-91049000D01*
X107696000Y-87179000D02*
X110486000Y-87179000D01*
X110486000Y-87179000D02*
X110486000Y-89719000D01*
X107696000Y-89719000D02*
X110486000Y-89719000D01*
X107696000Y-87179000D02*
X107696000Y-89719000D01*
X107696000Y-82179000D02*
X110486000Y-82179000D01*
X110486000Y-82179000D02*
X110486000Y-84719000D01*
X107696000Y-84719000D02*
X110486000Y-84719000D01*
X107696000Y-82179000D02*
X107696000Y-84719000D01*
G04 #@! TO.C,Q1*
X86045000Y-100928000D02*
X88945000Y-100928000D01*
X88945000Y-100928000D02*
X88945000Y-105828000D01*
X88945000Y-105828000D02*
X85045000Y-105828000D01*
X85045000Y-105828000D02*
X85045000Y-101928000D01*
X85045000Y-101928000D02*
X86045000Y-100928000D01*
G04 #@! TO.C,Q2*
X80070000Y-100489000D02*
X80070000Y-105489000D01*
X74870000Y-99489000D02*
X79070000Y-99489000D01*
X74870000Y-105489000D02*
X74870000Y-99489000D01*
X80070000Y-105489000D02*
X74870000Y-105489000D01*
X80070000Y-100489000D02*
X79070000Y-99489000D01*
G04 #@! TO.C,R1*
X93980000Y-110744000D02*
X92130000Y-110744000D01*
X81280000Y-110744000D02*
X83130000Y-110744000D01*
X92130000Y-109144000D02*
X83130000Y-109144000D01*
X92130000Y-112344000D02*
X92130000Y-109144000D01*
X83130000Y-112344000D02*
X92130000Y-112344000D01*
X83130000Y-109144000D02*
X83130000Y-112344000D01*
G04 #@! TO.C,R2*
X92257000Y-119964000D02*
X92257000Y-116764000D01*
X92257000Y-116764000D02*
X83257000Y-116764000D01*
X83257000Y-116764000D02*
X83257000Y-119964000D01*
X83257000Y-119964000D02*
X92257000Y-119964000D01*
X94107000Y-118364000D02*
X92257000Y-118364000D01*
X81407000Y-118364000D02*
X83257000Y-118364000D01*
G04 #@! TO.C,R3*
X113157000Y-113411000D02*
X113157000Y-115261000D01*
X113157000Y-126111000D02*
X113157000Y-124261000D01*
X111557000Y-115261000D02*
X111557000Y-124261000D01*
X114757000Y-115261000D02*
X111557000Y-115261000D01*
X114757000Y-124261000D02*
X114757000Y-115261000D01*
X111557000Y-124261000D02*
X114757000Y-124261000D01*
G04 #@! TO.C,R5*
X100914000Y-103323000D02*
X97714000Y-103323000D01*
X97714000Y-103323000D02*
X97714000Y-112323000D01*
X97714000Y-112323000D02*
X100914000Y-112323000D01*
X100914000Y-112323000D02*
X100914000Y-103323000D01*
X99314000Y-101473000D02*
X99314000Y-103323000D01*
X99314000Y-114173000D02*
X99314000Y-112323000D01*
G04 #@! TD*
G04 #@! TO.C,REF\002A\002A*
D11*
X37593523Y-127315380D02*
X37593523Y-126315380D01*
X37926857Y-127029666D01*
X38260190Y-126315380D01*
X38260190Y-127315380D01*
X38879238Y-127315380D02*
X38783999Y-127267761D01*
X38736380Y-127220142D01*
X38688761Y-127124904D01*
X38688761Y-126839190D01*
X38736380Y-126743952D01*
X38783999Y-126696333D01*
X38879238Y-126648714D01*
X39022095Y-126648714D01*
X39117333Y-126696333D01*
X39164952Y-126743952D01*
X39212571Y-126839190D01*
X39212571Y-127124904D01*
X39164952Y-127220142D01*
X39117333Y-127267761D01*
X39022095Y-127315380D01*
X38879238Y-127315380D01*
X40069714Y-126648714D02*
X40069714Y-127315380D01*
X39641142Y-126648714D02*
X39641142Y-127172523D01*
X39688761Y-127267761D01*
X39783999Y-127315380D01*
X39926857Y-127315380D01*
X40022095Y-127267761D01*
X40069714Y-127220142D01*
X40545904Y-126648714D02*
X40545904Y-127315380D01*
X40545904Y-126743952D02*
X40593523Y-126696333D01*
X40688761Y-126648714D01*
X40831619Y-126648714D01*
X40926857Y-126696333D01*
X40974476Y-126791571D01*
X40974476Y-127315380D01*
X41307809Y-126648714D02*
X41688761Y-126648714D01*
X41450666Y-126315380D02*
X41450666Y-127172523D01*
X41498285Y-127267761D01*
X41593523Y-127315380D01*
X41688761Y-127315380D01*
X42022095Y-127315380D02*
X42022095Y-126648714D01*
X42022095Y-126315380D02*
X41974476Y-126363000D01*
X42022095Y-126410619D01*
X42069714Y-126363000D01*
X42022095Y-126315380D01*
X42022095Y-126410619D01*
X42498285Y-126648714D02*
X42498285Y-127315380D01*
X42498285Y-126743952D02*
X42545904Y-126696333D01*
X42641142Y-126648714D01*
X42783999Y-126648714D01*
X42879238Y-126696333D01*
X42926857Y-126791571D01*
X42926857Y-127315380D01*
X43831619Y-126648714D02*
X43831619Y-127458238D01*
X43783999Y-127553476D01*
X43736380Y-127601095D01*
X43641142Y-127648714D01*
X43498285Y-127648714D01*
X43403047Y-127601095D01*
X43831619Y-127267761D02*
X43736380Y-127315380D01*
X43545904Y-127315380D01*
X43450666Y-127267761D01*
X43403047Y-127220142D01*
X43355428Y-127124904D01*
X43355428Y-126839190D01*
X43403047Y-126743952D01*
X43450666Y-126696333D01*
X43545904Y-126648714D01*
X43736380Y-126648714D01*
X43831619Y-126696333D01*
X44307809Y-127315380D02*
X44307809Y-126315380D01*
X44307809Y-126791571D02*
X44879238Y-126791571D01*
X44879238Y-127315380D02*
X44879238Y-126315380D01*
X45498285Y-127315380D02*
X45403047Y-127267761D01*
X45355428Y-127220142D01*
X45307809Y-127124904D01*
X45307809Y-126839190D01*
X45355428Y-126743952D01*
X45403047Y-126696333D01*
X45498285Y-126648714D01*
X45641142Y-126648714D01*
X45736380Y-126696333D01*
X45783999Y-126743952D01*
X45831619Y-126839190D01*
X45831619Y-127124904D01*
X45783999Y-127220142D01*
X45736380Y-127267761D01*
X45641142Y-127315380D01*
X45498285Y-127315380D01*
X46403047Y-127315380D02*
X46307809Y-127267761D01*
X46260190Y-127172523D01*
X46260190Y-126315380D01*
X47164952Y-127267761D02*
X47069714Y-127315380D01*
X46879238Y-127315380D01*
X46783999Y-127267761D01*
X46736380Y-127172523D01*
X46736380Y-126791571D01*
X46783999Y-126696333D01*
X46879238Y-126648714D01*
X47069714Y-126648714D01*
X47164952Y-126696333D01*
X47212571Y-126791571D01*
X47212571Y-126886809D01*
X46736380Y-126982047D01*
X47403047Y-127410619D02*
X48164952Y-127410619D01*
X48307809Y-126315380D02*
X48926857Y-126315380D01*
X48593523Y-126696333D01*
X48736380Y-126696333D01*
X48831619Y-126743952D01*
X48879238Y-126791571D01*
X48926857Y-126886809D01*
X48926857Y-127124904D01*
X48879238Y-127220142D01*
X48831619Y-127267761D01*
X48736380Y-127315380D01*
X48450666Y-127315380D01*
X48355428Y-127267761D01*
X48307809Y-127220142D01*
X49355428Y-127220142D02*
X49403047Y-127267761D01*
X49355428Y-127315380D01*
X49307809Y-127267761D01*
X49355428Y-127220142D01*
X49355428Y-127315380D01*
X49783999Y-126410619D02*
X49831619Y-126363000D01*
X49926857Y-126315380D01*
X50164952Y-126315380D01*
X50260190Y-126363000D01*
X50307809Y-126410619D01*
X50355428Y-126505857D01*
X50355428Y-126601095D01*
X50307809Y-126743952D01*
X49736380Y-127315380D01*
X50355428Y-127315380D01*
X50783999Y-127315380D02*
X50783999Y-126648714D01*
X50783999Y-126743952D02*
X50831619Y-126696333D01*
X50926857Y-126648714D01*
X51069714Y-126648714D01*
X51164952Y-126696333D01*
X51212571Y-126791571D01*
X51212571Y-127315380D01*
X51212571Y-126791571D02*
X51260190Y-126696333D01*
X51355428Y-126648714D01*
X51498285Y-126648714D01*
X51593523Y-126696333D01*
X51641142Y-126791571D01*
X51641142Y-127315380D01*
X52117333Y-127315380D02*
X52117333Y-126648714D01*
X52117333Y-126743952D02*
X52164952Y-126696333D01*
X52260190Y-126648714D01*
X52403047Y-126648714D01*
X52498285Y-126696333D01*
X52545904Y-126791571D01*
X52545904Y-127315380D01*
X52545904Y-126791571D02*
X52593523Y-126696333D01*
X52688761Y-126648714D01*
X52831619Y-126648714D01*
X52926857Y-126696333D01*
X52974476Y-126791571D01*
X52974476Y-127315380D01*
X53212571Y-127410619D02*
X53974476Y-127410619D01*
X54212571Y-127315380D02*
X54212571Y-126315380D01*
X54545904Y-127029666D01*
X54879238Y-126315380D01*
X54879238Y-127315380D01*
X55260190Y-126315380D02*
X55879238Y-126315380D01*
X55545904Y-126696333D01*
X55688761Y-126696333D01*
X55783999Y-126743952D01*
X55831619Y-126791571D01*
X55879238Y-126886809D01*
X55879238Y-127124904D01*
X55831619Y-127220142D01*
X55783999Y-127267761D01*
X55688761Y-127315380D01*
X55403047Y-127315380D01*
X55307809Y-127267761D01*
X55260190Y-127220142D01*
X56069714Y-127410619D02*
X56831619Y-127410619D01*
X57069714Y-127315380D02*
X57069714Y-126315380D01*
X57307809Y-126315380D01*
X57450666Y-126363000D01*
X57545904Y-126458238D01*
X57593523Y-126553476D01*
X57641142Y-126743952D01*
X57641142Y-126886809D01*
X57593523Y-127077285D01*
X57545904Y-127172523D01*
X57450666Y-127267761D01*
X57307809Y-127315380D01*
X57069714Y-127315380D01*
X58069714Y-127315380D02*
X58069714Y-126315380D01*
X58545904Y-127315380D02*
X58545904Y-126315380D01*
X59117333Y-127315380D01*
X59117333Y-126315380D01*
X59641142Y-127315380D02*
X59831619Y-127315380D01*
X59926857Y-127267761D01*
X59974476Y-127220142D01*
X60069714Y-127077285D01*
X60117333Y-126886809D01*
X60117333Y-126505857D01*
X60069714Y-126410619D01*
X60022095Y-126363000D01*
X59926857Y-126315380D01*
X59736380Y-126315380D01*
X59641142Y-126363000D01*
X59593523Y-126410619D01*
X59545904Y-126505857D01*
X59545904Y-126743952D01*
X59593523Y-126839190D01*
X59641142Y-126886809D01*
X59736380Y-126934428D01*
X59926857Y-126934428D01*
X60022095Y-126886809D01*
X60069714Y-126839190D01*
X60117333Y-126743952D01*
X60974476Y-126315380D02*
X60783999Y-126315380D01*
X60688761Y-126363000D01*
X60641142Y-126410619D01*
X60545904Y-126553476D01*
X60498285Y-126743952D01*
X60498285Y-127124904D01*
X60545904Y-127220142D01*
X60593523Y-127267761D01*
X60688761Y-127315380D01*
X60879238Y-127315380D01*
X60974476Y-127267761D01*
X61022095Y-127220142D01*
X61069714Y-127124904D01*
X61069714Y-126886809D01*
X61022095Y-126791571D01*
X60974476Y-126743952D01*
X60879238Y-126696333D01*
X60688761Y-126696333D01*
X60593523Y-126743952D01*
X60545904Y-126791571D01*
X60498285Y-126886809D01*
X61974476Y-126315380D02*
X61498285Y-126315380D01*
X61450666Y-126791571D01*
X61498285Y-126743952D01*
X61593523Y-126696333D01*
X61831619Y-126696333D01*
X61926857Y-126743952D01*
X61974476Y-126791571D01*
X62022095Y-126886809D01*
X62022095Y-127124904D01*
X61974476Y-127220142D01*
X61926857Y-127267761D01*
X61831619Y-127315380D01*
X61593523Y-127315380D01*
X61498285Y-127267761D01*
X61450666Y-127220142D01*
X48750666Y-123515380D02*
X48417333Y-123039190D01*
X48179238Y-123515380D02*
X48179238Y-122515380D01*
X48560190Y-122515380D01*
X48655428Y-122563000D01*
X48703047Y-122610619D01*
X48750666Y-122705857D01*
X48750666Y-122848714D01*
X48703047Y-122943952D01*
X48655428Y-122991571D01*
X48560190Y-123039190D01*
X48179238Y-123039190D01*
X49179238Y-122991571D02*
X49512571Y-122991571D01*
X49655428Y-123515380D02*
X49179238Y-123515380D01*
X49179238Y-122515380D01*
X49655428Y-122515380D01*
X50417333Y-122991571D02*
X50084000Y-122991571D01*
X50084000Y-123515380D02*
X50084000Y-122515380D01*
X50560190Y-122515380D01*
X51084000Y-122515380D02*
X51084000Y-122753476D01*
X50845904Y-122658238D02*
X51084000Y-122753476D01*
X51322095Y-122658238D01*
X50941142Y-122943952D02*
X51084000Y-122753476D01*
X51226857Y-122943952D01*
X51845904Y-122515380D02*
X51845904Y-122753476D01*
X51607809Y-122658238D02*
X51845904Y-122753476D01*
X52084000Y-122658238D01*
X51703047Y-122943952D02*
X51845904Y-122753476D01*
X51988761Y-122943952D01*
X98553523Y-76515380D02*
X98553523Y-75515380D01*
X98886857Y-76229666D01*
X99220190Y-75515380D01*
X99220190Y-76515380D01*
X99839238Y-76515380D02*
X99744000Y-76467761D01*
X99696380Y-76420142D01*
X99648761Y-76324904D01*
X99648761Y-76039190D01*
X99696380Y-75943952D01*
X99744000Y-75896333D01*
X99839238Y-75848714D01*
X99982095Y-75848714D01*
X100077333Y-75896333D01*
X100124952Y-75943952D01*
X100172571Y-76039190D01*
X100172571Y-76324904D01*
X100124952Y-76420142D01*
X100077333Y-76467761D01*
X99982095Y-76515380D01*
X99839238Y-76515380D01*
X101029714Y-75848714D02*
X101029714Y-76515380D01*
X100601142Y-75848714D02*
X100601142Y-76372523D01*
X100648761Y-76467761D01*
X100744000Y-76515380D01*
X100886857Y-76515380D01*
X100982095Y-76467761D01*
X101029714Y-76420142D01*
X101505904Y-75848714D02*
X101505904Y-76515380D01*
X101505904Y-75943952D02*
X101553523Y-75896333D01*
X101648761Y-75848714D01*
X101791619Y-75848714D01*
X101886857Y-75896333D01*
X101934476Y-75991571D01*
X101934476Y-76515380D01*
X102267809Y-75848714D02*
X102648761Y-75848714D01*
X102410666Y-75515380D02*
X102410666Y-76372523D01*
X102458285Y-76467761D01*
X102553523Y-76515380D01*
X102648761Y-76515380D01*
X102982095Y-76515380D02*
X102982095Y-75848714D01*
X102982095Y-75515380D02*
X102934476Y-75563000D01*
X102982095Y-75610619D01*
X103029714Y-75563000D01*
X102982095Y-75515380D01*
X102982095Y-75610619D01*
X103458285Y-75848714D02*
X103458285Y-76515380D01*
X103458285Y-75943952D02*
X103505904Y-75896333D01*
X103601142Y-75848714D01*
X103744000Y-75848714D01*
X103839238Y-75896333D01*
X103886857Y-75991571D01*
X103886857Y-76515380D01*
X104791619Y-75848714D02*
X104791619Y-76658238D01*
X104744000Y-76753476D01*
X104696380Y-76801095D01*
X104601142Y-76848714D01*
X104458285Y-76848714D01*
X104363047Y-76801095D01*
X104791619Y-76467761D02*
X104696380Y-76515380D01*
X104505904Y-76515380D01*
X104410666Y-76467761D01*
X104363047Y-76420142D01*
X104315428Y-76324904D01*
X104315428Y-76039190D01*
X104363047Y-75943952D01*
X104410666Y-75896333D01*
X104505904Y-75848714D01*
X104696380Y-75848714D01*
X104791619Y-75896333D01*
X105267809Y-76515380D02*
X105267809Y-75515380D01*
X105267809Y-75991571D02*
X105839238Y-75991571D01*
X105839238Y-76515380D02*
X105839238Y-75515380D01*
X106458285Y-76515380D02*
X106363047Y-76467761D01*
X106315428Y-76420142D01*
X106267809Y-76324904D01*
X106267809Y-76039190D01*
X106315428Y-75943952D01*
X106363047Y-75896333D01*
X106458285Y-75848714D01*
X106601142Y-75848714D01*
X106696380Y-75896333D01*
X106744000Y-75943952D01*
X106791619Y-76039190D01*
X106791619Y-76324904D01*
X106744000Y-76420142D01*
X106696380Y-76467761D01*
X106601142Y-76515380D01*
X106458285Y-76515380D01*
X107363047Y-76515380D02*
X107267809Y-76467761D01*
X107220190Y-76372523D01*
X107220190Y-75515380D01*
X108124952Y-76467761D02*
X108029714Y-76515380D01*
X107839238Y-76515380D01*
X107744000Y-76467761D01*
X107696380Y-76372523D01*
X107696380Y-75991571D01*
X107744000Y-75896333D01*
X107839238Y-75848714D01*
X108029714Y-75848714D01*
X108124952Y-75896333D01*
X108172571Y-75991571D01*
X108172571Y-76086809D01*
X107696380Y-76182047D01*
X108363047Y-76610619D02*
X109124952Y-76610619D01*
X109267809Y-75515380D02*
X109886857Y-75515380D01*
X109553523Y-75896333D01*
X109696380Y-75896333D01*
X109791619Y-75943952D01*
X109839238Y-75991571D01*
X109886857Y-76086809D01*
X109886857Y-76324904D01*
X109839238Y-76420142D01*
X109791619Y-76467761D01*
X109696380Y-76515380D01*
X109410666Y-76515380D01*
X109315428Y-76467761D01*
X109267809Y-76420142D01*
X110315428Y-76420142D02*
X110363047Y-76467761D01*
X110315428Y-76515380D01*
X110267809Y-76467761D01*
X110315428Y-76420142D01*
X110315428Y-76515380D01*
X110743999Y-75610619D02*
X110791619Y-75563000D01*
X110886857Y-75515380D01*
X111124952Y-75515380D01*
X111220190Y-75563000D01*
X111267809Y-75610619D01*
X111315428Y-75705857D01*
X111315428Y-75801095D01*
X111267809Y-75943952D01*
X110696380Y-76515380D01*
X111315428Y-76515380D01*
X111743999Y-76515380D02*
X111743999Y-75848714D01*
X111743999Y-75943952D02*
X111791619Y-75896333D01*
X111886857Y-75848714D01*
X112029714Y-75848714D01*
X112124952Y-75896333D01*
X112172571Y-75991571D01*
X112172571Y-76515380D01*
X112172571Y-75991571D02*
X112220190Y-75896333D01*
X112315428Y-75848714D01*
X112458285Y-75848714D01*
X112553523Y-75896333D01*
X112601142Y-75991571D01*
X112601142Y-76515380D01*
X113077333Y-76515380D02*
X113077333Y-75848714D01*
X113077333Y-75943952D02*
X113124952Y-75896333D01*
X113220190Y-75848714D01*
X113363047Y-75848714D01*
X113458285Y-75896333D01*
X113505904Y-75991571D01*
X113505904Y-76515380D01*
X113505904Y-75991571D02*
X113553523Y-75896333D01*
X113648761Y-75848714D01*
X113791619Y-75848714D01*
X113886857Y-75896333D01*
X113934476Y-75991571D01*
X113934476Y-76515380D01*
X114172571Y-76610619D02*
X114934476Y-76610619D01*
X115172571Y-76515380D02*
X115172571Y-75515380D01*
X115505904Y-76229666D01*
X115839238Y-75515380D01*
X115839238Y-76515380D01*
X116220190Y-75515380D02*
X116839238Y-75515380D01*
X116505904Y-75896333D01*
X116648761Y-75896333D01*
X116744000Y-75943952D01*
X116791619Y-75991571D01*
X116839238Y-76086809D01*
X116839238Y-76324904D01*
X116791619Y-76420142D01*
X116744000Y-76467761D01*
X116648761Y-76515380D01*
X116363047Y-76515380D01*
X116267809Y-76467761D01*
X116220190Y-76420142D01*
X117029714Y-76610619D02*
X117791619Y-76610619D01*
X118029714Y-76515380D02*
X118029714Y-75515380D01*
X118267809Y-75515380D01*
X118410666Y-75563000D01*
X118505904Y-75658238D01*
X118553523Y-75753476D01*
X118601142Y-75943952D01*
X118601142Y-76086809D01*
X118553523Y-76277285D01*
X118505904Y-76372523D01*
X118410666Y-76467761D01*
X118267809Y-76515380D01*
X118029714Y-76515380D01*
X119029714Y-76515380D02*
X119029714Y-75515380D01*
X119505904Y-76515380D02*
X119505904Y-75515380D01*
X120077333Y-76515380D01*
X120077333Y-75515380D01*
X120601142Y-76515380D02*
X120791619Y-76515380D01*
X120886857Y-76467761D01*
X120934476Y-76420142D01*
X121029714Y-76277285D01*
X121077333Y-76086809D01*
X121077333Y-75705857D01*
X121029714Y-75610619D01*
X120982095Y-75563000D01*
X120886857Y-75515380D01*
X120696380Y-75515380D01*
X120601142Y-75563000D01*
X120553523Y-75610619D01*
X120505904Y-75705857D01*
X120505904Y-75943952D01*
X120553523Y-76039190D01*
X120601142Y-76086809D01*
X120696380Y-76134428D01*
X120886857Y-76134428D01*
X120982095Y-76086809D01*
X121029714Y-76039190D01*
X121077333Y-75943952D01*
X121934476Y-75515380D02*
X121744000Y-75515380D01*
X121648761Y-75563000D01*
X121601142Y-75610619D01*
X121505904Y-75753476D01*
X121458285Y-75943952D01*
X121458285Y-76324904D01*
X121505904Y-76420142D01*
X121553523Y-76467761D01*
X121648761Y-76515380D01*
X121839238Y-76515380D01*
X121934476Y-76467761D01*
X121982095Y-76420142D01*
X122029714Y-76324904D01*
X122029714Y-76086809D01*
X121982095Y-75991571D01*
X121934476Y-75943952D01*
X121839238Y-75896333D01*
X121648761Y-75896333D01*
X121553523Y-75943952D01*
X121505904Y-75991571D01*
X121458285Y-76086809D01*
X122934476Y-75515380D02*
X122458285Y-75515380D01*
X122410666Y-75991571D01*
X122458285Y-75943952D01*
X122553523Y-75896333D01*
X122791619Y-75896333D01*
X122886857Y-75943952D01*
X122934476Y-75991571D01*
X122982095Y-76086809D01*
X122982095Y-76324904D01*
X122934476Y-76420142D01*
X122886857Y-76467761D01*
X122791619Y-76515380D01*
X122553523Y-76515380D01*
X122458285Y-76467761D01*
X122410666Y-76420142D01*
X109710666Y-72715380D02*
X109377333Y-72239190D01*
X109139238Y-72715380D02*
X109139238Y-71715380D01*
X109520190Y-71715380D01*
X109615428Y-71763000D01*
X109663047Y-71810619D01*
X109710666Y-71905857D01*
X109710666Y-72048714D01*
X109663047Y-72143952D01*
X109615428Y-72191571D01*
X109520190Y-72239190D01*
X109139238Y-72239190D01*
X110139238Y-72191571D02*
X110472571Y-72191571D01*
X110615428Y-72715380D02*
X110139238Y-72715380D01*
X110139238Y-71715380D01*
X110615428Y-71715380D01*
X111377333Y-72191571D02*
X111044000Y-72191571D01*
X111044000Y-72715380D02*
X111044000Y-71715380D01*
X111520190Y-71715380D01*
X112044000Y-71715380D02*
X112044000Y-71953476D01*
X111805904Y-71858238D02*
X112044000Y-71953476D01*
X112282095Y-71858238D01*
X111901142Y-72143952D02*
X112044000Y-71953476D01*
X112186857Y-72143952D01*
X112805904Y-71715380D02*
X112805904Y-71953476D01*
X112567809Y-71858238D02*
X112805904Y-71953476D01*
X113044000Y-71858238D01*
X112663047Y-72143952D02*
X112805904Y-71953476D01*
X112948761Y-72143952D01*
G04 #@! TO.C,C2*
X65127142Y-88451666D02*
X65174761Y-88499285D01*
X65222380Y-88642142D01*
X65222380Y-88737380D01*
X65174761Y-88880238D01*
X65079523Y-88975476D01*
X64984285Y-89023095D01*
X64793809Y-89070714D01*
X64650952Y-89070714D01*
X64460476Y-89023095D01*
X64365238Y-88975476D01*
X64270000Y-88880238D01*
X64222380Y-88737380D01*
X64222380Y-88642142D01*
X64270000Y-88499285D01*
X64317619Y-88451666D01*
X64317619Y-88070714D02*
X64270000Y-88023095D01*
X64222380Y-87927857D01*
X64222380Y-87689761D01*
X64270000Y-87594523D01*
X64317619Y-87546904D01*
X64412857Y-87499285D01*
X64508095Y-87499285D01*
X64650952Y-87546904D01*
X65222380Y-88118333D01*
X65222380Y-87499285D01*
G04 #@! TO.C,C4*
X78807333Y-90273142D02*
X78759714Y-90320761D01*
X78616857Y-90368380D01*
X78521619Y-90368380D01*
X78378761Y-90320761D01*
X78283523Y-90225523D01*
X78235904Y-90130285D01*
X78188285Y-89939809D01*
X78188285Y-89796952D01*
X78235904Y-89606476D01*
X78283523Y-89511238D01*
X78378761Y-89416000D01*
X78521619Y-89368380D01*
X78616857Y-89368380D01*
X78759714Y-89416000D01*
X78807333Y-89463619D01*
X79664476Y-89701714D02*
X79664476Y-90368380D01*
X79426380Y-89320761D02*
X79188285Y-90035047D01*
X79807333Y-90035047D01*
G04 #@! TO.C,D2*
X94250142Y-100184380D02*
X93678714Y-100184380D01*
X93964428Y-100184380D02*
X93964428Y-99184380D01*
X93869190Y-99327238D01*
X93773952Y-99422476D01*
X93678714Y-99470095D01*
X94678714Y-100184380D02*
X94678714Y-99184380D01*
X95250142Y-100184380D01*
X95250142Y-99184380D01*
X96202523Y-99184380D02*
X95726333Y-99184380D01*
X95678714Y-99660571D01*
X95726333Y-99612952D01*
X95821571Y-99565333D01*
X96059666Y-99565333D01*
X96154904Y-99612952D01*
X96202523Y-99660571D01*
X96250142Y-99755809D01*
X96250142Y-99993904D01*
X96202523Y-100089142D01*
X96154904Y-100136761D01*
X96059666Y-100184380D01*
X95821571Y-100184380D01*
X95726333Y-100136761D01*
X95678714Y-100089142D01*
X96821571Y-99612952D02*
X96726333Y-99565333D01*
X96678714Y-99517714D01*
X96631095Y-99422476D01*
X96631095Y-99374857D01*
X96678714Y-99279619D01*
X96726333Y-99232000D01*
X96821571Y-99184380D01*
X97012047Y-99184380D01*
X97107285Y-99232000D01*
X97154904Y-99279619D01*
X97202523Y-99374857D01*
X97202523Y-99422476D01*
X97154904Y-99517714D01*
X97107285Y-99565333D01*
X97012047Y-99612952D01*
X96821571Y-99612952D01*
X96726333Y-99660571D01*
X96678714Y-99708190D01*
X96631095Y-99803428D01*
X96631095Y-99993904D01*
X96678714Y-100089142D01*
X96726333Y-100136761D01*
X96821571Y-100184380D01*
X97012047Y-100184380D01*
X97107285Y-100136761D01*
X97154904Y-100089142D01*
X97202523Y-99993904D01*
X97202523Y-99803428D01*
X97154904Y-99708190D01*
X97107285Y-99660571D01*
X97012047Y-99612952D01*
X97583476Y-99279619D02*
X97631095Y-99232000D01*
X97726333Y-99184380D01*
X97964428Y-99184380D01*
X98059666Y-99232000D01*
X98107285Y-99279619D01*
X98154904Y-99374857D01*
X98154904Y-99470095D01*
X98107285Y-99612952D01*
X97535857Y-100184380D01*
X98154904Y-100184380D01*
X98535857Y-99279619D02*
X98583476Y-99232000D01*
X98678714Y-99184380D01*
X98916809Y-99184380D01*
X99012047Y-99232000D01*
X99059666Y-99279619D01*
X99107285Y-99374857D01*
X99107285Y-99470095D01*
X99059666Y-99612952D01*
X98488238Y-100184380D01*
X99107285Y-100184380D01*
X96367404Y-96464380D02*
X96367404Y-95464380D01*
X96605500Y-95464380D01*
X96748357Y-95512000D01*
X96843595Y-95607238D01*
X96891214Y-95702476D01*
X96938833Y-95892952D01*
X96938833Y-96035809D01*
X96891214Y-96226285D01*
X96843595Y-96321523D01*
X96748357Y-96416761D01*
X96605500Y-96464380D01*
X96367404Y-96464380D01*
X97319785Y-95559619D02*
X97367404Y-95512000D01*
X97462642Y-95464380D01*
X97700738Y-95464380D01*
X97795976Y-95512000D01*
X97843595Y-95559619D01*
X97891214Y-95654857D01*
X97891214Y-95750095D01*
X97843595Y-95892952D01*
X97272166Y-96464380D01*
X97891214Y-96464380D01*
X88511095Y-93864380D02*
X88511095Y-92864380D01*
X89082523Y-93864380D02*
X88653952Y-93292952D01*
X89082523Y-92864380D02*
X88511095Y-93435809D01*
G04 #@! TO.C,J2*
X57237380Y-106378333D02*
X57951666Y-106378333D01*
X58094523Y-106425952D01*
X58189761Y-106521190D01*
X58237380Y-106664047D01*
X58237380Y-106759285D01*
X57332619Y-105949761D02*
X57285000Y-105902142D01*
X57237380Y-105806904D01*
X57237380Y-105568809D01*
X57285000Y-105473571D01*
X57332619Y-105425952D01*
X57427857Y-105378333D01*
X57523095Y-105378333D01*
X57665952Y-105425952D01*
X58237380Y-105997380D01*
X58237380Y-105378333D01*
G04 #@! TO.C,J3*
X66127380Y-105743333D02*
X66841666Y-105743333D01*
X66984523Y-105790952D01*
X67079761Y-105886190D01*
X67127380Y-106029047D01*
X67127380Y-106124285D01*
X66127380Y-105362380D02*
X66127380Y-104743333D01*
X66508333Y-105076666D01*
X66508333Y-104933809D01*
X66555952Y-104838571D01*
X66603571Y-104790952D01*
X66698809Y-104743333D01*
X66936904Y-104743333D01*
X67032142Y-104790952D01*
X67079761Y-104838571D01*
X67127380Y-104933809D01*
X67127380Y-105219523D01*
X67079761Y-105314761D01*
X67032142Y-105362380D01*
G04 #@! TO.C,L2*
X90368380Y-83760666D02*
X90368380Y-84236857D01*
X89368380Y-84236857D01*
X89463619Y-83474952D02*
X89416000Y-83427333D01*
X89368380Y-83332095D01*
X89368380Y-83094000D01*
X89416000Y-82998761D01*
X89463619Y-82951142D01*
X89558857Y-82903523D01*
X89654095Y-82903523D01*
X89796952Y-82951142D01*
X90368380Y-83522571D01*
X90368380Y-82903523D01*
G04 #@! TO.C,R4*
X81875333Y-71191380D02*
X81542000Y-70715190D01*
X81303904Y-71191380D02*
X81303904Y-70191380D01*
X81684857Y-70191380D01*
X81780095Y-70239000D01*
X81827714Y-70286619D01*
X81875333Y-70381857D01*
X81875333Y-70524714D01*
X81827714Y-70619952D01*
X81780095Y-70667571D01*
X81684857Y-70715190D01*
X81303904Y-70715190D01*
X82732476Y-70524714D02*
X82732476Y-71191380D01*
X82494380Y-70143761D02*
X82256285Y-70858047D01*
X82875333Y-70858047D01*
G04 #@! TO.C,RV1*
X110743761Y-102607380D02*
X110410428Y-102131190D01*
X110172333Y-102607380D02*
X110172333Y-101607380D01*
X110553285Y-101607380D01*
X110648523Y-101655000D01*
X110696142Y-101702619D01*
X110743761Y-101797857D01*
X110743761Y-101940714D01*
X110696142Y-102035952D01*
X110648523Y-102083571D01*
X110553285Y-102131190D01*
X110172333Y-102131190D01*
X111029476Y-101607380D02*
X111362809Y-102607380D01*
X111696142Y-101607380D01*
X112553285Y-102607380D02*
X111981857Y-102607380D01*
X112267571Y-102607380D02*
X112267571Y-101607380D01*
X112172333Y-101750238D01*
X112077095Y-101845476D01*
X111981857Y-101893095D01*
G04 #@! TO.C,RV2*
X97019380Y-73406238D02*
X96543190Y-73739571D01*
X97019380Y-73977666D02*
X96019380Y-73977666D01*
X96019380Y-73596714D01*
X96067000Y-73501476D01*
X96114619Y-73453857D01*
X96209857Y-73406238D01*
X96352714Y-73406238D01*
X96447952Y-73453857D01*
X96495571Y-73501476D01*
X96543190Y-73596714D01*
X96543190Y-73977666D01*
X96019380Y-73120523D02*
X97019380Y-72787190D01*
X96019380Y-72453857D01*
X96114619Y-72168142D02*
X96067000Y-72120523D01*
X96019380Y-72025285D01*
X96019380Y-71787190D01*
X96067000Y-71691952D01*
X96114619Y-71644333D01*
X96209857Y-71596714D01*
X96305095Y-71596714D01*
X96447952Y-71644333D01*
X97019380Y-72215761D01*
X97019380Y-71596714D01*
G04 #@! TO.C,U2*
X64233095Y-67602380D02*
X64233095Y-68411904D01*
X64280714Y-68507142D01*
X64328333Y-68554761D01*
X64423571Y-68602380D01*
X64614047Y-68602380D01*
X64709285Y-68554761D01*
X64756904Y-68507142D01*
X64804523Y-68411904D01*
X64804523Y-67602380D01*
X65233095Y-67697619D02*
X65280714Y-67650000D01*
X65375952Y-67602380D01*
X65614047Y-67602380D01*
X65709285Y-67650000D01*
X65756904Y-67697619D01*
X65804523Y-67792857D01*
X65804523Y-67888095D01*
X65756904Y-68030952D01*
X65185476Y-68602380D01*
X65804523Y-68602380D01*
G04 #@! TO.C,J1*
X58510380Y-87143809D02*
X59510380Y-86810476D01*
X58510380Y-86477142D01*
X59510380Y-86143809D02*
X58843714Y-86143809D01*
X58510380Y-86143809D02*
X58558000Y-86191428D01*
X58605619Y-86143809D01*
X58558000Y-86096190D01*
X58510380Y-86143809D01*
X58605619Y-86143809D01*
X58843714Y-85667619D02*
X59510380Y-85667619D01*
X58938952Y-85667619D02*
X58891333Y-85620000D01*
X58843714Y-85524761D01*
X58843714Y-85381904D01*
X58891333Y-85286666D01*
X58986571Y-85239047D01*
X59510380Y-85239047D01*
X48760380Y-86733333D02*
X49474666Y-86733333D01*
X49617523Y-86780952D01*
X49712761Y-86876190D01*
X49760380Y-87019047D01*
X49760380Y-87114285D01*
X49760380Y-85733333D02*
X49760380Y-86304761D01*
X49760380Y-86019047D02*
X48760380Y-86019047D01*
X48903238Y-86114285D01*
X48998476Y-86209523D01*
X49046095Y-86304761D01*
G04 #@! TO.C,J4*
X101938380Y-87742809D02*
X102938380Y-87409476D01*
X101938380Y-87076142D01*
X102938380Y-86599952D02*
X102890761Y-86695190D01*
X102843142Y-86742809D01*
X102747904Y-86790428D01*
X102462190Y-86790428D01*
X102366952Y-86742809D01*
X102319333Y-86695190D01*
X102271714Y-86599952D01*
X102271714Y-86457095D01*
X102319333Y-86361857D01*
X102366952Y-86314238D01*
X102462190Y-86266619D01*
X102747904Y-86266619D01*
X102843142Y-86314238D01*
X102890761Y-86361857D01*
X102938380Y-86457095D01*
X102938380Y-86599952D01*
X102271714Y-85409476D02*
X102938380Y-85409476D01*
X102271714Y-85838047D02*
X102795523Y-85838047D01*
X102890761Y-85790428D01*
X102938380Y-85695190D01*
X102938380Y-85552333D01*
X102890761Y-85457095D01*
X102843142Y-85409476D01*
X102271714Y-85076142D02*
X102271714Y-84695190D01*
X101938380Y-84933285D02*
X102795523Y-84933285D01*
X102890761Y-84885666D01*
X102938380Y-84790428D01*
X102938380Y-84695190D01*
X111688380Y-86272333D02*
X112402666Y-86272333D01*
X112545523Y-86319952D01*
X112640761Y-86415190D01*
X112688380Y-86558047D01*
X112688380Y-86653285D01*
X112021714Y-85367571D02*
X112688380Y-85367571D01*
X111640761Y-85605666D02*
X112355047Y-85843761D01*
X112355047Y-85224714D01*
G04 #@! TO.C,Q1*
X83852142Y-106663714D02*
X83852142Y-107663714D01*
X83852142Y-106711333D02*
X83947380Y-106663714D01*
X84137857Y-106663714D01*
X84233095Y-106711333D01*
X84280714Y-106758952D01*
X84328333Y-106854190D01*
X84328333Y-107139904D01*
X84280714Y-107235142D01*
X84233095Y-107282761D01*
X84137857Y-107330380D01*
X83947380Y-107330380D01*
X83852142Y-107282761D01*
X85185476Y-107282761D02*
X85090238Y-107330380D01*
X84899761Y-107330380D01*
X84804523Y-107282761D01*
X84756904Y-107235142D01*
X84709285Y-107139904D01*
X84709285Y-106854190D01*
X84756904Y-106758952D01*
X84804523Y-106711333D01*
X84899761Y-106663714D01*
X85090238Y-106663714D01*
X85185476Y-106711333D01*
X85614047Y-107330380D02*
X85614047Y-106330380D01*
X86042619Y-107330380D02*
X86042619Y-106806571D01*
X85995000Y-106711333D01*
X85899761Y-106663714D01*
X85756904Y-106663714D01*
X85661666Y-106711333D01*
X85614047Y-106758952D01*
X86947380Y-107330380D02*
X86947380Y-106806571D01*
X86899761Y-106711333D01*
X86804523Y-106663714D01*
X86614047Y-106663714D01*
X86518809Y-106711333D01*
X86947380Y-107282761D02*
X86852142Y-107330380D01*
X86614047Y-107330380D01*
X86518809Y-107282761D01*
X86471190Y-107187523D01*
X86471190Y-107092285D01*
X86518809Y-106997047D01*
X86614047Y-106949428D01*
X86852142Y-106949428D01*
X86947380Y-106901809D01*
X87423571Y-106663714D02*
X87423571Y-107330380D01*
X87423571Y-106758952D02*
X87471190Y-106711333D01*
X87566428Y-106663714D01*
X87709285Y-106663714D01*
X87804523Y-106711333D01*
X87852142Y-106806571D01*
X87852142Y-107330380D01*
X88328333Y-106663714D02*
X88328333Y-107330380D01*
X88328333Y-106758952D02*
X88375952Y-106711333D01*
X88471190Y-106663714D01*
X88614047Y-106663714D01*
X88709285Y-106711333D01*
X88756904Y-106806571D01*
X88756904Y-107330380D01*
X89614047Y-107282761D02*
X89518809Y-107330380D01*
X89328333Y-107330380D01*
X89233095Y-107282761D01*
X89185476Y-107187523D01*
X89185476Y-106806571D01*
X89233095Y-106711333D01*
X89328333Y-106663714D01*
X89518809Y-106663714D01*
X89614047Y-106711333D01*
X89661666Y-106806571D01*
X89661666Y-106901809D01*
X89185476Y-106997047D01*
X90233095Y-107330380D02*
X90137857Y-107282761D01*
X90090238Y-107187523D01*
X90090238Y-106330380D01*
X86899761Y-103925619D02*
X86804523Y-103878000D01*
X86709285Y-103782761D01*
X86566428Y-103639904D01*
X86471190Y-103592285D01*
X86375952Y-103592285D01*
X86423571Y-103830380D02*
X86328333Y-103782761D01*
X86233095Y-103687523D01*
X86185476Y-103497047D01*
X86185476Y-103163714D01*
X86233095Y-102973238D01*
X86328333Y-102878000D01*
X86423571Y-102830380D01*
X86614047Y-102830380D01*
X86709285Y-102878000D01*
X86804523Y-102973238D01*
X86852142Y-103163714D01*
X86852142Y-103497047D01*
X86804523Y-103687523D01*
X86709285Y-103782761D01*
X86614047Y-103830380D01*
X86423571Y-103830380D01*
X87804523Y-103830380D02*
X87233095Y-103830380D01*
X87518809Y-103830380D02*
X87518809Y-102830380D01*
X87423571Y-102973238D01*
X87328333Y-103068476D01*
X87233095Y-103116095D01*
G04 #@! TO.C,Q2*
X81255714Y-105631857D02*
X81922380Y-105631857D01*
X81350952Y-105631857D02*
X81303333Y-105584238D01*
X81255714Y-105489000D01*
X81255714Y-105346142D01*
X81303333Y-105250904D01*
X81398571Y-105203285D01*
X81922380Y-105203285D01*
X81874761Y-104298523D02*
X81922380Y-104393761D01*
X81922380Y-104584238D01*
X81874761Y-104679476D01*
X81827142Y-104727095D01*
X81731904Y-104774714D01*
X81446190Y-104774714D01*
X81350952Y-104727095D01*
X81303333Y-104679476D01*
X81255714Y-104584238D01*
X81255714Y-104393761D01*
X81303333Y-104298523D01*
X81922380Y-103869952D02*
X80922380Y-103869952D01*
X81922380Y-103441380D02*
X81398571Y-103441380D01*
X81303333Y-103489000D01*
X81255714Y-103584238D01*
X81255714Y-103727095D01*
X81303333Y-103822333D01*
X81350952Y-103869952D01*
X81922380Y-102536619D02*
X81398571Y-102536619D01*
X81303333Y-102584238D01*
X81255714Y-102679476D01*
X81255714Y-102869952D01*
X81303333Y-102965190D01*
X81874761Y-102536619D02*
X81922380Y-102631857D01*
X81922380Y-102869952D01*
X81874761Y-102965190D01*
X81779523Y-103012809D01*
X81684285Y-103012809D01*
X81589047Y-102965190D01*
X81541428Y-102869952D01*
X81541428Y-102631857D01*
X81493809Y-102536619D01*
X81255714Y-102060428D02*
X81922380Y-102060428D01*
X81350952Y-102060428D02*
X81303333Y-102012809D01*
X81255714Y-101917571D01*
X81255714Y-101774714D01*
X81303333Y-101679476D01*
X81398571Y-101631857D01*
X81922380Y-101631857D01*
X81255714Y-101155666D02*
X81922380Y-101155666D01*
X81350952Y-101155666D02*
X81303333Y-101108047D01*
X81255714Y-101012809D01*
X81255714Y-100869952D01*
X81303333Y-100774714D01*
X81398571Y-100727095D01*
X81922380Y-100727095D01*
X81874761Y-99869952D02*
X81922380Y-99965190D01*
X81922380Y-100155666D01*
X81874761Y-100250904D01*
X81779523Y-100298523D01*
X81398571Y-100298523D01*
X81303333Y-100250904D01*
X81255714Y-100155666D01*
X81255714Y-99965190D01*
X81303333Y-99869952D01*
X81398571Y-99822333D01*
X81493809Y-99822333D01*
X81589047Y-100298523D01*
X81922380Y-99250904D02*
X81874761Y-99346142D01*
X81779523Y-99393761D01*
X80922380Y-99393761D01*
X79017619Y-102584238D02*
X78970000Y-102679476D01*
X78874761Y-102774714D01*
X78731904Y-102917571D01*
X78684285Y-103012809D01*
X78684285Y-103108047D01*
X78922380Y-103060428D02*
X78874761Y-103155666D01*
X78779523Y-103250904D01*
X78589047Y-103298523D01*
X78255714Y-103298523D01*
X78065238Y-103250904D01*
X77970000Y-103155666D01*
X77922380Y-103060428D01*
X77922380Y-102869952D01*
X77970000Y-102774714D01*
X78065238Y-102679476D01*
X78255714Y-102631857D01*
X78589047Y-102631857D01*
X78779523Y-102679476D01*
X78874761Y-102774714D01*
X78922380Y-102869952D01*
X78922380Y-103060428D01*
X78017619Y-102250904D02*
X77970000Y-102203285D01*
X77922380Y-102108047D01*
X77922380Y-101869952D01*
X77970000Y-101774714D01*
X78017619Y-101727095D01*
X78112857Y-101679476D01*
X78208095Y-101679476D01*
X78350952Y-101727095D01*
X78922380Y-102298523D01*
X78922380Y-101679476D01*
G04 #@! TO.C,R1*
X87034761Y-113916380D02*
X86463333Y-113916380D01*
X86749047Y-113916380D02*
X86749047Y-112916380D01*
X86653809Y-113059238D01*
X86558571Y-113154476D01*
X86463333Y-113202095D01*
X87653809Y-112916380D02*
X87749047Y-112916380D01*
X87844285Y-112964000D01*
X87891904Y-113011619D01*
X87939523Y-113106857D01*
X87987142Y-113297333D01*
X87987142Y-113535428D01*
X87939523Y-113725904D01*
X87891904Y-113821142D01*
X87844285Y-113868761D01*
X87749047Y-113916380D01*
X87653809Y-113916380D01*
X87558571Y-113868761D01*
X87510952Y-113821142D01*
X87463333Y-113725904D01*
X87415714Y-113535428D01*
X87415714Y-113297333D01*
X87463333Y-113106857D01*
X87510952Y-113011619D01*
X87558571Y-112964000D01*
X87653809Y-112916380D01*
X88415714Y-113916380D02*
X88415714Y-112916380D01*
X88510952Y-113535428D02*
X88796666Y-113916380D01*
X88796666Y-113249714D02*
X88415714Y-113630666D01*
X87463333Y-111196380D02*
X87130000Y-110720190D01*
X86891904Y-111196380D02*
X86891904Y-110196380D01*
X87272857Y-110196380D01*
X87368095Y-110244000D01*
X87415714Y-110291619D01*
X87463333Y-110386857D01*
X87463333Y-110529714D01*
X87415714Y-110624952D01*
X87368095Y-110672571D01*
X87272857Y-110720190D01*
X86891904Y-110720190D01*
X88415714Y-111196380D02*
X87844285Y-111196380D01*
X88130000Y-111196380D02*
X88130000Y-110196380D01*
X88034761Y-110339238D01*
X87939523Y-110434476D01*
X87844285Y-110482095D01*
G04 #@! TO.C,R2*
X87161761Y-116096380D02*
X86590333Y-116096380D01*
X86876047Y-116096380D02*
X86876047Y-115096380D01*
X86780809Y-115239238D01*
X86685571Y-115334476D01*
X86590333Y-115382095D01*
X87780809Y-115096380D02*
X87876047Y-115096380D01*
X87971285Y-115144000D01*
X88018904Y-115191619D01*
X88066523Y-115286857D01*
X88114142Y-115477333D01*
X88114142Y-115715428D01*
X88066523Y-115905904D01*
X88018904Y-116001142D01*
X87971285Y-116048761D01*
X87876047Y-116096380D01*
X87780809Y-116096380D01*
X87685571Y-116048761D01*
X87637952Y-116001142D01*
X87590333Y-115905904D01*
X87542714Y-115715428D01*
X87542714Y-115477333D01*
X87590333Y-115286857D01*
X87637952Y-115191619D01*
X87685571Y-115144000D01*
X87780809Y-115096380D01*
X88542714Y-116096380D02*
X88542714Y-115096380D01*
X88637952Y-115715428D02*
X88923666Y-116096380D01*
X88923666Y-115429714D02*
X88542714Y-115810666D01*
X87590333Y-118816380D02*
X87257000Y-118340190D01*
X87018904Y-118816380D02*
X87018904Y-117816380D01*
X87399857Y-117816380D01*
X87495095Y-117864000D01*
X87542714Y-117911619D01*
X87590333Y-118006857D01*
X87590333Y-118149714D01*
X87542714Y-118244952D01*
X87495095Y-118292571D01*
X87399857Y-118340190D01*
X87018904Y-118340190D01*
X87971285Y-117911619D02*
X88018904Y-117864000D01*
X88114142Y-117816380D01*
X88352238Y-117816380D01*
X88447476Y-117864000D01*
X88495095Y-117911619D01*
X88542714Y-118006857D01*
X88542714Y-118102095D01*
X88495095Y-118244952D01*
X87923666Y-118816380D01*
X88542714Y-118816380D01*
G04 #@! TO.C,R3*
X116329380Y-119451476D02*
X115853190Y-119784809D01*
X116329380Y-120022904D02*
X115329380Y-120022904D01*
X115329380Y-119641952D01*
X115377000Y-119546714D01*
X115424619Y-119499095D01*
X115519857Y-119451476D01*
X115662714Y-119451476D01*
X115757952Y-119499095D01*
X115805571Y-119546714D01*
X115853190Y-119641952D01*
X115853190Y-120022904D01*
X113609380Y-119927666D02*
X113133190Y-120261000D01*
X113609380Y-120499095D02*
X112609380Y-120499095D01*
X112609380Y-120118142D01*
X112657000Y-120022904D01*
X112704619Y-119975285D01*
X112799857Y-119927666D01*
X112942714Y-119927666D01*
X113037952Y-119975285D01*
X113085571Y-120022904D01*
X113133190Y-120118142D01*
X113133190Y-120499095D01*
X112609380Y-119594333D02*
X112609380Y-118975285D01*
X112990333Y-119308619D01*
X112990333Y-119165761D01*
X113037952Y-119070523D01*
X113085571Y-119022904D01*
X113180809Y-118975285D01*
X113418904Y-118975285D01*
X113514142Y-119022904D01*
X113561761Y-119070523D01*
X113609380Y-119165761D01*
X113609380Y-119451476D01*
X113561761Y-119546714D01*
X113514142Y-119594333D01*
G04 #@! TO.C,R5*
X97046380Y-107942047D02*
X97046380Y-108513476D01*
X97046380Y-108227761D02*
X96046380Y-108227761D01*
X96189238Y-108323000D01*
X96284476Y-108418238D01*
X96332095Y-108513476D01*
X97046380Y-107513476D02*
X96046380Y-107513476D01*
X96665428Y-107418238D02*
X97046380Y-107132523D01*
X96379714Y-107132523D02*
X96760666Y-107513476D01*
X99766380Y-107989666D02*
X99290190Y-108323000D01*
X99766380Y-108561095D02*
X98766380Y-108561095D01*
X98766380Y-108180142D01*
X98814000Y-108084904D01*
X98861619Y-108037285D01*
X98956857Y-107989666D01*
X99099714Y-107989666D01*
X99194952Y-108037285D01*
X99242571Y-108084904D01*
X99290190Y-108180142D01*
X99290190Y-108561095D01*
X98766380Y-107084904D02*
X98766380Y-107561095D01*
X99242571Y-107608714D01*
X99194952Y-107561095D01*
X99147333Y-107465857D01*
X99147333Y-107227761D01*
X99194952Y-107132523D01*
X99242571Y-107084904D01*
X99337809Y-107037285D01*
X99575904Y-107037285D01*
X99671142Y-107084904D01*
X99718761Y-107132523D01*
X99766380Y-107227761D01*
X99766380Y-107465857D01*
X99718761Y-107561095D01*
X99671142Y-107608714D01*
G04 #@! TO.C,REF\002A\002A*
X37593523Y-76515380D02*
X37593523Y-75515380D01*
X37926857Y-76229666D01*
X38260190Y-75515380D01*
X38260190Y-76515380D01*
X38879238Y-76515380D02*
X38783999Y-76467761D01*
X38736380Y-76420142D01*
X38688761Y-76324904D01*
X38688761Y-76039190D01*
X38736380Y-75943952D01*
X38783999Y-75896333D01*
X38879238Y-75848714D01*
X39022095Y-75848714D01*
X39117333Y-75896333D01*
X39164952Y-75943952D01*
X39212571Y-76039190D01*
X39212571Y-76324904D01*
X39164952Y-76420142D01*
X39117333Y-76467761D01*
X39022095Y-76515380D01*
X38879238Y-76515380D01*
X40069714Y-75848714D02*
X40069714Y-76515380D01*
X39641142Y-75848714D02*
X39641142Y-76372523D01*
X39688761Y-76467761D01*
X39783999Y-76515380D01*
X39926857Y-76515380D01*
X40022095Y-76467761D01*
X40069714Y-76420142D01*
X40545904Y-75848714D02*
X40545904Y-76515380D01*
X40545904Y-75943952D02*
X40593523Y-75896333D01*
X40688761Y-75848714D01*
X40831619Y-75848714D01*
X40926857Y-75896333D01*
X40974476Y-75991571D01*
X40974476Y-76515380D01*
X41307809Y-75848714D02*
X41688761Y-75848714D01*
X41450666Y-75515380D02*
X41450666Y-76372523D01*
X41498285Y-76467761D01*
X41593523Y-76515380D01*
X41688761Y-76515380D01*
X42022095Y-76515380D02*
X42022095Y-75848714D01*
X42022095Y-75515380D02*
X41974476Y-75563000D01*
X42022095Y-75610619D01*
X42069714Y-75563000D01*
X42022095Y-75515380D01*
X42022095Y-75610619D01*
X42498285Y-75848714D02*
X42498285Y-76515380D01*
X42498285Y-75943952D02*
X42545904Y-75896333D01*
X42641142Y-75848714D01*
X42783999Y-75848714D01*
X42879238Y-75896333D01*
X42926857Y-75991571D01*
X42926857Y-76515380D01*
X43831619Y-75848714D02*
X43831619Y-76658238D01*
X43783999Y-76753476D01*
X43736380Y-76801095D01*
X43641142Y-76848714D01*
X43498285Y-76848714D01*
X43403047Y-76801095D01*
X43831619Y-76467761D02*
X43736380Y-76515380D01*
X43545904Y-76515380D01*
X43450666Y-76467761D01*
X43403047Y-76420142D01*
X43355428Y-76324904D01*
X43355428Y-76039190D01*
X43403047Y-75943952D01*
X43450666Y-75896333D01*
X43545904Y-75848714D01*
X43736380Y-75848714D01*
X43831619Y-75896333D01*
X44307809Y-76515380D02*
X44307809Y-75515380D01*
X44307809Y-75991571D02*
X44879238Y-75991571D01*
X44879238Y-76515380D02*
X44879238Y-75515380D01*
X45498285Y-76515380D02*
X45403047Y-76467761D01*
X45355428Y-76420142D01*
X45307809Y-76324904D01*
X45307809Y-76039190D01*
X45355428Y-75943952D01*
X45403047Y-75896333D01*
X45498285Y-75848714D01*
X45641142Y-75848714D01*
X45736380Y-75896333D01*
X45783999Y-75943952D01*
X45831619Y-76039190D01*
X45831619Y-76324904D01*
X45783999Y-76420142D01*
X45736380Y-76467761D01*
X45641142Y-76515380D01*
X45498285Y-76515380D01*
X46403047Y-76515380D02*
X46307809Y-76467761D01*
X46260190Y-76372523D01*
X46260190Y-75515380D01*
X47164952Y-76467761D02*
X47069714Y-76515380D01*
X46879238Y-76515380D01*
X46783999Y-76467761D01*
X46736380Y-76372523D01*
X46736380Y-75991571D01*
X46783999Y-75896333D01*
X46879238Y-75848714D01*
X47069714Y-75848714D01*
X47164952Y-75896333D01*
X47212571Y-75991571D01*
X47212571Y-76086809D01*
X46736380Y-76182047D01*
X47403047Y-76610619D02*
X48164952Y-76610619D01*
X48307809Y-75515380D02*
X48926857Y-75515380D01*
X48593523Y-75896333D01*
X48736380Y-75896333D01*
X48831619Y-75943952D01*
X48879238Y-75991571D01*
X48926857Y-76086809D01*
X48926857Y-76324904D01*
X48879238Y-76420142D01*
X48831619Y-76467761D01*
X48736380Y-76515380D01*
X48450666Y-76515380D01*
X48355428Y-76467761D01*
X48307809Y-76420142D01*
X49355428Y-76420142D02*
X49403047Y-76467761D01*
X49355428Y-76515380D01*
X49307809Y-76467761D01*
X49355428Y-76420142D01*
X49355428Y-76515380D01*
X49783999Y-75610619D02*
X49831619Y-75563000D01*
X49926857Y-75515380D01*
X50164952Y-75515380D01*
X50260190Y-75563000D01*
X50307809Y-75610619D01*
X50355428Y-75705857D01*
X50355428Y-75801095D01*
X50307809Y-75943952D01*
X49736380Y-76515380D01*
X50355428Y-76515380D01*
X50783999Y-76515380D02*
X50783999Y-75848714D01*
X50783999Y-75943952D02*
X50831619Y-75896333D01*
X50926857Y-75848714D01*
X51069714Y-75848714D01*
X51164952Y-75896333D01*
X51212571Y-75991571D01*
X51212571Y-76515380D01*
X51212571Y-75991571D02*
X51260190Y-75896333D01*
X51355428Y-75848714D01*
X51498285Y-75848714D01*
X51593523Y-75896333D01*
X51641142Y-75991571D01*
X51641142Y-76515380D01*
X52117333Y-76515380D02*
X52117333Y-75848714D01*
X52117333Y-75943952D02*
X52164952Y-75896333D01*
X52260190Y-75848714D01*
X52403047Y-75848714D01*
X52498285Y-75896333D01*
X52545904Y-75991571D01*
X52545904Y-76515380D01*
X52545904Y-75991571D02*
X52593523Y-75896333D01*
X52688761Y-75848714D01*
X52831619Y-75848714D01*
X52926857Y-75896333D01*
X52974476Y-75991571D01*
X52974476Y-76515380D01*
X53212571Y-76610619D02*
X53974476Y-76610619D01*
X54212571Y-76515380D02*
X54212571Y-75515380D01*
X54545904Y-76229666D01*
X54879238Y-75515380D01*
X54879238Y-76515380D01*
X55260190Y-75515380D02*
X55879238Y-75515380D01*
X55545904Y-75896333D01*
X55688761Y-75896333D01*
X55783999Y-75943952D01*
X55831619Y-75991571D01*
X55879238Y-76086809D01*
X55879238Y-76324904D01*
X55831619Y-76420142D01*
X55783999Y-76467761D01*
X55688761Y-76515380D01*
X55403047Y-76515380D01*
X55307809Y-76467761D01*
X55260190Y-76420142D01*
X56069714Y-76610619D02*
X56831619Y-76610619D01*
X57069714Y-76515380D02*
X57069714Y-75515380D01*
X57307809Y-75515380D01*
X57450666Y-75563000D01*
X57545904Y-75658238D01*
X57593523Y-75753476D01*
X57641142Y-75943952D01*
X57641142Y-76086809D01*
X57593523Y-76277285D01*
X57545904Y-76372523D01*
X57450666Y-76467761D01*
X57307809Y-76515380D01*
X57069714Y-76515380D01*
X58069714Y-76515380D02*
X58069714Y-75515380D01*
X58545904Y-76515380D02*
X58545904Y-75515380D01*
X59117333Y-76515380D01*
X59117333Y-75515380D01*
X59641142Y-76515380D02*
X59831619Y-76515380D01*
X59926857Y-76467761D01*
X59974476Y-76420142D01*
X60069714Y-76277285D01*
X60117333Y-76086809D01*
X60117333Y-75705857D01*
X60069714Y-75610619D01*
X60022095Y-75563000D01*
X59926857Y-75515380D01*
X59736380Y-75515380D01*
X59641142Y-75563000D01*
X59593523Y-75610619D01*
X59545904Y-75705857D01*
X59545904Y-75943952D01*
X59593523Y-76039190D01*
X59641142Y-76086809D01*
X59736380Y-76134428D01*
X59926857Y-76134428D01*
X60022095Y-76086809D01*
X60069714Y-76039190D01*
X60117333Y-75943952D01*
X60974476Y-75515380D02*
X60783999Y-75515380D01*
X60688761Y-75563000D01*
X60641142Y-75610619D01*
X60545904Y-75753476D01*
X60498285Y-75943952D01*
X60498285Y-76324904D01*
X60545904Y-76420142D01*
X60593523Y-76467761D01*
X60688761Y-76515380D01*
X60879238Y-76515380D01*
X60974476Y-76467761D01*
X61022095Y-76420142D01*
X61069714Y-76324904D01*
X61069714Y-76086809D01*
X61022095Y-75991571D01*
X60974476Y-75943952D01*
X60879238Y-75896333D01*
X60688761Y-75896333D01*
X60593523Y-75943952D01*
X60545904Y-75991571D01*
X60498285Y-76086809D01*
X61974476Y-75515380D02*
X61498285Y-75515380D01*
X61450666Y-75991571D01*
X61498285Y-75943952D01*
X61593523Y-75896333D01*
X61831619Y-75896333D01*
X61926857Y-75943952D01*
X61974476Y-75991571D01*
X62022095Y-76086809D01*
X62022095Y-76324904D01*
X61974476Y-76420142D01*
X61926857Y-76467761D01*
X61831619Y-76515380D01*
X61593523Y-76515380D01*
X61498285Y-76467761D01*
X61450666Y-76420142D01*
X48750666Y-72715380D02*
X48417333Y-72239190D01*
X48179238Y-72715380D02*
X48179238Y-71715380D01*
X48560190Y-71715380D01*
X48655428Y-71763000D01*
X48703047Y-71810619D01*
X48750666Y-71905857D01*
X48750666Y-72048714D01*
X48703047Y-72143952D01*
X48655428Y-72191571D01*
X48560190Y-72239190D01*
X48179238Y-72239190D01*
X49179238Y-72191571D02*
X49512571Y-72191571D01*
X49655428Y-72715380D02*
X49179238Y-72715380D01*
X49179238Y-71715380D01*
X49655428Y-71715380D01*
X50417333Y-72191571D02*
X50084000Y-72191571D01*
X50084000Y-72715380D02*
X50084000Y-71715380D01*
X50560190Y-71715380D01*
X51084000Y-71715380D02*
X51084000Y-71953476D01*
X50845904Y-71858238D02*
X51084000Y-71953476D01*
X51322095Y-71858238D01*
X50941142Y-72143952D02*
X51084000Y-71953476D01*
X51226857Y-72143952D01*
X51845904Y-71715380D02*
X51845904Y-71953476D01*
X51607809Y-71858238D02*
X51845904Y-71953476D01*
X52084000Y-71858238D01*
X51703047Y-72143952D02*
X51845904Y-71953476D01*
X51988761Y-72143952D01*
G04 #@! TD*
M02*
