G04 #@! TF.GenerationSoftware,KiCad,Pcbnew,5.0.2-bee76a0~70~ubuntu18.04.1*
G04 #@! TF.CreationDate,2019-02-20T20:23:57+00:00*
G04 #@! TF.ProjectId,lm2596_cc_vc,6c6d3235-3936-45f6-9363-5f76632e6b69,rev?*
G04 #@! TF.SameCoordinates,Original*
G04 #@! TF.FileFunction,Copper,L2,Bot*
G04 #@! TF.FilePolarity,Positive*
%FSLAX46Y46*%
G04 Gerber Fmt 4.6, Leading zero omitted, Abs format (unit mm)*
G04 Created by KiCad (PCBNEW 5.0.2-bee76a0~70~ubuntu18.04.1) date Wed 20 Feb 2019 20:23:57 GMT*
%MOMM*%
%LPD*%
G01*
G04 APERTURE LIST*
G04 #@! TA.AperFunction,ComponentPad*
%ADD10C,2.400000*%
G04 #@! TD*
G04 #@! TA.AperFunction,ComponentPad*
%ADD11R,1.600000X1.600000*%
G04 #@! TD*
G04 #@! TA.AperFunction,ComponentPad*
%ADD12O,1.600000X1.600000*%
G04 #@! TD*
G04 #@! TA.AperFunction,ComponentPad*
%ADD13C,2.100000*%
G04 #@! TD*
G04 #@! TA.AperFunction,ComponentPad*
%ADD14R,2.100000X2.100000*%
G04 #@! TD*
G04 #@! TA.AperFunction,ComponentPad*
%ADD15O,3.960000X1.980000*%
G04 #@! TD*
G04 #@! TA.AperFunction,ComponentPad*
%ADD16R,3.960000X1.980000*%
G04 #@! TD*
G04 #@! TA.AperFunction,ComponentPad*
%ADD17C,1.600000*%
G04 #@! TD*
G04 #@! TA.AperFunction,ComponentPad*
%ADD18R,3.200000X3.200000*%
G04 #@! TD*
G04 #@! TA.AperFunction,ComponentPad*
%ADD19O,3.200000X3.200000*%
G04 #@! TD*
G04 #@! TA.AperFunction,ComponentPad*
%ADD20O,7.000000X3.500000*%
G04 #@! TD*
G04 #@! TA.AperFunction,ComponentPad*
%ADD21O,2.500000X1.600000*%
G04 #@! TD*
G04 #@! TA.AperFunction,ComponentPad*
%ADD22R,1.700000X1.700000*%
G04 #@! TD*
G04 #@! TA.AperFunction,ComponentPad*
%ADD23O,1.700000X1.700000*%
G04 #@! TD*
G04 #@! TA.AperFunction,ComponentPad*
%ADD24C,2.600000*%
G04 #@! TD*
G04 #@! TA.AperFunction,ComponentPad*
%ADD25C,2.340000*%
G04 #@! TD*
G04 #@! TA.AperFunction,ComponentPad*
%ADD26R,1.800000X1.800000*%
G04 #@! TD*
G04 #@! TA.AperFunction,ComponentPad*
%ADD27O,1.800000X1.800000*%
G04 #@! TD*
G04 #@! TA.AperFunction,ViaPad*
%ADD28C,0.800000*%
G04 #@! TD*
G04 #@! TA.AperFunction,Conductor*
%ADD29C,0.950000*%
G04 #@! TD*
G04 #@! TA.AperFunction,Conductor*
%ADD30C,0.254000*%
G04 #@! TD*
G04 APERTURE END LIST*
D10*
G04 #@! TO.P,R7,2*
G04 #@! TO.N,GND*
X100457000Y-121873000D03*
G04 #@! TO.P,R7,1*
G04 #@! TO.N,Net-(J5-Pad2)*
X100457000Y-126873000D03*
G04 #@! TD*
G04 #@! TO.P,R3,2*
G04 #@! TO.N,GND*
X100520500Y-141017000D03*
G04 #@! TO.P,R3,1*
G04 #@! TO.N,Net-(J5-Pad2)*
X100520500Y-136017000D03*
G04 #@! TD*
D11*
G04 #@! TO.P,U3,1*
G04 #@! TO.N,Net-(R6-Pad1)*
X83820000Y-132029200D03*
D12*
G04 #@! TO.P,U3,5*
X91440000Y-124409200D03*
G04 #@! TO.P,U3,2*
G04 #@! TO.N,Net-(R5-Pad1)*
X86360000Y-132029200D03*
G04 #@! TO.P,U3,6*
G04 #@! TO.N,Net-(RV1-Pad2)*
X88900000Y-124409200D03*
G04 #@! TO.P,U3,3*
G04 #@! TO.N,Net-(R1-Pad1)*
X88900000Y-132029200D03*
G04 #@! TO.P,U3,7*
G04 #@! TO.N,Net-(D3-Pad2)*
X86360000Y-124409200D03*
G04 #@! TO.P,U3,4*
G04 #@! TO.N,GND*
X91440000Y-132029200D03*
G04 #@! TO.P,U3,8*
G04 #@! TO.N,+3V3*
X83820000Y-124409200D03*
G04 #@! TD*
D13*
G04 #@! TO.P,J1,2*
G04 #@! TO.N,GND*
X50190400Y-87376000D03*
D14*
G04 #@! TO.P,J1,1*
G04 #@! TO.N,+24V*
X50190400Y-92456000D03*
G04 #@! TD*
D15*
G04 #@! TO.P,J5,2*
G04 #@! TO.N,Net-(J5-Pad2)*
X108356400Y-82985600D03*
D16*
G04 #@! TO.P,J5,1*
G04 #@! TO.N,Net-(J4-Pad1)*
X108356400Y-87985600D03*
G04 #@! TD*
D17*
G04 #@! TO.P,C1,2*
G04 #@! TO.N,GND*
X63622937Y-140284000D03*
D11*
G04 #@! TO.P,C1,1*
G04 #@! TO.N,+24V*
X59781063Y-137084000D03*
D17*
G04 #@! TO.P,C1,2*
G04 #@! TO.N,GND*
X62952000Y-138684000D03*
D11*
G04 #@! TO.P,C1,1*
G04 #@! TO.N,+24V*
X60452000Y-138684000D03*
G04 #@! TD*
D17*
G04 #@! TO.P,C2,2*
G04 #@! TO.N,GND*
X66370000Y-86364063D03*
D11*
G04 #@! TO.P,C2,1*
G04 #@! TO.N,+24V*
X63170000Y-90205937D03*
D17*
G04 #@! TO.P,C2,2*
G04 #@! TO.N,GND*
X64770000Y-87035000D03*
D11*
G04 #@! TO.P,C2,1*
G04 #@! TO.N,+24V*
X64770000Y-89535000D03*
G04 #@! TD*
G04 #@! TO.P,C3,1*
G04 #@! TO.N,+3V3*
X71374000Y-127254000D03*
D17*
G04 #@! TO.P,C3,2*
G04 #@! TO.N,GND*
X71374000Y-129754000D03*
D11*
G04 #@! TO.P,C3,1*
G04 #@! TO.N,+3V3*
X72974000Y-126583063D03*
D17*
G04 #@! TO.P,C3,2*
G04 #@! TO.N,GND*
X69774000Y-130424937D03*
G04 #@! TD*
D11*
G04 #@! TO.P,C4,1*
G04 #@! TO.N,Net-(C4-Pad1)*
X77724000Y-89916000D03*
D17*
G04 #@! TO.P,C4,2*
G04 #@! TO.N,GND*
X80224000Y-89916000D03*
D11*
G04 #@! TO.P,C4,1*
G04 #@! TO.N,Net-(C4-Pad1)*
X77053063Y-88316000D03*
D17*
G04 #@! TO.P,C4,2*
G04 #@! TO.N,GND*
X80894937Y-91516000D03*
G04 #@! TD*
D18*
G04 #@! TO.P,D1,1*
G04 #@! TO.N,Net-(D1-Pad1)*
X75184000Y-115316000D03*
D19*
G04 #@! TO.P,D1,2*
G04 #@! TO.N,GND*
X90424000Y-115316000D03*
G04 #@! TD*
D18*
G04 #@! TO.P,D2,1*
G04 #@! TO.N,Net-(D2-Pad1)*
X98298000Y-100330000D03*
D19*
G04 #@! TO.P,D2,2*
G04 #@! TO.N,GND*
X98298000Y-115570000D03*
G04 #@! TD*
G04 #@! TO.P,D3,2*
G04 #@! TO.N,Net-(D3-Pad2)*
X90424000Y-103124000D03*
D18*
G04 #@! TO.P,D3,1*
G04 #@! TO.N,Net-(D3-Pad1)*
X75184000Y-103124000D03*
G04 #@! TD*
D20*
G04 #@! TO.P,J2,2*
G04 #@! TO.N,GND*
X52705000Y-111125000D03*
X52705000Y-100965000D03*
D21*
G04 #@! TO.P,J2,1*
G04 #@! TO.N,Net-(J2-Pad1)*
X57785000Y-106045000D03*
G04 #@! TO.P,J2,2*
G04 #@! TO.N,GND*
X57785000Y-108585000D03*
G04 #@! TD*
D22*
G04 #@! TO.P,J3,1*
G04 #@! TO.N,Net-(J2-Pad1)*
X66675000Y-107950000D03*
D23*
G04 #@! TO.P,J3,2*
G04 #@! TO.N,Net-(J3-Pad2)*
X66675000Y-105410000D03*
G04 #@! TO.P,J3,3*
G04 #@! TO.N,GND*
X66675000Y-102870000D03*
G04 #@! TD*
G04 #@! TO.P,J4,2*
G04 #@! TO.N,Net-(C4-Pad1)*
X90424000Y-92964000D03*
D22*
G04 #@! TO.P,J4,1*
G04 #@! TO.N,Net-(J4-Pad1)*
X92964000Y-92964000D03*
G04 #@! TD*
D24*
G04 #@! TO.P,L1,2*
G04 #@! TO.N,+3V3*
X60000000Y-120396000D03*
G04 #@! TO.P,L1,1*
G04 #@! TO.N,Net-(D1-Pad1)*
X63500000Y-120396000D03*
G04 #@! TD*
G04 #@! TO.P,L2,1*
G04 #@! TO.N,Net-(D2-Pad1)*
X89916000Y-85344000D03*
G04 #@! TO.P,L2,2*
G04 #@! TO.N,Net-(C4-Pad1)*
X89916000Y-81844000D03*
G04 #@! TD*
D17*
G04 #@! TO.P,R1,1*
G04 #@! TO.N,Net-(R1-Pad1)*
X86106000Y-137922000D03*
D12*
G04 #@! TO.P,R1,2*
G04 #@! TO.N,Net-(J5-Pad2)*
X93726000Y-137922000D03*
G04 #@! TD*
G04 #@! TO.P,R2,2*
G04 #@! TO.N,Net-(R1-Pad1)*
X86106000Y-141986000D03*
D17*
G04 #@! TO.P,R2,1*
G04 #@! TO.N,GND*
X93726000Y-141986000D03*
G04 #@! TD*
G04 #@! TO.P,R4,1*
G04 #@! TO.N,Net-(D3-Pad1)*
X74168000Y-80264000D03*
D12*
G04 #@! TO.P,R4,2*
G04 #@! TO.N,GND*
X81788000Y-80264000D03*
G04 #@! TD*
G04 #@! TO.P,R5,2*
G04 #@! TO.N,GND*
X74777600Y-142138400D03*
D17*
G04 #@! TO.P,R5,1*
G04 #@! TO.N,Net-(R5-Pad1)*
X82397600Y-142138400D03*
G04 #@! TD*
G04 #@! TO.P,R6,1*
G04 #@! TO.N,Net-(R6-Pad1)*
X74726800Y-137566400D03*
D12*
G04 #@! TO.P,R6,2*
G04 #@! TO.N,Net-(R5-Pad1)*
X82346800Y-137566400D03*
G04 #@! TD*
D25*
G04 #@! TO.P,RV1,1*
G04 #@! TO.N,GND*
X112471200Y-131470400D03*
G04 #@! TO.P,RV1,2*
G04 #@! TO.N,Net-(RV1-Pad2)*
X107471200Y-126470400D03*
G04 #@! TO.P,RV1,3*
G04 #@! TO.N,+3V3*
X112471200Y-121470400D03*
G04 #@! TD*
G04 #@! TO.P,RV2,3*
G04 #@! TO.N,Net-(D3-Pad1)*
X112674400Y-99880400D03*
G04 #@! TO.P,RV2,2*
X107674400Y-104880400D03*
G04 #@! TO.P,RV2,1*
G04 #@! TO.N,Net-(C4-Pad1)*
X112674400Y-109880400D03*
G04 #@! TD*
D26*
G04 #@! TO.P,U1,1*
G04 #@! TO.N,+24V*
X53594000Y-130302000D03*
D27*
G04 #@! TO.P,U1,2*
G04 #@! TO.N,Net-(D1-Pad1)*
X49894000Y-128602000D03*
G04 #@! TO.P,U1,3*
G04 #@! TO.N,GND*
X53594000Y-126902000D03*
G04 #@! TO.P,U1,4*
G04 #@! TO.N,+3V3*
X49894000Y-125202000D03*
G04 #@! TO.P,U1,5*
G04 #@! TO.N,GND*
X53594000Y-123502000D03*
G04 #@! TD*
G04 #@! TO.P,U2,5*
G04 #@! TO.N,Net-(J3-Pad2)*
X68395000Y-77470000D03*
G04 #@! TO.P,U2,4*
G04 #@! TO.N,Net-(D3-Pad1)*
X66695000Y-73770000D03*
G04 #@! TO.P,U2,3*
G04 #@! TO.N,GND*
X64995000Y-77470000D03*
G04 #@! TO.P,U2,2*
G04 #@! TO.N,Net-(D2-Pad1)*
X63295000Y-73770000D03*
D26*
G04 #@! TO.P,U2,1*
G04 #@! TO.N,+24V*
X61595000Y-77470000D03*
G04 #@! TD*
D28*
G04 #@! TO.N,Net-(C4-Pad1)*
X94488000Y-103632000D03*
G04 #@! TO.N,Net-(D1-Pad1)*
X57200800Y-132740400D03*
G04 #@! TO.N,Net-(D3-Pad2)*
X86360000Y-108902500D03*
X86360000Y-119634000D03*
G04 #@! TO.N,Net-(RV1-Pad2)*
X93980000Y-126873000D03*
G04 #@! TD*
D29*
G04 #@! TO.N,+3V3*
X49894000Y-125202000D02*
X49894000Y-124858000D01*
X49894000Y-125202000D02*
X49894000Y-123046000D01*
X52544000Y-120396000D02*
X60000000Y-120396000D01*
X49894000Y-123046000D02*
X52544000Y-120396000D01*
X69624000Y-127254000D02*
X69573200Y-127203200D01*
X71374000Y-127254000D02*
X69624000Y-127254000D01*
X60000000Y-123093600D02*
X60000000Y-120396000D01*
X69573200Y-127203200D02*
X66807200Y-127203200D01*
X66807200Y-127203200D02*
X66756400Y-127152400D01*
X66756400Y-127152400D02*
X64058800Y-127152400D01*
X64058800Y-127152400D02*
X60000000Y-123093600D01*
G04 #@! TO.N,Net-(C4-Pad1)*
X111019771Y-109880400D02*
X110918171Y-109778800D01*
X112674400Y-109880400D02*
X111019771Y-109880400D01*
X100634800Y-109778800D02*
X94488000Y-103632000D01*
X110918171Y-109778800D02*
X100634800Y-109778800D01*
G04 #@! TO.N,Net-(D1-Pad1)*
X49894000Y-129874792D02*
X50088800Y-130069592D01*
X49894000Y-128602000D02*
X49894000Y-129874792D01*
X50088800Y-130069592D02*
X50088800Y-131826000D01*
X50088800Y-131826000D02*
X52019200Y-133756400D01*
X52019200Y-133756400D02*
X56184800Y-133756400D01*
X56184800Y-133756400D02*
X57200800Y-132740400D01*
G04 #@! TO.N,Net-(D2-Pad1)*
X94284800Y-80975200D02*
X89916000Y-85344000D01*
X94284800Y-75742800D02*
X94284800Y-80975200D01*
X64469008Y-71323200D02*
X89865200Y-71323200D01*
X89865200Y-71323200D02*
X94284800Y-75742800D01*
X63295000Y-73770000D02*
X63295000Y-72497208D01*
X63295000Y-72497208D02*
X64469008Y-71323200D01*
G04 #@! TO.N,Net-(D3-Pad2)*
X90424000Y-103124000D02*
X86360000Y-107188000D01*
X86360000Y-107188000D02*
X86360000Y-108902500D01*
X86360000Y-119634000D02*
X86360000Y-124409200D01*
G04 #@! TO.N,Net-(J4-Pad1)*
X105426400Y-87985600D02*
X108356400Y-87985600D01*
X92964000Y-91164000D02*
X96142400Y-87985600D01*
X96142400Y-87985600D02*
X105426400Y-87985600D01*
X92964000Y-92964000D02*
X92964000Y-91164000D01*
G04 #@! TO.N,Net-(J5-Pad2)*
X100457000Y-126873000D02*
X108394500Y-118935500D01*
X108394500Y-118935500D02*
X108648500Y-118935500D01*
X114569401Y-113014599D02*
X114569401Y-112951099D01*
X108648500Y-118935500D02*
X114569401Y-113014599D01*
X114569401Y-112951099D02*
X115316000Y-112204500D01*
X109346400Y-82985600D02*
X108356400Y-82985600D01*
X115316000Y-88955200D02*
X109346400Y-82985600D01*
X115316000Y-112204500D02*
X115316000Y-88955200D01*
G04 #@! TO.N,Net-(R6-Pad1)*
X83820000Y-130279200D02*
X84559200Y-129540000D01*
X83820000Y-132029200D02*
X83820000Y-130279200D01*
X91440000Y-125809070D02*
X91440000Y-125540570D01*
X91440000Y-125540570D02*
X91440000Y-124409200D01*
X87709070Y-129540000D02*
X91440000Y-125809070D01*
X84559200Y-129540000D02*
X87709070Y-129540000D01*
G04 #@! TO.N,Net-(RV1-Pad2)*
X93980000Y-126873000D02*
X97599500Y-130492500D01*
X103449100Y-130492500D02*
X107471200Y-126470400D01*
X97599500Y-130492500D02*
X103449100Y-130492500D01*
G04 #@! TD*
D30*
G04 #@! TO.N,GND*
G36*
X105283000Y-77470000D02*
X105292667Y-77518601D01*
X105320197Y-77559803D01*
X105361399Y-77587333D01*
X105410000Y-77597000D01*
X116130000Y-77597000D01*
X116130000Y-88175491D01*
X116116265Y-88154935D01*
X116023585Y-88093008D01*
X110988791Y-83058215D01*
X111003235Y-82985600D01*
X110877116Y-82351557D01*
X110517959Y-81814041D01*
X109980443Y-81454884D01*
X109506445Y-81360600D01*
X107206355Y-81360600D01*
X106732357Y-81454884D01*
X106194841Y-81814041D01*
X105835684Y-82351557D01*
X105709565Y-82985600D01*
X105835684Y-83619643D01*
X106194841Y-84157159D01*
X106732357Y-84516316D01*
X107206355Y-84610600D01*
X109401624Y-84610600D01*
X114206001Y-89414978D01*
X114206001Y-98861319D01*
X114204605Y-98857950D01*
X113696850Y-98350195D01*
X113033437Y-98075400D01*
X112315363Y-98075400D01*
X111651950Y-98350195D01*
X111144195Y-98857950D01*
X110869400Y-99521363D01*
X110869400Y-100239437D01*
X111144195Y-100902850D01*
X111651950Y-101410605D01*
X112315363Y-101685400D01*
X113033437Y-101685400D01*
X113696850Y-101410605D01*
X114204605Y-100902850D01*
X114206000Y-100899481D01*
X114206000Y-108861318D01*
X114204605Y-108857950D01*
X113696850Y-108350195D01*
X113033437Y-108075400D01*
X112315363Y-108075400D01*
X111651950Y-108350195D01*
X111282601Y-108719544D01*
X111027495Y-108668800D01*
X111027490Y-108668800D01*
X110918171Y-108647055D01*
X110808852Y-108668800D01*
X101094577Y-108668800D01*
X96947140Y-104521363D01*
X105869400Y-104521363D01*
X105869400Y-105239437D01*
X106144195Y-105902850D01*
X106651950Y-106410605D01*
X107315363Y-106685400D01*
X108033437Y-106685400D01*
X108696850Y-106410605D01*
X109204605Y-105902850D01*
X109479400Y-105239437D01*
X109479400Y-104521363D01*
X109204605Y-103857950D01*
X108696850Y-103350195D01*
X108033437Y-103075400D01*
X107315363Y-103075400D01*
X106651950Y-103350195D01*
X106144195Y-103857950D01*
X105869400Y-104521363D01*
X96947140Y-104521363D01*
X95195584Y-102769808D01*
X94921100Y-102586404D01*
X94488000Y-102500255D01*
X94054900Y-102586404D01*
X93687735Y-102831735D01*
X93442404Y-103198900D01*
X93356255Y-103632000D01*
X93442404Y-104065100D01*
X93625808Y-104339584D01*
X99772607Y-110486384D01*
X99834535Y-110579065D01*
X100201700Y-110824397D01*
X100525476Y-110888800D01*
X100525480Y-110888800D01*
X100634800Y-110910545D01*
X100744119Y-110888800D01*
X110531002Y-110888800D01*
X110586671Y-110925997D01*
X110910447Y-110990400D01*
X110910451Y-110990400D01*
X111019770Y-111012145D01*
X111129090Y-110990400D01*
X111231745Y-110990400D01*
X111651950Y-111410605D01*
X112315363Y-111685400D01*
X113033437Y-111685400D01*
X113696850Y-111410605D01*
X114204605Y-110902850D01*
X114206000Y-110899482D01*
X114206000Y-111744723D01*
X113861818Y-112088906D01*
X113769136Y-112150834D01*
X113579341Y-112434882D01*
X108164775Y-117849449D01*
X107961400Y-117889903D01*
X107594235Y-118135235D01*
X107532308Y-118227915D01*
X100722224Y-125038000D01*
X100091996Y-125038000D01*
X99417556Y-125317362D01*
X98901362Y-125833556D01*
X98622000Y-126507996D01*
X98622000Y-127238004D01*
X98901362Y-127912444D01*
X99417556Y-128428638D01*
X100091996Y-128708000D01*
X100822004Y-128708000D01*
X101496444Y-128428638D01*
X102012638Y-127912444D01*
X102292000Y-127238004D01*
X102292000Y-126607776D01*
X107788413Y-121111363D01*
X110666200Y-121111363D01*
X110666200Y-121829437D01*
X110940995Y-122492850D01*
X111448750Y-123000605D01*
X112112163Y-123275400D01*
X112830237Y-123275400D01*
X113493650Y-123000605D01*
X114001405Y-122492850D01*
X114276200Y-121829437D01*
X114276200Y-121111363D01*
X114001405Y-120447950D01*
X113493650Y-119940195D01*
X112830237Y-119665400D01*
X112112163Y-119665400D01*
X111448750Y-119940195D01*
X110940995Y-120447950D01*
X110666200Y-121111363D01*
X107788413Y-121111363D01*
X108878226Y-120021550D01*
X109081600Y-119981097D01*
X109448765Y-119735765D01*
X109510693Y-119643083D01*
X115276987Y-113876790D01*
X115369666Y-113814864D01*
X115559462Y-113530814D01*
X116023585Y-113066691D01*
X116116265Y-113004765D01*
X116130001Y-112984208D01*
X116130001Y-135763000D01*
X106680000Y-135763000D01*
X106631399Y-135772667D01*
X106590197Y-135800197D01*
X106562667Y-135841399D01*
X106553000Y-135890000D01*
X106553000Y-145340000D01*
X54737000Y-145340000D01*
X54737000Y-142487439D01*
X73385696Y-142487439D01*
X73546559Y-142875823D01*
X73922466Y-143290789D01*
X74428559Y-143530314D01*
X74650600Y-143409029D01*
X74650600Y-142265400D01*
X74904600Y-142265400D01*
X74904600Y-143409029D01*
X75126641Y-143530314D01*
X75632734Y-143290789D01*
X76008641Y-142875823D01*
X76169504Y-142487439D01*
X76047515Y-142265400D01*
X74904600Y-142265400D01*
X74650600Y-142265400D01*
X73507685Y-142265400D01*
X73385696Y-142487439D01*
X54737000Y-142487439D01*
X54737000Y-141789361D01*
X73385696Y-141789361D01*
X73507685Y-142011400D01*
X74650600Y-142011400D01*
X74650600Y-140867771D01*
X74904600Y-140867771D01*
X74904600Y-142011400D01*
X76047515Y-142011400D01*
X76134561Y-141852961D01*
X80962600Y-141852961D01*
X80962600Y-142423839D01*
X81181066Y-142951262D01*
X81584738Y-143354934D01*
X82112161Y-143573400D01*
X82683039Y-143573400D01*
X83210462Y-143354934D01*
X83614134Y-142951262D01*
X83832600Y-142423839D01*
X83832600Y-141986000D01*
X84642887Y-141986000D01*
X84754260Y-142545909D01*
X85071423Y-143020577D01*
X85546091Y-143337740D01*
X85964667Y-143421000D01*
X86247333Y-143421000D01*
X86665909Y-143337740D01*
X87140577Y-143020577D01*
X87158505Y-142993745D01*
X92897861Y-142993745D01*
X92971995Y-143239864D01*
X93509223Y-143432965D01*
X94079454Y-143405778D01*
X94480005Y-143239864D01*
X94554139Y-142993745D01*
X93726000Y-142165605D01*
X92897861Y-142993745D01*
X87158505Y-142993745D01*
X87457740Y-142545909D01*
X87569113Y-141986000D01*
X87525994Y-141769223D01*
X92279035Y-141769223D01*
X92306222Y-142339454D01*
X92472136Y-142740005D01*
X92718255Y-142814139D01*
X93546395Y-141986000D01*
X93905605Y-141986000D01*
X94733745Y-142814139D01*
X94979864Y-142740005D01*
X95132924Y-142314175D01*
X99402930Y-142314175D01*
X99526065Y-142601788D01*
X100208234Y-142861707D01*
X100937943Y-142840786D01*
X101514935Y-142601788D01*
X101638070Y-142314175D01*
X100520500Y-141196605D01*
X99402930Y-142314175D01*
X95132924Y-142314175D01*
X95172965Y-142202777D01*
X95145778Y-141632546D01*
X94979864Y-141231995D01*
X94733745Y-141157861D01*
X93905605Y-141986000D01*
X93546395Y-141986000D01*
X92718255Y-141157861D01*
X92472136Y-141231995D01*
X92279035Y-141769223D01*
X87525994Y-141769223D01*
X87457740Y-141426091D01*
X87158506Y-140978255D01*
X92897861Y-140978255D01*
X93726000Y-141806395D01*
X94554139Y-140978255D01*
X94480005Y-140732136D01*
X94403770Y-140704734D01*
X98675793Y-140704734D01*
X98696714Y-141434443D01*
X98935712Y-142011435D01*
X99223325Y-142134570D01*
X100340895Y-141017000D01*
X100700105Y-141017000D01*
X101817675Y-142134570D01*
X102105288Y-142011435D01*
X102365207Y-141329266D01*
X102344286Y-140599557D01*
X102105288Y-140022565D01*
X101817675Y-139899430D01*
X100700105Y-141017000D01*
X100340895Y-141017000D01*
X99223325Y-139899430D01*
X98935712Y-140022565D01*
X98675793Y-140704734D01*
X94403770Y-140704734D01*
X93942777Y-140539035D01*
X93372546Y-140566222D01*
X92971995Y-140732136D01*
X92897861Y-140978255D01*
X87158506Y-140978255D01*
X87140577Y-140951423D01*
X86665909Y-140634260D01*
X86247333Y-140551000D01*
X85964667Y-140551000D01*
X85546091Y-140634260D01*
X85071423Y-140951423D01*
X84754260Y-141426091D01*
X84642887Y-141986000D01*
X83832600Y-141986000D01*
X83832600Y-141852961D01*
X83614134Y-141325538D01*
X83210462Y-140921866D01*
X82683039Y-140703400D01*
X82112161Y-140703400D01*
X81584738Y-140921866D01*
X81181066Y-141325538D01*
X80962600Y-141852961D01*
X76134561Y-141852961D01*
X76169504Y-141789361D01*
X76008641Y-141400977D01*
X75632734Y-140986011D01*
X75126641Y-140746486D01*
X74904600Y-140867771D01*
X74650600Y-140867771D01*
X74428559Y-140746486D01*
X73922466Y-140986011D01*
X73546559Y-141400977D01*
X73385696Y-141789361D01*
X54737000Y-141789361D01*
X54737000Y-141291745D01*
X62794798Y-141291745D01*
X62868932Y-141537864D01*
X63406160Y-141730965D01*
X63976391Y-141703778D01*
X64376942Y-141537864D01*
X64451076Y-141291745D01*
X63622937Y-140463605D01*
X62794798Y-141291745D01*
X54737000Y-141291745D01*
X54737000Y-136284000D01*
X58333623Y-136284000D01*
X58333623Y-137884000D01*
X58382906Y-138131765D01*
X58523254Y-138341809D01*
X58733298Y-138482157D01*
X58981063Y-138531440D01*
X59004560Y-138531440D01*
X59004560Y-139484000D01*
X59053843Y-139731765D01*
X59194191Y-139941809D01*
X59404235Y-140082157D01*
X59652000Y-140131440D01*
X61252000Y-140131440D01*
X61499765Y-140082157D01*
X61709809Y-139941809D01*
X61850157Y-139731765D01*
X61858117Y-139691745D01*
X62123861Y-139691745D01*
X62197995Y-139937864D01*
X62219669Y-139945654D01*
X62175972Y-140067223D01*
X62203159Y-140637454D01*
X62369073Y-141038005D01*
X62615192Y-141112139D01*
X63443332Y-140284000D01*
X63802542Y-140284000D01*
X64630682Y-141112139D01*
X64876801Y-141038005D01*
X65069902Y-140500777D01*
X65042715Y-139930546D01*
X64955432Y-139719825D01*
X99402930Y-139719825D01*
X100520500Y-140837395D01*
X101638070Y-139719825D01*
X101514935Y-139432212D01*
X100832766Y-139172293D01*
X100103057Y-139193214D01*
X99526065Y-139432212D01*
X99402930Y-139719825D01*
X64955432Y-139719825D01*
X64876801Y-139529995D01*
X64630682Y-139455861D01*
X63802542Y-140284000D01*
X63443332Y-140284000D01*
X63429190Y-140269858D01*
X63608795Y-140090253D01*
X63622937Y-140104395D01*
X64451076Y-139276255D01*
X64376942Y-139030136D01*
X64355268Y-139022346D01*
X64398965Y-138900777D01*
X64371778Y-138330546D01*
X64205864Y-137929995D01*
X63959745Y-137855861D01*
X63131605Y-138684000D01*
X63145748Y-138698143D01*
X62966143Y-138877748D01*
X62952000Y-138863605D01*
X62123861Y-139691745D01*
X61858117Y-139691745D01*
X61896693Y-139497813D01*
X61944255Y-139512139D01*
X62772395Y-138684000D01*
X61944255Y-137855861D01*
X61896693Y-137870187D01*
X61858118Y-137676255D01*
X62123861Y-137676255D01*
X62952000Y-138504395D01*
X63780139Y-137676255D01*
X63706005Y-137430136D01*
X63290984Y-137280961D01*
X73291800Y-137280961D01*
X73291800Y-137851839D01*
X73510266Y-138379262D01*
X73913938Y-138782934D01*
X74441361Y-139001400D01*
X75012239Y-139001400D01*
X75539662Y-138782934D01*
X75943334Y-138379262D01*
X76161800Y-137851839D01*
X76161800Y-137566400D01*
X80883687Y-137566400D01*
X80995060Y-138126309D01*
X81312223Y-138600977D01*
X81786891Y-138918140D01*
X82205467Y-139001400D01*
X82488133Y-139001400D01*
X82906709Y-138918140D01*
X83381377Y-138600977D01*
X83698540Y-138126309D01*
X83795957Y-137636561D01*
X84671000Y-137636561D01*
X84671000Y-138207439D01*
X84889466Y-138734862D01*
X85293138Y-139138534D01*
X85820561Y-139357000D01*
X86391439Y-139357000D01*
X86918862Y-139138534D01*
X87322534Y-138734862D01*
X87541000Y-138207439D01*
X87541000Y-137922000D01*
X92262887Y-137922000D01*
X92374260Y-138481909D01*
X92691423Y-138956577D01*
X93166091Y-139273740D01*
X93584667Y-139357000D01*
X93867333Y-139357000D01*
X94285909Y-139273740D01*
X94760577Y-138956577D01*
X95077740Y-138481909D01*
X95189113Y-137922000D01*
X95077740Y-137362091D01*
X94760577Y-136887423D01*
X94285909Y-136570260D01*
X93867333Y-136487000D01*
X93584667Y-136487000D01*
X93166091Y-136570260D01*
X92691423Y-136887423D01*
X92374260Y-137362091D01*
X92262887Y-137922000D01*
X87541000Y-137922000D01*
X87541000Y-137636561D01*
X87322534Y-137109138D01*
X86918862Y-136705466D01*
X86391439Y-136487000D01*
X85820561Y-136487000D01*
X85293138Y-136705466D01*
X84889466Y-137109138D01*
X84671000Y-137636561D01*
X83795957Y-137636561D01*
X83809913Y-137566400D01*
X83698540Y-137006491D01*
X83381377Y-136531823D01*
X82906709Y-136214660D01*
X82488133Y-136131400D01*
X82205467Y-136131400D01*
X81786891Y-136214660D01*
X81312223Y-136531823D01*
X80995060Y-137006491D01*
X80883687Y-137566400D01*
X76161800Y-137566400D01*
X76161800Y-137280961D01*
X75943334Y-136753538D01*
X75539662Y-136349866D01*
X75012239Y-136131400D01*
X74441361Y-136131400D01*
X73913938Y-136349866D01*
X73510266Y-136753538D01*
X73291800Y-137280961D01*
X63290984Y-137280961D01*
X63168777Y-137237035D01*
X62598546Y-137264222D01*
X62197995Y-137430136D01*
X62123861Y-137676255D01*
X61858118Y-137676255D01*
X61850157Y-137636235D01*
X61709809Y-137426191D01*
X61499765Y-137285843D01*
X61252000Y-137236560D01*
X61228503Y-137236560D01*
X61228503Y-136284000D01*
X61179220Y-136036235D01*
X61038872Y-135826191D01*
X60828828Y-135685843D01*
X60658666Y-135651996D01*
X98685500Y-135651996D01*
X98685500Y-136382004D01*
X98964862Y-137056444D01*
X99481056Y-137572638D01*
X100155496Y-137852000D01*
X100885504Y-137852000D01*
X101559944Y-137572638D01*
X102076138Y-137056444D01*
X102355500Y-136382004D01*
X102355500Y-135651996D01*
X102076138Y-134977556D01*
X101559944Y-134461362D01*
X100885504Y-134182000D01*
X100155496Y-134182000D01*
X99481056Y-134461362D01*
X98964862Y-134977556D01*
X98685500Y-135651996D01*
X60658666Y-135651996D01*
X60581063Y-135636560D01*
X58981063Y-135636560D01*
X58733298Y-135685843D01*
X58523254Y-135826191D01*
X58382906Y-136036235D01*
X58333623Y-136284000D01*
X54737000Y-136284000D01*
X54737000Y-135890000D01*
X54727333Y-135841399D01*
X54699803Y-135800197D01*
X54658601Y-135772667D01*
X54610000Y-135763000D01*
X45160000Y-135763000D01*
X45160000Y-128602000D01*
X48328928Y-128602000D01*
X48448062Y-129200927D01*
X48784000Y-129703694D01*
X48784000Y-129765473D01*
X48762255Y-129874792D01*
X48784000Y-129984111D01*
X48784000Y-129984116D01*
X48801379Y-130071483D01*
X48848404Y-130307892D01*
X48978800Y-130503044D01*
X48978800Y-131716681D01*
X48957055Y-131826000D01*
X48978800Y-131935319D01*
X48978800Y-131935324D01*
X49019220Y-132138524D01*
X49043204Y-132259100D01*
X49168631Y-132446814D01*
X49288536Y-132626265D01*
X49381215Y-132688191D01*
X51157008Y-134463985D01*
X51218935Y-134556665D01*
X51586100Y-134801997D01*
X51909876Y-134866400D01*
X51909880Y-134866400D01*
X52019200Y-134888145D01*
X52128519Y-134866400D01*
X56075481Y-134866400D01*
X56184800Y-134888145D01*
X56294119Y-134866400D01*
X56294124Y-134866400D01*
X56617900Y-134801997D01*
X56985065Y-134556665D01*
X57046993Y-134463983D01*
X58062992Y-133447985D01*
X58246396Y-133173501D01*
X58332545Y-132740400D01*
X58246396Y-132307300D01*
X58001065Y-131940135D01*
X57633900Y-131694804D01*
X57200800Y-131608655D01*
X56767699Y-131694804D01*
X56493215Y-131878208D01*
X55725024Y-132646400D01*
X52478977Y-132646400D01*
X51198800Y-131366224D01*
X51198800Y-130178911D01*
X51220545Y-130069592D01*
X51198800Y-129960273D01*
X51198800Y-129960268D01*
X51134397Y-129636492D01*
X51091650Y-129572516D01*
X51205585Y-129402000D01*
X52046560Y-129402000D01*
X52046560Y-131202000D01*
X52095843Y-131449765D01*
X52236191Y-131659809D01*
X52446235Y-131800157D01*
X52694000Y-131849440D01*
X54494000Y-131849440D01*
X54741765Y-131800157D01*
X54951809Y-131659809D01*
X55092157Y-131449765D01*
X55095554Y-131432682D01*
X68945861Y-131432682D01*
X69019995Y-131678801D01*
X69557223Y-131871902D01*
X70127454Y-131844715D01*
X70528005Y-131678801D01*
X70602139Y-131432682D01*
X69774000Y-130604542D01*
X68945861Y-131432682D01*
X55095554Y-131432682D01*
X55141440Y-131202000D01*
X55141440Y-130208160D01*
X68327035Y-130208160D01*
X68354222Y-130778391D01*
X68520136Y-131178942D01*
X68766255Y-131253076D01*
X69594395Y-130424937D01*
X68766255Y-129596798D01*
X68520136Y-129670932D01*
X68327035Y-130208160D01*
X55141440Y-130208160D01*
X55141440Y-129417192D01*
X68945861Y-129417192D01*
X69774000Y-130245332D01*
X69788143Y-130231190D01*
X69967748Y-130410795D01*
X69953605Y-130424937D01*
X70781745Y-131253076D01*
X71027864Y-131178942D01*
X71035654Y-131157268D01*
X71157223Y-131200965D01*
X71727454Y-131173778D01*
X72128005Y-131007864D01*
X72202139Y-130761745D01*
X71374000Y-129933605D01*
X71359858Y-129947748D01*
X71180253Y-129768143D01*
X71194395Y-129754000D01*
X71553605Y-129754000D01*
X72381745Y-130582139D01*
X72627864Y-130508005D01*
X72820965Y-129970777D01*
X72793778Y-129400546D01*
X72627864Y-128999995D01*
X72381745Y-128925861D01*
X71553605Y-129754000D01*
X71194395Y-129754000D01*
X70366255Y-128925861D01*
X70120136Y-128999995D01*
X70112346Y-129021669D01*
X69990777Y-128977972D01*
X69420546Y-129005159D01*
X69019995Y-129171073D01*
X68945861Y-129417192D01*
X55141440Y-129417192D01*
X55141440Y-129402000D01*
X55092157Y-129154235D01*
X54951809Y-128944191D01*
X54741765Y-128803843D01*
X54494000Y-128754560D01*
X52694000Y-128754560D01*
X52446235Y-128803843D01*
X52236191Y-128944191D01*
X52095843Y-129154235D01*
X52046560Y-129402000D01*
X51205585Y-129402000D01*
X51339938Y-129200927D01*
X51459072Y-128602000D01*
X51339938Y-128003073D01*
X51000673Y-127495327D01*
X50658572Y-127266742D01*
X52102954Y-127266742D01*
X52356034Y-127809576D01*
X52797583Y-128214240D01*
X53229260Y-128393036D01*
X53467000Y-128272378D01*
X53467000Y-127029000D01*
X53721000Y-127029000D01*
X53721000Y-128272378D01*
X53958740Y-128393036D01*
X54390417Y-128214240D01*
X54831966Y-127809576D01*
X55085046Y-127266742D01*
X54964997Y-127029000D01*
X53721000Y-127029000D01*
X53467000Y-127029000D01*
X52223003Y-127029000D01*
X52102954Y-127266742D01*
X50658572Y-127266742D01*
X50492927Y-127156062D01*
X50045182Y-127067000D01*
X49742818Y-127067000D01*
X49295073Y-127156062D01*
X48787327Y-127495327D01*
X48448062Y-128003073D01*
X48328928Y-128602000D01*
X45160000Y-128602000D01*
X45160000Y-125202000D01*
X48328928Y-125202000D01*
X48448062Y-125800927D01*
X48787327Y-126308673D01*
X49295073Y-126647938D01*
X49742818Y-126737000D01*
X50045182Y-126737000D01*
X50492927Y-126647938D01*
X50658571Y-126537258D01*
X52102954Y-126537258D01*
X52223003Y-126775000D01*
X53467000Y-126775000D01*
X53467000Y-125531622D01*
X53721000Y-125531622D01*
X53721000Y-126775000D01*
X54964997Y-126775000D01*
X55085046Y-126537258D01*
X54831966Y-125994424D01*
X54390417Y-125589760D01*
X53958740Y-125410964D01*
X53721000Y-125531622D01*
X53467000Y-125531622D01*
X53229260Y-125410964D01*
X52797583Y-125589760D01*
X52356034Y-125994424D01*
X52102954Y-126537258D01*
X50658571Y-126537258D01*
X51000673Y-126308673D01*
X51339938Y-125800927D01*
X51459072Y-125202000D01*
X51339938Y-124603073D01*
X51004000Y-124100306D01*
X51004000Y-123866742D01*
X52102954Y-123866742D01*
X52356034Y-124409576D01*
X52797583Y-124814240D01*
X53229260Y-124993036D01*
X53467000Y-124872378D01*
X53467000Y-123629000D01*
X53721000Y-123629000D01*
X53721000Y-124872378D01*
X53958740Y-124993036D01*
X54390417Y-124814240D01*
X54831966Y-124409576D01*
X55085046Y-123866742D01*
X54964997Y-123629000D01*
X53721000Y-123629000D01*
X53467000Y-123629000D01*
X52223003Y-123629000D01*
X52102954Y-123866742D01*
X51004000Y-123866742D01*
X51004000Y-123505776D01*
X51372518Y-123137258D01*
X52102954Y-123137258D01*
X52223003Y-123375000D01*
X53467000Y-123375000D01*
X53467000Y-122131622D01*
X53721000Y-122131622D01*
X53721000Y-123375000D01*
X54964997Y-123375000D01*
X55085046Y-123137258D01*
X54831966Y-122594424D01*
X54390417Y-122189760D01*
X53958740Y-122010964D01*
X53721000Y-122131622D01*
X53467000Y-122131622D01*
X53229260Y-122010964D01*
X52797583Y-122189760D01*
X52356034Y-122594424D01*
X52102954Y-123137258D01*
X51372518Y-123137258D01*
X53003777Y-121506000D01*
X58373496Y-121506000D01*
X58890000Y-122022504D01*
X58890000Y-122984280D01*
X58868255Y-123093600D01*
X58890000Y-123202919D01*
X58890000Y-123202923D01*
X58954403Y-123526699D01*
X59199735Y-123893865D01*
X59292417Y-123955793D01*
X63196607Y-127859984D01*
X63258535Y-127952665D01*
X63625700Y-128197997D01*
X63949476Y-128262400D01*
X63949480Y-128262400D01*
X64058799Y-128284145D01*
X64168119Y-128262400D01*
X66442487Y-128262400D01*
X66697876Y-128313200D01*
X66697880Y-128313200D01*
X66807199Y-128334945D01*
X66916519Y-128313200D01*
X69259287Y-128313200D01*
X69514676Y-128364000D01*
X69514680Y-128364000D01*
X69623999Y-128385745D01*
X69733319Y-128364000D01*
X70017427Y-128364000D01*
X70116191Y-128511809D01*
X70326235Y-128652157D01*
X70560187Y-128698693D01*
X70545861Y-128746255D01*
X71374000Y-129574395D01*
X72202139Y-128746255D01*
X72187813Y-128698693D01*
X72421765Y-128652157D01*
X72631809Y-128511809D01*
X72772157Y-128301765D01*
X72821440Y-128054000D01*
X72821440Y-128030503D01*
X73774000Y-128030503D01*
X74021765Y-127981220D01*
X74231809Y-127840872D01*
X74372157Y-127630828D01*
X74421440Y-127383063D01*
X74421440Y-125783063D01*
X74372157Y-125535298D01*
X74231809Y-125325254D01*
X74021765Y-125184906D01*
X73774000Y-125135623D01*
X72174000Y-125135623D01*
X71926235Y-125184906D01*
X71716191Y-125325254D01*
X71575843Y-125535298D01*
X71526560Y-125783063D01*
X71526560Y-125806560D01*
X70574000Y-125806560D01*
X70326235Y-125855843D01*
X70116191Y-125996191D01*
X70017427Y-126144000D01*
X69937913Y-126144000D01*
X69682524Y-126093200D01*
X69682519Y-126093200D01*
X69573200Y-126071455D01*
X69463881Y-126093200D01*
X67121113Y-126093200D01*
X66865724Y-126042400D01*
X66865719Y-126042400D01*
X66756400Y-126020655D01*
X66647081Y-126042400D01*
X64518577Y-126042400D01*
X62885377Y-124409200D01*
X82356887Y-124409200D01*
X82468260Y-124969109D01*
X82785423Y-125443777D01*
X83260091Y-125760940D01*
X83678667Y-125844200D01*
X83961333Y-125844200D01*
X84379909Y-125760940D01*
X84854577Y-125443777D01*
X85090000Y-125091442D01*
X85325423Y-125443777D01*
X85800091Y-125760940D01*
X86218667Y-125844200D01*
X86501333Y-125844200D01*
X86919909Y-125760940D01*
X87394577Y-125443777D01*
X87630000Y-125091442D01*
X87865423Y-125443777D01*
X88340091Y-125760940D01*
X88758667Y-125844200D01*
X89041333Y-125844200D01*
X89459909Y-125760940D01*
X89934577Y-125443777D01*
X90170000Y-125091442D01*
X90330000Y-125330898D01*
X90330000Y-125349293D01*
X87249294Y-128430000D01*
X84668520Y-128430000D01*
X84559200Y-128408255D01*
X84449880Y-128430000D01*
X84449876Y-128430000D01*
X84126100Y-128494403D01*
X83758935Y-128739735D01*
X83697008Y-128832415D01*
X83112415Y-129417009D01*
X83019736Y-129478935D01*
X82957809Y-129571615D01*
X82957808Y-129571616D01*
X82815286Y-129784916D01*
X82774404Y-129846100D01*
X82710000Y-130169876D01*
X82710000Y-130169881D01*
X82688255Y-130279200D01*
X82710000Y-130388519D01*
X82710000Y-130672627D01*
X82562191Y-130771391D01*
X82421843Y-130981435D01*
X82372560Y-131229200D01*
X82372560Y-132829200D01*
X82421843Y-133076965D01*
X82562191Y-133287009D01*
X82772235Y-133427357D01*
X83020000Y-133476640D01*
X84620000Y-133476640D01*
X84867765Y-133427357D01*
X85077809Y-133287009D01*
X85218157Y-133076965D01*
X85244785Y-132943094D01*
X85325423Y-133063777D01*
X85800091Y-133380940D01*
X86218667Y-133464200D01*
X86501333Y-133464200D01*
X86919909Y-133380940D01*
X87394577Y-133063777D01*
X87630000Y-132711442D01*
X87865423Y-133063777D01*
X88340091Y-133380940D01*
X88758667Y-133464200D01*
X89041333Y-133464200D01*
X89459909Y-133380940D01*
X89934577Y-133063777D01*
X90190947Y-132680092D01*
X90287611Y-132884334D01*
X90702577Y-133260241D01*
X91090961Y-133421104D01*
X91313000Y-133299115D01*
X91313000Y-132156200D01*
X91567000Y-132156200D01*
X91567000Y-133299115D01*
X91789039Y-133421104D01*
X92177423Y-133260241D01*
X92592389Y-132884334D01*
X92657914Y-132745886D01*
X111375320Y-132745886D01*
X111494786Y-133030384D01*
X112166090Y-133285294D01*
X112883846Y-133263904D01*
X113447614Y-133030384D01*
X113567080Y-132745886D01*
X112471200Y-131650005D01*
X111375320Y-132745886D01*
X92657914Y-132745886D01*
X92831914Y-132378241D01*
X92710629Y-132156200D01*
X91567000Y-132156200D01*
X91313000Y-132156200D01*
X91293000Y-132156200D01*
X91293000Y-131902200D01*
X91313000Y-131902200D01*
X91313000Y-130759285D01*
X91567000Y-130759285D01*
X91567000Y-131902200D01*
X92710629Y-131902200D01*
X92831914Y-131680159D01*
X92592389Y-131174066D01*
X92177423Y-130798159D01*
X91789039Y-130637296D01*
X91567000Y-130759285D01*
X91313000Y-130759285D01*
X91090961Y-130637296D01*
X90702577Y-130798159D01*
X90287611Y-131174066D01*
X90190947Y-131378308D01*
X89934577Y-130994623D01*
X89459909Y-130677460D01*
X89041333Y-130594200D01*
X88758667Y-130594200D01*
X88340091Y-130677460D01*
X87865423Y-130994623D01*
X87630000Y-131346958D01*
X87394577Y-130994623D01*
X86919909Y-130677460D01*
X86781858Y-130650000D01*
X87599751Y-130650000D01*
X87709070Y-130671745D01*
X87818389Y-130650000D01*
X87818394Y-130650000D01*
X88142170Y-130585597D01*
X88509335Y-130340265D01*
X88571263Y-130247583D01*
X91945846Y-126873000D01*
X92848255Y-126873000D01*
X92934404Y-127306100D01*
X93117808Y-127580584D01*
X96737308Y-131200085D01*
X96799235Y-131292765D01*
X96891915Y-131354692D01*
X96976104Y-131410945D01*
X97166400Y-131538097D01*
X97490176Y-131602500D01*
X97490180Y-131602500D01*
X97599500Y-131624245D01*
X97708819Y-131602500D01*
X103339781Y-131602500D01*
X103449100Y-131624245D01*
X103558419Y-131602500D01*
X103558424Y-131602500D01*
X103882200Y-131538097D01*
X104249365Y-131292765D01*
X104311293Y-131200083D01*
X104346086Y-131165290D01*
X110656306Y-131165290D01*
X110677696Y-131883046D01*
X110911216Y-132446814D01*
X111195714Y-132566280D01*
X112291595Y-131470400D01*
X112650805Y-131470400D01*
X113746686Y-132566280D01*
X114031184Y-132446814D01*
X114286094Y-131775510D01*
X114264704Y-131057754D01*
X114031184Y-130493986D01*
X113746686Y-130374520D01*
X112650805Y-131470400D01*
X112291595Y-131470400D01*
X111195714Y-130374520D01*
X110911216Y-130493986D01*
X110656306Y-131165290D01*
X104346086Y-131165290D01*
X105316462Y-130194914D01*
X111375320Y-130194914D01*
X112471200Y-131290795D01*
X113567080Y-130194914D01*
X113447614Y-129910416D01*
X112776310Y-129655506D01*
X112058554Y-129676896D01*
X111494786Y-129910416D01*
X111375320Y-130194914D01*
X105316462Y-130194914D01*
X107235977Y-128275400D01*
X107830237Y-128275400D01*
X108493650Y-128000605D01*
X109001405Y-127492850D01*
X109276200Y-126829437D01*
X109276200Y-126111363D01*
X109001405Y-125447950D01*
X108493650Y-124940195D01*
X107830237Y-124665400D01*
X107112163Y-124665400D01*
X106448750Y-124940195D01*
X105940995Y-125447950D01*
X105666200Y-126111363D01*
X105666200Y-126705623D01*
X102989324Y-129382500D01*
X98059277Y-129382500D01*
X94687584Y-126010808D01*
X94413100Y-125827404D01*
X93980000Y-125741255D01*
X93546900Y-125827404D01*
X93179735Y-126072735D01*
X92934404Y-126439900D01*
X92848255Y-126873000D01*
X91945846Y-126873000D01*
X92147586Y-126671261D01*
X92240265Y-126609335D01*
X92485597Y-126242170D01*
X92550000Y-125918394D01*
X92550000Y-125918390D01*
X92571745Y-125809070D01*
X92550000Y-125699751D01*
X92550000Y-125330898D01*
X92791740Y-124969109D01*
X92903113Y-124409200D01*
X92791740Y-123849291D01*
X92474577Y-123374623D01*
X92168599Y-123170175D01*
X99339430Y-123170175D01*
X99462565Y-123457788D01*
X100144734Y-123717707D01*
X100874443Y-123696786D01*
X101451435Y-123457788D01*
X101574570Y-123170175D01*
X100457000Y-122052605D01*
X99339430Y-123170175D01*
X92168599Y-123170175D01*
X91999909Y-123057460D01*
X91581333Y-122974200D01*
X91298667Y-122974200D01*
X90880091Y-123057460D01*
X90405423Y-123374623D01*
X90170000Y-123726958D01*
X89934577Y-123374623D01*
X89459909Y-123057460D01*
X89041333Y-122974200D01*
X88758667Y-122974200D01*
X88340091Y-123057460D01*
X87865423Y-123374623D01*
X87630000Y-123726958D01*
X87470000Y-123487502D01*
X87470000Y-121560734D01*
X98612293Y-121560734D01*
X98633214Y-122290443D01*
X98872212Y-122867435D01*
X99159825Y-122990570D01*
X100277395Y-121873000D01*
X100636605Y-121873000D01*
X101754175Y-122990570D01*
X102041788Y-122867435D01*
X102301707Y-122185266D01*
X102280786Y-121455557D01*
X102041788Y-120878565D01*
X101754175Y-120755430D01*
X100636605Y-121873000D01*
X100277395Y-121873000D01*
X99159825Y-120755430D01*
X98872212Y-120878565D01*
X98612293Y-121560734D01*
X87470000Y-121560734D01*
X87470000Y-120575825D01*
X99339430Y-120575825D01*
X100457000Y-121693395D01*
X101574570Y-120575825D01*
X101451435Y-120288212D01*
X100769266Y-120028293D01*
X100039557Y-120049214D01*
X99462565Y-120288212D01*
X99339430Y-120575825D01*
X87470000Y-120575825D01*
X87470000Y-119524676D01*
X87405597Y-119200900D01*
X87160265Y-118833735D01*
X86793099Y-118588403D01*
X86360000Y-118502254D01*
X85926900Y-118588403D01*
X85559735Y-118833735D01*
X85314403Y-119200901D01*
X85250000Y-119524677D01*
X85250001Y-123487500D01*
X85090000Y-123726958D01*
X84854577Y-123374623D01*
X84379909Y-123057460D01*
X83961333Y-122974200D01*
X83678667Y-122974200D01*
X83260091Y-123057460D01*
X82785423Y-123374623D01*
X82468260Y-123849291D01*
X82356887Y-124409200D01*
X62885377Y-124409200D01*
X61110000Y-122633824D01*
X61110000Y-122022504D01*
X61640414Y-121492090D01*
X61750000Y-121227525D01*
X61859586Y-121492090D01*
X62403910Y-122036414D01*
X63115105Y-122331000D01*
X63884895Y-122331000D01*
X64596090Y-122036414D01*
X65140414Y-121492090D01*
X65435000Y-120780895D01*
X65435000Y-120011105D01*
X65140414Y-119299910D01*
X64596090Y-118755586D01*
X63884895Y-118461000D01*
X63115105Y-118461000D01*
X62403910Y-118755586D01*
X61859586Y-119299910D01*
X61750000Y-119564475D01*
X61640414Y-119299910D01*
X61096090Y-118755586D01*
X60384895Y-118461000D01*
X59615105Y-118461000D01*
X58903910Y-118755586D01*
X58373496Y-119286000D01*
X52653319Y-119286000D01*
X52544000Y-119264255D01*
X52434680Y-119286000D01*
X52434676Y-119286000D01*
X52110900Y-119350403D01*
X51743735Y-119595735D01*
X51681808Y-119688415D01*
X49186415Y-122183809D01*
X49093736Y-122245735D01*
X49031809Y-122338415D01*
X49031808Y-122338416D01*
X48848404Y-122612900D01*
X48762255Y-123046000D01*
X48784001Y-123155324D01*
X48784001Y-124100305D01*
X48448062Y-124603073D01*
X48328928Y-125202000D01*
X45160000Y-125202000D01*
X45160000Y-113716000D01*
X72936560Y-113716000D01*
X72936560Y-116916000D01*
X72985843Y-117163765D01*
X73126191Y-117373809D01*
X73336235Y-117514157D01*
X73584000Y-117563440D01*
X76784000Y-117563440D01*
X77031765Y-117514157D01*
X77241809Y-117373809D01*
X77382157Y-117163765D01*
X77431440Y-116916000D01*
X77431440Y-115790503D01*
X88239950Y-115790503D01*
X88544114Y-116524836D01*
X89149813Y-117152220D01*
X89949496Y-117500056D01*
X90297000Y-117388645D01*
X90297000Y-115443000D01*
X90551000Y-115443000D01*
X90551000Y-117388645D01*
X90898504Y-117500056D01*
X91698187Y-117152220D01*
X92303886Y-116524836D01*
X92502841Y-116044504D01*
X96113944Y-116044504D01*
X96461780Y-116844187D01*
X97089164Y-117449886D01*
X97823497Y-117754050D01*
X98171000Y-117642362D01*
X98171000Y-115697000D01*
X98425000Y-115697000D01*
X98425000Y-117642362D01*
X98772503Y-117754050D01*
X99506836Y-117449886D01*
X100134220Y-116844187D01*
X100482056Y-116044504D01*
X100370645Y-115697000D01*
X98425000Y-115697000D01*
X98171000Y-115697000D01*
X96225355Y-115697000D01*
X96113944Y-116044504D01*
X92502841Y-116044504D01*
X92608050Y-115790503D01*
X92496362Y-115443000D01*
X90551000Y-115443000D01*
X90297000Y-115443000D01*
X88351638Y-115443000D01*
X88239950Y-115790503D01*
X77431440Y-115790503D01*
X77431440Y-114841497D01*
X88239950Y-114841497D01*
X88351638Y-115189000D01*
X90297000Y-115189000D01*
X90297000Y-113243355D01*
X90551000Y-113243355D01*
X90551000Y-115189000D01*
X92496362Y-115189000D01*
X92526414Y-115095496D01*
X96113944Y-115095496D01*
X96225355Y-115443000D01*
X98171000Y-115443000D01*
X98171000Y-113497638D01*
X98425000Y-113497638D01*
X98425000Y-115443000D01*
X100370645Y-115443000D01*
X100482056Y-115095496D01*
X100134220Y-114295813D01*
X99506836Y-113690114D01*
X98772503Y-113385950D01*
X98425000Y-113497638D01*
X98171000Y-113497638D01*
X97823497Y-113385950D01*
X97089164Y-113690114D01*
X96461780Y-114295813D01*
X96113944Y-115095496D01*
X92526414Y-115095496D01*
X92608050Y-114841497D01*
X92303886Y-114107164D01*
X91698187Y-113479780D01*
X90898504Y-113131944D01*
X90551000Y-113243355D01*
X90297000Y-113243355D01*
X89949496Y-113131944D01*
X89149813Y-113479780D01*
X88544114Y-114107164D01*
X88239950Y-114841497D01*
X77431440Y-114841497D01*
X77431440Y-113716000D01*
X77382157Y-113468235D01*
X77241809Y-113258191D01*
X77031765Y-113117843D01*
X76784000Y-113068560D01*
X73584000Y-113068560D01*
X73336235Y-113117843D01*
X73126191Y-113258191D01*
X72985843Y-113468235D01*
X72936560Y-113716000D01*
X45160000Y-113716000D01*
X45160000Y-111623003D01*
X48622573Y-111623003D01*
X48702946Y-111920367D01*
X49178747Y-112721647D01*
X49924967Y-113279852D01*
X50828000Y-113510000D01*
X52578000Y-113510000D01*
X52578000Y-111252000D01*
X52832000Y-111252000D01*
X52832000Y-113510000D01*
X54582000Y-113510000D01*
X55485033Y-113279852D01*
X56231253Y-112721647D01*
X56707054Y-111920367D01*
X56787427Y-111623003D01*
X56677625Y-111252000D01*
X52832000Y-111252000D01*
X52578000Y-111252000D01*
X48732375Y-111252000D01*
X48622573Y-111623003D01*
X45160000Y-111623003D01*
X45160000Y-110626997D01*
X48622573Y-110626997D01*
X48732375Y-110998000D01*
X52578000Y-110998000D01*
X52578000Y-108740000D01*
X52832000Y-108740000D01*
X52832000Y-110998000D01*
X56677625Y-110998000D01*
X56787427Y-110626997D01*
X56707054Y-110329633D01*
X56231253Y-109528353D01*
X55485033Y-108970148D01*
X55343352Y-108934039D01*
X55943096Y-108934039D01*
X55960633Y-109016819D01*
X56230500Y-109509896D01*
X56668517Y-109862166D01*
X57208000Y-110020000D01*
X57658000Y-110020000D01*
X57658000Y-108712000D01*
X57912000Y-108712000D01*
X57912000Y-110020000D01*
X58362000Y-110020000D01*
X58901483Y-109862166D01*
X59339500Y-109509896D01*
X59609367Y-109016819D01*
X59626904Y-108934039D01*
X59504915Y-108712000D01*
X57912000Y-108712000D01*
X57658000Y-108712000D01*
X56065085Y-108712000D01*
X55943096Y-108934039D01*
X55343352Y-108934039D01*
X54582000Y-108740000D01*
X52832000Y-108740000D01*
X52578000Y-108740000D01*
X50828000Y-108740000D01*
X49924967Y-108970148D01*
X49178747Y-109528353D01*
X48702946Y-110329633D01*
X48622573Y-110626997D01*
X45160000Y-110626997D01*
X45160000Y-106045000D01*
X55871887Y-106045000D01*
X55983260Y-106604909D01*
X56300423Y-107079577D01*
X56656499Y-107317499D01*
X56230500Y-107660104D01*
X55960633Y-108153181D01*
X55943096Y-108235961D01*
X56065085Y-108458000D01*
X57658000Y-108458000D01*
X57658000Y-108438000D01*
X57912000Y-108438000D01*
X57912000Y-108458000D01*
X59504915Y-108458000D01*
X59626904Y-108235961D01*
X59609367Y-108153181D01*
X59339500Y-107660104D01*
X58913501Y-107317499D01*
X59269577Y-107079577D01*
X59586740Y-106604909D01*
X59698113Y-106045000D01*
X59586740Y-105485091D01*
X59536566Y-105410000D01*
X65160908Y-105410000D01*
X65276161Y-105989418D01*
X65604375Y-106480625D01*
X65622619Y-106492816D01*
X65577235Y-106501843D01*
X65367191Y-106642191D01*
X65226843Y-106852235D01*
X65177560Y-107100000D01*
X65177560Y-108800000D01*
X65226843Y-109047765D01*
X65367191Y-109257809D01*
X65577235Y-109398157D01*
X65825000Y-109447440D01*
X67525000Y-109447440D01*
X67772765Y-109398157D01*
X67982809Y-109257809D01*
X68123157Y-109047765D01*
X68172440Y-108800000D01*
X68172440Y-107188000D01*
X85228255Y-107188000D01*
X85250000Y-107297319D01*
X85250000Y-109011824D01*
X85314404Y-109335600D01*
X85559736Y-109702765D01*
X85926901Y-109948097D01*
X86360000Y-110034246D01*
X86793100Y-109948097D01*
X87160265Y-109702765D01*
X87405597Y-109335600D01*
X87470000Y-109011824D01*
X87470000Y-107647776D01*
X89832623Y-105285154D01*
X90203872Y-105359000D01*
X90644128Y-105359000D01*
X91296054Y-105229324D01*
X92035345Y-104735345D01*
X92529324Y-103996054D01*
X92702786Y-103124000D01*
X92529324Y-102251946D01*
X92035345Y-101512655D01*
X91296054Y-101018676D01*
X90644128Y-100889000D01*
X90203872Y-100889000D01*
X89551946Y-101018676D01*
X88812655Y-101512655D01*
X88318676Y-102251946D01*
X88145214Y-103124000D01*
X88262846Y-103715377D01*
X85652417Y-106325807D01*
X85559735Y-106387735D01*
X85314403Y-106754901D01*
X85250000Y-107078677D01*
X85250000Y-107078681D01*
X85228255Y-107188000D01*
X68172440Y-107188000D01*
X68172440Y-107100000D01*
X68123157Y-106852235D01*
X67982809Y-106642191D01*
X67772765Y-106501843D01*
X67727381Y-106492816D01*
X67745625Y-106480625D01*
X68073839Y-105989418D01*
X68189092Y-105410000D01*
X68073839Y-104830582D01*
X67745625Y-104339375D01*
X67426522Y-104126157D01*
X67556358Y-104065183D01*
X67946645Y-103636924D01*
X68116476Y-103226890D01*
X67995155Y-102997000D01*
X66802000Y-102997000D01*
X66802000Y-103017000D01*
X66548000Y-103017000D01*
X66548000Y-102997000D01*
X65354845Y-102997000D01*
X65233524Y-103226890D01*
X65403355Y-103636924D01*
X65793642Y-104065183D01*
X65923478Y-104126157D01*
X65604375Y-104339375D01*
X65276161Y-104830582D01*
X65160908Y-105410000D01*
X59536566Y-105410000D01*
X59269577Y-105010423D01*
X58794909Y-104693260D01*
X58376333Y-104610000D01*
X57193667Y-104610000D01*
X56775091Y-104693260D01*
X56300423Y-105010423D01*
X55983260Y-105485091D01*
X55871887Y-106045000D01*
X45160000Y-106045000D01*
X45160000Y-101463003D01*
X48622573Y-101463003D01*
X48702946Y-101760367D01*
X49178747Y-102561647D01*
X49924967Y-103119852D01*
X50828000Y-103350000D01*
X52578000Y-103350000D01*
X52578000Y-101092000D01*
X52832000Y-101092000D01*
X52832000Y-103350000D01*
X54582000Y-103350000D01*
X55485033Y-103119852D01*
X56231253Y-102561647D01*
X56260074Y-102513110D01*
X65233524Y-102513110D01*
X65354845Y-102743000D01*
X66548000Y-102743000D01*
X66548000Y-101549181D01*
X66802000Y-101549181D01*
X66802000Y-102743000D01*
X67995155Y-102743000D01*
X68116476Y-102513110D01*
X67946645Y-102103076D01*
X67556358Y-101674817D01*
X67235216Y-101524000D01*
X72936560Y-101524000D01*
X72936560Y-104724000D01*
X72985843Y-104971765D01*
X73126191Y-105181809D01*
X73336235Y-105322157D01*
X73584000Y-105371440D01*
X76784000Y-105371440D01*
X77031765Y-105322157D01*
X77241809Y-105181809D01*
X77382157Y-104971765D01*
X77431440Y-104724000D01*
X77431440Y-101524000D01*
X77382157Y-101276235D01*
X77241809Y-101066191D01*
X77031765Y-100925843D01*
X76784000Y-100876560D01*
X73584000Y-100876560D01*
X73336235Y-100925843D01*
X73126191Y-101066191D01*
X72985843Y-101276235D01*
X72936560Y-101524000D01*
X67235216Y-101524000D01*
X67031892Y-101428514D01*
X66802000Y-101549181D01*
X66548000Y-101549181D01*
X66318108Y-101428514D01*
X65793642Y-101674817D01*
X65403355Y-102103076D01*
X65233524Y-102513110D01*
X56260074Y-102513110D01*
X56707054Y-101760367D01*
X56787427Y-101463003D01*
X56677625Y-101092000D01*
X52832000Y-101092000D01*
X52578000Y-101092000D01*
X48732375Y-101092000D01*
X48622573Y-101463003D01*
X45160000Y-101463003D01*
X45160000Y-100466997D01*
X48622573Y-100466997D01*
X48732375Y-100838000D01*
X52578000Y-100838000D01*
X52578000Y-98580000D01*
X52832000Y-98580000D01*
X52832000Y-100838000D01*
X56677625Y-100838000D01*
X56787427Y-100466997D01*
X56707054Y-100169633D01*
X56231253Y-99368353D01*
X55485033Y-98810148D01*
X55170556Y-98730000D01*
X96050560Y-98730000D01*
X96050560Y-101930000D01*
X96099843Y-102177765D01*
X96240191Y-102387809D01*
X96450235Y-102528157D01*
X96698000Y-102577440D01*
X99898000Y-102577440D01*
X100145765Y-102528157D01*
X100355809Y-102387809D01*
X100496157Y-102177765D01*
X100545440Y-101930000D01*
X100545440Y-98730000D01*
X100496157Y-98482235D01*
X100355809Y-98272191D01*
X100145765Y-98131843D01*
X99898000Y-98082560D01*
X96698000Y-98082560D01*
X96450235Y-98131843D01*
X96240191Y-98272191D01*
X96099843Y-98482235D01*
X96050560Y-98730000D01*
X55170556Y-98730000D01*
X54582000Y-98580000D01*
X52832000Y-98580000D01*
X52578000Y-98580000D01*
X50828000Y-98580000D01*
X49924967Y-98810148D01*
X49178747Y-99368353D01*
X48702946Y-100169633D01*
X48622573Y-100466997D01*
X45160000Y-100466997D01*
X45160000Y-91406000D01*
X48492960Y-91406000D01*
X48492960Y-93506000D01*
X48542243Y-93753765D01*
X48682591Y-93963809D01*
X48892635Y-94104157D01*
X49140400Y-94153440D01*
X51240400Y-94153440D01*
X51488165Y-94104157D01*
X51698209Y-93963809D01*
X51838557Y-93753765D01*
X51887840Y-93506000D01*
X51887840Y-92964000D01*
X88909908Y-92964000D01*
X89025161Y-93543418D01*
X89353375Y-94034625D01*
X89844582Y-94362839D01*
X90277744Y-94449000D01*
X90570256Y-94449000D01*
X91003418Y-94362839D01*
X91494625Y-94034625D01*
X91506816Y-94016381D01*
X91515843Y-94061765D01*
X91656191Y-94271809D01*
X91866235Y-94412157D01*
X92114000Y-94461440D01*
X93814000Y-94461440D01*
X94061765Y-94412157D01*
X94271809Y-94271809D01*
X94412157Y-94061765D01*
X94461440Y-93814000D01*
X94461440Y-92114000D01*
X94412157Y-91866235D01*
X94271809Y-91656191D01*
X94133800Y-91563976D01*
X96602177Y-89095600D01*
X105752829Y-89095600D01*
X105778243Y-89223365D01*
X105918591Y-89433409D01*
X106128635Y-89573757D01*
X106376400Y-89623040D01*
X110336400Y-89623040D01*
X110584165Y-89573757D01*
X110794209Y-89433409D01*
X110934557Y-89223365D01*
X110983840Y-88975600D01*
X110983840Y-86995600D01*
X110934557Y-86747835D01*
X110794209Y-86537791D01*
X110584165Y-86397443D01*
X110336400Y-86348160D01*
X106376400Y-86348160D01*
X106128635Y-86397443D01*
X105918591Y-86537791D01*
X105778243Y-86747835D01*
X105752829Y-86875600D01*
X96251719Y-86875600D01*
X96142399Y-86853855D01*
X96033079Y-86875600D01*
X96033076Y-86875600D01*
X95709300Y-86940003D01*
X95709299Y-86940004D01*
X95709298Y-86940004D01*
X95645633Y-86982544D01*
X95342135Y-87185335D01*
X95280208Y-87278015D01*
X92256415Y-90301809D01*
X92163736Y-90363735D01*
X92101809Y-90456415D01*
X92101808Y-90456416D01*
X91918404Y-90730900D01*
X91832255Y-91164000D01*
X91854001Y-91273324D01*
X91854001Y-91524018D01*
X91656191Y-91656191D01*
X91515843Y-91866235D01*
X91506816Y-91911619D01*
X91494625Y-91893375D01*
X91003418Y-91565161D01*
X90570256Y-91479000D01*
X90277744Y-91479000D01*
X89844582Y-91565161D01*
X89353375Y-91893375D01*
X89025161Y-92384582D01*
X88909908Y-92964000D01*
X51887840Y-92964000D01*
X51887840Y-92523745D01*
X80066798Y-92523745D01*
X80140932Y-92769864D01*
X80678160Y-92962965D01*
X81248391Y-92935778D01*
X81648942Y-92769864D01*
X81723076Y-92523745D01*
X80894937Y-91695605D01*
X80066798Y-92523745D01*
X51887840Y-92523745D01*
X51887840Y-91406000D01*
X51838557Y-91158235D01*
X51698209Y-90948191D01*
X51488165Y-90807843D01*
X51240400Y-90758560D01*
X49140400Y-90758560D01*
X48892635Y-90807843D01*
X48682591Y-90948191D01*
X48542243Y-91158235D01*
X48492960Y-91406000D01*
X45160000Y-91406000D01*
X45160000Y-89405937D01*
X61722560Y-89405937D01*
X61722560Y-91005937D01*
X61771843Y-91253702D01*
X61912191Y-91463746D01*
X62122235Y-91604094D01*
X62370000Y-91653377D01*
X63970000Y-91653377D01*
X64217765Y-91604094D01*
X64427809Y-91463746D01*
X64568157Y-91253702D01*
X64617440Y-91005937D01*
X64617440Y-90982440D01*
X65570000Y-90982440D01*
X65817765Y-90933157D01*
X66027809Y-90792809D01*
X66168157Y-90582765D01*
X66217440Y-90335000D01*
X66217440Y-88735000D01*
X66168157Y-88487235D01*
X66027809Y-88277191D01*
X65817765Y-88136843D01*
X65583813Y-88090307D01*
X65598139Y-88042745D01*
X64770000Y-87214605D01*
X63941861Y-88042745D01*
X63956187Y-88090307D01*
X63722235Y-88136843D01*
X63512191Y-88277191D01*
X63371843Y-88487235D01*
X63322560Y-88735000D01*
X63322560Y-88758497D01*
X62370000Y-88758497D01*
X62122235Y-88807780D01*
X61912191Y-88948128D01*
X61771843Y-89158172D01*
X61722560Y-89405937D01*
X45160000Y-89405937D01*
X45160000Y-88564703D01*
X49181302Y-88564703D01*
X49286087Y-88836745D01*
X49913926Y-89071619D01*
X50583856Y-89048349D01*
X51094713Y-88836745D01*
X51199498Y-88564703D01*
X50190400Y-87555605D01*
X49181302Y-88564703D01*
X45160000Y-88564703D01*
X45160000Y-87099526D01*
X48494781Y-87099526D01*
X48518051Y-87769456D01*
X48729655Y-88280313D01*
X49001697Y-88385098D01*
X50010795Y-87376000D01*
X50370005Y-87376000D01*
X51379103Y-88385098D01*
X51651145Y-88280313D01*
X51886019Y-87652474D01*
X51862749Y-86982544D01*
X51794685Y-86818223D01*
X63323035Y-86818223D01*
X63350222Y-87388454D01*
X63516136Y-87789005D01*
X63762255Y-87863139D01*
X64590395Y-87035000D01*
X63762255Y-86206861D01*
X63516136Y-86280995D01*
X63323035Y-86818223D01*
X51794685Y-86818223D01*
X51651145Y-86471687D01*
X51379103Y-86366902D01*
X50370005Y-87376000D01*
X50010795Y-87376000D01*
X49001697Y-86366902D01*
X48729655Y-86471687D01*
X48494781Y-87099526D01*
X45160000Y-87099526D01*
X45160000Y-86187297D01*
X49181302Y-86187297D01*
X50190400Y-87196395D01*
X51199498Y-86187297D01*
X51137854Y-86027255D01*
X63941861Y-86027255D01*
X64770000Y-86855395D01*
X64784143Y-86841253D01*
X64963748Y-87020858D01*
X64949605Y-87035000D01*
X65777745Y-87863139D01*
X66023864Y-87789005D01*
X66031654Y-87767331D01*
X66153223Y-87811028D01*
X66723454Y-87783841D01*
X67124005Y-87617927D01*
X67154706Y-87516000D01*
X75605623Y-87516000D01*
X75605623Y-89116000D01*
X75654906Y-89363765D01*
X75795254Y-89573809D01*
X76005298Y-89714157D01*
X76253063Y-89763440D01*
X76276560Y-89763440D01*
X76276560Y-90716000D01*
X76325843Y-90963765D01*
X76466191Y-91173809D01*
X76676235Y-91314157D01*
X76924000Y-91363440D01*
X78524000Y-91363440D01*
X78771765Y-91314157D01*
X78981809Y-91173809D01*
X79122157Y-90963765D01*
X79130117Y-90923745D01*
X79395861Y-90923745D01*
X79469995Y-91169864D01*
X79491669Y-91177654D01*
X79447972Y-91299223D01*
X79475159Y-91869454D01*
X79641073Y-92270005D01*
X79887192Y-92344139D01*
X80715332Y-91516000D01*
X81074542Y-91516000D01*
X81902682Y-92344139D01*
X82148801Y-92270005D01*
X82341902Y-91732777D01*
X82314715Y-91162546D01*
X82148801Y-90761995D01*
X81902682Y-90687861D01*
X81074542Y-91516000D01*
X80715332Y-91516000D01*
X80701190Y-91501858D01*
X80880795Y-91322253D01*
X80894937Y-91336395D01*
X81723076Y-90508255D01*
X81648942Y-90262136D01*
X81627268Y-90254346D01*
X81670965Y-90132777D01*
X81643778Y-89562546D01*
X81477864Y-89161995D01*
X81231745Y-89087861D01*
X80403605Y-89916000D01*
X80417748Y-89930143D01*
X80238143Y-90109748D01*
X80224000Y-90095605D01*
X79395861Y-90923745D01*
X79130117Y-90923745D01*
X79168693Y-90729813D01*
X79216255Y-90744139D01*
X80044395Y-89916000D01*
X79216255Y-89087861D01*
X79168693Y-89102187D01*
X79130118Y-88908255D01*
X79395861Y-88908255D01*
X80224000Y-89736395D01*
X81052139Y-88908255D01*
X80978005Y-88662136D01*
X80440777Y-88469035D01*
X79870546Y-88496222D01*
X79469995Y-88662136D01*
X79395861Y-88908255D01*
X79130118Y-88908255D01*
X79122157Y-88868235D01*
X78981809Y-88658191D01*
X78771765Y-88517843D01*
X78524000Y-88468560D01*
X78500503Y-88468560D01*
X78500503Y-87516000D01*
X78451220Y-87268235D01*
X78310872Y-87058191D01*
X78100828Y-86917843D01*
X77853063Y-86868560D01*
X76253063Y-86868560D01*
X76005298Y-86917843D01*
X75795254Y-87058191D01*
X75654906Y-87268235D01*
X75605623Y-87516000D01*
X67154706Y-87516000D01*
X67198139Y-87371808D01*
X66370000Y-86543668D01*
X66355858Y-86557811D01*
X66176253Y-86378206D01*
X66190395Y-86364063D01*
X66549605Y-86364063D01*
X67377745Y-87192202D01*
X67623864Y-87118068D01*
X67816965Y-86580840D01*
X67789778Y-86010609D01*
X67623864Y-85610058D01*
X67377745Y-85535924D01*
X66549605Y-86364063D01*
X66190395Y-86364063D01*
X65362255Y-85535924D01*
X65116136Y-85610058D01*
X65108346Y-85631732D01*
X64986777Y-85588035D01*
X64416546Y-85615222D01*
X64015995Y-85781136D01*
X63941861Y-86027255D01*
X51137854Y-86027255D01*
X51094713Y-85915255D01*
X50466874Y-85680381D01*
X49796944Y-85703651D01*
X49286087Y-85915255D01*
X49181302Y-86187297D01*
X45160000Y-86187297D01*
X45160000Y-85356318D01*
X65541861Y-85356318D01*
X66370000Y-86184458D01*
X67198139Y-85356318D01*
X67124005Y-85110199D01*
X66586777Y-84917098D01*
X66016546Y-84944285D01*
X65615995Y-85110199D01*
X65541861Y-85356318D01*
X45160000Y-85356318D01*
X45160000Y-79978561D01*
X72733000Y-79978561D01*
X72733000Y-80549439D01*
X72951466Y-81076862D01*
X73355138Y-81480534D01*
X73882561Y-81699000D01*
X74453439Y-81699000D01*
X74980862Y-81480534D01*
X75384534Y-81076862D01*
X75576655Y-80613039D01*
X80396096Y-80613039D01*
X80556959Y-81001423D01*
X80932866Y-81416389D01*
X81438959Y-81655914D01*
X81661000Y-81534629D01*
X81661000Y-80391000D01*
X81915000Y-80391000D01*
X81915000Y-81534629D01*
X82137041Y-81655914D01*
X82643134Y-81416389D01*
X83019041Y-81001423D01*
X83179904Y-80613039D01*
X83057915Y-80391000D01*
X81915000Y-80391000D01*
X81661000Y-80391000D01*
X80518085Y-80391000D01*
X80396096Y-80613039D01*
X75576655Y-80613039D01*
X75603000Y-80549439D01*
X75603000Y-79978561D01*
X75576656Y-79914961D01*
X80396096Y-79914961D01*
X80518085Y-80137000D01*
X81661000Y-80137000D01*
X81661000Y-78993371D01*
X81915000Y-78993371D01*
X81915000Y-80137000D01*
X83057915Y-80137000D01*
X83179904Y-79914961D01*
X83019041Y-79526577D01*
X82643134Y-79111611D01*
X82137041Y-78872086D01*
X81915000Y-78993371D01*
X81661000Y-78993371D01*
X81438959Y-78872086D01*
X80932866Y-79111611D01*
X80556959Y-79526577D01*
X80396096Y-79914961D01*
X75576656Y-79914961D01*
X75384534Y-79451138D01*
X74980862Y-79047466D01*
X74453439Y-78829000D01*
X73882561Y-78829000D01*
X73355138Y-79047466D01*
X72951466Y-79451138D01*
X72733000Y-79978561D01*
X45160000Y-79978561D01*
X45160000Y-77597000D01*
X54610000Y-77597000D01*
X54658601Y-77587333D01*
X54699803Y-77559803D01*
X54727333Y-77518601D01*
X54737000Y-77470000D01*
X54737000Y-76570000D01*
X60047560Y-76570000D01*
X60047560Y-78370000D01*
X60096843Y-78617765D01*
X60237191Y-78827809D01*
X60447235Y-78968157D01*
X60695000Y-79017440D01*
X62495000Y-79017440D01*
X62742765Y-78968157D01*
X62952809Y-78827809D01*
X63093157Y-78617765D01*
X63142440Y-78370000D01*
X63142440Y-77834740D01*
X63503964Y-77834740D01*
X63682760Y-78266417D01*
X64087424Y-78707966D01*
X64630258Y-78961046D01*
X64868000Y-78840997D01*
X64868000Y-77597000D01*
X65122000Y-77597000D01*
X65122000Y-78840997D01*
X65359742Y-78961046D01*
X65902576Y-78707966D01*
X66307240Y-78266417D01*
X66486036Y-77834740D01*
X66365378Y-77597000D01*
X65122000Y-77597000D01*
X64868000Y-77597000D01*
X63624622Y-77597000D01*
X63503964Y-77834740D01*
X63142440Y-77834740D01*
X63142440Y-77470000D01*
X66829928Y-77470000D01*
X66949062Y-78068927D01*
X67288327Y-78576673D01*
X67796073Y-78915938D01*
X68243818Y-79005000D01*
X68546182Y-79005000D01*
X68993927Y-78915938D01*
X69501673Y-78576673D01*
X69840938Y-78068927D01*
X69960072Y-77470000D01*
X69840938Y-76871073D01*
X69501673Y-76363327D01*
X68993927Y-76024062D01*
X68546182Y-75935000D01*
X68243818Y-75935000D01*
X67796073Y-76024062D01*
X67288327Y-76363327D01*
X66949062Y-76871073D01*
X66829928Y-77470000D01*
X63142440Y-77470000D01*
X63142440Y-77105260D01*
X63503964Y-77105260D01*
X63624622Y-77343000D01*
X64868000Y-77343000D01*
X64868000Y-76099003D01*
X65122000Y-76099003D01*
X65122000Y-77343000D01*
X66365378Y-77343000D01*
X66486036Y-77105260D01*
X66307240Y-76673583D01*
X65902576Y-76232034D01*
X65359742Y-75978954D01*
X65122000Y-76099003D01*
X64868000Y-76099003D01*
X64630258Y-75978954D01*
X64087424Y-76232034D01*
X63682760Y-76673583D01*
X63503964Y-77105260D01*
X63142440Y-77105260D01*
X63142440Y-76570000D01*
X63093157Y-76322235D01*
X62952809Y-76112191D01*
X62742765Y-75971843D01*
X62495000Y-75922560D01*
X60695000Y-75922560D01*
X60447235Y-75971843D01*
X60237191Y-76112191D01*
X60096843Y-76322235D01*
X60047560Y-76570000D01*
X54737000Y-76570000D01*
X54737000Y-73770000D01*
X61729928Y-73770000D01*
X61849062Y-74368927D01*
X62188327Y-74876673D01*
X62696073Y-75215938D01*
X63143818Y-75305000D01*
X63446182Y-75305000D01*
X63893927Y-75215938D01*
X64401673Y-74876673D01*
X64740938Y-74368927D01*
X64860072Y-73770000D01*
X64740938Y-73171073D01*
X64520628Y-72841356D01*
X64928785Y-72433200D01*
X65932736Y-72433200D01*
X65588327Y-72663327D01*
X65249062Y-73171073D01*
X65129928Y-73770000D01*
X65249062Y-74368927D01*
X65588327Y-74876673D01*
X66096073Y-75215938D01*
X66543818Y-75305000D01*
X66846182Y-75305000D01*
X67293927Y-75215938D01*
X67801673Y-74876673D01*
X68140938Y-74368927D01*
X68260072Y-73770000D01*
X68140938Y-73171073D01*
X67801673Y-72663327D01*
X67457264Y-72433200D01*
X89405424Y-72433200D01*
X93174800Y-76202577D01*
X93174801Y-80515422D01*
X91851000Y-81839223D01*
X91851000Y-81459105D01*
X91556414Y-80747910D01*
X91012090Y-80203586D01*
X90300895Y-79909000D01*
X89531105Y-79909000D01*
X88819910Y-80203586D01*
X88275586Y-80747910D01*
X87981000Y-81459105D01*
X87981000Y-82228895D01*
X88275586Y-82940090D01*
X88819910Y-83484414D01*
X89084475Y-83594000D01*
X88819910Y-83703586D01*
X88275586Y-84247910D01*
X87981000Y-84959105D01*
X87981000Y-85728895D01*
X88275586Y-86440090D01*
X88819910Y-86984414D01*
X89531105Y-87279000D01*
X90300895Y-87279000D01*
X91012090Y-86984414D01*
X91556414Y-86440090D01*
X91851000Y-85728895D01*
X91851000Y-84978776D01*
X94992385Y-81837392D01*
X95085065Y-81775465D01*
X95164947Y-81655914D01*
X95205585Y-81595094D01*
X95330397Y-81408300D01*
X95394800Y-81084524D01*
X95394800Y-81084520D01*
X95416545Y-80975201D01*
X95394800Y-80865881D01*
X95394800Y-75852119D01*
X95416545Y-75742799D01*
X95394800Y-75633480D01*
X95394800Y-75633476D01*
X95330397Y-75309700D01*
X95085065Y-74942535D01*
X94992386Y-74880609D01*
X90727393Y-70615617D01*
X90665465Y-70522935D01*
X90298300Y-70277603D01*
X89974524Y-70213200D01*
X89974519Y-70213200D01*
X89865200Y-70191455D01*
X89755881Y-70213200D01*
X64578327Y-70213200D01*
X64469007Y-70191455D01*
X64359688Y-70213200D01*
X64359684Y-70213200D01*
X64035908Y-70277603D01*
X63668743Y-70522935D01*
X63606816Y-70615615D01*
X62587415Y-71635017D01*
X62494736Y-71696943D01*
X62249404Y-72064108D01*
X62185000Y-72387884D01*
X62185000Y-72387889D01*
X62163255Y-72497208D01*
X62185000Y-72606527D01*
X62185000Y-72668306D01*
X61849062Y-73171073D01*
X61729928Y-73770000D01*
X54737000Y-73770000D01*
X54737000Y-68020000D01*
X105283000Y-68020000D01*
X105283000Y-77470000D01*
X105283000Y-77470000D01*
G37*
X105283000Y-77470000D02*
X105292667Y-77518601D01*
X105320197Y-77559803D01*
X105361399Y-77587333D01*
X105410000Y-77597000D01*
X116130000Y-77597000D01*
X116130000Y-88175491D01*
X116116265Y-88154935D01*
X116023585Y-88093008D01*
X110988791Y-83058215D01*
X111003235Y-82985600D01*
X110877116Y-82351557D01*
X110517959Y-81814041D01*
X109980443Y-81454884D01*
X109506445Y-81360600D01*
X107206355Y-81360600D01*
X106732357Y-81454884D01*
X106194841Y-81814041D01*
X105835684Y-82351557D01*
X105709565Y-82985600D01*
X105835684Y-83619643D01*
X106194841Y-84157159D01*
X106732357Y-84516316D01*
X107206355Y-84610600D01*
X109401624Y-84610600D01*
X114206001Y-89414978D01*
X114206001Y-98861319D01*
X114204605Y-98857950D01*
X113696850Y-98350195D01*
X113033437Y-98075400D01*
X112315363Y-98075400D01*
X111651950Y-98350195D01*
X111144195Y-98857950D01*
X110869400Y-99521363D01*
X110869400Y-100239437D01*
X111144195Y-100902850D01*
X111651950Y-101410605D01*
X112315363Y-101685400D01*
X113033437Y-101685400D01*
X113696850Y-101410605D01*
X114204605Y-100902850D01*
X114206000Y-100899481D01*
X114206000Y-108861318D01*
X114204605Y-108857950D01*
X113696850Y-108350195D01*
X113033437Y-108075400D01*
X112315363Y-108075400D01*
X111651950Y-108350195D01*
X111282601Y-108719544D01*
X111027495Y-108668800D01*
X111027490Y-108668800D01*
X110918171Y-108647055D01*
X110808852Y-108668800D01*
X101094577Y-108668800D01*
X96947140Y-104521363D01*
X105869400Y-104521363D01*
X105869400Y-105239437D01*
X106144195Y-105902850D01*
X106651950Y-106410605D01*
X107315363Y-106685400D01*
X108033437Y-106685400D01*
X108696850Y-106410605D01*
X109204605Y-105902850D01*
X109479400Y-105239437D01*
X109479400Y-104521363D01*
X109204605Y-103857950D01*
X108696850Y-103350195D01*
X108033437Y-103075400D01*
X107315363Y-103075400D01*
X106651950Y-103350195D01*
X106144195Y-103857950D01*
X105869400Y-104521363D01*
X96947140Y-104521363D01*
X95195584Y-102769808D01*
X94921100Y-102586404D01*
X94488000Y-102500255D01*
X94054900Y-102586404D01*
X93687735Y-102831735D01*
X93442404Y-103198900D01*
X93356255Y-103632000D01*
X93442404Y-104065100D01*
X93625808Y-104339584D01*
X99772607Y-110486384D01*
X99834535Y-110579065D01*
X100201700Y-110824397D01*
X100525476Y-110888800D01*
X100525480Y-110888800D01*
X100634800Y-110910545D01*
X100744119Y-110888800D01*
X110531002Y-110888800D01*
X110586671Y-110925997D01*
X110910447Y-110990400D01*
X110910451Y-110990400D01*
X111019770Y-111012145D01*
X111129090Y-110990400D01*
X111231745Y-110990400D01*
X111651950Y-111410605D01*
X112315363Y-111685400D01*
X113033437Y-111685400D01*
X113696850Y-111410605D01*
X114204605Y-110902850D01*
X114206000Y-110899482D01*
X114206000Y-111744723D01*
X113861818Y-112088906D01*
X113769136Y-112150834D01*
X113579341Y-112434882D01*
X108164775Y-117849449D01*
X107961400Y-117889903D01*
X107594235Y-118135235D01*
X107532308Y-118227915D01*
X100722224Y-125038000D01*
X100091996Y-125038000D01*
X99417556Y-125317362D01*
X98901362Y-125833556D01*
X98622000Y-126507996D01*
X98622000Y-127238004D01*
X98901362Y-127912444D01*
X99417556Y-128428638D01*
X100091996Y-128708000D01*
X100822004Y-128708000D01*
X101496444Y-128428638D01*
X102012638Y-127912444D01*
X102292000Y-127238004D01*
X102292000Y-126607776D01*
X107788413Y-121111363D01*
X110666200Y-121111363D01*
X110666200Y-121829437D01*
X110940995Y-122492850D01*
X111448750Y-123000605D01*
X112112163Y-123275400D01*
X112830237Y-123275400D01*
X113493650Y-123000605D01*
X114001405Y-122492850D01*
X114276200Y-121829437D01*
X114276200Y-121111363D01*
X114001405Y-120447950D01*
X113493650Y-119940195D01*
X112830237Y-119665400D01*
X112112163Y-119665400D01*
X111448750Y-119940195D01*
X110940995Y-120447950D01*
X110666200Y-121111363D01*
X107788413Y-121111363D01*
X108878226Y-120021550D01*
X109081600Y-119981097D01*
X109448765Y-119735765D01*
X109510693Y-119643083D01*
X115276987Y-113876790D01*
X115369666Y-113814864D01*
X115559462Y-113530814D01*
X116023585Y-113066691D01*
X116116265Y-113004765D01*
X116130001Y-112984208D01*
X116130001Y-135763000D01*
X106680000Y-135763000D01*
X106631399Y-135772667D01*
X106590197Y-135800197D01*
X106562667Y-135841399D01*
X106553000Y-135890000D01*
X106553000Y-145340000D01*
X54737000Y-145340000D01*
X54737000Y-142487439D01*
X73385696Y-142487439D01*
X73546559Y-142875823D01*
X73922466Y-143290789D01*
X74428559Y-143530314D01*
X74650600Y-143409029D01*
X74650600Y-142265400D01*
X74904600Y-142265400D01*
X74904600Y-143409029D01*
X75126641Y-143530314D01*
X75632734Y-143290789D01*
X76008641Y-142875823D01*
X76169504Y-142487439D01*
X76047515Y-142265400D01*
X74904600Y-142265400D01*
X74650600Y-142265400D01*
X73507685Y-142265400D01*
X73385696Y-142487439D01*
X54737000Y-142487439D01*
X54737000Y-141789361D01*
X73385696Y-141789361D01*
X73507685Y-142011400D01*
X74650600Y-142011400D01*
X74650600Y-140867771D01*
X74904600Y-140867771D01*
X74904600Y-142011400D01*
X76047515Y-142011400D01*
X76134561Y-141852961D01*
X80962600Y-141852961D01*
X80962600Y-142423839D01*
X81181066Y-142951262D01*
X81584738Y-143354934D01*
X82112161Y-143573400D01*
X82683039Y-143573400D01*
X83210462Y-143354934D01*
X83614134Y-142951262D01*
X83832600Y-142423839D01*
X83832600Y-141986000D01*
X84642887Y-141986000D01*
X84754260Y-142545909D01*
X85071423Y-143020577D01*
X85546091Y-143337740D01*
X85964667Y-143421000D01*
X86247333Y-143421000D01*
X86665909Y-143337740D01*
X87140577Y-143020577D01*
X87158505Y-142993745D01*
X92897861Y-142993745D01*
X92971995Y-143239864D01*
X93509223Y-143432965D01*
X94079454Y-143405778D01*
X94480005Y-143239864D01*
X94554139Y-142993745D01*
X93726000Y-142165605D01*
X92897861Y-142993745D01*
X87158505Y-142993745D01*
X87457740Y-142545909D01*
X87569113Y-141986000D01*
X87525994Y-141769223D01*
X92279035Y-141769223D01*
X92306222Y-142339454D01*
X92472136Y-142740005D01*
X92718255Y-142814139D01*
X93546395Y-141986000D01*
X93905605Y-141986000D01*
X94733745Y-142814139D01*
X94979864Y-142740005D01*
X95132924Y-142314175D01*
X99402930Y-142314175D01*
X99526065Y-142601788D01*
X100208234Y-142861707D01*
X100937943Y-142840786D01*
X101514935Y-142601788D01*
X101638070Y-142314175D01*
X100520500Y-141196605D01*
X99402930Y-142314175D01*
X95132924Y-142314175D01*
X95172965Y-142202777D01*
X95145778Y-141632546D01*
X94979864Y-141231995D01*
X94733745Y-141157861D01*
X93905605Y-141986000D01*
X93546395Y-141986000D01*
X92718255Y-141157861D01*
X92472136Y-141231995D01*
X92279035Y-141769223D01*
X87525994Y-141769223D01*
X87457740Y-141426091D01*
X87158506Y-140978255D01*
X92897861Y-140978255D01*
X93726000Y-141806395D01*
X94554139Y-140978255D01*
X94480005Y-140732136D01*
X94403770Y-140704734D01*
X98675793Y-140704734D01*
X98696714Y-141434443D01*
X98935712Y-142011435D01*
X99223325Y-142134570D01*
X100340895Y-141017000D01*
X100700105Y-141017000D01*
X101817675Y-142134570D01*
X102105288Y-142011435D01*
X102365207Y-141329266D01*
X102344286Y-140599557D01*
X102105288Y-140022565D01*
X101817675Y-139899430D01*
X100700105Y-141017000D01*
X100340895Y-141017000D01*
X99223325Y-139899430D01*
X98935712Y-140022565D01*
X98675793Y-140704734D01*
X94403770Y-140704734D01*
X93942777Y-140539035D01*
X93372546Y-140566222D01*
X92971995Y-140732136D01*
X92897861Y-140978255D01*
X87158506Y-140978255D01*
X87140577Y-140951423D01*
X86665909Y-140634260D01*
X86247333Y-140551000D01*
X85964667Y-140551000D01*
X85546091Y-140634260D01*
X85071423Y-140951423D01*
X84754260Y-141426091D01*
X84642887Y-141986000D01*
X83832600Y-141986000D01*
X83832600Y-141852961D01*
X83614134Y-141325538D01*
X83210462Y-140921866D01*
X82683039Y-140703400D01*
X82112161Y-140703400D01*
X81584738Y-140921866D01*
X81181066Y-141325538D01*
X80962600Y-141852961D01*
X76134561Y-141852961D01*
X76169504Y-141789361D01*
X76008641Y-141400977D01*
X75632734Y-140986011D01*
X75126641Y-140746486D01*
X74904600Y-140867771D01*
X74650600Y-140867771D01*
X74428559Y-140746486D01*
X73922466Y-140986011D01*
X73546559Y-141400977D01*
X73385696Y-141789361D01*
X54737000Y-141789361D01*
X54737000Y-141291745D01*
X62794798Y-141291745D01*
X62868932Y-141537864D01*
X63406160Y-141730965D01*
X63976391Y-141703778D01*
X64376942Y-141537864D01*
X64451076Y-141291745D01*
X63622937Y-140463605D01*
X62794798Y-141291745D01*
X54737000Y-141291745D01*
X54737000Y-136284000D01*
X58333623Y-136284000D01*
X58333623Y-137884000D01*
X58382906Y-138131765D01*
X58523254Y-138341809D01*
X58733298Y-138482157D01*
X58981063Y-138531440D01*
X59004560Y-138531440D01*
X59004560Y-139484000D01*
X59053843Y-139731765D01*
X59194191Y-139941809D01*
X59404235Y-140082157D01*
X59652000Y-140131440D01*
X61252000Y-140131440D01*
X61499765Y-140082157D01*
X61709809Y-139941809D01*
X61850157Y-139731765D01*
X61858117Y-139691745D01*
X62123861Y-139691745D01*
X62197995Y-139937864D01*
X62219669Y-139945654D01*
X62175972Y-140067223D01*
X62203159Y-140637454D01*
X62369073Y-141038005D01*
X62615192Y-141112139D01*
X63443332Y-140284000D01*
X63802542Y-140284000D01*
X64630682Y-141112139D01*
X64876801Y-141038005D01*
X65069902Y-140500777D01*
X65042715Y-139930546D01*
X64955432Y-139719825D01*
X99402930Y-139719825D01*
X100520500Y-140837395D01*
X101638070Y-139719825D01*
X101514935Y-139432212D01*
X100832766Y-139172293D01*
X100103057Y-139193214D01*
X99526065Y-139432212D01*
X99402930Y-139719825D01*
X64955432Y-139719825D01*
X64876801Y-139529995D01*
X64630682Y-139455861D01*
X63802542Y-140284000D01*
X63443332Y-140284000D01*
X63429190Y-140269858D01*
X63608795Y-140090253D01*
X63622937Y-140104395D01*
X64451076Y-139276255D01*
X64376942Y-139030136D01*
X64355268Y-139022346D01*
X64398965Y-138900777D01*
X64371778Y-138330546D01*
X64205864Y-137929995D01*
X63959745Y-137855861D01*
X63131605Y-138684000D01*
X63145748Y-138698143D01*
X62966143Y-138877748D01*
X62952000Y-138863605D01*
X62123861Y-139691745D01*
X61858117Y-139691745D01*
X61896693Y-139497813D01*
X61944255Y-139512139D01*
X62772395Y-138684000D01*
X61944255Y-137855861D01*
X61896693Y-137870187D01*
X61858118Y-137676255D01*
X62123861Y-137676255D01*
X62952000Y-138504395D01*
X63780139Y-137676255D01*
X63706005Y-137430136D01*
X63290984Y-137280961D01*
X73291800Y-137280961D01*
X73291800Y-137851839D01*
X73510266Y-138379262D01*
X73913938Y-138782934D01*
X74441361Y-139001400D01*
X75012239Y-139001400D01*
X75539662Y-138782934D01*
X75943334Y-138379262D01*
X76161800Y-137851839D01*
X76161800Y-137566400D01*
X80883687Y-137566400D01*
X80995060Y-138126309D01*
X81312223Y-138600977D01*
X81786891Y-138918140D01*
X82205467Y-139001400D01*
X82488133Y-139001400D01*
X82906709Y-138918140D01*
X83381377Y-138600977D01*
X83698540Y-138126309D01*
X83795957Y-137636561D01*
X84671000Y-137636561D01*
X84671000Y-138207439D01*
X84889466Y-138734862D01*
X85293138Y-139138534D01*
X85820561Y-139357000D01*
X86391439Y-139357000D01*
X86918862Y-139138534D01*
X87322534Y-138734862D01*
X87541000Y-138207439D01*
X87541000Y-137922000D01*
X92262887Y-137922000D01*
X92374260Y-138481909D01*
X92691423Y-138956577D01*
X93166091Y-139273740D01*
X93584667Y-139357000D01*
X93867333Y-139357000D01*
X94285909Y-139273740D01*
X94760577Y-138956577D01*
X95077740Y-138481909D01*
X95189113Y-137922000D01*
X95077740Y-137362091D01*
X94760577Y-136887423D01*
X94285909Y-136570260D01*
X93867333Y-136487000D01*
X93584667Y-136487000D01*
X93166091Y-136570260D01*
X92691423Y-136887423D01*
X92374260Y-137362091D01*
X92262887Y-137922000D01*
X87541000Y-137922000D01*
X87541000Y-137636561D01*
X87322534Y-137109138D01*
X86918862Y-136705466D01*
X86391439Y-136487000D01*
X85820561Y-136487000D01*
X85293138Y-136705466D01*
X84889466Y-137109138D01*
X84671000Y-137636561D01*
X83795957Y-137636561D01*
X83809913Y-137566400D01*
X83698540Y-137006491D01*
X83381377Y-136531823D01*
X82906709Y-136214660D01*
X82488133Y-136131400D01*
X82205467Y-136131400D01*
X81786891Y-136214660D01*
X81312223Y-136531823D01*
X80995060Y-137006491D01*
X80883687Y-137566400D01*
X76161800Y-137566400D01*
X76161800Y-137280961D01*
X75943334Y-136753538D01*
X75539662Y-136349866D01*
X75012239Y-136131400D01*
X74441361Y-136131400D01*
X73913938Y-136349866D01*
X73510266Y-136753538D01*
X73291800Y-137280961D01*
X63290984Y-137280961D01*
X63168777Y-137237035D01*
X62598546Y-137264222D01*
X62197995Y-137430136D01*
X62123861Y-137676255D01*
X61858118Y-137676255D01*
X61850157Y-137636235D01*
X61709809Y-137426191D01*
X61499765Y-137285843D01*
X61252000Y-137236560D01*
X61228503Y-137236560D01*
X61228503Y-136284000D01*
X61179220Y-136036235D01*
X61038872Y-135826191D01*
X60828828Y-135685843D01*
X60658666Y-135651996D01*
X98685500Y-135651996D01*
X98685500Y-136382004D01*
X98964862Y-137056444D01*
X99481056Y-137572638D01*
X100155496Y-137852000D01*
X100885504Y-137852000D01*
X101559944Y-137572638D01*
X102076138Y-137056444D01*
X102355500Y-136382004D01*
X102355500Y-135651996D01*
X102076138Y-134977556D01*
X101559944Y-134461362D01*
X100885504Y-134182000D01*
X100155496Y-134182000D01*
X99481056Y-134461362D01*
X98964862Y-134977556D01*
X98685500Y-135651996D01*
X60658666Y-135651996D01*
X60581063Y-135636560D01*
X58981063Y-135636560D01*
X58733298Y-135685843D01*
X58523254Y-135826191D01*
X58382906Y-136036235D01*
X58333623Y-136284000D01*
X54737000Y-136284000D01*
X54737000Y-135890000D01*
X54727333Y-135841399D01*
X54699803Y-135800197D01*
X54658601Y-135772667D01*
X54610000Y-135763000D01*
X45160000Y-135763000D01*
X45160000Y-128602000D01*
X48328928Y-128602000D01*
X48448062Y-129200927D01*
X48784000Y-129703694D01*
X48784000Y-129765473D01*
X48762255Y-129874792D01*
X48784000Y-129984111D01*
X48784000Y-129984116D01*
X48801379Y-130071483D01*
X48848404Y-130307892D01*
X48978800Y-130503044D01*
X48978800Y-131716681D01*
X48957055Y-131826000D01*
X48978800Y-131935319D01*
X48978800Y-131935324D01*
X49019220Y-132138524D01*
X49043204Y-132259100D01*
X49168631Y-132446814D01*
X49288536Y-132626265D01*
X49381215Y-132688191D01*
X51157008Y-134463985D01*
X51218935Y-134556665D01*
X51586100Y-134801997D01*
X51909876Y-134866400D01*
X51909880Y-134866400D01*
X52019200Y-134888145D01*
X52128519Y-134866400D01*
X56075481Y-134866400D01*
X56184800Y-134888145D01*
X56294119Y-134866400D01*
X56294124Y-134866400D01*
X56617900Y-134801997D01*
X56985065Y-134556665D01*
X57046993Y-134463983D01*
X58062992Y-133447985D01*
X58246396Y-133173501D01*
X58332545Y-132740400D01*
X58246396Y-132307300D01*
X58001065Y-131940135D01*
X57633900Y-131694804D01*
X57200800Y-131608655D01*
X56767699Y-131694804D01*
X56493215Y-131878208D01*
X55725024Y-132646400D01*
X52478977Y-132646400D01*
X51198800Y-131366224D01*
X51198800Y-130178911D01*
X51220545Y-130069592D01*
X51198800Y-129960273D01*
X51198800Y-129960268D01*
X51134397Y-129636492D01*
X51091650Y-129572516D01*
X51205585Y-129402000D01*
X52046560Y-129402000D01*
X52046560Y-131202000D01*
X52095843Y-131449765D01*
X52236191Y-131659809D01*
X52446235Y-131800157D01*
X52694000Y-131849440D01*
X54494000Y-131849440D01*
X54741765Y-131800157D01*
X54951809Y-131659809D01*
X55092157Y-131449765D01*
X55095554Y-131432682D01*
X68945861Y-131432682D01*
X69019995Y-131678801D01*
X69557223Y-131871902D01*
X70127454Y-131844715D01*
X70528005Y-131678801D01*
X70602139Y-131432682D01*
X69774000Y-130604542D01*
X68945861Y-131432682D01*
X55095554Y-131432682D01*
X55141440Y-131202000D01*
X55141440Y-130208160D01*
X68327035Y-130208160D01*
X68354222Y-130778391D01*
X68520136Y-131178942D01*
X68766255Y-131253076D01*
X69594395Y-130424937D01*
X68766255Y-129596798D01*
X68520136Y-129670932D01*
X68327035Y-130208160D01*
X55141440Y-130208160D01*
X55141440Y-129417192D01*
X68945861Y-129417192D01*
X69774000Y-130245332D01*
X69788143Y-130231190D01*
X69967748Y-130410795D01*
X69953605Y-130424937D01*
X70781745Y-131253076D01*
X71027864Y-131178942D01*
X71035654Y-131157268D01*
X71157223Y-131200965D01*
X71727454Y-131173778D01*
X72128005Y-131007864D01*
X72202139Y-130761745D01*
X71374000Y-129933605D01*
X71359858Y-129947748D01*
X71180253Y-129768143D01*
X71194395Y-129754000D01*
X71553605Y-129754000D01*
X72381745Y-130582139D01*
X72627864Y-130508005D01*
X72820965Y-129970777D01*
X72793778Y-129400546D01*
X72627864Y-128999995D01*
X72381745Y-128925861D01*
X71553605Y-129754000D01*
X71194395Y-129754000D01*
X70366255Y-128925861D01*
X70120136Y-128999995D01*
X70112346Y-129021669D01*
X69990777Y-128977972D01*
X69420546Y-129005159D01*
X69019995Y-129171073D01*
X68945861Y-129417192D01*
X55141440Y-129417192D01*
X55141440Y-129402000D01*
X55092157Y-129154235D01*
X54951809Y-128944191D01*
X54741765Y-128803843D01*
X54494000Y-128754560D01*
X52694000Y-128754560D01*
X52446235Y-128803843D01*
X52236191Y-128944191D01*
X52095843Y-129154235D01*
X52046560Y-129402000D01*
X51205585Y-129402000D01*
X51339938Y-129200927D01*
X51459072Y-128602000D01*
X51339938Y-128003073D01*
X51000673Y-127495327D01*
X50658572Y-127266742D01*
X52102954Y-127266742D01*
X52356034Y-127809576D01*
X52797583Y-128214240D01*
X53229260Y-128393036D01*
X53467000Y-128272378D01*
X53467000Y-127029000D01*
X53721000Y-127029000D01*
X53721000Y-128272378D01*
X53958740Y-128393036D01*
X54390417Y-128214240D01*
X54831966Y-127809576D01*
X55085046Y-127266742D01*
X54964997Y-127029000D01*
X53721000Y-127029000D01*
X53467000Y-127029000D01*
X52223003Y-127029000D01*
X52102954Y-127266742D01*
X50658572Y-127266742D01*
X50492927Y-127156062D01*
X50045182Y-127067000D01*
X49742818Y-127067000D01*
X49295073Y-127156062D01*
X48787327Y-127495327D01*
X48448062Y-128003073D01*
X48328928Y-128602000D01*
X45160000Y-128602000D01*
X45160000Y-125202000D01*
X48328928Y-125202000D01*
X48448062Y-125800927D01*
X48787327Y-126308673D01*
X49295073Y-126647938D01*
X49742818Y-126737000D01*
X50045182Y-126737000D01*
X50492927Y-126647938D01*
X50658571Y-126537258D01*
X52102954Y-126537258D01*
X52223003Y-126775000D01*
X53467000Y-126775000D01*
X53467000Y-125531622D01*
X53721000Y-125531622D01*
X53721000Y-126775000D01*
X54964997Y-126775000D01*
X55085046Y-126537258D01*
X54831966Y-125994424D01*
X54390417Y-125589760D01*
X53958740Y-125410964D01*
X53721000Y-125531622D01*
X53467000Y-125531622D01*
X53229260Y-125410964D01*
X52797583Y-125589760D01*
X52356034Y-125994424D01*
X52102954Y-126537258D01*
X50658571Y-126537258D01*
X51000673Y-126308673D01*
X51339938Y-125800927D01*
X51459072Y-125202000D01*
X51339938Y-124603073D01*
X51004000Y-124100306D01*
X51004000Y-123866742D01*
X52102954Y-123866742D01*
X52356034Y-124409576D01*
X52797583Y-124814240D01*
X53229260Y-124993036D01*
X53467000Y-124872378D01*
X53467000Y-123629000D01*
X53721000Y-123629000D01*
X53721000Y-124872378D01*
X53958740Y-124993036D01*
X54390417Y-124814240D01*
X54831966Y-124409576D01*
X55085046Y-123866742D01*
X54964997Y-123629000D01*
X53721000Y-123629000D01*
X53467000Y-123629000D01*
X52223003Y-123629000D01*
X52102954Y-123866742D01*
X51004000Y-123866742D01*
X51004000Y-123505776D01*
X51372518Y-123137258D01*
X52102954Y-123137258D01*
X52223003Y-123375000D01*
X53467000Y-123375000D01*
X53467000Y-122131622D01*
X53721000Y-122131622D01*
X53721000Y-123375000D01*
X54964997Y-123375000D01*
X55085046Y-123137258D01*
X54831966Y-122594424D01*
X54390417Y-122189760D01*
X53958740Y-122010964D01*
X53721000Y-122131622D01*
X53467000Y-122131622D01*
X53229260Y-122010964D01*
X52797583Y-122189760D01*
X52356034Y-122594424D01*
X52102954Y-123137258D01*
X51372518Y-123137258D01*
X53003777Y-121506000D01*
X58373496Y-121506000D01*
X58890000Y-122022504D01*
X58890000Y-122984280D01*
X58868255Y-123093600D01*
X58890000Y-123202919D01*
X58890000Y-123202923D01*
X58954403Y-123526699D01*
X59199735Y-123893865D01*
X59292417Y-123955793D01*
X63196607Y-127859984D01*
X63258535Y-127952665D01*
X63625700Y-128197997D01*
X63949476Y-128262400D01*
X63949480Y-128262400D01*
X64058799Y-128284145D01*
X64168119Y-128262400D01*
X66442487Y-128262400D01*
X66697876Y-128313200D01*
X66697880Y-128313200D01*
X66807199Y-128334945D01*
X66916519Y-128313200D01*
X69259287Y-128313200D01*
X69514676Y-128364000D01*
X69514680Y-128364000D01*
X69623999Y-128385745D01*
X69733319Y-128364000D01*
X70017427Y-128364000D01*
X70116191Y-128511809D01*
X70326235Y-128652157D01*
X70560187Y-128698693D01*
X70545861Y-128746255D01*
X71374000Y-129574395D01*
X72202139Y-128746255D01*
X72187813Y-128698693D01*
X72421765Y-128652157D01*
X72631809Y-128511809D01*
X72772157Y-128301765D01*
X72821440Y-128054000D01*
X72821440Y-128030503D01*
X73774000Y-128030503D01*
X74021765Y-127981220D01*
X74231809Y-127840872D01*
X74372157Y-127630828D01*
X74421440Y-127383063D01*
X74421440Y-125783063D01*
X74372157Y-125535298D01*
X74231809Y-125325254D01*
X74021765Y-125184906D01*
X73774000Y-125135623D01*
X72174000Y-125135623D01*
X71926235Y-125184906D01*
X71716191Y-125325254D01*
X71575843Y-125535298D01*
X71526560Y-125783063D01*
X71526560Y-125806560D01*
X70574000Y-125806560D01*
X70326235Y-125855843D01*
X70116191Y-125996191D01*
X70017427Y-126144000D01*
X69937913Y-126144000D01*
X69682524Y-126093200D01*
X69682519Y-126093200D01*
X69573200Y-126071455D01*
X69463881Y-126093200D01*
X67121113Y-126093200D01*
X66865724Y-126042400D01*
X66865719Y-126042400D01*
X66756400Y-126020655D01*
X66647081Y-126042400D01*
X64518577Y-126042400D01*
X62885377Y-124409200D01*
X82356887Y-124409200D01*
X82468260Y-124969109D01*
X82785423Y-125443777D01*
X83260091Y-125760940D01*
X83678667Y-125844200D01*
X83961333Y-125844200D01*
X84379909Y-125760940D01*
X84854577Y-125443777D01*
X85090000Y-125091442D01*
X85325423Y-125443777D01*
X85800091Y-125760940D01*
X86218667Y-125844200D01*
X86501333Y-125844200D01*
X86919909Y-125760940D01*
X87394577Y-125443777D01*
X87630000Y-125091442D01*
X87865423Y-125443777D01*
X88340091Y-125760940D01*
X88758667Y-125844200D01*
X89041333Y-125844200D01*
X89459909Y-125760940D01*
X89934577Y-125443777D01*
X90170000Y-125091442D01*
X90330000Y-125330898D01*
X90330000Y-125349293D01*
X87249294Y-128430000D01*
X84668520Y-128430000D01*
X84559200Y-128408255D01*
X84449880Y-128430000D01*
X84449876Y-128430000D01*
X84126100Y-128494403D01*
X83758935Y-128739735D01*
X83697008Y-128832415D01*
X83112415Y-129417009D01*
X83019736Y-129478935D01*
X82957809Y-129571615D01*
X82957808Y-129571616D01*
X82815286Y-129784916D01*
X82774404Y-129846100D01*
X82710000Y-130169876D01*
X82710000Y-130169881D01*
X82688255Y-130279200D01*
X82710000Y-130388519D01*
X82710000Y-130672627D01*
X82562191Y-130771391D01*
X82421843Y-130981435D01*
X82372560Y-131229200D01*
X82372560Y-132829200D01*
X82421843Y-133076965D01*
X82562191Y-133287009D01*
X82772235Y-133427357D01*
X83020000Y-133476640D01*
X84620000Y-133476640D01*
X84867765Y-133427357D01*
X85077809Y-133287009D01*
X85218157Y-133076965D01*
X85244785Y-132943094D01*
X85325423Y-133063777D01*
X85800091Y-133380940D01*
X86218667Y-133464200D01*
X86501333Y-133464200D01*
X86919909Y-133380940D01*
X87394577Y-133063777D01*
X87630000Y-132711442D01*
X87865423Y-133063777D01*
X88340091Y-133380940D01*
X88758667Y-133464200D01*
X89041333Y-133464200D01*
X89459909Y-133380940D01*
X89934577Y-133063777D01*
X90190947Y-132680092D01*
X90287611Y-132884334D01*
X90702577Y-133260241D01*
X91090961Y-133421104D01*
X91313000Y-133299115D01*
X91313000Y-132156200D01*
X91567000Y-132156200D01*
X91567000Y-133299115D01*
X91789039Y-133421104D01*
X92177423Y-133260241D01*
X92592389Y-132884334D01*
X92657914Y-132745886D01*
X111375320Y-132745886D01*
X111494786Y-133030384D01*
X112166090Y-133285294D01*
X112883846Y-133263904D01*
X113447614Y-133030384D01*
X113567080Y-132745886D01*
X112471200Y-131650005D01*
X111375320Y-132745886D01*
X92657914Y-132745886D01*
X92831914Y-132378241D01*
X92710629Y-132156200D01*
X91567000Y-132156200D01*
X91313000Y-132156200D01*
X91293000Y-132156200D01*
X91293000Y-131902200D01*
X91313000Y-131902200D01*
X91313000Y-130759285D01*
X91567000Y-130759285D01*
X91567000Y-131902200D01*
X92710629Y-131902200D01*
X92831914Y-131680159D01*
X92592389Y-131174066D01*
X92177423Y-130798159D01*
X91789039Y-130637296D01*
X91567000Y-130759285D01*
X91313000Y-130759285D01*
X91090961Y-130637296D01*
X90702577Y-130798159D01*
X90287611Y-131174066D01*
X90190947Y-131378308D01*
X89934577Y-130994623D01*
X89459909Y-130677460D01*
X89041333Y-130594200D01*
X88758667Y-130594200D01*
X88340091Y-130677460D01*
X87865423Y-130994623D01*
X87630000Y-131346958D01*
X87394577Y-130994623D01*
X86919909Y-130677460D01*
X86781858Y-130650000D01*
X87599751Y-130650000D01*
X87709070Y-130671745D01*
X87818389Y-130650000D01*
X87818394Y-130650000D01*
X88142170Y-130585597D01*
X88509335Y-130340265D01*
X88571263Y-130247583D01*
X91945846Y-126873000D01*
X92848255Y-126873000D01*
X92934404Y-127306100D01*
X93117808Y-127580584D01*
X96737308Y-131200085D01*
X96799235Y-131292765D01*
X96891915Y-131354692D01*
X96976104Y-131410945D01*
X97166400Y-131538097D01*
X97490176Y-131602500D01*
X97490180Y-131602500D01*
X97599500Y-131624245D01*
X97708819Y-131602500D01*
X103339781Y-131602500D01*
X103449100Y-131624245D01*
X103558419Y-131602500D01*
X103558424Y-131602500D01*
X103882200Y-131538097D01*
X104249365Y-131292765D01*
X104311293Y-131200083D01*
X104346086Y-131165290D01*
X110656306Y-131165290D01*
X110677696Y-131883046D01*
X110911216Y-132446814D01*
X111195714Y-132566280D01*
X112291595Y-131470400D01*
X112650805Y-131470400D01*
X113746686Y-132566280D01*
X114031184Y-132446814D01*
X114286094Y-131775510D01*
X114264704Y-131057754D01*
X114031184Y-130493986D01*
X113746686Y-130374520D01*
X112650805Y-131470400D01*
X112291595Y-131470400D01*
X111195714Y-130374520D01*
X110911216Y-130493986D01*
X110656306Y-131165290D01*
X104346086Y-131165290D01*
X105316462Y-130194914D01*
X111375320Y-130194914D01*
X112471200Y-131290795D01*
X113567080Y-130194914D01*
X113447614Y-129910416D01*
X112776310Y-129655506D01*
X112058554Y-129676896D01*
X111494786Y-129910416D01*
X111375320Y-130194914D01*
X105316462Y-130194914D01*
X107235977Y-128275400D01*
X107830237Y-128275400D01*
X108493650Y-128000605D01*
X109001405Y-127492850D01*
X109276200Y-126829437D01*
X109276200Y-126111363D01*
X109001405Y-125447950D01*
X108493650Y-124940195D01*
X107830237Y-124665400D01*
X107112163Y-124665400D01*
X106448750Y-124940195D01*
X105940995Y-125447950D01*
X105666200Y-126111363D01*
X105666200Y-126705623D01*
X102989324Y-129382500D01*
X98059277Y-129382500D01*
X94687584Y-126010808D01*
X94413100Y-125827404D01*
X93980000Y-125741255D01*
X93546900Y-125827404D01*
X93179735Y-126072735D01*
X92934404Y-126439900D01*
X92848255Y-126873000D01*
X91945846Y-126873000D01*
X92147586Y-126671261D01*
X92240265Y-126609335D01*
X92485597Y-126242170D01*
X92550000Y-125918394D01*
X92550000Y-125918390D01*
X92571745Y-125809070D01*
X92550000Y-125699751D01*
X92550000Y-125330898D01*
X92791740Y-124969109D01*
X92903113Y-124409200D01*
X92791740Y-123849291D01*
X92474577Y-123374623D01*
X92168599Y-123170175D01*
X99339430Y-123170175D01*
X99462565Y-123457788D01*
X100144734Y-123717707D01*
X100874443Y-123696786D01*
X101451435Y-123457788D01*
X101574570Y-123170175D01*
X100457000Y-122052605D01*
X99339430Y-123170175D01*
X92168599Y-123170175D01*
X91999909Y-123057460D01*
X91581333Y-122974200D01*
X91298667Y-122974200D01*
X90880091Y-123057460D01*
X90405423Y-123374623D01*
X90170000Y-123726958D01*
X89934577Y-123374623D01*
X89459909Y-123057460D01*
X89041333Y-122974200D01*
X88758667Y-122974200D01*
X88340091Y-123057460D01*
X87865423Y-123374623D01*
X87630000Y-123726958D01*
X87470000Y-123487502D01*
X87470000Y-121560734D01*
X98612293Y-121560734D01*
X98633214Y-122290443D01*
X98872212Y-122867435D01*
X99159825Y-122990570D01*
X100277395Y-121873000D01*
X100636605Y-121873000D01*
X101754175Y-122990570D01*
X102041788Y-122867435D01*
X102301707Y-122185266D01*
X102280786Y-121455557D01*
X102041788Y-120878565D01*
X101754175Y-120755430D01*
X100636605Y-121873000D01*
X100277395Y-121873000D01*
X99159825Y-120755430D01*
X98872212Y-120878565D01*
X98612293Y-121560734D01*
X87470000Y-121560734D01*
X87470000Y-120575825D01*
X99339430Y-120575825D01*
X100457000Y-121693395D01*
X101574570Y-120575825D01*
X101451435Y-120288212D01*
X100769266Y-120028293D01*
X100039557Y-120049214D01*
X99462565Y-120288212D01*
X99339430Y-120575825D01*
X87470000Y-120575825D01*
X87470000Y-119524676D01*
X87405597Y-119200900D01*
X87160265Y-118833735D01*
X86793099Y-118588403D01*
X86360000Y-118502254D01*
X85926900Y-118588403D01*
X85559735Y-118833735D01*
X85314403Y-119200901D01*
X85250000Y-119524677D01*
X85250001Y-123487500D01*
X85090000Y-123726958D01*
X84854577Y-123374623D01*
X84379909Y-123057460D01*
X83961333Y-122974200D01*
X83678667Y-122974200D01*
X83260091Y-123057460D01*
X82785423Y-123374623D01*
X82468260Y-123849291D01*
X82356887Y-124409200D01*
X62885377Y-124409200D01*
X61110000Y-122633824D01*
X61110000Y-122022504D01*
X61640414Y-121492090D01*
X61750000Y-121227525D01*
X61859586Y-121492090D01*
X62403910Y-122036414D01*
X63115105Y-122331000D01*
X63884895Y-122331000D01*
X64596090Y-122036414D01*
X65140414Y-121492090D01*
X65435000Y-120780895D01*
X65435000Y-120011105D01*
X65140414Y-119299910D01*
X64596090Y-118755586D01*
X63884895Y-118461000D01*
X63115105Y-118461000D01*
X62403910Y-118755586D01*
X61859586Y-119299910D01*
X61750000Y-119564475D01*
X61640414Y-119299910D01*
X61096090Y-118755586D01*
X60384895Y-118461000D01*
X59615105Y-118461000D01*
X58903910Y-118755586D01*
X58373496Y-119286000D01*
X52653319Y-119286000D01*
X52544000Y-119264255D01*
X52434680Y-119286000D01*
X52434676Y-119286000D01*
X52110900Y-119350403D01*
X51743735Y-119595735D01*
X51681808Y-119688415D01*
X49186415Y-122183809D01*
X49093736Y-122245735D01*
X49031809Y-122338415D01*
X49031808Y-122338416D01*
X48848404Y-122612900D01*
X48762255Y-123046000D01*
X48784001Y-123155324D01*
X48784001Y-124100305D01*
X48448062Y-124603073D01*
X48328928Y-125202000D01*
X45160000Y-125202000D01*
X45160000Y-113716000D01*
X72936560Y-113716000D01*
X72936560Y-116916000D01*
X72985843Y-117163765D01*
X73126191Y-117373809D01*
X73336235Y-117514157D01*
X73584000Y-117563440D01*
X76784000Y-117563440D01*
X77031765Y-117514157D01*
X77241809Y-117373809D01*
X77382157Y-117163765D01*
X77431440Y-116916000D01*
X77431440Y-115790503D01*
X88239950Y-115790503D01*
X88544114Y-116524836D01*
X89149813Y-117152220D01*
X89949496Y-117500056D01*
X90297000Y-117388645D01*
X90297000Y-115443000D01*
X90551000Y-115443000D01*
X90551000Y-117388645D01*
X90898504Y-117500056D01*
X91698187Y-117152220D01*
X92303886Y-116524836D01*
X92502841Y-116044504D01*
X96113944Y-116044504D01*
X96461780Y-116844187D01*
X97089164Y-117449886D01*
X97823497Y-117754050D01*
X98171000Y-117642362D01*
X98171000Y-115697000D01*
X98425000Y-115697000D01*
X98425000Y-117642362D01*
X98772503Y-117754050D01*
X99506836Y-117449886D01*
X100134220Y-116844187D01*
X100482056Y-116044504D01*
X100370645Y-115697000D01*
X98425000Y-115697000D01*
X98171000Y-115697000D01*
X96225355Y-115697000D01*
X96113944Y-116044504D01*
X92502841Y-116044504D01*
X92608050Y-115790503D01*
X92496362Y-115443000D01*
X90551000Y-115443000D01*
X90297000Y-115443000D01*
X88351638Y-115443000D01*
X88239950Y-115790503D01*
X77431440Y-115790503D01*
X77431440Y-114841497D01*
X88239950Y-114841497D01*
X88351638Y-115189000D01*
X90297000Y-115189000D01*
X90297000Y-113243355D01*
X90551000Y-113243355D01*
X90551000Y-115189000D01*
X92496362Y-115189000D01*
X92526414Y-115095496D01*
X96113944Y-115095496D01*
X96225355Y-115443000D01*
X98171000Y-115443000D01*
X98171000Y-113497638D01*
X98425000Y-113497638D01*
X98425000Y-115443000D01*
X100370645Y-115443000D01*
X100482056Y-115095496D01*
X100134220Y-114295813D01*
X99506836Y-113690114D01*
X98772503Y-113385950D01*
X98425000Y-113497638D01*
X98171000Y-113497638D01*
X97823497Y-113385950D01*
X97089164Y-113690114D01*
X96461780Y-114295813D01*
X96113944Y-115095496D01*
X92526414Y-115095496D01*
X92608050Y-114841497D01*
X92303886Y-114107164D01*
X91698187Y-113479780D01*
X90898504Y-113131944D01*
X90551000Y-113243355D01*
X90297000Y-113243355D01*
X89949496Y-113131944D01*
X89149813Y-113479780D01*
X88544114Y-114107164D01*
X88239950Y-114841497D01*
X77431440Y-114841497D01*
X77431440Y-113716000D01*
X77382157Y-113468235D01*
X77241809Y-113258191D01*
X77031765Y-113117843D01*
X76784000Y-113068560D01*
X73584000Y-113068560D01*
X73336235Y-113117843D01*
X73126191Y-113258191D01*
X72985843Y-113468235D01*
X72936560Y-113716000D01*
X45160000Y-113716000D01*
X45160000Y-111623003D01*
X48622573Y-111623003D01*
X48702946Y-111920367D01*
X49178747Y-112721647D01*
X49924967Y-113279852D01*
X50828000Y-113510000D01*
X52578000Y-113510000D01*
X52578000Y-111252000D01*
X52832000Y-111252000D01*
X52832000Y-113510000D01*
X54582000Y-113510000D01*
X55485033Y-113279852D01*
X56231253Y-112721647D01*
X56707054Y-111920367D01*
X56787427Y-111623003D01*
X56677625Y-111252000D01*
X52832000Y-111252000D01*
X52578000Y-111252000D01*
X48732375Y-111252000D01*
X48622573Y-111623003D01*
X45160000Y-111623003D01*
X45160000Y-110626997D01*
X48622573Y-110626997D01*
X48732375Y-110998000D01*
X52578000Y-110998000D01*
X52578000Y-108740000D01*
X52832000Y-108740000D01*
X52832000Y-110998000D01*
X56677625Y-110998000D01*
X56787427Y-110626997D01*
X56707054Y-110329633D01*
X56231253Y-109528353D01*
X55485033Y-108970148D01*
X55343352Y-108934039D01*
X55943096Y-108934039D01*
X55960633Y-109016819D01*
X56230500Y-109509896D01*
X56668517Y-109862166D01*
X57208000Y-110020000D01*
X57658000Y-110020000D01*
X57658000Y-108712000D01*
X57912000Y-108712000D01*
X57912000Y-110020000D01*
X58362000Y-110020000D01*
X58901483Y-109862166D01*
X59339500Y-109509896D01*
X59609367Y-109016819D01*
X59626904Y-108934039D01*
X59504915Y-108712000D01*
X57912000Y-108712000D01*
X57658000Y-108712000D01*
X56065085Y-108712000D01*
X55943096Y-108934039D01*
X55343352Y-108934039D01*
X54582000Y-108740000D01*
X52832000Y-108740000D01*
X52578000Y-108740000D01*
X50828000Y-108740000D01*
X49924967Y-108970148D01*
X49178747Y-109528353D01*
X48702946Y-110329633D01*
X48622573Y-110626997D01*
X45160000Y-110626997D01*
X45160000Y-106045000D01*
X55871887Y-106045000D01*
X55983260Y-106604909D01*
X56300423Y-107079577D01*
X56656499Y-107317499D01*
X56230500Y-107660104D01*
X55960633Y-108153181D01*
X55943096Y-108235961D01*
X56065085Y-108458000D01*
X57658000Y-108458000D01*
X57658000Y-108438000D01*
X57912000Y-108438000D01*
X57912000Y-108458000D01*
X59504915Y-108458000D01*
X59626904Y-108235961D01*
X59609367Y-108153181D01*
X59339500Y-107660104D01*
X58913501Y-107317499D01*
X59269577Y-107079577D01*
X59586740Y-106604909D01*
X59698113Y-106045000D01*
X59586740Y-105485091D01*
X59536566Y-105410000D01*
X65160908Y-105410000D01*
X65276161Y-105989418D01*
X65604375Y-106480625D01*
X65622619Y-106492816D01*
X65577235Y-106501843D01*
X65367191Y-106642191D01*
X65226843Y-106852235D01*
X65177560Y-107100000D01*
X65177560Y-108800000D01*
X65226843Y-109047765D01*
X65367191Y-109257809D01*
X65577235Y-109398157D01*
X65825000Y-109447440D01*
X67525000Y-109447440D01*
X67772765Y-109398157D01*
X67982809Y-109257809D01*
X68123157Y-109047765D01*
X68172440Y-108800000D01*
X68172440Y-107188000D01*
X85228255Y-107188000D01*
X85250000Y-107297319D01*
X85250000Y-109011824D01*
X85314404Y-109335600D01*
X85559736Y-109702765D01*
X85926901Y-109948097D01*
X86360000Y-110034246D01*
X86793100Y-109948097D01*
X87160265Y-109702765D01*
X87405597Y-109335600D01*
X87470000Y-109011824D01*
X87470000Y-107647776D01*
X89832623Y-105285154D01*
X90203872Y-105359000D01*
X90644128Y-105359000D01*
X91296054Y-105229324D01*
X92035345Y-104735345D01*
X92529324Y-103996054D01*
X92702786Y-103124000D01*
X92529324Y-102251946D01*
X92035345Y-101512655D01*
X91296054Y-101018676D01*
X90644128Y-100889000D01*
X90203872Y-100889000D01*
X89551946Y-101018676D01*
X88812655Y-101512655D01*
X88318676Y-102251946D01*
X88145214Y-103124000D01*
X88262846Y-103715377D01*
X85652417Y-106325807D01*
X85559735Y-106387735D01*
X85314403Y-106754901D01*
X85250000Y-107078677D01*
X85250000Y-107078681D01*
X85228255Y-107188000D01*
X68172440Y-107188000D01*
X68172440Y-107100000D01*
X68123157Y-106852235D01*
X67982809Y-106642191D01*
X67772765Y-106501843D01*
X67727381Y-106492816D01*
X67745625Y-106480625D01*
X68073839Y-105989418D01*
X68189092Y-105410000D01*
X68073839Y-104830582D01*
X67745625Y-104339375D01*
X67426522Y-104126157D01*
X67556358Y-104065183D01*
X67946645Y-103636924D01*
X68116476Y-103226890D01*
X67995155Y-102997000D01*
X66802000Y-102997000D01*
X66802000Y-103017000D01*
X66548000Y-103017000D01*
X66548000Y-102997000D01*
X65354845Y-102997000D01*
X65233524Y-103226890D01*
X65403355Y-103636924D01*
X65793642Y-104065183D01*
X65923478Y-104126157D01*
X65604375Y-104339375D01*
X65276161Y-104830582D01*
X65160908Y-105410000D01*
X59536566Y-105410000D01*
X59269577Y-105010423D01*
X58794909Y-104693260D01*
X58376333Y-104610000D01*
X57193667Y-104610000D01*
X56775091Y-104693260D01*
X56300423Y-105010423D01*
X55983260Y-105485091D01*
X55871887Y-106045000D01*
X45160000Y-106045000D01*
X45160000Y-101463003D01*
X48622573Y-101463003D01*
X48702946Y-101760367D01*
X49178747Y-102561647D01*
X49924967Y-103119852D01*
X50828000Y-103350000D01*
X52578000Y-103350000D01*
X52578000Y-101092000D01*
X52832000Y-101092000D01*
X52832000Y-103350000D01*
X54582000Y-103350000D01*
X55485033Y-103119852D01*
X56231253Y-102561647D01*
X56260074Y-102513110D01*
X65233524Y-102513110D01*
X65354845Y-102743000D01*
X66548000Y-102743000D01*
X66548000Y-101549181D01*
X66802000Y-101549181D01*
X66802000Y-102743000D01*
X67995155Y-102743000D01*
X68116476Y-102513110D01*
X67946645Y-102103076D01*
X67556358Y-101674817D01*
X67235216Y-101524000D01*
X72936560Y-101524000D01*
X72936560Y-104724000D01*
X72985843Y-104971765D01*
X73126191Y-105181809D01*
X73336235Y-105322157D01*
X73584000Y-105371440D01*
X76784000Y-105371440D01*
X77031765Y-105322157D01*
X77241809Y-105181809D01*
X77382157Y-104971765D01*
X77431440Y-104724000D01*
X77431440Y-101524000D01*
X77382157Y-101276235D01*
X77241809Y-101066191D01*
X77031765Y-100925843D01*
X76784000Y-100876560D01*
X73584000Y-100876560D01*
X73336235Y-100925843D01*
X73126191Y-101066191D01*
X72985843Y-101276235D01*
X72936560Y-101524000D01*
X67235216Y-101524000D01*
X67031892Y-101428514D01*
X66802000Y-101549181D01*
X66548000Y-101549181D01*
X66318108Y-101428514D01*
X65793642Y-101674817D01*
X65403355Y-102103076D01*
X65233524Y-102513110D01*
X56260074Y-102513110D01*
X56707054Y-101760367D01*
X56787427Y-101463003D01*
X56677625Y-101092000D01*
X52832000Y-101092000D01*
X52578000Y-101092000D01*
X48732375Y-101092000D01*
X48622573Y-101463003D01*
X45160000Y-101463003D01*
X45160000Y-100466997D01*
X48622573Y-100466997D01*
X48732375Y-100838000D01*
X52578000Y-100838000D01*
X52578000Y-98580000D01*
X52832000Y-98580000D01*
X52832000Y-100838000D01*
X56677625Y-100838000D01*
X56787427Y-100466997D01*
X56707054Y-100169633D01*
X56231253Y-99368353D01*
X55485033Y-98810148D01*
X55170556Y-98730000D01*
X96050560Y-98730000D01*
X96050560Y-101930000D01*
X96099843Y-102177765D01*
X96240191Y-102387809D01*
X96450235Y-102528157D01*
X96698000Y-102577440D01*
X99898000Y-102577440D01*
X100145765Y-102528157D01*
X100355809Y-102387809D01*
X100496157Y-102177765D01*
X100545440Y-101930000D01*
X100545440Y-98730000D01*
X100496157Y-98482235D01*
X100355809Y-98272191D01*
X100145765Y-98131843D01*
X99898000Y-98082560D01*
X96698000Y-98082560D01*
X96450235Y-98131843D01*
X96240191Y-98272191D01*
X96099843Y-98482235D01*
X96050560Y-98730000D01*
X55170556Y-98730000D01*
X54582000Y-98580000D01*
X52832000Y-98580000D01*
X52578000Y-98580000D01*
X50828000Y-98580000D01*
X49924967Y-98810148D01*
X49178747Y-99368353D01*
X48702946Y-100169633D01*
X48622573Y-100466997D01*
X45160000Y-100466997D01*
X45160000Y-91406000D01*
X48492960Y-91406000D01*
X48492960Y-93506000D01*
X48542243Y-93753765D01*
X48682591Y-93963809D01*
X48892635Y-94104157D01*
X49140400Y-94153440D01*
X51240400Y-94153440D01*
X51488165Y-94104157D01*
X51698209Y-93963809D01*
X51838557Y-93753765D01*
X51887840Y-93506000D01*
X51887840Y-92964000D01*
X88909908Y-92964000D01*
X89025161Y-93543418D01*
X89353375Y-94034625D01*
X89844582Y-94362839D01*
X90277744Y-94449000D01*
X90570256Y-94449000D01*
X91003418Y-94362839D01*
X91494625Y-94034625D01*
X91506816Y-94016381D01*
X91515843Y-94061765D01*
X91656191Y-94271809D01*
X91866235Y-94412157D01*
X92114000Y-94461440D01*
X93814000Y-94461440D01*
X94061765Y-94412157D01*
X94271809Y-94271809D01*
X94412157Y-94061765D01*
X94461440Y-93814000D01*
X94461440Y-92114000D01*
X94412157Y-91866235D01*
X94271809Y-91656191D01*
X94133800Y-91563976D01*
X96602177Y-89095600D01*
X105752829Y-89095600D01*
X105778243Y-89223365D01*
X105918591Y-89433409D01*
X106128635Y-89573757D01*
X106376400Y-89623040D01*
X110336400Y-89623040D01*
X110584165Y-89573757D01*
X110794209Y-89433409D01*
X110934557Y-89223365D01*
X110983840Y-88975600D01*
X110983840Y-86995600D01*
X110934557Y-86747835D01*
X110794209Y-86537791D01*
X110584165Y-86397443D01*
X110336400Y-86348160D01*
X106376400Y-86348160D01*
X106128635Y-86397443D01*
X105918591Y-86537791D01*
X105778243Y-86747835D01*
X105752829Y-86875600D01*
X96251719Y-86875600D01*
X96142399Y-86853855D01*
X96033079Y-86875600D01*
X96033076Y-86875600D01*
X95709300Y-86940003D01*
X95709299Y-86940004D01*
X95709298Y-86940004D01*
X95645633Y-86982544D01*
X95342135Y-87185335D01*
X95280208Y-87278015D01*
X92256415Y-90301809D01*
X92163736Y-90363735D01*
X92101809Y-90456415D01*
X92101808Y-90456416D01*
X91918404Y-90730900D01*
X91832255Y-91164000D01*
X91854001Y-91273324D01*
X91854001Y-91524018D01*
X91656191Y-91656191D01*
X91515843Y-91866235D01*
X91506816Y-91911619D01*
X91494625Y-91893375D01*
X91003418Y-91565161D01*
X90570256Y-91479000D01*
X90277744Y-91479000D01*
X89844582Y-91565161D01*
X89353375Y-91893375D01*
X89025161Y-92384582D01*
X88909908Y-92964000D01*
X51887840Y-92964000D01*
X51887840Y-92523745D01*
X80066798Y-92523745D01*
X80140932Y-92769864D01*
X80678160Y-92962965D01*
X81248391Y-92935778D01*
X81648942Y-92769864D01*
X81723076Y-92523745D01*
X80894937Y-91695605D01*
X80066798Y-92523745D01*
X51887840Y-92523745D01*
X51887840Y-91406000D01*
X51838557Y-91158235D01*
X51698209Y-90948191D01*
X51488165Y-90807843D01*
X51240400Y-90758560D01*
X49140400Y-90758560D01*
X48892635Y-90807843D01*
X48682591Y-90948191D01*
X48542243Y-91158235D01*
X48492960Y-91406000D01*
X45160000Y-91406000D01*
X45160000Y-89405937D01*
X61722560Y-89405937D01*
X61722560Y-91005937D01*
X61771843Y-91253702D01*
X61912191Y-91463746D01*
X62122235Y-91604094D01*
X62370000Y-91653377D01*
X63970000Y-91653377D01*
X64217765Y-91604094D01*
X64427809Y-91463746D01*
X64568157Y-91253702D01*
X64617440Y-91005937D01*
X64617440Y-90982440D01*
X65570000Y-90982440D01*
X65817765Y-90933157D01*
X66027809Y-90792809D01*
X66168157Y-90582765D01*
X66217440Y-90335000D01*
X66217440Y-88735000D01*
X66168157Y-88487235D01*
X66027809Y-88277191D01*
X65817765Y-88136843D01*
X65583813Y-88090307D01*
X65598139Y-88042745D01*
X64770000Y-87214605D01*
X63941861Y-88042745D01*
X63956187Y-88090307D01*
X63722235Y-88136843D01*
X63512191Y-88277191D01*
X63371843Y-88487235D01*
X63322560Y-88735000D01*
X63322560Y-88758497D01*
X62370000Y-88758497D01*
X62122235Y-88807780D01*
X61912191Y-88948128D01*
X61771843Y-89158172D01*
X61722560Y-89405937D01*
X45160000Y-89405937D01*
X45160000Y-88564703D01*
X49181302Y-88564703D01*
X49286087Y-88836745D01*
X49913926Y-89071619D01*
X50583856Y-89048349D01*
X51094713Y-88836745D01*
X51199498Y-88564703D01*
X50190400Y-87555605D01*
X49181302Y-88564703D01*
X45160000Y-88564703D01*
X45160000Y-87099526D01*
X48494781Y-87099526D01*
X48518051Y-87769456D01*
X48729655Y-88280313D01*
X49001697Y-88385098D01*
X50010795Y-87376000D01*
X50370005Y-87376000D01*
X51379103Y-88385098D01*
X51651145Y-88280313D01*
X51886019Y-87652474D01*
X51862749Y-86982544D01*
X51794685Y-86818223D01*
X63323035Y-86818223D01*
X63350222Y-87388454D01*
X63516136Y-87789005D01*
X63762255Y-87863139D01*
X64590395Y-87035000D01*
X63762255Y-86206861D01*
X63516136Y-86280995D01*
X63323035Y-86818223D01*
X51794685Y-86818223D01*
X51651145Y-86471687D01*
X51379103Y-86366902D01*
X50370005Y-87376000D01*
X50010795Y-87376000D01*
X49001697Y-86366902D01*
X48729655Y-86471687D01*
X48494781Y-87099526D01*
X45160000Y-87099526D01*
X45160000Y-86187297D01*
X49181302Y-86187297D01*
X50190400Y-87196395D01*
X51199498Y-86187297D01*
X51137854Y-86027255D01*
X63941861Y-86027255D01*
X64770000Y-86855395D01*
X64784143Y-86841253D01*
X64963748Y-87020858D01*
X64949605Y-87035000D01*
X65777745Y-87863139D01*
X66023864Y-87789005D01*
X66031654Y-87767331D01*
X66153223Y-87811028D01*
X66723454Y-87783841D01*
X67124005Y-87617927D01*
X67154706Y-87516000D01*
X75605623Y-87516000D01*
X75605623Y-89116000D01*
X75654906Y-89363765D01*
X75795254Y-89573809D01*
X76005298Y-89714157D01*
X76253063Y-89763440D01*
X76276560Y-89763440D01*
X76276560Y-90716000D01*
X76325843Y-90963765D01*
X76466191Y-91173809D01*
X76676235Y-91314157D01*
X76924000Y-91363440D01*
X78524000Y-91363440D01*
X78771765Y-91314157D01*
X78981809Y-91173809D01*
X79122157Y-90963765D01*
X79130117Y-90923745D01*
X79395861Y-90923745D01*
X79469995Y-91169864D01*
X79491669Y-91177654D01*
X79447972Y-91299223D01*
X79475159Y-91869454D01*
X79641073Y-92270005D01*
X79887192Y-92344139D01*
X80715332Y-91516000D01*
X81074542Y-91516000D01*
X81902682Y-92344139D01*
X82148801Y-92270005D01*
X82341902Y-91732777D01*
X82314715Y-91162546D01*
X82148801Y-90761995D01*
X81902682Y-90687861D01*
X81074542Y-91516000D01*
X80715332Y-91516000D01*
X80701190Y-91501858D01*
X80880795Y-91322253D01*
X80894937Y-91336395D01*
X81723076Y-90508255D01*
X81648942Y-90262136D01*
X81627268Y-90254346D01*
X81670965Y-90132777D01*
X81643778Y-89562546D01*
X81477864Y-89161995D01*
X81231745Y-89087861D01*
X80403605Y-89916000D01*
X80417748Y-89930143D01*
X80238143Y-90109748D01*
X80224000Y-90095605D01*
X79395861Y-90923745D01*
X79130117Y-90923745D01*
X79168693Y-90729813D01*
X79216255Y-90744139D01*
X80044395Y-89916000D01*
X79216255Y-89087861D01*
X79168693Y-89102187D01*
X79130118Y-88908255D01*
X79395861Y-88908255D01*
X80224000Y-89736395D01*
X81052139Y-88908255D01*
X80978005Y-88662136D01*
X80440777Y-88469035D01*
X79870546Y-88496222D01*
X79469995Y-88662136D01*
X79395861Y-88908255D01*
X79130118Y-88908255D01*
X79122157Y-88868235D01*
X78981809Y-88658191D01*
X78771765Y-88517843D01*
X78524000Y-88468560D01*
X78500503Y-88468560D01*
X78500503Y-87516000D01*
X78451220Y-87268235D01*
X78310872Y-87058191D01*
X78100828Y-86917843D01*
X77853063Y-86868560D01*
X76253063Y-86868560D01*
X76005298Y-86917843D01*
X75795254Y-87058191D01*
X75654906Y-87268235D01*
X75605623Y-87516000D01*
X67154706Y-87516000D01*
X67198139Y-87371808D01*
X66370000Y-86543668D01*
X66355858Y-86557811D01*
X66176253Y-86378206D01*
X66190395Y-86364063D01*
X66549605Y-86364063D01*
X67377745Y-87192202D01*
X67623864Y-87118068D01*
X67816965Y-86580840D01*
X67789778Y-86010609D01*
X67623864Y-85610058D01*
X67377745Y-85535924D01*
X66549605Y-86364063D01*
X66190395Y-86364063D01*
X65362255Y-85535924D01*
X65116136Y-85610058D01*
X65108346Y-85631732D01*
X64986777Y-85588035D01*
X64416546Y-85615222D01*
X64015995Y-85781136D01*
X63941861Y-86027255D01*
X51137854Y-86027255D01*
X51094713Y-85915255D01*
X50466874Y-85680381D01*
X49796944Y-85703651D01*
X49286087Y-85915255D01*
X49181302Y-86187297D01*
X45160000Y-86187297D01*
X45160000Y-85356318D01*
X65541861Y-85356318D01*
X66370000Y-86184458D01*
X67198139Y-85356318D01*
X67124005Y-85110199D01*
X66586777Y-84917098D01*
X66016546Y-84944285D01*
X65615995Y-85110199D01*
X65541861Y-85356318D01*
X45160000Y-85356318D01*
X45160000Y-79978561D01*
X72733000Y-79978561D01*
X72733000Y-80549439D01*
X72951466Y-81076862D01*
X73355138Y-81480534D01*
X73882561Y-81699000D01*
X74453439Y-81699000D01*
X74980862Y-81480534D01*
X75384534Y-81076862D01*
X75576655Y-80613039D01*
X80396096Y-80613039D01*
X80556959Y-81001423D01*
X80932866Y-81416389D01*
X81438959Y-81655914D01*
X81661000Y-81534629D01*
X81661000Y-80391000D01*
X81915000Y-80391000D01*
X81915000Y-81534629D01*
X82137041Y-81655914D01*
X82643134Y-81416389D01*
X83019041Y-81001423D01*
X83179904Y-80613039D01*
X83057915Y-80391000D01*
X81915000Y-80391000D01*
X81661000Y-80391000D01*
X80518085Y-80391000D01*
X80396096Y-80613039D01*
X75576655Y-80613039D01*
X75603000Y-80549439D01*
X75603000Y-79978561D01*
X75576656Y-79914961D01*
X80396096Y-79914961D01*
X80518085Y-80137000D01*
X81661000Y-80137000D01*
X81661000Y-78993371D01*
X81915000Y-78993371D01*
X81915000Y-80137000D01*
X83057915Y-80137000D01*
X83179904Y-79914961D01*
X83019041Y-79526577D01*
X82643134Y-79111611D01*
X82137041Y-78872086D01*
X81915000Y-78993371D01*
X81661000Y-78993371D01*
X81438959Y-78872086D01*
X80932866Y-79111611D01*
X80556959Y-79526577D01*
X80396096Y-79914961D01*
X75576656Y-79914961D01*
X75384534Y-79451138D01*
X74980862Y-79047466D01*
X74453439Y-78829000D01*
X73882561Y-78829000D01*
X73355138Y-79047466D01*
X72951466Y-79451138D01*
X72733000Y-79978561D01*
X45160000Y-79978561D01*
X45160000Y-77597000D01*
X54610000Y-77597000D01*
X54658601Y-77587333D01*
X54699803Y-77559803D01*
X54727333Y-77518601D01*
X54737000Y-77470000D01*
X54737000Y-76570000D01*
X60047560Y-76570000D01*
X60047560Y-78370000D01*
X60096843Y-78617765D01*
X60237191Y-78827809D01*
X60447235Y-78968157D01*
X60695000Y-79017440D01*
X62495000Y-79017440D01*
X62742765Y-78968157D01*
X62952809Y-78827809D01*
X63093157Y-78617765D01*
X63142440Y-78370000D01*
X63142440Y-77834740D01*
X63503964Y-77834740D01*
X63682760Y-78266417D01*
X64087424Y-78707966D01*
X64630258Y-78961046D01*
X64868000Y-78840997D01*
X64868000Y-77597000D01*
X65122000Y-77597000D01*
X65122000Y-78840997D01*
X65359742Y-78961046D01*
X65902576Y-78707966D01*
X66307240Y-78266417D01*
X66486036Y-77834740D01*
X66365378Y-77597000D01*
X65122000Y-77597000D01*
X64868000Y-77597000D01*
X63624622Y-77597000D01*
X63503964Y-77834740D01*
X63142440Y-77834740D01*
X63142440Y-77470000D01*
X66829928Y-77470000D01*
X66949062Y-78068927D01*
X67288327Y-78576673D01*
X67796073Y-78915938D01*
X68243818Y-79005000D01*
X68546182Y-79005000D01*
X68993927Y-78915938D01*
X69501673Y-78576673D01*
X69840938Y-78068927D01*
X69960072Y-77470000D01*
X69840938Y-76871073D01*
X69501673Y-76363327D01*
X68993927Y-76024062D01*
X68546182Y-75935000D01*
X68243818Y-75935000D01*
X67796073Y-76024062D01*
X67288327Y-76363327D01*
X66949062Y-76871073D01*
X66829928Y-77470000D01*
X63142440Y-77470000D01*
X63142440Y-77105260D01*
X63503964Y-77105260D01*
X63624622Y-77343000D01*
X64868000Y-77343000D01*
X64868000Y-76099003D01*
X65122000Y-76099003D01*
X65122000Y-77343000D01*
X66365378Y-77343000D01*
X66486036Y-77105260D01*
X66307240Y-76673583D01*
X65902576Y-76232034D01*
X65359742Y-75978954D01*
X65122000Y-76099003D01*
X64868000Y-76099003D01*
X64630258Y-75978954D01*
X64087424Y-76232034D01*
X63682760Y-76673583D01*
X63503964Y-77105260D01*
X63142440Y-77105260D01*
X63142440Y-76570000D01*
X63093157Y-76322235D01*
X62952809Y-76112191D01*
X62742765Y-75971843D01*
X62495000Y-75922560D01*
X60695000Y-75922560D01*
X60447235Y-75971843D01*
X60237191Y-76112191D01*
X60096843Y-76322235D01*
X60047560Y-76570000D01*
X54737000Y-76570000D01*
X54737000Y-73770000D01*
X61729928Y-73770000D01*
X61849062Y-74368927D01*
X62188327Y-74876673D01*
X62696073Y-75215938D01*
X63143818Y-75305000D01*
X63446182Y-75305000D01*
X63893927Y-75215938D01*
X64401673Y-74876673D01*
X64740938Y-74368927D01*
X64860072Y-73770000D01*
X64740938Y-73171073D01*
X64520628Y-72841356D01*
X64928785Y-72433200D01*
X65932736Y-72433200D01*
X65588327Y-72663327D01*
X65249062Y-73171073D01*
X65129928Y-73770000D01*
X65249062Y-74368927D01*
X65588327Y-74876673D01*
X66096073Y-75215938D01*
X66543818Y-75305000D01*
X66846182Y-75305000D01*
X67293927Y-75215938D01*
X67801673Y-74876673D01*
X68140938Y-74368927D01*
X68260072Y-73770000D01*
X68140938Y-73171073D01*
X67801673Y-72663327D01*
X67457264Y-72433200D01*
X89405424Y-72433200D01*
X93174800Y-76202577D01*
X93174801Y-80515422D01*
X91851000Y-81839223D01*
X91851000Y-81459105D01*
X91556414Y-80747910D01*
X91012090Y-80203586D01*
X90300895Y-79909000D01*
X89531105Y-79909000D01*
X88819910Y-80203586D01*
X88275586Y-80747910D01*
X87981000Y-81459105D01*
X87981000Y-82228895D01*
X88275586Y-82940090D01*
X88819910Y-83484414D01*
X89084475Y-83594000D01*
X88819910Y-83703586D01*
X88275586Y-84247910D01*
X87981000Y-84959105D01*
X87981000Y-85728895D01*
X88275586Y-86440090D01*
X88819910Y-86984414D01*
X89531105Y-87279000D01*
X90300895Y-87279000D01*
X91012090Y-86984414D01*
X91556414Y-86440090D01*
X91851000Y-85728895D01*
X91851000Y-84978776D01*
X94992385Y-81837392D01*
X95085065Y-81775465D01*
X95164947Y-81655914D01*
X95205585Y-81595094D01*
X95330397Y-81408300D01*
X95394800Y-81084524D01*
X95394800Y-81084520D01*
X95416545Y-80975201D01*
X95394800Y-80865881D01*
X95394800Y-75852119D01*
X95416545Y-75742799D01*
X95394800Y-75633480D01*
X95394800Y-75633476D01*
X95330397Y-75309700D01*
X95085065Y-74942535D01*
X94992386Y-74880609D01*
X90727393Y-70615617D01*
X90665465Y-70522935D01*
X90298300Y-70277603D01*
X89974524Y-70213200D01*
X89974519Y-70213200D01*
X89865200Y-70191455D01*
X89755881Y-70213200D01*
X64578327Y-70213200D01*
X64469007Y-70191455D01*
X64359688Y-70213200D01*
X64359684Y-70213200D01*
X64035908Y-70277603D01*
X63668743Y-70522935D01*
X63606816Y-70615615D01*
X62587415Y-71635017D01*
X62494736Y-71696943D01*
X62249404Y-72064108D01*
X62185000Y-72387884D01*
X62185000Y-72387889D01*
X62163255Y-72497208D01*
X62185000Y-72606527D01*
X62185000Y-72668306D01*
X61849062Y-73171073D01*
X61729928Y-73770000D01*
X54737000Y-73770000D01*
X54737000Y-68020000D01*
X105283000Y-68020000D01*
X105283000Y-77470000D01*
G04 #@! TD*
M02*
