M48
;DRILL file {KiCad 5.0.2-bee76a0~70~ubuntu18.04.1} date Wed 20 Feb 2019 20:23:54 GMT
;FORMAT={-:-/ absolute / metric / decimal}
FMAT,2
METRIC,TZ
T1C0.400
T2C0.800
T3C0.890
T4C1.000
T5C1.100
T6C1.200
T7C1.300
T8C1.320
T9C1.600
T10C2.010
%
G90
G05
T1
X57.201Y-132.74
X86.36Y-108.902
X86.36Y-119.634
X93.98Y-126.873
X94.488Y-103.632
T2
X77.053Y-88.316
X77.724Y-89.916
X80.224Y-89.916
X80.895Y-91.516
X74.727Y-137.566
X82.347Y-137.566
X59.781Y-137.084
X60.452Y-138.684
X62.952Y-138.684
X63.623Y-140.284
X74.168Y-80.264
X81.788Y-80.264
X63.17Y-90.206
X64.77Y-87.035
X64.77Y-89.535
X66.37Y-86.364
X86.106Y-137.922
X93.726Y-137.922
X69.774Y-130.425
X71.374Y-127.254
X71.374Y-129.754
X72.974Y-126.583
X86.106Y-141.986
X93.726Y-141.986
X74.778Y-142.138
X82.398Y-142.138
X83.82Y-124.409
X83.82Y-132.029
X86.36Y-124.409
X86.36Y-132.029
X88.9Y-124.409
X88.9Y-132.029
X91.44Y-124.409
X91.44Y-132.029
T3
X57.785Y-106.045
X57.785Y-108.585
T4
X90.424Y-92.964
X92.964Y-92.964
X66.675Y-102.87
X66.675Y-105.41
X66.675Y-107.95
T5
X49.894Y-125.202
X49.894Y-128.602
X53.594Y-123.502
X53.594Y-126.902
X53.594Y-130.302
X61.595Y-77.47
X63.295Y-73.77
X64.995Y-77.47
X66.695Y-73.77
X68.395Y-77.47
X50.19Y-87.376
X50.19Y-92.456
T6
X100.457Y-121.873
X100.457Y-126.873
X100.52Y-136.017
X100.52Y-141.017
T7
X89.916Y-81.844
X89.916Y-85.344
X60.Y-120.396
X63.5Y-120.396
X107.471Y-126.47
X112.471Y-121.47
X112.471Y-131.47
X107.674Y-104.88
X112.674Y-99.88
X112.674Y-109.88
T8
X108.356Y-82.986
X108.356Y-87.986
T9
X75.184Y-115.316
X90.424Y-115.316
X75.184Y-103.124
X90.424Y-103.124
X98.298Y-100.33
X98.298Y-115.57
T10
X52.705Y-100.965
X52.705Y-111.125
T0
M30
