G04 #@! TF.GenerationSoftware,KiCad,Pcbnew,5.0.2-bee76a0~70~ubuntu18.04.1*
G04 #@! TF.CreationDate,2019-05-08T10:40:33+01:00*
G04 #@! TF.ProjectId,lm2596_cc_vc,6c6d3235-3936-45f6-9363-5f76632e6b69,rev?*
G04 #@! TF.SameCoordinates,Original*
G04 #@! TF.FileFunction,Other,User*
%FSLAX46Y46*%
G04 Gerber Fmt 4.6, Leading zero omitted, Abs format (unit mm)*
G04 Created by KiCad (PCBNEW 5.0.2-bee76a0~70~ubuntu18.04.1) date Wed 08 May 2019 10:40:33 BST*
%MOMM*%
%LPD*%
G01*
G04 APERTURE LIST*
%ADD10C,0.050000*%
G04 APERTURE END LIST*
D10*
G04 #@! TO.C,REF\002A\002A*
X52834000Y-123063000D02*
G75*
G03X52834000Y-123063000I-3050000J0D01*
G01*
X113794000Y-72263000D02*
G75*
G03X113794000Y-72263000I-3050000J0D01*
G01*
G04 #@! TO.C,C2*
X70020000Y-88285000D02*
G75*
G03X70020000Y-88285000I-5250000J0D01*
G01*
G04 #@! TO.C,C4*
X84224000Y-89916000D02*
G75*
G03X84224000Y-89916000I-5250000J0D01*
G01*
G04 #@! TO.C,D2*
X86923000Y-93162000D02*
X86923000Y-98862000D01*
X86923000Y-98862000D02*
X105863000Y-98862000D01*
X105863000Y-98862000D02*
X105863000Y-93162000D01*
X105863000Y-93162000D02*
X86923000Y-93162000D01*
G04 #@! TO.C,J2*
X60485000Y-113895000D02*
X60485000Y-98195000D01*
X60485000Y-113895000D02*
X23985000Y-113895000D01*
X23985000Y-98195000D02*
X23985000Y-113895000D01*
X60485000Y-98195000D02*
X23985000Y-98195000D01*
G04 #@! TO.C,J3*
X68475000Y-109750000D02*
X68475000Y-101100000D01*
X68475000Y-101100000D02*
X64875000Y-101100000D01*
X64875000Y-101100000D02*
X64875000Y-109750000D01*
X64875000Y-109750000D02*
X68475000Y-109750000D01*
G04 #@! TO.C,L2*
X93916000Y-83594000D02*
G75*
G03X93916000Y-83594000I-4000000J0D01*
G01*
G04 #@! TO.C,R4*
X77182000Y-69239000D02*
X77182000Y-72239000D01*
X77182000Y-72239000D02*
X86902000Y-72239000D01*
X86902000Y-72239000D02*
X86902000Y-69239000D01*
X86902000Y-69239000D02*
X77182000Y-69239000D01*
G04 #@! TO.C,RV1*
X115289000Y-94405000D02*
X107389000Y-94405000D01*
X115289000Y-109905000D02*
X115289000Y-94405000D01*
X107389000Y-109905000D02*
X115289000Y-109905000D01*
X107389000Y-94405000D02*
X107389000Y-109905000D01*
G04 #@! TO.C,RV2*
X88817000Y-76761000D02*
X104317000Y-76761000D01*
X104317000Y-76761000D02*
X104317000Y-68861000D01*
X104317000Y-68861000D02*
X88817000Y-68861000D01*
X88817000Y-68861000D02*
X88817000Y-76761000D01*
G04 #@! TO.C,U2*
X70245000Y-69020000D02*
X59745000Y-69020000D01*
X70245000Y-78620000D02*
X70245000Y-69020000D01*
X59745000Y-78620000D02*
X70245000Y-78620000D01*
X59745000Y-69020000D02*
X59745000Y-78620000D01*
G04 #@! TO.C,J1*
X44838000Y-91730000D02*
X44838000Y-80540000D01*
X44838000Y-91730000D02*
X57778000Y-91730000D01*
X57778000Y-80540000D02*
X44838000Y-80540000D01*
X57778000Y-80540000D02*
X57778000Y-91730000D01*
G04 #@! TO.C,J4*
X103766000Y-91799000D02*
X103766000Y-80609000D01*
X103766000Y-91799000D02*
X116706000Y-91799000D01*
X116706000Y-80609000D02*
X103766000Y-80609000D01*
X116706000Y-80609000D02*
X116706000Y-91799000D01*
G04 #@! TO.C,Q1*
X83265000Y-100678000D02*
X83265000Y-106078000D01*
X90725000Y-100678000D02*
X90725000Y-106078000D01*
X83265000Y-100678000D02*
X90725000Y-100678000D01*
X83265000Y-106078000D02*
X90725000Y-106078000D01*
G04 #@! TO.C,Q2*
X74470000Y-98739000D02*
X74470000Y-106239000D01*
X80470000Y-98739000D02*
X74470000Y-98739000D01*
X80470000Y-106239000D02*
X80470000Y-98739000D01*
X74470000Y-106239000D02*
X80470000Y-106239000D01*
G04 #@! TO.C,R1*
X95030000Y-108894000D02*
X80230000Y-108894000D01*
X95030000Y-112594000D02*
X95030000Y-108894000D01*
X80230000Y-112594000D02*
X95030000Y-112594000D01*
X80230000Y-108894000D02*
X80230000Y-112594000D01*
G04 #@! TO.C,R2*
X95157000Y-120214000D02*
X95157000Y-116514000D01*
X95157000Y-116514000D02*
X80357000Y-116514000D01*
X80357000Y-116514000D02*
X80357000Y-120214000D01*
X80357000Y-120214000D02*
X95157000Y-120214000D01*
G04 #@! TO.C,R3*
X111307000Y-112361000D02*
X111307000Y-127161000D01*
X115007000Y-112361000D02*
X111307000Y-112361000D01*
X115007000Y-127161000D02*
X115007000Y-112361000D01*
X111307000Y-127161000D02*
X115007000Y-127161000D01*
G04 #@! TO.C,R5*
X101164000Y-100423000D02*
X97464000Y-100423000D01*
X97464000Y-100423000D02*
X97464000Y-115223000D01*
X97464000Y-115223000D02*
X101164000Y-115223000D01*
X101164000Y-115223000D02*
X101164000Y-100423000D01*
G04 #@! TO.C,REF\002A\002A*
X52834000Y-72263000D02*
G75*
G03X52834000Y-72263000I-3050000J0D01*
G01*
G04 #@! TD*
M02*
