M48
;DRILL file {KiCad 5.0.2-bee76a0~70~ubuntu18.04.1} date Wed 08 May 2019 10:40:27 BST
;FORMAT={-:-/ absolute / metric / decimal}
FMAT,2
METRIC,TZ
T1C0.800
T2C0.890
T3C1.000
T4C1.100
T5C1.300
T6C1.320
T7C1.600
T8C2.010
%
G90
G05
T1
X77.724Y-89.916
X81.28Y-110.744
X93.98Y-110.744
X99.314Y-101.473
X99.314Y-114.173
X78.232Y-70.739
X85.852Y-70.739
X113.157Y-113.411
X113.157Y-126.111
X81.407Y-118.364
X94.107Y-118.364
X63.17Y-90.206
X64.77Y-87.035
X64.77Y-89.535
X66.37Y-86.364
X77.053Y-88.316
X80.224Y-89.916
X80.895Y-91.516
T2
X57.785Y-106.045
X57.785Y-108.585
T3
X66.675Y-102.87
X66.675Y-105.41
X66.675Y-107.95
T4
X61.595Y-77.47
X63.295Y-73.77
X64.995Y-77.47
X66.695Y-73.77
X68.395Y-77.47
T5
X108.839Y-97.155
X108.839Y-107.155
X113.839Y-102.155
X89.916Y-81.844
X89.916Y-85.344
X91.567Y-75.311
X96.567Y-70.311
X101.567Y-75.311
T6
X51.308Y-83.9
X51.308Y-88.9
X110.236Y-83.439
X110.236Y-88.439
T7
X88.773Y-96.012
X104.013Y-96.012
T8
X52.705Y-100.965
X52.705Y-111.125
T0
M30
