G04 #@! TF.GenerationSoftware,KiCad,Pcbnew,5.0.2-bee76a0~70~ubuntu18.04.1*
G04 #@! TF.CreationDate,2019-02-20T20:23:57+00:00*
G04 #@! TF.ProjectId,lm2596_cc_vc,6c6d3235-3936-45f6-9363-5f76632e6b69,rev?*
G04 #@! TF.SameCoordinates,Original*
G04 #@! TF.FileFunction,Other,User*
%FSLAX46Y46*%
G04 Gerber Fmt 4.6, Leading zero omitted, Abs format (unit mm)*
G04 Created by KiCad (PCBNEW 5.0.2-bee76a0~70~ubuntu18.04.1) date Wed 20 Feb 2019 20:23:57 GMT*
%MOMM*%
%LPD*%
G01*
G04 APERTURE LIST*
%ADD10C,0.050000*%
G04 APERTURE END LIST*
D10*
G04 #@! TO.C,R7*
X96707000Y-118623000D02*
X96707000Y-130123000D01*
X104207000Y-118623000D02*
X96707000Y-118623000D01*
X104207000Y-130123000D02*
X104207000Y-118623000D01*
X96707000Y-130123000D02*
X104207000Y-130123000D01*
G04 #@! TO.C,R3*
X104270500Y-144267000D02*
X104270500Y-132767000D01*
X96770500Y-144267000D02*
X104270500Y-144267000D01*
X96770500Y-132767000D02*
X96770500Y-144267000D01*
X104270500Y-132767000D02*
X96770500Y-132767000D01*
G04 #@! TO.C,U3*
X82270000Y-133129200D02*
X92970000Y-133129200D01*
X92970000Y-133129200D02*
X92970000Y-123329200D01*
X92970000Y-123329200D02*
X82270000Y-123329200D01*
X82270000Y-123329200D02*
X82270000Y-133129200D01*
G04 #@! TO.C,REF\002A\002A*
X52580000Y-140970000D02*
G75*
G03X52580000Y-140970000I-3050000J0D01*
G01*
X114810000Y-140970000D02*
G75*
G03X114810000Y-140970000I-3050000J0D01*
G01*
X114810000Y-72390000D02*
G75*
G03X114810000Y-72390000I-3050000J0D01*
G01*
G04 #@! TO.C,J1*
X45290400Y-84326000D02*
X45290400Y-95496000D01*
X54740400Y-84326000D02*
X45290400Y-84326000D01*
X54740400Y-95496000D02*
X54740400Y-84326000D01*
X45290400Y-95496000D02*
X54740400Y-95496000D01*
G04 #@! TO.C,J5*
X114826400Y-79625600D02*
X114826400Y-90815600D01*
X114826400Y-79625600D02*
X101886400Y-79625600D01*
X101886400Y-90815600D02*
X114826400Y-90815600D01*
X101886400Y-90815600D02*
X101886400Y-79625600D01*
G04 #@! TO.C,C1*
X66952000Y-138684000D02*
G75*
G03X66952000Y-138684000I-5250000J0D01*
G01*
G04 #@! TO.C,C2*
X70020000Y-88285000D02*
G75*
G03X70020000Y-88285000I-5250000J0D01*
G01*
G04 #@! TO.C,C3*
X76624000Y-128504000D02*
G75*
G03X76624000Y-128504000I-5250000J0D01*
G01*
G04 #@! TO.C,C4*
X84224000Y-89916000D02*
G75*
G03X84224000Y-89916000I-5250000J0D01*
G01*
G04 #@! TO.C,D1*
X73334000Y-112466000D02*
X73334000Y-118166000D01*
X73334000Y-118166000D02*
X92274000Y-118166000D01*
X92274000Y-118166000D02*
X92274000Y-112466000D01*
X92274000Y-112466000D02*
X73334000Y-112466000D01*
G04 #@! TO.C,D2*
X101148000Y-98480000D02*
X95448000Y-98480000D01*
X95448000Y-98480000D02*
X95448000Y-117420000D01*
X95448000Y-117420000D02*
X101148000Y-117420000D01*
X101148000Y-117420000D02*
X101148000Y-98480000D01*
G04 #@! TO.C,D3*
X92274000Y-100274000D02*
X73334000Y-100274000D01*
X92274000Y-105974000D02*
X92274000Y-100274000D01*
X73334000Y-105974000D02*
X92274000Y-105974000D01*
X73334000Y-100274000D02*
X73334000Y-105974000D01*
G04 #@! TO.C,J2*
X60485000Y-113895000D02*
X60485000Y-98195000D01*
X60485000Y-113895000D02*
X23985000Y-113895000D01*
X23985000Y-98195000D02*
X23985000Y-113895000D01*
X60485000Y-98195000D02*
X23985000Y-98195000D01*
G04 #@! TO.C,J3*
X68475000Y-109750000D02*
X68475000Y-101100000D01*
X68475000Y-101100000D02*
X64875000Y-101100000D01*
X64875000Y-101100000D02*
X64875000Y-109750000D01*
X64875000Y-109750000D02*
X68475000Y-109750000D01*
G04 #@! TO.C,J4*
X94764000Y-94764000D02*
X94764000Y-91164000D01*
X88614000Y-94764000D02*
X94764000Y-94764000D01*
X88614000Y-91164000D02*
X88614000Y-94764000D01*
X94764000Y-91164000D02*
X88614000Y-91164000D01*
G04 #@! TO.C,L1*
X65750000Y-120396000D02*
G75*
G03X65750000Y-120396000I-4000000J0D01*
G01*
G04 #@! TO.C,L2*
X93916000Y-83594000D02*
G75*
G03X93916000Y-83594000I-4000000J0D01*
G01*
G04 #@! TO.C,R1*
X85056000Y-136422000D02*
X85056000Y-139422000D01*
X85056000Y-139422000D02*
X94776000Y-139422000D01*
X94776000Y-139422000D02*
X94776000Y-136422000D01*
X94776000Y-136422000D02*
X85056000Y-136422000D01*
G04 #@! TO.C,R2*
X85056000Y-143486000D02*
X94776000Y-143486000D01*
X85056000Y-140486000D02*
X85056000Y-143486000D01*
X94776000Y-140486000D02*
X85056000Y-140486000D01*
X94776000Y-143486000D02*
X94776000Y-140486000D01*
G04 #@! TO.C,R4*
X73118000Y-78764000D02*
X73118000Y-81764000D01*
X73118000Y-81764000D02*
X82838000Y-81764000D01*
X82838000Y-81764000D02*
X82838000Y-78764000D01*
X82838000Y-78764000D02*
X73118000Y-78764000D01*
G04 #@! TO.C,R5*
X73727600Y-143638400D02*
X83447600Y-143638400D01*
X73727600Y-140638400D02*
X73727600Y-143638400D01*
X83447600Y-140638400D02*
X73727600Y-140638400D01*
X83447600Y-143638400D02*
X83447600Y-140638400D01*
G04 #@! TO.C,R6*
X73676800Y-136066400D02*
X73676800Y-139066400D01*
X73676800Y-139066400D02*
X83396800Y-139066400D01*
X83396800Y-139066400D02*
X83396800Y-136066400D01*
X83396800Y-136066400D02*
X73676800Y-136066400D01*
G04 #@! TO.C,RV1*
X106021200Y-134220400D02*
X113921200Y-134220400D01*
X106021200Y-118720400D02*
X106021200Y-134220400D01*
X113921200Y-118720400D02*
X106021200Y-118720400D01*
X113921200Y-134220400D02*
X113921200Y-118720400D01*
G04 #@! TO.C,RV2*
X114124400Y-112630400D02*
X114124400Y-97130400D01*
X114124400Y-97130400D02*
X106224400Y-97130400D01*
X106224400Y-97130400D02*
X106224400Y-112630400D01*
X106224400Y-112630400D02*
X114124400Y-112630400D01*
G04 #@! TO.C,U1*
X45144000Y-132152000D02*
X54744000Y-132152000D01*
X54744000Y-132152000D02*
X54744000Y-121652000D01*
X54744000Y-121652000D02*
X45144000Y-121652000D01*
X45144000Y-121652000D02*
X45144000Y-132152000D01*
G04 #@! TO.C,U2*
X70245000Y-69020000D02*
X59745000Y-69020000D01*
X70245000Y-78620000D02*
X70245000Y-69020000D01*
X59745000Y-78620000D02*
X70245000Y-78620000D01*
X59745000Y-69020000D02*
X59745000Y-78620000D01*
G04 #@! TO.C,REF\002A\002A*
X52580000Y-72390000D02*
G75*
G03X52580000Y-72390000I-3050000J0D01*
G01*
G04 #@! TD*
M02*
