G04 #@! TF.GenerationSoftware,KiCad,Pcbnew,5.0.2-bee76a0~70~ubuntu18.04.1*
G04 #@! TF.CreationDate,2019-05-08T10:40:33+01:00*
G04 #@! TF.ProjectId,lm2596_cc_vc,6c6d3235-3936-45f6-9363-5f76632e6b69,rev?*
G04 #@! TF.SameCoordinates,Original*
G04 #@! TF.FileFunction,Copper,L1,Top*
G04 #@! TF.FilePolarity,Positive*
%FSLAX46Y46*%
G04 Gerber Fmt 4.6, Leading zero omitted, Abs format (unit mm)*
G04 Created by KiCad (PCBNEW 5.0.2-bee76a0~70~ubuntu18.04.1) date Wed 08 May 2019 10:40:33 BST*
%MOMM*%
%LPD*%
G01*
G04 APERTURE LIST*
G04 #@! TA.AperFunction,ComponentPad*
%ADD10C,1.600000*%
G04 #@! TD*
G04 #@! TA.AperFunction,ComponentPad*
%ADD11R,1.600000X1.600000*%
G04 #@! TD*
G04 #@! TA.AperFunction,ComponentPad*
%ADD12R,3.200000X3.200000*%
G04 #@! TD*
G04 #@! TA.AperFunction,ComponentPad*
%ADD13O,3.200000X3.200000*%
G04 #@! TD*
G04 #@! TA.AperFunction,ComponentPad*
%ADD14O,7.000000X3.500000*%
G04 #@! TD*
G04 #@! TA.AperFunction,ComponentPad*
%ADD15O,2.500000X1.600000*%
G04 #@! TD*
G04 #@! TA.AperFunction,ComponentPad*
%ADD16R,1.700000X1.700000*%
G04 #@! TD*
G04 #@! TA.AperFunction,ComponentPad*
%ADD17O,1.700000X1.700000*%
G04 #@! TD*
G04 #@! TA.AperFunction,ComponentPad*
%ADD18C,2.600000*%
G04 #@! TD*
G04 #@! TA.AperFunction,ComponentPad*
%ADD19O,1.600000X1.600000*%
G04 #@! TD*
G04 #@! TA.AperFunction,ComponentPad*
%ADD20C,2.340000*%
G04 #@! TD*
G04 #@! TA.AperFunction,ComponentPad*
%ADD21O,1.800000X1.800000*%
G04 #@! TD*
G04 #@! TA.AperFunction,ComponentPad*
%ADD22R,1.800000X1.800000*%
G04 #@! TD*
G04 #@! TA.AperFunction,ComponentPad*
%ADD23R,3.960000X1.980000*%
G04 #@! TD*
G04 #@! TA.AperFunction,ComponentPad*
%ADD24O,3.960000X1.980000*%
G04 #@! TD*
G04 #@! TA.AperFunction,SMDPad,CuDef*
%ADD25R,1.550000X0.600000*%
G04 #@! TD*
G04 #@! TA.AperFunction,SMDPad,CuDef*
%ADD26R,0.700000X0.800000*%
G04 #@! TD*
G04 #@! TA.AperFunction,SMDPad,CuDef*
%ADD27R,4.500000X4.290000*%
G04 #@! TD*
G04 #@! TA.AperFunction,Conductor*
%ADD28C,0.950000*%
G04 #@! TD*
G04 #@! TA.AperFunction,Conductor*
%ADD29C,0.254000*%
G04 #@! TD*
G04 APERTURE END LIST*
D10*
G04 #@! TO.P,C2,2*
G04 #@! TO.N,GND*
X66370000Y-86364063D03*
D11*
G04 #@! TO.P,C2,1*
G04 #@! TO.N,+24V*
X63170000Y-90205937D03*
D10*
G04 #@! TO.P,C2,2*
G04 #@! TO.N,GND*
X64770000Y-87035000D03*
D11*
G04 #@! TO.P,C2,1*
G04 #@! TO.N,+24V*
X64770000Y-89535000D03*
G04 #@! TD*
G04 #@! TO.P,C4,1*
G04 #@! TO.N,Net-(C4-Pad1)*
X77724000Y-89916000D03*
D10*
G04 #@! TO.P,C4,2*
G04 #@! TO.N,GND*
X80224000Y-89916000D03*
D11*
G04 #@! TO.P,C4,1*
G04 #@! TO.N,Net-(C4-Pad1)*
X77053063Y-88316000D03*
D10*
G04 #@! TO.P,C4,2*
G04 #@! TO.N,GND*
X80894937Y-91516000D03*
G04 #@! TD*
D12*
G04 #@! TO.P,D2,1*
G04 #@! TO.N,Net-(D2-Pad1)*
X88773000Y-96012000D03*
D13*
G04 #@! TO.P,D2,2*
G04 #@! TO.N,GND*
X104013000Y-96012000D03*
G04 #@! TD*
D14*
G04 #@! TO.P,J2,2*
G04 #@! TO.N,GND*
X52705000Y-111125000D03*
X52705000Y-100965000D03*
D15*
G04 #@! TO.P,J2,1*
G04 #@! TO.N,Net-(J2-Pad1)*
X57785000Y-106045000D03*
G04 #@! TO.P,J2,2*
G04 #@! TO.N,GND*
X57785000Y-108585000D03*
G04 #@! TD*
D16*
G04 #@! TO.P,J3,1*
G04 #@! TO.N,Net-(J2-Pad1)*
X66675000Y-107950000D03*
D17*
G04 #@! TO.P,J3,2*
G04 #@! TO.N,Net-(J3-Pad2)*
X66675000Y-105410000D03*
G04 #@! TO.P,J3,3*
G04 #@! TO.N,GND*
X66675000Y-102870000D03*
G04 #@! TD*
D18*
G04 #@! TO.P,L2,1*
G04 #@! TO.N,Net-(D2-Pad1)*
X89916000Y-85344000D03*
G04 #@! TO.P,L2,2*
G04 #@! TO.N,Net-(C4-Pad1)*
X89916000Y-81844000D03*
G04 #@! TD*
D10*
G04 #@! TO.P,R4,1*
G04 #@! TO.N,Net-(R4-Pad1)*
X78232000Y-70739000D03*
D19*
G04 #@! TO.P,R4,2*
G04 #@! TO.N,GND*
X85852000Y-70739000D03*
G04 #@! TD*
D20*
G04 #@! TO.P,RV1,1*
G04 #@! TO.N,Net-(R3-Pad1)*
X108839000Y-97155000D03*
G04 #@! TO.P,RV1,2*
G04 #@! TO.N,Net-(J4-Pad2)*
X113839000Y-102155000D03*
G04 #@! TO.P,RV1,3*
G04 #@! TO.N,N/C*
X108839000Y-107155000D03*
G04 #@! TD*
G04 #@! TO.P,RV2,3*
G04 #@! TO.N,Net-(R4-Pad1)*
X101567000Y-75311000D03*
G04 #@! TO.P,RV2,2*
X96567000Y-70311000D03*
G04 #@! TO.P,RV2,1*
G04 #@! TO.N,Net-(C4-Pad1)*
X91567000Y-75311000D03*
G04 #@! TD*
D21*
G04 #@! TO.P,U2,5*
G04 #@! TO.N,Net-(J3-Pad2)*
X68395000Y-77470000D03*
G04 #@! TO.P,U2,4*
G04 #@! TO.N,Net-(R4-Pad1)*
X66695000Y-73770000D03*
G04 #@! TO.P,U2,3*
G04 #@! TO.N,GND*
X64995000Y-77470000D03*
G04 #@! TO.P,U2,2*
G04 #@! TO.N,Net-(D2-Pad1)*
X63295000Y-73770000D03*
D22*
G04 #@! TO.P,U2,1*
G04 #@! TO.N,+24V*
X61595000Y-77470000D03*
G04 #@! TD*
D23*
G04 #@! TO.P,J1,1*
G04 #@! TO.N,+24V*
X51308000Y-88900000D03*
D24*
G04 #@! TO.P,J1,2*
G04 #@! TO.N,GND*
X51308000Y-83900000D03*
G04 #@! TD*
G04 #@! TO.P,J4,2*
G04 #@! TO.N,Net-(J4-Pad2)*
X110236000Y-88439000D03*
D23*
G04 #@! TO.P,J4,1*
G04 #@! TO.N,GND*
X110236000Y-83439000D03*
G04 #@! TD*
D25*
G04 #@! TO.P,Q1,1*
G04 #@! TO.N,Net-(C4-Pad1)*
X84295000Y-101473000D03*
G04 #@! TO.P,Q1,2*
X84295000Y-102743000D03*
G04 #@! TO.P,Q1,3*
X84295000Y-104013000D03*
G04 #@! TO.P,Q1,4*
G04 #@! TO.N,Net-(Q1-Pad4)*
X84295000Y-105283000D03*
G04 #@! TO.P,Q1,5*
G04 #@! TO.N,Net-(Q1-Pad5)*
X89695000Y-105283000D03*
G04 #@! TO.P,Q1,6*
X89695000Y-104013000D03*
G04 #@! TO.P,Q1,7*
X89695000Y-102743000D03*
G04 #@! TO.P,Q1,8*
X89695000Y-101473000D03*
G04 #@! TD*
D26*
G04 #@! TO.P,Q2,1*
G04 #@! TO.N,GND*
X79380000Y-99739000D03*
G04 #@! TO.P,Q2,2*
X78110000Y-99739000D03*
G04 #@! TO.P,Q2,3*
X76830000Y-99739000D03*
G04 #@! TO.P,Q2,4*
G04 #@! TO.N,Net-(J2-Pad1)*
X75560000Y-99739000D03*
G04 #@! TO.P,Q2,5*
G04 #@! TO.N,Net-(Q1-Pad4)*
X75560000Y-105239000D03*
X76830000Y-105239000D03*
X78110000Y-105239000D03*
X79380000Y-105239000D03*
D27*
X77470000Y-102989000D03*
G04 #@! TD*
D19*
G04 #@! TO.P,R1,2*
G04 #@! TO.N,Net-(C4-Pad1)*
X93980000Y-110744000D03*
D10*
G04 #@! TO.P,R1,1*
G04 #@! TO.N,Net-(Q1-Pad4)*
X81280000Y-110744000D03*
G04 #@! TD*
G04 #@! TO.P,R2,1*
G04 #@! TO.N,GND*
X94107000Y-118364000D03*
D19*
G04 #@! TO.P,R2,2*
G04 #@! TO.N,Net-(J2-Pad1)*
X81407000Y-118364000D03*
G04 #@! TD*
G04 #@! TO.P,R3,2*
G04 #@! TO.N,Net-(Q1-Pad5)*
X113157000Y-113411000D03*
D10*
G04 #@! TO.P,R3,1*
G04 #@! TO.N,Net-(R3-Pad1)*
X113157000Y-126111000D03*
G04 #@! TD*
G04 #@! TO.P,R5,1*
G04 #@! TO.N,Net-(Q1-Pad5)*
X99314000Y-101473000D03*
D19*
G04 #@! TO.P,R5,2*
G04 #@! TO.N,GND*
X99314000Y-114173000D03*
G04 #@! TD*
D28*
G04 #@! TO.N,+24V*
X64099063Y-90205937D02*
X64770000Y-89535000D01*
X63170000Y-90205937D02*
X64099063Y-90205937D01*
X59944000Y-88773000D02*
X61376937Y-90205937D01*
X61376937Y-90205937D02*
X63170000Y-90205937D01*
X61595000Y-77470000D02*
X61595000Y-79320000D01*
X61595000Y-79320000D02*
X59944000Y-80971000D01*
X58547000Y-88900000D02*
X59944000Y-87503000D01*
X51308000Y-88900000D02*
X58547000Y-88900000D01*
X59944000Y-80971000D02*
X59944000Y-87503000D01*
X59944000Y-87503000D02*
X59944000Y-88773000D01*
G04 #@! TO.N,Net-(C4-Pad1)*
X88077523Y-81844000D02*
X85902800Y-84018723D01*
X89916000Y-81844000D02*
X88077523Y-81844000D01*
X77724000Y-88166000D02*
X77724000Y-89916000D01*
X81871277Y-84018723D02*
X77724000Y-88166000D01*
X85902800Y-84018723D02*
X81871277Y-84018723D01*
X77053063Y-89245063D02*
X77724000Y-89916000D01*
X77053063Y-88316000D02*
X77053063Y-89245063D01*
X77724000Y-91666000D02*
X80673000Y-94615000D01*
X77724000Y-89916000D02*
X77724000Y-91666000D01*
X80673000Y-94615000D02*
X80772000Y-94615000D01*
X84295000Y-98138000D02*
X84295000Y-104013000D01*
X80772000Y-94615000D02*
X84295000Y-98138000D01*
X89916000Y-76962000D02*
X91567000Y-75311000D01*
X89916000Y-81844000D02*
X89916000Y-76962000D01*
X92751000Y-110744000D02*
X93980000Y-110744000D01*
X84295000Y-104013000D02*
X86020000Y-104013000D01*
X86020000Y-104013000D02*
X92751000Y-110744000D01*
G04 #@! TO.N,Net-(J2-Pad1)*
X57785000Y-106045000D02*
X62230000Y-106045000D01*
X64135000Y-107950000D02*
X66675000Y-107950000D01*
X62230000Y-106045000D02*
X64135000Y-107950000D01*
X68475000Y-107950000D02*
X72771000Y-103654000D01*
X66675000Y-107950000D02*
X68475000Y-107950000D01*
X74260000Y-99739000D02*
X75560000Y-99739000D01*
X72771000Y-101228000D02*
X74260000Y-99739000D01*
X72771000Y-103654000D02*
X72771000Y-101228000D01*
X66675000Y-109750000D02*
X66675000Y-107950000D01*
X75289000Y-118364000D02*
X66675000Y-109750000D01*
X81407000Y-118364000D02*
X75289000Y-118364000D01*
G04 #@! TO.N,Net-(J3-Pad2)*
X71247000Y-103251000D02*
X69088000Y-105410000D01*
X68395000Y-77470000D02*
X71247000Y-80322000D01*
X69088000Y-105410000D02*
X66675000Y-105410000D01*
X71247000Y-80322000D02*
X71247000Y-103251000D01*
G04 #@! TO.N,Net-(Q1-Pad4)*
X76874000Y-105283000D02*
X76830000Y-105239000D01*
X84295000Y-105283000D02*
X76874000Y-105283000D01*
X76830000Y-105239000D02*
X75560000Y-105239000D01*
X76830000Y-103629000D02*
X77470000Y-102989000D01*
X76830000Y-105239000D02*
X76830000Y-103629000D01*
X81280000Y-107139000D02*
X79380000Y-105239000D01*
X81280000Y-110744000D02*
X81280000Y-107139000D01*
G04 #@! TO.N,Net-(Q1-Pad5)*
X89695000Y-101473000D02*
X89695000Y-105283000D01*
X89695000Y-101473000D02*
X99314000Y-101473000D01*
X111252000Y-113411000D02*
X113157000Y-113411000D01*
X99314000Y-101473000D02*
X111252000Y-113411000D01*
G04 #@! TO.N,Net-(R4-Pad1)*
X75201000Y-73770000D02*
X78232000Y-70739000D01*
X66695000Y-73770000D02*
X75201000Y-73770000D01*
X94582000Y-68326000D02*
X96567000Y-70311000D01*
X78232000Y-70739000D02*
X80645000Y-68326000D01*
X80645000Y-68326000D02*
X94582000Y-68326000D01*
X94582000Y-68326000D02*
X99568000Y-68326000D01*
X101567000Y-70325000D02*
X101567000Y-75311000D01*
X99568000Y-68326000D02*
X101567000Y-70325000D01*
G04 #@! TD*
D29*
G04 #@! TO.N,GND*
G36*
X78097223Y-69304000D02*
X77946561Y-69304000D01*
X77419138Y-69522466D01*
X77015466Y-69926138D01*
X76797000Y-70453561D01*
X76797000Y-70604222D01*
X74741224Y-72660000D01*
X67796694Y-72660000D01*
X67293927Y-72324062D01*
X66846182Y-72235000D01*
X66543818Y-72235000D01*
X66096073Y-72324062D01*
X65588327Y-72663327D01*
X65249062Y-73171073D01*
X65129928Y-73770000D01*
X65249062Y-74368927D01*
X65588327Y-74876673D01*
X66096073Y-75215938D01*
X66543818Y-75305000D01*
X66846182Y-75305000D01*
X67293927Y-75215938D01*
X67796694Y-74880000D01*
X75091681Y-74880000D01*
X75201000Y-74901745D01*
X75310319Y-74880000D01*
X75310324Y-74880000D01*
X75634100Y-74815597D01*
X76001265Y-74570265D01*
X76063193Y-74477583D01*
X78366778Y-72174000D01*
X78517439Y-72174000D01*
X79044862Y-71955534D01*
X79448534Y-71551862D01*
X79640655Y-71088039D01*
X84460096Y-71088039D01*
X84620959Y-71476423D01*
X84996866Y-71891389D01*
X85502959Y-72130914D01*
X85725000Y-72009629D01*
X85725000Y-70866000D01*
X85979000Y-70866000D01*
X85979000Y-72009629D01*
X86201041Y-72130914D01*
X86707134Y-71891389D01*
X87083041Y-71476423D01*
X87243904Y-71088039D01*
X87121915Y-70866000D01*
X85979000Y-70866000D01*
X85725000Y-70866000D01*
X84582085Y-70866000D01*
X84460096Y-71088039D01*
X79640655Y-71088039D01*
X79667000Y-71024439D01*
X79667000Y-70873777D01*
X81104778Y-69436000D01*
X85315092Y-69436000D01*
X84996866Y-69586611D01*
X84620959Y-70001577D01*
X84460096Y-70389961D01*
X84582085Y-70612000D01*
X85725000Y-70612000D01*
X85725000Y-70592000D01*
X85979000Y-70592000D01*
X85979000Y-70612000D01*
X87121915Y-70612000D01*
X87243904Y-70389961D01*
X87083041Y-70001577D01*
X86707134Y-69586611D01*
X86388908Y-69436000D01*
X94122224Y-69436000D01*
X94762000Y-70075776D01*
X94762000Y-70670037D01*
X95036795Y-71333450D01*
X95544550Y-71841205D01*
X96207963Y-72116000D01*
X96926037Y-72116000D01*
X97589450Y-71841205D01*
X98097205Y-71333450D01*
X98372000Y-70670037D01*
X98372000Y-69951963D01*
X98158281Y-69436000D01*
X99108224Y-69436000D01*
X100457000Y-70784777D01*
X100457001Y-73868344D01*
X100036795Y-74288550D01*
X99762000Y-74951963D01*
X99762000Y-75670037D01*
X100036795Y-76333450D01*
X100544550Y-76841205D01*
X101207963Y-77116000D01*
X101926037Y-77116000D01*
X102589450Y-76841205D01*
X103097205Y-76333450D01*
X103372000Y-75670037D01*
X103372000Y-74951963D01*
X103097205Y-74288550D01*
X102677000Y-73868345D01*
X102677000Y-70434319D01*
X102698745Y-70325000D01*
X102677000Y-70215680D01*
X102677000Y-70215676D01*
X102612597Y-69891900D01*
X102367265Y-69524735D01*
X102274586Y-69462809D01*
X100831776Y-68020000D01*
X105283000Y-68020000D01*
X105283000Y-77470000D01*
X105292667Y-77518601D01*
X105320197Y-77559803D01*
X105361399Y-77587333D01*
X105410000Y-77597000D01*
X116108612Y-77597000D01*
X116004475Y-127687000D01*
X54991000Y-127687000D01*
X54991000Y-125825561D01*
X111722000Y-125825561D01*
X111722000Y-126396439D01*
X111940466Y-126923862D01*
X112344138Y-127327534D01*
X112871561Y-127546000D01*
X113442439Y-127546000D01*
X113969862Y-127327534D01*
X114373534Y-126923862D01*
X114592000Y-126396439D01*
X114592000Y-125825561D01*
X114373534Y-125298138D01*
X113969862Y-124894466D01*
X113442439Y-124676000D01*
X112871561Y-124676000D01*
X112344138Y-124894466D01*
X111940466Y-125298138D01*
X111722000Y-125825561D01*
X54991000Y-125825561D01*
X54991000Y-117983000D01*
X54981333Y-117934399D01*
X54953803Y-117893197D01*
X54912601Y-117865667D01*
X54864000Y-117856000D01*
X45160000Y-117856000D01*
X45160000Y-111623003D01*
X48622573Y-111623003D01*
X48702946Y-111920367D01*
X49178747Y-112721647D01*
X49924967Y-113279852D01*
X50828000Y-113510000D01*
X52578000Y-113510000D01*
X52578000Y-111252000D01*
X52832000Y-111252000D01*
X52832000Y-113510000D01*
X54582000Y-113510000D01*
X55485033Y-113279852D01*
X56231253Y-112721647D01*
X56707054Y-111920367D01*
X56787427Y-111623003D01*
X56677625Y-111252000D01*
X52832000Y-111252000D01*
X52578000Y-111252000D01*
X48732375Y-111252000D01*
X48622573Y-111623003D01*
X45160000Y-111623003D01*
X45160000Y-110626997D01*
X48622573Y-110626997D01*
X48732375Y-110998000D01*
X52578000Y-110998000D01*
X52578000Y-108740000D01*
X52832000Y-108740000D01*
X52832000Y-110998000D01*
X56677625Y-110998000D01*
X56787427Y-110626997D01*
X56707054Y-110329633D01*
X56231253Y-109528353D01*
X55485033Y-108970148D01*
X55343352Y-108934039D01*
X55943096Y-108934039D01*
X55960633Y-109016819D01*
X56230500Y-109509896D01*
X56668517Y-109862166D01*
X57208000Y-110020000D01*
X57658000Y-110020000D01*
X57658000Y-108712000D01*
X57912000Y-108712000D01*
X57912000Y-110020000D01*
X58362000Y-110020000D01*
X58901483Y-109862166D01*
X59339500Y-109509896D01*
X59609367Y-109016819D01*
X59626904Y-108934039D01*
X59504915Y-108712000D01*
X57912000Y-108712000D01*
X57658000Y-108712000D01*
X56065085Y-108712000D01*
X55943096Y-108934039D01*
X55343352Y-108934039D01*
X54582000Y-108740000D01*
X52832000Y-108740000D01*
X52578000Y-108740000D01*
X50828000Y-108740000D01*
X49924967Y-108970148D01*
X49178747Y-109528353D01*
X48702946Y-110329633D01*
X48622573Y-110626997D01*
X45160000Y-110626997D01*
X45160000Y-106045000D01*
X55871887Y-106045000D01*
X55983260Y-106604909D01*
X56300423Y-107079577D01*
X56656499Y-107317499D01*
X56230500Y-107660104D01*
X55960633Y-108153181D01*
X55943096Y-108235961D01*
X56065085Y-108458000D01*
X57658000Y-108458000D01*
X57658000Y-108438000D01*
X57912000Y-108438000D01*
X57912000Y-108458000D01*
X59504915Y-108458000D01*
X59626904Y-108235961D01*
X59609367Y-108153181D01*
X59339500Y-107660104D01*
X58913501Y-107317499D01*
X59156698Y-107155000D01*
X61770224Y-107155000D01*
X63272808Y-108657585D01*
X63334735Y-108750265D01*
X63701900Y-108995597D01*
X64025676Y-109060000D01*
X64025680Y-109060000D01*
X64135000Y-109081745D01*
X64244319Y-109060000D01*
X65235018Y-109060000D01*
X65367191Y-109257809D01*
X65565000Y-109389982D01*
X65565000Y-109640680D01*
X65543255Y-109750000D01*
X65565000Y-109859319D01*
X65565000Y-109859323D01*
X65629403Y-110183099D01*
X65874735Y-110550265D01*
X65967417Y-110612194D01*
X74426808Y-119071585D01*
X74488735Y-119164265D01*
X74855900Y-119409597D01*
X75179676Y-119474000D01*
X75179680Y-119474000D01*
X75289000Y-119495745D01*
X75398320Y-119474000D01*
X80485302Y-119474000D01*
X80847091Y-119715740D01*
X81265667Y-119799000D01*
X81548333Y-119799000D01*
X81966909Y-119715740D01*
X82441577Y-119398577D01*
X82459505Y-119371745D01*
X93278861Y-119371745D01*
X93352995Y-119617864D01*
X93890223Y-119810965D01*
X94460454Y-119783778D01*
X94861005Y-119617864D01*
X94935139Y-119371745D01*
X94107000Y-118543605D01*
X93278861Y-119371745D01*
X82459505Y-119371745D01*
X82758740Y-118923909D01*
X82870113Y-118364000D01*
X82826994Y-118147223D01*
X92660035Y-118147223D01*
X92687222Y-118717454D01*
X92853136Y-119118005D01*
X93099255Y-119192139D01*
X93927395Y-118364000D01*
X94286605Y-118364000D01*
X95114745Y-119192139D01*
X95360864Y-119118005D01*
X95553965Y-118580777D01*
X95526778Y-118010546D01*
X95360864Y-117609995D01*
X95114745Y-117535861D01*
X94286605Y-118364000D01*
X93927395Y-118364000D01*
X93099255Y-117535861D01*
X92853136Y-117609995D01*
X92660035Y-118147223D01*
X82826994Y-118147223D01*
X82758740Y-117804091D01*
X82459506Y-117356255D01*
X93278861Y-117356255D01*
X94107000Y-118184395D01*
X94935139Y-117356255D01*
X94861005Y-117110136D01*
X94323777Y-116917035D01*
X93753546Y-116944222D01*
X93352995Y-117110136D01*
X93278861Y-117356255D01*
X82459506Y-117356255D01*
X82441577Y-117329423D01*
X81966909Y-117012260D01*
X81548333Y-116929000D01*
X81265667Y-116929000D01*
X80847091Y-117012260D01*
X80485302Y-117254000D01*
X75748777Y-117254000D01*
X73016818Y-114522041D01*
X97922086Y-114522041D01*
X98161611Y-115028134D01*
X98576577Y-115404041D01*
X98964961Y-115564904D01*
X99187000Y-115442915D01*
X99187000Y-114300000D01*
X99441000Y-114300000D01*
X99441000Y-115442915D01*
X99663039Y-115564904D01*
X100051423Y-115404041D01*
X100466389Y-115028134D01*
X100705914Y-114522041D01*
X100584629Y-114300000D01*
X99441000Y-114300000D01*
X99187000Y-114300000D01*
X98043371Y-114300000D01*
X97922086Y-114522041D01*
X73016818Y-114522041D01*
X72318736Y-113823959D01*
X97922086Y-113823959D01*
X98043371Y-114046000D01*
X99187000Y-114046000D01*
X99187000Y-112903085D01*
X99441000Y-112903085D01*
X99441000Y-114046000D01*
X100584629Y-114046000D01*
X100705914Y-113823959D01*
X100466389Y-113317866D01*
X100051423Y-112941959D01*
X99663039Y-112781096D01*
X99441000Y-112903085D01*
X99187000Y-112903085D01*
X98964961Y-112781096D01*
X98576577Y-112941959D01*
X98161611Y-113317866D01*
X97922086Y-113823959D01*
X72318736Y-113823959D01*
X67844800Y-109350024D01*
X67982809Y-109257809D01*
X68114982Y-109060000D01*
X68365681Y-109060000D01*
X68475000Y-109081745D01*
X68584319Y-109060000D01*
X68584324Y-109060000D01*
X68908100Y-108995597D01*
X69275265Y-108750265D01*
X69337193Y-108657583D01*
X73478586Y-104516191D01*
X73571265Y-104454265D01*
X73747294Y-104190819D01*
X73816596Y-104087102D01*
X73816596Y-104087101D01*
X73816597Y-104087100D01*
X73881000Y-103763324D01*
X73881000Y-103763321D01*
X73902745Y-103654001D01*
X73881000Y-103544681D01*
X73881000Y-101687776D01*
X74572560Y-100996217D01*
X74572560Y-104718862D01*
X74514403Y-104805900D01*
X74428254Y-105239000D01*
X74514403Y-105672100D01*
X74592347Y-105788752D01*
X74611843Y-105886765D01*
X74752191Y-106096809D01*
X74962235Y-106237157D01*
X75095604Y-106263685D01*
X75126900Y-106284597D01*
X75450676Y-106349000D01*
X76543473Y-106349000D01*
X76764676Y-106393000D01*
X76764680Y-106393000D01*
X76873999Y-106414745D01*
X76983319Y-106393000D01*
X78964224Y-106393000D01*
X80170001Y-107598778D01*
X80170000Y-109824604D01*
X80063466Y-109931138D01*
X79845000Y-110458561D01*
X79845000Y-111029439D01*
X80063466Y-111556862D01*
X80467138Y-111960534D01*
X80994561Y-112179000D01*
X81565439Y-112179000D01*
X82092862Y-111960534D01*
X82496534Y-111556862D01*
X82715000Y-111029439D01*
X82715000Y-110458561D01*
X82496534Y-109931138D01*
X82390000Y-109824604D01*
X82390000Y-107248319D01*
X82411745Y-107139000D01*
X82390000Y-107029680D01*
X82390000Y-107029676D01*
X82325597Y-106705900D01*
X82158349Y-106455596D01*
X82142192Y-106431415D01*
X82116524Y-106393000D01*
X84404324Y-106393000D01*
X84728100Y-106328597D01*
X84875002Y-106230440D01*
X85070000Y-106230440D01*
X85317765Y-106181157D01*
X85527809Y-106040809D01*
X85668157Y-105830765D01*
X85717440Y-105583000D01*
X85717440Y-105280216D01*
X91888808Y-111451585D01*
X91950735Y-111544265D01*
X92043414Y-111606191D01*
X92317898Y-111789596D01*
X92317899Y-111789596D01*
X92317900Y-111789597D01*
X92641676Y-111854000D01*
X92641679Y-111854000D01*
X92750999Y-111875745D01*
X92860319Y-111854000D01*
X93058302Y-111854000D01*
X93420091Y-112095740D01*
X93838667Y-112179000D01*
X94121333Y-112179000D01*
X94539909Y-112095740D01*
X95014577Y-111778577D01*
X95331740Y-111303909D01*
X95443113Y-110744000D01*
X95331740Y-110184091D01*
X95014577Y-109709423D01*
X94539909Y-109392260D01*
X94121333Y-109309000D01*
X93838667Y-109309000D01*
X93420091Y-109392260D01*
X93149704Y-109572927D01*
X89942326Y-106365550D01*
X90128100Y-106328597D01*
X90275002Y-106230440D01*
X90470000Y-106230440D01*
X90717765Y-106181157D01*
X90927809Y-106040809D01*
X91068157Y-105830765D01*
X91117440Y-105583000D01*
X91117440Y-104983000D01*
X91068157Y-104735235D01*
X91009868Y-104648000D01*
X91068157Y-104560765D01*
X91117440Y-104313000D01*
X91117440Y-103713000D01*
X91068157Y-103465235D01*
X91009868Y-103378000D01*
X91068157Y-103290765D01*
X91117440Y-103043000D01*
X91117440Y-102583000D01*
X98394604Y-102583000D01*
X98501138Y-102689534D01*
X99028561Y-102908000D01*
X99179224Y-102908000D01*
X110389808Y-114118585D01*
X110451735Y-114211265D01*
X110544415Y-114273192D01*
X110818899Y-114456597D01*
X110898855Y-114472501D01*
X111142676Y-114521000D01*
X111142679Y-114521000D01*
X111252000Y-114542745D01*
X111361321Y-114521000D01*
X112235302Y-114521000D01*
X112597091Y-114762740D01*
X113015667Y-114846000D01*
X113298333Y-114846000D01*
X113716909Y-114762740D01*
X114191577Y-114445577D01*
X114508740Y-113970909D01*
X114620113Y-113411000D01*
X114508740Y-112851091D01*
X114191577Y-112376423D01*
X113716909Y-112059260D01*
X113298333Y-111976000D01*
X113015667Y-111976000D01*
X112597091Y-112059260D01*
X112235302Y-112301000D01*
X111711777Y-112301000D01*
X108293570Y-108882793D01*
X108479963Y-108960000D01*
X109198037Y-108960000D01*
X109861450Y-108685205D01*
X110369205Y-108177450D01*
X110644000Y-107514037D01*
X110644000Y-106795963D01*
X110369205Y-106132550D01*
X109861450Y-105624795D01*
X109198037Y-105350000D01*
X108479963Y-105350000D01*
X107816550Y-105624795D01*
X107308795Y-106132550D01*
X107034000Y-106795963D01*
X107034000Y-107514037D01*
X107111207Y-107700430D01*
X101206740Y-101795963D01*
X112034000Y-101795963D01*
X112034000Y-102514037D01*
X112308795Y-103177450D01*
X112816550Y-103685205D01*
X113479963Y-103960000D01*
X114198037Y-103960000D01*
X114861450Y-103685205D01*
X115369205Y-103177450D01*
X115644000Y-102514037D01*
X115644000Y-101795963D01*
X115369205Y-101132550D01*
X114861450Y-100624795D01*
X114198037Y-100350000D01*
X113479963Y-100350000D01*
X112816550Y-100624795D01*
X112308795Y-101132550D01*
X112034000Y-101795963D01*
X101206740Y-101795963D01*
X100749000Y-101338224D01*
X100749000Y-101187561D01*
X100530534Y-100660138D01*
X100126862Y-100256466D01*
X99599439Y-100038000D01*
X99028561Y-100038000D01*
X98501138Y-100256466D01*
X98394604Y-100363000D01*
X89804324Y-100363000D01*
X89695000Y-100341254D01*
X89585676Y-100363000D01*
X89261900Y-100427403D01*
X89114998Y-100525560D01*
X88920000Y-100525560D01*
X88672235Y-100574843D01*
X88462191Y-100715191D01*
X88321843Y-100925235D01*
X88272560Y-101173000D01*
X88272560Y-101773000D01*
X88321843Y-102020765D01*
X88380132Y-102108000D01*
X88321843Y-102195235D01*
X88272560Y-102443000D01*
X88272560Y-103043000D01*
X88321843Y-103290765D01*
X88380132Y-103378000D01*
X88321843Y-103465235D01*
X88272560Y-103713000D01*
X88272560Y-104313000D01*
X88321843Y-104560765D01*
X88380132Y-104648000D01*
X88321843Y-104735235D01*
X88320212Y-104743436D01*
X86882193Y-103305417D01*
X86820265Y-103212735D01*
X86453100Y-102967403D01*
X86129324Y-102903000D01*
X86129319Y-102903000D01*
X86020000Y-102881255D01*
X85910681Y-102903000D01*
X85717440Y-102903000D01*
X85717440Y-102443000D01*
X85668157Y-102195235D01*
X85609868Y-102108000D01*
X85668157Y-102020765D01*
X85717440Y-101773000D01*
X85717440Y-101173000D01*
X85668157Y-100925235D01*
X85527809Y-100715191D01*
X85405000Y-100633132D01*
X85405000Y-98247319D01*
X85426745Y-98137999D01*
X85405000Y-98028677D01*
X85405000Y-98028676D01*
X85340597Y-97704900D01*
X85095265Y-97337735D01*
X85002586Y-97275809D01*
X82138777Y-94412000D01*
X86525560Y-94412000D01*
X86525560Y-97612000D01*
X86574843Y-97859765D01*
X86715191Y-98069809D01*
X86925235Y-98210157D01*
X87173000Y-98259440D01*
X90373000Y-98259440D01*
X90620765Y-98210157D01*
X90830809Y-98069809D01*
X90971157Y-97859765D01*
X91020440Y-97612000D01*
X91020440Y-96486503D01*
X101828950Y-96486503D01*
X102133114Y-97220836D01*
X102738813Y-97848220D01*
X103538496Y-98196056D01*
X103886000Y-98084645D01*
X103886000Y-96139000D01*
X104140000Y-96139000D01*
X104140000Y-98084645D01*
X104487504Y-98196056D01*
X105287187Y-97848220D01*
X105892886Y-97220836D01*
X106068870Y-96795963D01*
X107034000Y-96795963D01*
X107034000Y-97514037D01*
X107308795Y-98177450D01*
X107816550Y-98685205D01*
X108479963Y-98960000D01*
X109198037Y-98960000D01*
X109861450Y-98685205D01*
X110369205Y-98177450D01*
X110644000Y-97514037D01*
X110644000Y-96795963D01*
X110369205Y-96132550D01*
X109861450Y-95624795D01*
X109198037Y-95350000D01*
X108479963Y-95350000D01*
X107816550Y-95624795D01*
X107308795Y-96132550D01*
X107034000Y-96795963D01*
X106068870Y-96795963D01*
X106197050Y-96486503D01*
X106085362Y-96139000D01*
X104140000Y-96139000D01*
X103886000Y-96139000D01*
X101940638Y-96139000D01*
X101828950Y-96486503D01*
X91020440Y-96486503D01*
X91020440Y-95537497D01*
X101828950Y-95537497D01*
X101940638Y-95885000D01*
X103886000Y-95885000D01*
X103886000Y-93939355D01*
X104140000Y-93939355D01*
X104140000Y-95885000D01*
X106085362Y-95885000D01*
X106197050Y-95537497D01*
X105892886Y-94803164D01*
X105287187Y-94175780D01*
X104487504Y-93827944D01*
X104140000Y-93939355D01*
X103886000Y-93939355D01*
X103538496Y-93827944D01*
X102738813Y-94175780D01*
X102133114Y-94803164D01*
X101828950Y-95537497D01*
X91020440Y-95537497D01*
X91020440Y-94412000D01*
X90971157Y-94164235D01*
X90830809Y-93954191D01*
X90620765Y-93813843D01*
X90373000Y-93764560D01*
X87173000Y-93764560D01*
X86925235Y-93813843D01*
X86715191Y-93954191D01*
X86574843Y-94164235D01*
X86525560Y-94412000D01*
X82138777Y-94412000D01*
X81634193Y-93907417D01*
X81572265Y-93814735D01*
X81205100Y-93569403D01*
X81195213Y-93567436D01*
X80541688Y-92913912D01*
X80678160Y-92962965D01*
X81248391Y-92935778D01*
X81648942Y-92769864D01*
X81723076Y-92523745D01*
X80894937Y-91695605D01*
X80880795Y-91709748D01*
X80701189Y-91530142D01*
X80715332Y-91516000D01*
X81074542Y-91516000D01*
X81902682Y-92344139D01*
X82148801Y-92270005D01*
X82341902Y-91732777D01*
X82314715Y-91162546D01*
X82148801Y-90761995D01*
X81902682Y-90687861D01*
X81074542Y-91516000D01*
X80715332Y-91516000D01*
X80701190Y-91501858D01*
X80880795Y-91322253D01*
X80894937Y-91336395D01*
X81723076Y-90508255D01*
X81648942Y-90262136D01*
X81627268Y-90254346D01*
X81670965Y-90132777D01*
X81643778Y-89562546D01*
X81477864Y-89161995D01*
X81231745Y-89087861D01*
X80403605Y-89916000D01*
X80417748Y-89930143D01*
X80238143Y-90109748D01*
X80224000Y-90095605D01*
X79395861Y-90923745D01*
X79469995Y-91169864D01*
X79491669Y-91177654D01*
X79447972Y-91299223D01*
X79474054Y-91846278D01*
X78873773Y-91245997D01*
X78981809Y-91173809D01*
X79122157Y-90963765D01*
X79168693Y-90729813D01*
X79216255Y-90744139D01*
X80044395Y-89916000D01*
X79216255Y-89087861D01*
X79168693Y-89102187D01*
X79130118Y-88908255D01*
X79395861Y-88908255D01*
X80224000Y-89736395D01*
X81052139Y-88908255D01*
X80978005Y-88662136D01*
X80440777Y-88469035D01*
X79870546Y-88496222D01*
X79469995Y-88662136D01*
X79395861Y-88908255D01*
X79130118Y-88908255D01*
X79122157Y-88868235D01*
X78981809Y-88658191D01*
X78873773Y-88586003D01*
X79020776Y-88439000D01*
X107589165Y-88439000D01*
X107715284Y-89073043D01*
X108074441Y-89610559D01*
X108611957Y-89969716D01*
X109085955Y-90064000D01*
X111386045Y-90064000D01*
X111860043Y-89969716D01*
X112397559Y-89610559D01*
X112756716Y-89073043D01*
X112882835Y-88439000D01*
X112756716Y-87804957D01*
X112397559Y-87267441D01*
X111860043Y-86908284D01*
X111386045Y-86814000D01*
X109085955Y-86814000D01*
X108611957Y-86908284D01*
X108074441Y-87267441D01*
X107715284Y-87804957D01*
X107589165Y-88439000D01*
X79020776Y-88439000D01*
X82331054Y-85128723D01*
X85793481Y-85128723D01*
X85902800Y-85150468D01*
X86012119Y-85128723D01*
X86012124Y-85128723D01*
X86335900Y-85064320D01*
X86703065Y-84818988D01*
X86764993Y-84726306D01*
X88413398Y-83077902D01*
X88819910Y-83484414D01*
X89084475Y-83594000D01*
X88819910Y-83703586D01*
X88275586Y-84247910D01*
X87981000Y-84959105D01*
X87981000Y-85728895D01*
X88275586Y-86440090D01*
X88819910Y-86984414D01*
X89531105Y-87279000D01*
X90300895Y-87279000D01*
X91012090Y-86984414D01*
X91556414Y-86440090D01*
X91851000Y-85728895D01*
X91851000Y-84959105D01*
X91556414Y-84247910D01*
X91033254Y-83724750D01*
X107621000Y-83724750D01*
X107621000Y-84555309D01*
X107717673Y-84788698D01*
X107896301Y-84967327D01*
X108129690Y-85064000D01*
X109950250Y-85064000D01*
X110109000Y-84905250D01*
X110109000Y-83566000D01*
X110363000Y-83566000D01*
X110363000Y-84905250D01*
X110521750Y-85064000D01*
X112342310Y-85064000D01*
X112575699Y-84967327D01*
X112754327Y-84788698D01*
X112851000Y-84555309D01*
X112851000Y-83724750D01*
X112692250Y-83566000D01*
X110363000Y-83566000D01*
X110109000Y-83566000D01*
X107779750Y-83566000D01*
X107621000Y-83724750D01*
X91033254Y-83724750D01*
X91012090Y-83703586D01*
X90747525Y-83594000D01*
X91012090Y-83484414D01*
X91556414Y-82940090D01*
X91812148Y-82322691D01*
X107621000Y-82322691D01*
X107621000Y-83153250D01*
X107779750Y-83312000D01*
X110109000Y-83312000D01*
X110109000Y-81972750D01*
X110363000Y-81972750D01*
X110363000Y-83312000D01*
X112692250Y-83312000D01*
X112851000Y-83153250D01*
X112851000Y-82322691D01*
X112754327Y-82089302D01*
X112575699Y-81910673D01*
X112342310Y-81814000D01*
X110521750Y-81814000D01*
X110363000Y-81972750D01*
X110109000Y-81972750D01*
X109950250Y-81814000D01*
X108129690Y-81814000D01*
X107896301Y-81910673D01*
X107717673Y-82089302D01*
X107621000Y-82322691D01*
X91812148Y-82322691D01*
X91851000Y-82228895D01*
X91851000Y-81459105D01*
X91556414Y-80747910D01*
X91026000Y-80217496D01*
X91026000Y-77421776D01*
X91331776Y-77116000D01*
X91926037Y-77116000D01*
X92589450Y-76841205D01*
X93097205Y-76333450D01*
X93372000Y-75670037D01*
X93372000Y-74951963D01*
X93097205Y-74288550D01*
X92589450Y-73780795D01*
X91926037Y-73506000D01*
X91207963Y-73506000D01*
X90544550Y-73780795D01*
X90036795Y-74288550D01*
X89762000Y-74951963D01*
X89762000Y-75546224D01*
X89208415Y-76099809D01*
X89115736Y-76161735D01*
X89053809Y-76254415D01*
X89053808Y-76254416D01*
X88870404Y-76528900D01*
X88784255Y-76962000D01*
X88806001Y-77071324D01*
X88806000Y-80217496D01*
X88289496Y-80734000D01*
X88186842Y-80734000D01*
X88077523Y-80712255D01*
X87968203Y-80734000D01*
X87968199Y-80734000D01*
X87644423Y-80798403D01*
X87549727Y-80861677D01*
X87386114Y-80971000D01*
X87277258Y-81043735D01*
X87215331Y-81136415D01*
X85443024Y-82908723D01*
X81980596Y-82908723D01*
X81871276Y-82886978D01*
X81761956Y-82908723D01*
X81761953Y-82908723D01*
X81438177Y-82973126D01*
X81438176Y-82973127D01*
X81438175Y-82973127D01*
X81257995Y-83093520D01*
X81071012Y-83218458D01*
X81009085Y-83311138D01*
X77451664Y-86868560D01*
X76253063Y-86868560D01*
X76005298Y-86917843D01*
X75795254Y-87058191D01*
X75654906Y-87268235D01*
X75605623Y-87516000D01*
X75605623Y-89116000D01*
X75654906Y-89363765D01*
X75795254Y-89573809D01*
X76005298Y-89714157D01*
X76035536Y-89720172D01*
X76186161Y-89945597D01*
X76252799Y-90045328D01*
X76276560Y-90061205D01*
X76276560Y-90716000D01*
X76325843Y-90963765D01*
X76466191Y-91173809D01*
X76614000Y-91272573D01*
X76614000Y-91556681D01*
X76592255Y-91666000D01*
X76614000Y-91775319D01*
X76614000Y-91775324D01*
X76678404Y-92099100D01*
X76923736Y-92466265D01*
X77016415Y-92528191D01*
X79810807Y-95322584D01*
X79872735Y-95415265D01*
X80239900Y-95660597D01*
X80249788Y-95662564D01*
X83185000Y-98597777D01*
X83185000Y-100633132D01*
X83062191Y-100715191D01*
X82921843Y-100925235D01*
X82872560Y-101173000D01*
X82872560Y-101773000D01*
X82921843Y-102020765D01*
X82980132Y-102108000D01*
X82921843Y-102195235D01*
X82872560Y-102443000D01*
X82872560Y-103043000D01*
X82921843Y-103290765D01*
X82980132Y-103378000D01*
X82921843Y-103465235D01*
X82872560Y-103713000D01*
X82872560Y-104173000D01*
X80367440Y-104173000D01*
X80367440Y-100844000D01*
X80318157Y-100596235D01*
X80259130Y-100507896D01*
X80268327Y-100498699D01*
X80365000Y-100265310D01*
X80365000Y-100024750D01*
X80206250Y-99866000D01*
X79507000Y-99866000D01*
X79507000Y-99886000D01*
X79253000Y-99886000D01*
X79253000Y-99866000D01*
X78237000Y-99866000D01*
X78237000Y-99886000D01*
X77983000Y-99886000D01*
X77983000Y-99866000D01*
X76957000Y-99866000D01*
X76957000Y-99886000D01*
X76703000Y-99886000D01*
X76703000Y-99866000D01*
X76683000Y-99866000D01*
X76683000Y-99782969D01*
X76691746Y-99739000D01*
X76683000Y-99695031D01*
X76683000Y-99612000D01*
X76703000Y-99612000D01*
X76703000Y-98862750D01*
X76957000Y-98862750D01*
X76957000Y-99612000D01*
X77983000Y-99612000D01*
X77983000Y-98862750D01*
X78237000Y-98862750D01*
X78237000Y-99612000D01*
X79253000Y-99612000D01*
X79253000Y-98862750D01*
X79507000Y-98862750D01*
X79507000Y-99612000D01*
X80206250Y-99612000D01*
X80365000Y-99453250D01*
X80365000Y-99212690D01*
X80268327Y-98979301D01*
X80089698Y-98800673D01*
X79856309Y-98704000D01*
X79665750Y-98704000D01*
X79507000Y-98862750D01*
X79253000Y-98862750D01*
X79094250Y-98704000D01*
X78903691Y-98704000D01*
X78745000Y-98769732D01*
X78586309Y-98704000D01*
X78395750Y-98704000D01*
X78237000Y-98862750D01*
X77983000Y-98862750D01*
X77824250Y-98704000D01*
X77633691Y-98704000D01*
X77470000Y-98771803D01*
X77306309Y-98704000D01*
X77115750Y-98704000D01*
X76957000Y-98862750D01*
X76703000Y-98862750D01*
X76544250Y-98704000D01*
X76353691Y-98704000D01*
X76198704Y-98768198D01*
X76157765Y-98740843D01*
X76024396Y-98714315D01*
X75993100Y-98693403D01*
X75669324Y-98629000D01*
X74369319Y-98629000D01*
X74260000Y-98607255D01*
X74150680Y-98629000D01*
X74150676Y-98629000D01*
X73826900Y-98693403D01*
X73755901Y-98740843D01*
X73573455Y-98862750D01*
X73459735Y-98938735D01*
X73397808Y-99031415D01*
X72357000Y-100072224D01*
X72357000Y-80431319D01*
X72378745Y-80321999D01*
X72357000Y-80212680D01*
X72357000Y-80212676D01*
X72292597Y-79888900D01*
X72047265Y-79521735D01*
X71954586Y-79459809D01*
X69958904Y-77464128D01*
X69840938Y-76871073D01*
X69501673Y-76363327D01*
X68993927Y-76024062D01*
X68546182Y-75935000D01*
X68243818Y-75935000D01*
X67796073Y-76024062D01*
X67288327Y-76363327D01*
X66949062Y-76871073D01*
X66829928Y-77470000D01*
X66949062Y-78068927D01*
X67288327Y-78576673D01*
X67796073Y-78915938D01*
X68243818Y-79005000D01*
X68360224Y-79005000D01*
X70137000Y-80781777D01*
X70137001Y-102791222D01*
X68628224Y-104300000D01*
X67686696Y-104300000D01*
X67426522Y-104126157D01*
X67556358Y-104065183D01*
X67946645Y-103636924D01*
X68116476Y-103226890D01*
X67995155Y-102997000D01*
X66802000Y-102997000D01*
X66802000Y-103017000D01*
X66548000Y-103017000D01*
X66548000Y-102997000D01*
X65354845Y-102997000D01*
X65233524Y-103226890D01*
X65403355Y-103636924D01*
X65793642Y-104065183D01*
X65923478Y-104126157D01*
X65604375Y-104339375D01*
X65276161Y-104830582D01*
X65160908Y-105410000D01*
X65276161Y-105989418D01*
X65604375Y-106480625D01*
X65622619Y-106492816D01*
X65577235Y-106501843D01*
X65367191Y-106642191D01*
X65235018Y-106840000D01*
X64594777Y-106840000D01*
X63092193Y-105337417D01*
X63030265Y-105244735D01*
X62663100Y-104999403D01*
X62339324Y-104935000D01*
X62339319Y-104935000D01*
X62230000Y-104913255D01*
X62120681Y-104935000D01*
X59156698Y-104935000D01*
X58794909Y-104693260D01*
X58376333Y-104610000D01*
X57193667Y-104610000D01*
X56775091Y-104693260D01*
X56300423Y-105010423D01*
X55983260Y-105485091D01*
X55871887Y-106045000D01*
X45160000Y-106045000D01*
X45160000Y-101463003D01*
X48622573Y-101463003D01*
X48702946Y-101760367D01*
X49178747Y-102561647D01*
X49924967Y-103119852D01*
X50828000Y-103350000D01*
X52578000Y-103350000D01*
X52578000Y-101092000D01*
X52832000Y-101092000D01*
X52832000Y-103350000D01*
X54582000Y-103350000D01*
X55485033Y-103119852D01*
X56231253Y-102561647D01*
X56260074Y-102513110D01*
X65233524Y-102513110D01*
X65354845Y-102743000D01*
X66548000Y-102743000D01*
X66548000Y-101549181D01*
X66802000Y-101549181D01*
X66802000Y-102743000D01*
X67995155Y-102743000D01*
X68116476Y-102513110D01*
X67946645Y-102103076D01*
X67556358Y-101674817D01*
X67031892Y-101428514D01*
X66802000Y-101549181D01*
X66548000Y-101549181D01*
X66318108Y-101428514D01*
X65793642Y-101674817D01*
X65403355Y-102103076D01*
X65233524Y-102513110D01*
X56260074Y-102513110D01*
X56707054Y-101760367D01*
X56787427Y-101463003D01*
X56677625Y-101092000D01*
X52832000Y-101092000D01*
X52578000Y-101092000D01*
X48732375Y-101092000D01*
X48622573Y-101463003D01*
X45160000Y-101463003D01*
X45160000Y-100466997D01*
X48622573Y-100466997D01*
X48732375Y-100838000D01*
X52578000Y-100838000D01*
X52578000Y-98580000D01*
X52832000Y-98580000D01*
X52832000Y-100838000D01*
X56677625Y-100838000D01*
X56787427Y-100466997D01*
X56707054Y-100169633D01*
X56231253Y-99368353D01*
X55485033Y-98810148D01*
X54582000Y-98580000D01*
X52832000Y-98580000D01*
X52578000Y-98580000D01*
X50828000Y-98580000D01*
X49924967Y-98810148D01*
X49178747Y-99368353D01*
X48702946Y-100169633D01*
X48622573Y-100466997D01*
X45160000Y-100466997D01*
X45160000Y-87910000D01*
X48680560Y-87910000D01*
X48680560Y-89890000D01*
X48729843Y-90137765D01*
X48870191Y-90347809D01*
X49080235Y-90488157D01*
X49328000Y-90537440D01*
X53288000Y-90537440D01*
X53535765Y-90488157D01*
X53745809Y-90347809D01*
X53886157Y-90137765D01*
X53911571Y-90010000D01*
X58437681Y-90010000D01*
X58547000Y-90031745D01*
X58656319Y-90010000D01*
X58656324Y-90010000D01*
X58980100Y-89945597D01*
X59319824Y-89718600D01*
X60514745Y-90913522D01*
X60576672Y-91006202D01*
X60943837Y-91251534D01*
X61267613Y-91315937D01*
X61267617Y-91315937D01*
X61376937Y-91337682D01*
X61486256Y-91315937D01*
X61813427Y-91315937D01*
X61912191Y-91463746D01*
X62122235Y-91604094D01*
X62370000Y-91653377D01*
X63970000Y-91653377D01*
X64217765Y-91604094D01*
X64427809Y-91463746D01*
X64568157Y-91253702D01*
X64574171Y-91223465D01*
X64899328Y-91006202D01*
X64915205Y-90982440D01*
X65570000Y-90982440D01*
X65817765Y-90933157D01*
X66027809Y-90792809D01*
X66168157Y-90582765D01*
X66217440Y-90335000D01*
X66217440Y-88735000D01*
X66168157Y-88487235D01*
X66027809Y-88277191D01*
X65817765Y-88136843D01*
X65583813Y-88090307D01*
X65598139Y-88042745D01*
X64770000Y-87214605D01*
X63941861Y-88042745D01*
X63956187Y-88090307D01*
X63722235Y-88136843D01*
X63512191Y-88277191D01*
X63371843Y-88487235D01*
X63322560Y-88735000D01*
X63322560Y-88758497D01*
X62370000Y-88758497D01*
X62122235Y-88807780D01*
X61912191Y-88948128D01*
X61822755Y-89081978D01*
X61054000Y-88313224D01*
X61054000Y-87612321D01*
X61075745Y-87503001D01*
X61054000Y-87393681D01*
X61054000Y-86818223D01*
X63323035Y-86818223D01*
X63350222Y-87388454D01*
X63516136Y-87789005D01*
X63762255Y-87863139D01*
X64590395Y-87035000D01*
X63762255Y-86206861D01*
X63516136Y-86280995D01*
X63323035Y-86818223D01*
X61054000Y-86818223D01*
X61054000Y-86027255D01*
X63941861Y-86027255D01*
X64770000Y-86855395D01*
X64784143Y-86841253D01*
X64963748Y-87020858D01*
X64949605Y-87035000D01*
X65777745Y-87863139D01*
X66023864Y-87789005D01*
X66031654Y-87767331D01*
X66153223Y-87811028D01*
X66723454Y-87783841D01*
X67124005Y-87617927D01*
X67198139Y-87371808D01*
X66370000Y-86543668D01*
X66355858Y-86557811D01*
X66176253Y-86378206D01*
X66190395Y-86364063D01*
X66549605Y-86364063D01*
X67377745Y-87192202D01*
X67623864Y-87118068D01*
X67816965Y-86580840D01*
X67789778Y-86010609D01*
X67623864Y-85610058D01*
X67377745Y-85535924D01*
X66549605Y-86364063D01*
X66190395Y-86364063D01*
X65362255Y-85535924D01*
X65116136Y-85610058D01*
X65108346Y-85631732D01*
X64986777Y-85588035D01*
X64416546Y-85615222D01*
X64015995Y-85781136D01*
X63941861Y-86027255D01*
X61054000Y-86027255D01*
X61054000Y-85356318D01*
X65541861Y-85356318D01*
X66370000Y-86184458D01*
X67198139Y-85356318D01*
X67124005Y-85110199D01*
X66586777Y-84917098D01*
X66016546Y-84944285D01*
X65615995Y-85110199D01*
X65541861Y-85356318D01*
X61054000Y-85356318D01*
X61054000Y-81430776D01*
X62302585Y-80182192D01*
X62395265Y-80120265D01*
X62640597Y-79753100D01*
X62705000Y-79429324D01*
X62705000Y-79429320D01*
X62726745Y-79320000D01*
X62705000Y-79210680D01*
X62705000Y-78975669D01*
X62742765Y-78968157D01*
X62952809Y-78827809D01*
X63093157Y-78617765D01*
X63142440Y-78370000D01*
X63142440Y-77834740D01*
X63503964Y-77834740D01*
X63682760Y-78266417D01*
X64087424Y-78707966D01*
X64630258Y-78961046D01*
X64868000Y-78840997D01*
X64868000Y-77597000D01*
X65122000Y-77597000D01*
X65122000Y-78840997D01*
X65359742Y-78961046D01*
X65902576Y-78707966D01*
X66307240Y-78266417D01*
X66486036Y-77834740D01*
X66365378Y-77597000D01*
X65122000Y-77597000D01*
X64868000Y-77597000D01*
X63624622Y-77597000D01*
X63503964Y-77834740D01*
X63142440Y-77834740D01*
X63142440Y-77105260D01*
X63503964Y-77105260D01*
X63624622Y-77343000D01*
X64868000Y-77343000D01*
X64868000Y-76099003D01*
X65122000Y-76099003D01*
X65122000Y-77343000D01*
X66365378Y-77343000D01*
X66486036Y-77105260D01*
X66307240Y-76673583D01*
X65902576Y-76232034D01*
X65359742Y-75978954D01*
X65122000Y-76099003D01*
X64868000Y-76099003D01*
X64630258Y-75978954D01*
X64087424Y-76232034D01*
X63682760Y-76673583D01*
X63503964Y-77105260D01*
X63142440Y-77105260D01*
X63142440Y-76570000D01*
X63093157Y-76322235D01*
X62952809Y-76112191D01*
X62742765Y-75971843D01*
X62495000Y-75922560D01*
X60695000Y-75922560D01*
X60447235Y-75971843D01*
X60237191Y-76112191D01*
X60096843Y-76322235D01*
X60047560Y-76570000D01*
X60047560Y-78370000D01*
X60096843Y-78617765D01*
X60237191Y-78827809D01*
X60405172Y-78940051D01*
X59236417Y-80108807D01*
X59143735Y-80170735D01*
X58898403Y-80537901D01*
X58834000Y-80861677D01*
X58834000Y-80861681D01*
X58812255Y-80971000D01*
X58834000Y-81080320D01*
X58834001Y-87043222D01*
X58087223Y-87790000D01*
X53911571Y-87790000D01*
X53886157Y-87662235D01*
X53745809Y-87452191D01*
X53535765Y-87311843D01*
X53288000Y-87262560D01*
X49328000Y-87262560D01*
X49080235Y-87311843D01*
X48870191Y-87452191D01*
X48729843Y-87662235D01*
X48680560Y-87910000D01*
X45160000Y-87910000D01*
X45160000Y-84278865D01*
X48737782Y-84278865D01*
X48768095Y-84404528D01*
X49079149Y-84959246D01*
X49578807Y-85352703D01*
X50191000Y-85525000D01*
X51181000Y-85525000D01*
X51181000Y-84027000D01*
X51435000Y-84027000D01*
X51435000Y-85525000D01*
X52425000Y-85525000D01*
X53037193Y-85352703D01*
X53536851Y-84959246D01*
X53847905Y-84404528D01*
X53878218Y-84278865D01*
X53758740Y-84027000D01*
X51435000Y-84027000D01*
X51181000Y-84027000D01*
X48857260Y-84027000D01*
X48737782Y-84278865D01*
X45160000Y-84278865D01*
X45160000Y-83521135D01*
X48737782Y-83521135D01*
X48857260Y-83773000D01*
X51181000Y-83773000D01*
X51181000Y-82275000D01*
X51435000Y-82275000D01*
X51435000Y-83773000D01*
X53758740Y-83773000D01*
X53878218Y-83521135D01*
X53847905Y-83395472D01*
X53536851Y-82840754D01*
X53037193Y-82447297D01*
X52425000Y-82275000D01*
X51435000Y-82275000D01*
X51181000Y-82275000D01*
X50191000Y-82275000D01*
X49578807Y-82447297D01*
X49079149Y-82840754D01*
X48768095Y-83395472D01*
X48737782Y-83521135D01*
X45160000Y-83521135D01*
X45160000Y-77597000D01*
X54610000Y-77597000D01*
X54658601Y-77587333D01*
X54699803Y-77559803D01*
X54727333Y-77518601D01*
X54737000Y-77470000D01*
X54737000Y-73770000D01*
X61729928Y-73770000D01*
X61849062Y-74368927D01*
X62188327Y-74876673D01*
X62696073Y-75215938D01*
X63143818Y-75305000D01*
X63446182Y-75305000D01*
X63893927Y-75215938D01*
X64401673Y-74876673D01*
X64740938Y-74368927D01*
X64860072Y-73770000D01*
X64740938Y-73171073D01*
X64401673Y-72663327D01*
X63893927Y-72324062D01*
X63446182Y-72235000D01*
X63143818Y-72235000D01*
X62696073Y-72324062D01*
X62188327Y-72663327D01*
X61849062Y-73171073D01*
X61729928Y-73770000D01*
X54737000Y-73770000D01*
X54737000Y-68020000D01*
X79381222Y-68020000D01*
X78097223Y-69304000D01*
X78097223Y-69304000D01*
G37*
X78097223Y-69304000D02*
X77946561Y-69304000D01*
X77419138Y-69522466D01*
X77015466Y-69926138D01*
X76797000Y-70453561D01*
X76797000Y-70604222D01*
X74741224Y-72660000D01*
X67796694Y-72660000D01*
X67293927Y-72324062D01*
X66846182Y-72235000D01*
X66543818Y-72235000D01*
X66096073Y-72324062D01*
X65588327Y-72663327D01*
X65249062Y-73171073D01*
X65129928Y-73770000D01*
X65249062Y-74368927D01*
X65588327Y-74876673D01*
X66096073Y-75215938D01*
X66543818Y-75305000D01*
X66846182Y-75305000D01*
X67293927Y-75215938D01*
X67796694Y-74880000D01*
X75091681Y-74880000D01*
X75201000Y-74901745D01*
X75310319Y-74880000D01*
X75310324Y-74880000D01*
X75634100Y-74815597D01*
X76001265Y-74570265D01*
X76063193Y-74477583D01*
X78366778Y-72174000D01*
X78517439Y-72174000D01*
X79044862Y-71955534D01*
X79448534Y-71551862D01*
X79640655Y-71088039D01*
X84460096Y-71088039D01*
X84620959Y-71476423D01*
X84996866Y-71891389D01*
X85502959Y-72130914D01*
X85725000Y-72009629D01*
X85725000Y-70866000D01*
X85979000Y-70866000D01*
X85979000Y-72009629D01*
X86201041Y-72130914D01*
X86707134Y-71891389D01*
X87083041Y-71476423D01*
X87243904Y-71088039D01*
X87121915Y-70866000D01*
X85979000Y-70866000D01*
X85725000Y-70866000D01*
X84582085Y-70866000D01*
X84460096Y-71088039D01*
X79640655Y-71088039D01*
X79667000Y-71024439D01*
X79667000Y-70873777D01*
X81104778Y-69436000D01*
X85315092Y-69436000D01*
X84996866Y-69586611D01*
X84620959Y-70001577D01*
X84460096Y-70389961D01*
X84582085Y-70612000D01*
X85725000Y-70612000D01*
X85725000Y-70592000D01*
X85979000Y-70592000D01*
X85979000Y-70612000D01*
X87121915Y-70612000D01*
X87243904Y-70389961D01*
X87083041Y-70001577D01*
X86707134Y-69586611D01*
X86388908Y-69436000D01*
X94122224Y-69436000D01*
X94762000Y-70075776D01*
X94762000Y-70670037D01*
X95036795Y-71333450D01*
X95544550Y-71841205D01*
X96207963Y-72116000D01*
X96926037Y-72116000D01*
X97589450Y-71841205D01*
X98097205Y-71333450D01*
X98372000Y-70670037D01*
X98372000Y-69951963D01*
X98158281Y-69436000D01*
X99108224Y-69436000D01*
X100457000Y-70784777D01*
X100457001Y-73868344D01*
X100036795Y-74288550D01*
X99762000Y-74951963D01*
X99762000Y-75670037D01*
X100036795Y-76333450D01*
X100544550Y-76841205D01*
X101207963Y-77116000D01*
X101926037Y-77116000D01*
X102589450Y-76841205D01*
X103097205Y-76333450D01*
X103372000Y-75670037D01*
X103372000Y-74951963D01*
X103097205Y-74288550D01*
X102677000Y-73868345D01*
X102677000Y-70434319D01*
X102698745Y-70325000D01*
X102677000Y-70215680D01*
X102677000Y-70215676D01*
X102612597Y-69891900D01*
X102367265Y-69524735D01*
X102274586Y-69462809D01*
X100831776Y-68020000D01*
X105283000Y-68020000D01*
X105283000Y-77470000D01*
X105292667Y-77518601D01*
X105320197Y-77559803D01*
X105361399Y-77587333D01*
X105410000Y-77597000D01*
X116108612Y-77597000D01*
X116004475Y-127687000D01*
X54991000Y-127687000D01*
X54991000Y-125825561D01*
X111722000Y-125825561D01*
X111722000Y-126396439D01*
X111940466Y-126923862D01*
X112344138Y-127327534D01*
X112871561Y-127546000D01*
X113442439Y-127546000D01*
X113969862Y-127327534D01*
X114373534Y-126923862D01*
X114592000Y-126396439D01*
X114592000Y-125825561D01*
X114373534Y-125298138D01*
X113969862Y-124894466D01*
X113442439Y-124676000D01*
X112871561Y-124676000D01*
X112344138Y-124894466D01*
X111940466Y-125298138D01*
X111722000Y-125825561D01*
X54991000Y-125825561D01*
X54991000Y-117983000D01*
X54981333Y-117934399D01*
X54953803Y-117893197D01*
X54912601Y-117865667D01*
X54864000Y-117856000D01*
X45160000Y-117856000D01*
X45160000Y-111623003D01*
X48622573Y-111623003D01*
X48702946Y-111920367D01*
X49178747Y-112721647D01*
X49924967Y-113279852D01*
X50828000Y-113510000D01*
X52578000Y-113510000D01*
X52578000Y-111252000D01*
X52832000Y-111252000D01*
X52832000Y-113510000D01*
X54582000Y-113510000D01*
X55485033Y-113279852D01*
X56231253Y-112721647D01*
X56707054Y-111920367D01*
X56787427Y-111623003D01*
X56677625Y-111252000D01*
X52832000Y-111252000D01*
X52578000Y-111252000D01*
X48732375Y-111252000D01*
X48622573Y-111623003D01*
X45160000Y-111623003D01*
X45160000Y-110626997D01*
X48622573Y-110626997D01*
X48732375Y-110998000D01*
X52578000Y-110998000D01*
X52578000Y-108740000D01*
X52832000Y-108740000D01*
X52832000Y-110998000D01*
X56677625Y-110998000D01*
X56787427Y-110626997D01*
X56707054Y-110329633D01*
X56231253Y-109528353D01*
X55485033Y-108970148D01*
X55343352Y-108934039D01*
X55943096Y-108934039D01*
X55960633Y-109016819D01*
X56230500Y-109509896D01*
X56668517Y-109862166D01*
X57208000Y-110020000D01*
X57658000Y-110020000D01*
X57658000Y-108712000D01*
X57912000Y-108712000D01*
X57912000Y-110020000D01*
X58362000Y-110020000D01*
X58901483Y-109862166D01*
X59339500Y-109509896D01*
X59609367Y-109016819D01*
X59626904Y-108934039D01*
X59504915Y-108712000D01*
X57912000Y-108712000D01*
X57658000Y-108712000D01*
X56065085Y-108712000D01*
X55943096Y-108934039D01*
X55343352Y-108934039D01*
X54582000Y-108740000D01*
X52832000Y-108740000D01*
X52578000Y-108740000D01*
X50828000Y-108740000D01*
X49924967Y-108970148D01*
X49178747Y-109528353D01*
X48702946Y-110329633D01*
X48622573Y-110626997D01*
X45160000Y-110626997D01*
X45160000Y-106045000D01*
X55871887Y-106045000D01*
X55983260Y-106604909D01*
X56300423Y-107079577D01*
X56656499Y-107317499D01*
X56230500Y-107660104D01*
X55960633Y-108153181D01*
X55943096Y-108235961D01*
X56065085Y-108458000D01*
X57658000Y-108458000D01*
X57658000Y-108438000D01*
X57912000Y-108438000D01*
X57912000Y-108458000D01*
X59504915Y-108458000D01*
X59626904Y-108235961D01*
X59609367Y-108153181D01*
X59339500Y-107660104D01*
X58913501Y-107317499D01*
X59156698Y-107155000D01*
X61770224Y-107155000D01*
X63272808Y-108657585D01*
X63334735Y-108750265D01*
X63701900Y-108995597D01*
X64025676Y-109060000D01*
X64025680Y-109060000D01*
X64135000Y-109081745D01*
X64244319Y-109060000D01*
X65235018Y-109060000D01*
X65367191Y-109257809D01*
X65565000Y-109389982D01*
X65565000Y-109640680D01*
X65543255Y-109750000D01*
X65565000Y-109859319D01*
X65565000Y-109859323D01*
X65629403Y-110183099D01*
X65874735Y-110550265D01*
X65967417Y-110612194D01*
X74426808Y-119071585D01*
X74488735Y-119164265D01*
X74855900Y-119409597D01*
X75179676Y-119474000D01*
X75179680Y-119474000D01*
X75289000Y-119495745D01*
X75398320Y-119474000D01*
X80485302Y-119474000D01*
X80847091Y-119715740D01*
X81265667Y-119799000D01*
X81548333Y-119799000D01*
X81966909Y-119715740D01*
X82441577Y-119398577D01*
X82459505Y-119371745D01*
X93278861Y-119371745D01*
X93352995Y-119617864D01*
X93890223Y-119810965D01*
X94460454Y-119783778D01*
X94861005Y-119617864D01*
X94935139Y-119371745D01*
X94107000Y-118543605D01*
X93278861Y-119371745D01*
X82459505Y-119371745D01*
X82758740Y-118923909D01*
X82870113Y-118364000D01*
X82826994Y-118147223D01*
X92660035Y-118147223D01*
X92687222Y-118717454D01*
X92853136Y-119118005D01*
X93099255Y-119192139D01*
X93927395Y-118364000D01*
X94286605Y-118364000D01*
X95114745Y-119192139D01*
X95360864Y-119118005D01*
X95553965Y-118580777D01*
X95526778Y-118010546D01*
X95360864Y-117609995D01*
X95114745Y-117535861D01*
X94286605Y-118364000D01*
X93927395Y-118364000D01*
X93099255Y-117535861D01*
X92853136Y-117609995D01*
X92660035Y-118147223D01*
X82826994Y-118147223D01*
X82758740Y-117804091D01*
X82459506Y-117356255D01*
X93278861Y-117356255D01*
X94107000Y-118184395D01*
X94935139Y-117356255D01*
X94861005Y-117110136D01*
X94323777Y-116917035D01*
X93753546Y-116944222D01*
X93352995Y-117110136D01*
X93278861Y-117356255D01*
X82459506Y-117356255D01*
X82441577Y-117329423D01*
X81966909Y-117012260D01*
X81548333Y-116929000D01*
X81265667Y-116929000D01*
X80847091Y-117012260D01*
X80485302Y-117254000D01*
X75748777Y-117254000D01*
X73016818Y-114522041D01*
X97922086Y-114522041D01*
X98161611Y-115028134D01*
X98576577Y-115404041D01*
X98964961Y-115564904D01*
X99187000Y-115442915D01*
X99187000Y-114300000D01*
X99441000Y-114300000D01*
X99441000Y-115442915D01*
X99663039Y-115564904D01*
X100051423Y-115404041D01*
X100466389Y-115028134D01*
X100705914Y-114522041D01*
X100584629Y-114300000D01*
X99441000Y-114300000D01*
X99187000Y-114300000D01*
X98043371Y-114300000D01*
X97922086Y-114522041D01*
X73016818Y-114522041D01*
X72318736Y-113823959D01*
X97922086Y-113823959D01*
X98043371Y-114046000D01*
X99187000Y-114046000D01*
X99187000Y-112903085D01*
X99441000Y-112903085D01*
X99441000Y-114046000D01*
X100584629Y-114046000D01*
X100705914Y-113823959D01*
X100466389Y-113317866D01*
X100051423Y-112941959D01*
X99663039Y-112781096D01*
X99441000Y-112903085D01*
X99187000Y-112903085D01*
X98964961Y-112781096D01*
X98576577Y-112941959D01*
X98161611Y-113317866D01*
X97922086Y-113823959D01*
X72318736Y-113823959D01*
X67844800Y-109350024D01*
X67982809Y-109257809D01*
X68114982Y-109060000D01*
X68365681Y-109060000D01*
X68475000Y-109081745D01*
X68584319Y-109060000D01*
X68584324Y-109060000D01*
X68908100Y-108995597D01*
X69275265Y-108750265D01*
X69337193Y-108657583D01*
X73478586Y-104516191D01*
X73571265Y-104454265D01*
X73747294Y-104190819D01*
X73816596Y-104087102D01*
X73816596Y-104087101D01*
X73816597Y-104087100D01*
X73881000Y-103763324D01*
X73881000Y-103763321D01*
X73902745Y-103654001D01*
X73881000Y-103544681D01*
X73881000Y-101687776D01*
X74572560Y-100996217D01*
X74572560Y-104718862D01*
X74514403Y-104805900D01*
X74428254Y-105239000D01*
X74514403Y-105672100D01*
X74592347Y-105788752D01*
X74611843Y-105886765D01*
X74752191Y-106096809D01*
X74962235Y-106237157D01*
X75095604Y-106263685D01*
X75126900Y-106284597D01*
X75450676Y-106349000D01*
X76543473Y-106349000D01*
X76764676Y-106393000D01*
X76764680Y-106393000D01*
X76873999Y-106414745D01*
X76983319Y-106393000D01*
X78964224Y-106393000D01*
X80170001Y-107598778D01*
X80170000Y-109824604D01*
X80063466Y-109931138D01*
X79845000Y-110458561D01*
X79845000Y-111029439D01*
X80063466Y-111556862D01*
X80467138Y-111960534D01*
X80994561Y-112179000D01*
X81565439Y-112179000D01*
X82092862Y-111960534D01*
X82496534Y-111556862D01*
X82715000Y-111029439D01*
X82715000Y-110458561D01*
X82496534Y-109931138D01*
X82390000Y-109824604D01*
X82390000Y-107248319D01*
X82411745Y-107139000D01*
X82390000Y-107029680D01*
X82390000Y-107029676D01*
X82325597Y-106705900D01*
X82158349Y-106455596D01*
X82142192Y-106431415D01*
X82116524Y-106393000D01*
X84404324Y-106393000D01*
X84728100Y-106328597D01*
X84875002Y-106230440D01*
X85070000Y-106230440D01*
X85317765Y-106181157D01*
X85527809Y-106040809D01*
X85668157Y-105830765D01*
X85717440Y-105583000D01*
X85717440Y-105280216D01*
X91888808Y-111451585D01*
X91950735Y-111544265D01*
X92043414Y-111606191D01*
X92317898Y-111789596D01*
X92317899Y-111789596D01*
X92317900Y-111789597D01*
X92641676Y-111854000D01*
X92641679Y-111854000D01*
X92750999Y-111875745D01*
X92860319Y-111854000D01*
X93058302Y-111854000D01*
X93420091Y-112095740D01*
X93838667Y-112179000D01*
X94121333Y-112179000D01*
X94539909Y-112095740D01*
X95014577Y-111778577D01*
X95331740Y-111303909D01*
X95443113Y-110744000D01*
X95331740Y-110184091D01*
X95014577Y-109709423D01*
X94539909Y-109392260D01*
X94121333Y-109309000D01*
X93838667Y-109309000D01*
X93420091Y-109392260D01*
X93149704Y-109572927D01*
X89942326Y-106365550D01*
X90128100Y-106328597D01*
X90275002Y-106230440D01*
X90470000Y-106230440D01*
X90717765Y-106181157D01*
X90927809Y-106040809D01*
X91068157Y-105830765D01*
X91117440Y-105583000D01*
X91117440Y-104983000D01*
X91068157Y-104735235D01*
X91009868Y-104648000D01*
X91068157Y-104560765D01*
X91117440Y-104313000D01*
X91117440Y-103713000D01*
X91068157Y-103465235D01*
X91009868Y-103378000D01*
X91068157Y-103290765D01*
X91117440Y-103043000D01*
X91117440Y-102583000D01*
X98394604Y-102583000D01*
X98501138Y-102689534D01*
X99028561Y-102908000D01*
X99179224Y-102908000D01*
X110389808Y-114118585D01*
X110451735Y-114211265D01*
X110544415Y-114273192D01*
X110818899Y-114456597D01*
X110898855Y-114472501D01*
X111142676Y-114521000D01*
X111142679Y-114521000D01*
X111252000Y-114542745D01*
X111361321Y-114521000D01*
X112235302Y-114521000D01*
X112597091Y-114762740D01*
X113015667Y-114846000D01*
X113298333Y-114846000D01*
X113716909Y-114762740D01*
X114191577Y-114445577D01*
X114508740Y-113970909D01*
X114620113Y-113411000D01*
X114508740Y-112851091D01*
X114191577Y-112376423D01*
X113716909Y-112059260D01*
X113298333Y-111976000D01*
X113015667Y-111976000D01*
X112597091Y-112059260D01*
X112235302Y-112301000D01*
X111711777Y-112301000D01*
X108293570Y-108882793D01*
X108479963Y-108960000D01*
X109198037Y-108960000D01*
X109861450Y-108685205D01*
X110369205Y-108177450D01*
X110644000Y-107514037D01*
X110644000Y-106795963D01*
X110369205Y-106132550D01*
X109861450Y-105624795D01*
X109198037Y-105350000D01*
X108479963Y-105350000D01*
X107816550Y-105624795D01*
X107308795Y-106132550D01*
X107034000Y-106795963D01*
X107034000Y-107514037D01*
X107111207Y-107700430D01*
X101206740Y-101795963D01*
X112034000Y-101795963D01*
X112034000Y-102514037D01*
X112308795Y-103177450D01*
X112816550Y-103685205D01*
X113479963Y-103960000D01*
X114198037Y-103960000D01*
X114861450Y-103685205D01*
X115369205Y-103177450D01*
X115644000Y-102514037D01*
X115644000Y-101795963D01*
X115369205Y-101132550D01*
X114861450Y-100624795D01*
X114198037Y-100350000D01*
X113479963Y-100350000D01*
X112816550Y-100624795D01*
X112308795Y-101132550D01*
X112034000Y-101795963D01*
X101206740Y-101795963D01*
X100749000Y-101338224D01*
X100749000Y-101187561D01*
X100530534Y-100660138D01*
X100126862Y-100256466D01*
X99599439Y-100038000D01*
X99028561Y-100038000D01*
X98501138Y-100256466D01*
X98394604Y-100363000D01*
X89804324Y-100363000D01*
X89695000Y-100341254D01*
X89585676Y-100363000D01*
X89261900Y-100427403D01*
X89114998Y-100525560D01*
X88920000Y-100525560D01*
X88672235Y-100574843D01*
X88462191Y-100715191D01*
X88321843Y-100925235D01*
X88272560Y-101173000D01*
X88272560Y-101773000D01*
X88321843Y-102020765D01*
X88380132Y-102108000D01*
X88321843Y-102195235D01*
X88272560Y-102443000D01*
X88272560Y-103043000D01*
X88321843Y-103290765D01*
X88380132Y-103378000D01*
X88321843Y-103465235D01*
X88272560Y-103713000D01*
X88272560Y-104313000D01*
X88321843Y-104560765D01*
X88380132Y-104648000D01*
X88321843Y-104735235D01*
X88320212Y-104743436D01*
X86882193Y-103305417D01*
X86820265Y-103212735D01*
X86453100Y-102967403D01*
X86129324Y-102903000D01*
X86129319Y-102903000D01*
X86020000Y-102881255D01*
X85910681Y-102903000D01*
X85717440Y-102903000D01*
X85717440Y-102443000D01*
X85668157Y-102195235D01*
X85609868Y-102108000D01*
X85668157Y-102020765D01*
X85717440Y-101773000D01*
X85717440Y-101173000D01*
X85668157Y-100925235D01*
X85527809Y-100715191D01*
X85405000Y-100633132D01*
X85405000Y-98247319D01*
X85426745Y-98137999D01*
X85405000Y-98028677D01*
X85405000Y-98028676D01*
X85340597Y-97704900D01*
X85095265Y-97337735D01*
X85002586Y-97275809D01*
X82138777Y-94412000D01*
X86525560Y-94412000D01*
X86525560Y-97612000D01*
X86574843Y-97859765D01*
X86715191Y-98069809D01*
X86925235Y-98210157D01*
X87173000Y-98259440D01*
X90373000Y-98259440D01*
X90620765Y-98210157D01*
X90830809Y-98069809D01*
X90971157Y-97859765D01*
X91020440Y-97612000D01*
X91020440Y-96486503D01*
X101828950Y-96486503D01*
X102133114Y-97220836D01*
X102738813Y-97848220D01*
X103538496Y-98196056D01*
X103886000Y-98084645D01*
X103886000Y-96139000D01*
X104140000Y-96139000D01*
X104140000Y-98084645D01*
X104487504Y-98196056D01*
X105287187Y-97848220D01*
X105892886Y-97220836D01*
X106068870Y-96795963D01*
X107034000Y-96795963D01*
X107034000Y-97514037D01*
X107308795Y-98177450D01*
X107816550Y-98685205D01*
X108479963Y-98960000D01*
X109198037Y-98960000D01*
X109861450Y-98685205D01*
X110369205Y-98177450D01*
X110644000Y-97514037D01*
X110644000Y-96795963D01*
X110369205Y-96132550D01*
X109861450Y-95624795D01*
X109198037Y-95350000D01*
X108479963Y-95350000D01*
X107816550Y-95624795D01*
X107308795Y-96132550D01*
X107034000Y-96795963D01*
X106068870Y-96795963D01*
X106197050Y-96486503D01*
X106085362Y-96139000D01*
X104140000Y-96139000D01*
X103886000Y-96139000D01*
X101940638Y-96139000D01*
X101828950Y-96486503D01*
X91020440Y-96486503D01*
X91020440Y-95537497D01*
X101828950Y-95537497D01*
X101940638Y-95885000D01*
X103886000Y-95885000D01*
X103886000Y-93939355D01*
X104140000Y-93939355D01*
X104140000Y-95885000D01*
X106085362Y-95885000D01*
X106197050Y-95537497D01*
X105892886Y-94803164D01*
X105287187Y-94175780D01*
X104487504Y-93827944D01*
X104140000Y-93939355D01*
X103886000Y-93939355D01*
X103538496Y-93827944D01*
X102738813Y-94175780D01*
X102133114Y-94803164D01*
X101828950Y-95537497D01*
X91020440Y-95537497D01*
X91020440Y-94412000D01*
X90971157Y-94164235D01*
X90830809Y-93954191D01*
X90620765Y-93813843D01*
X90373000Y-93764560D01*
X87173000Y-93764560D01*
X86925235Y-93813843D01*
X86715191Y-93954191D01*
X86574843Y-94164235D01*
X86525560Y-94412000D01*
X82138777Y-94412000D01*
X81634193Y-93907417D01*
X81572265Y-93814735D01*
X81205100Y-93569403D01*
X81195213Y-93567436D01*
X80541688Y-92913912D01*
X80678160Y-92962965D01*
X81248391Y-92935778D01*
X81648942Y-92769864D01*
X81723076Y-92523745D01*
X80894937Y-91695605D01*
X80880795Y-91709748D01*
X80701189Y-91530142D01*
X80715332Y-91516000D01*
X81074542Y-91516000D01*
X81902682Y-92344139D01*
X82148801Y-92270005D01*
X82341902Y-91732777D01*
X82314715Y-91162546D01*
X82148801Y-90761995D01*
X81902682Y-90687861D01*
X81074542Y-91516000D01*
X80715332Y-91516000D01*
X80701190Y-91501858D01*
X80880795Y-91322253D01*
X80894937Y-91336395D01*
X81723076Y-90508255D01*
X81648942Y-90262136D01*
X81627268Y-90254346D01*
X81670965Y-90132777D01*
X81643778Y-89562546D01*
X81477864Y-89161995D01*
X81231745Y-89087861D01*
X80403605Y-89916000D01*
X80417748Y-89930143D01*
X80238143Y-90109748D01*
X80224000Y-90095605D01*
X79395861Y-90923745D01*
X79469995Y-91169864D01*
X79491669Y-91177654D01*
X79447972Y-91299223D01*
X79474054Y-91846278D01*
X78873773Y-91245997D01*
X78981809Y-91173809D01*
X79122157Y-90963765D01*
X79168693Y-90729813D01*
X79216255Y-90744139D01*
X80044395Y-89916000D01*
X79216255Y-89087861D01*
X79168693Y-89102187D01*
X79130118Y-88908255D01*
X79395861Y-88908255D01*
X80224000Y-89736395D01*
X81052139Y-88908255D01*
X80978005Y-88662136D01*
X80440777Y-88469035D01*
X79870546Y-88496222D01*
X79469995Y-88662136D01*
X79395861Y-88908255D01*
X79130118Y-88908255D01*
X79122157Y-88868235D01*
X78981809Y-88658191D01*
X78873773Y-88586003D01*
X79020776Y-88439000D01*
X107589165Y-88439000D01*
X107715284Y-89073043D01*
X108074441Y-89610559D01*
X108611957Y-89969716D01*
X109085955Y-90064000D01*
X111386045Y-90064000D01*
X111860043Y-89969716D01*
X112397559Y-89610559D01*
X112756716Y-89073043D01*
X112882835Y-88439000D01*
X112756716Y-87804957D01*
X112397559Y-87267441D01*
X111860043Y-86908284D01*
X111386045Y-86814000D01*
X109085955Y-86814000D01*
X108611957Y-86908284D01*
X108074441Y-87267441D01*
X107715284Y-87804957D01*
X107589165Y-88439000D01*
X79020776Y-88439000D01*
X82331054Y-85128723D01*
X85793481Y-85128723D01*
X85902800Y-85150468D01*
X86012119Y-85128723D01*
X86012124Y-85128723D01*
X86335900Y-85064320D01*
X86703065Y-84818988D01*
X86764993Y-84726306D01*
X88413398Y-83077902D01*
X88819910Y-83484414D01*
X89084475Y-83594000D01*
X88819910Y-83703586D01*
X88275586Y-84247910D01*
X87981000Y-84959105D01*
X87981000Y-85728895D01*
X88275586Y-86440090D01*
X88819910Y-86984414D01*
X89531105Y-87279000D01*
X90300895Y-87279000D01*
X91012090Y-86984414D01*
X91556414Y-86440090D01*
X91851000Y-85728895D01*
X91851000Y-84959105D01*
X91556414Y-84247910D01*
X91033254Y-83724750D01*
X107621000Y-83724750D01*
X107621000Y-84555309D01*
X107717673Y-84788698D01*
X107896301Y-84967327D01*
X108129690Y-85064000D01*
X109950250Y-85064000D01*
X110109000Y-84905250D01*
X110109000Y-83566000D01*
X110363000Y-83566000D01*
X110363000Y-84905250D01*
X110521750Y-85064000D01*
X112342310Y-85064000D01*
X112575699Y-84967327D01*
X112754327Y-84788698D01*
X112851000Y-84555309D01*
X112851000Y-83724750D01*
X112692250Y-83566000D01*
X110363000Y-83566000D01*
X110109000Y-83566000D01*
X107779750Y-83566000D01*
X107621000Y-83724750D01*
X91033254Y-83724750D01*
X91012090Y-83703586D01*
X90747525Y-83594000D01*
X91012090Y-83484414D01*
X91556414Y-82940090D01*
X91812148Y-82322691D01*
X107621000Y-82322691D01*
X107621000Y-83153250D01*
X107779750Y-83312000D01*
X110109000Y-83312000D01*
X110109000Y-81972750D01*
X110363000Y-81972750D01*
X110363000Y-83312000D01*
X112692250Y-83312000D01*
X112851000Y-83153250D01*
X112851000Y-82322691D01*
X112754327Y-82089302D01*
X112575699Y-81910673D01*
X112342310Y-81814000D01*
X110521750Y-81814000D01*
X110363000Y-81972750D01*
X110109000Y-81972750D01*
X109950250Y-81814000D01*
X108129690Y-81814000D01*
X107896301Y-81910673D01*
X107717673Y-82089302D01*
X107621000Y-82322691D01*
X91812148Y-82322691D01*
X91851000Y-82228895D01*
X91851000Y-81459105D01*
X91556414Y-80747910D01*
X91026000Y-80217496D01*
X91026000Y-77421776D01*
X91331776Y-77116000D01*
X91926037Y-77116000D01*
X92589450Y-76841205D01*
X93097205Y-76333450D01*
X93372000Y-75670037D01*
X93372000Y-74951963D01*
X93097205Y-74288550D01*
X92589450Y-73780795D01*
X91926037Y-73506000D01*
X91207963Y-73506000D01*
X90544550Y-73780795D01*
X90036795Y-74288550D01*
X89762000Y-74951963D01*
X89762000Y-75546224D01*
X89208415Y-76099809D01*
X89115736Y-76161735D01*
X89053809Y-76254415D01*
X89053808Y-76254416D01*
X88870404Y-76528900D01*
X88784255Y-76962000D01*
X88806001Y-77071324D01*
X88806000Y-80217496D01*
X88289496Y-80734000D01*
X88186842Y-80734000D01*
X88077523Y-80712255D01*
X87968203Y-80734000D01*
X87968199Y-80734000D01*
X87644423Y-80798403D01*
X87549727Y-80861677D01*
X87386114Y-80971000D01*
X87277258Y-81043735D01*
X87215331Y-81136415D01*
X85443024Y-82908723D01*
X81980596Y-82908723D01*
X81871276Y-82886978D01*
X81761956Y-82908723D01*
X81761953Y-82908723D01*
X81438177Y-82973126D01*
X81438176Y-82973127D01*
X81438175Y-82973127D01*
X81257995Y-83093520D01*
X81071012Y-83218458D01*
X81009085Y-83311138D01*
X77451664Y-86868560D01*
X76253063Y-86868560D01*
X76005298Y-86917843D01*
X75795254Y-87058191D01*
X75654906Y-87268235D01*
X75605623Y-87516000D01*
X75605623Y-89116000D01*
X75654906Y-89363765D01*
X75795254Y-89573809D01*
X76005298Y-89714157D01*
X76035536Y-89720172D01*
X76186161Y-89945597D01*
X76252799Y-90045328D01*
X76276560Y-90061205D01*
X76276560Y-90716000D01*
X76325843Y-90963765D01*
X76466191Y-91173809D01*
X76614000Y-91272573D01*
X76614000Y-91556681D01*
X76592255Y-91666000D01*
X76614000Y-91775319D01*
X76614000Y-91775324D01*
X76678404Y-92099100D01*
X76923736Y-92466265D01*
X77016415Y-92528191D01*
X79810807Y-95322584D01*
X79872735Y-95415265D01*
X80239900Y-95660597D01*
X80249788Y-95662564D01*
X83185000Y-98597777D01*
X83185000Y-100633132D01*
X83062191Y-100715191D01*
X82921843Y-100925235D01*
X82872560Y-101173000D01*
X82872560Y-101773000D01*
X82921843Y-102020765D01*
X82980132Y-102108000D01*
X82921843Y-102195235D01*
X82872560Y-102443000D01*
X82872560Y-103043000D01*
X82921843Y-103290765D01*
X82980132Y-103378000D01*
X82921843Y-103465235D01*
X82872560Y-103713000D01*
X82872560Y-104173000D01*
X80367440Y-104173000D01*
X80367440Y-100844000D01*
X80318157Y-100596235D01*
X80259130Y-100507896D01*
X80268327Y-100498699D01*
X80365000Y-100265310D01*
X80365000Y-100024750D01*
X80206250Y-99866000D01*
X79507000Y-99866000D01*
X79507000Y-99886000D01*
X79253000Y-99886000D01*
X79253000Y-99866000D01*
X78237000Y-99866000D01*
X78237000Y-99886000D01*
X77983000Y-99886000D01*
X77983000Y-99866000D01*
X76957000Y-99866000D01*
X76957000Y-99886000D01*
X76703000Y-99886000D01*
X76703000Y-99866000D01*
X76683000Y-99866000D01*
X76683000Y-99782969D01*
X76691746Y-99739000D01*
X76683000Y-99695031D01*
X76683000Y-99612000D01*
X76703000Y-99612000D01*
X76703000Y-98862750D01*
X76957000Y-98862750D01*
X76957000Y-99612000D01*
X77983000Y-99612000D01*
X77983000Y-98862750D01*
X78237000Y-98862750D01*
X78237000Y-99612000D01*
X79253000Y-99612000D01*
X79253000Y-98862750D01*
X79507000Y-98862750D01*
X79507000Y-99612000D01*
X80206250Y-99612000D01*
X80365000Y-99453250D01*
X80365000Y-99212690D01*
X80268327Y-98979301D01*
X80089698Y-98800673D01*
X79856309Y-98704000D01*
X79665750Y-98704000D01*
X79507000Y-98862750D01*
X79253000Y-98862750D01*
X79094250Y-98704000D01*
X78903691Y-98704000D01*
X78745000Y-98769732D01*
X78586309Y-98704000D01*
X78395750Y-98704000D01*
X78237000Y-98862750D01*
X77983000Y-98862750D01*
X77824250Y-98704000D01*
X77633691Y-98704000D01*
X77470000Y-98771803D01*
X77306309Y-98704000D01*
X77115750Y-98704000D01*
X76957000Y-98862750D01*
X76703000Y-98862750D01*
X76544250Y-98704000D01*
X76353691Y-98704000D01*
X76198704Y-98768198D01*
X76157765Y-98740843D01*
X76024396Y-98714315D01*
X75993100Y-98693403D01*
X75669324Y-98629000D01*
X74369319Y-98629000D01*
X74260000Y-98607255D01*
X74150680Y-98629000D01*
X74150676Y-98629000D01*
X73826900Y-98693403D01*
X73755901Y-98740843D01*
X73573455Y-98862750D01*
X73459735Y-98938735D01*
X73397808Y-99031415D01*
X72357000Y-100072224D01*
X72357000Y-80431319D01*
X72378745Y-80321999D01*
X72357000Y-80212680D01*
X72357000Y-80212676D01*
X72292597Y-79888900D01*
X72047265Y-79521735D01*
X71954586Y-79459809D01*
X69958904Y-77464128D01*
X69840938Y-76871073D01*
X69501673Y-76363327D01*
X68993927Y-76024062D01*
X68546182Y-75935000D01*
X68243818Y-75935000D01*
X67796073Y-76024062D01*
X67288327Y-76363327D01*
X66949062Y-76871073D01*
X66829928Y-77470000D01*
X66949062Y-78068927D01*
X67288327Y-78576673D01*
X67796073Y-78915938D01*
X68243818Y-79005000D01*
X68360224Y-79005000D01*
X70137000Y-80781777D01*
X70137001Y-102791222D01*
X68628224Y-104300000D01*
X67686696Y-104300000D01*
X67426522Y-104126157D01*
X67556358Y-104065183D01*
X67946645Y-103636924D01*
X68116476Y-103226890D01*
X67995155Y-102997000D01*
X66802000Y-102997000D01*
X66802000Y-103017000D01*
X66548000Y-103017000D01*
X66548000Y-102997000D01*
X65354845Y-102997000D01*
X65233524Y-103226890D01*
X65403355Y-103636924D01*
X65793642Y-104065183D01*
X65923478Y-104126157D01*
X65604375Y-104339375D01*
X65276161Y-104830582D01*
X65160908Y-105410000D01*
X65276161Y-105989418D01*
X65604375Y-106480625D01*
X65622619Y-106492816D01*
X65577235Y-106501843D01*
X65367191Y-106642191D01*
X65235018Y-106840000D01*
X64594777Y-106840000D01*
X63092193Y-105337417D01*
X63030265Y-105244735D01*
X62663100Y-104999403D01*
X62339324Y-104935000D01*
X62339319Y-104935000D01*
X62230000Y-104913255D01*
X62120681Y-104935000D01*
X59156698Y-104935000D01*
X58794909Y-104693260D01*
X58376333Y-104610000D01*
X57193667Y-104610000D01*
X56775091Y-104693260D01*
X56300423Y-105010423D01*
X55983260Y-105485091D01*
X55871887Y-106045000D01*
X45160000Y-106045000D01*
X45160000Y-101463003D01*
X48622573Y-101463003D01*
X48702946Y-101760367D01*
X49178747Y-102561647D01*
X49924967Y-103119852D01*
X50828000Y-103350000D01*
X52578000Y-103350000D01*
X52578000Y-101092000D01*
X52832000Y-101092000D01*
X52832000Y-103350000D01*
X54582000Y-103350000D01*
X55485033Y-103119852D01*
X56231253Y-102561647D01*
X56260074Y-102513110D01*
X65233524Y-102513110D01*
X65354845Y-102743000D01*
X66548000Y-102743000D01*
X66548000Y-101549181D01*
X66802000Y-101549181D01*
X66802000Y-102743000D01*
X67995155Y-102743000D01*
X68116476Y-102513110D01*
X67946645Y-102103076D01*
X67556358Y-101674817D01*
X67031892Y-101428514D01*
X66802000Y-101549181D01*
X66548000Y-101549181D01*
X66318108Y-101428514D01*
X65793642Y-101674817D01*
X65403355Y-102103076D01*
X65233524Y-102513110D01*
X56260074Y-102513110D01*
X56707054Y-101760367D01*
X56787427Y-101463003D01*
X56677625Y-101092000D01*
X52832000Y-101092000D01*
X52578000Y-101092000D01*
X48732375Y-101092000D01*
X48622573Y-101463003D01*
X45160000Y-101463003D01*
X45160000Y-100466997D01*
X48622573Y-100466997D01*
X48732375Y-100838000D01*
X52578000Y-100838000D01*
X52578000Y-98580000D01*
X52832000Y-98580000D01*
X52832000Y-100838000D01*
X56677625Y-100838000D01*
X56787427Y-100466997D01*
X56707054Y-100169633D01*
X56231253Y-99368353D01*
X55485033Y-98810148D01*
X54582000Y-98580000D01*
X52832000Y-98580000D01*
X52578000Y-98580000D01*
X50828000Y-98580000D01*
X49924967Y-98810148D01*
X49178747Y-99368353D01*
X48702946Y-100169633D01*
X48622573Y-100466997D01*
X45160000Y-100466997D01*
X45160000Y-87910000D01*
X48680560Y-87910000D01*
X48680560Y-89890000D01*
X48729843Y-90137765D01*
X48870191Y-90347809D01*
X49080235Y-90488157D01*
X49328000Y-90537440D01*
X53288000Y-90537440D01*
X53535765Y-90488157D01*
X53745809Y-90347809D01*
X53886157Y-90137765D01*
X53911571Y-90010000D01*
X58437681Y-90010000D01*
X58547000Y-90031745D01*
X58656319Y-90010000D01*
X58656324Y-90010000D01*
X58980100Y-89945597D01*
X59319824Y-89718600D01*
X60514745Y-90913522D01*
X60576672Y-91006202D01*
X60943837Y-91251534D01*
X61267613Y-91315937D01*
X61267617Y-91315937D01*
X61376937Y-91337682D01*
X61486256Y-91315937D01*
X61813427Y-91315937D01*
X61912191Y-91463746D01*
X62122235Y-91604094D01*
X62370000Y-91653377D01*
X63970000Y-91653377D01*
X64217765Y-91604094D01*
X64427809Y-91463746D01*
X64568157Y-91253702D01*
X64574171Y-91223465D01*
X64899328Y-91006202D01*
X64915205Y-90982440D01*
X65570000Y-90982440D01*
X65817765Y-90933157D01*
X66027809Y-90792809D01*
X66168157Y-90582765D01*
X66217440Y-90335000D01*
X66217440Y-88735000D01*
X66168157Y-88487235D01*
X66027809Y-88277191D01*
X65817765Y-88136843D01*
X65583813Y-88090307D01*
X65598139Y-88042745D01*
X64770000Y-87214605D01*
X63941861Y-88042745D01*
X63956187Y-88090307D01*
X63722235Y-88136843D01*
X63512191Y-88277191D01*
X63371843Y-88487235D01*
X63322560Y-88735000D01*
X63322560Y-88758497D01*
X62370000Y-88758497D01*
X62122235Y-88807780D01*
X61912191Y-88948128D01*
X61822755Y-89081978D01*
X61054000Y-88313224D01*
X61054000Y-87612321D01*
X61075745Y-87503001D01*
X61054000Y-87393681D01*
X61054000Y-86818223D01*
X63323035Y-86818223D01*
X63350222Y-87388454D01*
X63516136Y-87789005D01*
X63762255Y-87863139D01*
X64590395Y-87035000D01*
X63762255Y-86206861D01*
X63516136Y-86280995D01*
X63323035Y-86818223D01*
X61054000Y-86818223D01*
X61054000Y-86027255D01*
X63941861Y-86027255D01*
X64770000Y-86855395D01*
X64784143Y-86841253D01*
X64963748Y-87020858D01*
X64949605Y-87035000D01*
X65777745Y-87863139D01*
X66023864Y-87789005D01*
X66031654Y-87767331D01*
X66153223Y-87811028D01*
X66723454Y-87783841D01*
X67124005Y-87617927D01*
X67198139Y-87371808D01*
X66370000Y-86543668D01*
X66355858Y-86557811D01*
X66176253Y-86378206D01*
X66190395Y-86364063D01*
X66549605Y-86364063D01*
X67377745Y-87192202D01*
X67623864Y-87118068D01*
X67816965Y-86580840D01*
X67789778Y-86010609D01*
X67623864Y-85610058D01*
X67377745Y-85535924D01*
X66549605Y-86364063D01*
X66190395Y-86364063D01*
X65362255Y-85535924D01*
X65116136Y-85610058D01*
X65108346Y-85631732D01*
X64986777Y-85588035D01*
X64416546Y-85615222D01*
X64015995Y-85781136D01*
X63941861Y-86027255D01*
X61054000Y-86027255D01*
X61054000Y-85356318D01*
X65541861Y-85356318D01*
X66370000Y-86184458D01*
X67198139Y-85356318D01*
X67124005Y-85110199D01*
X66586777Y-84917098D01*
X66016546Y-84944285D01*
X65615995Y-85110199D01*
X65541861Y-85356318D01*
X61054000Y-85356318D01*
X61054000Y-81430776D01*
X62302585Y-80182192D01*
X62395265Y-80120265D01*
X62640597Y-79753100D01*
X62705000Y-79429324D01*
X62705000Y-79429320D01*
X62726745Y-79320000D01*
X62705000Y-79210680D01*
X62705000Y-78975669D01*
X62742765Y-78968157D01*
X62952809Y-78827809D01*
X63093157Y-78617765D01*
X63142440Y-78370000D01*
X63142440Y-77834740D01*
X63503964Y-77834740D01*
X63682760Y-78266417D01*
X64087424Y-78707966D01*
X64630258Y-78961046D01*
X64868000Y-78840997D01*
X64868000Y-77597000D01*
X65122000Y-77597000D01*
X65122000Y-78840997D01*
X65359742Y-78961046D01*
X65902576Y-78707966D01*
X66307240Y-78266417D01*
X66486036Y-77834740D01*
X66365378Y-77597000D01*
X65122000Y-77597000D01*
X64868000Y-77597000D01*
X63624622Y-77597000D01*
X63503964Y-77834740D01*
X63142440Y-77834740D01*
X63142440Y-77105260D01*
X63503964Y-77105260D01*
X63624622Y-77343000D01*
X64868000Y-77343000D01*
X64868000Y-76099003D01*
X65122000Y-76099003D01*
X65122000Y-77343000D01*
X66365378Y-77343000D01*
X66486036Y-77105260D01*
X66307240Y-76673583D01*
X65902576Y-76232034D01*
X65359742Y-75978954D01*
X65122000Y-76099003D01*
X64868000Y-76099003D01*
X64630258Y-75978954D01*
X64087424Y-76232034D01*
X63682760Y-76673583D01*
X63503964Y-77105260D01*
X63142440Y-77105260D01*
X63142440Y-76570000D01*
X63093157Y-76322235D01*
X62952809Y-76112191D01*
X62742765Y-75971843D01*
X62495000Y-75922560D01*
X60695000Y-75922560D01*
X60447235Y-75971843D01*
X60237191Y-76112191D01*
X60096843Y-76322235D01*
X60047560Y-76570000D01*
X60047560Y-78370000D01*
X60096843Y-78617765D01*
X60237191Y-78827809D01*
X60405172Y-78940051D01*
X59236417Y-80108807D01*
X59143735Y-80170735D01*
X58898403Y-80537901D01*
X58834000Y-80861677D01*
X58834000Y-80861681D01*
X58812255Y-80971000D01*
X58834000Y-81080320D01*
X58834001Y-87043222D01*
X58087223Y-87790000D01*
X53911571Y-87790000D01*
X53886157Y-87662235D01*
X53745809Y-87452191D01*
X53535765Y-87311843D01*
X53288000Y-87262560D01*
X49328000Y-87262560D01*
X49080235Y-87311843D01*
X48870191Y-87452191D01*
X48729843Y-87662235D01*
X48680560Y-87910000D01*
X45160000Y-87910000D01*
X45160000Y-84278865D01*
X48737782Y-84278865D01*
X48768095Y-84404528D01*
X49079149Y-84959246D01*
X49578807Y-85352703D01*
X50191000Y-85525000D01*
X51181000Y-85525000D01*
X51181000Y-84027000D01*
X51435000Y-84027000D01*
X51435000Y-85525000D01*
X52425000Y-85525000D01*
X53037193Y-85352703D01*
X53536851Y-84959246D01*
X53847905Y-84404528D01*
X53878218Y-84278865D01*
X53758740Y-84027000D01*
X51435000Y-84027000D01*
X51181000Y-84027000D01*
X48857260Y-84027000D01*
X48737782Y-84278865D01*
X45160000Y-84278865D01*
X45160000Y-83521135D01*
X48737782Y-83521135D01*
X48857260Y-83773000D01*
X51181000Y-83773000D01*
X51181000Y-82275000D01*
X51435000Y-82275000D01*
X51435000Y-83773000D01*
X53758740Y-83773000D01*
X53878218Y-83521135D01*
X53847905Y-83395472D01*
X53536851Y-82840754D01*
X53037193Y-82447297D01*
X52425000Y-82275000D01*
X51435000Y-82275000D01*
X51181000Y-82275000D01*
X50191000Y-82275000D01*
X49578807Y-82447297D01*
X49079149Y-82840754D01*
X48768095Y-83395472D01*
X48737782Y-83521135D01*
X45160000Y-83521135D01*
X45160000Y-77597000D01*
X54610000Y-77597000D01*
X54658601Y-77587333D01*
X54699803Y-77559803D01*
X54727333Y-77518601D01*
X54737000Y-77470000D01*
X54737000Y-73770000D01*
X61729928Y-73770000D01*
X61849062Y-74368927D01*
X62188327Y-74876673D01*
X62696073Y-75215938D01*
X63143818Y-75305000D01*
X63446182Y-75305000D01*
X63893927Y-75215938D01*
X64401673Y-74876673D01*
X64740938Y-74368927D01*
X64860072Y-73770000D01*
X64740938Y-73171073D01*
X64401673Y-72663327D01*
X63893927Y-72324062D01*
X63446182Y-72235000D01*
X63143818Y-72235000D01*
X62696073Y-72324062D01*
X62188327Y-72663327D01*
X61849062Y-73171073D01*
X61729928Y-73770000D01*
X54737000Y-73770000D01*
X54737000Y-68020000D01*
X79381222Y-68020000D01*
X78097223Y-69304000D01*
G04 #@! TD*
M02*
