G04 #@! TF.FileFunction,Paste,Top*
%FSLAX46Y46*%
G04 Gerber Fmt 4.6, Leading zero omitted, Abs format (unit mm)*
G04 Created by KiCad (PCBNEW 4.0.2-stable) date 30/01/2018 13:09:08*
%MOMM*%
G01*
G04 APERTURE LIST*
%ADD10C,0.100000*%
%ADD11R,1.450000X0.550000*%
G04 APERTURE END LIST*
D10*
D11*
X104250000Y-68730000D03*
X104250000Y-71270000D03*
X109750000Y-71270000D03*
X109750000Y-68730000D03*
X104250000Y-61230000D03*
X104250000Y-63770000D03*
X109750000Y-63770000D03*
X109750000Y-61230000D03*
X104250000Y-53730000D03*
X104250000Y-56270000D03*
X109750000Y-56270000D03*
X109750000Y-53730000D03*
X139250000Y-68730000D03*
X139250000Y-71270000D03*
X144750000Y-71270000D03*
X144750000Y-68730000D03*
X139250000Y-61230000D03*
X139250000Y-63770000D03*
X144750000Y-63770000D03*
X144750000Y-61230000D03*
X139250000Y-52730000D03*
X139250000Y-55270000D03*
X144750000Y-55270000D03*
X144750000Y-52730000D03*
X139250000Y-75730000D03*
X139250000Y-78270000D03*
X144750000Y-78270000D03*
X144750000Y-75730000D03*
X139250000Y-90730000D03*
X139250000Y-93270000D03*
X144750000Y-93270000D03*
X144750000Y-90730000D03*
X139250000Y-83230000D03*
X139250000Y-85770000D03*
X144750000Y-85770000D03*
X144750000Y-83230000D03*
X104250000Y-83230000D03*
X104250000Y-85770000D03*
X109750000Y-85770000D03*
X109750000Y-83230000D03*
X104250000Y-75730000D03*
X104250000Y-78270000D03*
X109750000Y-78270000D03*
X109750000Y-75730000D03*
X104250000Y-90730000D03*
X104250000Y-93270000D03*
X109750000Y-93270000D03*
X109750000Y-90730000D03*
M02*
