M48
;DRILL file {KiCad 4.0.2-stable} date 30/01/2018 13:09:14
;FORMAT={-:-/ absolute / metric / decimal}
FMAT,2
METRIC,TZ
T1C0.400
T2C0.800
T3C1.000
T4C1.001
T5C1.200
T6C2.200
%
G90
G05
M71
T1
X98.5Y-73.5
X107.5Y-96.75
X107.75Y-94.25
X110.Y-73.5
X112.Y-94.5
X112.Y-96.75
X113.5Y-81.25
X121.098Y-103.263
X136.Y-51.
T2
X97.75Y-65.01
X97.75Y-80.25
X133.75Y-66.01
X133.75Y-81.25
T3
X78.Y-50.
X78.Y-52.5
X78.Y-55.
X78.Y-93.
X78.Y-95.5
X78.Y-98.
X166.Y-50.
X166.Y-52.5
X166.Y-55.
X166.Y-93.
X166.Y-95.5
X166.Y-98.
T4
X85.501Y-74.
X85.501Y-76.499
X96.501Y-47.501
X99.Y-47.501
X99.Y-100.499
X101.499Y-100.499
X113.501Y-47.501
X116.Y-47.501
X116.Y-100.499
X118.499Y-100.499
X130.501Y-47.501
X133.Y-47.501
X133.Y-100.499
X135.499Y-100.499
X147.501Y-47.501
X150.Y-47.501
X150.Y-100.499
X152.499Y-100.499
T5
X93.Y-68.
X93.Y-79.
X93.04Y-57.
X93.04Y-90.
X153.96Y-68.
X153.96Y-79.
X154.Y-57.
X154.Y-90.
T6
X81.237Y-68.9
X81.237Y-79.098
X93.9Y-104.763
X93.902Y-43.237
X104.098Y-104.763
X104.1Y-43.237
X110.9Y-104.763
X110.902Y-43.237
X121.098Y-104.763
X121.1Y-43.237
X127.9Y-104.763
X127.902Y-43.237
X138.098Y-104.763
X138.1Y-43.237
X144.9Y-104.763
X144.902Y-43.237
X155.098Y-104.763
X155.1Y-43.237
T0
M30
