G04 #@! TF.FileFunction,Other,Fab,Bot*
%FSLAX46Y46*%
G04 Gerber Fmt 4.6, Leading zero omitted, Abs format (unit mm)*
G04 Created by KiCad (PCBNEW 4.0.2-stable) date 30/01/2018 13:09:08*
%MOMM*%
G01*
G04 APERTURE LIST*
%ADD10C,0.100000*%
%ADD11C,0.150000*%
G04 APERTURE END LIST*
D10*
X98480000Y-72500000D02*
X98480000Y-63500000D01*
X98480000Y-63500000D02*
X148480000Y-63500000D01*
X148480000Y-63500000D02*
X148480000Y-72500000D01*
X148480000Y-72500000D02*
X98480000Y-72500000D01*
X93000000Y-68000000D02*
X98480000Y-68000000D01*
X153960000Y-68000000D02*
X148480000Y-68000000D01*
X148520000Y-52500000D02*
X148520000Y-61500000D01*
X148520000Y-61500000D02*
X98520000Y-61500000D01*
X98520000Y-61500000D02*
X98520000Y-52500000D01*
X98520000Y-52500000D02*
X148520000Y-52500000D01*
X154000000Y-57000000D02*
X148520000Y-57000000D01*
X93040000Y-57000000D02*
X98520000Y-57000000D01*
X98480000Y-83500000D02*
X98480000Y-74500000D01*
X98480000Y-74500000D02*
X148480000Y-74500000D01*
X148480000Y-74500000D02*
X148480000Y-83500000D01*
X148480000Y-83500000D02*
X98480000Y-83500000D01*
X93000000Y-79000000D02*
X98480000Y-79000000D01*
X153960000Y-79000000D02*
X148480000Y-79000000D01*
X148520000Y-85500000D02*
X148520000Y-94500000D01*
X148520000Y-94500000D02*
X98520000Y-94500000D01*
X98520000Y-94500000D02*
X98520000Y-85500000D01*
X98520000Y-85500000D02*
X148520000Y-85500000D01*
X154000000Y-90000000D02*
X148520000Y-90000000D01*
X93040000Y-90000000D02*
X98520000Y-90000000D01*
D11*
X123670476Y-62892381D02*
X124241905Y-62892381D01*
X123956191Y-62892381D02*
X123956191Y-61892381D01*
X124051429Y-62035238D01*
X124146667Y-62130476D01*
X124241905Y-62178095D01*
X123051429Y-61892381D02*
X122956190Y-61892381D01*
X122860952Y-61940000D01*
X122813333Y-61987619D01*
X122765714Y-62082857D01*
X122718095Y-62273333D01*
X122718095Y-62511429D01*
X122765714Y-62701905D01*
X122813333Y-62797143D01*
X122860952Y-62844762D01*
X122956190Y-62892381D01*
X123051429Y-62892381D01*
X123146667Y-62844762D01*
X123194286Y-62797143D01*
X123241905Y-62701905D01*
X123289524Y-62511429D01*
X123289524Y-62273333D01*
X123241905Y-62082857D01*
X123194286Y-61987619D01*
X123146667Y-61940000D01*
X123051429Y-61892381D01*
X123710476Y-63012381D02*
X124281905Y-63012381D01*
X123996191Y-63012381D02*
X123996191Y-62012381D01*
X124091429Y-62155238D01*
X124186667Y-62250476D01*
X124281905Y-62298095D01*
X123091429Y-62012381D02*
X122996190Y-62012381D01*
X122900952Y-62060000D01*
X122853333Y-62107619D01*
X122805714Y-62202857D01*
X122758095Y-62393333D01*
X122758095Y-62631429D01*
X122805714Y-62821905D01*
X122853333Y-62917143D01*
X122900952Y-62964762D01*
X122996190Y-63012381D01*
X123091429Y-63012381D01*
X123186667Y-62964762D01*
X123234286Y-62917143D01*
X123281905Y-62821905D01*
X123329524Y-62631429D01*
X123329524Y-62393333D01*
X123281905Y-62202857D01*
X123234286Y-62107619D01*
X123186667Y-62060000D01*
X123091429Y-62012381D01*
X92990476Y-75452381D02*
X93561905Y-75452381D01*
X93276191Y-75452381D02*
X93276191Y-74452381D01*
X93371429Y-74595238D01*
X93466667Y-74690476D01*
X93561905Y-74738095D01*
X92371429Y-74452381D02*
X92276190Y-74452381D01*
X92180952Y-74500000D01*
X92133333Y-74547619D01*
X92085714Y-74642857D01*
X92038095Y-74833333D01*
X92038095Y-75071429D01*
X92085714Y-75261905D01*
X92133333Y-75357143D01*
X92180952Y-75404762D01*
X92276190Y-75452381D01*
X92371429Y-75452381D01*
X92466667Y-75404762D01*
X92514286Y-75357143D01*
X92561905Y-75261905D01*
X92609524Y-75071429D01*
X92609524Y-74833333D01*
X92561905Y-74642857D01*
X92514286Y-74547619D01*
X92466667Y-74500000D01*
X92371429Y-74452381D01*
X123710476Y-96012381D02*
X124281905Y-96012381D01*
X123996191Y-96012381D02*
X123996191Y-95012381D01*
X124091429Y-95155238D01*
X124186667Y-95250476D01*
X124281905Y-95298095D01*
X123091429Y-95012381D02*
X122996190Y-95012381D01*
X122900952Y-95060000D01*
X122853333Y-95107619D01*
X122805714Y-95202857D01*
X122758095Y-95393333D01*
X122758095Y-95631429D01*
X122805714Y-95821905D01*
X122853333Y-95917143D01*
X122900952Y-95964762D01*
X122996190Y-96012381D01*
X123091429Y-96012381D01*
X123186667Y-95964762D01*
X123234286Y-95917143D01*
X123281905Y-95821905D01*
X123329524Y-95631429D01*
X123329524Y-95393333D01*
X123281905Y-95202857D01*
X123234286Y-95107619D01*
X123186667Y-95060000D01*
X123091429Y-95012381D01*
M02*
