G04 #@! TF.FileFunction,Legend,Top*
%FSLAX46Y46*%
G04 Gerber Fmt 4.6, Leading zero omitted, Abs format (unit mm)*
G04 Created by KiCad (PCBNEW 4.0.2-stable) date 30/01/2018 13:09:08*
%MOMM*%
G01*
G04 APERTURE LIST*
%ADD10C,0.100000*%
%ADD11C,0.300000*%
%ADD12C,0.150000*%
%ADD13C,0.120000*%
%ADD14C,0.010000*%
G04 APERTURE END LIST*
D10*
D11*
X157735714Y-85207142D02*
X157807143Y-85278571D01*
X157878571Y-85492857D01*
X157878571Y-85635714D01*
X157807143Y-85849999D01*
X157664286Y-85992857D01*
X157521429Y-86064285D01*
X157235714Y-86135714D01*
X157021429Y-86135714D01*
X156735714Y-86064285D01*
X156592857Y-85992857D01*
X156450000Y-85849999D01*
X156378571Y-85635714D01*
X156378571Y-85492857D01*
X156450000Y-85278571D01*
X156521429Y-85207142D01*
X157878571Y-84564285D02*
X156878571Y-84564285D01*
X157164286Y-84564285D02*
X157021429Y-84492857D01*
X156950000Y-84421428D01*
X156878571Y-84278571D01*
X156878571Y-84135714D01*
X157807143Y-83064286D02*
X157878571Y-83207143D01*
X157878571Y-83492857D01*
X157807143Y-83635714D01*
X157664286Y-83707143D01*
X157092857Y-83707143D01*
X156950000Y-83635714D01*
X156878571Y-83492857D01*
X156878571Y-83207143D01*
X156950000Y-83064286D01*
X157092857Y-82992857D01*
X157235714Y-82992857D01*
X157378571Y-83707143D01*
X157878571Y-81707143D02*
X157092857Y-81707143D01*
X156950000Y-81778572D01*
X156878571Y-81921429D01*
X156878571Y-82207143D01*
X156950000Y-82350000D01*
X157807143Y-81707143D02*
X157878571Y-81850000D01*
X157878571Y-82207143D01*
X157807143Y-82350000D01*
X157664286Y-82421429D01*
X157521429Y-82421429D01*
X157378571Y-82350000D01*
X157307143Y-82207143D01*
X157307143Y-81850000D01*
X157235714Y-81707143D01*
X156878571Y-81207143D02*
X156878571Y-80635714D01*
X156378571Y-80992857D02*
X157664286Y-80992857D01*
X157807143Y-80921429D01*
X157878571Y-80778571D01*
X157878571Y-80635714D01*
X157807143Y-79564286D02*
X157878571Y-79707143D01*
X157878571Y-79992857D01*
X157807143Y-80135714D01*
X157664286Y-80207143D01*
X157092857Y-80207143D01*
X156950000Y-80135714D01*
X156878571Y-79992857D01*
X156878571Y-79707143D01*
X156950000Y-79564286D01*
X157092857Y-79492857D01*
X157235714Y-79492857D01*
X157378571Y-80207143D01*
X157878571Y-78207143D02*
X156378571Y-78207143D01*
X157807143Y-78207143D02*
X157878571Y-78350000D01*
X157878571Y-78635714D01*
X157807143Y-78778572D01*
X157735714Y-78850000D01*
X157592857Y-78921429D01*
X157164286Y-78921429D01*
X157021429Y-78850000D01*
X156950000Y-78778572D01*
X156878571Y-78635714D01*
X156878571Y-78350000D01*
X156950000Y-78207143D01*
X157878571Y-76350000D02*
X156378571Y-76350000D01*
X156950000Y-76350000D02*
X156878571Y-76207143D01*
X156878571Y-75921429D01*
X156950000Y-75778572D01*
X157021429Y-75707143D01*
X157164286Y-75635714D01*
X157592857Y-75635714D01*
X157735714Y-75707143D01*
X157807143Y-75778572D01*
X157878571Y-75921429D01*
X157878571Y-76207143D01*
X157807143Y-76350000D01*
X156878571Y-75135714D02*
X157878571Y-74778571D01*
X156878571Y-74421429D02*
X157878571Y-74778571D01*
X158235714Y-74921429D01*
X158307143Y-74992857D01*
X158378571Y-75135714D01*
X157450000Y-72778572D02*
X157450000Y-72064286D01*
X157878571Y-72921429D02*
X156378571Y-72421429D01*
X157878571Y-71921429D01*
X157878571Y-71421429D02*
X156378571Y-71421429D01*
X157450000Y-70921429D01*
X156378571Y-70421429D01*
X157878571Y-70421429D01*
X157735714Y-67707143D02*
X157807143Y-67778572D01*
X157878571Y-67992858D01*
X157878571Y-68135715D01*
X157807143Y-68350000D01*
X157664286Y-68492858D01*
X157521429Y-68564286D01*
X157235714Y-68635715D01*
X157021429Y-68635715D01*
X156735714Y-68564286D01*
X156592857Y-68492858D01*
X156450000Y-68350000D01*
X156378571Y-68135715D01*
X156378571Y-67992858D01*
X156450000Y-67778572D01*
X156521429Y-67707143D01*
X157878571Y-67064286D02*
X156378571Y-67064286D01*
X157878571Y-66421429D02*
X157092857Y-66421429D01*
X156950000Y-66492858D01*
X156878571Y-66635715D01*
X156878571Y-66850000D01*
X156950000Y-66992858D01*
X157021429Y-67064286D01*
X157878571Y-65064286D02*
X157092857Y-65064286D01*
X156950000Y-65135715D01*
X156878571Y-65278572D01*
X156878571Y-65564286D01*
X156950000Y-65707143D01*
X157807143Y-65064286D02*
X157878571Y-65207143D01*
X157878571Y-65564286D01*
X157807143Y-65707143D01*
X157664286Y-65778572D01*
X157521429Y-65778572D01*
X157378571Y-65707143D01*
X157307143Y-65564286D01*
X157307143Y-65207143D01*
X157235714Y-65064286D01*
X156878571Y-63707143D02*
X158092857Y-63707143D01*
X158235714Y-63778572D01*
X158307143Y-63850000D01*
X158378571Y-63992857D01*
X158378571Y-64207143D01*
X158307143Y-64350000D01*
X157807143Y-63707143D02*
X157878571Y-63850000D01*
X157878571Y-64135714D01*
X157807143Y-64278572D01*
X157735714Y-64350000D01*
X157592857Y-64421429D01*
X157164286Y-64421429D01*
X157021429Y-64350000D01*
X156950000Y-64278572D01*
X156878571Y-64135714D01*
X156878571Y-63850000D01*
X156950000Y-63707143D01*
X157878571Y-62350000D02*
X157092857Y-62350000D01*
X156950000Y-62421429D01*
X156878571Y-62564286D01*
X156878571Y-62850000D01*
X156950000Y-62992857D01*
X157807143Y-62350000D02*
X157878571Y-62492857D01*
X157878571Y-62850000D01*
X157807143Y-62992857D01*
X157664286Y-63064286D01*
X157521429Y-63064286D01*
X157378571Y-62992857D01*
X157307143Y-62850000D01*
X157307143Y-62492857D01*
X157235714Y-62350000D01*
X157807143Y-61707143D02*
X157878571Y-61564286D01*
X157878571Y-61278571D01*
X157807143Y-61135714D01*
X157664286Y-61064286D01*
X157592857Y-61064286D01*
X157450000Y-61135714D01*
X157378571Y-61278571D01*
X157378571Y-61492857D01*
X157307143Y-61635714D01*
X157164286Y-61707143D01*
X157092857Y-61707143D01*
X156950000Y-61635714D01*
X156878571Y-61492857D01*
X156878571Y-61278571D01*
X156950000Y-61135714D01*
X159278571Y-82135713D02*
X160278571Y-81778570D01*
X159278571Y-81421428D01*
X158778571Y-80564285D02*
X158778571Y-80421428D01*
X158850000Y-80278571D01*
X158921429Y-80207142D01*
X159064286Y-80135713D01*
X159350000Y-80064285D01*
X159707143Y-80064285D01*
X159992857Y-80135713D01*
X160135714Y-80207142D01*
X160207143Y-80278571D01*
X160278571Y-80421428D01*
X160278571Y-80564285D01*
X160207143Y-80707142D01*
X160135714Y-80778571D01*
X159992857Y-80849999D01*
X159707143Y-80921428D01*
X159350000Y-80921428D01*
X159064286Y-80849999D01*
X158921429Y-80778571D01*
X158850000Y-80707142D01*
X158778571Y-80564285D01*
X160135714Y-79421428D02*
X160207143Y-79350000D01*
X160278571Y-79421428D01*
X160207143Y-79492857D01*
X160135714Y-79421428D01*
X160278571Y-79421428D01*
X158921429Y-78778571D02*
X158850000Y-78707142D01*
X158778571Y-78564285D01*
X158778571Y-78207142D01*
X158850000Y-78064285D01*
X158921429Y-77992856D01*
X159064286Y-77921428D01*
X159207143Y-77921428D01*
X159421429Y-77992856D01*
X160278571Y-78849999D01*
X160278571Y-77921428D01*
X160135714Y-75278571D02*
X160207143Y-75350000D01*
X160278571Y-75564286D01*
X160278571Y-75707143D01*
X160207143Y-75921428D01*
X160064286Y-76064286D01*
X159921429Y-76135714D01*
X159635714Y-76207143D01*
X159421429Y-76207143D01*
X159135714Y-76135714D01*
X158992857Y-76064286D01*
X158850000Y-75921428D01*
X158778571Y-75707143D01*
X158778571Y-75564286D01*
X158850000Y-75350000D01*
X158921429Y-75278571D01*
X160135714Y-73778571D02*
X160207143Y-73850000D01*
X160278571Y-74064286D01*
X160278571Y-74207143D01*
X160207143Y-74421428D01*
X160064286Y-74564286D01*
X159921429Y-74635714D01*
X159635714Y-74707143D01*
X159421429Y-74707143D01*
X159135714Y-74635714D01*
X158992857Y-74564286D01*
X158850000Y-74421428D01*
X158778571Y-74207143D01*
X158778571Y-74064286D01*
X158850000Y-73850000D01*
X158921429Y-73778571D01*
X159492857Y-71492857D02*
X159564286Y-71278571D01*
X159635714Y-71207143D01*
X159778571Y-71135714D01*
X159992857Y-71135714D01*
X160135714Y-71207143D01*
X160207143Y-71278571D01*
X160278571Y-71421429D01*
X160278571Y-71992857D01*
X158778571Y-71992857D01*
X158778571Y-71492857D01*
X158850000Y-71350000D01*
X158921429Y-71278571D01*
X159064286Y-71207143D01*
X159207143Y-71207143D01*
X159350000Y-71278571D01*
X159421429Y-71350000D01*
X159492857Y-71492857D01*
X159492857Y-71992857D01*
X159564286Y-70207143D02*
X160278571Y-70207143D01*
X158778571Y-70707143D02*
X159564286Y-70207143D01*
X158778571Y-69707143D01*
X159278571Y-67421429D02*
X160278571Y-67421429D01*
X158707143Y-67778572D02*
X159778571Y-68135715D01*
X159778571Y-67207143D01*
X160135714Y-66635715D02*
X160207143Y-66564287D01*
X160278571Y-66635715D01*
X160207143Y-66707144D01*
X160135714Y-66635715D01*
X160278571Y-66635715D01*
X158778571Y-65635715D02*
X158778571Y-65492858D01*
X158850000Y-65350001D01*
X158921429Y-65278572D01*
X159064286Y-65207143D01*
X159350000Y-65135715D01*
X159707143Y-65135715D01*
X159992857Y-65207143D01*
X160135714Y-65278572D01*
X160207143Y-65350001D01*
X160278571Y-65492858D01*
X160278571Y-65635715D01*
X160207143Y-65778572D01*
X160135714Y-65850001D01*
X159992857Y-65921429D01*
X159707143Y-65992858D01*
X159350000Y-65992858D01*
X159064286Y-65921429D01*
X158921429Y-65850001D01*
X158850000Y-65778572D01*
X158778571Y-65635715D01*
X161678571Y-90421429D02*
X162678571Y-90135715D01*
X161964286Y-89850001D01*
X162678571Y-89564286D01*
X161678571Y-89278572D01*
X161678571Y-88850000D02*
X162678571Y-88564286D01*
X161964286Y-88278572D01*
X162678571Y-87992857D01*
X161678571Y-87707143D01*
X161678571Y-87278571D02*
X162678571Y-86992857D01*
X161964286Y-86707143D01*
X162678571Y-86421428D01*
X161678571Y-86135714D01*
X162535714Y-85564285D02*
X162607143Y-85492857D01*
X162678571Y-85564285D01*
X162607143Y-85635714D01*
X162535714Y-85564285D01*
X162678571Y-85564285D01*
X161678571Y-84849999D02*
X163178571Y-84849999D01*
X161750000Y-84849999D02*
X161678571Y-84707142D01*
X161678571Y-84421428D01*
X161750000Y-84278571D01*
X161821429Y-84207142D01*
X161964286Y-84135713D01*
X162392857Y-84135713D01*
X162535714Y-84207142D01*
X162607143Y-84278571D01*
X162678571Y-84421428D01*
X162678571Y-84707142D01*
X162607143Y-84849999D01*
X162678571Y-83492856D02*
X161678571Y-83492856D01*
X161964286Y-83492856D02*
X161821429Y-83421428D01*
X161750000Y-83349999D01*
X161678571Y-83207142D01*
X161678571Y-83064285D01*
X162678571Y-82349999D02*
X162607143Y-82492857D01*
X162535714Y-82564285D01*
X162392857Y-82635714D01*
X161964286Y-82635714D01*
X161821429Y-82564285D01*
X161750000Y-82492857D01*
X161678571Y-82349999D01*
X161678571Y-82135714D01*
X161750000Y-81992857D01*
X161821429Y-81921428D01*
X161964286Y-81849999D01*
X162392857Y-81849999D01*
X162535714Y-81921428D01*
X162607143Y-81992857D01*
X162678571Y-82135714D01*
X162678571Y-82349999D01*
X162678571Y-81207142D02*
X161678571Y-81207142D01*
X161821429Y-81207142D02*
X161750000Y-81135714D01*
X161678571Y-80992856D01*
X161678571Y-80778571D01*
X161750000Y-80635714D01*
X161892857Y-80564285D01*
X162678571Y-80564285D01*
X161892857Y-80564285D02*
X161750000Y-80492856D01*
X161678571Y-80349999D01*
X161678571Y-80135714D01*
X161750000Y-79992856D01*
X161892857Y-79921428D01*
X162678571Y-79921428D01*
X162607143Y-78635714D02*
X162678571Y-78778571D01*
X162678571Y-79064285D01*
X162607143Y-79207142D01*
X162464286Y-79278571D01*
X161892857Y-79278571D01*
X161750000Y-79207142D01*
X161678571Y-79064285D01*
X161678571Y-78778571D01*
X161750000Y-78635714D01*
X161892857Y-78564285D01*
X162035714Y-78564285D01*
X162178571Y-79278571D01*
X161678571Y-78135714D02*
X161678571Y-77564285D01*
X161178571Y-77921428D02*
X162464286Y-77921428D01*
X162607143Y-77850000D01*
X162678571Y-77707142D01*
X162678571Y-77564285D01*
X162678571Y-77064285D02*
X161178571Y-77064285D01*
X162678571Y-76421428D02*
X161892857Y-76421428D01*
X161750000Y-76492857D01*
X161678571Y-76635714D01*
X161678571Y-76849999D01*
X161750000Y-76992857D01*
X161821429Y-77064285D01*
X162607143Y-75135714D02*
X162678571Y-75278571D01*
X162678571Y-75564285D01*
X162607143Y-75707142D01*
X162464286Y-75778571D01*
X161892857Y-75778571D01*
X161750000Y-75707142D01*
X161678571Y-75564285D01*
X161678571Y-75278571D01*
X161750000Y-75135714D01*
X161892857Y-75064285D01*
X162035714Y-75064285D01*
X162178571Y-75778571D01*
X161678571Y-73778571D02*
X162678571Y-73778571D01*
X161678571Y-74421428D02*
X162464286Y-74421428D01*
X162607143Y-74350000D01*
X162678571Y-74207142D01*
X162678571Y-73992857D01*
X162607143Y-73850000D01*
X162535714Y-73778571D01*
X162607143Y-73135714D02*
X162678571Y-72992857D01*
X162678571Y-72707142D01*
X162607143Y-72564285D01*
X162464286Y-72492857D01*
X162392857Y-72492857D01*
X162250000Y-72564285D01*
X162178571Y-72707142D01*
X162178571Y-72921428D01*
X162107143Y-73064285D01*
X161964286Y-73135714D01*
X161892857Y-73135714D01*
X161750000Y-73064285D01*
X161678571Y-72921428D01*
X161678571Y-72707142D01*
X161750000Y-72564285D01*
X162107143Y-71849999D02*
X162107143Y-70707142D01*
X162607143Y-70064285D02*
X162678571Y-69921428D01*
X162678571Y-69635713D01*
X162607143Y-69492856D01*
X162464286Y-69421428D01*
X162392857Y-69421428D01*
X162250000Y-69492856D01*
X162178571Y-69635713D01*
X162178571Y-69849999D01*
X162107143Y-69992856D01*
X161964286Y-70064285D01*
X161892857Y-70064285D01*
X161750000Y-69992856D01*
X161678571Y-69849999D01*
X161678571Y-69635713D01*
X161750000Y-69492856D01*
X162607143Y-68135713D02*
X162678571Y-68278570D01*
X162678571Y-68564284D01*
X162607143Y-68707142D01*
X162535714Y-68778570D01*
X162392857Y-68849999D01*
X161964286Y-68849999D01*
X161821429Y-68778570D01*
X161750000Y-68707142D01*
X161678571Y-68564284D01*
X161678571Y-68278570D01*
X161750000Y-68135713D01*
X162678571Y-67492856D02*
X161678571Y-67492856D01*
X161178571Y-67492856D02*
X161250000Y-67564285D01*
X161321429Y-67492856D01*
X161250000Y-67421428D01*
X161178571Y-67492856D01*
X161321429Y-67492856D01*
X162607143Y-66207142D02*
X162678571Y-66349999D01*
X162678571Y-66635713D01*
X162607143Y-66778570D01*
X162464286Y-66849999D01*
X161892857Y-66849999D01*
X161750000Y-66778570D01*
X161678571Y-66635713D01*
X161678571Y-66349999D01*
X161750000Y-66207142D01*
X161892857Y-66135713D01*
X162035714Y-66135713D01*
X162178571Y-66849999D01*
X161678571Y-65492856D02*
X162678571Y-65492856D01*
X161821429Y-65492856D02*
X161750000Y-65421428D01*
X161678571Y-65278570D01*
X161678571Y-65064285D01*
X161750000Y-64921428D01*
X161892857Y-64849999D01*
X162678571Y-64849999D01*
X162607143Y-63492856D02*
X162678571Y-63635713D01*
X162678571Y-63921427D01*
X162607143Y-64064285D01*
X162535714Y-64135713D01*
X162392857Y-64207142D01*
X161964286Y-64207142D01*
X161821429Y-64135713D01*
X161750000Y-64064285D01*
X161678571Y-63921427D01*
X161678571Y-63635713D01*
X161750000Y-63492856D01*
X162607143Y-62278571D02*
X162678571Y-62421428D01*
X162678571Y-62707142D01*
X162607143Y-62849999D01*
X162464286Y-62921428D01*
X161892857Y-62921428D01*
X161750000Y-62849999D01*
X161678571Y-62707142D01*
X161678571Y-62421428D01*
X161750000Y-62278571D01*
X161892857Y-62207142D01*
X162035714Y-62207142D01*
X162178571Y-62921428D01*
X162535714Y-61564285D02*
X162607143Y-61492857D01*
X162678571Y-61564285D01*
X162607143Y-61635714D01*
X162535714Y-61564285D01*
X162678571Y-61564285D01*
X162607143Y-60207142D02*
X162678571Y-60349999D01*
X162678571Y-60635713D01*
X162607143Y-60778571D01*
X162535714Y-60849999D01*
X162392857Y-60921428D01*
X161964286Y-60921428D01*
X161821429Y-60849999D01*
X161750000Y-60778571D01*
X161678571Y-60635713D01*
X161678571Y-60349999D01*
X161750000Y-60207142D01*
X162678571Y-59349999D02*
X162607143Y-59492857D01*
X162535714Y-59564285D01*
X162392857Y-59635714D01*
X161964286Y-59635714D01*
X161821429Y-59564285D01*
X161750000Y-59492857D01*
X161678571Y-59349999D01*
X161678571Y-59135714D01*
X161750000Y-58992857D01*
X161821429Y-58921428D01*
X161964286Y-58849999D01*
X162392857Y-58849999D01*
X162535714Y-58921428D01*
X162607143Y-58992857D01*
X162678571Y-59135714D01*
X162678571Y-59349999D01*
X162678571Y-58207142D02*
X161678571Y-58207142D01*
X161821429Y-58207142D02*
X161750000Y-58135714D01*
X161678571Y-57992856D01*
X161678571Y-57778571D01*
X161750000Y-57635714D01*
X161892857Y-57564285D01*
X162678571Y-57564285D01*
X161892857Y-57564285D02*
X161750000Y-57492856D01*
X161678571Y-57349999D01*
X161678571Y-57135714D01*
X161750000Y-56992856D01*
X161892857Y-56921428D01*
X162678571Y-56921428D01*
X163721429Y-79028570D02*
X163650000Y-78957141D01*
X163578571Y-78814284D01*
X163578571Y-78457141D01*
X163650000Y-78314284D01*
X163721429Y-78242855D01*
X163864286Y-78171427D01*
X164007143Y-78171427D01*
X164221429Y-78242855D01*
X165078571Y-79099998D01*
X165078571Y-78171427D01*
X163578571Y-77242856D02*
X163578571Y-77099999D01*
X163650000Y-76957142D01*
X163721429Y-76885713D01*
X163864286Y-76814284D01*
X164150000Y-76742856D01*
X164507143Y-76742856D01*
X164792857Y-76814284D01*
X164935714Y-76885713D01*
X165007143Y-76957142D01*
X165078571Y-77099999D01*
X165078571Y-77242856D01*
X165007143Y-77385713D01*
X164935714Y-77457142D01*
X164792857Y-77528570D01*
X164507143Y-77599999D01*
X164150000Y-77599999D01*
X163864286Y-77528570D01*
X163721429Y-77457142D01*
X163650000Y-77385713D01*
X163578571Y-77242856D01*
X165078571Y-75314285D02*
X165078571Y-76171428D01*
X165078571Y-75742856D02*
X163578571Y-75742856D01*
X163792857Y-75885713D01*
X163935714Y-76028571D01*
X164007143Y-76171428D01*
X164221429Y-74457142D02*
X164150000Y-74600000D01*
X164078571Y-74671428D01*
X163935714Y-74742857D01*
X163864286Y-74742857D01*
X163721429Y-74671428D01*
X163650000Y-74600000D01*
X163578571Y-74457142D01*
X163578571Y-74171428D01*
X163650000Y-74028571D01*
X163721429Y-73957142D01*
X163864286Y-73885714D01*
X163935714Y-73885714D01*
X164078571Y-73957142D01*
X164150000Y-74028571D01*
X164221429Y-74171428D01*
X164221429Y-74457142D01*
X164292857Y-74600000D01*
X164364286Y-74671428D01*
X164507143Y-74742857D01*
X164792857Y-74742857D01*
X164935714Y-74671428D01*
X165007143Y-74600000D01*
X165078571Y-74457142D01*
X165078571Y-74171428D01*
X165007143Y-74028571D01*
X164935714Y-73957142D01*
X164792857Y-73885714D01*
X164507143Y-73885714D01*
X164364286Y-73957142D01*
X164292857Y-74028571D01*
X164221429Y-74171428D01*
X163578571Y-72957143D02*
X163578571Y-72814286D01*
X163650000Y-72671429D01*
X163721429Y-72600000D01*
X163864286Y-72528571D01*
X164150000Y-72457143D01*
X164507143Y-72457143D01*
X164792857Y-72528571D01*
X164935714Y-72600000D01*
X165007143Y-72671429D01*
X165078571Y-72814286D01*
X165078571Y-72957143D01*
X165007143Y-73100000D01*
X164935714Y-73171429D01*
X164792857Y-73242857D01*
X164507143Y-73314286D01*
X164150000Y-73314286D01*
X163864286Y-73242857D01*
X163721429Y-73171429D01*
X163650000Y-73100000D01*
X163578571Y-72957143D01*
X165078571Y-71028572D02*
X165078571Y-71885715D01*
X165078571Y-71457143D02*
X163578571Y-71457143D01*
X163792857Y-71600000D01*
X163935714Y-71742858D01*
X164007143Y-71885715D01*
X163578571Y-70528572D02*
X163578571Y-69600001D01*
X164150000Y-70100001D01*
X164150000Y-69885715D01*
X164221429Y-69742858D01*
X164292857Y-69671429D01*
X164435714Y-69600001D01*
X164792857Y-69600001D01*
X164935714Y-69671429D01*
X165007143Y-69742858D01*
X165078571Y-69885715D01*
X165078571Y-70314287D01*
X165007143Y-70457144D01*
X164935714Y-70528572D01*
X163578571Y-68671430D02*
X163578571Y-68528573D01*
X163650000Y-68385716D01*
X163721429Y-68314287D01*
X163864286Y-68242858D01*
X164150000Y-68171430D01*
X164507143Y-68171430D01*
X164792857Y-68242858D01*
X164935714Y-68314287D01*
X165007143Y-68385716D01*
X165078571Y-68528573D01*
X165078571Y-68671430D01*
X165007143Y-68814287D01*
X164935714Y-68885716D01*
X164792857Y-68957144D01*
X164507143Y-69028573D01*
X164150000Y-69028573D01*
X163864286Y-68957144D01*
X163721429Y-68885716D01*
X163650000Y-68814287D01*
X163578571Y-68671430D01*
D12*
X110500900Y-30699160D02*
X121499100Y-29899060D01*
X110500900Y-31499260D02*
X121499100Y-30699160D01*
X110500900Y-32299360D02*
X121499100Y-31499260D01*
X110500900Y-33099460D02*
X121499100Y-32299360D01*
X110500900Y-33899560D02*
X121499100Y-33099460D01*
X110500900Y-34699660D02*
X121499100Y-33899560D01*
X117000760Y-19800020D02*
G75*
G03X117000760Y-19800020I-1000760J0D01*
G01*
X120800600Y-27801020D02*
X120800600Y-15799520D01*
X120800600Y-15799520D02*
X111199400Y-15799520D01*
X111199400Y-15799520D02*
X111199400Y-27801020D01*
X121499100Y-35299100D02*
X121499100Y-27801020D01*
X121499100Y-27801020D02*
X110500900Y-27801020D01*
X110500900Y-27801020D02*
X110500900Y-35299100D01*
X108199660Y-49700900D02*
X123800340Y-49700900D01*
X123800340Y-49700900D02*
X123800340Y-35299100D01*
X123800340Y-35299100D02*
X108199660Y-35299100D01*
X108199660Y-35299100D02*
X108199660Y-49700900D01*
X144500900Y-30699160D02*
X155499100Y-29899060D01*
X144500900Y-31499260D02*
X155499100Y-30699160D01*
X144500900Y-32299360D02*
X155499100Y-31499260D01*
X144500900Y-33099460D02*
X155499100Y-32299360D01*
X144500900Y-33899560D02*
X155499100Y-33099460D01*
X144500900Y-34699660D02*
X155499100Y-33899560D01*
X151000760Y-19800020D02*
G75*
G03X151000760Y-19800020I-1000760J0D01*
G01*
X154800600Y-27801020D02*
X154800600Y-15799520D01*
X154800600Y-15799520D02*
X145199400Y-15799520D01*
X145199400Y-15799520D02*
X145199400Y-27801020D01*
X155499100Y-35299100D02*
X155499100Y-27801020D01*
X155499100Y-27801020D02*
X144500900Y-27801020D01*
X144500900Y-27801020D02*
X144500900Y-35299100D01*
X142199660Y-49700900D02*
X157800340Y-49700900D01*
X157800340Y-49700900D02*
X157800340Y-35299100D01*
X157800340Y-35299100D02*
X142199660Y-35299100D01*
X142199660Y-35299100D02*
X142199660Y-49700900D01*
X93500900Y-30699160D02*
X104499100Y-29899060D01*
X93500900Y-31499260D02*
X104499100Y-30699160D01*
X93500900Y-32299360D02*
X104499100Y-31499260D01*
X93500900Y-33099460D02*
X104499100Y-32299360D01*
X93500900Y-33899560D02*
X104499100Y-33099460D01*
X93500900Y-34699660D02*
X104499100Y-33899560D01*
X100000760Y-19800020D02*
G75*
G03X100000760Y-19800020I-1000760J0D01*
G01*
X103800600Y-27801020D02*
X103800600Y-15799520D01*
X103800600Y-15799520D02*
X94199400Y-15799520D01*
X94199400Y-15799520D02*
X94199400Y-27801020D01*
X104499100Y-35299100D02*
X104499100Y-27801020D01*
X104499100Y-27801020D02*
X93500900Y-27801020D01*
X93500900Y-27801020D02*
X93500900Y-35299100D01*
X91199660Y-49700900D02*
X106800340Y-49700900D01*
X106800340Y-49700900D02*
X106800340Y-35299100D01*
X106800340Y-35299100D02*
X91199660Y-35299100D01*
X91199660Y-35299100D02*
X91199660Y-49700900D01*
X127500900Y-30699160D02*
X138499100Y-29899060D01*
X127500900Y-31499260D02*
X138499100Y-30699160D01*
X127500900Y-32299360D02*
X138499100Y-31499260D01*
X127500900Y-33099460D02*
X138499100Y-32299360D01*
X127500900Y-33899560D02*
X138499100Y-33099460D01*
X127500900Y-34699660D02*
X138499100Y-33899560D01*
X134000760Y-19800020D02*
G75*
G03X134000760Y-19800020I-1000760J0D01*
G01*
X137800600Y-27801020D02*
X137800600Y-15799520D01*
X137800600Y-15799520D02*
X128199400Y-15799520D01*
X128199400Y-15799520D02*
X128199400Y-27801020D01*
X138499100Y-35299100D02*
X138499100Y-27801020D01*
X138499100Y-27801020D02*
X127500900Y-27801020D01*
X127500900Y-27801020D02*
X127500900Y-35299100D01*
X125199660Y-49700900D02*
X140800340Y-49700900D01*
X140800340Y-49700900D02*
X140800340Y-35299100D01*
X140800340Y-35299100D02*
X125199660Y-35299100D01*
X125199660Y-35299100D02*
X125199660Y-49700900D01*
X68699160Y-79499100D02*
X67899060Y-68500900D01*
X69499260Y-79499100D02*
X68699160Y-68500900D01*
X70299360Y-79499100D02*
X69499260Y-68500900D01*
X71099460Y-79499100D02*
X70299360Y-68500900D01*
X71899560Y-79499100D02*
X71099460Y-68500900D01*
X72699660Y-79499100D02*
X71899560Y-68500900D01*
X58800780Y-74000000D02*
G75*
G03X58800780Y-74000000I-1000760J0D01*
G01*
X65801020Y-69199400D02*
X53799520Y-69199400D01*
X53799520Y-69199400D02*
X53799520Y-78800600D01*
X53799520Y-78800600D02*
X65801020Y-78800600D01*
X73299100Y-68500900D02*
X65801020Y-68500900D01*
X65801020Y-68500900D02*
X65801020Y-79499100D01*
X65801020Y-79499100D02*
X73299100Y-79499100D01*
X87700900Y-81800340D02*
X87700900Y-66199660D01*
X87700900Y-66199660D02*
X73299100Y-66199660D01*
X73299100Y-66199660D02*
X73299100Y-81800340D01*
X73299100Y-81800340D02*
X87700900Y-81800340D01*
X138499100Y-117300840D02*
X127500900Y-118100940D01*
X138499100Y-116500740D02*
X127500900Y-117300840D01*
X138499100Y-115700640D02*
X127500900Y-116500740D01*
X138499100Y-114900540D02*
X127500900Y-115700640D01*
X138499100Y-114100440D02*
X127500900Y-114900540D01*
X138499100Y-113300340D02*
X127500900Y-114100440D01*
X134000760Y-128199980D02*
G75*
G03X134000760Y-128199980I-1000760J0D01*
G01*
X128199400Y-120198980D02*
X128199400Y-132200480D01*
X128199400Y-132200480D02*
X137800600Y-132200480D01*
X137800600Y-132200480D02*
X137800600Y-120198980D01*
X127500900Y-112700900D02*
X127500900Y-120198980D01*
X127500900Y-120198980D02*
X138499100Y-120198980D01*
X138499100Y-120198980D02*
X138499100Y-112700900D01*
X140800340Y-98299100D02*
X125199660Y-98299100D01*
X125199660Y-98299100D02*
X125199660Y-112700900D01*
X125199660Y-112700900D02*
X140800340Y-112700900D01*
X140800340Y-112700900D02*
X140800340Y-98299100D01*
X104499100Y-117300840D02*
X93500900Y-118100940D01*
X104499100Y-116500740D02*
X93500900Y-117300840D01*
X104499100Y-115700640D02*
X93500900Y-116500740D01*
X104499100Y-114900540D02*
X93500900Y-115700640D01*
X104499100Y-114100440D02*
X93500900Y-114900540D01*
X104499100Y-113300340D02*
X93500900Y-114100440D01*
X100000760Y-128199980D02*
G75*
G03X100000760Y-128199980I-1000760J0D01*
G01*
X94199400Y-120198980D02*
X94199400Y-132200480D01*
X94199400Y-132200480D02*
X103800600Y-132200480D01*
X103800600Y-132200480D02*
X103800600Y-120198980D01*
X93500900Y-112700900D02*
X93500900Y-120198980D01*
X93500900Y-120198980D02*
X104499100Y-120198980D01*
X104499100Y-120198980D02*
X104499100Y-112700900D01*
X106800340Y-98299100D02*
X91199660Y-98299100D01*
X91199660Y-98299100D02*
X91199660Y-112700900D01*
X91199660Y-112700900D02*
X106800340Y-112700900D01*
X106800340Y-112700900D02*
X106800340Y-98299100D01*
X155499100Y-117300840D02*
X144500900Y-118100940D01*
X155499100Y-116500740D02*
X144500900Y-117300840D01*
X155499100Y-115700640D02*
X144500900Y-116500740D01*
X155499100Y-114900540D02*
X144500900Y-115700640D01*
X155499100Y-114100440D02*
X144500900Y-114900540D01*
X155499100Y-113300340D02*
X144500900Y-114100440D01*
X151000760Y-128199980D02*
G75*
G03X151000760Y-128199980I-1000760J0D01*
G01*
X145199400Y-120198980D02*
X145199400Y-132200480D01*
X145199400Y-132200480D02*
X154800600Y-132200480D01*
X154800600Y-132200480D02*
X154800600Y-120198980D01*
X144500900Y-112700900D02*
X144500900Y-120198980D01*
X144500900Y-120198980D02*
X155499100Y-120198980D01*
X155499100Y-120198980D02*
X155499100Y-112700900D01*
X157800340Y-98299100D02*
X142199660Y-98299100D01*
X142199660Y-98299100D02*
X142199660Y-112700900D01*
X142199660Y-112700900D02*
X157800340Y-112700900D01*
X157800340Y-112700900D02*
X157800340Y-98299100D01*
X121499100Y-117300840D02*
X110500900Y-118100940D01*
X121499100Y-116500740D02*
X110500900Y-117300840D01*
X121499100Y-115700640D02*
X110500900Y-116500740D01*
X121499100Y-114900540D02*
X110500900Y-115700640D01*
X121499100Y-114100440D02*
X110500900Y-114900540D01*
X121499100Y-113300340D02*
X110500900Y-114100440D01*
X117000760Y-128199980D02*
G75*
G03X117000760Y-128199980I-1000760J0D01*
G01*
X111199400Y-120198980D02*
X111199400Y-132200480D01*
X111199400Y-132200480D02*
X120800600Y-132200480D01*
X120800600Y-132200480D02*
X120800600Y-120198980D01*
X110500900Y-112700900D02*
X110500900Y-120198980D01*
X110500900Y-120198980D02*
X121499100Y-120198980D01*
X121499100Y-120198980D02*
X121499100Y-112700900D01*
X123800340Y-98299100D02*
X108199660Y-98299100D01*
X108199660Y-98299100D02*
X108199660Y-112700900D01*
X108199660Y-112700900D02*
X123800340Y-112700900D01*
X123800340Y-112700900D02*
X123800340Y-98299100D01*
D13*
X132090000Y-78190000D02*
X135410000Y-78190000D01*
X135410000Y-78190000D02*
X135410000Y-69070000D01*
X135410000Y-69070000D02*
X132090000Y-69070000D01*
X132090000Y-69070000D02*
X132090000Y-78190000D01*
X133750000Y-80270000D02*
X133750000Y-78190000D01*
X133750000Y-66990000D02*
X133750000Y-69070000D01*
X109000000Y-72150000D02*
X109000000Y-71800000D01*
X105000000Y-72150000D02*
X109000000Y-72150000D01*
X105000000Y-71800000D02*
X105000000Y-72150000D01*
X105000000Y-68200000D02*
X103400000Y-68200000D01*
X109000000Y-67850000D02*
X109000000Y-68200000D01*
X105000000Y-67850000D02*
X109000000Y-67850000D01*
X105000000Y-68200000D02*
X105000000Y-67850000D01*
X105000000Y-70750000D02*
X105000000Y-69250000D01*
X109000000Y-70750000D02*
X109000000Y-69250000D01*
X109000000Y-64650000D02*
X109000000Y-64300000D01*
X105000000Y-64650000D02*
X109000000Y-64650000D01*
X105000000Y-64300000D02*
X105000000Y-64650000D01*
X105000000Y-60700000D02*
X103400000Y-60700000D01*
X109000000Y-60350000D02*
X109000000Y-60700000D01*
X105000000Y-60350000D02*
X109000000Y-60350000D01*
X105000000Y-60700000D02*
X105000000Y-60350000D01*
X105000000Y-63250000D02*
X105000000Y-61750000D01*
X109000000Y-63250000D02*
X109000000Y-61750000D01*
X109000000Y-57150000D02*
X109000000Y-56800000D01*
X105000000Y-57150000D02*
X109000000Y-57150000D01*
X105000000Y-56800000D02*
X105000000Y-57150000D01*
X105000000Y-53200000D02*
X103400000Y-53200000D01*
X109000000Y-52850000D02*
X109000000Y-53200000D01*
X105000000Y-52850000D02*
X109000000Y-52850000D01*
X105000000Y-53200000D02*
X105000000Y-52850000D01*
X105000000Y-55750000D02*
X105000000Y-54250000D01*
X109000000Y-55750000D02*
X109000000Y-54250000D01*
X144000000Y-72150000D02*
X144000000Y-71800000D01*
X140000000Y-72150000D02*
X144000000Y-72150000D01*
X140000000Y-71800000D02*
X140000000Y-72150000D01*
X140000000Y-68200000D02*
X138400000Y-68200000D01*
X144000000Y-67850000D02*
X144000000Y-68200000D01*
X140000000Y-67850000D02*
X144000000Y-67850000D01*
X140000000Y-68200000D02*
X140000000Y-67850000D01*
X140000000Y-70750000D02*
X140000000Y-69250000D01*
X144000000Y-70750000D02*
X144000000Y-69250000D01*
X144000000Y-64650000D02*
X144000000Y-64300000D01*
X140000000Y-64650000D02*
X144000000Y-64650000D01*
X140000000Y-64300000D02*
X140000000Y-64650000D01*
X140000000Y-60700000D02*
X138400000Y-60700000D01*
X144000000Y-60350000D02*
X144000000Y-60700000D01*
X140000000Y-60350000D02*
X144000000Y-60350000D01*
X140000000Y-60700000D02*
X140000000Y-60350000D01*
X140000000Y-63250000D02*
X140000000Y-61750000D01*
X144000000Y-63250000D02*
X144000000Y-61750000D01*
X144000000Y-56150000D02*
X144000000Y-55800000D01*
X140000000Y-56150000D02*
X144000000Y-56150000D01*
X140000000Y-55800000D02*
X140000000Y-56150000D01*
X140000000Y-52200000D02*
X138400000Y-52200000D01*
X144000000Y-51850000D02*
X144000000Y-52200000D01*
X140000000Y-51850000D02*
X144000000Y-51850000D01*
X140000000Y-52200000D02*
X140000000Y-51850000D01*
X140000000Y-54750000D02*
X140000000Y-53250000D01*
X144000000Y-54750000D02*
X144000000Y-53250000D01*
X144000000Y-79150000D02*
X144000000Y-78800000D01*
X140000000Y-79150000D02*
X144000000Y-79150000D01*
X140000000Y-78800000D02*
X140000000Y-79150000D01*
X140000000Y-75200000D02*
X138400000Y-75200000D01*
X144000000Y-74850000D02*
X144000000Y-75200000D01*
X140000000Y-74850000D02*
X144000000Y-74850000D01*
X140000000Y-75200000D02*
X140000000Y-74850000D01*
X140000000Y-77750000D02*
X140000000Y-76250000D01*
X144000000Y-77750000D02*
X144000000Y-76250000D01*
X144000000Y-94150000D02*
X144000000Y-93800000D01*
X140000000Y-94150000D02*
X144000000Y-94150000D01*
X140000000Y-93800000D02*
X140000000Y-94150000D01*
X140000000Y-90200000D02*
X138400000Y-90200000D01*
X144000000Y-89850000D02*
X144000000Y-90200000D01*
X140000000Y-89850000D02*
X144000000Y-89850000D01*
X140000000Y-90200000D02*
X140000000Y-89850000D01*
X140000000Y-92750000D02*
X140000000Y-91250000D01*
X144000000Y-92750000D02*
X144000000Y-91250000D01*
X144000000Y-86650000D02*
X144000000Y-86300000D01*
X140000000Y-86650000D02*
X144000000Y-86650000D01*
X140000000Y-86300000D02*
X140000000Y-86650000D01*
X140000000Y-82700000D02*
X138400000Y-82700000D01*
X144000000Y-82350000D02*
X144000000Y-82700000D01*
X140000000Y-82350000D02*
X144000000Y-82350000D01*
X140000000Y-82700000D02*
X140000000Y-82350000D01*
X140000000Y-85250000D02*
X140000000Y-83750000D01*
X144000000Y-85250000D02*
X144000000Y-83750000D01*
X109000000Y-86650000D02*
X109000000Y-86300000D01*
X105000000Y-86650000D02*
X109000000Y-86650000D01*
X105000000Y-86300000D02*
X105000000Y-86650000D01*
X105000000Y-82700000D02*
X103400000Y-82700000D01*
X109000000Y-82350000D02*
X109000000Y-82700000D01*
X105000000Y-82350000D02*
X109000000Y-82350000D01*
X105000000Y-82700000D02*
X105000000Y-82350000D01*
X105000000Y-85250000D02*
X105000000Y-83750000D01*
X109000000Y-85250000D02*
X109000000Y-83750000D01*
X109000000Y-79150000D02*
X109000000Y-78800000D01*
X105000000Y-79150000D02*
X109000000Y-79150000D01*
X105000000Y-78800000D02*
X105000000Y-79150000D01*
X105000000Y-75200000D02*
X103400000Y-75200000D01*
X109000000Y-74850000D02*
X109000000Y-75200000D01*
X105000000Y-74850000D02*
X109000000Y-74850000D01*
X105000000Y-75200000D02*
X105000000Y-74850000D01*
X105000000Y-77750000D02*
X105000000Y-76250000D01*
X109000000Y-77750000D02*
X109000000Y-76250000D01*
X109000000Y-94150000D02*
X109000000Y-93800000D01*
X105000000Y-94150000D02*
X109000000Y-94150000D01*
X105000000Y-93800000D02*
X105000000Y-94150000D01*
X105000000Y-90200000D02*
X103400000Y-90200000D01*
X109000000Y-89850000D02*
X109000000Y-90200000D01*
X105000000Y-89850000D02*
X109000000Y-89850000D01*
X105000000Y-90200000D02*
X105000000Y-89850000D01*
X105000000Y-92750000D02*
X105000000Y-91250000D01*
X109000000Y-92750000D02*
X109000000Y-91250000D01*
D14*
G36*
X164268931Y-83644186D02*
X164713555Y-83560365D01*
X164841053Y-83251080D01*
X164968551Y-82941794D01*
X164716246Y-82570754D01*
X164645996Y-82466843D01*
X164583272Y-82372913D01*
X164530938Y-82293348D01*
X164491857Y-82232530D01*
X164468893Y-82194843D01*
X164463942Y-82184579D01*
X164476676Y-82166090D01*
X164511882Y-82126580D01*
X164565062Y-82070478D01*
X164631718Y-82002213D01*
X164707354Y-81926214D01*
X164787472Y-81846908D01*
X164867574Y-81768725D01*
X164943164Y-81696093D01*
X165009745Y-81633441D01*
X165062818Y-81585197D01*
X165097887Y-81555790D01*
X165109623Y-81548759D01*
X165131260Y-81558877D01*
X165178662Y-81587241D01*
X165247193Y-81630871D01*
X165332215Y-81686782D01*
X165429093Y-81751994D01*
X165484350Y-81789781D01*
X165585248Y-81858657D01*
X165676299Y-81919860D01*
X165752970Y-81970422D01*
X165810728Y-82007372D01*
X165845043Y-82027742D01*
X165852254Y-82030803D01*
X165872748Y-82023864D01*
X165920513Y-82004949D01*
X165988832Y-81976913D01*
X166070989Y-81942609D01*
X166160270Y-81904891D01*
X166249958Y-81866613D01*
X166333338Y-81830630D01*
X166403694Y-81799794D01*
X166454310Y-81776961D01*
X166478471Y-81764983D01*
X166479422Y-81764276D01*
X166484036Y-81745469D01*
X166494328Y-81695382D01*
X166509287Y-81619207D01*
X166527901Y-81522135D01*
X166549159Y-81409357D01*
X166561418Y-81343558D01*
X166584362Y-81223050D01*
X166606195Y-81114203D01*
X166625722Y-81022524D01*
X166641748Y-80953519D01*
X166653079Y-80912696D01*
X166656674Y-80904489D01*
X166681006Y-80896452D01*
X166735959Y-80889967D01*
X166815108Y-80885030D01*
X166912026Y-80881636D01*
X167020287Y-80879782D01*
X167133465Y-80879462D01*
X167245135Y-80880673D01*
X167348868Y-80883410D01*
X167438241Y-80887669D01*
X167506826Y-80893445D01*
X167548197Y-80900733D01*
X167556810Y-80905105D01*
X167567133Y-80931236D01*
X167581892Y-80986607D01*
X167599352Y-81063893D01*
X167617780Y-81155770D01*
X167623741Y-81187842D01*
X167652066Y-81342476D01*
X167674876Y-81464625D01*
X167693080Y-81558327D01*
X167707583Y-81627616D01*
X167719292Y-81676529D01*
X167729115Y-81709103D01*
X167737956Y-81729372D01*
X167746724Y-81741374D01*
X167748457Y-81743053D01*
X167776371Y-81759816D01*
X167830695Y-81785386D01*
X167904777Y-81817212D01*
X167991965Y-81852740D01*
X168085608Y-81889417D01*
X168179052Y-81924689D01*
X168265647Y-81956004D01*
X168338740Y-81980807D01*
X168391678Y-81996546D01*
X168417811Y-82000668D01*
X168418726Y-82000324D01*
X168440086Y-81986359D01*
X168487084Y-81954678D01*
X168554827Y-81908609D01*
X168638423Y-81851482D01*
X168732982Y-81786627D01*
X168759854Y-81768157D01*
X168857275Y-81702301D01*
X168946163Y-81644350D01*
X169021412Y-81597462D01*
X169077920Y-81564793D01*
X169110581Y-81549500D01*
X169114593Y-81548759D01*
X169135684Y-81561608D01*
X169177464Y-81597112D01*
X169235445Y-81650707D01*
X169305135Y-81717829D01*
X169382045Y-81793913D01*
X169461683Y-81874396D01*
X169539561Y-81954713D01*
X169611186Y-82030301D01*
X169672070Y-82096595D01*
X169717721Y-82149031D01*
X169743650Y-82183045D01*
X169747883Y-82192455D01*
X169737912Y-82214357D01*
X169711020Y-82259200D01*
X169671736Y-82319679D01*
X169640117Y-82366211D01*
X169582098Y-82450525D01*
X169513784Y-82550374D01*
X169445579Y-82650527D01*
X169409075Y-82704373D01*
X169285800Y-82886629D01*
X169368520Y-83039619D01*
X169404759Y-83109318D01*
X169432926Y-83168586D01*
X169448991Y-83208689D01*
X169451226Y-83218897D01*
X169434722Y-83231171D01*
X169388082Y-83255387D01*
X169315609Y-83289737D01*
X169221606Y-83332412D01*
X169110374Y-83381606D01*
X168986215Y-83435510D01*
X168853432Y-83492316D01*
X168716327Y-83550218D01*
X168579202Y-83607407D01*
X168446358Y-83662076D01*
X168322098Y-83712416D01*
X168210725Y-83756620D01*
X168116539Y-83792881D01*
X168043844Y-83819391D01*
X167996941Y-83834342D01*
X167980833Y-83836746D01*
X167960286Y-83817689D01*
X167926933Y-83775964D01*
X167887702Y-83720294D01*
X167884599Y-83715622D01*
X167769423Y-83571736D01*
X167635053Y-83455717D01*
X167485784Y-83368570D01*
X167325913Y-83311301D01*
X167159737Y-83284914D01*
X166991552Y-83290415D01*
X166825655Y-83328810D01*
X166666342Y-83401105D01*
X166631487Y-83422374D01*
X166490737Y-83533004D01*
X166377714Y-83663698D01*
X166293003Y-83809936D01*
X166237194Y-83967192D01*
X166210874Y-84130943D01*
X166214630Y-84296667D01*
X166249050Y-84459838D01*
X166314723Y-84615935D01*
X166412235Y-84760433D01*
X166451813Y-84805131D01*
X166575703Y-84918888D01*
X166706124Y-85001782D01*
X166852315Y-85058644D01*
X166997088Y-85090313D01*
X167159860Y-85098131D01*
X167323440Y-85072062D01*
X167482298Y-85014755D01*
X167630906Y-84928856D01*
X167763735Y-84817014D01*
X167875256Y-84681877D01*
X167887011Y-84664117D01*
X167925508Y-84607850D01*
X167958863Y-84565077D01*
X167980160Y-84544628D01*
X167980833Y-84544331D01*
X168003871Y-84548721D01*
X168056157Y-84566124D01*
X168133390Y-84594732D01*
X168231268Y-84632735D01*
X168345491Y-84678326D01*
X168471758Y-84729697D01*
X168605767Y-84785038D01*
X168743218Y-84842542D01*
X168879808Y-84900399D01*
X169011237Y-84956802D01*
X169133205Y-85009942D01*
X169241409Y-85058010D01*
X169331549Y-85099199D01*
X169399323Y-85131699D01*
X169440430Y-85153703D01*
X169451226Y-85162564D01*
X169442819Y-85189640D01*
X169420272Y-85240303D01*
X169387613Y-85305817D01*
X169368520Y-85341841D01*
X169285800Y-85494832D01*
X169409075Y-85677088D01*
X169472228Y-85770125D01*
X169541727Y-85871985D01*
X169607165Y-85967438D01*
X169640117Y-86015250D01*
X169685273Y-86082495D01*
X169721057Y-86139436D01*
X169742938Y-86178646D01*
X169747563Y-86191381D01*
X169735085Y-86209917D01*
X169700252Y-86250941D01*
X169646678Y-86310475D01*
X169577983Y-86384542D01*
X169497781Y-86469165D01*
X169446286Y-86522685D01*
X169354286Y-86616319D01*
X169271999Y-86697241D01*
X169202945Y-86762177D01*
X169150644Y-86807858D01*
X169118616Y-86831011D01*
X169112116Y-86833232D01*
X169087394Y-86822924D01*
X169037405Y-86794439D01*
X168967212Y-86750937D01*
X168881875Y-86695577D01*
X168786456Y-86631520D01*
X168759854Y-86613303D01*
X168663167Y-86546927D01*
X168576117Y-86487378D01*
X168503595Y-86437984D01*
X168450493Y-86402075D01*
X168421703Y-86382981D01*
X168418726Y-86381136D01*
X168395782Y-86383895D01*
X168345336Y-86398538D01*
X168274041Y-86422513D01*
X168188547Y-86453266D01*
X168095507Y-86488244D01*
X168001574Y-86524893D01*
X167913399Y-86560661D01*
X167837634Y-86592994D01*
X167780931Y-86619338D01*
X167749943Y-86637142D01*
X167748457Y-86638407D01*
X167739601Y-86649294D01*
X167730843Y-86667682D01*
X167721277Y-86697606D01*
X167709996Y-86743103D01*
X167696093Y-86808209D01*
X167678663Y-86896961D01*
X167656798Y-87013393D01*
X167629591Y-87161542D01*
X167623741Y-87193618D01*
X167605374Y-87288686D01*
X167587405Y-87371565D01*
X167571569Y-87434930D01*
X167559600Y-87471458D01*
X167556810Y-87476356D01*
X167532072Y-87484427D01*
X167476790Y-87490987D01*
X167397389Y-87496033D01*
X167300296Y-87499559D01*
X167191938Y-87501561D01*
X167078740Y-87502036D01*
X166967128Y-87500977D01*
X166863529Y-87498382D01*
X166774368Y-87494246D01*
X166706072Y-87488563D01*
X166665066Y-87481331D01*
X166656674Y-87476971D01*
X166648208Y-87452698D01*
X166634435Y-87397426D01*
X166616550Y-87316662D01*
X166595748Y-87215912D01*
X166573223Y-87100683D01*
X166561418Y-87037902D01*
X166539151Y-86918787D01*
X166518979Y-86812565D01*
X166501915Y-86724427D01*
X166488969Y-86659566D01*
X166481155Y-86623174D01*
X166479422Y-86617184D01*
X166459890Y-86607061D01*
X166412843Y-86585662D01*
X166345003Y-86555839D01*
X166263091Y-86520445D01*
X166173828Y-86482332D01*
X166083935Y-86444353D01*
X166000135Y-86409360D01*
X165929147Y-86380206D01*
X165877694Y-86359743D01*
X165852497Y-86350823D01*
X165851396Y-86350657D01*
X165831519Y-86360769D01*
X165785777Y-86389117D01*
X165718717Y-86432723D01*
X165634884Y-86488606D01*
X165538826Y-86553787D01*
X165483650Y-86591679D01*
X165382481Y-86660725D01*
X165290630Y-86722050D01*
X165212744Y-86772663D01*
X165153469Y-86809571D01*
X165117451Y-86829782D01*
X165109377Y-86832701D01*
X165090584Y-86820153D01*
X165050457Y-86785463D01*
X164993493Y-86733063D01*
X164924185Y-86667384D01*
X164847031Y-86592856D01*
X164766525Y-86513913D01*
X164687163Y-86434983D01*
X164613440Y-86360500D01*
X164549852Y-86294894D01*
X164500894Y-86242596D01*
X164471061Y-86208039D01*
X164463942Y-86196478D01*
X164473953Y-86177654D01*
X164502078Y-86132631D01*
X164545454Y-86065787D01*
X164601218Y-85981499D01*
X164666506Y-85884144D01*
X164716246Y-85810707D01*
X164968551Y-85439667D01*
X164713555Y-84821095D01*
X164268931Y-84737275D01*
X163824307Y-84653454D01*
X163824307Y-83728006D01*
X164268931Y-83644186D01*
X164268931Y-83644186D01*
G37*
X164268931Y-83644186D02*
X164713555Y-83560365D01*
X164841053Y-83251080D01*
X164968551Y-82941794D01*
X164716246Y-82570754D01*
X164645996Y-82466843D01*
X164583272Y-82372913D01*
X164530938Y-82293348D01*
X164491857Y-82232530D01*
X164468893Y-82194843D01*
X164463942Y-82184579D01*
X164476676Y-82166090D01*
X164511882Y-82126580D01*
X164565062Y-82070478D01*
X164631718Y-82002213D01*
X164707354Y-81926214D01*
X164787472Y-81846908D01*
X164867574Y-81768725D01*
X164943164Y-81696093D01*
X165009745Y-81633441D01*
X165062818Y-81585197D01*
X165097887Y-81555790D01*
X165109623Y-81548759D01*
X165131260Y-81558877D01*
X165178662Y-81587241D01*
X165247193Y-81630871D01*
X165332215Y-81686782D01*
X165429093Y-81751994D01*
X165484350Y-81789781D01*
X165585248Y-81858657D01*
X165676299Y-81919860D01*
X165752970Y-81970422D01*
X165810728Y-82007372D01*
X165845043Y-82027742D01*
X165852254Y-82030803D01*
X165872748Y-82023864D01*
X165920513Y-82004949D01*
X165988832Y-81976913D01*
X166070989Y-81942609D01*
X166160270Y-81904891D01*
X166249958Y-81866613D01*
X166333338Y-81830630D01*
X166403694Y-81799794D01*
X166454310Y-81776961D01*
X166478471Y-81764983D01*
X166479422Y-81764276D01*
X166484036Y-81745469D01*
X166494328Y-81695382D01*
X166509287Y-81619207D01*
X166527901Y-81522135D01*
X166549159Y-81409357D01*
X166561418Y-81343558D01*
X166584362Y-81223050D01*
X166606195Y-81114203D01*
X166625722Y-81022524D01*
X166641748Y-80953519D01*
X166653079Y-80912696D01*
X166656674Y-80904489D01*
X166681006Y-80896452D01*
X166735959Y-80889967D01*
X166815108Y-80885030D01*
X166912026Y-80881636D01*
X167020287Y-80879782D01*
X167133465Y-80879462D01*
X167245135Y-80880673D01*
X167348868Y-80883410D01*
X167438241Y-80887669D01*
X167506826Y-80893445D01*
X167548197Y-80900733D01*
X167556810Y-80905105D01*
X167567133Y-80931236D01*
X167581892Y-80986607D01*
X167599352Y-81063893D01*
X167617780Y-81155770D01*
X167623741Y-81187842D01*
X167652066Y-81342476D01*
X167674876Y-81464625D01*
X167693080Y-81558327D01*
X167707583Y-81627616D01*
X167719292Y-81676529D01*
X167729115Y-81709103D01*
X167737956Y-81729372D01*
X167746724Y-81741374D01*
X167748457Y-81743053D01*
X167776371Y-81759816D01*
X167830695Y-81785386D01*
X167904777Y-81817212D01*
X167991965Y-81852740D01*
X168085608Y-81889417D01*
X168179052Y-81924689D01*
X168265647Y-81956004D01*
X168338740Y-81980807D01*
X168391678Y-81996546D01*
X168417811Y-82000668D01*
X168418726Y-82000324D01*
X168440086Y-81986359D01*
X168487084Y-81954678D01*
X168554827Y-81908609D01*
X168638423Y-81851482D01*
X168732982Y-81786627D01*
X168759854Y-81768157D01*
X168857275Y-81702301D01*
X168946163Y-81644350D01*
X169021412Y-81597462D01*
X169077920Y-81564793D01*
X169110581Y-81549500D01*
X169114593Y-81548759D01*
X169135684Y-81561608D01*
X169177464Y-81597112D01*
X169235445Y-81650707D01*
X169305135Y-81717829D01*
X169382045Y-81793913D01*
X169461683Y-81874396D01*
X169539561Y-81954713D01*
X169611186Y-82030301D01*
X169672070Y-82096595D01*
X169717721Y-82149031D01*
X169743650Y-82183045D01*
X169747883Y-82192455D01*
X169737912Y-82214357D01*
X169711020Y-82259200D01*
X169671736Y-82319679D01*
X169640117Y-82366211D01*
X169582098Y-82450525D01*
X169513784Y-82550374D01*
X169445579Y-82650527D01*
X169409075Y-82704373D01*
X169285800Y-82886629D01*
X169368520Y-83039619D01*
X169404759Y-83109318D01*
X169432926Y-83168586D01*
X169448991Y-83208689D01*
X169451226Y-83218897D01*
X169434722Y-83231171D01*
X169388082Y-83255387D01*
X169315609Y-83289737D01*
X169221606Y-83332412D01*
X169110374Y-83381606D01*
X168986215Y-83435510D01*
X168853432Y-83492316D01*
X168716327Y-83550218D01*
X168579202Y-83607407D01*
X168446358Y-83662076D01*
X168322098Y-83712416D01*
X168210725Y-83756620D01*
X168116539Y-83792881D01*
X168043844Y-83819391D01*
X167996941Y-83834342D01*
X167980833Y-83836746D01*
X167960286Y-83817689D01*
X167926933Y-83775964D01*
X167887702Y-83720294D01*
X167884599Y-83715622D01*
X167769423Y-83571736D01*
X167635053Y-83455717D01*
X167485784Y-83368570D01*
X167325913Y-83311301D01*
X167159737Y-83284914D01*
X166991552Y-83290415D01*
X166825655Y-83328810D01*
X166666342Y-83401105D01*
X166631487Y-83422374D01*
X166490737Y-83533004D01*
X166377714Y-83663698D01*
X166293003Y-83809936D01*
X166237194Y-83967192D01*
X166210874Y-84130943D01*
X166214630Y-84296667D01*
X166249050Y-84459838D01*
X166314723Y-84615935D01*
X166412235Y-84760433D01*
X166451813Y-84805131D01*
X166575703Y-84918888D01*
X166706124Y-85001782D01*
X166852315Y-85058644D01*
X166997088Y-85090313D01*
X167159860Y-85098131D01*
X167323440Y-85072062D01*
X167482298Y-85014755D01*
X167630906Y-84928856D01*
X167763735Y-84817014D01*
X167875256Y-84681877D01*
X167887011Y-84664117D01*
X167925508Y-84607850D01*
X167958863Y-84565077D01*
X167980160Y-84544628D01*
X167980833Y-84544331D01*
X168003871Y-84548721D01*
X168056157Y-84566124D01*
X168133390Y-84594732D01*
X168231268Y-84632735D01*
X168345491Y-84678326D01*
X168471758Y-84729697D01*
X168605767Y-84785038D01*
X168743218Y-84842542D01*
X168879808Y-84900399D01*
X169011237Y-84956802D01*
X169133205Y-85009942D01*
X169241409Y-85058010D01*
X169331549Y-85099199D01*
X169399323Y-85131699D01*
X169440430Y-85153703D01*
X169451226Y-85162564D01*
X169442819Y-85189640D01*
X169420272Y-85240303D01*
X169387613Y-85305817D01*
X169368520Y-85341841D01*
X169285800Y-85494832D01*
X169409075Y-85677088D01*
X169472228Y-85770125D01*
X169541727Y-85871985D01*
X169607165Y-85967438D01*
X169640117Y-86015250D01*
X169685273Y-86082495D01*
X169721057Y-86139436D01*
X169742938Y-86178646D01*
X169747563Y-86191381D01*
X169735085Y-86209917D01*
X169700252Y-86250941D01*
X169646678Y-86310475D01*
X169577983Y-86384542D01*
X169497781Y-86469165D01*
X169446286Y-86522685D01*
X169354286Y-86616319D01*
X169271999Y-86697241D01*
X169202945Y-86762177D01*
X169150644Y-86807858D01*
X169118616Y-86831011D01*
X169112116Y-86833232D01*
X169087394Y-86822924D01*
X169037405Y-86794439D01*
X168967212Y-86750937D01*
X168881875Y-86695577D01*
X168786456Y-86631520D01*
X168759854Y-86613303D01*
X168663167Y-86546927D01*
X168576117Y-86487378D01*
X168503595Y-86437984D01*
X168450493Y-86402075D01*
X168421703Y-86382981D01*
X168418726Y-86381136D01*
X168395782Y-86383895D01*
X168345336Y-86398538D01*
X168274041Y-86422513D01*
X168188547Y-86453266D01*
X168095507Y-86488244D01*
X168001574Y-86524893D01*
X167913399Y-86560661D01*
X167837634Y-86592994D01*
X167780931Y-86619338D01*
X167749943Y-86637142D01*
X167748457Y-86638407D01*
X167739601Y-86649294D01*
X167730843Y-86667682D01*
X167721277Y-86697606D01*
X167709996Y-86743103D01*
X167696093Y-86808209D01*
X167678663Y-86896961D01*
X167656798Y-87013393D01*
X167629591Y-87161542D01*
X167623741Y-87193618D01*
X167605374Y-87288686D01*
X167587405Y-87371565D01*
X167571569Y-87434930D01*
X167559600Y-87471458D01*
X167556810Y-87476356D01*
X167532072Y-87484427D01*
X167476790Y-87490987D01*
X167397389Y-87496033D01*
X167300296Y-87499559D01*
X167191938Y-87501561D01*
X167078740Y-87502036D01*
X166967128Y-87500977D01*
X166863529Y-87498382D01*
X166774368Y-87494246D01*
X166706072Y-87488563D01*
X166665066Y-87481331D01*
X166656674Y-87476971D01*
X166648208Y-87452698D01*
X166634435Y-87397426D01*
X166616550Y-87316662D01*
X166595748Y-87215912D01*
X166573223Y-87100683D01*
X166561418Y-87037902D01*
X166539151Y-86918787D01*
X166518979Y-86812565D01*
X166501915Y-86724427D01*
X166488969Y-86659566D01*
X166481155Y-86623174D01*
X166479422Y-86617184D01*
X166459890Y-86607061D01*
X166412843Y-86585662D01*
X166345003Y-86555839D01*
X166263091Y-86520445D01*
X166173828Y-86482332D01*
X166083935Y-86444353D01*
X166000135Y-86409360D01*
X165929147Y-86380206D01*
X165877694Y-86359743D01*
X165852497Y-86350823D01*
X165851396Y-86350657D01*
X165831519Y-86360769D01*
X165785777Y-86389117D01*
X165718717Y-86432723D01*
X165634884Y-86488606D01*
X165538826Y-86553787D01*
X165483650Y-86591679D01*
X165382481Y-86660725D01*
X165290630Y-86722050D01*
X165212744Y-86772663D01*
X165153469Y-86809571D01*
X165117451Y-86829782D01*
X165109377Y-86832701D01*
X165090584Y-86820153D01*
X165050457Y-86785463D01*
X164993493Y-86733063D01*
X164924185Y-86667384D01*
X164847031Y-86592856D01*
X164766525Y-86513913D01*
X164687163Y-86434983D01*
X164613440Y-86360500D01*
X164549852Y-86294894D01*
X164500894Y-86242596D01*
X164471061Y-86208039D01*
X164463942Y-86196478D01*
X164473953Y-86177654D01*
X164502078Y-86132631D01*
X164545454Y-86065787D01*
X164601218Y-85981499D01*
X164666506Y-85884144D01*
X164716246Y-85810707D01*
X164968551Y-85439667D01*
X164713555Y-84821095D01*
X164268931Y-84737275D01*
X163824307Y-84653454D01*
X163824307Y-83728006D01*
X164268931Y-83644186D01*
D13*
X96090000Y-77190000D02*
X99410000Y-77190000D01*
X99410000Y-77190000D02*
X99410000Y-68070000D01*
X99410000Y-68070000D02*
X96090000Y-68070000D01*
X96090000Y-68070000D02*
X96090000Y-77190000D01*
X97750000Y-79270000D02*
X97750000Y-77190000D01*
X97750000Y-65990000D02*
X97750000Y-68070000D01*
X163890000Y-47690000D02*
X171060000Y-47690000D01*
X163890000Y-57310000D02*
X171060000Y-57310000D01*
X163890000Y-47690000D02*
X163890000Y-57310000D01*
X171060000Y-47690000D02*
X171060000Y-57310000D01*
X171060000Y-48940000D02*
X176060000Y-48940000D01*
X171060000Y-56060000D02*
X176060000Y-56060000D01*
X171060000Y-48940000D02*
X171060000Y-56060000D01*
X176060000Y-48940000D02*
X176060000Y-56060000D01*
X176060000Y-49440000D02*
X186061000Y-49440000D01*
X176060000Y-55560000D02*
X186061000Y-55560000D01*
X176060000Y-49440000D02*
X176060000Y-55560000D01*
X186061000Y-49440000D02*
X186061000Y-55560000D01*
X80110000Y-57310000D02*
X72940000Y-57310000D01*
X80110000Y-47690000D02*
X72940000Y-47690000D01*
X80110000Y-57310000D02*
X80110000Y-47690000D01*
X72940000Y-57310000D02*
X72940000Y-47690000D01*
X72940000Y-56060000D02*
X67940000Y-56060000D01*
X72940000Y-48940000D02*
X67940000Y-48940000D01*
X72940000Y-56060000D02*
X72940000Y-48940000D01*
X67940000Y-56060000D02*
X67940000Y-48940000D01*
X67940000Y-55560000D02*
X57939000Y-55560000D01*
X67940000Y-49440000D02*
X57939000Y-49440000D01*
X67940000Y-55560000D02*
X67940000Y-49440000D01*
X57939000Y-55560000D02*
X57939000Y-49440000D01*
X163890000Y-90690000D02*
X171060000Y-90690000D01*
X163890000Y-100310000D02*
X171060000Y-100310000D01*
X163890000Y-90690000D02*
X163890000Y-100310000D01*
X171060000Y-90690000D02*
X171060000Y-100310000D01*
X171060000Y-91940000D02*
X176060000Y-91940000D01*
X171060000Y-99060000D02*
X176060000Y-99060000D01*
X171060000Y-91940000D02*
X171060000Y-99060000D01*
X176060000Y-91940000D02*
X176060000Y-99060000D01*
X176060000Y-92440000D02*
X186061000Y-92440000D01*
X176060000Y-98560000D02*
X186061000Y-98560000D01*
X176060000Y-92440000D02*
X176060000Y-98560000D01*
X186061000Y-92440000D02*
X186061000Y-98560000D01*
X80110000Y-100310000D02*
X72940000Y-100310000D01*
X80110000Y-90690000D02*
X72940000Y-90690000D01*
X80110000Y-100310000D02*
X80110000Y-90690000D01*
X72940000Y-100310000D02*
X72940000Y-90690000D01*
X72940000Y-99060000D02*
X67940000Y-99060000D01*
X72940000Y-91940000D02*
X67940000Y-91940000D01*
X72940000Y-99060000D02*
X72940000Y-91940000D01*
X67940000Y-99060000D02*
X67940000Y-91940000D01*
X67940000Y-98560000D02*
X57939000Y-98560000D01*
X67940000Y-92440000D02*
X57939000Y-92440000D01*
X67940000Y-98560000D02*
X67940000Y-92440000D01*
X57939000Y-98560000D02*
X57939000Y-92440000D01*
D12*
X115769905Y-52604381D02*
X115769905Y-51604381D01*
X116150858Y-51604381D01*
X116246096Y-51652000D01*
X116293715Y-51699619D01*
X116341334Y-51794857D01*
X116341334Y-51937714D01*
X116293715Y-52032952D01*
X116246096Y-52080571D01*
X116150858Y-52128190D01*
X115769905Y-52128190D01*
X117293715Y-52604381D02*
X116722286Y-52604381D01*
X117008000Y-52604381D02*
X117008000Y-51604381D01*
X116912762Y-51747238D01*
X116817524Y-51842476D01*
X116722286Y-51890095D01*
X109380953Y-36952381D02*
X108904762Y-36952381D01*
X108904762Y-35952381D01*
X109714286Y-36428571D02*
X110047620Y-36428571D01*
X110190477Y-36952381D02*
X109714286Y-36952381D01*
X109714286Y-35952381D01*
X110190477Y-35952381D01*
X110619048Y-36952381D02*
X110619048Y-35952381D01*
X110857143Y-35952381D01*
X111000001Y-36000000D01*
X111095239Y-36095238D01*
X111142858Y-36190476D01*
X111190477Y-36380952D01*
X111190477Y-36523810D01*
X111142858Y-36714286D01*
X111095239Y-36809524D01*
X111000001Y-36904762D01*
X110857143Y-36952381D01*
X110619048Y-36952381D01*
X112047620Y-36285714D02*
X112047620Y-36952381D01*
X111809524Y-35904762D02*
X111571429Y-36619048D01*
X112190477Y-36619048D01*
X149769905Y-52604381D02*
X149769905Y-51604381D01*
X150150858Y-51604381D01*
X150246096Y-51652000D01*
X150293715Y-51699619D01*
X150341334Y-51794857D01*
X150341334Y-51937714D01*
X150293715Y-52032952D01*
X150246096Y-52080571D01*
X150150858Y-52128190D01*
X149769905Y-52128190D01*
X150722286Y-51699619D02*
X150769905Y-51652000D01*
X150865143Y-51604381D01*
X151103239Y-51604381D01*
X151198477Y-51652000D01*
X151246096Y-51699619D01*
X151293715Y-51794857D01*
X151293715Y-51890095D01*
X151246096Y-52032952D01*
X150674667Y-52604381D01*
X151293715Y-52604381D01*
X143480953Y-36852381D02*
X143004762Y-36852381D01*
X143004762Y-35852381D01*
X143814286Y-36328571D02*
X144147620Y-36328571D01*
X144290477Y-36852381D02*
X143814286Y-36852381D01*
X143814286Y-35852381D01*
X144290477Y-35852381D01*
X144719048Y-36852381D02*
X144719048Y-35852381D01*
X144957143Y-35852381D01*
X145100001Y-35900000D01*
X145195239Y-35995238D01*
X145242858Y-36090476D01*
X145290477Y-36280952D01*
X145290477Y-36423810D01*
X145242858Y-36614286D01*
X145195239Y-36709524D01*
X145100001Y-36804762D01*
X144957143Y-36852381D01*
X144719048Y-36852381D01*
X145623810Y-35852381D02*
X146242858Y-35852381D01*
X145909524Y-36233333D01*
X146052382Y-36233333D01*
X146147620Y-36280952D01*
X146195239Y-36328571D01*
X146242858Y-36423810D01*
X146242858Y-36661905D01*
X146195239Y-36757143D01*
X146147620Y-36804762D01*
X146052382Y-36852381D01*
X145766667Y-36852381D01*
X145671429Y-36804762D01*
X145623810Y-36757143D01*
X98769905Y-52604381D02*
X98769905Y-51604381D01*
X99150858Y-51604381D01*
X99246096Y-51652000D01*
X99293715Y-51699619D01*
X99341334Y-51794857D01*
X99341334Y-51937714D01*
X99293715Y-52032952D01*
X99246096Y-52080571D01*
X99150858Y-52128190D01*
X98769905Y-52128190D01*
X99674667Y-51604381D02*
X100293715Y-51604381D01*
X99960381Y-51985333D01*
X100103239Y-51985333D01*
X100198477Y-52032952D01*
X100246096Y-52080571D01*
X100293715Y-52175810D01*
X100293715Y-52413905D01*
X100246096Y-52509143D01*
X100198477Y-52556762D01*
X100103239Y-52604381D01*
X99817524Y-52604381D01*
X99722286Y-52556762D01*
X99674667Y-52509143D01*
X92333334Y-36952381D02*
X91857143Y-36952381D01*
X91857143Y-35952381D01*
X93238096Y-36857143D02*
X93190477Y-36904762D01*
X93047620Y-36952381D01*
X92952382Y-36952381D01*
X92809524Y-36904762D01*
X92714286Y-36809524D01*
X92666667Y-36714286D01*
X92619048Y-36523810D01*
X92619048Y-36380952D01*
X92666667Y-36190476D01*
X92714286Y-36095238D01*
X92809524Y-36000000D01*
X92952382Y-35952381D01*
X93047620Y-35952381D01*
X93190477Y-36000000D01*
X93238096Y-36047619D01*
X94238096Y-36952381D02*
X93904762Y-36476190D01*
X93666667Y-36952381D02*
X93666667Y-35952381D01*
X94047620Y-35952381D01*
X94142858Y-36000000D01*
X94190477Y-36047619D01*
X94238096Y-36142857D01*
X94238096Y-36285714D01*
X94190477Y-36380952D01*
X94142858Y-36428571D01*
X94047620Y-36476190D01*
X93666667Y-36476190D01*
X95095239Y-36285714D02*
X95095239Y-36952381D01*
X94857143Y-35904762D02*
X94619048Y-36619048D01*
X95238096Y-36619048D01*
X132769905Y-52604381D02*
X132769905Y-51604381D01*
X133150858Y-51604381D01*
X133246096Y-51652000D01*
X133293715Y-51699619D01*
X133341334Y-51794857D01*
X133341334Y-51937714D01*
X133293715Y-52032952D01*
X133246096Y-52080571D01*
X133150858Y-52128190D01*
X132769905Y-52128190D01*
X134198477Y-51937714D02*
X134198477Y-52604381D01*
X133960381Y-51556762D02*
X133722286Y-52271048D01*
X134341334Y-52271048D01*
X126433334Y-36852381D02*
X125957143Y-36852381D01*
X125957143Y-35852381D01*
X127338096Y-36757143D02*
X127290477Y-36804762D01*
X127147620Y-36852381D01*
X127052382Y-36852381D01*
X126909524Y-36804762D01*
X126814286Y-36709524D01*
X126766667Y-36614286D01*
X126719048Y-36423810D01*
X126719048Y-36280952D01*
X126766667Y-36090476D01*
X126814286Y-35995238D01*
X126909524Y-35900000D01*
X127052382Y-35852381D01*
X127147620Y-35852381D01*
X127290477Y-35900000D01*
X127338096Y-35947619D01*
X128338096Y-36852381D02*
X128004762Y-36376190D01*
X127766667Y-36852381D02*
X127766667Y-35852381D01*
X128147620Y-35852381D01*
X128242858Y-35900000D01*
X128290477Y-35947619D01*
X128338096Y-36042857D01*
X128338096Y-36185714D01*
X128290477Y-36280952D01*
X128242858Y-36328571D01*
X128147620Y-36376190D01*
X127766667Y-36376190D01*
X128671429Y-35852381D02*
X129290477Y-35852381D01*
X128957143Y-36233333D01*
X129100001Y-36233333D01*
X129195239Y-36280952D01*
X129242858Y-36328571D01*
X129290477Y-36423810D01*
X129290477Y-36661905D01*
X129242858Y-36757143D01*
X129195239Y-36804762D01*
X129100001Y-36852381D01*
X128814286Y-36852381D01*
X128719048Y-36804762D01*
X128671429Y-36757143D01*
X90604381Y-74230095D02*
X89604381Y-74230095D01*
X89604381Y-73849142D01*
X89652000Y-73753904D01*
X89699619Y-73706285D01*
X89794857Y-73658666D01*
X89937714Y-73658666D01*
X90032952Y-73706285D01*
X90080571Y-73753904D01*
X90128190Y-73849142D01*
X90128190Y-74230095D01*
X89604381Y-72753904D02*
X89604381Y-73230095D01*
X90080571Y-73277714D01*
X90032952Y-73230095D01*
X89985333Y-73134857D01*
X89985333Y-72896761D01*
X90032952Y-72801523D01*
X90080571Y-72753904D01*
X90175810Y-72706285D01*
X90413905Y-72706285D01*
X90509143Y-72753904D01*
X90556762Y-72801523D01*
X90604381Y-72896761D01*
X90604381Y-73134857D01*
X90556762Y-73230095D01*
X90509143Y-73277714D01*
X77271428Y-65652381D02*
X77271428Y-64652381D01*
X77271428Y-65033333D02*
X77366666Y-64985714D01*
X77557143Y-64985714D01*
X77652381Y-65033333D01*
X77700000Y-65080952D01*
X77747619Y-65176190D01*
X77747619Y-65461905D01*
X77700000Y-65557143D01*
X77652381Y-65604762D01*
X77557143Y-65652381D01*
X77366666Y-65652381D01*
X77271428Y-65604762D01*
X78319047Y-65652381D02*
X78223809Y-65604762D01*
X78176190Y-65509524D01*
X78176190Y-64652381D01*
X79128572Y-65652381D02*
X79128572Y-65128571D01*
X79080953Y-65033333D01*
X78985715Y-64985714D01*
X78795238Y-64985714D01*
X78700000Y-65033333D01*
X79128572Y-65604762D02*
X79033334Y-65652381D01*
X78795238Y-65652381D01*
X78700000Y-65604762D01*
X78652381Y-65509524D01*
X78652381Y-65414286D01*
X78700000Y-65319048D01*
X78795238Y-65271429D01*
X79033334Y-65271429D01*
X79128572Y-65223810D01*
X79604762Y-64985714D02*
X79604762Y-65652381D01*
X79604762Y-65080952D02*
X79652381Y-65033333D01*
X79747619Y-64985714D01*
X79890477Y-64985714D01*
X79985715Y-65033333D01*
X80033334Y-65128571D01*
X80033334Y-65652381D01*
X80509524Y-65652381D02*
X80509524Y-64652381D01*
X80604762Y-65271429D02*
X80890477Y-65652381D01*
X80890477Y-64985714D02*
X80509524Y-65366667D01*
X81319048Y-65652381D02*
X81319048Y-64985714D01*
X81319048Y-64652381D02*
X81271429Y-64700000D01*
X81319048Y-64747619D01*
X81366667Y-64700000D01*
X81319048Y-64652381D01*
X81319048Y-64747619D01*
X81795238Y-64985714D02*
X81795238Y-65652381D01*
X81795238Y-65080952D02*
X81842857Y-65033333D01*
X81938095Y-64985714D01*
X82080953Y-64985714D01*
X82176191Y-65033333D01*
X82223810Y-65128571D01*
X82223810Y-65652381D01*
X83128572Y-64985714D02*
X83128572Y-65795238D01*
X83080953Y-65890476D01*
X83033334Y-65938095D01*
X82938095Y-65985714D01*
X82795238Y-65985714D01*
X82700000Y-65938095D01*
X83128572Y-65604762D02*
X83033334Y-65652381D01*
X82842857Y-65652381D01*
X82747619Y-65604762D01*
X82700000Y-65557143D01*
X82652381Y-65461905D01*
X82652381Y-65176190D01*
X82700000Y-65080952D01*
X82747619Y-65033333D01*
X82842857Y-64985714D01*
X83033334Y-64985714D01*
X83128572Y-65033333D01*
X131753905Y-96300381D02*
X131753905Y-95300381D01*
X132134858Y-95300381D01*
X132230096Y-95348000D01*
X132277715Y-95395619D01*
X132325334Y-95490857D01*
X132325334Y-95633714D01*
X132277715Y-95728952D01*
X132230096Y-95776571D01*
X132134858Y-95824190D01*
X131753905Y-95824190D01*
X133182477Y-95300381D02*
X132992000Y-95300381D01*
X132896762Y-95348000D01*
X132849143Y-95395619D01*
X132753905Y-95538476D01*
X132706286Y-95728952D01*
X132706286Y-96109905D01*
X132753905Y-96205143D01*
X132801524Y-96252762D01*
X132896762Y-96300381D01*
X133087239Y-96300381D01*
X133182477Y-96252762D01*
X133230096Y-96205143D01*
X133277715Y-96109905D01*
X133277715Y-95871810D01*
X133230096Y-95776571D01*
X133182477Y-95728952D01*
X133087239Y-95681333D01*
X132896762Y-95681333D01*
X132801524Y-95728952D01*
X132753905Y-95776571D01*
X132706286Y-95871810D01*
X126333334Y-111952381D02*
X125857143Y-111952381D01*
X125857143Y-110952381D01*
X127238096Y-111857143D02*
X127190477Y-111904762D01*
X127047620Y-111952381D01*
X126952382Y-111952381D01*
X126809524Y-111904762D01*
X126714286Y-111809524D01*
X126666667Y-111714286D01*
X126619048Y-111523810D01*
X126619048Y-111380952D01*
X126666667Y-111190476D01*
X126714286Y-111095238D01*
X126809524Y-111000000D01*
X126952382Y-110952381D01*
X127047620Y-110952381D01*
X127190477Y-111000000D01*
X127238096Y-111047619D01*
X128238096Y-111952381D02*
X127904762Y-111476190D01*
X127666667Y-111952381D02*
X127666667Y-110952381D01*
X128047620Y-110952381D01*
X128142858Y-111000000D01*
X128190477Y-111047619D01*
X128238096Y-111142857D01*
X128238096Y-111285714D01*
X128190477Y-111380952D01*
X128142858Y-111428571D01*
X128047620Y-111476190D01*
X127666667Y-111476190D01*
X128619048Y-111047619D02*
X128666667Y-111000000D01*
X128761905Y-110952381D01*
X129000001Y-110952381D01*
X129095239Y-111000000D01*
X129142858Y-111047619D01*
X129190477Y-111142857D01*
X129190477Y-111238095D01*
X129142858Y-111380952D01*
X128571429Y-111952381D01*
X129190477Y-111952381D01*
X97753905Y-96300381D02*
X97753905Y-95300381D01*
X98134858Y-95300381D01*
X98230096Y-95348000D01*
X98277715Y-95395619D01*
X98325334Y-95490857D01*
X98325334Y-95633714D01*
X98277715Y-95728952D01*
X98230096Y-95776571D01*
X98134858Y-95824190D01*
X97753905Y-95824190D01*
X98658667Y-95300381D02*
X99325334Y-95300381D01*
X98896762Y-96300381D01*
X92333334Y-112452381D02*
X91857143Y-112452381D01*
X91857143Y-111452381D01*
X93238096Y-112357143D02*
X93190477Y-112404762D01*
X93047620Y-112452381D01*
X92952382Y-112452381D01*
X92809524Y-112404762D01*
X92714286Y-112309524D01*
X92666667Y-112214286D01*
X92619048Y-112023810D01*
X92619048Y-111880952D01*
X92666667Y-111690476D01*
X92714286Y-111595238D01*
X92809524Y-111500000D01*
X92952382Y-111452381D01*
X93047620Y-111452381D01*
X93190477Y-111500000D01*
X93238096Y-111547619D01*
X94238096Y-112452381D02*
X93904762Y-111976190D01*
X93666667Y-112452381D02*
X93666667Y-111452381D01*
X94047620Y-111452381D01*
X94142858Y-111500000D01*
X94190477Y-111547619D01*
X94238096Y-111642857D01*
X94238096Y-111785714D01*
X94190477Y-111880952D01*
X94142858Y-111928571D01*
X94047620Y-111976190D01*
X93666667Y-111976190D01*
X95190477Y-112452381D02*
X94619048Y-112452381D01*
X94904762Y-112452381D02*
X94904762Y-111452381D01*
X94809524Y-111595238D01*
X94714286Y-111690476D01*
X94619048Y-111738095D01*
X148753905Y-96300381D02*
X148753905Y-95300381D01*
X149134858Y-95300381D01*
X149230096Y-95348000D01*
X149277715Y-95395619D01*
X149325334Y-95490857D01*
X149325334Y-95633714D01*
X149277715Y-95728952D01*
X149230096Y-95776571D01*
X149134858Y-95824190D01*
X148753905Y-95824190D01*
X149896762Y-95728952D02*
X149801524Y-95681333D01*
X149753905Y-95633714D01*
X149706286Y-95538476D01*
X149706286Y-95490857D01*
X149753905Y-95395619D01*
X149801524Y-95348000D01*
X149896762Y-95300381D01*
X150087239Y-95300381D01*
X150182477Y-95348000D01*
X150230096Y-95395619D01*
X150277715Y-95490857D01*
X150277715Y-95538476D01*
X150230096Y-95633714D01*
X150182477Y-95681333D01*
X150087239Y-95728952D01*
X149896762Y-95728952D01*
X149801524Y-95776571D01*
X149753905Y-95824190D01*
X149706286Y-95919429D01*
X149706286Y-96109905D01*
X149753905Y-96205143D01*
X149801524Y-96252762D01*
X149896762Y-96300381D01*
X150087239Y-96300381D01*
X150182477Y-96252762D01*
X150230096Y-96205143D01*
X150277715Y-96109905D01*
X150277715Y-95919429D01*
X150230096Y-95824190D01*
X150182477Y-95776571D01*
X150087239Y-95728952D01*
X143380953Y-111952381D02*
X142904762Y-111952381D01*
X142904762Y-110952381D01*
X143714286Y-111428571D02*
X144047620Y-111428571D01*
X144190477Y-111952381D02*
X143714286Y-111952381D01*
X143714286Y-110952381D01*
X144190477Y-110952381D01*
X144619048Y-111952381D02*
X144619048Y-110952381D01*
X144857143Y-110952381D01*
X145000001Y-111000000D01*
X145095239Y-111095238D01*
X145142858Y-111190476D01*
X145190477Y-111380952D01*
X145190477Y-111523810D01*
X145142858Y-111714286D01*
X145095239Y-111809524D01*
X145000001Y-111904762D01*
X144857143Y-111952381D01*
X144619048Y-111952381D01*
X145571429Y-111047619D02*
X145619048Y-111000000D01*
X145714286Y-110952381D01*
X145952382Y-110952381D01*
X146047620Y-111000000D01*
X146095239Y-111047619D01*
X146142858Y-111142857D01*
X146142858Y-111238095D01*
X146095239Y-111380952D01*
X145523810Y-111952381D01*
X146142858Y-111952381D01*
X114753905Y-96300381D02*
X114753905Y-95300381D01*
X115134858Y-95300381D01*
X115230096Y-95348000D01*
X115277715Y-95395619D01*
X115325334Y-95490857D01*
X115325334Y-95633714D01*
X115277715Y-95728952D01*
X115230096Y-95776571D01*
X115134858Y-95824190D01*
X114753905Y-95824190D01*
X115801524Y-96300381D02*
X115992000Y-96300381D01*
X116087239Y-96252762D01*
X116134858Y-96205143D01*
X116230096Y-96062286D01*
X116277715Y-95871810D01*
X116277715Y-95490857D01*
X116230096Y-95395619D01*
X116182477Y-95348000D01*
X116087239Y-95300381D01*
X115896762Y-95300381D01*
X115801524Y-95348000D01*
X115753905Y-95395619D01*
X115706286Y-95490857D01*
X115706286Y-95728952D01*
X115753905Y-95824190D01*
X115801524Y-95871810D01*
X115896762Y-95919429D01*
X116087239Y-95919429D01*
X116182477Y-95871810D01*
X116230096Y-95824190D01*
X116277715Y-95728952D01*
X108880953Y-112452381D02*
X108404762Y-112452381D01*
X108404762Y-111452381D01*
X109214286Y-111928571D02*
X109547620Y-111928571D01*
X109690477Y-112452381D02*
X109214286Y-112452381D01*
X109214286Y-111452381D01*
X109690477Y-111452381D01*
X110119048Y-112452381D02*
X110119048Y-111452381D01*
X110357143Y-111452381D01*
X110500001Y-111500000D01*
X110595239Y-111595238D01*
X110642858Y-111690476D01*
X110690477Y-111880952D01*
X110690477Y-112023810D01*
X110642858Y-112214286D01*
X110595239Y-112309524D01*
X110500001Y-112404762D01*
X110357143Y-112452381D01*
X110119048Y-112452381D01*
X111642858Y-112452381D02*
X111071429Y-112452381D01*
X111357143Y-112452381D02*
X111357143Y-111452381D01*
X111261905Y-111595238D01*
X111166667Y-111690476D01*
X111071429Y-111738095D01*
X131542381Y-73796666D02*
X131066190Y-74130000D01*
X131542381Y-74368095D02*
X130542381Y-74368095D01*
X130542381Y-73987142D01*
X130590000Y-73891904D01*
X130637619Y-73844285D01*
X130732857Y-73796666D01*
X130875714Y-73796666D01*
X130970952Y-73844285D01*
X131018571Y-73891904D01*
X131066190Y-73987142D01*
X131066190Y-74368095D01*
X130542381Y-73463333D02*
X130542381Y-72844285D01*
X130923333Y-73177619D01*
X130923333Y-73034761D01*
X130970952Y-72939523D01*
X131018571Y-72891904D01*
X131113810Y-72844285D01*
X131351905Y-72844285D01*
X131447143Y-72891904D01*
X131494762Y-72939523D01*
X131542381Y-73034761D01*
X131542381Y-73320476D01*
X131494762Y-73415714D01*
X131447143Y-73463333D01*
X106238095Y-65952381D02*
X106238095Y-66761905D01*
X106285714Y-66857143D01*
X106333333Y-66904762D01*
X106428571Y-66952381D01*
X106619048Y-66952381D01*
X106714286Y-66904762D01*
X106761905Y-66857143D01*
X106809524Y-66761905D01*
X106809524Y-65952381D01*
X107809524Y-66952381D02*
X107238095Y-66952381D01*
X107523809Y-66952381D02*
X107523809Y-65952381D01*
X107428571Y-66095238D01*
X107333333Y-66190476D01*
X107238095Y-66238095D01*
X106238095Y-58452381D02*
X106238095Y-59261905D01*
X106285714Y-59357143D01*
X106333333Y-59404762D01*
X106428571Y-59452381D01*
X106619048Y-59452381D01*
X106714286Y-59404762D01*
X106761905Y-59357143D01*
X106809524Y-59261905D01*
X106809524Y-58452381D01*
X107238095Y-58547619D02*
X107285714Y-58500000D01*
X107380952Y-58452381D01*
X107619048Y-58452381D01*
X107714286Y-58500000D01*
X107761905Y-58547619D01*
X107809524Y-58642857D01*
X107809524Y-58738095D01*
X107761905Y-58880952D01*
X107190476Y-59452381D01*
X107809524Y-59452381D01*
X106238095Y-50952381D02*
X106238095Y-51761905D01*
X106285714Y-51857143D01*
X106333333Y-51904762D01*
X106428571Y-51952381D01*
X106619048Y-51952381D01*
X106714286Y-51904762D01*
X106761905Y-51857143D01*
X106809524Y-51761905D01*
X106809524Y-50952381D01*
X107190476Y-50952381D02*
X107809524Y-50952381D01*
X107476190Y-51333333D01*
X107619048Y-51333333D01*
X107714286Y-51380952D01*
X107761905Y-51428571D01*
X107809524Y-51523810D01*
X107809524Y-51761905D01*
X107761905Y-51857143D01*
X107714286Y-51904762D01*
X107619048Y-51952381D01*
X107333333Y-51952381D01*
X107238095Y-51904762D01*
X107190476Y-51857143D01*
X141238095Y-65952381D02*
X141238095Y-66761905D01*
X141285714Y-66857143D01*
X141333333Y-66904762D01*
X141428571Y-66952381D01*
X141619048Y-66952381D01*
X141714286Y-66904762D01*
X141761905Y-66857143D01*
X141809524Y-66761905D01*
X141809524Y-65952381D01*
X142714286Y-66285714D02*
X142714286Y-66952381D01*
X142476190Y-65904762D02*
X142238095Y-66619048D01*
X142857143Y-66619048D01*
X141238095Y-58452381D02*
X141238095Y-59261905D01*
X141285714Y-59357143D01*
X141333333Y-59404762D01*
X141428571Y-59452381D01*
X141619048Y-59452381D01*
X141714286Y-59404762D01*
X141761905Y-59357143D01*
X141809524Y-59261905D01*
X141809524Y-58452381D01*
X142761905Y-58452381D02*
X142285714Y-58452381D01*
X142238095Y-58928571D01*
X142285714Y-58880952D01*
X142380952Y-58833333D01*
X142619048Y-58833333D01*
X142714286Y-58880952D01*
X142761905Y-58928571D01*
X142809524Y-59023810D01*
X142809524Y-59261905D01*
X142761905Y-59357143D01*
X142714286Y-59404762D01*
X142619048Y-59452381D01*
X142380952Y-59452381D01*
X142285714Y-59404762D01*
X142238095Y-59357143D01*
X141238095Y-49952381D02*
X141238095Y-50761905D01*
X141285714Y-50857143D01*
X141333333Y-50904762D01*
X141428571Y-50952381D01*
X141619048Y-50952381D01*
X141714286Y-50904762D01*
X141761905Y-50857143D01*
X141809524Y-50761905D01*
X141809524Y-49952381D01*
X142714286Y-49952381D02*
X142523809Y-49952381D01*
X142428571Y-50000000D01*
X142380952Y-50047619D01*
X142285714Y-50190476D01*
X142238095Y-50380952D01*
X142238095Y-50761905D01*
X142285714Y-50857143D01*
X142333333Y-50904762D01*
X142428571Y-50952381D01*
X142619048Y-50952381D01*
X142714286Y-50904762D01*
X142761905Y-50857143D01*
X142809524Y-50761905D01*
X142809524Y-50523810D01*
X142761905Y-50428571D01*
X142714286Y-50380952D01*
X142619048Y-50333333D01*
X142428571Y-50333333D01*
X142333333Y-50380952D01*
X142285714Y-50428571D01*
X142238095Y-50523810D01*
X141238095Y-72952381D02*
X141238095Y-73761905D01*
X141285714Y-73857143D01*
X141333333Y-73904762D01*
X141428571Y-73952381D01*
X141619048Y-73952381D01*
X141714286Y-73904762D01*
X141761905Y-73857143D01*
X141809524Y-73761905D01*
X141809524Y-72952381D01*
X142190476Y-72952381D02*
X142857143Y-72952381D01*
X142428571Y-73952381D01*
X141238095Y-87952381D02*
X141238095Y-88761905D01*
X141285714Y-88857143D01*
X141333333Y-88904762D01*
X141428571Y-88952381D01*
X141619048Y-88952381D01*
X141714286Y-88904762D01*
X141761905Y-88857143D01*
X141809524Y-88761905D01*
X141809524Y-87952381D01*
X142428571Y-88380952D02*
X142333333Y-88333333D01*
X142285714Y-88285714D01*
X142238095Y-88190476D01*
X142238095Y-88142857D01*
X142285714Y-88047619D01*
X142333333Y-88000000D01*
X142428571Y-87952381D01*
X142619048Y-87952381D01*
X142714286Y-88000000D01*
X142761905Y-88047619D01*
X142809524Y-88142857D01*
X142809524Y-88190476D01*
X142761905Y-88285714D01*
X142714286Y-88333333D01*
X142619048Y-88380952D01*
X142428571Y-88380952D01*
X142333333Y-88428571D01*
X142285714Y-88476190D01*
X142238095Y-88571429D01*
X142238095Y-88761905D01*
X142285714Y-88857143D01*
X142333333Y-88904762D01*
X142428571Y-88952381D01*
X142619048Y-88952381D01*
X142714286Y-88904762D01*
X142761905Y-88857143D01*
X142809524Y-88761905D01*
X142809524Y-88571429D01*
X142761905Y-88476190D01*
X142714286Y-88428571D01*
X142619048Y-88380952D01*
X141238095Y-80452381D02*
X141238095Y-81261905D01*
X141285714Y-81357143D01*
X141333333Y-81404762D01*
X141428571Y-81452381D01*
X141619048Y-81452381D01*
X141714286Y-81404762D01*
X141761905Y-81357143D01*
X141809524Y-81261905D01*
X141809524Y-80452381D01*
X142333333Y-81452381D02*
X142523809Y-81452381D01*
X142619048Y-81404762D01*
X142666667Y-81357143D01*
X142761905Y-81214286D01*
X142809524Y-81023810D01*
X142809524Y-80642857D01*
X142761905Y-80547619D01*
X142714286Y-80500000D01*
X142619048Y-80452381D01*
X142428571Y-80452381D01*
X142333333Y-80500000D01*
X142285714Y-80547619D01*
X142238095Y-80642857D01*
X142238095Y-80880952D01*
X142285714Y-80976190D01*
X142333333Y-81023810D01*
X142428571Y-81071429D01*
X142619048Y-81071429D01*
X142714286Y-81023810D01*
X142761905Y-80976190D01*
X142809524Y-80880952D01*
X105761905Y-80452381D02*
X105761905Y-81261905D01*
X105809524Y-81357143D01*
X105857143Y-81404762D01*
X105952381Y-81452381D01*
X106142858Y-81452381D01*
X106238096Y-81404762D01*
X106285715Y-81357143D01*
X106333334Y-81261905D01*
X106333334Y-80452381D01*
X107333334Y-81452381D02*
X106761905Y-81452381D01*
X107047619Y-81452381D02*
X107047619Y-80452381D01*
X106952381Y-80595238D01*
X106857143Y-80690476D01*
X106761905Y-80738095D01*
X107952381Y-80452381D02*
X108047620Y-80452381D01*
X108142858Y-80500000D01*
X108190477Y-80547619D01*
X108238096Y-80642857D01*
X108285715Y-80833333D01*
X108285715Y-81071429D01*
X108238096Y-81261905D01*
X108190477Y-81357143D01*
X108142858Y-81404762D01*
X108047620Y-81452381D01*
X107952381Y-81452381D01*
X107857143Y-81404762D01*
X107809524Y-81357143D01*
X107761905Y-81261905D01*
X107714286Y-81071429D01*
X107714286Y-80833333D01*
X107761905Y-80642857D01*
X107809524Y-80547619D01*
X107857143Y-80500000D01*
X107952381Y-80452381D01*
X105761905Y-72952381D02*
X105761905Y-73761905D01*
X105809524Y-73857143D01*
X105857143Y-73904762D01*
X105952381Y-73952381D01*
X106142858Y-73952381D01*
X106238096Y-73904762D01*
X106285715Y-73857143D01*
X106333334Y-73761905D01*
X106333334Y-72952381D01*
X107333334Y-73952381D02*
X106761905Y-73952381D01*
X107047619Y-73952381D02*
X107047619Y-72952381D01*
X106952381Y-73095238D01*
X106857143Y-73190476D01*
X106761905Y-73238095D01*
X108285715Y-73952381D02*
X107714286Y-73952381D01*
X108000000Y-73952381D02*
X108000000Y-72952381D01*
X107904762Y-73095238D01*
X107809524Y-73190476D01*
X107714286Y-73238095D01*
X105761905Y-87952381D02*
X105761905Y-88761905D01*
X105809524Y-88857143D01*
X105857143Y-88904762D01*
X105952381Y-88952381D01*
X106142858Y-88952381D01*
X106238096Y-88904762D01*
X106285715Y-88857143D01*
X106333334Y-88761905D01*
X106333334Y-87952381D01*
X107333334Y-88952381D02*
X106761905Y-88952381D01*
X107047619Y-88952381D02*
X107047619Y-87952381D01*
X106952381Y-88095238D01*
X106857143Y-88190476D01*
X106761905Y-88238095D01*
X107714286Y-88047619D02*
X107761905Y-88000000D01*
X107857143Y-87952381D01*
X108095239Y-87952381D01*
X108190477Y-88000000D01*
X108238096Y-88047619D01*
X108285715Y-88142857D01*
X108285715Y-88238095D01*
X108238096Y-88380952D01*
X107666667Y-88952381D01*
X108285715Y-88952381D01*
X67666667Y-37452381D02*
X67333333Y-36976190D01*
X67095238Y-37452381D02*
X67095238Y-36452381D01*
X67476191Y-36452381D01*
X67571429Y-36500000D01*
X67619048Y-36547619D01*
X67666667Y-36642857D01*
X67666667Y-36785714D01*
X67619048Y-36880952D01*
X67571429Y-36928571D01*
X67476191Y-36976190D01*
X67095238Y-36976190D01*
X68095238Y-36928571D02*
X68428572Y-36928571D01*
X68571429Y-37452381D02*
X68095238Y-37452381D01*
X68095238Y-36452381D01*
X68571429Y-36452381D01*
X69333334Y-36928571D02*
X69000000Y-36928571D01*
X69000000Y-37452381D02*
X69000000Y-36452381D01*
X69476191Y-36452381D01*
X70000000Y-36452381D02*
X70000000Y-36690476D01*
X69761905Y-36595238D02*
X70000000Y-36690476D01*
X70238096Y-36595238D01*
X69857143Y-36880952D02*
X70000000Y-36690476D01*
X70142858Y-36880952D01*
X70761905Y-36452381D02*
X70761905Y-36690476D01*
X70523810Y-36595238D02*
X70761905Y-36690476D01*
X71000001Y-36595238D01*
X70619048Y-36880952D02*
X70761905Y-36690476D01*
X70904763Y-36880952D01*
X174666667Y-37952381D02*
X174333333Y-37476190D01*
X174095238Y-37952381D02*
X174095238Y-36952381D01*
X174476191Y-36952381D01*
X174571429Y-37000000D01*
X174619048Y-37047619D01*
X174666667Y-37142857D01*
X174666667Y-37285714D01*
X174619048Y-37380952D01*
X174571429Y-37428571D01*
X174476191Y-37476190D01*
X174095238Y-37476190D01*
X175095238Y-37428571D02*
X175428572Y-37428571D01*
X175571429Y-37952381D02*
X175095238Y-37952381D01*
X175095238Y-36952381D01*
X175571429Y-36952381D01*
X176333334Y-37428571D02*
X176000000Y-37428571D01*
X176000000Y-37952381D02*
X176000000Y-36952381D01*
X176476191Y-36952381D01*
X177000000Y-36952381D02*
X177000000Y-37190476D01*
X176761905Y-37095238D02*
X177000000Y-37190476D01*
X177238096Y-37095238D01*
X176857143Y-37380952D02*
X177000000Y-37190476D01*
X177142858Y-37380952D01*
X177761905Y-36952381D02*
X177761905Y-37190476D01*
X177523810Y-37095238D02*
X177761905Y-37190476D01*
X178000001Y-37095238D01*
X177619048Y-37380952D02*
X177761905Y-37190476D01*
X177904763Y-37380952D01*
X176166667Y-105452381D02*
X175833333Y-104976190D01*
X175595238Y-105452381D02*
X175595238Y-104452381D01*
X175976191Y-104452381D01*
X176071429Y-104500000D01*
X176119048Y-104547619D01*
X176166667Y-104642857D01*
X176166667Y-104785714D01*
X176119048Y-104880952D01*
X176071429Y-104928571D01*
X175976191Y-104976190D01*
X175595238Y-104976190D01*
X176595238Y-104928571D02*
X176928572Y-104928571D01*
X177071429Y-105452381D02*
X176595238Y-105452381D01*
X176595238Y-104452381D01*
X177071429Y-104452381D01*
X177833334Y-104928571D02*
X177500000Y-104928571D01*
X177500000Y-105452381D02*
X177500000Y-104452381D01*
X177976191Y-104452381D01*
X178500000Y-104452381D02*
X178500000Y-104690476D01*
X178261905Y-104595238D02*
X178500000Y-104690476D01*
X178738096Y-104595238D01*
X178357143Y-104880952D02*
X178500000Y-104690476D01*
X178642858Y-104880952D01*
X179261905Y-104452381D02*
X179261905Y-104690476D01*
X179023810Y-104595238D02*
X179261905Y-104690476D01*
X179500001Y-104595238D01*
X179119048Y-104880952D02*
X179261905Y-104690476D01*
X179404763Y-104880952D01*
X95542381Y-72796666D02*
X95066190Y-73130000D01*
X95542381Y-73368095D02*
X94542381Y-73368095D01*
X94542381Y-72987142D01*
X94590000Y-72891904D01*
X94637619Y-72844285D01*
X94732857Y-72796666D01*
X94875714Y-72796666D01*
X94970952Y-72844285D01*
X95018571Y-72891904D01*
X95066190Y-72987142D01*
X95066190Y-73368095D01*
X94542381Y-71939523D02*
X94542381Y-72130000D01*
X94590000Y-72225238D01*
X94637619Y-72272857D01*
X94780476Y-72368095D01*
X94970952Y-72415714D01*
X95351905Y-72415714D01*
X95447143Y-72368095D01*
X95494762Y-72320476D01*
X95542381Y-72225238D01*
X95542381Y-72034761D01*
X95494762Y-71939523D01*
X95447143Y-71891904D01*
X95351905Y-71844285D01*
X95113810Y-71844285D01*
X95018571Y-71891904D01*
X94970952Y-71939523D01*
X94923333Y-72034761D01*
X94923333Y-72225238D01*
X94970952Y-72320476D01*
X95018571Y-72368095D01*
X95113810Y-72415714D01*
X165404762Y-46952381D02*
X165071428Y-46476190D01*
X164833333Y-46952381D02*
X164833333Y-45952381D01*
X165214286Y-45952381D01*
X165309524Y-46000000D01*
X165357143Y-46047619D01*
X165404762Y-46142857D01*
X165404762Y-46285714D01*
X165357143Y-46380952D01*
X165309524Y-46428571D01*
X165214286Y-46476190D01*
X164833333Y-46476190D01*
X165690476Y-45952381D02*
X166023809Y-46952381D01*
X166357143Y-45952381D01*
X166642857Y-46047619D02*
X166690476Y-46000000D01*
X166785714Y-45952381D01*
X167023810Y-45952381D01*
X167119048Y-46000000D01*
X167166667Y-46047619D01*
X167214286Y-46142857D01*
X167214286Y-46238095D01*
X167166667Y-46380952D01*
X166595238Y-46952381D01*
X167214286Y-46952381D01*
X77404762Y-58952381D02*
X77071428Y-58476190D01*
X76833333Y-58952381D02*
X76833333Y-57952381D01*
X77214286Y-57952381D01*
X77309524Y-58000000D01*
X77357143Y-58047619D01*
X77404762Y-58142857D01*
X77404762Y-58285714D01*
X77357143Y-58380952D01*
X77309524Y-58428571D01*
X77214286Y-58476190D01*
X76833333Y-58476190D01*
X77690476Y-57952381D02*
X78023809Y-58952381D01*
X78357143Y-57952381D01*
X79214286Y-58952381D02*
X78642857Y-58952381D01*
X78928571Y-58952381D02*
X78928571Y-57952381D01*
X78833333Y-58095238D01*
X78738095Y-58190476D01*
X78642857Y-58238095D01*
X165404762Y-89952381D02*
X165071428Y-89476190D01*
X164833333Y-89952381D02*
X164833333Y-88952381D01*
X165214286Y-88952381D01*
X165309524Y-89000000D01*
X165357143Y-89047619D01*
X165404762Y-89142857D01*
X165404762Y-89285714D01*
X165357143Y-89380952D01*
X165309524Y-89428571D01*
X165214286Y-89476190D01*
X164833333Y-89476190D01*
X165690476Y-88952381D02*
X166023809Y-89952381D01*
X166357143Y-88952381D01*
X166595238Y-88952381D02*
X167214286Y-88952381D01*
X166880952Y-89333333D01*
X167023810Y-89333333D01*
X167119048Y-89380952D01*
X167166667Y-89428571D01*
X167214286Y-89523810D01*
X167214286Y-89761905D01*
X167166667Y-89857143D01*
X167119048Y-89904762D01*
X167023810Y-89952381D01*
X166738095Y-89952381D01*
X166642857Y-89904762D01*
X166595238Y-89857143D01*
X77404762Y-101952381D02*
X77071428Y-101476190D01*
X76833333Y-101952381D02*
X76833333Y-100952381D01*
X77214286Y-100952381D01*
X77309524Y-101000000D01*
X77357143Y-101047619D01*
X77404762Y-101142857D01*
X77404762Y-101285714D01*
X77357143Y-101380952D01*
X77309524Y-101428571D01*
X77214286Y-101476190D01*
X76833333Y-101476190D01*
X77690476Y-100952381D02*
X78023809Y-101952381D01*
X78357143Y-100952381D01*
X79119048Y-101285714D02*
X79119048Y-101952381D01*
X78880952Y-100904762D02*
X78642857Y-101619048D01*
X79261905Y-101619048D01*
X77285715Y-88952381D02*
X76809524Y-88952381D01*
X76761905Y-89428571D01*
X76809524Y-89380952D01*
X76904762Y-89333333D01*
X77142858Y-89333333D01*
X77238096Y-89380952D01*
X77285715Y-89428571D01*
X77333334Y-89523810D01*
X77333334Y-89761905D01*
X77285715Y-89857143D01*
X77238096Y-89904762D01*
X77142858Y-89952381D01*
X76904762Y-89952381D01*
X76809524Y-89904762D01*
X76761905Y-89857143D01*
X77952381Y-88952381D02*
X78047620Y-88952381D01*
X78142858Y-89000000D01*
X78190477Y-89047619D01*
X78238096Y-89142857D01*
X78285715Y-89333333D01*
X78285715Y-89571429D01*
X78238096Y-89761905D01*
X78190477Y-89857143D01*
X78142858Y-89904762D01*
X78047620Y-89952381D01*
X77952381Y-89952381D01*
X77857143Y-89904762D01*
X77809524Y-89857143D01*
X77761905Y-89761905D01*
X77714286Y-89571429D01*
X77714286Y-89333333D01*
X77761905Y-89142857D01*
X77809524Y-89047619D01*
X77857143Y-89000000D01*
X77952381Y-88952381D01*
X78904762Y-88952381D02*
X79000001Y-88952381D01*
X79095239Y-89000000D01*
X79142858Y-89047619D01*
X79190477Y-89142857D01*
X79238096Y-89333333D01*
X79238096Y-89571429D01*
X79190477Y-89761905D01*
X79142858Y-89857143D01*
X79095239Y-89904762D01*
X79000001Y-89952381D01*
X78904762Y-89952381D01*
X78809524Y-89904762D01*
X78761905Y-89857143D01*
X78714286Y-89761905D01*
X78666667Y-89571429D01*
X78666667Y-89333333D01*
X78714286Y-89142857D01*
X78761905Y-89047619D01*
X78809524Y-89000000D01*
X78904762Y-88952381D01*
X68666667Y-103452381D02*
X68333333Y-102976190D01*
X68095238Y-103452381D02*
X68095238Y-102452381D01*
X68476191Y-102452381D01*
X68571429Y-102500000D01*
X68619048Y-102547619D01*
X68666667Y-102642857D01*
X68666667Y-102785714D01*
X68619048Y-102880952D01*
X68571429Y-102928571D01*
X68476191Y-102976190D01*
X68095238Y-102976190D01*
X69095238Y-102928571D02*
X69428572Y-102928571D01*
X69571429Y-103452381D02*
X69095238Y-103452381D01*
X69095238Y-102452381D01*
X69571429Y-102452381D01*
X70333334Y-102928571D02*
X70000000Y-102928571D01*
X70000000Y-103452381D02*
X70000000Y-102452381D01*
X70476191Y-102452381D01*
X71000000Y-102452381D02*
X71000000Y-102690476D01*
X70761905Y-102595238D02*
X71000000Y-102690476D01*
X71238096Y-102595238D01*
X70857143Y-102880952D02*
X71000000Y-102690476D01*
X71142858Y-102880952D01*
X71761905Y-102452381D02*
X71761905Y-102690476D01*
X71523810Y-102595238D02*
X71761905Y-102690476D01*
X72000001Y-102595238D01*
X71619048Y-102880952D02*
X71761905Y-102690476D01*
X71904763Y-102880952D01*
M02*
