G04 #@! TF.FileFunction,Other,Fab,Top*
%FSLAX46Y46*%
G04 Gerber Fmt 4.6, Leading zero omitted, Abs format (unit mm)*
G04 Created by KiCad (PCBNEW 4.0.2-stable) date 30/01/2018 13:09:08*
%MOMM*%
G01*
G04 APERTURE LIST*
%ADD10C,0.100000*%
%ADD11C,0.150000*%
%ADD12C,0.120000*%
G04 APERTURE END LIST*
D10*
X132150000Y-78130000D02*
X135350000Y-78130000D01*
X135350000Y-78130000D02*
X135350000Y-69130000D01*
X135350000Y-69130000D02*
X132150000Y-69130000D01*
X132150000Y-69130000D02*
X132150000Y-78130000D01*
X133750000Y-81250000D02*
X133750000Y-78130000D01*
X133750000Y-66010000D02*
X133750000Y-69130000D01*
X106095000Y-67955500D02*
X108905000Y-67955500D01*
X105095000Y-72044500D02*
X108905000Y-72044500D01*
X108905000Y-72044500D02*
X108905000Y-67955500D01*
X105095000Y-72044500D02*
X105095000Y-68955500D01*
X105095000Y-68955500D02*
X106095000Y-67955500D01*
X106095000Y-60455500D02*
X108905000Y-60455500D01*
X105095000Y-64544500D02*
X108905000Y-64544500D01*
X108905000Y-64544500D02*
X108905000Y-60455500D01*
X105095000Y-64544500D02*
X105095000Y-61455500D01*
X105095000Y-61455500D02*
X106095000Y-60455500D01*
X106095000Y-52955500D02*
X108905000Y-52955500D01*
X105095000Y-57044500D02*
X108905000Y-57044500D01*
X108905000Y-57044500D02*
X108905000Y-52955500D01*
X105095000Y-57044500D02*
X105095000Y-53955500D01*
X105095000Y-53955500D02*
X106095000Y-52955500D01*
X141095000Y-67955500D02*
X143905000Y-67955500D01*
X140095000Y-72044500D02*
X143905000Y-72044500D01*
X143905000Y-72044500D02*
X143905000Y-67955500D01*
X140095000Y-72044500D02*
X140095000Y-68955500D01*
X140095000Y-68955500D02*
X141095000Y-67955500D01*
X141095000Y-60455500D02*
X143905000Y-60455500D01*
X140095000Y-64544500D02*
X143905000Y-64544500D01*
X143905000Y-64544500D02*
X143905000Y-60455500D01*
X140095000Y-64544500D02*
X140095000Y-61455500D01*
X140095000Y-61455500D02*
X141095000Y-60455500D01*
X141095000Y-51955500D02*
X143905000Y-51955500D01*
X140095000Y-56044500D02*
X143905000Y-56044500D01*
X143905000Y-56044500D02*
X143905000Y-51955500D01*
X140095000Y-56044500D02*
X140095000Y-52955500D01*
X140095000Y-52955500D02*
X141095000Y-51955500D01*
X141095000Y-74955500D02*
X143905000Y-74955500D01*
X140095000Y-79044500D02*
X143905000Y-79044500D01*
X143905000Y-79044500D02*
X143905000Y-74955500D01*
X140095000Y-79044500D02*
X140095000Y-75955500D01*
X140095000Y-75955500D02*
X141095000Y-74955500D01*
X141095000Y-89955500D02*
X143905000Y-89955500D01*
X140095000Y-94044500D02*
X143905000Y-94044500D01*
X143905000Y-94044500D02*
X143905000Y-89955500D01*
X140095000Y-94044500D02*
X140095000Y-90955500D01*
X140095000Y-90955500D02*
X141095000Y-89955500D01*
X141095000Y-82455500D02*
X143905000Y-82455500D01*
X140095000Y-86544500D02*
X143905000Y-86544500D01*
X143905000Y-86544500D02*
X143905000Y-82455500D01*
X140095000Y-86544500D02*
X140095000Y-83455500D01*
X140095000Y-83455500D02*
X141095000Y-82455500D01*
X106095000Y-82455500D02*
X108905000Y-82455500D01*
X105095000Y-86544500D02*
X108905000Y-86544500D01*
X108905000Y-86544500D02*
X108905000Y-82455500D01*
X105095000Y-86544500D02*
X105095000Y-83455500D01*
X105095000Y-83455500D02*
X106095000Y-82455500D01*
X106095000Y-74955500D02*
X108905000Y-74955500D01*
X105095000Y-79044500D02*
X108905000Y-79044500D01*
X108905000Y-79044500D02*
X108905000Y-74955500D01*
X105095000Y-79044500D02*
X105095000Y-75955500D01*
X105095000Y-75955500D02*
X106095000Y-74955500D01*
X106095000Y-89955500D02*
X108905000Y-89955500D01*
X105095000Y-94044500D02*
X108905000Y-94044500D01*
X108905000Y-94044500D02*
X108905000Y-89955500D01*
X105095000Y-94044500D02*
X105095000Y-90955500D01*
X105095000Y-90955500D02*
X106095000Y-89955500D01*
X96150000Y-77130000D02*
X99350000Y-77130000D01*
X99350000Y-77130000D02*
X99350000Y-68130000D01*
X99350000Y-68130000D02*
X96150000Y-68130000D01*
X96150000Y-68130000D02*
X96150000Y-77130000D01*
X97750000Y-80250000D02*
X97750000Y-77130000D01*
X97750000Y-65010000D02*
X97750000Y-68130000D01*
X163950000Y-47750000D02*
X163950000Y-57250000D01*
X163950000Y-57250000D02*
X171000000Y-57250000D01*
X171000000Y-57250000D02*
X171000000Y-47750000D01*
X171000000Y-47750000D02*
X163950000Y-47750000D01*
X171000000Y-49000000D02*
X171000000Y-56000000D01*
X171000000Y-56000000D02*
X176000000Y-56000000D01*
X176000000Y-56000000D02*
X176000000Y-49000000D01*
X176000000Y-49000000D02*
X171000000Y-49000000D01*
X176000000Y-49500000D02*
X176000000Y-55500000D01*
X176000000Y-55500000D02*
X186000000Y-55500000D01*
X186000000Y-55500000D02*
X186000000Y-49500000D01*
X186000000Y-49500000D02*
X176000000Y-49500000D01*
X80050000Y-57250000D02*
X80050000Y-47750000D01*
X80050000Y-47750000D02*
X73000000Y-47750000D01*
X73000000Y-47750000D02*
X73000000Y-57250000D01*
X73000000Y-57250000D02*
X80050000Y-57250000D01*
X73000000Y-56000000D02*
X73000000Y-49000000D01*
X73000000Y-49000000D02*
X68000000Y-49000000D01*
X68000000Y-49000000D02*
X68000000Y-56000000D01*
X68000000Y-56000000D02*
X73000000Y-56000000D01*
X68000000Y-55500000D02*
X68000000Y-49500000D01*
X68000000Y-49500000D02*
X58000000Y-49500000D01*
X58000000Y-49500000D02*
X58000000Y-55500000D01*
X58000000Y-55500000D02*
X68000000Y-55500000D01*
X163950000Y-90750000D02*
X163950000Y-100250000D01*
X163950000Y-100250000D02*
X171000000Y-100250000D01*
X171000000Y-100250000D02*
X171000000Y-90750000D01*
X171000000Y-90750000D02*
X163950000Y-90750000D01*
X171000000Y-92000000D02*
X171000000Y-99000000D01*
X171000000Y-99000000D02*
X176000000Y-99000000D01*
X176000000Y-99000000D02*
X176000000Y-92000000D01*
X176000000Y-92000000D02*
X171000000Y-92000000D01*
X176000000Y-92500000D02*
X176000000Y-98500000D01*
X176000000Y-98500000D02*
X186000000Y-98500000D01*
X186000000Y-98500000D02*
X186000000Y-92500000D01*
X186000000Y-92500000D02*
X176000000Y-92500000D01*
X80050000Y-100250000D02*
X80050000Y-90750000D01*
X80050000Y-90750000D02*
X73000000Y-90750000D01*
X73000000Y-90750000D02*
X73000000Y-100250000D01*
X73000000Y-100250000D02*
X80050000Y-100250000D01*
X73000000Y-99000000D02*
X73000000Y-92000000D01*
X73000000Y-92000000D02*
X68000000Y-92000000D01*
X68000000Y-92000000D02*
X68000000Y-99000000D01*
X68000000Y-99000000D02*
X73000000Y-99000000D01*
X68000000Y-98500000D02*
X68000000Y-92500000D01*
X68000000Y-92500000D02*
X58000000Y-92500000D01*
X58000000Y-92500000D02*
X58000000Y-98500000D01*
X58000000Y-98500000D02*
X68000000Y-98500000D01*
D11*
X135957619Y-74868095D02*
X135910000Y-74820476D01*
X135862381Y-74725238D01*
X135862381Y-74487142D01*
X135910000Y-74391904D01*
X135957619Y-74344285D01*
X136052857Y-74296666D01*
X136148095Y-74296666D01*
X136290952Y-74344285D01*
X136862381Y-74915714D01*
X136862381Y-74296666D01*
X135862381Y-73963333D02*
X135862381Y-73296666D01*
X136862381Y-73725238D01*
X135862381Y-72725238D02*
X135862381Y-72629999D01*
X135910000Y-72534761D01*
X135957619Y-72487142D01*
X136052857Y-72439523D01*
X136243333Y-72391904D01*
X136481429Y-72391904D01*
X136671905Y-72439523D01*
X136767143Y-72487142D01*
X136814762Y-72534761D01*
X136862381Y-72629999D01*
X136862381Y-72725238D01*
X136814762Y-72820476D01*
X136767143Y-72868095D01*
X136671905Y-72915714D01*
X136481429Y-72963333D01*
X136243333Y-72963333D01*
X136052857Y-72915714D01*
X135957619Y-72868095D01*
X135910000Y-72820476D01*
X135862381Y-72725238D01*
X104380952Y-72952381D02*
X104952381Y-72952381D01*
X104666666Y-73952381D02*
X104666666Y-72952381D01*
X105761905Y-73952381D02*
X105285714Y-73952381D01*
X105285714Y-72952381D01*
X106095238Y-73952381D02*
X106095238Y-72952381D01*
X106476191Y-72952381D01*
X106571429Y-73000000D01*
X106619048Y-73047619D01*
X106666667Y-73142857D01*
X106666667Y-73285714D01*
X106619048Y-73380952D01*
X106571429Y-73428571D01*
X106476191Y-73476190D01*
X106095238Y-73476190D01*
X107047619Y-73047619D02*
X107095238Y-73000000D01*
X107190476Y-72952381D01*
X107428572Y-72952381D01*
X107523810Y-73000000D01*
X107571429Y-73047619D01*
X107619048Y-73142857D01*
X107619048Y-73238095D01*
X107571429Y-73380952D01*
X107000000Y-73952381D01*
X107619048Y-73952381D01*
X108095238Y-73952381D02*
X108285714Y-73952381D01*
X108380953Y-73904762D01*
X108428572Y-73857143D01*
X108523810Y-73714286D01*
X108571429Y-73523810D01*
X108571429Y-73142857D01*
X108523810Y-73047619D01*
X108476191Y-73000000D01*
X108380953Y-72952381D01*
X108190476Y-72952381D01*
X108095238Y-73000000D01*
X108047619Y-73047619D01*
X108000000Y-73142857D01*
X108000000Y-73380952D01*
X108047619Y-73476190D01*
X108095238Y-73523810D01*
X108190476Y-73571429D01*
X108380953Y-73571429D01*
X108476191Y-73523810D01*
X108523810Y-73476190D01*
X108571429Y-73380952D01*
X109523810Y-73952381D02*
X108952381Y-73952381D01*
X109238095Y-73952381D02*
X109238095Y-72952381D01*
X109142857Y-73095238D01*
X109047619Y-73190476D01*
X108952381Y-73238095D01*
D12*
X106390476Y-69561905D02*
X106390476Y-70209524D01*
X106428571Y-70285714D01*
X106466667Y-70323810D01*
X106542857Y-70361905D01*
X106695238Y-70361905D01*
X106771429Y-70323810D01*
X106809524Y-70285714D01*
X106847619Y-70209524D01*
X106847619Y-69561905D01*
X107647619Y-70361905D02*
X107190476Y-70361905D01*
X107419047Y-70361905D02*
X107419047Y-69561905D01*
X107342857Y-69676190D01*
X107266666Y-69752381D01*
X107190476Y-69790476D01*
D11*
X104380952Y-65452381D02*
X104952381Y-65452381D01*
X104666666Y-66452381D02*
X104666666Y-65452381D01*
X105761905Y-66452381D02*
X105285714Y-66452381D01*
X105285714Y-65452381D01*
X106095238Y-66452381D02*
X106095238Y-65452381D01*
X106476191Y-65452381D01*
X106571429Y-65500000D01*
X106619048Y-65547619D01*
X106666667Y-65642857D01*
X106666667Y-65785714D01*
X106619048Y-65880952D01*
X106571429Y-65928571D01*
X106476191Y-65976190D01*
X106095238Y-65976190D01*
X107047619Y-65547619D02*
X107095238Y-65500000D01*
X107190476Y-65452381D01*
X107428572Y-65452381D01*
X107523810Y-65500000D01*
X107571429Y-65547619D01*
X107619048Y-65642857D01*
X107619048Y-65738095D01*
X107571429Y-65880952D01*
X107000000Y-66452381D01*
X107619048Y-66452381D01*
X108095238Y-66452381D02*
X108285714Y-66452381D01*
X108380953Y-66404762D01*
X108428572Y-66357143D01*
X108523810Y-66214286D01*
X108571429Y-66023810D01*
X108571429Y-65642857D01*
X108523810Y-65547619D01*
X108476191Y-65500000D01*
X108380953Y-65452381D01*
X108190476Y-65452381D01*
X108095238Y-65500000D01*
X108047619Y-65547619D01*
X108000000Y-65642857D01*
X108000000Y-65880952D01*
X108047619Y-65976190D01*
X108095238Y-66023810D01*
X108190476Y-66071429D01*
X108380953Y-66071429D01*
X108476191Y-66023810D01*
X108523810Y-65976190D01*
X108571429Y-65880952D01*
X109523810Y-66452381D02*
X108952381Y-66452381D01*
X109238095Y-66452381D02*
X109238095Y-65452381D01*
X109142857Y-65595238D01*
X109047619Y-65690476D01*
X108952381Y-65738095D01*
D12*
X106390476Y-62061905D02*
X106390476Y-62709524D01*
X106428571Y-62785714D01*
X106466667Y-62823810D01*
X106542857Y-62861905D01*
X106695238Y-62861905D01*
X106771429Y-62823810D01*
X106809524Y-62785714D01*
X106847619Y-62709524D01*
X106847619Y-62061905D01*
X107190476Y-62138095D02*
X107228571Y-62100000D01*
X107304762Y-62061905D01*
X107495238Y-62061905D01*
X107571428Y-62100000D01*
X107609524Y-62138095D01*
X107647619Y-62214286D01*
X107647619Y-62290476D01*
X107609524Y-62404762D01*
X107152381Y-62861905D01*
X107647619Y-62861905D01*
D11*
X104380952Y-57952381D02*
X104952381Y-57952381D01*
X104666666Y-58952381D02*
X104666666Y-57952381D01*
X105761905Y-58952381D02*
X105285714Y-58952381D01*
X105285714Y-57952381D01*
X106095238Y-58952381D02*
X106095238Y-57952381D01*
X106476191Y-57952381D01*
X106571429Y-58000000D01*
X106619048Y-58047619D01*
X106666667Y-58142857D01*
X106666667Y-58285714D01*
X106619048Y-58380952D01*
X106571429Y-58428571D01*
X106476191Y-58476190D01*
X106095238Y-58476190D01*
X107047619Y-58047619D02*
X107095238Y-58000000D01*
X107190476Y-57952381D01*
X107428572Y-57952381D01*
X107523810Y-58000000D01*
X107571429Y-58047619D01*
X107619048Y-58142857D01*
X107619048Y-58238095D01*
X107571429Y-58380952D01*
X107000000Y-58952381D01*
X107619048Y-58952381D01*
X108095238Y-58952381D02*
X108285714Y-58952381D01*
X108380953Y-58904762D01*
X108428572Y-58857143D01*
X108523810Y-58714286D01*
X108571429Y-58523810D01*
X108571429Y-58142857D01*
X108523810Y-58047619D01*
X108476191Y-58000000D01*
X108380953Y-57952381D01*
X108190476Y-57952381D01*
X108095238Y-58000000D01*
X108047619Y-58047619D01*
X108000000Y-58142857D01*
X108000000Y-58380952D01*
X108047619Y-58476190D01*
X108095238Y-58523810D01*
X108190476Y-58571429D01*
X108380953Y-58571429D01*
X108476191Y-58523810D01*
X108523810Y-58476190D01*
X108571429Y-58380952D01*
X109523810Y-58952381D02*
X108952381Y-58952381D01*
X109238095Y-58952381D02*
X109238095Y-57952381D01*
X109142857Y-58095238D01*
X109047619Y-58190476D01*
X108952381Y-58238095D01*
D12*
X106390476Y-54561905D02*
X106390476Y-55209524D01*
X106428571Y-55285714D01*
X106466667Y-55323810D01*
X106542857Y-55361905D01*
X106695238Y-55361905D01*
X106771429Y-55323810D01*
X106809524Y-55285714D01*
X106847619Y-55209524D01*
X106847619Y-54561905D01*
X107152381Y-54561905D02*
X107647619Y-54561905D01*
X107380952Y-54866667D01*
X107495238Y-54866667D01*
X107571428Y-54904762D01*
X107609524Y-54942857D01*
X107647619Y-55019048D01*
X107647619Y-55209524D01*
X107609524Y-55285714D01*
X107571428Y-55323810D01*
X107495238Y-55361905D01*
X107266666Y-55361905D01*
X107190476Y-55323810D01*
X107152381Y-55285714D01*
D11*
X139380952Y-72952381D02*
X139952381Y-72952381D01*
X139666666Y-73952381D02*
X139666666Y-72952381D01*
X140761905Y-73952381D02*
X140285714Y-73952381D01*
X140285714Y-72952381D01*
X141095238Y-73952381D02*
X141095238Y-72952381D01*
X141476191Y-72952381D01*
X141571429Y-73000000D01*
X141619048Y-73047619D01*
X141666667Y-73142857D01*
X141666667Y-73285714D01*
X141619048Y-73380952D01*
X141571429Y-73428571D01*
X141476191Y-73476190D01*
X141095238Y-73476190D01*
X142047619Y-73047619D02*
X142095238Y-73000000D01*
X142190476Y-72952381D01*
X142428572Y-72952381D01*
X142523810Y-73000000D01*
X142571429Y-73047619D01*
X142619048Y-73142857D01*
X142619048Y-73238095D01*
X142571429Y-73380952D01*
X142000000Y-73952381D01*
X142619048Y-73952381D01*
X143095238Y-73952381D02*
X143285714Y-73952381D01*
X143380953Y-73904762D01*
X143428572Y-73857143D01*
X143523810Y-73714286D01*
X143571429Y-73523810D01*
X143571429Y-73142857D01*
X143523810Y-73047619D01*
X143476191Y-73000000D01*
X143380953Y-72952381D01*
X143190476Y-72952381D01*
X143095238Y-73000000D01*
X143047619Y-73047619D01*
X143000000Y-73142857D01*
X143000000Y-73380952D01*
X143047619Y-73476190D01*
X143095238Y-73523810D01*
X143190476Y-73571429D01*
X143380953Y-73571429D01*
X143476191Y-73523810D01*
X143523810Y-73476190D01*
X143571429Y-73380952D01*
X144523810Y-73952381D02*
X143952381Y-73952381D01*
X144238095Y-73952381D02*
X144238095Y-72952381D01*
X144142857Y-73095238D01*
X144047619Y-73190476D01*
X143952381Y-73238095D01*
D12*
X141390476Y-69561905D02*
X141390476Y-70209524D01*
X141428571Y-70285714D01*
X141466667Y-70323810D01*
X141542857Y-70361905D01*
X141695238Y-70361905D01*
X141771429Y-70323810D01*
X141809524Y-70285714D01*
X141847619Y-70209524D01*
X141847619Y-69561905D01*
X142571428Y-69828571D02*
X142571428Y-70361905D01*
X142380952Y-69523810D02*
X142190476Y-70095238D01*
X142685714Y-70095238D01*
D11*
X139380952Y-65452381D02*
X139952381Y-65452381D01*
X139666666Y-66452381D02*
X139666666Y-65452381D01*
X140761905Y-66452381D02*
X140285714Y-66452381D01*
X140285714Y-65452381D01*
X141095238Y-66452381D02*
X141095238Y-65452381D01*
X141476191Y-65452381D01*
X141571429Y-65500000D01*
X141619048Y-65547619D01*
X141666667Y-65642857D01*
X141666667Y-65785714D01*
X141619048Y-65880952D01*
X141571429Y-65928571D01*
X141476191Y-65976190D01*
X141095238Y-65976190D01*
X142047619Y-65547619D02*
X142095238Y-65500000D01*
X142190476Y-65452381D01*
X142428572Y-65452381D01*
X142523810Y-65500000D01*
X142571429Y-65547619D01*
X142619048Y-65642857D01*
X142619048Y-65738095D01*
X142571429Y-65880952D01*
X142000000Y-66452381D01*
X142619048Y-66452381D01*
X143095238Y-66452381D02*
X143285714Y-66452381D01*
X143380953Y-66404762D01*
X143428572Y-66357143D01*
X143523810Y-66214286D01*
X143571429Y-66023810D01*
X143571429Y-65642857D01*
X143523810Y-65547619D01*
X143476191Y-65500000D01*
X143380953Y-65452381D01*
X143190476Y-65452381D01*
X143095238Y-65500000D01*
X143047619Y-65547619D01*
X143000000Y-65642857D01*
X143000000Y-65880952D01*
X143047619Y-65976190D01*
X143095238Y-66023810D01*
X143190476Y-66071429D01*
X143380953Y-66071429D01*
X143476191Y-66023810D01*
X143523810Y-65976190D01*
X143571429Y-65880952D01*
X144523810Y-66452381D02*
X143952381Y-66452381D01*
X144238095Y-66452381D02*
X144238095Y-65452381D01*
X144142857Y-65595238D01*
X144047619Y-65690476D01*
X143952381Y-65738095D01*
D12*
X141390476Y-62061905D02*
X141390476Y-62709524D01*
X141428571Y-62785714D01*
X141466667Y-62823810D01*
X141542857Y-62861905D01*
X141695238Y-62861905D01*
X141771429Y-62823810D01*
X141809524Y-62785714D01*
X141847619Y-62709524D01*
X141847619Y-62061905D01*
X142609524Y-62061905D02*
X142228571Y-62061905D01*
X142190476Y-62442857D01*
X142228571Y-62404762D01*
X142304762Y-62366667D01*
X142495238Y-62366667D01*
X142571428Y-62404762D01*
X142609524Y-62442857D01*
X142647619Y-62519048D01*
X142647619Y-62709524D01*
X142609524Y-62785714D01*
X142571428Y-62823810D01*
X142495238Y-62861905D01*
X142304762Y-62861905D01*
X142228571Y-62823810D01*
X142190476Y-62785714D01*
D11*
X139380952Y-56952381D02*
X139952381Y-56952381D01*
X139666666Y-57952381D02*
X139666666Y-56952381D01*
X140761905Y-57952381D02*
X140285714Y-57952381D01*
X140285714Y-56952381D01*
X141095238Y-57952381D02*
X141095238Y-56952381D01*
X141476191Y-56952381D01*
X141571429Y-57000000D01*
X141619048Y-57047619D01*
X141666667Y-57142857D01*
X141666667Y-57285714D01*
X141619048Y-57380952D01*
X141571429Y-57428571D01*
X141476191Y-57476190D01*
X141095238Y-57476190D01*
X142047619Y-57047619D02*
X142095238Y-57000000D01*
X142190476Y-56952381D01*
X142428572Y-56952381D01*
X142523810Y-57000000D01*
X142571429Y-57047619D01*
X142619048Y-57142857D01*
X142619048Y-57238095D01*
X142571429Y-57380952D01*
X142000000Y-57952381D01*
X142619048Y-57952381D01*
X143095238Y-57952381D02*
X143285714Y-57952381D01*
X143380953Y-57904762D01*
X143428572Y-57857143D01*
X143523810Y-57714286D01*
X143571429Y-57523810D01*
X143571429Y-57142857D01*
X143523810Y-57047619D01*
X143476191Y-57000000D01*
X143380953Y-56952381D01*
X143190476Y-56952381D01*
X143095238Y-57000000D01*
X143047619Y-57047619D01*
X143000000Y-57142857D01*
X143000000Y-57380952D01*
X143047619Y-57476190D01*
X143095238Y-57523810D01*
X143190476Y-57571429D01*
X143380953Y-57571429D01*
X143476191Y-57523810D01*
X143523810Y-57476190D01*
X143571429Y-57380952D01*
X144523810Y-57952381D02*
X143952381Y-57952381D01*
X144238095Y-57952381D02*
X144238095Y-56952381D01*
X144142857Y-57095238D01*
X144047619Y-57190476D01*
X143952381Y-57238095D01*
D12*
X141390476Y-53561905D02*
X141390476Y-54209524D01*
X141428571Y-54285714D01*
X141466667Y-54323810D01*
X141542857Y-54361905D01*
X141695238Y-54361905D01*
X141771429Y-54323810D01*
X141809524Y-54285714D01*
X141847619Y-54209524D01*
X141847619Y-53561905D01*
X142571428Y-53561905D02*
X142419047Y-53561905D01*
X142342857Y-53600000D01*
X142304762Y-53638095D01*
X142228571Y-53752381D01*
X142190476Y-53904762D01*
X142190476Y-54209524D01*
X142228571Y-54285714D01*
X142266666Y-54323810D01*
X142342857Y-54361905D01*
X142495238Y-54361905D01*
X142571428Y-54323810D01*
X142609524Y-54285714D01*
X142647619Y-54209524D01*
X142647619Y-54019048D01*
X142609524Y-53942857D01*
X142571428Y-53904762D01*
X142495238Y-53866667D01*
X142342857Y-53866667D01*
X142266666Y-53904762D01*
X142228571Y-53942857D01*
X142190476Y-54019048D01*
D11*
X139380952Y-79952381D02*
X139952381Y-79952381D01*
X139666666Y-80952381D02*
X139666666Y-79952381D01*
X140761905Y-80952381D02*
X140285714Y-80952381D01*
X140285714Y-79952381D01*
X141095238Y-80952381D02*
X141095238Y-79952381D01*
X141476191Y-79952381D01*
X141571429Y-80000000D01*
X141619048Y-80047619D01*
X141666667Y-80142857D01*
X141666667Y-80285714D01*
X141619048Y-80380952D01*
X141571429Y-80428571D01*
X141476191Y-80476190D01*
X141095238Y-80476190D01*
X142047619Y-80047619D02*
X142095238Y-80000000D01*
X142190476Y-79952381D01*
X142428572Y-79952381D01*
X142523810Y-80000000D01*
X142571429Y-80047619D01*
X142619048Y-80142857D01*
X142619048Y-80238095D01*
X142571429Y-80380952D01*
X142000000Y-80952381D01*
X142619048Y-80952381D01*
X143095238Y-80952381D02*
X143285714Y-80952381D01*
X143380953Y-80904762D01*
X143428572Y-80857143D01*
X143523810Y-80714286D01*
X143571429Y-80523810D01*
X143571429Y-80142857D01*
X143523810Y-80047619D01*
X143476191Y-80000000D01*
X143380953Y-79952381D01*
X143190476Y-79952381D01*
X143095238Y-80000000D01*
X143047619Y-80047619D01*
X143000000Y-80142857D01*
X143000000Y-80380952D01*
X143047619Y-80476190D01*
X143095238Y-80523810D01*
X143190476Y-80571429D01*
X143380953Y-80571429D01*
X143476191Y-80523810D01*
X143523810Y-80476190D01*
X143571429Y-80380952D01*
X144523810Y-80952381D02*
X143952381Y-80952381D01*
X144238095Y-80952381D02*
X144238095Y-79952381D01*
X144142857Y-80095238D01*
X144047619Y-80190476D01*
X143952381Y-80238095D01*
D12*
X141390476Y-76561905D02*
X141390476Y-77209524D01*
X141428571Y-77285714D01*
X141466667Y-77323810D01*
X141542857Y-77361905D01*
X141695238Y-77361905D01*
X141771429Y-77323810D01*
X141809524Y-77285714D01*
X141847619Y-77209524D01*
X141847619Y-76561905D01*
X142152381Y-76561905D02*
X142685714Y-76561905D01*
X142342857Y-77361905D01*
D11*
X139380952Y-94952381D02*
X139952381Y-94952381D01*
X139666666Y-95952381D02*
X139666666Y-94952381D01*
X140761905Y-95952381D02*
X140285714Y-95952381D01*
X140285714Y-94952381D01*
X141095238Y-95952381D02*
X141095238Y-94952381D01*
X141476191Y-94952381D01*
X141571429Y-95000000D01*
X141619048Y-95047619D01*
X141666667Y-95142857D01*
X141666667Y-95285714D01*
X141619048Y-95380952D01*
X141571429Y-95428571D01*
X141476191Y-95476190D01*
X141095238Y-95476190D01*
X142047619Y-95047619D02*
X142095238Y-95000000D01*
X142190476Y-94952381D01*
X142428572Y-94952381D01*
X142523810Y-95000000D01*
X142571429Y-95047619D01*
X142619048Y-95142857D01*
X142619048Y-95238095D01*
X142571429Y-95380952D01*
X142000000Y-95952381D01*
X142619048Y-95952381D01*
X143095238Y-95952381D02*
X143285714Y-95952381D01*
X143380953Y-95904762D01*
X143428572Y-95857143D01*
X143523810Y-95714286D01*
X143571429Y-95523810D01*
X143571429Y-95142857D01*
X143523810Y-95047619D01*
X143476191Y-95000000D01*
X143380953Y-94952381D01*
X143190476Y-94952381D01*
X143095238Y-95000000D01*
X143047619Y-95047619D01*
X143000000Y-95142857D01*
X143000000Y-95380952D01*
X143047619Y-95476190D01*
X143095238Y-95523810D01*
X143190476Y-95571429D01*
X143380953Y-95571429D01*
X143476191Y-95523810D01*
X143523810Y-95476190D01*
X143571429Y-95380952D01*
X144523810Y-95952381D02*
X143952381Y-95952381D01*
X144238095Y-95952381D02*
X144238095Y-94952381D01*
X144142857Y-95095238D01*
X144047619Y-95190476D01*
X143952381Y-95238095D01*
D12*
X141390476Y-91561905D02*
X141390476Y-92209524D01*
X141428571Y-92285714D01*
X141466667Y-92323810D01*
X141542857Y-92361905D01*
X141695238Y-92361905D01*
X141771429Y-92323810D01*
X141809524Y-92285714D01*
X141847619Y-92209524D01*
X141847619Y-91561905D01*
X142342857Y-91904762D02*
X142266666Y-91866667D01*
X142228571Y-91828571D01*
X142190476Y-91752381D01*
X142190476Y-91714286D01*
X142228571Y-91638095D01*
X142266666Y-91600000D01*
X142342857Y-91561905D01*
X142495238Y-91561905D01*
X142571428Y-91600000D01*
X142609524Y-91638095D01*
X142647619Y-91714286D01*
X142647619Y-91752381D01*
X142609524Y-91828571D01*
X142571428Y-91866667D01*
X142495238Y-91904762D01*
X142342857Y-91904762D01*
X142266666Y-91942857D01*
X142228571Y-91980952D01*
X142190476Y-92057143D01*
X142190476Y-92209524D01*
X142228571Y-92285714D01*
X142266666Y-92323810D01*
X142342857Y-92361905D01*
X142495238Y-92361905D01*
X142571428Y-92323810D01*
X142609524Y-92285714D01*
X142647619Y-92209524D01*
X142647619Y-92057143D01*
X142609524Y-91980952D01*
X142571428Y-91942857D01*
X142495238Y-91904762D01*
D11*
X139380952Y-87452381D02*
X139952381Y-87452381D01*
X139666666Y-88452381D02*
X139666666Y-87452381D01*
X140761905Y-88452381D02*
X140285714Y-88452381D01*
X140285714Y-87452381D01*
X141095238Y-88452381D02*
X141095238Y-87452381D01*
X141476191Y-87452381D01*
X141571429Y-87500000D01*
X141619048Y-87547619D01*
X141666667Y-87642857D01*
X141666667Y-87785714D01*
X141619048Y-87880952D01*
X141571429Y-87928571D01*
X141476191Y-87976190D01*
X141095238Y-87976190D01*
X142047619Y-87547619D02*
X142095238Y-87500000D01*
X142190476Y-87452381D01*
X142428572Y-87452381D01*
X142523810Y-87500000D01*
X142571429Y-87547619D01*
X142619048Y-87642857D01*
X142619048Y-87738095D01*
X142571429Y-87880952D01*
X142000000Y-88452381D01*
X142619048Y-88452381D01*
X143095238Y-88452381D02*
X143285714Y-88452381D01*
X143380953Y-88404762D01*
X143428572Y-88357143D01*
X143523810Y-88214286D01*
X143571429Y-88023810D01*
X143571429Y-87642857D01*
X143523810Y-87547619D01*
X143476191Y-87500000D01*
X143380953Y-87452381D01*
X143190476Y-87452381D01*
X143095238Y-87500000D01*
X143047619Y-87547619D01*
X143000000Y-87642857D01*
X143000000Y-87880952D01*
X143047619Y-87976190D01*
X143095238Y-88023810D01*
X143190476Y-88071429D01*
X143380953Y-88071429D01*
X143476191Y-88023810D01*
X143523810Y-87976190D01*
X143571429Y-87880952D01*
X144523810Y-88452381D02*
X143952381Y-88452381D01*
X144238095Y-88452381D02*
X144238095Y-87452381D01*
X144142857Y-87595238D01*
X144047619Y-87690476D01*
X143952381Y-87738095D01*
D12*
X141390476Y-84061905D02*
X141390476Y-84709524D01*
X141428571Y-84785714D01*
X141466667Y-84823810D01*
X141542857Y-84861905D01*
X141695238Y-84861905D01*
X141771429Y-84823810D01*
X141809524Y-84785714D01*
X141847619Y-84709524D01*
X141847619Y-84061905D01*
X142266666Y-84861905D02*
X142419047Y-84861905D01*
X142495238Y-84823810D01*
X142533333Y-84785714D01*
X142609524Y-84671429D01*
X142647619Y-84519048D01*
X142647619Y-84214286D01*
X142609524Y-84138095D01*
X142571428Y-84100000D01*
X142495238Y-84061905D01*
X142342857Y-84061905D01*
X142266666Y-84100000D01*
X142228571Y-84138095D01*
X142190476Y-84214286D01*
X142190476Y-84404762D01*
X142228571Y-84480952D01*
X142266666Y-84519048D01*
X142342857Y-84557143D01*
X142495238Y-84557143D01*
X142571428Y-84519048D01*
X142609524Y-84480952D01*
X142647619Y-84404762D01*
D11*
X104380952Y-87452381D02*
X104952381Y-87452381D01*
X104666666Y-88452381D02*
X104666666Y-87452381D01*
X105761905Y-88452381D02*
X105285714Y-88452381D01*
X105285714Y-87452381D01*
X106095238Y-88452381D02*
X106095238Y-87452381D01*
X106476191Y-87452381D01*
X106571429Y-87500000D01*
X106619048Y-87547619D01*
X106666667Y-87642857D01*
X106666667Y-87785714D01*
X106619048Y-87880952D01*
X106571429Y-87928571D01*
X106476191Y-87976190D01*
X106095238Y-87976190D01*
X107047619Y-87547619D02*
X107095238Y-87500000D01*
X107190476Y-87452381D01*
X107428572Y-87452381D01*
X107523810Y-87500000D01*
X107571429Y-87547619D01*
X107619048Y-87642857D01*
X107619048Y-87738095D01*
X107571429Y-87880952D01*
X107000000Y-88452381D01*
X107619048Y-88452381D01*
X108095238Y-88452381D02*
X108285714Y-88452381D01*
X108380953Y-88404762D01*
X108428572Y-88357143D01*
X108523810Y-88214286D01*
X108571429Y-88023810D01*
X108571429Y-87642857D01*
X108523810Y-87547619D01*
X108476191Y-87500000D01*
X108380953Y-87452381D01*
X108190476Y-87452381D01*
X108095238Y-87500000D01*
X108047619Y-87547619D01*
X108000000Y-87642857D01*
X108000000Y-87880952D01*
X108047619Y-87976190D01*
X108095238Y-88023810D01*
X108190476Y-88071429D01*
X108380953Y-88071429D01*
X108476191Y-88023810D01*
X108523810Y-87976190D01*
X108571429Y-87880952D01*
X109523810Y-88452381D02*
X108952381Y-88452381D01*
X109238095Y-88452381D02*
X109238095Y-87452381D01*
X109142857Y-87595238D01*
X109047619Y-87690476D01*
X108952381Y-87738095D01*
D12*
X106009524Y-84061905D02*
X106009524Y-84709524D01*
X106047619Y-84785714D01*
X106085715Y-84823810D01*
X106161905Y-84861905D01*
X106314286Y-84861905D01*
X106390477Y-84823810D01*
X106428572Y-84785714D01*
X106466667Y-84709524D01*
X106466667Y-84061905D01*
X107266667Y-84861905D02*
X106809524Y-84861905D01*
X107038095Y-84861905D02*
X107038095Y-84061905D01*
X106961905Y-84176190D01*
X106885714Y-84252381D01*
X106809524Y-84290476D01*
X107761905Y-84061905D02*
X107838096Y-84061905D01*
X107914286Y-84100000D01*
X107952381Y-84138095D01*
X107990477Y-84214286D01*
X108028572Y-84366667D01*
X108028572Y-84557143D01*
X107990477Y-84709524D01*
X107952381Y-84785714D01*
X107914286Y-84823810D01*
X107838096Y-84861905D01*
X107761905Y-84861905D01*
X107685715Y-84823810D01*
X107647619Y-84785714D01*
X107609524Y-84709524D01*
X107571429Y-84557143D01*
X107571429Y-84366667D01*
X107609524Y-84214286D01*
X107647619Y-84138095D01*
X107685715Y-84100000D01*
X107761905Y-84061905D01*
D11*
X104380952Y-79952381D02*
X104952381Y-79952381D01*
X104666666Y-80952381D02*
X104666666Y-79952381D01*
X105761905Y-80952381D02*
X105285714Y-80952381D01*
X105285714Y-79952381D01*
X106095238Y-80952381D02*
X106095238Y-79952381D01*
X106476191Y-79952381D01*
X106571429Y-80000000D01*
X106619048Y-80047619D01*
X106666667Y-80142857D01*
X106666667Y-80285714D01*
X106619048Y-80380952D01*
X106571429Y-80428571D01*
X106476191Y-80476190D01*
X106095238Y-80476190D01*
X107047619Y-80047619D02*
X107095238Y-80000000D01*
X107190476Y-79952381D01*
X107428572Y-79952381D01*
X107523810Y-80000000D01*
X107571429Y-80047619D01*
X107619048Y-80142857D01*
X107619048Y-80238095D01*
X107571429Y-80380952D01*
X107000000Y-80952381D01*
X107619048Y-80952381D01*
X108095238Y-80952381D02*
X108285714Y-80952381D01*
X108380953Y-80904762D01*
X108428572Y-80857143D01*
X108523810Y-80714286D01*
X108571429Y-80523810D01*
X108571429Y-80142857D01*
X108523810Y-80047619D01*
X108476191Y-80000000D01*
X108380953Y-79952381D01*
X108190476Y-79952381D01*
X108095238Y-80000000D01*
X108047619Y-80047619D01*
X108000000Y-80142857D01*
X108000000Y-80380952D01*
X108047619Y-80476190D01*
X108095238Y-80523810D01*
X108190476Y-80571429D01*
X108380953Y-80571429D01*
X108476191Y-80523810D01*
X108523810Y-80476190D01*
X108571429Y-80380952D01*
X109523810Y-80952381D02*
X108952381Y-80952381D01*
X109238095Y-80952381D02*
X109238095Y-79952381D01*
X109142857Y-80095238D01*
X109047619Y-80190476D01*
X108952381Y-80238095D01*
D12*
X106009524Y-76561905D02*
X106009524Y-77209524D01*
X106047619Y-77285714D01*
X106085715Y-77323810D01*
X106161905Y-77361905D01*
X106314286Y-77361905D01*
X106390477Y-77323810D01*
X106428572Y-77285714D01*
X106466667Y-77209524D01*
X106466667Y-76561905D01*
X107266667Y-77361905D02*
X106809524Y-77361905D01*
X107038095Y-77361905D02*
X107038095Y-76561905D01*
X106961905Y-76676190D01*
X106885714Y-76752381D01*
X106809524Y-76790476D01*
X108028572Y-77361905D02*
X107571429Y-77361905D01*
X107800000Y-77361905D02*
X107800000Y-76561905D01*
X107723810Y-76676190D01*
X107647619Y-76752381D01*
X107571429Y-76790476D01*
D11*
X104380952Y-94952381D02*
X104952381Y-94952381D01*
X104666666Y-95952381D02*
X104666666Y-94952381D01*
X105761905Y-95952381D02*
X105285714Y-95952381D01*
X105285714Y-94952381D01*
X106095238Y-95952381D02*
X106095238Y-94952381D01*
X106476191Y-94952381D01*
X106571429Y-95000000D01*
X106619048Y-95047619D01*
X106666667Y-95142857D01*
X106666667Y-95285714D01*
X106619048Y-95380952D01*
X106571429Y-95428571D01*
X106476191Y-95476190D01*
X106095238Y-95476190D01*
X107047619Y-95047619D02*
X107095238Y-95000000D01*
X107190476Y-94952381D01*
X107428572Y-94952381D01*
X107523810Y-95000000D01*
X107571429Y-95047619D01*
X107619048Y-95142857D01*
X107619048Y-95238095D01*
X107571429Y-95380952D01*
X107000000Y-95952381D01*
X107619048Y-95952381D01*
X108095238Y-95952381D02*
X108285714Y-95952381D01*
X108380953Y-95904762D01*
X108428572Y-95857143D01*
X108523810Y-95714286D01*
X108571429Y-95523810D01*
X108571429Y-95142857D01*
X108523810Y-95047619D01*
X108476191Y-95000000D01*
X108380953Y-94952381D01*
X108190476Y-94952381D01*
X108095238Y-95000000D01*
X108047619Y-95047619D01*
X108000000Y-95142857D01*
X108000000Y-95380952D01*
X108047619Y-95476190D01*
X108095238Y-95523810D01*
X108190476Y-95571429D01*
X108380953Y-95571429D01*
X108476191Y-95523810D01*
X108523810Y-95476190D01*
X108571429Y-95380952D01*
X109523810Y-95952381D02*
X108952381Y-95952381D01*
X109238095Y-95952381D02*
X109238095Y-94952381D01*
X109142857Y-95095238D01*
X109047619Y-95190476D01*
X108952381Y-95238095D01*
D12*
X106009524Y-91561905D02*
X106009524Y-92209524D01*
X106047619Y-92285714D01*
X106085715Y-92323810D01*
X106161905Y-92361905D01*
X106314286Y-92361905D01*
X106390477Y-92323810D01*
X106428572Y-92285714D01*
X106466667Y-92209524D01*
X106466667Y-91561905D01*
X107266667Y-92361905D02*
X106809524Y-92361905D01*
X107038095Y-92361905D02*
X107038095Y-91561905D01*
X106961905Y-91676190D01*
X106885714Y-91752381D01*
X106809524Y-91790476D01*
X107571429Y-91638095D02*
X107609524Y-91600000D01*
X107685715Y-91561905D01*
X107876191Y-91561905D01*
X107952381Y-91600000D01*
X107990477Y-91638095D01*
X108028572Y-91714286D01*
X108028572Y-91790476D01*
X107990477Y-91904762D01*
X107533334Y-92361905D01*
X108028572Y-92361905D01*
D11*
X69880952Y-45652381D02*
X69880952Y-44652381D01*
X70214286Y-45366667D01*
X70547619Y-44652381D01*
X70547619Y-45652381D01*
X71166666Y-45652381D02*
X71071428Y-45604762D01*
X71023809Y-45557143D01*
X70976190Y-45461905D01*
X70976190Y-45176190D01*
X71023809Y-45080952D01*
X71071428Y-45033333D01*
X71166666Y-44985714D01*
X71309524Y-44985714D01*
X71404762Y-45033333D01*
X71452381Y-45080952D01*
X71500000Y-45176190D01*
X71500000Y-45461905D01*
X71452381Y-45557143D01*
X71404762Y-45604762D01*
X71309524Y-45652381D01*
X71166666Y-45652381D01*
X72357143Y-44985714D02*
X72357143Y-45652381D01*
X71928571Y-44985714D02*
X71928571Y-45509524D01*
X71976190Y-45604762D01*
X72071428Y-45652381D01*
X72214286Y-45652381D01*
X72309524Y-45604762D01*
X72357143Y-45557143D01*
X72833333Y-44985714D02*
X72833333Y-45652381D01*
X72833333Y-45080952D02*
X72880952Y-45033333D01*
X72976190Y-44985714D01*
X73119048Y-44985714D01*
X73214286Y-45033333D01*
X73261905Y-45128571D01*
X73261905Y-45652381D01*
X73595238Y-44985714D02*
X73976190Y-44985714D01*
X73738095Y-44652381D02*
X73738095Y-45509524D01*
X73785714Y-45604762D01*
X73880952Y-45652381D01*
X73976190Y-45652381D01*
X74309524Y-45652381D02*
X74309524Y-44985714D01*
X74309524Y-44652381D02*
X74261905Y-44700000D01*
X74309524Y-44747619D01*
X74357143Y-44700000D01*
X74309524Y-44652381D01*
X74309524Y-44747619D01*
X74785714Y-44985714D02*
X74785714Y-45652381D01*
X74785714Y-45080952D02*
X74833333Y-45033333D01*
X74928571Y-44985714D01*
X75071429Y-44985714D01*
X75166667Y-45033333D01*
X75214286Y-45128571D01*
X75214286Y-45652381D01*
X76119048Y-44985714D02*
X76119048Y-45795238D01*
X76071429Y-45890476D01*
X76023810Y-45938095D01*
X75928571Y-45985714D01*
X75785714Y-45985714D01*
X75690476Y-45938095D01*
X76119048Y-45604762D02*
X76023810Y-45652381D01*
X75833333Y-45652381D01*
X75738095Y-45604762D01*
X75690476Y-45557143D01*
X75642857Y-45461905D01*
X75642857Y-45176190D01*
X75690476Y-45080952D01*
X75738095Y-45033333D01*
X75833333Y-44985714D01*
X76023810Y-44985714D01*
X76119048Y-45033333D01*
X76595238Y-45652381D02*
X76595238Y-44652381D01*
X76595238Y-45128571D02*
X77166667Y-45128571D01*
X77166667Y-45652381D02*
X77166667Y-44652381D01*
X77785714Y-45652381D02*
X77690476Y-45604762D01*
X77642857Y-45557143D01*
X77595238Y-45461905D01*
X77595238Y-45176190D01*
X77642857Y-45080952D01*
X77690476Y-45033333D01*
X77785714Y-44985714D01*
X77928572Y-44985714D01*
X78023810Y-45033333D01*
X78071429Y-45080952D01*
X78119048Y-45176190D01*
X78119048Y-45461905D01*
X78071429Y-45557143D01*
X78023810Y-45604762D01*
X77928572Y-45652381D01*
X77785714Y-45652381D01*
X78690476Y-45652381D02*
X78595238Y-45604762D01*
X78547619Y-45509524D01*
X78547619Y-44652381D01*
X79452382Y-45604762D02*
X79357144Y-45652381D01*
X79166667Y-45652381D01*
X79071429Y-45604762D01*
X79023810Y-45509524D01*
X79023810Y-45128571D01*
X79071429Y-45033333D01*
X79166667Y-44985714D01*
X79357144Y-44985714D01*
X79452382Y-45033333D01*
X79500001Y-45128571D01*
X79500001Y-45223810D01*
X79023810Y-45319048D01*
X79690477Y-45747619D02*
X80452382Y-45747619D01*
X80595239Y-44652381D02*
X81214287Y-44652381D01*
X80880953Y-45033333D01*
X81023811Y-45033333D01*
X81119049Y-45080952D01*
X81166668Y-45128571D01*
X81214287Y-45223810D01*
X81214287Y-45461905D01*
X81166668Y-45557143D01*
X81119049Y-45604762D01*
X81023811Y-45652381D01*
X80738096Y-45652381D01*
X80642858Y-45604762D01*
X80595239Y-45557143D01*
X81642858Y-45557143D02*
X81690477Y-45604762D01*
X81642858Y-45652381D01*
X81595239Y-45604762D01*
X81642858Y-45557143D01*
X81642858Y-45652381D01*
X82071429Y-44747619D02*
X82119048Y-44700000D01*
X82214286Y-44652381D01*
X82452382Y-44652381D01*
X82547620Y-44700000D01*
X82595239Y-44747619D01*
X82642858Y-44842857D01*
X82642858Y-44938095D01*
X82595239Y-45080952D01*
X82023810Y-45652381D01*
X82642858Y-45652381D01*
X83071429Y-45652381D02*
X83071429Y-44985714D01*
X83071429Y-45080952D02*
X83119048Y-45033333D01*
X83214286Y-44985714D01*
X83357144Y-44985714D01*
X83452382Y-45033333D01*
X83500001Y-45128571D01*
X83500001Y-45652381D01*
X83500001Y-45128571D02*
X83547620Y-45033333D01*
X83642858Y-44985714D01*
X83785715Y-44985714D01*
X83880953Y-45033333D01*
X83928572Y-45128571D01*
X83928572Y-45652381D01*
X84404762Y-45652381D02*
X84404762Y-44985714D01*
X84404762Y-45080952D02*
X84452381Y-45033333D01*
X84547619Y-44985714D01*
X84690477Y-44985714D01*
X84785715Y-45033333D01*
X84833334Y-45128571D01*
X84833334Y-45652381D01*
X84833334Y-45128571D02*
X84880953Y-45033333D01*
X84976191Y-44985714D01*
X85119048Y-44985714D01*
X85214286Y-45033333D01*
X85261905Y-45128571D01*
X85261905Y-45652381D01*
X85500000Y-45747619D02*
X86261905Y-45747619D01*
X86500000Y-45652381D02*
X86500000Y-44652381D01*
X86833334Y-45366667D01*
X87166667Y-44652381D01*
X87166667Y-45652381D01*
X87547619Y-44652381D02*
X88166667Y-44652381D01*
X87833333Y-45033333D01*
X87976191Y-45033333D01*
X88071429Y-45080952D01*
X88119048Y-45128571D01*
X88166667Y-45223810D01*
X88166667Y-45461905D01*
X88119048Y-45557143D01*
X88071429Y-45604762D01*
X87976191Y-45652381D01*
X87690476Y-45652381D01*
X87595238Y-45604762D01*
X87547619Y-45557143D01*
X77966667Y-41452381D02*
X77633333Y-40976190D01*
X77395238Y-41452381D02*
X77395238Y-40452381D01*
X77776191Y-40452381D01*
X77871429Y-40500000D01*
X77919048Y-40547619D01*
X77966667Y-40642857D01*
X77966667Y-40785714D01*
X77919048Y-40880952D01*
X77871429Y-40928571D01*
X77776191Y-40976190D01*
X77395238Y-40976190D01*
X78395238Y-40928571D02*
X78728572Y-40928571D01*
X78871429Y-41452381D02*
X78395238Y-41452381D01*
X78395238Y-40452381D01*
X78871429Y-40452381D01*
X79633334Y-40928571D02*
X79300000Y-40928571D01*
X79300000Y-41452381D02*
X79300000Y-40452381D01*
X79776191Y-40452381D01*
X80300000Y-40452381D02*
X80300000Y-40690476D01*
X80061905Y-40595238D02*
X80300000Y-40690476D01*
X80538096Y-40595238D01*
X80157143Y-40880952D02*
X80300000Y-40690476D01*
X80442858Y-40880952D01*
X81061905Y-40452381D02*
X81061905Y-40690476D01*
X80823810Y-40595238D02*
X81061905Y-40690476D01*
X81300001Y-40595238D01*
X80919048Y-40880952D02*
X81061905Y-40690476D01*
X81204763Y-40880952D01*
X155880952Y-45652381D02*
X155880952Y-44652381D01*
X156214286Y-45366667D01*
X156547619Y-44652381D01*
X156547619Y-45652381D01*
X157166666Y-45652381D02*
X157071428Y-45604762D01*
X157023809Y-45557143D01*
X156976190Y-45461905D01*
X156976190Y-45176190D01*
X157023809Y-45080952D01*
X157071428Y-45033333D01*
X157166666Y-44985714D01*
X157309524Y-44985714D01*
X157404762Y-45033333D01*
X157452381Y-45080952D01*
X157500000Y-45176190D01*
X157500000Y-45461905D01*
X157452381Y-45557143D01*
X157404762Y-45604762D01*
X157309524Y-45652381D01*
X157166666Y-45652381D01*
X158357143Y-44985714D02*
X158357143Y-45652381D01*
X157928571Y-44985714D02*
X157928571Y-45509524D01*
X157976190Y-45604762D01*
X158071428Y-45652381D01*
X158214286Y-45652381D01*
X158309524Y-45604762D01*
X158357143Y-45557143D01*
X158833333Y-44985714D02*
X158833333Y-45652381D01*
X158833333Y-45080952D02*
X158880952Y-45033333D01*
X158976190Y-44985714D01*
X159119048Y-44985714D01*
X159214286Y-45033333D01*
X159261905Y-45128571D01*
X159261905Y-45652381D01*
X159595238Y-44985714D02*
X159976190Y-44985714D01*
X159738095Y-44652381D02*
X159738095Y-45509524D01*
X159785714Y-45604762D01*
X159880952Y-45652381D01*
X159976190Y-45652381D01*
X160309524Y-45652381D02*
X160309524Y-44985714D01*
X160309524Y-44652381D02*
X160261905Y-44700000D01*
X160309524Y-44747619D01*
X160357143Y-44700000D01*
X160309524Y-44652381D01*
X160309524Y-44747619D01*
X160785714Y-44985714D02*
X160785714Y-45652381D01*
X160785714Y-45080952D02*
X160833333Y-45033333D01*
X160928571Y-44985714D01*
X161071429Y-44985714D01*
X161166667Y-45033333D01*
X161214286Y-45128571D01*
X161214286Y-45652381D01*
X162119048Y-44985714D02*
X162119048Y-45795238D01*
X162071429Y-45890476D01*
X162023810Y-45938095D01*
X161928571Y-45985714D01*
X161785714Y-45985714D01*
X161690476Y-45938095D01*
X162119048Y-45604762D02*
X162023810Y-45652381D01*
X161833333Y-45652381D01*
X161738095Y-45604762D01*
X161690476Y-45557143D01*
X161642857Y-45461905D01*
X161642857Y-45176190D01*
X161690476Y-45080952D01*
X161738095Y-45033333D01*
X161833333Y-44985714D01*
X162023810Y-44985714D01*
X162119048Y-45033333D01*
X162595238Y-45652381D02*
X162595238Y-44652381D01*
X162595238Y-45128571D02*
X163166667Y-45128571D01*
X163166667Y-45652381D02*
X163166667Y-44652381D01*
X163785714Y-45652381D02*
X163690476Y-45604762D01*
X163642857Y-45557143D01*
X163595238Y-45461905D01*
X163595238Y-45176190D01*
X163642857Y-45080952D01*
X163690476Y-45033333D01*
X163785714Y-44985714D01*
X163928572Y-44985714D01*
X164023810Y-45033333D01*
X164071429Y-45080952D01*
X164119048Y-45176190D01*
X164119048Y-45461905D01*
X164071429Y-45557143D01*
X164023810Y-45604762D01*
X163928572Y-45652381D01*
X163785714Y-45652381D01*
X164690476Y-45652381D02*
X164595238Y-45604762D01*
X164547619Y-45509524D01*
X164547619Y-44652381D01*
X165452382Y-45604762D02*
X165357144Y-45652381D01*
X165166667Y-45652381D01*
X165071429Y-45604762D01*
X165023810Y-45509524D01*
X165023810Y-45128571D01*
X165071429Y-45033333D01*
X165166667Y-44985714D01*
X165357144Y-44985714D01*
X165452382Y-45033333D01*
X165500001Y-45128571D01*
X165500001Y-45223810D01*
X165023810Y-45319048D01*
X165690477Y-45747619D02*
X166452382Y-45747619D01*
X166595239Y-44652381D02*
X167214287Y-44652381D01*
X166880953Y-45033333D01*
X167023811Y-45033333D01*
X167119049Y-45080952D01*
X167166668Y-45128571D01*
X167214287Y-45223810D01*
X167214287Y-45461905D01*
X167166668Y-45557143D01*
X167119049Y-45604762D01*
X167023811Y-45652381D01*
X166738096Y-45652381D01*
X166642858Y-45604762D01*
X166595239Y-45557143D01*
X167642858Y-45557143D02*
X167690477Y-45604762D01*
X167642858Y-45652381D01*
X167595239Y-45604762D01*
X167642858Y-45557143D01*
X167642858Y-45652381D01*
X168071429Y-44747619D02*
X168119048Y-44700000D01*
X168214286Y-44652381D01*
X168452382Y-44652381D01*
X168547620Y-44700000D01*
X168595239Y-44747619D01*
X168642858Y-44842857D01*
X168642858Y-44938095D01*
X168595239Y-45080952D01*
X168023810Y-45652381D01*
X168642858Y-45652381D01*
X169071429Y-45652381D02*
X169071429Y-44985714D01*
X169071429Y-45080952D02*
X169119048Y-45033333D01*
X169214286Y-44985714D01*
X169357144Y-44985714D01*
X169452382Y-45033333D01*
X169500001Y-45128571D01*
X169500001Y-45652381D01*
X169500001Y-45128571D02*
X169547620Y-45033333D01*
X169642858Y-44985714D01*
X169785715Y-44985714D01*
X169880953Y-45033333D01*
X169928572Y-45128571D01*
X169928572Y-45652381D01*
X170404762Y-45652381D02*
X170404762Y-44985714D01*
X170404762Y-45080952D02*
X170452381Y-45033333D01*
X170547619Y-44985714D01*
X170690477Y-44985714D01*
X170785715Y-45033333D01*
X170833334Y-45128571D01*
X170833334Y-45652381D01*
X170833334Y-45128571D02*
X170880953Y-45033333D01*
X170976191Y-44985714D01*
X171119048Y-44985714D01*
X171214286Y-45033333D01*
X171261905Y-45128571D01*
X171261905Y-45652381D01*
X171500000Y-45747619D02*
X172261905Y-45747619D01*
X172500000Y-45652381D02*
X172500000Y-44652381D01*
X172833334Y-45366667D01*
X173166667Y-44652381D01*
X173166667Y-45652381D01*
X173547619Y-44652381D02*
X174166667Y-44652381D01*
X173833333Y-45033333D01*
X173976191Y-45033333D01*
X174071429Y-45080952D01*
X174119048Y-45128571D01*
X174166667Y-45223810D01*
X174166667Y-45461905D01*
X174119048Y-45557143D01*
X174071429Y-45604762D01*
X173976191Y-45652381D01*
X173690476Y-45652381D01*
X173595238Y-45604762D01*
X173547619Y-45557143D01*
X163966667Y-41452381D02*
X163633333Y-40976190D01*
X163395238Y-41452381D02*
X163395238Y-40452381D01*
X163776191Y-40452381D01*
X163871429Y-40500000D01*
X163919048Y-40547619D01*
X163966667Y-40642857D01*
X163966667Y-40785714D01*
X163919048Y-40880952D01*
X163871429Y-40928571D01*
X163776191Y-40976190D01*
X163395238Y-40976190D01*
X164395238Y-40928571D02*
X164728572Y-40928571D01*
X164871429Y-41452381D02*
X164395238Y-41452381D01*
X164395238Y-40452381D01*
X164871429Y-40452381D01*
X165633334Y-40928571D02*
X165300000Y-40928571D01*
X165300000Y-41452381D02*
X165300000Y-40452381D01*
X165776191Y-40452381D01*
X166300000Y-40452381D02*
X166300000Y-40690476D01*
X166061905Y-40595238D02*
X166300000Y-40690476D01*
X166538096Y-40595238D01*
X166157143Y-40880952D02*
X166300000Y-40690476D01*
X166442858Y-40880952D01*
X167061905Y-40452381D02*
X167061905Y-40690476D01*
X166823810Y-40595238D02*
X167061905Y-40690476D01*
X167300001Y-40595238D01*
X166919048Y-40880952D02*
X167061905Y-40690476D01*
X167204763Y-40880952D01*
X155880952Y-111652381D02*
X155880952Y-110652381D01*
X156214286Y-111366667D01*
X156547619Y-110652381D01*
X156547619Y-111652381D01*
X157166666Y-111652381D02*
X157071428Y-111604762D01*
X157023809Y-111557143D01*
X156976190Y-111461905D01*
X156976190Y-111176190D01*
X157023809Y-111080952D01*
X157071428Y-111033333D01*
X157166666Y-110985714D01*
X157309524Y-110985714D01*
X157404762Y-111033333D01*
X157452381Y-111080952D01*
X157500000Y-111176190D01*
X157500000Y-111461905D01*
X157452381Y-111557143D01*
X157404762Y-111604762D01*
X157309524Y-111652381D01*
X157166666Y-111652381D01*
X158357143Y-110985714D02*
X158357143Y-111652381D01*
X157928571Y-110985714D02*
X157928571Y-111509524D01*
X157976190Y-111604762D01*
X158071428Y-111652381D01*
X158214286Y-111652381D01*
X158309524Y-111604762D01*
X158357143Y-111557143D01*
X158833333Y-110985714D02*
X158833333Y-111652381D01*
X158833333Y-111080952D02*
X158880952Y-111033333D01*
X158976190Y-110985714D01*
X159119048Y-110985714D01*
X159214286Y-111033333D01*
X159261905Y-111128571D01*
X159261905Y-111652381D01*
X159595238Y-110985714D02*
X159976190Y-110985714D01*
X159738095Y-110652381D02*
X159738095Y-111509524D01*
X159785714Y-111604762D01*
X159880952Y-111652381D01*
X159976190Y-111652381D01*
X160309524Y-111652381D02*
X160309524Y-110985714D01*
X160309524Y-110652381D02*
X160261905Y-110700000D01*
X160309524Y-110747619D01*
X160357143Y-110700000D01*
X160309524Y-110652381D01*
X160309524Y-110747619D01*
X160785714Y-110985714D02*
X160785714Y-111652381D01*
X160785714Y-111080952D02*
X160833333Y-111033333D01*
X160928571Y-110985714D01*
X161071429Y-110985714D01*
X161166667Y-111033333D01*
X161214286Y-111128571D01*
X161214286Y-111652381D01*
X162119048Y-110985714D02*
X162119048Y-111795238D01*
X162071429Y-111890476D01*
X162023810Y-111938095D01*
X161928571Y-111985714D01*
X161785714Y-111985714D01*
X161690476Y-111938095D01*
X162119048Y-111604762D02*
X162023810Y-111652381D01*
X161833333Y-111652381D01*
X161738095Y-111604762D01*
X161690476Y-111557143D01*
X161642857Y-111461905D01*
X161642857Y-111176190D01*
X161690476Y-111080952D01*
X161738095Y-111033333D01*
X161833333Y-110985714D01*
X162023810Y-110985714D01*
X162119048Y-111033333D01*
X162595238Y-111652381D02*
X162595238Y-110652381D01*
X162595238Y-111128571D02*
X163166667Y-111128571D01*
X163166667Y-111652381D02*
X163166667Y-110652381D01*
X163785714Y-111652381D02*
X163690476Y-111604762D01*
X163642857Y-111557143D01*
X163595238Y-111461905D01*
X163595238Y-111176190D01*
X163642857Y-111080952D01*
X163690476Y-111033333D01*
X163785714Y-110985714D01*
X163928572Y-110985714D01*
X164023810Y-111033333D01*
X164071429Y-111080952D01*
X164119048Y-111176190D01*
X164119048Y-111461905D01*
X164071429Y-111557143D01*
X164023810Y-111604762D01*
X163928572Y-111652381D01*
X163785714Y-111652381D01*
X164690476Y-111652381D02*
X164595238Y-111604762D01*
X164547619Y-111509524D01*
X164547619Y-110652381D01*
X165452382Y-111604762D02*
X165357144Y-111652381D01*
X165166667Y-111652381D01*
X165071429Y-111604762D01*
X165023810Y-111509524D01*
X165023810Y-111128571D01*
X165071429Y-111033333D01*
X165166667Y-110985714D01*
X165357144Y-110985714D01*
X165452382Y-111033333D01*
X165500001Y-111128571D01*
X165500001Y-111223810D01*
X165023810Y-111319048D01*
X165690477Y-111747619D02*
X166452382Y-111747619D01*
X166595239Y-110652381D02*
X167214287Y-110652381D01*
X166880953Y-111033333D01*
X167023811Y-111033333D01*
X167119049Y-111080952D01*
X167166668Y-111128571D01*
X167214287Y-111223810D01*
X167214287Y-111461905D01*
X167166668Y-111557143D01*
X167119049Y-111604762D01*
X167023811Y-111652381D01*
X166738096Y-111652381D01*
X166642858Y-111604762D01*
X166595239Y-111557143D01*
X167642858Y-111557143D02*
X167690477Y-111604762D01*
X167642858Y-111652381D01*
X167595239Y-111604762D01*
X167642858Y-111557143D01*
X167642858Y-111652381D01*
X168071429Y-110747619D02*
X168119048Y-110700000D01*
X168214286Y-110652381D01*
X168452382Y-110652381D01*
X168547620Y-110700000D01*
X168595239Y-110747619D01*
X168642858Y-110842857D01*
X168642858Y-110938095D01*
X168595239Y-111080952D01*
X168023810Y-111652381D01*
X168642858Y-111652381D01*
X169071429Y-111652381D02*
X169071429Y-110985714D01*
X169071429Y-111080952D02*
X169119048Y-111033333D01*
X169214286Y-110985714D01*
X169357144Y-110985714D01*
X169452382Y-111033333D01*
X169500001Y-111128571D01*
X169500001Y-111652381D01*
X169500001Y-111128571D02*
X169547620Y-111033333D01*
X169642858Y-110985714D01*
X169785715Y-110985714D01*
X169880953Y-111033333D01*
X169928572Y-111128571D01*
X169928572Y-111652381D01*
X170404762Y-111652381D02*
X170404762Y-110985714D01*
X170404762Y-111080952D02*
X170452381Y-111033333D01*
X170547619Y-110985714D01*
X170690477Y-110985714D01*
X170785715Y-111033333D01*
X170833334Y-111128571D01*
X170833334Y-111652381D01*
X170833334Y-111128571D02*
X170880953Y-111033333D01*
X170976191Y-110985714D01*
X171119048Y-110985714D01*
X171214286Y-111033333D01*
X171261905Y-111128571D01*
X171261905Y-111652381D01*
X171500000Y-111747619D02*
X172261905Y-111747619D01*
X172500000Y-111652381D02*
X172500000Y-110652381D01*
X172833334Y-111366667D01*
X173166667Y-110652381D01*
X173166667Y-111652381D01*
X173547619Y-110652381D02*
X174166667Y-110652381D01*
X173833333Y-111033333D01*
X173976191Y-111033333D01*
X174071429Y-111080952D01*
X174119048Y-111128571D01*
X174166667Y-111223810D01*
X174166667Y-111461905D01*
X174119048Y-111557143D01*
X174071429Y-111604762D01*
X173976191Y-111652381D01*
X173690476Y-111652381D01*
X173595238Y-111604762D01*
X173547619Y-111557143D01*
X163966667Y-107452381D02*
X163633333Y-106976190D01*
X163395238Y-107452381D02*
X163395238Y-106452381D01*
X163776191Y-106452381D01*
X163871429Y-106500000D01*
X163919048Y-106547619D01*
X163966667Y-106642857D01*
X163966667Y-106785714D01*
X163919048Y-106880952D01*
X163871429Y-106928571D01*
X163776191Y-106976190D01*
X163395238Y-106976190D01*
X164395238Y-106928571D02*
X164728572Y-106928571D01*
X164871429Y-107452381D02*
X164395238Y-107452381D01*
X164395238Y-106452381D01*
X164871429Y-106452381D01*
X165633334Y-106928571D02*
X165300000Y-106928571D01*
X165300000Y-107452381D02*
X165300000Y-106452381D01*
X165776191Y-106452381D01*
X166300000Y-106452381D02*
X166300000Y-106690476D01*
X166061905Y-106595238D02*
X166300000Y-106690476D01*
X166538096Y-106595238D01*
X166157143Y-106880952D02*
X166300000Y-106690476D01*
X166442858Y-106880952D01*
X167061905Y-106452381D02*
X167061905Y-106690476D01*
X166823810Y-106595238D02*
X167061905Y-106690476D01*
X167300001Y-106595238D01*
X166919048Y-106880952D02*
X167061905Y-106690476D01*
X167204763Y-106880952D01*
X99957619Y-73868095D02*
X99910000Y-73820476D01*
X99862381Y-73725238D01*
X99862381Y-73487142D01*
X99910000Y-73391904D01*
X99957619Y-73344285D01*
X100052857Y-73296666D01*
X100148095Y-73296666D01*
X100290952Y-73344285D01*
X100862381Y-73915714D01*
X100862381Y-73296666D01*
X99862381Y-72963333D02*
X99862381Y-72296666D01*
X100862381Y-72725238D01*
X99862381Y-71725238D02*
X99862381Y-71629999D01*
X99910000Y-71534761D01*
X99957619Y-71487142D01*
X100052857Y-71439523D01*
X100243333Y-71391904D01*
X100481429Y-71391904D01*
X100671905Y-71439523D01*
X100767143Y-71487142D01*
X100814762Y-71534761D01*
X100862381Y-71629999D01*
X100862381Y-71725238D01*
X100814762Y-71820476D01*
X100767143Y-71868095D01*
X100671905Y-71915714D01*
X100481429Y-71963333D01*
X100243333Y-71963333D01*
X100052857Y-71915714D01*
X99957619Y-71868095D01*
X99910000Y-71820476D01*
X99862381Y-71725238D01*
X165285715Y-57952381D02*
X164809524Y-57952381D01*
X164761905Y-58428571D01*
X164809524Y-58380952D01*
X164904762Y-58333333D01*
X165142858Y-58333333D01*
X165238096Y-58380952D01*
X165285715Y-58428571D01*
X165333334Y-58523810D01*
X165333334Y-58761905D01*
X165285715Y-58857143D01*
X165238096Y-58904762D01*
X165142858Y-58952381D01*
X164904762Y-58952381D01*
X164809524Y-58904762D01*
X164761905Y-58857143D01*
X165952381Y-57952381D02*
X166047620Y-57952381D01*
X166142858Y-58000000D01*
X166190477Y-58047619D01*
X166238096Y-58142857D01*
X166285715Y-58333333D01*
X166285715Y-58571429D01*
X166238096Y-58761905D01*
X166190477Y-58857143D01*
X166142858Y-58904762D01*
X166047620Y-58952381D01*
X165952381Y-58952381D01*
X165857143Y-58904762D01*
X165809524Y-58857143D01*
X165761905Y-58761905D01*
X165714286Y-58571429D01*
X165714286Y-58333333D01*
X165761905Y-58142857D01*
X165809524Y-58047619D01*
X165857143Y-58000000D01*
X165952381Y-57952381D01*
X166904762Y-57952381D02*
X167000001Y-57952381D01*
X167095239Y-58000000D01*
X167142858Y-58047619D01*
X167190477Y-58142857D01*
X167238096Y-58333333D01*
X167238096Y-58571429D01*
X167190477Y-58761905D01*
X167142858Y-58857143D01*
X167095239Y-58904762D01*
X167000001Y-58952381D01*
X166904762Y-58952381D01*
X166809524Y-58904762D01*
X166761905Y-58857143D01*
X166714286Y-58761905D01*
X166666667Y-58571429D01*
X166666667Y-58333333D01*
X166714286Y-58142857D01*
X166761905Y-58047619D01*
X166809524Y-58000000D01*
X166904762Y-57952381D01*
X77285715Y-45952381D02*
X76809524Y-45952381D01*
X76761905Y-46428571D01*
X76809524Y-46380952D01*
X76904762Y-46333333D01*
X77142858Y-46333333D01*
X77238096Y-46380952D01*
X77285715Y-46428571D01*
X77333334Y-46523810D01*
X77333334Y-46761905D01*
X77285715Y-46857143D01*
X77238096Y-46904762D01*
X77142858Y-46952381D01*
X76904762Y-46952381D01*
X76809524Y-46904762D01*
X76761905Y-46857143D01*
X77952381Y-45952381D02*
X78047620Y-45952381D01*
X78142858Y-46000000D01*
X78190477Y-46047619D01*
X78238096Y-46142857D01*
X78285715Y-46333333D01*
X78285715Y-46571429D01*
X78238096Y-46761905D01*
X78190477Y-46857143D01*
X78142858Y-46904762D01*
X78047620Y-46952381D01*
X77952381Y-46952381D01*
X77857143Y-46904762D01*
X77809524Y-46857143D01*
X77761905Y-46761905D01*
X77714286Y-46571429D01*
X77714286Y-46333333D01*
X77761905Y-46142857D01*
X77809524Y-46047619D01*
X77857143Y-46000000D01*
X77952381Y-45952381D01*
X78904762Y-45952381D02*
X79000001Y-45952381D01*
X79095239Y-46000000D01*
X79142858Y-46047619D01*
X79190477Y-46142857D01*
X79238096Y-46333333D01*
X79238096Y-46571429D01*
X79190477Y-46761905D01*
X79142858Y-46857143D01*
X79095239Y-46904762D01*
X79000001Y-46952381D01*
X78904762Y-46952381D01*
X78809524Y-46904762D01*
X78761905Y-46857143D01*
X78714286Y-46761905D01*
X78666667Y-46571429D01*
X78666667Y-46333333D01*
X78714286Y-46142857D01*
X78761905Y-46047619D01*
X78809524Y-46000000D01*
X78904762Y-45952381D01*
X165285715Y-100952381D02*
X164809524Y-100952381D01*
X164761905Y-101428571D01*
X164809524Y-101380952D01*
X164904762Y-101333333D01*
X165142858Y-101333333D01*
X165238096Y-101380952D01*
X165285715Y-101428571D01*
X165333334Y-101523810D01*
X165333334Y-101761905D01*
X165285715Y-101857143D01*
X165238096Y-101904762D01*
X165142858Y-101952381D01*
X164904762Y-101952381D01*
X164809524Y-101904762D01*
X164761905Y-101857143D01*
X165952381Y-100952381D02*
X166047620Y-100952381D01*
X166142858Y-101000000D01*
X166190477Y-101047619D01*
X166238096Y-101142857D01*
X166285715Y-101333333D01*
X166285715Y-101571429D01*
X166238096Y-101761905D01*
X166190477Y-101857143D01*
X166142858Y-101904762D01*
X166047620Y-101952381D01*
X165952381Y-101952381D01*
X165857143Y-101904762D01*
X165809524Y-101857143D01*
X165761905Y-101761905D01*
X165714286Y-101571429D01*
X165714286Y-101333333D01*
X165761905Y-101142857D01*
X165809524Y-101047619D01*
X165857143Y-101000000D01*
X165952381Y-100952381D01*
X166904762Y-100952381D02*
X167000001Y-100952381D01*
X167095239Y-101000000D01*
X167142858Y-101047619D01*
X167190477Y-101142857D01*
X167238096Y-101333333D01*
X167238096Y-101571429D01*
X167190477Y-101761905D01*
X167142858Y-101857143D01*
X167095239Y-101904762D01*
X167000001Y-101952381D01*
X166904762Y-101952381D01*
X166809524Y-101904762D01*
X166761905Y-101857143D01*
X166714286Y-101761905D01*
X166666667Y-101571429D01*
X166666667Y-101333333D01*
X166714286Y-101142857D01*
X166761905Y-101047619D01*
X166809524Y-101000000D01*
X166904762Y-100952381D01*
X69880952Y-111652381D02*
X69880952Y-110652381D01*
X70214286Y-111366667D01*
X70547619Y-110652381D01*
X70547619Y-111652381D01*
X71166666Y-111652381D02*
X71071428Y-111604762D01*
X71023809Y-111557143D01*
X70976190Y-111461905D01*
X70976190Y-111176190D01*
X71023809Y-111080952D01*
X71071428Y-111033333D01*
X71166666Y-110985714D01*
X71309524Y-110985714D01*
X71404762Y-111033333D01*
X71452381Y-111080952D01*
X71500000Y-111176190D01*
X71500000Y-111461905D01*
X71452381Y-111557143D01*
X71404762Y-111604762D01*
X71309524Y-111652381D01*
X71166666Y-111652381D01*
X72357143Y-110985714D02*
X72357143Y-111652381D01*
X71928571Y-110985714D02*
X71928571Y-111509524D01*
X71976190Y-111604762D01*
X72071428Y-111652381D01*
X72214286Y-111652381D01*
X72309524Y-111604762D01*
X72357143Y-111557143D01*
X72833333Y-110985714D02*
X72833333Y-111652381D01*
X72833333Y-111080952D02*
X72880952Y-111033333D01*
X72976190Y-110985714D01*
X73119048Y-110985714D01*
X73214286Y-111033333D01*
X73261905Y-111128571D01*
X73261905Y-111652381D01*
X73595238Y-110985714D02*
X73976190Y-110985714D01*
X73738095Y-110652381D02*
X73738095Y-111509524D01*
X73785714Y-111604762D01*
X73880952Y-111652381D01*
X73976190Y-111652381D01*
X74309524Y-111652381D02*
X74309524Y-110985714D01*
X74309524Y-110652381D02*
X74261905Y-110700000D01*
X74309524Y-110747619D01*
X74357143Y-110700000D01*
X74309524Y-110652381D01*
X74309524Y-110747619D01*
X74785714Y-110985714D02*
X74785714Y-111652381D01*
X74785714Y-111080952D02*
X74833333Y-111033333D01*
X74928571Y-110985714D01*
X75071429Y-110985714D01*
X75166667Y-111033333D01*
X75214286Y-111128571D01*
X75214286Y-111652381D01*
X76119048Y-110985714D02*
X76119048Y-111795238D01*
X76071429Y-111890476D01*
X76023810Y-111938095D01*
X75928571Y-111985714D01*
X75785714Y-111985714D01*
X75690476Y-111938095D01*
X76119048Y-111604762D02*
X76023810Y-111652381D01*
X75833333Y-111652381D01*
X75738095Y-111604762D01*
X75690476Y-111557143D01*
X75642857Y-111461905D01*
X75642857Y-111176190D01*
X75690476Y-111080952D01*
X75738095Y-111033333D01*
X75833333Y-110985714D01*
X76023810Y-110985714D01*
X76119048Y-111033333D01*
X76595238Y-111652381D02*
X76595238Y-110652381D01*
X76595238Y-111128571D02*
X77166667Y-111128571D01*
X77166667Y-111652381D02*
X77166667Y-110652381D01*
X77785714Y-111652381D02*
X77690476Y-111604762D01*
X77642857Y-111557143D01*
X77595238Y-111461905D01*
X77595238Y-111176190D01*
X77642857Y-111080952D01*
X77690476Y-111033333D01*
X77785714Y-110985714D01*
X77928572Y-110985714D01*
X78023810Y-111033333D01*
X78071429Y-111080952D01*
X78119048Y-111176190D01*
X78119048Y-111461905D01*
X78071429Y-111557143D01*
X78023810Y-111604762D01*
X77928572Y-111652381D01*
X77785714Y-111652381D01*
X78690476Y-111652381D02*
X78595238Y-111604762D01*
X78547619Y-111509524D01*
X78547619Y-110652381D01*
X79452382Y-111604762D02*
X79357144Y-111652381D01*
X79166667Y-111652381D01*
X79071429Y-111604762D01*
X79023810Y-111509524D01*
X79023810Y-111128571D01*
X79071429Y-111033333D01*
X79166667Y-110985714D01*
X79357144Y-110985714D01*
X79452382Y-111033333D01*
X79500001Y-111128571D01*
X79500001Y-111223810D01*
X79023810Y-111319048D01*
X79690477Y-111747619D02*
X80452382Y-111747619D01*
X80595239Y-110652381D02*
X81214287Y-110652381D01*
X80880953Y-111033333D01*
X81023811Y-111033333D01*
X81119049Y-111080952D01*
X81166668Y-111128571D01*
X81214287Y-111223810D01*
X81214287Y-111461905D01*
X81166668Y-111557143D01*
X81119049Y-111604762D01*
X81023811Y-111652381D01*
X80738096Y-111652381D01*
X80642858Y-111604762D01*
X80595239Y-111557143D01*
X81642858Y-111557143D02*
X81690477Y-111604762D01*
X81642858Y-111652381D01*
X81595239Y-111604762D01*
X81642858Y-111557143D01*
X81642858Y-111652381D01*
X82071429Y-110747619D02*
X82119048Y-110700000D01*
X82214286Y-110652381D01*
X82452382Y-110652381D01*
X82547620Y-110700000D01*
X82595239Y-110747619D01*
X82642858Y-110842857D01*
X82642858Y-110938095D01*
X82595239Y-111080952D01*
X82023810Y-111652381D01*
X82642858Y-111652381D01*
X83071429Y-111652381D02*
X83071429Y-110985714D01*
X83071429Y-111080952D02*
X83119048Y-111033333D01*
X83214286Y-110985714D01*
X83357144Y-110985714D01*
X83452382Y-111033333D01*
X83500001Y-111128571D01*
X83500001Y-111652381D01*
X83500001Y-111128571D02*
X83547620Y-111033333D01*
X83642858Y-110985714D01*
X83785715Y-110985714D01*
X83880953Y-111033333D01*
X83928572Y-111128571D01*
X83928572Y-111652381D01*
X84404762Y-111652381D02*
X84404762Y-110985714D01*
X84404762Y-111080952D02*
X84452381Y-111033333D01*
X84547619Y-110985714D01*
X84690477Y-110985714D01*
X84785715Y-111033333D01*
X84833334Y-111128571D01*
X84833334Y-111652381D01*
X84833334Y-111128571D02*
X84880953Y-111033333D01*
X84976191Y-110985714D01*
X85119048Y-110985714D01*
X85214286Y-111033333D01*
X85261905Y-111128571D01*
X85261905Y-111652381D01*
X85500000Y-111747619D02*
X86261905Y-111747619D01*
X86500000Y-111652381D02*
X86500000Y-110652381D01*
X86833334Y-111366667D01*
X87166667Y-110652381D01*
X87166667Y-111652381D01*
X87547619Y-110652381D02*
X88166667Y-110652381D01*
X87833333Y-111033333D01*
X87976191Y-111033333D01*
X88071429Y-111080952D01*
X88119048Y-111128571D01*
X88166667Y-111223810D01*
X88166667Y-111461905D01*
X88119048Y-111557143D01*
X88071429Y-111604762D01*
X87976191Y-111652381D01*
X87690476Y-111652381D01*
X87595238Y-111604762D01*
X87547619Y-111557143D01*
X77966667Y-107452381D02*
X77633333Y-106976190D01*
X77395238Y-107452381D02*
X77395238Y-106452381D01*
X77776191Y-106452381D01*
X77871429Y-106500000D01*
X77919048Y-106547619D01*
X77966667Y-106642857D01*
X77966667Y-106785714D01*
X77919048Y-106880952D01*
X77871429Y-106928571D01*
X77776191Y-106976190D01*
X77395238Y-106976190D01*
X78395238Y-106928571D02*
X78728572Y-106928571D01*
X78871429Y-107452381D02*
X78395238Y-107452381D01*
X78395238Y-106452381D01*
X78871429Y-106452381D01*
X79633334Y-106928571D02*
X79300000Y-106928571D01*
X79300000Y-107452381D02*
X79300000Y-106452381D01*
X79776191Y-106452381D01*
X80300000Y-106452381D02*
X80300000Y-106690476D01*
X80061905Y-106595238D02*
X80300000Y-106690476D01*
X80538096Y-106595238D01*
X80157143Y-106880952D02*
X80300000Y-106690476D01*
X80442858Y-106880952D01*
X81061905Y-106452381D02*
X81061905Y-106690476D01*
X80823810Y-106595238D02*
X81061905Y-106690476D01*
X81300001Y-106595238D01*
X80919048Y-106880952D02*
X81061905Y-106690476D01*
X81204763Y-106880952D01*
M02*
