G04 #@! TF.GenerationSoftware,KiCad,Pcbnew,5.0.2-bee76a0~70~ubuntu18.04.1*
G04 #@! TF.CreationDate,2019-03-10T17:41:35+00:00*
G04 #@! TF.ProjectId,Lcr_addon,4c63725f-6164-4646-9f6e-2e6b69636164,rev?*
G04 #@! TF.SameCoordinates,Original*
G04 #@! TF.FileFunction,Soldermask,Top*
G04 #@! TF.FilePolarity,Negative*
%FSLAX46Y46*%
G04 Gerber Fmt 4.6, Leading zero omitted, Abs format (unit mm)*
G04 Created by KiCad (PCBNEW 5.0.2-bee76a0~70~ubuntu18.04.1) date Sun 10 Mar 2019 17:41:35 GMT*
%MOMM*%
%LPD*%
G01*
G04 APERTURE LIST*
%ADD10C,0.100000*%
G04 APERTURE END LIST*
D10*
G36*
X45565058Y-95027059D02*
X45791385Y-95095714D01*
X45904549Y-95130042D01*
X46217425Y-95297279D01*
X46491661Y-95522339D01*
X46716721Y-95796575D01*
X46883958Y-96109451D01*
X46883958Y-96109452D01*
X46986941Y-96448942D01*
X47013000Y-96713525D01*
X47013000Y-100390475D01*
X46986941Y-100655058D01*
X46918286Y-100881385D01*
X46883958Y-100994549D01*
X46716721Y-101307425D01*
X46491661Y-101581661D01*
X46217425Y-101806721D01*
X45904548Y-101973958D01*
X45791384Y-102008286D01*
X45565057Y-102076941D01*
X45212000Y-102111714D01*
X44858942Y-102076941D01*
X44632615Y-102008286D01*
X44519451Y-101973958D01*
X44206575Y-101806721D01*
X43932339Y-101581661D01*
X43707279Y-101307425D01*
X43540042Y-100994548D01*
X43505714Y-100881384D01*
X43437059Y-100655057D01*
X43411000Y-100390474D01*
X43411001Y-96713525D01*
X43437060Y-96448942D01*
X43540043Y-96109452D01*
X43540043Y-96109451D01*
X43707280Y-95796575D01*
X43932340Y-95522339D01*
X44206576Y-95297279D01*
X44519452Y-95130042D01*
X44632616Y-95095714D01*
X44858943Y-95027059D01*
X45212000Y-94992286D01*
X45565058Y-95027059D01*
X45565058Y-95027059D01*
G37*
G36*
X55725058Y-95027059D02*
X55951385Y-95095714D01*
X56064549Y-95130042D01*
X56377425Y-95297279D01*
X56651661Y-95522339D01*
X56876721Y-95796575D01*
X57043958Y-96109451D01*
X57043958Y-96109452D01*
X57146941Y-96448942D01*
X57173000Y-96713525D01*
X57173000Y-100390475D01*
X57146941Y-100655058D01*
X57078286Y-100881385D01*
X57043958Y-100994549D01*
X56876721Y-101307425D01*
X56651661Y-101581661D01*
X56377425Y-101806721D01*
X56064548Y-101973958D01*
X55951384Y-102008286D01*
X55725057Y-102076941D01*
X55372000Y-102111714D01*
X55018942Y-102076941D01*
X54792615Y-102008286D01*
X54679451Y-101973958D01*
X54366575Y-101806721D01*
X54092339Y-101581661D01*
X53867279Y-101307425D01*
X53700042Y-100994548D01*
X53665714Y-100881384D01*
X53597059Y-100655057D01*
X53571000Y-100390474D01*
X53571001Y-96713525D01*
X53597060Y-96448942D01*
X53700043Y-96109452D01*
X53700043Y-96109451D01*
X53867280Y-95796575D01*
X54092340Y-95522339D01*
X54366576Y-95297279D01*
X54679452Y-95130042D01*
X54792616Y-95095714D01*
X55018943Y-95027059D01*
X55372000Y-94992286D01*
X55725058Y-95027059D01*
X55725058Y-95027059D01*
G37*
G36*
X103477058Y-95027059D02*
X103703385Y-95095714D01*
X103816549Y-95130042D01*
X104129425Y-95297279D01*
X104403661Y-95522339D01*
X104628721Y-95796575D01*
X104795958Y-96109451D01*
X104795958Y-96109452D01*
X104898941Y-96448942D01*
X104925000Y-96713525D01*
X104925000Y-100390475D01*
X104898941Y-100655058D01*
X104830286Y-100881385D01*
X104795958Y-100994549D01*
X104628721Y-101307425D01*
X104403661Y-101581661D01*
X104129425Y-101806721D01*
X103816548Y-101973958D01*
X103703384Y-102008286D01*
X103477057Y-102076941D01*
X103124000Y-102111714D01*
X102770942Y-102076941D01*
X102544615Y-102008286D01*
X102431451Y-101973958D01*
X102118575Y-101806721D01*
X101844339Y-101581661D01*
X101619279Y-101307425D01*
X101452042Y-100994548D01*
X101417714Y-100881384D01*
X101349059Y-100655057D01*
X101323000Y-100390474D01*
X101323001Y-96713525D01*
X101349060Y-96448942D01*
X101452043Y-96109452D01*
X101452043Y-96109451D01*
X101619280Y-95796575D01*
X101844340Y-95522339D01*
X102118576Y-95297279D01*
X102431452Y-95130042D01*
X102544616Y-95095714D01*
X102770943Y-95027059D01*
X103124000Y-94992286D01*
X103477058Y-95027059D01*
X103477058Y-95027059D01*
G37*
G36*
X113637058Y-95027059D02*
X113863385Y-95095714D01*
X113976549Y-95130042D01*
X114289425Y-95297279D01*
X114563661Y-95522339D01*
X114788721Y-95796575D01*
X114955958Y-96109451D01*
X114955958Y-96109452D01*
X115058941Y-96448942D01*
X115085000Y-96713525D01*
X115085000Y-100390475D01*
X115058941Y-100655058D01*
X114990286Y-100881385D01*
X114955958Y-100994549D01*
X114788721Y-101307425D01*
X114563661Y-101581661D01*
X114289425Y-101806721D01*
X113976548Y-101973958D01*
X113863384Y-102008286D01*
X113637057Y-102076941D01*
X113284000Y-102111714D01*
X112930942Y-102076941D01*
X112704615Y-102008286D01*
X112591451Y-101973958D01*
X112278575Y-101806721D01*
X112004339Y-101581661D01*
X111779279Y-101307425D01*
X111612042Y-100994548D01*
X111577714Y-100881384D01*
X111509059Y-100655057D01*
X111483000Y-100390474D01*
X111483001Y-96713525D01*
X111509060Y-96448942D01*
X111612043Y-96109452D01*
X111612043Y-96109451D01*
X111779280Y-95796575D01*
X112004340Y-95522339D01*
X112278576Y-95297279D01*
X112591452Y-95130042D01*
X112704616Y-95095714D01*
X112930943Y-95027059D01*
X113284000Y-94992286D01*
X113637058Y-95027059D01*
X113637058Y-95027059D01*
G37*
G36*
X82141058Y-95027059D02*
X82367385Y-95095714D01*
X82480549Y-95130042D01*
X82793425Y-95297279D01*
X83067661Y-95522339D01*
X83292721Y-95796575D01*
X83459958Y-96109451D01*
X83459958Y-96109452D01*
X83562941Y-96448942D01*
X83589000Y-96713525D01*
X83589000Y-100390475D01*
X83562941Y-100655058D01*
X83494286Y-100881385D01*
X83459958Y-100994549D01*
X83292721Y-101307425D01*
X83067661Y-101581661D01*
X82793425Y-101806721D01*
X82480548Y-101973958D01*
X82367384Y-102008286D01*
X82141057Y-102076941D01*
X81788000Y-102111714D01*
X81434942Y-102076941D01*
X81208615Y-102008286D01*
X81095451Y-101973958D01*
X80782575Y-101806721D01*
X80508339Y-101581661D01*
X80283279Y-101307425D01*
X80116042Y-100994548D01*
X80081714Y-100881384D01*
X80013059Y-100655057D01*
X79987000Y-100390474D01*
X79987001Y-96713525D01*
X80013060Y-96448942D01*
X80116043Y-96109452D01*
X80116043Y-96109451D01*
X80283280Y-95796575D01*
X80508340Y-95522339D01*
X80782576Y-95297279D01*
X81095452Y-95130042D01*
X81208616Y-95095714D01*
X81434943Y-95027059D01*
X81788000Y-94992286D01*
X82141058Y-95027059D01*
X82141058Y-95027059D01*
G37*
G36*
X74013058Y-95027059D02*
X74239385Y-95095714D01*
X74352549Y-95130042D01*
X74665425Y-95297279D01*
X74939661Y-95522339D01*
X75164721Y-95796575D01*
X75331958Y-96109451D01*
X75331958Y-96109452D01*
X75434941Y-96448942D01*
X75461000Y-96713525D01*
X75461000Y-100390475D01*
X75434941Y-100655058D01*
X75366286Y-100881385D01*
X75331958Y-100994549D01*
X75164721Y-101307425D01*
X74939661Y-101581661D01*
X74665425Y-101806721D01*
X74352548Y-101973958D01*
X74239384Y-102008286D01*
X74013057Y-102076941D01*
X73660000Y-102111714D01*
X73306942Y-102076941D01*
X73080615Y-102008286D01*
X72967451Y-101973958D01*
X72654575Y-101806721D01*
X72380339Y-101581661D01*
X72155279Y-101307425D01*
X71988042Y-100994548D01*
X71953714Y-100881384D01*
X71885059Y-100655057D01*
X71859000Y-100390474D01*
X71859001Y-96713525D01*
X71885060Y-96448942D01*
X71988043Y-96109452D01*
X71988043Y-96109451D01*
X72155280Y-95796575D01*
X72380340Y-95522339D01*
X72654576Y-95297279D01*
X72967452Y-95130042D01*
X73080616Y-95095714D01*
X73306943Y-95027059D01*
X73660000Y-94992286D01*
X74013058Y-95027059D01*
X74013058Y-95027059D01*
G37*
G36*
X63853058Y-95027059D02*
X64079385Y-95095714D01*
X64192549Y-95130042D01*
X64505425Y-95297279D01*
X64779661Y-95522339D01*
X65004721Y-95796575D01*
X65171958Y-96109451D01*
X65171958Y-96109452D01*
X65274941Y-96448942D01*
X65301000Y-96713525D01*
X65301000Y-100390475D01*
X65274941Y-100655058D01*
X65206286Y-100881385D01*
X65171958Y-100994549D01*
X65004721Y-101307425D01*
X64779661Y-101581661D01*
X64505425Y-101806721D01*
X64192548Y-101973958D01*
X64079384Y-102008286D01*
X63853057Y-102076941D01*
X63500000Y-102111714D01*
X63146942Y-102076941D01*
X62920615Y-102008286D01*
X62807451Y-101973958D01*
X62494575Y-101806721D01*
X62220339Y-101581661D01*
X61995279Y-101307425D01*
X61828042Y-100994548D01*
X61793714Y-100881384D01*
X61725059Y-100655057D01*
X61699000Y-100390474D01*
X61699001Y-96713525D01*
X61725060Y-96448942D01*
X61828043Y-96109452D01*
X61828043Y-96109451D01*
X61995280Y-95796575D01*
X62220340Y-95522339D01*
X62494576Y-95297279D01*
X62807452Y-95130042D01*
X62920616Y-95095714D01*
X63146943Y-95027059D01*
X63500000Y-94992286D01*
X63853058Y-95027059D01*
X63853058Y-95027059D01*
G37*
G36*
X92301058Y-95027059D02*
X92527385Y-95095714D01*
X92640549Y-95130042D01*
X92953425Y-95297279D01*
X93227661Y-95522339D01*
X93452721Y-95796575D01*
X93619958Y-96109451D01*
X93619958Y-96109452D01*
X93722941Y-96448942D01*
X93749000Y-96713525D01*
X93749000Y-100390475D01*
X93722941Y-100655058D01*
X93654286Y-100881385D01*
X93619958Y-100994549D01*
X93452721Y-101307425D01*
X93227661Y-101581661D01*
X92953425Y-101806721D01*
X92640548Y-101973958D01*
X92527384Y-102008286D01*
X92301057Y-102076941D01*
X91948000Y-102111714D01*
X91594942Y-102076941D01*
X91368615Y-102008286D01*
X91255451Y-101973958D01*
X90942575Y-101806721D01*
X90668339Y-101581661D01*
X90443279Y-101307425D01*
X90276042Y-100994548D01*
X90241714Y-100881384D01*
X90173059Y-100655057D01*
X90147000Y-100390474D01*
X90147001Y-96713525D01*
X90173060Y-96448942D01*
X90276043Y-96109452D01*
X90276043Y-96109451D01*
X90443280Y-95796575D01*
X90668340Y-95522339D01*
X90942576Y-95297279D01*
X91255452Y-95130042D01*
X91368616Y-95095714D01*
X91594943Y-95027059D01*
X91948000Y-94992286D01*
X92301058Y-95027059D01*
X92301058Y-95027059D01*
G37*
G36*
X89574821Y-92183313D02*
X89574824Y-92183314D01*
X89574825Y-92183314D01*
X89735239Y-92231975D01*
X89735241Y-92231976D01*
X89735244Y-92231977D01*
X89883078Y-92310995D01*
X90012659Y-92417341D01*
X90119005Y-92546922D01*
X90198023Y-92694756D01*
X90246687Y-92855179D01*
X90259000Y-92980197D01*
X90259000Y-93963804D01*
X90246687Y-94088821D01*
X90198023Y-94249244D01*
X90119005Y-94397078D01*
X90012659Y-94526659D01*
X89883078Y-94633005D01*
X89735243Y-94712023D01*
X89735240Y-94712024D01*
X89735238Y-94712025D01*
X89574824Y-94760686D01*
X89574823Y-94760686D01*
X89574820Y-94760687D01*
X89408000Y-94777117D01*
X89241179Y-94760687D01*
X89241176Y-94760686D01*
X89241175Y-94760686D01*
X89080761Y-94712025D01*
X89080759Y-94712024D01*
X89080756Y-94712023D01*
X88932922Y-94633005D01*
X88803341Y-94526659D01*
X88696995Y-94397078D01*
X88617977Y-94249243D01*
X88569315Y-94088825D01*
X88569314Y-94088824D01*
X88569314Y-94088823D01*
X88569313Y-94088820D01*
X88557000Y-93963803D01*
X88557000Y-92980197D01*
X88569314Y-92855179D01*
X88617978Y-92694756D01*
X88696996Y-92546922D01*
X88803342Y-92417341D01*
X88932923Y-92310995D01*
X89080757Y-92231977D01*
X89080760Y-92231976D01*
X89080762Y-92231975D01*
X89241176Y-92183314D01*
X89241177Y-92183314D01*
X89241180Y-92183313D01*
X89408000Y-92166883D01*
X89574821Y-92183313D01*
X89574821Y-92183313D01*
G37*
G36*
X110910821Y-92183313D02*
X110910824Y-92183314D01*
X110910825Y-92183314D01*
X111071239Y-92231975D01*
X111071241Y-92231976D01*
X111071244Y-92231977D01*
X111219078Y-92310995D01*
X111348659Y-92417341D01*
X111455005Y-92546922D01*
X111534023Y-92694756D01*
X111582687Y-92855179D01*
X111595000Y-92980197D01*
X111595000Y-93963804D01*
X111582687Y-94088821D01*
X111534023Y-94249244D01*
X111455005Y-94397078D01*
X111348659Y-94526659D01*
X111219078Y-94633005D01*
X111071243Y-94712023D01*
X111071240Y-94712024D01*
X111071238Y-94712025D01*
X110910824Y-94760686D01*
X110910823Y-94760686D01*
X110910820Y-94760687D01*
X110744000Y-94777117D01*
X110577179Y-94760687D01*
X110577176Y-94760686D01*
X110577175Y-94760686D01*
X110416761Y-94712025D01*
X110416759Y-94712024D01*
X110416756Y-94712023D01*
X110268922Y-94633005D01*
X110139341Y-94526659D01*
X110032995Y-94397078D01*
X109953977Y-94249243D01*
X109905315Y-94088825D01*
X109905314Y-94088824D01*
X109905314Y-94088823D01*
X109905313Y-94088820D01*
X109893000Y-93963803D01*
X109893000Y-92980197D01*
X109905314Y-92855179D01*
X109953978Y-92694756D01*
X110032996Y-92546922D01*
X110139342Y-92417341D01*
X110268923Y-92310995D01*
X110416757Y-92231977D01*
X110416760Y-92231976D01*
X110416762Y-92231975D01*
X110577176Y-92183314D01*
X110577177Y-92183314D01*
X110577180Y-92183313D01*
X110744000Y-92166883D01*
X110910821Y-92183313D01*
X110910821Y-92183313D01*
G37*
G36*
X50458821Y-92183313D02*
X50458824Y-92183314D01*
X50458825Y-92183314D01*
X50619239Y-92231975D01*
X50619241Y-92231976D01*
X50619244Y-92231977D01*
X50767078Y-92310995D01*
X50896659Y-92417341D01*
X51003005Y-92546922D01*
X51082023Y-92694756D01*
X51130687Y-92855179D01*
X51143000Y-92980197D01*
X51143000Y-93963804D01*
X51130687Y-94088821D01*
X51082023Y-94249244D01*
X51003005Y-94397078D01*
X50896659Y-94526659D01*
X50767078Y-94633005D01*
X50619243Y-94712023D01*
X50619240Y-94712024D01*
X50619238Y-94712025D01*
X50458824Y-94760686D01*
X50458823Y-94760686D01*
X50458820Y-94760687D01*
X50292000Y-94777117D01*
X50125179Y-94760687D01*
X50125176Y-94760686D01*
X50125175Y-94760686D01*
X49964761Y-94712025D01*
X49964759Y-94712024D01*
X49964756Y-94712023D01*
X49816922Y-94633005D01*
X49687341Y-94526659D01*
X49580995Y-94397078D01*
X49501977Y-94249243D01*
X49453315Y-94088825D01*
X49453314Y-94088824D01*
X49453314Y-94088823D01*
X49453313Y-94088820D01*
X49441000Y-93963803D01*
X49441000Y-92980197D01*
X49453314Y-92855179D01*
X49501978Y-92694756D01*
X49580996Y-92546922D01*
X49687342Y-92417341D01*
X49816923Y-92310995D01*
X49964757Y-92231977D01*
X49964760Y-92231976D01*
X49964762Y-92231975D01*
X50125176Y-92183314D01*
X50125177Y-92183314D01*
X50125180Y-92183313D01*
X50292000Y-92166883D01*
X50458821Y-92183313D01*
X50458821Y-92183313D01*
G37*
G36*
X52998821Y-92183313D02*
X52998824Y-92183314D01*
X52998825Y-92183314D01*
X53159239Y-92231975D01*
X53159241Y-92231976D01*
X53159244Y-92231977D01*
X53307078Y-92310995D01*
X53436659Y-92417341D01*
X53543005Y-92546922D01*
X53622023Y-92694756D01*
X53670687Y-92855179D01*
X53683000Y-92980197D01*
X53683000Y-93963804D01*
X53670687Y-94088821D01*
X53622023Y-94249244D01*
X53543005Y-94397078D01*
X53436659Y-94526659D01*
X53307078Y-94633005D01*
X53159243Y-94712023D01*
X53159240Y-94712024D01*
X53159238Y-94712025D01*
X52998824Y-94760686D01*
X52998823Y-94760686D01*
X52998820Y-94760687D01*
X52832000Y-94777117D01*
X52665179Y-94760687D01*
X52665176Y-94760686D01*
X52665175Y-94760686D01*
X52504761Y-94712025D01*
X52504759Y-94712024D01*
X52504756Y-94712023D01*
X52356922Y-94633005D01*
X52227341Y-94526659D01*
X52120995Y-94397078D01*
X52041977Y-94249243D01*
X51993315Y-94088825D01*
X51993314Y-94088824D01*
X51993314Y-94088823D01*
X51993313Y-94088820D01*
X51981000Y-93963803D01*
X51981000Y-92980197D01*
X51993314Y-92855179D01*
X52041978Y-92694756D01*
X52120996Y-92546922D01*
X52227342Y-92417341D01*
X52356923Y-92310995D01*
X52504757Y-92231977D01*
X52504760Y-92231976D01*
X52504762Y-92231975D01*
X52665176Y-92183314D01*
X52665177Y-92183314D01*
X52665180Y-92183313D01*
X52832000Y-92166883D01*
X52998821Y-92183313D01*
X52998821Y-92183313D01*
G37*
G36*
X68746821Y-92183313D02*
X68746824Y-92183314D01*
X68746825Y-92183314D01*
X68907239Y-92231975D01*
X68907241Y-92231976D01*
X68907244Y-92231977D01*
X69055078Y-92310995D01*
X69184659Y-92417341D01*
X69291005Y-92546922D01*
X69370023Y-92694756D01*
X69418687Y-92855179D01*
X69431000Y-92980197D01*
X69431000Y-93963804D01*
X69418687Y-94088821D01*
X69370023Y-94249244D01*
X69291005Y-94397078D01*
X69184659Y-94526659D01*
X69055078Y-94633005D01*
X68907243Y-94712023D01*
X68907240Y-94712024D01*
X68907238Y-94712025D01*
X68746824Y-94760686D01*
X68746823Y-94760686D01*
X68746820Y-94760687D01*
X68580000Y-94777117D01*
X68413179Y-94760687D01*
X68413176Y-94760686D01*
X68413175Y-94760686D01*
X68252761Y-94712025D01*
X68252759Y-94712024D01*
X68252756Y-94712023D01*
X68104922Y-94633005D01*
X67975341Y-94526659D01*
X67868995Y-94397078D01*
X67789977Y-94249243D01*
X67741315Y-94088825D01*
X67741314Y-94088824D01*
X67741314Y-94088823D01*
X67741313Y-94088820D01*
X67729000Y-93963803D01*
X67729000Y-92980197D01*
X67741314Y-92855179D01*
X67789978Y-92694756D01*
X67868996Y-92546922D01*
X67975342Y-92417341D01*
X68104923Y-92310995D01*
X68252757Y-92231977D01*
X68252760Y-92231976D01*
X68252762Y-92231975D01*
X68413176Y-92183314D01*
X68413177Y-92183314D01*
X68413180Y-92183313D01*
X68580000Y-92166883D01*
X68746821Y-92183313D01*
X68746821Y-92183313D01*
G37*
G36*
X71286821Y-92183313D02*
X71286824Y-92183314D01*
X71286825Y-92183314D01*
X71447239Y-92231975D01*
X71447241Y-92231976D01*
X71447244Y-92231977D01*
X71595078Y-92310995D01*
X71724659Y-92417341D01*
X71831005Y-92546922D01*
X71910023Y-92694756D01*
X71958687Y-92855179D01*
X71971000Y-92980197D01*
X71971000Y-93963804D01*
X71958687Y-94088821D01*
X71910023Y-94249244D01*
X71831005Y-94397078D01*
X71724659Y-94526659D01*
X71595078Y-94633005D01*
X71447243Y-94712023D01*
X71447240Y-94712024D01*
X71447238Y-94712025D01*
X71286824Y-94760686D01*
X71286823Y-94760686D01*
X71286820Y-94760687D01*
X71120000Y-94777117D01*
X70953179Y-94760687D01*
X70953176Y-94760686D01*
X70953175Y-94760686D01*
X70792761Y-94712025D01*
X70792759Y-94712024D01*
X70792756Y-94712023D01*
X70644922Y-94633005D01*
X70515341Y-94526659D01*
X70408995Y-94397078D01*
X70329977Y-94249243D01*
X70281315Y-94088825D01*
X70281314Y-94088824D01*
X70281314Y-94088823D01*
X70281313Y-94088820D01*
X70269000Y-93963803D01*
X70269000Y-92980197D01*
X70281314Y-92855179D01*
X70329978Y-92694756D01*
X70408996Y-92546922D01*
X70515342Y-92417341D01*
X70644923Y-92310995D01*
X70792757Y-92231977D01*
X70792760Y-92231976D01*
X70792762Y-92231975D01*
X70953176Y-92183314D01*
X70953177Y-92183314D01*
X70953180Y-92183313D01*
X71120000Y-92166883D01*
X71286821Y-92183313D01*
X71286821Y-92183313D01*
G37*
G36*
X87034821Y-92183313D02*
X87034824Y-92183314D01*
X87034825Y-92183314D01*
X87195239Y-92231975D01*
X87195241Y-92231976D01*
X87195244Y-92231977D01*
X87343078Y-92310995D01*
X87472659Y-92417341D01*
X87579005Y-92546922D01*
X87658023Y-92694756D01*
X87706687Y-92855179D01*
X87719000Y-92980197D01*
X87719000Y-93963804D01*
X87706687Y-94088821D01*
X87658023Y-94249244D01*
X87579005Y-94397078D01*
X87472659Y-94526659D01*
X87343078Y-94633005D01*
X87195243Y-94712023D01*
X87195240Y-94712024D01*
X87195238Y-94712025D01*
X87034824Y-94760686D01*
X87034823Y-94760686D01*
X87034820Y-94760687D01*
X86868000Y-94777117D01*
X86701179Y-94760687D01*
X86701176Y-94760686D01*
X86701175Y-94760686D01*
X86540761Y-94712025D01*
X86540759Y-94712024D01*
X86540756Y-94712023D01*
X86392922Y-94633005D01*
X86263341Y-94526659D01*
X86156995Y-94397078D01*
X86077977Y-94249243D01*
X86029315Y-94088825D01*
X86029314Y-94088824D01*
X86029314Y-94088823D01*
X86029313Y-94088820D01*
X86017000Y-93963803D01*
X86017000Y-92980197D01*
X86029314Y-92855179D01*
X86077978Y-92694756D01*
X86156996Y-92546922D01*
X86263342Y-92417341D01*
X86392923Y-92310995D01*
X86540757Y-92231977D01*
X86540760Y-92231976D01*
X86540762Y-92231975D01*
X86701176Y-92183314D01*
X86701177Y-92183314D01*
X86701180Y-92183313D01*
X86868000Y-92166883D01*
X87034821Y-92183313D01*
X87034821Y-92183313D01*
G37*
G36*
X108370821Y-92183313D02*
X108370824Y-92183314D01*
X108370825Y-92183314D01*
X108531239Y-92231975D01*
X108531241Y-92231976D01*
X108531244Y-92231977D01*
X108679078Y-92310995D01*
X108808659Y-92417341D01*
X108915005Y-92546922D01*
X108994023Y-92694756D01*
X109042687Y-92855179D01*
X109055000Y-92980197D01*
X109055000Y-93963804D01*
X109042687Y-94088821D01*
X108994023Y-94249244D01*
X108915005Y-94397078D01*
X108808659Y-94526659D01*
X108679078Y-94633005D01*
X108531243Y-94712023D01*
X108531240Y-94712024D01*
X108531238Y-94712025D01*
X108370824Y-94760686D01*
X108370823Y-94760686D01*
X108370820Y-94760687D01*
X108204000Y-94777117D01*
X108037179Y-94760687D01*
X108037176Y-94760686D01*
X108037175Y-94760686D01*
X107876761Y-94712025D01*
X107876759Y-94712024D01*
X107876756Y-94712023D01*
X107728922Y-94633005D01*
X107599341Y-94526659D01*
X107492995Y-94397078D01*
X107413977Y-94249243D01*
X107365315Y-94088825D01*
X107365314Y-94088824D01*
X107365314Y-94088823D01*
X107365313Y-94088820D01*
X107353000Y-93963803D01*
X107353000Y-92980197D01*
X107365314Y-92855179D01*
X107413978Y-92694756D01*
X107492996Y-92546922D01*
X107599342Y-92417341D01*
X107728923Y-92310995D01*
X107876757Y-92231977D01*
X107876760Y-92231976D01*
X107876762Y-92231975D01*
X108037176Y-92183314D01*
X108037177Y-92183314D01*
X108037180Y-92183313D01*
X108204000Y-92166883D01*
X108370821Y-92183313D01*
X108370821Y-92183313D01*
G37*
G36*
X62282000Y-83349000D02*
X61670000Y-83349000D01*
X61670000Y-82547000D01*
X62282000Y-82547000D01*
X62282000Y-83349000D01*
X62282000Y-83349000D01*
G37*
G36*
X63232000Y-83349000D02*
X62620000Y-83349000D01*
X62620000Y-82547000D01*
X63232000Y-82547000D01*
X63232000Y-83349000D01*
X63232000Y-83349000D01*
G37*
G36*
X61332000Y-83349000D02*
X60720000Y-83349000D01*
X60720000Y-82547000D01*
X61332000Y-82547000D01*
X61332000Y-83349000D01*
X61332000Y-83349000D01*
G37*
G36*
X55612000Y-83349000D02*
X55000000Y-83349000D01*
X55000000Y-82547000D01*
X55612000Y-82547000D01*
X55612000Y-83349000D01*
X55612000Y-83349000D01*
G37*
G36*
X54662000Y-83349000D02*
X54050000Y-83349000D01*
X54050000Y-82547000D01*
X54662000Y-82547000D01*
X54662000Y-83349000D01*
X54662000Y-83349000D01*
G37*
G36*
X53712000Y-83349000D02*
X53100000Y-83349000D01*
X53100000Y-82547000D01*
X53712000Y-82547000D01*
X53712000Y-83349000D01*
X53712000Y-83349000D01*
G37*
G36*
X45369890Y-79892017D02*
X45488361Y-79941089D01*
X45488364Y-79941091D01*
X45579741Y-80002147D01*
X45594992Y-80012338D01*
X45685662Y-80103008D01*
X45685664Y-80103011D01*
X45685665Y-80103012D01*
X45756909Y-80209636D01*
X45756911Y-80209639D01*
X45805983Y-80328110D01*
X45831000Y-80453881D01*
X45831000Y-80582119D01*
X45805983Y-80707890D01*
X45756911Y-80826361D01*
X45756909Y-80826364D01*
X45709210Y-80897751D01*
X45685662Y-80932992D01*
X45594992Y-81023662D01*
X45594989Y-81023664D01*
X45594988Y-81023665D01*
X45561054Y-81046339D01*
X45488361Y-81094911D01*
X45369890Y-81143983D01*
X45244119Y-81169000D01*
X45115881Y-81169000D01*
X44990110Y-81143983D01*
X44871639Y-81094911D01*
X44798946Y-81046339D01*
X44765012Y-81023665D01*
X44765011Y-81023664D01*
X44765008Y-81023662D01*
X44674338Y-80932992D01*
X44650791Y-80897751D01*
X44603091Y-80826364D01*
X44603089Y-80826361D01*
X44554017Y-80707890D01*
X44529000Y-80582119D01*
X44529000Y-80453881D01*
X44554017Y-80328110D01*
X44603089Y-80209639D01*
X44603091Y-80209636D01*
X44674335Y-80103012D01*
X44674336Y-80103011D01*
X44674338Y-80103008D01*
X44765008Y-80012338D01*
X44780260Y-80002147D01*
X44871636Y-79941091D01*
X44871639Y-79941089D01*
X44990110Y-79892017D01*
X45115881Y-79867000D01*
X45244119Y-79867000D01*
X45369890Y-79892017D01*
X45369890Y-79892017D01*
G37*
G36*
X43671242Y-79871404D02*
X43708339Y-79882657D01*
X43742520Y-79900927D01*
X43772482Y-79925518D01*
X43797073Y-79955480D01*
X43815343Y-79989661D01*
X43826596Y-80026758D01*
X43831000Y-80071473D01*
X43831000Y-80964527D01*
X43826596Y-81009242D01*
X43815343Y-81046339D01*
X43797073Y-81080520D01*
X43772482Y-81110482D01*
X43742520Y-81135073D01*
X43708339Y-81153343D01*
X43671242Y-81164596D01*
X43626527Y-81169000D01*
X42733473Y-81169000D01*
X42688758Y-81164596D01*
X42651661Y-81153343D01*
X42617480Y-81135073D01*
X42587518Y-81110482D01*
X42562927Y-81080520D01*
X42544657Y-81046339D01*
X42533404Y-81009242D01*
X42529000Y-80964527D01*
X42529000Y-80071473D01*
X42533404Y-80026758D01*
X42544657Y-79989661D01*
X42562927Y-79955480D01*
X42587518Y-79925518D01*
X42617480Y-79900927D01*
X42651661Y-79882657D01*
X42688758Y-79871404D01*
X42733473Y-79867000D01*
X43626527Y-79867000D01*
X43671242Y-79871404D01*
X43671242Y-79871404D01*
G37*
G36*
X55612000Y-81029000D02*
X55000000Y-81029000D01*
X55000000Y-80227000D01*
X55612000Y-80227000D01*
X55612000Y-81029000D01*
X55612000Y-81029000D01*
G37*
G36*
X53712000Y-81029000D02*
X53100000Y-81029000D01*
X53100000Y-80227000D01*
X53712000Y-80227000D01*
X53712000Y-81029000D01*
X53712000Y-81029000D01*
G37*
G36*
X61332000Y-81029000D02*
X60720000Y-81029000D01*
X60720000Y-80227000D01*
X61332000Y-80227000D01*
X61332000Y-81029000D01*
X61332000Y-81029000D01*
G37*
G36*
X63232000Y-81029000D02*
X62620000Y-81029000D01*
X62620000Y-80227000D01*
X63232000Y-80227000D01*
X63232000Y-81029000D01*
X63232000Y-81029000D01*
G37*
G36*
X90672228Y-78429703D02*
X90827100Y-78493853D01*
X90966481Y-78586985D01*
X91085015Y-78705519D01*
X91178147Y-78844900D01*
X91242297Y-78999772D01*
X91275000Y-79164184D01*
X91275000Y-79331816D01*
X91242297Y-79496228D01*
X91178147Y-79651100D01*
X91085015Y-79790481D01*
X90966481Y-79909015D01*
X90827100Y-80002147D01*
X90672228Y-80066297D01*
X90507816Y-80099000D01*
X90340184Y-80099000D01*
X90175772Y-80066297D01*
X90020900Y-80002147D01*
X89881519Y-79909015D01*
X89762985Y-79790481D01*
X89669853Y-79651100D01*
X89605703Y-79496228D01*
X89573000Y-79331816D01*
X89573000Y-79164184D01*
X89605703Y-78999772D01*
X89669853Y-78844900D01*
X89762985Y-78705519D01*
X89881519Y-78586985D01*
X90020900Y-78493853D01*
X90175772Y-78429703D01*
X90340184Y-78397000D01*
X90507816Y-78397000D01*
X90672228Y-78429703D01*
X90672228Y-78429703D01*
G37*
G36*
X88050821Y-78409313D02*
X88050824Y-78409314D01*
X88050825Y-78409314D01*
X88211239Y-78457975D01*
X88211241Y-78457976D01*
X88211244Y-78457977D01*
X88359078Y-78536995D01*
X88488659Y-78643341D01*
X88595005Y-78772922D01*
X88674023Y-78920756D01*
X88674024Y-78920759D01*
X88674025Y-78920761D01*
X88722686Y-79081175D01*
X88722687Y-79081179D01*
X88739117Y-79248000D01*
X88722687Y-79414821D01*
X88722686Y-79414824D01*
X88722686Y-79414825D01*
X88697993Y-79496228D01*
X88674023Y-79575244D01*
X88595005Y-79723078D01*
X88488659Y-79852659D01*
X88359078Y-79959005D01*
X88211244Y-80038023D01*
X88211241Y-80038024D01*
X88211239Y-80038025D01*
X88050825Y-80086686D01*
X88050824Y-80086686D01*
X88050821Y-80086687D01*
X87925804Y-80099000D01*
X87842196Y-80099000D01*
X87717179Y-80086687D01*
X87717176Y-80086686D01*
X87717175Y-80086686D01*
X87556761Y-80038025D01*
X87556759Y-80038024D01*
X87556756Y-80038023D01*
X87408922Y-79959005D01*
X87279341Y-79852659D01*
X87172995Y-79723078D01*
X87093977Y-79575244D01*
X87070008Y-79496228D01*
X87045314Y-79414825D01*
X87045314Y-79414824D01*
X87045313Y-79414821D01*
X87028883Y-79248000D01*
X87045313Y-79081179D01*
X87045314Y-79081175D01*
X87093975Y-78920761D01*
X87093976Y-78920759D01*
X87093977Y-78920756D01*
X87172995Y-78772922D01*
X87279341Y-78643341D01*
X87408922Y-78536995D01*
X87556756Y-78457977D01*
X87556759Y-78457976D01*
X87556761Y-78457975D01*
X87717175Y-78409314D01*
X87717176Y-78409314D01*
X87717179Y-78409313D01*
X87842196Y-78397000D01*
X87925804Y-78397000D01*
X88050821Y-78409313D01*
X88050821Y-78409313D01*
G37*
G36*
X43369890Y-77892017D02*
X43488361Y-77941089D01*
X43594992Y-78012338D01*
X43685662Y-78103008D01*
X43756911Y-78209639D01*
X43805983Y-78328110D01*
X43831000Y-78453881D01*
X43831000Y-78582119D01*
X43805983Y-78707890D01*
X43756911Y-78826361D01*
X43685662Y-78932992D01*
X43594992Y-79023662D01*
X43488361Y-79094911D01*
X43369890Y-79143983D01*
X43244119Y-79169000D01*
X43115881Y-79169000D01*
X42990110Y-79143983D01*
X42871639Y-79094911D01*
X42765008Y-79023662D01*
X42674338Y-78932992D01*
X42603089Y-78826361D01*
X42554017Y-78707890D01*
X42529000Y-78582119D01*
X42529000Y-78453881D01*
X42554017Y-78328110D01*
X42603089Y-78209639D01*
X42674338Y-78103008D01*
X42765008Y-78012338D01*
X42871639Y-77941089D01*
X42990110Y-77892017D01*
X43115881Y-77867000D01*
X43244119Y-77867000D01*
X43369890Y-77892017D01*
X43369890Y-77892017D01*
G37*
G36*
X45369890Y-77892017D02*
X45488361Y-77941089D01*
X45594992Y-78012338D01*
X45685662Y-78103008D01*
X45756911Y-78209639D01*
X45805983Y-78328110D01*
X45831000Y-78453881D01*
X45831000Y-78582119D01*
X45805983Y-78707890D01*
X45756911Y-78826361D01*
X45685662Y-78932992D01*
X45594992Y-79023662D01*
X45488361Y-79094911D01*
X45369890Y-79143983D01*
X45244119Y-79169000D01*
X45115881Y-79169000D01*
X44990110Y-79143983D01*
X44871639Y-79094911D01*
X44765008Y-79023662D01*
X44674338Y-78932992D01*
X44603089Y-78826361D01*
X44554017Y-78707890D01*
X44529000Y-78582119D01*
X44529000Y-78453881D01*
X44554017Y-78328110D01*
X44603089Y-78209639D01*
X44674338Y-78103008D01*
X44765008Y-78012338D01*
X44871639Y-77941089D01*
X44990110Y-77892017D01*
X45115881Y-77867000D01*
X45244119Y-77867000D01*
X45369890Y-77892017D01*
X45369890Y-77892017D01*
G37*
G36*
X75490000Y-78269000D02*
X74878000Y-78269000D01*
X74878000Y-77467000D01*
X75490000Y-77467000D01*
X75490000Y-78269000D01*
X75490000Y-78269000D01*
G37*
G36*
X76440000Y-78269000D02*
X75828000Y-78269000D01*
X75828000Y-77467000D01*
X76440000Y-77467000D01*
X76440000Y-78269000D01*
X76440000Y-78269000D01*
G37*
G36*
X74540000Y-78269000D02*
X73928000Y-78269000D01*
X73928000Y-77467000D01*
X74540000Y-77467000D01*
X74540000Y-78269000D01*
X74540000Y-78269000D01*
G37*
G36*
X45369890Y-75892017D02*
X45488361Y-75941089D01*
X45594992Y-76012338D01*
X45685662Y-76103008D01*
X45756911Y-76209639D01*
X45805983Y-76328110D01*
X45831000Y-76453881D01*
X45831000Y-76582119D01*
X45805983Y-76707890D01*
X45756911Y-76826361D01*
X45685662Y-76932992D01*
X45594992Y-77023662D01*
X45488361Y-77094911D01*
X45369890Y-77143983D01*
X45244119Y-77169000D01*
X45115881Y-77169000D01*
X44990110Y-77143983D01*
X44871639Y-77094911D01*
X44765008Y-77023662D01*
X44674338Y-76932992D01*
X44603089Y-76826361D01*
X44554017Y-76707890D01*
X44529000Y-76582119D01*
X44529000Y-76453881D01*
X44554017Y-76328110D01*
X44603089Y-76209639D01*
X44674338Y-76103008D01*
X44765008Y-76012338D01*
X44871639Y-75941089D01*
X44990110Y-75892017D01*
X45115881Y-75867000D01*
X45244119Y-75867000D01*
X45369890Y-75892017D01*
X45369890Y-75892017D01*
G37*
G36*
X43369890Y-75892017D02*
X43488361Y-75941089D01*
X43594992Y-76012338D01*
X43685662Y-76103008D01*
X43756911Y-76209639D01*
X43805983Y-76328110D01*
X43831000Y-76453881D01*
X43831000Y-76582119D01*
X43805983Y-76707890D01*
X43756911Y-76826361D01*
X43685662Y-76932992D01*
X43594992Y-77023662D01*
X43488361Y-77094911D01*
X43369890Y-77143983D01*
X43244119Y-77169000D01*
X43115881Y-77169000D01*
X42990110Y-77143983D01*
X42871639Y-77094911D01*
X42765008Y-77023662D01*
X42674338Y-76932992D01*
X42603089Y-76826361D01*
X42554017Y-76707890D01*
X42529000Y-76582119D01*
X42529000Y-76453881D01*
X42554017Y-76328110D01*
X42603089Y-76209639D01*
X42674338Y-76103008D01*
X42765008Y-76012338D01*
X42871639Y-75941089D01*
X42990110Y-75892017D01*
X43115881Y-75867000D01*
X43244119Y-75867000D01*
X43369890Y-75892017D01*
X43369890Y-75892017D01*
G37*
G36*
X76440000Y-75949000D02*
X75828000Y-75949000D01*
X75828000Y-75147000D01*
X76440000Y-75147000D01*
X76440000Y-75949000D01*
X76440000Y-75949000D01*
G37*
G36*
X74540000Y-75949000D02*
X73928000Y-75949000D01*
X73928000Y-75147000D01*
X74540000Y-75147000D01*
X74540000Y-75949000D01*
X74540000Y-75949000D01*
G37*
G36*
X45369890Y-73892017D02*
X45488361Y-73941089D01*
X45594992Y-74012338D01*
X45685662Y-74103008D01*
X45756911Y-74209639D01*
X45805983Y-74328110D01*
X45831000Y-74453881D01*
X45831000Y-74582119D01*
X45805983Y-74707890D01*
X45756911Y-74826361D01*
X45685662Y-74932992D01*
X45594992Y-75023662D01*
X45488361Y-75094911D01*
X45369890Y-75143983D01*
X45244119Y-75169000D01*
X45115881Y-75169000D01*
X44990110Y-75143983D01*
X44871639Y-75094911D01*
X44765008Y-75023662D01*
X44674338Y-74932992D01*
X44603089Y-74826361D01*
X44554017Y-74707890D01*
X44529000Y-74582119D01*
X44529000Y-74453881D01*
X44554017Y-74328110D01*
X44603089Y-74209639D01*
X44674338Y-74103008D01*
X44765008Y-74012338D01*
X44871639Y-73941089D01*
X44990110Y-73892017D01*
X45115881Y-73867000D01*
X45244119Y-73867000D01*
X45369890Y-73892017D01*
X45369890Y-73892017D01*
G37*
G36*
X43369890Y-73892017D02*
X43488361Y-73941089D01*
X43594992Y-74012338D01*
X43685662Y-74103008D01*
X43756911Y-74209639D01*
X43805983Y-74328110D01*
X43831000Y-74453881D01*
X43831000Y-74582119D01*
X43805983Y-74707890D01*
X43756911Y-74826361D01*
X43685662Y-74932992D01*
X43594992Y-75023662D01*
X43488361Y-75094911D01*
X43369890Y-75143983D01*
X43244119Y-75169000D01*
X43115881Y-75169000D01*
X42990110Y-75143983D01*
X42871639Y-75094911D01*
X42765008Y-75023662D01*
X42674338Y-74932992D01*
X42603089Y-74826361D01*
X42554017Y-74707890D01*
X42529000Y-74582119D01*
X42529000Y-74453881D01*
X42554017Y-74328110D01*
X42603089Y-74209639D01*
X42674338Y-74103008D01*
X42765008Y-74012338D01*
X42871639Y-73941089D01*
X42990110Y-73892017D01*
X43115881Y-73867000D01*
X43244119Y-73867000D01*
X43369890Y-73892017D01*
X43369890Y-73892017D01*
G37*
G36*
X106261000Y-74257000D02*
X104559000Y-74257000D01*
X104559000Y-72555000D01*
X106261000Y-72555000D01*
X106261000Y-74257000D01*
X106261000Y-74257000D01*
G37*
G36*
X103158228Y-72587703D02*
X103313100Y-72651853D01*
X103452481Y-72744985D01*
X103571015Y-72863519D01*
X103664147Y-73002900D01*
X103728297Y-73157772D01*
X103761000Y-73322184D01*
X103761000Y-73489816D01*
X103728297Y-73654228D01*
X103664147Y-73809100D01*
X103571015Y-73948481D01*
X103452481Y-74067015D01*
X103313100Y-74160147D01*
X103158228Y-74224297D01*
X102993816Y-74257000D01*
X102826184Y-74257000D01*
X102661772Y-74224297D01*
X102506900Y-74160147D01*
X102367519Y-74067015D01*
X102248985Y-73948481D01*
X102155853Y-73809100D01*
X102091703Y-73654228D01*
X102059000Y-73489816D01*
X102059000Y-73322184D01*
X102091703Y-73157772D01*
X102155853Y-73002900D01*
X102248985Y-72863519D01*
X102367519Y-72744985D01*
X102506900Y-72651853D01*
X102661772Y-72587703D01*
X102826184Y-72555000D01*
X102993816Y-72555000D01*
X103158228Y-72587703D01*
X103158228Y-72587703D01*
G37*
G36*
X61774000Y-73189000D02*
X61162000Y-73189000D01*
X61162000Y-72387000D01*
X61774000Y-72387000D01*
X61774000Y-73189000D01*
X61774000Y-73189000D01*
G37*
G36*
X62724000Y-73189000D02*
X62112000Y-73189000D01*
X62112000Y-72387000D01*
X62724000Y-72387000D01*
X62724000Y-73189000D01*
X62724000Y-73189000D01*
G37*
G36*
X55612000Y-73189000D02*
X55000000Y-73189000D01*
X55000000Y-72387000D01*
X55612000Y-72387000D01*
X55612000Y-73189000D01*
X55612000Y-73189000D01*
G37*
G36*
X53712000Y-73189000D02*
X53100000Y-73189000D01*
X53100000Y-72387000D01*
X53712000Y-72387000D01*
X53712000Y-73189000D01*
X53712000Y-73189000D01*
G37*
G36*
X54662000Y-73189000D02*
X54050000Y-73189000D01*
X54050000Y-72387000D01*
X54662000Y-72387000D01*
X54662000Y-73189000D01*
X54662000Y-73189000D01*
G37*
G36*
X60824000Y-73189000D02*
X60212000Y-73189000D01*
X60212000Y-72387000D01*
X60824000Y-72387000D01*
X60824000Y-73189000D01*
X60824000Y-73189000D01*
G37*
G36*
X43369890Y-71892017D02*
X43488361Y-71941089D01*
X43594992Y-72012338D01*
X43685662Y-72103008D01*
X43756911Y-72209639D01*
X43805983Y-72328110D01*
X43831000Y-72453881D01*
X43831000Y-72582119D01*
X43805983Y-72707890D01*
X43756911Y-72826361D01*
X43685662Y-72932992D01*
X43594992Y-73023662D01*
X43594989Y-73023664D01*
X43594988Y-73023665D01*
X43488364Y-73094909D01*
X43488361Y-73094911D01*
X43369890Y-73143983D01*
X43244119Y-73169000D01*
X43115881Y-73169000D01*
X42990110Y-73143983D01*
X42871639Y-73094911D01*
X42871636Y-73094909D01*
X42765012Y-73023665D01*
X42765011Y-73023664D01*
X42765008Y-73023662D01*
X42674338Y-72932992D01*
X42603089Y-72826361D01*
X42554017Y-72707890D01*
X42529000Y-72582119D01*
X42529000Y-72453881D01*
X42554017Y-72328110D01*
X42603089Y-72209639D01*
X42674338Y-72103008D01*
X42765008Y-72012338D01*
X42871639Y-71941089D01*
X42990110Y-71892017D01*
X43115881Y-71867000D01*
X43244119Y-71867000D01*
X43369890Y-71892017D01*
X43369890Y-71892017D01*
G37*
G36*
X45369890Y-71892017D02*
X45488361Y-71941089D01*
X45594992Y-72012338D01*
X45685662Y-72103008D01*
X45756911Y-72209639D01*
X45805983Y-72328110D01*
X45831000Y-72453881D01*
X45831000Y-72582119D01*
X45805983Y-72707890D01*
X45756911Y-72826361D01*
X45685662Y-72932992D01*
X45594992Y-73023662D01*
X45594989Y-73023664D01*
X45594988Y-73023665D01*
X45488364Y-73094909D01*
X45488361Y-73094911D01*
X45369890Y-73143983D01*
X45244119Y-73169000D01*
X45115881Y-73169000D01*
X44990110Y-73143983D01*
X44871639Y-73094911D01*
X44871636Y-73094909D01*
X44765012Y-73023665D01*
X44765011Y-73023664D01*
X44765008Y-73023662D01*
X44674338Y-72932992D01*
X44603089Y-72826361D01*
X44554017Y-72707890D01*
X44529000Y-72582119D01*
X44529000Y-72453881D01*
X44554017Y-72328110D01*
X44603089Y-72209639D01*
X44674338Y-72103008D01*
X44765008Y-72012338D01*
X44871639Y-71941089D01*
X44990110Y-71892017D01*
X45115881Y-71867000D01*
X45244119Y-71867000D01*
X45369890Y-71892017D01*
X45369890Y-71892017D01*
G37*
G36*
X117233000Y-73037000D02*
X115431000Y-73037000D01*
X115431000Y-71235000D01*
X117233000Y-71235000D01*
X117233000Y-73037000D01*
X117233000Y-73037000D01*
G37*
G36*
X45369890Y-69892017D02*
X45488361Y-69941089D01*
X45488364Y-69941091D01*
X45542106Y-69977000D01*
X45594992Y-70012338D01*
X45685662Y-70103008D01*
X45756911Y-70209639D01*
X45805983Y-70328110D01*
X45831000Y-70453881D01*
X45831000Y-70582119D01*
X45805983Y-70707890D01*
X45756911Y-70826361D01*
X45685662Y-70932992D01*
X45594992Y-71023662D01*
X45488361Y-71094911D01*
X45369890Y-71143983D01*
X45244119Y-71169000D01*
X45115881Y-71169000D01*
X44990110Y-71143983D01*
X44871639Y-71094911D01*
X44765008Y-71023662D01*
X44674338Y-70932992D01*
X44603089Y-70826361D01*
X44554017Y-70707890D01*
X44529000Y-70582119D01*
X44529000Y-70453881D01*
X44554017Y-70328110D01*
X44603089Y-70209639D01*
X44674338Y-70103008D01*
X44765008Y-70012338D01*
X44817895Y-69977000D01*
X44871636Y-69941091D01*
X44871639Y-69941089D01*
X44990110Y-69892017D01*
X45115881Y-69867000D01*
X45244119Y-69867000D01*
X45369890Y-69892017D01*
X45369890Y-69892017D01*
G37*
G36*
X43369890Y-69892017D02*
X43488361Y-69941089D01*
X43488364Y-69941091D01*
X43542106Y-69977000D01*
X43594992Y-70012338D01*
X43685662Y-70103008D01*
X43756911Y-70209639D01*
X43805983Y-70328110D01*
X43831000Y-70453881D01*
X43831000Y-70582119D01*
X43805983Y-70707890D01*
X43756911Y-70826361D01*
X43685662Y-70932992D01*
X43594992Y-71023662D01*
X43488361Y-71094911D01*
X43369890Y-71143983D01*
X43244119Y-71169000D01*
X43115881Y-71169000D01*
X42990110Y-71143983D01*
X42871639Y-71094911D01*
X42765008Y-71023662D01*
X42674338Y-70932992D01*
X42603089Y-70826361D01*
X42554017Y-70707890D01*
X42529000Y-70582119D01*
X42529000Y-70453881D01*
X42554017Y-70328110D01*
X42603089Y-70209639D01*
X42674338Y-70103008D01*
X42765008Y-70012338D01*
X42817895Y-69977000D01*
X42871636Y-69941091D01*
X42871639Y-69941089D01*
X42990110Y-69892017D01*
X43115881Y-69867000D01*
X43244119Y-69867000D01*
X43369890Y-69892017D01*
X43369890Y-69892017D01*
G37*
G36*
X55612000Y-70869000D02*
X55000000Y-70869000D01*
X55000000Y-70067000D01*
X55612000Y-70067000D01*
X55612000Y-70869000D01*
X55612000Y-70869000D01*
G37*
G36*
X53712000Y-70869000D02*
X53100000Y-70869000D01*
X53100000Y-70067000D01*
X53712000Y-70067000D01*
X53712000Y-70869000D01*
X53712000Y-70869000D01*
G37*
G36*
X62724000Y-70869000D02*
X62112000Y-70869000D01*
X62112000Y-70067000D01*
X62724000Y-70067000D01*
X62724000Y-70869000D01*
X62724000Y-70869000D01*
G37*
G36*
X60824000Y-70869000D02*
X60212000Y-70869000D01*
X60212000Y-70067000D01*
X60824000Y-70067000D01*
X60824000Y-70869000D01*
X60824000Y-70869000D01*
G37*
G36*
X116442443Y-68701519D02*
X116508627Y-68708037D01*
X116621853Y-68742384D01*
X116678467Y-68759557D01*
X116803447Y-68826361D01*
X116834991Y-68843222D01*
X116870729Y-68872552D01*
X116972186Y-68955814D01*
X117055448Y-69057271D01*
X117084778Y-69093009D01*
X117084779Y-69093011D01*
X117168443Y-69249533D01*
X117168443Y-69249534D01*
X117219963Y-69419373D01*
X117237359Y-69596000D01*
X117219963Y-69772627D01*
X117193851Y-69858706D01*
X117168443Y-69942467D01*
X117101878Y-70067000D01*
X117084778Y-70098991D01*
X117055448Y-70134729D01*
X116972186Y-70236186D01*
X116870729Y-70319448D01*
X116834991Y-70348778D01*
X116834989Y-70348779D01*
X116678467Y-70432443D01*
X116621853Y-70449616D01*
X116508627Y-70483963D01*
X116442443Y-70490481D01*
X116376260Y-70497000D01*
X116287740Y-70497000D01*
X116221557Y-70490481D01*
X116155373Y-70483963D01*
X116042147Y-70449616D01*
X115985533Y-70432443D01*
X115829011Y-70348779D01*
X115829009Y-70348778D01*
X115793271Y-70319448D01*
X115691814Y-70236186D01*
X115608552Y-70134729D01*
X115579222Y-70098991D01*
X115562122Y-70067000D01*
X115495557Y-69942467D01*
X115470149Y-69858706D01*
X115444037Y-69772627D01*
X115426641Y-69596000D01*
X115444037Y-69419373D01*
X115495557Y-69249534D01*
X115495557Y-69249533D01*
X115579221Y-69093011D01*
X115579222Y-69093009D01*
X115608552Y-69057271D01*
X115691814Y-68955814D01*
X115793271Y-68872552D01*
X115829009Y-68843222D01*
X115860553Y-68826361D01*
X115985533Y-68759557D01*
X116042147Y-68742384D01*
X116155373Y-68708037D01*
X116221557Y-68701519D01*
X116287740Y-68695000D01*
X116376260Y-68695000D01*
X116442443Y-68701519D01*
X116442443Y-68701519D01*
G37*
G36*
X97097654Y-66698888D02*
X97408865Y-66793294D01*
X97695686Y-66946603D01*
X97947082Y-67152918D01*
X98153397Y-67404314D01*
X98153398Y-67404316D01*
X98236073Y-67558989D01*
X98306706Y-67691135D01*
X98401112Y-68002346D01*
X98432988Y-68326000D01*
X98401112Y-68649654D01*
X98315161Y-68932992D01*
X98306705Y-68960867D01*
X98235058Y-69094909D01*
X98153397Y-69247686D01*
X97947082Y-69499082D01*
X97695686Y-69705397D01*
X97408865Y-69858706D01*
X97097654Y-69953112D01*
X96855107Y-69977000D01*
X96692893Y-69977000D01*
X96450346Y-69953112D01*
X96139135Y-69858706D01*
X95852314Y-69705397D01*
X95600918Y-69499082D01*
X95394603Y-69247686D01*
X95312942Y-69094909D01*
X95241295Y-68960867D01*
X95232839Y-68932992D01*
X95146888Y-68649654D01*
X95115012Y-68326000D01*
X95146888Y-68002346D01*
X95241294Y-67691135D01*
X95311928Y-67558989D01*
X95394602Y-67404316D01*
X95394603Y-67404314D01*
X95600918Y-67152918D01*
X95852314Y-66946603D01*
X96139135Y-66793294D01*
X96450346Y-66698888D01*
X96692893Y-66675000D01*
X96855107Y-66675000D01*
X97097654Y-66698888D01*
X97097654Y-66698888D01*
G37*
G36*
X83185000Y-69977000D02*
X79883000Y-69977000D01*
X79883000Y-66675000D01*
X83185000Y-66675000D01*
X83185000Y-69977000D01*
X83185000Y-69977000D01*
G37*
G36*
X45369890Y-67892017D02*
X45488361Y-67941089D01*
X45594992Y-68012338D01*
X45685662Y-68103008D01*
X45756911Y-68209639D01*
X45805983Y-68328110D01*
X45831000Y-68453881D01*
X45831000Y-68582119D01*
X45805983Y-68707890D01*
X45756911Y-68826361D01*
X45685662Y-68932992D01*
X45594992Y-69023662D01*
X45488361Y-69094911D01*
X45369890Y-69143983D01*
X45244119Y-69169000D01*
X45115881Y-69169000D01*
X44990110Y-69143983D01*
X44871639Y-69094911D01*
X44765008Y-69023662D01*
X44674338Y-68932992D01*
X44603089Y-68826361D01*
X44554017Y-68707890D01*
X44529000Y-68582119D01*
X44529000Y-68453881D01*
X44554017Y-68328110D01*
X44603089Y-68209639D01*
X44674338Y-68103008D01*
X44765008Y-68012338D01*
X44871639Y-67941089D01*
X44990110Y-67892017D01*
X45115881Y-67867000D01*
X45244119Y-67867000D01*
X45369890Y-67892017D01*
X45369890Y-67892017D01*
G37*
G36*
X43369890Y-67892017D02*
X43488361Y-67941089D01*
X43594992Y-68012338D01*
X43685662Y-68103008D01*
X43756911Y-68209639D01*
X43805983Y-68328110D01*
X43831000Y-68453881D01*
X43831000Y-68582119D01*
X43805983Y-68707890D01*
X43756911Y-68826361D01*
X43685662Y-68932992D01*
X43594992Y-69023662D01*
X43488361Y-69094911D01*
X43369890Y-69143983D01*
X43244119Y-69169000D01*
X43115881Y-69169000D01*
X42990110Y-69143983D01*
X42871639Y-69094911D01*
X42765008Y-69023662D01*
X42674338Y-68932992D01*
X42603089Y-68826361D01*
X42554017Y-68707890D01*
X42529000Y-68582119D01*
X42529000Y-68453881D01*
X42554017Y-68328110D01*
X42603089Y-68209639D01*
X42674338Y-68103008D01*
X42765008Y-68012338D01*
X42871639Y-67941089D01*
X42990110Y-67892017D01*
X43115881Y-67867000D01*
X43244119Y-67867000D01*
X43369890Y-67892017D01*
X43369890Y-67892017D01*
G37*
G36*
X116442442Y-66161518D02*
X116508627Y-66168037D01*
X116621853Y-66202384D01*
X116678467Y-66219557D01*
X116817087Y-66293652D01*
X116834991Y-66303222D01*
X116870729Y-66332552D01*
X116972186Y-66415814D01*
X117055448Y-66517271D01*
X117084778Y-66553009D01*
X117084779Y-66553011D01*
X117168443Y-66709533D01*
X117168443Y-66709534D01*
X117219963Y-66879373D01*
X117237359Y-67056000D01*
X117219963Y-67232627D01*
X117185616Y-67345853D01*
X117168443Y-67402467D01*
X117094348Y-67541087D01*
X117084778Y-67558991D01*
X117055448Y-67594729D01*
X116972186Y-67696186D01*
X116870729Y-67779448D01*
X116834991Y-67808778D01*
X116834989Y-67808779D01*
X116678467Y-67892443D01*
X116621853Y-67909616D01*
X116508627Y-67943963D01*
X116442442Y-67950482D01*
X116376260Y-67957000D01*
X116287740Y-67957000D01*
X116221558Y-67950482D01*
X116155373Y-67943963D01*
X116042147Y-67909616D01*
X115985533Y-67892443D01*
X115829011Y-67808779D01*
X115829009Y-67808778D01*
X115793271Y-67779448D01*
X115691814Y-67696186D01*
X115608552Y-67594729D01*
X115579222Y-67558991D01*
X115569652Y-67541087D01*
X115495557Y-67402467D01*
X115478384Y-67345853D01*
X115444037Y-67232627D01*
X115426641Y-67056000D01*
X115444037Y-66879373D01*
X115495557Y-66709534D01*
X115495557Y-66709533D01*
X115579221Y-66553011D01*
X115579222Y-66553009D01*
X115608552Y-66517271D01*
X115691814Y-66415814D01*
X115793271Y-66332552D01*
X115829009Y-66303222D01*
X115846913Y-66293652D01*
X115985533Y-66219557D01*
X116042147Y-66202384D01*
X116155373Y-66168037D01*
X116221558Y-66161518D01*
X116287740Y-66155000D01*
X116376260Y-66155000D01*
X116442442Y-66161518D01*
X116442442Y-66161518D01*
G37*
G36*
X60824000Y-63029000D02*
X60212000Y-63029000D01*
X60212000Y-62227000D01*
X60824000Y-62227000D01*
X60824000Y-63029000D01*
X60824000Y-63029000D01*
G37*
G36*
X61774000Y-63029000D02*
X61162000Y-63029000D01*
X61162000Y-62227000D01*
X61774000Y-62227000D01*
X61774000Y-63029000D01*
X61774000Y-63029000D01*
G37*
G36*
X62724000Y-63029000D02*
X62112000Y-63029000D01*
X62112000Y-62227000D01*
X62724000Y-62227000D01*
X62724000Y-63029000D01*
X62724000Y-63029000D01*
G37*
G36*
X54662000Y-63029000D02*
X54050000Y-63029000D01*
X54050000Y-62227000D01*
X54662000Y-62227000D01*
X54662000Y-63029000D01*
X54662000Y-63029000D01*
G37*
G36*
X55612000Y-63029000D02*
X55000000Y-63029000D01*
X55000000Y-62227000D01*
X55612000Y-62227000D01*
X55612000Y-63029000D01*
X55612000Y-63029000D01*
G37*
G36*
X53712000Y-63029000D02*
X53100000Y-63029000D01*
X53100000Y-62227000D01*
X53712000Y-62227000D01*
X53712000Y-63029000D01*
X53712000Y-63029000D01*
G37*
G36*
X90962425Y-59514760D02*
X90962428Y-59514761D01*
X90962429Y-59514761D01*
X91141693Y-59569140D01*
X91141695Y-59569141D01*
X91306905Y-59657448D01*
X91451712Y-59776288D01*
X91570552Y-59921095D01*
X91658859Y-60086305D01*
X91713240Y-60265575D01*
X91731601Y-60452000D01*
X91713240Y-60638425D01*
X91713239Y-60638428D01*
X91713239Y-60638429D01*
X91691832Y-60709000D01*
X91658859Y-60817695D01*
X91570552Y-60982905D01*
X91451712Y-61127712D01*
X91306905Y-61246552D01*
X91306903Y-61246553D01*
X91141693Y-61334860D01*
X90962429Y-61389239D01*
X90962428Y-61389239D01*
X90962425Y-61389240D01*
X90822718Y-61403000D01*
X90729282Y-61403000D01*
X90589575Y-61389240D01*
X90589572Y-61389239D01*
X90589571Y-61389239D01*
X90410307Y-61334860D01*
X90245097Y-61246553D01*
X90245095Y-61246552D01*
X90100288Y-61127712D01*
X89981448Y-60982905D01*
X89893141Y-60817695D01*
X89860169Y-60709000D01*
X89838761Y-60638429D01*
X89838761Y-60638428D01*
X89838760Y-60638425D01*
X89820399Y-60452000D01*
X89838760Y-60265575D01*
X89893141Y-60086305D01*
X89981448Y-59921095D01*
X90100288Y-59776288D01*
X90245095Y-59657448D01*
X90410305Y-59569141D01*
X90410307Y-59569140D01*
X90589571Y-59514761D01*
X90589572Y-59514761D01*
X90589575Y-59514760D01*
X90729282Y-59501000D01*
X90822718Y-59501000D01*
X90962425Y-59514760D01*
X90962425Y-59514760D01*
G37*
G36*
X94362425Y-59514760D02*
X94362428Y-59514761D01*
X94362429Y-59514761D01*
X94541693Y-59569140D01*
X94541695Y-59569141D01*
X94706905Y-59657448D01*
X94851712Y-59776288D01*
X94970552Y-59921095D01*
X95058859Y-60086305D01*
X95113240Y-60265575D01*
X95131601Y-60452000D01*
X95113240Y-60638425D01*
X95113239Y-60638428D01*
X95113239Y-60638429D01*
X95091832Y-60709000D01*
X95058859Y-60817695D01*
X94970552Y-60982905D01*
X94851712Y-61127712D01*
X94706905Y-61246552D01*
X94706903Y-61246553D01*
X94541693Y-61334860D01*
X94362429Y-61389239D01*
X94362428Y-61389239D01*
X94362425Y-61389240D01*
X94222718Y-61403000D01*
X94129282Y-61403000D01*
X93989575Y-61389240D01*
X93989572Y-61389239D01*
X93989571Y-61389239D01*
X93810307Y-61334860D01*
X93645097Y-61246553D01*
X93645095Y-61246552D01*
X93500288Y-61127712D01*
X93381448Y-60982905D01*
X93293141Y-60817695D01*
X93260169Y-60709000D01*
X93238761Y-60638429D01*
X93238761Y-60638428D01*
X93238760Y-60638425D01*
X93220399Y-60452000D01*
X93238760Y-60265575D01*
X93293141Y-60086305D01*
X93381448Y-59921095D01*
X93500288Y-59776288D01*
X93645095Y-59657448D01*
X93810305Y-59569141D01*
X93810307Y-59569140D01*
X93989571Y-59514761D01*
X93989572Y-59514761D01*
X93989575Y-59514760D01*
X94129282Y-59501000D01*
X94222718Y-59501000D01*
X94362425Y-59514760D01*
X94362425Y-59514760D01*
G37*
G36*
X88327000Y-61403000D02*
X86425000Y-61403000D01*
X86425000Y-59501000D01*
X88327000Y-59501000D01*
X88327000Y-61403000D01*
X88327000Y-61403000D01*
G37*
G36*
X103815635Y-58705019D02*
X103996903Y-58741075D01*
X104224571Y-58835378D01*
X104341554Y-58913544D01*
X104429469Y-58972287D01*
X104603713Y-59146531D01*
X104603715Y-59146534D01*
X104740622Y-59351429D01*
X104834925Y-59579097D01*
X104850510Y-59657448D01*
X104883000Y-59820786D01*
X104883000Y-60067214D01*
X104879202Y-60086307D01*
X104834925Y-60308903D01*
X104740622Y-60536571D01*
X104672565Y-60638425D01*
X104603713Y-60741469D01*
X104429469Y-60915713D01*
X104429466Y-60915715D01*
X104224571Y-61052622D01*
X103996903Y-61146925D01*
X103815635Y-61182981D01*
X103755214Y-61195000D01*
X103508786Y-61195000D01*
X103448365Y-61182981D01*
X103267097Y-61146925D01*
X103039429Y-61052622D01*
X102834534Y-60915715D01*
X102834531Y-60915713D01*
X102660287Y-60741469D01*
X102591435Y-60638425D01*
X102523378Y-60536571D01*
X102429075Y-60308903D01*
X102384798Y-60086307D01*
X102381000Y-60067214D01*
X102381000Y-59820786D01*
X102413490Y-59657448D01*
X102429075Y-59579097D01*
X102523378Y-59351429D01*
X102660285Y-59146534D01*
X102660287Y-59146531D01*
X102834531Y-58972287D01*
X102922446Y-58913544D01*
X103039429Y-58835378D01*
X103267097Y-58741075D01*
X103448365Y-58705019D01*
X103508786Y-58693000D01*
X103755214Y-58693000D01*
X103815635Y-58705019D01*
X103815635Y-58705019D01*
G37*
G36*
X53712000Y-60709000D02*
X53100000Y-60709000D01*
X53100000Y-59907000D01*
X53712000Y-59907000D01*
X53712000Y-60709000D01*
X53712000Y-60709000D01*
G37*
G36*
X60824000Y-60709000D02*
X60212000Y-60709000D01*
X60212000Y-59907000D01*
X60824000Y-59907000D01*
X60824000Y-60709000D01*
X60824000Y-60709000D01*
G37*
G36*
X55612000Y-60709000D02*
X55000000Y-60709000D01*
X55000000Y-59907000D01*
X55612000Y-59907000D01*
X55612000Y-60709000D01*
X55612000Y-60709000D01*
G37*
G36*
X62724000Y-60709000D02*
X62112000Y-60709000D01*
X62112000Y-59907000D01*
X62724000Y-59907000D01*
X62724000Y-60709000D01*
X62724000Y-60709000D01*
G37*
G36*
X115117021Y-53694640D02*
X115522165Y-53862456D01*
X115545614Y-53869569D01*
X115570000Y-53871971D01*
X115594386Y-53869569D01*
X115617835Y-53862456D01*
X116022979Y-53694640D01*
X116564124Y-53587000D01*
X117115876Y-53587000D01*
X117657021Y-53694640D01*
X118166770Y-53905785D01*
X118166771Y-53905786D01*
X118625534Y-54212321D01*
X119015679Y-54602466D01*
X119161555Y-54820786D01*
X119322215Y-55061230D01*
X119533360Y-55570979D01*
X119641000Y-56112124D01*
X119641000Y-56663876D01*
X119533360Y-57205021D01*
X119322215Y-57714770D01*
X119322214Y-57714771D01*
X119015679Y-58173534D01*
X118625534Y-58563679D01*
X118319692Y-58768036D01*
X118166770Y-58870215D01*
X117657021Y-59081360D01*
X117115876Y-59189000D01*
X116564124Y-59189000D01*
X116022979Y-59081360D01*
X115617835Y-58913544D01*
X115594386Y-58906431D01*
X115570000Y-58904029D01*
X115545614Y-58906431D01*
X115522165Y-58913544D01*
X115117021Y-59081360D01*
X114575876Y-59189000D01*
X114024124Y-59189000D01*
X113482979Y-59081360D01*
X112973230Y-58870215D01*
X112820308Y-58768036D01*
X112514466Y-58563679D01*
X112124321Y-58173534D01*
X111817786Y-57714771D01*
X111817785Y-57714770D01*
X111606640Y-57205021D01*
X111499000Y-56663876D01*
X111499000Y-56112124D01*
X111606640Y-55570979D01*
X111817785Y-55061230D01*
X111978445Y-54820786D01*
X112124321Y-54602466D01*
X112514466Y-54212321D01*
X112973229Y-53905786D01*
X112973230Y-53905785D01*
X113482979Y-53694640D01*
X114024124Y-53587000D01*
X114575876Y-53587000D01*
X115117021Y-53694640D01*
X115117021Y-53694640D01*
G37*
G36*
X41965021Y-53694640D02*
X42370165Y-53862456D01*
X42393614Y-53869569D01*
X42418000Y-53871971D01*
X42442386Y-53869569D01*
X42465835Y-53862456D01*
X42870979Y-53694640D01*
X43412124Y-53587000D01*
X43963876Y-53587000D01*
X44505021Y-53694640D01*
X45014770Y-53905785D01*
X45014771Y-53905786D01*
X45473534Y-54212321D01*
X45863679Y-54602466D01*
X46009555Y-54820786D01*
X46170215Y-55061230D01*
X46381360Y-55570979D01*
X46489000Y-56112124D01*
X46489000Y-56663876D01*
X46381360Y-57205021D01*
X46170215Y-57714770D01*
X46170214Y-57714771D01*
X45863679Y-58173534D01*
X45473534Y-58563679D01*
X45167692Y-58768036D01*
X45014770Y-58870215D01*
X44505021Y-59081360D01*
X43963876Y-59189000D01*
X43412124Y-59189000D01*
X42870979Y-59081360D01*
X42465835Y-58913544D01*
X42442386Y-58906431D01*
X42418000Y-58904029D01*
X42393614Y-58906431D01*
X42370165Y-58913544D01*
X41965021Y-59081360D01*
X41423876Y-59189000D01*
X40872124Y-59189000D01*
X40330979Y-59081360D01*
X39821230Y-58870215D01*
X39668308Y-58768036D01*
X39362466Y-58563679D01*
X38972321Y-58173534D01*
X38665786Y-57714771D01*
X38665785Y-57714770D01*
X38454640Y-57205021D01*
X38347000Y-56663876D01*
X38347000Y-56112124D01*
X38454640Y-55570979D01*
X38665785Y-55061230D01*
X38826445Y-54820786D01*
X38972321Y-54602466D01*
X39362466Y-54212321D01*
X39821229Y-53905786D01*
X39821230Y-53905785D01*
X40330979Y-53694640D01*
X40872124Y-53587000D01*
X41423876Y-53587000D01*
X41965021Y-53694640D01*
X41965021Y-53694640D01*
G37*
G36*
X79242228Y-57053703D02*
X79397100Y-57117853D01*
X79536481Y-57210985D01*
X79655015Y-57329519D01*
X79748147Y-57468900D01*
X79812297Y-57623772D01*
X79845000Y-57788184D01*
X79845000Y-57955816D01*
X79812297Y-58120228D01*
X79748147Y-58275100D01*
X79655015Y-58414481D01*
X79536481Y-58533015D01*
X79397100Y-58626147D01*
X79242228Y-58690297D01*
X79077816Y-58723000D01*
X78910184Y-58723000D01*
X78745772Y-58690297D01*
X78590900Y-58626147D01*
X78451519Y-58533015D01*
X78332985Y-58414481D01*
X78239853Y-58275100D01*
X78175703Y-58120228D01*
X78143000Y-57955816D01*
X78143000Y-57788184D01*
X78175703Y-57623772D01*
X78239853Y-57468900D01*
X78332985Y-57329519D01*
X78451519Y-57210985D01*
X78590900Y-57117853D01*
X78745772Y-57053703D01*
X78910184Y-57021000D01*
X79077816Y-57021000D01*
X79242228Y-57053703D01*
X79242228Y-57053703D01*
G37*
G36*
X92662425Y-55814760D02*
X92662428Y-55814761D01*
X92662429Y-55814761D01*
X92841693Y-55869140D01*
X92841695Y-55869141D01*
X93006905Y-55957448D01*
X93151712Y-56076288D01*
X93270552Y-56221095D01*
X93358859Y-56386305D01*
X93413240Y-56565575D01*
X93431601Y-56752000D01*
X93413240Y-56938425D01*
X93413239Y-56938428D01*
X93413239Y-56938429D01*
X93378271Y-57053704D01*
X93358859Y-57117695D01*
X93270552Y-57282905D01*
X93151712Y-57427712D01*
X93006905Y-57546552D01*
X93006903Y-57546553D01*
X92841693Y-57634860D01*
X92662429Y-57689239D01*
X92662428Y-57689239D01*
X92662425Y-57689240D01*
X92522718Y-57703000D01*
X92429282Y-57703000D01*
X92289575Y-57689240D01*
X92289572Y-57689239D01*
X92289571Y-57689239D01*
X92110307Y-57634860D01*
X91945097Y-57546553D01*
X91945095Y-57546552D01*
X91800288Y-57427712D01*
X91681448Y-57282905D01*
X91593141Y-57117695D01*
X91573730Y-57053704D01*
X91538761Y-56938429D01*
X91538761Y-56938428D01*
X91538760Y-56938425D01*
X91520399Y-56752000D01*
X91538760Y-56565575D01*
X91593141Y-56386305D01*
X91681448Y-56221095D01*
X91800288Y-56076288D01*
X91945095Y-55957448D01*
X92110305Y-55869141D01*
X92110307Y-55869140D01*
X92289571Y-55814761D01*
X92289572Y-55814761D01*
X92289575Y-55814760D01*
X92429282Y-55801000D01*
X92522718Y-55801000D01*
X92662425Y-55814760D01*
X92662425Y-55814760D01*
G37*
G36*
X89262425Y-55814760D02*
X89262428Y-55814761D01*
X89262429Y-55814761D01*
X89441693Y-55869140D01*
X89441695Y-55869141D01*
X89606905Y-55957448D01*
X89751712Y-56076288D01*
X89870552Y-56221095D01*
X89958859Y-56386305D01*
X90013240Y-56565575D01*
X90031601Y-56752000D01*
X90013240Y-56938425D01*
X90013239Y-56938428D01*
X90013239Y-56938429D01*
X89978271Y-57053704D01*
X89958859Y-57117695D01*
X89870552Y-57282905D01*
X89751712Y-57427712D01*
X89606905Y-57546552D01*
X89606903Y-57546553D01*
X89441693Y-57634860D01*
X89262429Y-57689239D01*
X89262428Y-57689239D01*
X89262425Y-57689240D01*
X89122718Y-57703000D01*
X89029282Y-57703000D01*
X88889575Y-57689240D01*
X88889572Y-57689239D01*
X88889571Y-57689239D01*
X88710307Y-57634860D01*
X88545097Y-57546553D01*
X88545095Y-57546552D01*
X88400288Y-57427712D01*
X88281448Y-57282905D01*
X88193141Y-57117695D01*
X88173730Y-57053704D01*
X88138761Y-56938429D01*
X88138761Y-56938428D01*
X88138760Y-56938425D01*
X88120399Y-56752000D01*
X88138760Y-56565575D01*
X88193141Y-56386305D01*
X88281448Y-56221095D01*
X88400288Y-56076288D01*
X88545095Y-55957448D01*
X88710305Y-55869141D01*
X88710307Y-55869140D01*
X88889571Y-55814761D01*
X88889572Y-55814761D01*
X88889575Y-55814760D01*
X89029282Y-55801000D01*
X89122718Y-55801000D01*
X89262425Y-55814760D01*
X89262425Y-55814760D01*
G37*
G36*
X79845000Y-56223000D02*
X78143000Y-56223000D01*
X78143000Y-54521000D01*
X79845000Y-54521000D01*
X79845000Y-56223000D01*
X79845000Y-56223000D01*
G37*
G36*
X103815636Y-53705019D02*
X103996903Y-53741075D01*
X104224571Y-53835378D01*
X104428542Y-53971668D01*
X104429469Y-53972287D01*
X104603713Y-54146531D01*
X104603715Y-54146534D01*
X104740622Y-54351429D01*
X104834925Y-54579097D01*
X104883000Y-54820787D01*
X104883000Y-55067213D01*
X104834925Y-55308903D01*
X104740622Y-55536571D01*
X104604332Y-55740542D01*
X104603713Y-55741469D01*
X104429469Y-55915713D01*
X104429466Y-55915715D01*
X104224571Y-56052622D01*
X103996903Y-56146925D01*
X103815635Y-56182981D01*
X103755214Y-56195000D01*
X103508786Y-56195000D01*
X103448365Y-56182981D01*
X103267097Y-56146925D01*
X103039429Y-56052622D01*
X102834534Y-55915715D01*
X102834531Y-55915713D01*
X102660287Y-55741469D01*
X102659668Y-55740542D01*
X102523378Y-55536571D01*
X102429075Y-55308903D01*
X102381000Y-55067213D01*
X102381000Y-54820787D01*
X102429075Y-54579097D01*
X102523378Y-54351429D01*
X102660285Y-54146534D01*
X102660287Y-54146531D01*
X102834531Y-53972287D01*
X102835458Y-53971668D01*
X103039429Y-53835378D01*
X103267097Y-53741075D01*
X103448364Y-53705019D01*
X103508786Y-53693000D01*
X103755214Y-53693000D01*
X103815636Y-53705019D01*
X103815636Y-53705019D01*
G37*
M02*
