M48
; DRILL file {KiCad 5.1.7-a382d34a8~88~ubuntu20.04.1} date Wed Feb 17 10:17:28 2021
; FORMAT={-:-/ absolute / metric / decimal}
; #@! TF.CreationDate,2021-02-17T10:17:28+00:00
; #@! TF.GenerationSoftware,Kicad,Pcbnew,5.1.7-a382d34a8~88~ubuntu20.04.1
; #@! TF.FileFunction,Plated,1,2,PTH
FMAT,2
METRIC
T1C0.400
T2C0.750
T3C0.800
T4C0.890
T5C1.000
T6C1.100
T7C1.200
T8C1.600
T9C2.010
T10C3.200
%
G90
G05
T1
X52.4Y-70.6
X52.6Y-73.0
X55.0Y-72.8
X59.8Y-65.925
X62.0Y-63.875
X64.4Y-78.0
X66.5Y-73.0
X73.0Y-73.0
T2
X43.18Y-68.518
X43.18Y-70.518
X43.18Y-72.518
X43.18Y-74.518
X43.18Y-76.518
X43.18Y-78.518
X43.18Y-80.518
X45.18Y-68.518
X45.18Y-70.518
X45.18Y-72.518
X45.18Y-74.518
X45.18Y-76.518
X45.18Y-78.518
X45.18Y-80.518
T3
X116.5Y-82.46
X116.5Y-85.0
X55.0Y-61.38
X55.0Y-69.0
X57.54Y-61.38
X57.54Y-69.0
X60.08Y-61.38
X60.08Y-69.0
X62.62Y-61.38
X62.62Y-69.0
X65.16Y-61.38
X65.16Y-69.0
X67.7Y-61.38
X67.7Y-69.0
X70.24Y-61.38
X70.24Y-69.0
X78.994Y-55.372
X78.994Y-57.872
X92.0Y-76.38
X92.0Y-84.0
X94.54Y-76.38
X94.54Y-84.0
X97.08Y-76.38
X97.08Y-84.0
X99.62Y-76.38
X99.62Y-84.0
X102.16Y-76.38
X102.16Y-84.0
X104.7Y-76.38
X104.7Y-84.0
X107.24Y-76.38
X107.24Y-84.0
X104.5Y-67.5
X107.0Y-67.5
X55.0Y-75.38
X55.0Y-83.0
X57.54Y-75.38
X57.54Y-83.0
X60.08Y-75.38
X60.08Y-83.0
X62.62Y-75.38
X62.62Y-83.0
X65.16Y-75.38
X65.16Y-83.0
X67.7Y-75.38
X67.7Y-83.0
X70.24Y-75.38
X70.24Y-83.0
T4
X86.868Y-93.472
X89.408Y-93.472
X108.204Y-93.472
X110.744Y-93.472
X68.58Y-93.472
X71.12Y-93.472
X50.292Y-93.472
X52.832Y-93.472
T5
X115.0Y-65.42
X115.0Y-67.96
X115.0Y-70.5
T6
X87.376Y-60.452
X89.076Y-56.752
X90.776Y-60.452
X92.476Y-56.752
X94.176Y-60.452
T7
X103.632Y-54.944
X103.632Y-59.944
T8
X81.534Y-68.326
X96.774Y-68.326
T9
X81.788Y-98.552
X91.948Y-98.552
X103.124Y-98.552
X113.284Y-98.552
X63.5Y-98.552
X73.66Y-98.552
X45.212Y-98.552
X55.372Y-98.552
T10
X43.688Y-56.388
X116.84Y-56.388
X41.148Y-56.388
X114.3Y-56.388
T0
M30
