G04 #@! TF.GenerationSoftware,KiCad,Pcbnew,5.1.7-a382d34a8~88~ubuntu20.04.1*
G04 #@! TF.CreationDate,2021-03-17T13:33:01+00:00*
G04 #@! TF.ProjectId,Lcr_addon,4c63725f-6164-4646-9f6e-2e6b69636164,rev?*
G04 #@! TF.SameCoordinates,Original*
G04 #@! TF.FileFunction,Legend,Top*
G04 #@! TF.FilePolarity,Positive*
%FSLAX46Y46*%
G04 Gerber Fmt 4.6, Leading zero omitted, Abs format (unit mm)*
G04 Created by KiCad (PCBNEW 5.1.7-a382d34a8~88~ubuntu20.04.1) date 2021-03-17 13:33:01*
%MOMM*%
%LPD*%
G01*
G04 APERTURE LIST*
%ADD10C,0.120000*%
%ADD11C,0.150000*%
G04 APERTURE END LIST*
D10*
X81148000Y-53436759D02*
X80518000Y-53436759D01*
X80833000Y-53121759D02*
X80833000Y-53751759D01*
X79396000Y-59863000D02*
X78592000Y-59863000D01*
X79627000Y-59823000D02*
X78361000Y-59823000D01*
X79796000Y-59783000D02*
X78192000Y-59783000D01*
X79934000Y-59743000D02*
X78054000Y-59743000D01*
X80053000Y-59703000D02*
X77935000Y-59703000D01*
X80159000Y-59663000D02*
X77829000Y-59663000D01*
X80256000Y-59623000D02*
X77732000Y-59623000D01*
X80344000Y-59583000D02*
X77644000Y-59583000D01*
X80426000Y-59543000D02*
X77562000Y-59543000D01*
X80503000Y-59503000D02*
X77485000Y-59503000D01*
X80575000Y-59463000D02*
X77413000Y-59463000D01*
X80644000Y-59423000D02*
X77344000Y-59423000D01*
X80708000Y-59383000D02*
X77280000Y-59383000D01*
X80770000Y-59343000D02*
X77218000Y-59343000D01*
X80828000Y-59303000D02*
X77160000Y-59303000D01*
X80884000Y-59263000D02*
X77104000Y-59263000D01*
X80938000Y-59223000D02*
X77050000Y-59223000D01*
X80989000Y-59183000D02*
X76999000Y-59183000D01*
X81038000Y-59143000D02*
X76950000Y-59143000D01*
X81086000Y-59103000D02*
X76902000Y-59103000D01*
X81131000Y-59063000D02*
X76857000Y-59063000D01*
X81176000Y-59023000D02*
X76812000Y-59023000D01*
X81218000Y-58983000D02*
X76770000Y-58983000D01*
X81259000Y-58943000D02*
X76729000Y-58943000D01*
X77954000Y-58903000D02*
X76689000Y-58903000D01*
X81299000Y-58903000D02*
X80034000Y-58903000D01*
X77954000Y-58863000D02*
X76651000Y-58863000D01*
X81337000Y-58863000D02*
X80034000Y-58863000D01*
X77954000Y-58823000D02*
X76614000Y-58823000D01*
X81374000Y-58823000D02*
X80034000Y-58823000D01*
X77954000Y-58783000D02*
X76578000Y-58783000D01*
X81410000Y-58783000D02*
X80034000Y-58783000D01*
X77954000Y-58743000D02*
X76544000Y-58743000D01*
X81444000Y-58743000D02*
X80034000Y-58743000D01*
X77954000Y-58703000D02*
X76510000Y-58703000D01*
X81478000Y-58703000D02*
X80034000Y-58703000D01*
X77954000Y-58663000D02*
X76478000Y-58663000D01*
X81510000Y-58663000D02*
X80034000Y-58663000D01*
X77954000Y-58623000D02*
X76446000Y-58623000D01*
X81542000Y-58623000D02*
X80034000Y-58623000D01*
X77954000Y-58583000D02*
X76416000Y-58583000D01*
X81572000Y-58583000D02*
X80034000Y-58583000D01*
X77954000Y-58543000D02*
X76387000Y-58543000D01*
X81601000Y-58543000D02*
X80034000Y-58543000D01*
X77954000Y-58503000D02*
X76358000Y-58503000D01*
X81630000Y-58503000D02*
X80034000Y-58503000D01*
X77954000Y-58463000D02*
X76330000Y-58463000D01*
X81658000Y-58463000D02*
X80034000Y-58463000D01*
X77954000Y-58423000D02*
X76304000Y-58423000D01*
X81684000Y-58423000D02*
X80034000Y-58423000D01*
X77954000Y-58383000D02*
X76278000Y-58383000D01*
X81710000Y-58383000D02*
X80034000Y-58383000D01*
X77954000Y-58343000D02*
X76252000Y-58343000D01*
X81736000Y-58343000D02*
X80034000Y-58343000D01*
X77954000Y-58303000D02*
X76228000Y-58303000D01*
X81760000Y-58303000D02*
X80034000Y-58303000D01*
X77954000Y-58263000D02*
X76204000Y-58263000D01*
X81784000Y-58263000D02*
X80034000Y-58263000D01*
X77954000Y-58223000D02*
X76182000Y-58223000D01*
X81806000Y-58223000D02*
X80034000Y-58223000D01*
X77954000Y-58183000D02*
X76160000Y-58183000D01*
X81828000Y-58183000D02*
X80034000Y-58183000D01*
X77954000Y-58143000D02*
X76138000Y-58143000D01*
X81850000Y-58143000D02*
X80034000Y-58143000D01*
X77954000Y-58103000D02*
X76118000Y-58103000D01*
X81870000Y-58103000D02*
X80034000Y-58103000D01*
X77954000Y-58063000D02*
X76098000Y-58063000D01*
X81890000Y-58063000D02*
X80034000Y-58063000D01*
X77954000Y-58023000D02*
X76078000Y-58023000D01*
X81910000Y-58023000D02*
X80034000Y-58023000D01*
X77954000Y-57983000D02*
X76060000Y-57983000D01*
X81928000Y-57983000D02*
X80034000Y-57983000D01*
X77954000Y-57943000D02*
X76042000Y-57943000D01*
X81946000Y-57943000D02*
X80034000Y-57943000D01*
X77954000Y-57903000D02*
X76024000Y-57903000D01*
X81964000Y-57903000D02*
X80034000Y-57903000D01*
X77954000Y-57863000D02*
X76008000Y-57863000D01*
X81980000Y-57863000D02*
X80034000Y-57863000D01*
X77954000Y-57823000D02*
X75992000Y-57823000D01*
X81996000Y-57823000D02*
X80034000Y-57823000D01*
X77954000Y-57783000D02*
X75976000Y-57783000D01*
X82012000Y-57783000D02*
X80034000Y-57783000D01*
X77954000Y-57743000D02*
X75961000Y-57743000D01*
X82027000Y-57743000D02*
X80034000Y-57743000D01*
X77954000Y-57703000D02*
X75947000Y-57703000D01*
X82041000Y-57703000D02*
X80034000Y-57703000D01*
X77954000Y-57663000D02*
X75933000Y-57663000D01*
X82055000Y-57663000D02*
X80034000Y-57663000D01*
X77954000Y-57623000D02*
X75920000Y-57623000D01*
X82068000Y-57623000D02*
X80034000Y-57623000D01*
X77954000Y-57583000D02*
X75908000Y-57583000D01*
X82080000Y-57583000D02*
X80034000Y-57583000D01*
X77954000Y-57543000D02*
X75896000Y-57543000D01*
X82092000Y-57543000D02*
X80034000Y-57543000D01*
X77954000Y-57503000D02*
X75884000Y-57503000D01*
X82104000Y-57503000D02*
X80034000Y-57503000D01*
X77954000Y-57463000D02*
X75873000Y-57463000D01*
X82115000Y-57463000D02*
X80034000Y-57463000D01*
X77954000Y-57423000D02*
X75863000Y-57423000D01*
X82125000Y-57423000D02*
X80034000Y-57423000D01*
X77954000Y-57383000D02*
X75853000Y-57383000D01*
X82135000Y-57383000D02*
X80034000Y-57383000D01*
X77954000Y-57343000D02*
X75844000Y-57343000D01*
X82144000Y-57343000D02*
X80034000Y-57343000D01*
X77954000Y-57302000D02*
X75835000Y-57302000D01*
X82153000Y-57302000D02*
X80034000Y-57302000D01*
X77954000Y-57262000D02*
X75827000Y-57262000D01*
X82161000Y-57262000D02*
X80034000Y-57262000D01*
X77954000Y-57222000D02*
X75819000Y-57222000D01*
X82169000Y-57222000D02*
X80034000Y-57222000D01*
X77954000Y-57182000D02*
X75812000Y-57182000D01*
X82176000Y-57182000D02*
X80034000Y-57182000D01*
X77954000Y-57142000D02*
X75805000Y-57142000D01*
X82183000Y-57142000D02*
X80034000Y-57142000D01*
X77954000Y-57102000D02*
X75799000Y-57102000D01*
X82189000Y-57102000D02*
X80034000Y-57102000D01*
X77954000Y-57062000D02*
X75793000Y-57062000D01*
X82195000Y-57062000D02*
X80034000Y-57062000D01*
X77954000Y-57022000D02*
X75788000Y-57022000D01*
X82200000Y-57022000D02*
X80034000Y-57022000D01*
X77954000Y-56982000D02*
X75783000Y-56982000D01*
X82205000Y-56982000D02*
X80034000Y-56982000D01*
X77954000Y-56942000D02*
X75779000Y-56942000D01*
X82209000Y-56942000D02*
X80034000Y-56942000D01*
X77954000Y-56902000D02*
X75776000Y-56902000D01*
X82212000Y-56902000D02*
X80034000Y-56902000D01*
X77954000Y-56862000D02*
X75772000Y-56862000D01*
X82216000Y-56862000D02*
X80034000Y-56862000D01*
X82218000Y-56822000D02*
X75770000Y-56822000D01*
X82221000Y-56782000D02*
X75767000Y-56782000D01*
X82222000Y-56742000D02*
X75766000Y-56742000D01*
X82224000Y-56702000D02*
X75764000Y-56702000D01*
X82224000Y-56662000D02*
X75764000Y-56662000D01*
X82224000Y-56622000D02*
X75764000Y-56622000D01*
X82264000Y-56622000D02*
G75*
G03*
X82264000Y-56622000I-3270000J0D01*
G01*
X40030000Y-77768000D02*
X40780000Y-77768000D01*
X40780000Y-77768000D02*
X40780000Y-71268000D01*
X40780000Y-71268000D02*
X40030000Y-71268000D01*
X40030000Y-71268000D02*
X40030000Y-77768000D01*
X39170000Y-78518000D02*
X40780000Y-78518000D01*
X40780000Y-78518000D02*
X40780000Y-79268000D01*
X40780000Y-79268000D02*
X40030000Y-79268000D01*
X40030000Y-79268000D02*
X40030000Y-81768000D01*
X40030000Y-81768000D02*
X46830000Y-81768000D01*
X46830000Y-81768000D02*
X46830000Y-74518000D01*
X39170000Y-70518000D02*
X40780000Y-70518000D01*
X40780000Y-70518000D02*
X40780000Y-69768000D01*
X40780000Y-69768000D02*
X40030000Y-69768000D01*
X40030000Y-69768000D02*
X40030000Y-67268000D01*
X40030000Y-67268000D02*
X46830000Y-67268000D01*
X46830000Y-67268000D02*
X46830000Y-74518000D01*
X39170000Y-82628000D02*
X47690000Y-82628000D01*
X47690000Y-82628000D02*
X47690000Y-66408000D01*
X47690000Y-66408000D02*
X39170000Y-66408000D01*
X39170000Y-66408000D02*
X39170000Y-82628000D01*
X43180000Y-82828000D02*
X43480000Y-83428000D01*
X43480000Y-83428000D02*
X42880000Y-83428000D01*
X42880000Y-83428000D02*
X43180000Y-82828000D01*
X85655000Y-52132000D02*
X95896000Y-52132000D01*
X85655000Y-56773000D02*
X88011000Y-56773000D01*
X90141000Y-56773000D02*
X91411000Y-56773000D01*
X93541000Y-56773000D02*
X95896000Y-56773000D01*
X85655000Y-52132000D02*
X85655000Y-56773000D01*
X95896000Y-52132000D02*
X95896000Y-56773000D01*
X85655000Y-53641000D02*
X95896000Y-53641000D01*
X88926000Y-52132000D02*
X88926000Y-53641000D01*
X92626000Y-52132000D02*
X92626000Y-53641000D01*
X87376000Y-56773000D02*
X87376000Y-59403000D01*
X90776000Y-56773000D02*
X90776000Y-59387000D01*
X94176000Y-56773000D02*
X94176000Y-59387000D01*
X109020000Y-67500000D02*
G75*
G03*
X109020000Y-67500000I-3270000J0D01*
G01*
X105750000Y-70730000D02*
X105750000Y-64270000D01*
X105710000Y-70730000D02*
X105710000Y-64270000D01*
X105670000Y-70730000D02*
X105670000Y-64270000D01*
X105630000Y-70728000D02*
X105630000Y-64272000D01*
X105590000Y-70727000D02*
X105590000Y-64273000D01*
X105550000Y-70724000D02*
X105550000Y-64276000D01*
X105510000Y-70722000D02*
X105510000Y-68540000D01*
X105510000Y-66460000D02*
X105510000Y-64278000D01*
X105470000Y-70718000D02*
X105470000Y-68540000D01*
X105470000Y-66460000D02*
X105470000Y-64282000D01*
X105430000Y-70715000D02*
X105430000Y-68540000D01*
X105430000Y-66460000D02*
X105430000Y-64285000D01*
X105390000Y-70711000D02*
X105390000Y-68540000D01*
X105390000Y-66460000D02*
X105390000Y-64289000D01*
X105350000Y-70706000D02*
X105350000Y-68540000D01*
X105350000Y-66460000D02*
X105350000Y-64294000D01*
X105310000Y-70701000D02*
X105310000Y-68540000D01*
X105310000Y-66460000D02*
X105310000Y-64299000D01*
X105270000Y-70695000D02*
X105270000Y-68540000D01*
X105270000Y-66460000D02*
X105270000Y-64305000D01*
X105230000Y-70689000D02*
X105230000Y-68540000D01*
X105230000Y-66460000D02*
X105230000Y-64311000D01*
X105190000Y-70682000D02*
X105190000Y-68540000D01*
X105190000Y-66460000D02*
X105190000Y-64318000D01*
X105150000Y-70675000D02*
X105150000Y-68540000D01*
X105150000Y-66460000D02*
X105150000Y-64325000D01*
X105110000Y-70667000D02*
X105110000Y-68540000D01*
X105110000Y-66460000D02*
X105110000Y-64333000D01*
X105070000Y-70659000D02*
X105070000Y-68540000D01*
X105070000Y-66460000D02*
X105070000Y-64341000D01*
X105029000Y-70650000D02*
X105029000Y-68540000D01*
X105029000Y-66460000D02*
X105029000Y-64350000D01*
X104989000Y-70641000D02*
X104989000Y-68540000D01*
X104989000Y-66460000D02*
X104989000Y-64359000D01*
X104949000Y-70631000D02*
X104949000Y-68540000D01*
X104949000Y-66460000D02*
X104949000Y-64369000D01*
X104909000Y-70621000D02*
X104909000Y-68540000D01*
X104909000Y-66460000D02*
X104909000Y-64379000D01*
X104869000Y-70610000D02*
X104869000Y-68540000D01*
X104869000Y-66460000D02*
X104869000Y-64390000D01*
X104829000Y-70598000D02*
X104829000Y-68540000D01*
X104829000Y-66460000D02*
X104829000Y-64402000D01*
X104789000Y-70586000D02*
X104789000Y-68540000D01*
X104789000Y-66460000D02*
X104789000Y-64414000D01*
X104749000Y-70574000D02*
X104749000Y-68540000D01*
X104749000Y-66460000D02*
X104749000Y-64426000D01*
X104709000Y-70561000D02*
X104709000Y-68540000D01*
X104709000Y-66460000D02*
X104709000Y-64439000D01*
X104669000Y-70547000D02*
X104669000Y-68540000D01*
X104669000Y-66460000D02*
X104669000Y-64453000D01*
X104629000Y-70533000D02*
X104629000Y-68540000D01*
X104629000Y-66460000D02*
X104629000Y-64467000D01*
X104589000Y-70518000D02*
X104589000Y-68540000D01*
X104589000Y-66460000D02*
X104589000Y-64482000D01*
X104549000Y-70502000D02*
X104549000Y-68540000D01*
X104549000Y-66460000D02*
X104549000Y-64498000D01*
X104509000Y-70486000D02*
X104509000Y-68540000D01*
X104509000Y-66460000D02*
X104509000Y-64514000D01*
X104469000Y-70470000D02*
X104469000Y-68540000D01*
X104469000Y-66460000D02*
X104469000Y-64530000D01*
X104429000Y-70452000D02*
X104429000Y-68540000D01*
X104429000Y-66460000D02*
X104429000Y-64548000D01*
X104389000Y-70434000D02*
X104389000Y-68540000D01*
X104389000Y-66460000D02*
X104389000Y-64566000D01*
X104349000Y-70416000D02*
X104349000Y-68540000D01*
X104349000Y-66460000D02*
X104349000Y-64584000D01*
X104309000Y-70396000D02*
X104309000Y-68540000D01*
X104309000Y-66460000D02*
X104309000Y-64604000D01*
X104269000Y-70376000D02*
X104269000Y-68540000D01*
X104269000Y-66460000D02*
X104269000Y-64624000D01*
X104229000Y-70356000D02*
X104229000Y-68540000D01*
X104229000Y-66460000D02*
X104229000Y-64644000D01*
X104189000Y-70334000D02*
X104189000Y-68540000D01*
X104189000Y-66460000D02*
X104189000Y-64666000D01*
X104149000Y-70312000D02*
X104149000Y-68540000D01*
X104149000Y-66460000D02*
X104149000Y-64688000D01*
X104109000Y-70290000D02*
X104109000Y-68540000D01*
X104109000Y-66460000D02*
X104109000Y-64710000D01*
X104069000Y-70266000D02*
X104069000Y-68540000D01*
X104069000Y-66460000D02*
X104069000Y-64734000D01*
X104029000Y-70242000D02*
X104029000Y-68540000D01*
X104029000Y-66460000D02*
X104029000Y-64758000D01*
X103989000Y-70216000D02*
X103989000Y-68540000D01*
X103989000Y-66460000D02*
X103989000Y-64784000D01*
X103949000Y-70190000D02*
X103949000Y-68540000D01*
X103949000Y-66460000D02*
X103949000Y-64810000D01*
X103909000Y-70164000D02*
X103909000Y-68540000D01*
X103909000Y-66460000D02*
X103909000Y-64836000D01*
X103869000Y-70136000D02*
X103869000Y-68540000D01*
X103869000Y-66460000D02*
X103869000Y-64864000D01*
X103829000Y-70107000D02*
X103829000Y-68540000D01*
X103829000Y-66460000D02*
X103829000Y-64893000D01*
X103789000Y-70078000D02*
X103789000Y-68540000D01*
X103789000Y-66460000D02*
X103789000Y-64922000D01*
X103749000Y-70048000D02*
X103749000Y-68540000D01*
X103749000Y-66460000D02*
X103749000Y-64952000D01*
X103709000Y-70016000D02*
X103709000Y-68540000D01*
X103709000Y-66460000D02*
X103709000Y-64984000D01*
X103669000Y-69984000D02*
X103669000Y-68540000D01*
X103669000Y-66460000D02*
X103669000Y-65016000D01*
X103629000Y-69950000D02*
X103629000Y-68540000D01*
X103629000Y-66460000D02*
X103629000Y-65050000D01*
X103589000Y-69916000D02*
X103589000Y-68540000D01*
X103589000Y-66460000D02*
X103589000Y-65084000D01*
X103549000Y-69880000D02*
X103549000Y-68540000D01*
X103549000Y-66460000D02*
X103549000Y-65120000D01*
X103509000Y-69843000D02*
X103509000Y-68540000D01*
X103509000Y-66460000D02*
X103509000Y-65157000D01*
X103469000Y-69805000D02*
X103469000Y-68540000D01*
X103469000Y-66460000D02*
X103469000Y-65195000D01*
X103429000Y-69765000D02*
X103429000Y-65235000D01*
X103389000Y-69724000D02*
X103389000Y-65276000D01*
X103349000Y-69682000D02*
X103349000Y-65318000D01*
X103309000Y-69637000D02*
X103309000Y-65363000D01*
X103269000Y-69592000D02*
X103269000Y-65408000D01*
X103229000Y-69544000D02*
X103229000Y-65456000D01*
X103189000Y-69495000D02*
X103189000Y-65505000D01*
X103149000Y-69444000D02*
X103149000Y-65556000D01*
X103109000Y-69390000D02*
X103109000Y-65610000D01*
X103069000Y-69334000D02*
X103069000Y-65666000D01*
X103029000Y-69276000D02*
X103029000Y-65724000D01*
X102989000Y-69214000D02*
X102989000Y-65786000D01*
X102949000Y-69150000D02*
X102949000Y-65850000D01*
X102909000Y-69081000D02*
X102909000Y-65919000D01*
X102869000Y-69009000D02*
X102869000Y-65991000D01*
X102829000Y-68932000D02*
X102829000Y-66068000D01*
X102789000Y-68850000D02*
X102789000Y-66150000D01*
X102749000Y-68762000D02*
X102749000Y-66238000D01*
X102709000Y-68665000D02*
X102709000Y-66335000D01*
X102669000Y-68559000D02*
X102669000Y-66441000D01*
X102629000Y-68440000D02*
X102629000Y-66560000D01*
X102589000Y-68302000D02*
X102589000Y-66698000D01*
X102549000Y-68133000D02*
X102549000Y-66867000D01*
X102509000Y-67902000D02*
X102509000Y-67098000D01*
X109250241Y-69339000D02*
X108620241Y-69339000D01*
X108935241Y-69654000D02*
X108935241Y-69024000D01*
X84284000Y-65606000D02*
X84284000Y-71046000D01*
X84284000Y-71046000D02*
X94024000Y-71046000D01*
X94024000Y-71046000D02*
X94024000Y-65606000D01*
X94024000Y-65606000D02*
X84284000Y-65606000D01*
X83374000Y-68326000D02*
X84284000Y-68326000D01*
X94934000Y-68326000D02*
X94024000Y-68326000D01*
X85829000Y-65606000D02*
X85829000Y-71046000D01*
X85949000Y-65606000D02*
X85949000Y-71046000D01*
X85709000Y-65606000D02*
X85709000Y-71046000D01*
X108204000Y-105972000D02*
X107204000Y-104972000D01*
X108204000Y-105972000D02*
X109204000Y-104972000D01*
X115704000Y-91172000D02*
X115704000Y-106172000D01*
X100704000Y-91172000D02*
X115704000Y-91172000D01*
X100704000Y-106172000D02*
X100704000Y-91172000D01*
X115704000Y-106172000D02*
X100704000Y-106172000D01*
X68580000Y-105972000D02*
X67580000Y-104972000D01*
X68580000Y-105972000D02*
X69580000Y-104972000D01*
X76080000Y-91172000D02*
X76080000Y-106172000D01*
X61080000Y-91172000D02*
X76080000Y-91172000D01*
X61080000Y-106172000D02*
X61080000Y-91172000D01*
X76080000Y-106172000D02*
X61080000Y-106172000D01*
X94368000Y-106172000D02*
X79368000Y-106172000D01*
X79368000Y-106172000D02*
X79368000Y-91172000D01*
X79368000Y-91172000D02*
X94368000Y-91172000D01*
X94368000Y-91172000D02*
X94368000Y-106172000D01*
X86868000Y-105972000D02*
X87868000Y-104972000D01*
X86868000Y-105972000D02*
X85868000Y-104972000D01*
X57792000Y-106172000D02*
X42792000Y-106172000D01*
X42792000Y-106172000D02*
X42792000Y-91172000D01*
X42792000Y-91172000D02*
X57792000Y-91172000D01*
X57792000Y-91172000D02*
X57792000Y-106172000D01*
X50292000Y-105972000D02*
X51292000Y-104972000D01*
X50292000Y-105972000D02*
X49292000Y-104972000D01*
X108752000Y-57444000D02*
G75*
G03*
X108752000Y-57444000I-5120000J0D01*
G01*
X116330000Y-64090000D02*
X113670000Y-64090000D01*
X116330000Y-69230000D02*
X116330000Y-64090000D01*
X113670000Y-69230000D02*
X113670000Y-64090000D01*
X116330000Y-69230000D02*
X113670000Y-69230000D01*
X116330000Y-70500000D02*
X116330000Y-71830000D01*
X116330000Y-71830000D02*
X115000000Y-71830000D01*
X117870000Y-85000000D02*
G75*
G03*
X117870000Y-85000000I-1370000J0D01*
G01*
X116500000Y-83630000D02*
X116500000Y-83560000D01*
X53670000Y-66190000D02*
X53670000Y-67440000D01*
X53670000Y-67440000D02*
X71570000Y-67440000D01*
X71570000Y-67440000D02*
X71570000Y-62940000D01*
X71570000Y-62940000D02*
X53670000Y-62940000D01*
X53670000Y-62940000D02*
X53670000Y-64190000D01*
X53610000Y-70440000D02*
X71630000Y-70440000D01*
X71630000Y-70440000D02*
X71630000Y-59940000D01*
X71630000Y-59940000D02*
X53610000Y-59940000D01*
X53610000Y-59940000D02*
X53610000Y-70440000D01*
X53670000Y-64190000D02*
G75*
G02*
X53670000Y-66190000I0J-1000000D01*
G01*
X53610000Y-73940000D02*
X53610000Y-84440000D01*
X71630000Y-73940000D02*
X53610000Y-73940000D01*
X71630000Y-84440000D02*
X71630000Y-73940000D01*
X53610000Y-84440000D02*
X71630000Y-84440000D01*
X53670000Y-76940000D02*
X53670000Y-78190000D01*
X71570000Y-76940000D02*
X53670000Y-76940000D01*
X71570000Y-81440000D02*
X71570000Y-76940000D01*
X53670000Y-81440000D02*
X71570000Y-81440000D01*
X53670000Y-80190000D02*
X53670000Y-81440000D01*
X53670000Y-78190000D02*
G75*
G02*
X53670000Y-80190000I0J-1000000D01*
G01*
X90670000Y-81190000D02*
X90670000Y-82440000D01*
X90670000Y-82440000D02*
X108570000Y-82440000D01*
X108570000Y-82440000D02*
X108570000Y-77940000D01*
X108570000Y-77940000D02*
X90670000Y-77940000D01*
X90670000Y-77940000D02*
X90670000Y-79190000D01*
X90610000Y-85440000D02*
X108630000Y-85440000D01*
X108630000Y-85440000D02*
X108630000Y-74940000D01*
X108630000Y-74940000D02*
X90610000Y-74940000D01*
X90610000Y-74940000D02*
X90610000Y-85440000D01*
X90670000Y-79190000D02*
G75*
G02*
X90670000Y-81190000I0J-1000000D01*
G01*
D11*
X83751142Y-56788666D02*
X83798761Y-56836285D01*
X83846380Y-56979142D01*
X83846380Y-57074380D01*
X83798761Y-57217238D01*
X83703523Y-57312476D01*
X83608285Y-57360095D01*
X83417809Y-57407714D01*
X83274952Y-57407714D01*
X83084476Y-57360095D01*
X82989238Y-57312476D01*
X82894000Y-57217238D01*
X82846380Y-57074380D01*
X82846380Y-56979142D01*
X82894000Y-56836285D01*
X82941619Y-56788666D01*
X83846380Y-55836285D02*
X83846380Y-56407714D01*
X83846380Y-56122000D02*
X82846380Y-56122000D01*
X82989238Y-56217238D01*
X83084476Y-56312476D01*
X83132095Y-56407714D01*
X74046380Y-58264857D02*
X74046380Y-58455333D01*
X74094000Y-58550571D01*
X74141619Y-58598190D01*
X74284476Y-58693428D01*
X74474952Y-58741047D01*
X74855904Y-58741047D01*
X74951142Y-58693428D01*
X74998761Y-58645809D01*
X75046380Y-58550571D01*
X75046380Y-58360095D01*
X74998761Y-58264857D01*
X74951142Y-58217238D01*
X74855904Y-58169619D01*
X74617809Y-58169619D01*
X74522571Y-58217238D01*
X74474952Y-58264857D01*
X74427333Y-58360095D01*
X74427333Y-58550571D01*
X74474952Y-58645809D01*
X74522571Y-58693428D01*
X74617809Y-58741047D01*
X74474952Y-57598190D02*
X74427333Y-57693428D01*
X74379714Y-57741047D01*
X74284476Y-57788666D01*
X74236857Y-57788666D01*
X74141619Y-57741047D01*
X74094000Y-57693428D01*
X74046380Y-57598190D01*
X74046380Y-57407714D01*
X74094000Y-57312476D01*
X74141619Y-57264857D01*
X74236857Y-57217238D01*
X74284476Y-57217238D01*
X74379714Y-57264857D01*
X74427333Y-57312476D01*
X74474952Y-57407714D01*
X74474952Y-57598190D01*
X74522571Y-57693428D01*
X74570190Y-57741047D01*
X74665428Y-57788666D01*
X74855904Y-57788666D01*
X74951142Y-57741047D01*
X74998761Y-57693428D01*
X75046380Y-57598190D01*
X75046380Y-57407714D01*
X74998761Y-57312476D01*
X74951142Y-57264857D01*
X74855904Y-57217238D01*
X74665428Y-57217238D01*
X74570190Y-57264857D01*
X74522571Y-57312476D01*
X74474952Y-57407714D01*
X74046380Y-56598190D02*
X74046380Y-56502952D01*
X74094000Y-56407714D01*
X74141619Y-56360095D01*
X74236857Y-56312476D01*
X74427333Y-56264857D01*
X74665428Y-56264857D01*
X74855904Y-56312476D01*
X74951142Y-56360095D01*
X74998761Y-56407714D01*
X75046380Y-56502952D01*
X75046380Y-56598190D01*
X74998761Y-56693428D01*
X74951142Y-56741047D01*
X74855904Y-56788666D01*
X74665428Y-56836285D01*
X74427333Y-56836285D01*
X74236857Y-56788666D01*
X74141619Y-56741047D01*
X74094000Y-56693428D01*
X74046380Y-56598190D01*
X74379714Y-55407714D02*
X75046380Y-55407714D01*
X74379714Y-55836285D02*
X74903523Y-55836285D01*
X74998761Y-55788666D01*
X75046380Y-55693428D01*
X75046380Y-55550571D01*
X74998761Y-55455333D01*
X74951142Y-55407714D01*
X74522571Y-54598190D02*
X74522571Y-54931523D01*
X75046380Y-54931523D02*
X74046380Y-54931523D01*
X74046380Y-54455333D01*
X37532380Y-74851333D02*
X38246666Y-74851333D01*
X38389523Y-74898952D01*
X38484761Y-74994190D01*
X38532380Y-75137047D01*
X38532380Y-75232285D01*
X37627619Y-74422761D02*
X37580000Y-74375142D01*
X37532380Y-74279904D01*
X37532380Y-74041809D01*
X37580000Y-73946571D01*
X37627619Y-73898952D01*
X37722857Y-73851333D01*
X37818095Y-73851333D01*
X37960952Y-73898952D01*
X38532380Y-74470380D01*
X38532380Y-73851333D01*
X49232380Y-79018000D02*
X49232380Y-79494190D01*
X48232380Y-79494190D01*
X49137142Y-78113238D02*
X49184761Y-78160857D01*
X49232380Y-78303714D01*
X49232380Y-78398952D01*
X49184761Y-78541809D01*
X49089523Y-78637047D01*
X48994285Y-78684666D01*
X48803809Y-78732285D01*
X48660952Y-78732285D01*
X48470476Y-78684666D01*
X48375238Y-78637047D01*
X48280000Y-78541809D01*
X48232380Y-78398952D01*
X48232380Y-78303714D01*
X48280000Y-78160857D01*
X48327619Y-78113238D01*
X49232380Y-77684666D02*
X48565714Y-77684666D01*
X48756190Y-77684666D02*
X48660952Y-77637047D01*
X48613333Y-77589428D01*
X48565714Y-77494190D01*
X48565714Y-77398952D01*
X49327619Y-77303714D02*
X49327619Y-76541809D01*
X49184761Y-75113238D02*
X49232380Y-75208476D01*
X49232380Y-75398952D01*
X49184761Y-75494190D01*
X49137142Y-75541809D01*
X49041904Y-75589428D01*
X48756190Y-75589428D01*
X48660952Y-75541809D01*
X48613333Y-75494190D01*
X48565714Y-75398952D01*
X48565714Y-75208476D01*
X48613333Y-75113238D01*
X49232380Y-74541809D02*
X49184761Y-74637047D01*
X49137142Y-74684666D01*
X49041904Y-74732285D01*
X48756190Y-74732285D01*
X48660952Y-74684666D01*
X48613333Y-74637047D01*
X48565714Y-74541809D01*
X48565714Y-74398952D01*
X48613333Y-74303714D01*
X48660952Y-74256095D01*
X48756190Y-74208476D01*
X49041904Y-74208476D01*
X49137142Y-74256095D01*
X49184761Y-74303714D01*
X49232380Y-74398952D01*
X49232380Y-74541809D01*
X48565714Y-73779904D02*
X49232380Y-73779904D01*
X48660952Y-73779904D02*
X48613333Y-73732285D01*
X48565714Y-73637047D01*
X48565714Y-73494190D01*
X48613333Y-73398952D01*
X48708571Y-73351333D01*
X49232380Y-73351333D01*
X49184761Y-72494190D02*
X49232380Y-72589428D01*
X49232380Y-72779904D01*
X49184761Y-72875142D01*
X49089523Y-72922761D01*
X48708571Y-72922761D01*
X48613333Y-72875142D01*
X48565714Y-72779904D01*
X48565714Y-72589428D01*
X48613333Y-72494190D01*
X48708571Y-72446571D01*
X48803809Y-72446571D01*
X48899047Y-72922761D01*
X49184761Y-71589428D02*
X49232380Y-71684666D01*
X49232380Y-71875142D01*
X49184761Y-71970380D01*
X49137142Y-72018000D01*
X49041904Y-72065619D01*
X48756190Y-72065619D01*
X48660952Y-72018000D01*
X48613333Y-71970380D01*
X48565714Y-71875142D01*
X48565714Y-71684666D01*
X48613333Y-71589428D01*
X48565714Y-71303714D02*
X48565714Y-70922761D01*
X48232380Y-71160857D02*
X49089523Y-71160857D01*
X49184761Y-71113238D01*
X49232380Y-71018000D01*
X49232380Y-70922761D01*
X49232380Y-70446571D02*
X49184761Y-70541809D01*
X49137142Y-70589428D01*
X49041904Y-70637047D01*
X48756190Y-70637047D01*
X48660952Y-70589428D01*
X48613333Y-70541809D01*
X48565714Y-70446571D01*
X48565714Y-70303714D01*
X48613333Y-70208476D01*
X48660952Y-70160857D01*
X48756190Y-70113238D01*
X49041904Y-70113238D01*
X49137142Y-70160857D01*
X49184761Y-70208476D01*
X49232380Y-70303714D01*
X49232380Y-70446571D01*
X49232380Y-69684666D02*
X48565714Y-69684666D01*
X48756190Y-69684666D02*
X48660952Y-69637047D01*
X48613333Y-69589428D01*
X48565714Y-69494190D01*
X48565714Y-69398952D01*
X83566095Y-60412380D02*
X83566095Y-61221904D01*
X83613714Y-61317142D01*
X83661333Y-61364761D01*
X83756571Y-61412380D01*
X83947047Y-61412380D01*
X84042285Y-61364761D01*
X84089904Y-61317142D01*
X84137523Y-61221904D01*
X84137523Y-60412380D01*
X85042285Y-60745714D02*
X85042285Y-61412380D01*
X84804190Y-60364761D02*
X84566095Y-61079047D01*
X85185142Y-61079047D01*
X87133142Y-63054380D02*
X86656952Y-63054380D01*
X86656952Y-62054380D01*
X87466476Y-63054380D02*
X87466476Y-62054380D01*
X87799809Y-62768666D01*
X88133142Y-62054380D01*
X88133142Y-63054380D01*
X88561714Y-62149619D02*
X88609333Y-62102000D01*
X88704571Y-62054380D01*
X88942666Y-62054380D01*
X89037904Y-62102000D01*
X89085523Y-62149619D01*
X89133142Y-62244857D01*
X89133142Y-62340095D01*
X89085523Y-62482952D01*
X88514095Y-63054380D01*
X89133142Y-63054380D01*
X90037904Y-62054380D02*
X89561714Y-62054380D01*
X89514095Y-62530571D01*
X89561714Y-62482952D01*
X89656952Y-62435333D01*
X89895047Y-62435333D01*
X89990285Y-62482952D01*
X90037904Y-62530571D01*
X90085523Y-62625809D01*
X90085523Y-62863904D01*
X90037904Y-62959142D01*
X89990285Y-63006761D01*
X89895047Y-63054380D01*
X89656952Y-63054380D01*
X89561714Y-63006761D01*
X89514095Y-62959142D01*
X90561714Y-63054380D02*
X90752190Y-63054380D01*
X90847428Y-63006761D01*
X90895047Y-62959142D01*
X90990285Y-62816285D01*
X91037904Y-62625809D01*
X91037904Y-62244857D01*
X90990285Y-62149619D01*
X90942666Y-62102000D01*
X90847428Y-62054380D01*
X90656952Y-62054380D01*
X90561714Y-62102000D01*
X90514095Y-62149619D01*
X90466476Y-62244857D01*
X90466476Y-62482952D01*
X90514095Y-62578190D01*
X90561714Y-62625809D01*
X90656952Y-62673428D01*
X90847428Y-62673428D01*
X90942666Y-62625809D01*
X90990285Y-62578190D01*
X91037904Y-62482952D01*
X91895047Y-62054380D02*
X91704571Y-62054380D01*
X91609333Y-62102000D01*
X91561714Y-62149619D01*
X91466476Y-62292476D01*
X91418857Y-62482952D01*
X91418857Y-62863904D01*
X91466476Y-62959142D01*
X91514095Y-63006761D01*
X91609333Y-63054380D01*
X91799809Y-63054380D01*
X91895047Y-63006761D01*
X91942666Y-62959142D01*
X91990285Y-62863904D01*
X91990285Y-62625809D01*
X91942666Y-62530571D01*
X91895047Y-62482952D01*
X91799809Y-62435333D01*
X91609333Y-62435333D01*
X91514095Y-62482952D01*
X91466476Y-62530571D01*
X91418857Y-62625809D01*
X92276000Y-62054380D02*
X92847428Y-62054380D01*
X92561714Y-63054380D02*
X92561714Y-62054380D01*
X93180761Y-62673428D02*
X93942666Y-62673428D01*
X94895047Y-62054380D02*
X94418857Y-62054380D01*
X94371238Y-62530571D01*
X94418857Y-62482952D01*
X94514095Y-62435333D01*
X94752190Y-62435333D01*
X94847428Y-62482952D01*
X94895047Y-62530571D01*
X94942666Y-62625809D01*
X94942666Y-62863904D01*
X94895047Y-62959142D01*
X94847428Y-63006761D01*
X94752190Y-63054380D01*
X94514095Y-63054380D01*
X94418857Y-63006761D01*
X94371238Y-62959142D01*
X105583333Y-72257142D02*
X105535714Y-72304761D01*
X105392857Y-72352380D01*
X105297619Y-72352380D01*
X105154761Y-72304761D01*
X105059523Y-72209523D01*
X105011904Y-72114285D01*
X104964285Y-71923809D01*
X104964285Y-71780952D01*
X105011904Y-71590476D01*
X105059523Y-71495238D01*
X105154761Y-71400000D01*
X105297619Y-71352380D01*
X105392857Y-71352380D01*
X105535714Y-71400000D01*
X105583333Y-71447619D01*
X105964285Y-71447619D02*
X106011904Y-71400000D01*
X106107142Y-71352380D01*
X106345238Y-71352380D01*
X106440476Y-71400000D01*
X106488095Y-71447619D01*
X106535714Y-71542857D01*
X106535714Y-71638095D01*
X106488095Y-71780952D01*
X105916666Y-72352380D01*
X106535714Y-72352380D01*
X103630952Y-62647619D02*
X103678571Y-62600000D01*
X103773809Y-62552380D01*
X104011904Y-62552380D01*
X104107142Y-62600000D01*
X104154761Y-62647619D01*
X104202380Y-62742857D01*
X104202380Y-62838095D01*
X104154761Y-62980952D01*
X103583333Y-63552380D01*
X104202380Y-63552380D01*
X104583333Y-62647619D02*
X104630952Y-62600000D01*
X104726190Y-62552380D01*
X104964285Y-62552380D01*
X105059523Y-62600000D01*
X105107142Y-62647619D01*
X105154761Y-62742857D01*
X105154761Y-62838095D01*
X105107142Y-62980952D01*
X104535714Y-63552380D01*
X105154761Y-63552380D01*
X105773809Y-62552380D02*
X105869047Y-62552380D01*
X105964285Y-62600000D01*
X106011904Y-62647619D01*
X106059523Y-62742857D01*
X106107142Y-62933333D01*
X106107142Y-63171428D01*
X106059523Y-63361904D01*
X106011904Y-63457142D01*
X105964285Y-63504761D01*
X105869047Y-63552380D01*
X105773809Y-63552380D01*
X105678571Y-63504761D01*
X105630952Y-63457142D01*
X105583333Y-63361904D01*
X105535714Y-63171428D01*
X105535714Y-62933333D01*
X105583333Y-62742857D01*
X105630952Y-62647619D01*
X105678571Y-62600000D01*
X105773809Y-62552380D01*
X106964285Y-62885714D02*
X106964285Y-63552380D01*
X106535714Y-62885714D02*
X106535714Y-63409523D01*
X106583333Y-63504761D01*
X106678571Y-63552380D01*
X106821428Y-63552380D01*
X106916666Y-63504761D01*
X106964285Y-63457142D01*
X107773809Y-63028571D02*
X107440476Y-63028571D01*
X107440476Y-63552380D02*
X107440476Y-62552380D01*
X107916666Y-62552380D01*
X88415904Y-65058380D02*
X88415904Y-64058380D01*
X88654000Y-64058380D01*
X88796857Y-64106000D01*
X88892095Y-64201238D01*
X88939714Y-64296476D01*
X88987333Y-64486952D01*
X88987333Y-64629809D01*
X88939714Y-64820285D01*
X88892095Y-64915523D01*
X88796857Y-65010761D01*
X88654000Y-65058380D01*
X88415904Y-65058380D01*
X89939714Y-65058380D02*
X89368285Y-65058380D01*
X89654000Y-65058380D02*
X89654000Y-64058380D01*
X89558761Y-64201238D01*
X89463523Y-64296476D01*
X89368285Y-64344095D01*
X81272095Y-66178380D02*
X81272095Y-65178380D01*
X81843523Y-66178380D02*
X81414952Y-65606952D01*
X81843523Y-65178380D02*
X81272095Y-65749809D01*
X107870666Y-88924380D02*
X107870666Y-89638666D01*
X107823047Y-89781523D01*
X107727809Y-89876761D01*
X107584952Y-89924380D01*
X107489714Y-89924380D01*
X108775428Y-89257714D02*
X108775428Y-89924380D01*
X108537333Y-88876761D02*
X108299238Y-89591047D01*
X108918285Y-89591047D01*
X100774857Y-89860380D02*
X100774857Y-88860380D01*
X100774857Y-89241333D02*
X100870095Y-89193714D01*
X101060571Y-89193714D01*
X101155809Y-89241333D01*
X101203428Y-89288952D01*
X101251047Y-89384190D01*
X101251047Y-89669904D01*
X101203428Y-89765142D01*
X101155809Y-89812761D01*
X101060571Y-89860380D01*
X100870095Y-89860380D01*
X100774857Y-89812761D01*
X101822476Y-89860380D02*
X101727238Y-89812761D01*
X101679619Y-89717523D01*
X101679619Y-88860380D01*
X102632000Y-89860380D02*
X102632000Y-89336571D01*
X102584380Y-89241333D01*
X102489142Y-89193714D01*
X102298666Y-89193714D01*
X102203428Y-89241333D01*
X102632000Y-89812761D02*
X102536761Y-89860380D01*
X102298666Y-89860380D01*
X102203428Y-89812761D01*
X102155809Y-89717523D01*
X102155809Y-89622285D01*
X102203428Y-89527047D01*
X102298666Y-89479428D01*
X102536761Y-89479428D01*
X102632000Y-89431809D01*
X103108190Y-89193714D02*
X103108190Y-89860380D01*
X103108190Y-89288952D02*
X103155809Y-89241333D01*
X103251047Y-89193714D01*
X103393904Y-89193714D01*
X103489142Y-89241333D01*
X103536761Y-89336571D01*
X103536761Y-89860380D01*
X104012952Y-89860380D02*
X104012952Y-88860380D01*
X104108190Y-89479428D02*
X104393904Y-89860380D01*
X104393904Y-89193714D02*
X104012952Y-89574666D01*
X105584380Y-89860380D02*
X105584380Y-89193714D01*
X105584380Y-88860380D02*
X105536761Y-88908000D01*
X105584380Y-88955619D01*
X105632000Y-88908000D01*
X105584380Y-88860380D01*
X105584380Y-88955619D01*
X106060571Y-89193714D02*
X106060571Y-89860380D01*
X106060571Y-89288952D02*
X106108190Y-89241333D01*
X106203428Y-89193714D01*
X106346285Y-89193714D01*
X106441523Y-89241333D01*
X106489142Y-89336571D01*
X106489142Y-89860380D01*
X75358666Y-87336380D02*
X75358666Y-88050666D01*
X75311047Y-88193523D01*
X75215809Y-88288761D01*
X75072952Y-88336380D01*
X74977714Y-88336380D01*
X76311047Y-87336380D02*
X75834857Y-87336380D01*
X75787238Y-87812571D01*
X75834857Y-87764952D01*
X75930095Y-87717333D01*
X76168190Y-87717333D01*
X76263428Y-87764952D01*
X76311047Y-87812571D01*
X76358666Y-87907809D01*
X76358666Y-88145904D01*
X76311047Y-88241142D01*
X76263428Y-88288761D01*
X76168190Y-88336380D01*
X75930095Y-88336380D01*
X75834857Y-88288761D01*
X75787238Y-88241142D01*
X61437142Y-88908000D02*
X61341904Y-88860380D01*
X61199047Y-88860380D01*
X61056190Y-88908000D01*
X60960952Y-89003238D01*
X60913333Y-89098476D01*
X60865714Y-89288952D01*
X60865714Y-89431809D01*
X60913333Y-89622285D01*
X60960952Y-89717523D01*
X61056190Y-89812761D01*
X61199047Y-89860380D01*
X61294285Y-89860380D01*
X61437142Y-89812761D01*
X61484761Y-89765142D01*
X61484761Y-89431809D01*
X61294285Y-89431809D01*
X61913333Y-89860380D02*
X61913333Y-89193714D01*
X61913333Y-89384190D02*
X61960952Y-89288952D01*
X62008571Y-89241333D01*
X62103809Y-89193714D01*
X62199047Y-89193714D01*
X62913333Y-89812761D02*
X62818095Y-89860380D01*
X62627619Y-89860380D01*
X62532380Y-89812761D01*
X62484761Y-89717523D01*
X62484761Y-89336571D01*
X62532380Y-89241333D01*
X62627619Y-89193714D01*
X62818095Y-89193714D01*
X62913333Y-89241333D01*
X62960952Y-89336571D01*
X62960952Y-89431809D01*
X62484761Y-89527047D01*
X63770476Y-89812761D02*
X63675238Y-89860380D01*
X63484761Y-89860380D01*
X63389523Y-89812761D01*
X63341904Y-89717523D01*
X63341904Y-89336571D01*
X63389523Y-89241333D01*
X63484761Y-89193714D01*
X63675238Y-89193714D01*
X63770476Y-89241333D01*
X63818095Y-89336571D01*
X63818095Y-89431809D01*
X63341904Y-89527047D01*
X64246666Y-89193714D02*
X64246666Y-89860380D01*
X64246666Y-89288952D02*
X64294285Y-89241333D01*
X64389523Y-89193714D01*
X64532380Y-89193714D01*
X64627619Y-89241333D01*
X64675238Y-89336571D01*
X64675238Y-89860380D01*
X66341904Y-89812761D02*
X66246666Y-89860380D01*
X66056190Y-89860380D01*
X65960952Y-89812761D01*
X65913333Y-89765142D01*
X65865714Y-89669904D01*
X65865714Y-89384190D01*
X65913333Y-89288952D01*
X65960952Y-89241333D01*
X66056190Y-89193714D01*
X66246666Y-89193714D01*
X66341904Y-89241333D01*
X66913333Y-89860380D02*
X66818095Y-89812761D01*
X66770476Y-89765142D01*
X66722857Y-89669904D01*
X66722857Y-89384190D01*
X66770476Y-89288952D01*
X66818095Y-89241333D01*
X66913333Y-89193714D01*
X67056190Y-89193714D01*
X67151428Y-89241333D01*
X67199047Y-89288952D01*
X67246666Y-89384190D01*
X67246666Y-89669904D01*
X67199047Y-89765142D01*
X67151428Y-89812761D01*
X67056190Y-89860380D01*
X66913333Y-89860380D01*
X67675238Y-89193714D02*
X67675238Y-89860380D01*
X67675238Y-89288952D02*
X67722857Y-89241333D01*
X67818095Y-89193714D01*
X67960952Y-89193714D01*
X68056190Y-89241333D01*
X68103809Y-89336571D01*
X68103809Y-89860380D01*
X68437142Y-89193714D02*
X68818095Y-89193714D01*
X68580000Y-88860380D02*
X68580000Y-89717523D01*
X68627619Y-89812761D01*
X68722857Y-89860380D01*
X68818095Y-89860380D01*
X69151428Y-89860380D02*
X69151428Y-89193714D01*
X69151428Y-89384190D02*
X69199047Y-89288952D01*
X69246666Y-89241333D01*
X69341904Y-89193714D01*
X69437142Y-89193714D01*
X69913333Y-89860380D02*
X69818095Y-89812761D01*
X69770476Y-89765142D01*
X69722857Y-89669904D01*
X69722857Y-89384190D01*
X69770476Y-89288952D01*
X69818095Y-89241333D01*
X69913333Y-89193714D01*
X70056190Y-89193714D01*
X70151428Y-89241333D01*
X70199047Y-89288952D01*
X70246666Y-89384190D01*
X70246666Y-89669904D01*
X70199047Y-89765142D01*
X70151428Y-89812761D01*
X70056190Y-89860380D01*
X69913333Y-89860380D01*
X70818095Y-89860380D02*
X70722857Y-89812761D01*
X70675238Y-89717523D01*
X70675238Y-88860380D01*
X72103809Y-89860380D02*
X72008571Y-89812761D01*
X71960952Y-89765142D01*
X71913333Y-89669904D01*
X71913333Y-89384190D01*
X71960952Y-89288952D01*
X72008571Y-89241333D01*
X72103809Y-89193714D01*
X72246666Y-89193714D01*
X72341904Y-89241333D01*
X72389523Y-89288952D01*
X72437142Y-89384190D01*
X72437142Y-89669904D01*
X72389523Y-89765142D01*
X72341904Y-89812761D01*
X72246666Y-89860380D01*
X72103809Y-89860380D01*
X73294285Y-89193714D02*
X73294285Y-89860380D01*
X72865714Y-89193714D02*
X72865714Y-89717523D01*
X72913333Y-89812761D01*
X73008571Y-89860380D01*
X73151428Y-89860380D01*
X73246666Y-89812761D01*
X73294285Y-89765142D01*
X73627619Y-89193714D02*
X74008571Y-89193714D01*
X73770476Y-88860380D02*
X73770476Y-89717523D01*
X73818095Y-89812761D01*
X73913333Y-89860380D01*
X74008571Y-89860380D01*
X74341904Y-89193714D02*
X74341904Y-90193714D01*
X74341904Y-89241333D02*
X74437142Y-89193714D01*
X74627619Y-89193714D01*
X74722857Y-89241333D01*
X74770476Y-89288952D01*
X74818095Y-89384190D01*
X74818095Y-89669904D01*
X74770476Y-89765142D01*
X74722857Y-89812761D01*
X74627619Y-89860380D01*
X74437142Y-89860380D01*
X74341904Y-89812761D01*
X75675238Y-89193714D02*
X75675238Y-89860380D01*
X75246666Y-89193714D02*
X75246666Y-89717523D01*
X75294285Y-89812761D01*
X75389523Y-89860380D01*
X75532380Y-89860380D01*
X75627619Y-89812761D01*
X75675238Y-89765142D01*
X76008571Y-89193714D02*
X76389523Y-89193714D01*
X76151428Y-88860380D02*
X76151428Y-89717523D01*
X76199047Y-89812761D01*
X76294285Y-89860380D01*
X76389523Y-89860380D01*
X95678666Y-90892380D02*
X95678666Y-91606666D01*
X95631047Y-91749523D01*
X95535809Y-91844761D01*
X95392952Y-91892380D01*
X95297714Y-91892380D01*
X96583428Y-90892380D02*
X96392952Y-90892380D01*
X96297714Y-90940000D01*
X96250095Y-90987619D01*
X96154857Y-91130476D01*
X96107238Y-91320952D01*
X96107238Y-91701904D01*
X96154857Y-91797142D01*
X96202476Y-91844761D01*
X96297714Y-91892380D01*
X96488190Y-91892380D01*
X96583428Y-91844761D01*
X96631047Y-91797142D01*
X96678666Y-91701904D01*
X96678666Y-91463809D01*
X96631047Y-91368571D01*
X96583428Y-91320952D01*
X96488190Y-91273333D01*
X96297714Y-91273333D01*
X96202476Y-91320952D01*
X96154857Y-91368571D01*
X96107238Y-91463809D01*
X80010857Y-89336571D02*
X80153714Y-89384190D01*
X80201333Y-89431809D01*
X80248952Y-89527047D01*
X80248952Y-89669904D01*
X80201333Y-89765142D01*
X80153714Y-89812761D01*
X80058476Y-89860380D01*
X79677523Y-89860380D01*
X79677523Y-88860380D01*
X80010857Y-88860380D01*
X80106095Y-88908000D01*
X80153714Y-88955619D01*
X80201333Y-89050857D01*
X80201333Y-89146095D01*
X80153714Y-89241333D01*
X80106095Y-89288952D01*
X80010857Y-89336571D01*
X79677523Y-89336571D01*
X80820380Y-89860380D02*
X80725142Y-89812761D01*
X80677523Y-89717523D01*
X80677523Y-88860380D01*
X81629904Y-89193714D02*
X81629904Y-89860380D01*
X81201333Y-89193714D02*
X81201333Y-89717523D01*
X81248952Y-89812761D01*
X81344190Y-89860380D01*
X81487047Y-89860380D01*
X81582285Y-89812761D01*
X81629904Y-89765142D01*
X82487047Y-89812761D02*
X82391809Y-89860380D01*
X82201333Y-89860380D01*
X82106095Y-89812761D01*
X82058476Y-89717523D01*
X82058476Y-89336571D01*
X82106095Y-89241333D01*
X82201333Y-89193714D01*
X82391809Y-89193714D01*
X82487047Y-89241333D01*
X82534666Y-89336571D01*
X82534666Y-89431809D01*
X82058476Y-89527047D01*
X84153714Y-89812761D02*
X84058476Y-89860380D01*
X83868000Y-89860380D01*
X83772761Y-89812761D01*
X83725142Y-89765142D01*
X83677523Y-89669904D01*
X83677523Y-89384190D01*
X83725142Y-89288952D01*
X83772761Y-89241333D01*
X83868000Y-89193714D01*
X84058476Y-89193714D01*
X84153714Y-89241333D01*
X84725142Y-89860380D02*
X84629904Y-89812761D01*
X84582285Y-89765142D01*
X84534666Y-89669904D01*
X84534666Y-89384190D01*
X84582285Y-89288952D01*
X84629904Y-89241333D01*
X84725142Y-89193714D01*
X84868000Y-89193714D01*
X84963238Y-89241333D01*
X85010857Y-89288952D01*
X85058476Y-89384190D01*
X85058476Y-89669904D01*
X85010857Y-89765142D01*
X84963238Y-89812761D01*
X84868000Y-89860380D01*
X84725142Y-89860380D01*
X85487047Y-89193714D02*
X85487047Y-89860380D01*
X85487047Y-89288952D02*
X85534666Y-89241333D01*
X85629904Y-89193714D01*
X85772761Y-89193714D01*
X85868000Y-89241333D01*
X85915619Y-89336571D01*
X85915619Y-89860380D01*
X86248952Y-89193714D02*
X86629904Y-89193714D01*
X86391809Y-88860380D02*
X86391809Y-89717523D01*
X86439428Y-89812761D01*
X86534666Y-89860380D01*
X86629904Y-89860380D01*
X86963238Y-89860380D02*
X86963238Y-89193714D01*
X86963238Y-89384190D02*
X87010857Y-89288952D01*
X87058476Y-89241333D01*
X87153714Y-89193714D01*
X87248952Y-89193714D01*
X87725142Y-89860380D02*
X87629904Y-89812761D01*
X87582285Y-89765142D01*
X87534666Y-89669904D01*
X87534666Y-89384190D01*
X87582285Y-89288952D01*
X87629904Y-89241333D01*
X87725142Y-89193714D01*
X87868000Y-89193714D01*
X87963238Y-89241333D01*
X88010857Y-89288952D01*
X88058476Y-89384190D01*
X88058476Y-89669904D01*
X88010857Y-89765142D01*
X87963238Y-89812761D01*
X87868000Y-89860380D01*
X87725142Y-89860380D01*
X88629904Y-89860380D02*
X88534666Y-89812761D01*
X88487047Y-89717523D01*
X88487047Y-88860380D01*
X89915619Y-89860380D02*
X89820380Y-89812761D01*
X89772761Y-89765142D01*
X89725142Y-89669904D01*
X89725142Y-89384190D01*
X89772761Y-89288952D01*
X89820380Y-89241333D01*
X89915619Y-89193714D01*
X90058476Y-89193714D01*
X90153714Y-89241333D01*
X90201333Y-89288952D01*
X90248952Y-89384190D01*
X90248952Y-89669904D01*
X90201333Y-89765142D01*
X90153714Y-89812761D01*
X90058476Y-89860380D01*
X89915619Y-89860380D01*
X91106095Y-89193714D02*
X91106095Y-89860380D01*
X90677523Y-89193714D02*
X90677523Y-89717523D01*
X90725142Y-89812761D01*
X90820380Y-89860380D01*
X90963238Y-89860380D01*
X91058476Y-89812761D01*
X91106095Y-89765142D01*
X91439428Y-89193714D02*
X91820380Y-89193714D01*
X91582285Y-88860380D02*
X91582285Y-89717523D01*
X91629904Y-89812761D01*
X91725142Y-89860380D01*
X91820380Y-89860380D01*
X92153714Y-89193714D02*
X92153714Y-90193714D01*
X92153714Y-89241333D02*
X92248952Y-89193714D01*
X92439428Y-89193714D01*
X92534666Y-89241333D01*
X92582285Y-89288952D01*
X92629904Y-89384190D01*
X92629904Y-89669904D01*
X92582285Y-89765142D01*
X92534666Y-89812761D01*
X92439428Y-89860380D01*
X92248952Y-89860380D01*
X92153714Y-89812761D01*
X93487047Y-89193714D02*
X93487047Y-89860380D01*
X93058476Y-89193714D02*
X93058476Y-89717523D01*
X93106095Y-89812761D01*
X93201333Y-89860380D01*
X93344190Y-89860380D01*
X93439428Y-89812761D01*
X93487047Y-89765142D01*
X93820380Y-89193714D02*
X94201333Y-89193714D01*
X93963238Y-88860380D02*
X93963238Y-89717523D01*
X94010857Y-89812761D01*
X94106095Y-89860380D01*
X94201333Y-89860380D01*
X40814666Y-91400380D02*
X40814666Y-92114666D01*
X40767047Y-92257523D01*
X40671809Y-92352761D01*
X40528952Y-92400380D01*
X40433714Y-92400380D01*
X41195619Y-91400380D02*
X41862285Y-91400380D01*
X41433714Y-92400380D01*
X43934857Y-89860380D02*
X43601523Y-89384190D01*
X43363428Y-89860380D02*
X43363428Y-88860380D01*
X43744380Y-88860380D01*
X43839619Y-88908000D01*
X43887238Y-88955619D01*
X43934857Y-89050857D01*
X43934857Y-89193714D01*
X43887238Y-89288952D01*
X43839619Y-89336571D01*
X43744380Y-89384190D01*
X43363428Y-89384190D01*
X44744380Y-89812761D02*
X44649142Y-89860380D01*
X44458666Y-89860380D01*
X44363428Y-89812761D01*
X44315809Y-89717523D01*
X44315809Y-89336571D01*
X44363428Y-89241333D01*
X44458666Y-89193714D01*
X44649142Y-89193714D01*
X44744380Y-89241333D01*
X44792000Y-89336571D01*
X44792000Y-89431809D01*
X44315809Y-89527047D01*
X45649142Y-89860380D02*
X45649142Y-88860380D01*
X45649142Y-89812761D02*
X45553904Y-89860380D01*
X45363428Y-89860380D01*
X45268190Y-89812761D01*
X45220571Y-89765142D01*
X45172952Y-89669904D01*
X45172952Y-89384190D01*
X45220571Y-89288952D01*
X45268190Y-89241333D01*
X45363428Y-89193714D01*
X45553904Y-89193714D01*
X45649142Y-89241333D01*
X47315809Y-89812761D02*
X47220571Y-89860380D01*
X47030095Y-89860380D01*
X46934857Y-89812761D01*
X46887238Y-89765142D01*
X46839619Y-89669904D01*
X46839619Y-89384190D01*
X46887238Y-89288952D01*
X46934857Y-89241333D01*
X47030095Y-89193714D01*
X47220571Y-89193714D01*
X47315809Y-89241333D01*
X47887238Y-89860380D02*
X47792000Y-89812761D01*
X47744380Y-89765142D01*
X47696761Y-89669904D01*
X47696761Y-89384190D01*
X47744380Y-89288952D01*
X47792000Y-89241333D01*
X47887238Y-89193714D01*
X48030095Y-89193714D01*
X48125333Y-89241333D01*
X48172952Y-89288952D01*
X48220571Y-89384190D01*
X48220571Y-89669904D01*
X48172952Y-89765142D01*
X48125333Y-89812761D01*
X48030095Y-89860380D01*
X47887238Y-89860380D01*
X48649142Y-89193714D02*
X48649142Y-89860380D01*
X48649142Y-89288952D02*
X48696761Y-89241333D01*
X48792000Y-89193714D01*
X48934857Y-89193714D01*
X49030095Y-89241333D01*
X49077714Y-89336571D01*
X49077714Y-89860380D01*
X49411047Y-89193714D02*
X49792000Y-89193714D01*
X49553904Y-88860380D02*
X49553904Y-89717523D01*
X49601523Y-89812761D01*
X49696761Y-89860380D01*
X49792000Y-89860380D01*
X50125333Y-89860380D02*
X50125333Y-89193714D01*
X50125333Y-89384190D02*
X50172952Y-89288952D01*
X50220571Y-89241333D01*
X50315809Y-89193714D01*
X50411047Y-89193714D01*
X50887238Y-89860380D02*
X50792000Y-89812761D01*
X50744380Y-89765142D01*
X50696761Y-89669904D01*
X50696761Y-89384190D01*
X50744380Y-89288952D01*
X50792000Y-89241333D01*
X50887238Y-89193714D01*
X51030095Y-89193714D01*
X51125333Y-89241333D01*
X51172952Y-89288952D01*
X51220571Y-89384190D01*
X51220571Y-89669904D01*
X51172952Y-89765142D01*
X51125333Y-89812761D01*
X51030095Y-89860380D01*
X50887238Y-89860380D01*
X51792000Y-89860380D02*
X51696761Y-89812761D01*
X51649142Y-89717523D01*
X51649142Y-88860380D01*
X53077714Y-89860380D02*
X52982476Y-89812761D01*
X52934857Y-89765142D01*
X52887238Y-89669904D01*
X52887238Y-89384190D01*
X52934857Y-89288952D01*
X52982476Y-89241333D01*
X53077714Y-89193714D01*
X53220571Y-89193714D01*
X53315809Y-89241333D01*
X53363428Y-89288952D01*
X53411047Y-89384190D01*
X53411047Y-89669904D01*
X53363428Y-89765142D01*
X53315809Y-89812761D01*
X53220571Y-89860380D01*
X53077714Y-89860380D01*
X54268190Y-89193714D02*
X54268190Y-89860380D01*
X53839619Y-89193714D02*
X53839619Y-89717523D01*
X53887238Y-89812761D01*
X53982476Y-89860380D01*
X54125333Y-89860380D01*
X54220571Y-89812761D01*
X54268190Y-89765142D01*
X54601523Y-89193714D02*
X54982476Y-89193714D01*
X54744380Y-88860380D02*
X54744380Y-89717523D01*
X54792000Y-89812761D01*
X54887238Y-89860380D01*
X54982476Y-89860380D01*
X55315809Y-89193714D02*
X55315809Y-90193714D01*
X55315809Y-89241333D02*
X55411047Y-89193714D01*
X55601523Y-89193714D01*
X55696761Y-89241333D01*
X55744380Y-89288952D01*
X55792000Y-89384190D01*
X55792000Y-89669904D01*
X55744380Y-89765142D01*
X55696761Y-89812761D01*
X55601523Y-89860380D01*
X55411047Y-89860380D01*
X55315809Y-89812761D01*
X56649142Y-89193714D02*
X56649142Y-89860380D01*
X56220571Y-89193714D02*
X56220571Y-89717523D01*
X56268190Y-89812761D01*
X56363428Y-89860380D01*
X56506285Y-89860380D01*
X56601523Y-89812761D01*
X56649142Y-89765142D01*
X56982476Y-89193714D02*
X57363428Y-89193714D01*
X57125333Y-88860380D02*
X57125333Y-89717523D01*
X57172952Y-89812761D01*
X57268190Y-89860380D01*
X57363428Y-89860380D01*
X97834380Y-57610666D02*
X97834380Y-58086857D01*
X96834380Y-58086857D01*
X97834380Y-56753523D02*
X97834380Y-57324952D01*
X97834380Y-57039238D02*
X96834380Y-57039238D01*
X96977238Y-57134476D01*
X97072476Y-57229714D01*
X97120095Y-57324952D01*
X109334380Y-59229714D02*
X109334380Y-58610666D01*
X109715333Y-58944000D01*
X109715333Y-58801142D01*
X109762952Y-58705904D01*
X109810571Y-58658285D01*
X109905809Y-58610666D01*
X110143904Y-58610666D01*
X110239142Y-58658285D01*
X110286761Y-58705904D01*
X110334380Y-58801142D01*
X110334380Y-59086857D01*
X110286761Y-59182095D01*
X110239142Y-59229714D01*
X109334380Y-58277333D02*
X109334380Y-57658285D01*
X109715333Y-57991619D01*
X109715333Y-57848761D01*
X109762952Y-57753523D01*
X109810571Y-57705904D01*
X109905809Y-57658285D01*
X110143904Y-57658285D01*
X110239142Y-57705904D01*
X110286761Y-57753523D01*
X110334380Y-57848761D01*
X110334380Y-58134476D01*
X110286761Y-58229714D01*
X110239142Y-58277333D01*
X109667714Y-56801142D02*
X110334380Y-56801142D01*
X109667714Y-57229714D02*
X110191523Y-57229714D01*
X110286761Y-57182095D01*
X110334380Y-57086857D01*
X110334380Y-56944000D01*
X110286761Y-56848761D01*
X110239142Y-56801142D01*
X110334380Y-56324952D02*
X109334380Y-56324952D01*
X109810571Y-56324952D02*
X109810571Y-55753523D01*
X110334380Y-55753523D02*
X109334380Y-55753523D01*
X114666666Y-72282380D02*
X114666666Y-72996666D01*
X114619047Y-73139523D01*
X114523809Y-73234761D01*
X114380952Y-73282380D01*
X114285714Y-73282380D01*
X115285714Y-72710952D02*
X115190476Y-72663333D01*
X115142857Y-72615714D01*
X115095238Y-72520476D01*
X115095238Y-72472857D01*
X115142857Y-72377619D01*
X115190476Y-72330000D01*
X115285714Y-72282380D01*
X115476190Y-72282380D01*
X115571428Y-72330000D01*
X115619047Y-72377619D01*
X115666666Y-72472857D01*
X115666666Y-72520476D01*
X115619047Y-72615714D01*
X115571428Y-72663333D01*
X115476190Y-72710952D01*
X115285714Y-72710952D01*
X115190476Y-72758571D01*
X115142857Y-72806190D01*
X115095238Y-72901428D01*
X115095238Y-73091904D01*
X115142857Y-73187142D01*
X115190476Y-73234761D01*
X115285714Y-73282380D01*
X115476190Y-73282380D01*
X115571428Y-73234761D01*
X115619047Y-73187142D01*
X115666666Y-73091904D01*
X115666666Y-72901428D01*
X115619047Y-72806190D01*
X115571428Y-72758571D01*
X115476190Y-72710952D01*
X112404380Y-72166285D02*
X111404380Y-72166285D01*
X111785333Y-72166285D02*
X111737714Y-72071047D01*
X111737714Y-71880571D01*
X111785333Y-71785333D01*
X111832952Y-71737714D01*
X111928190Y-71690095D01*
X112213904Y-71690095D01*
X112309142Y-71737714D01*
X112356761Y-71785333D01*
X112404380Y-71880571D01*
X112404380Y-72071047D01*
X112356761Y-72166285D01*
X112404380Y-71118666D02*
X112356761Y-71213904D01*
X112261523Y-71261523D01*
X111404380Y-71261523D01*
X112404380Y-70309142D02*
X111880571Y-70309142D01*
X111785333Y-70356761D01*
X111737714Y-70452000D01*
X111737714Y-70642476D01*
X111785333Y-70737714D01*
X112356761Y-70309142D02*
X112404380Y-70404380D01*
X112404380Y-70642476D01*
X112356761Y-70737714D01*
X112261523Y-70785333D01*
X112166285Y-70785333D01*
X112071047Y-70737714D01*
X112023428Y-70642476D01*
X112023428Y-70404380D01*
X111975809Y-70309142D01*
X111737714Y-69832952D02*
X112404380Y-69832952D01*
X111832952Y-69832952D02*
X111785333Y-69785333D01*
X111737714Y-69690095D01*
X111737714Y-69547238D01*
X111785333Y-69452000D01*
X111880571Y-69404380D01*
X112404380Y-69404380D01*
X112404380Y-68928190D02*
X111404380Y-68928190D01*
X112023428Y-68832952D02*
X112404380Y-68547238D01*
X111737714Y-68547238D02*
X112118666Y-68928190D01*
X112499619Y-68356761D02*
X112499619Y-67594857D01*
X111737714Y-67356761D02*
X112594857Y-67356761D01*
X112690095Y-67404380D01*
X112737714Y-67499619D01*
X112737714Y-67547238D01*
X111404380Y-67356761D02*
X111452000Y-67404380D01*
X111499619Y-67356761D01*
X111452000Y-67309142D01*
X111404380Y-67356761D01*
X111499619Y-67356761D01*
X111737714Y-66452000D02*
X112404380Y-66452000D01*
X111737714Y-66880571D02*
X112261523Y-66880571D01*
X112356761Y-66832952D01*
X112404380Y-66737714D01*
X112404380Y-66594857D01*
X112356761Y-66499619D01*
X112309142Y-66452000D01*
X112404380Y-65975809D02*
X111737714Y-65975809D01*
X111832952Y-65975809D02*
X111785333Y-65928190D01*
X111737714Y-65832952D01*
X111737714Y-65690095D01*
X111785333Y-65594857D01*
X111880571Y-65547238D01*
X112404380Y-65547238D01*
X111880571Y-65547238D02*
X111785333Y-65499619D01*
X111737714Y-65404380D01*
X111737714Y-65261523D01*
X111785333Y-65166285D01*
X111880571Y-65118666D01*
X112404380Y-65118666D01*
X111737714Y-64642476D02*
X112737714Y-64642476D01*
X111785333Y-64642476D02*
X111737714Y-64547238D01*
X111737714Y-64356761D01*
X111785333Y-64261523D01*
X111832952Y-64213904D01*
X111928190Y-64166285D01*
X112213904Y-64166285D01*
X112309142Y-64213904D01*
X112356761Y-64261523D01*
X112404380Y-64356761D01*
X112404380Y-64547238D01*
X112356761Y-64642476D01*
X112356761Y-63356761D02*
X112404380Y-63452000D01*
X112404380Y-63642476D01*
X112356761Y-63737714D01*
X112261523Y-63785333D01*
X111880571Y-63785333D01*
X111785333Y-63737714D01*
X111737714Y-63642476D01*
X111737714Y-63452000D01*
X111785333Y-63356761D01*
X111880571Y-63309142D01*
X111975809Y-63309142D01*
X112071047Y-63785333D01*
X112404380Y-62880571D02*
X111737714Y-62880571D01*
X111928190Y-62880571D02*
X111832952Y-62832952D01*
X111785333Y-62785333D01*
X111737714Y-62690095D01*
X111737714Y-62594857D01*
X114582380Y-83896666D02*
X114106190Y-84230000D01*
X114582380Y-84468095D02*
X113582380Y-84468095D01*
X113582380Y-84087142D01*
X113630000Y-83991904D01*
X113677619Y-83944285D01*
X113772857Y-83896666D01*
X113915714Y-83896666D01*
X114010952Y-83944285D01*
X114058571Y-83991904D01*
X114106190Y-84087142D01*
X114106190Y-84468095D01*
X114582380Y-82944285D02*
X114582380Y-83515714D01*
X114582380Y-83230000D02*
X113582380Y-83230000D01*
X113725238Y-83325238D01*
X113820476Y-83420476D01*
X113868095Y-83515714D01*
X119322380Y-83849047D02*
X119322380Y-84420476D01*
X119322380Y-84134761D02*
X118322380Y-84134761D01*
X118465238Y-84230000D01*
X118560476Y-84325238D01*
X118608095Y-84420476D01*
X119322380Y-83420476D02*
X118322380Y-83420476D01*
X118941428Y-83325238D02*
X119322380Y-83039523D01*
X118655714Y-83039523D02*
X119036666Y-83420476D01*
X52122380Y-65951904D02*
X52931904Y-65951904D01*
X53027142Y-65904285D01*
X53074761Y-65856666D01*
X53122380Y-65761428D01*
X53122380Y-65570952D01*
X53074761Y-65475714D01*
X53027142Y-65428095D01*
X52931904Y-65380476D01*
X52122380Y-65380476D01*
X53122380Y-64380476D02*
X53122380Y-64951904D01*
X53122380Y-64666190D02*
X52122380Y-64666190D01*
X52265238Y-64761428D01*
X52360476Y-64856666D01*
X52408095Y-64951904D01*
X72974761Y-69309047D02*
X73022380Y-69166190D01*
X73022380Y-68928095D01*
X72974761Y-68832857D01*
X72927142Y-68785238D01*
X72831904Y-68737619D01*
X72736666Y-68737619D01*
X72641428Y-68785238D01*
X72593809Y-68832857D01*
X72546190Y-68928095D01*
X72498571Y-69118571D01*
X72450952Y-69213809D01*
X72403333Y-69261428D01*
X72308095Y-69309047D01*
X72212857Y-69309047D01*
X72117619Y-69261428D01*
X72070000Y-69213809D01*
X72022380Y-69118571D01*
X72022380Y-68880476D01*
X72070000Y-68737619D01*
X73022380Y-68309047D02*
X72022380Y-68309047D01*
X73022380Y-67737619D01*
X72022380Y-67737619D01*
X72022380Y-67356666D02*
X72022380Y-66690000D01*
X73022380Y-67118571D01*
X72355714Y-65880476D02*
X73022380Y-65880476D01*
X71974761Y-66118571D02*
X72689047Y-66356666D01*
X72689047Y-65737619D01*
X73022380Y-64880476D02*
X73022380Y-65356666D01*
X72022380Y-65356666D01*
X72974761Y-64594761D02*
X73022380Y-64451904D01*
X73022380Y-64213809D01*
X72974761Y-64118571D01*
X72927142Y-64070952D01*
X72831904Y-64023333D01*
X72736666Y-64023333D01*
X72641428Y-64070952D01*
X72593809Y-64118571D01*
X72546190Y-64213809D01*
X72498571Y-64404285D01*
X72450952Y-64499523D01*
X72403333Y-64547142D01*
X72308095Y-64594761D01*
X72212857Y-64594761D01*
X72117619Y-64547142D01*
X72070000Y-64499523D01*
X72022380Y-64404285D01*
X72022380Y-64166190D01*
X72070000Y-64023333D01*
X72022380Y-63404285D02*
X72022380Y-63309047D01*
X72070000Y-63213809D01*
X72117619Y-63166190D01*
X72212857Y-63118571D01*
X72403333Y-63070952D01*
X72641428Y-63070952D01*
X72831904Y-63118571D01*
X72927142Y-63166190D01*
X72974761Y-63213809D01*
X73022380Y-63309047D01*
X73022380Y-63404285D01*
X72974761Y-63499523D01*
X72927142Y-63547142D01*
X72831904Y-63594761D01*
X72641428Y-63642380D01*
X72403333Y-63642380D01*
X72212857Y-63594761D01*
X72117619Y-63547142D01*
X72070000Y-63499523D01*
X72022380Y-63404285D01*
X72450952Y-62499523D02*
X72403333Y-62594761D01*
X72355714Y-62642380D01*
X72260476Y-62690000D01*
X72212857Y-62690000D01*
X72117619Y-62642380D01*
X72070000Y-62594761D01*
X72022380Y-62499523D01*
X72022380Y-62309047D01*
X72070000Y-62213809D01*
X72117619Y-62166190D01*
X72212857Y-62118571D01*
X72260476Y-62118571D01*
X72355714Y-62166190D01*
X72403333Y-62213809D01*
X72450952Y-62309047D01*
X72450952Y-62499523D01*
X72498571Y-62594761D01*
X72546190Y-62642380D01*
X72641428Y-62690000D01*
X72831904Y-62690000D01*
X72927142Y-62642380D01*
X72974761Y-62594761D01*
X73022380Y-62499523D01*
X73022380Y-62309047D01*
X72974761Y-62213809D01*
X72927142Y-62166190D01*
X72831904Y-62118571D01*
X72641428Y-62118571D01*
X72546190Y-62166190D01*
X72498571Y-62213809D01*
X72450952Y-62309047D01*
X73022380Y-61690000D02*
X72022380Y-61690000D01*
X73022380Y-61118571D01*
X72022380Y-61118571D01*
X52122380Y-79951904D02*
X52931904Y-79951904D01*
X53027142Y-79904285D01*
X53074761Y-79856666D01*
X53122380Y-79761428D01*
X53122380Y-79570952D01*
X53074761Y-79475714D01*
X53027142Y-79428095D01*
X52931904Y-79380476D01*
X52122380Y-79380476D01*
X52217619Y-78951904D02*
X52170000Y-78904285D01*
X52122380Y-78809047D01*
X52122380Y-78570952D01*
X52170000Y-78475714D01*
X52217619Y-78428095D01*
X52312857Y-78380476D01*
X52408095Y-78380476D01*
X52550952Y-78428095D01*
X53122380Y-78999523D01*
X53122380Y-78380476D01*
X72974761Y-83309047D02*
X73022380Y-83166190D01*
X73022380Y-82928095D01*
X72974761Y-82832857D01*
X72927142Y-82785238D01*
X72831904Y-82737619D01*
X72736666Y-82737619D01*
X72641428Y-82785238D01*
X72593809Y-82832857D01*
X72546190Y-82928095D01*
X72498571Y-83118571D01*
X72450952Y-83213809D01*
X72403333Y-83261428D01*
X72308095Y-83309047D01*
X72212857Y-83309047D01*
X72117619Y-83261428D01*
X72070000Y-83213809D01*
X72022380Y-83118571D01*
X72022380Y-82880476D01*
X72070000Y-82737619D01*
X73022380Y-82309047D02*
X72022380Y-82309047D01*
X73022380Y-81737619D01*
X72022380Y-81737619D01*
X72022380Y-81356666D02*
X72022380Y-80690000D01*
X73022380Y-81118571D01*
X72355714Y-79880476D02*
X73022380Y-79880476D01*
X71974761Y-80118571D02*
X72689047Y-80356666D01*
X72689047Y-79737619D01*
X73022380Y-78880476D02*
X73022380Y-79356666D01*
X72022380Y-79356666D01*
X72974761Y-78594761D02*
X73022380Y-78451904D01*
X73022380Y-78213809D01*
X72974761Y-78118571D01*
X72927142Y-78070952D01*
X72831904Y-78023333D01*
X72736666Y-78023333D01*
X72641428Y-78070952D01*
X72593809Y-78118571D01*
X72546190Y-78213809D01*
X72498571Y-78404285D01*
X72450952Y-78499523D01*
X72403333Y-78547142D01*
X72308095Y-78594761D01*
X72212857Y-78594761D01*
X72117619Y-78547142D01*
X72070000Y-78499523D01*
X72022380Y-78404285D01*
X72022380Y-78166190D01*
X72070000Y-78023333D01*
X72022380Y-77404285D02*
X72022380Y-77309047D01*
X72070000Y-77213809D01*
X72117619Y-77166190D01*
X72212857Y-77118571D01*
X72403333Y-77070952D01*
X72641428Y-77070952D01*
X72831904Y-77118571D01*
X72927142Y-77166190D01*
X72974761Y-77213809D01*
X73022380Y-77309047D01*
X73022380Y-77404285D01*
X72974761Y-77499523D01*
X72927142Y-77547142D01*
X72831904Y-77594761D01*
X72641428Y-77642380D01*
X72403333Y-77642380D01*
X72212857Y-77594761D01*
X72117619Y-77547142D01*
X72070000Y-77499523D01*
X72022380Y-77404285D01*
X72450952Y-76499523D02*
X72403333Y-76594761D01*
X72355714Y-76642380D01*
X72260476Y-76690000D01*
X72212857Y-76690000D01*
X72117619Y-76642380D01*
X72070000Y-76594761D01*
X72022380Y-76499523D01*
X72022380Y-76309047D01*
X72070000Y-76213809D01*
X72117619Y-76166190D01*
X72212857Y-76118571D01*
X72260476Y-76118571D01*
X72355714Y-76166190D01*
X72403333Y-76213809D01*
X72450952Y-76309047D01*
X72450952Y-76499523D01*
X72498571Y-76594761D01*
X72546190Y-76642380D01*
X72641428Y-76690000D01*
X72831904Y-76690000D01*
X72927142Y-76642380D01*
X72974761Y-76594761D01*
X73022380Y-76499523D01*
X73022380Y-76309047D01*
X72974761Y-76213809D01*
X72927142Y-76166190D01*
X72831904Y-76118571D01*
X72641428Y-76118571D01*
X72546190Y-76166190D01*
X72498571Y-76213809D01*
X72450952Y-76309047D01*
X73022380Y-75690000D02*
X72022380Y-75690000D01*
X73022380Y-75118571D01*
X72022380Y-75118571D01*
X89122380Y-80951904D02*
X89931904Y-80951904D01*
X90027142Y-80904285D01*
X90074761Y-80856666D01*
X90122380Y-80761428D01*
X90122380Y-80570952D01*
X90074761Y-80475714D01*
X90027142Y-80428095D01*
X89931904Y-80380476D01*
X89122380Y-80380476D01*
X89122380Y-79999523D02*
X89122380Y-79380476D01*
X89503333Y-79713809D01*
X89503333Y-79570952D01*
X89550952Y-79475714D01*
X89598571Y-79428095D01*
X89693809Y-79380476D01*
X89931904Y-79380476D01*
X90027142Y-79428095D01*
X90074761Y-79475714D01*
X90122380Y-79570952D01*
X90122380Y-79856666D01*
X90074761Y-79951904D01*
X90027142Y-79999523D01*
X109974761Y-84451904D02*
X110022380Y-84309047D01*
X110022380Y-84070952D01*
X109974761Y-83975714D01*
X109927142Y-83928095D01*
X109831904Y-83880476D01*
X109736666Y-83880476D01*
X109641428Y-83928095D01*
X109593809Y-83975714D01*
X109546190Y-84070952D01*
X109498571Y-84261428D01*
X109450952Y-84356666D01*
X109403333Y-84404285D01*
X109308095Y-84451904D01*
X109212857Y-84451904D01*
X109117619Y-84404285D01*
X109070000Y-84356666D01*
X109022380Y-84261428D01*
X109022380Y-84023333D01*
X109070000Y-83880476D01*
X110022380Y-83451904D02*
X109022380Y-83451904D01*
X110022380Y-82880476D01*
X109022380Y-82880476D01*
X109022380Y-82499523D02*
X109022380Y-81832857D01*
X110022380Y-82261428D01*
X109355714Y-81023333D02*
X110022380Y-81023333D01*
X108974761Y-81261428D02*
X109689047Y-81499523D01*
X109689047Y-80880476D01*
X110022380Y-80499523D02*
X109022380Y-80499523D01*
X109498571Y-80499523D02*
X109498571Y-79928095D01*
X110022380Y-79928095D02*
X109022380Y-79928095D01*
X109927142Y-78880476D02*
X109974761Y-78928095D01*
X110022380Y-79070952D01*
X110022380Y-79166190D01*
X109974761Y-79309047D01*
X109879523Y-79404285D01*
X109784285Y-79451904D01*
X109593809Y-79499523D01*
X109450952Y-79499523D01*
X109260476Y-79451904D01*
X109165238Y-79404285D01*
X109070000Y-79309047D01*
X109022380Y-79166190D01*
X109022380Y-79070952D01*
X109070000Y-78928095D01*
X109117619Y-78880476D01*
X110022380Y-77928095D02*
X110022380Y-78499523D01*
X110022380Y-78213809D02*
X109022380Y-78213809D01*
X109165238Y-78309047D01*
X109260476Y-78404285D01*
X109308095Y-78499523D01*
X109355714Y-77070952D02*
X110022380Y-77070952D01*
X108974761Y-77309047D02*
X109689047Y-77547142D01*
X109689047Y-76928095D01*
X110022380Y-76547142D02*
X109022380Y-76547142D01*
X110022380Y-75975714D01*
X109022380Y-75975714D01*
M02*
