G04 #@! TF.GenerationSoftware,KiCad,Pcbnew,(5.1.10)-1*
G04 #@! TF.CreationDate,2022-03-09T10:24:06+00:00*
G04 #@! TF.ProjectId,Lcr_addon,4c63725f-6164-4646-9f6e-2e6b69636164,rev?*
G04 #@! TF.SameCoordinates,Original*
G04 #@! TF.FileFunction,Other,Fab,Top*
%FSLAX46Y46*%
G04 Gerber Fmt 4.6, Leading zero omitted, Abs format (unit mm)*
G04 Created by KiCad (PCBNEW (5.1.10)-1) date 2022-03-09 10:24:06*
%MOMM*%
%LPD*%
G01*
G04 APERTURE LIST*
%ADD10C,0.100000*%
%ADD11C,0.150000*%
G04 APERTURE END LIST*
D10*
X80682500Y-54243028D02*
X80052500Y-54243028D01*
X80367500Y-53928028D02*
X80367500Y-54558028D01*
X82144000Y-56622000D02*
G75*
G03*
X82144000Y-56622000I-3150000J0D01*
G01*
X39280000Y-82518000D02*
X47580000Y-82518000D01*
X47580000Y-82518000D02*
X47580000Y-66518000D01*
X47580000Y-66518000D02*
X39280000Y-66518000D01*
X39280000Y-66518000D02*
X39280000Y-82518000D01*
X43680000Y-82518000D02*
X43180000Y-81810893D01*
X43180000Y-81810893D02*
X42680000Y-82518000D01*
X85776000Y-52252000D02*
X85776000Y-56652000D01*
X85776000Y-56652000D02*
X95776000Y-56652000D01*
X95776000Y-56652000D02*
X95776000Y-52252000D01*
X95776000Y-52252000D02*
X85776000Y-52252000D01*
X85776000Y-53522000D02*
X95776000Y-53522000D01*
X88926000Y-52252000D02*
X88926000Y-53522000D01*
X92626000Y-52252000D02*
X92626000Y-53522000D01*
X87376000Y-56652000D02*
X87376000Y-60452000D01*
X89076000Y-56652000D02*
X89076000Y-56752000D01*
X90776000Y-56652000D02*
X90776000Y-60452000D01*
X92476000Y-56652000D02*
X92476000Y-56752000D01*
X94176000Y-56652000D02*
X94176000Y-60452000D01*
X108900000Y-67500000D02*
G75*
G03*
X108900000Y-67500000I-3150000J0D01*
G01*
X108443972Y-68873500D02*
X107813972Y-68873500D01*
X108128972Y-69188500D02*
X108128972Y-68558500D01*
X84404000Y-65726000D02*
X84404000Y-70926000D01*
X84404000Y-70926000D02*
X93904000Y-70926000D01*
X93904000Y-70926000D02*
X93904000Y-65726000D01*
X93904000Y-65726000D02*
X84404000Y-65726000D01*
X81534000Y-68326000D02*
X84404000Y-68326000D01*
X96774000Y-68326000D02*
X93904000Y-68326000D01*
X85829000Y-65726000D02*
X85829000Y-70926000D01*
X85929000Y-65726000D02*
X85929000Y-70926000D01*
X85729000Y-65726000D02*
X85729000Y-70926000D01*
X113204000Y-107472000D02*
X103204000Y-108472000D01*
X115554000Y-106172000D02*
X115554000Y-91272000D01*
X100854000Y-106172000D02*
X115554000Y-106172000D01*
X100854000Y-91272000D02*
X100854000Y-106172000D01*
X115554000Y-91272000D02*
X100854000Y-91272000D01*
X114554000Y-114872000D02*
X114554000Y-106172000D01*
X101854000Y-114872000D02*
X114554000Y-114872000D01*
X101854000Y-106172000D02*
X101854000Y-114872000D01*
X113004000Y-126772000D02*
X113004000Y-114872000D01*
X103404000Y-126772000D02*
X113004000Y-126772000D01*
X103404000Y-114872000D02*
X103404000Y-126772000D01*
X109204000Y-121542000D02*
G75*
G03*
X109204000Y-121542000I-1000000J0D01*
G01*
X113204000Y-108472000D02*
X103204000Y-109472000D01*
X113204000Y-109472000D02*
X103204000Y-110472000D01*
X113204000Y-110472000D02*
X103204000Y-111472000D01*
X113204000Y-111472000D02*
X103204000Y-112472000D01*
X113204000Y-112472000D02*
X103204000Y-113472000D01*
X113204000Y-113472000D02*
X103204000Y-114472000D01*
X73580000Y-107472000D02*
X63580000Y-108472000D01*
X75930000Y-106172000D02*
X75930000Y-91272000D01*
X61230000Y-106172000D02*
X75930000Y-106172000D01*
X61230000Y-91272000D02*
X61230000Y-106172000D01*
X75930000Y-91272000D02*
X61230000Y-91272000D01*
X74930000Y-114872000D02*
X74930000Y-106172000D01*
X62230000Y-114872000D02*
X74930000Y-114872000D01*
X62230000Y-106172000D02*
X62230000Y-114872000D01*
X73380000Y-126772000D02*
X73380000Y-114872000D01*
X63780000Y-126772000D02*
X73380000Y-126772000D01*
X63780000Y-114872000D02*
X63780000Y-126772000D01*
X69580000Y-121542000D02*
G75*
G03*
X69580000Y-121542000I-1000000J0D01*
G01*
X73580000Y-108472000D02*
X63580000Y-109472000D01*
X73580000Y-109472000D02*
X63580000Y-110472000D01*
X73580000Y-110472000D02*
X63580000Y-111472000D01*
X73580000Y-111472000D02*
X63580000Y-112472000D01*
X73580000Y-112472000D02*
X63580000Y-113472000D01*
X73580000Y-113472000D02*
X63580000Y-114472000D01*
X91868000Y-113472000D02*
X81868000Y-114472000D01*
X91868000Y-112472000D02*
X81868000Y-113472000D01*
X91868000Y-111472000D02*
X81868000Y-112472000D01*
X91868000Y-110472000D02*
X81868000Y-111472000D01*
X91868000Y-109472000D02*
X81868000Y-110472000D01*
X91868000Y-108472000D02*
X81868000Y-109472000D01*
X87868000Y-121542000D02*
G75*
G03*
X87868000Y-121542000I-1000000J0D01*
G01*
X82068000Y-114872000D02*
X82068000Y-126772000D01*
X82068000Y-126772000D02*
X91668000Y-126772000D01*
X91668000Y-126772000D02*
X91668000Y-114872000D01*
X80518000Y-106172000D02*
X80518000Y-114872000D01*
X80518000Y-114872000D02*
X93218000Y-114872000D01*
X93218000Y-114872000D02*
X93218000Y-106172000D01*
X94218000Y-91272000D02*
X79518000Y-91272000D01*
X79518000Y-91272000D02*
X79518000Y-106172000D01*
X79518000Y-106172000D02*
X94218000Y-106172000D01*
X94218000Y-106172000D02*
X94218000Y-91272000D01*
X91868000Y-107472000D02*
X81868000Y-108472000D01*
X55292000Y-113472000D02*
X45292000Y-114472000D01*
X55292000Y-112472000D02*
X45292000Y-113472000D01*
X55292000Y-111472000D02*
X45292000Y-112472000D01*
X55292000Y-110472000D02*
X45292000Y-111472000D01*
X55292000Y-109472000D02*
X45292000Y-110472000D01*
X55292000Y-108472000D02*
X45292000Y-109472000D01*
X51292000Y-121542000D02*
G75*
G03*
X51292000Y-121542000I-1000000J0D01*
G01*
X45492000Y-114872000D02*
X45492000Y-126772000D01*
X45492000Y-126772000D02*
X55092000Y-126772000D01*
X55092000Y-126772000D02*
X55092000Y-114872000D01*
X43942000Y-106172000D02*
X43942000Y-114872000D01*
X43942000Y-114872000D02*
X56642000Y-114872000D01*
X56642000Y-114872000D02*
X56642000Y-106172000D01*
X57642000Y-91272000D02*
X42942000Y-91272000D01*
X42942000Y-91272000D02*
X42942000Y-106172000D01*
X42942000Y-106172000D02*
X57642000Y-106172000D01*
X57642000Y-106172000D02*
X57642000Y-91272000D01*
X55292000Y-107472000D02*
X45292000Y-108472000D01*
X108632000Y-57444000D02*
G75*
G03*
X108632000Y-57444000I-5000000J0D01*
G01*
X115635000Y-71770000D02*
X113730000Y-71770000D01*
X113730000Y-71770000D02*
X113730000Y-64150000D01*
X113730000Y-64150000D02*
X116270000Y-64150000D01*
X116270000Y-64150000D02*
X116270000Y-71135000D01*
X116270000Y-71135000D02*
X115635000Y-71770000D01*
X117750000Y-85000000D02*
G75*
G03*
X117750000Y-85000000I-1250000J0D01*
G01*
X116500000Y-85000000D02*
X116500000Y-82460000D01*
X53730000Y-67365000D02*
X53730000Y-62015000D01*
X53730000Y-62015000D02*
X71510000Y-62015000D01*
X71510000Y-62015000D02*
X71510000Y-68365000D01*
X71510000Y-68365000D02*
X54730000Y-68365000D01*
X54730000Y-68365000D02*
X53730000Y-67365000D01*
X53670000Y-70270000D02*
X71570000Y-70270000D01*
X71570000Y-70270000D02*
X71570000Y-60110000D01*
X71570000Y-60110000D02*
X53670000Y-60110000D01*
X53670000Y-60110000D02*
X53670000Y-70270000D01*
X53670000Y-74110000D02*
X53670000Y-84270000D01*
X71570000Y-74110000D02*
X53670000Y-74110000D01*
X71570000Y-84270000D02*
X71570000Y-74110000D01*
X53670000Y-84270000D02*
X71570000Y-84270000D01*
X54730000Y-82365000D02*
X53730000Y-81365000D01*
X71510000Y-82365000D02*
X54730000Y-82365000D01*
X71510000Y-76015000D02*
X71510000Y-82365000D01*
X53730000Y-76015000D02*
X71510000Y-76015000D01*
X53730000Y-81365000D02*
X53730000Y-76015000D01*
X90730000Y-82365000D02*
X90730000Y-77015000D01*
X90730000Y-77015000D02*
X108510000Y-77015000D01*
X108510000Y-77015000D02*
X108510000Y-83365000D01*
X108510000Y-83365000D02*
X91730000Y-83365000D01*
X91730000Y-83365000D02*
X90730000Y-82365000D01*
X90670000Y-85270000D02*
X108570000Y-85270000D01*
X108570000Y-85270000D02*
X108570000Y-75110000D01*
X108570000Y-75110000D02*
X90670000Y-75110000D01*
X90670000Y-75110000D02*
X90670000Y-85270000D01*
D11*
X79351142Y-56788666D02*
X79398761Y-56836285D01*
X79446380Y-56979142D01*
X79446380Y-57074380D01*
X79398761Y-57217238D01*
X79303523Y-57312476D01*
X79208285Y-57360095D01*
X79017809Y-57407714D01*
X78874952Y-57407714D01*
X78684476Y-57360095D01*
X78589238Y-57312476D01*
X78494000Y-57217238D01*
X78446380Y-57074380D01*
X78446380Y-56979142D01*
X78494000Y-56836285D01*
X78541619Y-56788666D01*
X79446380Y-55836285D02*
X79446380Y-56407714D01*
X79446380Y-56122000D02*
X78446380Y-56122000D01*
X78589238Y-56217238D01*
X78684476Y-56312476D01*
X78732095Y-56407714D01*
X39432380Y-74851333D02*
X40146666Y-74851333D01*
X40289523Y-74898952D01*
X40384761Y-74994190D01*
X40432380Y-75137047D01*
X40432380Y-75232285D01*
X39527619Y-74422761D02*
X39480000Y-74375142D01*
X39432380Y-74279904D01*
X39432380Y-74041809D01*
X39480000Y-73946571D01*
X39527619Y-73898952D01*
X39622857Y-73851333D01*
X39718095Y-73851333D01*
X39860952Y-73898952D01*
X40432380Y-74470380D01*
X40432380Y-73851333D01*
X99395238Y-60590380D02*
X99395238Y-59590380D01*
X99728571Y-60304666D01*
X100061904Y-59590380D01*
X100061904Y-60590380D01*
X100680952Y-60590380D02*
X100585714Y-60542761D01*
X100538095Y-60495142D01*
X100490476Y-60399904D01*
X100490476Y-60114190D01*
X100538095Y-60018952D01*
X100585714Y-59971333D01*
X100680952Y-59923714D01*
X100823809Y-59923714D01*
X100919047Y-59971333D01*
X100966666Y-60018952D01*
X101014285Y-60114190D01*
X101014285Y-60399904D01*
X100966666Y-60495142D01*
X100919047Y-60542761D01*
X100823809Y-60590380D01*
X100680952Y-60590380D01*
X101871428Y-59923714D02*
X101871428Y-60590380D01*
X101442857Y-59923714D02*
X101442857Y-60447523D01*
X101490476Y-60542761D01*
X101585714Y-60590380D01*
X101728571Y-60590380D01*
X101823809Y-60542761D01*
X101871428Y-60495142D01*
X102347619Y-59923714D02*
X102347619Y-60590380D01*
X102347619Y-60018952D02*
X102395238Y-59971333D01*
X102490476Y-59923714D01*
X102633333Y-59923714D01*
X102728571Y-59971333D01*
X102776190Y-60066571D01*
X102776190Y-60590380D01*
X103109523Y-59923714D02*
X103490476Y-59923714D01*
X103252380Y-59590380D02*
X103252380Y-60447523D01*
X103300000Y-60542761D01*
X103395238Y-60590380D01*
X103490476Y-60590380D01*
X103823809Y-60590380D02*
X103823809Y-59923714D01*
X103823809Y-59590380D02*
X103776190Y-59638000D01*
X103823809Y-59685619D01*
X103871428Y-59638000D01*
X103823809Y-59590380D01*
X103823809Y-59685619D01*
X104299999Y-59923714D02*
X104299999Y-60590380D01*
X104299999Y-60018952D02*
X104347619Y-59971333D01*
X104442857Y-59923714D01*
X104585714Y-59923714D01*
X104680952Y-59971333D01*
X104728571Y-60066571D01*
X104728571Y-60590380D01*
X105633333Y-59923714D02*
X105633333Y-60733238D01*
X105585714Y-60828476D01*
X105538095Y-60876095D01*
X105442857Y-60923714D01*
X105299999Y-60923714D01*
X105204761Y-60876095D01*
X105633333Y-60542761D02*
X105538095Y-60590380D01*
X105347619Y-60590380D01*
X105252380Y-60542761D01*
X105204761Y-60495142D01*
X105157142Y-60399904D01*
X105157142Y-60114190D01*
X105204761Y-60018952D01*
X105252380Y-59971333D01*
X105347619Y-59923714D01*
X105538095Y-59923714D01*
X105633333Y-59971333D01*
X106109523Y-60590380D02*
X106109523Y-59590380D01*
X106109523Y-60066571D02*
X106680952Y-60066571D01*
X106680952Y-60590380D02*
X106680952Y-59590380D01*
X107299999Y-60590380D02*
X107204761Y-60542761D01*
X107157142Y-60495142D01*
X107109523Y-60399904D01*
X107109523Y-60114190D01*
X107157142Y-60018952D01*
X107204761Y-59971333D01*
X107299999Y-59923714D01*
X107442857Y-59923714D01*
X107538095Y-59971333D01*
X107585714Y-60018952D01*
X107633333Y-60114190D01*
X107633333Y-60399904D01*
X107585714Y-60495142D01*
X107538095Y-60542761D01*
X107442857Y-60590380D01*
X107299999Y-60590380D01*
X108204761Y-60590380D02*
X108109523Y-60542761D01*
X108061904Y-60447523D01*
X108061904Y-59590380D01*
X108966666Y-60542761D02*
X108871428Y-60590380D01*
X108680952Y-60590380D01*
X108585714Y-60542761D01*
X108538095Y-60447523D01*
X108538095Y-60066571D01*
X108585714Y-59971333D01*
X108680952Y-59923714D01*
X108871428Y-59923714D01*
X108966666Y-59971333D01*
X109014285Y-60066571D01*
X109014285Y-60161809D01*
X108538095Y-60257047D01*
X109204761Y-60685619D02*
X109966666Y-60685619D01*
X110109523Y-59590380D02*
X110728571Y-59590380D01*
X110395238Y-59971333D01*
X110538095Y-59971333D01*
X110633333Y-60018952D01*
X110680952Y-60066571D01*
X110728571Y-60161809D01*
X110728571Y-60399904D01*
X110680952Y-60495142D01*
X110633333Y-60542761D01*
X110538095Y-60590380D01*
X110252380Y-60590380D01*
X110157142Y-60542761D01*
X110109523Y-60495142D01*
X111157142Y-60495142D02*
X111204761Y-60542761D01*
X111157142Y-60590380D01*
X111109523Y-60542761D01*
X111157142Y-60495142D01*
X111157142Y-60590380D01*
X111585714Y-59685619D02*
X111633333Y-59638000D01*
X111728571Y-59590380D01*
X111966666Y-59590380D01*
X112061904Y-59638000D01*
X112109523Y-59685619D01*
X112157142Y-59780857D01*
X112157142Y-59876095D01*
X112109523Y-60018952D01*
X111538095Y-60590380D01*
X112157142Y-60590380D01*
X112585714Y-60590380D02*
X112585714Y-59923714D01*
X112585714Y-60018952D02*
X112633333Y-59971333D01*
X112728571Y-59923714D01*
X112871428Y-59923714D01*
X112966666Y-59971333D01*
X113014285Y-60066571D01*
X113014285Y-60590380D01*
X113014285Y-60066571D02*
X113061904Y-59971333D01*
X113157142Y-59923714D01*
X113299999Y-59923714D01*
X113395238Y-59971333D01*
X113442857Y-60066571D01*
X113442857Y-60590380D01*
X113919047Y-60590380D02*
X113919047Y-59923714D01*
X113919047Y-60018952D02*
X113966666Y-59971333D01*
X114061904Y-59923714D01*
X114204761Y-59923714D01*
X114299999Y-59971333D01*
X114347619Y-60066571D01*
X114347619Y-60590380D01*
X114347619Y-60066571D02*
X114395238Y-59971333D01*
X114490476Y-59923714D01*
X114633333Y-59923714D01*
X114728571Y-59971333D01*
X114776190Y-60066571D01*
X114776190Y-60590380D01*
X115014285Y-60685619D02*
X115776190Y-60685619D01*
X116014285Y-60590380D02*
X116014285Y-59590380D01*
X116347619Y-60304666D01*
X116680952Y-59590380D01*
X116680952Y-60590380D01*
X117061904Y-59590380D02*
X117680952Y-59590380D01*
X117347619Y-59971333D01*
X117490476Y-59971333D01*
X117585714Y-60018952D01*
X117633333Y-60066571D01*
X117680952Y-60161809D01*
X117680952Y-60399904D01*
X117633333Y-60495142D01*
X117585714Y-60542761D01*
X117490476Y-60590380D01*
X117204761Y-60590380D01*
X117109523Y-60542761D01*
X117061904Y-60495142D01*
X117871428Y-60685619D02*
X118633333Y-60685619D01*
X118871428Y-60590380D02*
X118871428Y-59590380D01*
X119299999Y-60542761D02*
X119442857Y-60590380D01*
X119680952Y-60590380D01*
X119776190Y-60542761D01*
X119823809Y-60495142D01*
X119871428Y-60399904D01*
X119871428Y-60304666D01*
X119823809Y-60209428D01*
X119776190Y-60161809D01*
X119680952Y-60114190D01*
X119490476Y-60066571D01*
X119395238Y-60018952D01*
X119347619Y-59971333D01*
X119299999Y-59876095D01*
X119299999Y-59780857D01*
X119347619Y-59685619D01*
X119395238Y-59638000D01*
X119490476Y-59590380D01*
X119728571Y-59590380D01*
X119871428Y-59638000D01*
X120490476Y-59590380D02*
X120680952Y-59590380D01*
X120776190Y-59638000D01*
X120871428Y-59733238D01*
X120919047Y-59923714D01*
X120919047Y-60257047D01*
X120871428Y-60447523D01*
X120776190Y-60542761D01*
X120680952Y-60590380D01*
X120490476Y-60590380D01*
X120395238Y-60542761D01*
X120299999Y-60447523D01*
X120252380Y-60257047D01*
X120252380Y-59923714D01*
X120299999Y-59733238D01*
X120395238Y-59638000D01*
X120490476Y-59590380D01*
X121871428Y-60590380D02*
X121299999Y-60590380D01*
X121585714Y-60590380D02*
X121585714Y-59590380D01*
X121490476Y-59733238D01*
X121395238Y-59828476D01*
X121299999Y-59876095D01*
X122728571Y-59923714D02*
X122728571Y-60590380D01*
X122490476Y-59542761D02*
X122252380Y-60257047D01*
X122871428Y-60257047D01*
X123728571Y-59590380D02*
X123252380Y-59590380D01*
X123204761Y-60066571D01*
X123252380Y-60018952D01*
X123347619Y-59971333D01*
X123585714Y-59971333D01*
X123680952Y-60018952D01*
X123728571Y-60066571D01*
X123776190Y-60161809D01*
X123776190Y-60399904D01*
X123728571Y-60495142D01*
X123680952Y-60542761D01*
X123585714Y-60590380D01*
X123347619Y-60590380D01*
X123252380Y-60542761D01*
X123204761Y-60495142D01*
X124347619Y-60018952D02*
X124252380Y-59971333D01*
X124204761Y-59923714D01*
X124157142Y-59828476D01*
X124157142Y-59780857D01*
X124204761Y-59685619D01*
X124252380Y-59638000D01*
X124347619Y-59590380D01*
X124538095Y-59590380D01*
X124633333Y-59638000D01*
X124680952Y-59685619D01*
X124728571Y-59780857D01*
X124728571Y-59828476D01*
X124680952Y-59923714D01*
X124633333Y-59971333D01*
X124538095Y-60018952D01*
X124347619Y-60018952D01*
X124252380Y-60066571D01*
X124204761Y-60114190D01*
X124157142Y-60209428D01*
X124157142Y-60399904D01*
X124204761Y-60495142D01*
X124252380Y-60542761D01*
X124347619Y-60590380D01*
X124538095Y-60590380D01*
X124633333Y-60542761D01*
X124680952Y-60495142D01*
X124728571Y-60399904D01*
X124728571Y-60209428D01*
X124680952Y-60114190D01*
X124633333Y-60066571D01*
X124538095Y-60018952D01*
X125347619Y-59590380D02*
X125442857Y-59590380D01*
X125538095Y-59638000D01*
X125585714Y-59685619D01*
X125633333Y-59780857D01*
X125680952Y-59971333D01*
X125680952Y-60209428D01*
X125633333Y-60399904D01*
X125585714Y-60495142D01*
X125538095Y-60542761D01*
X125442857Y-60590380D01*
X125347619Y-60590380D01*
X125252380Y-60542761D01*
X125204761Y-60495142D01*
X125157142Y-60399904D01*
X125109523Y-60209428D01*
X125109523Y-59971333D01*
X125157142Y-59780857D01*
X125204761Y-59685619D01*
X125252380Y-59638000D01*
X125347619Y-59590380D01*
X125871428Y-60685619D02*
X126633333Y-60685619D01*
X126871428Y-60590380D02*
X126871428Y-59590380D01*
X127252380Y-59590380D01*
X127347619Y-59638000D01*
X127395238Y-59685619D01*
X127442857Y-59780857D01*
X127442857Y-59923714D01*
X127395238Y-60018952D01*
X127347619Y-60066571D01*
X127252380Y-60114190D01*
X126871428Y-60114190D01*
X128299999Y-60590380D02*
X128299999Y-60066571D01*
X128252380Y-59971333D01*
X128157142Y-59923714D01*
X127966666Y-59923714D01*
X127871428Y-59971333D01*
X128299999Y-60542761D02*
X128204761Y-60590380D01*
X127966666Y-60590380D01*
X127871428Y-60542761D01*
X127823809Y-60447523D01*
X127823809Y-60352285D01*
X127871428Y-60257047D01*
X127966666Y-60209428D01*
X128204761Y-60209428D01*
X128299999Y-60161809D01*
X129204761Y-60590380D02*
X129204761Y-59590380D01*
X129204761Y-60542761D02*
X129109523Y-60590380D01*
X128919047Y-60590380D01*
X128823809Y-60542761D01*
X128776190Y-60495142D01*
X128728571Y-60399904D01*
X128728571Y-60114190D01*
X128776190Y-60018952D01*
X128823809Y-59971333D01*
X128919047Y-59923714D01*
X129109523Y-59923714D01*
X129204761Y-59971333D01*
X113266666Y-56840380D02*
X112933333Y-56364190D01*
X112695238Y-56840380D02*
X112695238Y-55840380D01*
X113076190Y-55840380D01*
X113171428Y-55888000D01*
X113219047Y-55935619D01*
X113266666Y-56030857D01*
X113266666Y-56173714D01*
X113219047Y-56268952D01*
X113171428Y-56316571D01*
X113076190Y-56364190D01*
X112695238Y-56364190D01*
X113695238Y-56316571D02*
X114028571Y-56316571D01*
X114171428Y-56840380D02*
X113695238Y-56840380D01*
X113695238Y-55840380D01*
X114171428Y-55840380D01*
X114933333Y-56316571D02*
X114600000Y-56316571D01*
X114600000Y-56840380D02*
X114600000Y-55840380D01*
X115076190Y-55840380D01*
X115600000Y-55840380D02*
X115600000Y-56078476D01*
X115361904Y-55983238D02*
X115600000Y-56078476D01*
X115838095Y-55983238D01*
X115457142Y-56268952D02*
X115600000Y-56078476D01*
X115742857Y-56268952D01*
X116361904Y-55840380D02*
X116361904Y-56078476D01*
X116123809Y-55983238D02*
X116361904Y-56078476D01*
X116600000Y-55983238D01*
X116219047Y-56268952D02*
X116361904Y-56078476D01*
X116504761Y-56268952D01*
X28783238Y-60590380D02*
X28783238Y-59590380D01*
X29116571Y-60304666D01*
X29449904Y-59590380D01*
X29449904Y-60590380D01*
X30068952Y-60590380D02*
X29973714Y-60542761D01*
X29926095Y-60495142D01*
X29878476Y-60399904D01*
X29878476Y-60114190D01*
X29926095Y-60018952D01*
X29973714Y-59971333D01*
X30068952Y-59923714D01*
X30211809Y-59923714D01*
X30307047Y-59971333D01*
X30354666Y-60018952D01*
X30402285Y-60114190D01*
X30402285Y-60399904D01*
X30354666Y-60495142D01*
X30307047Y-60542761D01*
X30211809Y-60590380D01*
X30068952Y-60590380D01*
X31259428Y-59923714D02*
X31259428Y-60590380D01*
X30830857Y-59923714D02*
X30830857Y-60447523D01*
X30878476Y-60542761D01*
X30973714Y-60590380D01*
X31116571Y-60590380D01*
X31211809Y-60542761D01*
X31259428Y-60495142D01*
X31735619Y-59923714D02*
X31735619Y-60590380D01*
X31735619Y-60018952D02*
X31783238Y-59971333D01*
X31878476Y-59923714D01*
X32021333Y-59923714D01*
X32116571Y-59971333D01*
X32164190Y-60066571D01*
X32164190Y-60590380D01*
X32497523Y-59923714D02*
X32878476Y-59923714D01*
X32640380Y-59590380D02*
X32640380Y-60447523D01*
X32688000Y-60542761D01*
X32783238Y-60590380D01*
X32878476Y-60590380D01*
X33211809Y-60590380D02*
X33211809Y-59923714D01*
X33211809Y-59590380D02*
X33164190Y-59638000D01*
X33211809Y-59685619D01*
X33259428Y-59638000D01*
X33211809Y-59590380D01*
X33211809Y-59685619D01*
X33688000Y-59923714D02*
X33688000Y-60590380D01*
X33688000Y-60018952D02*
X33735619Y-59971333D01*
X33830857Y-59923714D01*
X33973714Y-59923714D01*
X34068952Y-59971333D01*
X34116571Y-60066571D01*
X34116571Y-60590380D01*
X35021333Y-59923714D02*
X35021333Y-60733238D01*
X34973714Y-60828476D01*
X34926095Y-60876095D01*
X34830857Y-60923714D01*
X34688000Y-60923714D01*
X34592761Y-60876095D01*
X35021333Y-60542761D02*
X34926095Y-60590380D01*
X34735619Y-60590380D01*
X34640380Y-60542761D01*
X34592761Y-60495142D01*
X34545142Y-60399904D01*
X34545142Y-60114190D01*
X34592761Y-60018952D01*
X34640380Y-59971333D01*
X34735619Y-59923714D01*
X34926095Y-59923714D01*
X35021333Y-59971333D01*
X35497523Y-60590380D02*
X35497523Y-59590380D01*
X35497523Y-60066571D02*
X36068952Y-60066571D01*
X36068952Y-60590380D02*
X36068952Y-59590380D01*
X36688000Y-60590380D02*
X36592761Y-60542761D01*
X36545142Y-60495142D01*
X36497523Y-60399904D01*
X36497523Y-60114190D01*
X36545142Y-60018952D01*
X36592761Y-59971333D01*
X36688000Y-59923714D01*
X36830857Y-59923714D01*
X36926095Y-59971333D01*
X36973714Y-60018952D01*
X37021333Y-60114190D01*
X37021333Y-60399904D01*
X36973714Y-60495142D01*
X36926095Y-60542761D01*
X36830857Y-60590380D01*
X36688000Y-60590380D01*
X37592761Y-60590380D02*
X37497523Y-60542761D01*
X37449904Y-60447523D01*
X37449904Y-59590380D01*
X38354666Y-60542761D02*
X38259428Y-60590380D01*
X38068952Y-60590380D01*
X37973714Y-60542761D01*
X37926095Y-60447523D01*
X37926095Y-60066571D01*
X37973714Y-59971333D01*
X38068952Y-59923714D01*
X38259428Y-59923714D01*
X38354666Y-59971333D01*
X38402285Y-60066571D01*
X38402285Y-60161809D01*
X37926095Y-60257047D01*
X38592761Y-60685619D02*
X39354666Y-60685619D01*
X39497523Y-59590380D02*
X40116571Y-59590380D01*
X39783238Y-59971333D01*
X39926095Y-59971333D01*
X40021333Y-60018952D01*
X40068952Y-60066571D01*
X40116571Y-60161809D01*
X40116571Y-60399904D01*
X40068952Y-60495142D01*
X40021333Y-60542761D01*
X39926095Y-60590380D01*
X39640380Y-60590380D01*
X39545142Y-60542761D01*
X39497523Y-60495142D01*
X40545142Y-60495142D02*
X40592761Y-60542761D01*
X40545142Y-60590380D01*
X40497523Y-60542761D01*
X40545142Y-60495142D01*
X40545142Y-60590380D01*
X40973714Y-59685619D02*
X41021333Y-59638000D01*
X41116571Y-59590380D01*
X41354666Y-59590380D01*
X41449904Y-59638000D01*
X41497523Y-59685619D01*
X41545142Y-59780857D01*
X41545142Y-59876095D01*
X41497523Y-60018952D01*
X40926095Y-60590380D01*
X41545142Y-60590380D01*
X41973714Y-60590380D02*
X41973714Y-59923714D01*
X41973714Y-60018952D02*
X42021333Y-59971333D01*
X42116571Y-59923714D01*
X42259428Y-59923714D01*
X42354666Y-59971333D01*
X42402285Y-60066571D01*
X42402285Y-60590380D01*
X42402285Y-60066571D02*
X42449904Y-59971333D01*
X42545142Y-59923714D01*
X42687999Y-59923714D01*
X42783238Y-59971333D01*
X42830857Y-60066571D01*
X42830857Y-60590380D01*
X43307047Y-60590380D02*
X43307047Y-59923714D01*
X43307047Y-60018952D02*
X43354666Y-59971333D01*
X43449904Y-59923714D01*
X43592761Y-59923714D01*
X43688000Y-59971333D01*
X43735619Y-60066571D01*
X43735619Y-60590380D01*
X43735619Y-60066571D02*
X43783238Y-59971333D01*
X43878476Y-59923714D01*
X44021333Y-59923714D01*
X44116571Y-59971333D01*
X44164190Y-60066571D01*
X44164190Y-60590380D01*
X44402285Y-60685619D02*
X45164190Y-60685619D01*
X45402285Y-60590380D02*
X45402285Y-59590380D01*
X45735619Y-60304666D01*
X46068952Y-59590380D01*
X46068952Y-60590380D01*
X46449904Y-59590380D02*
X47068952Y-59590380D01*
X46735619Y-59971333D01*
X46878476Y-59971333D01*
X46973714Y-60018952D01*
X47021333Y-60066571D01*
X47068952Y-60161809D01*
X47068952Y-60399904D01*
X47021333Y-60495142D01*
X46973714Y-60542761D01*
X46878476Y-60590380D01*
X46592761Y-60590380D01*
X46497523Y-60542761D01*
X46449904Y-60495142D01*
X47259428Y-60685619D02*
X48021333Y-60685619D01*
X48259428Y-60590380D02*
X48259428Y-59590380D01*
X48688000Y-60542761D02*
X48830857Y-60590380D01*
X49068952Y-60590380D01*
X49164190Y-60542761D01*
X49211809Y-60495142D01*
X49259428Y-60399904D01*
X49259428Y-60304666D01*
X49211809Y-60209428D01*
X49164190Y-60161809D01*
X49068952Y-60114190D01*
X48878476Y-60066571D01*
X48783238Y-60018952D01*
X48735619Y-59971333D01*
X48688000Y-59876095D01*
X48688000Y-59780857D01*
X48735619Y-59685619D01*
X48783238Y-59638000D01*
X48878476Y-59590380D01*
X49116571Y-59590380D01*
X49259428Y-59638000D01*
X49878476Y-59590380D02*
X50068952Y-59590380D01*
X50164190Y-59638000D01*
X50259428Y-59733238D01*
X50307047Y-59923714D01*
X50307047Y-60257047D01*
X50259428Y-60447523D01*
X50164190Y-60542761D01*
X50068952Y-60590380D01*
X49878476Y-60590380D01*
X49783238Y-60542761D01*
X49688000Y-60447523D01*
X49640380Y-60257047D01*
X49640380Y-59923714D01*
X49688000Y-59733238D01*
X49783238Y-59638000D01*
X49878476Y-59590380D01*
X51259428Y-60590380D02*
X50688000Y-60590380D01*
X50973714Y-60590380D02*
X50973714Y-59590380D01*
X50878476Y-59733238D01*
X50783238Y-59828476D01*
X50688000Y-59876095D01*
X52116571Y-59923714D02*
X52116571Y-60590380D01*
X51878476Y-59542761D02*
X51640380Y-60257047D01*
X52259428Y-60257047D01*
X53116571Y-59590380D02*
X52640380Y-59590380D01*
X52592761Y-60066571D01*
X52640380Y-60018952D01*
X52735619Y-59971333D01*
X52973714Y-59971333D01*
X53068952Y-60018952D01*
X53116571Y-60066571D01*
X53164190Y-60161809D01*
X53164190Y-60399904D01*
X53116571Y-60495142D01*
X53068952Y-60542761D01*
X52973714Y-60590380D01*
X52735619Y-60590380D01*
X52640380Y-60542761D01*
X52592761Y-60495142D01*
X53735619Y-60018952D02*
X53640380Y-59971333D01*
X53592761Y-59923714D01*
X53545142Y-59828476D01*
X53545142Y-59780857D01*
X53592761Y-59685619D01*
X53640380Y-59638000D01*
X53735619Y-59590380D01*
X53926095Y-59590380D01*
X54021333Y-59638000D01*
X54068952Y-59685619D01*
X54116571Y-59780857D01*
X54116571Y-59828476D01*
X54068952Y-59923714D01*
X54021333Y-59971333D01*
X53926095Y-60018952D01*
X53735619Y-60018952D01*
X53640380Y-60066571D01*
X53592761Y-60114190D01*
X53545142Y-60209428D01*
X53545142Y-60399904D01*
X53592761Y-60495142D01*
X53640380Y-60542761D01*
X53735619Y-60590380D01*
X53926095Y-60590380D01*
X54021333Y-60542761D01*
X54068952Y-60495142D01*
X54116571Y-60399904D01*
X54116571Y-60209428D01*
X54068952Y-60114190D01*
X54021333Y-60066571D01*
X53926095Y-60018952D01*
X54735619Y-59590380D02*
X54830857Y-59590380D01*
X54926095Y-59638000D01*
X54973714Y-59685619D01*
X55021333Y-59780857D01*
X55068952Y-59971333D01*
X55068952Y-60209428D01*
X55021333Y-60399904D01*
X54973714Y-60495142D01*
X54926095Y-60542761D01*
X54830857Y-60590380D01*
X54735619Y-60590380D01*
X54640380Y-60542761D01*
X54592761Y-60495142D01*
X54545142Y-60399904D01*
X54497523Y-60209428D01*
X54497523Y-59971333D01*
X54545142Y-59780857D01*
X54592761Y-59685619D01*
X54640380Y-59638000D01*
X54735619Y-59590380D01*
X55259428Y-60685619D02*
X56021333Y-60685619D01*
X56259428Y-60590380D02*
X56259428Y-59590380D01*
X56640380Y-59590380D01*
X56735619Y-59638000D01*
X56783238Y-59685619D01*
X56830857Y-59780857D01*
X56830857Y-59923714D01*
X56783238Y-60018952D01*
X56735619Y-60066571D01*
X56640380Y-60114190D01*
X56259428Y-60114190D01*
X57687999Y-60590380D02*
X57687999Y-60066571D01*
X57640380Y-59971333D01*
X57545142Y-59923714D01*
X57354666Y-59923714D01*
X57259428Y-59971333D01*
X57687999Y-60542761D02*
X57592761Y-60590380D01*
X57354666Y-60590380D01*
X57259428Y-60542761D01*
X57211809Y-60447523D01*
X57211809Y-60352285D01*
X57259428Y-60257047D01*
X57354666Y-60209428D01*
X57592761Y-60209428D01*
X57687999Y-60161809D01*
X58592761Y-60590380D02*
X58592761Y-59590380D01*
X58592761Y-60542761D02*
X58497523Y-60590380D01*
X58307047Y-60590380D01*
X58211809Y-60542761D01*
X58164190Y-60495142D01*
X58116571Y-60399904D01*
X58116571Y-60114190D01*
X58164190Y-60018952D01*
X58211809Y-59971333D01*
X58307047Y-59923714D01*
X58497523Y-59923714D01*
X58592761Y-59971333D01*
X42654666Y-56840380D02*
X42321333Y-56364190D01*
X42083238Y-56840380D02*
X42083238Y-55840380D01*
X42464190Y-55840380D01*
X42559428Y-55888000D01*
X42607047Y-55935619D01*
X42654666Y-56030857D01*
X42654666Y-56173714D01*
X42607047Y-56268952D01*
X42559428Y-56316571D01*
X42464190Y-56364190D01*
X42083238Y-56364190D01*
X43083238Y-56316571D02*
X43416571Y-56316571D01*
X43559428Y-56840380D02*
X43083238Y-56840380D01*
X43083238Y-55840380D01*
X43559428Y-55840380D01*
X44321333Y-56316571D02*
X43988000Y-56316571D01*
X43988000Y-56840380D02*
X43988000Y-55840380D01*
X44464190Y-55840380D01*
X44988000Y-55840380D02*
X44988000Y-56078476D01*
X44749904Y-55983238D02*
X44988000Y-56078476D01*
X45226095Y-55983238D01*
X44845142Y-56268952D02*
X44988000Y-56078476D01*
X45130857Y-56268952D01*
X45749904Y-55840380D02*
X45749904Y-56078476D01*
X45511809Y-55983238D02*
X45749904Y-56078476D01*
X45988000Y-55983238D01*
X45607047Y-56268952D02*
X45749904Y-56078476D01*
X45892761Y-56268952D01*
X90014095Y-50584380D02*
X90014095Y-51393904D01*
X90061714Y-51489142D01*
X90109333Y-51536761D01*
X90204571Y-51584380D01*
X90395047Y-51584380D01*
X90490285Y-51536761D01*
X90537904Y-51489142D01*
X90585523Y-51393904D01*
X90585523Y-50584380D01*
X91490285Y-50917714D02*
X91490285Y-51584380D01*
X91252190Y-50536761D02*
X91014095Y-51251047D01*
X91633142Y-51251047D01*
X105583333Y-67857142D02*
X105535714Y-67904761D01*
X105392857Y-67952380D01*
X105297619Y-67952380D01*
X105154761Y-67904761D01*
X105059523Y-67809523D01*
X105011904Y-67714285D01*
X104964285Y-67523809D01*
X104964285Y-67380952D01*
X105011904Y-67190476D01*
X105059523Y-67095238D01*
X105154761Y-67000000D01*
X105297619Y-66952380D01*
X105392857Y-66952380D01*
X105535714Y-67000000D01*
X105583333Y-67047619D01*
X105964285Y-67047619D02*
X106011904Y-67000000D01*
X106107142Y-66952380D01*
X106345238Y-66952380D01*
X106440476Y-67000000D01*
X106488095Y-67047619D01*
X106535714Y-67142857D01*
X106535714Y-67238095D01*
X106488095Y-67380952D01*
X105916666Y-67952380D01*
X106535714Y-67952380D01*
X85344476Y-72498380D02*
X85344476Y-71498380D01*
X85582571Y-71498380D01*
X85725428Y-71546000D01*
X85820666Y-71641238D01*
X85868285Y-71736476D01*
X85915904Y-71926952D01*
X85915904Y-72069809D01*
X85868285Y-72260285D01*
X85820666Y-72355523D01*
X85725428Y-72450761D01*
X85582571Y-72498380D01*
X85344476Y-72498380D01*
X86106380Y-72593619D02*
X86868285Y-72593619D01*
X87058761Y-72450761D02*
X87201619Y-72498380D01*
X87439714Y-72498380D01*
X87534952Y-72450761D01*
X87582571Y-72403142D01*
X87630190Y-72307904D01*
X87630190Y-72212666D01*
X87582571Y-72117428D01*
X87534952Y-72069809D01*
X87439714Y-72022190D01*
X87249238Y-71974571D01*
X87154000Y-71926952D01*
X87106380Y-71879333D01*
X87058761Y-71784095D01*
X87058761Y-71688857D01*
X87106380Y-71593619D01*
X87154000Y-71546000D01*
X87249238Y-71498380D01*
X87487333Y-71498380D01*
X87630190Y-71546000D01*
X88487333Y-72450761D02*
X88392095Y-72498380D01*
X88201619Y-72498380D01*
X88106380Y-72450761D01*
X88058761Y-72403142D01*
X88011142Y-72307904D01*
X88011142Y-72022190D01*
X88058761Y-71926952D01*
X88106380Y-71879333D01*
X88201619Y-71831714D01*
X88392095Y-71831714D01*
X88487333Y-71879333D01*
X88915904Y-72498380D02*
X88915904Y-71498380D01*
X89344476Y-72498380D02*
X89344476Y-71974571D01*
X89296857Y-71879333D01*
X89201619Y-71831714D01*
X89058761Y-71831714D01*
X88963523Y-71879333D01*
X88915904Y-71926952D01*
X89963523Y-72498380D02*
X89868285Y-72450761D01*
X89820666Y-72403142D01*
X89773047Y-72307904D01*
X89773047Y-72022190D01*
X89820666Y-71926952D01*
X89868285Y-71879333D01*
X89963523Y-71831714D01*
X90106380Y-71831714D01*
X90201619Y-71879333D01*
X90249238Y-71926952D01*
X90296857Y-72022190D01*
X90296857Y-72307904D01*
X90249238Y-72403142D01*
X90201619Y-72450761D01*
X90106380Y-72498380D01*
X89963523Y-72498380D01*
X90582571Y-71831714D02*
X90963523Y-71831714D01*
X90725428Y-71498380D02*
X90725428Y-72355523D01*
X90773047Y-72450761D01*
X90868285Y-72498380D01*
X90963523Y-72498380D01*
X91154000Y-71831714D02*
X91534952Y-71831714D01*
X91296857Y-71498380D02*
X91296857Y-72355523D01*
X91344476Y-72450761D01*
X91439714Y-72498380D01*
X91534952Y-72498380D01*
X91868285Y-72498380D02*
X91868285Y-71498380D01*
X91963523Y-72117428D02*
X92249238Y-72498380D01*
X92249238Y-71831714D02*
X91868285Y-72212666D01*
X92582571Y-71831714D02*
X92820666Y-72498380D01*
X93058761Y-71831714D02*
X92820666Y-72498380D01*
X92725428Y-72736476D01*
X92677809Y-72784095D01*
X92582571Y-72831714D01*
X89128404Y-68778380D02*
X89128404Y-67778380D01*
X89366500Y-67778380D01*
X89509357Y-67826000D01*
X89604595Y-67921238D01*
X89652214Y-68016476D01*
X89699833Y-68206952D01*
X89699833Y-68349809D01*
X89652214Y-68540285D01*
X89604595Y-68635523D01*
X89509357Y-68730761D01*
X89366500Y-68778380D01*
X89128404Y-68778380D01*
X90652214Y-68778380D02*
X90080785Y-68778380D01*
X90366500Y-68778380D02*
X90366500Y-67778380D01*
X90271261Y-67921238D01*
X90176023Y-68016476D01*
X90080785Y-68064095D01*
X81272095Y-66178380D02*
X81272095Y-65178380D01*
X81843523Y-66178380D02*
X81414952Y-65606952D01*
X81843523Y-65178380D02*
X81272095Y-65749809D01*
X107870666Y-92924380D02*
X107870666Y-93638666D01*
X107823047Y-93781523D01*
X107727809Y-93876761D01*
X107584952Y-93924380D01*
X107489714Y-93924380D01*
X108775428Y-93257714D02*
X108775428Y-93924380D01*
X108537333Y-92876761D02*
X108299238Y-93591047D01*
X108918285Y-93591047D01*
X68246666Y-92924380D02*
X68246666Y-93638666D01*
X68199047Y-93781523D01*
X68103809Y-93876761D01*
X67960952Y-93924380D01*
X67865714Y-93924380D01*
X69199047Y-92924380D02*
X68722857Y-92924380D01*
X68675238Y-93400571D01*
X68722857Y-93352952D01*
X68818095Y-93305333D01*
X69056190Y-93305333D01*
X69151428Y-93352952D01*
X69199047Y-93400571D01*
X69246666Y-93495809D01*
X69246666Y-93733904D01*
X69199047Y-93829142D01*
X69151428Y-93876761D01*
X69056190Y-93924380D01*
X68818095Y-93924380D01*
X68722857Y-93876761D01*
X68675238Y-93829142D01*
X86534666Y-92924380D02*
X86534666Y-93638666D01*
X86487047Y-93781523D01*
X86391809Y-93876761D01*
X86248952Y-93924380D01*
X86153714Y-93924380D01*
X87439428Y-92924380D02*
X87248952Y-92924380D01*
X87153714Y-92972000D01*
X87106095Y-93019619D01*
X87010857Y-93162476D01*
X86963238Y-93352952D01*
X86963238Y-93733904D01*
X87010857Y-93829142D01*
X87058476Y-93876761D01*
X87153714Y-93924380D01*
X87344190Y-93924380D01*
X87439428Y-93876761D01*
X87487047Y-93829142D01*
X87534666Y-93733904D01*
X87534666Y-93495809D01*
X87487047Y-93400571D01*
X87439428Y-93352952D01*
X87344190Y-93305333D01*
X87153714Y-93305333D01*
X87058476Y-93352952D01*
X87010857Y-93400571D01*
X86963238Y-93495809D01*
X49958666Y-92924380D02*
X49958666Y-93638666D01*
X49911047Y-93781523D01*
X49815809Y-93876761D01*
X49672952Y-93924380D01*
X49577714Y-93924380D01*
X50339619Y-92924380D02*
X51006285Y-92924380D01*
X50577714Y-93924380D01*
X104084380Y-57610666D02*
X104084380Y-58086857D01*
X103084380Y-58086857D01*
X104084380Y-56753523D02*
X104084380Y-57324952D01*
X104084380Y-57039238D02*
X103084380Y-57039238D01*
X103227238Y-57134476D01*
X103322476Y-57229714D01*
X103370095Y-57324952D01*
X114452380Y-68293333D02*
X115166666Y-68293333D01*
X115309523Y-68340952D01*
X115404761Y-68436190D01*
X115452380Y-68579047D01*
X115452380Y-68674285D01*
X114880952Y-67674285D02*
X114833333Y-67769523D01*
X114785714Y-67817142D01*
X114690476Y-67864761D01*
X114642857Y-67864761D01*
X114547619Y-67817142D01*
X114500000Y-67769523D01*
X114452380Y-67674285D01*
X114452380Y-67483809D01*
X114500000Y-67388571D01*
X114547619Y-67340952D01*
X114642857Y-67293333D01*
X114690476Y-67293333D01*
X114785714Y-67340952D01*
X114833333Y-67388571D01*
X114880952Y-67483809D01*
X114880952Y-67674285D01*
X114928571Y-67769523D01*
X114976190Y-67817142D01*
X115071428Y-67864761D01*
X115261904Y-67864761D01*
X115357142Y-67817142D01*
X115404761Y-67769523D01*
X115452380Y-67674285D01*
X115452380Y-67483809D01*
X115404761Y-67388571D01*
X115357142Y-67340952D01*
X115261904Y-67293333D01*
X115071428Y-67293333D01*
X114976190Y-67340952D01*
X114928571Y-67388571D01*
X114880952Y-67483809D01*
X114582380Y-83896666D02*
X114106190Y-84230000D01*
X114582380Y-84468095D02*
X113582380Y-84468095D01*
X113582380Y-84087142D01*
X113630000Y-83991904D01*
X113677619Y-83944285D01*
X113772857Y-83896666D01*
X113915714Y-83896666D01*
X114010952Y-83944285D01*
X114058571Y-83991904D01*
X114106190Y-84087142D01*
X114106190Y-84468095D01*
X114582380Y-82944285D02*
X114582380Y-83515714D01*
X114582380Y-83230000D02*
X113582380Y-83230000D01*
X113725238Y-83325238D01*
X113820476Y-83420476D01*
X113868095Y-83515714D01*
X62072380Y-65951904D02*
X62881904Y-65951904D01*
X62977142Y-65904285D01*
X63024761Y-65856666D01*
X63072380Y-65761428D01*
X63072380Y-65570952D01*
X63024761Y-65475714D01*
X62977142Y-65428095D01*
X62881904Y-65380476D01*
X62072380Y-65380476D01*
X63072380Y-64380476D02*
X63072380Y-64951904D01*
X63072380Y-64666190D02*
X62072380Y-64666190D01*
X62215238Y-64761428D01*
X62310476Y-64856666D01*
X62358095Y-64951904D01*
X62072380Y-79951904D02*
X62881904Y-79951904D01*
X62977142Y-79904285D01*
X63024761Y-79856666D01*
X63072380Y-79761428D01*
X63072380Y-79570952D01*
X63024761Y-79475714D01*
X62977142Y-79428095D01*
X62881904Y-79380476D01*
X62072380Y-79380476D01*
X62167619Y-78951904D02*
X62120000Y-78904285D01*
X62072380Y-78809047D01*
X62072380Y-78570952D01*
X62120000Y-78475714D01*
X62167619Y-78428095D01*
X62262857Y-78380476D01*
X62358095Y-78380476D01*
X62500952Y-78428095D01*
X63072380Y-78999523D01*
X63072380Y-78380476D01*
X99072380Y-80951904D02*
X99881904Y-80951904D01*
X99977142Y-80904285D01*
X100024761Y-80856666D01*
X100072380Y-80761428D01*
X100072380Y-80570952D01*
X100024761Y-80475714D01*
X99977142Y-80428095D01*
X99881904Y-80380476D01*
X99072380Y-80380476D01*
X99072380Y-79999523D02*
X99072380Y-79380476D01*
X99453333Y-79713809D01*
X99453333Y-79570952D01*
X99500952Y-79475714D01*
X99548571Y-79428095D01*
X99643809Y-79380476D01*
X99881904Y-79380476D01*
X99977142Y-79428095D01*
X100024761Y-79475714D01*
X100072380Y-79570952D01*
X100072380Y-79856666D01*
X100024761Y-79951904D01*
X99977142Y-79999523D01*
M02*
