G04 #@! TF.GenerationSoftware,KiCad,Pcbnew,5.1.7-a382d34a8~88~ubuntu20.04.1*
G04 #@! TF.CreationDate,2021-03-17T13:33:01+00:00*
G04 #@! TF.ProjectId,Lcr_addon,4c63725f-6164-4646-9f6e-2e6b69636164,rev?*
G04 #@! TF.SameCoordinates,Original*
G04 #@! TF.FileFunction,Other,User*
%FSLAX46Y46*%
G04 Gerber Fmt 4.6, Leading zero omitted, Abs format (unit mm)*
G04 Created by KiCad (PCBNEW 5.1.7-a382d34a8~88~ubuntu20.04.1) date 2021-03-17 13:33:01*
%MOMM*%
%LPD*%
G01*
G04 APERTURE LIST*
%ADD10C,0.050000*%
G04 APERTURE END LIST*
D10*
X82394000Y-56622000D02*
G75*
G03*
X82394000Y-56622000I-3400000J0D01*
G01*
X38780000Y-83018000D02*
X48080000Y-83018000D01*
X48080000Y-83018000D02*
X48080000Y-66018000D01*
X48080000Y-66018000D02*
X38780000Y-66018000D01*
X38780000Y-66018000D02*
X38780000Y-83018000D01*
X119840000Y-56388000D02*
G75*
G03*
X119840000Y-56388000I-3000000J0D01*
G01*
X117300000Y-56388000D02*
G75*
G03*
X117300000Y-56388000I-3000000J0D01*
G01*
X46688000Y-56388000D02*
G75*
G03*
X46688000Y-56388000I-3000000J0D01*
G01*
X85526000Y-52002000D02*
X85526000Y-61602000D01*
X85526000Y-61602000D02*
X96026000Y-61602000D01*
X96026000Y-61602000D02*
X96026000Y-52002000D01*
X96026000Y-52002000D02*
X85526000Y-52002000D01*
X109150000Y-67500000D02*
G75*
G03*
X109150000Y-67500000I-3400000J0D01*
G01*
X79684000Y-65476000D02*
X79684000Y-71176000D01*
X79684000Y-71176000D02*
X98624000Y-71176000D01*
X98624000Y-71176000D02*
X98624000Y-65476000D01*
X98624000Y-65476000D02*
X79684000Y-65476000D01*
X100354000Y-90772000D02*
X100354000Y-127272000D01*
X100354000Y-127272000D02*
X116054000Y-127272000D01*
X116054000Y-90772000D02*
X116054000Y-127272000D01*
X116054000Y-90772000D02*
X100354000Y-90772000D01*
X60730000Y-90772000D02*
X60730000Y-127272000D01*
X60730000Y-127272000D02*
X76430000Y-127272000D01*
X76430000Y-90772000D02*
X76430000Y-127272000D01*
X76430000Y-90772000D02*
X60730000Y-90772000D01*
X94718000Y-90772000D02*
X79018000Y-90772000D01*
X94718000Y-90772000D02*
X94718000Y-127272000D01*
X79018000Y-127272000D02*
X94718000Y-127272000D01*
X79018000Y-90772000D02*
X79018000Y-127272000D01*
X58142000Y-90772000D02*
X42442000Y-90772000D01*
X58142000Y-90772000D02*
X58142000Y-127272000D01*
X42442000Y-127272000D02*
X58142000Y-127272000D01*
X42442000Y-90772000D02*
X42442000Y-127272000D01*
X108882000Y-57444000D02*
G75*
G03*
X108882000Y-57444000I-5250000J0D01*
G01*
X116800000Y-72300000D02*
X116800000Y-63650000D01*
X116800000Y-63650000D02*
X113200000Y-63650000D01*
X113200000Y-63650000D02*
X113200000Y-72300000D01*
X113200000Y-72300000D02*
X116800000Y-72300000D01*
X44148000Y-56388000D02*
G75*
G03*
X44148000Y-56388000I-3000000J0D01*
G01*
X115000000Y-86500000D02*
X118000000Y-86500000D01*
X118000000Y-86500000D02*
X118000000Y-81410000D01*
X118000000Y-81410000D02*
X115000000Y-81410000D01*
X115000000Y-81410000D02*
X115000000Y-86500000D01*
X53400000Y-70550000D02*
X71850000Y-70550000D01*
X71850000Y-70550000D02*
X71850000Y-59850000D01*
X71850000Y-59850000D02*
X53400000Y-59850000D01*
X53400000Y-59850000D02*
X53400000Y-70550000D01*
X53400000Y-73850000D02*
X53400000Y-84550000D01*
X71850000Y-73850000D02*
X53400000Y-73850000D01*
X71850000Y-84550000D02*
X71850000Y-73850000D01*
X53400000Y-84550000D02*
X71850000Y-84550000D01*
X90400000Y-85550000D02*
X108850000Y-85550000D01*
X108850000Y-85550000D02*
X108850000Y-74850000D01*
X108850000Y-74850000D02*
X90400000Y-74850000D01*
X90400000Y-74850000D02*
X90400000Y-85550000D01*
M02*
