G04 #@! TF.GenerationSoftware,KiCad,Pcbnew,5.0.2-bee76a0~70~ubuntu18.04.1*
G04 #@! TF.CreationDate,2019-02-20T20:53:16+00:00*
G04 #@! TF.ProjectId,led_driver,6c65645f-6472-4697-9665-722e6b696361,rev?*
G04 #@! TF.SameCoordinates,Original*
G04 #@! TF.FileFunction,Copper,L2,Bot*
G04 #@! TF.FilePolarity,Positive*
%FSLAX46Y46*%
G04 Gerber Fmt 4.6, Leading zero omitted, Abs format (unit mm)*
G04 Created by KiCad (PCBNEW 5.0.2-bee76a0~70~ubuntu18.04.1) date Wed 20 Feb 2019 20:53:16 GMT*
%MOMM*%
%LPD*%
G01*
G04 APERTURE LIST*
G04 #@! TA.AperFunction,ComponentPad*
%ADD10O,3.960000X1.980000*%
G04 #@! TD*
G04 #@! TA.AperFunction,ComponentPad*
%ADD11R,3.960000X1.980000*%
G04 #@! TD*
G04 #@! TA.AperFunction,ComponentPad*
%ADD12O,7.000000X3.500000*%
G04 #@! TD*
G04 #@! TA.AperFunction,ComponentPad*
%ADD13O,2.500000X1.600000*%
G04 #@! TD*
G04 #@! TA.AperFunction,ComponentPad*
%ADD14O,1.600000X1.600000*%
G04 #@! TD*
G04 #@! TA.AperFunction,ComponentPad*
%ADD15C,1.600000*%
G04 #@! TD*
G04 #@! TA.AperFunction,ComponentPad*
%ADD16C,2.340000*%
G04 #@! TD*
G04 #@! TA.AperFunction,ViaPad*
%ADD17C,0.800000*%
G04 #@! TD*
G04 #@! TA.AperFunction,Conductor*
%ADD18C,0.750000*%
G04 #@! TD*
G04 #@! TA.AperFunction,Conductor*
%ADD19C,0.254000*%
G04 #@! TD*
G04 APERTURE END LIST*
D10*
G04 #@! TO.P,J1,2*
G04 #@! TO.N,GND*
X167894000Y-77453500D03*
D11*
G04 #@! TO.P,J1,1*
G04 #@! TO.N,Net-(J1-Pad1)*
X167894000Y-72453500D03*
G04 #@! TD*
D12*
G04 #@! TO.P,J2,2*
G04 #@! TO.N,GND*
X168910000Y-96837500D03*
X168910000Y-86677500D03*
D13*
G04 #@! TO.P,J2,1*
G04 #@! TO.N,Net-(J2-Pad1)*
X173990000Y-91757500D03*
G04 #@! TO.P,J2,2*
G04 #@! TO.N,GND*
X173990000Y-94297500D03*
G04 #@! TD*
D11*
G04 #@! TO.P,J4,1*
G04 #@! TO.N,Net-(J4-Pad1)*
X217805000Y-78105000D03*
D10*
G04 #@! TO.P,J4,2*
G04 #@! TO.N,GND*
X217805000Y-73105000D03*
G04 #@! TD*
D14*
G04 #@! TO.P,R1,2*
G04 #@! TO.N,Net-(J1-Pad1)*
X194310000Y-78740000D03*
D15*
G04 #@! TO.P,R1,1*
G04 #@! TO.N,Net-(Q1-Pad5)*
X204470000Y-78740000D03*
G04 #@! TD*
D14*
G04 #@! TO.P,R2,2*
G04 #@! TO.N,Net-(J2-Pad1)*
X194310000Y-83820000D03*
D15*
G04 #@! TO.P,R2,1*
G04 #@! TO.N,GND*
X204470000Y-83820000D03*
G04 #@! TD*
G04 #@! TO.P,R3,1*
G04 #@! TO.N,Net-(Q2-Pad5)*
X194310000Y-71755000D03*
D14*
G04 #@! TO.P,R3,2*
G04 #@! TO.N,GND*
X204470000Y-71755000D03*
G04 #@! TD*
D15*
G04 #@! TO.P,R4,1*
G04 #@! TO.N,Net-(R4-Pad1)*
X222885000Y-95377000D03*
D14*
G04 #@! TO.P,R4,2*
G04 #@! TO.N,Net-(Q2-Pad5)*
X222885000Y-85217000D03*
G04 #@! TD*
D16*
G04 #@! TO.P,RV2,3*
G04 #@! TO.N,Net-(R4-Pad1)*
X192943500Y-97599500D03*
G04 #@! TO.P,RV2,2*
G04 #@! TO.N,Net-(J4-Pad1)*
X187943500Y-92599500D03*
G04 #@! TO.P,RV2,1*
G04 #@! TO.N,Net-(RV2-Pad1)*
X182943500Y-97599500D03*
G04 #@! TD*
D17*
G04 #@! TO.N,GND*
X189992000Y-83820000D03*
G04 #@! TO.N,Net-(Q2-Pad5)*
X212090000Y-82550000D03*
G04 #@! TD*
D18*
G04 #@! TO.N,Net-(Q2-Pad5)*
X222085001Y-84417001D02*
X213957001Y-84417001D01*
X222885000Y-85217000D02*
X222085001Y-84417001D01*
X213957001Y-84417001D02*
X212090000Y-82550000D01*
G04 #@! TD*
D19*
G04 #@! TO.N,GND*
G36*
X224663000Y-100203000D02*
X160782000Y-100203000D01*
X160782000Y-97335503D01*
X164827573Y-97335503D01*
X164907946Y-97632867D01*
X165383747Y-98434147D01*
X166129967Y-98992352D01*
X167033000Y-99222500D01*
X168783000Y-99222500D01*
X168783000Y-96964500D01*
X169037000Y-96964500D01*
X169037000Y-99222500D01*
X170787000Y-99222500D01*
X171690033Y-98992352D01*
X172436253Y-98434147D01*
X172912054Y-97632867D01*
X172992427Y-97335503D01*
X172964299Y-97240463D01*
X181138500Y-97240463D01*
X181138500Y-97958537D01*
X181413295Y-98621950D01*
X181921050Y-99129705D01*
X182584463Y-99404500D01*
X183302537Y-99404500D01*
X183965950Y-99129705D01*
X184473705Y-98621950D01*
X184748500Y-97958537D01*
X184748500Y-97240463D01*
X191138500Y-97240463D01*
X191138500Y-97958537D01*
X191413295Y-98621950D01*
X191921050Y-99129705D01*
X192584463Y-99404500D01*
X193302537Y-99404500D01*
X193965950Y-99129705D01*
X194473705Y-98621950D01*
X194748500Y-97958537D01*
X194748500Y-97240463D01*
X194473705Y-96577050D01*
X193965950Y-96069295D01*
X193302537Y-95794500D01*
X192584463Y-95794500D01*
X191921050Y-96069295D01*
X191413295Y-96577050D01*
X191138500Y-97240463D01*
X184748500Y-97240463D01*
X184473705Y-96577050D01*
X183965950Y-96069295D01*
X183302537Y-95794500D01*
X182584463Y-95794500D01*
X181921050Y-96069295D01*
X181413295Y-96577050D01*
X181138500Y-97240463D01*
X172964299Y-97240463D01*
X172882625Y-96964500D01*
X169037000Y-96964500D01*
X168783000Y-96964500D01*
X164937375Y-96964500D01*
X164827573Y-97335503D01*
X160782000Y-97335503D01*
X160782000Y-96339497D01*
X164827573Y-96339497D01*
X164937375Y-96710500D01*
X168783000Y-96710500D01*
X168783000Y-94452500D01*
X169037000Y-94452500D01*
X169037000Y-96710500D01*
X172882625Y-96710500D01*
X172992427Y-96339497D01*
X172912054Y-96042133D01*
X172436253Y-95240853D01*
X171690033Y-94682648D01*
X171548352Y-94646539D01*
X172148096Y-94646539D01*
X172165633Y-94729319D01*
X172435500Y-95222396D01*
X172873517Y-95574666D01*
X173413000Y-95732500D01*
X173863000Y-95732500D01*
X173863000Y-94424500D01*
X174117000Y-94424500D01*
X174117000Y-95732500D01*
X174567000Y-95732500D01*
X175106483Y-95574666D01*
X175544500Y-95222396D01*
X175616107Y-95091561D01*
X221450000Y-95091561D01*
X221450000Y-95662439D01*
X221668466Y-96189862D01*
X222072138Y-96593534D01*
X222599561Y-96812000D01*
X223170439Y-96812000D01*
X223697862Y-96593534D01*
X224101534Y-96189862D01*
X224320000Y-95662439D01*
X224320000Y-95091561D01*
X224101534Y-94564138D01*
X223697862Y-94160466D01*
X223170439Y-93942000D01*
X222599561Y-93942000D01*
X222072138Y-94160466D01*
X221668466Y-94564138D01*
X221450000Y-95091561D01*
X175616107Y-95091561D01*
X175814367Y-94729319D01*
X175831904Y-94646539D01*
X175709915Y-94424500D01*
X174117000Y-94424500D01*
X173863000Y-94424500D01*
X172270085Y-94424500D01*
X172148096Y-94646539D01*
X171548352Y-94646539D01*
X170787000Y-94452500D01*
X169037000Y-94452500D01*
X168783000Y-94452500D01*
X167033000Y-94452500D01*
X166129967Y-94682648D01*
X165383747Y-95240853D01*
X164907946Y-96042133D01*
X164827573Y-96339497D01*
X160782000Y-96339497D01*
X160782000Y-91757500D01*
X172076887Y-91757500D01*
X172188260Y-92317409D01*
X172505423Y-92792077D01*
X172861499Y-93029999D01*
X172435500Y-93372604D01*
X172165633Y-93865681D01*
X172148096Y-93948461D01*
X172270085Y-94170500D01*
X173863000Y-94170500D01*
X173863000Y-94150500D01*
X174117000Y-94150500D01*
X174117000Y-94170500D01*
X175709915Y-94170500D01*
X175831904Y-93948461D01*
X175814367Y-93865681D01*
X175544500Y-93372604D01*
X175118501Y-93029999D01*
X175474577Y-92792077D01*
X175791740Y-92317409D01*
X175807045Y-92240463D01*
X186138500Y-92240463D01*
X186138500Y-92958537D01*
X186413295Y-93621950D01*
X186921050Y-94129705D01*
X187584463Y-94404500D01*
X188302537Y-94404500D01*
X188965950Y-94129705D01*
X189473705Y-93621950D01*
X189748500Y-92958537D01*
X189748500Y-92240463D01*
X189473705Y-91577050D01*
X188965950Y-91069295D01*
X188302537Y-90794500D01*
X187584463Y-90794500D01*
X186921050Y-91069295D01*
X186413295Y-91577050D01*
X186138500Y-92240463D01*
X175807045Y-92240463D01*
X175903113Y-91757500D01*
X175791740Y-91197591D01*
X175474577Y-90722923D01*
X174999909Y-90405760D01*
X174581333Y-90322500D01*
X173398667Y-90322500D01*
X172980091Y-90405760D01*
X172505423Y-90722923D01*
X172188260Y-91197591D01*
X172076887Y-91757500D01*
X160782000Y-91757500D01*
X160782000Y-89725431D01*
X213665000Y-89725431D01*
X213665000Y-90614569D01*
X214005259Y-91436026D01*
X214633974Y-92064741D01*
X215455431Y-92405000D01*
X216344569Y-92405000D01*
X217166026Y-92064741D01*
X217794741Y-91436026D01*
X218135000Y-90614569D01*
X218135000Y-89725431D01*
X217794741Y-88903974D01*
X217166026Y-88275259D01*
X216344569Y-87935000D01*
X215455431Y-87935000D01*
X214633974Y-88275259D01*
X214005259Y-88903974D01*
X213665000Y-89725431D01*
X160782000Y-89725431D01*
X160782000Y-87175503D01*
X164827573Y-87175503D01*
X164907946Y-87472867D01*
X165383747Y-88274147D01*
X166129967Y-88832352D01*
X167033000Y-89062500D01*
X168783000Y-89062500D01*
X168783000Y-86804500D01*
X169037000Y-86804500D01*
X169037000Y-89062500D01*
X170787000Y-89062500D01*
X171690033Y-88832352D01*
X172436253Y-88274147D01*
X172912054Y-87472867D01*
X172992427Y-87175503D01*
X172882625Y-86804500D01*
X169037000Y-86804500D01*
X168783000Y-86804500D01*
X164937375Y-86804500D01*
X164827573Y-87175503D01*
X160782000Y-87175503D01*
X160782000Y-86179497D01*
X164827573Y-86179497D01*
X164937375Y-86550500D01*
X168783000Y-86550500D01*
X168783000Y-84292500D01*
X169037000Y-84292500D01*
X169037000Y-86550500D01*
X172882625Y-86550500D01*
X172992427Y-86179497D01*
X172912054Y-85882133D01*
X172436253Y-85080853D01*
X171690033Y-84522648D01*
X170787000Y-84292500D01*
X169037000Y-84292500D01*
X168783000Y-84292500D01*
X167033000Y-84292500D01*
X166129967Y-84522648D01*
X165383747Y-85080853D01*
X164907946Y-85882133D01*
X164827573Y-86179497D01*
X160782000Y-86179497D01*
X160782000Y-83820000D01*
X192846887Y-83820000D01*
X192958260Y-84379909D01*
X193275423Y-84854577D01*
X193750091Y-85171740D01*
X194168667Y-85255000D01*
X194451333Y-85255000D01*
X194869909Y-85171740D01*
X195344577Y-84854577D01*
X195362505Y-84827745D01*
X203641861Y-84827745D01*
X203715995Y-85073864D01*
X204253223Y-85266965D01*
X204823454Y-85239778D01*
X205224005Y-85073864D01*
X205298139Y-84827745D01*
X204470000Y-83999605D01*
X203641861Y-84827745D01*
X195362505Y-84827745D01*
X195661740Y-84379909D01*
X195773113Y-83820000D01*
X195729994Y-83603223D01*
X203023035Y-83603223D01*
X203050222Y-84173454D01*
X203216136Y-84574005D01*
X203462255Y-84648139D01*
X204290395Y-83820000D01*
X204649605Y-83820000D01*
X205477745Y-84648139D01*
X205723864Y-84574005D01*
X205916965Y-84036777D01*
X205889778Y-83466546D01*
X205723864Y-83065995D01*
X205477745Y-82991861D01*
X204649605Y-83820000D01*
X204290395Y-83820000D01*
X203462255Y-82991861D01*
X203216136Y-83065995D01*
X203023035Y-83603223D01*
X195729994Y-83603223D01*
X195661740Y-83260091D01*
X195362506Y-82812255D01*
X203641861Y-82812255D01*
X204470000Y-83640395D01*
X205298139Y-82812255D01*
X205224005Y-82566136D01*
X204686777Y-82373035D01*
X204116546Y-82400222D01*
X203715995Y-82566136D01*
X203641861Y-82812255D01*
X195362506Y-82812255D01*
X195344577Y-82785423D01*
X194869909Y-82468260D01*
X194451333Y-82385000D01*
X194168667Y-82385000D01*
X193750091Y-82468260D01*
X193275423Y-82785423D01*
X192958260Y-83260091D01*
X192846887Y-83820000D01*
X160782000Y-83820000D01*
X160782000Y-82344126D01*
X211055000Y-82344126D01*
X211055000Y-82755874D01*
X211212569Y-83136280D01*
X211503720Y-83427431D01*
X211564076Y-83452431D01*
X213172483Y-85060838D01*
X213228832Y-85145170D01*
X213562919Y-85368400D01*
X213857525Y-85427001D01*
X213857529Y-85427001D01*
X213957000Y-85446787D01*
X214056471Y-85427001D01*
X221463659Y-85427001D01*
X221533260Y-85776909D01*
X221850423Y-86251577D01*
X222325091Y-86568740D01*
X222743667Y-86652000D01*
X223026333Y-86652000D01*
X223444909Y-86568740D01*
X223919577Y-86251577D01*
X224236740Y-85776909D01*
X224348113Y-85217000D01*
X224236740Y-84657091D01*
X223919577Y-84182423D01*
X223444909Y-83865260D01*
X223026333Y-83782000D01*
X222878355Y-83782000D01*
X222869518Y-83773163D01*
X222813170Y-83688832D01*
X222479083Y-83465602D01*
X222184477Y-83407001D01*
X222184472Y-83407001D01*
X222085001Y-83387215D01*
X221985530Y-83407001D01*
X214375356Y-83407001D01*
X212992431Y-82024076D01*
X212967431Y-81963720D01*
X212676280Y-81672569D01*
X212295874Y-81515000D01*
X211884126Y-81515000D01*
X211503720Y-81672569D01*
X211212569Y-81963720D01*
X211055000Y-82344126D01*
X160782000Y-82344126D01*
X160782000Y-77832365D01*
X165323782Y-77832365D01*
X165354095Y-77958028D01*
X165665149Y-78512746D01*
X166164807Y-78906203D01*
X166777000Y-79078500D01*
X167767000Y-79078500D01*
X167767000Y-77580500D01*
X168021000Y-77580500D01*
X168021000Y-79078500D01*
X169011000Y-79078500D01*
X169623193Y-78906203D01*
X169834257Y-78740000D01*
X192846887Y-78740000D01*
X192958260Y-79299909D01*
X193275423Y-79774577D01*
X193750091Y-80091740D01*
X194168667Y-80175000D01*
X194451333Y-80175000D01*
X194869909Y-80091740D01*
X195344577Y-79774577D01*
X195661740Y-79299909D01*
X195773113Y-78740000D01*
X195716336Y-78454561D01*
X203035000Y-78454561D01*
X203035000Y-79025439D01*
X203253466Y-79552862D01*
X203657138Y-79956534D01*
X204184561Y-80175000D01*
X204755439Y-80175000D01*
X205282862Y-79956534D01*
X205686534Y-79552862D01*
X205905000Y-79025439D01*
X205905000Y-78454561D01*
X205686534Y-77927138D01*
X205282862Y-77523466D01*
X204755439Y-77305000D01*
X204184561Y-77305000D01*
X203657138Y-77523466D01*
X203253466Y-77927138D01*
X203035000Y-78454561D01*
X195716336Y-78454561D01*
X195661740Y-78180091D01*
X195344577Y-77705423D01*
X194869909Y-77388260D01*
X194451333Y-77305000D01*
X194168667Y-77305000D01*
X193750091Y-77388260D01*
X193275423Y-77705423D01*
X192958260Y-78180091D01*
X192846887Y-78740000D01*
X169834257Y-78740000D01*
X170122851Y-78512746D01*
X170433905Y-77958028D01*
X170464218Y-77832365D01*
X170344740Y-77580500D01*
X168021000Y-77580500D01*
X167767000Y-77580500D01*
X165443260Y-77580500D01*
X165323782Y-77832365D01*
X160782000Y-77832365D01*
X160782000Y-77074635D01*
X165323782Y-77074635D01*
X165443260Y-77326500D01*
X167767000Y-77326500D01*
X167767000Y-75828500D01*
X168021000Y-75828500D01*
X168021000Y-77326500D01*
X170344740Y-77326500D01*
X170445069Y-77115000D01*
X215177560Y-77115000D01*
X215177560Y-79095000D01*
X215226843Y-79342765D01*
X215367191Y-79552809D01*
X215577235Y-79693157D01*
X215825000Y-79742440D01*
X219785000Y-79742440D01*
X220032765Y-79693157D01*
X220242809Y-79552809D01*
X220383157Y-79342765D01*
X220432440Y-79095000D01*
X220432440Y-77115000D01*
X220383157Y-76867235D01*
X220242809Y-76657191D01*
X220032765Y-76516843D01*
X219785000Y-76467560D01*
X215825000Y-76467560D01*
X215577235Y-76516843D01*
X215367191Y-76657191D01*
X215226843Y-76867235D01*
X215177560Y-77115000D01*
X170445069Y-77115000D01*
X170464218Y-77074635D01*
X170433905Y-76948972D01*
X170122851Y-76394254D01*
X169623193Y-76000797D01*
X169011000Y-75828500D01*
X168021000Y-75828500D01*
X167767000Y-75828500D01*
X166777000Y-75828500D01*
X166164807Y-76000797D01*
X165665149Y-76394254D01*
X165354095Y-76948972D01*
X165323782Y-77074635D01*
X160782000Y-77074635D01*
X160782000Y-71463500D01*
X165266560Y-71463500D01*
X165266560Y-73443500D01*
X165315843Y-73691265D01*
X165456191Y-73901309D01*
X165666235Y-74041657D01*
X165914000Y-74090940D01*
X169874000Y-74090940D01*
X170121765Y-74041657D01*
X170331809Y-73901309D01*
X170472157Y-73691265D01*
X170513410Y-73483865D01*
X215234782Y-73483865D01*
X215265095Y-73609528D01*
X215576149Y-74164246D01*
X216075807Y-74557703D01*
X216688000Y-74730000D01*
X217678000Y-74730000D01*
X217678000Y-73232000D01*
X217932000Y-73232000D01*
X217932000Y-74730000D01*
X218922000Y-74730000D01*
X219534193Y-74557703D01*
X220033851Y-74164246D01*
X220344905Y-73609528D01*
X220375218Y-73483865D01*
X220255740Y-73232000D01*
X217932000Y-73232000D01*
X217678000Y-73232000D01*
X215354260Y-73232000D01*
X215234782Y-73483865D01*
X170513410Y-73483865D01*
X170521440Y-73443500D01*
X170521440Y-71469561D01*
X192875000Y-71469561D01*
X192875000Y-72040439D01*
X193093466Y-72567862D01*
X193497138Y-72971534D01*
X194024561Y-73190000D01*
X194595439Y-73190000D01*
X195122862Y-72971534D01*
X195526534Y-72567862D01*
X195718655Y-72104039D01*
X203078096Y-72104039D01*
X203238959Y-72492423D01*
X203614866Y-72907389D01*
X204120959Y-73146914D01*
X204343000Y-73025629D01*
X204343000Y-71882000D01*
X204597000Y-71882000D01*
X204597000Y-73025629D01*
X204819041Y-73146914D01*
X205325134Y-72907389D01*
X205489327Y-72726135D01*
X215234782Y-72726135D01*
X215354260Y-72978000D01*
X217678000Y-72978000D01*
X217678000Y-71480000D01*
X217932000Y-71480000D01*
X217932000Y-72978000D01*
X220255740Y-72978000D01*
X220375218Y-72726135D01*
X220344905Y-72600472D01*
X220033851Y-72045754D01*
X219534193Y-71652297D01*
X218922000Y-71480000D01*
X217932000Y-71480000D01*
X217678000Y-71480000D01*
X216688000Y-71480000D01*
X216075807Y-71652297D01*
X215576149Y-72045754D01*
X215265095Y-72600472D01*
X215234782Y-72726135D01*
X205489327Y-72726135D01*
X205701041Y-72492423D01*
X205861904Y-72104039D01*
X205739915Y-71882000D01*
X204597000Y-71882000D01*
X204343000Y-71882000D01*
X203200085Y-71882000D01*
X203078096Y-72104039D01*
X195718655Y-72104039D01*
X195745000Y-72040439D01*
X195745000Y-71469561D01*
X195718656Y-71405961D01*
X203078096Y-71405961D01*
X203200085Y-71628000D01*
X204343000Y-71628000D01*
X204343000Y-70484371D01*
X204597000Y-70484371D01*
X204597000Y-71628000D01*
X205739915Y-71628000D01*
X205861904Y-71405961D01*
X205701041Y-71017577D01*
X205325134Y-70602611D01*
X204819041Y-70363086D01*
X204597000Y-70484371D01*
X204343000Y-70484371D01*
X204120959Y-70363086D01*
X203614866Y-70602611D01*
X203238959Y-71017577D01*
X203078096Y-71405961D01*
X195718656Y-71405961D01*
X195526534Y-70942138D01*
X195122862Y-70538466D01*
X194595439Y-70320000D01*
X194024561Y-70320000D01*
X193497138Y-70538466D01*
X193093466Y-70942138D01*
X192875000Y-71469561D01*
X170521440Y-71469561D01*
X170521440Y-71463500D01*
X170472157Y-71215735D01*
X170331809Y-71005691D01*
X170121765Y-70865343D01*
X169874000Y-70816060D01*
X165914000Y-70816060D01*
X165666235Y-70865343D01*
X165456191Y-71005691D01*
X165315843Y-71215735D01*
X165266560Y-71463500D01*
X160782000Y-71463500D01*
X160782000Y-69342000D01*
X224663000Y-69342000D01*
X224663000Y-100203000D01*
X224663000Y-100203000D01*
G37*
X224663000Y-100203000D02*
X160782000Y-100203000D01*
X160782000Y-97335503D01*
X164827573Y-97335503D01*
X164907946Y-97632867D01*
X165383747Y-98434147D01*
X166129967Y-98992352D01*
X167033000Y-99222500D01*
X168783000Y-99222500D01*
X168783000Y-96964500D01*
X169037000Y-96964500D01*
X169037000Y-99222500D01*
X170787000Y-99222500D01*
X171690033Y-98992352D01*
X172436253Y-98434147D01*
X172912054Y-97632867D01*
X172992427Y-97335503D01*
X172964299Y-97240463D01*
X181138500Y-97240463D01*
X181138500Y-97958537D01*
X181413295Y-98621950D01*
X181921050Y-99129705D01*
X182584463Y-99404500D01*
X183302537Y-99404500D01*
X183965950Y-99129705D01*
X184473705Y-98621950D01*
X184748500Y-97958537D01*
X184748500Y-97240463D01*
X191138500Y-97240463D01*
X191138500Y-97958537D01*
X191413295Y-98621950D01*
X191921050Y-99129705D01*
X192584463Y-99404500D01*
X193302537Y-99404500D01*
X193965950Y-99129705D01*
X194473705Y-98621950D01*
X194748500Y-97958537D01*
X194748500Y-97240463D01*
X194473705Y-96577050D01*
X193965950Y-96069295D01*
X193302537Y-95794500D01*
X192584463Y-95794500D01*
X191921050Y-96069295D01*
X191413295Y-96577050D01*
X191138500Y-97240463D01*
X184748500Y-97240463D01*
X184473705Y-96577050D01*
X183965950Y-96069295D01*
X183302537Y-95794500D01*
X182584463Y-95794500D01*
X181921050Y-96069295D01*
X181413295Y-96577050D01*
X181138500Y-97240463D01*
X172964299Y-97240463D01*
X172882625Y-96964500D01*
X169037000Y-96964500D01*
X168783000Y-96964500D01*
X164937375Y-96964500D01*
X164827573Y-97335503D01*
X160782000Y-97335503D01*
X160782000Y-96339497D01*
X164827573Y-96339497D01*
X164937375Y-96710500D01*
X168783000Y-96710500D01*
X168783000Y-94452500D01*
X169037000Y-94452500D01*
X169037000Y-96710500D01*
X172882625Y-96710500D01*
X172992427Y-96339497D01*
X172912054Y-96042133D01*
X172436253Y-95240853D01*
X171690033Y-94682648D01*
X171548352Y-94646539D01*
X172148096Y-94646539D01*
X172165633Y-94729319D01*
X172435500Y-95222396D01*
X172873517Y-95574666D01*
X173413000Y-95732500D01*
X173863000Y-95732500D01*
X173863000Y-94424500D01*
X174117000Y-94424500D01*
X174117000Y-95732500D01*
X174567000Y-95732500D01*
X175106483Y-95574666D01*
X175544500Y-95222396D01*
X175616107Y-95091561D01*
X221450000Y-95091561D01*
X221450000Y-95662439D01*
X221668466Y-96189862D01*
X222072138Y-96593534D01*
X222599561Y-96812000D01*
X223170439Y-96812000D01*
X223697862Y-96593534D01*
X224101534Y-96189862D01*
X224320000Y-95662439D01*
X224320000Y-95091561D01*
X224101534Y-94564138D01*
X223697862Y-94160466D01*
X223170439Y-93942000D01*
X222599561Y-93942000D01*
X222072138Y-94160466D01*
X221668466Y-94564138D01*
X221450000Y-95091561D01*
X175616107Y-95091561D01*
X175814367Y-94729319D01*
X175831904Y-94646539D01*
X175709915Y-94424500D01*
X174117000Y-94424500D01*
X173863000Y-94424500D01*
X172270085Y-94424500D01*
X172148096Y-94646539D01*
X171548352Y-94646539D01*
X170787000Y-94452500D01*
X169037000Y-94452500D01*
X168783000Y-94452500D01*
X167033000Y-94452500D01*
X166129967Y-94682648D01*
X165383747Y-95240853D01*
X164907946Y-96042133D01*
X164827573Y-96339497D01*
X160782000Y-96339497D01*
X160782000Y-91757500D01*
X172076887Y-91757500D01*
X172188260Y-92317409D01*
X172505423Y-92792077D01*
X172861499Y-93029999D01*
X172435500Y-93372604D01*
X172165633Y-93865681D01*
X172148096Y-93948461D01*
X172270085Y-94170500D01*
X173863000Y-94170500D01*
X173863000Y-94150500D01*
X174117000Y-94150500D01*
X174117000Y-94170500D01*
X175709915Y-94170500D01*
X175831904Y-93948461D01*
X175814367Y-93865681D01*
X175544500Y-93372604D01*
X175118501Y-93029999D01*
X175474577Y-92792077D01*
X175791740Y-92317409D01*
X175807045Y-92240463D01*
X186138500Y-92240463D01*
X186138500Y-92958537D01*
X186413295Y-93621950D01*
X186921050Y-94129705D01*
X187584463Y-94404500D01*
X188302537Y-94404500D01*
X188965950Y-94129705D01*
X189473705Y-93621950D01*
X189748500Y-92958537D01*
X189748500Y-92240463D01*
X189473705Y-91577050D01*
X188965950Y-91069295D01*
X188302537Y-90794500D01*
X187584463Y-90794500D01*
X186921050Y-91069295D01*
X186413295Y-91577050D01*
X186138500Y-92240463D01*
X175807045Y-92240463D01*
X175903113Y-91757500D01*
X175791740Y-91197591D01*
X175474577Y-90722923D01*
X174999909Y-90405760D01*
X174581333Y-90322500D01*
X173398667Y-90322500D01*
X172980091Y-90405760D01*
X172505423Y-90722923D01*
X172188260Y-91197591D01*
X172076887Y-91757500D01*
X160782000Y-91757500D01*
X160782000Y-89725431D01*
X213665000Y-89725431D01*
X213665000Y-90614569D01*
X214005259Y-91436026D01*
X214633974Y-92064741D01*
X215455431Y-92405000D01*
X216344569Y-92405000D01*
X217166026Y-92064741D01*
X217794741Y-91436026D01*
X218135000Y-90614569D01*
X218135000Y-89725431D01*
X217794741Y-88903974D01*
X217166026Y-88275259D01*
X216344569Y-87935000D01*
X215455431Y-87935000D01*
X214633974Y-88275259D01*
X214005259Y-88903974D01*
X213665000Y-89725431D01*
X160782000Y-89725431D01*
X160782000Y-87175503D01*
X164827573Y-87175503D01*
X164907946Y-87472867D01*
X165383747Y-88274147D01*
X166129967Y-88832352D01*
X167033000Y-89062500D01*
X168783000Y-89062500D01*
X168783000Y-86804500D01*
X169037000Y-86804500D01*
X169037000Y-89062500D01*
X170787000Y-89062500D01*
X171690033Y-88832352D01*
X172436253Y-88274147D01*
X172912054Y-87472867D01*
X172992427Y-87175503D01*
X172882625Y-86804500D01*
X169037000Y-86804500D01*
X168783000Y-86804500D01*
X164937375Y-86804500D01*
X164827573Y-87175503D01*
X160782000Y-87175503D01*
X160782000Y-86179497D01*
X164827573Y-86179497D01*
X164937375Y-86550500D01*
X168783000Y-86550500D01*
X168783000Y-84292500D01*
X169037000Y-84292500D01*
X169037000Y-86550500D01*
X172882625Y-86550500D01*
X172992427Y-86179497D01*
X172912054Y-85882133D01*
X172436253Y-85080853D01*
X171690033Y-84522648D01*
X170787000Y-84292500D01*
X169037000Y-84292500D01*
X168783000Y-84292500D01*
X167033000Y-84292500D01*
X166129967Y-84522648D01*
X165383747Y-85080853D01*
X164907946Y-85882133D01*
X164827573Y-86179497D01*
X160782000Y-86179497D01*
X160782000Y-83820000D01*
X192846887Y-83820000D01*
X192958260Y-84379909D01*
X193275423Y-84854577D01*
X193750091Y-85171740D01*
X194168667Y-85255000D01*
X194451333Y-85255000D01*
X194869909Y-85171740D01*
X195344577Y-84854577D01*
X195362505Y-84827745D01*
X203641861Y-84827745D01*
X203715995Y-85073864D01*
X204253223Y-85266965D01*
X204823454Y-85239778D01*
X205224005Y-85073864D01*
X205298139Y-84827745D01*
X204470000Y-83999605D01*
X203641861Y-84827745D01*
X195362505Y-84827745D01*
X195661740Y-84379909D01*
X195773113Y-83820000D01*
X195729994Y-83603223D01*
X203023035Y-83603223D01*
X203050222Y-84173454D01*
X203216136Y-84574005D01*
X203462255Y-84648139D01*
X204290395Y-83820000D01*
X204649605Y-83820000D01*
X205477745Y-84648139D01*
X205723864Y-84574005D01*
X205916965Y-84036777D01*
X205889778Y-83466546D01*
X205723864Y-83065995D01*
X205477745Y-82991861D01*
X204649605Y-83820000D01*
X204290395Y-83820000D01*
X203462255Y-82991861D01*
X203216136Y-83065995D01*
X203023035Y-83603223D01*
X195729994Y-83603223D01*
X195661740Y-83260091D01*
X195362506Y-82812255D01*
X203641861Y-82812255D01*
X204470000Y-83640395D01*
X205298139Y-82812255D01*
X205224005Y-82566136D01*
X204686777Y-82373035D01*
X204116546Y-82400222D01*
X203715995Y-82566136D01*
X203641861Y-82812255D01*
X195362506Y-82812255D01*
X195344577Y-82785423D01*
X194869909Y-82468260D01*
X194451333Y-82385000D01*
X194168667Y-82385000D01*
X193750091Y-82468260D01*
X193275423Y-82785423D01*
X192958260Y-83260091D01*
X192846887Y-83820000D01*
X160782000Y-83820000D01*
X160782000Y-82344126D01*
X211055000Y-82344126D01*
X211055000Y-82755874D01*
X211212569Y-83136280D01*
X211503720Y-83427431D01*
X211564076Y-83452431D01*
X213172483Y-85060838D01*
X213228832Y-85145170D01*
X213562919Y-85368400D01*
X213857525Y-85427001D01*
X213857529Y-85427001D01*
X213957000Y-85446787D01*
X214056471Y-85427001D01*
X221463659Y-85427001D01*
X221533260Y-85776909D01*
X221850423Y-86251577D01*
X222325091Y-86568740D01*
X222743667Y-86652000D01*
X223026333Y-86652000D01*
X223444909Y-86568740D01*
X223919577Y-86251577D01*
X224236740Y-85776909D01*
X224348113Y-85217000D01*
X224236740Y-84657091D01*
X223919577Y-84182423D01*
X223444909Y-83865260D01*
X223026333Y-83782000D01*
X222878355Y-83782000D01*
X222869518Y-83773163D01*
X222813170Y-83688832D01*
X222479083Y-83465602D01*
X222184477Y-83407001D01*
X222184472Y-83407001D01*
X222085001Y-83387215D01*
X221985530Y-83407001D01*
X214375356Y-83407001D01*
X212992431Y-82024076D01*
X212967431Y-81963720D01*
X212676280Y-81672569D01*
X212295874Y-81515000D01*
X211884126Y-81515000D01*
X211503720Y-81672569D01*
X211212569Y-81963720D01*
X211055000Y-82344126D01*
X160782000Y-82344126D01*
X160782000Y-77832365D01*
X165323782Y-77832365D01*
X165354095Y-77958028D01*
X165665149Y-78512746D01*
X166164807Y-78906203D01*
X166777000Y-79078500D01*
X167767000Y-79078500D01*
X167767000Y-77580500D01*
X168021000Y-77580500D01*
X168021000Y-79078500D01*
X169011000Y-79078500D01*
X169623193Y-78906203D01*
X169834257Y-78740000D01*
X192846887Y-78740000D01*
X192958260Y-79299909D01*
X193275423Y-79774577D01*
X193750091Y-80091740D01*
X194168667Y-80175000D01*
X194451333Y-80175000D01*
X194869909Y-80091740D01*
X195344577Y-79774577D01*
X195661740Y-79299909D01*
X195773113Y-78740000D01*
X195716336Y-78454561D01*
X203035000Y-78454561D01*
X203035000Y-79025439D01*
X203253466Y-79552862D01*
X203657138Y-79956534D01*
X204184561Y-80175000D01*
X204755439Y-80175000D01*
X205282862Y-79956534D01*
X205686534Y-79552862D01*
X205905000Y-79025439D01*
X205905000Y-78454561D01*
X205686534Y-77927138D01*
X205282862Y-77523466D01*
X204755439Y-77305000D01*
X204184561Y-77305000D01*
X203657138Y-77523466D01*
X203253466Y-77927138D01*
X203035000Y-78454561D01*
X195716336Y-78454561D01*
X195661740Y-78180091D01*
X195344577Y-77705423D01*
X194869909Y-77388260D01*
X194451333Y-77305000D01*
X194168667Y-77305000D01*
X193750091Y-77388260D01*
X193275423Y-77705423D01*
X192958260Y-78180091D01*
X192846887Y-78740000D01*
X169834257Y-78740000D01*
X170122851Y-78512746D01*
X170433905Y-77958028D01*
X170464218Y-77832365D01*
X170344740Y-77580500D01*
X168021000Y-77580500D01*
X167767000Y-77580500D01*
X165443260Y-77580500D01*
X165323782Y-77832365D01*
X160782000Y-77832365D01*
X160782000Y-77074635D01*
X165323782Y-77074635D01*
X165443260Y-77326500D01*
X167767000Y-77326500D01*
X167767000Y-75828500D01*
X168021000Y-75828500D01*
X168021000Y-77326500D01*
X170344740Y-77326500D01*
X170445069Y-77115000D01*
X215177560Y-77115000D01*
X215177560Y-79095000D01*
X215226843Y-79342765D01*
X215367191Y-79552809D01*
X215577235Y-79693157D01*
X215825000Y-79742440D01*
X219785000Y-79742440D01*
X220032765Y-79693157D01*
X220242809Y-79552809D01*
X220383157Y-79342765D01*
X220432440Y-79095000D01*
X220432440Y-77115000D01*
X220383157Y-76867235D01*
X220242809Y-76657191D01*
X220032765Y-76516843D01*
X219785000Y-76467560D01*
X215825000Y-76467560D01*
X215577235Y-76516843D01*
X215367191Y-76657191D01*
X215226843Y-76867235D01*
X215177560Y-77115000D01*
X170445069Y-77115000D01*
X170464218Y-77074635D01*
X170433905Y-76948972D01*
X170122851Y-76394254D01*
X169623193Y-76000797D01*
X169011000Y-75828500D01*
X168021000Y-75828500D01*
X167767000Y-75828500D01*
X166777000Y-75828500D01*
X166164807Y-76000797D01*
X165665149Y-76394254D01*
X165354095Y-76948972D01*
X165323782Y-77074635D01*
X160782000Y-77074635D01*
X160782000Y-71463500D01*
X165266560Y-71463500D01*
X165266560Y-73443500D01*
X165315843Y-73691265D01*
X165456191Y-73901309D01*
X165666235Y-74041657D01*
X165914000Y-74090940D01*
X169874000Y-74090940D01*
X170121765Y-74041657D01*
X170331809Y-73901309D01*
X170472157Y-73691265D01*
X170513410Y-73483865D01*
X215234782Y-73483865D01*
X215265095Y-73609528D01*
X215576149Y-74164246D01*
X216075807Y-74557703D01*
X216688000Y-74730000D01*
X217678000Y-74730000D01*
X217678000Y-73232000D01*
X217932000Y-73232000D01*
X217932000Y-74730000D01*
X218922000Y-74730000D01*
X219534193Y-74557703D01*
X220033851Y-74164246D01*
X220344905Y-73609528D01*
X220375218Y-73483865D01*
X220255740Y-73232000D01*
X217932000Y-73232000D01*
X217678000Y-73232000D01*
X215354260Y-73232000D01*
X215234782Y-73483865D01*
X170513410Y-73483865D01*
X170521440Y-73443500D01*
X170521440Y-71469561D01*
X192875000Y-71469561D01*
X192875000Y-72040439D01*
X193093466Y-72567862D01*
X193497138Y-72971534D01*
X194024561Y-73190000D01*
X194595439Y-73190000D01*
X195122862Y-72971534D01*
X195526534Y-72567862D01*
X195718655Y-72104039D01*
X203078096Y-72104039D01*
X203238959Y-72492423D01*
X203614866Y-72907389D01*
X204120959Y-73146914D01*
X204343000Y-73025629D01*
X204343000Y-71882000D01*
X204597000Y-71882000D01*
X204597000Y-73025629D01*
X204819041Y-73146914D01*
X205325134Y-72907389D01*
X205489327Y-72726135D01*
X215234782Y-72726135D01*
X215354260Y-72978000D01*
X217678000Y-72978000D01*
X217678000Y-71480000D01*
X217932000Y-71480000D01*
X217932000Y-72978000D01*
X220255740Y-72978000D01*
X220375218Y-72726135D01*
X220344905Y-72600472D01*
X220033851Y-72045754D01*
X219534193Y-71652297D01*
X218922000Y-71480000D01*
X217932000Y-71480000D01*
X217678000Y-71480000D01*
X216688000Y-71480000D01*
X216075807Y-71652297D01*
X215576149Y-72045754D01*
X215265095Y-72600472D01*
X215234782Y-72726135D01*
X205489327Y-72726135D01*
X205701041Y-72492423D01*
X205861904Y-72104039D01*
X205739915Y-71882000D01*
X204597000Y-71882000D01*
X204343000Y-71882000D01*
X203200085Y-71882000D01*
X203078096Y-72104039D01*
X195718655Y-72104039D01*
X195745000Y-72040439D01*
X195745000Y-71469561D01*
X195718656Y-71405961D01*
X203078096Y-71405961D01*
X203200085Y-71628000D01*
X204343000Y-71628000D01*
X204343000Y-70484371D01*
X204597000Y-70484371D01*
X204597000Y-71628000D01*
X205739915Y-71628000D01*
X205861904Y-71405961D01*
X205701041Y-71017577D01*
X205325134Y-70602611D01*
X204819041Y-70363086D01*
X204597000Y-70484371D01*
X204343000Y-70484371D01*
X204120959Y-70363086D01*
X203614866Y-70602611D01*
X203238959Y-71017577D01*
X203078096Y-71405961D01*
X195718656Y-71405961D01*
X195526534Y-70942138D01*
X195122862Y-70538466D01*
X194595439Y-70320000D01*
X194024561Y-70320000D01*
X193497138Y-70538466D01*
X193093466Y-70942138D01*
X192875000Y-71469561D01*
X170521440Y-71469561D01*
X170521440Y-71463500D01*
X170472157Y-71215735D01*
X170331809Y-71005691D01*
X170121765Y-70865343D01*
X169874000Y-70816060D01*
X165914000Y-70816060D01*
X165666235Y-70865343D01*
X165456191Y-71005691D01*
X165315843Y-71215735D01*
X165266560Y-71463500D01*
X160782000Y-71463500D01*
X160782000Y-69342000D01*
X224663000Y-69342000D01*
X224663000Y-100203000D01*
G04 #@! TD*
M02*
