G04 #@! TF.GenerationSoftware,KiCad,Pcbnew,5.0.2-bee76a0~70~ubuntu18.04.1*
G04 #@! TF.CreationDate,2019-07-10T16:12:49+01:00*
G04 #@! TF.ProjectId,led_driver,6c65645f-6472-4697-9665-722e6b696361,rev?*
G04 #@! TF.SameCoordinates,Original*
G04 #@! TF.FileFunction,Copper,L1,Top*
G04 #@! TF.FilePolarity,Positive*
%FSLAX46Y46*%
G04 Gerber Fmt 4.6, Leading zero omitted, Abs format (unit mm)*
G04 Created by KiCad (PCBNEW 5.0.2-bee76a0~70~ubuntu18.04.1) date Wed 10 Jul 2019 16:12:49 BST*
%MOMM*%
%LPD*%
G01*
G04 APERTURE LIST*
G04 #@! TA.AperFunction,ComponentPad*
%ADD10R,1.600000X1.600000*%
G04 #@! TD*
G04 #@! TA.AperFunction,ComponentPad*
%ADD11C,1.600000*%
G04 #@! TD*
G04 #@! TA.AperFunction,ComponentPad*
%ADD12C,2.000000*%
G04 #@! TD*
G04 #@! TA.AperFunction,ComponentPad*
%ADD13R,2.200000X2.200000*%
G04 #@! TD*
G04 #@! TA.AperFunction,ComponentPad*
%ADD14O,2.200000X2.200000*%
G04 #@! TD*
G04 #@! TA.AperFunction,ComponentPad*
%ADD15O,3.960000X1.980000*%
G04 #@! TD*
G04 #@! TA.AperFunction,ComponentPad*
%ADD16R,3.960000X1.980000*%
G04 #@! TD*
G04 #@! TA.AperFunction,ComponentPad*
%ADD17O,7.000000X3.500000*%
G04 #@! TD*
G04 #@! TA.AperFunction,ComponentPad*
%ADD18O,2.500000X1.600000*%
G04 #@! TD*
G04 #@! TA.AperFunction,ComponentPad*
%ADD19C,2.600000*%
G04 #@! TD*
G04 #@! TA.AperFunction,SMDPad,CuDef*
%ADD20R,0.700000X0.800000*%
G04 #@! TD*
G04 #@! TA.AperFunction,SMDPad,CuDef*
%ADD21R,4.500000X4.290000*%
G04 #@! TD*
G04 #@! TA.AperFunction,SMDPad,CuDef*
%ADD22R,0.600000X1.550000*%
G04 #@! TD*
G04 #@! TA.AperFunction,ComponentPad*
%ADD23O,1.600000X1.600000*%
G04 #@! TD*
G04 #@! TA.AperFunction,ComponentPad*
%ADD24C,2.340000*%
G04 #@! TD*
G04 #@! TA.AperFunction,ViaPad*
%ADD25C,0.800000*%
G04 #@! TD*
G04 #@! TA.AperFunction,Conductor*
%ADD26C,0.750000*%
G04 #@! TD*
G04 #@! TA.AperFunction,Conductor*
%ADD27C,1.000000*%
G04 #@! TD*
G04 APERTURE END LIST*
D10*
G04 #@! TO.P,C1,1*
G04 #@! TO.N,Net-(C1-Pad1)*
X124714000Y-67296800D03*
D11*
G04 #@! TO.P,C1,2*
G04 #@! TO.N,GND*
X124714000Y-64796800D03*
G04 #@! TD*
D10*
G04 #@! TO.P,C2,1*
G04 #@! TO.N,Net-(C2-Pad1)*
X127000000Y-91000000D03*
D11*
G04 #@! TO.P,C2,2*
G04 #@! TO.N,GND*
X127000000Y-96000000D03*
G04 #@! TD*
D12*
G04 #@! TO.P,C3,1*
G04 #@! TO.N,GND*
X129000000Y-85200000D03*
G04 #@! TO.P,C3,2*
G04 #@! TO.N,Net-(C2-Pad1)*
X121500000Y-85200000D03*
G04 #@! TD*
D11*
G04 #@! TO.P,C4,2*
G04 #@! TO.N,GND*
X106500000Y-68250000D03*
D10*
G04 #@! TO.P,C4,1*
G04 #@! TO.N,VDD*
X106500000Y-63250000D03*
G04 #@! TD*
D12*
G04 #@! TO.P,C5,2*
G04 #@! TO.N,GND*
X115163600Y-72612400D03*
G04 #@! TO.P,C5,1*
G04 #@! TO.N,VDD*
X115163600Y-65112400D03*
G04 #@! TD*
D13*
G04 #@! TO.P,D1,1*
G04 #@! TO.N,Net-(D1-Pad1)*
X117000000Y-77000000D03*
D14*
G04 #@! TO.P,D1,2*
G04 #@! TO.N,GND*
X106840000Y-77000000D03*
G04 #@! TD*
D15*
G04 #@! TO.P,J1,2*
G04 #@! TO.N,GND*
X93000000Y-70000000D03*
D16*
G04 #@! TO.P,J1,1*
G04 #@! TO.N,VDD*
X93000000Y-65000000D03*
G04 #@! TD*
G04 #@! TO.P,J2,1*
G04 #@! TO.N,Net-(J2-Pad1)*
X144000000Y-63000000D03*
D15*
G04 #@! TO.P,J2,2*
G04 #@! TO.N,GND*
X144000000Y-58000000D03*
G04 #@! TD*
D17*
G04 #@! TO.P,J3,2*
G04 #@! TO.N,GND*
X94259400Y-89484200D03*
X94259400Y-79324200D03*
D18*
G04 #@! TO.P,J3,1*
G04 #@! TO.N,Net-(J3-Pad1)*
X99339400Y-84404200D03*
G04 #@! TO.P,J3,2*
G04 #@! TO.N,GND*
X99339400Y-86944200D03*
G04 #@! TD*
D19*
G04 #@! TO.P,L1,1*
G04 #@! TO.N,Net-(D1-Pad1)*
X110000000Y-84200000D03*
G04 #@! TO.P,L1,2*
G04 #@! TO.N,Net-(C2-Pad1)*
X113000000Y-84200000D03*
G04 #@! TD*
D20*
G04 #@! TO.P,Q1,1*
G04 #@! TO.N,GND*
X157310000Y-84850000D03*
G04 #@! TO.P,Q1,2*
X156040000Y-84850000D03*
G04 #@! TO.P,Q1,3*
X154760000Y-84850000D03*
G04 #@! TO.P,Q1,4*
G04 #@! TO.N,Net-(J3-Pad1)*
X153490000Y-84850000D03*
G04 #@! TO.P,Q1,5*
G04 #@! TO.N,Net-(Q1-Pad5)*
X153490000Y-90350000D03*
X154760000Y-90350000D03*
X156040000Y-90350000D03*
X157310000Y-90350000D03*
D21*
X155400000Y-88100000D03*
G04 #@! TD*
D22*
G04 #@! TO.P,Q2,1*
G04 #@! TO.N,Net-(C2-Pad1)*
X146305000Y-84900000D03*
G04 #@! TO.P,Q2,2*
X145035000Y-84900000D03*
G04 #@! TO.P,Q2,3*
X143765000Y-84900000D03*
G04 #@! TO.P,Q2,4*
G04 #@! TO.N,Net-(Q1-Pad5)*
X142495000Y-84900000D03*
G04 #@! TO.P,Q2,5*
G04 #@! TO.N,Net-(Q2-Pad5)*
X142495000Y-90300000D03*
G04 #@! TO.P,Q2,6*
X143765000Y-90300000D03*
G04 #@! TO.P,Q2,7*
X145035000Y-90300000D03*
G04 #@! TO.P,Q2,8*
X146305000Y-90300000D03*
G04 #@! TD*
D11*
G04 #@! TO.P,R1,1*
G04 #@! TO.N,Net-(R1-Pad1)*
X138500000Y-80098400D03*
D23*
G04 #@! TO.P,R1,2*
G04 #@! TO.N,GND*
X138500000Y-69938400D03*
G04 #@! TD*
G04 #@! TO.P,R2,2*
G04 #@! TO.N,Net-(R2-Pad2)*
X133959600Y-70000000D03*
D11*
G04 #@! TO.P,R2,1*
G04 #@! TO.N,VDD*
X133959600Y-80160000D03*
G04 #@! TD*
D23*
G04 #@! TO.P,R3,2*
G04 #@! TO.N,Net-(R3-Pad2)*
X135000000Y-94360000D03*
D11*
G04 #@! TO.P,R3,1*
G04 #@! TO.N,Net-(C2-Pad1)*
X135000000Y-84200000D03*
G04 #@! TD*
G04 #@! TO.P,R4,1*
G04 #@! TO.N,Net-(Q1-Pad5)*
X146250000Y-70000000D03*
D23*
G04 #@! TO.P,R4,2*
G04 #@! TO.N,Net-(C2-Pad1)*
X146250000Y-80160000D03*
G04 #@! TD*
D11*
G04 #@! TO.P,R5,1*
G04 #@! TO.N,GND*
X150000000Y-70000000D03*
D23*
G04 #@! TO.P,R5,2*
G04 #@! TO.N,Net-(J3-Pad1)*
X150000000Y-80160000D03*
G04 #@! TD*
G04 #@! TO.P,R6,2*
G04 #@! TO.N,GND*
X142500000Y-70000000D03*
D11*
G04 #@! TO.P,R6,1*
G04 #@! TO.N,Net-(Q2-Pad5)*
X142500000Y-80160000D03*
G04 #@! TD*
G04 #@! TO.P,R7,1*
G04 #@! TO.N,Net-(R7-Pad1)*
X150000000Y-96000000D03*
D23*
G04 #@! TO.P,R7,2*
G04 #@! TO.N,Net-(Q2-Pad5)*
X139840000Y-96000000D03*
G04 #@! TD*
D24*
G04 #@! TO.P,RV1,1*
G04 #@! TO.N,Net-(R1-Pad1)*
X119000000Y-91500000D03*
G04 #@! TO.P,RV1,2*
G04 #@! TO.N,Net-(RV1-Pad2)*
X114000000Y-96500000D03*
G04 #@! TO.P,RV1,3*
G04 #@! TO.N,Net-(R3-Pad2)*
X109000000Y-91500000D03*
G04 #@! TD*
G04 #@! TO.P,RV2,3*
G04 #@! TO.N,Net-(R7-Pad1)*
X154000000Y-80000000D03*
G04 #@! TO.P,RV2,2*
G04 #@! TO.N,Net-(J2-Pad1)*
X159000000Y-75000000D03*
G04 #@! TO.P,RV2,1*
G04 #@! TO.N,N/C*
X154000000Y-70000000D03*
G04 #@! TD*
D10*
G04 #@! TO.P,U1,1*
G04 #@! TO.N,Net-(R2-Pad2)*
X129438400Y-71360800D03*
D23*
G04 #@! TO.P,U1,5*
G04 #@! TO.N,Net-(RV1-Pad2)*
X121818400Y-78980800D03*
G04 #@! TO.P,U1,2*
G04 #@! TO.N,Net-(D1-Pad1)*
X126898400Y-71360800D03*
G04 #@! TO.P,U1,6*
G04 #@! TO.N,VDD*
X124358400Y-78980800D03*
G04 #@! TO.P,U1,3*
G04 #@! TO.N,Net-(C1-Pad1)*
X124358400Y-71360800D03*
G04 #@! TO.P,U1,7*
G04 #@! TO.N,Net-(R2-Pad2)*
X126898400Y-78980800D03*
G04 #@! TO.P,U1,4*
G04 #@! TO.N,GND*
X121818400Y-71360800D03*
G04 #@! TO.P,U1,8*
G04 #@! TO.N,Net-(R2-Pad2)*
X129438400Y-78980800D03*
G04 #@! TD*
D25*
G04 #@! TO.N,GND*
X156040000Y-83700000D03*
G04 #@! TO.N,Net-(Q1-Pad5)*
X148800000Y-88600000D03*
X141200000Y-86200000D03*
G04 #@! TO.N,Net-(Q2-Pad5)*
X139840000Y-92955000D03*
G04 #@! TD*
D26*
G04 #@! TO.N,GND*
X154760000Y-84850000D02*
X157310000Y-84850000D01*
X156040000Y-84850000D02*
X156040000Y-83700000D01*
X156000000Y-83660000D02*
X156040000Y-83700000D01*
D27*
G04 #@! TO.N,Net-(J2-Pad1)*
X146980000Y-63000000D02*
X144000000Y-63000000D01*
X149915602Y-63000000D02*
X146980000Y-63000000D01*
X159000000Y-72084398D02*
X149915602Y-63000000D01*
X159000000Y-75000000D02*
X159000000Y-72084398D01*
D26*
G04 #@! TO.N,Net-(Q1-Pad5)*
X146250000Y-71131370D02*
X144400000Y-72981370D01*
X146250000Y-70000000D02*
X146250000Y-71131370D01*
X144400000Y-72981370D02*
X144400000Y-81800000D01*
X142495000Y-83375000D02*
X142495000Y-84900000D01*
X144070000Y-81800000D02*
X142495000Y-83375000D01*
X144400000Y-81800000D02*
X144070000Y-81800000D01*
X141200000Y-86195000D02*
X142495000Y-84900000D01*
X141200000Y-86200000D02*
X141200000Y-86195000D01*
X154900000Y-88600000D02*
X155400000Y-88100000D01*
X151740000Y-88600000D02*
X153490000Y-90350000D01*
X153490000Y-90350000D02*
X157310000Y-90350000D01*
X152240000Y-88100000D02*
X155400000Y-88100000D01*
X151740000Y-88600000D02*
X152240000Y-88100000D01*
X151740000Y-88600000D02*
X148800000Y-88600000D01*
G04 #@! TO.N,Net-(Q2-Pad5)*
X146305000Y-92405000D02*
X146305000Y-90300000D01*
D27*
X139840000Y-92955000D02*
X142845000Y-92955000D01*
X142845000Y-92955000D02*
X143765000Y-92035000D01*
X143765000Y-92035000D02*
X143765000Y-90300000D01*
X142845000Y-92955000D02*
X144445000Y-92955000D01*
X145035000Y-92365000D02*
X145035000Y-90300000D01*
X144445000Y-92955000D02*
X145035000Y-92365000D01*
X145755000Y-92955000D02*
X146000000Y-92710000D01*
X144445000Y-92955000D02*
X145755000Y-92955000D01*
X146000000Y-92710000D02*
X146180000Y-92530000D01*
D26*
X146180000Y-92530000D02*
X146305000Y-92405000D01*
D27*
X142495000Y-90300000D02*
X139840000Y-92955000D01*
X139840000Y-92955000D02*
X139840000Y-96000000D01*
D26*
G04 #@! TO.N,Net-(C1-Pad1)*
X124714000Y-71005200D02*
X124358400Y-71360800D01*
G04 #@! TO.N,Net-(C2-Pad1)*
X113000000Y-84200000D02*
X116600000Y-84200000D01*
X120500001Y-84200001D02*
X121500000Y-85200000D01*
X116600000Y-84200000D02*
X120500001Y-84200001D01*
X116600000Y-84200000D02*
X117800000Y-84200000D01*
X143765000Y-86425000D02*
X143765000Y-84900000D01*
X142590000Y-87600000D02*
X143765000Y-86425000D01*
X145035000Y-85375000D02*
X145035000Y-84900000D01*
X142590000Y-87600000D02*
X142810000Y-87600000D01*
X142590000Y-87600000D02*
X145400000Y-87600000D01*
D27*
X120500000Y-84200000D02*
X121500000Y-85200000D01*
X113000000Y-84200000D02*
X120500000Y-84200000D01*
X117800000Y-84200000D02*
X119600000Y-82400000D01*
X133200000Y-82400000D02*
X135000000Y-84200000D01*
X119600000Y-82400000D02*
X133200000Y-82400000D01*
X117000000Y-84200000D02*
X123800000Y-91000000D01*
X116600000Y-84200000D02*
X117000000Y-84200000D01*
X123800000Y-91000000D02*
X127000000Y-91000000D01*
X136400000Y-84200000D02*
X139800000Y-87600000D01*
X135000000Y-84200000D02*
X136400000Y-84200000D01*
D26*
X139800000Y-87600000D02*
X142590000Y-87600000D01*
D27*
X142810000Y-87600000D02*
X145035000Y-85375000D01*
X139800000Y-87600000D02*
X142810000Y-87600000D01*
X145400000Y-87600000D02*
X146180000Y-86820000D01*
X142810000Y-87600000D02*
X145400000Y-87600000D01*
D26*
X146180000Y-86820000D02*
X146305000Y-86695000D01*
D27*
X146250000Y-80160000D02*
X146250000Y-82248285D01*
X146250000Y-82000000D02*
X146250000Y-82248285D01*
D26*
X146250000Y-80160000D02*
X146250000Y-82000000D01*
D27*
X146180000Y-82070000D02*
X146250000Y-82000000D01*
X146180000Y-86820000D02*
X146180000Y-82070000D01*
G04 #@! TO.N,VDD*
X104750000Y-65000000D02*
X106500000Y-63250000D01*
X93000000Y-65000000D02*
X104750000Y-65000000D01*
X104862400Y-65112400D02*
X115163600Y-65112400D01*
X104750000Y-65000000D02*
X104862400Y-65112400D01*
X116577600Y-67940613D02*
X116577600Y-71200000D01*
X115163600Y-66526613D02*
X116577600Y-67940613D01*
X115163600Y-65112400D02*
X115163600Y-66526613D01*
X116577600Y-71200000D02*
X124358400Y-78980800D01*
X132407429Y-80580801D02*
X132828230Y-80160000D01*
X132828230Y-80160000D02*
X133959600Y-80160000D01*
X125958401Y-80580801D02*
X132407429Y-80580801D01*
X124358400Y-78980800D02*
X125958401Y-80580801D01*
D26*
G04 #@! TO.N,Net-(J3-Pad1)*
X99339400Y-84404200D02*
X99595800Y-84404200D01*
X101339400Y-84404200D02*
X101343600Y-84400000D01*
X99339400Y-84404200D02*
X101339400Y-84404200D01*
X101343600Y-84400000D02*
X102600000Y-84400000D01*
X102600000Y-84400000D02*
X104800000Y-86600000D01*
X104800000Y-86600000D02*
X104800000Y-93400000D01*
X104800000Y-93400000D02*
X112200000Y-100800000D01*
X112200000Y-100800000D02*
X140600000Y-100800000D01*
X147790000Y-84850000D02*
X148890000Y-84850000D01*
X147355010Y-85284990D02*
X147790000Y-84850000D01*
X147355010Y-94044990D02*
X147355010Y-85284990D01*
X140600000Y-100800000D02*
X147355010Y-94044990D01*
X147355010Y-82804990D02*
X150000000Y-80160000D01*
X147355010Y-85284990D02*
X147355010Y-82804990D01*
X148890000Y-84850000D02*
X153490000Y-84850000D01*
G04 #@! TO.N,Net-(R2-Pad2)*
X132384800Y-71360800D02*
X133959600Y-69786000D01*
X129438400Y-71360800D02*
X132384800Y-71360800D01*
G04 #@! TO.N,Net-(R3-Pad2)*
X109000000Y-91340000D02*
X109000000Y-91500000D01*
X129960000Y-99400000D02*
X135000000Y-94360000D01*
X112600000Y-99400000D02*
X129960000Y-99400000D01*
X109000000Y-91500000D02*
X109000000Y-95800000D01*
X109000000Y-95800000D02*
X112600000Y-99400000D01*
G04 #@! TD*
M02*
