G04 #@! TF.GenerationSoftware,KiCad,Pcbnew,5.0.2-bee76a0~70~ubuntu18.04.1*
G04 #@! TF.CreationDate,2019-07-10T16:12:49+01:00*
G04 #@! TF.ProjectId,led_driver,6c65645f-6472-4697-9665-722e6b696361,rev?*
G04 #@! TF.SameCoordinates,Original*
G04 #@! TF.FileFunction,Other,User*
%FSLAX46Y46*%
G04 Gerber Fmt 4.6, Leading zero omitted, Abs format (unit mm)*
G04 Created by KiCad (PCBNEW 5.0.2-bee76a0~70~ubuntu18.04.1) date Wed 10 Jul 2019 16:12:49 BST*
%MOMM*%
%LPD*%
G01*
G04 APERTURE LIST*
%ADD10C,0.050000*%
G04 APERTURE END LIST*
D10*
G04 #@! TO.C,C1*
X127464000Y-66046800D02*
G75*
G03X127464000Y-66046800I-2750000J0D01*
G01*
G04 #@! TO.C,C2*
X131250000Y-93500000D02*
G75*
G03X131250000Y-93500000I-4250000J0D01*
G01*
G04 #@! TO.C,C3*
X130250000Y-87950000D02*
X130250000Y-82450000D01*
X130250000Y-82450000D02*
X120250000Y-82450000D01*
X120250000Y-82450000D02*
X120250000Y-87950000D01*
X120250000Y-87950000D02*
X130250000Y-87950000D01*
G04 #@! TO.C,C4*
X110750000Y-65750000D02*
G75*
G03X110750000Y-65750000I-4250000J0D01*
G01*
G04 #@! TO.C,C5*
X117913600Y-73862400D02*
X117913600Y-63862400D01*
X112413600Y-73862400D02*
X117913600Y-73862400D01*
X112413600Y-63862400D02*
X112413600Y-73862400D01*
X117913600Y-63862400D02*
X112413600Y-63862400D01*
G04 #@! TO.C,D1*
X118350000Y-78600000D02*
X118350000Y-75400000D01*
X118350000Y-75400000D02*
X105490000Y-75400000D01*
X105490000Y-75400000D02*
X105490000Y-78600000D01*
X105490000Y-78600000D02*
X118350000Y-78600000D01*
G04 #@! TO.C,J1*
X86530000Y-73360000D02*
X86530000Y-62170000D01*
X86530000Y-73360000D02*
X99470000Y-73360000D01*
X99470000Y-62170000D02*
X86530000Y-62170000D01*
X99470000Y-62170000D02*
X99470000Y-73360000D01*
G04 #@! TO.C,J2*
X137530000Y-65830000D02*
X137530000Y-54640000D01*
X137530000Y-65830000D02*
X150470000Y-65830000D01*
X150470000Y-54640000D02*
X137530000Y-54640000D01*
X150470000Y-54640000D02*
X150470000Y-65830000D01*
G04 #@! TO.C,J3*
X102039400Y-92254200D02*
X102039400Y-76554200D01*
X102039400Y-92254200D02*
X65539400Y-92254200D01*
X65539400Y-76554200D02*
X65539400Y-92254200D01*
X102039400Y-76554200D02*
X65539400Y-76554200D01*
G04 #@! TO.C,L1*
X115250000Y-84200000D02*
G75*
G03X115250000Y-84200000I-3750000J0D01*
G01*
G04 #@! TO.C,Q1*
X152400000Y-83850000D02*
X152400000Y-91350000D01*
X158400000Y-83850000D02*
X152400000Y-83850000D01*
X158400000Y-91350000D02*
X158400000Y-83850000D01*
X152400000Y-91350000D02*
X158400000Y-91350000D01*
G04 #@! TO.C,Q2*
X147100000Y-83870000D02*
X141700000Y-83870000D01*
X147100000Y-91330000D02*
X141700000Y-91330000D01*
X147100000Y-83870000D02*
X147100000Y-91330000D01*
X141700000Y-83870000D02*
X141700000Y-91330000D01*
G04 #@! TO.C,R1*
X137000000Y-81148400D02*
X140000000Y-81148400D01*
X140000000Y-81148400D02*
X140000000Y-68888400D01*
X140000000Y-68888400D02*
X137000000Y-68888400D01*
X137000000Y-68888400D02*
X137000000Y-81148400D01*
G04 #@! TO.C,R2*
X132459600Y-68950000D02*
X132459600Y-81210000D01*
X135459600Y-68950000D02*
X132459600Y-68950000D01*
X135459600Y-81210000D02*
X135459600Y-68950000D01*
X132459600Y-81210000D02*
X135459600Y-81210000D01*
G04 #@! TO.C,R3*
X136500000Y-95410000D02*
X136500000Y-83150000D01*
X133500000Y-95410000D02*
X136500000Y-95410000D01*
X133500000Y-83150000D02*
X133500000Y-95410000D01*
X136500000Y-83150000D02*
X133500000Y-83150000D01*
G04 #@! TO.C,R4*
X147750000Y-68950000D02*
X144750000Y-68950000D01*
X144750000Y-68950000D02*
X144750000Y-81210000D01*
X144750000Y-81210000D02*
X147750000Y-81210000D01*
X147750000Y-81210000D02*
X147750000Y-68950000D01*
G04 #@! TO.C,R5*
X151500000Y-68950000D02*
X148500000Y-68950000D01*
X148500000Y-68950000D02*
X148500000Y-81210000D01*
X148500000Y-81210000D02*
X151500000Y-81210000D01*
X151500000Y-81210000D02*
X151500000Y-68950000D01*
G04 #@! TO.C,R6*
X141000000Y-68950000D02*
X141000000Y-81210000D01*
X144000000Y-68950000D02*
X141000000Y-68950000D01*
X144000000Y-81210000D02*
X144000000Y-68950000D01*
X141000000Y-81210000D02*
X144000000Y-81210000D01*
G04 #@! TO.C,R7*
X151050000Y-97500000D02*
X151050000Y-94500000D01*
X151050000Y-94500000D02*
X138790000Y-94500000D01*
X138790000Y-94500000D02*
X138790000Y-97500000D01*
X138790000Y-97500000D02*
X151050000Y-97500000D01*
G04 #@! TO.C,RV1*
X121250000Y-97950000D02*
X121250000Y-90050000D01*
X106750000Y-97950000D02*
X121250000Y-97950000D01*
X106750000Y-90050000D02*
X106750000Y-97950000D01*
X121250000Y-90050000D02*
X106750000Y-90050000D01*
G04 #@! TO.C,RV2*
X152550000Y-67750000D02*
X152550000Y-82250000D01*
X152550000Y-82250000D02*
X160450000Y-82250000D01*
X160450000Y-82250000D02*
X160450000Y-67750000D01*
X160450000Y-67750000D02*
X152550000Y-67750000D01*
G04 #@! TO.C,U1*
X130988400Y-70260800D02*
X120288400Y-70260800D01*
X120288400Y-70260800D02*
X120288400Y-80060800D01*
X120288400Y-80060800D02*
X130988400Y-80060800D01*
X130988400Y-80060800D02*
X130988400Y-70260800D01*
G04 #@! TO.C,H1*
X94450000Y-58000000D02*
G75*
G03X94450000Y-58000000I-3450000J0D01*
G01*
G04 #@! TO.C,H2*
X159250000Y-97000000D02*
G75*
G03X159250000Y-97000000I-3450000J0D01*
G01*
G04 #@! TO.C,H3*
X94450000Y-97000000D02*
G75*
G03X94450000Y-97000000I-3450000J0D01*
G01*
G04 #@! TO.C,H4*
X159250000Y-58000000D02*
G75*
G03X159250000Y-58000000I-3450000J0D01*
G01*
G04 #@! TD*
M02*
