G04 #@! TF.GenerationSoftware,KiCad,Pcbnew,5.0.2-bee76a0~70~ubuntu18.04.1*
G04 #@! TF.CreationDate,2019-07-10T16:12:49+01:00*
G04 #@! TF.ProjectId,led_driver,6c65645f-6472-4697-9665-722e6b696361,rev?*
G04 #@! TF.SameCoordinates,Original*
G04 #@! TF.FileFunction,Copper,L2,Bot*
G04 #@! TF.FilePolarity,Positive*
%FSLAX46Y46*%
G04 Gerber Fmt 4.6, Leading zero omitted, Abs format (unit mm)*
G04 Created by KiCad (PCBNEW 5.0.2-bee76a0~70~ubuntu18.04.1) date Wed 10 Jul 2019 16:12:49 BST*
%MOMM*%
%LPD*%
G01*
G04 APERTURE LIST*
G04 #@! TA.AperFunction,ComponentPad*
%ADD10R,1.600000X1.600000*%
G04 #@! TD*
G04 #@! TA.AperFunction,ComponentPad*
%ADD11C,1.600000*%
G04 #@! TD*
G04 #@! TA.AperFunction,ComponentPad*
%ADD12C,2.000000*%
G04 #@! TD*
G04 #@! TA.AperFunction,ComponentPad*
%ADD13R,2.200000X2.200000*%
G04 #@! TD*
G04 #@! TA.AperFunction,ComponentPad*
%ADD14O,2.200000X2.200000*%
G04 #@! TD*
G04 #@! TA.AperFunction,ComponentPad*
%ADD15O,3.960000X1.980000*%
G04 #@! TD*
G04 #@! TA.AperFunction,ComponentPad*
%ADD16R,3.960000X1.980000*%
G04 #@! TD*
G04 #@! TA.AperFunction,ComponentPad*
%ADD17O,7.000000X3.500000*%
G04 #@! TD*
G04 #@! TA.AperFunction,ComponentPad*
%ADD18O,2.500000X1.600000*%
G04 #@! TD*
G04 #@! TA.AperFunction,ComponentPad*
%ADD19C,2.600000*%
G04 #@! TD*
G04 #@! TA.AperFunction,ComponentPad*
%ADD20O,1.600000X1.600000*%
G04 #@! TD*
G04 #@! TA.AperFunction,ComponentPad*
%ADD21C,2.340000*%
G04 #@! TD*
G04 #@! TA.AperFunction,ViaPad*
%ADD22C,0.800000*%
G04 #@! TD*
G04 #@! TA.AperFunction,Conductor*
%ADD23C,0.750000*%
G04 #@! TD*
G04 #@! TA.AperFunction,Conductor*
%ADD24C,1.000000*%
G04 #@! TD*
G04 #@! TA.AperFunction,Conductor*
%ADD25C,0.254000*%
G04 #@! TD*
G04 APERTURE END LIST*
D10*
G04 #@! TO.P,C1,1*
G04 #@! TO.N,Net-(C1-Pad1)*
X124714000Y-67296800D03*
D11*
G04 #@! TO.P,C1,2*
G04 #@! TO.N,GND*
X124714000Y-64796800D03*
G04 #@! TD*
D10*
G04 #@! TO.P,C2,1*
G04 #@! TO.N,Net-(C2-Pad1)*
X127000000Y-91000000D03*
D11*
G04 #@! TO.P,C2,2*
G04 #@! TO.N,GND*
X127000000Y-96000000D03*
G04 #@! TD*
D12*
G04 #@! TO.P,C3,1*
G04 #@! TO.N,GND*
X129000000Y-85200000D03*
G04 #@! TO.P,C3,2*
G04 #@! TO.N,Net-(C2-Pad1)*
X121500000Y-85200000D03*
G04 #@! TD*
D11*
G04 #@! TO.P,C4,2*
G04 #@! TO.N,GND*
X106500000Y-68250000D03*
D10*
G04 #@! TO.P,C4,1*
G04 #@! TO.N,VDD*
X106500000Y-63250000D03*
G04 #@! TD*
D12*
G04 #@! TO.P,C5,2*
G04 #@! TO.N,GND*
X115163600Y-72612400D03*
G04 #@! TO.P,C5,1*
G04 #@! TO.N,VDD*
X115163600Y-65112400D03*
G04 #@! TD*
D13*
G04 #@! TO.P,D1,1*
G04 #@! TO.N,Net-(D1-Pad1)*
X117000000Y-77000000D03*
D14*
G04 #@! TO.P,D1,2*
G04 #@! TO.N,GND*
X106840000Y-77000000D03*
G04 #@! TD*
D15*
G04 #@! TO.P,J1,2*
G04 #@! TO.N,GND*
X93000000Y-70000000D03*
D16*
G04 #@! TO.P,J1,1*
G04 #@! TO.N,VDD*
X93000000Y-65000000D03*
G04 #@! TD*
G04 #@! TO.P,J2,1*
G04 #@! TO.N,Net-(J2-Pad1)*
X144000000Y-63000000D03*
D15*
G04 #@! TO.P,J2,2*
G04 #@! TO.N,GND*
X144000000Y-58000000D03*
G04 #@! TD*
D17*
G04 #@! TO.P,J3,2*
G04 #@! TO.N,GND*
X94259400Y-89484200D03*
X94259400Y-79324200D03*
D18*
G04 #@! TO.P,J3,1*
G04 #@! TO.N,Net-(J3-Pad1)*
X99339400Y-84404200D03*
G04 #@! TO.P,J3,2*
G04 #@! TO.N,GND*
X99339400Y-86944200D03*
G04 #@! TD*
D19*
G04 #@! TO.P,L1,1*
G04 #@! TO.N,Net-(D1-Pad1)*
X110000000Y-84200000D03*
G04 #@! TO.P,L1,2*
G04 #@! TO.N,Net-(C2-Pad1)*
X113000000Y-84200000D03*
G04 #@! TD*
D11*
G04 #@! TO.P,R1,1*
G04 #@! TO.N,Net-(R1-Pad1)*
X138500000Y-80098400D03*
D20*
G04 #@! TO.P,R1,2*
G04 #@! TO.N,GND*
X138500000Y-69938400D03*
G04 #@! TD*
G04 #@! TO.P,R2,2*
G04 #@! TO.N,Net-(R2-Pad2)*
X133959600Y-70000000D03*
D11*
G04 #@! TO.P,R2,1*
G04 #@! TO.N,VDD*
X133959600Y-80160000D03*
G04 #@! TD*
D20*
G04 #@! TO.P,R3,2*
G04 #@! TO.N,Net-(R3-Pad2)*
X135000000Y-94360000D03*
D11*
G04 #@! TO.P,R3,1*
G04 #@! TO.N,Net-(C2-Pad1)*
X135000000Y-84200000D03*
G04 #@! TD*
G04 #@! TO.P,R4,1*
G04 #@! TO.N,Net-(Q1-Pad5)*
X146250000Y-70000000D03*
D20*
G04 #@! TO.P,R4,2*
G04 #@! TO.N,Net-(C2-Pad1)*
X146250000Y-80160000D03*
G04 #@! TD*
D11*
G04 #@! TO.P,R5,1*
G04 #@! TO.N,GND*
X150000000Y-70000000D03*
D20*
G04 #@! TO.P,R5,2*
G04 #@! TO.N,Net-(J3-Pad1)*
X150000000Y-80160000D03*
G04 #@! TD*
G04 #@! TO.P,R6,2*
G04 #@! TO.N,GND*
X142500000Y-70000000D03*
D11*
G04 #@! TO.P,R6,1*
G04 #@! TO.N,Net-(Q2-Pad5)*
X142500000Y-80160000D03*
G04 #@! TD*
G04 #@! TO.P,R7,1*
G04 #@! TO.N,Net-(R7-Pad1)*
X150000000Y-96000000D03*
D20*
G04 #@! TO.P,R7,2*
G04 #@! TO.N,Net-(Q2-Pad5)*
X139840000Y-96000000D03*
G04 #@! TD*
D21*
G04 #@! TO.P,RV1,1*
G04 #@! TO.N,Net-(R1-Pad1)*
X119000000Y-91500000D03*
G04 #@! TO.P,RV1,2*
G04 #@! TO.N,Net-(RV1-Pad2)*
X114000000Y-96500000D03*
G04 #@! TO.P,RV1,3*
G04 #@! TO.N,Net-(R3-Pad2)*
X109000000Y-91500000D03*
G04 #@! TD*
G04 #@! TO.P,RV2,3*
G04 #@! TO.N,Net-(R7-Pad1)*
X154000000Y-80000000D03*
G04 #@! TO.P,RV2,2*
G04 #@! TO.N,Net-(J2-Pad1)*
X159000000Y-75000000D03*
G04 #@! TO.P,RV2,1*
G04 #@! TO.N,N/C*
X154000000Y-70000000D03*
G04 #@! TD*
D10*
G04 #@! TO.P,U1,1*
G04 #@! TO.N,Net-(R2-Pad2)*
X129438400Y-71360800D03*
D20*
G04 #@! TO.P,U1,5*
G04 #@! TO.N,Net-(RV1-Pad2)*
X121818400Y-78980800D03*
G04 #@! TO.P,U1,2*
G04 #@! TO.N,Net-(D1-Pad1)*
X126898400Y-71360800D03*
G04 #@! TO.P,U1,6*
G04 #@! TO.N,VDD*
X124358400Y-78980800D03*
G04 #@! TO.P,U1,3*
G04 #@! TO.N,Net-(C1-Pad1)*
X124358400Y-71360800D03*
G04 #@! TO.P,U1,7*
G04 #@! TO.N,Net-(R2-Pad2)*
X126898400Y-78980800D03*
G04 #@! TO.P,U1,4*
G04 #@! TO.N,GND*
X121818400Y-71360800D03*
G04 #@! TO.P,U1,8*
G04 #@! TO.N,Net-(R2-Pad2)*
X129438400Y-78980800D03*
G04 #@! TD*
D22*
G04 #@! TO.N,GND*
X156040000Y-83700000D03*
G04 #@! TO.N,Net-(Q1-Pad5)*
X148800000Y-88600000D03*
X141200000Y-86200000D03*
G04 #@! TO.N,Net-(Q2-Pad5)*
X139840000Y-92955000D03*
G04 #@! TD*
D23*
G04 #@! TO.N,Net-(Q1-Pad5)*
X143600000Y-88600000D02*
X141200000Y-86200000D01*
X148800000Y-88600000D02*
X143600000Y-88600000D01*
D24*
G04 #@! TO.N,Net-(Q2-Pad5)*
X139840000Y-82820000D02*
X142500000Y-80160000D01*
X139840000Y-92955000D02*
X139840000Y-82820000D01*
D23*
G04 #@! TO.N,Net-(C1-Pad1)*
X124714000Y-67296800D02*
X124714000Y-71005200D01*
D24*
G04 #@! TO.N,Net-(D1-Pad1)*
X121259200Y-77000000D02*
X117000000Y-77000000D01*
X126898400Y-71360800D02*
X121259200Y-77000000D01*
X110000000Y-82361523D02*
X110000000Y-84200000D01*
X110000000Y-81900000D02*
X110000000Y-82361523D01*
X114900000Y-77000000D02*
X110000000Y-81900000D01*
X117000000Y-77000000D02*
X114900000Y-77000000D01*
D23*
G04 #@! TO.N,Net-(R1-Pad1)*
X135873401Y-82724999D02*
X137700001Y-80898399D01*
X137700001Y-80898399D02*
X138500000Y-80098400D01*
X128675001Y-82724999D02*
X135873401Y-82724999D01*
X121069999Y-90330001D02*
X128675001Y-82724999D01*
X120169999Y-90330001D02*
X121069999Y-90330001D01*
X119000000Y-91500000D02*
X120169999Y-90330001D01*
G04 #@! TO.N,Net-(R2-Pad2)*
X129438400Y-71360800D02*
X129438400Y-74361600D01*
X126898400Y-76901600D02*
X126898400Y-78980800D01*
X129438400Y-74361600D02*
X126898400Y-76901600D01*
X129438400Y-74361600D02*
X129438400Y-78980800D01*
D24*
G04 #@! TO.N,Net-(R7-Pad1)*
X150000000Y-84000000D02*
X154000000Y-80000000D01*
X150000000Y-96000000D02*
X150000000Y-84000000D01*
D23*
G04 #@! TO.N,Net-(RV1-Pad2)*
X114000000Y-86799200D02*
X114000000Y-96500000D01*
X121818400Y-78980800D02*
X114000000Y-86799200D01*
G04 #@! TD*
D25*
G04 #@! TO.N,GND*
G36*
X160315000Y-73762345D02*
X160022450Y-73469795D01*
X159359037Y-73195000D01*
X158640963Y-73195000D01*
X157977550Y-73469795D01*
X157469795Y-73977550D01*
X157195000Y-74640963D01*
X157195000Y-75359037D01*
X157469795Y-76022450D01*
X157977550Y-76530205D01*
X158640963Y-76805000D01*
X159359037Y-76805000D01*
X160022450Y-76530205D01*
X160315000Y-76237655D01*
X160315001Y-100873000D01*
X87126326Y-100873000D01*
X87103361Y-96555431D01*
X88765000Y-96555431D01*
X88765000Y-97444569D01*
X89105259Y-98266026D01*
X89733974Y-98894741D01*
X90555431Y-99235000D01*
X91444569Y-99235000D01*
X92266026Y-98894741D01*
X92894741Y-98266026D01*
X93235000Y-97444569D01*
X93235000Y-96555431D01*
X92894741Y-95733974D01*
X92266026Y-95105259D01*
X91444569Y-94765000D01*
X90555431Y-94765000D01*
X89733974Y-95105259D01*
X89105259Y-95733974D01*
X88765000Y-96555431D01*
X87103361Y-96555431D01*
X87068397Y-89982203D01*
X90176973Y-89982203D01*
X90257346Y-90279567D01*
X90733147Y-91080847D01*
X91479367Y-91639052D01*
X92382400Y-91869200D01*
X94132400Y-91869200D01*
X94132400Y-89611200D01*
X94386400Y-89611200D01*
X94386400Y-91869200D01*
X96136400Y-91869200D01*
X97039433Y-91639052D01*
X97705288Y-91140963D01*
X107195000Y-91140963D01*
X107195000Y-91859037D01*
X107469795Y-92522450D01*
X107977550Y-93030205D01*
X108640963Y-93305000D01*
X109359037Y-93305000D01*
X110022450Y-93030205D01*
X110530205Y-92522450D01*
X110805000Y-91859037D01*
X110805000Y-91140963D01*
X110530205Y-90477550D01*
X110022450Y-89969795D01*
X109359037Y-89695000D01*
X108640963Y-89695000D01*
X107977550Y-89969795D01*
X107469795Y-90477550D01*
X107195000Y-91140963D01*
X97705288Y-91140963D01*
X97785653Y-91080847D01*
X98261454Y-90279567D01*
X98341827Y-89982203D01*
X98232025Y-89611200D01*
X94386400Y-89611200D01*
X94132400Y-89611200D01*
X90286775Y-89611200D01*
X90176973Y-89982203D01*
X87068397Y-89982203D01*
X87063100Y-88986197D01*
X90176973Y-88986197D01*
X90286775Y-89357200D01*
X94132400Y-89357200D01*
X94132400Y-87099200D01*
X94386400Y-87099200D01*
X94386400Y-89357200D01*
X98232025Y-89357200D01*
X98341827Y-88986197D01*
X98261454Y-88688833D01*
X97785653Y-87887553D01*
X97039433Y-87329348D01*
X96897752Y-87293239D01*
X97497496Y-87293239D01*
X97515033Y-87376019D01*
X97784900Y-87869096D01*
X98222917Y-88221366D01*
X98762400Y-88379200D01*
X99212400Y-88379200D01*
X99212400Y-87071200D01*
X99466400Y-87071200D01*
X99466400Y-88379200D01*
X99916400Y-88379200D01*
X100455883Y-88221366D01*
X100893900Y-87869096D01*
X101163767Y-87376019D01*
X101181304Y-87293239D01*
X101059315Y-87071200D01*
X99466400Y-87071200D01*
X99212400Y-87071200D01*
X97619485Y-87071200D01*
X97497496Y-87293239D01*
X96897752Y-87293239D01*
X96136400Y-87099200D01*
X94386400Y-87099200D01*
X94132400Y-87099200D01*
X92382400Y-87099200D01*
X91479367Y-87329348D01*
X90733147Y-87887553D01*
X90257346Y-88688833D01*
X90176973Y-88986197D01*
X87063100Y-88986197D01*
X87038728Y-84404200D01*
X97426287Y-84404200D01*
X97537660Y-84964109D01*
X97854823Y-85438777D01*
X98210899Y-85676699D01*
X97784900Y-86019304D01*
X97515033Y-86512381D01*
X97497496Y-86595161D01*
X97619485Y-86817200D01*
X99212400Y-86817200D01*
X99212400Y-86797200D01*
X99466400Y-86797200D01*
X99466400Y-86817200D01*
X101059315Y-86817200D01*
X101181304Y-86595161D01*
X101163767Y-86512381D01*
X100893900Y-86019304D01*
X100467901Y-85676699D01*
X100823977Y-85438777D01*
X101141140Y-84964109D01*
X101252513Y-84404200D01*
X101141140Y-83844291D01*
X101121639Y-83815105D01*
X108065000Y-83815105D01*
X108065000Y-84584895D01*
X108359586Y-85296090D01*
X108903910Y-85840414D01*
X109615105Y-86135000D01*
X110384895Y-86135000D01*
X111096090Y-85840414D01*
X111500000Y-85436504D01*
X111903910Y-85840414D01*
X112615105Y-86135000D01*
X113229088Y-86135000D01*
X113048601Y-86405119D01*
X112990000Y-86699725D01*
X112990000Y-86699729D01*
X112970214Y-86799200D01*
X112990000Y-86898671D01*
X112990001Y-94964638D01*
X112977550Y-94969795D01*
X112469795Y-95477550D01*
X112195000Y-96140963D01*
X112195000Y-96859037D01*
X112469795Y-97522450D01*
X112977550Y-98030205D01*
X113640963Y-98305000D01*
X114359037Y-98305000D01*
X115022450Y-98030205D01*
X115530205Y-97522450D01*
X115743403Y-97007745D01*
X126171861Y-97007745D01*
X126245995Y-97253864D01*
X126783223Y-97446965D01*
X127353454Y-97419778D01*
X127754005Y-97253864D01*
X127828139Y-97007745D01*
X127000000Y-96179605D01*
X126171861Y-97007745D01*
X115743403Y-97007745D01*
X115805000Y-96859037D01*
X115805000Y-96140963D01*
X115656820Y-95783223D01*
X125553035Y-95783223D01*
X125580222Y-96353454D01*
X125746136Y-96754005D01*
X125992255Y-96828139D01*
X126820395Y-96000000D01*
X127179605Y-96000000D01*
X128007745Y-96828139D01*
X128253864Y-96754005D01*
X128446965Y-96216777D01*
X128436630Y-96000000D01*
X138376887Y-96000000D01*
X138488260Y-96559909D01*
X138805423Y-97034577D01*
X139280091Y-97351740D01*
X139698667Y-97435000D01*
X139981333Y-97435000D01*
X140399909Y-97351740D01*
X140874577Y-97034577D01*
X141191740Y-96559909D01*
X141303113Y-96000000D01*
X141191740Y-95440091D01*
X140874577Y-94965423D01*
X140399909Y-94648260D01*
X139981333Y-94565000D01*
X139698667Y-94565000D01*
X139280091Y-94648260D01*
X138805423Y-94965423D01*
X138488260Y-95440091D01*
X138376887Y-96000000D01*
X128436630Y-96000000D01*
X128419778Y-95646546D01*
X128253864Y-95245995D01*
X128007745Y-95171861D01*
X127179605Y-96000000D01*
X126820395Y-96000000D01*
X125992255Y-95171861D01*
X125746136Y-95245995D01*
X125553035Y-95783223D01*
X115656820Y-95783223D01*
X115530205Y-95477550D01*
X115044910Y-94992255D01*
X126171861Y-94992255D01*
X127000000Y-95820395D01*
X127828139Y-94992255D01*
X127754005Y-94746136D01*
X127216777Y-94553035D01*
X126646546Y-94580222D01*
X126245995Y-94746136D01*
X126171861Y-94992255D01*
X115044910Y-94992255D01*
X115022450Y-94969795D01*
X115010000Y-94964638D01*
X115010000Y-94360000D01*
X133536887Y-94360000D01*
X133648260Y-94919909D01*
X133965423Y-95394577D01*
X134440091Y-95711740D01*
X134858667Y-95795000D01*
X135141333Y-95795000D01*
X135559909Y-95711740D01*
X136034577Y-95394577D01*
X136351740Y-94919909D01*
X136463113Y-94360000D01*
X136351740Y-93800091D01*
X136034577Y-93325423D01*
X135559909Y-93008260D01*
X135141333Y-92925000D01*
X134858667Y-92925000D01*
X134440091Y-93008260D01*
X133965423Y-93325423D01*
X133648260Y-93800091D01*
X133536887Y-94360000D01*
X115010000Y-94360000D01*
X115010000Y-91140963D01*
X117195000Y-91140963D01*
X117195000Y-91859037D01*
X117469795Y-92522450D01*
X117977550Y-93030205D01*
X118640963Y-93305000D01*
X119359037Y-93305000D01*
X120022450Y-93030205D01*
X120530205Y-92522450D01*
X120805000Y-91859037D01*
X120805000Y-91340001D01*
X120970528Y-91340001D01*
X121069999Y-91359787D01*
X121169470Y-91340001D01*
X121169475Y-91340001D01*
X121464081Y-91281400D01*
X121798168Y-91058170D01*
X121854517Y-90973838D01*
X122628355Y-90200000D01*
X125552560Y-90200000D01*
X125552560Y-91800000D01*
X125601843Y-92047765D01*
X125742191Y-92257809D01*
X125952235Y-92398157D01*
X126200000Y-92447440D01*
X127800000Y-92447440D01*
X128047765Y-92398157D01*
X128257809Y-92257809D01*
X128398157Y-92047765D01*
X128447440Y-91800000D01*
X128447440Y-90200000D01*
X128398157Y-89952235D01*
X128257809Y-89742191D01*
X128047765Y-89601843D01*
X127800000Y-89552560D01*
X126200000Y-89552560D01*
X125952235Y-89601843D01*
X125742191Y-89742191D01*
X125601843Y-89952235D01*
X125552560Y-90200000D01*
X122628355Y-90200000D01*
X126475823Y-86352532D01*
X128027073Y-86352532D01*
X128125736Y-86619387D01*
X128735461Y-86845908D01*
X129385460Y-86821856D01*
X129874264Y-86619387D01*
X129972927Y-86352532D01*
X129000000Y-85379605D01*
X128027073Y-86352532D01*
X126475823Y-86352532D01*
X127373318Y-85455038D01*
X127378144Y-85585460D01*
X127580613Y-86074264D01*
X127847468Y-86172927D01*
X128820395Y-85200000D01*
X129179605Y-85200000D01*
X130152532Y-86172927D01*
X130419387Y-86074264D01*
X130645908Y-85464539D01*
X130621856Y-84814540D01*
X130419387Y-84325736D01*
X130152532Y-84227073D01*
X129179605Y-85200000D01*
X128820395Y-85200000D01*
X128806253Y-85185858D01*
X128985858Y-85006253D01*
X129000000Y-85020395D01*
X129972927Y-84047468D01*
X129874264Y-83780613D01*
X129751485Y-83734999D01*
X133639377Y-83734999D01*
X133565000Y-83914561D01*
X133565000Y-84485439D01*
X133783466Y-85012862D01*
X134187138Y-85416534D01*
X134714561Y-85635000D01*
X135285439Y-85635000D01*
X135812862Y-85416534D01*
X136216534Y-85012862D01*
X136435000Y-84485439D01*
X136435000Y-83914561D01*
X136321421Y-83640358D01*
X136601570Y-83453168D01*
X136657919Y-83368837D01*
X137206756Y-82820000D01*
X138682765Y-82820000D01*
X138705001Y-82931788D01*
X138705000Y-93066782D01*
X138770854Y-93397854D01*
X139021711Y-93773289D01*
X139397145Y-94024146D01*
X139840000Y-94112235D01*
X140282854Y-94024146D01*
X140658289Y-93773289D01*
X140909146Y-93397855D01*
X140975000Y-93066783D01*
X140975000Y-87403355D01*
X142815484Y-89243840D01*
X142871831Y-89328169D01*
X142956160Y-89384516D01*
X142956162Y-89384518D01*
X143205917Y-89551399D01*
X143267115Y-89563572D01*
X143500524Y-89610000D01*
X143500528Y-89610000D01*
X143600000Y-89629786D01*
X143699472Y-89610000D01*
X148533771Y-89610000D01*
X148594126Y-89635000D01*
X148865001Y-89635000D01*
X148865000Y-95105604D01*
X148783466Y-95187138D01*
X148565000Y-95714561D01*
X148565000Y-96285439D01*
X148783466Y-96812862D01*
X149187138Y-97216534D01*
X149714561Y-97435000D01*
X150285439Y-97435000D01*
X150812862Y-97216534D01*
X151216534Y-96812862D01*
X151323165Y-96555431D01*
X153565000Y-96555431D01*
X153565000Y-97444569D01*
X153905259Y-98266026D01*
X154533974Y-98894741D01*
X155355431Y-99235000D01*
X156244569Y-99235000D01*
X157066026Y-98894741D01*
X157694741Y-98266026D01*
X158035000Y-97444569D01*
X158035000Y-96555431D01*
X157694741Y-95733974D01*
X157066026Y-95105259D01*
X156244569Y-94765000D01*
X155355431Y-94765000D01*
X154533974Y-95105259D01*
X153905259Y-95733974D01*
X153565000Y-96555431D01*
X151323165Y-96555431D01*
X151435000Y-96285439D01*
X151435000Y-95714561D01*
X151216534Y-95187138D01*
X151135000Y-95105604D01*
X151135000Y-84470131D01*
X153800132Y-81805000D01*
X154359037Y-81805000D01*
X155022450Y-81530205D01*
X155530205Y-81022450D01*
X155805000Y-80359037D01*
X155805000Y-79640963D01*
X155530205Y-78977550D01*
X155022450Y-78469795D01*
X154359037Y-78195000D01*
X153640963Y-78195000D01*
X152977550Y-78469795D01*
X152469795Y-78977550D01*
X152195000Y-79640963D01*
X152195000Y-80199868D01*
X149276480Y-83118389D01*
X149181712Y-83181711D01*
X149044450Y-83387138D01*
X148930854Y-83557146D01*
X148842765Y-84000000D01*
X148865001Y-84111788D01*
X148865001Y-87565000D01*
X148594126Y-87565000D01*
X148533771Y-87590000D01*
X144018356Y-87590000D01*
X142102431Y-85674076D01*
X142077431Y-85613720D01*
X141786280Y-85322569D01*
X141405874Y-85165000D01*
X140994126Y-85165000D01*
X140975000Y-85172922D01*
X140975000Y-83290131D01*
X142670132Y-81595000D01*
X142785439Y-81595000D01*
X143312862Y-81376534D01*
X143716534Y-80972862D01*
X143935000Y-80445439D01*
X143935000Y-80160000D01*
X144786887Y-80160000D01*
X144898260Y-80719909D01*
X145215423Y-81194577D01*
X145690091Y-81511740D01*
X146108667Y-81595000D01*
X146391333Y-81595000D01*
X146809909Y-81511740D01*
X147284577Y-81194577D01*
X147601740Y-80719909D01*
X147713113Y-80160000D01*
X148536887Y-80160000D01*
X148648260Y-80719909D01*
X148965423Y-81194577D01*
X149440091Y-81511740D01*
X149858667Y-81595000D01*
X150141333Y-81595000D01*
X150559909Y-81511740D01*
X151034577Y-81194577D01*
X151351740Y-80719909D01*
X151463113Y-80160000D01*
X151351740Y-79600091D01*
X151034577Y-79125423D01*
X150559909Y-78808260D01*
X150141333Y-78725000D01*
X149858667Y-78725000D01*
X149440091Y-78808260D01*
X148965423Y-79125423D01*
X148648260Y-79600091D01*
X148536887Y-80160000D01*
X147713113Y-80160000D01*
X147601740Y-79600091D01*
X147284577Y-79125423D01*
X146809909Y-78808260D01*
X146391333Y-78725000D01*
X146108667Y-78725000D01*
X145690091Y-78808260D01*
X145215423Y-79125423D01*
X144898260Y-79600091D01*
X144786887Y-80160000D01*
X143935000Y-80160000D01*
X143935000Y-79874561D01*
X143716534Y-79347138D01*
X143312862Y-78943466D01*
X142785439Y-78725000D01*
X142214561Y-78725000D01*
X141687138Y-78943466D01*
X141283466Y-79347138D01*
X141065000Y-79874561D01*
X141065000Y-79989868D01*
X139116480Y-81938389D01*
X139021712Y-82001711D01*
X138855984Y-82249740D01*
X138770854Y-82377146D01*
X138682765Y-82820000D01*
X137206756Y-82820000D01*
X138484518Y-81542238D01*
X138484520Y-81542235D01*
X138493355Y-81533400D01*
X138785439Y-81533400D01*
X139312862Y-81314934D01*
X139716534Y-80911262D01*
X139935000Y-80383839D01*
X139935000Y-79812961D01*
X139716534Y-79285538D01*
X139312862Y-78881866D01*
X138785439Y-78663400D01*
X138214561Y-78663400D01*
X137687138Y-78881866D01*
X137283466Y-79285538D01*
X137065000Y-79812961D01*
X137065000Y-80105045D01*
X137056165Y-80113880D01*
X137056162Y-80113882D01*
X135455046Y-81714999D01*
X128774472Y-81714999D01*
X128675001Y-81695213D01*
X128575530Y-81714999D01*
X128575525Y-81714999D01*
X128280919Y-81773600D01*
X128280917Y-81773601D01*
X128280918Y-81773601D01*
X128031163Y-81940481D01*
X128031161Y-81940483D01*
X127946832Y-81996830D01*
X127890485Y-82081159D01*
X120651644Y-89320001D01*
X120269469Y-89320001D01*
X120169998Y-89300215D01*
X120070527Y-89320001D01*
X120070523Y-89320001D01*
X119775917Y-89378602D01*
X119669112Y-89449967D01*
X119526160Y-89545484D01*
X119526159Y-89545485D01*
X119441830Y-89601832D01*
X119385483Y-89686161D01*
X119371487Y-89700157D01*
X119359037Y-89695000D01*
X118640963Y-89695000D01*
X117977550Y-89969795D01*
X117469795Y-90477550D01*
X117195000Y-91140963D01*
X115010000Y-91140963D01*
X115010000Y-87217555D01*
X117352777Y-84874778D01*
X119865000Y-84874778D01*
X119865000Y-85525222D01*
X120113914Y-86126153D01*
X120573847Y-86586086D01*
X121174778Y-86835000D01*
X121825222Y-86835000D01*
X122426153Y-86586086D01*
X122886086Y-86126153D01*
X123135000Y-85525222D01*
X123135000Y-84874778D01*
X122886086Y-84273847D01*
X122426153Y-83813914D01*
X121825222Y-83565000D01*
X121174778Y-83565000D01*
X120573847Y-83813914D01*
X120113914Y-84273847D01*
X119865000Y-84874778D01*
X117352777Y-84874778D01*
X121811755Y-80415800D01*
X121959733Y-80415800D01*
X122378309Y-80332540D01*
X122852977Y-80015377D01*
X123088400Y-79663042D01*
X123323823Y-80015377D01*
X123798491Y-80332540D01*
X124217067Y-80415800D01*
X124499733Y-80415800D01*
X124918309Y-80332540D01*
X125392977Y-80015377D01*
X125628400Y-79663042D01*
X125863823Y-80015377D01*
X126338491Y-80332540D01*
X126757067Y-80415800D01*
X127039733Y-80415800D01*
X127458309Y-80332540D01*
X127932977Y-80015377D01*
X128168400Y-79663042D01*
X128403823Y-80015377D01*
X128878491Y-80332540D01*
X129297067Y-80415800D01*
X129579733Y-80415800D01*
X129998309Y-80332540D01*
X130472977Y-80015377D01*
X130567067Y-79874561D01*
X132524600Y-79874561D01*
X132524600Y-80445439D01*
X132743066Y-80972862D01*
X133146738Y-81376534D01*
X133674161Y-81595000D01*
X134245039Y-81595000D01*
X134772462Y-81376534D01*
X135176134Y-80972862D01*
X135394600Y-80445439D01*
X135394600Y-79874561D01*
X135176134Y-79347138D01*
X134772462Y-78943466D01*
X134245039Y-78725000D01*
X133674161Y-78725000D01*
X133146738Y-78943466D01*
X132743066Y-79347138D01*
X132524600Y-79874561D01*
X130567067Y-79874561D01*
X130790140Y-79540709D01*
X130901513Y-78980800D01*
X130790140Y-78420891D01*
X130472977Y-77946223D01*
X130448400Y-77929801D01*
X130448400Y-74461072D01*
X130468186Y-74361601D01*
X130448400Y-74262130D01*
X130448400Y-72766469D01*
X130486165Y-72758957D01*
X130696209Y-72618609D01*
X130836557Y-72408565D01*
X130885840Y-72160800D01*
X130885840Y-70560800D01*
X130836557Y-70313035D01*
X130696209Y-70102991D01*
X130542074Y-70000000D01*
X132496487Y-70000000D01*
X132607860Y-70559909D01*
X132925023Y-71034577D01*
X133399691Y-71351740D01*
X133818267Y-71435000D01*
X134100933Y-71435000D01*
X134519509Y-71351740D01*
X134994177Y-71034577D01*
X135311340Y-70559909D01*
X135365537Y-70287441D01*
X137108086Y-70287441D01*
X137347611Y-70793534D01*
X137762577Y-71169441D01*
X138150961Y-71330304D01*
X138373000Y-71208315D01*
X138373000Y-70065400D01*
X138627000Y-70065400D01*
X138627000Y-71208315D01*
X138849039Y-71330304D01*
X139237423Y-71169441D01*
X139652389Y-70793534D01*
X139862759Y-70349041D01*
X141108086Y-70349041D01*
X141347611Y-70855134D01*
X141762577Y-71231041D01*
X142150961Y-71391904D01*
X142373000Y-71269915D01*
X142373000Y-70127000D01*
X142627000Y-70127000D01*
X142627000Y-71269915D01*
X142849039Y-71391904D01*
X143237423Y-71231041D01*
X143652389Y-70855134D01*
X143891914Y-70349041D01*
X143770629Y-70127000D01*
X142627000Y-70127000D01*
X142373000Y-70127000D01*
X141229371Y-70127000D01*
X141108086Y-70349041D01*
X139862759Y-70349041D01*
X139891914Y-70287441D01*
X139770629Y-70065400D01*
X138627000Y-70065400D01*
X138373000Y-70065400D01*
X137229371Y-70065400D01*
X137108086Y-70287441D01*
X135365537Y-70287441D01*
X135422713Y-70000000D01*
X135341032Y-69589359D01*
X137108086Y-69589359D01*
X137229371Y-69811400D01*
X138373000Y-69811400D01*
X138373000Y-68668485D01*
X138627000Y-68668485D01*
X138627000Y-69811400D01*
X139770629Y-69811400D01*
X139858266Y-69650959D01*
X141108086Y-69650959D01*
X141229371Y-69873000D01*
X142373000Y-69873000D01*
X142373000Y-68730085D01*
X142627000Y-68730085D01*
X142627000Y-69873000D01*
X143770629Y-69873000D01*
X143857172Y-69714561D01*
X144815000Y-69714561D01*
X144815000Y-70285439D01*
X145033466Y-70812862D01*
X145437138Y-71216534D01*
X145964561Y-71435000D01*
X146535439Y-71435000D01*
X147062862Y-71216534D01*
X147271651Y-71007745D01*
X149171861Y-71007745D01*
X149245995Y-71253864D01*
X149783223Y-71446965D01*
X150353454Y-71419778D01*
X150754005Y-71253864D01*
X150828139Y-71007745D01*
X150000000Y-70179605D01*
X149171861Y-71007745D01*
X147271651Y-71007745D01*
X147466534Y-70812862D01*
X147685000Y-70285439D01*
X147685000Y-69783223D01*
X148553035Y-69783223D01*
X148580222Y-70353454D01*
X148746136Y-70754005D01*
X148992255Y-70828139D01*
X149820395Y-70000000D01*
X150179605Y-70000000D01*
X151007745Y-70828139D01*
X151253864Y-70754005D01*
X151446965Y-70216777D01*
X151419778Y-69646546D01*
X151417466Y-69640963D01*
X152195000Y-69640963D01*
X152195000Y-70359037D01*
X152469795Y-71022450D01*
X152977550Y-71530205D01*
X153640963Y-71805000D01*
X154359037Y-71805000D01*
X155022450Y-71530205D01*
X155530205Y-71022450D01*
X155805000Y-70359037D01*
X155805000Y-69640963D01*
X155530205Y-68977550D01*
X155022450Y-68469795D01*
X154359037Y-68195000D01*
X153640963Y-68195000D01*
X152977550Y-68469795D01*
X152469795Y-68977550D01*
X152195000Y-69640963D01*
X151417466Y-69640963D01*
X151253864Y-69245995D01*
X151007745Y-69171861D01*
X150179605Y-70000000D01*
X149820395Y-70000000D01*
X148992255Y-69171861D01*
X148746136Y-69245995D01*
X148553035Y-69783223D01*
X147685000Y-69783223D01*
X147685000Y-69714561D01*
X147466534Y-69187138D01*
X147271651Y-68992255D01*
X149171861Y-68992255D01*
X150000000Y-69820395D01*
X150828139Y-68992255D01*
X150754005Y-68746136D01*
X150216777Y-68553035D01*
X149646546Y-68580222D01*
X149245995Y-68746136D01*
X149171861Y-68992255D01*
X147271651Y-68992255D01*
X147062862Y-68783466D01*
X146535439Y-68565000D01*
X145964561Y-68565000D01*
X145437138Y-68783466D01*
X145033466Y-69187138D01*
X144815000Y-69714561D01*
X143857172Y-69714561D01*
X143891914Y-69650959D01*
X143652389Y-69144866D01*
X143237423Y-68768959D01*
X142849039Y-68608096D01*
X142627000Y-68730085D01*
X142373000Y-68730085D01*
X142150961Y-68608096D01*
X141762577Y-68768959D01*
X141347611Y-69144866D01*
X141108086Y-69650959D01*
X139858266Y-69650959D01*
X139891914Y-69589359D01*
X139652389Y-69083266D01*
X139237423Y-68707359D01*
X138849039Y-68546496D01*
X138627000Y-68668485D01*
X138373000Y-68668485D01*
X138150961Y-68546496D01*
X137762577Y-68707359D01*
X137347611Y-69083266D01*
X137108086Y-69589359D01*
X135341032Y-69589359D01*
X135311340Y-69440091D01*
X134994177Y-68965423D01*
X134519509Y-68648260D01*
X134100933Y-68565000D01*
X133818267Y-68565000D01*
X133399691Y-68648260D01*
X132925023Y-68965423D01*
X132607860Y-69440091D01*
X132496487Y-70000000D01*
X130542074Y-70000000D01*
X130486165Y-69962643D01*
X130238400Y-69913360D01*
X128638400Y-69913360D01*
X128390635Y-69962643D01*
X128180591Y-70102991D01*
X128040243Y-70313035D01*
X128013615Y-70446906D01*
X127932977Y-70326223D01*
X127458309Y-70009060D01*
X127039733Y-69925800D01*
X126757067Y-69925800D01*
X126338491Y-70009060D01*
X125863823Y-70326223D01*
X125724000Y-70535483D01*
X125724000Y-68702469D01*
X125761765Y-68694957D01*
X125971809Y-68554609D01*
X126112157Y-68344565D01*
X126161440Y-68096800D01*
X126161440Y-66496800D01*
X126112157Y-66249035D01*
X125971809Y-66038991D01*
X125761765Y-65898643D01*
X125527813Y-65852107D01*
X125542139Y-65804545D01*
X124714000Y-64976405D01*
X123885861Y-65804545D01*
X123900187Y-65852107D01*
X123666235Y-65898643D01*
X123456191Y-66038991D01*
X123315843Y-66249035D01*
X123266560Y-66496800D01*
X123266560Y-68096800D01*
X123315843Y-68344565D01*
X123456191Y-68554609D01*
X123666235Y-68694957D01*
X123704000Y-68702469D01*
X123704001Y-70072196D01*
X123323823Y-70326223D01*
X123067453Y-70709908D01*
X122970789Y-70505666D01*
X122555823Y-70129759D01*
X122167439Y-69968896D01*
X121945400Y-70090885D01*
X121945400Y-71233800D01*
X121965400Y-71233800D01*
X121965400Y-71487800D01*
X121945400Y-71487800D01*
X121945400Y-72630715D01*
X122167439Y-72752704D01*
X122555823Y-72591841D01*
X122970789Y-72215934D01*
X123067453Y-72011692D01*
X123323823Y-72395377D01*
X123798491Y-72712540D01*
X123917797Y-72736271D01*
X120789069Y-75865000D01*
X118740478Y-75865000D01*
X118698157Y-75652235D01*
X118557809Y-75442191D01*
X118347765Y-75301843D01*
X118100000Y-75252560D01*
X115900000Y-75252560D01*
X115652235Y-75301843D01*
X115442191Y-75442191D01*
X115301843Y-75652235D01*
X115259522Y-75865000D01*
X115011781Y-75865000D01*
X114899999Y-75842765D01*
X114788217Y-75865000D01*
X114457145Y-75930854D01*
X114081711Y-76181711D01*
X114018391Y-76276476D01*
X109276482Y-81018387D01*
X109181711Y-81081711D01*
X108984717Y-81376534D01*
X108930854Y-81457146D01*
X108842765Y-81900000D01*
X108865000Y-82011783D01*
X108865000Y-82598496D01*
X108359586Y-83103910D01*
X108065000Y-83815105D01*
X101121639Y-83815105D01*
X100823977Y-83369623D01*
X100349309Y-83052460D01*
X99930733Y-82969200D01*
X98748067Y-82969200D01*
X98329491Y-83052460D01*
X97854823Y-83369623D01*
X97537660Y-83844291D01*
X97426287Y-84404200D01*
X87038728Y-84404200D01*
X87014356Y-79822203D01*
X90176973Y-79822203D01*
X90257346Y-80119567D01*
X90733147Y-80920847D01*
X91479367Y-81479052D01*
X92382400Y-81709200D01*
X94132400Y-81709200D01*
X94132400Y-79451200D01*
X94386400Y-79451200D01*
X94386400Y-81709200D01*
X96136400Y-81709200D01*
X97039433Y-81479052D01*
X97785653Y-80920847D01*
X98261454Y-80119567D01*
X98341827Y-79822203D01*
X98232025Y-79451200D01*
X94386400Y-79451200D01*
X94132400Y-79451200D01*
X90286775Y-79451200D01*
X90176973Y-79822203D01*
X87014356Y-79822203D01*
X87009059Y-78826197D01*
X90176973Y-78826197D01*
X90286775Y-79197200D01*
X94132400Y-79197200D01*
X94132400Y-76939200D01*
X94386400Y-76939200D01*
X94386400Y-79197200D01*
X98232025Y-79197200D01*
X98341827Y-78826197D01*
X98261454Y-78528833D01*
X97785653Y-77727553D01*
X97342590Y-77396122D01*
X105150825Y-77396122D01*
X105365466Y-77914332D01*
X105827608Y-78409012D01*
X106443877Y-78689183D01*
X106713000Y-78571604D01*
X106713000Y-77127000D01*
X106967000Y-77127000D01*
X106967000Y-78571604D01*
X107236123Y-78689183D01*
X107852392Y-78409012D01*
X108314534Y-77914332D01*
X108529175Y-77396122D01*
X108411125Y-77127000D01*
X106967000Y-77127000D01*
X106713000Y-77127000D01*
X105268875Y-77127000D01*
X105150825Y-77396122D01*
X97342590Y-77396122D01*
X97039433Y-77169348D01*
X96136400Y-76939200D01*
X94386400Y-76939200D01*
X94132400Y-76939200D01*
X92382400Y-76939200D01*
X91479367Y-77169348D01*
X90733147Y-77727553D01*
X90257346Y-78528833D01*
X90176973Y-78826197D01*
X87009059Y-78826197D01*
X86997239Y-76603878D01*
X105150825Y-76603878D01*
X105268875Y-76873000D01*
X106713000Y-76873000D01*
X106713000Y-75428396D01*
X106967000Y-75428396D01*
X106967000Y-76873000D01*
X108411125Y-76873000D01*
X108529175Y-76603878D01*
X108314534Y-76085668D01*
X107852392Y-75590988D01*
X107236123Y-75310817D01*
X106967000Y-75428396D01*
X106713000Y-75428396D01*
X106443877Y-75310817D01*
X105827608Y-75590988D01*
X105365466Y-76085668D01*
X105150825Y-76603878D01*
X86997239Y-76603878D01*
X86982138Y-73764932D01*
X114190673Y-73764932D01*
X114289336Y-74031787D01*
X114899061Y-74258308D01*
X115549060Y-74234256D01*
X116037864Y-74031787D01*
X116136527Y-73764932D01*
X115163600Y-72792005D01*
X114190673Y-73764932D01*
X86982138Y-73764932D01*
X86974600Y-72347861D01*
X113517692Y-72347861D01*
X113541744Y-72997860D01*
X113744213Y-73486664D01*
X114011068Y-73585327D01*
X114983995Y-72612400D01*
X115343205Y-72612400D01*
X116316132Y-73585327D01*
X116582987Y-73486664D01*
X116809508Y-72876939D01*
X116785456Y-72226940D01*
X116582987Y-71738136D01*
X116506458Y-71709841D01*
X120426486Y-71709841D01*
X120666011Y-72215934D01*
X121080977Y-72591841D01*
X121469361Y-72752704D01*
X121691400Y-72630715D01*
X121691400Y-71487800D01*
X120547771Y-71487800D01*
X120426486Y-71709841D01*
X116506458Y-71709841D01*
X116316132Y-71639473D01*
X115343205Y-72612400D01*
X114983995Y-72612400D01*
X114011068Y-71639473D01*
X113744213Y-71738136D01*
X113517692Y-72347861D01*
X86974600Y-72347861D01*
X86964126Y-70378865D01*
X90429782Y-70378865D01*
X90460095Y-70504528D01*
X90771149Y-71059246D01*
X91270807Y-71452703D01*
X91883000Y-71625000D01*
X92873000Y-71625000D01*
X92873000Y-70127000D01*
X93127000Y-70127000D01*
X93127000Y-71625000D01*
X94117000Y-71625000D01*
X94703734Y-71459868D01*
X114190673Y-71459868D01*
X115163600Y-72432795D01*
X116136527Y-71459868D01*
X116037864Y-71193013D01*
X115549984Y-71011759D01*
X120426486Y-71011759D01*
X120547771Y-71233800D01*
X121691400Y-71233800D01*
X121691400Y-70090885D01*
X121469361Y-69968896D01*
X121080977Y-70129759D01*
X120666011Y-70505666D01*
X120426486Y-71011759D01*
X115549984Y-71011759D01*
X115428139Y-70966492D01*
X114778140Y-70990544D01*
X114289336Y-71193013D01*
X114190673Y-71459868D01*
X94703734Y-71459868D01*
X94729193Y-71452703D01*
X95228851Y-71059246D01*
X95539905Y-70504528D01*
X95570218Y-70378865D01*
X95450740Y-70127000D01*
X93127000Y-70127000D01*
X92873000Y-70127000D01*
X90549260Y-70127000D01*
X90429782Y-70378865D01*
X86964126Y-70378865D01*
X86960096Y-69621135D01*
X90429782Y-69621135D01*
X90549260Y-69873000D01*
X92873000Y-69873000D01*
X92873000Y-68375000D01*
X93127000Y-68375000D01*
X93127000Y-69873000D01*
X95450740Y-69873000D01*
X95570218Y-69621135D01*
X95539905Y-69495472D01*
X95406602Y-69257745D01*
X105671861Y-69257745D01*
X105745995Y-69503864D01*
X106283223Y-69696965D01*
X106853454Y-69669778D01*
X107254005Y-69503864D01*
X107328139Y-69257745D01*
X106500000Y-68429605D01*
X105671861Y-69257745D01*
X95406602Y-69257745D01*
X95228851Y-68940754D01*
X94729193Y-68547297D01*
X94117000Y-68375000D01*
X93127000Y-68375000D01*
X92873000Y-68375000D01*
X91883000Y-68375000D01*
X91270807Y-68547297D01*
X90771149Y-68940754D01*
X90460095Y-69495472D01*
X90429782Y-69621135D01*
X86960096Y-69621135D01*
X86951650Y-68033223D01*
X105053035Y-68033223D01*
X105080222Y-68603454D01*
X105246136Y-69004005D01*
X105492255Y-69078139D01*
X106320395Y-68250000D01*
X106679605Y-68250000D01*
X107507745Y-69078139D01*
X107753864Y-69004005D01*
X107946965Y-68466777D01*
X107919778Y-67896546D01*
X107753864Y-67495995D01*
X107507745Y-67421861D01*
X106679605Y-68250000D01*
X106320395Y-68250000D01*
X105492255Y-67421861D01*
X105246136Y-67495995D01*
X105053035Y-68033223D01*
X86951650Y-68033223D01*
X86947443Y-67242255D01*
X105671861Y-67242255D01*
X106500000Y-68070395D01*
X107328139Y-67242255D01*
X107254005Y-66996136D01*
X106716777Y-66803035D01*
X106146546Y-66830222D01*
X105745995Y-66996136D01*
X105671861Y-67242255D01*
X86947443Y-67242255D01*
X86930248Y-64010000D01*
X90372560Y-64010000D01*
X90372560Y-65990000D01*
X90421843Y-66237765D01*
X90562191Y-66447809D01*
X90772235Y-66588157D01*
X91020000Y-66637440D01*
X94980000Y-66637440D01*
X95227765Y-66588157D01*
X95437809Y-66447809D01*
X95578157Y-66237765D01*
X95627440Y-65990000D01*
X95627440Y-64787178D01*
X113528600Y-64787178D01*
X113528600Y-65437622D01*
X113777514Y-66038553D01*
X114237447Y-66498486D01*
X114838378Y-66747400D01*
X115488822Y-66747400D01*
X116089753Y-66498486D01*
X116549686Y-66038553D01*
X116798600Y-65437622D01*
X116798600Y-64787178D01*
X116712794Y-64580023D01*
X123267035Y-64580023D01*
X123294222Y-65150254D01*
X123460136Y-65550805D01*
X123706255Y-65624939D01*
X124534395Y-64796800D01*
X124893605Y-64796800D01*
X125721745Y-65624939D01*
X125967864Y-65550805D01*
X126160965Y-65013577D01*
X126133778Y-64443346D01*
X125967864Y-64042795D01*
X125721745Y-63968661D01*
X124893605Y-64796800D01*
X124534395Y-64796800D01*
X123706255Y-63968661D01*
X123460136Y-64042795D01*
X123267035Y-64580023D01*
X116712794Y-64580023D01*
X116549686Y-64186247D01*
X116152494Y-63789055D01*
X123885861Y-63789055D01*
X124714000Y-64617195D01*
X125542139Y-63789055D01*
X125468005Y-63542936D01*
X124930777Y-63349835D01*
X124360546Y-63377022D01*
X123959995Y-63542936D01*
X123885861Y-63789055D01*
X116152494Y-63789055D01*
X116089753Y-63726314D01*
X115488822Y-63477400D01*
X114838378Y-63477400D01*
X114237447Y-63726314D01*
X113777514Y-64186247D01*
X113528600Y-64787178D01*
X95627440Y-64787178D01*
X95627440Y-64010000D01*
X95578157Y-63762235D01*
X95437809Y-63552191D01*
X95227765Y-63411843D01*
X94980000Y-63362560D01*
X91020000Y-63362560D01*
X90772235Y-63411843D01*
X90562191Y-63552191D01*
X90421843Y-63762235D01*
X90372560Y-64010000D01*
X86930248Y-64010000D01*
X86921950Y-62450000D01*
X105052560Y-62450000D01*
X105052560Y-64050000D01*
X105101843Y-64297765D01*
X105242191Y-64507809D01*
X105452235Y-64648157D01*
X105700000Y-64697440D01*
X107300000Y-64697440D01*
X107547765Y-64648157D01*
X107757809Y-64507809D01*
X107898157Y-64297765D01*
X107947440Y-64050000D01*
X107947440Y-62450000D01*
X107898157Y-62202235D01*
X107769709Y-62010000D01*
X141372560Y-62010000D01*
X141372560Y-63990000D01*
X141421843Y-64237765D01*
X141562191Y-64447809D01*
X141772235Y-64588157D01*
X142020000Y-64637440D01*
X145980000Y-64637440D01*
X146227765Y-64588157D01*
X146437809Y-64447809D01*
X146578157Y-64237765D01*
X146627440Y-63990000D01*
X146627440Y-62010000D01*
X146578157Y-61762235D01*
X146437809Y-61552191D01*
X146227765Y-61411843D01*
X145980000Y-61362560D01*
X142020000Y-61362560D01*
X141772235Y-61411843D01*
X141562191Y-61552191D01*
X141421843Y-61762235D01*
X141372560Y-62010000D01*
X107769709Y-62010000D01*
X107757809Y-61992191D01*
X107547765Y-61851843D01*
X107300000Y-61802560D01*
X105700000Y-61802560D01*
X105452235Y-61851843D01*
X105242191Y-61992191D01*
X105101843Y-62202235D01*
X105052560Y-62450000D01*
X86921950Y-62450000D01*
X86895914Y-57555431D01*
X88765000Y-57555431D01*
X88765000Y-58444569D01*
X89105259Y-59266026D01*
X89733974Y-59894741D01*
X90555431Y-60235000D01*
X91444569Y-60235000D01*
X92266026Y-59894741D01*
X92894741Y-59266026D01*
X93235000Y-58444569D01*
X93235000Y-58378865D01*
X141429782Y-58378865D01*
X141460095Y-58504528D01*
X141771149Y-59059246D01*
X142270807Y-59452703D01*
X142883000Y-59625000D01*
X143873000Y-59625000D01*
X143873000Y-58127000D01*
X144127000Y-58127000D01*
X144127000Y-59625000D01*
X145117000Y-59625000D01*
X145729193Y-59452703D01*
X146228851Y-59059246D01*
X146539905Y-58504528D01*
X146570218Y-58378865D01*
X146450740Y-58127000D01*
X144127000Y-58127000D01*
X143873000Y-58127000D01*
X141549260Y-58127000D01*
X141429782Y-58378865D01*
X93235000Y-58378865D01*
X93235000Y-57621135D01*
X141429782Y-57621135D01*
X141549260Y-57873000D01*
X143873000Y-57873000D01*
X143873000Y-56375000D01*
X144127000Y-56375000D01*
X144127000Y-57873000D01*
X146450740Y-57873000D01*
X146570218Y-57621135D01*
X146554369Y-57555431D01*
X153565000Y-57555431D01*
X153565000Y-58444569D01*
X153905259Y-59266026D01*
X154533974Y-59894741D01*
X155355431Y-60235000D01*
X156244569Y-60235000D01*
X157066026Y-59894741D01*
X157694741Y-59266026D01*
X158035000Y-58444569D01*
X158035000Y-57555431D01*
X157694741Y-56733974D01*
X157066026Y-56105259D01*
X156244569Y-55765000D01*
X155355431Y-55765000D01*
X154533974Y-56105259D01*
X153905259Y-56733974D01*
X153565000Y-57555431D01*
X146554369Y-57555431D01*
X146539905Y-57495472D01*
X146228851Y-56940754D01*
X145729193Y-56547297D01*
X145117000Y-56375000D01*
X144127000Y-56375000D01*
X143873000Y-56375000D01*
X142883000Y-56375000D01*
X142270807Y-56547297D01*
X141771149Y-56940754D01*
X141460095Y-57495472D01*
X141429782Y-57621135D01*
X93235000Y-57621135D01*
X93235000Y-57555431D01*
X92894741Y-56733974D01*
X92266026Y-56105259D01*
X91444569Y-55765000D01*
X90555431Y-55765000D01*
X89733974Y-56105259D01*
X89105259Y-56733974D01*
X88765000Y-57555431D01*
X86895914Y-57555431D01*
X86877677Y-54127000D01*
X160315000Y-54127000D01*
X160315000Y-73762345D01*
X160315000Y-73762345D01*
G37*
X160315000Y-73762345D02*
X160022450Y-73469795D01*
X159359037Y-73195000D01*
X158640963Y-73195000D01*
X157977550Y-73469795D01*
X157469795Y-73977550D01*
X157195000Y-74640963D01*
X157195000Y-75359037D01*
X157469795Y-76022450D01*
X157977550Y-76530205D01*
X158640963Y-76805000D01*
X159359037Y-76805000D01*
X160022450Y-76530205D01*
X160315000Y-76237655D01*
X160315001Y-100873000D01*
X87126326Y-100873000D01*
X87103361Y-96555431D01*
X88765000Y-96555431D01*
X88765000Y-97444569D01*
X89105259Y-98266026D01*
X89733974Y-98894741D01*
X90555431Y-99235000D01*
X91444569Y-99235000D01*
X92266026Y-98894741D01*
X92894741Y-98266026D01*
X93235000Y-97444569D01*
X93235000Y-96555431D01*
X92894741Y-95733974D01*
X92266026Y-95105259D01*
X91444569Y-94765000D01*
X90555431Y-94765000D01*
X89733974Y-95105259D01*
X89105259Y-95733974D01*
X88765000Y-96555431D01*
X87103361Y-96555431D01*
X87068397Y-89982203D01*
X90176973Y-89982203D01*
X90257346Y-90279567D01*
X90733147Y-91080847D01*
X91479367Y-91639052D01*
X92382400Y-91869200D01*
X94132400Y-91869200D01*
X94132400Y-89611200D01*
X94386400Y-89611200D01*
X94386400Y-91869200D01*
X96136400Y-91869200D01*
X97039433Y-91639052D01*
X97705288Y-91140963D01*
X107195000Y-91140963D01*
X107195000Y-91859037D01*
X107469795Y-92522450D01*
X107977550Y-93030205D01*
X108640963Y-93305000D01*
X109359037Y-93305000D01*
X110022450Y-93030205D01*
X110530205Y-92522450D01*
X110805000Y-91859037D01*
X110805000Y-91140963D01*
X110530205Y-90477550D01*
X110022450Y-89969795D01*
X109359037Y-89695000D01*
X108640963Y-89695000D01*
X107977550Y-89969795D01*
X107469795Y-90477550D01*
X107195000Y-91140963D01*
X97705288Y-91140963D01*
X97785653Y-91080847D01*
X98261454Y-90279567D01*
X98341827Y-89982203D01*
X98232025Y-89611200D01*
X94386400Y-89611200D01*
X94132400Y-89611200D01*
X90286775Y-89611200D01*
X90176973Y-89982203D01*
X87068397Y-89982203D01*
X87063100Y-88986197D01*
X90176973Y-88986197D01*
X90286775Y-89357200D01*
X94132400Y-89357200D01*
X94132400Y-87099200D01*
X94386400Y-87099200D01*
X94386400Y-89357200D01*
X98232025Y-89357200D01*
X98341827Y-88986197D01*
X98261454Y-88688833D01*
X97785653Y-87887553D01*
X97039433Y-87329348D01*
X96897752Y-87293239D01*
X97497496Y-87293239D01*
X97515033Y-87376019D01*
X97784900Y-87869096D01*
X98222917Y-88221366D01*
X98762400Y-88379200D01*
X99212400Y-88379200D01*
X99212400Y-87071200D01*
X99466400Y-87071200D01*
X99466400Y-88379200D01*
X99916400Y-88379200D01*
X100455883Y-88221366D01*
X100893900Y-87869096D01*
X101163767Y-87376019D01*
X101181304Y-87293239D01*
X101059315Y-87071200D01*
X99466400Y-87071200D01*
X99212400Y-87071200D01*
X97619485Y-87071200D01*
X97497496Y-87293239D01*
X96897752Y-87293239D01*
X96136400Y-87099200D01*
X94386400Y-87099200D01*
X94132400Y-87099200D01*
X92382400Y-87099200D01*
X91479367Y-87329348D01*
X90733147Y-87887553D01*
X90257346Y-88688833D01*
X90176973Y-88986197D01*
X87063100Y-88986197D01*
X87038728Y-84404200D01*
X97426287Y-84404200D01*
X97537660Y-84964109D01*
X97854823Y-85438777D01*
X98210899Y-85676699D01*
X97784900Y-86019304D01*
X97515033Y-86512381D01*
X97497496Y-86595161D01*
X97619485Y-86817200D01*
X99212400Y-86817200D01*
X99212400Y-86797200D01*
X99466400Y-86797200D01*
X99466400Y-86817200D01*
X101059315Y-86817200D01*
X101181304Y-86595161D01*
X101163767Y-86512381D01*
X100893900Y-86019304D01*
X100467901Y-85676699D01*
X100823977Y-85438777D01*
X101141140Y-84964109D01*
X101252513Y-84404200D01*
X101141140Y-83844291D01*
X101121639Y-83815105D01*
X108065000Y-83815105D01*
X108065000Y-84584895D01*
X108359586Y-85296090D01*
X108903910Y-85840414D01*
X109615105Y-86135000D01*
X110384895Y-86135000D01*
X111096090Y-85840414D01*
X111500000Y-85436504D01*
X111903910Y-85840414D01*
X112615105Y-86135000D01*
X113229088Y-86135000D01*
X113048601Y-86405119D01*
X112990000Y-86699725D01*
X112990000Y-86699729D01*
X112970214Y-86799200D01*
X112990000Y-86898671D01*
X112990001Y-94964638D01*
X112977550Y-94969795D01*
X112469795Y-95477550D01*
X112195000Y-96140963D01*
X112195000Y-96859037D01*
X112469795Y-97522450D01*
X112977550Y-98030205D01*
X113640963Y-98305000D01*
X114359037Y-98305000D01*
X115022450Y-98030205D01*
X115530205Y-97522450D01*
X115743403Y-97007745D01*
X126171861Y-97007745D01*
X126245995Y-97253864D01*
X126783223Y-97446965D01*
X127353454Y-97419778D01*
X127754005Y-97253864D01*
X127828139Y-97007745D01*
X127000000Y-96179605D01*
X126171861Y-97007745D01*
X115743403Y-97007745D01*
X115805000Y-96859037D01*
X115805000Y-96140963D01*
X115656820Y-95783223D01*
X125553035Y-95783223D01*
X125580222Y-96353454D01*
X125746136Y-96754005D01*
X125992255Y-96828139D01*
X126820395Y-96000000D01*
X127179605Y-96000000D01*
X128007745Y-96828139D01*
X128253864Y-96754005D01*
X128446965Y-96216777D01*
X128436630Y-96000000D01*
X138376887Y-96000000D01*
X138488260Y-96559909D01*
X138805423Y-97034577D01*
X139280091Y-97351740D01*
X139698667Y-97435000D01*
X139981333Y-97435000D01*
X140399909Y-97351740D01*
X140874577Y-97034577D01*
X141191740Y-96559909D01*
X141303113Y-96000000D01*
X141191740Y-95440091D01*
X140874577Y-94965423D01*
X140399909Y-94648260D01*
X139981333Y-94565000D01*
X139698667Y-94565000D01*
X139280091Y-94648260D01*
X138805423Y-94965423D01*
X138488260Y-95440091D01*
X138376887Y-96000000D01*
X128436630Y-96000000D01*
X128419778Y-95646546D01*
X128253864Y-95245995D01*
X128007745Y-95171861D01*
X127179605Y-96000000D01*
X126820395Y-96000000D01*
X125992255Y-95171861D01*
X125746136Y-95245995D01*
X125553035Y-95783223D01*
X115656820Y-95783223D01*
X115530205Y-95477550D01*
X115044910Y-94992255D01*
X126171861Y-94992255D01*
X127000000Y-95820395D01*
X127828139Y-94992255D01*
X127754005Y-94746136D01*
X127216777Y-94553035D01*
X126646546Y-94580222D01*
X126245995Y-94746136D01*
X126171861Y-94992255D01*
X115044910Y-94992255D01*
X115022450Y-94969795D01*
X115010000Y-94964638D01*
X115010000Y-94360000D01*
X133536887Y-94360000D01*
X133648260Y-94919909D01*
X133965423Y-95394577D01*
X134440091Y-95711740D01*
X134858667Y-95795000D01*
X135141333Y-95795000D01*
X135559909Y-95711740D01*
X136034577Y-95394577D01*
X136351740Y-94919909D01*
X136463113Y-94360000D01*
X136351740Y-93800091D01*
X136034577Y-93325423D01*
X135559909Y-93008260D01*
X135141333Y-92925000D01*
X134858667Y-92925000D01*
X134440091Y-93008260D01*
X133965423Y-93325423D01*
X133648260Y-93800091D01*
X133536887Y-94360000D01*
X115010000Y-94360000D01*
X115010000Y-91140963D01*
X117195000Y-91140963D01*
X117195000Y-91859037D01*
X117469795Y-92522450D01*
X117977550Y-93030205D01*
X118640963Y-93305000D01*
X119359037Y-93305000D01*
X120022450Y-93030205D01*
X120530205Y-92522450D01*
X120805000Y-91859037D01*
X120805000Y-91340001D01*
X120970528Y-91340001D01*
X121069999Y-91359787D01*
X121169470Y-91340001D01*
X121169475Y-91340001D01*
X121464081Y-91281400D01*
X121798168Y-91058170D01*
X121854517Y-90973838D01*
X122628355Y-90200000D01*
X125552560Y-90200000D01*
X125552560Y-91800000D01*
X125601843Y-92047765D01*
X125742191Y-92257809D01*
X125952235Y-92398157D01*
X126200000Y-92447440D01*
X127800000Y-92447440D01*
X128047765Y-92398157D01*
X128257809Y-92257809D01*
X128398157Y-92047765D01*
X128447440Y-91800000D01*
X128447440Y-90200000D01*
X128398157Y-89952235D01*
X128257809Y-89742191D01*
X128047765Y-89601843D01*
X127800000Y-89552560D01*
X126200000Y-89552560D01*
X125952235Y-89601843D01*
X125742191Y-89742191D01*
X125601843Y-89952235D01*
X125552560Y-90200000D01*
X122628355Y-90200000D01*
X126475823Y-86352532D01*
X128027073Y-86352532D01*
X128125736Y-86619387D01*
X128735461Y-86845908D01*
X129385460Y-86821856D01*
X129874264Y-86619387D01*
X129972927Y-86352532D01*
X129000000Y-85379605D01*
X128027073Y-86352532D01*
X126475823Y-86352532D01*
X127373318Y-85455038D01*
X127378144Y-85585460D01*
X127580613Y-86074264D01*
X127847468Y-86172927D01*
X128820395Y-85200000D01*
X129179605Y-85200000D01*
X130152532Y-86172927D01*
X130419387Y-86074264D01*
X130645908Y-85464539D01*
X130621856Y-84814540D01*
X130419387Y-84325736D01*
X130152532Y-84227073D01*
X129179605Y-85200000D01*
X128820395Y-85200000D01*
X128806253Y-85185858D01*
X128985858Y-85006253D01*
X129000000Y-85020395D01*
X129972927Y-84047468D01*
X129874264Y-83780613D01*
X129751485Y-83734999D01*
X133639377Y-83734999D01*
X133565000Y-83914561D01*
X133565000Y-84485439D01*
X133783466Y-85012862D01*
X134187138Y-85416534D01*
X134714561Y-85635000D01*
X135285439Y-85635000D01*
X135812862Y-85416534D01*
X136216534Y-85012862D01*
X136435000Y-84485439D01*
X136435000Y-83914561D01*
X136321421Y-83640358D01*
X136601570Y-83453168D01*
X136657919Y-83368837D01*
X137206756Y-82820000D01*
X138682765Y-82820000D01*
X138705001Y-82931788D01*
X138705000Y-93066782D01*
X138770854Y-93397854D01*
X139021711Y-93773289D01*
X139397145Y-94024146D01*
X139840000Y-94112235D01*
X140282854Y-94024146D01*
X140658289Y-93773289D01*
X140909146Y-93397855D01*
X140975000Y-93066783D01*
X140975000Y-87403355D01*
X142815484Y-89243840D01*
X142871831Y-89328169D01*
X142956160Y-89384516D01*
X142956162Y-89384518D01*
X143205917Y-89551399D01*
X143267115Y-89563572D01*
X143500524Y-89610000D01*
X143500528Y-89610000D01*
X143600000Y-89629786D01*
X143699472Y-89610000D01*
X148533771Y-89610000D01*
X148594126Y-89635000D01*
X148865001Y-89635000D01*
X148865000Y-95105604D01*
X148783466Y-95187138D01*
X148565000Y-95714561D01*
X148565000Y-96285439D01*
X148783466Y-96812862D01*
X149187138Y-97216534D01*
X149714561Y-97435000D01*
X150285439Y-97435000D01*
X150812862Y-97216534D01*
X151216534Y-96812862D01*
X151323165Y-96555431D01*
X153565000Y-96555431D01*
X153565000Y-97444569D01*
X153905259Y-98266026D01*
X154533974Y-98894741D01*
X155355431Y-99235000D01*
X156244569Y-99235000D01*
X157066026Y-98894741D01*
X157694741Y-98266026D01*
X158035000Y-97444569D01*
X158035000Y-96555431D01*
X157694741Y-95733974D01*
X157066026Y-95105259D01*
X156244569Y-94765000D01*
X155355431Y-94765000D01*
X154533974Y-95105259D01*
X153905259Y-95733974D01*
X153565000Y-96555431D01*
X151323165Y-96555431D01*
X151435000Y-96285439D01*
X151435000Y-95714561D01*
X151216534Y-95187138D01*
X151135000Y-95105604D01*
X151135000Y-84470131D01*
X153800132Y-81805000D01*
X154359037Y-81805000D01*
X155022450Y-81530205D01*
X155530205Y-81022450D01*
X155805000Y-80359037D01*
X155805000Y-79640963D01*
X155530205Y-78977550D01*
X155022450Y-78469795D01*
X154359037Y-78195000D01*
X153640963Y-78195000D01*
X152977550Y-78469795D01*
X152469795Y-78977550D01*
X152195000Y-79640963D01*
X152195000Y-80199868D01*
X149276480Y-83118389D01*
X149181712Y-83181711D01*
X149044450Y-83387138D01*
X148930854Y-83557146D01*
X148842765Y-84000000D01*
X148865001Y-84111788D01*
X148865001Y-87565000D01*
X148594126Y-87565000D01*
X148533771Y-87590000D01*
X144018356Y-87590000D01*
X142102431Y-85674076D01*
X142077431Y-85613720D01*
X141786280Y-85322569D01*
X141405874Y-85165000D01*
X140994126Y-85165000D01*
X140975000Y-85172922D01*
X140975000Y-83290131D01*
X142670132Y-81595000D01*
X142785439Y-81595000D01*
X143312862Y-81376534D01*
X143716534Y-80972862D01*
X143935000Y-80445439D01*
X143935000Y-80160000D01*
X144786887Y-80160000D01*
X144898260Y-80719909D01*
X145215423Y-81194577D01*
X145690091Y-81511740D01*
X146108667Y-81595000D01*
X146391333Y-81595000D01*
X146809909Y-81511740D01*
X147284577Y-81194577D01*
X147601740Y-80719909D01*
X147713113Y-80160000D01*
X148536887Y-80160000D01*
X148648260Y-80719909D01*
X148965423Y-81194577D01*
X149440091Y-81511740D01*
X149858667Y-81595000D01*
X150141333Y-81595000D01*
X150559909Y-81511740D01*
X151034577Y-81194577D01*
X151351740Y-80719909D01*
X151463113Y-80160000D01*
X151351740Y-79600091D01*
X151034577Y-79125423D01*
X150559909Y-78808260D01*
X150141333Y-78725000D01*
X149858667Y-78725000D01*
X149440091Y-78808260D01*
X148965423Y-79125423D01*
X148648260Y-79600091D01*
X148536887Y-80160000D01*
X147713113Y-80160000D01*
X147601740Y-79600091D01*
X147284577Y-79125423D01*
X146809909Y-78808260D01*
X146391333Y-78725000D01*
X146108667Y-78725000D01*
X145690091Y-78808260D01*
X145215423Y-79125423D01*
X144898260Y-79600091D01*
X144786887Y-80160000D01*
X143935000Y-80160000D01*
X143935000Y-79874561D01*
X143716534Y-79347138D01*
X143312862Y-78943466D01*
X142785439Y-78725000D01*
X142214561Y-78725000D01*
X141687138Y-78943466D01*
X141283466Y-79347138D01*
X141065000Y-79874561D01*
X141065000Y-79989868D01*
X139116480Y-81938389D01*
X139021712Y-82001711D01*
X138855984Y-82249740D01*
X138770854Y-82377146D01*
X138682765Y-82820000D01*
X137206756Y-82820000D01*
X138484518Y-81542238D01*
X138484520Y-81542235D01*
X138493355Y-81533400D01*
X138785439Y-81533400D01*
X139312862Y-81314934D01*
X139716534Y-80911262D01*
X139935000Y-80383839D01*
X139935000Y-79812961D01*
X139716534Y-79285538D01*
X139312862Y-78881866D01*
X138785439Y-78663400D01*
X138214561Y-78663400D01*
X137687138Y-78881866D01*
X137283466Y-79285538D01*
X137065000Y-79812961D01*
X137065000Y-80105045D01*
X137056165Y-80113880D01*
X137056162Y-80113882D01*
X135455046Y-81714999D01*
X128774472Y-81714999D01*
X128675001Y-81695213D01*
X128575530Y-81714999D01*
X128575525Y-81714999D01*
X128280919Y-81773600D01*
X128280917Y-81773601D01*
X128280918Y-81773601D01*
X128031163Y-81940481D01*
X128031161Y-81940483D01*
X127946832Y-81996830D01*
X127890485Y-82081159D01*
X120651644Y-89320001D01*
X120269469Y-89320001D01*
X120169998Y-89300215D01*
X120070527Y-89320001D01*
X120070523Y-89320001D01*
X119775917Y-89378602D01*
X119669112Y-89449967D01*
X119526160Y-89545484D01*
X119526159Y-89545485D01*
X119441830Y-89601832D01*
X119385483Y-89686161D01*
X119371487Y-89700157D01*
X119359037Y-89695000D01*
X118640963Y-89695000D01*
X117977550Y-89969795D01*
X117469795Y-90477550D01*
X117195000Y-91140963D01*
X115010000Y-91140963D01*
X115010000Y-87217555D01*
X117352777Y-84874778D01*
X119865000Y-84874778D01*
X119865000Y-85525222D01*
X120113914Y-86126153D01*
X120573847Y-86586086D01*
X121174778Y-86835000D01*
X121825222Y-86835000D01*
X122426153Y-86586086D01*
X122886086Y-86126153D01*
X123135000Y-85525222D01*
X123135000Y-84874778D01*
X122886086Y-84273847D01*
X122426153Y-83813914D01*
X121825222Y-83565000D01*
X121174778Y-83565000D01*
X120573847Y-83813914D01*
X120113914Y-84273847D01*
X119865000Y-84874778D01*
X117352777Y-84874778D01*
X121811755Y-80415800D01*
X121959733Y-80415800D01*
X122378309Y-80332540D01*
X122852977Y-80015377D01*
X123088400Y-79663042D01*
X123323823Y-80015377D01*
X123798491Y-80332540D01*
X124217067Y-80415800D01*
X124499733Y-80415800D01*
X124918309Y-80332540D01*
X125392977Y-80015377D01*
X125628400Y-79663042D01*
X125863823Y-80015377D01*
X126338491Y-80332540D01*
X126757067Y-80415800D01*
X127039733Y-80415800D01*
X127458309Y-80332540D01*
X127932977Y-80015377D01*
X128168400Y-79663042D01*
X128403823Y-80015377D01*
X128878491Y-80332540D01*
X129297067Y-80415800D01*
X129579733Y-80415800D01*
X129998309Y-80332540D01*
X130472977Y-80015377D01*
X130567067Y-79874561D01*
X132524600Y-79874561D01*
X132524600Y-80445439D01*
X132743066Y-80972862D01*
X133146738Y-81376534D01*
X133674161Y-81595000D01*
X134245039Y-81595000D01*
X134772462Y-81376534D01*
X135176134Y-80972862D01*
X135394600Y-80445439D01*
X135394600Y-79874561D01*
X135176134Y-79347138D01*
X134772462Y-78943466D01*
X134245039Y-78725000D01*
X133674161Y-78725000D01*
X133146738Y-78943466D01*
X132743066Y-79347138D01*
X132524600Y-79874561D01*
X130567067Y-79874561D01*
X130790140Y-79540709D01*
X130901513Y-78980800D01*
X130790140Y-78420891D01*
X130472977Y-77946223D01*
X130448400Y-77929801D01*
X130448400Y-74461072D01*
X130468186Y-74361601D01*
X130448400Y-74262130D01*
X130448400Y-72766469D01*
X130486165Y-72758957D01*
X130696209Y-72618609D01*
X130836557Y-72408565D01*
X130885840Y-72160800D01*
X130885840Y-70560800D01*
X130836557Y-70313035D01*
X130696209Y-70102991D01*
X130542074Y-70000000D01*
X132496487Y-70000000D01*
X132607860Y-70559909D01*
X132925023Y-71034577D01*
X133399691Y-71351740D01*
X133818267Y-71435000D01*
X134100933Y-71435000D01*
X134519509Y-71351740D01*
X134994177Y-71034577D01*
X135311340Y-70559909D01*
X135365537Y-70287441D01*
X137108086Y-70287441D01*
X137347611Y-70793534D01*
X137762577Y-71169441D01*
X138150961Y-71330304D01*
X138373000Y-71208315D01*
X138373000Y-70065400D01*
X138627000Y-70065400D01*
X138627000Y-71208315D01*
X138849039Y-71330304D01*
X139237423Y-71169441D01*
X139652389Y-70793534D01*
X139862759Y-70349041D01*
X141108086Y-70349041D01*
X141347611Y-70855134D01*
X141762577Y-71231041D01*
X142150961Y-71391904D01*
X142373000Y-71269915D01*
X142373000Y-70127000D01*
X142627000Y-70127000D01*
X142627000Y-71269915D01*
X142849039Y-71391904D01*
X143237423Y-71231041D01*
X143652389Y-70855134D01*
X143891914Y-70349041D01*
X143770629Y-70127000D01*
X142627000Y-70127000D01*
X142373000Y-70127000D01*
X141229371Y-70127000D01*
X141108086Y-70349041D01*
X139862759Y-70349041D01*
X139891914Y-70287441D01*
X139770629Y-70065400D01*
X138627000Y-70065400D01*
X138373000Y-70065400D01*
X137229371Y-70065400D01*
X137108086Y-70287441D01*
X135365537Y-70287441D01*
X135422713Y-70000000D01*
X135341032Y-69589359D01*
X137108086Y-69589359D01*
X137229371Y-69811400D01*
X138373000Y-69811400D01*
X138373000Y-68668485D01*
X138627000Y-68668485D01*
X138627000Y-69811400D01*
X139770629Y-69811400D01*
X139858266Y-69650959D01*
X141108086Y-69650959D01*
X141229371Y-69873000D01*
X142373000Y-69873000D01*
X142373000Y-68730085D01*
X142627000Y-68730085D01*
X142627000Y-69873000D01*
X143770629Y-69873000D01*
X143857172Y-69714561D01*
X144815000Y-69714561D01*
X144815000Y-70285439D01*
X145033466Y-70812862D01*
X145437138Y-71216534D01*
X145964561Y-71435000D01*
X146535439Y-71435000D01*
X147062862Y-71216534D01*
X147271651Y-71007745D01*
X149171861Y-71007745D01*
X149245995Y-71253864D01*
X149783223Y-71446965D01*
X150353454Y-71419778D01*
X150754005Y-71253864D01*
X150828139Y-71007745D01*
X150000000Y-70179605D01*
X149171861Y-71007745D01*
X147271651Y-71007745D01*
X147466534Y-70812862D01*
X147685000Y-70285439D01*
X147685000Y-69783223D01*
X148553035Y-69783223D01*
X148580222Y-70353454D01*
X148746136Y-70754005D01*
X148992255Y-70828139D01*
X149820395Y-70000000D01*
X150179605Y-70000000D01*
X151007745Y-70828139D01*
X151253864Y-70754005D01*
X151446965Y-70216777D01*
X151419778Y-69646546D01*
X151417466Y-69640963D01*
X152195000Y-69640963D01*
X152195000Y-70359037D01*
X152469795Y-71022450D01*
X152977550Y-71530205D01*
X153640963Y-71805000D01*
X154359037Y-71805000D01*
X155022450Y-71530205D01*
X155530205Y-71022450D01*
X155805000Y-70359037D01*
X155805000Y-69640963D01*
X155530205Y-68977550D01*
X155022450Y-68469795D01*
X154359037Y-68195000D01*
X153640963Y-68195000D01*
X152977550Y-68469795D01*
X152469795Y-68977550D01*
X152195000Y-69640963D01*
X151417466Y-69640963D01*
X151253864Y-69245995D01*
X151007745Y-69171861D01*
X150179605Y-70000000D01*
X149820395Y-70000000D01*
X148992255Y-69171861D01*
X148746136Y-69245995D01*
X148553035Y-69783223D01*
X147685000Y-69783223D01*
X147685000Y-69714561D01*
X147466534Y-69187138D01*
X147271651Y-68992255D01*
X149171861Y-68992255D01*
X150000000Y-69820395D01*
X150828139Y-68992255D01*
X150754005Y-68746136D01*
X150216777Y-68553035D01*
X149646546Y-68580222D01*
X149245995Y-68746136D01*
X149171861Y-68992255D01*
X147271651Y-68992255D01*
X147062862Y-68783466D01*
X146535439Y-68565000D01*
X145964561Y-68565000D01*
X145437138Y-68783466D01*
X145033466Y-69187138D01*
X144815000Y-69714561D01*
X143857172Y-69714561D01*
X143891914Y-69650959D01*
X143652389Y-69144866D01*
X143237423Y-68768959D01*
X142849039Y-68608096D01*
X142627000Y-68730085D01*
X142373000Y-68730085D01*
X142150961Y-68608096D01*
X141762577Y-68768959D01*
X141347611Y-69144866D01*
X141108086Y-69650959D01*
X139858266Y-69650959D01*
X139891914Y-69589359D01*
X139652389Y-69083266D01*
X139237423Y-68707359D01*
X138849039Y-68546496D01*
X138627000Y-68668485D01*
X138373000Y-68668485D01*
X138150961Y-68546496D01*
X137762577Y-68707359D01*
X137347611Y-69083266D01*
X137108086Y-69589359D01*
X135341032Y-69589359D01*
X135311340Y-69440091D01*
X134994177Y-68965423D01*
X134519509Y-68648260D01*
X134100933Y-68565000D01*
X133818267Y-68565000D01*
X133399691Y-68648260D01*
X132925023Y-68965423D01*
X132607860Y-69440091D01*
X132496487Y-70000000D01*
X130542074Y-70000000D01*
X130486165Y-69962643D01*
X130238400Y-69913360D01*
X128638400Y-69913360D01*
X128390635Y-69962643D01*
X128180591Y-70102991D01*
X128040243Y-70313035D01*
X128013615Y-70446906D01*
X127932977Y-70326223D01*
X127458309Y-70009060D01*
X127039733Y-69925800D01*
X126757067Y-69925800D01*
X126338491Y-70009060D01*
X125863823Y-70326223D01*
X125724000Y-70535483D01*
X125724000Y-68702469D01*
X125761765Y-68694957D01*
X125971809Y-68554609D01*
X126112157Y-68344565D01*
X126161440Y-68096800D01*
X126161440Y-66496800D01*
X126112157Y-66249035D01*
X125971809Y-66038991D01*
X125761765Y-65898643D01*
X125527813Y-65852107D01*
X125542139Y-65804545D01*
X124714000Y-64976405D01*
X123885861Y-65804545D01*
X123900187Y-65852107D01*
X123666235Y-65898643D01*
X123456191Y-66038991D01*
X123315843Y-66249035D01*
X123266560Y-66496800D01*
X123266560Y-68096800D01*
X123315843Y-68344565D01*
X123456191Y-68554609D01*
X123666235Y-68694957D01*
X123704000Y-68702469D01*
X123704001Y-70072196D01*
X123323823Y-70326223D01*
X123067453Y-70709908D01*
X122970789Y-70505666D01*
X122555823Y-70129759D01*
X122167439Y-69968896D01*
X121945400Y-70090885D01*
X121945400Y-71233800D01*
X121965400Y-71233800D01*
X121965400Y-71487800D01*
X121945400Y-71487800D01*
X121945400Y-72630715D01*
X122167439Y-72752704D01*
X122555823Y-72591841D01*
X122970789Y-72215934D01*
X123067453Y-72011692D01*
X123323823Y-72395377D01*
X123798491Y-72712540D01*
X123917797Y-72736271D01*
X120789069Y-75865000D01*
X118740478Y-75865000D01*
X118698157Y-75652235D01*
X118557809Y-75442191D01*
X118347765Y-75301843D01*
X118100000Y-75252560D01*
X115900000Y-75252560D01*
X115652235Y-75301843D01*
X115442191Y-75442191D01*
X115301843Y-75652235D01*
X115259522Y-75865000D01*
X115011781Y-75865000D01*
X114899999Y-75842765D01*
X114788217Y-75865000D01*
X114457145Y-75930854D01*
X114081711Y-76181711D01*
X114018391Y-76276476D01*
X109276482Y-81018387D01*
X109181711Y-81081711D01*
X108984717Y-81376534D01*
X108930854Y-81457146D01*
X108842765Y-81900000D01*
X108865000Y-82011783D01*
X108865000Y-82598496D01*
X108359586Y-83103910D01*
X108065000Y-83815105D01*
X101121639Y-83815105D01*
X100823977Y-83369623D01*
X100349309Y-83052460D01*
X99930733Y-82969200D01*
X98748067Y-82969200D01*
X98329491Y-83052460D01*
X97854823Y-83369623D01*
X97537660Y-83844291D01*
X97426287Y-84404200D01*
X87038728Y-84404200D01*
X87014356Y-79822203D01*
X90176973Y-79822203D01*
X90257346Y-80119567D01*
X90733147Y-80920847D01*
X91479367Y-81479052D01*
X92382400Y-81709200D01*
X94132400Y-81709200D01*
X94132400Y-79451200D01*
X94386400Y-79451200D01*
X94386400Y-81709200D01*
X96136400Y-81709200D01*
X97039433Y-81479052D01*
X97785653Y-80920847D01*
X98261454Y-80119567D01*
X98341827Y-79822203D01*
X98232025Y-79451200D01*
X94386400Y-79451200D01*
X94132400Y-79451200D01*
X90286775Y-79451200D01*
X90176973Y-79822203D01*
X87014356Y-79822203D01*
X87009059Y-78826197D01*
X90176973Y-78826197D01*
X90286775Y-79197200D01*
X94132400Y-79197200D01*
X94132400Y-76939200D01*
X94386400Y-76939200D01*
X94386400Y-79197200D01*
X98232025Y-79197200D01*
X98341827Y-78826197D01*
X98261454Y-78528833D01*
X97785653Y-77727553D01*
X97342590Y-77396122D01*
X105150825Y-77396122D01*
X105365466Y-77914332D01*
X105827608Y-78409012D01*
X106443877Y-78689183D01*
X106713000Y-78571604D01*
X106713000Y-77127000D01*
X106967000Y-77127000D01*
X106967000Y-78571604D01*
X107236123Y-78689183D01*
X107852392Y-78409012D01*
X108314534Y-77914332D01*
X108529175Y-77396122D01*
X108411125Y-77127000D01*
X106967000Y-77127000D01*
X106713000Y-77127000D01*
X105268875Y-77127000D01*
X105150825Y-77396122D01*
X97342590Y-77396122D01*
X97039433Y-77169348D01*
X96136400Y-76939200D01*
X94386400Y-76939200D01*
X94132400Y-76939200D01*
X92382400Y-76939200D01*
X91479367Y-77169348D01*
X90733147Y-77727553D01*
X90257346Y-78528833D01*
X90176973Y-78826197D01*
X87009059Y-78826197D01*
X86997239Y-76603878D01*
X105150825Y-76603878D01*
X105268875Y-76873000D01*
X106713000Y-76873000D01*
X106713000Y-75428396D01*
X106967000Y-75428396D01*
X106967000Y-76873000D01*
X108411125Y-76873000D01*
X108529175Y-76603878D01*
X108314534Y-76085668D01*
X107852392Y-75590988D01*
X107236123Y-75310817D01*
X106967000Y-75428396D01*
X106713000Y-75428396D01*
X106443877Y-75310817D01*
X105827608Y-75590988D01*
X105365466Y-76085668D01*
X105150825Y-76603878D01*
X86997239Y-76603878D01*
X86982138Y-73764932D01*
X114190673Y-73764932D01*
X114289336Y-74031787D01*
X114899061Y-74258308D01*
X115549060Y-74234256D01*
X116037864Y-74031787D01*
X116136527Y-73764932D01*
X115163600Y-72792005D01*
X114190673Y-73764932D01*
X86982138Y-73764932D01*
X86974600Y-72347861D01*
X113517692Y-72347861D01*
X113541744Y-72997860D01*
X113744213Y-73486664D01*
X114011068Y-73585327D01*
X114983995Y-72612400D01*
X115343205Y-72612400D01*
X116316132Y-73585327D01*
X116582987Y-73486664D01*
X116809508Y-72876939D01*
X116785456Y-72226940D01*
X116582987Y-71738136D01*
X116506458Y-71709841D01*
X120426486Y-71709841D01*
X120666011Y-72215934D01*
X121080977Y-72591841D01*
X121469361Y-72752704D01*
X121691400Y-72630715D01*
X121691400Y-71487800D01*
X120547771Y-71487800D01*
X120426486Y-71709841D01*
X116506458Y-71709841D01*
X116316132Y-71639473D01*
X115343205Y-72612400D01*
X114983995Y-72612400D01*
X114011068Y-71639473D01*
X113744213Y-71738136D01*
X113517692Y-72347861D01*
X86974600Y-72347861D01*
X86964126Y-70378865D01*
X90429782Y-70378865D01*
X90460095Y-70504528D01*
X90771149Y-71059246D01*
X91270807Y-71452703D01*
X91883000Y-71625000D01*
X92873000Y-71625000D01*
X92873000Y-70127000D01*
X93127000Y-70127000D01*
X93127000Y-71625000D01*
X94117000Y-71625000D01*
X94703734Y-71459868D01*
X114190673Y-71459868D01*
X115163600Y-72432795D01*
X116136527Y-71459868D01*
X116037864Y-71193013D01*
X115549984Y-71011759D01*
X120426486Y-71011759D01*
X120547771Y-71233800D01*
X121691400Y-71233800D01*
X121691400Y-70090885D01*
X121469361Y-69968896D01*
X121080977Y-70129759D01*
X120666011Y-70505666D01*
X120426486Y-71011759D01*
X115549984Y-71011759D01*
X115428139Y-70966492D01*
X114778140Y-70990544D01*
X114289336Y-71193013D01*
X114190673Y-71459868D01*
X94703734Y-71459868D01*
X94729193Y-71452703D01*
X95228851Y-71059246D01*
X95539905Y-70504528D01*
X95570218Y-70378865D01*
X95450740Y-70127000D01*
X93127000Y-70127000D01*
X92873000Y-70127000D01*
X90549260Y-70127000D01*
X90429782Y-70378865D01*
X86964126Y-70378865D01*
X86960096Y-69621135D01*
X90429782Y-69621135D01*
X90549260Y-69873000D01*
X92873000Y-69873000D01*
X92873000Y-68375000D01*
X93127000Y-68375000D01*
X93127000Y-69873000D01*
X95450740Y-69873000D01*
X95570218Y-69621135D01*
X95539905Y-69495472D01*
X95406602Y-69257745D01*
X105671861Y-69257745D01*
X105745995Y-69503864D01*
X106283223Y-69696965D01*
X106853454Y-69669778D01*
X107254005Y-69503864D01*
X107328139Y-69257745D01*
X106500000Y-68429605D01*
X105671861Y-69257745D01*
X95406602Y-69257745D01*
X95228851Y-68940754D01*
X94729193Y-68547297D01*
X94117000Y-68375000D01*
X93127000Y-68375000D01*
X92873000Y-68375000D01*
X91883000Y-68375000D01*
X91270807Y-68547297D01*
X90771149Y-68940754D01*
X90460095Y-69495472D01*
X90429782Y-69621135D01*
X86960096Y-69621135D01*
X86951650Y-68033223D01*
X105053035Y-68033223D01*
X105080222Y-68603454D01*
X105246136Y-69004005D01*
X105492255Y-69078139D01*
X106320395Y-68250000D01*
X106679605Y-68250000D01*
X107507745Y-69078139D01*
X107753864Y-69004005D01*
X107946965Y-68466777D01*
X107919778Y-67896546D01*
X107753864Y-67495995D01*
X107507745Y-67421861D01*
X106679605Y-68250000D01*
X106320395Y-68250000D01*
X105492255Y-67421861D01*
X105246136Y-67495995D01*
X105053035Y-68033223D01*
X86951650Y-68033223D01*
X86947443Y-67242255D01*
X105671861Y-67242255D01*
X106500000Y-68070395D01*
X107328139Y-67242255D01*
X107254005Y-66996136D01*
X106716777Y-66803035D01*
X106146546Y-66830222D01*
X105745995Y-66996136D01*
X105671861Y-67242255D01*
X86947443Y-67242255D01*
X86930248Y-64010000D01*
X90372560Y-64010000D01*
X90372560Y-65990000D01*
X90421843Y-66237765D01*
X90562191Y-66447809D01*
X90772235Y-66588157D01*
X91020000Y-66637440D01*
X94980000Y-66637440D01*
X95227765Y-66588157D01*
X95437809Y-66447809D01*
X95578157Y-66237765D01*
X95627440Y-65990000D01*
X95627440Y-64787178D01*
X113528600Y-64787178D01*
X113528600Y-65437622D01*
X113777514Y-66038553D01*
X114237447Y-66498486D01*
X114838378Y-66747400D01*
X115488822Y-66747400D01*
X116089753Y-66498486D01*
X116549686Y-66038553D01*
X116798600Y-65437622D01*
X116798600Y-64787178D01*
X116712794Y-64580023D01*
X123267035Y-64580023D01*
X123294222Y-65150254D01*
X123460136Y-65550805D01*
X123706255Y-65624939D01*
X124534395Y-64796800D01*
X124893605Y-64796800D01*
X125721745Y-65624939D01*
X125967864Y-65550805D01*
X126160965Y-65013577D01*
X126133778Y-64443346D01*
X125967864Y-64042795D01*
X125721745Y-63968661D01*
X124893605Y-64796800D01*
X124534395Y-64796800D01*
X123706255Y-63968661D01*
X123460136Y-64042795D01*
X123267035Y-64580023D01*
X116712794Y-64580023D01*
X116549686Y-64186247D01*
X116152494Y-63789055D01*
X123885861Y-63789055D01*
X124714000Y-64617195D01*
X125542139Y-63789055D01*
X125468005Y-63542936D01*
X124930777Y-63349835D01*
X124360546Y-63377022D01*
X123959995Y-63542936D01*
X123885861Y-63789055D01*
X116152494Y-63789055D01*
X116089753Y-63726314D01*
X115488822Y-63477400D01*
X114838378Y-63477400D01*
X114237447Y-63726314D01*
X113777514Y-64186247D01*
X113528600Y-64787178D01*
X95627440Y-64787178D01*
X95627440Y-64010000D01*
X95578157Y-63762235D01*
X95437809Y-63552191D01*
X95227765Y-63411843D01*
X94980000Y-63362560D01*
X91020000Y-63362560D01*
X90772235Y-63411843D01*
X90562191Y-63552191D01*
X90421843Y-63762235D01*
X90372560Y-64010000D01*
X86930248Y-64010000D01*
X86921950Y-62450000D01*
X105052560Y-62450000D01*
X105052560Y-64050000D01*
X105101843Y-64297765D01*
X105242191Y-64507809D01*
X105452235Y-64648157D01*
X105700000Y-64697440D01*
X107300000Y-64697440D01*
X107547765Y-64648157D01*
X107757809Y-64507809D01*
X107898157Y-64297765D01*
X107947440Y-64050000D01*
X107947440Y-62450000D01*
X107898157Y-62202235D01*
X107769709Y-62010000D01*
X141372560Y-62010000D01*
X141372560Y-63990000D01*
X141421843Y-64237765D01*
X141562191Y-64447809D01*
X141772235Y-64588157D01*
X142020000Y-64637440D01*
X145980000Y-64637440D01*
X146227765Y-64588157D01*
X146437809Y-64447809D01*
X146578157Y-64237765D01*
X146627440Y-63990000D01*
X146627440Y-62010000D01*
X146578157Y-61762235D01*
X146437809Y-61552191D01*
X146227765Y-61411843D01*
X145980000Y-61362560D01*
X142020000Y-61362560D01*
X141772235Y-61411843D01*
X141562191Y-61552191D01*
X141421843Y-61762235D01*
X141372560Y-62010000D01*
X107769709Y-62010000D01*
X107757809Y-61992191D01*
X107547765Y-61851843D01*
X107300000Y-61802560D01*
X105700000Y-61802560D01*
X105452235Y-61851843D01*
X105242191Y-61992191D01*
X105101843Y-62202235D01*
X105052560Y-62450000D01*
X86921950Y-62450000D01*
X86895914Y-57555431D01*
X88765000Y-57555431D01*
X88765000Y-58444569D01*
X89105259Y-59266026D01*
X89733974Y-59894741D01*
X90555431Y-60235000D01*
X91444569Y-60235000D01*
X92266026Y-59894741D01*
X92894741Y-59266026D01*
X93235000Y-58444569D01*
X93235000Y-58378865D01*
X141429782Y-58378865D01*
X141460095Y-58504528D01*
X141771149Y-59059246D01*
X142270807Y-59452703D01*
X142883000Y-59625000D01*
X143873000Y-59625000D01*
X143873000Y-58127000D01*
X144127000Y-58127000D01*
X144127000Y-59625000D01*
X145117000Y-59625000D01*
X145729193Y-59452703D01*
X146228851Y-59059246D01*
X146539905Y-58504528D01*
X146570218Y-58378865D01*
X146450740Y-58127000D01*
X144127000Y-58127000D01*
X143873000Y-58127000D01*
X141549260Y-58127000D01*
X141429782Y-58378865D01*
X93235000Y-58378865D01*
X93235000Y-57621135D01*
X141429782Y-57621135D01*
X141549260Y-57873000D01*
X143873000Y-57873000D01*
X143873000Y-56375000D01*
X144127000Y-56375000D01*
X144127000Y-57873000D01*
X146450740Y-57873000D01*
X146570218Y-57621135D01*
X146554369Y-57555431D01*
X153565000Y-57555431D01*
X153565000Y-58444569D01*
X153905259Y-59266026D01*
X154533974Y-59894741D01*
X155355431Y-60235000D01*
X156244569Y-60235000D01*
X157066026Y-59894741D01*
X157694741Y-59266026D01*
X158035000Y-58444569D01*
X158035000Y-57555431D01*
X157694741Y-56733974D01*
X157066026Y-56105259D01*
X156244569Y-55765000D01*
X155355431Y-55765000D01*
X154533974Y-56105259D01*
X153905259Y-56733974D01*
X153565000Y-57555431D01*
X146554369Y-57555431D01*
X146539905Y-57495472D01*
X146228851Y-56940754D01*
X145729193Y-56547297D01*
X145117000Y-56375000D01*
X144127000Y-56375000D01*
X143873000Y-56375000D01*
X142883000Y-56375000D01*
X142270807Y-56547297D01*
X141771149Y-56940754D01*
X141460095Y-57495472D01*
X141429782Y-57621135D01*
X93235000Y-57621135D01*
X93235000Y-57555431D01*
X92894741Y-56733974D01*
X92266026Y-56105259D01*
X91444569Y-55765000D01*
X90555431Y-55765000D01*
X89733974Y-56105259D01*
X89105259Y-56733974D01*
X88765000Y-57555431D01*
X86895914Y-57555431D01*
X86877677Y-54127000D01*
X160315000Y-54127000D01*
X160315000Y-73762345D01*
G04 #@! TD*
M02*
