G04 #@! TF.GenerationSoftware,KiCad,Pcbnew,5.0.2-bee76a0~70~ubuntu18.04.1*
G04 #@! TF.CreationDate,2019-07-29T09:45:32+01:00*
G04 #@! TF.ProjectId,led_driver,6c65645f-6472-4697-9665-722e6b696361,rev?*
G04 #@! TF.SameCoordinates,Original*
G04 #@! TF.FileFunction,Legend,Top*
G04 #@! TF.FilePolarity,Positive*
%FSLAX46Y46*%
G04 Gerber Fmt 4.6, Leading zero omitted, Abs format (unit mm)*
G04 Created by KiCad (PCBNEW 5.0.2-bee76a0~70~ubuntu18.04.1) date Mon 29 Jul 2019 09:45:32 BST*
%MOMM*%
%LPD*%
G01*
G04 APERTURE LIST*
%ADD10C,0.300000*%
%ADD11C,0.100000*%
%ADD12C,0.120000*%
%ADD13C,0.150000*%
G04 APERTURE END LIST*
D10*
X118821428Y-55735714D02*
X118750000Y-55807142D01*
X118535714Y-55878571D01*
X118392857Y-55878571D01*
X118178571Y-55807142D01*
X118035714Y-55664285D01*
X117964285Y-55521428D01*
X117892857Y-55235714D01*
X117892857Y-55021428D01*
X117964285Y-54735714D01*
X118035714Y-54592857D01*
X118178571Y-54450000D01*
X118392857Y-54378571D01*
X118535714Y-54378571D01*
X118750000Y-54450000D01*
X118821428Y-54521428D01*
X119464285Y-55092857D02*
X119964285Y-55092857D01*
X120178571Y-55878571D02*
X119464285Y-55878571D01*
X119464285Y-54378571D01*
X120178571Y-54378571D01*
X121678571Y-55878571D02*
X121178571Y-55164285D01*
X120821428Y-55878571D02*
X120821428Y-54378571D01*
X121392857Y-54378571D01*
X121535714Y-54450000D01*
X121607142Y-54521428D01*
X121678571Y-54664285D01*
X121678571Y-54878571D01*
X121607142Y-55021428D01*
X121535714Y-55092857D01*
X121392857Y-55164285D01*
X120821428Y-55164285D01*
X122321428Y-55878571D02*
X122321428Y-54378571D01*
X123178571Y-55878571D01*
X123178571Y-54378571D01*
X125321428Y-54378571D02*
X125607142Y-54378571D01*
X125750000Y-54450000D01*
X125892857Y-54592857D01*
X125964285Y-54878571D01*
X125964285Y-55378571D01*
X125892857Y-55664285D01*
X125750000Y-55807142D01*
X125607142Y-55878571D01*
X125321428Y-55878571D01*
X125178571Y-55807142D01*
X125035714Y-55664285D01*
X124964285Y-55378571D01*
X124964285Y-54878571D01*
X125035714Y-54592857D01*
X125178571Y-54450000D01*
X125321428Y-54378571D01*
X126607142Y-55878571D02*
X126607142Y-54378571D01*
X126607142Y-55092857D02*
X127464285Y-55092857D01*
X127464285Y-55878571D02*
X127464285Y-54378571D01*
X128892857Y-55878571D02*
X128178571Y-55878571D01*
X128178571Y-54378571D01*
X130392857Y-54878571D02*
X130750000Y-55878571D01*
X131107142Y-54878571D01*
X132464285Y-55878571D02*
X131607142Y-55878571D01*
X132035714Y-55878571D02*
X132035714Y-54378571D01*
X131892857Y-54592857D01*
X131750000Y-54735714D01*
X131607142Y-54807142D01*
X133107142Y-55735714D02*
X133178571Y-55807142D01*
X133107142Y-55878571D01*
X133035714Y-55807142D01*
X133107142Y-55735714D01*
X133107142Y-55878571D01*
X133750000Y-54521428D02*
X133821428Y-54450000D01*
X133964285Y-54378571D01*
X134321428Y-54378571D01*
X134464285Y-54450000D01*
X134535714Y-54521428D01*
X134607142Y-54664285D01*
X134607142Y-54807142D01*
X134535714Y-55021428D01*
X133678571Y-55878571D01*
X134607142Y-55878571D01*
X119142857Y-58428571D02*
X119142857Y-56928571D01*
X119142857Y-57500000D02*
X119285714Y-57428571D01*
X119571428Y-57428571D01*
X119714285Y-57500000D01*
X119785714Y-57571428D01*
X119857142Y-57714285D01*
X119857142Y-58142857D01*
X119785714Y-58285714D01*
X119714285Y-58357142D01*
X119571428Y-58428571D01*
X119285714Y-58428571D01*
X119142857Y-58357142D01*
X120357142Y-57428571D02*
X120714285Y-58428571D01*
X121071428Y-57428571D02*
X120714285Y-58428571D01*
X120571428Y-58785714D01*
X120500000Y-58857142D01*
X120357142Y-58928571D01*
X123428571Y-58428571D02*
X123428571Y-57642857D01*
X123357142Y-57500000D01*
X123214285Y-57428571D01*
X122928571Y-57428571D01*
X122785714Y-57500000D01*
X123428571Y-58357142D02*
X123285714Y-58428571D01*
X122928571Y-58428571D01*
X122785714Y-58357142D01*
X122714285Y-58214285D01*
X122714285Y-58071428D01*
X122785714Y-57928571D01*
X122928571Y-57857142D01*
X123285714Y-57857142D01*
X123428571Y-57785714D01*
X124142857Y-58428571D02*
X124142857Y-57428571D01*
X124142857Y-57571428D02*
X124214285Y-57500000D01*
X124357142Y-57428571D01*
X124571428Y-57428571D01*
X124714285Y-57500000D01*
X124785714Y-57642857D01*
X124785714Y-58428571D01*
X124785714Y-57642857D02*
X124857142Y-57500000D01*
X125000000Y-57428571D01*
X125214285Y-57428571D01*
X125357142Y-57500000D01*
X125428571Y-57642857D01*
X125428571Y-58428571D01*
X126785714Y-58357142D02*
X126642857Y-58428571D01*
X126357142Y-58428571D01*
X126214285Y-58357142D01*
X126142857Y-58285714D01*
X126071428Y-58142857D01*
X126071428Y-57714285D01*
X126142857Y-57571428D01*
X126214285Y-57500000D01*
X126357142Y-57428571D01*
X126642857Y-57428571D01*
X126785714Y-57500000D01*
X127428571Y-58428571D02*
X127428571Y-56928571D01*
X128071428Y-58428571D02*
X128071428Y-57642857D01*
X128000000Y-57500000D01*
X127857142Y-57428571D01*
X127642857Y-57428571D01*
X127500000Y-57500000D01*
X127428571Y-57571428D01*
X129428571Y-58428571D02*
X129428571Y-57642857D01*
X129357142Y-57500000D01*
X129214285Y-57428571D01*
X128928571Y-57428571D01*
X128785714Y-57500000D01*
X129428571Y-58357142D02*
X129285714Y-58428571D01*
X128928571Y-58428571D01*
X128785714Y-58357142D01*
X128714285Y-58214285D01*
X128714285Y-58071428D01*
X128785714Y-57928571D01*
X128928571Y-57857142D01*
X129285714Y-57857142D01*
X129428571Y-57785714D01*
X130785714Y-57428571D02*
X130785714Y-58642857D01*
X130714285Y-58785714D01*
X130642857Y-58857142D01*
X130500000Y-58928571D01*
X130285714Y-58928571D01*
X130142857Y-58857142D01*
X130785714Y-58357142D02*
X130642857Y-58428571D01*
X130357142Y-58428571D01*
X130214285Y-58357142D01*
X130142857Y-58285714D01*
X130071428Y-58142857D01*
X130071428Y-57714285D01*
X130142857Y-57571428D01*
X130214285Y-57500000D01*
X130357142Y-57428571D01*
X130642857Y-57428571D01*
X130785714Y-57500000D01*
X132142857Y-58428571D02*
X132142857Y-57642857D01*
X132071428Y-57500000D01*
X131928571Y-57428571D01*
X131642857Y-57428571D01*
X131500000Y-57500000D01*
X132142857Y-58357142D02*
X132000000Y-58428571D01*
X131642857Y-58428571D01*
X131500000Y-58357142D01*
X131428571Y-58214285D01*
X131428571Y-58071428D01*
X131500000Y-57928571D01*
X131642857Y-57857142D01*
X132000000Y-57857142D01*
X132142857Y-57785714D01*
X132785714Y-58357142D02*
X132928571Y-58428571D01*
X133214285Y-58428571D01*
X133357142Y-58357142D01*
X133428571Y-58214285D01*
X133428571Y-58142857D01*
X133357142Y-58000000D01*
X133214285Y-57928571D01*
X133000000Y-57928571D01*
X132857142Y-57857142D01*
X132785714Y-57714285D01*
X132785714Y-57642857D01*
X132857142Y-57500000D01*
X133000000Y-57428571D01*
X133214285Y-57428571D01*
X133357142Y-57500000D01*
X120821428Y-59621428D02*
X120892857Y-59550000D01*
X121035714Y-59478571D01*
X121392857Y-59478571D01*
X121535714Y-59550000D01*
X121607142Y-59621428D01*
X121678571Y-59764285D01*
X121678571Y-59907142D01*
X121607142Y-60121428D01*
X120750000Y-60978571D01*
X121678571Y-60978571D01*
X122607142Y-59478571D02*
X122750000Y-59478571D01*
X122892857Y-59550000D01*
X122964285Y-59621428D01*
X123035714Y-59764285D01*
X123107142Y-60050000D01*
X123107142Y-60407142D01*
X123035714Y-60692857D01*
X122964285Y-60835714D01*
X122892857Y-60907142D01*
X122750000Y-60978571D01*
X122607142Y-60978571D01*
X122464285Y-60907142D01*
X122392857Y-60835714D01*
X122321428Y-60692857D01*
X122250000Y-60407142D01*
X122250000Y-60050000D01*
X122321428Y-59764285D01*
X122392857Y-59621428D01*
X122464285Y-59550000D01*
X122607142Y-59478571D01*
X124535714Y-60978571D02*
X123678571Y-60978571D01*
X124107142Y-60978571D02*
X124107142Y-59478571D01*
X123964285Y-59692857D01*
X123821428Y-59835714D01*
X123678571Y-59907142D01*
X125250000Y-60978571D02*
X125535714Y-60978571D01*
X125678571Y-60907142D01*
X125750000Y-60835714D01*
X125892857Y-60621428D01*
X125964285Y-60335714D01*
X125964285Y-59764285D01*
X125892857Y-59621428D01*
X125821428Y-59550000D01*
X125678571Y-59478571D01*
X125392857Y-59478571D01*
X125250000Y-59550000D01*
X125178571Y-59621428D01*
X125107142Y-59764285D01*
X125107142Y-60121428D01*
X125178571Y-60264285D01*
X125250000Y-60335714D01*
X125392857Y-60407142D01*
X125678571Y-60407142D01*
X125821428Y-60335714D01*
X125892857Y-60264285D01*
X125964285Y-60121428D01*
X126892857Y-59478571D02*
X127035714Y-59478571D01*
X127178571Y-59550000D01*
X127250000Y-59621428D01*
X127321428Y-59764285D01*
X127392857Y-60050000D01*
X127392857Y-60407142D01*
X127321428Y-60692857D01*
X127250000Y-60835714D01*
X127178571Y-60907142D01*
X127035714Y-60978571D01*
X126892857Y-60978571D01*
X126750000Y-60907142D01*
X126678571Y-60835714D01*
X126607142Y-60692857D01*
X126535714Y-60407142D01*
X126535714Y-60050000D01*
X126607142Y-59764285D01*
X126678571Y-59621428D01*
X126750000Y-59550000D01*
X126892857Y-59478571D01*
X127892857Y-59478571D02*
X128892857Y-59478571D01*
X128250000Y-60978571D01*
X129392857Y-59621428D02*
X129464285Y-59550000D01*
X129607142Y-59478571D01*
X129964285Y-59478571D01*
X130107142Y-59550000D01*
X130178571Y-59621428D01*
X130250000Y-59764285D01*
X130250000Y-59907142D01*
X130178571Y-60121428D01*
X129321428Y-60978571D01*
X130250000Y-60978571D01*
X130964285Y-60978571D02*
X131250000Y-60978571D01*
X131392857Y-60907142D01*
X131464285Y-60835714D01*
X131607142Y-60621428D01*
X131678571Y-60335714D01*
X131678571Y-59764285D01*
X131607142Y-59621428D01*
X131535714Y-59550000D01*
X131392857Y-59478571D01*
X131107142Y-59478571D01*
X130964285Y-59550000D01*
X130892857Y-59621428D01*
X130821428Y-59764285D01*
X130821428Y-60121428D01*
X130892857Y-60264285D01*
X130964285Y-60335714D01*
X131107142Y-60407142D01*
X131392857Y-60407142D01*
X131535714Y-60335714D01*
X131607142Y-60264285D01*
X131678571Y-60121428D01*
X128721428Y-69828571D02*
X128721428Y-68971428D01*
X128721428Y-69400000D02*
X130221428Y-69400000D01*
X130007142Y-69257142D01*
X129864285Y-69114285D01*
X129792857Y-68971428D01*
X100692857Y-65021428D02*
X100692857Y-66164285D01*
X100121428Y-65592857D02*
X101264285Y-65592857D01*
X101621428Y-66664285D02*
X100121428Y-67164285D01*
X101621428Y-67664285D01*
X100121428Y-68164285D02*
X101121428Y-68164285D01*
X101621428Y-68164285D02*
X101550000Y-68092857D01*
X101478571Y-68164285D01*
X101550000Y-68235714D01*
X101621428Y-68164285D01*
X101478571Y-68164285D01*
X101121428Y-68878571D02*
X100121428Y-68878571D01*
X100978571Y-68878571D02*
X101050000Y-68950000D01*
X101121428Y-69092857D01*
X101121428Y-69307142D01*
X101050000Y-69450000D01*
X100907142Y-69521428D01*
X100121428Y-69521428D01*
X100692857Y-70235714D02*
X100692857Y-71378571D01*
X136507142Y-63928571D02*
X136507142Y-62785714D01*
X137078571Y-63357142D02*
X135935714Y-63357142D01*
X135578571Y-62285714D02*
X137078571Y-61785714D01*
X135578571Y-61285714D01*
X137078571Y-60571428D02*
X137007142Y-60714285D01*
X136935714Y-60785714D01*
X136792857Y-60857142D01*
X136364285Y-60857142D01*
X136221428Y-60785714D01*
X136150000Y-60714285D01*
X136078571Y-60571428D01*
X136078571Y-60357142D01*
X136150000Y-60214285D01*
X136221428Y-60142857D01*
X136364285Y-60071428D01*
X136792857Y-60071428D01*
X136935714Y-60142857D01*
X137007142Y-60214285D01*
X137078571Y-60357142D01*
X137078571Y-60571428D01*
X136078571Y-58785714D02*
X137078571Y-58785714D01*
X136078571Y-59428571D02*
X136864285Y-59428571D01*
X137007142Y-59357142D01*
X137078571Y-59214285D01*
X137078571Y-59000000D01*
X137007142Y-58857142D01*
X136935714Y-58785714D01*
X136078571Y-58285714D02*
X136078571Y-57714285D01*
X135578571Y-58071428D02*
X136864285Y-58071428D01*
X137007142Y-58000000D01*
X137078571Y-57857142D01*
X137078571Y-57714285D01*
X136507142Y-57214285D02*
X136507142Y-56071428D01*
X156721428Y-83628571D02*
X156721428Y-82771428D01*
X156721428Y-83200000D02*
X158221428Y-83200000D01*
X158007142Y-83057142D01*
X157864285Y-82914285D01*
X157792857Y-82771428D01*
D11*
X145747619Y-83485714D02*
X145747619Y-82914285D01*
X145747619Y-83200000D02*
X146747619Y-83200000D01*
X146604761Y-83104761D01*
X146509523Y-83009523D01*
X146461904Y-82914285D01*
D12*
G04 #@! TO.C,C1*
X127334000Y-66046800D02*
G75*
G03X127334000Y-66046800I-2620000J0D01*
G01*
X122134000Y-66046800D02*
X127294000Y-66046800D01*
X122134000Y-66006800D02*
X127294000Y-66006800D01*
X122135000Y-65966800D02*
X127293000Y-65966800D01*
X122136000Y-65926800D02*
X127292000Y-65926800D01*
X122138000Y-65886800D02*
X127290000Y-65886800D01*
X122141000Y-65846800D02*
X127287000Y-65846800D01*
X122145000Y-65806800D02*
X123674000Y-65806800D01*
X125754000Y-65806800D02*
X127283000Y-65806800D01*
X122149000Y-65766800D02*
X123674000Y-65766800D01*
X125754000Y-65766800D02*
X127279000Y-65766800D01*
X122153000Y-65726800D02*
X123674000Y-65726800D01*
X125754000Y-65726800D02*
X127275000Y-65726800D01*
X122158000Y-65686800D02*
X123674000Y-65686800D01*
X125754000Y-65686800D02*
X127270000Y-65686800D01*
X122164000Y-65646800D02*
X123674000Y-65646800D01*
X125754000Y-65646800D02*
X127264000Y-65646800D01*
X122171000Y-65606800D02*
X123674000Y-65606800D01*
X125754000Y-65606800D02*
X127257000Y-65606800D01*
X122178000Y-65566800D02*
X123674000Y-65566800D01*
X125754000Y-65566800D02*
X127250000Y-65566800D01*
X122186000Y-65526800D02*
X123674000Y-65526800D01*
X125754000Y-65526800D02*
X127242000Y-65526800D01*
X122194000Y-65486800D02*
X123674000Y-65486800D01*
X125754000Y-65486800D02*
X127234000Y-65486800D01*
X122203000Y-65446800D02*
X123674000Y-65446800D01*
X125754000Y-65446800D02*
X127225000Y-65446800D01*
X122213000Y-65406800D02*
X123674000Y-65406800D01*
X125754000Y-65406800D02*
X127215000Y-65406800D01*
X122223000Y-65366800D02*
X123674000Y-65366800D01*
X125754000Y-65366800D02*
X127205000Y-65366800D01*
X122234000Y-65325800D02*
X123674000Y-65325800D01*
X125754000Y-65325800D02*
X127194000Y-65325800D01*
X122246000Y-65285800D02*
X123674000Y-65285800D01*
X125754000Y-65285800D02*
X127182000Y-65285800D01*
X122259000Y-65245800D02*
X123674000Y-65245800D01*
X125754000Y-65245800D02*
X127169000Y-65245800D01*
X122272000Y-65205800D02*
X123674000Y-65205800D01*
X125754000Y-65205800D02*
X127156000Y-65205800D01*
X122286000Y-65165800D02*
X123674000Y-65165800D01*
X125754000Y-65165800D02*
X127142000Y-65165800D01*
X122300000Y-65125800D02*
X123674000Y-65125800D01*
X125754000Y-65125800D02*
X127128000Y-65125800D01*
X122316000Y-65085800D02*
X123674000Y-65085800D01*
X125754000Y-65085800D02*
X127112000Y-65085800D01*
X122332000Y-65045800D02*
X123674000Y-65045800D01*
X125754000Y-65045800D02*
X127096000Y-65045800D01*
X122349000Y-65005800D02*
X123674000Y-65005800D01*
X125754000Y-65005800D02*
X127079000Y-65005800D01*
X122366000Y-64965800D02*
X123674000Y-64965800D01*
X125754000Y-64965800D02*
X127062000Y-64965800D01*
X122385000Y-64925800D02*
X123674000Y-64925800D01*
X125754000Y-64925800D02*
X127043000Y-64925800D01*
X122404000Y-64885800D02*
X123674000Y-64885800D01*
X125754000Y-64885800D02*
X127024000Y-64885800D01*
X122424000Y-64845800D02*
X123674000Y-64845800D01*
X125754000Y-64845800D02*
X127004000Y-64845800D01*
X122446000Y-64805800D02*
X123674000Y-64805800D01*
X125754000Y-64805800D02*
X126982000Y-64805800D01*
X122467000Y-64765800D02*
X123674000Y-64765800D01*
X125754000Y-64765800D02*
X126961000Y-64765800D01*
X122490000Y-64725800D02*
X123674000Y-64725800D01*
X125754000Y-64725800D02*
X126938000Y-64725800D01*
X122514000Y-64685800D02*
X123674000Y-64685800D01*
X125754000Y-64685800D02*
X126914000Y-64685800D01*
X122539000Y-64645800D02*
X123674000Y-64645800D01*
X125754000Y-64645800D02*
X126889000Y-64645800D01*
X122565000Y-64605800D02*
X123674000Y-64605800D01*
X125754000Y-64605800D02*
X126863000Y-64605800D01*
X122592000Y-64565800D02*
X123674000Y-64565800D01*
X125754000Y-64565800D02*
X126836000Y-64565800D01*
X122619000Y-64525800D02*
X123674000Y-64525800D01*
X125754000Y-64525800D02*
X126809000Y-64525800D01*
X122649000Y-64485800D02*
X123674000Y-64485800D01*
X125754000Y-64485800D02*
X126779000Y-64485800D01*
X122679000Y-64445800D02*
X123674000Y-64445800D01*
X125754000Y-64445800D02*
X126749000Y-64445800D01*
X122710000Y-64405800D02*
X123674000Y-64405800D01*
X125754000Y-64405800D02*
X126718000Y-64405800D01*
X122743000Y-64365800D02*
X123674000Y-64365800D01*
X125754000Y-64365800D02*
X126685000Y-64365800D01*
X122777000Y-64325800D02*
X123674000Y-64325800D01*
X125754000Y-64325800D02*
X126651000Y-64325800D01*
X122813000Y-64285800D02*
X123674000Y-64285800D01*
X125754000Y-64285800D02*
X126615000Y-64285800D01*
X122850000Y-64245800D02*
X123674000Y-64245800D01*
X125754000Y-64245800D02*
X126578000Y-64245800D01*
X122888000Y-64205800D02*
X123674000Y-64205800D01*
X125754000Y-64205800D02*
X126540000Y-64205800D01*
X122929000Y-64165800D02*
X123674000Y-64165800D01*
X125754000Y-64165800D02*
X126499000Y-64165800D01*
X122971000Y-64125800D02*
X123674000Y-64125800D01*
X125754000Y-64125800D02*
X126457000Y-64125800D01*
X123015000Y-64085800D02*
X123674000Y-64085800D01*
X125754000Y-64085800D02*
X126413000Y-64085800D01*
X123061000Y-64045800D02*
X123674000Y-64045800D01*
X125754000Y-64045800D02*
X126367000Y-64045800D01*
X123109000Y-64005800D02*
X123674000Y-64005800D01*
X125754000Y-64005800D02*
X126319000Y-64005800D01*
X123160000Y-63965800D02*
X123674000Y-63965800D01*
X125754000Y-63965800D02*
X126268000Y-63965800D01*
X123214000Y-63925800D02*
X123674000Y-63925800D01*
X125754000Y-63925800D02*
X126214000Y-63925800D01*
X123271000Y-63885800D02*
X123674000Y-63885800D01*
X125754000Y-63885800D02*
X126157000Y-63885800D01*
X123331000Y-63845800D02*
X123674000Y-63845800D01*
X125754000Y-63845800D02*
X126097000Y-63845800D01*
X123395000Y-63805800D02*
X123674000Y-63805800D01*
X125754000Y-63805800D02*
X126033000Y-63805800D01*
X123463000Y-63765800D02*
X123674000Y-63765800D01*
X125754000Y-63765800D02*
X125965000Y-63765800D01*
X123536000Y-63725800D02*
X125892000Y-63725800D01*
X123616000Y-63685800D02*
X125812000Y-63685800D01*
X123703000Y-63645800D02*
X125725000Y-63645800D01*
X123799000Y-63605800D02*
X125629000Y-63605800D01*
X123909000Y-63565800D02*
X125519000Y-63565800D01*
X124037000Y-63525800D02*
X125391000Y-63525800D01*
X124196000Y-63485800D02*
X125232000Y-63485800D01*
X124430000Y-63445800D02*
X124998000Y-63445800D01*
X123239000Y-68851575D02*
X123239000Y-68351575D01*
X122989000Y-68601575D02*
X123489000Y-68601575D01*
G04 #@! TO.C,C2*
X131120000Y-93500000D02*
G75*
G03X131120000Y-93500000I-4120000J0D01*
G01*
X131080000Y-93500000D02*
X122920000Y-93500000D01*
X131080000Y-93540000D02*
X122920000Y-93540000D01*
X131080000Y-93580000D02*
X122920000Y-93580000D01*
X131079000Y-93620000D02*
X122921000Y-93620000D01*
X131077000Y-93660000D02*
X122923000Y-93660000D01*
X131076000Y-93700000D02*
X122924000Y-93700000D01*
X131074000Y-93740000D02*
X122926000Y-93740000D01*
X131071000Y-93780000D02*
X122929000Y-93780000D01*
X131068000Y-93820000D02*
X122932000Y-93820000D01*
X131065000Y-93860000D02*
X122935000Y-93860000D01*
X131061000Y-93900000D02*
X122939000Y-93900000D01*
X131057000Y-93940000D02*
X122943000Y-93940000D01*
X131052000Y-93980000D02*
X122948000Y-93980000D01*
X131048000Y-94020000D02*
X122952000Y-94020000D01*
X131042000Y-94060000D02*
X122958000Y-94060000D01*
X131037000Y-94100000D02*
X122963000Y-94100000D01*
X131030000Y-94140000D02*
X122970000Y-94140000D01*
X131024000Y-94180000D02*
X122976000Y-94180000D01*
X131017000Y-94221000D02*
X122983000Y-94221000D01*
X131010000Y-94261000D02*
X122990000Y-94261000D01*
X131002000Y-94301000D02*
X122998000Y-94301000D01*
X130994000Y-94341000D02*
X123006000Y-94341000D01*
X130985000Y-94381000D02*
X123015000Y-94381000D01*
X130976000Y-94421000D02*
X123024000Y-94421000D01*
X130967000Y-94461000D02*
X123033000Y-94461000D01*
X130957000Y-94501000D02*
X123043000Y-94501000D01*
X130947000Y-94541000D02*
X123053000Y-94541000D01*
X130936000Y-94581000D02*
X123064000Y-94581000D01*
X130925000Y-94621000D02*
X123075000Y-94621000D01*
X130914000Y-94661000D02*
X123086000Y-94661000D01*
X130902000Y-94701000D02*
X123098000Y-94701000D01*
X130889000Y-94741000D02*
X123111000Y-94741000D01*
X130877000Y-94781000D02*
X123123000Y-94781000D01*
X130863000Y-94821000D02*
X123137000Y-94821000D01*
X130850000Y-94861000D02*
X123150000Y-94861000D01*
X130835000Y-94901000D02*
X123165000Y-94901000D01*
X130821000Y-94941000D02*
X123179000Y-94941000D01*
X130805000Y-94981000D02*
X128040000Y-94981000D01*
X125960000Y-94981000D02*
X123195000Y-94981000D01*
X130790000Y-95021000D02*
X128040000Y-95021000D01*
X125960000Y-95021000D02*
X123210000Y-95021000D01*
X130774000Y-95061000D02*
X128040000Y-95061000D01*
X125960000Y-95061000D02*
X123226000Y-95061000D01*
X130757000Y-95101000D02*
X128040000Y-95101000D01*
X125960000Y-95101000D02*
X123243000Y-95101000D01*
X130740000Y-95141000D02*
X128040000Y-95141000D01*
X125960000Y-95141000D02*
X123260000Y-95141000D01*
X130722000Y-95181000D02*
X128040000Y-95181000D01*
X125960000Y-95181000D02*
X123278000Y-95181000D01*
X130704000Y-95221000D02*
X128040000Y-95221000D01*
X125960000Y-95221000D02*
X123296000Y-95221000D01*
X130686000Y-95261000D02*
X128040000Y-95261000D01*
X125960000Y-95261000D02*
X123314000Y-95261000D01*
X130666000Y-95301000D02*
X128040000Y-95301000D01*
X125960000Y-95301000D02*
X123334000Y-95301000D01*
X130647000Y-95341000D02*
X128040000Y-95341000D01*
X125960000Y-95341000D02*
X123353000Y-95341000D01*
X130627000Y-95381000D02*
X128040000Y-95381000D01*
X125960000Y-95381000D02*
X123373000Y-95381000D01*
X130606000Y-95421000D02*
X128040000Y-95421000D01*
X125960000Y-95421000D02*
X123394000Y-95421000D01*
X130584000Y-95461000D02*
X128040000Y-95461000D01*
X125960000Y-95461000D02*
X123416000Y-95461000D01*
X130562000Y-95501000D02*
X128040000Y-95501000D01*
X125960000Y-95501000D02*
X123438000Y-95501000D01*
X130540000Y-95541000D02*
X128040000Y-95541000D01*
X125960000Y-95541000D02*
X123460000Y-95541000D01*
X130517000Y-95581000D02*
X128040000Y-95581000D01*
X125960000Y-95581000D02*
X123483000Y-95581000D01*
X130493000Y-95621000D02*
X128040000Y-95621000D01*
X125960000Y-95621000D02*
X123507000Y-95621000D01*
X130469000Y-95661000D02*
X128040000Y-95661000D01*
X125960000Y-95661000D02*
X123531000Y-95661000D01*
X130444000Y-95701000D02*
X128040000Y-95701000D01*
X125960000Y-95701000D02*
X123556000Y-95701000D01*
X130418000Y-95741000D02*
X128040000Y-95741000D01*
X125960000Y-95741000D02*
X123582000Y-95741000D01*
X130392000Y-95781000D02*
X128040000Y-95781000D01*
X125960000Y-95781000D02*
X123608000Y-95781000D01*
X130365000Y-95821000D02*
X128040000Y-95821000D01*
X125960000Y-95821000D02*
X123635000Y-95821000D01*
X130338000Y-95861000D02*
X128040000Y-95861000D01*
X125960000Y-95861000D02*
X123662000Y-95861000D01*
X130309000Y-95901000D02*
X128040000Y-95901000D01*
X125960000Y-95901000D02*
X123691000Y-95901000D01*
X130280000Y-95941000D02*
X128040000Y-95941000D01*
X125960000Y-95941000D02*
X123720000Y-95941000D01*
X130250000Y-95981000D02*
X128040000Y-95981000D01*
X125960000Y-95981000D02*
X123750000Y-95981000D01*
X130220000Y-96021000D02*
X128040000Y-96021000D01*
X125960000Y-96021000D02*
X123780000Y-96021000D01*
X130189000Y-96061000D02*
X128040000Y-96061000D01*
X125960000Y-96061000D02*
X123811000Y-96061000D01*
X130156000Y-96101000D02*
X128040000Y-96101000D01*
X125960000Y-96101000D02*
X123844000Y-96101000D01*
X130124000Y-96141000D02*
X128040000Y-96141000D01*
X125960000Y-96141000D02*
X123876000Y-96141000D01*
X130090000Y-96181000D02*
X128040000Y-96181000D01*
X125960000Y-96181000D02*
X123910000Y-96181000D01*
X130055000Y-96221000D02*
X128040000Y-96221000D01*
X125960000Y-96221000D02*
X123945000Y-96221000D01*
X130019000Y-96261000D02*
X128040000Y-96261000D01*
X125960000Y-96261000D02*
X123981000Y-96261000D01*
X129983000Y-96301000D02*
X128040000Y-96301000D01*
X125960000Y-96301000D02*
X124017000Y-96301000D01*
X129945000Y-96341000D02*
X128040000Y-96341000D01*
X125960000Y-96341000D02*
X124055000Y-96341000D01*
X129907000Y-96381000D02*
X128040000Y-96381000D01*
X125960000Y-96381000D02*
X124093000Y-96381000D01*
X129867000Y-96421000D02*
X128040000Y-96421000D01*
X125960000Y-96421000D02*
X124133000Y-96421000D01*
X129826000Y-96461000D02*
X128040000Y-96461000D01*
X125960000Y-96461000D02*
X124174000Y-96461000D01*
X129784000Y-96501000D02*
X128040000Y-96501000D01*
X125960000Y-96501000D02*
X124216000Y-96501000D01*
X129741000Y-96541000D02*
X128040000Y-96541000D01*
X125960000Y-96541000D02*
X124259000Y-96541000D01*
X129697000Y-96581000D02*
X128040000Y-96581000D01*
X125960000Y-96581000D02*
X124303000Y-96581000D01*
X129651000Y-96621000D02*
X128040000Y-96621000D01*
X125960000Y-96621000D02*
X124349000Y-96621000D01*
X129604000Y-96661000D02*
X128040000Y-96661000D01*
X125960000Y-96661000D02*
X124396000Y-96661000D01*
X129556000Y-96701000D02*
X128040000Y-96701000D01*
X125960000Y-96701000D02*
X124444000Y-96701000D01*
X129505000Y-96741000D02*
X128040000Y-96741000D01*
X125960000Y-96741000D02*
X124495000Y-96741000D01*
X129454000Y-96781000D02*
X128040000Y-96781000D01*
X125960000Y-96781000D02*
X124546000Y-96781000D01*
X129400000Y-96821000D02*
X128040000Y-96821000D01*
X125960000Y-96821000D02*
X124600000Y-96821000D01*
X129345000Y-96861000D02*
X128040000Y-96861000D01*
X125960000Y-96861000D02*
X124655000Y-96861000D01*
X129287000Y-96901000D02*
X128040000Y-96901000D01*
X125960000Y-96901000D02*
X124713000Y-96901000D01*
X129228000Y-96941000D02*
X128040000Y-96941000D01*
X125960000Y-96941000D02*
X124772000Y-96941000D01*
X129166000Y-96981000D02*
X128040000Y-96981000D01*
X125960000Y-96981000D02*
X124834000Y-96981000D01*
X129102000Y-97021000D02*
X128040000Y-97021000D01*
X125960000Y-97021000D02*
X124898000Y-97021000D01*
X129034000Y-97061000D02*
X124966000Y-97061000D01*
X128964000Y-97101000D02*
X125036000Y-97101000D01*
X128890000Y-97141000D02*
X125110000Y-97141000D01*
X128813000Y-97181000D02*
X125187000Y-97181000D01*
X128731000Y-97221000D02*
X125269000Y-97221000D01*
X128645000Y-97261000D02*
X125355000Y-97261000D01*
X128552000Y-97301000D02*
X125448000Y-97301000D01*
X128453000Y-97341000D02*
X125547000Y-97341000D01*
X128346000Y-97381000D02*
X125654000Y-97381000D01*
X128229000Y-97421000D02*
X125771000Y-97421000D01*
X128098000Y-97461000D02*
X125902000Y-97461000D01*
X127948000Y-97501000D02*
X126052000Y-97501000D01*
X127768000Y-97541000D02*
X126232000Y-97541000D01*
X127533000Y-97581000D02*
X126467000Y-97581000D01*
X129315000Y-89090302D02*
X129315000Y-89890302D01*
X129715000Y-89490302D02*
X128915000Y-89490302D01*
G04 #@! TO.C,C3*
X129370000Y-87820000D02*
X121130000Y-87820000D01*
X129370000Y-82580000D02*
X121130000Y-82580000D01*
X129370000Y-87820000D02*
X129370000Y-86456000D01*
X129370000Y-83944000D02*
X129370000Y-82580000D01*
X121130000Y-87820000D02*
X121130000Y-86456000D01*
X121130000Y-83944000D02*
X121130000Y-82580000D01*
G04 #@! TO.C,C4*
X109215000Y-61740302D02*
X108415000Y-61740302D01*
X108815000Y-61340302D02*
X108815000Y-62140302D01*
X107033000Y-69831000D02*
X105967000Y-69831000D01*
X107268000Y-69791000D02*
X105732000Y-69791000D01*
X107448000Y-69751000D02*
X105552000Y-69751000D01*
X107598000Y-69711000D02*
X105402000Y-69711000D01*
X107729000Y-69671000D02*
X105271000Y-69671000D01*
X107846000Y-69631000D02*
X105154000Y-69631000D01*
X107953000Y-69591000D02*
X105047000Y-69591000D01*
X108052000Y-69551000D02*
X104948000Y-69551000D01*
X108145000Y-69511000D02*
X104855000Y-69511000D01*
X108231000Y-69471000D02*
X104769000Y-69471000D01*
X108313000Y-69431000D02*
X104687000Y-69431000D01*
X108390000Y-69391000D02*
X104610000Y-69391000D01*
X108464000Y-69351000D02*
X104536000Y-69351000D01*
X108534000Y-69311000D02*
X104466000Y-69311000D01*
X105460000Y-69271000D02*
X104398000Y-69271000D01*
X108602000Y-69271000D02*
X107540000Y-69271000D01*
X105460000Y-69231000D02*
X104334000Y-69231000D01*
X108666000Y-69231000D02*
X107540000Y-69231000D01*
X105460000Y-69191000D02*
X104272000Y-69191000D01*
X108728000Y-69191000D02*
X107540000Y-69191000D01*
X105460000Y-69151000D02*
X104213000Y-69151000D01*
X108787000Y-69151000D02*
X107540000Y-69151000D01*
X105460000Y-69111000D02*
X104155000Y-69111000D01*
X108845000Y-69111000D02*
X107540000Y-69111000D01*
X105460000Y-69071000D02*
X104100000Y-69071000D01*
X108900000Y-69071000D02*
X107540000Y-69071000D01*
X105460000Y-69031000D02*
X104046000Y-69031000D01*
X108954000Y-69031000D02*
X107540000Y-69031000D01*
X105460000Y-68991000D02*
X103995000Y-68991000D01*
X109005000Y-68991000D02*
X107540000Y-68991000D01*
X105460000Y-68951000D02*
X103944000Y-68951000D01*
X109056000Y-68951000D02*
X107540000Y-68951000D01*
X105460000Y-68911000D02*
X103896000Y-68911000D01*
X109104000Y-68911000D02*
X107540000Y-68911000D01*
X105460000Y-68871000D02*
X103849000Y-68871000D01*
X109151000Y-68871000D02*
X107540000Y-68871000D01*
X105460000Y-68831000D02*
X103803000Y-68831000D01*
X109197000Y-68831000D02*
X107540000Y-68831000D01*
X105460000Y-68791000D02*
X103759000Y-68791000D01*
X109241000Y-68791000D02*
X107540000Y-68791000D01*
X105460000Y-68751000D02*
X103716000Y-68751000D01*
X109284000Y-68751000D02*
X107540000Y-68751000D01*
X105460000Y-68711000D02*
X103674000Y-68711000D01*
X109326000Y-68711000D02*
X107540000Y-68711000D01*
X105460000Y-68671000D02*
X103633000Y-68671000D01*
X109367000Y-68671000D02*
X107540000Y-68671000D01*
X105460000Y-68631000D02*
X103593000Y-68631000D01*
X109407000Y-68631000D02*
X107540000Y-68631000D01*
X105460000Y-68591000D02*
X103555000Y-68591000D01*
X109445000Y-68591000D02*
X107540000Y-68591000D01*
X105460000Y-68551000D02*
X103517000Y-68551000D01*
X109483000Y-68551000D02*
X107540000Y-68551000D01*
X105460000Y-68511000D02*
X103481000Y-68511000D01*
X109519000Y-68511000D02*
X107540000Y-68511000D01*
X105460000Y-68471000D02*
X103445000Y-68471000D01*
X109555000Y-68471000D02*
X107540000Y-68471000D01*
X105460000Y-68431000D02*
X103410000Y-68431000D01*
X109590000Y-68431000D02*
X107540000Y-68431000D01*
X105460000Y-68391000D02*
X103376000Y-68391000D01*
X109624000Y-68391000D02*
X107540000Y-68391000D01*
X105460000Y-68351000D02*
X103344000Y-68351000D01*
X109656000Y-68351000D02*
X107540000Y-68351000D01*
X105460000Y-68311000D02*
X103311000Y-68311000D01*
X109689000Y-68311000D02*
X107540000Y-68311000D01*
X105460000Y-68271000D02*
X103280000Y-68271000D01*
X109720000Y-68271000D02*
X107540000Y-68271000D01*
X105460000Y-68231000D02*
X103250000Y-68231000D01*
X109750000Y-68231000D02*
X107540000Y-68231000D01*
X105460000Y-68191000D02*
X103220000Y-68191000D01*
X109780000Y-68191000D02*
X107540000Y-68191000D01*
X105460000Y-68151000D02*
X103191000Y-68151000D01*
X109809000Y-68151000D02*
X107540000Y-68151000D01*
X105460000Y-68111000D02*
X103162000Y-68111000D01*
X109838000Y-68111000D02*
X107540000Y-68111000D01*
X105460000Y-68071000D02*
X103135000Y-68071000D01*
X109865000Y-68071000D02*
X107540000Y-68071000D01*
X105460000Y-68031000D02*
X103108000Y-68031000D01*
X109892000Y-68031000D02*
X107540000Y-68031000D01*
X105460000Y-67991000D02*
X103082000Y-67991000D01*
X109918000Y-67991000D02*
X107540000Y-67991000D01*
X105460000Y-67951000D02*
X103056000Y-67951000D01*
X109944000Y-67951000D02*
X107540000Y-67951000D01*
X105460000Y-67911000D02*
X103031000Y-67911000D01*
X109969000Y-67911000D02*
X107540000Y-67911000D01*
X105460000Y-67871000D02*
X103007000Y-67871000D01*
X109993000Y-67871000D02*
X107540000Y-67871000D01*
X105460000Y-67831000D02*
X102983000Y-67831000D01*
X110017000Y-67831000D02*
X107540000Y-67831000D01*
X105460000Y-67791000D02*
X102960000Y-67791000D01*
X110040000Y-67791000D02*
X107540000Y-67791000D01*
X105460000Y-67751000D02*
X102938000Y-67751000D01*
X110062000Y-67751000D02*
X107540000Y-67751000D01*
X105460000Y-67711000D02*
X102916000Y-67711000D01*
X110084000Y-67711000D02*
X107540000Y-67711000D01*
X105460000Y-67671000D02*
X102894000Y-67671000D01*
X110106000Y-67671000D02*
X107540000Y-67671000D01*
X105460000Y-67631000D02*
X102873000Y-67631000D01*
X110127000Y-67631000D02*
X107540000Y-67631000D01*
X105460000Y-67591000D02*
X102853000Y-67591000D01*
X110147000Y-67591000D02*
X107540000Y-67591000D01*
X105460000Y-67551000D02*
X102834000Y-67551000D01*
X110166000Y-67551000D02*
X107540000Y-67551000D01*
X105460000Y-67511000D02*
X102814000Y-67511000D01*
X110186000Y-67511000D02*
X107540000Y-67511000D01*
X105460000Y-67471000D02*
X102796000Y-67471000D01*
X110204000Y-67471000D02*
X107540000Y-67471000D01*
X105460000Y-67431000D02*
X102778000Y-67431000D01*
X110222000Y-67431000D02*
X107540000Y-67431000D01*
X105460000Y-67391000D02*
X102760000Y-67391000D01*
X110240000Y-67391000D02*
X107540000Y-67391000D01*
X105460000Y-67351000D02*
X102743000Y-67351000D01*
X110257000Y-67351000D02*
X107540000Y-67351000D01*
X105460000Y-67311000D02*
X102726000Y-67311000D01*
X110274000Y-67311000D02*
X107540000Y-67311000D01*
X105460000Y-67271000D02*
X102710000Y-67271000D01*
X110290000Y-67271000D02*
X107540000Y-67271000D01*
X105460000Y-67231000D02*
X102695000Y-67231000D01*
X110305000Y-67231000D02*
X107540000Y-67231000D01*
X110321000Y-67191000D02*
X102679000Y-67191000D01*
X110335000Y-67151000D02*
X102665000Y-67151000D01*
X110350000Y-67111000D02*
X102650000Y-67111000D01*
X110363000Y-67071000D02*
X102637000Y-67071000D01*
X110377000Y-67031000D02*
X102623000Y-67031000D01*
X110389000Y-66991000D02*
X102611000Y-66991000D01*
X110402000Y-66951000D02*
X102598000Y-66951000D01*
X110414000Y-66911000D02*
X102586000Y-66911000D01*
X110425000Y-66871000D02*
X102575000Y-66871000D01*
X110436000Y-66831000D02*
X102564000Y-66831000D01*
X110447000Y-66791000D02*
X102553000Y-66791000D01*
X110457000Y-66751000D02*
X102543000Y-66751000D01*
X110467000Y-66711000D02*
X102533000Y-66711000D01*
X110476000Y-66671000D02*
X102524000Y-66671000D01*
X110485000Y-66631000D02*
X102515000Y-66631000D01*
X110494000Y-66591000D02*
X102506000Y-66591000D01*
X110502000Y-66551000D02*
X102498000Y-66551000D01*
X110510000Y-66511000D02*
X102490000Y-66511000D01*
X110517000Y-66471000D02*
X102483000Y-66471000D01*
X110524000Y-66430000D02*
X102476000Y-66430000D01*
X110530000Y-66390000D02*
X102470000Y-66390000D01*
X110537000Y-66350000D02*
X102463000Y-66350000D01*
X110542000Y-66310000D02*
X102458000Y-66310000D01*
X110548000Y-66270000D02*
X102452000Y-66270000D01*
X110552000Y-66230000D02*
X102448000Y-66230000D01*
X110557000Y-66190000D02*
X102443000Y-66190000D01*
X110561000Y-66150000D02*
X102439000Y-66150000D01*
X110565000Y-66110000D02*
X102435000Y-66110000D01*
X110568000Y-66070000D02*
X102432000Y-66070000D01*
X110571000Y-66030000D02*
X102429000Y-66030000D01*
X110574000Y-65990000D02*
X102426000Y-65990000D01*
X110576000Y-65950000D02*
X102424000Y-65950000D01*
X110577000Y-65910000D02*
X102423000Y-65910000D01*
X110579000Y-65870000D02*
X102421000Y-65870000D01*
X110580000Y-65830000D02*
X102420000Y-65830000D01*
X110580000Y-65790000D02*
X102420000Y-65790000D01*
X110580000Y-65750000D02*
X102420000Y-65750000D01*
X110620000Y-65750000D02*
G75*
G03X110620000Y-65750000I-4120000J0D01*
G01*
G04 #@! TO.C,C5*
X113907600Y-70070000D02*
X112543600Y-70070000D01*
X117783600Y-70070000D02*
X116419600Y-70070000D01*
X113907600Y-61830000D02*
X112543600Y-61830000D01*
X117783600Y-61830000D02*
X116419600Y-61830000D01*
X112543600Y-61830000D02*
X112543600Y-70070000D01*
X117783600Y-61830000D02*
X117783600Y-70070000D01*
G04 #@! TO.C,D1*
X114640000Y-78470000D02*
X114640000Y-75530000D01*
X114640000Y-75530000D02*
X109200000Y-75530000D01*
X109200000Y-75530000D02*
X109200000Y-78470000D01*
X109200000Y-78470000D02*
X114640000Y-78470000D01*
X115660000Y-77000000D02*
X114640000Y-77000000D01*
X108180000Y-77000000D02*
X109200000Y-77000000D01*
X113740000Y-78470000D02*
X113740000Y-75530000D01*
X113620000Y-78470000D02*
X113620000Y-75530000D01*
X113860000Y-78470000D02*
X113860000Y-75530000D01*
G04 #@! TO.C,J1*
X99300000Y-73200000D02*
X99300000Y-62350000D01*
X94200000Y-73200000D02*
X99300000Y-73200000D01*
X94500000Y-72700000D02*
X94200000Y-73200000D01*
X89100000Y-72700000D02*
X94500000Y-72700000D01*
X89350000Y-73200000D02*
X89100000Y-72700000D01*
X89300000Y-73200000D02*
X89350000Y-73200000D01*
X87400000Y-73200000D02*
X89300000Y-73200000D01*
X87650000Y-72700000D02*
X87400000Y-73200000D01*
X86700000Y-72700000D02*
X87650000Y-72700000D01*
X86700000Y-62350000D02*
X86700000Y-72700000D01*
X99300000Y-62350000D02*
X86700000Y-62350000D01*
G04 #@! TO.C,J2*
X137700000Y-65650000D02*
X150300000Y-65650000D01*
X150300000Y-65650000D02*
X150300000Y-55300000D01*
X150300000Y-55300000D02*
X149350000Y-55300000D01*
X149350000Y-55300000D02*
X149600000Y-54800000D01*
X149600000Y-54800000D02*
X147700000Y-54800000D01*
X147700000Y-54800000D02*
X147650000Y-54800000D01*
X147650000Y-54800000D02*
X147900000Y-55300000D01*
X147900000Y-55300000D02*
X142500000Y-55300000D01*
X142500000Y-55300000D02*
X142800000Y-54800000D01*
X142800000Y-54800000D02*
X137700000Y-54800000D01*
X137700000Y-54800000D02*
X137700000Y-65650000D01*
G04 #@! TO.C,J3*
X86639400Y-91904200D02*
X86639400Y-76904200D01*
X86639400Y-76904200D02*
X101639400Y-76904200D01*
X101639400Y-76904200D02*
X101639400Y-91904200D01*
X101639400Y-91904200D02*
X86639400Y-91904200D01*
X86839400Y-84404200D02*
X87839400Y-85404200D01*
X86839400Y-84404200D02*
X87839400Y-83404200D01*
G04 #@! TO.C,Q1*
X158200000Y-84000000D02*
X157800000Y-84000000D01*
X158200000Y-90600000D02*
X158200000Y-84000000D01*
X152600000Y-90200000D02*
X152600000Y-85000000D01*
D13*
G04 #@! TO.C,Q2*
X146975000Y-85525000D02*
X146925000Y-85525000D01*
X146975000Y-89675000D02*
X146830000Y-89675000D01*
X141825000Y-89675000D02*
X141970000Y-89675000D01*
X141825000Y-85525000D02*
X141970000Y-85525000D01*
X146975000Y-85525000D02*
X146975000Y-89675000D01*
X141825000Y-85525000D02*
X141825000Y-89675000D01*
X146925000Y-85525000D02*
X146925000Y-84125000D01*
D12*
G04 #@! TO.C,R1*
X137130000Y-78288400D02*
X139870000Y-78288400D01*
X139870000Y-78288400D02*
X139870000Y-71748400D01*
X139870000Y-71748400D02*
X137130000Y-71748400D01*
X137130000Y-71748400D02*
X137130000Y-78288400D01*
X138500000Y-79058400D02*
X138500000Y-78288400D01*
X138500000Y-70978400D02*
X138500000Y-71748400D01*
G04 #@! TO.C,R3*
X135000000Y-93320000D02*
X135000000Y-92550000D01*
X135000000Y-85240000D02*
X135000000Y-86010000D01*
X136370000Y-92550000D02*
X136370000Y-86010000D01*
X133630000Y-92550000D02*
X136370000Y-92550000D01*
X133630000Y-86010000D02*
X133630000Y-92550000D01*
X136370000Y-86010000D02*
X133630000Y-86010000D01*
G04 #@! TO.C,R4*
X147620000Y-71810000D02*
X144880000Y-71810000D01*
X144880000Y-71810000D02*
X144880000Y-78350000D01*
X144880000Y-78350000D02*
X147620000Y-78350000D01*
X147620000Y-78350000D02*
X147620000Y-71810000D01*
X146250000Y-71040000D02*
X146250000Y-71810000D01*
X146250000Y-79120000D02*
X146250000Y-78350000D01*
G04 #@! TO.C,R5*
X151370000Y-71810000D02*
X148630000Y-71810000D01*
X148630000Y-71810000D02*
X148630000Y-78350000D01*
X148630000Y-78350000D02*
X151370000Y-78350000D01*
X151370000Y-78350000D02*
X151370000Y-71810000D01*
X150000000Y-71040000D02*
X150000000Y-71810000D01*
X150000000Y-79120000D02*
X150000000Y-78350000D01*
G04 #@! TO.C,R6*
X142500000Y-71040000D02*
X142500000Y-71810000D01*
X142500000Y-79120000D02*
X142500000Y-78350000D01*
X141130000Y-71810000D02*
X141130000Y-78350000D01*
X143870000Y-71810000D02*
X141130000Y-71810000D01*
X143870000Y-78350000D02*
X143870000Y-71810000D01*
X141130000Y-78350000D02*
X143870000Y-78350000D01*
G04 #@! TO.C,RV2*
X153879000Y-67880000D02*
X159120000Y-67880000D01*
X153879000Y-82120000D02*
X159120000Y-82120000D01*
X159120000Y-67880000D02*
X159120000Y-73575000D01*
X159120000Y-76425000D02*
X159120000Y-82120000D01*
X153879000Y-81425000D02*
X153879000Y-82120000D01*
X153879000Y-67880000D02*
X153879000Y-68574000D01*
X153879000Y-71426000D02*
X153879000Y-78575000D01*
X153879000Y-71880000D02*
X159120000Y-71880000D01*
X153879000Y-78121000D02*
X159120000Y-78121000D01*
X153879000Y-71880000D02*
X153879000Y-78121000D01*
X159120000Y-71880000D02*
X159120000Y-73575000D01*
X159120000Y-76425000D02*
X159120000Y-78121000D01*
G04 #@! TO.C,U1*
X130768400Y-76170800D02*
G75*
G02X130768400Y-74170800I0J1000000D01*
G01*
X130768400Y-74170800D02*
X130768400Y-72520800D01*
X130768400Y-72520800D02*
X120488400Y-72520800D01*
X120488400Y-72520800D02*
X120488400Y-77820800D01*
X120488400Y-77820800D02*
X130768400Y-77820800D01*
X130768400Y-77820800D02*
X130768400Y-76170800D01*
G04 #@! TO.C,L1*
X114041652Y-85440000D02*
G75*
G03X106958348Y-85440000I-3541652J-1560000D01*
G01*
X114041652Y-88560000D02*
G75*
G02X106958348Y-88560000I-3541652J1560000D01*
G01*
G04 #@! TO.C,R2*
X131589600Y-78250000D02*
X136329600Y-78250000D01*
X136329600Y-78250000D02*
X136329600Y-66110000D01*
X136329600Y-66110000D02*
X131589600Y-66110000D01*
X131589600Y-66110000D02*
X131589600Y-78250000D01*
X133959600Y-78360000D02*
X133959600Y-78250000D01*
X133959600Y-66000000D02*
X133959600Y-66110000D01*
G04 #@! TO.C,R7*
X147580000Y-102870000D02*
X137340000Y-102870000D01*
X147580000Y-98229000D02*
X137340000Y-98229000D01*
X147580000Y-102870000D02*
X147580000Y-98229000D01*
X137340000Y-102870000D02*
X137340000Y-98229000D01*
X147580000Y-101360000D02*
X137340000Y-101360000D01*
X144310000Y-102870000D02*
X144310000Y-101360000D01*
X140609000Y-102870000D02*
X140609000Y-101360000D01*
G04 #@! TO.C,RV1*
X108920000Y-95640000D02*
X111950000Y-95640000D01*
X113250000Y-95640000D02*
X116160000Y-95640000D01*
X108920000Y-102480000D02*
X111950000Y-102480000D01*
X113250000Y-102480000D02*
X116160000Y-102480000D01*
X108920000Y-95640000D02*
X108920000Y-102480000D01*
X116160000Y-95640000D02*
X116160000Y-102480000D01*
G04 #@! TO.C,C1*
D13*
X121321142Y-66213466D02*
X121368761Y-66261085D01*
X121416380Y-66403942D01*
X121416380Y-66499180D01*
X121368761Y-66642038D01*
X121273523Y-66737276D01*
X121178285Y-66784895D01*
X120987809Y-66832514D01*
X120844952Y-66832514D01*
X120654476Y-66784895D01*
X120559238Y-66737276D01*
X120464000Y-66642038D01*
X120416380Y-66499180D01*
X120416380Y-66403942D01*
X120464000Y-66261085D01*
X120511619Y-66213466D01*
X121416380Y-65261085D02*
X121416380Y-65832514D01*
X121416380Y-65546800D02*
X120416380Y-65546800D01*
X120559238Y-65642038D01*
X120654476Y-65737276D01*
X120702095Y-65832514D01*
X123357142Y-62385714D02*
X123357142Y-63052380D01*
X123119047Y-62004761D02*
X122880952Y-62719047D01*
X123500000Y-62719047D01*
X123785714Y-62052380D02*
X124452380Y-62052380D01*
X124023809Y-63052380D01*
X125023809Y-62052380D02*
X125119047Y-62052380D01*
X125214285Y-62100000D01*
X125261904Y-62147619D01*
X125309523Y-62242857D01*
X125357142Y-62433333D01*
X125357142Y-62671428D01*
X125309523Y-62861904D01*
X125261904Y-62957142D01*
X125214285Y-63004761D01*
X125119047Y-63052380D01*
X125023809Y-63052380D01*
X124928571Y-63004761D01*
X124880952Y-62957142D01*
X124833333Y-62861904D01*
X124785714Y-62671428D01*
X124785714Y-62433333D01*
X124833333Y-62242857D01*
X124880952Y-62147619D01*
X124928571Y-62100000D01*
X125023809Y-62052380D01*
X125785714Y-62385714D02*
X125785714Y-63385714D01*
X125785714Y-62433333D02*
X125880952Y-62385714D01*
X126071428Y-62385714D01*
X126166666Y-62433333D01*
X126214285Y-62480952D01*
X126261904Y-62576190D01*
X126261904Y-62861904D01*
X126214285Y-62957142D01*
X126166666Y-63004761D01*
X126071428Y-63052380D01*
X125880952Y-63052380D01*
X125785714Y-63004761D01*
X127023809Y-62528571D02*
X126690476Y-62528571D01*
X126690476Y-63052380D02*
X126690476Y-62052380D01*
X127166666Y-62052380D01*
G04 #@! TO.C,C2*
X123957142Y-97966666D02*
X124004761Y-98014285D01*
X124052380Y-98157142D01*
X124052380Y-98252380D01*
X124004761Y-98395238D01*
X123909523Y-98490476D01*
X123814285Y-98538095D01*
X123623809Y-98585714D01*
X123480952Y-98585714D01*
X123290476Y-98538095D01*
X123195238Y-98490476D01*
X123100000Y-98395238D01*
X123052380Y-98252380D01*
X123052380Y-98157142D01*
X123100000Y-98014285D01*
X123147619Y-97966666D01*
X123147619Y-97585714D02*
X123100000Y-97538095D01*
X123052380Y-97442857D01*
X123052380Y-97204761D01*
X123100000Y-97109523D01*
X123147619Y-97061904D01*
X123242857Y-97014285D01*
X123338095Y-97014285D01*
X123480952Y-97061904D01*
X124052380Y-97633333D01*
X124052380Y-97014285D01*
X125009523Y-98347619D02*
X125057142Y-98300000D01*
X125152380Y-98252380D01*
X125390476Y-98252380D01*
X125485714Y-98300000D01*
X125533333Y-98347619D01*
X125580952Y-98442857D01*
X125580952Y-98538095D01*
X125533333Y-98680952D01*
X124961904Y-99252380D01*
X125580952Y-99252380D01*
X125961904Y-98347619D02*
X126009523Y-98300000D01*
X126104761Y-98252380D01*
X126342857Y-98252380D01*
X126438095Y-98300000D01*
X126485714Y-98347619D01*
X126533333Y-98442857D01*
X126533333Y-98538095D01*
X126485714Y-98680952D01*
X125914285Y-99252380D01*
X126533333Y-99252380D01*
X127152380Y-98252380D02*
X127247619Y-98252380D01*
X127342857Y-98300000D01*
X127390476Y-98347619D01*
X127438095Y-98442857D01*
X127485714Y-98633333D01*
X127485714Y-98871428D01*
X127438095Y-99061904D01*
X127390476Y-99157142D01*
X127342857Y-99204761D01*
X127247619Y-99252380D01*
X127152380Y-99252380D01*
X127057142Y-99204761D01*
X127009523Y-99157142D01*
X126961904Y-99061904D01*
X126914285Y-98871428D01*
X126914285Y-98633333D01*
X126961904Y-98442857D01*
X127009523Y-98347619D01*
X127057142Y-98300000D01*
X127152380Y-98252380D01*
X127914285Y-98585714D02*
X127914285Y-99585714D01*
X128390476Y-99109523D02*
X128438095Y-99204761D01*
X128533333Y-99252380D01*
X127914285Y-99109523D02*
X127961904Y-99204761D01*
X128057142Y-99252380D01*
X128247619Y-99252380D01*
X128342857Y-99204761D01*
X128390476Y-99109523D01*
X128390476Y-98585714D01*
X129295238Y-98728571D02*
X128961904Y-98728571D01*
X128961904Y-99252380D02*
X128961904Y-98252380D01*
X129438095Y-98252380D01*
G04 #@! TO.C,C3*
X121033333Y-81757142D02*
X120985714Y-81804761D01*
X120842857Y-81852380D01*
X120747619Y-81852380D01*
X120604761Y-81804761D01*
X120509523Y-81709523D01*
X120461904Y-81614285D01*
X120414285Y-81423809D01*
X120414285Y-81280952D01*
X120461904Y-81090476D01*
X120509523Y-80995238D01*
X120604761Y-80900000D01*
X120747619Y-80852380D01*
X120842857Y-80852380D01*
X120985714Y-80900000D01*
X121033333Y-80947619D01*
X121366666Y-80852380D02*
X121985714Y-80852380D01*
X121652380Y-81233333D01*
X121795238Y-81233333D01*
X121890476Y-81280952D01*
X121938095Y-81328571D01*
X121985714Y-81423809D01*
X121985714Y-81661904D01*
X121938095Y-81757142D01*
X121890476Y-81804761D01*
X121795238Y-81852380D01*
X121509523Y-81852380D01*
X121414285Y-81804761D01*
X121366666Y-81757142D01*
X123702380Y-81902380D02*
X123130952Y-81902380D01*
X123416666Y-81902380D02*
X123416666Y-80902380D01*
X123321428Y-81045238D01*
X123226190Y-81140476D01*
X123130952Y-81188095D01*
X124321428Y-80902380D02*
X124416666Y-80902380D01*
X124511904Y-80950000D01*
X124559523Y-80997619D01*
X124607142Y-81092857D01*
X124654761Y-81283333D01*
X124654761Y-81521428D01*
X124607142Y-81711904D01*
X124559523Y-81807142D01*
X124511904Y-81854761D01*
X124416666Y-81902380D01*
X124321428Y-81902380D01*
X124226190Y-81854761D01*
X124178571Y-81807142D01*
X124130952Y-81711904D01*
X124083333Y-81521428D01*
X124083333Y-81283333D01*
X124130952Y-81092857D01*
X124178571Y-80997619D01*
X124226190Y-80950000D01*
X124321428Y-80902380D01*
X125273809Y-80902380D02*
X125369047Y-80902380D01*
X125464285Y-80950000D01*
X125511904Y-80997619D01*
X125559523Y-81092857D01*
X125607142Y-81283333D01*
X125607142Y-81521428D01*
X125559523Y-81711904D01*
X125511904Y-81807142D01*
X125464285Y-81854761D01*
X125369047Y-81902380D01*
X125273809Y-81902380D01*
X125178571Y-81854761D01*
X125130952Y-81807142D01*
X125083333Y-81711904D01*
X125035714Y-81521428D01*
X125035714Y-81283333D01*
X125083333Y-81092857D01*
X125130952Y-80997619D01*
X125178571Y-80950000D01*
X125273809Y-80902380D01*
X126035714Y-81235714D02*
X126035714Y-81902380D01*
X126035714Y-81330952D02*
X126083333Y-81283333D01*
X126178571Y-81235714D01*
X126321428Y-81235714D01*
X126416666Y-81283333D01*
X126464285Y-81378571D01*
X126464285Y-81902380D01*
X127273809Y-81378571D02*
X126940476Y-81378571D01*
X126940476Y-81902380D02*
X126940476Y-80902380D01*
X127416666Y-80902380D01*
G04 #@! TO.C,C4*
X103233333Y-60957142D02*
X103185714Y-61004761D01*
X103042857Y-61052380D01*
X102947619Y-61052380D01*
X102804761Y-61004761D01*
X102709523Y-60909523D01*
X102661904Y-60814285D01*
X102614285Y-60623809D01*
X102614285Y-60480952D01*
X102661904Y-60290476D01*
X102709523Y-60195238D01*
X102804761Y-60100000D01*
X102947619Y-60052380D01*
X103042857Y-60052380D01*
X103185714Y-60100000D01*
X103233333Y-60147619D01*
X104090476Y-60385714D02*
X104090476Y-61052380D01*
X103852380Y-60004761D02*
X103614285Y-60719047D01*
X104233333Y-60719047D01*
X105209523Y-60147619D02*
X105257142Y-60100000D01*
X105352380Y-60052380D01*
X105590476Y-60052380D01*
X105685714Y-60100000D01*
X105733333Y-60147619D01*
X105780952Y-60242857D01*
X105780952Y-60338095D01*
X105733333Y-60480952D01*
X105161904Y-61052380D01*
X105780952Y-61052380D01*
X106161904Y-60147619D02*
X106209523Y-60100000D01*
X106304761Y-60052380D01*
X106542857Y-60052380D01*
X106638095Y-60100000D01*
X106685714Y-60147619D01*
X106733333Y-60242857D01*
X106733333Y-60338095D01*
X106685714Y-60480952D01*
X106114285Y-61052380D01*
X106733333Y-61052380D01*
X107352380Y-60052380D02*
X107447619Y-60052380D01*
X107542857Y-60100000D01*
X107590476Y-60147619D01*
X107638095Y-60242857D01*
X107685714Y-60433333D01*
X107685714Y-60671428D01*
X107638095Y-60861904D01*
X107590476Y-60957142D01*
X107542857Y-61004761D01*
X107447619Y-61052380D01*
X107352380Y-61052380D01*
X107257142Y-61004761D01*
X107209523Y-60957142D01*
X107161904Y-60861904D01*
X107114285Y-60671428D01*
X107114285Y-60433333D01*
X107161904Y-60242857D01*
X107209523Y-60147619D01*
X107257142Y-60100000D01*
X107352380Y-60052380D01*
X108114285Y-60385714D02*
X108114285Y-61385714D01*
X108590476Y-60909523D02*
X108638095Y-61004761D01*
X108733333Y-61052380D01*
X108114285Y-60909523D02*
X108161904Y-61004761D01*
X108257142Y-61052380D01*
X108447619Y-61052380D01*
X108542857Y-61004761D01*
X108590476Y-60909523D01*
X108590476Y-60385714D01*
X109495238Y-60528571D02*
X109161904Y-60528571D01*
X109161904Y-61052380D02*
X109161904Y-60052380D01*
X109638095Y-60052380D01*
G04 #@! TO.C,C5*
X112833333Y-60644742D02*
X112785714Y-60692361D01*
X112642857Y-60739980D01*
X112547619Y-60739980D01*
X112404761Y-60692361D01*
X112309523Y-60597123D01*
X112261904Y-60501885D01*
X112214285Y-60311409D01*
X112214285Y-60168552D01*
X112261904Y-59978076D01*
X112309523Y-59882838D01*
X112404761Y-59787600D01*
X112547619Y-59739980D01*
X112642857Y-59739980D01*
X112785714Y-59787600D01*
X112833333Y-59835219D01*
X113738095Y-59739980D02*
X113261904Y-59739980D01*
X113214285Y-60216171D01*
X113261904Y-60168552D01*
X113357142Y-60120933D01*
X113595238Y-60120933D01*
X113690476Y-60168552D01*
X113738095Y-60216171D01*
X113785714Y-60311409D01*
X113785714Y-60549504D01*
X113738095Y-60644742D01*
X113690476Y-60692361D01*
X113595238Y-60739980D01*
X113357142Y-60739980D01*
X113261904Y-60692361D01*
X113214285Y-60644742D01*
X115052380Y-60739980D02*
X114480952Y-60739980D01*
X114766666Y-60739980D02*
X114766666Y-59739980D01*
X114671428Y-59882838D01*
X114576190Y-59978076D01*
X114480952Y-60025695D01*
X115671428Y-59739980D02*
X115766666Y-59739980D01*
X115861904Y-59787600D01*
X115909523Y-59835219D01*
X115957142Y-59930457D01*
X116004761Y-60120933D01*
X116004761Y-60359028D01*
X115957142Y-60549504D01*
X115909523Y-60644742D01*
X115861904Y-60692361D01*
X115766666Y-60739980D01*
X115671428Y-60739980D01*
X115576190Y-60692361D01*
X115528571Y-60644742D01*
X115480952Y-60549504D01*
X115433333Y-60359028D01*
X115433333Y-60120933D01*
X115480952Y-59930457D01*
X115528571Y-59835219D01*
X115576190Y-59787600D01*
X115671428Y-59739980D01*
X116623809Y-59739980D02*
X116719047Y-59739980D01*
X116814285Y-59787600D01*
X116861904Y-59835219D01*
X116909523Y-59930457D01*
X116957142Y-60120933D01*
X116957142Y-60359028D01*
X116909523Y-60549504D01*
X116861904Y-60644742D01*
X116814285Y-60692361D01*
X116719047Y-60739980D01*
X116623809Y-60739980D01*
X116528571Y-60692361D01*
X116480952Y-60644742D01*
X116433333Y-60549504D01*
X116385714Y-60359028D01*
X116385714Y-60120933D01*
X116433333Y-59930457D01*
X116480952Y-59835219D01*
X116528571Y-59787600D01*
X116623809Y-59739980D01*
X117385714Y-60073314D02*
X117385714Y-60739980D01*
X117385714Y-60168552D02*
X117433333Y-60120933D01*
X117528571Y-60073314D01*
X117671428Y-60073314D01*
X117766666Y-60120933D01*
X117814285Y-60216171D01*
X117814285Y-60739980D01*
X118623809Y-60216171D02*
X118290476Y-60216171D01*
X118290476Y-60739980D02*
X118290476Y-59739980D01*
X118766666Y-59739980D01*
G04 #@! TO.C,D1*
X105661904Y-74852380D02*
X105661904Y-73852380D01*
X105900000Y-73852380D01*
X106042857Y-73900000D01*
X106138095Y-73995238D01*
X106185714Y-74090476D01*
X106233333Y-74280952D01*
X106233333Y-74423809D01*
X106185714Y-74614285D01*
X106138095Y-74709523D01*
X106042857Y-74804761D01*
X105900000Y-74852380D01*
X105661904Y-74852380D01*
X107185714Y-74852380D02*
X106614285Y-74852380D01*
X106900000Y-74852380D02*
X106900000Y-73852380D01*
X106804761Y-73995238D01*
X106709523Y-74090476D01*
X106614285Y-74138095D01*
X109777142Y-74982380D02*
X109205714Y-74982380D01*
X109491428Y-74982380D02*
X109491428Y-73982380D01*
X109396190Y-74125238D01*
X109300952Y-74220476D01*
X109205714Y-74268095D01*
X110205714Y-74982380D02*
X110205714Y-73982380D01*
X110777142Y-74982380D01*
X110777142Y-73982380D01*
X111729523Y-73982380D02*
X111253333Y-73982380D01*
X111205714Y-74458571D01*
X111253333Y-74410952D01*
X111348571Y-74363333D01*
X111586666Y-74363333D01*
X111681904Y-74410952D01*
X111729523Y-74458571D01*
X111777142Y-74553809D01*
X111777142Y-74791904D01*
X111729523Y-74887142D01*
X111681904Y-74934761D01*
X111586666Y-74982380D01*
X111348571Y-74982380D01*
X111253333Y-74934761D01*
X111205714Y-74887142D01*
X112348571Y-74410952D02*
X112253333Y-74363333D01*
X112205714Y-74315714D01*
X112158095Y-74220476D01*
X112158095Y-74172857D01*
X112205714Y-74077619D01*
X112253333Y-74030000D01*
X112348571Y-73982380D01*
X112539047Y-73982380D01*
X112634285Y-74030000D01*
X112681904Y-74077619D01*
X112729523Y-74172857D01*
X112729523Y-74220476D01*
X112681904Y-74315714D01*
X112634285Y-74363333D01*
X112539047Y-74410952D01*
X112348571Y-74410952D01*
X112253333Y-74458571D01*
X112205714Y-74506190D01*
X112158095Y-74601428D01*
X112158095Y-74791904D01*
X112205714Y-74887142D01*
X112253333Y-74934761D01*
X112348571Y-74982380D01*
X112539047Y-74982380D01*
X112634285Y-74934761D01*
X112681904Y-74887142D01*
X112729523Y-74791904D01*
X112729523Y-74601428D01*
X112681904Y-74506190D01*
X112634285Y-74458571D01*
X112539047Y-74410952D01*
X113681904Y-74982380D02*
X113110476Y-74982380D01*
X113396190Y-74982380D02*
X113396190Y-73982380D01*
X113300952Y-74125238D01*
X113205714Y-74220476D01*
X113110476Y-74268095D01*
X114158095Y-74982380D02*
X114348571Y-74982380D01*
X114443809Y-74934761D01*
X114491428Y-74887142D01*
X114586666Y-74744285D01*
X114634285Y-74553809D01*
X114634285Y-74172857D01*
X114586666Y-74077619D01*
X114539047Y-74030000D01*
X114443809Y-73982380D01*
X114253333Y-73982380D01*
X114158095Y-74030000D01*
X114110476Y-74077619D01*
X114062857Y-74172857D01*
X114062857Y-74410952D01*
X114110476Y-74506190D01*
X114158095Y-74553809D01*
X114253333Y-74601428D01*
X114443809Y-74601428D01*
X114539047Y-74553809D01*
X114586666Y-74506190D01*
X114634285Y-74410952D01*
X116738095Y-79552380D02*
X116738095Y-78552380D01*
X117309523Y-79552380D02*
X116880952Y-78980952D01*
X117309523Y-78552380D02*
X116738095Y-79123809D01*
G04 #@! TO.C,J1*
X99852380Y-72933333D02*
X100566666Y-72933333D01*
X100709523Y-72980952D01*
X100804761Y-73076190D01*
X100852380Y-73219047D01*
X100852380Y-73314285D01*
X100852380Y-71933333D02*
X100852380Y-72504761D01*
X100852380Y-72219047D02*
X99852380Y-72219047D01*
X99995238Y-72314285D01*
X100090476Y-72409523D01*
X100138095Y-72504761D01*
G04 #@! TO.C,J2*
X137866666Y-66452380D02*
X137866666Y-67166666D01*
X137819047Y-67309523D01*
X137723809Y-67404761D01*
X137580952Y-67452380D01*
X137485714Y-67452380D01*
X138295238Y-66547619D02*
X138342857Y-66500000D01*
X138438095Y-66452380D01*
X138676190Y-66452380D01*
X138771428Y-66500000D01*
X138819047Y-66547619D01*
X138866666Y-66642857D01*
X138866666Y-66738095D01*
X138819047Y-66880952D01*
X138247619Y-67452380D01*
X138866666Y-67452380D01*
X141157142Y-67452380D02*
X140680952Y-67452380D01*
X140680952Y-66452380D01*
X141490476Y-66928571D02*
X141823809Y-66928571D01*
X141966666Y-67452380D02*
X141490476Y-67452380D01*
X141490476Y-66452380D01*
X141966666Y-66452380D01*
X142395238Y-67452380D02*
X142395238Y-66452380D01*
X142633333Y-66452380D01*
X142776190Y-66500000D01*
X142871428Y-66595238D01*
X142919047Y-66690476D01*
X142966666Y-66880952D01*
X142966666Y-67023809D01*
X142919047Y-67214285D01*
X142871428Y-67309523D01*
X142776190Y-67404761D01*
X142633333Y-67452380D01*
X142395238Y-67452380D01*
G04 #@! TO.C,J3*
X102452380Y-91933333D02*
X103166666Y-91933333D01*
X103309523Y-91980952D01*
X103404761Y-92076190D01*
X103452380Y-92219047D01*
X103452380Y-92314285D01*
X102452380Y-91552380D02*
X102452380Y-90933333D01*
X102833333Y-91266666D01*
X102833333Y-91123809D01*
X102880952Y-91028571D01*
X102928571Y-90980952D01*
X103023809Y-90933333D01*
X103261904Y-90933333D01*
X103357142Y-90980952D01*
X103404761Y-91028571D01*
X103452380Y-91123809D01*
X103452380Y-91409523D01*
X103404761Y-91504761D01*
X103357142Y-91552380D01*
X103204761Y-87451819D02*
X103252380Y-87547057D01*
X103252380Y-87737533D01*
X103204761Y-87832771D01*
X103157142Y-87880390D01*
X103061904Y-87928009D01*
X102776190Y-87928009D01*
X102680952Y-87880390D01*
X102633333Y-87832771D01*
X102585714Y-87737533D01*
X102585714Y-87547057D01*
X102633333Y-87451819D01*
X103252380Y-86880390D02*
X103204761Y-86975628D01*
X103157142Y-87023247D01*
X103061904Y-87070866D01*
X102776190Y-87070866D01*
X102680952Y-87023247D01*
X102633333Y-86975628D01*
X102585714Y-86880390D01*
X102585714Y-86737533D01*
X102633333Y-86642295D01*
X102680952Y-86594676D01*
X102776190Y-86547057D01*
X103061904Y-86547057D01*
X103157142Y-86594676D01*
X103204761Y-86642295D01*
X103252380Y-86737533D01*
X103252380Y-86880390D01*
X102585714Y-86118485D02*
X103252380Y-86118485D01*
X102680952Y-86118485D02*
X102633333Y-86070866D01*
X102585714Y-85975628D01*
X102585714Y-85832771D01*
X102633333Y-85737533D01*
X102728571Y-85689914D01*
X103252380Y-85689914D01*
X102585714Y-85356580D02*
X102585714Y-84975628D01*
X102252380Y-85213723D02*
X103109523Y-85213723D01*
X103204761Y-85166104D01*
X103252380Y-85070866D01*
X103252380Y-84975628D01*
X103252380Y-84642295D02*
X102585714Y-84642295D01*
X102776190Y-84642295D02*
X102680952Y-84594676D01*
X102633333Y-84547057D01*
X102585714Y-84451819D01*
X102585714Y-84356580D01*
X103252380Y-83880390D02*
X103204761Y-83975628D01*
X103157142Y-84023247D01*
X103061904Y-84070866D01*
X102776190Y-84070866D01*
X102680952Y-84023247D01*
X102633333Y-83975628D01*
X102585714Y-83880390D01*
X102585714Y-83737533D01*
X102633333Y-83642295D01*
X102680952Y-83594676D01*
X102776190Y-83547057D01*
X103061904Y-83547057D01*
X103157142Y-83594676D01*
X103204761Y-83642295D01*
X103252380Y-83737533D01*
X103252380Y-83880390D01*
X103252380Y-82975628D02*
X103204761Y-83070866D01*
X103109523Y-83118485D01*
X102252380Y-83118485D01*
X103347619Y-82832771D02*
X103347619Y-82070866D01*
X103252380Y-81832771D02*
X102585714Y-81832771D01*
X102252380Y-81832771D02*
X102300000Y-81880390D01*
X102347619Y-81832771D01*
X102300000Y-81785152D01*
X102252380Y-81832771D01*
X102347619Y-81832771D01*
X102585714Y-81356580D02*
X103252380Y-81356580D01*
X102680952Y-81356580D02*
X102633333Y-81308961D01*
X102585714Y-81213723D01*
X102585714Y-81070866D01*
X102633333Y-80975628D01*
X102728571Y-80928009D01*
X103252380Y-80928009D01*
G04 #@! TO.C,Q1*
X151947619Y-87695238D02*
X151900000Y-87790476D01*
X151804761Y-87885714D01*
X151661904Y-88028571D01*
X151614285Y-88123809D01*
X151614285Y-88219047D01*
X151852380Y-88171428D02*
X151804761Y-88266666D01*
X151709523Y-88361904D01*
X151519047Y-88409523D01*
X151185714Y-88409523D01*
X150995238Y-88361904D01*
X150900000Y-88266666D01*
X150852380Y-88171428D01*
X150852380Y-87980952D01*
X150900000Y-87885714D01*
X150995238Y-87790476D01*
X151185714Y-87742857D01*
X151519047Y-87742857D01*
X151709523Y-87790476D01*
X151804761Y-87885714D01*
X151852380Y-87980952D01*
X151852380Y-88171428D01*
X151852380Y-86790476D02*
X151852380Y-87361904D01*
X151852380Y-87076190D02*
X150852380Y-87076190D01*
X150995238Y-87171428D01*
X151090476Y-87266666D01*
X151138095Y-87361904D01*
X159852380Y-92957142D02*
X158852380Y-92957142D01*
X159852380Y-92385714D01*
X158852380Y-92385714D01*
X159947619Y-92147619D02*
X159947619Y-91385714D01*
X159804761Y-90719047D02*
X159852380Y-90814285D01*
X159852380Y-91004761D01*
X159804761Y-91100000D01*
X159757142Y-91147619D01*
X159661904Y-91195238D01*
X159376190Y-91195238D01*
X159280952Y-91147619D01*
X159233333Y-91100000D01*
X159185714Y-91004761D01*
X159185714Y-90814285D01*
X159233333Y-90719047D01*
X159852380Y-90290476D02*
X158852380Y-90290476D01*
X159852380Y-89861904D02*
X159328571Y-89861904D01*
X159233333Y-89909523D01*
X159185714Y-90004761D01*
X159185714Y-90147619D01*
X159233333Y-90242857D01*
X159280952Y-90290476D01*
X159852380Y-88957142D02*
X159328571Y-88957142D01*
X159233333Y-89004761D01*
X159185714Y-89100000D01*
X159185714Y-89290476D01*
X159233333Y-89385714D01*
X159804761Y-88957142D02*
X159852380Y-89052380D01*
X159852380Y-89290476D01*
X159804761Y-89385714D01*
X159709523Y-89433333D01*
X159614285Y-89433333D01*
X159519047Y-89385714D01*
X159471428Y-89290476D01*
X159471428Y-89052380D01*
X159423809Y-88957142D01*
X159185714Y-88480952D02*
X159852380Y-88480952D01*
X159280952Y-88480952D02*
X159233333Y-88433333D01*
X159185714Y-88338095D01*
X159185714Y-88195238D01*
X159233333Y-88100000D01*
X159328571Y-88052380D01*
X159852380Y-88052380D01*
X159947619Y-87814285D02*
X159947619Y-87052380D01*
X159852380Y-86814285D02*
X159185714Y-86814285D01*
X159280952Y-86814285D02*
X159233333Y-86766666D01*
X159185714Y-86671428D01*
X159185714Y-86528571D01*
X159233333Y-86433333D01*
X159328571Y-86385714D01*
X159852380Y-86385714D01*
X159328571Y-86385714D02*
X159233333Y-86338095D01*
X159185714Y-86242857D01*
X159185714Y-86100000D01*
X159233333Y-86004761D01*
X159328571Y-85957142D01*
X159852380Y-85957142D01*
X159852380Y-85338095D02*
X159804761Y-85433333D01*
X159757142Y-85480952D01*
X159661904Y-85528571D01*
X159376190Y-85528571D01*
X159280952Y-85480952D01*
X159233333Y-85433333D01*
X159185714Y-85338095D01*
X159185714Y-85195238D01*
X159233333Y-85100000D01*
X159280952Y-85052380D01*
X159376190Y-85004761D01*
X159661904Y-85004761D01*
X159757142Y-85052380D01*
X159804761Y-85100000D01*
X159852380Y-85195238D01*
X159852380Y-85338095D01*
X159804761Y-84623809D02*
X159852380Y-84528571D01*
X159852380Y-84338095D01*
X159804761Y-84242857D01*
X159709523Y-84195238D01*
X159661904Y-84195238D01*
X159566666Y-84242857D01*
X159519047Y-84338095D01*
X159519047Y-84480952D01*
X159471428Y-84576190D01*
X159376190Y-84623809D01*
X159328571Y-84623809D01*
X159233333Y-84576190D01*
X159185714Y-84480952D01*
X159185714Y-84338095D01*
X159233333Y-84242857D01*
X159185714Y-83909523D02*
X159185714Y-83528571D01*
X159852380Y-83766666D02*
X158995238Y-83766666D01*
X158900000Y-83719047D01*
X158852380Y-83623809D01*
X158852380Y-83528571D01*
X159804761Y-82814285D02*
X159852380Y-82909523D01*
X159852380Y-83100000D01*
X159804761Y-83195238D01*
X159709523Y-83242857D01*
X159328571Y-83242857D01*
X159233333Y-83195238D01*
X159185714Y-83100000D01*
X159185714Y-82909523D01*
X159233333Y-82814285D01*
X159328571Y-82766666D01*
X159423809Y-82766666D01*
X159519047Y-83242857D01*
X159185714Y-82480952D02*
X159185714Y-82100000D01*
X158852380Y-82338095D02*
X159709523Y-82338095D01*
X159804761Y-82290476D01*
X159852380Y-82195238D01*
X159852380Y-82100000D01*
G04 #@! TO.C,Q2*
X148447619Y-87695238D02*
X148400000Y-87790476D01*
X148304761Y-87885714D01*
X148161904Y-88028571D01*
X148114285Y-88123809D01*
X148114285Y-88219047D01*
X148352380Y-88171428D02*
X148304761Y-88266666D01*
X148209523Y-88361904D01*
X148019047Y-88409523D01*
X147685714Y-88409523D01*
X147495238Y-88361904D01*
X147400000Y-88266666D01*
X147352380Y-88171428D01*
X147352380Y-87980952D01*
X147400000Y-87885714D01*
X147495238Y-87790476D01*
X147685714Y-87742857D01*
X148019047Y-87742857D01*
X148209523Y-87790476D01*
X148304761Y-87885714D01*
X148352380Y-87980952D01*
X148352380Y-88171428D01*
X147447619Y-87361904D02*
X147400000Y-87314285D01*
X147352380Y-87219047D01*
X147352380Y-86980952D01*
X147400000Y-86885714D01*
X147447619Y-86838095D01*
X147542857Y-86790476D01*
X147638095Y-86790476D01*
X147780952Y-86838095D01*
X148352380Y-87409523D01*
X148352380Y-86790476D01*
X141352380Y-93242857D02*
X140352380Y-93242857D01*
X140352380Y-92861904D01*
X140400000Y-92766666D01*
X140447619Y-92719047D01*
X140542857Y-92671428D01*
X140685714Y-92671428D01*
X140780952Y-92719047D01*
X140828571Y-92766666D01*
X140876190Y-92861904D01*
X140876190Y-93242857D01*
X140971428Y-92242857D02*
X140971428Y-91480952D01*
X141257142Y-90433333D02*
X141304761Y-90480952D01*
X141352380Y-90623809D01*
X141352380Y-90719047D01*
X141304761Y-90861904D01*
X141209523Y-90957142D01*
X141114285Y-91004761D01*
X140923809Y-91052380D01*
X140780952Y-91052380D01*
X140590476Y-91004761D01*
X140495238Y-90957142D01*
X140400000Y-90861904D01*
X140352380Y-90719047D01*
X140352380Y-90623809D01*
X140400000Y-90480952D01*
X140447619Y-90433333D01*
X141352380Y-90004761D02*
X140352380Y-90004761D01*
X141352380Y-89576190D02*
X140828571Y-89576190D01*
X140733333Y-89623809D01*
X140685714Y-89719047D01*
X140685714Y-89861904D01*
X140733333Y-89957142D01*
X140780952Y-90004761D01*
X141352380Y-88671428D02*
X140828571Y-88671428D01*
X140733333Y-88719047D01*
X140685714Y-88814285D01*
X140685714Y-89004761D01*
X140733333Y-89100000D01*
X141304761Y-88671428D02*
X141352380Y-88766666D01*
X141352380Y-89004761D01*
X141304761Y-89100000D01*
X141209523Y-89147619D01*
X141114285Y-89147619D01*
X141019047Y-89100000D01*
X140971428Y-89004761D01*
X140971428Y-88766666D01*
X140923809Y-88671428D01*
X140685714Y-88195238D02*
X141352380Y-88195238D01*
X140780952Y-88195238D02*
X140733333Y-88147619D01*
X140685714Y-88052380D01*
X140685714Y-87909523D01*
X140733333Y-87814285D01*
X140828571Y-87766666D01*
X141352380Y-87766666D01*
X141447619Y-87528571D02*
X141447619Y-86766666D01*
X141352380Y-86528571D02*
X140685714Y-86528571D01*
X140780952Y-86528571D02*
X140733333Y-86480952D01*
X140685714Y-86385714D01*
X140685714Y-86242857D01*
X140733333Y-86147619D01*
X140828571Y-86100000D01*
X141352380Y-86100000D01*
X140828571Y-86100000D02*
X140733333Y-86052380D01*
X140685714Y-85957142D01*
X140685714Y-85814285D01*
X140733333Y-85719047D01*
X140828571Y-85671428D01*
X141352380Y-85671428D01*
X141352380Y-85052380D02*
X141304761Y-85147619D01*
X141257142Y-85195238D01*
X141161904Y-85242857D01*
X140876190Y-85242857D01*
X140780952Y-85195238D01*
X140733333Y-85147619D01*
X140685714Y-85052380D01*
X140685714Y-84909523D01*
X140733333Y-84814285D01*
X140780952Y-84766666D01*
X140876190Y-84719047D01*
X141161904Y-84719047D01*
X141257142Y-84766666D01*
X141304761Y-84814285D01*
X141352380Y-84909523D01*
X141352380Y-85052380D01*
X141304761Y-84338095D02*
X141352380Y-84242857D01*
X141352380Y-84052380D01*
X141304761Y-83957142D01*
X141209523Y-83909523D01*
X141161904Y-83909523D01*
X141066666Y-83957142D01*
X141019047Y-84052380D01*
X141019047Y-84195238D01*
X140971428Y-84290476D01*
X140876190Y-84338095D01*
X140828571Y-84338095D01*
X140733333Y-84290476D01*
X140685714Y-84195238D01*
X140685714Y-84052380D01*
X140733333Y-83957142D01*
X140685714Y-83623809D02*
X140685714Y-83242857D01*
X141352380Y-83480952D02*
X140495238Y-83480952D01*
X140400000Y-83433333D01*
X140352380Y-83338095D01*
X140352380Y-83242857D01*
X141304761Y-82528571D02*
X141352380Y-82623809D01*
X141352380Y-82814285D01*
X141304761Y-82909523D01*
X141209523Y-82957142D01*
X140828571Y-82957142D01*
X140733333Y-82909523D01*
X140685714Y-82814285D01*
X140685714Y-82623809D01*
X140733333Y-82528571D01*
X140828571Y-82480952D01*
X140923809Y-82480952D01*
X141019047Y-82957142D01*
X140685714Y-82195238D02*
X140685714Y-81814285D01*
X140352380Y-82052380D02*
X141209523Y-82052380D01*
X141304761Y-82004761D01*
X141352380Y-81909523D01*
X141352380Y-81814285D01*
G04 #@! TO.C,R1*
X140852380Y-80366666D02*
X140376190Y-80700000D01*
X140852380Y-80938095D02*
X139852380Y-80938095D01*
X139852380Y-80557142D01*
X139900000Y-80461904D01*
X139947619Y-80414285D01*
X140042857Y-80366666D01*
X140185714Y-80366666D01*
X140280952Y-80414285D01*
X140328571Y-80461904D01*
X140376190Y-80557142D01*
X140376190Y-80938095D01*
X140852380Y-79414285D02*
X140852380Y-79985714D01*
X140852380Y-79700000D02*
X139852380Y-79700000D01*
X139995238Y-79795238D01*
X140090476Y-79890476D01*
X140138095Y-79985714D01*
X139052380Y-77404761D02*
X139052380Y-77976190D01*
X139052380Y-77690476D02*
X138052380Y-77690476D01*
X138195238Y-77785714D01*
X138290476Y-77880952D01*
X138338095Y-77976190D01*
X138957142Y-76976190D02*
X139004761Y-76928571D01*
X139052380Y-76976190D01*
X139004761Y-77023809D01*
X138957142Y-76976190D01*
X139052380Y-76976190D01*
X138052380Y-76023809D02*
X138052380Y-76500000D01*
X138528571Y-76547619D01*
X138480952Y-76500000D01*
X138433333Y-76404761D01*
X138433333Y-76166666D01*
X138480952Y-76071428D01*
X138528571Y-76023809D01*
X138623809Y-75976190D01*
X138861904Y-75976190D01*
X138957142Y-76023809D01*
X139004761Y-76071428D01*
X139052380Y-76166666D01*
X139052380Y-76404761D01*
X139004761Y-76500000D01*
X138957142Y-76547619D01*
X139052380Y-75547619D02*
X138052380Y-75547619D01*
X138671428Y-75452380D02*
X139052380Y-75166666D01*
X138385714Y-75166666D02*
X138766666Y-75547619D01*
X139052380Y-74595238D02*
X139004761Y-74690476D01*
X138957142Y-74738095D01*
X138861904Y-74785714D01*
X138576190Y-74785714D01*
X138480952Y-74738095D01*
X138433333Y-74690476D01*
X138385714Y-74595238D01*
X138385714Y-74452380D01*
X138433333Y-74357142D01*
X138480952Y-74309523D01*
X138576190Y-74261904D01*
X138861904Y-74261904D01*
X138957142Y-74309523D01*
X139004761Y-74357142D01*
X139052380Y-74452380D01*
X139052380Y-74595238D01*
X139052380Y-73833333D02*
X138052380Y-73833333D01*
X139052380Y-73404761D02*
X138528571Y-73404761D01*
X138433333Y-73452380D01*
X138385714Y-73547619D01*
X138385714Y-73690476D01*
X138433333Y-73785714D01*
X138480952Y-73833333D01*
X139052380Y-72928571D02*
X138385714Y-72928571D01*
X138480952Y-72928571D02*
X138433333Y-72880952D01*
X138385714Y-72785714D01*
X138385714Y-72642857D01*
X138433333Y-72547619D01*
X138528571Y-72500000D01*
X139052380Y-72500000D01*
X138528571Y-72500000D02*
X138433333Y-72452380D01*
X138385714Y-72357142D01*
X138385714Y-72214285D01*
X138433333Y-72119047D01*
X138528571Y-72071428D01*
X139052380Y-72071428D01*
G04 #@! TO.C,R3*
X137822380Y-94766666D02*
X137346190Y-95100000D01*
X137822380Y-95338095D02*
X136822380Y-95338095D01*
X136822380Y-94957142D01*
X136870000Y-94861904D01*
X136917619Y-94814285D01*
X137012857Y-94766666D01*
X137155714Y-94766666D01*
X137250952Y-94814285D01*
X137298571Y-94861904D01*
X137346190Y-94957142D01*
X137346190Y-95338095D01*
X136822380Y-94433333D02*
X136822380Y-93814285D01*
X137203333Y-94147619D01*
X137203333Y-94004761D01*
X137250952Y-93909523D01*
X137298571Y-93861904D01*
X137393809Y-93814285D01*
X137631904Y-93814285D01*
X137727142Y-93861904D01*
X137774761Y-93909523D01*
X137822380Y-94004761D01*
X137822380Y-94290476D01*
X137774761Y-94385714D01*
X137727142Y-94433333D01*
X137280952Y-91985714D02*
X137233333Y-92080952D01*
X137185714Y-92128571D01*
X137090476Y-92176190D01*
X137042857Y-92176190D01*
X136947619Y-92128571D01*
X136900000Y-92080952D01*
X136852380Y-91985714D01*
X136852380Y-91795238D01*
X136900000Y-91700000D01*
X136947619Y-91652380D01*
X137042857Y-91604761D01*
X137090476Y-91604761D01*
X137185714Y-91652380D01*
X137233333Y-91700000D01*
X137280952Y-91795238D01*
X137280952Y-91985714D01*
X137328571Y-92080952D01*
X137376190Y-92128571D01*
X137471428Y-92176190D01*
X137661904Y-92176190D01*
X137757142Y-92128571D01*
X137804761Y-92080952D01*
X137852380Y-91985714D01*
X137852380Y-91795238D01*
X137804761Y-91700000D01*
X137757142Y-91652380D01*
X137661904Y-91604761D01*
X137471428Y-91604761D01*
X137376190Y-91652380D01*
X137328571Y-91700000D01*
X137280952Y-91795238D01*
X137757142Y-91176190D02*
X137804761Y-91128571D01*
X137852380Y-91176190D01*
X137804761Y-91223809D01*
X137757142Y-91176190D01*
X137852380Y-91176190D01*
X136947619Y-90747619D02*
X136900000Y-90700000D01*
X136852380Y-90604761D01*
X136852380Y-90366666D01*
X136900000Y-90271428D01*
X136947619Y-90223809D01*
X137042857Y-90176190D01*
X137138095Y-90176190D01*
X137280952Y-90223809D01*
X137852380Y-90795238D01*
X137852380Y-90176190D01*
X137852380Y-89747619D02*
X136852380Y-89747619D01*
X137471428Y-89652380D02*
X137852380Y-89366666D01*
X137185714Y-89366666D02*
X137566666Y-89747619D01*
X137852380Y-88795238D02*
X137804761Y-88890476D01*
X137757142Y-88938095D01*
X137661904Y-88985714D01*
X137376190Y-88985714D01*
X137280952Y-88938095D01*
X137233333Y-88890476D01*
X137185714Y-88795238D01*
X137185714Y-88652380D01*
X137233333Y-88557142D01*
X137280952Y-88509523D01*
X137376190Y-88461904D01*
X137661904Y-88461904D01*
X137757142Y-88509523D01*
X137804761Y-88557142D01*
X137852380Y-88652380D01*
X137852380Y-88795238D01*
X137852380Y-88033333D02*
X136852380Y-88033333D01*
X137852380Y-87604761D02*
X137328571Y-87604761D01*
X137233333Y-87652380D01*
X137185714Y-87747619D01*
X137185714Y-87890476D01*
X137233333Y-87985714D01*
X137280952Y-88033333D01*
X137852380Y-87128571D02*
X137185714Y-87128571D01*
X137280952Y-87128571D02*
X137233333Y-87080952D01*
X137185714Y-86985714D01*
X137185714Y-86842857D01*
X137233333Y-86747619D01*
X137328571Y-86700000D01*
X137852380Y-86700000D01*
X137328571Y-86700000D02*
X137233333Y-86652380D01*
X137185714Y-86557142D01*
X137185714Y-86414285D01*
X137233333Y-86319047D01*
X137328571Y-86271428D01*
X137852380Y-86271428D01*
G04 #@! TO.C,R4*
X148652380Y-80566666D02*
X148176190Y-80900000D01*
X148652380Y-81138095D02*
X147652380Y-81138095D01*
X147652380Y-80757142D01*
X147700000Y-80661904D01*
X147747619Y-80614285D01*
X147842857Y-80566666D01*
X147985714Y-80566666D01*
X148080952Y-80614285D01*
X148128571Y-80661904D01*
X148176190Y-80757142D01*
X148176190Y-81138095D01*
X147985714Y-79709523D02*
X148652380Y-79709523D01*
X147604761Y-79947619D02*
X148319047Y-80185714D01*
X148319047Y-79566666D01*
X145947619Y-76038095D02*
X145900000Y-75990476D01*
X145852380Y-75895238D01*
X145852380Y-75657142D01*
X145900000Y-75561904D01*
X145947619Y-75514285D01*
X146042857Y-75466666D01*
X146138095Y-75466666D01*
X146280952Y-75514285D01*
X146852380Y-76085714D01*
X146852380Y-75466666D01*
X145947619Y-75085714D02*
X145900000Y-75038095D01*
X145852380Y-74942857D01*
X145852380Y-74704761D01*
X145900000Y-74609523D01*
X145947619Y-74561904D01*
X146042857Y-74514285D01*
X146138095Y-74514285D01*
X146280952Y-74561904D01*
X146852380Y-75133333D01*
X146852380Y-74514285D01*
X145852380Y-73895238D02*
X145852380Y-73800000D01*
X145900000Y-73704761D01*
X145947619Y-73657142D01*
X146042857Y-73609523D01*
X146233333Y-73561904D01*
X146471428Y-73561904D01*
X146661904Y-73609523D01*
X146757142Y-73657142D01*
X146804761Y-73704761D01*
X146852380Y-73800000D01*
X146852380Y-73895238D01*
X146804761Y-73990476D01*
X146757142Y-74038095D01*
X146661904Y-74085714D01*
X146471428Y-74133333D01*
X146233333Y-74133333D01*
X146042857Y-74085714D01*
X145947619Y-74038095D01*
X145900000Y-73990476D01*
X145852380Y-73895238D01*
G04 #@! TO.C,R5*
X152452380Y-80566666D02*
X151976190Y-80900000D01*
X152452380Y-81138095D02*
X151452380Y-81138095D01*
X151452380Y-80757142D01*
X151500000Y-80661904D01*
X151547619Y-80614285D01*
X151642857Y-80566666D01*
X151785714Y-80566666D01*
X151880952Y-80614285D01*
X151928571Y-80661904D01*
X151976190Y-80757142D01*
X151976190Y-81138095D01*
X151452380Y-79661904D02*
X151452380Y-80138095D01*
X151928571Y-80185714D01*
X151880952Y-80138095D01*
X151833333Y-80042857D01*
X151833333Y-79804761D01*
X151880952Y-79709523D01*
X151928571Y-79661904D01*
X152023809Y-79614285D01*
X152261904Y-79614285D01*
X152357142Y-79661904D01*
X152404761Y-79709523D01*
X152452380Y-79804761D01*
X152452380Y-80042857D01*
X152404761Y-80138095D01*
X152357142Y-80185714D01*
X149547619Y-76318095D02*
X149500000Y-76270476D01*
X149452380Y-76175238D01*
X149452380Y-75937142D01*
X149500000Y-75841904D01*
X149547619Y-75794285D01*
X149642857Y-75746666D01*
X149738095Y-75746666D01*
X149880952Y-75794285D01*
X150452380Y-76365714D01*
X150452380Y-75746666D01*
X149547619Y-75365714D02*
X149500000Y-75318095D01*
X149452380Y-75222857D01*
X149452380Y-74984761D01*
X149500000Y-74889523D01*
X149547619Y-74841904D01*
X149642857Y-74794285D01*
X149738095Y-74794285D01*
X149880952Y-74841904D01*
X150452380Y-75413333D01*
X150452380Y-74794285D01*
X149452380Y-74175238D02*
X149452380Y-74080000D01*
X149500000Y-73984761D01*
X149547619Y-73937142D01*
X149642857Y-73889523D01*
X149833333Y-73841904D01*
X150071428Y-73841904D01*
X150261904Y-73889523D01*
X150357142Y-73937142D01*
X150404761Y-73984761D01*
X150452380Y-74080000D01*
X150452380Y-74175238D01*
X150404761Y-74270476D01*
X150357142Y-74318095D01*
X150261904Y-74365714D01*
X150071428Y-74413333D01*
X149833333Y-74413333D01*
X149642857Y-74365714D01*
X149547619Y-74318095D01*
X149500000Y-74270476D01*
X149452380Y-74175238D01*
G04 #@! TO.C,R6*
X144852380Y-80366666D02*
X144376190Y-80700000D01*
X144852380Y-80938095D02*
X143852380Y-80938095D01*
X143852380Y-80557142D01*
X143900000Y-80461904D01*
X143947619Y-80414285D01*
X144042857Y-80366666D01*
X144185714Y-80366666D01*
X144280952Y-80414285D01*
X144328571Y-80461904D01*
X144376190Y-80557142D01*
X144376190Y-80938095D01*
X143852380Y-79509523D02*
X143852380Y-79700000D01*
X143900000Y-79795238D01*
X143947619Y-79842857D01*
X144090476Y-79938095D01*
X144280952Y-79985714D01*
X144661904Y-79985714D01*
X144757142Y-79938095D01*
X144804761Y-79890476D01*
X144852380Y-79795238D01*
X144852380Y-79604761D01*
X144804761Y-79509523D01*
X144757142Y-79461904D01*
X144661904Y-79414285D01*
X144423809Y-79414285D01*
X144328571Y-79461904D01*
X144280952Y-79509523D01*
X144233333Y-79604761D01*
X144233333Y-79795238D01*
X144280952Y-79890476D01*
X144328571Y-79938095D01*
X144423809Y-79985714D01*
X143252380Y-75719047D02*
X143252380Y-76290476D01*
X143252380Y-76004761D02*
X142252380Y-76004761D01*
X142395238Y-76100000D01*
X142490476Y-76195238D01*
X142538095Y-76290476D01*
X143252380Y-75290476D02*
X142252380Y-75290476D01*
X142871428Y-75195238D02*
X143252380Y-74909523D01*
X142585714Y-74909523D02*
X142966666Y-75290476D01*
G04 #@! TO.C,RV2*
X152452380Y-69195238D02*
X151976190Y-69528571D01*
X152452380Y-69766666D02*
X151452380Y-69766666D01*
X151452380Y-69385714D01*
X151500000Y-69290476D01*
X151547619Y-69242857D01*
X151642857Y-69195238D01*
X151785714Y-69195238D01*
X151880952Y-69242857D01*
X151928571Y-69290476D01*
X151976190Y-69385714D01*
X151976190Y-69766666D01*
X151452380Y-68909523D02*
X152452380Y-68576190D01*
X151452380Y-68242857D01*
X151547619Y-67957142D02*
X151500000Y-67909523D01*
X151452380Y-67814285D01*
X151452380Y-67576190D01*
X151500000Y-67480952D01*
X151547619Y-67433333D01*
X151642857Y-67385714D01*
X151738095Y-67385714D01*
X151880952Y-67433333D01*
X152452380Y-68004761D01*
X152452380Y-67385714D01*
X153261904Y-66385714D02*
X153261904Y-67385714D01*
X153261904Y-66433333D02*
X153357142Y-66385714D01*
X153547619Y-66385714D01*
X153642857Y-66433333D01*
X153690476Y-66480952D01*
X153738095Y-66576190D01*
X153738095Y-66861904D01*
X153690476Y-66957142D01*
X153642857Y-67004761D01*
X153547619Y-67052380D01*
X153357142Y-67052380D01*
X153261904Y-67004761D01*
X154309523Y-67052380D02*
X154214285Y-67004761D01*
X154166666Y-66957142D01*
X154119047Y-66861904D01*
X154119047Y-66576190D01*
X154166666Y-66480952D01*
X154214285Y-66433333D01*
X154309523Y-66385714D01*
X154452380Y-66385714D01*
X154547619Y-66433333D01*
X154595238Y-66480952D01*
X154642857Y-66576190D01*
X154642857Y-66861904D01*
X154595238Y-66957142D01*
X154547619Y-67004761D01*
X154452380Y-67052380D01*
X154309523Y-67052380D01*
X154928571Y-66385714D02*
X155309523Y-66385714D01*
X155071428Y-66052380D02*
X155071428Y-66909523D01*
X155119047Y-67004761D01*
X155214285Y-67052380D01*
X155309523Y-67052380D01*
X155404761Y-67147619D02*
X156166666Y-67147619D01*
X156404761Y-67052380D02*
X156404761Y-66385714D01*
X156404761Y-66480952D02*
X156452380Y-66433333D01*
X156547619Y-66385714D01*
X156690476Y-66385714D01*
X156785714Y-66433333D01*
X156833333Y-66528571D01*
X156833333Y-67052380D01*
X156833333Y-66528571D02*
X156880952Y-66433333D01*
X156976190Y-66385714D01*
X157119047Y-66385714D01*
X157214285Y-66433333D01*
X157261904Y-66528571D01*
X157261904Y-67052380D01*
X157738095Y-67052380D02*
X157738095Y-66385714D01*
X157738095Y-66052380D02*
X157690476Y-66100000D01*
X157738095Y-66147619D01*
X157785714Y-66100000D01*
X157738095Y-66052380D01*
X157738095Y-66147619D01*
X158214285Y-66385714D02*
X158214285Y-67052380D01*
X158214285Y-66480952D02*
X158261904Y-66433333D01*
X158357142Y-66385714D01*
X158500000Y-66385714D01*
X158595238Y-66433333D01*
X158642857Y-66528571D01*
X158642857Y-67052380D01*
X159595238Y-66052380D02*
X159119047Y-66052380D01*
X159071428Y-66528571D01*
X159119047Y-66480952D01*
X159214285Y-66433333D01*
X159452380Y-66433333D01*
X159547619Y-66480952D01*
X159595238Y-66528571D01*
X159642857Y-66623809D01*
X159642857Y-66861904D01*
X159595238Y-66957142D01*
X159547619Y-67004761D01*
X159452380Y-67052380D01*
X159214285Y-67052380D01*
X159119047Y-67004761D01*
X159071428Y-66957142D01*
X159976190Y-66052380D02*
X160214285Y-67052380D01*
X160404761Y-66338095D01*
X160595238Y-67052380D01*
X160833333Y-66052380D01*
G04 #@! TO.C,U1*
X131220780Y-79961904D02*
X132030304Y-79961904D01*
X132125542Y-79914285D01*
X132173161Y-79866666D01*
X132220780Y-79771428D01*
X132220780Y-79580952D01*
X132173161Y-79485714D01*
X132125542Y-79438095D01*
X132030304Y-79390476D01*
X131220780Y-79390476D01*
X132220780Y-78390476D02*
X132220780Y-78961904D01*
X132220780Y-78676190D02*
X131220780Y-78676190D01*
X131363638Y-78771428D01*
X131458876Y-78866666D01*
X131506495Y-78961904D01*
X119940780Y-79313657D02*
X118940780Y-79313657D01*
X119655066Y-78980323D01*
X118940780Y-78646990D01*
X119940780Y-78646990D01*
X119845542Y-77599371D02*
X119893161Y-77646990D01*
X119940780Y-77789847D01*
X119940780Y-77885085D01*
X119893161Y-78027942D01*
X119797923Y-78123180D01*
X119702685Y-78170800D01*
X119512209Y-78218419D01*
X119369352Y-78218419D01*
X119178876Y-78170800D01*
X119083638Y-78123180D01*
X118988400Y-78027942D01*
X118940780Y-77885085D01*
X118940780Y-77789847D01*
X118988400Y-77646990D01*
X119036019Y-77599371D01*
X118940780Y-77266038D02*
X118940780Y-76646990D01*
X119321733Y-76980323D01*
X119321733Y-76837466D01*
X119369352Y-76742228D01*
X119416971Y-76694609D01*
X119512209Y-76646990D01*
X119750304Y-76646990D01*
X119845542Y-76694609D01*
X119893161Y-76742228D01*
X119940780Y-76837466D01*
X119940780Y-77123180D01*
X119893161Y-77218419D01*
X119845542Y-77266038D01*
X119274114Y-75789847D02*
X119940780Y-75789847D01*
X118893161Y-76027942D02*
X119607447Y-76266038D01*
X119607447Y-75646990D01*
X118940780Y-75075561D02*
X118940780Y-74980323D01*
X118988400Y-74885085D01*
X119036019Y-74837466D01*
X119131257Y-74789847D01*
X119321733Y-74742228D01*
X119559828Y-74742228D01*
X119750304Y-74789847D01*
X119845542Y-74837466D01*
X119893161Y-74885085D01*
X119940780Y-74980323D01*
X119940780Y-75075561D01*
X119893161Y-75170800D01*
X119845542Y-75218419D01*
X119750304Y-75266038D01*
X119559828Y-75313657D01*
X119321733Y-75313657D01*
X119131257Y-75266038D01*
X119036019Y-75218419D01*
X118988400Y-75170800D01*
X118940780Y-75075561D01*
X118940780Y-73885085D02*
X118940780Y-74075561D01*
X118988400Y-74170800D01*
X119036019Y-74218419D01*
X119178876Y-74313657D01*
X119369352Y-74361276D01*
X119750304Y-74361276D01*
X119845542Y-74313657D01*
X119893161Y-74266038D01*
X119940780Y-74170800D01*
X119940780Y-73980323D01*
X119893161Y-73885085D01*
X119845542Y-73837466D01*
X119750304Y-73789847D01*
X119512209Y-73789847D01*
X119416971Y-73837466D01*
X119369352Y-73885085D01*
X119321733Y-73980323D01*
X119321733Y-74170800D01*
X119369352Y-74266038D01*
X119416971Y-74313657D01*
X119512209Y-74361276D01*
X118940780Y-73456514D02*
X118940780Y-72837466D01*
X119321733Y-73170800D01*
X119321733Y-73027942D01*
X119369352Y-72932704D01*
X119416971Y-72885085D01*
X119512209Y-72837466D01*
X119750304Y-72837466D01*
X119845542Y-72885085D01*
X119893161Y-72932704D01*
X119940780Y-73027942D01*
X119940780Y-73313657D01*
X119893161Y-73408895D01*
X119845542Y-73456514D01*
X119655066Y-72456514D02*
X119655066Y-71980323D01*
X119940780Y-72551752D02*
X118940780Y-72218419D01*
X119940780Y-71885085D01*
X119940780Y-71551752D02*
X118940780Y-71551752D01*
X118940780Y-71170800D01*
X118988400Y-71075561D01*
X119036019Y-71027942D01*
X119131257Y-70980323D01*
X119274114Y-70980323D01*
X119369352Y-71027942D01*
X119416971Y-71075561D01*
X119464590Y-71170800D01*
X119464590Y-71551752D01*
G04 #@! TO.C,L1*
X110333333Y-82452380D02*
X109857142Y-82452380D01*
X109857142Y-81452380D01*
X111190476Y-82452380D02*
X110619047Y-82452380D01*
X110904761Y-82452380D02*
X110904761Y-81452380D01*
X110809523Y-81595238D01*
X110714285Y-81690476D01*
X110619047Y-81738095D01*
X108785714Y-92452380D02*
X108214285Y-92452380D01*
X108500000Y-92452380D02*
X108500000Y-91452380D01*
X108404761Y-91595238D01*
X108309523Y-91690476D01*
X108214285Y-91738095D01*
X109166666Y-91547619D02*
X109214285Y-91500000D01*
X109309523Y-91452380D01*
X109547619Y-91452380D01*
X109642857Y-91500000D01*
X109690476Y-91547619D01*
X109738095Y-91642857D01*
X109738095Y-91738095D01*
X109690476Y-91880952D01*
X109119047Y-92452380D01*
X109738095Y-92452380D01*
X110357142Y-91452380D02*
X110452380Y-91452380D01*
X110547619Y-91500000D01*
X110595238Y-91547619D01*
X110642857Y-91642857D01*
X110690476Y-91833333D01*
X110690476Y-92071428D01*
X110642857Y-92261904D01*
X110595238Y-92357142D01*
X110547619Y-92404761D01*
X110452380Y-92452380D01*
X110357142Y-92452380D01*
X110261904Y-92404761D01*
X110214285Y-92357142D01*
X110166666Y-92261904D01*
X110119047Y-92071428D01*
X110119047Y-91833333D01*
X110166666Y-91642857D01*
X110214285Y-91547619D01*
X110261904Y-91500000D01*
X110357142Y-91452380D01*
X111119047Y-91785714D02*
X111119047Y-92785714D01*
X111595238Y-92309523D02*
X111642857Y-92404761D01*
X111738095Y-92452380D01*
X111119047Y-92309523D02*
X111166666Y-92404761D01*
X111261904Y-92452380D01*
X111452380Y-92452380D01*
X111547619Y-92404761D01*
X111595238Y-92309523D01*
X111595238Y-91785714D01*
X112166666Y-92452380D02*
X112166666Y-91452380D01*
X112166666Y-91928571D02*
X112738095Y-91928571D01*
X112738095Y-92452380D02*
X112738095Y-91452380D01*
G04 #@! TO.C,R2*
X131041980Y-72346666D02*
X130565790Y-72680000D01*
X131041980Y-72918095D02*
X130041980Y-72918095D01*
X130041980Y-72537142D01*
X130089600Y-72441904D01*
X130137219Y-72394285D01*
X130232457Y-72346666D01*
X130375314Y-72346666D01*
X130470552Y-72394285D01*
X130518171Y-72441904D01*
X130565790Y-72537142D01*
X130565790Y-72918095D01*
X130137219Y-71965714D02*
X130089600Y-71918095D01*
X130041980Y-71822857D01*
X130041980Y-71584761D01*
X130089600Y-71489523D01*
X130137219Y-71441904D01*
X130232457Y-71394285D01*
X130327695Y-71394285D01*
X130470552Y-71441904D01*
X131041980Y-72013333D01*
X131041980Y-71394285D01*
X133452380Y-74609523D02*
X133452380Y-74514285D01*
X133500000Y-74419047D01*
X133547619Y-74371428D01*
X133642857Y-74323809D01*
X133833333Y-74276190D01*
X134071428Y-74276190D01*
X134261904Y-74323809D01*
X134357142Y-74371428D01*
X134404761Y-74419047D01*
X134452380Y-74514285D01*
X134452380Y-74609523D01*
X134404761Y-74704761D01*
X134357142Y-74752380D01*
X134261904Y-74800000D01*
X134071428Y-74847619D01*
X133833333Y-74847619D01*
X133642857Y-74800000D01*
X133547619Y-74752380D01*
X133500000Y-74704761D01*
X133452380Y-74609523D01*
X134357142Y-73847619D02*
X134404761Y-73800000D01*
X134452380Y-73847619D01*
X134404761Y-73895238D01*
X134357142Y-73847619D01*
X134452380Y-73847619D01*
X133547619Y-73419047D02*
X133500000Y-73371428D01*
X133452380Y-73276190D01*
X133452380Y-73038095D01*
X133500000Y-72942857D01*
X133547619Y-72895238D01*
X133642857Y-72847619D01*
X133738095Y-72847619D01*
X133880952Y-72895238D01*
X134452380Y-73466666D01*
X134452380Y-72847619D01*
X133547619Y-72466666D02*
X133500000Y-72419047D01*
X133452380Y-72323809D01*
X133452380Y-72085714D01*
X133500000Y-71990476D01*
X133547619Y-71942857D01*
X133642857Y-71895238D01*
X133738095Y-71895238D01*
X133880952Y-71942857D01*
X134452380Y-72514285D01*
X134452380Y-71895238D01*
X134452380Y-71323809D02*
X134404761Y-71419047D01*
X134357142Y-71466666D01*
X134261904Y-71514285D01*
X133976190Y-71514285D01*
X133880952Y-71466666D01*
X133833333Y-71419047D01*
X133785714Y-71323809D01*
X133785714Y-71180952D01*
X133833333Y-71085714D01*
X133880952Y-71038095D01*
X133976190Y-70990476D01*
X134261904Y-70990476D01*
X134357142Y-71038095D01*
X134404761Y-71085714D01*
X134452380Y-71180952D01*
X134452380Y-71323809D01*
X134452380Y-70561904D02*
X133452380Y-70561904D01*
X134452380Y-70133333D02*
X133928571Y-70133333D01*
X133833333Y-70180952D01*
X133785714Y-70276190D01*
X133785714Y-70419047D01*
X133833333Y-70514285D01*
X133880952Y-70561904D01*
X134452380Y-69657142D02*
X133785714Y-69657142D01*
X133880952Y-69657142D02*
X133833333Y-69609523D01*
X133785714Y-69514285D01*
X133785714Y-69371428D01*
X133833333Y-69276190D01*
X133928571Y-69228571D01*
X134452380Y-69228571D01*
X133928571Y-69228571D02*
X133833333Y-69180952D01*
X133785714Y-69085714D01*
X133785714Y-68942857D01*
X133833333Y-68847619D01*
X133928571Y-68800000D01*
X134452380Y-68800000D01*
G04 #@! TO.C,R7*
X137833333Y-97702380D02*
X137500000Y-97226190D01*
X137261904Y-97702380D02*
X137261904Y-96702380D01*
X137642857Y-96702380D01*
X137738095Y-96750000D01*
X137785714Y-96797619D01*
X137833333Y-96892857D01*
X137833333Y-97035714D01*
X137785714Y-97130952D01*
X137738095Y-97178571D01*
X137642857Y-97226190D01*
X137261904Y-97226190D01*
X138166666Y-96702380D02*
X138833333Y-96702380D01*
X138404761Y-97702380D01*
X139793333Y-96552380D02*
X139888571Y-96552380D01*
X139983809Y-96600000D01*
X140031428Y-96647619D01*
X140079047Y-96742857D01*
X140126666Y-96933333D01*
X140126666Y-97171428D01*
X140079047Y-97361904D01*
X140031428Y-97457142D01*
X139983809Y-97504761D01*
X139888571Y-97552380D01*
X139793333Y-97552380D01*
X139698095Y-97504761D01*
X139650476Y-97457142D01*
X139602857Y-97361904D01*
X139555238Y-97171428D01*
X139555238Y-96933333D01*
X139602857Y-96742857D01*
X139650476Y-96647619D01*
X139698095Y-96600000D01*
X139793333Y-96552380D01*
X140555238Y-97457142D02*
X140602857Y-97504761D01*
X140555238Y-97552380D01*
X140507619Y-97504761D01*
X140555238Y-97457142D01*
X140555238Y-97552380D01*
X141507619Y-96552380D02*
X141031428Y-96552380D01*
X140983809Y-97028571D01*
X141031428Y-96980952D01*
X141126666Y-96933333D01*
X141364761Y-96933333D01*
X141460000Y-96980952D01*
X141507619Y-97028571D01*
X141555238Y-97123809D01*
X141555238Y-97361904D01*
X141507619Y-97457142D01*
X141460000Y-97504761D01*
X141364761Y-97552380D01*
X141126666Y-97552380D01*
X141031428Y-97504761D01*
X140983809Y-97457142D01*
X142698095Y-96647619D02*
X142745714Y-96600000D01*
X142840952Y-96552380D01*
X143079047Y-96552380D01*
X143174285Y-96600000D01*
X143221904Y-96647619D01*
X143269523Y-96742857D01*
X143269523Y-96838095D01*
X143221904Y-96980952D01*
X142650476Y-97552380D01*
X143269523Y-97552380D01*
X143888571Y-96552380D02*
X143983809Y-96552380D01*
X144079047Y-96600000D01*
X144126666Y-96647619D01*
X144174285Y-96742857D01*
X144221904Y-96933333D01*
X144221904Y-97171428D01*
X144174285Y-97361904D01*
X144126666Y-97457142D01*
X144079047Y-97504761D01*
X143983809Y-97552380D01*
X143888571Y-97552380D01*
X143793333Y-97504761D01*
X143745714Y-97457142D01*
X143698095Y-97361904D01*
X143650476Y-97171428D01*
X143650476Y-96933333D01*
X143698095Y-96742857D01*
X143745714Y-96647619D01*
X143793333Y-96600000D01*
X143888571Y-96552380D01*
X144555238Y-96552380D02*
X144793333Y-97552380D01*
X144983809Y-96838095D01*
X145174285Y-97552380D01*
X145412380Y-96552380D01*
G04 #@! TO.C,RV1*
X111944761Y-94962380D02*
X111611428Y-94486190D01*
X111373333Y-94962380D02*
X111373333Y-93962380D01*
X111754285Y-93962380D01*
X111849523Y-94010000D01*
X111897142Y-94057619D01*
X111944761Y-94152857D01*
X111944761Y-94295714D01*
X111897142Y-94390952D01*
X111849523Y-94438571D01*
X111754285Y-94486190D01*
X111373333Y-94486190D01*
X112230476Y-93962380D02*
X112563809Y-94962380D01*
X112897142Y-93962380D01*
X113754285Y-94962380D02*
X113182857Y-94962380D01*
X113468571Y-94962380D02*
X113468571Y-93962380D01*
X113373333Y-94105238D01*
X113278095Y-94200476D01*
X113182857Y-94248095D01*
X107252380Y-100538095D02*
X107252380Y-101014285D01*
X107728571Y-101061904D01*
X107680952Y-101014285D01*
X107633333Y-100919047D01*
X107633333Y-100680952D01*
X107680952Y-100585714D01*
X107728571Y-100538095D01*
X107823809Y-100490476D01*
X108061904Y-100490476D01*
X108157142Y-100538095D01*
X108204761Y-100585714D01*
X108252380Y-100680952D01*
X108252380Y-100919047D01*
X108204761Y-101014285D01*
X108157142Y-101061904D01*
X108252380Y-100061904D02*
X107252380Y-100061904D01*
X107871428Y-99966666D02*
X108252380Y-99680952D01*
X107585714Y-99680952D02*
X107966666Y-100061904D01*
X108252380Y-99109523D02*
X108204761Y-99204761D01*
X108157142Y-99252380D01*
X108061904Y-99300000D01*
X107776190Y-99300000D01*
X107680952Y-99252380D01*
X107633333Y-99204761D01*
X107585714Y-99109523D01*
X107585714Y-98966666D01*
X107633333Y-98871428D01*
X107680952Y-98823809D01*
X107776190Y-98776190D01*
X108061904Y-98776190D01*
X108157142Y-98823809D01*
X108204761Y-98871428D01*
X108252380Y-98966666D01*
X108252380Y-99109523D01*
X108252380Y-98347619D02*
X107252380Y-98347619D01*
X108252380Y-97919047D02*
X107728571Y-97919047D01*
X107633333Y-97966666D01*
X107585714Y-98061904D01*
X107585714Y-98204761D01*
X107633333Y-98300000D01*
X107680952Y-98347619D01*
X108252380Y-97442857D02*
X107585714Y-97442857D01*
X107680952Y-97442857D02*
X107633333Y-97395238D01*
X107585714Y-97300000D01*
X107585714Y-97157142D01*
X107633333Y-97061904D01*
X107728571Y-97014285D01*
X108252380Y-97014285D01*
X107728571Y-97014285D02*
X107633333Y-96966666D01*
X107585714Y-96871428D01*
X107585714Y-96728571D01*
X107633333Y-96633333D01*
X107728571Y-96585714D01*
X108252380Y-96585714D01*
G04 #@! TD*
M02*
