M48
;DRILL file {KiCad 5.0.2-bee76a0~70~ubuntu18.04.1} date Wed 10 Jul 2019 16:12:44 BST
;FORMAT={-:-/ absolute / metric / decimal}
FMAT,2
METRIC,TZ
T1C0.400
T2C0.800
T3C0.890
T4C1.000
T5C1.100
T6C1.300
T7C1.320
T8C2.010
%
G90
G05
T1
X139.84Y-92.955
X141.2Y-86.2
X148.8Y-88.6
X156.04Y-83.7
T2
X133.96Y-70.
X133.96Y-80.16
X135.Y-84.2
X135.Y-94.36
X142.5Y-70.
X142.5Y-80.16
X106.5Y-63.25
X106.5Y-68.25
X121.818Y-71.361
X121.818Y-78.981
X124.358Y-71.361
X124.358Y-78.981
X126.898Y-71.361
X126.898Y-78.981
X129.438Y-71.361
X129.438Y-78.981
X139.84Y-96.
X150.Y-96.
X146.25Y-70.
X146.25Y-80.16
X138.5Y-69.938
X138.5Y-80.098
X150.Y-70.
X150.Y-80.16
X124.714Y-64.797
X124.714Y-67.297
X127.Y-91.
X127.Y-96.
T3
X99.339Y-84.404
X99.339Y-86.944
T4
X115.164Y-65.112
X115.164Y-72.612
X121.5Y-85.2
X129.Y-85.2
T5
X106.84Y-77.
X117.Y-77.
T6
X154.Y-70.
X154.Y-80.
X159.Y-75.
X109.Y-91.5
X114.Y-96.5
X119.Y-91.5
X110.Y-84.2
X113.Y-84.2
T7
X93.Y-65.
X93.Y-70.
X144.Y-58.
X144.Y-63.
T8
X94.259Y-79.324
X94.259Y-89.484
T0
M30
