M48
; DRILL file {KiCad (6.0.2)} date Thu Oct 13 14:06:46 2022
; FORMAT={-:-/ absolute / inch / decimal}
; #@! TF.CreationDate,2022-10-13T14:06:46+01:00
; #@! TF.GenerationSoftware,Kicad,Pcbnew,(6.0.2)
; #@! TF.FileFunction,Plated,1,2,PTH
FMAT,2
INCH
; #@! TA.AperFunction,Plated,PTH,ViaDrill
T1C0.0157
; #@! TA.AperFunction,Plated,PTH,ComponentDrill
T2C0.0315
; #@! TA.AperFunction,Plated,PTH,ComponentDrill
T3C0.0350
; #@! TA.AperFunction,Plated,PTH,ComponentDrill
T4C0.0394
; #@! TA.AperFunction,Plated,PTH,ComponentDrill
T5C0.0433
; #@! TA.AperFunction,Plated,PTH,ComponentDrill
T6C0.0472
; #@! TA.AperFunction,Plated,PTH,ComponentDrill
T7C0.0512
; #@! TA.AperFunction,Plated,PTH,ComponentDrill
T8C0.0520
; #@! TA.AperFunction,Plated,PTH,ComponentDrill
T9C0.0791
%
G90
G05
T1
X5.187Y-3.6516
T2
X4.1276Y-3.7402
X4.2126Y-2.4174
X4.2126Y-2.6143
X4.5276Y-3.7402
X4.5571Y-2.2311
X4.5571Y-2.4311
X4.6161Y-2.628
X4.6425Y-3.7402
X4.6571Y-2.3311
X4.7638Y-3.3208
X4.7638Y-3.5176
X4.7803Y-2.2539
X4.7803Y-2.3917
X4.796Y-2.8095
X4.796Y-3.1095
X4.896Y-2.8095
X4.896Y-3.1095
X4.9114Y-2.628
X4.996Y-2.8095
X4.996Y-3.1095
X5.0425Y-3.7402
X5.096Y-2.8095
X5.096Y-3.1095
X5.1803Y-2.2539
X5.1803Y-2.3917
X5.374Y-3.2744
X5.374Y-3.6744
T3
X5.8346Y-3.0201
X5.8346Y-3.1201
T4
X4.2323Y-2.8642
X4.5276Y-2.8642
X5.0984Y-3.2776
X5.0984Y-3.5728
T5
X3.965Y-3.9687
X4.065Y-3.9687
X4.165Y-3.9687
X4.1799Y-3.1102
X4.5799Y-3.1102
X4.5949Y-3.9687
X4.6949Y-3.9687
X4.7949Y-3.9687
X5.087Y-3.9687
X5.287Y-3.9687
T6
X5.315Y-2.4906
X5.315Y-3.0906
T7
X4.3504Y-3.3071
X4.3504Y-3.5039
X5.6496Y-3.563
X5.6496Y-3.9567
X5.8465Y-3.7598
T8
X3.6516Y-2.6772
X3.6516Y-2.874
X3.6516Y-3.1195
X3.6516Y-3.3163
T9
X6.0346Y-2.9201
X6.0346Y-3.3201
T0
M30
