G04 #@! TF.GenerationSoftware,KiCad,Pcbnew,5.0.2-bee76a0~70~ubuntu18.04.1*
G04 #@! TF.CreationDate,2019-07-10T16:12:49+01:00*
G04 #@! TF.ProjectId,led_driver,6c65645f-6472-4697-9665-722e6b696361,rev?*
G04 #@! TF.SameCoordinates,Original*
G04 #@! TF.FileFunction,Soldermask,Top*
G04 #@! TF.FilePolarity,Negative*
%FSLAX46Y46*%
G04 Gerber Fmt 4.6, Leading zero omitted, Abs format (unit mm)*
G04 Created by KiCad (PCBNEW 5.0.2-bee76a0~70~ubuntu18.04.1) date Wed 10 Jul 2019 16:12:49 BST*
%MOMM*%
%LPD*%
G01*
G04 APERTURE LIST*
%ADD10C,0.100000*%
G04 APERTURE END LIST*
D10*
G36*
X156266703Y-95461486D02*
X156557883Y-95582097D01*
X156819944Y-95757201D01*
X157042799Y-95980056D01*
X157217903Y-96242117D01*
X157338514Y-96533297D01*
X157400000Y-96842412D01*
X157400000Y-97157588D01*
X157338514Y-97466703D01*
X157217903Y-97757883D01*
X157042799Y-98019944D01*
X156819944Y-98242799D01*
X156557883Y-98417903D01*
X156266703Y-98538514D01*
X155957588Y-98600000D01*
X155642412Y-98600000D01*
X155333297Y-98538514D01*
X155042117Y-98417903D01*
X154780056Y-98242799D01*
X154557201Y-98019944D01*
X154382097Y-97757883D01*
X154261486Y-97466703D01*
X154200000Y-97157588D01*
X154200000Y-96842412D01*
X154261486Y-96533297D01*
X154382097Y-96242117D01*
X154557201Y-95980056D01*
X154780056Y-95757201D01*
X155042117Y-95582097D01*
X155333297Y-95461486D01*
X155642412Y-95400000D01*
X155957588Y-95400000D01*
X156266703Y-95461486D01*
X156266703Y-95461486D01*
G37*
G36*
X91466703Y-95461486D02*
X91757883Y-95582097D01*
X92019944Y-95757201D01*
X92242799Y-95980056D01*
X92417903Y-96242117D01*
X92538514Y-96533297D01*
X92600000Y-96842412D01*
X92600000Y-97157588D01*
X92538514Y-97466703D01*
X92417903Y-97757883D01*
X92242799Y-98019944D01*
X92019944Y-98242799D01*
X91757883Y-98417903D01*
X91466703Y-98538514D01*
X91157588Y-98600000D01*
X90842412Y-98600000D01*
X90533297Y-98538514D01*
X90242117Y-98417903D01*
X89980056Y-98242799D01*
X89757201Y-98019944D01*
X89582097Y-97757883D01*
X89461486Y-97466703D01*
X89400000Y-97157588D01*
X89400000Y-96842412D01*
X89461486Y-96533297D01*
X89582097Y-96242117D01*
X89757201Y-95980056D01*
X89980056Y-95757201D01*
X90242117Y-95582097D01*
X90533297Y-95461486D01*
X90842412Y-95400000D01*
X91157588Y-95400000D01*
X91466703Y-95461486D01*
X91466703Y-95461486D01*
G37*
G36*
X114341274Y-95374962D02*
X114554204Y-95463160D01*
X114745833Y-95591203D01*
X114908797Y-95754167D01*
X115036840Y-95945796D01*
X115125038Y-96158726D01*
X115170000Y-96384764D01*
X115170000Y-96615236D01*
X115125038Y-96841274D01*
X115036840Y-97054204D01*
X114908797Y-97245833D01*
X114745833Y-97408797D01*
X114554204Y-97536840D01*
X114341274Y-97625038D01*
X114115236Y-97670000D01*
X113884764Y-97670000D01*
X113658726Y-97625038D01*
X113445796Y-97536840D01*
X113254167Y-97408797D01*
X113091203Y-97245833D01*
X112963160Y-97054204D01*
X112874962Y-96841274D01*
X112830000Y-96615236D01*
X112830000Y-96384764D01*
X112874962Y-96158726D01*
X112963160Y-95945796D01*
X113091203Y-95754167D01*
X113254167Y-95591203D01*
X113445796Y-95463160D01*
X113658726Y-95374962D01*
X113884764Y-95330000D01*
X114115236Y-95330000D01*
X114341274Y-95374962D01*
X114341274Y-95374962D01*
G37*
G36*
X127233352Y-95230743D02*
X127378941Y-95291048D01*
X127509973Y-95378601D01*
X127621399Y-95490027D01*
X127708952Y-95621059D01*
X127769257Y-95766648D01*
X127800000Y-95921205D01*
X127800000Y-96078795D01*
X127769257Y-96233352D01*
X127708952Y-96378941D01*
X127621399Y-96509973D01*
X127509973Y-96621399D01*
X127378941Y-96708952D01*
X127233352Y-96769257D01*
X127078795Y-96800000D01*
X126921205Y-96800000D01*
X126766648Y-96769257D01*
X126621059Y-96708952D01*
X126490027Y-96621399D01*
X126378601Y-96509973D01*
X126291048Y-96378941D01*
X126230743Y-96233352D01*
X126200000Y-96078795D01*
X126200000Y-95921205D01*
X126230743Y-95766648D01*
X126291048Y-95621059D01*
X126378601Y-95490027D01*
X126490027Y-95378601D01*
X126621059Y-95291048D01*
X126766648Y-95230743D01*
X126921205Y-95200000D01*
X127078795Y-95200000D01*
X127233352Y-95230743D01*
X127233352Y-95230743D01*
G37*
G36*
X150233352Y-95230743D02*
X150378941Y-95291048D01*
X150509973Y-95378601D01*
X150621399Y-95490027D01*
X150708952Y-95621059D01*
X150769257Y-95766648D01*
X150800000Y-95921205D01*
X150800000Y-96078795D01*
X150769257Y-96233352D01*
X150708952Y-96378941D01*
X150621399Y-96509973D01*
X150509973Y-96621399D01*
X150378941Y-96708952D01*
X150233352Y-96769257D01*
X150078795Y-96800000D01*
X149921205Y-96800000D01*
X149766648Y-96769257D01*
X149621059Y-96708952D01*
X149490027Y-96621399D01*
X149378601Y-96509973D01*
X149291048Y-96378941D01*
X149230743Y-96233352D01*
X149200000Y-96078795D01*
X149200000Y-95921205D01*
X149230743Y-95766648D01*
X149291048Y-95621059D01*
X149378601Y-95490027D01*
X149490027Y-95378601D01*
X149621059Y-95291048D01*
X149766648Y-95230743D01*
X149921205Y-95200000D01*
X150078795Y-95200000D01*
X150233352Y-95230743D01*
X150233352Y-95230743D01*
G37*
G36*
X139957649Y-95207717D02*
X139996827Y-95211576D01*
X140060012Y-95230743D01*
X140147629Y-95257321D01*
X140286608Y-95331608D01*
X140408422Y-95431578D01*
X140508392Y-95553392D01*
X140582679Y-95692371D01*
X140582679Y-95692372D01*
X140628424Y-95843173D01*
X140643870Y-96000000D01*
X140628424Y-96156827D01*
X140627848Y-96158726D01*
X140582679Y-96307629D01*
X140508392Y-96446608D01*
X140408422Y-96568422D01*
X140286608Y-96668392D01*
X140147629Y-96742679D01*
X140072227Y-96765552D01*
X139996827Y-96788424D01*
X139957649Y-96792283D01*
X139879295Y-96800000D01*
X139800705Y-96800000D01*
X139722351Y-96792283D01*
X139683173Y-96788424D01*
X139607773Y-96765552D01*
X139532371Y-96742679D01*
X139393392Y-96668392D01*
X139271578Y-96568422D01*
X139171608Y-96446608D01*
X139097321Y-96307629D01*
X139052152Y-96158726D01*
X139051576Y-96156827D01*
X139036130Y-96000000D01*
X139051576Y-95843173D01*
X139097321Y-95692372D01*
X139097321Y-95692371D01*
X139171608Y-95553392D01*
X139271578Y-95431578D01*
X139393392Y-95331608D01*
X139532371Y-95257321D01*
X139619988Y-95230743D01*
X139683173Y-95211576D01*
X139722351Y-95207717D01*
X139800705Y-95200000D01*
X139879295Y-95200000D01*
X139957649Y-95207717D01*
X139957649Y-95207717D01*
G37*
G36*
X135117649Y-93567717D02*
X135156827Y-93571576D01*
X135232227Y-93594448D01*
X135307629Y-93617321D01*
X135446608Y-93691608D01*
X135568422Y-93791578D01*
X135668392Y-93913392D01*
X135742679Y-94052371D01*
X135788424Y-94203174D01*
X135803870Y-94360000D01*
X135788424Y-94516826D01*
X135742679Y-94667629D01*
X135668392Y-94806608D01*
X135568422Y-94928422D01*
X135446608Y-95028392D01*
X135307629Y-95102679D01*
X135232228Y-95125551D01*
X135156827Y-95148424D01*
X135117649Y-95152283D01*
X135039295Y-95160000D01*
X134960705Y-95160000D01*
X134882351Y-95152283D01*
X134843173Y-95148424D01*
X134767772Y-95125551D01*
X134692371Y-95102679D01*
X134553392Y-95028392D01*
X134431578Y-94928422D01*
X134331608Y-94806608D01*
X134257321Y-94667629D01*
X134211576Y-94516826D01*
X134196130Y-94360000D01*
X134211576Y-94203174D01*
X134257321Y-94052371D01*
X134331608Y-93913392D01*
X134431578Y-93791578D01*
X134553392Y-93691608D01*
X134692371Y-93617321D01*
X134767773Y-93594448D01*
X134843173Y-93571576D01*
X134882351Y-93567717D01*
X134960705Y-93560000D01*
X135039295Y-93560000D01*
X135117649Y-93567717D01*
X135117649Y-93567717D01*
G37*
G36*
X119341274Y-90374962D02*
X119554204Y-90463160D01*
X119745833Y-90591203D01*
X119908797Y-90754167D01*
X120036840Y-90945796D01*
X120125038Y-91158726D01*
X120170000Y-91384764D01*
X120170000Y-91615236D01*
X120125038Y-91841274D01*
X120036840Y-92054204D01*
X119908797Y-92245833D01*
X119745833Y-92408797D01*
X119554204Y-92536840D01*
X119341274Y-92625038D01*
X119115236Y-92670000D01*
X118884764Y-92670000D01*
X118658726Y-92625038D01*
X118445796Y-92536840D01*
X118254167Y-92408797D01*
X118091203Y-92245833D01*
X117963160Y-92054204D01*
X117874962Y-91841274D01*
X117830000Y-91615236D01*
X117830000Y-91384764D01*
X117874962Y-91158726D01*
X117963160Y-90945796D01*
X118091203Y-90754167D01*
X118254167Y-90591203D01*
X118445796Y-90463160D01*
X118658726Y-90374962D01*
X118884764Y-90330000D01*
X119115236Y-90330000D01*
X119341274Y-90374962D01*
X119341274Y-90374962D01*
G37*
G36*
X109341274Y-90374962D02*
X109554204Y-90463160D01*
X109745833Y-90591203D01*
X109908797Y-90754167D01*
X110036840Y-90945796D01*
X110125038Y-91158726D01*
X110170000Y-91384764D01*
X110170000Y-91615236D01*
X110125038Y-91841274D01*
X110036840Y-92054204D01*
X109908797Y-92245833D01*
X109745833Y-92408797D01*
X109554204Y-92536840D01*
X109341274Y-92625038D01*
X109115236Y-92670000D01*
X108884764Y-92670000D01*
X108658726Y-92625038D01*
X108445796Y-92536840D01*
X108254167Y-92408797D01*
X108091203Y-92245833D01*
X107963160Y-92054204D01*
X107874962Y-91841274D01*
X107830000Y-91615236D01*
X107830000Y-91384764D01*
X107874962Y-91158726D01*
X107963160Y-90945796D01*
X108091203Y-90754167D01*
X108254167Y-90591203D01*
X108445796Y-90463160D01*
X108658726Y-90374962D01*
X108884764Y-90330000D01*
X109115236Y-90330000D01*
X109341274Y-90374962D01*
X109341274Y-90374962D01*
G37*
G36*
X127800000Y-91800000D02*
X126200000Y-91800000D01*
X126200000Y-90200000D01*
X127800000Y-90200000D01*
X127800000Y-91800000D01*
X127800000Y-91800000D01*
G37*
G36*
X96181065Y-87742640D02*
X96352460Y-87759521D01*
X96572377Y-87826232D01*
X96682337Y-87859588D01*
X96844837Y-87946447D01*
X96986352Y-88022088D01*
X96986354Y-88022089D01*
X96986353Y-88022089D01*
X97252824Y-88240776D01*
X97471511Y-88507247D01*
X97634012Y-88811263D01*
X97634012Y-88811264D01*
X97734079Y-89141140D01*
X97767867Y-89484200D01*
X97734079Y-89827260D01*
X97696846Y-89950000D01*
X97634012Y-90157137D01*
X97547153Y-90319637D01*
X97471512Y-90461152D01*
X97252824Y-90727624D01*
X96986352Y-90946312D01*
X96844837Y-91021953D01*
X96682337Y-91108812D01*
X96572377Y-91142168D01*
X96352460Y-91208879D01*
X96181065Y-91225760D01*
X96095369Y-91234200D01*
X92423431Y-91234200D01*
X92337735Y-91225760D01*
X92166340Y-91208879D01*
X91946423Y-91142168D01*
X91836463Y-91108812D01*
X91673963Y-91021953D01*
X91532448Y-90946312D01*
X91265976Y-90727624D01*
X91047288Y-90461152D01*
X90971647Y-90319637D01*
X90884788Y-90157137D01*
X90821954Y-89950000D01*
X90784721Y-89827260D01*
X90750933Y-89484200D01*
X90784721Y-89141140D01*
X90884788Y-88811264D01*
X90884788Y-88811263D01*
X91047289Y-88507247D01*
X91265976Y-88240776D01*
X91532447Y-88022089D01*
X91532446Y-88022089D01*
X91532448Y-88022088D01*
X91673963Y-87946447D01*
X91836463Y-87859588D01*
X91946423Y-87826232D01*
X92166340Y-87759521D01*
X92337735Y-87742640D01*
X92423431Y-87734200D01*
X96095369Y-87734200D01*
X96181065Y-87742640D01*
X96181065Y-87742640D01*
G37*
G36*
X146605000Y-91075000D02*
X146005000Y-91075000D01*
X146005000Y-89525000D01*
X146605000Y-89525000D01*
X146605000Y-91075000D01*
X146605000Y-91075000D01*
G37*
G36*
X145335000Y-91075000D02*
X144735000Y-91075000D01*
X144735000Y-89525000D01*
X145335000Y-89525000D01*
X145335000Y-91075000D01*
X145335000Y-91075000D01*
G37*
G36*
X144065000Y-91075000D02*
X143465000Y-91075000D01*
X143465000Y-89525000D01*
X144065000Y-89525000D01*
X144065000Y-91075000D01*
X144065000Y-91075000D01*
G37*
G36*
X142795000Y-91075000D02*
X142195000Y-91075000D01*
X142195000Y-89525000D01*
X142795000Y-89525000D01*
X142795000Y-91075000D01*
X142795000Y-91075000D01*
G37*
G36*
X157650000Y-89825000D02*
X157652402Y-89849386D01*
X157659515Y-89872835D01*
X157660000Y-89873742D01*
X157660000Y-90750000D01*
X156960000Y-90750000D01*
X156960000Y-90370000D01*
X156957598Y-90345614D01*
X156950485Y-90322165D01*
X156938934Y-90300554D01*
X156923388Y-90281612D01*
X156904446Y-90266066D01*
X156882835Y-90254515D01*
X156859386Y-90247402D01*
X156835000Y-90245000D01*
X156515000Y-90245000D01*
X156490614Y-90247402D01*
X156467165Y-90254515D01*
X156445554Y-90266066D01*
X156426612Y-90281612D01*
X156411066Y-90300554D01*
X156399515Y-90322165D01*
X156392402Y-90345614D01*
X156390000Y-90370000D01*
X156390000Y-90750000D01*
X155690000Y-90750000D01*
X155690000Y-90370000D01*
X155687598Y-90345614D01*
X155680485Y-90322165D01*
X155668934Y-90300554D01*
X155653388Y-90281612D01*
X155634446Y-90266066D01*
X155612835Y-90254515D01*
X155589386Y-90247402D01*
X155565000Y-90245000D01*
X155235000Y-90245000D01*
X155210614Y-90247402D01*
X155187165Y-90254515D01*
X155165554Y-90266066D01*
X155146612Y-90281612D01*
X155131066Y-90300554D01*
X155119515Y-90322165D01*
X155112402Y-90345614D01*
X155110000Y-90370000D01*
X155110000Y-90750000D01*
X154410000Y-90750000D01*
X154410000Y-90370000D01*
X154407598Y-90345614D01*
X154400485Y-90322165D01*
X154388934Y-90300554D01*
X154373388Y-90281612D01*
X154354446Y-90266066D01*
X154332835Y-90254515D01*
X154309386Y-90247402D01*
X154285000Y-90245000D01*
X153965000Y-90245000D01*
X153940614Y-90247402D01*
X153917165Y-90254515D01*
X153895554Y-90266066D01*
X153876612Y-90281612D01*
X153861066Y-90300554D01*
X153849515Y-90322165D01*
X153842402Y-90345614D01*
X153840000Y-90370000D01*
X153840000Y-90750000D01*
X153140000Y-90750000D01*
X153140000Y-89873742D01*
X153140485Y-89872835D01*
X153147598Y-89849386D01*
X153150000Y-89825000D01*
X153150000Y-85955000D01*
X157650000Y-85955000D01*
X157650000Y-89825000D01*
X157650000Y-89825000D01*
G37*
G36*
X99907049Y-86151917D02*
X99946227Y-86155776D01*
X100021627Y-86178648D01*
X100097029Y-86201521D01*
X100236008Y-86275808D01*
X100357822Y-86375778D01*
X100457792Y-86497592D01*
X100532079Y-86636571D01*
X100577824Y-86787374D01*
X100593270Y-86944200D01*
X100577824Y-87101026D01*
X100532079Y-87251829D01*
X100457792Y-87390808D01*
X100357822Y-87512622D01*
X100236008Y-87612592D01*
X100097029Y-87686879D01*
X100021628Y-87709751D01*
X99946227Y-87732624D01*
X99930225Y-87734200D01*
X99828695Y-87744200D01*
X98850105Y-87744200D01*
X98748575Y-87734200D01*
X98732573Y-87732624D01*
X98657172Y-87709751D01*
X98581771Y-87686879D01*
X98442792Y-87612592D01*
X98320978Y-87512622D01*
X98221008Y-87390808D01*
X98146721Y-87251829D01*
X98100976Y-87101026D01*
X98085530Y-86944200D01*
X98100976Y-86787374D01*
X98146721Y-86636571D01*
X98221008Y-86497592D01*
X98320978Y-86375778D01*
X98442792Y-86275808D01*
X98581771Y-86201521D01*
X98657173Y-86178648D01*
X98732573Y-86155776D01*
X98771751Y-86151917D01*
X98850105Y-86144200D01*
X99828695Y-86144200D01*
X99907049Y-86151917D01*
X99907049Y-86151917D01*
G37*
G36*
X121675770Y-84215372D02*
X121791689Y-84238429D01*
X121973678Y-84313811D01*
X122137463Y-84423249D01*
X122276751Y-84562537D01*
X122386189Y-84726322D01*
X122461571Y-84908311D01*
X122474363Y-84972622D01*
X122500000Y-85101507D01*
X122500000Y-85298493D01*
X122484628Y-85375770D01*
X122461571Y-85491689D01*
X122386189Y-85673678D01*
X122276751Y-85837463D01*
X122137463Y-85976751D01*
X121973678Y-86086189D01*
X121791689Y-86161571D01*
X121675770Y-86184628D01*
X121598493Y-86200000D01*
X121401507Y-86200000D01*
X121324230Y-86184628D01*
X121208311Y-86161571D01*
X121026322Y-86086189D01*
X120862537Y-85976751D01*
X120723249Y-85837463D01*
X120613811Y-85673678D01*
X120538429Y-85491689D01*
X120515372Y-85375770D01*
X120500000Y-85298493D01*
X120500000Y-85101507D01*
X120525637Y-84972622D01*
X120538429Y-84908311D01*
X120613811Y-84726322D01*
X120723249Y-84562537D01*
X120862537Y-84423249D01*
X121026322Y-84313811D01*
X121208311Y-84238429D01*
X121324230Y-84215372D01*
X121401507Y-84200000D01*
X121598493Y-84200000D01*
X121675770Y-84215372D01*
X121675770Y-84215372D01*
G37*
G36*
X129175770Y-84215372D02*
X129291689Y-84238429D01*
X129473678Y-84313811D01*
X129637463Y-84423249D01*
X129776751Y-84562537D01*
X129886189Y-84726322D01*
X129961571Y-84908311D01*
X129974363Y-84972622D01*
X130000000Y-85101507D01*
X130000000Y-85298493D01*
X129984628Y-85375770D01*
X129961571Y-85491689D01*
X129886189Y-85673678D01*
X129776751Y-85837463D01*
X129637463Y-85976751D01*
X129473678Y-86086189D01*
X129291689Y-86161571D01*
X129175770Y-86184628D01*
X129098493Y-86200000D01*
X128901507Y-86200000D01*
X128824230Y-86184628D01*
X128708311Y-86161571D01*
X128526322Y-86086189D01*
X128362537Y-85976751D01*
X128223249Y-85837463D01*
X128113811Y-85673678D01*
X128038429Y-85491689D01*
X128015372Y-85375770D01*
X128000000Y-85298493D01*
X128000000Y-85101507D01*
X128025637Y-84972622D01*
X128038429Y-84908311D01*
X128113811Y-84726322D01*
X128223249Y-84562537D01*
X128362537Y-84423249D01*
X128526322Y-84313811D01*
X128708311Y-84238429D01*
X128824230Y-84215372D01*
X128901507Y-84200000D01*
X129098493Y-84200000D01*
X129175770Y-84215372D01*
X129175770Y-84215372D01*
G37*
G36*
X146605000Y-85675000D02*
X146005000Y-85675000D01*
X146005000Y-84125000D01*
X146605000Y-84125000D01*
X146605000Y-85675000D01*
X146605000Y-85675000D01*
G37*
G36*
X145335000Y-85675000D02*
X144735000Y-85675000D01*
X144735000Y-84125000D01*
X145335000Y-84125000D01*
X145335000Y-85675000D01*
X145335000Y-85675000D01*
G37*
G36*
X144065000Y-85675000D02*
X143465000Y-85675000D01*
X143465000Y-84125000D01*
X144065000Y-84125000D01*
X144065000Y-85675000D01*
X144065000Y-85675000D01*
G37*
G36*
X142795000Y-85675000D02*
X142195000Y-85675000D01*
X142195000Y-84125000D01*
X142795000Y-84125000D01*
X142795000Y-85675000D01*
X142795000Y-85675000D01*
G37*
G36*
X110379196Y-82949958D02*
X110615780Y-83047954D01*
X110828705Y-83190226D01*
X111009774Y-83371295D01*
X111152046Y-83584220D01*
X111250042Y-83820804D01*
X111300000Y-84071960D01*
X111300000Y-84328040D01*
X111250042Y-84579196D01*
X111152046Y-84815780D01*
X111009774Y-85028705D01*
X110828705Y-85209774D01*
X110615780Y-85352046D01*
X110379196Y-85450042D01*
X110128040Y-85500000D01*
X109871960Y-85500000D01*
X109620804Y-85450042D01*
X109384220Y-85352046D01*
X109171295Y-85209774D01*
X108990226Y-85028705D01*
X108847954Y-84815780D01*
X108749958Y-84579196D01*
X108700000Y-84328040D01*
X108700000Y-84071960D01*
X108749958Y-83820804D01*
X108847954Y-83584220D01*
X108990226Y-83371295D01*
X109171295Y-83190226D01*
X109384220Y-83047954D01*
X109620804Y-82949958D01*
X109871960Y-82900000D01*
X110128040Y-82900000D01*
X110379196Y-82949958D01*
X110379196Y-82949958D01*
G37*
G36*
X113379196Y-82949958D02*
X113615780Y-83047954D01*
X113828705Y-83190226D01*
X114009774Y-83371295D01*
X114152046Y-83584220D01*
X114250042Y-83820804D01*
X114300000Y-84071960D01*
X114300000Y-84328040D01*
X114250042Y-84579196D01*
X114152046Y-84815780D01*
X114009774Y-85028705D01*
X113828705Y-85209774D01*
X113615780Y-85352046D01*
X113379196Y-85450042D01*
X113128040Y-85500000D01*
X112871960Y-85500000D01*
X112620804Y-85450042D01*
X112384220Y-85352046D01*
X112171295Y-85209774D01*
X111990226Y-85028705D01*
X111847954Y-84815780D01*
X111749958Y-84579196D01*
X111700000Y-84328040D01*
X111700000Y-84071960D01*
X111749958Y-83820804D01*
X111847954Y-83584220D01*
X111990226Y-83371295D01*
X112171295Y-83190226D01*
X112384220Y-83047954D01*
X112620804Y-82949958D01*
X112871960Y-82900000D01*
X113128040Y-82900000D01*
X113379196Y-82949958D01*
X113379196Y-82949958D01*
G37*
G36*
X157660000Y-85250000D02*
X156960000Y-85250000D01*
X156960000Y-84450000D01*
X157660000Y-84450000D01*
X157660000Y-85250000D01*
X157660000Y-85250000D01*
G37*
G36*
X153840000Y-85250000D02*
X153140000Y-85250000D01*
X153140000Y-84450000D01*
X153840000Y-84450000D01*
X153840000Y-85250000D01*
X153840000Y-85250000D01*
G37*
G36*
X155110000Y-85250000D02*
X154410000Y-85250000D01*
X154410000Y-84450000D01*
X155110000Y-84450000D01*
X155110000Y-85250000D01*
X155110000Y-85250000D01*
G37*
G36*
X156390000Y-85250000D02*
X155690000Y-85250000D01*
X155690000Y-84450000D01*
X156390000Y-84450000D01*
X156390000Y-85250000D01*
X156390000Y-85250000D01*
G37*
G36*
X99907049Y-83611917D02*
X99946227Y-83615776D01*
X100021628Y-83638649D01*
X100097029Y-83661521D01*
X100236008Y-83735808D01*
X100357822Y-83835778D01*
X100457792Y-83957592D01*
X100532079Y-84096571D01*
X100539552Y-84121207D01*
X100577824Y-84247373D01*
X100593270Y-84404200D01*
X100577824Y-84561027D01*
X100572312Y-84579196D01*
X100532079Y-84711829D01*
X100457792Y-84850808D01*
X100357822Y-84972622D01*
X100236008Y-85072592D01*
X100097029Y-85146879D01*
X100021628Y-85169751D01*
X99946227Y-85192624D01*
X99907049Y-85196483D01*
X99828695Y-85204200D01*
X98850105Y-85204200D01*
X98771751Y-85196483D01*
X98732573Y-85192624D01*
X98657172Y-85169751D01*
X98581771Y-85146879D01*
X98442792Y-85072592D01*
X98320978Y-84972622D01*
X98221008Y-84850808D01*
X98146721Y-84711829D01*
X98106488Y-84579196D01*
X98100976Y-84561027D01*
X98085530Y-84404200D01*
X98100976Y-84247373D01*
X98139248Y-84121207D01*
X98146721Y-84096571D01*
X98221008Y-83957592D01*
X98320978Y-83835778D01*
X98442792Y-83735808D01*
X98581771Y-83661521D01*
X98657172Y-83638649D01*
X98732573Y-83615776D01*
X98771751Y-83611917D01*
X98850105Y-83604200D01*
X99828695Y-83604200D01*
X99907049Y-83611917D01*
X99907049Y-83611917D01*
G37*
G36*
X135233352Y-83430743D02*
X135378941Y-83491048D01*
X135509973Y-83578601D01*
X135621399Y-83690027D01*
X135708952Y-83821059D01*
X135769257Y-83966648D01*
X135800000Y-84121205D01*
X135800000Y-84278795D01*
X135769257Y-84433352D01*
X135708952Y-84578941D01*
X135621399Y-84709973D01*
X135509973Y-84821399D01*
X135378941Y-84908952D01*
X135233352Y-84969257D01*
X135078795Y-85000000D01*
X134921205Y-85000000D01*
X134766648Y-84969257D01*
X134621059Y-84908952D01*
X134490027Y-84821399D01*
X134378601Y-84709973D01*
X134291048Y-84578941D01*
X134230743Y-84433352D01*
X134200000Y-84278795D01*
X134200000Y-84121205D01*
X134230743Y-83966648D01*
X134291048Y-83821059D01*
X134378601Y-83690027D01*
X134490027Y-83578601D01*
X134621059Y-83491048D01*
X134766648Y-83430743D01*
X134921205Y-83400000D01*
X135078795Y-83400000D01*
X135233352Y-83430743D01*
X135233352Y-83430743D01*
G37*
G36*
X154341274Y-78874962D02*
X154554204Y-78963160D01*
X154745833Y-79091203D01*
X154908797Y-79254167D01*
X155036840Y-79445796D01*
X155125038Y-79658726D01*
X155170000Y-79884764D01*
X155170000Y-80115236D01*
X155125038Y-80341274D01*
X155036840Y-80554204D01*
X154908797Y-80745833D01*
X154745833Y-80908797D01*
X154554204Y-81036840D01*
X154341274Y-81125038D01*
X154115236Y-81170000D01*
X153884764Y-81170000D01*
X153658726Y-81125038D01*
X153445796Y-81036840D01*
X153254167Y-80908797D01*
X153091203Y-80745833D01*
X152963160Y-80554204D01*
X152874962Y-80341274D01*
X152830000Y-80115236D01*
X152830000Y-79884764D01*
X152874962Y-79658726D01*
X152963160Y-79445796D01*
X153091203Y-79254167D01*
X153254167Y-79091203D01*
X153445796Y-78963160D01*
X153658726Y-78874962D01*
X153884764Y-78830000D01*
X154115236Y-78830000D01*
X154341274Y-78874962D01*
X154341274Y-78874962D01*
G37*
G36*
X96181065Y-77582640D02*
X96352460Y-77599521D01*
X96572377Y-77666232D01*
X96682337Y-77699588D01*
X96835734Y-77781581D01*
X96986352Y-77862088D01*
X97252824Y-78080776D01*
X97471512Y-78347248D01*
X97547153Y-78488763D01*
X97634012Y-78651263D01*
X97640658Y-78673172D01*
X97734079Y-78981140D01*
X97767867Y-79324200D01*
X97734079Y-79667260D01*
X97674080Y-79865049D01*
X97634012Y-79997137D01*
X97622001Y-80019607D01*
X97471512Y-80301152D01*
X97252824Y-80567624D01*
X96986352Y-80786312D01*
X96907626Y-80828392D01*
X96682337Y-80948812D01*
X96572377Y-80982168D01*
X96352460Y-81048879D01*
X96181065Y-81065760D01*
X96095369Y-81074200D01*
X92423431Y-81074200D01*
X92337735Y-81065760D01*
X92166340Y-81048879D01*
X91946423Y-80982168D01*
X91836463Y-80948812D01*
X91611174Y-80828392D01*
X91532448Y-80786312D01*
X91265976Y-80567624D01*
X91047288Y-80301152D01*
X90896799Y-80019607D01*
X90884788Y-79997137D01*
X90844720Y-79865049D01*
X90784721Y-79667260D01*
X90750933Y-79324200D01*
X90784721Y-78981140D01*
X90878142Y-78673172D01*
X90884788Y-78651263D01*
X90971647Y-78488763D01*
X91047288Y-78347248D01*
X91265976Y-78080776D01*
X91532448Y-77862088D01*
X91683066Y-77781581D01*
X91836463Y-77699588D01*
X91946423Y-77666232D01*
X92166340Y-77599521D01*
X92337735Y-77582640D01*
X92423431Y-77574200D01*
X96095369Y-77574200D01*
X96181065Y-77582640D01*
X96181065Y-77582640D01*
G37*
G36*
X142733352Y-79390743D02*
X142878941Y-79451048D01*
X143009973Y-79538601D01*
X143121399Y-79650027D01*
X143208952Y-79781059D01*
X143269257Y-79926648D01*
X143300000Y-80081205D01*
X143300000Y-80238795D01*
X143269257Y-80393352D01*
X143208952Y-80538941D01*
X143121399Y-80669973D01*
X143009973Y-80781399D01*
X142878941Y-80868952D01*
X142733352Y-80929257D01*
X142578795Y-80960000D01*
X142421205Y-80960000D01*
X142266648Y-80929257D01*
X142121059Y-80868952D01*
X141990027Y-80781399D01*
X141878601Y-80669973D01*
X141791048Y-80538941D01*
X141730743Y-80393352D01*
X141700000Y-80238795D01*
X141700000Y-80081205D01*
X141730743Y-79926648D01*
X141791048Y-79781059D01*
X141878601Y-79650027D01*
X141990027Y-79538601D01*
X142121059Y-79451048D01*
X142266648Y-79390743D01*
X142421205Y-79360000D01*
X142578795Y-79360000D01*
X142733352Y-79390743D01*
X142733352Y-79390743D01*
G37*
G36*
X146367649Y-79367717D02*
X146406827Y-79371576D01*
X146465743Y-79389448D01*
X146557629Y-79417321D01*
X146696608Y-79491608D01*
X146818422Y-79591578D01*
X146918392Y-79713392D01*
X146992679Y-79852371D01*
X146992679Y-79852372D01*
X147038424Y-80003173D01*
X147053870Y-80160000D01*
X147038424Y-80316827D01*
X147031008Y-80341274D01*
X146992679Y-80467629D01*
X146918392Y-80606608D01*
X146818422Y-80728422D01*
X146696608Y-80828392D01*
X146557629Y-80902679D01*
X146482227Y-80925552D01*
X146406827Y-80948424D01*
X146367649Y-80952283D01*
X146289295Y-80960000D01*
X146210705Y-80960000D01*
X146132351Y-80952283D01*
X146093173Y-80948424D01*
X146017773Y-80925552D01*
X145942371Y-80902679D01*
X145803392Y-80828392D01*
X145681578Y-80728422D01*
X145581608Y-80606608D01*
X145507321Y-80467629D01*
X145468992Y-80341274D01*
X145461576Y-80316827D01*
X145446130Y-80160000D01*
X145461576Y-80003173D01*
X145507321Y-79852372D01*
X145507321Y-79852371D01*
X145581608Y-79713392D01*
X145681578Y-79591578D01*
X145803392Y-79491608D01*
X145942371Y-79417321D01*
X146034257Y-79389448D01*
X146093173Y-79371576D01*
X146132351Y-79367717D01*
X146210705Y-79360000D01*
X146289295Y-79360000D01*
X146367649Y-79367717D01*
X146367649Y-79367717D01*
G37*
G36*
X134192952Y-79390743D02*
X134338541Y-79451048D01*
X134469573Y-79538601D01*
X134580999Y-79650027D01*
X134668552Y-79781059D01*
X134728857Y-79926648D01*
X134759600Y-80081205D01*
X134759600Y-80238795D01*
X134728857Y-80393352D01*
X134668552Y-80538941D01*
X134580999Y-80669973D01*
X134469573Y-80781399D01*
X134338541Y-80868952D01*
X134192952Y-80929257D01*
X134038395Y-80960000D01*
X133880805Y-80960000D01*
X133726248Y-80929257D01*
X133580659Y-80868952D01*
X133449627Y-80781399D01*
X133338201Y-80669973D01*
X133250648Y-80538941D01*
X133190343Y-80393352D01*
X133159600Y-80238795D01*
X133159600Y-80081205D01*
X133190343Y-79926648D01*
X133250648Y-79781059D01*
X133338201Y-79650027D01*
X133449627Y-79538601D01*
X133580659Y-79451048D01*
X133726248Y-79390743D01*
X133880805Y-79360000D01*
X134038395Y-79360000D01*
X134192952Y-79390743D01*
X134192952Y-79390743D01*
G37*
G36*
X150117649Y-79367717D02*
X150156827Y-79371576D01*
X150215743Y-79389448D01*
X150307629Y-79417321D01*
X150446608Y-79491608D01*
X150568422Y-79591578D01*
X150668392Y-79713392D01*
X150742679Y-79852371D01*
X150742679Y-79852372D01*
X150788424Y-80003173D01*
X150803870Y-80160000D01*
X150788424Y-80316827D01*
X150781008Y-80341274D01*
X150742679Y-80467629D01*
X150668392Y-80606608D01*
X150568422Y-80728422D01*
X150446608Y-80828392D01*
X150307629Y-80902679D01*
X150232227Y-80925552D01*
X150156827Y-80948424D01*
X150117649Y-80952283D01*
X150039295Y-80960000D01*
X149960705Y-80960000D01*
X149882351Y-80952283D01*
X149843173Y-80948424D01*
X149767773Y-80925552D01*
X149692371Y-80902679D01*
X149553392Y-80828392D01*
X149431578Y-80728422D01*
X149331608Y-80606608D01*
X149257321Y-80467629D01*
X149218992Y-80341274D01*
X149211576Y-80316827D01*
X149196130Y-80160000D01*
X149211576Y-80003173D01*
X149257321Y-79852372D01*
X149257321Y-79852371D01*
X149331608Y-79713392D01*
X149431578Y-79591578D01*
X149553392Y-79491608D01*
X149692371Y-79417321D01*
X149784257Y-79389448D01*
X149843173Y-79371576D01*
X149882351Y-79367717D01*
X149960705Y-79360000D01*
X150039295Y-79360000D01*
X150117649Y-79367717D01*
X150117649Y-79367717D01*
G37*
G36*
X138733352Y-79329143D02*
X138878941Y-79389448D01*
X139009973Y-79477001D01*
X139121399Y-79588427D01*
X139208952Y-79719459D01*
X139269257Y-79865048D01*
X139300000Y-80019605D01*
X139300000Y-80177195D01*
X139269257Y-80331752D01*
X139208952Y-80477341D01*
X139121399Y-80608373D01*
X139009973Y-80719799D01*
X138878941Y-80807352D01*
X138733352Y-80867657D01*
X138578795Y-80898400D01*
X138421205Y-80898400D01*
X138266648Y-80867657D01*
X138121059Y-80807352D01*
X137990027Y-80719799D01*
X137878601Y-80608373D01*
X137791048Y-80477341D01*
X137730743Y-80331752D01*
X137700000Y-80177195D01*
X137700000Y-80019605D01*
X137730743Y-79865048D01*
X137791048Y-79719459D01*
X137878601Y-79588427D01*
X137990027Y-79477001D01*
X138121059Y-79389448D01*
X138266648Y-79329143D01*
X138421205Y-79298400D01*
X138578795Y-79298400D01*
X138733352Y-79329143D01*
X138733352Y-79329143D01*
G37*
G36*
X121936049Y-78188517D02*
X121975227Y-78192376D01*
X122050627Y-78215248D01*
X122126029Y-78238121D01*
X122265008Y-78312408D01*
X122386822Y-78412378D01*
X122486792Y-78534192D01*
X122561079Y-78673171D01*
X122606824Y-78823974D01*
X122622270Y-78980800D01*
X122606824Y-79137626D01*
X122561079Y-79288429D01*
X122486792Y-79427408D01*
X122386822Y-79549222D01*
X122265008Y-79649192D01*
X122126029Y-79723479D01*
X122050627Y-79746352D01*
X121975227Y-79769224D01*
X121936049Y-79773083D01*
X121857695Y-79780800D01*
X121779105Y-79780800D01*
X121700751Y-79773083D01*
X121661573Y-79769224D01*
X121586173Y-79746352D01*
X121510771Y-79723479D01*
X121371792Y-79649192D01*
X121249978Y-79549222D01*
X121150008Y-79427408D01*
X121075721Y-79288429D01*
X121029976Y-79137626D01*
X121014530Y-78980800D01*
X121029976Y-78823974D01*
X121075721Y-78673171D01*
X121150008Y-78534192D01*
X121249978Y-78412378D01*
X121371792Y-78312408D01*
X121510771Y-78238121D01*
X121586173Y-78215248D01*
X121661573Y-78192376D01*
X121700751Y-78188517D01*
X121779105Y-78180800D01*
X121857695Y-78180800D01*
X121936049Y-78188517D01*
X121936049Y-78188517D01*
G37*
G36*
X129556049Y-78188517D02*
X129595227Y-78192376D01*
X129670627Y-78215248D01*
X129746029Y-78238121D01*
X129885008Y-78312408D01*
X130006822Y-78412378D01*
X130106792Y-78534192D01*
X130181079Y-78673171D01*
X130226824Y-78823974D01*
X130242270Y-78980800D01*
X130226824Y-79137626D01*
X130181079Y-79288429D01*
X130106792Y-79427408D01*
X130006822Y-79549222D01*
X129885008Y-79649192D01*
X129746029Y-79723479D01*
X129670627Y-79746352D01*
X129595227Y-79769224D01*
X129556049Y-79773083D01*
X129477695Y-79780800D01*
X129399105Y-79780800D01*
X129320751Y-79773083D01*
X129281573Y-79769224D01*
X129206173Y-79746352D01*
X129130771Y-79723479D01*
X128991792Y-79649192D01*
X128869978Y-79549222D01*
X128770008Y-79427408D01*
X128695721Y-79288429D01*
X128649976Y-79137626D01*
X128634530Y-78980800D01*
X128649976Y-78823974D01*
X128695721Y-78673171D01*
X128770008Y-78534192D01*
X128869978Y-78412378D01*
X128991792Y-78312408D01*
X129130771Y-78238121D01*
X129206173Y-78215248D01*
X129281573Y-78192376D01*
X129320751Y-78188517D01*
X129399105Y-78180800D01*
X129477695Y-78180800D01*
X129556049Y-78188517D01*
X129556049Y-78188517D01*
G37*
G36*
X127016049Y-78188517D02*
X127055227Y-78192376D01*
X127130627Y-78215248D01*
X127206029Y-78238121D01*
X127345008Y-78312408D01*
X127466822Y-78412378D01*
X127566792Y-78534192D01*
X127641079Y-78673171D01*
X127686824Y-78823974D01*
X127702270Y-78980800D01*
X127686824Y-79137626D01*
X127641079Y-79288429D01*
X127566792Y-79427408D01*
X127466822Y-79549222D01*
X127345008Y-79649192D01*
X127206029Y-79723479D01*
X127130627Y-79746352D01*
X127055227Y-79769224D01*
X127016049Y-79773083D01*
X126937695Y-79780800D01*
X126859105Y-79780800D01*
X126780751Y-79773083D01*
X126741573Y-79769224D01*
X126666173Y-79746352D01*
X126590771Y-79723479D01*
X126451792Y-79649192D01*
X126329978Y-79549222D01*
X126230008Y-79427408D01*
X126155721Y-79288429D01*
X126109976Y-79137626D01*
X126094530Y-78980800D01*
X126109976Y-78823974D01*
X126155721Y-78673171D01*
X126230008Y-78534192D01*
X126329978Y-78412378D01*
X126451792Y-78312408D01*
X126590771Y-78238121D01*
X126666173Y-78215248D01*
X126741573Y-78192376D01*
X126780751Y-78188517D01*
X126859105Y-78180800D01*
X126937695Y-78180800D01*
X127016049Y-78188517D01*
X127016049Y-78188517D01*
G37*
G36*
X124476049Y-78188517D02*
X124515227Y-78192376D01*
X124590627Y-78215248D01*
X124666029Y-78238121D01*
X124805008Y-78312408D01*
X124926822Y-78412378D01*
X125026792Y-78534192D01*
X125101079Y-78673171D01*
X125146824Y-78823974D01*
X125162270Y-78980800D01*
X125146824Y-79137626D01*
X125101079Y-79288429D01*
X125026792Y-79427408D01*
X124926822Y-79549222D01*
X124805008Y-79649192D01*
X124666029Y-79723479D01*
X124590627Y-79746352D01*
X124515227Y-79769224D01*
X124476049Y-79773083D01*
X124397695Y-79780800D01*
X124319105Y-79780800D01*
X124240751Y-79773083D01*
X124201573Y-79769224D01*
X124126173Y-79746352D01*
X124050771Y-79723479D01*
X123911792Y-79649192D01*
X123789978Y-79549222D01*
X123690008Y-79427408D01*
X123615721Y-79288429D01*
X123569976Y-79137626D01*
X123554530Y-78980800D01*
X123569976Y-78823974D01*
X123615721Y-78673171D01*
X123690008Y-78534192D01*
X123789978Y-78412378D01*
X123911792Y-78312408D01*
X124050771Y-78238121D01*
X124126173Y-78215248D01*
X124201573Y-78192376D01*
X124240751Y-78188517D01*
X124319105Y-78180800D01*
X124397695Y-78180800D01*
X124476049Y-78188517D01*
X124476049Y-78188517D01*
G37*
G36*
X118100000Y-78100000D02*
X115900000Y-78100000D01*
X115900000Y-75900000D01*
X118100000Y-75900000D01*
X118100000Y-78100000D01*
X118100000Y-78100000D01*
G37*
G36*
X107055639Y-75915916D02*
X107262986Y-75978815D01*
X107262988Y-75978816D01*
X107454084Y-76080958D01*
X107621581Y-76218419D01*
X107759042Y-76385916D01*
X107861184Y-76577012D01*
X107924084Y-76784362D01*
X107945322Y-77000000D01*
X107924084Y-77215638D01*
X107861184Y-77422988D01*
X107759042Y-77614084D01*
X107621581Y-77781581D01*
X107454084Y-77919042D01*
X107262988Y-78021184D01*
X107262986Y-78021185D01*
X107055639Y-78084084D01*
X106894038Y-78100000D01*
X106785962Y-78100000D01*
X106624361Y-78084084D01*
X106417014Y-78021185D01*
X106417012Y-78021184D01*
X106225916Y-77919042D01*
X106058419Y-77781581D01*
X105920958Y-77614084D01*
X105818816Y-77422988D01*
X105755916Y-77215638D01*
X105734678Y-77000000D01*
X105755916Y-76784362D01*
X105818816Y-76577012D01*
X105920958Y-76385916D01*
X106058419Y-76218419D01*
X106225916Y-76080958D01*
X106417012Y-75978816D01*
X106417014Y-75978815D01*
X106624361Y-75915916D01*
X106785962Y-75900000D01*
X106894038Y-75900000D01*
X107055639Y-75915916D01*
X107055639Y-75915916D01*
G37*
G36*
X159341274Y-73874962D02*
X159554204Y-73963160D01*
X159745833Y-74091203D01*
X159908797Y-74254167D01*
X160036840Y-74445796D01*
X160125038Y-74658726D01*
X160170000Y-74884764D01*
X160170000Y-75115236D01*
X160125038Y-75341274D01*
X160036840Y-75554204D01*
X159908797Y-75745833D01*
X159745833Y-75908797D01*
X159554204Y-76036840D01*
X159341274Y-76125038D01*
X159115236Y-76170000D01*
X158884764Y-76170000D01*
X158658726Y-76125038D01*
X158445796Y-76036840D01*
X158254167Y-75908797D01*
X158091203Y-75745833D01*
X157963160Y-75554204D01*
X157874962Y-75341274D01*
X157830000Y-75115236D01*
X157830000Y-74884764D01*
X157874962Y-74658726D01*
X157963160Y-74445796D01*
X158091203Y-74254167D01*
X158254167Y-74091203D01*
X158445796Y-73963160D01*
X158658726Y-73874962D01*
X158884764Y-73830000D01*
X159115236Y-73830000D01*
X159341274Y-73874962D01*
X159341274Y-73874962D01*
G37*
G36*
X115339370Y-71627772D02*
X115455289Y-71650829D01*
X115637278Y-71726211D01*
X115801063Y-71835649D01*
X115940351Y-71974937D01*
X116049789Y-72138722D01*
X116125171Y-72320711D01*
X116163600Y-72513909D01*
X116163600Y-72710891D01*
X116125171Y-72904089D01*
X116049789Y-73086078D01*
X115940351Y-73249863D01*
X115801063Y-73389151D01*
X115637278Y-73498589D01*
X115455289Y-73573971D01*
X115339370Y-73597028D01*
X115262093Y-73612400D01*
X115065107Y-73612400D01*
X114987830Y-73597028D01*
X114871911Y-73573971D01*
X114689922Y-73498589D01*
X114526137Y-73389151D01*
X114386849Y-73249863D01*
X114277411Y-73086078D01*
X114202029Y-72904089D01*
X114163600Y-72710891D01*
X114163600Y-72513909D01*
X114202029Y-72320711D01*
X114277411Y-72138722D01*
X114386849Y-71974937D01*
X114526137Y-71835649D01*
X114689922Y-71726211D01*
X114871911Y-71650829D01*
X114987830Y-71627772D01*
X115065107Y-71612400D01*
X115262093Y-71612400D01*
X115339370Y-71627772D01*
X115339370Y-71627772D01*
G37*
G36*
X121935081Y-70568422D02*
X121975227Y-70572376D01*
X122050627Y-70595248D01*
X122126029Y-70618121D01*
X122265008Y-70692408D01*
X122386822Y-70792378D01*
X122486792Y-70914192D01*
X122561079Y-71053171D01*
X122606824Y-71203974D01*
X122622270Y-71360800D01*
X122606824Y-71517626D01*
X122561079Y-71668429D01*
X122486792Y-71807408D01*
X122386822Y-71929222D01*
X122265008Y-72029192D01*
X122126029Y-72103479D01*
X122050628Y-72126351D01*
X121975227Y-72149224D01*
X121936049Y-72153083D01*
X121857695Y-72160800D01*
X121779105Y-72160800D01*
X121700751Y-72153083D01*
X121661573Y-72149224D01*
X121586172Y-72126351D01*
X121510771Y-72103479D01*
X121371792Y-72029192D01*
X121249978Y-71929222D01*
X121150008Y-71807408D01*
X121075721Y-71668429D01*
X121029976Y-71517626D01*
X121014530Y-71360800D01*
X121029976Y-71203974D01*
X121075721Y-71053171D01*
X121150008Y-70914192D01*
X121249978Y-70792378D01*
X121371792Y-70692408D01*
X121510771Y-70618121D01*
X121586173Y-70595248D01*
X121661573Y-70572376D01*
X121701719Y-70568422D01*
X121779105Y-70560800D01*
X121857695Y-70560800D01*
X121935081Y-70568422D01*
X121935081Y-70568422D01*
G37*
G36*
X124475081Y-70568422D02*
X124515227Y-70572376D01*
X124590627Y-70595248D01*
X124666029Y-70618121D01*
X124805008Y-70692408D01*
X124926822Y-70792378D01*
X125026792Y-70914192D01*
X125101079Y-71053171D01*
X125146824Y-71203974D01*
X125162270Y-71360800D01*
X125146824Y-71517626D01*
X125101079Y-71668429D01*
X125026792Y-71807408D01*
X124926822Y-71929222D01*
X124805008Y-72029192D01*
X124666029Y-72103479D01*
X124590628Y-72126351D01*
X124515227Y-72149224D01*
X124476049Y-72153083D01*
X124397695Y-72160800D01*
X124319105Y-72160800D01*
X124240751Y-72153083D01*
X124201573Y-72149224D01*
X124126172Y-72126351D01*
X124050771Y-72103479D01*
X123911792Y-72029192D01*
X123789978Y-71929222D01*
X123690008Y-71807408D01*
X123615721Y-71668429D01*
X123569976Y-71517626D01*
X123554530Y-71360800D01*
X123569976Y-71203974D01*
X123615721Y-71053171D01*
X123690008Y-70914192D01*
X123789978Y-70792378D01*
X123911792Y-70692408D01*
X124050771Y-70618121D01*
X124126173Y-70595248D01*
X124201573Y-70572376D01*
X124241719Y-70568422D01*
X124319105Y-70560800D01*
X124397695Y-70560800D01*
X124475081Y-70568422D01*
X124475081Y-70568422D01*
G37*
G36*
X127015081Y-70568422D02*
X127055227Y-70572376D01*
X127130627Y-70595248D01*
X127206029Y-70618121D01*
X127345008Y-70692408D01*
X127466822Y-70792378D01*
X127566792Y-70914192D01*
X127641079Y-71053171D01*
X127686824Y-71203974D01*
X127702270Y-71360800D01*
X127686824Y-71517626D01*
X127641079Y-71668429D01*
X127566792Y-71807408D01*
X127466822Y-71929222D01*
X127345008Y-72029192D01*
X127206029Y-72103479D01*
X127130628Y-72126351D01*
X127055227Y-72149224D01*
X127016049Y-72153083D01*
X126937695Y-72160800D01*
X126859105Y-72160800D01*
X126780751Y-72153083D01*
X126741573Y-72149224D01*
X126666172Y-72126351D01*
X126590771Y-72103479D01*
X126451792Y-72029192D01*
X126329978Y-71929222D01*
X126230008Y-71807408D01*
X126155721Y-71668429D01*
X126109976Y-71517626D01*
X126094530Y-71360800D01*
X126109976Y-71203974D01*
X126155721Y-71053171D01*
X126230008Y-70914192D01*
X126329978Y-70792378D01*
X126451792Y-70692408D01*
X126590771Y-70618121D01*
X126666173Y-70595248D01*
X126741573Y-70572376D01*
X126781719Y-70568422D01*
X126859105Y-70560800D01*
X126937695Y-70560800D01*
X127015081Y-70568422D01*
X127015081Y-70568422D01*
G37*
G36*
X130238400Y-72160800D02*
X128638400Y-72160800D01*
X128638400Y-70560800D01*
X130238400Y-70560800D01*
X130238400Y-72160800D01*
X130238400Y-72160800D01*
G37*
G36*
X154341274Y-68874962D02*
X154554204Y-68963160D01*
X154745833Y-69091203D01*
X154908797Y-69254167D01*
X155036840Y-69445796D01*
X155125038Y-69658726D01*
X155170000Y-69884764D01*
X155170000Y-70115236D01*
X155125038Y-70341274D01*
X155036840Y-70554204D01*
X154908797Y-70745833D01*
X154745833Y-70908797D01*
X154554204Y-71036840D01*
X154341274Y-71125038D01*
X154115236Y-71170000D01*
X153884764Y-71170000D01*
X153658726Y-71125038D01*
X153445796Y-71036840D01*
X153254167Y-70908797D01*
X153091203Y-70745833D01*
X152963160Y-70554204D01*
X152874962Y-70341274D01*
X152830000Y-70115236D01*
X152830000Y-69884764D01*
X152874962Y-69658726D01*
X152963160Y-69445796D01*
X153091203Y-69254167D01*
X153254167Y-69091203D01*
X153445796Y-68963160D01*
X153658726Y-68874962D01*
X153884764Y-68830000D01*
X154115236Y-68830000D01*
X154341274Y-68874962D01*
X154341274Y-68874962D01*
G37*
G36*
X94184070Y-69024324D02*
X94184073Y-69024325D01*
X94184074Y-69024325D01*
X94370690Y-69080934D01*
X94542676Y-69172862D01*
X94693423Y-69296577D01*
X94817138Y-69447324D01*
X94909066Y-69619310D01*
X94958288Y-69781574D01*
X94965676Y-69805930D01*
X94984790Y-70000000D01*
X94965676Y-70194070D01*
X94965675Y-70194073D01*
X94965675Y-70194074D01*
X94909066Y-70380690D01*
X94817138Y-70552676D01*
X94693423Y-70703423D01*
X94542676Y-70827138D01*
X94370690Y-70919066D01*
X94184074Y-70975675D01*
X94184073Y-70975675D01*
X94184070Y-70975676D01*
X94038636Y-70990000D01*
X91961364Y-70990000D01*
X91815930Y-70975676D01*
X91815927Y-70975675D01*
X91815926Y-70975675D01*
X91629310Y-70919066D01*
X91457324Y-70827138D01*
X91306577Y-70703423D01*
X91182862Y-70552676D01*
X91090934Y-70380690D01*
X91034325Y-70194074D01*
X91034325Y-70194073D01*
X91034324Y-70194070D01*
X91015210Y-70000000D01*
X91034324Y-69805930D01*
X91041712Y-69781574D01*
X91090934Y-69619310D01*
X91182862Y-69447324D01*
X91306577Y-69296577D01*
X91457324Y-69172862D01*
X91629310Y-69080934D01*
X91815926Y-69024325D01*
X91815927Y-69024325D01*
X91815930Y-69024324D01*
X91961364Y-69010000D01*
X94038636Y-69010000D01*
X94184070Y-69024324D01*
X94184070Y-69024324D01*
G37*
G36*
X146483352Y-69230743D02*
X146628941Y-69291048D01*
X146759973Y-69378601D01*
X146871399Y-69490027D01*
X146958952Y-69621059D01*
X147019257Y-69766648D01*
X147050000Y-69921205D01*
X147050000Y-70078795D01*
X147019257Y-70233352D01*
X146958952Y-70378941D01*
X146871399Y-70509973D01*
X146759973Y-70621399D01*
X146628941Y-70708952D01*
X146483352Y-70769257D01*
X146328795Y-70800000D01*
X146171205Y-70800000D01*
X146016648Y-70769257D01*
X145871059Y-70708952D01*
X145740027Y-70621399D01*
X145628601Y-70509973D01*
X145541048Y-70378941D01*
X145480743Y-70233352D01*
X145450000Y-70078795D01*
X145450000Y-69921205D01*
X145480743Y-69766648D01*
X145541048Y-69621059D01*
X145628601Y-69490027D01*
X145740027Y-69378601D01*
X145871059Y-69291048D01*
X146016648Y-69230743D01*
X146171205Y-69200000D01*
X146328795Y-69200000D01*
X146483352Y-69230743D01*
X146483352Y-69230743D01*
G37*
G36*
X142617649Y-69207717D02*
X142656827Y-69211576D01*
X142720012Y-69230743D01*
X142807629Y-69257321D01*
X142946608Y-69331608D01*
X143068422Y-69431578D01*
X143168392Y-69553392D01*
X143242679Y-69692371D01*
X143288424Y-69843174D01*
X143303870Y-70000000D01*
X143288424Y-70156826D01*
X143242679Y-70307629D01*
X143168392Y-70446608D01*
X143068422Y-70568422D01*
X142946608Y-70668392D01*
X142807629Y-70742679D01*
X142732228Y-70765551D01*
X142656827Y-70788424D01*
X142617649Y-70792283D01*
X142539295Y-70800000D01*
X142460705Y-70800000D01*
X142382351Y-70792283D01*
X142343173Y-70788424D01*
X142267772Y-70765551D01*
X142192371Y-70742679D01*
X142053392Y-70668392D01*
X141931578Y-70568422D01*
X141831608Y-70446608D01*
X141757321Y-70307629D01*
X141711576Y-70156826D01*
X141696130Y-70000000D01*
X141711576Y-69843174D01*
X141757321Y-69692371D01*
X141831608Y-69553392D01*
X141931578Y-69431578D01*
X142053392Y-69331608D01*
X142192371Y-69257321D01*
X142279988Y-69230743D01*
X142343173Y-69211576D01*
X142382351Y-69207717D01*
X142460705Y-69200000D01*
X142539295Y-69200000D01*
X142617649Y-69207717D01*
X142617649Y-69207717D01*
G37*
G36*
X150233352Y-69230743D02*
X150378941Y-69291048D01*
X150509973Y-69378601D01*
X150621399Y-69490027D01*
X150708952Y-69621059D01*
X150769257Y-69766648D01*
X150800000Y-69921205D01*
X150800000Y-70078795D01*
X150769257Y-70233352D01*
X150708952Y-70378941D01*
X150621399Y-70509973D01*
X150509973Y-70621399D01*
X150378941Y-70708952D01*
X150233352Y-70769257D01*
X150078795Y-70800000D01*
X149921205Y-70800000D01*
X149766648Y-70769257D01*
X149621059Y-70708952D01*
X149490027Y-70621399D01*
X149378601Y-70509973D01*
X149291048Y-70378941D01*
X149230743Y-70233352D01*
X149200000Y-70078795D01*
X149200000Y-69921205D01*
X149230743Y-69766648D01*
X149291048Y-69621059D01*
X149378601Y-69490027D01*
X149490027Y-69378601D01*
X149621059Y-69291048D01*
X149766648Y-69230743D01*
X149921205Y-69200000D01*
X150078795Y-69200000D01*
X150233352Y-69230743D01*
X150233352Y-69230743D01*
G37*
G36*
X134077249Y-69207717D02*
X134116427Y-69211576D01*
X134179612Y-69230743D01*
X134267229Y-69257321D01*
X134406208Y-69331608D01*
X134528022Y-69431578D01*
X134627992Y-69553392D01*
X134702279Y-69692371D01*
X134748024Y-69843174D01*
X134763470Y-70000000D01*
X134748024Y-70156826D01*
X134702279Y-70307629D01*
X134627992Y-70446608D01*
X134528022Y-70568422D01*
X134406208Y-70668392D01*
X134267229Y-70742679D01*
X134191828Y-70765551D01*
X134116427Y-70788424D01*
X134077249Y-70792283D01*
X133998895Y-70800000D01*
X133920305Y-70800000D01*
X133841951Y-70792283D01*
X133802773Y-70788424D01*
X133727372Y-70765551D01*
X133651971Y-70742679D01*
X133512992Y-70668392D01*
X133391178Y-70568422D01*
X133291208Y-70446608D01*
X133216921Y-70307629D01*
X133171176Y-70156826D01*
X133155730Y-70000000D01*
X133171176Y-69843174D01*
X133216921Y-69692371D01*
X133291208Y-69553392D01*
X133391178Y-69431578D01*
X133512992Y-69331608D01*
X133651971Y-69257321D01*
X133739588Y-69230743D01*
X133802773Y-69211576D01*
X133841951Y-69207717D01*
X133920305Y-69200000D01*
X133998895Y-69200000D01*
X134077249Y-69207717D01*
X134077249Y-69207717D01*
G37*
G36*
X138617649Y-69146117D02*
X138656827Y-69149976D01*
X138732228Y-69172849D01*
X138807629Y-69195721D01*
X138946608Y-69270008D01*
X139068422Y-69369978D01*
X139168392Y-69491792D01*
X139242679Y-69630771D01*
X139242679Y-69630772D01*
X139288424Y-69781573D01*
X139303870Y-69938400D01*
X139288424Y-70095227D01*
X139282354Y-70115236D01*
X139242679Y-70246029D01*
X139168392Y-70385008D01*
X139068422Y-70506822D01*
X138946608Y-70606792D01*
X138807629Y-70681079D01*
X138733970Y-70703423D01*
X138656827Y-70726824D01*
X138617649Y-70730683D01*
X138539295Y-70738400D01*
X138460705Y-70738400D01*
X138382351Y-70730683D01*
X138343173Y-70726824D01*
X138266030Y-70703423D01*
X138192371Y-70681079D01*
X138053392Y-70606792D01*
X137931578Y-70506822D01*
X137831608Y-70385008D01*
X137757321Y-70246029D01*
X137717646Y-70115236D01*
X137711576Y-70095227D01*
X137696130Y-69938400D01*
X137711576Y-69781573D01*
X137757321Y-69630772D01*
X137757321Y-69630771D01*
X137831608Y-69491792D01*
X137931578Y-69369978D01*
X138053392Y-69270008D01*
X138192371Y-69195721D01*
X138267773Y-69172848D01*
X138343173Y-69149976D01*
X138382351Y-69146117D01*
X138460705Y-69138400D01*
X138539295Y-69138400D01*
X138617649Y-69146117D01*
X138617649Y-69146117D01*
G37*
G36*
X106733352Y-67480743D02*
X106878941Y-67541048D01*
X107009973Y-67628601D01*
X107121399Y-67740027D01*
X107208952Y-67871059D01*
X107269257Y-68016648D01*
X107300000Y-68171205D01*
X107300000Y-68328795D01*
X107269257Y-68483352D01*
X107208952Y-68628941D01*
X107121399Y-68759973D01*
X107009973Y-68871399D01*
X106878941Y-68958952D01*
X106733352Y-69019257D01*
X106578795Y-69050000D01*
X106421205Y-69050000D01*
X106266648Y-69019257D01*
X106121059Y-68958952D01*
X105990027Y-68871399D01*
X105878601Y-68759973D01*
X105791048Y-68628941D01*
X105730743Y-68483352D01*
X105700000Y-68328795D01*
X105700000Y-68171205D01*
X105730743Y-68016648D01*
X105791048Y-67871059D01*
X105878601Y-67740027D01*
X105990027Y-67628601D01*
X106121059Y-67541048D01*
X106266648Y-67480743D01*
X106421205Y-67450000D01*
X106578795Y-67450000D01*
X106733352Y-67480743D01*
X106733352Y-67480743D01*
G37*
G36*
X125514000Y-68096800D02*
X123914000Y-68096800D01*
X123914000Y-66496800D01*
X125514000Y-66496800D01*
X125514000Y-68096800D01*
X125514000Y-68096800D01*
G37*
G36*
X115339370Y-64127772D02*
X115455289Y-64150829D01*
X115637278Y-64226211D01*
X115801063Y-64335649D01*
X115940351Y-64474937D01*
X116049789Y-64638722D01*
X116125171Y-64820711D01*
X116163600Y-65013909D01*
X116163600Y-65210891D01*
X116125171Y-65404089D01*
X116049789Y-65586078D01*
X115940351Y-65749863D01*
X115801063Y-65889151D01*
X115637278Y-65998589D01*
X115455289Y-66073971D01*
X115339370Y-66097028D01*
X115262093Y-66112400D01*
X115065107Y-66112400D01*
X114987830Y-66097028D01*
X114871911Y-66073971D01*
X114689922Y-65998589D01*
X114526137Y-65889151D01*
X114386849Y-65749863D01*
X114277411Y-65586078D01*
X114202029Y-65404089D01*
X114163600Y-65210891D01*
X114163600Y-65013909D01*
X114202029Y-64820711D01*
X114277411Y-64638722D01*
X114386849Y-64474937D01*
X114526137Y-64335649D01*
X114689922Y-64226211D01*
X114871911Y-64150829D01*
X114987830Y-64127772D01*
X115065107Y-64112400D01*
X115262093Y-64112400D01*
X115339370Y-64127772D01*
X115339370Y-64127772D01*
G37*
G36*
X94980000Y-65990000D02*
X91020000Y-65990000D01*
X91020000Y-64010000D01*
X94980000Y-64010000D01*
X94980000Y-65990000D01*
X94980000Y-65990000D01*
G37*
G36*
X124947352Y-64027543D02*
X125092941Y-64087848D01*
X125223973Y-64175401D01*
X125335399Y-64286827D01*
X125422952Y-64417859D01*
X125483257Y-64563448D01*
X125514000Y-64718005D01*
X125514000Y-64875595D01*
X125483257Y-65030152D01*
X125422952Y-65175741D01*
X125335399Y-65306773D01*
X125223973Y-65418199D01*
X125092941Y-65505752D01*
X124947352Y-65566057D01*
X124792795Y-65596800D01*
X124635205Y-65596800D01*
X124480648Y-65566057D01*
X124335059Y-65505752D01*
X124204027Y-65418199D01*
X124092601Y-65306773D01*
X124005048Y-65175741D01*
X123944743Y-65030152D01*
X123914000Y-64875595D01*
X123914000Y-64718005D01*
X123944743Y-64563448D01*
X124005048Y-64417859D01*
X124092601Y-64286827D01*
X124204027Y-64175401D01*
X124335059Y-64087848D01*
X124480648Y-64027543D01*
X124635205Y-63996800D01*
X124792795Y-63996800D01*
X124947352Y-64027543D01*
X124947352Y-64027543D01*
G37*
G36*
X107300000Y-64050000D02*
X105700000Y-64050000D01*
X105700000Y-62450000D01*
X107300000Y-62450000D01*
X107300000Y-64050000D01*
X107300000Y-64050000D01*
G37*
G36*
X145980000Y-63990000D02*
X142020000Y-63990000D01*
X142020000Y-62010000D01*
X145980000Y-62010000D01*
X145980000Y-63990000D01*
X145980000Y-63990000D01*
G37*
G36*
X156266703Y-56461486D02*
X156557883Y-56582097D01*
X156819944Y-56757201D01*
X157042799Y-56980056D01*
X157217903Y-57242117D01*
X157338514Y-57533297D01*
X157400000Y-57842412D01*
X157400000Y-58157588D01*
X157338514Y-58466703D01*
X157217903Y-58757883D01*
X157042799Y-59019944D01*
X156819944Y-59242799D01*
X156557883Y-59417903D01*
X156266703Y-59538514D01*
X155957588Y-59600000D01*
X155642412Y-59600000D01*
X155333297Y-59538514D01*
X155042117Y-59417903D01*
X154780056Y-59242799D01*
X154557201Y-59019944D01*
X154382097Y-58757883D01*
X154261486Y-58466703D01*
X154200000Y-58157588D01*
X154200000Y-57842412D01*
X154261486Y-57533297D01*
X154382097Y-57242117D01*
X154557201Y-56980056D01*
X154780056Y-56757201D01*
X155042117Y-56582097D01*
X155333297Y-56461486D01*
X155642412Y-56400000D01*
X155957588Y-56400000D01*
X156266703Y-56461486D01*
X156266703Y-56461486D01*
G37*
G36*
X91466703Y-56461486D02*
X91757883Y-56582097D01*
X92019944Y-56757201D01*
X92242799Y-56980056D01*
X92417903Y-57242117D01*
X92538514Y-57533297D01*
X92600000Y-57842412D01*
X92600000Y-58157588D01*
X92538514Y-58466703D01*
X92417903Y-58757883D01*
X92242799Y-59019944D01*
X92019944Y-59242799D01*
X91757883Y-59417903D01*
X91466703Y-59538514D01*
X91157588Y-59600000D01*
X90842412Y-59600000D01*
X90533297Y-59538514D01*
X90242117Y-59417903D01*
X89980056Y-59242799D01*
X89757201Y-59019944D01*
X89582097Y-58757883D01*
X89461486Y-58466703D01*
X89400000Y-58157588D01*
X89400000Y-57842412D01*
X89461486Y-57533297D01*
X89582097Y-57242117D01*
X89757201Y-56980056D01*
X89980056Y-56757201D01*
X90242117Y-56582097D01*
X90533297Y-56461486D01*
X90842412Y-56400000D01*
X91157588Y-56400000D01*
X91466703Y-56461486D01*
X91466703Y-56461486D01*
G37*
G36*
X145184070Y-57024324D02*
X145184073Y-57024325D01*
X145184074Y-57024325D01*
X145370690Y-57080934D01*
X145542676Y-57172862D01*
X145693423Y-57296577D01*
X145817138Y-57447324D01*
X145863091Y-57533297D01*
X145909065Y-57619308D01*
X145965676Y-57805930D01*
X145984790Y-58000000D01*
X145965676Y-58194070D01*
X145965675Y-58194073D01*
X145965675Y-58194074D01*
X145909066Y-58380690D01*
X145817138Y-58552676D01*
X145693423Y-58703423D01*
X145542676Y-58827138D01*
X145370690Y-58919066D01*
X145184074Y-58975675D01*
X145184073Y-58975675D01*
X145184070Y-58975676D01*
X145038636Y-58990000D01*
X142961364Y-58990000D01*
X142815930Y-58975676D01*
X142815927Y-58975675D01*
X142815926Y-58975675D01*
X142629310Y-58919066D01*
X142457324Y-58827138D01*
X142306577Y-58703423D01*
X142182862Y-58552676D01*
X142090934Y-58380690D01*
X142034325Y-58194074D01*
X142034325Y-58194073D01*
X142034324Y-58194070D01*
X142015210Y-58000000D01*
X142034324Y-57805930D01*
X142090935Y-57619308D01*
X142136909Y-57533297D01*
X142182862Y-57447324D01*
X142306577Y-57296577D01*
X142457324Y-57172862D01*
X142629310Y-57080934D01*
X142815926Y-57024325D01*
X142815927Y-57024325D01*
X142815930Y-57024324D01*
X142961364Y-57010000D01*
X145038636Y-57010000D01*
X145184070Y-57024324D01*
X145184070Y-57024324D01*
G37*
M02*
