G04 #@! TF.GenerationSoftware,KiCad,Pcbnew,5.0.2-bee76a0~70~ubuntu18.04.1*
G04 #@! TF.CreationDate,2019-03-10T17:41:35+00:00*
G04 #@! TF.ProjectId,Lcr_addon,4c63725f-6164-4646-9f6e-2e6b69636164,rev?*
G04 #@! TF.SameCoordinates,Original*
G04 #@! TF.FileFunction,Other,ECO2*
%FSLAX46Y46*%
G04 Gerber Fmt 4.6, Leading zero omitted, Abs format (unit mm)*
G04 Created by KiCad (PCBNEW 5.0.2-bee76a0~70~ubuntu18.04.1) date Sun 10 Mar 2019 17:41:35 GMT*
%MOMM*%
%LPD*%
G01*
G04 APERTURE LIST*
%ADD10C,0.300000*%
G04 APERTURE END LIST*
D10*
X71184285Y-40258571D02*
X72184285Y-40258571D01*
X71541428Y-41758571D01*
X72970000Y-40901428D02*
X72827142Y-40830000D01*
X72755714Y-40758571D01*
X72684285Y-40615714D01*
X72684285Y-40544285D01*
X72755714Y-40401428D01*
X72827142Y-40330000D01*
X72970000Y-40258571D01*
X73255714Y-40258571D01*
X73398571Y-40330000D01*
X73470000Y-40401428D01*
X73541428Y-40544285D01*
X73541428Y-40615714D01*
X73470000Y-40758571D01*
X73398571Y-40830000D01*
X73255714Y-40901428D01*
X72970000Y-40901428D01*
X72827142Y-40972857D01*
X72755714Y-41044285D01*
X72684285Y-41187142D01*
X72684285Y-41472857D01*
X72755714Y-41615714D01*
X72827142Y-41687142D01*
X72970000Y-41758571D01*
X73255714Y-41758571D01*
X73398571Y-41687142D01*
X73470000Y-41615714D01*
X73541428Y-41472857D01*
X73541428Y-41187142D01*
X73470000Y-41044285D01*
X73398571Y-40972857D01*
X73255714Y-40901428D01*
X74184285Y-41615714D02*
X74255714Y-41687142D01*
X74184285Y-41758571D01*
X74112857Y-41687142D01*
X74184285Y-41615714D01*
X74184285Y-41758571D01*
X74755714Y-40258571D02*
X75755714Y-40258571D01*
X75112857Y-41758571D01*
X76970000Y-40758571D02*
X76970000Y-41758571D01*
X76612857Y-40187142D02*
X76255714Y-41258571D01*
X77184285Y-41258571D01*
X78041428Y-40258571D02*
X78184285Y-40258571D01*
X78327142Y-40330000D01*
X78398571Y-40401428D01*
X78470000Y-40544285D01*
X78541428Y-40830000D01*
X78541428Y-41187142D01*
X78470000Y-41472857D01*
X78398571Y-41615714D01*
X78327142Y-41687142D01*
X78184285Y-41758571D01*
X78041428Y-41758571D01*
X77898571Y-41687142D01*
X77827142Y-41615714D01*
X77755714Y-41472857D01*
X77684285Y-41187142D01*
X77684285Y-40830000D01*
X77755714Y-40544285D01*
X77827142Y-40401428D01*
X77898571Y-40330000D01*
X78041428Y-40258571D01*
X80327142Y-41758571D02*
X80327142Y-40758571D01*
X80327142Y-40901428D02*
X80398571Y-40830000D01*
X80541428Y-40758571D01*
X80755714Y-40758571D01*
X80898571Y-40830000D01*
X80970000Y-40972857D01*
X80970000Y-41758571D01*
X80970000Y-40972857D02*
X81041428Y-40830000D01*
X81184285Y-40758571D01*
X81398571Y-40758571D01*
X81541428Y-40830000D01*
X81612857Y-40972857D01*
X81612857Y-41758571D01*
X82327142Y-41758571D02*
X82327142Y-40758571D01*
X82327142Y-40901428D02*
X82398571Y-40830000D01*
X82541428Y-40758571D01*
X82755714Y-40758571D01*
X82898571Y-40830000D01*
X82970000Y-40972857D01*
X82970000Y-41758571D01*
X82970000Y-40972857D02*
X83041428Y-40830000D01*
X83184285Y-40758571D01*
X83398571Y-40758571D01*
X83541428Y-40830000D01*
X83612857Y-40972857D01*
X83612857Y-41758571D01*
X38100000Y-43180000D02*
X116840000Y-43180000D01*
X38100000Y-50800000D02*
X38100000Y-42593579D01*
X116840000Y-50800000D02*
X116840000Y-42593579D01*
X116840000Y-43180000D02*
X115713496Y-43766421D01*
X116840000Y-43180000D02*
X115713496Y-42593579D01*
X38100000Y-43180000D02*
X39226504Y-43766421D01*
X38100000Y-43180000D02*
X39226504Y-42593579D01*
X74024146Y-135415712D02*
X73881080Y-135344702D01*
X73809442Y-135273483D01*
X73737595Y-135130836D01*
X73737386Y-135059408D01*
X73808395Y-134916342D01*
X73879614Y-134844704D01*
X74022261Y-134772857D01*
X74307974Y-134772019D01*
X74451040Y-134843029D01*
X74522677Y-134914247D01*
X74594525Y-135056895D01*
X74594734Y-135128323D01*
X74523725Y-135271389D01*
X74452506Y-135343027D01*
X74309859Y-135414874D01*
X74024146Y-135415712D01*
X73881499Y-135487559D01*
X73810280Y-135559197D01*
X73739271Y-135702263D01*
X73740109Y-135987976D01*
X73811956Y-136130623D01*
X73883594Y-136201841D01*
X74026660Y-136272851D01*
X74312373Y-136272013D01*
X74455020Y-136200166D01*
X74526238Y-136128528D01*
X74597248Y-135985462D01*
X74596410Y-135699749D01*
X74524563Y-135557102D01*
X74452925Y-135485883D01*
X74309859Y-135414874D01*
X75879396Y-134767411D02*
X75593683Y-134768249D01*
X75451035Y-134840096D01*
X75379817Y-134911734D01*
X75237589Y-135126438D01*
X75166998Y-135412360D01*
X75168674Y-135983786D01*
X75240521Y-136126433D01*
X75312159Y-136197652D01*
X75455225Y-136268661D01*
X75740938Y-136267824D01*
X75883585Y-136195976D01*
X75954804Y-136124339D01*
X76025813Y-135981273D01*
X76024766Y-135624131D01*
X75952918Y-135481484D01*
X75881281Y-135410265D01*
X75738215Y-135339256D01*
X75452502Y-135340094D01*
X75309855Y-135411941D01*
X75238636Y-135483579D01*
X75167627Y-135626645D01*
X76669086Y-136122244D02*
X76740724Y-136193463D01*
X76669505Y-136265100D01*
X76597868Y-136193882D01*
X76669086Y-136122244D01*
X76669505Y-136265100D01*
X78022243Y-134761127D02*
X77736530Y-134761965D01*
X77593883Y-134833812D01*
X77522665Y-134905450D01*
X77380436Y-135120154D01*
X77309846Y-135406076D01*
X77311522Y-135977502D01*
X77383369Y-136120149D01*
X77455007Y-136191368D01*
X77598073Y-136262377D01*
X77883786Y-136261540D01*
X78026433Y-136189692D01*
X78097652Y-136118055D01*
X78168661Y-135974989D01*
X78167614Y-135617847D01*
X78095766Y-135475200D01*
X78024129Y-135403981D01*
X77881063Y-135332972D01*
X77595350Y-135333810D01*
X77452703Y-135405657D01*
X77381484Y-135477295D01*
X77310474Y-135620361D01*
X79598064Y-136256512D02*
X78740925Y-136259026D01*
X79169495Y-136257769D02*
X79165096Y-134757776D01*
X79022868Y-134972479D01*
X78880430Y-135115755D01*
X78737783Y-135187602D01*
X80880840Y-135252746D02*
X80883773Y-136252742D01*
X80522023Y-134682367D02*
X80168024Y-135754839D01*
X81096591Y-135752116D01*
X82812336Y-136247086D02*
X82809403Y-135247091D01*
X82809822Y-135389947D02*
X82881041Y-135318309D01*
X83023688Y-135246462D01*
X83237973Y-135245834D01*
X83381039Y-135316843D01*
X83452886Y-135459490D01*
X83455190Y-136245201D01*
X83452886Y-135459490D02*
X83523896Y-135316424D01*
X83666543Y-135244577D01*
X83880827Y-135243949D01*
X84023893Y-135314958D01*
X84095741Y-135457605D01*
X84098045Y-136243316D01*
X84812327Y-136241221D02*
X84809395Y-135241226D01*
X84809814Y-135384082D02*
X84881033Y-135312444D01*
X85023680Y-135240597D01*
X85237964Y-135239969D01*
X85381030Y-135310978D01*
X85452878Y-135453625D01*
X85455182Y-136239336D01*
X85452878Y-135453625D02*
X85523887Y-135310559D01*
X85666534Y-135238712D01*
X85880819Y-135238084D01*
X86023885Y-135309093D01*
X86095732Y-135451740D01*
X86098036Y-136237451D01*
X36640058Y-133603906D02*
X123254058Y-133349906D01*
X36576000Y-111760000D02*
X36641778Y-134190324D01*
X123190000Y-111506000D02*
X123255778Y-133936324D01*
X123254058Y-133349906D02*
X122129279Y-133939628D01*
X123254058Y-133349906D02*
X122125839Y-132766791D01*
X36640058Y-133603906D02*
X37768277Y-134187021D01*
X36640058Y-133603906D02*
X37764837Y-133014184D01*
X21581428Y-76161000D02*
X21581428Y-75875285D01*
X21510000Y-75732428D01*
X21438571Y-75661000D01*
X21224285Y-75518142D01*
X20938571Y-75446714D01*
X20367142Y-75446714D01*
X20224285Y-75518142D01*
X20152857Y-75589571D01*
X20081428Y-75732428D01*
X20081428Y-76018142D01*
X20152857Y-76161000D01*
X20224285Y-76232428D01*
X20367142Y-76303857D01*
X20724285Y-76303857D01*
X20867142Y-76232428D01*
X20938571Y-76161000D01*
X21010000Y-76018142D01*
X21010000Y-75732428D01*
X20938571Y-75589571D01*
X20867142Y-75518142D01*
X20724285Y-75446714D01*
X21581428Y-77232428D02*
X21581428Y-77375285D01*
X21510000Y-77518142D01*
X21438571Y-77589571D01*
X21295714Y-77661000D01*
X21010000Y-77732428D01*
X20652857Y-77732428D01*
X20367142Y-77661000D01*
X20224285Y-77589571D01*
X20152857Y-77518142D01*
X20081428Y-77375285D01*
X20081428Y-77232428D01*
X20152857Y-77089571D01*
X20224285Y-77018142D01*
X20367142Y-76946714D01*
X20652857Y-76875285D01*
X21010000Y-76875285D01*
X21295714Y-76946714D01*
X21438571Y-77018142D01*
X21510000Y-77089571D01*
X21581428Y-77232428D01*
X20224285Y-78375285D02*
X20152857Y-78446714D01*
X20081428Y-78375285D01*
X20152857Y-78303857D01*
X20224285Y-78375285D01*
X20081428Y-78375285D01*
X20081428Y-79875285D02*
X20081428Y-79018142D01*
X20081428Y-79446714D02*
X21581428Y-79446714D01*
X21367142Y-79303857D01*
X21224285Y-79161000D01*
X21152857Y-79018142D01*
X20081428Y-80589571D02*
X20081428Y-80875285D01*
X20152857Y-81018142D01*
X20224285Y-81089571D01*
X20438571Y-81232428D01*
X20724285Y-81303857D01*
X21295714Y-81303857D01*
X21438571Y-81232428D01*
X21510000Y-81161000D01*
X21581428Y-81018142D01*
X21581428Y-80732428D01*
X21510000Y-80589571D01*
X21438571Y-80518142D01*
X21295714Y-80446714D01*
X20938571Y-80446714D01*
X20795714Y-80518142D01*
X20724285Y-80589571D01*
X20652857Y-80732428D01*
X20652857Y-81018142D01*
X20724285Y-81161000D01*
X20795714Y-81232428D01*
X20938571Y-81303857D01*
X20938571Y-82161000D02*
X21010000Y-82018142D01*
X21081428Y-81946714D01*
X21224285Y-81875285D01*
X21295714Y-81875285D01*
X21438571Y-81946714D01*
X21510000Y-82018142D01*
X21581428Y-82161000D01*
X21581428Y-82446714D01*
X21510000Y-82589571D01*
X21438571Y-82661000D01*
X21295714Y-82732428D01*
X21224285Y-82732428D01*
X21081428Y-82661000D01*
X21010000Y-82589571D01*
X20938571Y-82446714D01*
X20938571Y-82161000D01*
X20867142Y-82018142D01*
X20795714Y-81946714D01*
X20652857Y-81875285D01*
X20367142Y-81875285D01*
X20224285Y-81946714D01*
X20152857Y-82018142D01*
X20081428Y-82161000D01*
X20081428Y-82446714D01*
X20152857Y-82589571D01*
X20224285Y-82661000D01*
X20367142Y-82732428D01*
X20652857Y-82732428D01*
X20795714Y-82661000D01*
X20867142Y-82589571D01*
X20938571Y-82446714D01*
X20081428Y-84518142D02*
X21081428Y-84518142D01*
X20938571Y-84518142D02*
X21010000Y-84589571D01*
X21081428Y-84732428D01*
X21081428Y-84946714D01*
X21010000Y-85089571D01*
X20867142Y-85161000D01*
X20081428Y-85161000D01*
X20867142Y-85161000D02*
X21010000Y-85232428D01*
X21081428Y-85375285D01*
X21081428Y-85589571D01*
X21010000Y-85732428D01*
X20867142Y-85803857D01*
X20081428Y-85803857D01*
X20081428Y-86518142D02*
X21081428Y-86518142D01*
X20938571Y-86518142D02*
X21010000Y-86589571D01*
X21081428Y-86732428D01*
X21081428Y-86946714D01*
X21010000Y-87089571D01*
X20867142Y-87161000D01*
X20081428Y-87161000D01*
X20867142Y-87161000D02*
X21010000Y-87232428D01*
X21081428Y-87375285D01*
X21081428Y-87589571D01*
X21010000Y-87732428D01*
X20867142Y-87803857D01*
X20081428Y-87803857D01*
X22860000Y-51562000D02*
X22860000Y-111760000D01*
X36576000Y-51562000D02*
X22273579Y-51562000D01*
X36576000Y-111760000D02*
X22273579Y-111760000D01*
X22860000Y-111760000D02*
X22273579Y-110633496D01*
X22860000Y-111760000D02*
X23446421Y-110633496D01*
X22860000Y-51562000D02*
X22273579Y-52688504D01*
X22860000Y-51562000D02*
X23446421Y-52688504D01*
M02*
