G04 #@! TF.GenerationSoftware,KiCad,Pcbnew,5.0.2-bee76a0~70~ubuntu18.04.1*
G04 #@! TF.CreationDate,2019-02-20T20:23:57+00:00*
G04 #@! TF.ProjectId,lm2596_cc_vc,6c6d3235-3936-45f6-9363-5f76632e6b69,rev?*
G04 #@! TF.SameCoordinates,Original*
G04 #@! TF.FileFunction,Soldermask,Bot*
G04 #@! TF.FilePolarity,Negative*
%FSLAX46Y46*%
G04 Gerber Fmt 4.6, Leading zero omitted, Abs format (unit mm)*
G04 Created by KiCad (PCBNEW 5.0.2-bee76a0~70~ubuntu18.04.1) date Wed 20 Feb 2019 20:23:57 GMT*
%MOMM*%
%LPD*%
G01*
G04 APERTURE LIST*
%ADD10C,0.100000*%
G04 APERTURE END LIST*
D10*
G36*
X82645828Y-141320103D02*
X82800700Y-141384253D01*
X82940081Y-141477385D01*
X83058615Y-141595919D01*
X83151747Y-141735300D01*
X83215897Y-141890172D01*
X83248600Y-142054584D01*
X83248600Y-142222216D01*
X83215897Y-142386628D01*
X83151747Y-142541500D01*
X83058615Y-142680881D01*
X82940081Y-142799415D01*
X82800700Y-142892547D01*
X82645828Y-142956697D01*
X82481416Y-142989400D01*
X82313784Y-142989400D01*
X82149372Y-142956697D01*
X81994500Y-142892547D01*
X81855119Y-142799415D01*
X81736585Y-142680881D01*
X81643453Y-142541500D01*
X81579303Y-142386628D01*
X81546600Y-142222216D01*
X81546600Y-142054584D01*
X81579303Y-141890172D01*
X81643453Y-141735300D01*
X81736585Y-141595919D01*
X81855119Y-141477385D01*
X81994500Y-141384253D01*
X82149372Y-141320103D01*
X82313784Y-141287400D01*
X82481416Y-141287400D01*
X82645828Y-141320103D01*
X82645828Y-141320103D01*
G37*
G36*
X74944421Y-141299713D02*
X74944424Y-141299714D01*
X74944425Y-141299714D01*
X75104839Y-141348375D01*
X75104841Y-141348376D01*
X75104844Y-141348377D01*
X75252678Y-141427395D01*
X75382259Y-141533741D01*
X75488605Y-141663322D01*
X75567623Y-141811156D01*
X75567624Y-141811159D01*
X75567625Y-141811161D01*
X75595236Y-141902184D01*
X75616287Y-141971579D01*
X75632717Y-142138400D01*
X75616287Y-142305221D01*
X75616286Y-142305224D01*
X75616286Y-142305225D01*
X75569009Y-142461078D01*
X75567623Y-142465644D01*
X75488605Y-142613478D01*
X75382259Y-142743059D01*
X75252678Y-142849405D01*
X75104844Y-142928423D01*
X75104841Y-142928424D01*
X75104839Y-142928425D01*
X74944425Y-142977086D01*
X74944424Y-142977086D01*
X74944421Y-142977087D01*
X74819404Y-142989400D01*
X74735796Y-142989400D01*
X74610779Y-142977087D01*
X74610776Y-142977086D01*
X74610775Y-142977086D01*
X74450361Y-142928425D01*
X74450359Y-142928424D01*
X74450356Y-142928423D01*
X74302522Y-142849405D01*
X74172941Y-142743059D01*
X74066595Y-142613478D01*
X73987577Y-142465644D01*
X73986192Y-142461078D01*
X73938914Y-142305225D01*
X73938914Y-142305224D01*
X73938913Y-142305221D01*
X73922483Y-142138400D01*
X73938913Y-141971579D01*
X73959964Y-141902184D01*
X73987575Y-141811161D01*
X73987576Y-141811159D01*
X73987577Y-141811156D01*
X74066595Y-141663322D01*
X74172941Y-141533741D01*
X74302522Y-141427395D01*
X74450356Y-141348377D01*
X74450359Y-141348376D01*
X74450361Y-141348375D01*
X74610775Y-141299714D01*
X74610776Y-141299714D01*
X74610779Y-141299713D01*
X74735796Y-141287400D01*
X74819404Y-141287400D01*
X74944421Y-141299713D01*
X74944421Y-141299713D01*
G37*
G36*
X86272821Y-141147313D02*
X86272824Y-141147314D01*
X86272825Y-141147314D01*
X86433239Y-141195975D01*
X86433241Y-141195976D01*
X86433244Y-141195977D01*
X86581078Y-141274995D01*
X86710659Y-141381341D01*
X86817005Y-141510922D01*
X86896023Y-141658756D01*
X86896024Y-141658759D01*
X86896025Y-141658761D01*
X86943258Y-141814469D01*
X86944687Y-141819179D01*
X86961117Y-141986000D01*
X86944687Y-142152821D01*
X86944686Y-142152824D01*
X86944686Y-142152825D01*
X86914476Y-142252415D01*
X86896023Y-142313244D01*
X86817005Y-142461078D01*
X86710659Y-142590659D01*
X86581078Y-142697005D01*
X86433244Y-142776023D01*
X86433241Y-142776024D01*
X86433239Y-142776025D01*
X86272825Y-142824686D01*
X86272824Y-142824686D01*
X86272821Y-142824687D01*
X86147804Y-142837000D01*
X86064196Y-142837000D01*
X85939179Y-142824687D01*
X85939176Y-142824686D01*
X85939175Y-142824686D01*
X85778761Y-142776025D01*
X85778759Y-142776024D01*
X85778756Y-142776023D01*
X85630922Y-142697005D01*
X85501341Y-142590659D01*
X85394995Y-142461078D01*
X85315977Y-142313244D01*
X85297525Y-142252415D01*
X85267314Y-142152825D01*
X85267314Y-142152824D01*
X85267313Y-142152821D01*
X85250883Y-141986000D01*
X85267313Y-141819179D01*
X85268742Y-141814469D01*
X85315975Y-141658761D01*
X85315976Y-141658759D01*
X85315977Y-141658756D01*
X85394995Y-141510922D01*
X85501341Y-141381341D01*
X85630922Y-141274995D01*
X85778756Y-141195977D01*
X85778759Y-141195976D01*
X85778761Y-141195975D01*
X85939175Y-141147314D01*
X85939176Y-141147314D01*
X85939179Y-141147313D01*
X86064196Y-141135000D01*
X86147804Y-141135000D01*
X86272821Y-141147313D01*
X86272821Y-141147313D01*
G37*
G36*
X93974228Y-141167703D02*
X94129100Y-141231853D01*
X94268481Y-141324985D01*
X94387015Y-141443519D01*
X94480147Y-141582900D01*
X94544297Y-141737772D01*
X94577000Y-141902184D01*
X94577000Y-142069816D01*
X94544297Y-142234228D01*
X94480147Y-142389100D01*
X94387015Y-142528481D01*
X94268481Y-142647015D01*
X94129100Y-142740147D01*
X93974228Y-142804297D01*
X93809816Y-142837000D01*
X93642184Y-142837000D01*
X93477772Y-142804297D01*
X93322900Y-142740147D01*
X93183519Y-142647015D01*
X93064985Y-142528481D01*
X92971853Y-142389100D01*
X92907703Y-142234228D01*
X92875000Y-142069816D01*
X92875000Y-141902184D01*
X92907703Y-141737772D01*
X92971853Y-141582900D01*
X93064985Y-141443519D01*
X93183519Y-141324985D01*
X93322900Y-141231853D01*
X93477772Y-141167703D01*
X93642184Y-141135000D01*
X93809816Y-141135000D01*
X93974228Y-141167703D01*
X93974228Y-141167703D01*
G37*
G36*
X112135256Y-139361298D02*
X112241579Y-139382447D01*
X112442579Y-139465704D01*
X112530923Y-139502297D01*
X112542042Y-139506903D01*
X112715772Y-139622986D01*
X112812454Y-139687587D01*
X113042413Y-139917546D01*
X113042415Y-139917549D01*
X113223097Y-140187958D01*
X113321047Y-140424429D01*
X113347553Y-140488422D01*
X113411000Y-140807389D01*
X113411000Y-141132611D01*
X113380210Y-141287400D01*
X113347553Y-141451579D01*
X113223097Y-141752042D01*
X113178240Y-141819175D01*
X113042413Y-142022454D01*
X112812454Y-142252413D01*
X112812451Y-142252415D01*
X112542042Y-142433097D01*
X112241579Y-142557553D01*
X112135256Y-142578702D01*
X111922611Y-142621000D01*
X111597389Y-142621000D01*
X111384744Y-142578702D01*
X111278421Y-142557553D01*
X110977958Y-142433097D01*
X110707549Y-142252415D01*
X110707546Y-142252413D01*
X110477587Y-142022454D01*
X110341760Y-141819175D01*
X110296903Y-141752042D01*
X110172447Y-141451579D01*
X110139790Y-141287400D01*
X110109000Y-141132611D01*
X110109000Y-140807389D01*
X110172447Y-140488422D01*
X110198954Y-140424429D01*
X110296903Y-140187958D01*
X110477585Y-139917549D01*
X110477587Y-139917546D01*
X110707546Y-139687587D01*
X110804228Y-139622986D01*
X110977958Y-139506903D01*
X110989078Y-139502297D01*
X111077421Y-139465704D01*
X111278421Y-139382447D01*
X111384744Y-139361298D01*
X111597389Y-139319000D01*
X111922611Y-139319000D01*
X112135256Y-139361298D01*
X112135256Y-139361298D01*
G37*
G36*
X49905256Y-139361298D02*
X50011579Y-139382447D01*
X50212579Y-139465704D01*
X50300923Y-139502297D01*
X50312042Y-139506903D01*
X50485772Y-139622986D01*
X50582454Y-139687587D01*
X50812413Y-139917546D01*
X50812415Y-139917549D01*
X50993097Y-140187958D01*
X51091047Y-140424429D01*
X51117553Y-140488422D01*
X51181000Y-140807389D01*
X51181000Y-141132611D01*
X51150210Y-141287400D01*
X51117553Y-141451579D01*
X50993097Y-141752042D01*
X50948240Y-141819175D01*
X50812413Y-142022454D01*
X50582454Y-142252413D01*
X50582451Y-142252415D01*
X50312042Y-142433097D01*
X50011579Y-142557553D01*
X49905256Y-142578702D01*
X49692611Y-142621000D01*
X49367389Y-142621000D01*
X49154744Y-142578702D01*
X49048421Y-142557553D01*
X48747958Y-142433097D01*
X48477549Y-142252415D01*
X48477546Y-142252413D01*
X48247587Y-142022454D01*
X48111760Y-141819175D01*
X48066903Y-141752042D01*
X47942447Y-141451579D01*
X47909790Y-141287400D01*
X47879000Y-141132611D01*
X47879000Y-140807389D01*
X47942447Y-140488422D01*
X47968954Y-140424429D01*
X48066903Y-140187958D01*
X48247585Y-139917549D01*
X48247587Y-139917546D01*
X48477546Y-139687587D01*
X48574228Y-139622986D01*
X48747958Y-139506903D01*
X48759078Y-139502297D01*
X48847421Y-139465704D01*
X49048421Y-139382447D01*
X49154744Y-139361298D01*
X49367389Y-139319000D01*
X49692611Y-139319000D01*
X49905256Y-139361298D01*
X49905256Y-139361298D01*
G37*
G36*
X100704135Y-139778019D02*
X100885403Y-139814075D01*
X101113071Y-139908378D01*
X101303729Y-140035772D01*
X101317969Y-140045287D01*
X101492213Y-140219531D01*
X101492215Y-140219534D01*
X101629122Y-140424429D01*
X101723425Y-140652097D01*
X101771500Y-140893787D01*
X101771500Y-141140213D01*
X101723425Y-141381903D01*
X101629122Y-141609571D01*
X101494427Y-141811156D01*
X101492213Y-141814469D01*
X101317969Y-141988713D01*
X101317966Y-141988715D01*
X101113071Y-142125622D01*
X100885403Y-142219925D01*
X100722074Y-142252413D01*
X100643714Y-142268000D01*
X100397286Y-142268000D01*
X100318926Y-142252413D01*
X100155597Y-142219925D01*
X99927929Y-142125622D01*
X99723034Y-141988715D01*
X99723031Y-141988713D01*
X99548787Y-141814469D01*
X99546573Y-141811156D01*
X99411878Y-141609571D01*
X99317575Y-141381903D01*
X99269500Y-141140213D01*
X99269500Y-140893787D01*
X99317575Y-140652097D01*
X99411878Y-140424429D01*
X99548785Y-140219534D01*
X99548787Y-140219531D01*
X99723031Y-140045287D01*
X99737271Y-140035772D01*
X99927929Y-139908378D01*
X100155597Y-139814075D01*
X100336865Y-139778019D01*
X100397286Y-139766000D01*
X100643714Y-139766000D01*
X100704135Y-139778019D01*
X100704135Y-139778019D01*
G37*
G36*
X63200228Y-137865703D02*
X63355100Y-137929853D01*
X63494481Y-138022985D01*
X63613015Y-138141519D01*
X63706147Y-138280900D01*
X63770297Y-138435772D01*
X63803000Y-138600184D01*
X63803000Y-138767816D01*
X63770297Y-138932228D01*
X63706147Y-139087100D01*
X63613015Y-139226481D01*
X63607619Y-139234556D01*
X63604337Y-139238554D01*
X63592786Y-139260165D01*
X63585673Y-139283614D01*
X63583271Y-139308000D01*
X63585673Y-139332386D01*
X63592786Y-139355835D01*
X63604337Y-139377446D01*
X63619883Y-139396388D01*
X63638825Y-139411934D01*
X63660436Y-139423485D01*
X63683885Y-139430598D01*
X63705265Y-139432704D01*
X63706753Y-139433000D01*
X63871165Y-139465703D01*
X64026037Y-139529853D01*
X64165418Y-139622985D01*
X64283952Y-139741519D01*
X64377084Y-139880900D01*
X64441234Y-140035772D01*
X64473937Y-140200184D01*
X64473937Y-140367816D01*
X64441234Y-140532228D01*
X64377084Y-140687100D01*
X64283952Y-140826481D01*
X64165418Y-140945015D01*
X64026037Y-141038147D01*
X63871165Y-141102297D01*
X63706753Y-141135000D01*
X63539121Y-141135000D01*
X63374709Y-141102297D01*
X63219837Y-141038147D01*
X63080456Y-140945015D01*
X62961922Y-140826481D01*
X62868790Y-140687100D01*
X62804640Y-140532228D01*
X62771937Y-140367816D01*
X62771937Y-140200184D01*
X62804640Y-140035772D01*
X62868790Y-139880900D01*
X62961922Y-139741519D01*
X62961923Y-139741518D01*
X62967318Y-139733444D01*
X62970600Y-139729446D01*
X62982151Y-139707835D01*
X62989264Y-139684386D01*
X62991666Y-139660000D01*
X62989264Y-139635614D01*
X62982151Y-139612165D01*
X62970600Y-139590554D01*
X62955054Y-139571612D01*
X62936112Y-139556066D01*
X62914501Y-139544515D01*
X62891052Y-139537402D01*
X62869672Y-139535296D01*
X62868184Y-139535000D01*
X62703772Y-139502297D01*
X62548900Y-139438147D01*
X62409519Y-139345015D01*
X62290985Y-139226481D01*
X62197853Y-139087100D01*
X62133703Y-138932228D01*
X62101000Y-138767816D01*
X62101000Y-138600184D01*
X62133703Y-138435772D01*
X62197853Y-138280900D01*
X62290985Y-138141519D01*
X62409519Y-138022985D01*
X62548900Y-137929853D01*
X62703772Y-137865703D01*
X62868184Y-137833000D01*
X63035816Y-137833000D01*
X63200228Y-137865703D01*
X63200228Y-137865703D01*
G37*
G36*
X60632063Y-137708000D02*
X60634465Y-137732386D01*
X60641578Y-137755835D01*
X60653129Y-137777446D01*
X60668675Y-137796388D01*
X60687617Y-137811934D01*
X60709228Y-137823485D01*
X60732677Y-137830598D01*
X60757063Y-137833000D01*
X61303000Y-137833000D01*
X61303000Y-139535000D01*
X59601000Y-139535000D01*
X59601000Y-138060000D01*
X59598598Y-138035614D01*
X59591485Y-138012165D01*
X59579934Y-137990554D01*
X59564388Y-137971612D01*
X59545446Y-137956066D01*
X59523835Y-137944515D01*
X59500386Y-137937402D01*
X59476000Y-137935000D01*
X58930063Y-137935000D01*
X58930063Y-136233000D01*
X60632063Y-136233000D01*
X60632063Y-137708000D01*
X60632063Y-137708000D01*
G37*
G36*
X86354228Y-137103703D02*
X86509100Y-137167853D01*
X86648481Y-137260985D01*
X86767015Y-137379519D01*
X86860147Y-137518900D01*
X86924297Y-137673772D01*
X86957000Y-137838184D01*
X86957000Y-138005816D01*
X86924297Y-138170228D01*
X86860147Y-138325100D01*
X86767015Y-138464481D01*
X86648481Y-138583015D01*
X86509100Y-138676147D01*
X86354228Y-138740297D01*
X86189816Y-138773000D01*
X86022184Y-138773000D01*
X85857772Y-138740297D01*
X85702900Y-138676147D01*
X85563519Y-138583015D01*
X85444985Y-138464481D01*
X85351853Y-138325100D01*
X85287703Y-138170228D01*
X85255000Y-138005816D01*
X85255000Y-137838184D01*
X85287703Y-137673772D01*
X85351853Y-137518900D01*
X85444985Y-137379519D01*
X85563519Y-137260985D01*
X85702900Y-137167853D01*
X85857772Y-137103703D01*
X86022184Y-137071000D01*
X86189816Y-137071000D01*
X86354228Y-137103703D01*
X86354228Y-137103703D01*
G37*
G36*
X93892821Y-137083313D02*
X93892824Y-137083314D01*
X93892825Y-137083314D01*
X94053239Y-137131975D01*
X94053241Y-137131976D01*
X94053244Y-137131977D01*
X94201078Y-137210995D01*
X94330659Y-137317341D01*
X94437005Y-137446922D01*
X94516023Y-137594756D01*
X94516024Y-137594759D01*
X94516025Y-137594761D01*
X94564686Y-137755175D01*
X94564687Y-137755179D01*
X94581117Y-137922000D01*
X94564687Y-138088821D01*
X94564686Y-138088824D01*
X94564686Y-138088825D01*
X94522646Y-138227414D01*
X94516023Y-138249244D01*
X94437005Y-138397078D01*
X94330659Y-138526659D01*
X94201078Y-138633005D01*
X94053244Y-138712023D01*
X94053241Y-138712024D01*
X94053239Y-138712025D01*
X93892825Y-138760686D01*
X93892824Y-138760686D01*
X93892821Y-138760687D01*
X93767804Y-138773000D01*
X93684196Y-138773000D01*
X93559179Y-138760687D01*
X93559176Y-138760686D01*
X93559175Y-138760686D01*
X93398761Y-138712025D01*
X93398759Y-138712024D01*
X93398756Y-138712023D01*
X93250922Y-138633005D01*
X93121341Y-138526659D01*
X93014995Y-138397078D01*
X92935977Y-138249244D01*
X92929355Y-138227414D01*
X92887314Y-138088825D01*
X92887314Y-138088824D01*
X92887313Y-138088821D01*
X92870883Y-137922000D01*
X92887313Y-137755179D01*
X92887314Y-137755175D01*
X92935975Y-137594761D01*
X92935976Y-137594759D01*
X92935977Y-137594756D01*
X93014995Y-137446922D01*
X93121341Y-137317341D01*
X93250922Y-137210995D01*
X93398756Y-137131977D01*
X93398759Y-137131976D01*
X93398761Y-137131975D01*
X93559175Y-137083314D01*
X93559176Y-137083314D01*
X93559179Y-137083313D01*
X93684196Y-137071000D01*
X93767804Y-137071000D01*
X93892821Y-137083313D01*
X93892821Y-137083313D01*
G37*
G36*
X74975028Y-136748103D02*
X75129900Y-136812253D01*
X75269281Y-136905385D01*
X75387815Y-137023919D01*
X75480947Y-137163300D01*
X75545097Y-137318172D01*
X75577800Y-137482584D01*
X75577800Y-137650216D01*
X75545097Y-137814628D01*
X75480947Y-137969500D01*
X75387815Y-138108881D01*
X75269281Y-138227415D01*
X75129900Y-138320547D01*
X74975028Y-138384697D01*
X74810616Y-138417400D01*
X74642984Y-138417400D01*
X74478572Y-138384697D01*
X74323700Y-138320547D01*
X74184319Y-138227415D01*
X74065785Y-138108881D01*
X73972653Y-137969500D01*
X73908503Y-137814628D01*
X73875800Y-137650216D01*
X73875800Y-137482584D01*
X73908503Y-137318172D01*
X73972653Y-137163300D01*
X74065785Y-137023919D01*
X74184319Y-136905385D01*
X74323700Y-136812253D01*
X74478572Y-136748103D01*
X74642984Y-136715400D01*
X74810616Y-136715400D01*
X74975028Y-136748103D01*
X74975028Y-136748103D01*
G37*
G36*
X82513621Y-136727713D02*
X82513624Y-136727714D01*
X82513625Y-136727714D01*
X82674039Y-136776375D01*
X82674041Y-136776376D01*
X82674044Y-136776377D01*
X82821878Y-136855395D01*
X82951459Y-136961741D01*
X83057805Y-137091322D01*
X83136823Y-137239156D01*
X83136824Y-137239159D01*
X83136825Y-137239161D01*
X83179402Y-137379519D01*
X83185487Y-137399579D01*
X83201917Y-137566400D01*
X83185487Y-137733221D01*
X83185486Y-137733224D01*
X83185486Y-137733225D01*
X83155220Y-137833000D01*
X83136823Y-137893644D01*
X83057805Y-138041478D01*
X82951459Y-138171059D01*
X82821878Y-138277405D01*
X82674044Y-138356423D01*
X82674041Y-138356424D01*
X82674039Y-138356425D01*
X82513625Y-138405086D01*
X82513624Y-138405086D01*
X82513621Y-138405087D01*
X82388604Y-138417400D01*
X82304996Y-138417400D01*
X82179979Y-138405087D01*
X82179976Y-138405086D01*
X82179975Y-138405086D01*
X82019561Y-138356425D01*
X82019559Y-138356424D01*
X82019556Y-138356423D01*
X81871722Y-138277405D01*
X81742141Y-138171059D01*
X81635795Y-138041478D01*
X81556777Y-137893644D01*
X81538381Y-137833000D01*
X81508114Y-137733225D01*
X81508114Y-137733224D01*
X81508113Y-137733221D01*
X81491683Y-137566400D01*
X81508113Y-137399579D01*
X81514198Y-137379519D01*
X81556775Y-137239161D01*
X81556776Y-137239159D01*
X81556777Y-137239156D01*
X81635795Y-137091322D01*
X81742141Y-136961741D01*
X81871722Y-136855395D01*
X82019556Y-136776377D01*
X82019559Y-136776376D01*
X82019561Y-136776375D01*
X82179975Y-136727714D01*
X82179976Y-136727714D01*
X82179979Y-136727713D01*
X82304996Y-136715400D01*
X82388604Y-136715400D01*
X82513621Y-136727713D01*
X82513621Y-136727713D01*
G37*
G36*
X100704135Y-134778019D02*
X100885403Y-134814075D01*
X101113071Y-134908378D01*
X101317042Y-135044668D01*
X101317969Y-135045287D01*
X101492213Y-135219531D01*
X101492215Y-135219534D01*
X101629122Y-135424429D01*
X101723425Y-135652097D01*
X101771500Y-135893787D01*
X101771500Y-136140213D01*
X101723425Y-136381903D01*
X101629122Y-136609571D01*
X101536557Y-136748104D01*
X101492213Y-136814469D01*
X101317969Y-136988713D01*
X101317966Y-136988715D01*
X101113071Y-137125622D01*
X100885403Y-137219925D01*
X100704136Y-137255981D01*
X100643714Y-137268000D01*
X100397286Y-137268000D01*
X100336864Y-137255981D01*
X100155597Y-137219925D01*
X99927929Y-137125622D01*
X99723034Y-136988715D01*
X99723031Y-136988713D01*
X99548787Y-136814469D01*
X99504443Y-136748104D01*
X99411878Y-136609571D01*
X99317575Y-136381903D01*
X99269500Y-136140213D01*
X99269500Y-135893787D01*
X99317575Y-135652097D01*
X99411878Y-135424429D01*
X99548785Y-135219534D01*
X99548787Y-135219531D01*
X99723031Y-135045287D01*
X99723958Y-135044668D01*
X99927929Y-134908378D01*
X100155597Y-134814075D01*
X100336865Y-134778019D01*
X100397286Y-134766000D01*
X100643714Y-134766000D01*
X100704135Y-134778019D01*
X100704135Y-134778019D01*
G37*
G36*
X91606821Y-131190513D02*
X91606824Y-131190514D01*
X91606825Y-131190514D01*
X91767239Y-131239175D01*
X91767241Y-131239176D01*
X91767244Y-131239177D01*
X91915078Y-131318195D01*
X92044659Y-131424541D01*
X92151005Y-131554122D01*
X92230023Y-131701956D01*
X92230024Y-131701959D01*
X92230025Y-131701961D01*
X92278686Y-131862375D01*
X92278687Y-131862379D01*
X92295117Y-132029200D01*
X92278687Y-132196021D01*
X92278686Y-132196024D01*
X92278686Y-132196025D01*
X92262694Y-132248745D01*
X92230023Y-132356444D01*
X92151005Y-132504278D01*
X92044659Y-132633859D01*
X91915078Y-132740205D01*
X91767244Y-132819223D01*
X91767241Y-132819224D01*
X91767239Y-132819225D01*
X91606825Y-132867886D01*
X91606824Y-132867886D01*
X91606821Y-132867887D01*
X91481804Y-132880200D01*
X91398196Y-132880200D01*
X91273179Y-132867887D01*
X91273176Y-132867886D01*
X91273175Y-132867886D01*
X91112761Y-132819225D01*
X91112759Y-132819224D01*
X91112756Y-132819223D01*
X90964922Y-132740205D01*
X90835341Y-132633859D01*
X90728995Y-132504278D01*
X90649977Y-132356444D01*
X90617307Y-132248745D01*
X90601314Y-132196025D01*
X90601314Y-132196024D01*
X90601313Y-132196021D01*
X90584883Y-132029200D01*
X90601313Y-131862379D01*
X90601314Y-131862375D01*
X90649975Y-131701961D01*
X90649976Y-131701959D01*
X90649977Y-131701956D01*
X90728995Y-131554122D01*
X90835341Y-131424541D01*
X90964922Y-131318195D01*
X91112756Y-131239177D01*
X91112759Y-131239176D01*
X91112761Y-131239175D01*
X91273175Y-131190514D01*
X91273176Y-131190514D01*
X91273179Y-131190513D01*
X91398196Y-131178200D01*
X91481804Y-131178200D01*
X91606821Y-131190513D01*
X91606821Y-131190513D01*
G37*
G36*
X89066821Y-131190513D02*
X89066824Y-131190514D01*
X89066825Y-131190514D01*
X89227239Y-131239175D01*
X89227241Y-131239176D01*
X89227244Y-131239177D01*
X89375078Y-131318195D01*
X89504659Y-131424541D01*
X89611005Y-131554122D01*
X89690023Y-131701956D01*
X89690024Y-131701959D01*
X89690025Y-131701961D01*
X89738686Y-131862375D01*
X89738687Y-131862379D01*
X89755117Y-132029200D01*
X89738687Y-132196021D01*
X89738686Y-132196024D01*
X89738686Y-132196025D01*
X89722694Y-132248745D01*
X89690023Y-132356444D01*
X89611005Y-132504278D01*
X89504659Y-132633859D01*
X89375078Y-132740205D01*
X89227244Y-132819223D01*
X89227241Y-132819224D01*
X89227239Y-132819225D01*
X89066825Y-132867886D01*
X89066824Y-132867886D01*
X89066821Y-132867887D01*
X88941804Y-132880200D01*
X88858196Y-132880200D01*
X88733179Y-132867887D01*
X88733176Y-132867886D01*
X88733175Y-132867886D01*
X88572761Y-132819225D01*
X88572759Y-132819224D01*
X88572756Y-132819223D01*
X88424922Y-132740205D01*
X88295341Y-132633859D01*
X88188995Y-132504278D01*
X88109977Y-132356444D01*
X88077307Y-132248745D01*
X88061314Y-132196025D01*
X88061314Y-132196024D01*
X88061313Y-132196021D01*
X88044883Y-132029200D01*
X88061313Y-131862379D01*
X88061314Y-131862375D01*
X88109975Y-131701961D01*
X88109976Y-131701959D01*
X88109977Y-131701956D01*
X88188995Y-131554122D01*
X88295341Y-131424541D01*
X88424922Y-131318195D01*
X88572756Y-131239177D01*
X88572759Y-131239176D01*
X88572761Y-131239175D01*
X88733175Y-131190514D01*
X88733176Y-131190514D01*
X88733179Y-131190513D01*
X88858196Y-131178200D01*
X88941804Y-131178200D01*
X89066821Y-131190513D01*
X89066821Y-131190513D01*
G37*
G36*
X86526821Y-131190513D02*
X86526824Y-131190514D01*
X86526825Y-131190514D01*
X86687239Y-131239175D01*
X86687241Y-131239176D01*
X86687244Y-131239177D01*
X86835078Y-131318195D01*
X86964659Y-131424541D01*
X87071005Y-131554122D01*
X87150023Y-131701956D01*
X87150024Y-131701959D01*
X87150025Y-131701961D01*
X87198686Y-131862375D01*
X87198687Y-131862379D01*
X87215117Y-132029200D01*
X87198687Y-132196021D01*
X87198686Y-132196024D01*
X87198686Y-132196025D01*
X87182694Y-132248745D01*
X87150023Y-132356444D01*
X87071005Y-132504278D01*
X86964659Y-132633859D01*
X86835078Y-132740205D01*
X86687244Y-132819223D01*
X86687241Y-132819224D01*
X86687239Y-132819225D01*
X86526825Y-132867886D01*
X86526824Y-132867886D01*
X86526821Y-132867887D01*
X86401804Y-132880200D01*
X86318196Y-132880200D01*
X86193179Y-132867887D01*
X86193176Y-132867886D01*
X86193175Y-132867886D01*
X86032761Y-132819225D01*
X86032759Y-132819224D01*
X86032756Y-132819223D01*
X85884922Y-132740205D01*
X85755341Y-132633859D01*
X85648995Y-132504278D01*
X85569977Y-132356444D01*
X85537307Y-132248745D01*
X85521314Y-132196025D01*
X85521314Y-132196024D01*
X85521313Y-132196021D01*
X85504883Y-132029200D01*
X85521313Y-131862379D01*
X85521314Y-131862375D01*
X85569975Y-131701961D01*
X85569976Y-131701959D01*
X85569977Y-131701956D01*
X85648995Y-131554122D01*
X85755341Y-131424541D01*
X85884922Y-131318195D01*
X86032756Y-131239177D01*
X86032759Y-131239176D01*
X86032761Y-131239175D01*
X86193175Y-131190514D01*
X86193176Y-131190514D01*
X86193179Y-131190513D01*
X86318196Y-131178200D01*
X86401804Y-131178200D01*
X86526821Y-131190513D01*
X86526821Y-131190513D01*
G37*
G36*
X84671000Y-132880200D02*
X82969000Y-132880200D01*
X82969000Y-131178200D01*
X84671000Y-131178200D01*
X84671000Y-132880200D01*
X84671000Y-132880200D01*
G37*
G36*
X112827353Y-130296322D02*
X112919394Y-130334447D01*
X113049559Y-130388363D01*
X113249545Y-130521989D01*
X113419611Y-130692055D01*
X113553237Y-130892041D01*
X113584459Y-130967418D01*
X113645278Y-131114247D01*
X113658175Y-131179084D01*
X113692200Y-131350141D01*
X113692200Y-131590659D01*
X113645278Y-131826552D01*
X113553237Y-132048759D01*
X113419611Y-132248745D01*
X113249545Y-132418811D01*
X113049559Y-132552437D01*
X112919394Y-132606353D01*
X112827353Y-132644478D01*
X112709405Y-132667939D01*
X112591459Y-132691400D01*
X112350941Y-132691400D01*
X112232995Y-132667939D01*
X112115047Y-132644478D01*
X112023006Y-132606353D01*
X111892841Y-132552437D01*
X111692855Y-132418811D01*
X111522789Y-132248745D01*
X111389163Y-132048759D01*
X111297122Y-131826552D01*
X111250200Y-131590659D01*
X111250200Y-131350141D01*
X111284225Y-131179084D01*
X111297122Y-131114247D01*
X111357941Y-130967418D01*
X111389163Y-130892041D01*
X111522789Y-130692055D01*
X111692855Y-130521989D01*
X111892841Y-130388363D01*
X112023006Y-130334447D01*
X112115047Y-130296322D01*
X112350941Y-130249400D01*
X112591459Y-130249400D01*
X112827353Y-130296322D01*
X112827353Y-130296322D01*
G37*
G36*
X71622228Y-128935703D02*
X71777100Y-128999853D01*
X71916481Y-129092985D01*
X72035015Y-129211519D01*
X72128147Y-129350900D01*
X72192297Y-129505772D01*
X72225000Y-129670184D01*
X72225000Y-129837816D01*
X72192297Y-130002228D01*
X72128147Y-130157100D01*
X72035015Y-130296481D01*
X71916481Y-130415015D01*
X71777100Y-130508147D01*
X71622228Y-130572297D01*
X71457816Y-130605000D01*
X71290184Y-130605000D01*
X71125772Y-130572297D01*
X70970900Y-130508147D01*
X70831519Y-130415015D01*
X70831518Y-130415014D01*
X70823444Y-130409619D01*
X70819446Y-130406337D01*
X70797835Y-130394786D01*
X70774386Y-130387673D01*
X70750000Y-130385271D01*
X70725614Y-130387673D01*
X70702165Y-130394786D01*
X70680554Y-130406337D01*
X70661612Y-130421883D01*
X70646066Y-130440825D01*
X70634515Y-130462436D01*
X70627402Y-130485885D01*
X70625296Y-130507265D01*
X70625000Y-130508753D01*
X70592297Y-130673165D01*
X70528147Y-130828037D01*
X70435015Y-130967418D01*
X70316481Y-131085952D01*
X70177100Y-131179084D01*
X70022228Y-131243234D01*
X69857816Y-131275937D01*
X69690184Y-131275937D01*
X69525772Y-131243234D01*
X69370900Y-131179084D01*
X69231519Y-131085952D01*
X69112985Y-130967418D01*
X69019853Y-130828037D01*
X68955703Y-130673165D01*
X68923000Y-130508753D01*
X68923000Y-130341121D01*
X68955703Y-130176709D01*
X69019853Y-130021837D01*
X69112985Y-129882456D01*
X69231519Y-129763922D01*
X69370900Y-129670790D01*
X69525772Y-129606640D01*
X69690184Y-129573937D01*
X69857816Y-129573937D01*
X70022228Y-129606640D01*
X70177100Y-129670790D01*
X70316481Y-129763922D01*
X70316482Y-129763923D01*
X70324556Y-129769318D01*
X70328554Y-129772600D01*
X70350165Y-129784151D01*
X70373614Y-129791264D01*
X70398000Y-129793666D01*
X70422386Y-129791264D01*
X70445835Y-129784151D01*
X70467446Y-129772600D01*
X70486388Y-129757054D01*
X70501934Y-129738112D01*
X70513485Y-129716501D01*
X70520598Y-129693052D01*
X70522704Y-129671672D01*
X70523466Y-129667839D01*
X70555703Y-129505772D01*
X70619853Y-129350900D01*
X70712985Y-129211519D01*
X70831519Y-129092985D01*
X70970900Y-128999853D01*
X71125772Y-128935703D01*
X71290184Y-128903000D01*
X71457816Y-128903000D01*
X71622228Y-128935703D01*
X71622228Y-128935703D01*
G37*
G36*
X54545000Y-131253000D02*
X52643000Y-131253000D01*
X52643000Y-129351000D01*
X54545000Y-129351000D01*
X54545000Y-131253000D01*
X54545000Y-131253000D01*
G37*
G36*
X50080425Y-127664760D02*
X50080428Y-127664761D01*
X50080429Y-127664761D01*
X50259693Y-127719140D01*
X50259695Y-127719141D01*
X50424905Y-127807448D01*
X50569712Y-127926288D01*
X50688552Y-128071095D01*
X50776859Y-128236305D01*
X50831240Y-128415575D01*
X50849601Y-128602000D01*
X50831240Y-128788425D01*
X50831239Y-128788428D01*
X50831239Y-128788429D01*
X50786564Y-128935704D01*
X50776859Y-128967695D01*
X50688552Y-129132905D01*
X50569712Y-129277712D01*
X50424905Y-129396552D01*
X50424903Y-129396553D01*
X50259693Y-129484860D01*
X50080429Y-129539239D01*
X50080428Y-129539239D01*
X50080425Y-129539240D01*
X49940718Y-129553000D01*
X49847282Y-129553000D01*
X49707575Y-129539240D01*
X49707572Y-129539239D01*
X49707571Y-129539239D01*
X49528307Y-129484860D01*
X49363097Y-129396553D01*
X49363095Y-129396552D01*
X49218288Y-129277712D01*
X49099448Y-129132905D01*
X49011141Y-128967695D01*
X49001437Y-128935704D01*
X48956761Y-128788429D01*
X48956761Y-128788428D01*
X48956760Y-128788425D01*
X48938399Y-128602000D01*
X48956760Y-128415575D01*
X49011141Y-128236305D01*
X49099448Y-128071095D01*
X49218288Y-127926288D01*
X49363095Y-127807448D01*
X49528305Y-127719141D01*
X49528307Y-127719140D01*
X49707571Y-127664761D01*
X49707572Y-127664761D01*
X49707575Y-127664760D01*
X49847282Y-127651000D01*
X49940718Y-127651000D01*
X50080425Y-127664760D01*
X50080425Y-127664760D01*
G37*
G36*
X100640636Y-125634019D02*
X100821903Y-125670075D01*
X101049571Y-125764378D01*
X101240630Y-125892040D01*
X101254469Y-125901287D01*
X101428713Y-126075531D01*
X101428715Y-126075534D01*
X101565622Y-126280429D01*
X101659925Y-126508097D01*
X101708000Y-126749787D01*
X101708000Y-126996213D01*
X101659925Y-127237903D01*
X101565622Y-127465571D01*
X101503152Y-127559063D01*
X101428713Y-127670469D01*
X101254469Y-127844713D01*
X101254466Y-127844715D01*
X101049571Y-127981622D01*
X100821903Y-128075925D01*
X100640636Y-128111981D01*
X100580214Y-128124000D01*
X100333786Y-128124000D01*
X100273364Y-128111981D01*
X100092097Y-128075925D01*
X99864429Y-127981622D01*
X99659534Y-127844715D01*
X99659531Y-127844713D01*
X99485287Y-127670469D01*
X99410848Y-127559063D01*
X99348378Y-127465571D01*
X99254075Y-127237903D01*
X99206000Y-126996213D01*
X99206000Y-126749787D01*
X99254075Y-126508097D01*
X99348378Y-126280429D01*
X99485285Y-126075534D01*
X99485287Y-126075531D01*
X99659531Y-125901287D01*
X99673370Y-125892040D01*
X99864429Y-125764378D01*
X100092097Y-125670075D01*
X100273364Y-125634019D01*
X100333786Y-125622000D01*
X100580214Y-125622000D01*
X100640636Y-125634019D01*
X100640636Y-125634019D01*
G37*
G36*
X73825000Y-127434063D02*
X72350000Y-127434063D01*
X72325614Y-127436465D01*
X72302165Y-127443578D01*
X72280554Y-127455129D01*
X72261612Y-127470675D01*
X72246066Y-127489617D01*
X72234515Y-127511228D01*
X72227402Y-127534677D01*
X72225000Y-127559063D01*
X72225000Y-128105000D01*
X70523000Y-128105000D01*
X70523000Y-126403000D01*
X71998000Y-126403000D01*
X72022386Y-126400598D01*
X72045835Y-126393485D01*
X72067446Y-126381934D01*
X72086388Y-126366388D01*
X72101934Y-126347446D01*
X72113485Y-126325835D01*
X72120598Y-126302386D01*
X72123000Y-126278000D01*
X72123000Y-125732063D01*
X73825000Y-125732063D01*
X73825000Y-127434063D01*
X73825000Y-127434063D01*
G37*
G36*
X53780425Y-125964760D02*
X53780428Y-125964761D01*
X53780429Y-125964761D01*
X53959693Y-126019140D01*
X53959695Y-126019141D01*
X54124905Y-126107448D01*
X54269712Y-126226288D01*
X54388552Y-126371095D01*
X54476859Y-126536305D01*
X54531240Y-126715575D01*
X54549601Y-126902000D01*
X54531240Y-127088425D01*
X54531239Y-127088428D01*
X54531239Y-127088429D01*
X54482608Y-127248745D01*
X54476859Y-127267695D01*
X54388552Y-127432905D01*
X54269712Y-127577712D01*
X54124905Y-127696552D01*
X54124903Y-127696553D01*
X53959693Y-127784860D01*
X53780429Y-127839239D01*
X53780428Y-127839239D01*
X53780425Y-127839240D01*
X53640718Y-127853000D01*
X53547282Y-127853000D01*
X53407575Y-127839240D01*
X53407572Y-127839239D01*
X53407571Y-127839239D01*
X53228307Y-127784860D01*
X53063097Y-127696553D01*
X53063095Y-127696552D01*
X52918288Y-127577712D01*
X52799448Y-127432905D01*
X52711141Y-127267695D01*
X52705393Y-127248745D01*
X52656761Y-127088429D01*
X52656761Y-127088428D01*
X52656760Y-127088425D01*
X52638399Y-126902000D01*
X52656760Y-126715575D01*
X52711141Y-126536305D01*
X52799448Y-126371095D01*
X52918288Y-126226288D01*
X53063095Y-126107448D01*
X53228305Y-126019141D01*
X53228307Y-126019140D01*
X53407571Y-125964761D01*
X53407572Y-125964761D01*
X53407575Y-125964760D01*
X53547282Y-125951000D01*
X53640718Y-125951000D01*
X53780425Y-125964760D01*
X53780425Y-125964760D01*
G37*
G36*
X107645754Y-125260200D02*
X107827353Y-125296322D01*
X107919394Y-125334447D01*
X108049559Y-125388363D01*
X108249545Y-125521989D01*
X108419611Y-125692055D01*
X108553237Y-125892041D01*
X108596527Y-125996552D01*
X108645278Y-126114247D01*
X108692200Y-126350142D01*
X108692200Y-126590658D01*
X108645278Y-126826553D01*
X108607153Y-126918594D01*
X108553237Y-127048759D01*
X108419611Y-127248745D01*
X108249545Y-127418811D01*
X108049559Y-127552437D01*
X107919394Y-127606353D01*
X107827353Y-127644478D01*
X107709405Y-127667939D01*
X107591459Y-127691400D01*
X107350941Y-127691400D01*
X107232995Y-127667939D01*
X107115047Y-127644478D01*
X107023006Y-127606353D01*
X106892841Y-127552437D01*
X106692855Y-127418811D01*
X106522789Y-127248745D01*
X106389163Y-127048759D01*
X106335247Y-126918594D01*
X106297122Y-126826553D01*
X106250200Y-126590658D01*
X106250200Y-126350142D01*
X106297122Y-126114247D01*
X106345873Y-125996552D01*
X106389163Y-125892041D01*
X106522789Y-125692055D01*
X106692855Y-125521989D01*
X106892841Y-125388363D01*
X107023006Y-125334447D01*
X107115047Y-125296322D01*
X107296646Y-125260200D01*
X107350941Y-125249400D01*
X107591459Y-125249400D01*
X107645754Y-125260200D01*
X107645754Y-125260200D01*
G37*
G36*
X50080425Y-124264760D02*
X50080428Y-124264761D01*
X50080429Y-124264761D01*
X50259693Y-124319140D01*
X50259695Y-124319141D01*
X50424905Y-124407448D01*
X50569712Y-124526288D01*
X50688552Y-124671095D01*
X50688553Y-124671097D01*
X50776860Y-124836307D01*
X50831239Y-125015571D01*
X50831240Y-125015575D01*
X50849601Y-125202000D01*
X50831240Y-125388425D01*
X50831239Y-125388428D01*
X50831239Y-125388429D01*
X50790725Y-125521987D01*
X50776859Y-125567695D01*
X50688552Y-125732905D01*
X50569712Y-125877712D01*
X50424905Y-125996552D01*
X50424903Y-125996553D01*
X50259693Y-126084860D01*
X50080429Y-126139239D01*
X50080428Y-126139239D01*
X50080425Y-126139240D01*
X49940718Y-126153000D01*
X49847282Y-126153000D01*
X49707575Y-126139240D01*
X49707572Y-126139239D01*
X49707571Y-126139239D01*
X49528307Y-126084860D01*
X49363097Y-125996553D01*
X49363095Y-125996552D01*
X49218288Y-125877712D01*
X49099448Y-125732905D01*
X49011141Y-125567695D01*
X48997276Y-125521987D01*
X48956761Y-125388429D01*
X48956761Y-125388428D01*
X48956760Y-125388425D01*
X48938399Y-125202000D01*
X48956760Y-125015575D01*
X48956761Y-125015571D01*
X49011140Y-124836307D01*
X49099447Y-124671097D01*
X49099448Y-124671095D01*
X49218288Y-124526288D01*
X49363095Y-124407448D01*
X49528305Y-124319141D01*
X49528307Y-124319140D01*
X49707571Y-124264761D01*
X49707572Y-124264761D01*
X49707575Y-124264760D01*
X49847282Y-124251000D01*
X49940718Y-124251000D01*
X50080425Y-124264760D01*
X50080425Y-124264760D01*
G37*
G36*
X89066821Y-123570513D02*
X89066824Y-123570514D01*
X89066825Y-123570514D01*
X89227239Y-123619175D01*
X89227241Y-123619176D01*
X89227244Y-123619177D01*
X89375078Y-123698195D01*
X89504659Y-123804541D01*
X89611005Y-123934122D01*
X89690023Y-124081956D01*
X89690024Y-124081959D01*
X89690025Y-124081961D01*
X89738686Y-124242375D01*
X89738687Y-124242379D01*
X89755117Y-124409200D01*
X89738687Y-124576021D01*
X89738686Y-124576024D01*
X89738686Y-124576025D01*
X89709847Y-124671095D01*
X89690023Y-124736444D01*
X89611005Y-124884278D01*
X89504659Y-125013859D01*
X89375078Y-125120205D01*
X89227244Y-125199223D01*
X89227241Y-125199224D01*
X89227239Y-125199225D01*
X89066825Y-125247886D01*
X89066824Y-125247886D01*
X89066821Y-125247887D01*
X88941804Y-125260200D01*
X88858196Y-125260200D01*
X88733179Y-125247887D01*
X88733176Y-125247886D01*
X88733175Y-125247886D01*
X88572761Y-125199225D01*
X88572759Y-125199224D01*
X88572756Y-125199223D01*
X88424922Y-125120205D01*
X88295341Y-125013859D01*
X88188995Y-124884278D01*
X88109977Y-124736444D01*
X88090154Y-124671095D01*
X88061314Y-124576025D01*
X88061314Y-124576024D01*
X88061313Y-124576021D01*
X88044883Y-124409200D01*
X88061313Y-124242379D01*
X88061314Y-124242375D01*
X88109975Y-124081961D01*
X88109976Y-124081959D01*
X88109977Y-124081956D01*
X88188995Y-123934122D01*
X88295341Y-123804541D01*
X88424922Y-123698195D01*
X88572756Y-123619177D01*
X88572759Y-123619176D01*
X88572761Y-123619175D01*
X88733175Y-123570514D01*
X88733176Y-123570514D01*
X88733179Y-123570513D01*
X88858196Y-123558200D01*
X88941804Y-123558200D01*
X89066821Y-123570513D01*
X89066821Y-123570513D01*
G37*
G36*
X83986821Y-123570513D02*
X83986824Y-123570514D01*
X83986825Y-123570514D01*
X84147239Y-123619175D01*
X84147241Y-123619176D01*
X84147244Y-123619177D01*
X84295078Y-123698195D01*
X84424659Y-123804541D01*
X84531005Y-123934122D01*
X84610023Y-124081956D01*
X84610024Y-124081959D01*
X84610025Y-124081961D01*
X84658686Y-124242375D01*
X84658687Y-124242379D01*
X84675117Y-124409200D01*
X84658687Y-124576021D01*
X84658686Y-124576024D01*
X84658686Y-124576025D01*
X84629847Y-124671095D01*
X84610023Y-124736444D01*
X84531005Y-124884278D01*
X84424659Y-125013859D01*
X84295078Y-125120205D01*
X84147244Y-125199223D01*
X84147241Y-125199224D01*
X84147239Y-125199225D01*
X83986825Y-125247886D01*
X83986824Y-125247886D01*
X83986821Y-125247887D01*
X83861804Y-125260200D01*
X83778196Y-125260200D01*
X83653179Y-125247887D01*
X83653176Y-125247886D01*
X83653175Y-125247886D01*
X83492761Y-125199225D01*
X83492759Y-125199224D01*
X83492756Y-125199223D01*
X83344922Y-125120205D01*
X83215341Y-125013859D01*
X83108995Y-124884278D01*
X83029977Y-124736444D01*
X83010154Y-124671095D01*
X82981314Y-124576025D01*
X82981314Y-124576024D01*
X82981313Y-124576021D01*
X82964883Y-124409200D01*
X82981313Y-124242379D01*
X82981314Y-124242375D01*
X83029975Y-124081961D01*
X83029976Y-124081959D01*
X83029977Y-124081956D01*
X83108995Y-123934122D01*
X83215341Y-123804541D01*
X83344922Y-123698195D01*
X83492756Y-123619177D01*
X83492759Y-123619176D01*
X83492761Y-123619175D01*
X83653175Y-123570514D01*
X83653176Y-123570514D01*
X83653179Y-123570513D01*
X83778196Y-123558200D01*
X83861804Y-123558200D01*
X83986821Y-123570513D01*
X83986821Y-123570513D01*
G37*
G36*
X91606821Y-123570513D02*
X91606824Y-123570514D01*
X91606825Y-123570514D01*
X91767239Y-123619175D01*
X91767241Y-123619176D01*
X91767244Y-123619177D01*
X91915078Y-123698195D01*
X92044659Y-123804541D01*
X92151005Y-123934122D01*
X92230023Y-124081956D01*
X92230024Y-124081959D01*
X92230025Y-124081961D01*
X92278686Y-124242375D01*
X92278687Y-124242379D01*
X92295117Y-124409200D01*
X92278687Y-124576021D01*
X92278686Y-124576024D01*
X92278686Y-124576025D01*
X92249847Y-124671095D01*
X92230023Y-124736444D01*
X92151005Y-124884278D01*
X92044659Y-125013859D01*
X91915078Y-125120205D01*
X91767244Y-125199223D01*
X91767241Y-125199224D01*
X91767239Y-125199225D01*
X91606825Y-125247886D01*
X91606824Y-125247886D01*
X91606821Y-125247887D01*
X91481804Y-125260200D01*
X91398196Y-125260200D01*
X91273179Y-125247887D01*
X91273176Y-125247886D01*
X91273175Y-125247886D01*
X91112761Y-125199225D01*
X91112759Y-125199224D01*
X91112756Y-125199223D01*
X90964922Y-125120205D01*
X90835341Y-125013859D01*
X90728995Y-124884278D01*
X90649977Y-124736444D01*
X90630154Y-124671095D01*
X90601314Y-124576025D01*
X90601314Y-124576024D01*
X90601313Y-124576021D01*
X90584883Y-124409200D01*
X90601313Y-124242379D01*
X90601314Y-124242375D01*
X90649975Y-124081961D01*
X90649976Y-124081959D01*
X90649977Y-124081956D01*
X90728995Y-123934122D01*
X90835341Y-123804541D01*
X90964922Y-123698195D01*
X91112756Y-123619177D01*
X91112759Y-123619176D01*
X91112761Y-123619175D01*
X91273175Y-123570514D01*
X91273176Y-123570514D01*
X91273179Y-123570513D01*
X91398196Y-123558200D01*
X91481804Y-123558200D01*
X91606821Y-123570513D01*
X91606821Y-123570513D01*
G37*
G36*
X86526821Y-123570513D02*
X86526824Y-123570514D01*
X86526825Y-123570514D01*
X86687239Y-123619175D01*
X86687241Y-123619176D01*
X86687244Y-123619177D01*
X86835078Y-123698195D01*
X86964659Y-123804541D01*
X87071005Y-123934122D01*
X87150023Y-124081956D01*
X87150024Y-124081959D01*
X87150025Y-124081961D01*
X87198686Y-124242375D01*
X87198687Y-124242379D01*
X87215117Y-124409200D01*
X87198687Y-124576021D01*
X87198686Y-124576024D01*
X87198686Y-124576025D01*
X87169847Y-124671095D01*
X87150023Y-124736444D01*
X87071005Y-124884278D01*
X86964659Y-125013859D01*
X86835078Y-125120205D01*
X86687244Y-125199223D01*
X86687241Y-125199224D01*
X86687239Y-125199225D01*
X86526825Y-125247886D01*
X86526824Y-125247886D01*
X86526821Y-125247887D01*
X86401804Y-125260200D01*
X86318196Y-125260200D01*
X86193179Y-125247887D01*
X86193176Y-125247886D01*
X86193175Y-125247886D01*
X86032761Y-125199225D01*
X86032759Y-125199224D01*
X86032756Y-125199223D01*
X85884922Y-125120205D01*
X85755341Y-125013859D01*
X85648995Y-124884278D01*
X85569977Y-124736444D01*
X85550154Y-124671095D01*
X85521314Y-124576025D01*
X85521314Y-124576024D01*
X85521313Y-124576021D01*
X85504883Y-124409200D01*
X85521313Y-124242379D01*
X85521314Y-124242375D01*
X85569975Y-124081961D01*
X85569976Y-124081959D01*
X85569977Y-124081956D01*
X85648995Y-123934122D01*
X85755341Y-123804541D01*
X85884922Y-123698195D01*
X86032756Y-123619177D01*
X86032759Y-123619176D01*
X86032761Y-123619175D01*
X86193175Y-123570514D01*
X86193176Y-123570514D01*
X86193179Y-123570513D01*
X86318196Y-123558200D01*
X86401804Y-123558200D01*
X86526821Y-123570513D01*
X86526821Y-123570513D01*
G37*
G36*
X53780425Y-122564760D02*
X53780428Y-122564761D01*
X53780429Y-122564761D01*
X53959693Y-122619140D01*
X53959695Y-122619141D01*
X54124905Y-122707448D01*
X54269712Y-122826288D01*
X54388552Y-122971095D01*
X54476859Y-123136305D01*
X54531240Y-123315575D01*
X54549601Y-123502000D01*
X54531240Y-123688425D01*
X54531239Y-123688428D01*
X54531239Y-123688429D01*
X54528277Y-123698195D01*
X54476859Y-123867695D01*
X54388552Y-124032905D01*
X54269712Y-124177712D01*
X54124905Y-124296552D01*
X54124903Y-124296553D01*
X53959693Y-124384860D01*
X53780429Y-124439239D01*
X53780428Y-124439239D01*
X53780425Y-124439240D01*
X53640718Y-124453000D01*
X53547282Y-124453000D01*
X53407575Y-124439240D01*
X53407572Y-124439239D01*
X53407571Y-124439239D01*
X53228307Y-124384860D01*
X53063097Y-124296553D01*
X53063095Y-124296552D01*
X52918288Y-124177712D01*
X52799448Y-124032905D01*
X52711141Y-123867695D01*
X52659724Y-123698195D01*
X52656761Y-123688429D01*
X52656761Y-123688428D01*
X52656760Y-123688425D01*
X52638399Y-123502000D01*
X52656760Y-123315575D01*
X52711141Y-123136305D01*
X52799448Y-122971095D01*
X52918288Y-122826288D01*
X53063095Y-122707448D01*
X53228305Y-122619141D01*
X53228307Y-122619140D01*
X53407571Y-122564761D01*
X53407572Y-122564761D01*
X53407575Y-122564760D01*
X53547282Y-122551000D01*
X53640718Y-122551000D01*
X53780425Y-122564760D01*
X53780425Y-122564760D01*
G37*
G36*
X100640635Y-120634019D02*
X100821903Y-120670075D01*
X101049571Y-120764378D01*
X101240630Y-120892040D01*
X101254469Y-120901287D01*
X101428713Y-121075531D01*
X101428715Y-121075534D01*
X101565622Y-121280429D01*
X101659925Y-121508097D01*
X101708000Y-121749787D01*
X101708000Y-121996213D01*
X101659925Y-122237903D01*
X101565622Y-122465571D01*
X101499345Y-122564761D01*
X101428713Y-122670469D01*
X101254469Y-122844713D01*
X101254466Y-122844715D01*
X101049571Y-122981622D01*
X100821903Y-123075925D01*
X100640635Y-123111981D01*
X100580214Y-123124000D01*
X100333786Y-123124000D01*
X100273365Y-123111981D01*
X100092097Y-123075925D01*
X99864429Y-122981622D01*
X99659534Y-122844715D01*
X99659531Y-122844713D01*
X99485287Y-122670469D01*
X99414655Y-122564761D01*
X99348378Y-122465571D01*
X99254075Y-122237903D01*
X99206000Y-121996213D01*
X99206000Y-121749787D01*
X99254075Y-121508097D01*
X99348378Y-121280429D01*
X99485285Y-121075534D01*
X99485287Y-121075531D01*
X99659531Y-120901287D01*
X99673370Y-120892040D01*
X99864429Y-120764378D01*
X100092097Y-120670075D01*
X100273365Y-120634019D01*
X100333786Y-120622000D01*
X100580214Y-120622000D01*
X100640635Y-120634019D01*
X100640635Y-120634019D01*
G37*
G36*
X112659514Y-120262937D02*
X112827353Y-120296322D01*
X112919394Y-120334447D01*
X113049559Y-120388363D01*
X113249545Y-120521989D01*
X113419611Y-120692055D01*
X113553237Y-120892041D01*
X113607153Y-121022206D01*
X113645278Y-121114247D01*
X113692200Y-121350142D01*
X113692200Y-121590658D01*
X113660548Y-121749787D01*
X113645278Y-121826552D01*
X113553237Y-122048759D01*
X113419611Y-122248745D01*
X113249545Y-122418811D01*
X113049559Y-122552437D01*
X112919394Y-122606353D01*
X112827353Y-122644478D01*
X112709405Y-122667939D01*
X112591459Y-122691400D01*
X112350941Y-122691400D01*
X112232995Y-122667939D01*
X112115047Y-122644478D01*
X112023006Y-122606353D01*
X111892841Y-122552437D01*
X111692855Y-122418811D01*
X111522789Y-122248745D01*
X111389163Y-122048759D01*
X111297122Y-121826552D01*
X111281853Y-121749787D01*
X111250200Y-121590658D01*
X111250200Y-121350142D01*
X111297122Y-121114247D01*
X111335247Y-121022206D01*
X111389163Y-120892041D01*
X111522789Y-120692055D01*
X111692855Y-120521989D01*
X111892841Y-120388363D01*
X112023006Y-120334447D01*
X112115047Y-120296322D01*
X112282886Y-120262937D01*
X112350941Y-120249400D01*
X112591459Y-120249400D01*
X112659514Y-120262937D01*
X112659514Y-120262937D01*
G37*
G36*
X60263567Y-119070959D02*
X60394072Y-119096918D01*
X60639939Y-119198759D01*
X60860464Y-119346110D01*
X60861215Y-119346612D01*
X61049388Y-119534785D01*
X61049390Y-119534788D01*
X61197241Y-119756061D01*
X61299082Y-120001928D01*
X61351000Y-120262938D01*
X61351000Y-120529062D01*
X61299082Y-120790072D01*
X61197241Y-121035939D01*
X61049890Y-121256464D01*
X61049388Y-121257215D01*
X60861215Y-121445388D01*
X60861212Y-121445390D01*
X60639939Y-121593241D01*
X60394072Y-121695082D01*
X60263567Y-121721041D01*
X60133063Y-121747000D01*
X59866937Y-121747000D01*
X59736433Y-121721041D01*
X59605928Y-121695082D01*
X59360061Y-121593241D01*
X59138788Y-121445390D01*
X59138785Y-121445388D01*
X58950612Y-121257215D01*
X58950110Y-121256464D01*
X58802759Y-121035939D01*
X58700918Y-120790072D01*
X58649000Y-120529062D01*
X58649000Y-120262938D01*
X58700918Y-120001928D01*
X58802759Y-119756061D01*
X58950610Y-119534788D01*
X58950612Y-119534785D01*
X59138785Y-119346612D01*
X59139536Y-119346110D01*
X59360061Y-119198759D01*
X59605928Y-119096918D01*
X59736433Y-119070959D01*
X59866937Y-119045000D01*
X60133063Y-119045000D01*
X60263567Y-119070959D01*
X60263567Y-119070959D01*
G37*
G36*
X63763567Y-119070959D02*
X63894072Y-119096918D01*
X64139939Y-119198759D01*
X64360464Y-119346110D01*
X64361215Y-119346612D01*
X64549388Y-119534785D01*
X64549390Y-119534788D01*
X64697241Y-119756061D01*
X64799082Y-120001928D01*
X64851000Y-120262938D01*
X64851000Y-120529062D01*
X64799082Y-120790072D01*
X64697241Y-121035939D01*
X64549890Y-121256464D01*
X64549388Y-121257215D01*
X64361215Y-121445388D01*
X64361212Y-121445390D01*
X64139939Y-121593241D01*
X63894072Y-121695082D01*
X63763567Y-121721041D01*
X63633063Y-121747000D01*
X63366937Y-121747000D01*
X63236433Y-121721041D01*
X63105928Y-121695082D01*
X62860061Y-121593241D01*
X62638788Y-121445390D01*
X62638785Y-121445388D01*
X62450612Y-121257215D01*
X62450110Y-121256464D01*
X62302759Y-121035939D01*
X62200918Y-120790072D01*
X62149000Y-120529062D01*
X62149000Y-120262938D01*
X62200918Y-120001928D01*
X62302759Y-119756061D01*
X62450610Y-119534788D01*
X62450612Y-119534785D01*
X62638785Y-119346612D01*
X62639536Y-119346110D01*
X62860061Y-119198759D01*
X63105928Y-119096918D01*
X63236433Y-119070959D01*
X63366937Y-119045000D01*
X63633063Y-119045000D01*
X63763567Y-119070959D01*
X63763567Y-119070959D01*
G37*
G36*
X98621654Y-113942888D02*
X98932865Y-114037294D01*
X99219686Y-114190603D01*
X99471082Y-114396918D01*
X99677397Y-114648314D01*
X99830706Y-114935135D01*
X99925112Y-115246346D01*
X99956988Y-115570000D01*
X99925112Y-115893654D01*
X99830706Y-116204865D01*
X99677397Y-116491686D01*
X99471082Y-116743082D01*
X99219686Y-116949397D01*
X98932865Y-117102706D01*
X98621654Y-117197112D01*
X98379107Y-117221000D01*
X98216893Y-117221000D01*
X97974346Y-117197112D01*
X97663135Y-117102706D01*
X97376314Y-116949397D01*
X97124918Y-116743082D01*
X96918603Y-116491686D01*
X96765294Y-116204865D01*
X96670888Y-115893654D01*
X96639012Y-115570000D01*
X96670888Y-115246346D01*
X96765294Y-114935135D01*
X96918603Y-114648314D01*
X97124918Y-114396918D01*
X97376314Y-114190603D01*
X97663135Y-114037294D01*
X97974346Y-113942888D01*
X98216893Y-113919000D01*
X98379107Y-113919000D01*
X98621654Y-113942888D01*
X98621654Y-113942888D01*
G37*
G36*
X90747654Y-113688888D02*
X91058865Y-113783294D01*
X91345686Y-113936603D01*
X91597082Y-114142918D01*
X91803397Y-114394314D01*
X91956706Y-114681135D01*
X92051112Y-114992346D01*
X92082988Y-115316000D01*
X92051112Y-115639654D01*
X91956706Y-115950865D01*
X91803397Y-116237686D01*
X91597082Y-116489082D01*
X91345686Y-116695397D01*
X91058865Y-116848706D01*
X90747654Y-116943112D01*
X90505107Y-116967000D01*
X90342893Y-116967000D01*
X90100346Y-116943112D01*
X89789135Y-116848706D01*
X89502314Y-116695397D01*
X89250918Y-116489082D01*
X89044603Y-116237686D01*
X88891294Y-115950865D01*
X88796888Y-115639654D01*
X88765012Y-115316000D01*
X88796888Y-114992346D01*
X88891294Y-114681135D01*
X89044603Y-114394314D01*
X89250918Y-114142918D01*
X89502314Y-113936603D01*
X89789135Y-113783294D01*
X90100346Y-113688888D01*
X90342893Y-113665000D01*
X90505107Y-113665000D01*
X90747654Y-113688888D01*
X90747654Y-113688888D01*
G37*
G36*
X76835000Y-116967000D02*
X73533000Y-116967000D01*
X73533000Y-113665000D01*
X76835000Y-113665000D01*
X76835000Y-116967000D01*
X76835000Y-116967000D01*
G37*
G36*
X54631669Y-109332686D02*
X54808058Y-109350059D01*
X55034385Y-109418714D01*
X55147549Y-109453042D01*
X55460425Y-109620279D01*
X55734661Y-109845339D01*
X55959721Y-110119575D01*
X56126958Y-110432451D01*
X56161286Y-110545615D01*
X56229941Y-110771942D01*
X56264714Y-111125000D01*
X56229941Y-111478058D01*
X56161286Y-111704385D01*
X56126958Y-111817549D01*
X55959721Y-112130425D01*
X55734661Y-112404661D01*
X55460425Y-112629721D01*
X55147549Y-112796958D01*
X55034385Y-112831286D01*
X54808058Y-112899941D01*
X54631669Y-112917314D01*
X54543476Y-112926000D01*
X50866524Y-112926000D01*
X50778331Y-112917314D01*
X50601942Y-112899941D01*
X50375615Y-112831286D01*
X50262451Y-112796958D01*
X49949575Y-112629721D01*
X49675339Y-112404661D01*
X49450279Y-112130425D01*
X49283042Y-111817549D01*
X49248714Y-111704385D01*
X49180059Y-111478058D01*
X49145286Y-111125000D01*
X49180059Y-110771942D01*
X49248714Y-110545615D01*
X49283042Y-110432451D01*
X49450279Y-110119575D01*
X49675339Y-109845339D01*
X49949575Y-109620279D01*
X50262451Y-109453042D01*
X50375615Y-109418714D01*
X50601942Y-109350059D01*
X50778331Y-109332686D01*
X50866524Y-109324000D01*
X54543476Y-109324000D01*
X54631669Y-109332686D01*
X54631669Y-109332686D01*
G37*
G36*
X113030553Y-108706322D02*
X113122594Y-108744447D01*
X113252759Y-108798363D01*
X113452745Y-108931989D01*
X113622811Y-109102055D01*
X113756437Y-109302041D01*
X113848478Y-109524248D01*
X113895400Y-109760141D01*
X113895400Y-110000659D01*
X113848478Y-110236552D01*
X113756437Y-110458759D01*
X113622811Y-110658745D01*
X113452745Y-110828811D01*
X113252759Y-110962437D01*
X113122594Y-111016353D01*
X113030553Y-111054478D01*
X112912605Y-111077939D01*
X112794659Y-111101400D01*
X112554141Y-111101400D01*
X112436195Y-111077939D01*
X112318247Y-111054478D01*
X112226206Y-111016353D01*
X112096041Y-110962437D01*
X111896055Y-110828811D01*
X111725989Y-110658745D01*
X111592363Y-110458759D01*
X111500322Y-110236552D01*
X111453400Y-110000659D01*
X111453400Y-109760141D01*
X111500322Y-109524248D01*
X111592363Y-109302041D01*
X111725989Y-109102055D01*
X111896055Y-108931989D01*
X112096041Y-108798363D01*
X112226206Y-108744447D01*
X112318247Y-108706322D01*
X112554141Y-108659400D01*
X112794659Y-108659400D01*
X113030553Y-108706322D01*
X113030553Y-108706322D01*
G37*
G36*
X58401821Y-107746313D02*
X58401824Y-107746314D01*
X58401825Y-107746314D01*
X58562239Y-107794975D01*
X58562241Y-107794976D01*
X58562244Y-107794977D01*
X58710078Y-107873995D01*
X58839659Y-107980341D01*
X58946005Y-108109922D01*
X59025023Y-108257756D01*
X59073687Y-108418179D01*
X59090117Y-108585000D01*
X59073687Y-108751821D01*
X59073686Y-108751824D01*
X59073686Y-108751825D01*
X59043602Y-108851000D01*
X59025023Y-108912244D01*
X58946005Y-109060078D01*
X58839659Y-109189659D01*
X58710078Y-109296005D01*
X58562244Y-109375023D01*
X58562241Y-109375024D01*
X58562239Y-109375025D01*
X58401825Y-109423686D01*
X58401824Y-109423686D01*
X58401821Y-109423687D01*
X58276804Y-109436000D01*
X57293196Y-109436000D01*
X57168179Y-109423687D01*
X57168176Y-109423686D01*
X57168175Y-109423686D01*
X57007761Y-109375025D01*
X57007759Y-109375024D01*
X57007756Y-109375023D01*
X56859922Y-109296005D01*
X56730341Y-109189659D01*
X56623995Y-109060078D01*
X56544977Y-108912244D01*
X56526399Y-108851000D01*
X56496314Y-108751825D01*
X56496314Y-108751824D01*
X56496313Y-108751821D01*
X56479883Y-108585000D01*
X56496313Y-108418179D01*
X56544977Y-108257756D01*
X56623995Y-108109922D01*
X56730341Y-107980341D01*
X56859922Y-107873995D01*
X57007756Y-107794977D01*
X57007759Y-107794976D01*
X57007761Y-107794975D01*
X57168175Y-107746314D01*
X57168176Y-107746314D01*
X57168179Y-107746313D01*
X57293196Y-107734000D01*
X58276804Y-107734000D01*
X58401821Y-107746313D01*
X58401821Y-107746313D01*
G37*
G36*
X67576000Y-108851000D02*
X65774000Y-108851000D01*
X65774000Y-107049000D01*
X67576000Y-107049000D01*
X67576000Y-108851000D01*
X67576000Y-108851000D01*
G37*
G36*
X58401821Y-105206313D02*
X58401824Y-105206314D01*
X58401825Y-105206314D01*
X58562239Y-105254975D01*
X58562241Y-105254976D01*
X58562244Y-105254977D01*
X58710078Y-105333995D01*
X58839659Y-105440341D01*
X58946005Y-105569922D01*
X59025023Y-105717756D01*
X59025024Y-105717759D01*
X59025025Y-105717761D01*
X59058712Y-105828813D01*
X59073687Y-105878179D01*
X59090117Y-106045000D01*
X59073687Y-106211821D01*
X59073686Y-106211824D01*
X59073686Y-106211825D01*
X59043602Y-106311000D01*
X59025023Y-106372244D01*
X58946005Y-106520078D01*
X58839659Y-106649659D01*
X58710078Y-106756005D01*
X58562244Y-106835023D01*
X58562241Y-106835024D01*
X58562239Y-106835025D01*
X58401825Y-106883686D01*
X58401824Y-106883686D01*
X58401821Y-106883687D01*
X58276804Y-106896000D01*
X57293196Y-106896000D01*
X57168179Y-106883687D01*
X57168176Y-106883686D01*
X57168175Y-106883686D01*
X57007761Y-106835025D01*
X57007759Y-106835024D01*
X57007756Y-106835023D01*
X56859922Y-106756005D01*
X56730341Y-106649659D01*
X56623995Y-106520078D01*
X56544977Y-106372244D01*
X56526399Y-106311000D01*
X56496314Y-106211825D01*
X56496314Y-106211824D01*
X56496313Y-106211821D01*
X56479883Y-106045000D01*
X56496313Y-105878179D01*
X56511288Y-105828813D01*
X56544975Y-105717761D01*
X56544976Y-105717759D01*
X56544977Y-105717756D01*
X56623995Y-105569922D01*
X56730341Y-105440341D01*
X56859922Y-105333995D01*
X57007756Y-105254977D01*
X57007759Y-105254976D01*
X57007761Y-105254975D01*
X57168175Y-105206314D01*
X57168176Y-105206314D01*
X57168179Y-105206313D01*
X57293196Y-105194000D01*
X58276804Y-105194000D01*
X58401821Y-105206313D01*
X58401821Y-105206313D01*
G37*
G36*
X66785443Y-104515519D02*
X66851627Y-104522037D01*
X66964853Y-104556384D01*
X67021467Y-104573557D01*
X67160087Y-104647652D01*
X67177991Y-104657222D01*
X67213729Y-104686552D01*
X67315186Y-104769814D01*
X67398448Y-104871271D01*
X67427778Y-104907009D01*
X67427779Y-104907011D01*
X67511443Y-105063533D01*
X67511443Y-105063534D01*
X67562963Y-105233373D01*
X67580359Y-105410000D01*
X67562963Y-105586627D01*
X67541087Y-105658742D01*
X67511443Y-105756467D01*
X67446388Y-105878175D01*
X67427778Y-105912991D01*
X67398448Y-105948729D01*
X67315186Y-106050186D01*
X67213729Y-106133448D01*
X67177991Y-106162778D01*
X67177989Y-106162779D01*
X67021467Y-106246443D01*
X66964853Y-106263616D01*
X66851627Y-106297963D01*
X66785442Y-106304482D01*
X66719260Y-106311000D01*
X66630740Y-106311000D01*
X66564558Y-106304482D01*
X66498373Y-106297963D01*
X66385147Y-106263616D01*
X66328533Y-106246443D01*
X66172011Y-106162779D01*
X66172009Y-106162778D01*
X66136271Y-106133448D01*
X66034814Y-106050186D01*
X65951552Y-105948729D01*
X65922222Y-105912991D01*
X65903612Y-105878175D01*
X65838557Y-105756467D01*
X65808913Y-105658742D01*
X65787037Y-105586627D01*
X65769641Y-105410000D01*
X65787037Y-105233373D01*
X65838557Y-105063534D01*
X65838557Y-105063533D01*
X65922221Y-104907011D01*
X65922222Y-104907009D01*
X65951552Y-104871271D01*
X66034814Y-104769814D01*
X66136271Y-104686552D01*
X66172009Y-104657222D01*
X66189913Y-104647652D01*
X66328533Y-104573557D01*
X66385147Y-104556384D01*
X66498373Y-104522037D01*
X66564557Y-104515519D01*
X66630740Y-104509000D01*
X66719260Y-104509000D01*
X66785443Y-104515519D01*
X66785443Y-104515519D01*
G37*
G36*
X108030553Y-103706322D02*
X108122594Y-103744447D01*
X108252759Y-103798363D01*
X108452745Y-103931989D01*
X108622811Y-104102055D01*
X108756437Y-104302041D01*
X108810353Y-104432206D01*
X108847563Y-104522037D01*
X108848478Y-104524248D01*
X108874826Y-104656706D01*
X108895400Y-104760142D01*
X108895400Y-105000658D01*
X108849111Y-105233373D01*
X108848478Y-105236552D01*
X108756437Y-105458759D01*
X108622811Y-105658745D01*
X108452745Y-105828811D01*
X108252759Y-105962437D01*
X108122594Y-106016353D01*
X108030553Y-106054478D01*
X107912605Y-106077939D01*
X107794659Y-106101400D01*
X107554141Y-106101400D01*
X107436195Y-106077939D01*
X107318247Y-106054478D01*
X107226206Y-106016353D01*
X107096041Y-105962437D01*
X106896055Y-105828811D01*
X106725989Y-105658745D01*
X106592363Y-105458759D01*
X106500322Y-105236552D01*
X106499690Y-105233373D01*
X106453400Y-105000658D01*
X106453400Y-104760142D01*
X106473975Y-104656706D01*
X106500322Y-104524248D01*
X106501238Y-104522037D01*
X106538447Y-104432206D01*
X106592363Y-104302041D01*
X106725989Y-104102055D01*
X106896055Y-103931989D01*
X107096041Y-103798363D01*
X107226206Y-103744447D01*
X107318247Y-103706322D01*
X107554141Y-103659400D01*
X107794659Y-103659400D01*
X108030553Y-103706322D01*
X108030553Y-103706322D01*
G37*
G36*
X76835000Y-104775000D02*
X73533000Y-104775000D01*
X73533000Y-101473000D01*
X76835000Y-101473000D01*
X76835000Y-104775000D01*
X76835000Y-104775000D01*
G37*
G36*
X90747654Y-101496888D02*
X91058865Y-101591294D01*
X91345686Y-101744603D01*
X91597082Y-101950918D01*
X91803397Y-102202314D01*
X91956706Y-102489135D01*
X92051112Y-102800346D01*
X92082988Y-103124000D01*
X92051112Y-103447654D01*
X91956706Y-103758865D01*
X91803397Y-104045686D01*
X91597082Y-104297082D01*
X91345686Y-104503397D01*
X91058865Y-104656706D01*
X90747654Y-104751112D01*
X90505107Y-104775000D01*
X90342893Y-104775000D01*
X90100346Y-104751112D01*
X89789135Y-104656706D01*
X89502314Y-104503397D01*
X89250918Y-104297082D01*
X89044603Y-104045686D01*
X88891294Y-103758865D01*
X88796888Y-103447654D01*
X88765012Y-103124000D01*
X88796888Y-102800346D01*
X88891294Y-102489135D01*
X89044603Y-102202314D01*
X89250918Y-101950918D01*
X89502314Y-101744603D01*
X89789135Y-101591294D01*
X90100346Y-101496888D01*
X90342893Y-101473000D01*
X90505107Y-101473000D01*
X90747654Y-101496888D01*
X90747654Y-101496888D01*
G37*
G36*
X66785442Y-101975518D02*
X66851627Y-101982037D01*
X66964853Y-102016384D01*
X67021467Y-102033557D01*
X67160087Y-102107652D01*
X67177991Y-102117222D01*
X67213729Y-102146552D01*
X67315186Y-102229814D01*
X67398448Y-102331271D01*
X67427778Y-102367009D01*
X67427779Y-102367011D01*
X67511443Y-102523533D01*
X67511443Y-102523534D01*
X67562963Y-102693373D01*
X67580359Y-102870000D01*
X67562963Y-103046627D01*
X67539492Y-103124000D01*
X67511443Y-103216467D01*
X67437348Y-103355087D01*
X67427778Y-103372991D01*
X67398448Y-103408729D01*
X67315186Y-103510186D01*
X67213729Y-103593448D01*
X67177991Y-103622778D01*
X67177989Y-103622779D01*
X67021467Y-103706443D01*
X66964853Y-103723616D01*
X66851627Y-103757963D01*
X66785443Y-103764481D01*
X66719260Y-103771000D01*
X66630740Y-103771000D01*
X66564557Y-103764481D01*
X66498373Y-103757963D01*
X66385147Y-103723616D01*
X66328533Y-103706443D01*
X66172011Y-103622779D01*
X66172009Y-103622778D01*
X66136271Y-103593448D01*
X66034814Y-103510186D01*
X65951552Y-103408729D01*
X65922222Y-103372991D01*
X65912652Y-103355087D01*
X65838557Y-103216467D01*
X65810508Y-103124000D01*
X65787037Y-103046627D01*
X65769641Y-102870000D01*
X65787037Y-102693373D01*
X65838557Y-102523534D01*
X65838557Y-102523533D01*
X65922221Y-102367011D01*
X65922222Y-102367009D01*
X65951552Y-102331271D01*
X66034814Y-102229814D01*
X66136271Y-102146552D01*
X66172009Y-102117222D01*
X66189913Y-102107652D01*
X66328533Y-102033557D01*
X66385147Y-102016384D01*
X66498373Y-101982037D01*
X66564558Y-101975518D01*
X66630740Y-101969000D01*
X66719260Y-101969000D01*
X66785442Y-101975518D01*
X66785442Y-101975518D01*
G37*
G36*
X54631669Y-99172686D02*
X54808058Y-99190059D01*
X55034385Y-99258714D01*
X55147549Y-99293042D01*
X55460425Y-99460279D01*
X55734661Y-99685339D01*
X55959721Y-99959575D01*
X56126958Y-100272451D01*
X56126958Y-100272452D01*
X56229941Y-100611942D01*
X56264714Y-100965000D01*
X56229941Y-101318058D01*
X56175693Y-101496889D01*
X56126958Y-101657549D01*
X55959721Y-101970425D01*
X55734661Y-102244661D01*
X55460425Y-102469721D01*
X55147549Y-102636958D01*
X55034385Y-102671286D01*
X54808058Y-102739941D01*
X54631669Y-102757314D01*
X54543476Y-102766000D01*
X50866524Y-102766000D01*
X50778331Y-102757314D01*
X50601942Y-102739941D01*
X50375615Y-102671286D01*
X50262451Y-102636958D01*
X49949575Y-102469721D01*
X49675339Y-102244661D01*
X49450279Y-101970425D01*
X49283042Y-101657549D01*
X49234307Y-101496889D01*
X49180059Y-101318058D01*
X49145286Y-100965000D01*
X49180059Y-100611942D01*
X49283042Y-100272452D01*
X49283042Y-100272451D01*
X49450279Y-99959575D01*
X49675339Y-99685339D01*
X49949575Y-99460279D01*
X50262451Y-99293042D01*
X50375615Y-99258714D01*
X50601942Y-99190059D01*
X50778331Y-99172686D01*
X50866524Y-99164000D01*
X54543476Y-99164000D01*
X54631669Y-99172686D01*
X54631669Y-99172686D01*
G37*
G36*
X99949000Y-101981000D02*
X96647000Y-101981000D01*
X96647000Y-98679000D01*
X99949000Y-98679000D01*
X99949000Y-101981000D01*
X99949000Y-101981000D01*
G37*
G36*
X112893195Y-98679000D02*
X113030553Y-98706322D01*
X113122594Y-98744447D01*
X113252759Y-98798363D01*
X113452745Y-98931989D01*
X113622811Y-99102055D01*
X113756437Y-99302041D01*
X113848478Y-99524248D01*
X113895400Y-99760141D01*
X113895400Y-100000659D01*
X113848478Y-100236552D01*
X113756437Y-100458759D01*
X113622811Y-100658745D01*
X113452745Y-100828811D01*
X113252759Y-100962437D01*
X113122594Y-101016353D01*
X113030553Y-101054478D01*
X112912605Y-101077939D01*
X112794659Y-101101400D01*
X112554141Y-101101400D01*
X112436195Y-101077939D01*
X112318247Y-101054478D01*
X112226206Y-101016353D01*
X112096041Y-100962437D01*
X111896055Y-100828811D01*
X111725989Y-100658745D01*
X111592363Y-100458759D01*
X111500322Y-100236552D01*
X111453400Y-100000659D01*
X111453400Y-99760141D01*
X111500322Y-99524248D01*
X111592363Y-99302041D01*
X111725989Y-99102055D01*
X111896055Y-98931989D01*
X112096041Y-98798363D01*
X112226206Y-98744447D01*
X112318247Y-98706322D01*
X112455605Y-98679000D01*
X112554141Y-98659400D01*
X112794659Y-98659400D01*
X112893195Y-98679000D01*
X112893195Y-98679000D01*
G37*
G36*
X90534443Y-92069519D02*
X90600627Y-92076037D01*
X90713853Y-92110384D01*
X90770467Y-92127557D01*
X90862993Y-92177014D01*
X90926991Y-92211222D01*
X90962729Y-92240552D01*
X91064186Y-92323814D01*
X91147448Y-92425271D01*
X91176778Y-92461009D01*
X91176779Y-92461011D01*
X91260443Y-92617533D01*
X91260443Y-92617534D01*
X91311963Y-92787373D01*
X91329359Y-92964000D01*
X91311963Y-93140627D01*
X91277616Y-93253853D01*
X91260443Y-93310467D01*
X91186348Y-93449087D01*
X91176778Y-93466991D01*
X91147448Y-93502729D01*
X91064186Y-93604186D01*
X90962729Y-93687448D01*
X90926991Y-93716778D01*
X90926989Y-93716779D01*
X90770467Y-93800443D01*
X90713853Y-93817616D01*
X90600627Y-93851963D01*
X90534443Y-93858481D01*
X90468260Y-93865000D01*
X90379740Y-93865000D01*
X90313557Y-93858481D01*
X90247373Y-93851963D01*
X90134147Y-93817616D01*
X90077533Y-93800443D01*
X89921011Y-93716779D01*
X89921009Y-93716778D01*
X89885271Y-93687448D01*
X89783814Y-93604186D01*
X89700552Y-93502729D01*
X89671222Y-93466991D01*
X89661652Y-93449087D01*
X89587557Y-93310467D01*
X89570384Y-93253853D01*
X89536037Y-93140627D01*
X89518641Y-92964000D01*
X89536037Y-92787373D01*
X89587557Y-92617534D01*
X89587557Y-92617533D01*
X89671221Y-92461011D01*
X89671222Y-92461009D01*
X89700552Y-92425271D01*
X89783814Y-92323814D01*
X89885271Y-92240552D01*
X89921009Y-92211222D01*
X89985007Y-92177014D01*
X90077533Y-92127557D01*
X90134147Y-92110384D01*
X90247373Y-92076037D01*
X90313557Y-92069519D01*
X90379740Y-92063000D01*
X90468260Y-92063000D01*
X90534443Y-92069519D01*
X90534443Y-92069519D01*
G37*
G36*
X93865000Y-93865000D02*
X92063000Y-93865000D01*
X92063000Y-92063000D01*
X93865000Y-92063000D01*
X93865000Y-93865000D01*
X93865000Y-93865000D01*
G37*
G36*
X51291400Y-93557000D02*
X49089400Y-93557000D01*
X49089400Y-91355000D01*
X51291400Y-91355000D01*
X51291400Y-93557000D01*
X51291400Y-93557000D01*
G37*
G36*
X80472228Y-89097703D02*
X80627100Y-89161853D01*
X80766481Y-89254985D01*
X80885015Y-89373519D01*
X80978147Y-89512900D01*
X81042297Y-89667772D01*
X81075000Y-89832184D01*
X81075000Y-89999816D01*
X81042297Y-90164228D01*
X80978147Y-90319100D01*
X80896325Y-90441554D01*
X80879619Y-90466556D01*
X80876337Y-90470554D01*
X80864786Y-90492165D01*
X80857673Y-90515614D01*
X80855271Y-90540000D01*
X80857673Y-90564386D01*
X80864786Y-90587835D01*
X80876337Y-90609446D01*
X80891883Y-90628388D01*
X80910825Y-90643934D01*
X80932436Y-90655485D01*
X80955885Y-90662598D01*
X80977265Y-90664704D01*
X80978753Y-90665000D01*
X81143165Y-90697703D01*
X81298037Y-90761853D01*
X81437418Y-90854985D01*
X81555952Y-90973519D01*
X81649084Y-91112900D01*
X81713234Y-91267772D01*
X81745937Y-91432184D01*
X81745937Y-91599816D01*
X81713234Y-91764228D01*
X81649084Y-91919100D01*
X81555952Y-92058481D01*
X81437418Y-92177015D01*
X81298037Y-92270147D01*
X81143165Y-92334297D01*
X80978753Y-92367000D01*
X80811121Y-92367000D01*
X80646709Y-92334297D01*
X80491837Y-92270147D01*
X80352456Y-92177015D01*
X80233922Y-92058481D01*
X80140790Y-91919100D01*
X80076640Y-91764228D01*
X80043937Y-91599816D01*
X80043937Y-91432184D01*
X80076640Y-91267772D01*
X80140790Y-91112900D01*
X80233922Y-90973519D01*
X80233923Y-90973518D01*
X80239318Y-90965444D01*
X80242600Y-90961446D01*
X80254151Y-90939835D01*
X80261264Y-90916386D01*
X80263666Y-90892000D01*
X80261264Y-90867614D01*
X80254151Y-90844165D01*
X80242600Y-90822554D01*
X80227054Y-90803612D01*
X80208112Y-90788066D01*
X80186501Y-90776515D01*
X80163052Y-90769402D01*
X80141672Y-90767296D01*
X80140184Y-90767000D01*
X79975772Y-90734297D01*
X79820900Y-90670147D01*
X79681519Y-90577015D01*
X79562985Y-90458481D01*
X79469853Y-90319100D01*
X79405703Y-90164228D01*
X79373000Y-89999816D01*
X79373000Y-89832184D01*
X79405703Y-89667772D01*
X79469853Y-89512900D01*
X79562985Y-89373519D01*
X79681519Y-89254985D01*
X79820900Y-89161853D01*
X79975772Y-89097703D01*
X80140184Y-89065000D01*
X80307816Y-89065000D01*
X80472228Y-89097703D01*
X80472228Y-89097703D01*
G37*
G36*
X65621000Y-90386000D02*
X64146000Y-90386000D01*
X64121614Y-90388402D01*
X64098165Y-90395515D01*
X64076554Y-90407066D01*
X64057612Y-90422612D01*
X64042066Y-90441554D01*
X64030515Y-90463165D01*
X64023402Y-90486614D01*
X64021000Y-90511000D01*
X64021000Y-91056937D01*
X62319000Y-91056937D01*
X62319000Y-89354937D01*
X63794000Y-89354937D01*
X63818386Y-89352535D01*
X63841835Y-89345422D01*
X63863446Y-89333871D01*
X63882388Y-89318325D01*
X63897934Y-89299383D01*
X63909485Y-89277772D01*
X63916598Y-89254323D01*
X63919000Y-89229937D01*
X63919000Y-88684000D01*
X65621000Y-88684000D01*
X65621000Y-90386000D01*
X65621000Y-90386000D01*
G37*
G36*
X77904063Y-88940000D02*
X77906465Y-88964386D01*
X77913578Y-88987835D01*
X77925129Y-89009446D01*
X77940675Y-89028388D01*
X77959617Y-89043934D01*
X77981228Y-89055485D01*
X78004677Y-89062598D01*
X78029063Y-89065000D01*
X78575000Y-89065000D01*
X78575000Y-90767000D01*
X76873000Y-90767000D01*
X76873000Y-89292000D01*
X76870598Y-89267614D01*
X76863485Y-89244165D01*
X76851934Y-89222554D01*
X76836388Y-89203612D01*
X76817446Y-89188066D01*
X76795835Y-89176515D01*
X76772386Y-89169402D01*
X76748000Y-89167000D01*
X76202063Y-89167000D01*
X76202063Y-87465000D01*
X77904063Y-87465000D01*
X77904063Y-88940000D01*
X77904063Y-88940000D01*
G37*
G36*
X110387400Y-89026600D02*
X106325400Y-89026600D01*
X106325400Y-86944600D01*
X110387400Y-86944600D01*
X110387400Y-89026600D01*
X110387400Y-89026600D01*
G37*
G36*
X50405194Y-86296155D02*
X50511550Y-86317311D01*
X50582390Y-86346654D01*
X50711916Y-86400305D01*
X50711919Y-86400307D01*
X50849924Y-86492519D01*
X50892250Y-86520801D01*
X51045599Y-86674150D01*
X51166095Y-86854484D01*
X51203422Y-86944600D01*
X51249089Y-87054850D01*
X51257264Y-87095948D01*
X51291400Y-87267560D01*
X51291400Y-87484440D01*
X51249089Y-87697149D01*
X51166095Y-87897516D01*
X51045599Y-88077850D01*
X50892250Y-88231199D01*
X50711916Y-88351695D01*
X50582390Y-88405346D01*
X50511550Y-88434689D01*
X50405195Y-88455844D01*
X50298840Y-88477000D01*
X50081960Y-88477000D01*
X49975605Y-88455844D01*
X49869250Y-88434689D01*
X49798410Y-88405346D01*
X49668884Y-88351695D01*
X49488550Y-88231199D01*
X49335201Y-88077850D01*
X49214705Y-87897516D01*
X49131711Y-87697149D01*
X49089400Y-87484440D01*
X49089400Y-87267560D01*
X49123536Y-87095948D01*
X49131711Y-87054850D01*
X49177378Y-86944600D01*
X49214705Y-86854484D01*
X49335201Y-86674150D01*
X49488550Y-86520801D01*
X49530877Y-86492519D01*
X49668881Y-86400307D01*
X49668884Y-86400305D01*
X49798410Y-86346654D01*
X49869250Y-86317311D01*
X49975606Y-86296155D01*
X50081960Y-86275000D01*
X50298840Y-86275000D01*
X50405194Y-86296155D01*
X50405194Y-86296155D01*
G37*
G36*
X66618228Y-85545766D02*
X66773100Y-85609916D01*
X66912481Y-85703048D01*
X67031015Y-85821582D01*
X67124147Y-85960963D01*
X67188297Y-86115835D01*
X67221000Y-86280247D01*
X67221000Y-86447879D01*
X67188297Y-86612291D01*
X67124147Y-86767163D01*
X67031015Y-86906544D01*
X66912481Y-87025078D01*
X66773100Y-87118210D01*
X66618228Y-87182360D01*
X66453816Y-87215063D01*
X66286184Y-87215063D01*
X66121772Y-87182360D01*
X65966900Y-87118210D01*
X65827519Y-87025078D01*
X65827518Y-87025077D01*
X65819444Y-87019682D01*
X65815446Y-87016400D01*
X65793835Y-87004849D01*
X65770386Y-86997736D01*
X65746000Y-86995334D01*
X65721614Y-86997736D01*
X65698165Y-87004849D01*
X65676554Y-87016400D01*
X65657612Y-87031946D01*
X65642066Y-87050888D01*
X65630515Y-87072499D01*
X65623402Y-87095948D01*
X65621296Y-87117328D01*
X65621000Y-87118816D01*
X65588297Y-87283228D01*
X65524147Y-87438100D01*
X65431015Y-87577481D01*
X65312481Y-87696015D01*
X65173100Y-87789147D01*
X65018228Y-87853297D01*
X64853816Y-87886000D01*
X64686184Y-87886000D01*
X64521772Y-87853297D01*
X64366900Y-87789147D01*
X64227519Y-87696015D01*
X64108985Y-87577481D01*
X64015853Y-87438100D01*
X63951703Y-87283228D01*
X63919000Y-87118816D01*
X63919000Y-86951184D01*
X63951703Y-86786772D01*
X64015853Y-86631900D01*
X64108985Y-86492519D01*
X64227519Y-86373985D01*
X64366900Y-86280853D01*
X64521772Y-86216703D01*
X64686184Y-86184000D01*
X64853816Y-86184000D01*
X65018228Y-86216703D01*
X65173100Y-86280853D01*
X65312481Y-86373985D01*
X65312482Y-86373986D01*
X65320556Y-86379381D01*
X65324554Y-86382663D01*
X65346165Y-86394214D01*
X65369614Y-86401327D01*
X65394000Y-86403729D01*
X65418386Y-86401327D01*
X65441835Y-86394214D01*
X65463446Y-86382663D01*
X65482388Y-86367117D01*
X65497934Y-86348175D01*
X65509485Y-86326564D01*
X65516598Y-86303115D01*
X65518704Y-86281735D01*
X65520044Y-86275000D01*
X65551703Y-86115835D01*
X65615853Y-85960963D01*
X65708985Y-85821582D01*
X65827519Y-85703048D01*
X65966900Y-85609916D01*
X66121772Y-85545766D01*
X66286184Y-85513063D01*
X66453816Y-85513063D01*
X66618228Y-85545766D01*
X66618228Y-85545766D01*
G37*
G36*
X90142254Y-84011537D02*
X90310072Y-84044918D01*
X90555939Y-84146759D01*
X90776464Y-84294110D01*
X90777215Y-84294612D01*
X90965388Y-84482785D01*
X90965390Y-84482788D01*
X91113241Y-84704061D01*
X91215082Y-84949928D01*
X91267000Y-85210938D01*
X91267000Y-85477062D01*
X91215082Y-85738072D01*
X91113241Y-85983939D01*
X90965890Y-86204464D01*
X90965388Y-86205215D01*
X90777215Y-86393388D01*
X90777212Y-86393390D01*
X90555939Y-86541241D01*
X90310072Y-86643082D01*
X90179567Y-86669041D01*
X90049063Y-86695000D01*
X89782937Y-86695000D01*
X89652433Y-86669041D01*
X89521928Y-86643082D01*
X89276061Y-86541241D01*
X89054788Y-86393390D01*
X89054785Y-86393388D01*
X88866612Y-86205215D01*
X88866110Y-86204464D01*
X88718759Y-85983939D01*
X88616918Y-85738072D01*
X88565000Y-85477062D01*
X88565000Y-85210938D01*
X88616918Y-84949928D01*
X88718759Y-84704061D01*
X88866610Y-84482788D01*
X88866612Y-84482785D01*
X89054785Y-84294612D01*
X89055536Y-84294110D01*
X89276061Y-84146759D01*
X89521928Y-84044918D01*
X89689746Y-84011537D01*
X89782937Y-83993000D01*
X90049063Y-83993000D01*
X90142254Y-84011537D01*
X90142254Y-84011537D01*
G37*
G36*
X109448512Y-81949621D02*
X109550472Y-81959663D01*
X109681291Y-81999347D01*
X109746702Y-82019189D01*
X109927548Y-82115854D01*
X110086059Y-82245941D01*
X110216146Y-82404452D01*
X110312811Y-82585298D01*
X110312811Y-82585299D01*
X110372337Y-82781528D01*
X110392436Y-82985600D01*
X110372337Y-83189672D01*
X110332653Y-83320491D01*
X110312811Y-83385902D01*
X110216146Y-83566748D01*
X110086059Y-83725259D01*
X109927548Y-83855346D01*
X109746702Y-83952011D01*
X109681291Y-83971853D01*
X109550472Y-84011537D01*
X109448512Y-84021579D01*
X109397533Y-84026600D01*
X107315267Y-84026600D01*
X107264288Y-84021579D01*
X107162328Y-84011537D01*
X107031509Y-83971853D01*
X106966098Y-83952011D01*
X106785252Y-83855346D01*
X106626741Y-83725259D01*
X106496654Y-83566748D01*
X106399989Y-83385902D01*
X106380147Y-83320491D01*
X106340463Y-83189672D01*
X106320364Y-82985600D01*
X106340463Y-82781528D01*
X106399989Y-82585299D01*
X106399989Y-82585298D01*
X106496654Y-82404452D01*
X106626741Y-82245941D01*
X106785252Y-82115854D01*
X106966098Y-82019189D01*
X107031509Y-81999347D01*
X107162328Y-81959663D01*
X107264288Y-81949621D01*
X107315267Y-81944600D01*
X109397533Y-81944600D01*
X109448512Y-81949621D01*
X109448512Y-81949621D01*
G37*
G36*
X90145728Y-80512228D02*
X90310072Y-80544918D01*
X90555939Y-80646759D01*
X90776464Y-80794110D01*
X90777215Y-80794612D01*
X90965388Y-80982785D01*
X90965390Y-80982788D01*
X91113241Y-81204061D01*
X91215082Y-81449928D01*
X91215082Y-81449929D01*
X91267000Y-81710937D01*
X91267000Y-81977063D01*
X91241041Y-82107567D01*
X91215082Y-82238072D01*
X91113241Y-82483939D01*
X90965890Y-82704464D01*
X90965388Y-82705215D01*
X90777215Y-82893388D01*
X90777212Y-82893390D01*
X90555939Y-83041241D01*
X90310072Y-83143082D01*
X90179567Y-83169041D01*
X90049063Y-83195000D01*
X89782937Y-83195000D01*
X89652433Y-83169041D01*
X89521928Y-83143082D01*
X89276061Y-83041241D01*
X89054788Y-82893390D01*
X89054785Y-82893388D01*
X88866612Y-82705215D01*
X88866110Y-82704464D01*
X88718759Y-82483939D01*
X88616918Y-82238072D01*
X88590959Y-82107567D01*
X88565000Y-81977063D01*
X88565000Y-81710937D01*
X88616918Y-81449929D01*
X88616918Y-81449928D01*
X88718759Y-81204061D01*
X88866610Y-80982788D01*
X88866612Y-80982785D01*
X89054785Y-80794612D01*
X89055536Y-80794110D01*
X89276061Y-80646759D01*
X89521928Y-80544918D01*
X89686272Y-80512228D01*
X89782937Y-80493000D01*
X90049063Y-80493000D01*
X90145728Y-80512228D01*
X90145728Y-80512228D01*
G37*
G36*
X81954821Y-79425313D02*
X81954824Y-79425314D01*
X81954825Y-79425314D01*
X82115239Y-79473975D01*
X82115241Y-79473976D01*
X82115244Y-79473977D01*
X82263078Y-79552995D01*
X82392659Y-79659341D01*
X82499005Y-79788922D01*
X82578023Y-79936756D01*
X82578024Y-79936759D01*
X82578025Y-79936761D01*
X82626686Y-80097175D01*
X82626687Y-80097179D01*
X82643117Y-80264000D01*
X82626687Y-80430821D01*
X82626686Y-80430824D01*
X82626686Y-80430825D01*
X82601993Y-80512228D01*
X82578023Y-80591244D01*
X82499005Y-80739078D01*
X82392659Y-80868659D01*
X82263078Y-80975005D01*
X82115244Y-81054023D01*
X82115241Y-81054024D01*
X82115239Y-81054025D01*
X81954825Y-81102686D01*
X81954824Y-81102686D01*
X81954821Y-81102687D01*
X81829804Y-81115000D01*
X81746196Y-81115000D01*
X81621179Y-81102687D01*
X81621176Y-81102686D01*
X81621175Y-81102686D01*
X81460761Y-81054025D01*
X81460759Y-81054024D01*
X81460756Y-81054023D01*
X81312922Y-80975005D01*
X81183341Y-80868659D01*
X81076995Y-80739078D01*
X80997977Y-80591244D01*
X80974008Y-80512228D01*
X80949314Y-80430825D01*
X80949314Y-80430824D01*
X80949313Y-80430821D01*
X80932883Y-80264000D01*
X80949313Y-80097179D01*
X80949314Y-80097175D01*
X80997975Y-79936761D01*
X80997976Y-79936759D01*
X80997977Y-79936756D01*
X81076995Y-79788922D01*
X81183341Y-79659341D01*
X81312922Y-79552995D01*
X81460756Y-79473977D01*
X81460759Y-79473976D01*
X81460761Y-79473975D01*
X81621175Y-79425314D01*
X81621176Y-79425314D01*
X81621179Y-79425313D01*
X81746196Y-79413000D01*
X81829804Y-79413000D01*
X81954821Y-79425313D01*
X81954821Y-79425313D01*
G37*
G36*
X74416228Y-79445703D02*
X74571100Y-79509853D01*
X74710481Y-79602985D01*
X74829015Y-79721519D01*
X74922147Y-79860900D01*
X74986297Y-80015772D01*
X75019000Y-80180184D01*
X75019000Y-80347816D01*
X74986297Y-80512228D01*
X74922147Y-80667100D01*
X74829015Y-80806481D01*
X74710481Y-80925015D01*
X74571100Y-81018147D01*
X74416228Y-81082297D01*
X74251816Y-81115000D01*
X74084184Y-81115000D01*
X73919772Y-81082297D01*
X73764900Y-81018147D01*
X73625519Y-80925015D01*
X73506985Y-80806481D01*
X73413853Y-80667100D01*
X73349703Y-80512228D01*
X73317000Y-80347816D01*
X73317000Y-80180184D01*
X73349703Y-80015772D01*
X73413853Y-79860900D01*
X73506985Y-79721519D01*
X73625519Y-79602985D01*
X73764900Y-79509853D01*
X73919772Y-79445703D01*
X74084184Y-79413000D01*
X74251816Y-79413000D01*
X74416228Y-79445703D01*
X74416228Y-79445703D01*
G37*
G36*
X62546000Y-78421000D02*
X60644000Y-78421000D01*
X60644000Y-76519000D01*
X62546000Y-76519000D01*
X62546000Y-78421000D01*
X62546000Y-78421000D01*
G37*
G36*
X68581425Y-76532760D02*
X68581428Y-76532761D01*
X68581429Y-76532761D01*
X68760693Y-76587140D01*
X68760695Y-76587141D01*
X68925905Y-76675448D01*
X69070712Y-76794288D01*
X69189552Y-76939095D01*
X69277859Y-77104305D01*
X69332240Y-77283575D01*
X69350601Y-77470000D01*
X69332240Y-77656425D01*
X69277859Y-77835695D01*
X69189552Y-78000905D01*
X69070712Y-78145712D01*
X68925905Y-78264552D01*
X68925903Y-78264553D01*
X68760693Y-78352860D01*
X68581429Y-78407239D01*
X68581428Y-78407239D01*
X68581425Y-78407240D01*
X68441718Y-78421000D01*
X68348282Y-78421000D01*
X68208575Y-78407240D01*
X68208572Y-78407239D01*
X68208571Y-78407239D01*
X68029307Y-78352860D01*
X67864097Y-78264553D01*
X67864095Y-78264552D01*
X67719288Y-78145712D01*
X67600448Y-78000905D01*
X67512141Y-77835695D01*
X67457760Y-77656425D01*
X67439399Y-77470000D01*
X67457760Y-77283575D01*
X67512141Y-77104305D01*
X67600448Y-76939095D01*
X67719288Y-76794288D01*
X67864095Y-76675448D01*
X68029305Y-76587141D01*
X68029307Y-76587140D01*
X68208571Y-76532761D01*
X68208572Y-76532761D01*
X68208575Y-76532760D01*
X68348282Y-76519000D01*
X68441718Y-76519000D01*
X68581425Y-76532760D01*
X68581425Y-76532760D01*
G37*
G36*
X65181425Y-76532760D02*
X65181428Y-76532761D01*
X65181429Y-76532761D01*
X65360693Y-76587140D01*
X65360695Y-76587141D01*
X65525905Y-76675448D01*
X65670712Y-76794288D01*
X65789552Y-76939095D01*
X65877859Y-77104305D01*
X65932240Y-77283575D01*
X65950601Y-77470000D01*
X65932240Y-77656425D01*
X65877859Y-77835695D01*
X65789552Y-78000905D01*
X65670712Y-78145712D01*
X65525905Y-78264552D01*
X65525903Y-78264553D01*
X65360693Y-78352860D01*
X65181429Y-78407239D01*
X65181428Y-78407239D01*
X65181425Y-78407240D01*
X65041718Y-78421000D01*
X64948282Y-78421000D01*
X64808575Y-78407240D01*
X64808572Y-78407239D01*
X64808571Y-78407239D01*
X64629307Y-78352860D01*
X64464097Y-78264553D01*
X64464095Y-78264552D01*
X64319288Y-78145712D01*
X64200448Y-78000905D01*
X64112141Y-77835695D01*
X64057760Y-77656425D01*
X64039399Y-77470000D01*
X64057760Y-77283575D01*
X64112141Y-77104305D01*
X64200448Y-76939095D01*
X64319288Y-76794288D01*
X64464095Y-76675448D01*
X64629305Y-76587141D01*
X64629307Y-76587140D01*
X64808571Y-76532761D01*
X64808572Y-76532761D01*
X64808575Y-76532760D01*
X64948282Y-76519000D01*
X65041718Y-76519000D01*
X65181425Y-76532760D01*
X65181425Y-76532760D01*
G37*
G36*
X63481425Y-72832760D02*
X63481428Y-72832761D01*
X63481429Y-72832761D01*
X63660693Y-72887140D01*
X63660695Y-72887141D01*
X63825905Y-72975448D01*
X63970712Y-73094288D01*
X64089552Y-73239095D01*
X64089553Y-73239097D01*
X64177860Y-73404307D01*
X64232239Y-73583571D01*
X64232240Y-73583575D01*
X64250601Y-73770000D01*
X64232240Y-73956425D01*
X64232239Y-73956428D01*
X64232239Y-73956429D01*
X64206585Y-74041000D01*
X64177859Y-74135695D01*
X64089552Y-74300905D01*
X63970712Y-74445712D01*
X63825905Y-74564552D01*
X63825903Y-74564553D01*
X63660693Y-74652860D01*
X63481429Y-74707239D01*
X63481428Y-74707239D01*
X63481425Y-74707240D01*
X63341718Y-74721000D01*
X63248282Y-74721000D01*
X63108575Y-74707240D01*
X63108572Y-74707239D01*
X63108571Y-74707239D01*
X62929307Y-74652860D01*
X62764097Y-74564553D01*
X62764095Y-74564552D01*
X62619288Y-74445712D01*
X62500448Y-74300905D01*
X62412141Y-74135695D01*
X62383416Y-74041000D01*
X62357761Y-73956429D01*
X62357761Y-73956428D01*
X62357760Y-73956425D01*
X62339399Y-73770000D01*
X62357760Y-73583575D01*
X62357761Y-73583571D01*
X62412140Y-73404307D01*
X62500447Y-73239097D01*
X62500448Y-73239095D01*
X62619288Y-73094288D01*
X62764095Y-72975448D01*
X62929305Y-72887141D01*
X62929307Y-72887140D01*
X63108571Y-72832761D01*
X63108572Y-72832761D01*
X63108575Y-72832760D01*
X63248282Y-72819000D01*
X63341718Y-72819000D01*
X63481425Y-72832760D01*
X63481425Y-72832760D01*
G37*
G36*
X66881425Y-72832760D02*
X66881428Y-72832761D01*
X66881429Y-72832761D01*
X67060693Y-72887140D01*
X67060695Y-72887141D01*
X67225905Y-72975448D01*
X67370712Y-73094288D01*
X67489552Y-73239095D01*
X67489553Y-73239097D01*
X67577860Y-73404307D01*
X67632239Y-73583571D01*
X67632240Y-73583575D01*
X67650601Y-73770000D01*
X67632240Y-73956425D01*
X67632239Y-73956428D01*
X67632239Y-73956429D01*
X67606585Y-74041000D01*
X67577859Y-74135695D01*
X67489552Y-74300905D01*
X67370712Y-74445712D01*
X67225905Y-74564552D01*
X67225903Y-74564553D01*
X67060693Y-74652860D01*
X66881429Y-74707239D01*
X66881428Y-74707239D01*
X66881425Y-74707240D01*
X66741718Y-74721000D01*
X66648282Y-74721000D01*
X66508575Y-74707240D01*
X66508572Y-74707239D01*
X66508571Y-74707239D01*
X66329307Y-74652860D01*
X66164097Y-74564553D01*
X66164095Y-74564552D01*
X66019288Y-74445712D01*
X65900448Y-74300905D01*
X65812141Y-74135695D01*
X65783416Y-74041000D01*
X65757761Y-73956429D01*
X65757761Y-73956428D01*
X65757760Y-73956425D01*
X65739399Y-73770000D01*
X65757760Y-73583575D01*
X65757761Y-73583571D01*
X65812140Y-73404307D01*
X65900447Y-73239097D01*
X65900448Y-73239095D01*
X66019288Y-73094288D01*
X66164095Y-72975448D01*
X66329305Y-72887141D01*
X66329307Y-72887140D01*
X66508571Y-72832761D01*
X66508572Y-72832761D01*
X66508575Y-72832760D01*
X66648282Y-72819000D01*
X66741718Y-72819000D01*
X66881425Y-72832760D01*
X66881425Y-72832760D01*
G37*
G36*
X49905256Y-70781298D02*
X50011579Y-70802447D01*
X50312042Y-70926903D01*
X50578852Y-71105180D01*
X50582454Y-71107587D01*
X50812413Y-71337546D01*
X50812415Y-71337549D01*
X50993097Y-71607958D01*
X51117553Y-71908421D01*
X51181000Y-72227391D01*
X51181000Y-72552609D01*
X51125275Y-72832760D01*
X51117553Y-72871578D01*
X50993098Y-73172040D01*
X50812413Y-73442454D01*
X50582454Y-73672413D01*
X50582451Y-73672415D01*
X50312042Y-73853097D01*
X50011579Y-73977553D01*
X49905256Y-73998702D01*
X49692611Y-74041000D01*
X49367389Y-74041000D01*
X49154744Y-73998702D01*
X49048421Y-73977553D01*
X48747958Y-73853097D01*
X48477549Y-73672415D01*
X48477546Y-73672413D01*
X48247587Y-73442454D01*
X48066902Y-73172040D01*
X47942447Y-72871578D01*
X47934726Y-72832760D01*
X47879000Y-72552609D01*
X47879000Y-72227391D01*
X47942447Y-71908421D01*
X48066903Y-71607958D01*
X48247585Y-71337549D01*
X48247587Y-71337546D01*
X48477546Y-71107587D01*
X48481148Y-71105180D01*
X48747958Y-70926903D01*
X49048421Y-70802447D01*
X49154744Y-70781298D01*
X49367389Y-70739000D01*
X49692611Y-70739000D01*
X49905256Y-70781298D01*
X49905256Y-70781298D01*
G37*
G36*
X112135256Y-70781298D02*
X112241579Y-70802447D01*
X112542042Y-70926903D01*
X112808852Y-71105180D01*
X112812454Y-71107587D01*
X113042413Y-71337546D01*
X113042415Y-71337549D01*
X113223097Y-71607958D01*
X113347553Y-71908421D01*
X113411000Y-72227391D01*
X113411000Y-72552609D01*
X113355275Y-72832760D01*
X113347553Y-72871578D01*
X113223098Y-73172040D01*
X113042413Y-73442454D01*
X112812454Y-73672413D01*
X112812451Y-73672415D01*
X112542042Y-73853097D01*
X112241579Y-73977553D01*
X112135256Y-73998702D01*
X111922611Y-74041000D01*
X111597389Y-74041000D01*
X111384744Y-73998702D01*
X111278421Y-73977553D01*
X110977958Y-73853097D01*
X110707549Y-73672415D01*
X110707546Y-73672413D01*
X110477587Y-73442454D01*
X110296902Y-73172040D01*
X110172447Y-72871578D01*
X110164726Y-72832760D01*
X110109000Y-72552609D01*
X110109000Y-72227391D01*
X110172447Y-71908421D01*
X110296903Y-71607958D01*
X110477585Y-71337549D01*
X110477587Y-71337546D01*
X110707546Y-71107587D01*
X110711148Y-71105180D01*
X110977958Y-70926903D01*
X111278421Y-70802447D01*
X111384744Y-70781298D01*
X111597389Y-70739000D01*
X111922611Y-70739000D01*
X112135256Y-70781298D01*
X112135256Y-70781298D01*
G37*
M02*
