G04 #@! TF.GenerationSoftware,KiCad,Pcbnew,5.0.2-bee76a0~70~ubuntu18.04.1*
G04 #@! TF.CreationDate,2019-02-20T20:23:57+00:00*
G04 #@! TF.ProjectId,lm2596_cc_vc,6c6d3235-3936-45f6-9363-5f76632e6b69,rev?*
G04 #@! TF.SameCoordinates,Original*
G04 #@! TF.FileFunction,Other,Fab,Top*
%FSLAX46Y46*%
G04 Gerber Fmt 4.6, Leading zero omitted, Abs format (unit mm)*
G04 Created by KiCad (PCBNEW 5.0.2-bee76a0~70~ubuntu18.04.1) date Wed 20 Feb 2019 20:23:57 GMT*
%MOMM*%
%LPD*%
G01*
G04 APERTURE LIST*
%ADD10C,0.100000*%
%ADD11C,0.150000*%
G04 APERTURE END LIST*
D10*
G04 #@! TO.C,R7*
X96957000Y-119873000D02*
X103957000Y-119873000D01*
X96957000Y-128873000D02*
X103957000Y-128873000D01*
X96957000Y-118873000D02*
X96957000Y-129873000D01*
X103957000Y-118873000D02*
X96957000Y-118873000D01*
X103957000Y-129873000D02*
X103957000Y-118873000D01*
X96957000Y-129873000D02*
X103957000Y-129873000D01*
G04 #@! TO.C,R3*
X104020500Y-143017000D02*
X97020500Y-143017000D01*
X104020500Y-134017000D02*
X97020500Y-134017000D01*
X104020500Y-144017000D02*
X104020500Y-133017000D01*
X97020500Y-144017000D02*
X104020500Y-144017000D01*
X97020500Y-133017000D02*
X97020500Y-144017000D01*
X104020500Y-133017000D02*
X97020500Y-133017000D01*
G04 #@! TO.C,U3*
X82550000Y-130394200D02*
X82550000Y-125044200D01*
X82550000Y-125044200D02*
X92710000Y-125044200D01*
X92710000Y-125044200D02*
X92710000Y-131394200D01*
X92710000Y-131394200D02*
X83550000Y-131394200D01*
X83550000Y-131394200D02*
X82550000Y-130394200D01*
G04 #@! TO.C,J1*
X45790400Y-86126000D02*
X45790400Y-88626000D01*
X46790400Y-86126000D02*
X45790400Y-86126000D01*
X46790400Y-88626000D02*
X46790400Y-86126000D01*
X45790400Y-88626000D02*
X46790400Y-88626000D01*
X49242400Y-86580000D02*
X50986400Y-88324000D01*
X49394400Y-86427000D02*
X51138400Y-88171000D01*
X45790400Y-91206000D02*
X45790400Y-93706000D01*
X46790400Y-91206000D02*
X45790400Y-91206000D01*
X46790400Y-93706000D02*
X46790400Y-91206000D01*
X45790400Y-93706000D02*
X46790400Y-93706000D01*
X49242400Y-91660000D02*
X50986400Y-93405000D01*
X49394400Y-91507000D02*
X51138400Y-93252000D01*
X47640400Y-94996000D02*
X47640400Y-84836000D01*
X52640400Y-94996000D02*
X52640400Y-84836000D01*
X53740400Y-94996000D02*
X53740400Y-84836000D01*
X53740400Y-94996000D02*
X45790400Y-94996000D01*
X54240400Y-94496000D02*
X53740400Y-94996000D01*
X54240400Y-84836000D02*
X54240400Y-94496000D01*
X45790400Y-84836000D02*
X54240400Y-84836000D01*
X45790400Y-94996000D02*
X45790400Y-84836000D01*
X51440400Y-87376000D02*
G75*
G03X51440400Y-87376000I-1250000J0D01*
G01*
X51440400Y-92456000D02*
G75*
G03X51440400Y-92456000I-1250000J0D01*
G01*
G04 #@! TO.C,J5*
X103297701Y-89548572D02*
G75*
G03X104226400Y-89405600I408699J432972D01*
G01*
X103284866Y-86445624D02*
G75*
G03X103356400Y-89605600I1361534J-1549976D01*
G01*
X104197818Y-89445429D02*
G75*
G03X104236400Y-86455600I-1911418J1519829D01*
G01*
X104270396Y-86499980D02*
G75*
G03X103306400Y-86455600I-503996J-455620D01*
G01*
X103297701Y-84548572D02*
G75*
G03X104226400Y-84405600I408699J432972D01*
G01*
X103294713Y-81447361D02*
G75*
G03X103356400Y-84595600I1351687J-1548239D01*
G01*
X104188137Y-84437933D02*
G75*
G03X104236400Y-81455600I-1901737J1522333D01*
G01*
X104280395Y-81500068D02*
G75*
G03X103306400Y-81445600I-513995J-455532D01*
G01*
X108106400Y-84625600D02*
X108106400Y-81315600D01*
X108106400Y-85005600D02*
X108106400Y-84625600D01*
X108106400Y-80935600D02*
X108106400Y-81315600D01*
X107716400Y-81315600D02*
X107716400Y-84625600D01*
X107716400Y-80375600D02*
X107716400Y-81315600D01*
X107716400Y-86325600D02*
X107716400Y-84625600D01*
X107716400Y-89625600D02*
X107716400Y-86325600D01*
X107716400Y-90565600D02*
X107716400Y-89625600D01*
X108106400Y-86325600D02*
X108106400Y-89625600D01*
X108106400Y-85945600D02*
X108106400Y-86325600D01*
X108106400Y-90005600D02*
X108106400Y-89625600D01*
X104036400Y-89475600D02*
X103406400Y-86425600D01*
X103906400Y-89605600D02*
X103276400Y-86545600D01*
X104036400Y-84465600D02*
X103406400Y-81425600D01*
X103906400Y-84595600D02*
X103276400Y-81545600D01*
X102386400Y-85945600D02*
X102386400Y-90005600D01*
X104926400Y-90005600D02*
X102386400Y-90005600D01*
X104926400Y-85945600D02*
X104926400Y-90005600D01*
X104926400Y-85945600D02*
X102386400Y-85945600D01*
X104926400Y-80935600D02*
X104926400Y-85005600D01*
X102386400Y-80935600D02*
X104926400Y-80935600D01*
X102386400Y-85005600D02*
X102386400Y-80935600D01*
X104926400Y-85005600D02*
X102386400Y-85005600D01*
X105186400Y-80375600D02*
X106706400Y-80375600D01*
X105186400Y-90565600D02*
X102136400Y-90565600D01*
X105186400Y-90565600D02*
X105186400Y-80375600D01*
X107716400Y-80375600D02*
X112416400Y-80375600D01*
X106706400Y-80375600D02*
X107716400Y-80375600D01*
X107716400Y-90565600D02*
X105186400Y-90565600D01*
X114576400Y-90565600D02*
X107716400Y-90565600D01*
X108866400Y-81315600D02*
X108866400Y-81705600D01*
X108866400Y-84625600D02*
X108866400Y-84245600D01*
X108866400Y-86325600D02*
X108866400Y-86705600D01*
X108866400Y-89625600D02*
X108866400Y-89245600D01*
X112036400Y-89625600D02*
X108866400Y-89625600D01*
X112036400Y-86325600D02*
X112036400Y-89625600D01*
X112036400Y-86325600D02*
X108866400Y-86325600D01*
X112036400Y-84625600D02*
X108866400Y-84625600D01*
X112036400Y-81315600D02*
X112036400Y-84625600D01*
X112036400Y-81315600D02*
X108866400Y-81315600D01*
X112676400Y-90005600D02*
X114576400Y-90005600D01*
X112676400Y-85945600D02*
X108106400Y-85945600D01*
X112676400Y-85945600D02*
X112676400Y-90005600D01*
X112676400Y-80935600D02*
X114576400Y-80935600D01*
X112676400Y-85005600D02*
X108106400Y-85005600D01*
X112676400Y-85005600D02*
X112676400Y-80935600D01*
X114576400Y-90005600D02*
X114576400Y-85945600D01*
X114576400Y-90565600D02*
X114576400Y-90005600D01*
X108106400Y-90005600D02*
X112676400Y-90005600D01*
X114576400Y-85945600D02*
X114576400Y-85005600D01*
X114576400Y-85945600D02*
X112676400Y-85945600D01*
X114576400Y-80935600D02*
X114576400Y-80375600D01*
X114576400Y-85005600D02*
X114576400Y-80935600D01*
X108106400Y-80935600D02*
X112676400Y-80935600D01*
X114576400Y-85005600D02*
X112676400Y-85005600D01*
X112166400Y-79875600D02*
X113816400Y-79875600D01*
X112416400Y-80375600D02*
X113566400Y-80375600D01*
X112166400Y-79875600D02*
X112416400Y-80375600D01*
X113566400Y-80375600D02*
X114576400Y-80375600D01*
X113816400Y-79875600D02*
X113566400Y-80375600D01*
X106956400Y-79875600D02*
X106706400Y-80375600D01*
X102136400Y-79875600D02*
X106956400Y-79875600D01*
X102136400Y-80375600D02*
X102136400Y-79875600D01*
X102136400Y-80375600D02*
X102136400Y-90565600D01*
X102136400Y-80375600D02*
X105186400Y-80375600D01*
X110896400Y-84245600D02*
X108106400Y-84245600D01*
X108106400Y-84245600D02*
X108106400Y-81705600D01*
X110896400Y-81705600D02*
X108106400Y-81705600D01*
X110896400Y-84245600D02*
X110896400Y-81705600D01*
X110896400Y-89245600D02*
X108106400Y-89245600D01*
X108106400Y-89245600D02*
X108106400Y-86705600D01*
X110896400Y-86705600D02*
X108106400Y-86705600D01*
X110896400Y-89245600D02*
X110896400Y-86705600D01*
G04 #@! TO.C,C1*
X57913139Y-135996500D02*
X57913139Y-136996500D01*
X57413139Y-136496500D02*
X58413139Y-136496500D01*
X66702000Y-138684000D02*
G75*
G03X66702000Y-138684000I-5000000J0D01*
G01*
G04 #@! TO.C,C2*
X62082500Y-92073861D02*
X63082500Y-92073861D01*
X62582500Y-92573861D02*
X62582500Y-91573861D01*
X69770000Y-88285000D02*
G75*
G03X69770000Y-88285000I-5000000J0D01*
G01*
G04 #@! TO.C,C3*
X76374000Y-128504000D02*
G75*
G03X76374000Y-128504000I-5000000J0D01*
G01*
X73561500Y-124215139D02*
X73561500Y-125215139D01*
X74061500Y-124715139D02*
X73061500Y-124715139D01*
G04 #@! TO.C,C4*
X83974000Y-89916000D02*
G75*
G03X83974000Y-89916000I-5000000J0D01*
G01*
X74685139Y-87728500D02*
X75685139Y-87728500D01*
X75185139Y-87228500D02*
X75185139Y-88228500D01*
G04 #@! TO.C,D1*
X78054000Y-112716000D02*
X78054000Y-117916000D01*
X78054000Y-117916000D02*
X87554000Y-117916000D01*
X87554000Y-117916000D02*
X87554000Y-112716000D01*
X87554000Y-112716000D02*
X78054000Y-112716000D01*
X75184000Y-115316000D02*
X78054000Y-115316000D01*
X90424000Y-115316000D02*
X87554000Y-115316000D01*
X79479000Y-112716000D02*
X79479000Y-117916000D01*
X79579000Y-112716000D02*
X79579000Y-117916000D01*
X79379000Y-112716000D02*
X79379000Y-117916000D01*
G04 #@! TO.C,D2*
X100898000Y-103200000D02*
X95698000Y-103200000D01*
X95698000Y-103200000D02*
X95698000Y-112700000D01*
X95698000Y-112700000D02*
X100898000Y-112700000D01*
X100898000Y-112700000D02*
X100898000Y-103200000D01*
X98298000Y-100330000D02*
X98298000Y-103200000D01*
X98298000Y-115570000D02*
X98298000Y-112700000D01*
X100898000Y-104625000D02*
X95698000Y-104625000D01*
X100898000Y-104725000D02*
X95698000Y-104725000D01*
X100898000Y-104525000D02*
X95698000Y-104525000D01*
G04 #@! TO.C,D3*
X79379000Y-100524000D02*
X79379000Y-105724000D01*
X79579000Y-100524000D02*
X79579000Y-105724000D01*
X79479000Y-100524000D02*
X79479000Y-105724000D01*
X90424000Y-103124000D02*
X87554000Y-103124000D01*
X75184000Y-103124000D02*
X78054000Y-103124000D01*
X87554000Y-100524000D02*
X78054000Y-100524000D01*
X87554000Y-105724000D02*
X87554000Y-100524000D01*
X78054000Y-105724000D02*
X87554000Y-105724000D01*
X78054000Y-100524000D02*
X78054000Y-105724000D01*
G04 #@! TO.C,J2*
X37785000Y-111045000D02*
X36785000Y-101045000D01*
X38785000Y-111045000D02*
X37785000Y-101045000D01*
X39785000Y-111045000D02*
X38785000Y-101045000D01*
X40785000Y-111045000D02*
X39785000Y-101045000D01*
X41785000Y-111045000D02*
X40785000Y-101045000D01*
X42785000Y-111045000D02*
X41785000Y-101045000D01*
X30715000Y-106045000D02*
G75*
G03X30715000Y-106045000I-1000000J0D01*
G01*
X36385000Y-101245000D02*
X24485000Y-101245000D01*
X24485000Y-101245000D02*
X24485000Y-110845000D01*
X24485000Y-110845000D02*
X36385000Y-110845000D01*
X45085000Y-99695000D02*
X36385000Y-99695000D01*
X36385000Y-99695000D02*
X36385000Y-112395000D01*
X36385000Y-112395000D02*
X45085000Y-112395000D01*
X59985000Y-113395000D02*
X59985000Y-98695000D01*
X59985000Y-98695000D02*
X45085000Y-98695000D01*
X45085000Y-98695000D02*
X45085000Y-113395000D01*
X45085000Y-113395000D02*
X59985000Y-113395000D01*
X43785000Y-111045000D02*
X42785000Y-101045000D01*
G04 #@! TO.C,J3*
X67310000Y-109220000D02*
X65405000Y-109220000D01*
X65405000Y-109220000D02*
X65405000Y-101600000D01*
X65405000Y-101600000D02*
X67945000Y-101600000D01*
X67945000Y-101600000D02*
X67945000Y-108585000D01*
X67945000Y-108585000D02*
X67310000Y-109220000D01*
G04 #@! TO.C,J4*
X93599000Y-91694000D02*
X94234000Y-92329000D01*
X89154000Y-91694000D02*
X93599000Y-91694000D01*
X89154000Y-94234000D02*
X89154000Y-91694000D01*
X94234000Y-94234000D02*
X89154000Y-94234000D01*
X94234000Y-92329000D02*
X94234000Y-94234000D01*
G04 #@! TO.C,L1*
X65500000Y-120396000D02*
G75*
G03X65500000Y-120396000I-3750000J0D01*
G01*
G04 #@! TO.C,L2*
X93666000Y-83594000D02*
G75*
G03X93666000Y-83594000I-3750000J0D01*
G01*
G04 #@! TO.C,R1*
X86766000Y-136672000D02*
X86766000Y-139172000D01*
X86766000Y-139172000D02*
X93066000Y-139172000D01*
X93066000Y-139172000D02*
X93066000Y-136672000D01*
X93066000Y-136672000D02*
X86766000Y-136672000D01*
X86106000Y-137922000D02*
X86766000Y-137922000D01*
X93726000Y-137922000D02*
X93066000Y-137922000D01*
G04 #@! TO.C,R2*
X86106000Y-141986000D02*
X86766000Y-141986000D01*
X93726000Y-141986000D02*
X93066000Y-141986000D01*
X86766000Y-143236000D02*
X93066000Y-143236000D01*
X86766000Y-140736000D02*
X86766000Y-143236000D01*
X93066000Y-140736000D02*
X86766000Y-140736000D01*
X93066000Y-143236000D02*
X93066000Y-140736000D01*
G04 #@! TO.C,R4*
X74828000Y-79014000D02*
X74828000Y-81514000D01*
X74828000Y-81514000D02*
X81128000Y-81514000D01*
X81128000Y-81514000D02*
X81128000Y-79014000D01*
X81128000Y-79014000D02*
X74828000Y-79014000D01*
X74168000Y-80264000D02*
X74828000Y-80264000D01*
X81788000Y-80264000D02*
X81128000Y-80264000D01*
G04 #@! TO.C,R5*
X74777600Y-142138400D02*
X75437600Y-142138400D01*
X82397600Y-142138400D02*
X81737600Y-142138400D01*
X75437600Y-143388400D02*
X81737600Y-143388400D01*
X75437600Y-140888400D02*
X75437600Y-143388400D01*
X81737600Y-140888400D02*
X75437600Y-140888400D01*
X81737600Y-143388400D02*
X81737600Y-140888400D01*
G04 #@! TO.C,R6*
X75386800Y-136316400D02*
X75386800Y-138816400D01*
X75386800Y-138816400D02*
X81686800Y-138816400D01*
X81686800Y-138816400D02*
X81686800Y-136316400D01*
X81686800Y-136316400D02*
X75386800Y-136316400D01*
X74726800Y-137566400D02*
X75386800Y-137566400D01*
X82346800Y-137566400D02*
X81686800Y-137566400D01*
G04 #@! TO.C,RV1*
X107471200Y-129470400D02*
X112471200Y-129470400D01*
X107471200Y-123470400D02*
X107471200Y-129470400D01*
X112471200Y-123470400D02*
X107471200Y-123470400D01*
X112471200Y-129470400D02*
X112471200Y-123470400D01*
X112471200Y-133970400D02*
X107471200Y-133970400D01*
X112471200Y-118970400D02*
X112471200Y-133970400D01*
X107471200Y-118970400D02*
X112471200Y-118970400D01*
X107471200Y-133970400D02*
X107471200Y-118970400D01*
G04 #@! TO.C,RV2*
X107674400Y-112380400D02*
X107674400Y-97380400D01*
X107674400Y-97380400D02*
X112674400Y-97380400D01*
X112674400Y-97380400D02*
X112674400Y-112380400D01*
X112674400Y-112380400D02*
X107674400Y-112380400D01*
X112674400Y-107880400D02*
X112674400Y-101880400D01*
X112674400Y-101880400D02*
X107674400Y-101880400D01*
X107674400Y-101880400D02*
X107674400Y-107880400D01*
X107674400Y-107880400D02*
X112674400Y-107880400D01*
G04 #@! TO.C,U1*
X45394000Y-131902000D02*
X49794000Y-131902000D01*
X49794000Y-131902000D02*
X49794000Y-121902000D01*
X49794000Y-121902000D02*
X45394000Y-121902000D01*
X45394000Y-121902000D02*
X45394000Y-131902000D01*
X46664000Y-131902000D02*
X46664000Y-121902000D01*
X45394000Y-128752000D02*
X46664000Y-128752000D01*
X45394000Y-125052000D02*
X46664000Y-125052000D01*
X49794000Y-130302000D02*
X53594000Y-130302000D01*
X49794000Y-128602000D02*
X49894000Y-128602000D01*
X49794000Y-126902000D02*
X53594000Y-126902000D01*
X49794000Y-125202000D02*
X49894000Y-125202000D01*
X49794000Y-123502000D02*
X53594000Y-123502000D01*
G04 #@! TO.C,U2*
X68395000Y-73670000D02*
X68395000Y-77470000D01*
X66695000Y-73670000D02*
X66695000Y-73770000D01*
X64995000Y-73670000D02*
X64995000Y-77470000D01*
X63295000Y-73670000D02*
X63295000Y-73770000D01*
X61595000Y-73670000D02*
X61595000Y-77470000D01*
X66845000Y-69270000D02*
X66845000Y-70540000D01*
X63145000Y-69270000D02*
X63145000Y-70540000D01*
X59995000Y-70540000D02*
X69995000Y-70540000D01*
X69995000Y-69270000D02*
X59995000Y-69270000D01*
X69995000Y-73670000D02*
X69995000Y-69270000D01*
X59995000Y-73670000D02*
X69995000Y-73670000D01*
X59995000Y-69270000D02*
X59995000Y-73670000D01*
G04 #@! TD*
G04 #@! TO.C,R7*
D11*
X104659380Y-125134904D02*
X104659380Y-125039666D01*
X104707000Y-124944428D01*
X104754619Y-124896809D01*
X104849857Y-124849190D01*
X105040333Y-124801571D01*
X105278428Y-124801571D01*
X105468904Y-124849190D01*
X105564142Y-124896809D01*
X105611761Y-124944428D01*
X105659380Y-125039666D01*
X105659380Y-125134904D01*
X105611761Y-125230142D01*
X105564142Y-125277761D01*
X105468904Y-125325380D01*
X105278428Y-125373000D01*
X105040333Y-125373000D01*
X104849857Y-125325380D01*
X104754619Y-125277761D01*
X104707000Y-125230142D01*
X104659380Y-125134904D01*
X105564142Y-124373000D02*
X105611761Y-124325380D01*
X105659380Y-124373000D01*
X105611761Y-124420619D01*
X105564142Y-124373000D01*
X105659380Y-124373000D01*
X105659380Y-123373000D02*
X105659380Y-123944428D01*
X105659380Y-123658714D02*
X104659380Y-123658714D01*
X104802238Y-123753952D01*
X104897476Y-123849190D01*
X104945095Y-123944428D01*
X100909380Y-124539666D02*
X100433190Y-124873000D01*
X100909380Y-125111095D02*
X99909380Y-125111095D01*
X99909380Y-124730142D01*
X99957000Y-124634904D01*
X100004619Y-124587285D01*
X100099857Y-124539666D01*
X100242714Y-124539666D01*
X100337952Y-124587285D01*
X100385571Y-124634904D01*
X100433190Y-124730142D01*
X100433190Y-125111095D01*
X99909380Y-124206333D02*
X99909380Y-123539666D01*
X100909380Y-123968238D01*
G04 #@! TO.C,R3*
X95222880Y-139278904D02*
X95222880Y-139183666D01*
X95270500Y-139088428D01*
X95318119Y-139040809D01*
X95413357Y-138993190D01*
X95603833Y-138945571D01*
X95841928Y-138945571D01*
X96032404Y-138993190D01*
X96127642Y-139040809D01*
X96175261Y-139088428D01*
X96222880Y-139183666D01*
X96222880Y-139278904D01*
X96175261Y-139374142D01*
X96127642Y-139421761D01*
X96032404Y-139469380D01*
X95841928Y-139517000D01*
X95603833Y-139517000D01*
X95413357Y-139469380D01*
X95318119Y-139421761D01*
X95270500Y-139374142D01*
X95222880Y-139278904D01*
X96127642Y-138517000D02*
X96175261Y-138469380D01*
X96222880Y-138517000D01*
X96175261Y-138564619D01*
X96127642Y-138517000D01*
X96222880Y-138517000D01*
X96222880Y-137517000D02*
X96222880Y-138088428D01*
X96222880Y-137802714D02*
X95222880Y-137802714D01*
X95365738Y-137897952D01*
X95460976Y-137993190D01*
X95508595Y-138088428D01*
X100972880Y-138683666D02*
X100496690Y-139017000D01*
X100972880Y-139255095D02*
X99972880Y-139255095D01*
X99972880Y-138874142D01*
X100020500Y-138778904D01*
X100068119Y-138731285D01*
X100163357Y-138683666D01*
X100306214Y-138683666D01*
X100401452Y-138731285D01*
X100449071Y-138778904D01*
X100496690Y-138874142D01*
X100496690Y-139255095D01*
X99972880Y-138350333D02*
X99972880Y-137731285D01*
X100353833Y-138064619D01*
X100353833Y-137921761D01*
X100401452Y-137826523D01*
X100449071Y-137778904D01*
X100544309Y-137731285D01*
X100782404Y-137731285D01*
X100877642Y-137778904D01*
X100925261Y-137826523D01*
X100972880Y-137921761D01*
X100972880Y-138207476D01*
X100925261Y-138302714D01*
X100877642Y-138350333D01*
G04 #@! TO.C,U3*
X94222380Y-130981104D02*
X93222380Y-130981104D01*
X93936666Y-130647771D01*
X93222380Y-130314438D01*
X94222380Y-130314438D01*
X94127142Y-129266819D02*
X94174761Y-129314438D01*
X94222380Y-129457295D01*
X94222380Y-129552533D01*
X94174761Y-129695390D01*
X94079523Y-129790628D01*
X93984285Y-129838247D01*
X93793809Y-129885866D01*
X93650952Y-129885866D01*
X93460476Y-129838247D01*
X93365238Y-129790628D01*
X93270000Y-129695390D01*
X93222380Y-129552533D01*
X93222380Y-129457295D01*
X93270000Y-129314438D01*
X93317619Y-129266819D01*
X94222380Y-128838247D02*
X93222380Y-128838247D01*
X93222380Y-128457295D01*
X93270000Y-128362057D01*
X93317619Y-128314438D01*
X93412857Y-128266819D01*
X93555714Y-128266819D01*
X93650952Y-128314438D01*
X93698571Y-128362057D01*
X93746190Y-128457295D01*
X93746190Y-128838247D01*
X93222380Y-127409676D02*
X93222380Y-127600152D01*
X93270000Y-127695390D01*
X93317619Y-127743009D01*
X93460476Y-127838247D01*
X93650952Y-127885866D01*
X94031904Y-127885866D01*
X94127142Y-127838247D01*
X94174761Y-127790628D01*
X94222380Y-127695390D01*
X94222380Y-127504914D01*
X94174761Y-127409676D01*
X94127142Y-127362057D01*
X94031904Y-127314438D01*
X93793809Y-127314438D01*
X93698571Y-127362057D01*
X93650952Y-127409676D01*
X93603333Y-127504914D01*
X93603333Y-127695390D01*
X93650952Y-127790628D01*
X93698571Y-127838247D01*
X93793809Y-127885866D01*
X93222380Y-126695390D02*
X93222380Y-126600152D01*
X93270000Y-126504914D01*
X93317619Y-126457295D01*
X93412857Y-126409676D01*
X93603333Y-126362057D01*
X93841428Y-126362057D01*
X94031904Y-126409676D01*
X94127142Y-126457295D01*
X94174761Y-126504914D01*
X94222380Y-126600152D01*
X94222380Y-126695390D01*
X94174761Y-126790628D01*
X94127142Y-126838247D01*
X94031904Y-126885866D01*
X93841428Y-126933485D01*
X93603333Y-126933485D01*
X93412857Y-126885866D01*
X93317619Y-126838247D01*
X93270000Y-126790628D01*
X93222380Y-126695390D01*
X93317619Y-125981104D02*
X93270000Y-125933485D01*
X93222380Y-125838247D01*
X93222380Y-125600152D01*
X93270000Y-125504914D01*
X93317619Y-125457295D01*
X93412857Y-125409676D01*
X93508095Y-125409676D01*
X93650952Y-125457295D01*
X94222380Y-126028723D01*
X94222380Y-125409676D01*
X87082380Y-128981104D02*
X87891904Y-128981104D01*
X87987142Y-128933485D01*
X88034761Y-128885866D01*
X88082380Y-128790628D01*
X88082380Y-128600152D01*
X88034761Y-128504914D01*
X87987142Y-128457295D01*
X87891904Y-128409676D01*
X87082380Y-128409676D01*
X87082380Y-128028723D02*
X87082380Y-127409676D01*
X87463333Y-127743009D01*
X87463333Y-127600152D01*
X87510952Y-127504914D01*
X87558571Y-127457295D01*
X87653809Y-127409676D01*
X87891904Y-127409676D01*
X87987142Y-127457295D01*
X88034761Y-127504914D01*
X88082380Y-127600152D01*
X88082380Y-127885866D01*
X88034761Y-127981104D01*
X87987142Y-128028723D01*
G04 #@! TO.C,REF\002A\002A*
X37339523Y-145222380D02*
X37339523Y-144222380D01*
X37672857Y-144936666D01*
X38006190Y-144222380D01*
X38006190Y-145222380D01*
X38625238Y-145222380D02*
X38529999Y-145174761D01*
X38482380Y-145127142D01*
X38434761Y-145031904D01*
X38434761Y-144746190D01*
X38482380Y-144650952D01*
X38529999Y-144603333D01*
X38625238Y-144555714D01*
X38768095Y-144555714D01*
X38863333Y-144603333D01*
X38910952Y-144650952D01*
X38958571Y-144746190D01*
X38958571Y-145031904D01*
X38910952Y-145127142D01*
X38863333Y-145174761D01*
X38768095Y-145222380D01*
X38625238Y-145222380D01*
X39815714Y-144555714D02*
X39815714Y-145222380D01*
X39387142Y-144555714D02*
X39387142Y-145079523D01*
X39434761Y-145174761D01*
X39529999Y-145222380D01*
X39672857Y-145222380D01*
X39768095Y-145174761D01*
X39815714Y-145127142D01*
X40291904Y-144555714D02*
X40291904Y-145222380D01*
X40291904Y-144650952D02*
X40339523Y-144603333D01*
X40434761Y-144555714D01*
X40577619Y-144555714D01*
X40672857Y-144603333D01*
X40720476Y-144698571D01*
X40720476Y-145222380D01*
X41053809Y-144555714D02*
X41434761Y-144555714D01*
X41196666Y-144222380D02*
X41196666Y-145079523D01*
X41244285Y-145174761D01*
X41339523Y-145222380D01*
X41434761Y-145222380D01*
X41768095Y-145222380D02*
X41768095Y-144555714D01*
X41768095Y-144222380D02*
X41720476Y-144270000D01*
X41768095Y-144317619D01*
X41815714Y-144270000D01*
X41768095Y-144222380D01*
X41768095Y-144317619D01*
X42244285Y-144555714D02*
X42244285Y-145222380D01*
X42244285Y-144650952D02*
X42291904Y-144603333D01*
X42387142Y-144555714D01*
X42529999Y-144555714D01*
X42625238Y-144603333D01*
X42672857Y-144698571D01*
X42672857Y-145222380D01*
X43577619Y-144555714D02*
X43577619Y-145365238D01*
X43529999Y-145460476D01*
X43482380Y-145508095D01*
X43387142Y-145555714D01*
X43244285Y-145555714D01*
X43149047Y-145508095D01*
X43577619Y-145174761D02*
X43482380Y-145222380D01*
X43291904Y-145222380D01*
X43196666Y-145174761D01*
X43149047Y-145127142D01*
X43101428Y-145031904D01*
X43101428Y-144746190D01*
X43149047Y-144650952D01*
X43196666Y-144603333D01*
X43291904Y-144555714D01*
X43482380Y-144555714D01*
X43577619Y-144603333D01*
X44053809Y-145222380D02*
X44053809Y-144222380D01*
X44053809Y-144698571D02*
X44625238Y-144698571D01*
X44625238Y-145222380D02*
X44625238Y-144222380D01*
X45244285Y-145222380D02*
X45149047Y-145174761D01*
X45101428Y-145127142D01*
X45053809Y-145031904D01*
X45053809Y-144746190D01*
X45101428Y-144650952D01*
X45149047Y-144603333D01*
X45244285Y-144555714D01*
X45387142Y-144555714D01*
X45482380Y-144603333D01*
X45529999Y-144650952D01*
X45577619Y-144746190D01*
X45577619Y-145031904D01*
X45529999Y-145127142D01*
X45482380Y-145174761D01*
X45387142Y-145222380D01*
X45244285Y-145222380D01*
X46149047Y-145222380D02*
X46053809Y-145174761D01*
X46006190Y-145079523D01*
X46006190Y-144222380D01*
X46910952Y-145174761D02*
X46815714Y-145222380D01*
X46625238Y-145222380D01*
X46529999Y-145174761D01*
X46482380Y-145079523D01*
X46482380Y-144698571D01*
X46529999Y-144603333D01*
X46625238Y-144555714D01*
X46815714Y-144555714D01*
X46910952Y-144603333D01*
X46958571Y-144698571D01*
X46958571Y-144793809D01*
X46482380Y-144889047D01*
X47149047Y-145317619D02*
X47910952Y-145317619D01*
X48053809Y-144222380D02*
X48672857Y-144222380D01*
X48339523Y-144603333D01*
X48482380Y-144603333D01*
X48577619Y-144650952D01*
X48625238Y-144698571D01*
X48672857Y-144793809D01*
X48672857Y-145031904D01*
X48625238Y-145127142D01*
X48577619Y-145174761D01*
X48482380Y-145222380D01*
X48196666Y-145222380D01*
X48101428Y-145174761D01*
X48053809Y-145127142D01*
X49101428Y-145127142D02*
X49149047Y-145174761D01*
X49101428Y-145222380D01*
X49053809Y-145174761D01*
X49101428Y-145127142D01*
X49101428Y-145222380D01*
X49529999Y-144317619D02*
X49577619Y-144270000D01*
X49672857Y-144222380D01*
X49910952Y-144222380D01*
X50006190Y-144270000D01*
X50053809Y-144317619D01*
X50101428Y-144412857D01*
X50101428Y-144508095D01*
X50053809Y-144650952D01*
X49482380Y-145222380D01*
X50101428Y-145222380D01*
X50529999Y-145222380D02*
X50529999Y-144555714D01*
X50529999Y-144650952D02*
X50577619Y-144603333D01*
X50672857Y-144555714D01*
X50815714Y-144555714D01*
X50910952Y-144603333D01*
X50958571Y-144698571D01*
X50958571Y-145222380D01*
X50958571Y-144698571D02*
X51006190Y-144603333D01*
X51101428Y-144555714D01*
X51244285Y-144555714D01*
X51339523Y-144603333D01*
X51387142Y-144698571D01*
X51387142Y-145222380D01*
X51863333Y-145222380D02*
X51863333Y-144555714D01*
X51863333Y-144650952D02*
X51910952Y-144603333D01*
X52006190Y-144555714D01*
X52149047Y-144555714D01*
X52244285Y-144603333D01*
X52291904Y-144698571D01*
X52291904Y-145222380D01*
X52291904Y-144698571D02*
X52339523Y-144603333D01*
X52434761Y-144555714D01*
X52577619Y-144555714D01*
X52672857Y-144603333D01*
X52720476Y-144698571D01*
X52720476Y-145222380D01*
X52958571Y-145317619D02*
X53720476Y-145317619D01*
X53958571Y-145222380D02*
X53958571Y-144222380D01*
X54291904Y-144936666D01*
X54625238Y-144222380D01*
X54625238Y-145222380D01*
X55006190Y-144222380D02*
X55625238Y-144222380D01*
X55291904Y-144603333D01*
X55434761Y-144603333D01*
X55529999Y-144650952D01*
X55577619Y-144698571D01*
X55625238Y-144793809D01*
X55625238Y-145031904D01*
X55577619Y-145127142D01*
X55529999Y-145174761D01*
X55434761Y-145222380D01*
X55149047Y-145222380D01*
X55053809Y-145174761D01*
X55006190Y-145127142D01*
X55815714Y-145317619D02*
X56577619Y-145317619D01*
X56815714Y-145222380D02*
X56815714Y-144222380D01*
X57053809Y-144222380D01*
X57196666Y-144270000D01*
X57291904Y-144365238D01*
X57339523Y-144460476D01*
X57387142Y-144650952D01*
X57387142Y-144793809D01*
X57339523Y-144984285D01*
X57291904Y-145079523D01*
X57196666Y-145174761D01*
X57053809Y-145222380D01*
X56815714Y-145222380D01*
X57815714Y-145222380D02*
X57815714Y-144222380D01*
X58291904Y-145222380D02*
X58291904Y-144222380D01*
X58863333Y-145222380D01*
X58863333Y-144222380D01*
X59387142Y-145222380D02*
X59577619Y-145222380D01*
X59672857Y-145174761D01*
X59720476Y-145127142D01*
X59815714Y-144984285D01*
X59863333Y-144793809D01*
X59863333Y-144412857D01*
X59815714Y-144317619D01*
X59768095Y-144270000D01*
X59672857Y-144222380D01*
X59482380Y-144222380D01*
X59387142Y-144270000D01*
X59339523Y-144317619D01*
X59291904Y-144412857D01*
X59291904Y-144650952D01*
X59339523Y-144746190D01*
X59387142Y-144793809D01*
X59482380Y-144841428D01*
X59672857Y-144841428D01*
X59768095Y-144793809D01*
X59815714Y-144746190D01*
X59863333Y-144650952D01*
X60720476Y-144222380D02*
X60529999Y-144222380D01*
X60434761Y-144270000D01*
X60387142Y-144317619D01*
X60291904Y-144460476D01*
X60244285Y-144650952D01*
X60244285Y-145031904D01*
X60291904Y-145127142D01*
X60339523Y-145174761D01*
X60434761Y-145222380D01*
X60625238Y-145222380D01*
X60720476Y-145174761D01*
X60768095Y-145127142D01*
X60815714Y-145031904D01*
X60815714Y-144793809D01*
X60768095Y-144698571D01*
X60720476Y-144650952D01*
X60625238Y-144603333D01*
X60434761Y-144603333D01*
X60339523Y-144650952D01*
X60291904Y-144698571D01*
X60244285Y-144793809D01*
X61720476Y-144222380D02*
X61244285Y-144222380D01*
X61196666Y-144698571D01*
X61244285Y-144650952D01*
X61339523Y-144603333D01*
X61577619Y-144603333D01*
X61672857Y-144650952D01*
X61720476Y-144698571D01*
X61768095Y-144793809D01*
X61768095Y-145031904D01*
X61720476Y-145127142D01*
X61672857Y-145174761D01*
X61577619Y-145222380D01*
X61339523Y-145222380D01*
X61244285Y-145174761D01*
X61196666Y-145127142D01*
X48496666Y-141422380D02*
X48163333Y-140946190D01*
X47925238Y-141422380D02*
X47925238Y-140422380D01*
X48306190Y-140422380D01*
X48401428Y-140470000D01*
X48449047Y-140517619D01*
X48496666Y-140612857D01*
X48496666Y-140755714D01*
X48449047Y-140850952D01*
X48401428Y-140898571D01*
X48306190Y-140946190D01*
X47925238Y-140946190D01*
X48925238Y-140898571D02*
X49258571Y-140898571D01*
X49401428Y-141422380D02*
X48925238Y-141422380D01*
X48925238Y-140422380D01*
X49401428Y-140422380D01*
X50163333Y-140898571D02*
X49830000Y-140898571D01*
X49830000Y-141422380D02*
X49830000Y-140422380D01*
X50306190Y-140422380D01*
X50830000Y-140422380D02*
X50830000Y-140660476D01*
X50591904Y-140565238D02*
X50830000Y-140660476D01*
X51068095Y-140565238D01*
X50687142Y-140850952D02*
X50830000Y-140660476D01*
X50972857Y-140850952D01*
X51591904Y-140422380D02*
X51591904Y-140660476D01*
X51353809Y-140565238D02*
X51591904Y-140660476D01*
X51830000Y-140565238D01*
X51449047Y-140850952D02*
X51591904Y-140660476D01*
X51734761Y-140850952D01*
X99569523Y-145222380D02*
X99569523Y-144222380D01*
X99902857Y-144936666D01*
X100236190Y-144222380D01*
X100236190Y-145222380D01*
X100855238Y-145222380D02*
X100760000Y-145174761D01*
X100712380Y-145127142D01*
X100664761Y-145031904D01*
X100664761Y-144746190D01*
X100712380Y-144650952D01*
X100760000Y-144603333D01*
X100855238Y-144555714D01*
X100998095Y-144555714D01*
X101093333Y-144603333D01*
X101140952Y-144650952D01*
X101188571Y-144746190D01*
X101188571Y-145031904D01*
X101140952Y-145127142D01*
X101093333Y-145174761D01*
X100998095Y-145222380D01*
X100855238Y-145222380D01*
X102045714Y-144555714D02*
X102045714Y-145222380D01*
X101617142Y-144555714D02*
X101617142Y-145079523D01*
X101664761Y-145174761D01*
X101760000Y-145222380D01*
X101902857Y-145222380D01*
X101998095Y-145174761D01*
X102045714Y-145127142D01*
X102521904Y-144555714D02*
X102521904Y-145222380D01*
X102521904Y-144650952D02*
X102569523Y-144603333D01*
X102664761Y-144555714D01*
X102807619Y-144555714D01*
X102902857Y-144603333D01*
X102950476Y-144698571D01*
X102950476Y-145222380D01*
X103283809Y-144555714D02*
X103664761Y-144555714D01*
X103426666Y-144222380D02*
X103426666Y-145079523D01*
X103474285Y-145174761D01*
X103569523Y-145222380D01*
X103664761Y-145222380D01*
X103998095Y-145222380D02*
X103998095Y-144555714D01*
X103998095Y-144222380D02*
X103950476Y-144270000D01*
X103998095Y-144317619D01*
X104045714Y-144270000D01*
X103998095Y-144222380D01*
X103998095Y-144317619D01*
X104474285Y-144555714D02*
X104474285Y-145222380D01*
X104474285Y-144650952D02*
X104521904Y-144603333D01*
X104617142Y-144555714D01*
X104760000Y-144555714D01*
X104855238Y-144603333D01*
X104902857Y-144698571D01*
X104902857Y-145222380D01*
X105807619Y-144555714D02*
X105807619Y-145365238D01*
X105760000Y-145460476D01*
X105712380Y-145508095D01*
X105617142Y-145555714D01*
X105474285Y-145555714D01*
X105379047Y-145508095D01*
X105807619Y-145174761D02*
X105712380Y-145222380D01*
X105521904Y-145222380D01*
X105426666Y-145174761D01*
X105379047Y-145127142D01*
X105331428Y-145031904D01*
X105331428Y-144746190D01*
X105379047Y-144650952D01*
X105426666Y-144603333D01*
X105521904Y-144555714D01*
X105712380Y-144555714D01*
X105807619Y-144603333D01*
X106283809Y-145222380D02*
X106283809Y-144222380D01*
X106283809Y-144698571D02*
X106855238Y-144698571D01*
X106855238Y-145222380D02*
X106855238Y-144222380D01*
X107474285Y-145222380D02*
X107379047Y-145174761D01*
X107331428Y-145127142D01*
X107283809Y-145031904D01*
X107283809Y-144746190D01*
X107331428Y-144650952D01*
X107379047Y-144603333D01*
X107474285Y-144555714D01*
X107617142Y-144555714D01*
X107712380Y-144603333D01*
X107760000Y-144650952D01*
X107807619Y-144746190D01*
X107807619Y-145031904D01*
X107760000Y-145127142D01*
X107712380Y-145174761D01*
X107617142Y-145222380D01*
X107474285Y-145222380D01*
X108379047Y-145222380D02*
X108283809Y-145174761D01*
X108236190Y-145079523D01*
X108236190Y-144222380D01*
X109140952Y-145174761D02*
X109045714Y-145222380D01*
X108855238Y-145222380D01*
X108760000Y-145174761D01*
X108712380Y-145079523D01*
X108712380Y-144698571D01*
X108760000Y-144603333D01*
X108855238Y-144555714D01*
X109045714Y-144555714D01*
X109140952Y-144603333D01*
X109188571Y-144698571D01*
X109188571Y-144793809D01*
X108712380Y-144889047D01*
X109379047Y-145317619D02*
X110140952Y-145317619D01*
X110283809Y-144222380D02*
X110902857Y-144222380D01*
X110569523Y-144603333D01*
X110712380Y-144603333D01*
X110807619Y-144650952D01*
X110855238Y-144698571D01*
X110902857Y-144793809D01*
X110902857Y-145031904D01*
X110855238Y-145127142D01*
X110807619Y-145174761D01*
X110712380Y-145222380D01*
X110426666Y-145222380D01*
X110331428Y-145174761D01*
X110283809Y-145127142D01*
X111331428Y-145127142D02*
X111379047Y-145174761D01*
X111331428Y-145222380D01*
X111283809Y-145174761D01*
X111331428Y-145127142D01*
X111331428Y-145222380D01*
X111759999Y-144317619D02*
X111807619Y-144270000D01*
X111902857Y-144222380D01*
X112140952Y-144222380D01*
X112236190Y-144270000D01*
X112283809Y-144317619D01*
X112331428Y-144412857D01*
X112331428Y-144508095D01*
X112283809Y-144650952D01*
X111712380Y-145222380D01*
X112331428Y-145222380D01*
X112759999Y-145222380D02*
X112759999Y-144555714D01*
X112759999Y-144650952D02*
X112807619Y-144603333D01*
X112902857Y-144555714D01*
X113045714Y-144555714D01*
X113140952Y-144603333D01*
X113188571Y-144698571D01*
X113188571Y-145222380D01*
X113188571Y-144698571D02*
X113236190Y-144603333D01*
X113331428Y-144555714D01*
X113474285Y-144555714D01*
X113569523Y-144603333D01*
X113617142Y-144698571D01*
X113617142Y-145222380D01*
X114093333Y-145222380D02*
X114093333Y-144555714D01*
X114093333Y-144650952D02*
X114140952Y-144603333D01*
X114236190Y-144555714D01*
X114379047Y-144555714D01*
X114474285Y-144603333D01*
X114521904Y-144698571D01*
X114521904Y-145222380D01*
X114521904Y-144698571D02*
X114569523Y-144603333D01*
X114664761Y-144555714D01*
X114807619Y-144555714D01*
X114902857Y-144603333D01*
X114950476Y-144698571D01*
X114950476Y-145222380D01*
X115188571Y-145317619D02*
X115950476Y-145317619D01*
X116188571Y-145222380D02*
X116188571Y-144222380D01*
X116521904Y-144936666D01*
X116855238Y-144222380D01*
X116855238Y-145222380D01*
X117236190Y-144222380D02*
X117855238Y-144222380D01*
X117521904Y-144603333D01*
X117664761Y-144603333D01*
X117760000Y-144650952D01*
X117807619Y-144698571D01*
X117855238Y-144793809D01*
X117855238Y-145031904D01*
X117807619Y-145127142D01*
X117760000Y-145174761D01*
X117664761Y-145222380D01*
X117379047Y-145222380D01*
X117283809Y-145174761D01*
X117236190Y-145127142D01*
X118045714Y-145317619D02*
X118807619Y-145317619D01*
X119045714Y-145222380D02*
X119045714Y-144222380D01*
X119283809Y-144222380D01*
X119426666Y-144270000D01*
X119521904Y-144365238D01*
X119569523Y-144460476D01*
X119617142Y-144650952D01*
X119617142Y-144793809D01*
X119569523Y-144984285D01*
X119521904Y-145079523D01*
X119426666Y-145174761D01*
X119283809Y-145222380D01*
X119045714Y-145222380D01*
X120045714Y-145222380D02*
X120045714Y-144222380D01*
X120521904Y-145222380D02*
X120521904Y-144222380D01*
X121093333Y-145222380D01*
X121093333Y-144222380D01*
X121617142Y-145222380D02*
X121807619Y-145222380D01*
X121902857Y-145174761D01*
X121950476Y-145127142D01*
X122045714Y-144984285D01*
X122093333Y-144793809D01*
X122093333Y-144412857D01*
X122045714Y-144317619D01*
X121998095Y-144270000D01*
X121902857Y-144222380D01*
X121712380Y-144222380D01*
X121617142Y-144270000D01*
X121569523Y-144317619D01*
X121521904Y-144412857D01*
X121521904Y-144650952D01*
X121569523Y-144746190D01*
X121617142Y-144793809D01*
X121712380Y-144841428D01*
X121902857Y-144841428D01*
X121998095Y-144793809D01*
X122045714Y-144746190D01*
X122093333Y-144650952D01*
X122950476Y-144222380D02*
X122760000Y-144222380D01*
X122664761Y-144270000D01*
X122617142Y-144317619D01*
X122521904Y-144460476D01*
X122474285Y-144650952D01*
X122474285Y-145031904D01*
X122521904Y-145127142D01*
X122569523Y-145174761D01*
X122664761Y-145222380D01*
X122855238Y-145222380D01*
X122950476Y-145174761D01*
X122998095Y-145127142D01*
X123045714Y-145031904D01*
X123045714Y-144793809D01*
X122998095Y-144698571D01*
X122950476Y-144650952D01*
X122855238Y-144603333D01*
X122664761Y-144603333D01*
X122569523Y-144650952D01*
X122521904Y-144698571D01*
X122474285Y-144793809D01*
X123950476Y-144222380D02*
X123474285Y-144222380D01*
X123426666Y-144698571D01*
X123474285Y-144650952D01*
X123569523Y-144603333D01*
X123807619Y-144603333D01*
X123902857Y-144650952D01*
X123950476Y-144698571D01*
X123998095Y-144793809D01*
X123998095Y-145031904D01*
X123950476Y-145127142D01*
X123902857Y-145174761D01*
X123807619Y-145222380D01*
X123569523Y-145222380D01*
X123474285Y-145174761D01*
X123426666Y-145127142D01*
X110726666Y-141422380D02*
X110393333Y-140946190D01*
X110155238Y-141422380D02*
X110155238Y-140422380D01*
X110536190Y-140422380D01*
X110631428Y-140470000D01*
X110679047Y-140517619D01*
X110726666Y-140612857D01*
X110726666Y-140755714D01*
X110679047Y-140850952D01*
X110631428Y-140898571D01*
X110536190Y-140946190D01*
X110155238Y-140946190D01*
X111155238Y-140898571D02*
X111488571Y-140898571D01*
X111631428Y-141422380D02*
X111155238Y-141422380D01*
X111155238Y-140422380D01*
X111631428Y-140422380D01*
X112393333Y-140898571D02*
X112060000Y-140898571D01*
X112060000Y-141422380D02*
X112060000Y-140422380D01*
X112536190Y-140422380D01*
X113060000Y-140422380D02*
X113060000Y-140660476D01*
X112821904Y-140565238D02*
X113060000Y-140660476D01*
X113298095Y-140565238D01*
X112917142Y-140850952D02*
X113060000Y-140660476D01*
X113202857Y-140850952D01*
X113821904Y-140422380D02*
X113821904Y-140660476D01*
X113583809Y-140565238D02*
X113821904Y-140660476D01*
X114060000Y-140565238D01*
X113679047Y-140850952D02*
X113821904Y-140660476D01*
X113964761Y-140850952D01*
X99569523Y-76642380D02*
X99569523Y-75642380D01*
X99902857Y-76356666D01*
X100236190Y-75642380D01*
X100236190Y-76642380D01*
X100855238Y-76642380D02*
X100760000Y-76594761D01*
X100712380Y-76547142D01*
X100664761Y-76451904D01*
X100664761Y-76166190D01*
X100712380Y-76070952D01*
X100760000Y-76023333D01*
X100855238Y-75975714D01*
X100998095Y-75975714D01*
X101093333Y-76023333D01*
X101140952Y-76070952D01*
X101188571Y-76166190D01*
X101188571Y-76451904D01*
X101140952Y-76547142D01*
X101093333Y-76594761D01*
X100998095Y-76642380D01*
X100855238Y-76642380D01*
X102045714Y-75975714D02*
X102045714Y-76642380D01*
X101617142Y-75975714D02*
X101617142Y-76499523D01*
X101664761Y-76594761D01*
X101760000Y-76642380D01*
X101902857Y-76642380D01*
X101998095Y-76594761D01*
X102045714Y-76547142D01*
X102521904Y-75975714D02*
X102521904Y-76642380D01*
X102521904Y-76070952D02*
X102569523Y-76023333D01*
X102664761Y-75975714D01*
X102807619Y-75975714D01*
X102902857Y-76023333D01*
X102950476Y-76118571D01*
X102950476Y-76642380D01*
X103283809Y-75975714D02*
X103664761Y-75975714D01*
X103426666Y-75642380D02*
X103426666Y-76499523D01*
X103474285Y-76594761D01*
X103569523Y-76642380D01*
X103664761Y-76642380D01*
X103998095Y-76642380D02*
X103998095Y-75975714D01*
X103998095Y-75642380D02*
X103950476Y-75690000D01*
X103998095Y-75737619D01*
X104045714Y-75690000D01*
X103998095Y-75642380D01*
X103998095Y-75737619D01*
X104474285Y-75975714D02*
X104474285Y-76642380D01*
X104474285Y-76070952D02*
X104521904Y-76023333D01*
X104617142Y-75975714D01*
X104760000Y-75975714D01*
X104855238Y-76023333D01*
X104902857Y-76118571D01*
X104902857Y-76642380D01*
X105807619Y-75975714D02*
X105807619Y-76785238D01*
X105760000Y-76880476D01*
X105712380Y-76928095D01*
X105617142Y-76975714D01*
X105474285Y-76975714D01*
X105379047Y-76928095D01*
X105807619Y-76594761D02*
X105712380Y-76642380D01*
X105521904Y-76642380D01*
X105426666Y-76594761D01*
X105379047Y-76547142D01*
X105331428Y-76451904D01*
X105331428Y-76166190D01*
X105379047Y-76070952D01*
X105426666Y-76023333D01*
X105521904Y-75975714D01*
X105712380Y-75975714D01*
X105807619Y-76023333D01*
X106283809Y-76642380D02*
X106283809Y-75642380D01*
X106283809Y-76118571D02*
X106855238Y-76118571D01*
X106855238Y-76642380D02*
X106855238Y-75642380D01*
X107474285Y-76642380D02*
X107379047Y-76594761D01*
X107331428Y-76547142D01*
X107283809Y-76451904D01*
X107283809Y-76166190D01*
X107331428Y-76070952D01*
X107379047Y-76023333D01*
X107474285Y-75975714D01*
X107617142Y-75975714D01*
X107712380Y-76023333D01*
X107760000Y-76070952D01*
X107807619Y-76166190D01*
X107807619Y-76451904D01*
X107760000Y-76547142D01*
X107712380Y-76594761D01*
X107617142Y-76642380D01*
X107474285Y-76642380D01*
X108379047Y-76642380D02*
X108283809Y-76594761D01*
X108236190Y-76499523D01*
X108236190Y-75642380D01*
X109140952Y-76594761D02*
X109045714Y-76642380D01*
X108855238Y-76642380D01*
X108760000Y-76594761D01*
X108712380Y-76499523D01*
X108712380Y-76118571D01*
X108760000Y-76023333D01*
X108855238Y-75975714D01*
X109045714Y-75975714D01*
X109140952Y-76023333D01*
X109188571Y-76118571D01*
X109188571Y-76213809D01*
X108712380Y-76309047D01*
X109379047Y-76737619D02*
X110140952Y-76737619D01*
X110283809Y-75642380D02*
X110902857Y-75642380D01*
X110569523Y-76023333D01*
X110712380Y-76023333D01*
X110807619Y-76070952D01*
X110855238Y-76118571D01*
X110902857Y-76213809D01*
X110902857Y-76451904D01*
X110855238Y-76547142D01*
X110807619Y-76594761D01*
X110712380Y-76642380D01*
X110426666Y-76642380D01*
X110331428Y-76594761D01*
X110283809Y-76547142D01*
X111331428Y-76547142D02*
X111379047Y-76594761D01*
X111331428Y-76642380D01*
X111283809Y-76594761D01*
X111331428Y-76547142D01*
X111331428Y-76642380D01*
X111759999Y-75737619D02*
X111807619Y-75690000D01*
X111902857Y-75642380D01*
X112140952Y-75642380D01*
X112236190Y-75690000D01*
X112283809Y-75737619D01*
X112331428Y-75832857D01*
X112331428Y-75928095D01*
X112283809Y-76070952D01*
X111712380Y-76642380D01*
X112331428Y-76642380D01*
X112759999Y-76642380D02*
X112759999Y-75975714D01*
X112759999Y-76070952D02*
X112807619Y-76023333D01*
X112902857Y-75975714D01*
X113045714Y-75975714D01*
X113140952Y-76023333D01*
X113188571Y-76118571D01*
X113188571Y-76642380D01*
X113188571Y-76118571D02*
X113236190Y-76023333D01*
X113331428Y-75975714D01*
X113474285Y-75975714D01*
X113569523Y-76023333D01*
X113617142Y-76118571D01*
X113617142Y-76642380D01*
X114093333Y-76642380D02*
X114093333Y-75975714D01*
X114093333Y-76070952D02*
X114140952Y-76023333D01*
X114236190Y-75975714D01*
X114379047Y-75975714D01*
X114474285Y-76023333D01*
X114521904Y-76118571D01*
X114521904Y-76642380D01*
X114521904Y-76118571D02*
X114569523Y-76023333D01*
X114664761Y-75975714D01*
X114807619Y-75975714D01*
X114902857Y-76023333D01*
X114950476Y-76118571D01*
X114950476Y-76642380D01*
X115188571Y-76737619D02*
X115950476Y-76737619D01*
X116188571Y-76642380D02*
X116188571Y-75642380D01*
X116521904Y-76356666D01*
X116855238Y-75642380D01*
X116855238Y-76642380D01*
X117236190Y-75642380D02*
X117855238Y-75642380D01*
X117521904Y-76023333D01*
X117664761Y-76023333D01*
X117760000Y-76070952D01*
X117807619Y-76118571D01*
X117855238Y-76213809D01*
X117855238Y-76451904D01*
X117807619Y-76547142D01*
X117760000Y-76594761D01*
X117664761Y-76642380D01*
X117379047Y-76642380D01*
X117283809Y-76594761D01*
X117236190Y-76547142D01*
X118045714Y-76737619D02*
X118807619Y-76737619D01*
X119045714Y-76642380D02*
X119045714Y-75642380D01*
X119283809Y-75642380D01*
X119426666Y-75690000D01*
X119521904Y-75785238D01*
X119569523Y-75880476D01*
X119617142Y-76070952D01*
X119617142Y-76213809D01*
X119569523Y-76404285D01*
X119521904Y-76499523D01*
X119426666Y-76594761D01*
X119283809Y-76642380D01*
X119045714Y-76642380D01*
X120045714Y-76642380D02*
X120045714Y-75642380D01*
X120521904Y-76642380D02*
X120521904Y-75642380D01*
X121093333Y-76642380D01*
X121093333Y-75642380D01*
X121617142Y-76642380D02*
X121807619Y-76642380D01*
X121902857Y-76594761D01*
X121950476Y-76547142D01*
X122045714Y-76404285D01*
X122093333Y-76213809D01*
X122093333Y-75832857D01*
X122045714Y-75737619D01*
X121998095Y-75690000D01*
X121902857Y-75642380D01*
X121712380Y-75642380D01*
X121617142Y-75690000D01*
X121569523Y-75737619D01*
X121521904Y-75832857D01*
X121521904Y-76070952D01*
X121569523Y-76166190D01*
X121617142Y-76213809D01*
X121712380Y-76261428D01*
X121902857Y-76261428D01*
X121998095Y-76213809D01*
X122045714Y-76166190D01*
X122093333Y-76070952D01*
X122950476Y-75642380D02*
X122760000Y-75642380D01*
X122664761Y-75690000D01*
X122617142Y-75737619D01*
X122521904Y-75880476D01*
X122474285Y-76070952D01*
X122474285Y-76451904D01*
X122521904Y-76547142D01*
X122569523Y-76594761D01*
X122664761Y-76642380D01*
X122855238Y-76642380D01*
X122950476Y-76594761D01*
X122998095Y-76547142D01*
X123045714Y-76451904D01*
X123045714Y-76213809D01*
X122998095Y-76118571D01*
X122950476Y-76070952D01*
X122855238Y-76023333D01*
X122664761Y-76023333D01*
X122569523Y-76070952D01*
X122521904Y-76118571D01*
X122474285Y-76213809D01*
X123950476Y-75642380D02*
X123474285Y-75642380D01*
X123426666Y-76118571D01*
X123474285Y-76070952D01*
X123569523Y-76023333D01*
X123807619Y-76023333D01*
X123902857Y-76070952D01*
X123950476Y-76118571D01*
X123998095Y-76213809D01*
X123998095Y-76451904D01*
X123950476Y-76547142D01*
X123902857Y-76594761D01*
X123807619Y-76642380D01*
X123569523Y-76642380D01*
X123474285Y-76594761D01*
X123426666Y-76547142D01*
X110726666Y-72842380D02*
X110393333Y-72366190D01*
X110155238Y-72842380D02*
X110155238Y-71842380D01*
X110536190Y-71842380D01*
X110631428Y-71890000D01*
X110679047Y-71937619D01*
X110726666Y-72032857D01*
X110726666Y-72175714D01*
X110679047Y-72270952D01*
X110631428Y-72318571D01*
X110536190Y-72366190D01*
X110155238Y-72366190D01*
X111155238Y-72318571D02*
X111488571Y-72318571D01*
X111631428Y-72842380D02*
X111155238Y-72842380D01*
X111155238Y-71842380D01*
X111631428Y-71842380D01*
X112393333Y-72318571D02*
X112060000Y-72318571D01*
X112060000Y-72842380D02*
X112060000Y-71842380D01*
X112536190Y-71842380D01*
X113060000Y-71842380D02*
X113060000Y-72080476D01*
X112821904Y-71985238D02*
X113060000Y-72080476D01*
X113298095Y-71985238D01*
X112917142Y-72270952D02*
X113060000Y-72080476D01*
X113202857Y-72270952D01*
X113821904Y-71842380D02*
X113821904Y-72080476D01*
X113583809Y-71985238D02*
X113821904Y-72080476D01*
X114060000Y-71985238D01*
X113679047Y-72270952D02*
X113821904Y-72080476D01*
X113964761Y-72270952D01*
G04 #@! TO.C,J1*
X54752780Y-90939809D02*
X55752780Y-90606476D01*
X54752780Y-90273142D01*
X55752780Y-89939809D02*
X55086114Y-89939809D01*
X54752780Y-89939809D02*
X54800400Y-89987428D01*
X54848019Y-89939809D01*
X54800400Y-89892190D01*
X54752780Y-89939809D01*
X54848019Y-89939809D01*
X55086114Y-89463619D02*
X55752780Y-89463619D01*
X55181352Y-89463619D02*
X55133733Y-89416000D01*
X55086114Y-89320761D01*
X55086114Y-89177904D01*
X55133733Y-89082666D01*
X55228971Y-89035047D01*
X55752780Y-89035047D01*
X44182780Y-90249333D02*
X44897066Y-90249333D01*
X45039923Y-90296952D01*
X45135161Y-90392190D01*
X45182780Y-90535047D01*
X45182780Y-90630285D01*
X45182780Y-89249333D02*
X45182780Y-89820761D01*
X45182780Y-89535047D02*
X44182780Y-89535047D01*
X44325638Y-89630285D01*
X44420876Y-89725523D01*
X44468495Y-89820761D01*
G04 #@! TO.C,J5*
X105808780Y-85818933D02*
X106523066Y-85818933D01*
X106665923Y-85866552D01*
X106761161Y-85961790D01*
X106808780Y-86104647D01*
X106808780Y-86199885D01*
X105808780Y-84866552D02*
X105808780Y-85342742D01*
X106284971Y-85390361D01*
X106237352Y-85342742D01*
X106189733Y-85247504D01*
X106189733Y-85009409D01*
X106237352Y-84914171D01*
X106284971Y-84866552D01*
X106380209Y-84818933D01*
X106618304Y-84818933D01*
X106713542Y-84866552D01*
X106761161Y-84914171D01*
X106808780Y-85009409D01*
X106808780Y-85247504D01*
X106761161Y-85342742D01*
X106713542Y-85390361D01*
G04 #@! TO.C,C1*
X61535333Y-139041142D02*
X61487714Y-139088761D01*
X61344857Y-139136380D01*
X61249619Y-139136380D01*
X61106761Y-139088761D01*
X61011523Y-138993523D01*
X60963904Y-138898285D01*
X60916285Y-138707809D01*
X60916285Y-138564952D01*
X60963904Y-138374476D01*
X61011523Y-138279238D01*
X61106761Y-138184000D01*
X61249619Y-138136380D01*
X61344857Y-138136380D01*
X61487714Y-138184000D01*
X61535333Y-138231619D01*
X62487714Y-139136380D02*
X61916285Y-139136380D01*
X62202000Y-139136380D02*
X62202000Y-138136380D01*
X62106761Y-138279238D01*
X62011523Y-138374476D01*
X61916285Y-138422095D01*
G04 #@! TO.C,C2*
X65127142Y-88451666D02*
X65174761Y-88499285D01*
X65222380Y-88642142D01*
X65222380Y-88737380D01*
X65174761Y-88880238D01*
X65079523Y-88975476D01*
X64984285Y-89023095D01*
X64793809Y-89070714D01*
X64650952Y-89070714D01*
X64460476Y-89023095D01*
X64365238Y-88975476D01*
X64270000Y-88880238D01*
X64222380Y-88737380D01*
X64222380Y-88642142D01*
X64270000Y-88499285D01*
X64317619Y-88451666D01*
X64317619Y-88070714D02*
X64270000Y-88023095D01*
X64222380Y-87927857D01*
X64222380Y-87689761D01*
X64270000Y-87594523D01*
X64317619Y-87546904D01*
X64412857Y-87499285D01*
X64508095Y-87499285D01*
X64650952Y-87546904D01*
X65222380Y-88118333D01*
X65222380Y-87499285D01*
G04 #@! TO.C,C3*
X71731142Y-128670666D02*
X71778761Y-128718285D01*
X71826380Y-128861142D01*
X71826380Y-128956380D01*
X71778761Y-129099238D01*
X71683523Y-129194476D01*
X71588285Y-129242095D01*
X71397809Y-129289714D01*
X71254952Y-129289714D01*
X71064476Y-129242095D01*
X70969238Y-129194476D01*
X70874000Y-129099238D01*
X70826380Y-128956380D01*
X70826380Y-128861142D01*
X70874000Y-128718285D01*
X70921619Y-128670666D01*
X70826380Y-128337333D02*
X70826380Y-127718285D01*
X71207333Y-128051619D01*
X71207333Y-127908761D01*
X71254952Y-127813523D01*
X71302571Y-127765904D01*
X71397809Y-127718285D01*
X71635904Y-127718285D01*
X71731142Y-127765904D01*
X71778761Y-127813523D01*
X71826380Y-127908761D01*
X71826380Y-128194476D01*
X71778761Y-128289714D01*
X71731142Y-128337333D01*
G04 #@! TO.C,C4*
X78807333Y-90273142D02*
X78759714Y-90320761D01*
X78616857Y-90368380D01*
X78521619Y-90368380D01*
X78378761Y-90320761D01*
X78283523Y-90225523D01*
X78235904Y-90130285D01*
X78188285Y-89939809D01*
X78188285Y-89796952D01*
X78235904Y-89606476D01*
X78283523Y-89511238D01*
X78378761Y-89416000D01*
X78521619Y-89368380D01*
X78616857Y-89368380D01*
X78759714Y-89416000D01*
X78807333Y-89463619D01*
X79664476Y-89701714D02*
X79664476Y-90368380D01*
X79426380Y-89320761D02*
X79188285Y-90035047D01*
X79807333Y-90035047D01*
G04 #@! TO.C,D1*
X80661142Y-119488380D02*
X80089714Y-119488380D01*
X80375428Y-119488380D02*
X80375428Y-118488380D01*
X80280190Y-118631238D01*
X80184952Y-118726476D01*
X80089714Y-118774095D01*
X81089714Y-119488380D02*
X81089714Y-118488380D01*
X81661142Y-119488380D01*
X81661142Y-118488380D01*
X82613523Y-118488380D02*
X82137333Y-118488380D01*
X82089714Y-118964571D01*
X82137333Y-118916952D01*
X82232571Y-118869333D01*
X82470666Y-118869333D01*
X82565904Y-118916952D01*
X82613523Y-118964571D01*
X82661142Y-119059809D01*
X82661142Y-119297904D01*
X82613523Y-119393142D01*
X82565904Y-119440761D01*
X82470666Y-119488380D01*
X82232571Y-119488380D01*
X82137333Y-119440761D01*
X82089714Y-119393142D01*
X83232571Y-118916952D02*
X83137333Y-118869333D01*
X83089714Y-118821714D01*
X83042095Y-118726476D01*
X83042095Y-118678857D01*
X83089714Y-118583619D01*
X83137333Y-118536000D01*
X83232571Y-118488380D01*
X83423047Y-118488380D01*
X83518285Y-118536000D01*
X83565904Y-118583619D01*
X83613523Y-118678857D01*
X83613523Y-118726476D01*
X83565904Y-118821714D01*
X83518285Y-118869333D01*
X83423047Y-118916952D01*
X83232571Y-118916952D01*
X83137333Y-118964571D01*
X83089714Y-119012190D01*
X83042095Y-119107428D01*
X83042095Y-119297904D01*
X83089714Y-119393142D01*
X83137333Y-119440761D01*
X83232571Y-119488380D01*
X83423047Y-119488380D01*
X83518285Y-119440761D01*
X83565904Y-119393142D01*
X83613523Y-119297904D01*
X83613523Y-119107428D01*
X83565904Y-119012190D01*
X83518285Y-118964571D01*
X83423047Y-118916952D01*
X83994476Y-118583619D02*
X84042095Y-118536000D01*
X84137333Y-118488380D01*
X84375428Y-118488380D01*
X84470666Y-118536000D01*
X84518285Y-118583619D01*
X84565904Y-118678857D01*
X84565904Y-118774095D01*
X84518285Y-118916952D01*
X83946857Y-119488380D01*
X84565904Y-119488380D01*
X84946857Y-118583619D02*
X84994476Y-118536000D01*
X85089714Y-118488380D01*
X85327809Y-118488380D01*
X85423047Y-118536000D01*
X85470666Y-118583619D01*
X85518285Y-118678857D01*
X85518285Y-118774095D01*
X85470666Y-118916952D01*
X84899238Y-119488380D01*
X85518285Y-119488380D01*
X82778404Y-115768380D02*
X82778404Y-114768380D01*
X83016500Y-114768380D01*
X83159357Y-114816000D01*
X83254595Y-114911238D01*
X83302214Y-115006476D01*
X83349833Y-115196952D01*
X83349833Y-115339809D01*
X83302214Y-115530285D01*
X83254595Y-115625523D01*
X83159357Y-115720761D01*
X83016500Y-115768380D01*
X82778404Y-115768380D01*
X84302214Y-115768380D02*
X83730785Y-115768380D01*
X84016500Y-115768380D02*
X84016500Y-114768380D01*
X83921261Y-114911238D01*
X83826023Y-115006476D01*
X83730785Y-115054095D01*
X74922095Y-113168380D02*
X74922095Y-112168380D01*
X75493523Y-113168380D02*
X75064952Y-112596952D01*
X75493523Y-112168380D02*
X74922095Y-112739809D01*
G04 #@! TO.C,D2*
X95030380Y-110092857D02*
X95030380Y-110664285D01*
X95030380Y-110378571D02*
X94030380Y-110378571D01*
X94173238Y-110473809D01*
X94268476Y-110569047D01*
X94316095Y-110664285D01*
X95030380Y-109664285D02*
X94030380Y-109664285D01*
X95030380Y-109092857D01*
X94030380Y-109092857D01*
X94030380Y-108140476D02*
X94030380Y-108616666D01*
X94506571Y-108664285D01*
X94458952Y-108616666D01*
X94411333Y-108521428D01*
X94411333Y-108283333D01*
X94458952Y-108188095D01*
X94506571Y-108140476D01*
X94601809Y-108092857D01*
X94839904Y-108092857D01*
X94935142Y-108140476D01*
X94982761Y-108188095D01*
X95030380Y-108283333D01*
X95030380Y-108521428D01*
X94982761Y-108616666D01*
X94935142Y-108664285D01*
X94458952Y-107521428D02*
X94411333Y-107616666D01*
X94363714Y-107664285D01*
X94268476Y-107711904D01*
X94220857Y-107711904D01*
X94125619Y-107664285D01*
X94078000Y-107616666D01*
X94030380Y-107521428D01*
X94030380Y-107330952D01*
X94078000Y-107235714D01*
X94125619Y-107188095D01*
X94220857Y-107140476D01*
X94268476Y-107140476D01*
X94363714Y-107188095D01*
X94411333Y-107235714D01*
X94458952Y-107330952D01*
X94458952Y-107521428D01*
X94506571Y-107616666D01*
X94554190Y-107664285D01*
X94649428Y-107711904D01*
X94839904Y-107711904D01*
X94935142Y-107664285D01*
X94982761Y-107616666D01*
X95030380Y-107521428D01*
X95030380Y-107330952D01*
X94982761Y-107235714D01*
X94935142Y-107188095D01*
X94839904Y-107140476D01*
X94649428Y-107140476D01*
X94554190Y-107188095D01*
X94506571Y-107235714D01*
X94458952Y-107330952D01*
X94125619Y-106759523D02*
X94078000Y-106711904D01*
X94030380Y-106616666D01*
X94030380Y-106378571D01*
X94078000Y-106283333D01*
X94125619Y-106235714D01*
X94220857Y-106188095D01*
X94316095Y-106188095D01*
X94458952Y-106235714D01*
X95030380Y-106807142D01*
X95030380Y-106188095D01*
X94125619Y-105807142D02*
X94078000Y-105759523D01*
X94030380Y-105664285D01*
X94030380Y-105426190D01*
X94078000Y-105330952D01*
X94125619Y-105283333D01*
X94220857Y-105235714D01*
X94316095Y-105235714D01*
X94458952Y-105283333D01*
X95030380Y-105854761D01*
X95030380Y-105235714D01*
X98750380Y-109400595D02*
X97750380Y-109400595D01*
X97750380Y-109162500D01*
X97798000Y-109019642D01*
X97893238Y-108924404D01*
X97988476Y-108876785D01*
X98178952Y-108829166D01*
X98321809Y-108829166D01*
X98512285Y-108876785D01*
X98607523Y-108924404D01*
X98702761Y-109019642D01*
X98750380Y-109162500D01*
X98750380Y-109400595D01*
X97845619Y-108448214D02*
X97798000Y-108400595D01*
X97750380Y-108305357D01*
X97750380Y-108067261D01*
X97798000Y-107972023D01*
X97845619Y-107924404D01*
X97940857Y-107876785D01*
X98036095Y-107876785D01*
X98178952Y-107924404D01*
X98750380Y-108495833D01*
X98750380Y-107876785D01*
X101350380Y-100591904D02*
X100350380Y-100591904D01*
X101350380Y-100020476D02*
X100778952Y-100449047D01*
X100350380Y-100020476D02*
X100921809Y-100591904D01*
G04 #@! TO.C,D3*
X80661142Y-107296380D02*
X80089714Y-107296380D01*
X80375428Y-107296380D02*
X80375428Y-106296380D01*
X80280190Y-106439238D01*
X80184952Y-106534476D01*
X80089714Y-106582095D01*
X81089714Y-107296380D02*
X81089714Y-106296380D01*
X81661142Y-107296380D01*
X81661142Y-106296380D01*
X82613523Y-106296380D02*
X82137333Y-106296380D01*
X82089714Y-106772571D01*
X82137333Y-106724952D01*
X82232571Y-106677333D01*
X82470666Y-106677333D01*
X82565904Y-106724952D01*
X82613523Y-106772571D01*
X82661142Y-106867809D01*
X82661142Y-107105904D01*
X82613523Y-107201142D01*
X82565904Y-107248761D01*
X82470666Y-107296380D01*
X82232571Y-107296380D01*
X82137333Y-107248761D01*
X82089714Y-107201142D01*
X83232571Y-106724952D02*
X83137333Y-106677333D01*
X83089714Y-106629714D01*
X83042095Y-106534476D01*
X83042095Y-106486857D01*
X83089714Y-106391619D01*
X83137333Y-106344000D01*
X83232571Y-106296380D01*
X83423047Y-106296380D01*
X83518285Y-106344000D01*
X83565904Y-106391619D01*
X83613523Y-106486857D01*
X83613523Y-106534476D01*
X83565904Y-106629714D01*
X83518285Y-106677333D01*
X83423047Y-106724952D01*
X83232571Y-106724952D01*
X83137333Y-106772571D01*
X83089714Y-106820190D01*
X83042095Y-106915428D01*
X83042095Y-107105904D01*
X83089714Y-107201142D01*
X83137333Y-107248761D01*
X83232571Y-107296380D01*
X83423047Y-107296380D01*
X83518285Y-107248761D01*
X83565904Y-107201142D01*
X83613523Y-107105904D01*
X83613523Y-106915428D01*
X83565904Y-106820190D01*
X83518285Y-106772571D01*
X83423047Y-106724952D01*
X83994476Y-106391619D02*
X84042095Y-106344000D01*
X84137333Y-106296380D01*
X84375428Y-106296380D01*
X84470666Y-106344000D01*
X84518285Y-106391619D01*
X84565904Y-106486857D01*
X84565904Y-106582095D01*
X84518285Y-106724952D01*
X83946857Y-107296380D01*
X84565904Y-107296380D01*
X84946857Y-106391619D02*
X84994476Y-106344000D01*
X85089714Y-106296380D01*
X85327809Y-106296380D01*
X85423047Y-106344000D01*
X85470666Y-106391619D01*
X85518285Y-106486857D01*
X85518285Y-106582095D01*
X85470666Y-106724952D01*
X84899238Y-107296380D01*
X85518285Y-107296380D01*
X74922095Y-100976380D02*
X74922095Y-99976380D01*
X75493523Y-100976380D02*
X75064952Y-100404952D01*
X75493523Y-99976380D02*
X74922095Y-100547809D01*
X82778404Y-103576380D02*
X82778404Y-102576380D01*
X83016500Y-102576380D01*
X83159357Y-102624000D01*
X83254595Y-102719238D01*
X83302214Y-102814476D01*
X83349833Y-103004952D01*
X83349833Y-103147809D01*
X83302214Y-103338285D01*
X83254595Y-103433523D01*
X83159357Y-103528761D01*
X83016500Y-103576380D01*
X82778404Y-103576380D01*
X83683166Y-102576380D02*
X84302214Y-102576380D01*
X83968880Y-102957333D01*
X84111738Y-102957333D01*
X84206976Y-103004952D01*
X84254595Y-103052571D01*
X84302214Y-103147809D01*
X84302214Y-103385904D01*
X84254595Y-103481142D01*
X84206976Y-103528761D01*
X84111738Y-103576380D01*
X83826023Y-103576380D01*
X83730785Y-103528761D01*
X83683166Y-103481142D01*
G04 #@! TO.C,J2*
X57237380Y-106378333D02*
X57951666Y-106378333D01*
X58094523Y-106425952D01*
X58189761Y-106521190D01*
X58237380Y-106664047D01*
X58237380Y-106759285D01*
X57332619Y-105949761D02*
X57285000Y-105902142D01*
X57237380Y-105806904D01*
X57237380Y-105568809D01*
X57285000Y-105473571D01*
X57332619Y-105425952D01*
X57427857Y-105378333D01*
X57523095Y-105378333D01*
X57665952Y-105425952D01*
X58237380Y-105997380D01*
X58237380Y-105378333D01*
G04 #@! TO.C,J3*
X66127380Y-105743333D02*
X66841666Y-105743333D01*
X66984523Y-105790952D01*
X67079761Y-105886190D01*
X67127380Y-106029047D01*
X67127380Y-106124285D01*
X66127380Y-105362380D02*
X66127380Y-104743333D01*
X66508333Y-105076666D01*
X66508333Y-104933809D01*
X66555952Y-104838571D01*
X66603571Y-104790952D01*
X66698809Y-104743333D01*
X66936904Y-104743333D01*
X67032142Y-104790952D01*
X67079761Y-104838571D01*
X67127380Y-104933809D01*
X67127380Y-105219523D01*
X67079761Y-105314761D01*
X67032142Y-105362380D01*
G04 #@! TO.C,J4*
X91360666Y-92416380D02*
X91360666Y-93130666D01*
X91313047Y-93273523D01*
X91217809Y-93368761D01*
X91074952Y-93416380D01*
X90979714Y-93416380D01*
X92265428Y-92749714D02*
X92265428Y-93416380D01*
X92027333Y-92368761D02*
X91789238Y-93083047D01*
X92408285Y-93083047D01*
G04 #@! TO.C,L1*
X61583333Y-120848380D02*
X61107142Y-120848380D01*
X61107142Y-119848380D01*
X62440476Y-120848380D02*
X61869047Y-120848380D01*
X62154761Y-120848380D02*
X62154761Y-119848380D01*
X62059523Y-119991238D01*
X61964285Y-120086476D01*
X61869047Y-120134095D01*
G04 #@! TO.C,L2*
X90368380Y-83760666D02*
X90368380Y-84236857D01*
X89368380Y-84236857D01*
X89463619Y-83474952D02*
X89416000Y-83427333D01*
X89368380Y-83332095D01*
X89368380Y-83094000D01*
X89416000Y-82998761D01*
X89463619Y-82951142D01*
X89558857Y-82903523D01*
X89654095Y-82903523D01*
X89796952Y-82951142D01*
X90368380Y-83522571D01*
X90368380Y-82903523D01*
G04 #@! TO.C,R1*
X89749333Y-138374380D02*
X89416000Y-137898190D01*
X89177904Y-138374380D02*
X89177904Y-137374380D01*
X89558857Y-137374380D01*
X89654095Y-137422000D01*
X89701714Y-137469619D01*
X89749333Y-137564857D01*
X89749333Y-137707714D01*
X89701714Y-137802952D01*
X89654095Y-137850571D01*
X89558857Y-137898190D01*
X89177904Y-137898190D01*
X90701714Y-138374380D02*
X90130285Y-138374380D01*
X90416000Y-138374380D02*
X90416000Y-137374380D01*
X90320761Y-137517238D01*
X90225523Y-137612476D01*
X90130285Y-137660095D01*
G04 #@! TO.C,R2*
X89749333Y-142438380D02*
X89416000Y-141962190D01*
X89177904Y-142438380D02*
X89177904Y-141438380D01*
X89558857Y-141438380D01*
X89654095Y-141486000D01*
X89701714Y-141533619D01*
X89749333Y-141628857D01*
X89749333Y-141771714D01*
X89701714Y-141866952D01*
X89654095Y-141914571D01*
X89558857Y-141962190D01*
X89177904Y-141962190D01*
X90130285Y-141533619D02*
X90177904Y-141486000D01*
X90273142Y-141438380D01*
X90511238Y-141438380D01*
X90606476Y-141486000D01*
X90654095Y-141533619D01*
X90701714Y-141628857D01*
X90701714Y-141724095D01*
X90654095Y-141866952D01*
X90082666Y-142438380D01*
X90701714Y-142438380D01*
G04 #@! TO.C,R4*
X77811333Y-80716380D02*
X77478000Y-80240190D01*
X77239904Y-80716380D02*
X77239904Y-79716380D01*
X77620857Y-79716380D01*
X77716095Y-79764000D01*
X77763714Y-79811619D01*
X77811333Y-79906857D01*
X77811333Y-80049714D01*
X77763714Y-80144952D01*
X77716095Y-80192571D01*
X77620857Y-80240190D01*
X77239904Y-80240190D01*
X78668476Y-80049714D02*
X78668476Y-80716380D01*
X78430380Y-79668761D02*
X78192285Y-80383047D01*
X78811333Y-80383047D01*
G04 #@! TO.C,R5*
X78420933Y-142590780D02*
X78087600Y-142114590D01*
X77849504Y-142590780D02*
X77849504Y-141590780D01*
X78230457Y-141590780D01*
X78325695Y-141638400D01*
X78373314Y-141686019D01*
X78420933Y-141781257D01*
X78420933Y-141924114D01*
X78373314Y-142019352D01*
X78325695Y-142066971D01*
X78230457Y-142114590D01*
X77849504Y-142114590D01*
X79325695Y-141590780D02*
X78849504Y-141590780D01*
X78801885Y-142066971D01*
X78849504Y-142019352D01*
X78944742Y-141971733D01*
X79182838Y-141971733D01*
X79278076Y-142019352D01*
X79325695Y-142066971D01*
X79373314Y-142162209D01*
X79373314Y-142400304D01*
X79325695Y-142495542D01*
X79278076Y-142543161D01*
X79182838Y-142590780D01*
X78944742Y-142590780D01*
X78849504Y-142543161D01*
X78801885Y-142495542D01*
G04 #@! TO.C,R6*
X78370133Y-138018780D02*
X78036800Y-137542590D01*
X77798704Y-138018780D02*
X77798704Y-137018780D01*
X78179657Y-137018780D01*
X78274895Y-137066400D01*
X78322514Y-137114019D01*
X78370133Y-137209257D01*
X78370133Y-137352114D01*
X78322514Y-137447352D01*
X78274895Y-137494971D01*
X78179657Y-137542590D01*
X77798704Y-137542590D01*
X79227276Y-137018780D02*
X79036800Y-137018780D01*
X78941561Y-137066400D01*
X78893942Y-137114019D01*
X78798704Y-137256876D01*
X78751085Y-137447352D01*
X78751085Y-137828304D01*
X78798704Y-137923542D01*
X78846323Y-137971161D01*
X78941561Y-138018780D01*
X79132038Y-138018780D01*
X79227276Y-137971161D01*
X79274895Y-137923542D01*
X79322514Y-137828304D01*
X79322514Y-137590209D01*
X79274895Y-137494971D01*
X79227276Y-137447352D01*
X79132038Y-137399733D01*
X78941561Y-137399733D01*
X78846323Y-137447352D01*
X78798704Y-137494971D01*
X78751085Y-137590209D01*
G04 #@! TO.C,RV1*
X109375961Y-126922780D02*
X109042628Y-126446590D01*
X108804533Y-126922780D02*
X108804533Y-125922780D01*
X109185485Y-125922780D01*
X109280723Y-125970400D01*
X109328342Y-126018019D01*
X109375961Y-126113257D01*
X109375961Y-126256114D01*
X109328342Y-126351352D01*
X109280723Y-126398971D01*
X109185485Y-126446590D01*
X108804533Y-126446590D01*
X109661676Y-125922780D02*
X109995009Y-126922780D01*
X110328342Y-125922780D01*
X111185485Y-126922780D02*
X110614057Y-126922780D01*
X110899771Y-126922780D02*
X110899771Y-125922780D01*
X110804533Y-126065638D01*
X110709295Y-126160876D01*
X110614057Y-126208495D01*
G04 #@! TO.C,RV2*
X109579161Y-105332780D02*
X109245828Y-104856590D01*
X109007733Y-105332780D02*
X109007733Y-104332780D01*
X109388685Y-104332780D01*
X109483923Y-104380400D01*
X109531542Y-104428019D01*
X109579161Y-104523257D01*
X109579161Y-104666114D01*
X109531542Y-104761352D01*
X109483923Y-104808971D01*
X109388685Y-104856590D01*
X109007733Y-104856590D01*
X109864876Y-104332780D02*
X110198209Y-105332780D01*
X110531542Y-104332780D01*
X110817257Y-104428019D02*
X110864876Y-104380400D01*
X110960114Y-104332780D01*
X111198209Y-104332780D01*
X111293447Y-104380400D01*
X111341066Y-104428019D01*
X111388685Y-104523257D01*
X111388685Y-104618495D01*
X111341066Y-104761352D01*
X110769638Y-105332780D01*
X111388685Y-105332780D01*
G04 #@! TO.C,U1*
X44918380Y-121030904D02*
X45727904Y-121030904D01*
X45823142Y-120983285D01*
X45870761Y-120935666D01*
X45918380Y-120840428D01*
X45918380Y-120649952D01*
X45870761Y-120554714D01*
X45823142Y-120507095D01*
X45727904Y-120459476D01*
X44918380Y-120459476D01*
X45918380Y-119459476D02*
X45918380Y-120030904D01*
X45918380Y-119745190D02*
X44918380Y-119745190D01*
X45061238Y-119840428D01*
X45156476Y-119935666D01*
X45204095Y-120030904D01*
G04 #@! TO.C,U2*
X64233095Y-67602380D02*
X64233095Y-68411904D01*
X64280714Y-68507142D01*
X64328333Y-68554761D01*
X64423571Y-68602380D01*
X64614047Y-68602380D01*
X64709285Y-68554761D01*
X64756904Y-68507142D01*
X64804523Y-68411904D01*
X64804523Y-67602380D01*
X65233095Y-67697619D02*
X65280714Y-67650000D01*
X65375952Y-67602380D01*
X65614047Y-67602380D01*
X65709285Y-67650000D01*
X65756904Y-67697619D01*
X65804523Y-67792857D01*
X65804523Y-67888095D01*
X65756904Y-68030952D01*
X65185476Y-68602380D01*
X65804523Y-68602380D01*
G04 #@! TO.C,REF\002A\002A*
X37339523Y-76642380D02*
X37339523Y-75642380D01*
X37672857Y-76356666D01*
X38006190Y-75642380D01*
X38006190Y-76642380D01*
X38625238Y-76642380D02*
X38529999Y-76594761D01*
X38482380Y-76547142D01*
X38434761Y-76451904D01*
X38434761Y-76166190D01*
X38482380Y-76070952D01*
X38529999Y-76023333D01*
X38625238Y-75975714D01*
X38768095Y-75975714D01*
X38863333Y-76023333D01*
X38910952Y-76070952D01*
X38958571Y-76166190D01*
X38958571Y-76451904D01*
X38910952Y-76547142D01*
X38863333Y-76594761D01*
X38768095Y-76642380D01*
X38625238Y-76642380D01*
X39815714Y-75975714D02*
X39815714Y-76642380D01*
X39387142Y-75975714D02*
X39387142Y-76499523D01*
X39434761Y-76594761D01*
X39529999Y-76642380D01*
X39672857Y-76642380D01*
X39768095Y-76594761D01*
X39815714Y-76547142D01*
X40291904Y-75975714D02*
X40291904Y-76642380D01*
X40291904Y-76070952D02*
X40339523Y-76023333D01*
X40434761Y-75975714D01*
X40577619Y-75975714D01*
X40672857Y-76023333D01*
X40720476Y-76118571D01*
X40720476Y-76642380D01*
X41053809Y-75975714D02*
X41434761Y-75975714D01*
X41196666Y-75642380D02*
X41196666Y-76499523D01*
X41244285Y-76594761D01*
X41339523Y-76642380D01*
X41434761Y-76642380D01*
X41768095Y-76642380D02*
X41768095Y-75975714D01*
X41768095Y-75642380D02*
X41720476Y-75690000D01*
X41768095Y-75737619D01*
X41815714Y-75690000D01*
X41768095Y-75642380D01*
X41768095Y-75737619D01*
X42244285Y-75975714D02*
X42244285Y-76642380D01*
X42244285Y-76070952D02*
X42291904Y-76023333D01*
X42387142Y-75975714D01*
X42529999Y-75975714D01*
X42625238Y-76023333D01*
X42672857Y-76118571D01*
X42672857Y-76642380D01*
X43577619Y-75975714D02*
X43577619Y-76785238D01*
X43529999Y-76880476D01*
X43482380Y-76928095D01*
X43387142Y-76975714D01*
X43244285Y-76975714D01*
X43149047Y-76928095D01*
X43577619Y-76594761D02*
X43482380Y-76642380D01*
X43291904Y-76642380D01*
X43196666Y-76594761D01*
X43149047Y-76547142D01*
X43101428Y-76451904D01*
X43101428Y-76166190D01*
X43149047Y-76070952D01*
X43196666Y-76023333D01*
X43291904Y-75975714D01*
X43482380Y-75975714D01*
X43577619Y-76023333D01*
X44053809Y-76642380D02*
X44053809Y-75642380D01*
X44053809Y-76118571D02*
X44625238Y-76118571D01*
X44625238Y-76642380D02*
X44625238Y-75642380D01*
X45244285Y-76642380D02*
X45149047Y-76594761D01*
X45101428Y-76547142D01*
X45053809Y-76451904D01*
X45053809Y-76166190D01*
X45101428Y-76070952D01*
X45149047Y-76023333D01*
X45244285Y-75975714D01*
X45387142Y-75975714D01*
X45482380Y-76023333D01*
X45529999Y-76070952D01*
X45577619Y-76166190D01*
X45577619Y-76451904D01*
X45529999Y-76547142D01*
X45482380Y-76594761D01*
X45387142Y-76642380D01*
X45244285Y-76642380D01*
X46149047Y-76642380D02*
X46053809Y-76594761D01*
X46006190Y-76499523D01*
X46006190Y-75642380D01*
X46910952Y-76594761D02*
X46815714Y-76642380D01*
X46625238Y-76642380D01*
X46529999Y-76594761D01*
X46482380Y-76499523D01*
X46482380Y-76118571D01*
X46529999Y-76023333D01*
X46625238Y-75975714D01*
X46815714Y-75975714D01*
X46910952Y-76023333D01*
X46958571Y-76118571D01*
X46958571Y-76213809D01*
X46482380Y-76309047D01*
X47149047Y-76737619D02*
X47910952Y-76737619D01*
X48053809Y-75642380D02*
X48672857Y-75642380D01*
X48339523Y-76023333D01*
X48482380Y-76023333D01*
X48577619Y-76070952D01*
X48625238Y-76118571D01*
X48672857Y-76213809D01*
X48672857Y-76451904D01*
X48625238Y-76547142D01*
X48577619Y-76594761D01*
X48482380Y-76642380D01*
X48196666Y-76642380D01*
X48101428Y-76594761D01*
X48053809Y-76547142D01*
X49101428Y-76547142D02*
X49149047Y-76594761D01*
X49101428Y-76642380D01*
X49053809Y-76594761D01*
X49101428Y-76547142D01*
X49101428Y-76642380D01*
X49529999Y-75737619D02*
X49577619Y-75690000D01*
X49672857Y-75642380D01*
X49910952Y-75642380D01*
X50006190Y-75690000D01*
X50053809Y-75737619D01*
X50101428Y-75832857D01*
X50101428Y-75928095D01*
X50053809Y-76070952D01*
X49482380Y-76642380D01*
X50101428Y-76642380D01*
X50529999Y-76642380D02*
X50529999Y-75975714D01*
X50529999Y-76070952D02*
X50577619Y-76023333D01*
X50672857Y-75975714D01*
X50815714Y-75975714D01*
X50910952Y-76023333D01*
X50958571Y-76118571D01*
X50958571Y-76642380D01*
X50958571Y-76118571D02*
X51006190Y-76023333D01*
X51101428Y-75975714D01*
X51244285Y-75975714D01*
X51339523Y-76023333D01*
X51387142Y-76118571D01*
X51387142Y-76642380D01*
X51863333Y-76642380D02*
X51863333Y-75975714D01*
X51863333Y-76070952D02*
X51910952Y-76023333D01*
X52006190Y-75975714D01*
X52149047Y-75975714D01*
X52244285Y-76023333D01*
X52291904Y-76118571D01*
X52291904Y-76642380D01*
X52291904Y-76118571D02*
X52339523Y-76023333D01*
X52434761Y-75975714D01*
X52577619Y-75975714D01*
X52672857Y-76023333D01*
X52720476Y-76118571D01*
X52720476Y-76642380D01*
X52958571Y-76737619D02*
X53720476Y-76737619D01*
X53958571Y-76642380D02*
X53958571Y-75642380D01*
X54291904Y-76356666D01*
X54625238Y-75642380D01*
X54625238Y-76642380D01*
X55006190Y-75642380D02*
X55625238Y-75642380D01*
X55291904Y-76023333D01*
X55434761Y-76023333D01*
X55529999Y-76070952D01*
X55577619Y-76118571D01*
X55625238Y-76213809D01*
X55625238Y-76451904D01*
X55577619Y-76547142D01*
X55529999Y-76594761D01*
X55434761Y-76642380D01*
X55149047Y-76642380D01*
X55053809Y-76594761D01*
X55006190Y-76547142D01*
X55815714Y-76737619D02*
X56577619Y-76737619D01*
X56815714Y-76642380D02*
X56815714Y-75642380D01*
X57053809Y-75642380D01*
X57196666Y-75690000D01*
X57291904Y-75785238D01*
X57339523Y-75880476D01*
X57387142Y-76070952D01*
X57387142Y-76213809D01*
X57339523Y-76404285D01*
X57291904Y-76499523D01*
X57196666Y-76594761D01*
X57053809Y-76642380D01*
X56815714Y-76642380D01*
X57815714Y-76642380D02*
X57815714Y-75642380D01*
X58291904Y-76642380D02*
X58291904Y-75642380D01*
X58863333Y-76642380D01*
X58863333Y-75642380D01*
X59387142Y-76642380D02*
X59577619Y-76642380D01*
X59672857Y-76594761D01*
X59720476Y-76547142D01*
X59815714Y-76404285D01*
X59863333Y-76213809D01*
X59863333Y-75832857D01*
X59815714Y-75737619D01*
X59768095Y-75690000D01*
X59672857Y-75642380D01*
X59482380Y-75642380D01*
X59387142Y-75690000D01*
X59339523Y-75737619D01*
X59291904Y-75832857D01*
X59291904Y-76070952D01*
X59339523Y-76166190D01*
X59387142Y-76213809D01*
X59482380Y-76261428D01*
X59672857Y-76261428D01*
X59768095Y-76213809D01*
X59815714Y-76166190D01*
X59863333Y-76070952D01*
X60720476Y-75642380D02*
X60529999Y-75642380D01*
X60434761Y-75690000D01*
X60387142Y-75737619D01*
X60291904Y-75880476D01*
X60244285Y-76070952D01*
X60244285Y-76451904D01*
X60291904Y-76547142D01*
X60339523Y-76594761D01*
X60434761Y-76642380D01*
X60625238Y-76642380D01*
X60720476Y-76594761D01*
X60768095Y-76547142D01*
X60815714Y-76451904D01*
X60815714Y-76213809D01*
X60768095Y-76118571D01*
X60720476Y-76070952D01*
X60625238Y-76023333D01*
X60434761Y-76023333D01*
X60339523Y-76070952D01*
X60291904Y-76118571D01*
X60244285Y-76213809D01*
X61720476Y-75642380D02*
X61244285Y-75642380D01*
X61196666Y-76118571D01*
X61244285Y-76070952D01*
X61339523Y-76023333D01*
X61577619Y-76023333D01*
X61672857Y-76070952D01*
X61720476Y-76118571D01*
X61768095Y-76213809D01*
X61768095Y-76451904D01*
X61720476Y-76547142D01*
X61672857Y-76594761D01*
X61577619Y-76642380D01*
X61339523Y-76642380D01*
X61244285Y-76594761D01*
X61196666Y-76547142D01*
X48496666Y-72842380D02*
X48163333Y-72366190D01*
X47925238Y-72842380D02*
X47925238Y-71842380D01*
X48306190Y-71842380D01*
X48401428Y-71890000D01*
X48449047Y-71937619D01*
X48496666Y-72032857D01*
X48496666Y-72175714D01*
X48449047Y-72270952D01*
X48401428Y-72318571D01*
X48306190Y-72366190D01*
X47925238Y-72366190D01*
X48925238Y-72318571D02*
X49258571Y-72318571D01*
X49401428Y-72842380D02*
X48925238Y-72842380D01*
X48925238Y-71842380D01*
X49401428Y-71842380D01*
X50163333Y-72318571D02*
X49830000Y-72318571D01*
X49830000Y-72842380D02*
X49830000Y-71842380D01*
X50306190Y-71842380D01*
X50830000Y-71842380D02*
X50830000Y-72080476D01*
X50591904Y-71985238D02*
X50830000Y-72080476D01*
X51068095Y-71985238D01*
X50687142Y-72270952D02*
X50830000Y-72080476D01*
X50972857Y-72270952D01*
X51591904Y-71842380D02*
X51591904Y-72080476D01*
X51353809Y-71985238D02*
X51591904Y-72080476D01*
X51830000Y-71985238D01*
X51449047Y-72270952D02*
X51591904Y-72080476D01*
X51734761Y-72270952D01*
G04 #@! TD*
M02*
